<?xml version="1.0" encoding="UTF-8" standalone="no"?>
<!-- Generated by IcoMoon.io -->

<svg
   version="1.1"
   width="31.955328"
   height="26.799431"
   viewBox="0 0 31.955328 26.799431"
   id="svg6"
   sodipodi:docname="2ed.svg"
   inkscape:version="1.1.1 (3bf5ae0d25, 2021-09-20)"
   xmlns:inkscape="http://www.inkscape.org/namespaces/inkscape"
   xmlns:sodipodi="http://sodipodi.sourceforge.net/DTD/sodipodi-0.dtd"
   xmlns="http://www.w3.org/2000/svg"
   xmlns:svg="http://www.w3.org/2000/svg">
  <defs
     id="defs10" />
  <sodipodi:namedview
     id="namedview8"
     pagecolor="#ffffff"
     bordercolor="#666666"
     borderopacity="1.0"
     inkscape:pageshadow="2"
     inkscape:pageopacity="0.0"
     inkscape:pagecheckerboard="0"
     showgrid="false"
     inkscape:zoom="25.75"
     inkscape:cx="15.941748"
     inkscape:cy="13.378641"
     inkscape:window-width="1920"
     inkscape:window-height="1009"
     inkscape:window-x="-8"
     inkscape:window-y="-8"
     inkscape:window-maximized="1"
     inkscape:current-layer="svg6" />
  <title
     id="title2">2ed</title>
  <path
     fill="#000000"
     d="m 22.82644,0 c 0,0 1.688,0.18 1.688,1.926 l 6.267,1.748 c 0,0 1.565,0.601 1.081,2.649 l -5.179,19.334 c 0,0 -1.085,1.447 -2.349,1.084 l -8.355,-2.298 -8.3589995,2.298 c -1.264,0.363 -2.349,-1.084 -2.349,-1.084 L 0.09244049,6.323 c -0.483,-2.049 1.08400001,-2.649 1.08400001,-2.649 l 6.264,-1.748 c 0,-1.745 1.686,-1.926 1.686,-1.926 z m -0.054,0.721 H 9.1834405 c -0.08,0.014 -0.32,0.068 -0.549,0.22 -0.32,0.214 -0.472,0.526 -0.472,0.984 v 0.549 c 0,0 -6.647,1.855 -6.744,1.88 -0.172,0.083 -0.69600001,0.395 -0.69600001,1.227 0,0.169 0.023,0.358 0.072,0.573 0.012,0.034 5.05400001,18.859 5.13600001,19.162 0.221,0.252 0.875,0.907 1.494,0.73 l 8.5559995,-2.352 8.552,2.352 c 0.618,0.177 1.271,-0.478 1.494,-0.73 0.084,-0.303 5.128,-19.128 5.136,-19.162 0.048,-0.215 0.072,-0.404 0.072,-0.573 0,-0.832 -0.524,-1.144 -0.695,-1.227 -0.097,-0.026 -6.747,-1.88 -6.747,-1.88 V 1.925 c 0,-0.458 -0.149,-0.77 -0.47,-0.984 -0.226,-0.152 -0.47,-0.207 -0.549,-0.22 v 0 z M 8.0194405,3.471 v 18.592 c 0,0 0.158,1.208 1.125,1.208 H 14.36244 l -6.9869995,1.926 c 0,0 -0.4,0.2 -0.604,-0.24 l -5.138,-19.074 c 0,0 -0.201,-0.604 0.28,-0.764 z m 15.9209995,-0.04 6.103,1.648 c 0.48,0.16 0.281,0.761 0.281,0.761 l -5.142,19.077 c -0.2,0.441 -0.601,0.24 -0.601,0.24 l -6.987,-1.929 h 5.222 c 0.961,0 1.124,-1.204 1.124,-1.204 z m -1.225,-1.806 c 0.284,0 0.32,0.36 0.32,0.36 v 19.998 c 0,0.324 -0.32,0.404 -0.32,0.404 H 9.2644405 c -0.284,0 -0.284,-0.404 -0.284,-0.404 V 1.985 c 0,-0.24 0.284,-0.36 0.284,-0.36 z m -2.599,4.631 c -0.263,0 -0.65,0.037 -1.159,0.112 -0.509,0.075 -0.801,0.129 -0.876,0.163 -0.074,0.034 -0.112,0.08 -0.112,0.137 0,0.069 0.123,0.22 0.369,0.455 0.246,0.235 0.395,0.446 0.446,0.635 0.052,0.189 0.083,0.341 0.095,0.455 0.012,0.114 0.017,0.275 0.017,0.481 v 0.361 c 0,0.263 0.009,0.575 0.026,0.936 0.017,0.361 0.051,0.81 0.103,1.348 0.052,0.538 0.077,1.07 0.077,1.597 0,0.63 -0.034,1.151 -0.103,1.563 -0.069,0.412 -0.172,0.784 -0.309,1.116 -0.275,0.492 -0.675,0.844 -1.202,1.056 -0.527,0.212 -1.07,0.318 -1.631,0.318 -0.16,0 -0.558,-0.037 -1.193,-0.112 -0.635,-0.075 -1.122,-0.575 -1.46,-1.503 -0.338,-0.927 -0.507,-2.335 -0.507,-4.224 0,-0.343 0.003,-0.687 0.009,-1.03 0.006,-0.343 0.009,-0.693 0.009,-1.047 0.012,-0.32 0.023,-0.658 0.034,-1.013 0.011,-0.355 0.017,-0.704 0.017,-1.047 0,-0.343 -0.049,-0.538 -0.146,-0.584 -0.097,-0.046 -0.192,-0.069 -0.283,-0.069 -0.366,0.08 -0.744,0.155 -1.133,0.223 -0.389,0.068 -0.864,0.103 -1.4249995,0.103 0,0.24 0.18,0.458 0.5409995,0.652 0.361,0.194 0.575,0.444 0.644,0.747 0.069,0.303 0.109,0.538 0.12,0.704 0.011,0.166 0.017,0.65 0.017,1.451 v 1.906 c 0,1.602 0.086,2.77 0.258,3.503 0.172,0.733 0.446,1.282 0.824,1.648 0.378,0.366 0.747,0.627 1.107,0.781 0.36,0.154 0.747,0.232 1.159,0.232 0.641,-0.092 1.23,-0.172 1.768,-0.241 0.538,-0.069 1.039,-0.281 1.502,-0.635 0.463,-0.354 0.89,-0.71 1.279,-1.064 0.172,-0.034 0.335,0.123 0.489,0.472 0.154,0.349 0.358,0.609 0.609,0.781 0.251,0.172 0.444,0.278 0.575,0.318 0.132,0.04 0.278,0.06 0.438,0.06 0.275,0 0.512,-0.069 0.712,-0.206 0.2,-0.137 0.318,-0.281 0.352,-0.429 -0.721,-0.229 -1.179,-0.615 -1.373,-1.159 -0.194,-0.544 -0.292,-1.399 -0.292,-2.567 V 7.527 c 0,-0.744 -0.037,-1.142 -0.112,-1.193 -0.075,-0.051 -0.169,-0.077 -0.283,-0.077 z"
     id="path4" />
</svg>
