<?xml version="1.0" encoding="UTF-8" standalone="no"?>
<!-- Generated by IcoMoon.io -->

<svg
   version="1.1"
   width="27.46962"
   height="27.973"
   viewBox="0 0 27.46962 27.973"
   id="svg6"
   sodipodi:docname="5dn.svg"
   inkscape:version="1.1.1 (3bf5ae0d25, 2021-09-20)"
   xmlns:inkscape="http://www.inkscape.org/namespaces/inkscape"
   xmlns:sodipodi="http://sodipodi.sourceforge.net/DTD/sodipodi-0.dtd"
   xmlns="http://www.w3.org/2000/svg"
   xmlns:svg="http://www.w3.org/2000/svg">
  <defs
     id="defs10" />
  <sodipodi:namedview
     id="namedview8"
     pagecolor="#ffffff"
     bordercolor="#666666"
     borderopacity="1.0"
     inkscape:pageshadow="2"
     inkscape:pageopacity="0.0"
     inkscape:pagecheckerboard="0"
     showgrid="false"
     inkscape:zoom="25.75"
     inkscape:cx="14"
     inkscape:cy="14.23301"
     inkscape:window-width="1920"
     inkscape:window-height="1009"
     inkscape:window-x="-8"
     inkscape:window-y="-8"
     inkscape:window-maximized="1"
     inkscape:current-layer="svg6" />
  <title
     id="title2">5dn</title>
  <path
     fill="#000000"
     d="m 15.052573,5.387 c 0,0 2.883,0.301 5.374,1.245 0,0 0.354,-0.261 0.503,-0.705 0,0 -0.254,1.497 -0.143,2.932 0.13,1.684 0.888,3.774 3.197,3.88 2.857,0.134 3.02,-3.414 3.02,-3.414 0,0 0.528,1.115 0.46,2.299 -0.037,0.69 -0.423,1.376 -0.787,1.944 -0.767,1.202 -1.876,2.01 -2.317,3.424 -0.45,1.447 -0.732,2.945 -0.885,4.448 -0.099,0.948 -0.155,1.905 -0.152,2.858 0.006,0.935 0.072,1.83 0.202,2.625 l -5.12,1.05 c 0,0 -0.068,-2.23 -2.037,-2.364 0,0 0,-4.66 1.183,-8.338 0,0 3.218,-0.854 3.284,-4.532 0,0 -3.812,0.854 -6.241,1.314 l -0.864,3.153 -0.851,-3.153 c -2.433,-0.46 -6.2409996,-1.314 -6.2409996,-1.314 0.065,3.678 3.284,4.532 3.284,4.532 1.1829996,3.678 1.1829996,8.338 1.1829996,8.338 -1.9689996,0.134 -2.0339996,2.364 -2.0339996,2.364 l -5.123,-1.05 c 0.13,-0.795 0.193,-1.69 0.199,-2.625 0.003,-0.953 -0.049,-1.91 -0.146,-2.858 -0.158,-1.503 -0.438,-3.001 -0.888,-4.448 -0.441,-1.414 -1.551,-2.221 -2.32099999,-3.424 -0.363,-0.569 -0.746,-1.255 -0.786,-1.944 -0.065,-1.184 0.46,-2.299 0.46,-2.299 0,0 0.165,3.548 3.01999999,3.414 2.309,-0.106 3.07,-2.196 3.2,-3.88 0.109,-1.435 -0.143,-2.932 -0.143,-2.932 0.146,0.444 0.503,0.705 0.503,0.705 2.492,-0.944 5.3739996,-1.245 5.3739996,-1.245 0.394,-3.479 1.311,-5.387 1.311,-5.387 0,0 0.948,1.911 1.323,5.387 z"
     id="path4" />
</svg>
