<?xml version="1.0" encoding="UTF-8" standalone="no"?>
<svg
        version="1.1"
        width="29.221384"
        height="31.470703"
        viewBox="0 0 29.221384 31.470704"
        id="svg4"
        xmlns="http://www.w3.org/2000/svg"
>
  <path
          fill="url(#rarity-outline)"
     d="m 14.803588,0 -0.421875,0.87890622 -0.566406,1.17968748 -0.0039,0.00586 c 0,0 -0.795955,1.9107499 -1.244141,4.9804687 -0.728134,0.085643 -2.9214914,0.3705068 -5.1503964,1.2148432 l -0.5566406,0.2128906 -0.00977,0.59375 c 0,0 -0.017057,1.0275558 -0.15625,2.1132818 l -0.00586,0.0332 v 0.01563 C 6.630795,11.963403 6.420463,12.781 6.0496771,13.339846 c -0.3803238,0.573223 -0.8225439,0.914515 -1.7246093,0.957031 -0.00156,7.4e-5 -0.00235,-7.1e-5 -0.00391,0 h -0.00586 C 3.8611462,14.320363 3.6016974,14.210438 3.3328852,14.001954 3.0735091,13.800785 2.8403442,13.481058 2.6649165,13.126954 2.3134992,12.417608 2.2098384,11.650391 2.2098384,11.650391 l 0.00195,0.002 L 1.844604,8.6347656 0.54968213,11.384766 c -0.003119,0.0063 -0.62036248,1.252616 -0.54296874,2.712891 1.5617e-4,0.0029 -1.6186e-4,0.0049 0,0.0078 v 0.002 c 0.056308,0.969904 0.54331808,1.766833 0.92382812,2.363282 v 0.002 c 0.87373309,1.365066 1.88075619,2.114686 2.22265629,3.210937 0.4297514,1.38189 0.7004531,2.823265 0.8535156,4.279297 0.094132,0.919978 0.1435196,1.844132 0.140625,2.763672 -0.00585,0.898675 -0.065332,1.751168 -0.1855469,2.486328 l -0.1367187,0.830078 6.9648432,1.427735 0.03125,-1.035157 v -0.0039 c 2e-4,-0.0037 0.02284,-0.404617 0.201172,-0.794922 0.09539,-0.208785 0.19914,-0.373543 0.34375,-0.492187 0.144611,-0.118645 0.336634,-0.207522 0.673828,-0.230469 l 0.816407,-0.05469 v -0.816492 -0.002 c 1.6e-5,-0.0032 0.02351,-4.725017 -1.22461,-8.605469 l -0.146484,-0.457031 -0.462891,-0.121094 h -0.002 c -0.0014,-3.79e-4 -0.617677,-0.163633 -1.2832029,-0.714844 -0.4283649,-0.354786 -0.7840002,-1.001414 -1.0195312,-1.826171 0.8996856,0.199691 2.5368251,0.560691 4.3339841,0.914062 l 1.548828,5.740235 1.572266,-5.740235 c 1.79421,-0.353198 3.431226,-0.714219 4.332031,-0.914062 -0.235252,0.824973 -0.589569,1.471626 -1.017578,1.826171 -0.66617,0.55183 -1.285156,0.714844 -1.285156,0.714844 l -0.462844,0.121094 -0.146484,0.457031 c -1.248118,3.880452 -1.224626,8.602239 -1.224609,8.605469 v 0.818359 l 0.816406,0.05469 c 0.336938,0.02293 0.528635,0.11125 0.673828,0.230469 0.145193,0.119219 0.249966,0.285202 0.345703,0.49414 0.179746,0.392283 0.201172,0.796875 0.201172,0.796875 l 0.03516,1.035157 6.958985,-1.427735 -0.136719,-0.830078 c -0.12052,-0.737017 -0.18353,-1.588571 -0.189457,-2.484377 v -0.002 -0.002 c -0.0029,-0.915924 0.05226,-1.840675 0.148437,-2.761719 v -0.0039 -0.0039 l 0.002,-0.01172 c 0.148316,-1.448106 0.419264,-2.88225 0.847656,-4.259766 0.341932,-1.096354 1.348192,-1.847239 2.21875,-3.210937 v -0.002 c 0.380954,-0.594505 0.870928,-1.39385 0.923829,-2.367188 0.08362,-1.469259 -0.546875,-2.726564 -0.546875,-2.726562 L 27.409104,8.7127606 27.01262,11.638542 c -2.68e-4,0.0018 -0.11125,0.764941 -0.46875,1.47461 -0.178257,0.353854 -0.416581,0.678451 -0.677735,0.882812 -0.269241,0.21069 -0.52772,0.319317 -0.966796,0.300781 -0.905215,-0.04142 -1.346162,-0.382823 -1.726563,-0.957031 -0.370401,-0.558912 -0.579373,-1.377079 -0.636766,-2.113151 -0.03893,-0.57482 -0.101562,-2.2324224 -0.101562,-2.2324224 L 22.412963,8.4140625 21.869995,8.2070312 v -0.00195 C 19.615727,7.3507882 17.356339,7.1024611 16.62976,7.03125 16.381597,5.3461741 16.074707,4.3329954 15.446166,2.1855468 Z m -0.240234,5.9160156 c 0.180656,0.6364196 0.406212,1.2240044 0.496094,2.0039062 l 0.08203,0.7128907 0.708984,0.056641 c 0,0 2.653468,0.315024 4.865235,1.0273437 0.01696,0.4598338 0.03999,1.1594558 0.07227,1.6328128 v 0.134765 l 0.0625,0.0625 c 0.08741,0.887544 0.291847,1.8693 0.853516,2.730469 l -0.185547,0.04102 c 0,0 -3.814042,0.852351 -6.21289,1.30664 l -0.535161,0.103512 -0.158203,0.578125 -0.15625,-0.578125 L 13.91687,15.625 C 11.514316,15.17069 7.7059321,14.31836 7.7059321,14.31836 l -0.1875,-0.04297 C 8.1182773,13.356297 8.3603689,12.293251 8.4324946,11.361328 8.5345876,10.542746 8.5425051,10.093852 8.5516352,9.7714844 10.769768,9.0436671 13.381725,8.6899128 13.38562,8.6894531 l 0.701172,-0.072266 0.07812,-0.6992188 v -0.00195 c 0.09956,-0.8782988 0.256841,-1.3605533 0.398438,-2 z M 6.6395259,15.136719 v 0.05078 c 0.037689,2.094991 1.0166215,3.502827 1.9824219,4.302735 0.6788705,0.562263 1.123452,0.674329 1.3945312,0.759765 0.934592,3.103656 1.047219,6.582753 1.058594,7.263672 -0.769541,0.302487 -1.3724742,0.796768 -1.6464846,1.396485 -0.1069991,0.234184 -0.094948,0.328225 -0.1191406,0.470703 L 5.7528071,28.652344 C 5.8248226,28.039452 5.8929578,27.417013 5.8973384,26.734375 5.9004442,25.747751 5.8468019,24.757143 5.7469478,23.78125 5.5840281,22.231451 5.2933907,20.676246 4.8231196,19.164063 4.2886494,17.450364 3.0579535,16.548417 2.4051509,15.529297 v -0.002 c -0.024785,-0.03888 -0.024657,-0.07174 -0.048828,-0.111328 0.5436142,0.395794 1.236533,0.671018 2.0507812,0.628906 0.9249034,-0.04383 1.6335417,-0.425388 2.2324219,-0.908203 z m 15.9453121,0.002 c 0.599387,0.482891 1.307843,0.863716 2.234375,0.90625 h 0.0039 c 0.814264,0.03519 1.508716,-0.245263 2.048828,-0.648437 -0.02841,0.04667 -0.02737,0.08518 -0.05664,0.130859 v 0.002 c -0.649558,1.017953 -1.879521,1.920842 -2.414062,3.634766 -0.470018,1.51137 -0.76382,3.068438 -0.921875,4.621094 -0.101533,0.973398 -0.15936,1.961476 -0.15625,2.949218 0.0044,0.683701 0.07542,1.306408 0.148437,1.917969 l -3.554687,0.730469 c -0.02391,-0.143673 -0.01084,-0.238305 -0.119141,-0.474609 -0.274824,-0.599783 -0.879031,-1.092604 -1.648437,-1.394532 0.01136,-0.680827 0.124001,-4.160012 1.058593,-7.263672 0.27102,-0.08559 0.71607,-0.197752 1.394531,-0.759765 0.965482,-0.799765 1.94416,-2.207648 1.982422,-4.302735 v -0.002 z" />
  <path
          fill="url(#rarity)"
     d="m 15.928619,7.8191 c 0,0 3.140812,0.2619375 5.631812,1.2059375 0,0 0.05993,1.6462615 0.102188,2.2660625 0.13,1.684 0.888,3.774 3.197,3.88 2.544939,0.109995 3.02,-3.414 3.02,-3.414 0,0 0.528,1.115 0.46,2.299 -0.037,0.69 -0.423,1.376 -0.787,1.944 -0.767,1.202 -1.876,2.01 -2.317,3.424 -0.45,1.447 -0.732,2.945 -0.885,4.448 -0.099,0.948 -0.155,1.905 -0.152,2.858 0.006,0.935 0.072,1.83 0.202,2.625 l -5.12,1.05 c 0,0 -0.068,-2.23 -2.037,-2.364 0,0 0,-4.66 1.183,-8.338 0,0 3.218,-0.854 3.284,-4.532 0,0 -3.812,0.854 -6.241,1.314 l -0.864,3.153 -0.851,-3.153 c -2.433,-0.46 -6.2409995,-1.314 -6.2409995,-1.314 0.065,3.678 3.2840005,4.532 3.2840005,4.532 1.182999,3.678 1.182999,8.338 1.182999,8.338 -1.968999,0.134 -2.0339995,2.364 -2.0339995,2.364 l -5.123,-1.05 c 0.13,-0.795 0.193,-1.69 0.199,-2.625 0.003,-0.953 -0.049,-1.91 -0.146,-2.858 -0.158,-1.503 -0.438,-3.001 -0.888,-4.448 -0.441,-1.414 -1.551,-2.221 -2.321,-3.424 -0.363,-0.569 -0.74599998,-1.255 -0.78599998,-1.944 -0.065,-1.184 0.45999998,-2.299 0.45999998,-2.299 0,0 0.429052,3.548 3.02,3.414 2.309,-0.106 3.07,-2.196 3.2,-3.88 0.1467873,-1.144958 0.1646875,-2.211375 0.1646875,-2.211375 2.492,-0.944 5.569312,-1.260625 5.569312,-1.260625 0.394,-3.479 1.311,-5.387 1.311,-5.387 0.723058,2.4703705 1.076431,3.2561903 1.322,5.387 z"
     />
  <defs>
    <!-- This is the gradient that will actually be used on
     the cards. The colors themselves will be provided by the
     template, but the x values, y values, and offsets will be
     used from the SVG. -->
    <linearGradient id="rarity" x1="0" y1="0" x2="1" y2="0">
      <stop offset="0" style="stop-color:rgb(192,55,38);stop-opacity:1" id="stop2" />
      <stop offset="0.125" style="stop-color:rgb(192,55,38);stop-opacity:1" id="stop4" />
      <stop offset="0.5" style="stop-color:rgb(241,142,30);stop-opacity:1" id="stop6" />
      <stop offset="0.875" style="stop-color:rgb(192,55,38);stop-opacity:1" id="stop8" />
      <stop offset="1" style="stop-color:rgb(192,55,38);stop-opacity:1" id="stop10" />
    </linearGradient>
    <!-- These gradients are here so that you can visualize
     what the set symbol would like like in that rarity. The
     only gradient that matters in the end is the "rarity"
     gradient. -->
    <linearGradient id="mythic" x1="0" y1="1" x2="1" y2="0">
      <stop offset="0" style="stop-color:rgb(192,55,38);stop-opacity:1"/>
      <stop offset="0.125" style="stop-color:rgb(192,55,38);stop-opacity:1"/>
      <stop offset="0.5" style="stop-color:rgb(241,142,30);stop-opacity:1"/>
      <stop offset="0.875" style="stop-color:rgb(192,55,38);stop-opacity:1"/>
      <stop offset="1" style="stop-color:rgb(192,55,38);stop-opacity:1"/>
    </linearGradient>
    <linearGradient id="rare" x1="0" y1="1" x2="1" y2="0">
      <stop offset="0" style="stop-color:rgb(146,116,67);stop-opacity:1"/>
      <stop offset="0.125" style="stop-color:rgb(146,116,67);stop-opacity:1"/>
      <stop offset="0.5" style="stop-color:rgb(211,178,108);stop-opacity:1"/>
      <stop offset="0.875" style="stop-color:rgb(146,116,67);stop-opacity:1"/>
      <stop offset="1" style="stop-color:rgb(146,116,67);stop-opacity:1"/>
    </linearGradient>
    <linearGradient id="special" x1="0" y1="1" x2="1" y2="0">
      <stop offset="0" style="stop-color:rgb(76, 56, 106);stop-opacity:1"/>
      <stop offset="0.125" style="stop-color:rgb(76, 56, 106);stop-opacity:1"/>
      <stop offset="0.5" style="stop-color:rgb(201, 173, 221);stop-opacity:1"/>
      <stop offset="0.875" style="stop-color:rgb(76, 56, 106);stop-opacity:1"/>
      <stop offset="1" style="stop-color:rgb(76, 56, 106);stop-opacity:1"/>
    </linearGradient>
    <linearGradient id="uncommon" x1="0" y1="1" x2="1" y2="0">
      <stop offset="0" style="stop-color:rgb(98,110,119);stop-opacity:1"/>
      <stop offset="0.125" style="stop-color:rgb(98,110,119);stop-opacity:1"/>
      <stop offset="0.5" style="stop-color:rgb(196,222,238);stop-opacity:1"/>
      <stop offset="0.875" style="stop-color:rgb(98,110,119);stop-opacity:1"/>
      <stop offset="1" style="stop-color:rgb(98,110,119);stop-opacity:1"/>
    </linearGradient>
    <linearGradient id="common" x1="0" y1="1" x2="1" y2="0">
      <stop offset="0" style="stop-color:rgb(0,0,0);stop-opacity:1"/>
    </linearGradient>
    <linearGradient
            id="rarity-outline" x1="0" y1="1" x2="0" y2="1">
      <stop offset="0" style="stop-color:rgb(0,0,0);stop-opacity:1"/>
    </linearGradient>
  </defs>
</svg>
