<?xml version="1.0" encoding="UTF-8" standalone="no"?>
<svg
   version="1.1"
   width="22.706478"
   height="28.638742"
   viewBox="0 0 22.706478 28.638742"
   id="svg4"
   xmlns="http://www.w3.org/2000/svg"
   xmlns:svg="http://www.w3.org/2000/svg">
  <defs
     id="defs8" />
  <path
     fill="url(#rarity-outline)"
     d="M 4.9902344 0 L 4.7753906 0.5625 C 4.7753906 0.5625 4.4780328 1.3282767 4.1074219 1.96875 C 3.2667499 3.4030533 1.7696073 4.5126716 0.65039062 6.2089844 C 0.49949433 6.437215 0.25747933 6.762364 0.10351562 7.2050781 C -0.050448075 7.6477923 -0.0652897 8.2915575 0.2890625 8.8144531 L 0.29101562 8.8164062 L 0.29101562 8.8183594 C 0.70994391 9.4310712 1.469956 9.5635447 2.0117188 9.46875 C 2.5534815 9.3739553 2.9953307 9.1494835 3.3398438 8.796875 C 3.6055723 8.5246877 3.7063206 8.2310624 3.7617188 8.1035156 C 3.7941804 8.0287767 3.7985455 8.0394039 3.8066406 8.0292969 C 4.0213191 7.9567415 8.0302192 6.7568413 12.507812 6.4414062 C 12.420045 6.6224006 12.492782 6.4848324 12.361328 6.75 C 11.801775 7.8795847 11.47533 9.0156224 10.945312 9.8066406 C 10.833634 9.8291058 10.67617 9.8538591 10.486328 9.8710938 C 10.215113 9.8957156 9.9397699 9.9021945 9.6621094 9.9121094 C 9.5972914 9.7785692 9.5455182 9.6406924 9.3867188 9.5097656 C 9.1629269 9.325254 8.8446356 9.2271357 8.5449219 9.2285156 L 8.5429688 9.2285156 C 8.2232265 9.2304733 8.0312172 9.3626234 7.8925781 9.46875 C 7.7535726 9.5751571 7.6558264 9.6836304 7.5683594 9.7910156 C 7.3934253 10.005786 7.2781629 10.197206 7.1933594 10.376953 C 6.9862826 10.813794 6.8459482 11.296958 6.7578125 11.699219 C 6.7138985 11.898399 6.6185977 12.334606 6.578125 12.791016 C 6.557889 13.01922 6.5465263 13.250751 6.5820312 13.501953 C 6.6173803 13.752076 6.6824846 14.119374 7.1074219 14.363281 C 7.511514 14.597037 7.7543249 14.57066 8.1171875 14.535156 C 8.4432373 14.503256 8.8387777 14.33471 9.1542969 13.990234 C 8.1062565 16.625889 7.0360331 18.487962 5.6992188 21.375 C 4.817498 23.280111 4.2510191 24.304775 3.9042969 24.869141 C 3.6307509 25.314099 3.3691406 25.414063 3.3691406 25.414062 L 3.3378906 25.425781 L 3.3105469 25.441406 C 3.0040645 25.608786 2.6977401 25.721004 2.3730469 26.015625 C 2.0483537 26.310246 1.8378906 26.826927 1.8378906 27.345703 C 1.8378906 27.690414 2.0020811 28.066761 2.25 28.283203 C 2.4979189 28.499645 2.7690668 28.57598 3.0039062 28.611328 C 3.4735851 28.682028 3.8630753 28.604528 4.1757812 28.505859 C 5.5043532 28.085527 6.8883992 27.163758 7.4140625 26.853516 C 9.2525145 25.7672 11.882812 25.029297 11.882812 25.029297 L 12.402344 24.884766 L 12.433594 24.347656 C 12.433594 24.347656 12.723743 19.574908 13.294922 17.453125 L 13.294922 17.451172 C 13.766549 15.696368 14.213735 14.16228 14.84375 12.806641 C 14.858036 12.792519 14.87726 12.776586 14.902344 12.763672 C 15.005972 12.710302 15.152835 12.649765 15.283203 12.595703 C 15.582463 12.472125 16.333067 12.316587 16.832031 12.269531 C 17.368641 12.219081 17.838806 12.11113 18.158203 11.716797 C 18.4776 11.322463 18.454621 10.972428 18.496094 10.712891 C 18.551994 10.363163 18.424944 9.8832716 18.121094 9.6386719 C 17.817245 9.3940722 17.521687 9.3741186 17.289062 9.3691406 C 17.089143 9.3648606 17.032295 9.3935936 16.871094 9.4160156 C 17.123745 8.8441251 17.370739 8.2598841 17.566406 7.890625 C 18.145809 6.7971048 19.159443 5.5878776 20.066406 4.53125 C 20.364086 4.1843243 21.383058 3.3683359 21.716797 3.2148438 C 22.184924 3.001224 22.477712 2.6084856 22.599609 2.2734375 C 22.660559 2.1059135 22.688306 1.9522417 22.697266 1.8164062 C 22.702966 1.7303293 22.679969 1.6320737 22.667969 1.5429688 C 22.6282 1.2166445 22.402036 0.94442611 22.283203 0.85742188 C 22.220876 0.81178851 22.183014 0.77839308 22.173828 0.77148438 L 22.15625 0.75390625 L 22.050781 0.6953125 C 21.817642 0.56814566 21.731886 0.5858131 21.619141 0.57226562 C 21.506396 0.55871812 21.393205 0.55254293 21.269531 0.54882812 C 21.022184 0.54139812 20.73563 0.54506637 20.441406 0.55273438 C 19.852959 0.56807188 19.211835 0.59727463 18.986328 0.59570312 C 18.401492 0.59162792 17.558101 0.59971054 16.546875 0.5625 C 15.484121 0.52229883 10.197311 0.38740979 8.9785156 0.37304688 C 7.3975239 0.35491841 5.5859375 0.087890625 5.5859375 0.087890625 L 4.9902344 0 z " />
  <path
     fill="url(#rarity)"
     d="m 21.691153,1.3543463 c -0.242,-0.132 -2.136,-0.004 -2.71,-0.008 -0.574,-0.004 -1.432,0.003 -2.463,-0.035 -1.031,-0.039 -6.361,-0.175 -7.5490002,-0.189 -1.657,-0.019 -3.494,-0.29199996 -3.494,-0.29199996 0,0 -0.307,0.80199996 -0.719,1.51399996 -0.941,1.608 -2.456,2.726 -3.48,4.278 -0.31999999,0.484 -0.79699999,1.136 -0.36599999,1.772 0.45399999,0.664 1.50999999,0.27 1.89299999,-0.122 0.288,-0.295 0.232,-0.649 0.605,-0.91 0,0 5.081,-1.751 10.3670002,-1.841 0,0 -0.101,0.271 -0.741,1.562 -0.534,1.078 -0.851,2.349 -1.55,3.3069997 -0.173,0.237 -1.5590002,0.274 -2.2490002,0.293 -0.198,0.005 -0.018,-0.7079997 -0.687,-0.7039997 -0.252,0.001 -0.585,0.5229997 -0.677,0.7179997 -0.168,0.354 -0.303,0.807 -0.381,1.163 -0.084,0.381 -0.352,1.661 -0.01,1.855 0.196,0.114 0.911,0.155 1.186,-0.227 0.146,-0.203 0.393,-0.371 0.43,-0.388 0.498,-0.252 0.789,-0.243 1.2160002,-0.06 l -0.122,0.499 c -1.1640002,3.155 -2.3640002,5.026 -3.8110002,8.151 -0.89,1.923 -1.468,2.973 -1.836,3.572 -0.383,0.623 -0.874,0.838 -0.874,0.838 -0.672,0.367 -1.081,0.473 -1.081,1.246 0,0.672 0.95,0.575 1.362,0.445 1.16,-0.367 2.512,-1.246 3.083,-1.583 1.975,-1.167 4.6510002,-1.903 4.6510002,-1.903 0,0 0.263,-4.73 0.887,-7.048 0.487,-1.812 0.953,-3.429 1.648,-4.889 0.096,-0.201 0.549,-0.37 0.778,-0.465 0.448,-0.185 1.203,-0.328 1.765,-0.381 0.936,-0.088 0.901,-0.345 0.994,-0.927 0.117,-0.7319997 -0.948,-0.413 -1.365,-0.371 -0.072,0.006 -0.681,0.064 -0.751,0.078 0.302,-0.6449997 0.874,-2.0259997 1.264,-2.7619997 0.639,-1.206 1.685,-2.438 2.594,-3.497 0.405,-0.472 1.343,-1.251 1.908,-1.51 0.561,-0.256 0.565,-0.817 0.533,-0.915 -0.062,-0.194 -0.249,-0.263 -0.249,-0.263 z"/>
  <defs>
    <!-- This is the gradient that will actually be used on
     the cards. The colors themselves will be provided by the
     template, but the x values, y values, and offsets will be
     used from the SVG. -->
    <linearGradient id="rarity" x1="0" y1="1" x2="1" y2="0">
      <stop offset="0" style="stop-color:rgb(192,55,38);stop-opacity:1" id="stop2" />
      <stop offset="0.125" style="stop-color:rgb(192,55,38);stop-opacity:1" id="stop4" />
      <stop offset="0.5" style="stop-color:rgb(241,142,30);stop-opacity:1" id="stop6" />
      <stop offset="0.875" style="stop-color:rgb(192,55,38);stop-opacity:1" id="stop8" />
      <stop offset="1" style="stop-color:rgb(192,55,38);stop-opacity:1" id="stop10" />
    </linearGradient>
    <!-- These gradients are here so that you can visualize
     what the set symbol would like like in that rarity. The
     only gradient that matters in the end is the "rarity"
     gradient. -->
    <linearGradient id="mythic" x1="0" y1="1" x2="1" y2="0">
      <stop offset="0" style="stop-color:rgb(192,55,38);stop-opacity:1"/>
      <stop offset="0.125" style="stop-color:rgb(192,55,38);stop-opacity:1"/>
      <stop offset="0.5" style="stop-color:rgb(241,142,30);stop-opacity:1"/>
      <stop offset="0.875" style="stop-color:rgb(192,55,38);stop-opacity:1"/>
      <stop offset="1" style="stop-color:rgb(192,55,38);stop-opacity:1"/>
    </linearGradient>
    <linearGradient id="rare" x1="0" y1="1" x2="1" y2="0">
      <stop offset="0" style="stop-color:rgb(146,116,67);stop-opacity:1"/>
      <stop offset="0.125" style="stop-color:rgb(146,116,67);stop-opacity:1"/>
      <stop offset="0.5" style="stop-color:rgb(211,178,108);stop-opacity:1"/>
      <stop offset="0.875" style="stop-color:rgb(146,116,67);stop-opacity:1"/>
      <stop offset="1" style="stop-color:rgb(146,116,67);stop-opacity:1"/>
    </linearGradient>
    <linearGradient id="special" x1="0" y1="1" x2="1" y2="0">
      <stop offset="0" style="stop-color:rgb(76, 56, 106);stop-opacity:1"/>
      <stop offset="0.125" style="stop-color:rgb(76, 56, 106);stop-opacity:1"/>
      <stop offset="0.5" style="stop-color:rgb(201, 173, 221);stop-opacity:1"/>
      <stop offset="0.875" style="stop-color:rgb(76, 56, 106);stop-opacity:1"/>
      <stop offset="1" style="stop-color:rgb(76, 56, 106);stop-opacity:1"/>
    </linearGradient>
    <linearGradient id="uncommon" x1="0" y1="1" x2="1" y2="0">
      <stop offset="0" style="stop-color:rgb(98,110,119);stop-opacity:1"/>
      <stop offset="0.125" style="stop-color:rgb(98,110,119);stop-opacity:1"/>
      <stop offset="0.5" style="stop-color:rgb(196,222,238);stop-opacity:1"/>
      <stop offset="0.875" style="stop-color:rgb(98,110,119);stop-opacity:1"/>
      <stop offset="1" style="stop-color:rgb(98,110,119);stop-opacity:1"/>
    </linearGradient>
    <linearGradient id="common" x1="0" y1="1" x2="1" y2="0">
      <stop offset="0" style="stop-color:rgb(0,0,0);stop-opacity:1"/>
    </linearGradient>
    <linearGradient
            id="rarity-outline" x1="0" y1="1" x2="0" y2="1">
      <stop offset="0" style="stop-color:rgb(0,0,0);stop-opacity:1"/>
    </linearGradient>
  </defs>
</svg>
