<?xml version="1.0" encoding="UTF-8" standalone="no"?>
<!-- Generated by IcoMoon.io -->

<svg
   version="1.1"
   width="31.984436"
   height="26.825661"
   viewBox="0 0 31.984436 26.825661"
   id="svg6"
   sodipodi:docname="8ed.svg"
   inkscape:version="1.1.1 (3bf5ae0d25, 2021-09-20)"
   xmlns:inkscape="http://www.inkscape.org/namespaces/inkscape"
   xmlns:sodipodi="http://sodipodi.sourceforge.net/DTD/sodipodi-0.dtd"
   xmlns="http://www.w3.org/2000/svg"
   xmlns:svg="http://www.w3.org/2000/svg">
  <defs
     id="defs10" />
  <sodipodi:namedview
     id="namedview8"
     pagecolor="#ffffff"
     bordercolor="#666666"
     borderopacity="1.0"
     inkscape:pageshadow="2"
     inkscape:pageopacity="0.0"
     inkscape:pagecheckerboard="0"
     showgrid="false"
     inkscape:zoom="25.75"
     inkscape:cx="15.980583"
     inkscape:cy="13.378641"
     inkscape:window-width="1920"
     inkscape:window-height="1009"
     inkscape:window-x="-8"
     inkscape:window-y="-8"
     inkscape:window-maximized="1"
     inkscape:current-layer="svg6" />
  <title
     id="title2">8ed</title>
  <path
     fill="#000000"
     d="m 22.850598,0 c 0,0 1.69,0.178 1.69,1.928 l 6.269,1.75 c 0,0 1.566,0.601 1.082,2.652 l -5.184,19.352 c 0,0 -1.086,1.449 -2.351,1.085 l -8.362,-2.3 -8.3660004,2.3 c -1.266,0.364 -2.351,-1.085 -2.351,-1.085 L 0.09159761,6.33 c -0.481,-2.051 1.08899999,-2.652 1.08899999,-2.652 l 6.269,-1.75 c 0,-1.749 1.687,-1.928 1.687,-1.928 H 22.851598 Z m -0.054,0.722 H 9.1895976 c -0.077,0.014 -0.317,0.068 -0.547,0.22 -0.32,0.215 -0.472,0.527 -0.472,0.985 v 0.55 c 0,0 -6.653,1.856 -6.75,1.882 -0.172,0.08 -0.69699999,0.395 -0.69699999,1.228 0,0.169 0.023,0.358 0.075,0.57 0.009,0.037 5.05399999,18.879 5.13799999,19.182 0.221,0.252 0.879,0.905 1.495,0.73 l 8.5630004,-2.357 8.563,2.357 c 0.616,0.174 1.272,-0.478 1.492,-0.73 0.084,-0.304 5.132,-19.145 5.141,-19.182 0.049,-0.212 0.072,-0.401 0.072,-0.57 0,-0.833 -0.521,-1.148 -0.696,-1.228 -0.098,-0.026 -6.751,-1.882 -6.751,-1.882 v -0.55 c 0,-0.458 -0.152,-0.771 -0.469,-0.985 -0.23,-0.152 -0.473,-0.206 -0.55,-0.22 z M 8.0275976,3.474 v 18.609 c 0,0 0.158,1.209 1.125,1.209 h 5.2240004 l -6.9940004,1.927 c 0,0 -0.4,0.2 -0.604,-0.241 l -5.141,-19.094 c 0,0 -0.203,-0.602 0.278,-0.762 l 6.112,-1.65 z m 15.9350004,-0.04 6.109,1.65 c 0.481,0.161 0.281,0.762 0.281,0.762 l -5.147,19.094 c -0.197,0.441 -0.601,0.241 -0.601,0.241 l -6.994,-1.93 h 5.227 c 0.965,0 1.125,-1.205 1.125,-1.205 V 3.436 Z m -1.226,-1.807 c 0.281,0 0.323,0.361 0.323,0.361 v 20.016 c 0,0.321 -0.323,0.404 -0.323,0.404 H 9.2735976 c -0.284,0 -0.284,-0.404 -0.284,-0.404 V 1.988 c 0,-0.24 0.284,-0.361 0.284,-0.361 z m -4.827,2.255 q -2.256,0 -3.987,1.34 -1.731,1.34 -1.732,3.182 0,0.879 0.503,1.679 0.503,0.8 1.552,1.477 -2.15,0.784 -3.145,1.912 -0.995,1.128 -0.995,2.685 0,1.514 1.197,2.51 1.197,0.996 3.315,0.995 2.658,0 4.506,-1.44 1.848,-1.44 1.848,-3.453 0,-1.006 -0.625,-1.848 -0.625,-0.842 -2.012,-1.509 1.747,-0.741 2.648,-1.869 0.901,-1.128 0.9,-2.431 0,-1.387 -1.075,-2.309 -1.075,-0.922 -2.896,-0.921 z m -2.987,8.048 q 0.943,0.402 1.694,0.784 0.751,0.382 1.25,0.784 0.499,0.402 0.741,0.858 0.242,0.456 0.244,1.038 0,1.43 -1.059,2.452 -1.059,1.022 -2.785,1.022 -1.303,0 -2.049,-0.778 -0.746,-0.778 -0.747,-2.007 0,-1.334 0.688,-2.415 0.688,-1.081 2.023,-1.737 z m 2.68,-7.265 q 1.101,0 1.673,0.657 0.572,0.657 0.572,1.663 0,1.207 -0.577,2.341 -0.577,1.134 -1.604,1.705 -1.747,-0.71 -2.568,-1.419 -0.821,-0.709 -0.821,-1.79 0,-1.356 0.969,-2.256 0.969,-0.9 2.356,-0.9 z"
     id="path4" />
</svg>
