<?xml version="1.0" encoding="UTF-8" standalone="no"?>
<svg
   version="1.1"
   width="31.984436"
   height="26.825661"
   viewBox="0 0 31.984436 26.825661"
   id="svg4"
   xmlns="http://www.w3.org/2000/svg">
  <defs
     id="defs8" />
  <path fill="url(#rarity)" d="M 9.1894528,0.72265625 H 22.796875 c 0.077,0.014 0.318828,0.06675 0.548828,0.21875 0.317,0.21399995 0.470703,0.52832815 0.470703,0.98632815 v 0.5488281 c 0,0 6.652,1.8568125 6.75,1.8828125 0.175,0.08 0.695313,0.3955156 0.695313,1.2285156 0,0.169 -0.02131,0.3563594 -0.07031,0.5683594 -0.009,0.037 -5.058578,18.879594 -5.142578,19.183594 -0.22,0.252 -0.876187,0.902515 -1.492187,0.728515 l -8.5625,-2.355468 -8.5625004,2.355468 C 6.8156406,26.243359 6.1585,25.591844 5.9375,25.339844 5.8535,25.036844 0.80782813,6.19325 0.79882812,6.15625 c -0.052,-0.212 -0.0761719,-0.3993594 -0.0761719,-0.5683594 0,-0.833 0.52526568,-1.1485156 0.69726568,-1.2285156 0.097,-0.026 6.75,-1.8828125 6.75,-1.8828125 V 1.9277344 c 0,-0.458 0.1526562,-0.7713281 0.4726562,-0.98632815 0.23,-0.152 0.469875,-0.20475 0.5468747,-0.21875 z" />
  <path fill="url(#rarity-outline)" d="m 9.1367188,0 c 0,0 -1.6875,0.17873438 -1.6875,1.9277344 l -6.2695313,1.75 c 0,0 -1.56889063,0.6013437 -1.08789063,2.6523437 L 5.2773438,25.681641 c 0,0 1.0855624,1.449937 2.3515624,1.085937 l 8.3652348,-2.300781 8.363281,2.300781 c 1.265,0.364 2.349609,-1.085937 2.349609,-1.085937 L 31.890625,6.3300781 c 0.484,-2.051 -1.080078,-2.6523437 -1.080078,-2.6523437 l -6.269531,-1.75 C 24.541016,0.17773438 22.851562,0 22.851562,0 Z M 9.5638404,1.0482104 22.428553,0.96436786 c 0.077,0.014 0.318828,0.06675 0.548828,0.21875004 0.317,0.2139999 0.470703,0.5283281 0.470703,0.9863281 v 0.5488281 c 0,0 6.559919,1.5690606 6.657919,1.5950606 0.175,0.08 0.695313,0.3955156 0.695313,1.2285156 0,0.169 -0.02131,0.3563594 -0.07031,0.5683594 -0.009,0.037 -4.885927,18.6609023 -4.969927,18.9649023 -0.22,0.252 -0.876187,0.902515 -1.492187,0.728515 L 15.994141,23.54024 7.5293068,25.832332 c -0.616,0.175 -1.2731406,-0.476515 -1.4941406,-0.728515 -0.084,-0.303 -4.8203954,-18.633846 -4.8293954,-18.670846 -0.052,-0.212 -0.076172,-0.3993594 -0.076172,-0.5683594 0,-0.833 0.5252657,-1.1485156 0.6972657,-1.2285156 0.097,-0.026 6.7174446,-1.8339794 6.7174446,-1.8339794 V 2.2532885 c 0,-0.458 0.1526562,-0.7713281 0.4726562,-0.9863281 0.23,-0.152 0.469875,-0.20475 0.546875,-0.21875 z" />
  <path fill="url(#rarity-outline)" d="m 24.540598,1.928 c -16.3603987,-1.28533333 -8.180199,-0.6426667 0,0 z m -1.744,-1.206 H 9.1895976 c -0.077,0.014 -0.317,0.068 -0.547,0.22 -0.32,0.215 -0.472,0.527 -0.472,0.985 v 0.55 c 0,0 -6.653,1.856 -6.75,1.882 -0.172,0.08 -0.69699999,0.395 -0.69699999,1.228 0,0.169 0.023,0.358 0.075,0.57 0.009,0.037 5.05399999,18.879 5.13799999,19.182 0.221,0.252 0.879,0.905 1.495,0.73 l 8.5630004,-2.357 8.563,2.357 c 0.616,0.174 1.272,-0.478 1.492,-0.73 0.084,-0.304 5.132,-19.145 5.141,-19.182 0.049,-0.212 0.072,-0.401 0.072,-0.57 0,-0.833 -0.521,-1.148 -0.696,-1.228 -0.098,-0.026 -6.751,-1.882 -6.751,-1.882 v -0.55 c 0,-0.458 -0.152,-0.771 -0.469,-0.985 -0.23,-0.152 -0.473,-0.206 -0.55,-0.22 z M 8.0275976,3.474 v 18.609 c 0,0 0.158,1.209 1.125,1.209 h 5.2240004 l -6.9940004,1.927 c 0,0 -0.4,0.2 -0.604,-0.241 l -5.141,-19.094 c 0,0 -0.203,-0.602 0.278,-0.762 l 6.112,-1.65 z m 15.9350004,-0.04 6.109,1.65 c 0.481,0.161 0.281,0.762 0.281,0.762 l -5.147,19.094 c -0.197,0.441 -0.601,0.241 -0.601,0.241 l -6.994,-1.93 h 5.227 c 0.965,0 1.125,-1.205 1.125,-1.205 V 3.436 Z m -1.226,-1.807 c 0.281,0 0.323,0.361 0.323,0.361 v 20.016 c 0,0.321 -0.323,0.404 -0.323,0.404 H 9.2735976 c -0.284,0 -0.284,-0.404 -0.284,-0.404 V 1.988 c 0,-0.24 0.284,-0.361 0.284,-0.361 z m -4.827,2.255 c -1.504,0 -2.833,0.4466667 -3.987,1.34 -1.154,0.8933333 -1.731333,1.954 -1.732,3.182 0,0.586 0.167667,1.1456667 0.503,1.679 0.335333,0.533333 0.852667,1.025667 1.552,1.477 -1.433333,0.522667 -2.481667,1.16 -3.145,1.912 -0.663333,0.752 -0.995,1.647 -0.995,2.685 0,1.009333 0.399,1.846 1.197,2.51 0.798,0.664 1.903,0.995667 3.315,0.995 1.772,0 3.274,-0.48 4.506,-1.44 1.232,-0.96 1.848,-2.111 1.848,-3.453 0,-0.670667 -0.208333,-1.286667 -0.625,-1.848 -0.416667,-0.561333 -1.087333,-1.064333 -2.012,-1.509 1.164667,-0.494 2.047333,-1.117 2.648,-1.869 0.600667,-0.752 0.900667,-1.5623333 0.9,-2.431 0,-0.9246667 -0.358333,-1.6943333 -1.075,-2.309 -0.716667,-0.6146667 -1.682,-0.9216667 -2.896,-0.921 z m -2.987,8.048 c 0.628667,0.268 1.193333,0.529333 1.694,0.784 0.500667,0.254667 0.917333,0.516 1.25,0.784 0.332667,0.268 0.579667,0.554 0.741,0.858 0.161333,0.304 0.242667,0.65 0.244,1.038 0,0.953333 -0.353,1.770667 -1.059,2.452 -0.706,0.681333 -1.634333,1.022 -2.785,1.022 -0.868667,0 -1.551667,-0.259333 -2.049,-0.778 -0.497333,-0.518667 -0.746333,-1.187667 -0.747,-2.007 0,-0.889333 0.229333,-1.694333 0.688,-2.415 0.458667,-0.720667 1.133,-1.299667 2.023,-1.737 z m 2.68,-7.265 c 0.734,0 1.291667,0.219 1.673,0.657 0.381333,0.438 0.572,0.9923333 0.572,1.663 0,0.8046667 -0.192333,1.585 -0.577,2.341 -0.384667,0.756 -0.919333,1.324333 -1.604,1.705 -1.164667,-0.473333 -2.020667,-0.946333 -2.568,-1.419 -0.547333,-0.4726667 -0.821,-1.0693333 -0.821,-1.79 0,-0.904 0.323,-1.656 0.969,-2.256 0.646,-0.6 1.431333,-0.9 2.356,-0.9 z"/>
  <defs>
    <!-- This is the gradient that will actually be used on
     the cards. The colors themselves will be provided by the
     template, but the x values, y values, and offsets will be
     used from the SVG. -->
    <linearGradient id="rarity" x1="0" y1="1" x2="1" y2="0">
      <stop offset="0" style="stop-color:rgb(192,55,38);stop-opacity:1" id="stop2" />
      <stop offset="0.125" style="stop-color:rgb(192,55,38);stop-opacity:1" id="stop4" />
      <stop offset="0.5" style="stop-color:rgb(241,142,30);stop-opacity:1" id="stop6" />
      <stop offset="0.875" style="stop-color:rgb(192,55,38);stop-opacity:1" id="stop8" />
      <stop offset="1" style="stop-color:rgb(192,55,38);stop-opacity:1" id="stop10" />
    </linearGradient>
    <!-- These gradients are here so that you can visualize
     what the set symbol would like like in that rarity. The
     only gradient that matters in the end is the "rarity"
     gradient. -->
    <linearGradient id="mythic" x1="0" y1="1" x2="1" y2="0">
      <stop offset="0" style="stop-color:rgb(192,55,38);stop-opacity:1"/>
      <stop offset="0.125" style="stop-color:rgb(192,55,38);stop-opacity:1"/>
      <stop offset="0.5" style="stop-color:rgb(241,142,30);stop-opacity:1"/>
      <stop offset="0.875" style="stop-color:rgb(192,55,38);stop-opacity:1"/>
      <stop offset="1" style="stop-color:rgb(192,55,38);stop-opacity:1"/>
    </linearGradient>
    <linearGradient id="rare" x1="0" y1="1" x2="1" y2="0">
      <stop offset="0" style="stop-color:rgb(146,116,67);stop-opacity:1"/>
      <stop offset="0.125" style="stop-color:rgb(146,116,67);stop-opacity:1"/>
      <stop offset="0.5" style="stop-color:rgb(211,178,108);stop-opacity:1"/>
      <stop offset="0.875" style="stop-color:rgb(146,116,67);stop-opacity:1"/>
      <stop offset="1" style="stop-color:rgb(146,116,67);stop-opacity:1"/>
    </linearGradient>
    <linearGradient id="special" x1="0" y1="1" x2="1" y2="0">
      <stop offset="0" style="stop-color:rgb(76, 56, 106);stop-opacity:1"/>
      <stop offset="0.125" style="stop-color:rgb(76, 56, 106);stop-opacity:1"/>
      <stop offset="0.5" style="stop-color:rgb(201, 173, 221);stop-opacity:1"/>
      <stop offset="0.875" style="stop-color:rgb(76, 56, 106);stop-opacity:1"/>
      <stop offset="1" style="stop-color:rgb(76, 56, 106);stop-opacity:1"/>
    </linearGradient>
    <linearGradient id="uncommon" x1="0" y1="1" x2="1" y2="0">
      <stop offset="0" style="stop-color:rgb(98,110,119);stop-opacity:1"/>
      <stop offset="0.125" style="stop-color:rgb(98,110,119);stop-opacity:1"/>
      <stop offset="0.5" style="stop-color:rgb(196,222,238);stop-opacity:1"/>
      <stop offset="0.875" style="stop-color:rgb(98,110,119);stop-opacity:1"/>
      <stop offset="1" style="stop-color:rgb(98,110,119);stop-opacity:1"/>
    </linearGradient>
    <linearGradient id="common" x1="0" y1="1" x2="1" y2="0">
      <stop offset="0" style="stop-color:rgb(0,0,0);stop-opacity:1"/>
    </linearGradient>
    <linearGradient
            id="rarity-outline" x1="0" y1="1" x2="0" y2="1">
      <stop offset="0" style="stop-color:rgb(0,0,0);stop-opacity:1"/>
    </linearGradient>
  </defs>
</svg>
