<?xml version="1.0" encoding="UTF-8" standalone="no"?>
<!-- Generated by IcoMoon.io -->

<svg
   version="1.1"
   width="31.999485"
   height="26.839767"
   viewBox="0 0 31.999485 26.839767"
   id="svg6"
   sodipodi:docname="9ed.svg"
   inkscape:version="1.1.1 (3bf5ae0d25, 2021-09-20)"
   xmlns:inkscape="http://www.inkscape.org/namespaces/inkscape"
   xmlns:sodipodi="http://sodipodi.sourceforge.net/DTD/sodipodi-0.dtd"
   xmlns="http://www.w3.org/2000/svg"
   xmlns:svg="http://www.w3.org/2000/svg">
  <defs
     id="defs10" />
  <sodipodi:namedview
     id="namedview8"
     pagecolor="#ffffff"
     bordercolor="#666666"
     borderopacity="1.0"
     inkscape:pageshadow="2"
     inkscape:pageopacity="0.0"
     inkscape:pagecheckerboard="0"
     showgrid="false"
     inkscape:zoom="25.75"
     inkscape:cx="15.980583"
     inkscape:cy="13.417476"
     inkscape:window-width="1920"
     inkscape:window-height="1009"
     inkscape:window-x="-8"
     inkscape:window-y="-8"
     inkscape:window-maximized="1"
     inkscape:current-layer="svg6" />
  <title
     id="title2">9ed</title>
  <path
     fill="#000000"
     d="m 22.858743,0 c 0,0 1.691,0.18 1.691,1.928 l 6.272,1.751 c 0,0 1.567,0.601 1.086,2.653 l -5.186,19.361 c 0,0 -1.086,1.45 -2.352,1.089 l -8.367,-2.304 -8.3700004,2.304 c -1.266,0.361 -2.352,-1.088 -2.352,-1.088 L 0.09174258,6.333 C -0.38925742,4.281 1.1777426,3.68 1.1777426,3.68 l 6.274,-1.751 c 0,-1.748 1.688,-1.928 1.688,-1.928 H 22.858743 Z m -0.055,0.723 H 9.1937426 c -0.077,0.014 -0.321,0.068 -0.547,0.22 -0.323,0.215 -0.472,0.527 -0.472,0.986 v 0.55 c 0,0 -6.656,1.857 -6.753,1.883 -0.175,0.08 -0.69600002,0.398 -0.69600002,1.229 0,0.169 0.023,0.359 0.071,0.571 0.009,0.037 5.06100002,18.888 5.14100002,19.192 0.224,0.252 0.88,0.905 1.496,0.731 l 8.5670004,-2.358 8.57,2.358 c 0.616,0.175 1.27,-0.478 1.493,-0.731 0.083,-0.304 5.132,-19.154 5.143,-19.192 0.049,-0.212 0.072,-0.401 0.072,-0.571 0,-0.83 -0.524,-1.149 -0.696,-1.229 -0.098,-0.026 -6.756,-1.883 -6.756,-1.883 v -0.55 c 0,-0.458 -0.149,-0.771 -0.47,-0.986 -0.229,-0.152 -0.47,-0.206 -0.55,-0.22 v 0 z M 8.0277426,3.479 v 18.615 c 0,0 0.16,1.21 1.126,1.21 h 5.2260004 l -6.9940004,1.928 c 0,0 -0.404,0.2 -0.605,-0.241 l -5.146,-19.1 c 0,0 -0.201,-0.605 0.281,-0.765 z m 15.9420004,-0.04 6.112,1.647 c 0.484,0.161 0.284,0.762 0.284,0.762 l -5.149,19.103 c -0.2,0.441 -0.602,0.241 -0.602,0.241 l -6.997,-1.931 h 5.226 c 0.965,0 1.126,-1.206 1.126,-1.206 z m -1.223,-1.811 c 0.281,0 0.321,0.361 0.321,0.361 v 20.026 c 0,0.323 -0.32,0.404 -0.32,0.404 H 9.2747426 c -0.281,0 -0.281,-0.404 -0.281,-0.404 V 1.989 c 0,-0.241 0.281,-0.361 0.281,-0.361 H 22.747743 Z m -5.815,2.286 q -2.142,0 -3.753,1.762 -1.611,1.762 -1.612,4.133 0,1.681 0.99,2.729 0.99,1.048 2.556,1.048 0.322,0 0.633,-0.046 0.311,-0.046 0.633,-0.138 0.438,-0.138 0.887,-0.392 0.449,-0.254 0.979,-0.668 l 0.046,0.069 q -0.207,0.438 -0.415,0.806 -0.208,0.368 -0.414,0.714 -0.415,0.645 -0.829,1.163 -0.414,0.518 -0.967,1.025 -0.898,0.875 -2.107,1.566 -1.209,0.691 -2.475,1.105 -0.092,0.023 -0.196,0.058 -0.104,0.035 -0.219,0.035 l 0.622,0.645 q 3.615,-0.345 6.597,-3.258 2.982,-2.913 3.396,-6.321 0.023,-0.23 0.035,-0.449 0.012,-0.219 0.012,-0.449 0,-2.257 -1.22,-3.696 -1.22,-1.439 -3.178,-1.439 z m -0.023,0.829 q 1.059,0 1.739,0.956 0.68,0.956 0.679,2.429 0,0.622 -0.127,1.313 -0.127,0.691 -0.403,1.52 v 0.023 q -0.345,0.322 -0.668,0.553 -0.323,0.231 -0.645,0.368 -0.368,0.184 -0.737,0.265 -0.369,0.081 -0.783,0.081 -1.013,0 -1.612,-0.714 -0.599,-0.714 -0.599,-1.911 0,-1.98 0.933,-3.431 0.933,-1.451 2.222,-1.451 z"
     id="path4" />
</svg>
