<?xml version="1.0" encoding="UTF-8" standalone="no"?>
<svg
   version="1.1"
   width="33.380074"
   height="27.054382"
   viewBox="0 0 33.380074 27.054382"
   id="svg4"
   xmlns="http://www.w3.org/2000/svg"
   xmlns:svg="http://www.w3.org/2000/svg">
  <defs
     id="defs8" />
  <path fill="url(#rarity-outline)"
     d="m 9.7580469,9.9126441 -6.2667072,0.2962099 0.3977476,11.092738 4.8613591,3.933281 4.1984466,-0.08839 2.50618,-3.610975 4.900236,2.905857 6.205389,0.749312 5.214913,-6.231378 -1.59099,-8.087534 -4.15923,-1.2135639 -4.505959,1.4510919 -2.869491,2.148957 -3.933281,-0.309359 z"
     id="path2066" />
  <path fill="url(#rarity-outline)"
     d="m 22.023437,0.00195313 c -1.081949,0.02814417 -2.15553,0.37181417 -3.044921,1.05468747 -0.756478,0.5784827 -1.384828,1.4924601 -1.351563,2.5957032 0.01263,0.9741629 0.527664,1.7302456 1.003906,2.3066406 0.526432,0.6921714 1.206704,1.0684765 1.730469,1.4179687 l 0.0078,0.00586 0.0078,0.00391 c 0.909595,0.5767132 1.798865,1.1617787 2.666016,1.7656251 -0.304062,-0.023521 -0.590838,-0.09288 -0.916016,-0.035156 -1.08404,0.1800341 -1.981353,0.8041336 -2.648437,1.5410158 l -0.0078,0.0078 -0.0078,0.0098 c -0.209956,0.246279 -0.137497,0.548347 -0.208985,0.832032 -0.08368,-0.149507 -0.207446,-0.280845 -0.283203,-0.433594 v -0.002 C 18.290525,9.7081368 17.851369,8.1958524 17.40625,6.6484375 L 16.675781,4.109375 15.962891,6.6542969 c -0.36026,1.2867831 -0.73252,2.545855 -1.238282,3.7285161 v 0.002 0.002 c -0.155769,0.369106 -0.427866,0.68101 -0.623046,1.033203 -0.07623,-0.253564 0.0019,-0.528228 -0.1875,-0.75 l -0.0078,-0.0078 -0.0078,-0.0078 C 13.396951,10.10138 12.772376,9.6230715 12.035181,9.3321503 c -6.36e-4,-2.544e-4 -0.0013,2.539e-4 -0.002,0 C 11.445487,9.0975154 10.835692,9.1678915 10.236328,9.2207031 11.065074,8.6388816 11.911859,8.0737388 12.783203,7.5234375 l 0.0059,-0.00391 0.0059,-0.00391 c 0.50904,-0.3342667 1.118348,-0.6781438 1.664062,-1.2226563 l 0.01953,-0.017578 0.01563,-0.019531 C 14.987334,5.6914725 15.604046,4.9655779 15.726563,3.9511719 15.84952,3.0616395 15.517123,2.2184175 14.970703,1.5996094 l -0.002,-0.00195 C 14.165378,0.68147546 13.029891,0.19818991 11.908203,0.05078125 l -0.0039,-0.0019531 h -0.0039 C 10.596203,-0.10615899 9.2248931,0.17278452 8.1054688,0.93554688 7.4929719,1.453897 6.8185719,2.089178 6.6210937,2.8789063 6.3249008,3.8439544 6.8717191,4.7137812 7.5507812,5.1679687 l 0.00586,0.00391 0.00586,0.00391 C 7.9185776,5.4042392 8.297085,5.4827297 8.6699231,5.5253981 7.9089046,6.03924 7.1378644,6.5422654 6.3105481,6.9941481 l 0.015625,-0.00781 c -0.7120769,0.368631 -1.3960488,0.79003 -2.04297,1.2597557 -1.5390827,1.1167542 -2.963153,2.5756672 -3.72265623,4.4550782 -0.46288892,1.129859 -0.58207561,2.325735 -0.55664062,3.46289 v 0.002 c 0.04777607,1.956647 0.69575087,3.854269 1.75195315,5.464843 1.2340115,1.881206 2.9392711,3.453064 4.9414062,4.501953 h 0.00391 l 0.00195,0.002 c 1.1398194,0.58537 2.484833,1.052128 3.9179694,0.884765 1.246336,-0.126551 2.540233,-0.582536 3.496094,-1.552734 v -0.002 c 0.43922,-0.448478 0.561939,-1.015095 0.564453,-1.582032 0.06342,0.209839 0.145355,0.393648 0.208984,0.607422 l 0.685547,2.306641 0.746094,-2.289063 c 0.137676,-0.423058 0.179083,-0.957425 0.302734,-1.427734 0.128072,0.4982 0.282606,0.979696 0.423828,1.421875 l 0.738281,2.306641 0.695313,-2.320313 c 0.06427,-0.214152 0.147344,-0.395312 0.210937,-0.605469 0.0037,0.5946 0.157589,1.187562 0.613282,1.63086 0.952186,0.934311 2.217275,1.379505 3.443359,1.503906 1.391367,0.163329 2.699653,-0.270632 3.816406,-0.830078 l 0.0039,-0.002 0.002,-0.002 c 2.173722,-1.11236 4.010536,-2.840726 5.27539,-4.919922 l 0.002,-0.002 c 1.3453,-2.201338 1.863036,-4.898803 1.314453,-7.447266 v -0.0039 l -0.002,-0.002 C 32.86821,12.504796 32.211715,11.33731 31.388713,10.355332 l -0.002,-0.002 C 30.130546,8.8593987 28.530124,7.744316 26.861328,6.8808594 l 0.02148,0.011719 c -0.75601,-0.4250802 -1.393135,-0.932925 -2.085933,-1.3984378 0.343406,-0.050583 0.692176,-0.1130218 1.019531,-0.3242187 l 0.0039,-0.00195 0.0059,-0.00391 C 26.505509,4.7091891 27.048506,3.8401683 26.753906,2.875 26.482347,1.966226 25.830894,1.2960784 25.132812,0.84570313 L 25.128906,0.84375 25.125,0.83984375 C 24.198415,0.26050901 23.106257,-0.02621367 22.023437,0.00195313 Z m 0.05078,1.51757807 c 0.790335,-0.019282 1.592557,0.1823316 2.25,0.5917969 0.476433,0.3086975 0.859387,0.7419318 0.99414,1.1953125 v 0.00195 l 0.002,0.00391 c 0.04538,0.1480867 -0.09539,0.4393535 -0.324218,0.5976563 -0.02737,0.017411 -0.08867,-0.00666 -0.119141,0.00781 0.01002,-0.054286 0.04952,-0.082839 0.05469,-0.140625 l 0.002,-0.021484 V 3.7324219 C 24.94635,3.2923268 24.738544,2.9100003 24.5,2.6640625 24.263285,2.4200113 23.996071,2.2724231 23.732422,2.1738281 22.804444,1.8168735 21.665269,2.2015959 21.330078,3.25 l -0.0098,0.03125 -0.0078,0.035156 c -0.111563,0.5045692 0.01626,0.9863798 0.210937,1.3535156 0.19468,0.3671358 0.452417,0.6495595 0.69336,0.8769531 l 0.0039,0.00391 0.0039,0.00391 c 1.206494,1.1078295 2.594737,1.8991838 3.923828,2.6464844 l 0.01172,0.00586 0.01172,0.00586 c 1.547201,0.8005417 2.978582,1.8115889 4.066406,3.1054689 0.698035,0.832873 1.228413,1.795673 1.458985,2.814454 0.460561,2.142167 0.02047,4.467955 -1.128907,6.347655 v 0.002 h -0.002 c -1.119875,1.841739 -2.757119,3.381913 -4.671875,4.363281 -0.970705,0.486283 -2.004776,0.797607 -2.972656,0.683594 l -0.0059,-0.002 h -0.0059 c -0.968885,-0.09698 -1.911397,-0.452771 -2.554687,-1.083985 v -0.002 l -0.002,-0.002 C 20.1766,24.268052 20.087415,23.950037 20.146484,23.671875 v -0.0059 l 0.002,-0.0039 c 0.10344,-0.522192 0.451212,-1.042836 0.908204,-1.490234 l 0.002,-0.002 0.0039,-0.0039 c 0.267895,-0.267895 0.727676,-0.506416 1.226562,-0.898438 -0.450363,0.436384 -0.861179,0.95815 -0.970703,1.638672 v 0.0039 0.002 c -0.05797,0.378233 -0.06121,0.892154 0.298828,1.34961 l 0.0078,0.0098 0.0078,0.0098 c 0.30238,0.360905 0.714515,0.538488 1.126954,0.580078 l 0.01758,0.002 0.01758,0.002 c 1.402658,0.07395 2.779978,-0.380962 3.890625,-1.191406 l 0.002,-0.002 c 1.556252,-1.133911 2.652666,-2.843374 3.052734,-4.720703 v -0.0039 -0.0039 c 0.581721,-2.880778 -0.316857,-5.972993 -2.34777,-8.095798 -0.319623,-0.346254 -0.704031,-0.59672 -1.046875,-0.910156 l 0.429688,-0.1191406 -0.75,-0.1601563 C 24.494228,8.3212918 22.83905,7.1722299 21.193359,6.1289062 20.612766,5.741494 20.109215,5.4304913 19.820312,5.0488281 l -0.0098,-0.013672 -0.01172,-0.011719 C 19.40058,4.5437293 19.127313,4.0622693 19.123047,3.6289063 v -0.00781 -0.00977 C 19.106726,3.1313629 19.423591,2.603697 19.888672,2.2480469 h 0.002 c 0.61014,-0.4690305 1.391118,-0.7091825 2.183547,-0.7285157 z m -10.357422,0.019531 c 0.82382,0.1092134 1.621365,0.4714541 2.126953,1.0488281 v 0.00195 h 0.002 C 14.138581,2.9209837 14.294001,3.3694544 14.240234,3.75 l -0.002,0.00781 V 3.76758 C 14.183004,4.2363921 13.829476,4.7277458 13.376906,5.2480488 13.015851,5.6016753 12.51836,5.9020653 11.970656,6.2617206 10.361188,7.2782078 8.7567917,8.4145711 7.2714374,9.7265644 l -0.578125,0.1367188 0.3242187,0.087891 C 6.6425226,10.294891 6.2254455,10.576008 5.8789062,10.958984 c -3.883e-4,4.18e-4 3.883e-4,0.0015 0,0.002 -1.7634423,1.897995 -2.6103211,4.5337 -2.3769531,7.089843 0.1555709,1.748915 0.9266171,3.400593 2.1113281,4.669922 1.0648889,1.148519 2.5298771,1.995279 4.1699219,2.125 h 0.00781 0.00781 c 0.3437209,0.01991 1.0264149,0.157435 1.6640629,-0.3125 0.572739,-0.402132 0.668209,-1.049747 0.607422,-1.53125 -0.08826,-0.724373 -0.483911,-1.29491 -0.953125,-1.751953 0.278156,0.208213 0.558829,0.436122 0.822265,0.611328 0.578259,0.42355 1.044287,1.001702 1.25,1.632813 v 0.0039 l 0.002,0.002 c 0.110781,0.330583 0.0445,0.721048 -0.144531,0.914062 -0.641652,0.651277 -1.597321,1.016392 -2.583984,1.115235 h -0.0078 -0.0059 C 9.4537394,25.646364 8.3900284,25.313187 7.3945312,24.802734 5.6286702,23.877626 4.1057518,22.477432 3.0097656,20.806641 2.0963253,19.41376 1.5425603,17.77756 1.5019531,16.130859 v -0.002 c -0.022342,-1.006897 0.091659,-1.996814 0.4472656,-2.863281 v -0.002 l 0.00195,-0.002 C 2.5656673,11.741133 3.7731482,10.470181 5.1640625,9.4609375 5.7511401,9.034664 6.371702,8.6517177 7.015625,8.3183594 l 0.00586,-0.00391 0.00781,-0.00391 C 8.1351738,7.7065134 9.245658,7.0583289 10.289063,6.2773437 l 0.0039,-0.00195 0.0039,-0.00391 c 0.41484,-0.3180098 0.870499,-0.6750356 1.263672,-1.15625 l 0.002,-0.00195 0.002,-0.00391 C 11.890378,4.701408 12.20297,4.114632 12.084066,3.4082018 l -0.002,-0.013672 -0.002,-0.013672 C 11.937716,2.6934525 11.399486,2.3035573 10.880859,2.1425781 10.102085,1.8952294 9.3038322,2.171805 8.8007813,2.7480469 c -4.23e-4,4.812e-4 4.223e-4,0.00147 0,0.00195 C 8.5335617,3.0548461 8.4578432,3.4871023 8.53125,3.9238281 8.4916147,3.906656 8.4156872,3.9358911 8.3808594,3.9140625 8.1493697,3.7541505 8.0092486,3.4640771 8.0546875,3.3183594 l 0.00195,-0.00586 v -0.00586 c 0.1236507,-0.418296 0.4675746,-0.8250417 0.9043,-1.1347644 l 0.00977,-0.00781 C 9.7491558,1.641441 10.75869,1.42655 11.716797,1.5390625 Z m -1.291016,2.03125 0.0039,0.00195 0.0059,0.00195 c 0.103816,0.031767 0.154813,0.1005103 0.162109,0.1015625 0.0106,0.1052268 -0.04517,0.2978322 -0.205078,0.4980468 -0.0029,0.00353 -0.0088,0.00624 -0.01172,0.00977 L 10.349609,4.15625 C 10.122522,3.9584911 10.021765,3.8184899 9.9804688,3.71875 10.106507,3.6100228 10.304909,3.5317812 10.425781,3.5703125 Z m 12.767578,0.00195 0.0059,0.00195 0.0059,0.00195 c 0.07715,0.028632 0.150231,0.078064 0.193359,0.1152344 -0.02697,0.09191 -0.119688,0.2420856 -0.371093,0.4589843 l -0.01758,0.015625 c -0.05222,-0.067532 -0.129962,-0.1385938 -0.16211,-0.1992187 -0.06544,-0.1234128 -0.06545,-0.1950381 -0.05859,-0.2714844 0.05397,-0.074001 0.287502,-0.1682581 0.404297,-0.1230469 z M 8.4882813,4.046875 c 0.00195,0.00755 0.00774,0.00815 0.00977,0.015625 0.00125,0.00434 -0.00325,0.00737 -0.00195,0.011719 z m 8.2207027,5.1113281 c 0.283756,0.8678459 0.497304,1.7403199 0.917969,2.5839849 0.459128,0.92541 1.036237,1.771798 1.667969,2.554687 0.433863,0.55169 0.829869,0.960884 0.990234,1.367188 l 0.0039,0.01172 0.0059,0.01172 c 0.16451,0.379176 0.172966,0.840731 0.02734,1.246094 l -0.398438,1.107422 1.171875,-0.105469 c 0.837908,-0.0759 1.606884,-0.603791 1.900391,-1.449219 L 23,16.474609 l 0.0039,-0.01367 c 0.191327,-0.620564 0.04086,-1.185071 -0.117187,-1.611328 l -0.002,-0.0059 -0.002,-0.0059 c -0.399537,-1.02685 -1.194984,-1.783418 -2.05664,-2.291016 -0.260036,-0.152395 -0.394194,-0.677615 -0.21875,-0.892578 0.255288,-0.279139 0.601499,-0.360456 0.912109,-0.544922 -0.0063,0.467128 0.146021,0.92608 0.544922,1.259766 l 0.002,0.002 0.0039,0.002 c 0.447475,0.367988 0.916118,0.504884 1.251954,0.634766 h 0.0039 l 0.002,0.002 c 0.758624,0.285623 1.404915,0.548499 1.748047,0.982422 l 0.0059,0.0059 0.0059,0.0078 c 0.129077,0.15531 0.190516,0.443742 0.136718,0.742188 l -0.002,0.0078 -0.002,0.0078 c -0.089,0.562887 -0.449369,1.209351 -0.652344,2.076172 -0.04932,0.206317 -0.07937,0.442959 -0.0293,0.722656 0.05034,0.281207 0.218748,0.631231 0.541016,0.841797 l 0.002,0.002 0.0039,0.002 c 0.495271,0.318873 1.009779,0.340653 1.396485,0.341797 h 0.01563 l 0.01758,-0.002 c 0.04374,-0.0019 0.06543,-0.03613 0.107422,-0.04102 -0.05827,0.06009 -0.05239,0.1063 -0.132813,0.166016 -0.554859,0.40753 -1.30345,0.663811 -2.115234,1.009765 l -0.0059,0.002 -0.0039,0.002 c -0.577253,0.255943 -1.157329,0.601005 -1.703125,1.017578 0.780397,-0.670465 1.553264,-1.534032 1.648438,-2.765625 l 0.117187,-1.517578 -1.273437,0.832031 c -0.39292,0.256149 -0.88817,0.431696 -1.435547,0.597656 l -0.0039,0.002 h -0.0039 c -0.783805,0.245816 -1.595839,0.600204 -2.287109,1.203125 -0.608603,0.525336 -1.03458,1.18376 -1.345703,1.851563 -0.05272,0.112263 -0.06889,0.223174 -0.117188,0.335937 4.84e-4,-0.08767 -0.06435,-0.194975 -0.05664,-0.28125 l 0.002,-0.0039 v -0.002 c 0.03695,-0.450499 0.187675,-0.917392 0.408203,-1.380859 l 0.002,-0.0039 0.002,-0.0039 c 0.485403,-1.051529 0.895969,-2.289382 0.701172,-3.613281 l -0.002,-0.01172 -0.002,-0.01172 c -0.228078,-1.276728 -1.087421,-2.167595 -1.800781,-2.878906 l -0.533203,-0.53125 -0.529297,0.535156 c -0.702463,0.711626 -1.564657,1.597641 -1.792969,2.876953 l -0.002,0.01172 -0.002,0.01172 c -0.197205,1.344356 0.229311,2.599195 0.722656,3.662109 l 0.002,0.002 v 0.0039 c 0.248298,0.52195 0.399602,1.067414 0.400391,1.591797 v 0.002 0.002 c 2.91e-4,0.03592 -0.02457,0.07912 -0.02539,0.115234 -0.04666,-0.111985 -0.06454,-0.222421 -0.115234,-0.333984 -0.300491,-0.66262 -0.707423,-1.324572 -1.298828,-1.863281 l -0.002,-0.002 C 13.36586,18.716304 12.561002,18.34905 11.783203,18.09375 l -0.0059,-0.002 -0.0078,-0.002 C 11.172604,17.905791 10.636675,17.725485 10.222656,17.453125 L 8.9550781,16.621094 9.0625,18.132812 c 0.08087,1.145023 0.7685617,2.01548 1.46875,2.65625 C 9.8474904,20.306031 9.1212809,19.914257 8.4042969,19.634766 l -0.00977,-0.0039 c -0.6068749,-0.246283 -1.1555461,-0.482321 -1.5703082,-0.8086 -0.055551,-0.04382 -0.048838,-0.07689 -0.091797,-0.121094 0.046934,0.0061 0.071933,0.04261 0.1210937,0.04492 l 0.019531,0.002 h 0.017578 c 0.3875628,-0.0011 0.9041539,-0.02451 1.4003906,-0.345703 l 0.00391,-0.002 0.00586,-0.002 C 8.6257517,18.181791 8.7910205,17.823541 8.8378906,17.539062 8.8843857,17.25686 8.8511558,17.019881 8.8007813,16.814453 8.5520815,15.770631 8.1089859,15.03839 8.1367188,14.414063 v -0.0059 l 0.00195,-0.0059 c 0.00578,-0.200155 0.1482789,-0.450609 0.3925781,-0.648438 l 0.00195,-0.002 0.00391,-0.0039 C 9.0046376,13.361764 9.72363,13.155178 10.535156,12.816406 l 0.0098,-0.0039 0.0078,-0.0039 c 0.275986,-0.123441 0.73959,-0.29405 1.066407,-0.78711 l 0.0098,-0.01563 0.0098,-0.01563 c 0.176368,-0.29704 0.258345,-0.639568 0.240234,-0.980468 0.313311,0.185588 0.635854,0.36022 0.892578,0.640625 0.175502,0.214639 0.03985,0.741219 -0.220703,0.894531 -1.055127,0.620932 -2.063556,1.653847 -2.246093,3.064453 -0.09135,0.628358 0.153819,1.21575 0.529296,1.617187 0.37725,0.403333 0.888331,0.664469 1.458985,0.707032 l 1.148437,0.08594 -0.386718,-1.083984 c -0.142142,-0.399553 -0.139236,-0.848761 0.01367,-1.216797 l 0.0059,-0.01172 0.0039,-0.01172 c 0.170059,-0.451466 0.622015,-0.898017 1.097656,-1.517579 0.777276,-0.971858 1.439958,-2.045073 1.929688,-3.205078 v -0.002 c 0.255669,-0.598023 0.404439,-1.2059203 0.603515,-1.8124999 z m 5.201172,0.8554689 c -0.0015,0.0017 -4.47e-4,0.0042 -0.002,0.0059 -0.0024,0.0027 -0.0055,0.0012 -0.0078,0.0039 z m 2.707031,0.402344 c 0.574244,0.471808 1.181314,0.914479 1.679688,1.455078 l 0.0039,0.0059 0.0059,0.0039 c 1.311601,1.369581 1.851442,3.284333 1.888671,5.189453 -0.0067,-0.01841 -9.01e-4,-0.04233 -0.0078,-0.06055 l -0.542969,-1.431641 -0.796875,1.308594 c -0.149762,0.2455 -0.309162,0.350854 -0.388672,0.357422 -0.20436,-0.0036 -0.324535,-0.03787 -0.427734,-0.07422 0.138033,-0.578932 0.521355,-1.253812 0.667969,-2.15625 v -0.0039 c 0.112846,-0.630672 0.03259,-1.368441 -0.453125,-1.957032 -0.682847,-0.856908 -1.646775,-1.168442 -2.382813,-1.445312 l -0.0059,-0.002 c -0.381443,-0.147503 -0.669869,-0.256867 -0.830078,-0.386719 -4.6e-5,-3.8e-5 4.7e-5,-0.0019 0,-0.002 -0.0047,-0.0073 -0.01645,-0.185583 -0.0059,-0.197266 l 0.0059,-0.0039 0.0039,-0.0059 c 0.122785,-0.140744 0.398218,-0.265383 0.787109,-0.373047 z m -15.8691401,0.002 0.8144531,0.21875 c 0.3971551,0.107067 0.677493,0.238686 0.794922,0.384765 v 0.002 l 0.002,0.002 c 0.0088,0.01074 0.01175,0.111805 -0.0098,0.175781 -0.02742,0.03296 -0.145368,0.120722 -0.4082027,0.238281 -0.6749202,0.279496 -1.5624279,0.497567 -2.3535157,1.148438 -6.845e-4,5.54e-4 -0.00127,0.0014 -0.00195,0.002 -0.4898679,0.397386 -0.9215132,0.999065 -0.9453125,1.765625 -0.050959,1.217012 0.5342856,2.106199 0.7011719,2.80664 l 0.00195,0.002 v 0.0039 c -0.1019177,0.03622 -0.2223117,0.07021 -0.4257813,0.07422 -0.081194,-0.0069 -0.2407269,-0.114132 -0.3945312,-0.363281 l -0.8027474,-1.30101 -0.5371094,1.431641 c -0.1223129,0.326167 -0.1260025,0.705297 -0.1425781,1.076171 -0.00692,-0.05824 -0.039762,-0.111529 -0.044922,-0.169921 l -0.00195,-0.002 C 4.7995635,15.782728 5.5267559,13.540379 6.9785186,11.97847 l 0.00391,-0.0039 0.00391,-0.0039 c 0.5214395,-0.576912 1.1543797,-1.052764 1.7617188,-1.552734 z m 12.9238281,4.673828 0.0098,0.02344 c -0.0025,-0.0063 -0.0073,-0.0074 -0.0098,-0.01367 -0.0013,-0.0031 0.0014,-0.0066 0,-0.0098 z m -4.984375,0.02148 c 0.335341,0.41802 0.763801,0.827144 0.845703,1.271485 0.124613,0.874618 -0.149665,1.829963 -0.576172,2.753906 l 0.0039,-0.0078 c -0.143789,0.302191 -0.192216,0.669801 -0.291015,1.007813 -0.09151,-0.314803 -0.09626,-0.666256 -0.232422,-0.953125 l -0.002,-0.0059 c -0.434991,-0.938666 -0.719627,-1.906706 -0.59375,-2.792968 0.08166,-0.443386 0.51059,-0.854638 0.845703,-1.273438 z m -5.003906,0.03125 c -0.0013,0.0032 0.0013,0.0066 0,0.0098 -0.0024,0.0063 -0.0074,0.0073 -0.0098,0.01367 z m 16.457031,3.814453 c -0.376911,1.380098 -1.186585,2.663744 -2.337891,3.501953 -0.840462,0.613821 -1.887259,0.949906 -2.904297,0.902344 -0.04875,-0.0091 -0.08672,-0.02928 -0.101562,-0.04102 0.01254,0.01234 -0.01548,-0.04917 0.0039,-0.181641 0.05496,-0.333576 0.275388,-0.683103 0.585938,-0.945313 0.442861,-0.375378 0.992032,-0.674173 1.585937,-0.9375 0.728998,-0.309906 1.602486,-0.582919 2.410156,-1.177734 l 0.002,-0.002 c 0.309518,-0.229822 0.552929,-0.670729 0.755859,-1.119141 z m -22.8320313,0.125 C 5.4923848,19.419954 5.6476277,19.803707 5.8964844,20 v 0.002 c 0.632778,0.497786 1.3265408,0.773295 1.9433593,1.023438 l 0.00586,0.002 0.00391,0.002 c 0.7742497,0.301418 1.497104,0.643761 2.078125,1.111328 l 0.00195,0.002 c 0.3569573,0.285117 0.6082043,0.675538 0.6523433,1.042969 v 0.002 0.002 c 0.01456,0.115359 -0.03192,0.160089 0.02539,0.121094 l -0.01563,0.0098 -0.01563,0.01172 c -0.0365,0.02759 -0.247486,0.04109 -0.673828,0.01758 -6.192e-4,-4.9e-5 -0.00133,5e-5 -0.00195,0 -1.1912917,-0.0948 -2.3428298,-0.737432 -3.1875,-1.648437 l -0.00195,-0.002 C 6.0251288,20.964925 5.5937924,20.044783 5.3085937,19.083984 Z m 6.2128903,0.544922 c 0.56622,0.207158 1.109737,0.449246 1.503907,0.8125 l 0.002,0.002 0.002,0.002 c 0.338765,0.307781 0.592625,0.741028 0.820312,1.195313 C 13.55,21.26336 13.20462,20.927655 12.826266,20.650528 l -0.01367,-0.0098 -0.01367,-0.0098 C 12.348737,20.331135 11.933395,20.05759 11.599609,19.75 l -0.0039,-0.0039 -0.0059,-0.0039 c -0.03752,-0.0335 -0.03219,-0.07896 -0.06836,-0.113281 z m 10.269532,0.04492 c -0.136665,0.126912 -0.238795,0.269286 -0.390625,0.386719 l -0.0059,0.0039 -0.0039,0.0039 c -0.340675,0.273333 -0.875165,0.527832 -1.382813,1.033203 -0.379324,0.371362 -0.594157,0.937468 -0.855468,1.455079 0.09862,-0.264422 0.16628,-0.565617 0.283203,-0.814454 l 0.002,-0.002 c 0.248291,-0.532939 0.569188,-1.007385 0.96875,-1.351562 l 0.002,-0.002 c 0.368461,-0.32137 0.875454,-0.520613 1.382813,-0.712891 z m -7.84375,2.109375 c 0.0071,0.01531 0.02035,0.02365 0.02734,0.03906 0.0041,0.009 0.0057,0.02028 0.0098,0.0293 -0.01493,-0.02095 -0.02186,-0.04768 -0.03711,-0.06836 z"
     id="path1636" />
  <path
     fill="url(#rarity)"
     d="m 8.5270469,1.5546441 c 0.951,-0.648 2.1480001,-0.896 3.2840001,-0.761 0.974,0.128 1.941,0.552 2.596,1.3 0.421,0.476 0.666,1.124 0.576,1.761 -0.088,0.747 -0.575,1.36 -1.053,1.907 -0.454,0.453 -1.014,0.777 -1.547,1.127 -2.117,1.337 -4.2620001,2.708 -5.9540001,4.5799999 -1.608,1.73 -2.395,4.169 -2.181,6.513 0.139,1.573 0.84,3.079 1.915,4.23 0.955,1.03 2.264,1.774 3.68,1.886 0.3970001,0.023 0.8460001,0.089 1.1860001,-0.168 0.266,-0.181 0.336,-0.533 0.298,-0.834 -0.074,-0.616 -0.452,-1.158 -0.929,-1.539 -0.6760001,-0.544 -1.4720001,-0.913 -2.2760001,-1.226 -0.614,-0.249 -1.237,-0.506 -1.762,-0.919 -0.303,-0.239 -0.575,-0.559 -0.636,-0.952 -0.049,-0.401 0.021,-0.81 0.162,-1.186 0.221,0.358 0.556,0.703 1.003,0.724 0.339,-0.001 0.703,-0.035 0.995,-0.224 0.255,-0.17 0.254,-0.519 0.188,-0.786 -0.208,-0.873 -0.725,-1.683 -0.684,-2.606 0.014,-0.485 0.303,-0.913 0.671,-1.211 0.633,-0.523 1.443,-0.735 2.1880001,-1.046 0.275,-0.123 0.573,-0.257 0.746,-0.518 0.19,-0.32 0.189,-0.761 -0.052,-1.056 -0.291,-0.362 -0.749,-0.521 -1.1830001,-0.6379999 0.6590001,-0.155 1.3660001,-0.138 1.9990001,0.1149999 0.61,0.24 1.148,0.647 1.586,1.13 0.527,0.617 0.261,1.637 -0.412,2.033 -0.921,0.542 -1.748,1.424 -1.886,2.523 -0.114,0.758 0.579,1.419 1.303,1.473 -0.201,-0.565 -0.203,-1.199 0.028,-1.755 0.252,-0.669 0.788,-1.165 1.214,-1.722 0.739,-0.924 1.365,-1.941 1.825,-3.031 0.529,-1.2369999 0.909,-2.5299999 1.271,-3.8229999 0.445,1.547 0.892,3.106 1.613,4.5519999 0.429,0.865 0.974,1.668 1.58,2.419 0.394,0.502 0.866,0.96 1.104,1.563 0.246,0.567 0.253,1.219 0.045,1.798 0.552,-0.05 1.076,-0.417 1.26,-0.947 0.115,-0.373 0.027,-0.774 -0.105,-1.13 -0.321,-0.825 -0.985,-1.474 -1.737,-1.917 -0.674,-0.395 -0.938,-1.415 -0.412,-2.032 0.583,-0.644 1.351,-1.1629999 2.221,-1.3059999 0.453,-0.081 0.917,-0.037 1.364,0.058 -0.419,0.1159999 -0.859,0.2659999 -1.153,0.6029999 -0.32,0.353 -0.287,0.97 0.08,1.277 0.304,0.25 0.685,0.374 1.047,0.514 0.749,0.282 1.558,0.569 2.072,1.219 0.31,0.373 0.381,0.888 0.297,1.354 -0.117,0.74 -0.494,1.404 -0.664,2.13 -0.063,0.262 -0.058,0.602 0.193,0.766 0.292,0.188 0.655,0.222 0.993,0.223 0.447,-0.019 0.784,-0.364 1.003,-0.723 0.143,0.377 0.216,0.787 0.166,1.189 -0.067,0.426 -0.381,0.762 -0.715,1.01 -0.683,0.503 -1.497,0.768 -2.269,1.097 -0.627,0.278 -1.242,0.605 -1.767,1.05 -0.424,0.358 -0.754,0.85 -0.843,1.403 -0.04,0.261 -0.022,0.557 0.148,0.773 0.155,0.185 0.39,0.293 0.628,0.317 1.214,0.064 2.431,-0.334 3.41,-1.049 1.401,-1.02 2.4,-2.577 2.761,-4.271 0.531,-2.629 -0.303,-5.496 -2.158,-7.433 -1.735,-1.8819999 -3.925,-3.2489999 -6.07,-4.6089999 -0.553,-0.369 -1.148,-0.713 -1.556,-1.252 -0.44,-0.53 -0.841,-1.154 -0.848,-1.865 -0.027,-0.794 0.448,-1.516 1.06,-1.984 1.5,-1.153 3.708,-1.167 5.293,-0.176 0.589,0.38 1.107,0.933 1.31,1.616 0.171,0.558 -0.171,1.142 -0.628,1.448 -0.558,0.36 -1.27,0.331 -1.892,0.178 0.306,-0.264 0.629,-0.583 0.667,-1.008 0.012,-0.414 -0.366,-0.707 -0.719,-0.838 -0.527,-0.204 -1.24,0.042 -1.42,0.605 -0.132,0.597 0.277,1.138 0.686,1.524 1.125,1.033 2.46,1.8 3.785,2.545 1.608,0.832 3.125,1.896 4.297,3.2899999 0.761,0.908 1.356,1.974 1.618,3.136 0.505,2.346 0.025,4.859 -1.223,6.9 -1.193,1.962 -2.931,3.597 -4.977,4.644 -1.044,0.523 -2.216,0.896 -3.396,0.757 -1.099,-0.11 -2.205,-0.511 -3.004,-1.295 -0.385,-0.373 -0.529,-0.945 -0.419,-1.463 0.145,-0.732 0.596,-1.366 1.12,-1.879 0.393,-0.393 0.897,-0.638 1.327,-0.983 0.821,-0.635 1.62,-1.486 1.704,-2.573 -0.497,0.324 -1.063,0.517 -1.627,0.688 -0.727,0.228 -1.441,0.547 -2.02,1.052 -0.505,0.435 -0.879,1.002 -1.159,1.603 -0.429,0.913 -0.704,1.887 -0.993,2.85 -0.328,-1.027 -0.704,-2.083 -0.606,-3.179 0.047,-0.573 0.234,-1.124 0.48,-1.641 0.457,-0.99 0.802,-2.09 0.64,-3.191 -0.179,-1.002 -0.896,-1.785 -1.592,-2.479 -0.69,0.699 -1.41,1.478 -1.589,2.481 -0.164,1.118 0.195,2.233 0.661,3.237 0.284,0.597 0.472,1.248 0.473,1.913 0.008,0.988 -0.32,1.933 -0.622,2.861 -0.278,-0.934 -0.548,-1.875 -0.952,-2.764 -0.273,-0.602 -0.632,-1.175 -1.124,-1.622 -0.561,-0.517 -1.265,-0.848 -1.984,-1.084 -0.6,-0.185 -1.209,-0.377 -1.7380001,-0.725 0.063,0.892 0.6350001,1.644 1.2800001,2.22 0.395,0.364 0.846,0.658 1.292,0.955 0.684,0.501 1.254,1.194 1.519,2.007 0.189,0.564 0.107,1.241 -0.32,1.677 -0.8,0.812 -1.927,1.223 -3.045,1.335 -1.2160001,0.143 -2.4220001,-0.258 -3.4910001,-0.807 -1.884,-0.987 -3.498,-2.473 -4.663,-4.249 -0.985,-1.502 -1.58600001,-3.269 -1.63000001,-5.071 -0.024,-1.073 0.092,-2.167 0.50200001,-3.166 0.687,-1.7 2.004,-3.0649999 3.469,-4.1279999 0.617,-0.448 1.268,-0.851 1.946,-1.202 1.093,-0.597 2.172,-1.228 3.17,-1.975 0.4070001,-0.312 0.8130001,-0.636 1.1390001,-1.035 0.246,-0.308 0.434,-0.705 0.366,-1.109 -0.07,-0.338 -0.374,-0.579 -0.691,-0.676 -0.458,-0.146 -0.9800001,0.03 -1.2900001,0.387 -0.145,0.165 -0.213,0.401 -0.149,0.615 0.093,0.36 0.371,0.627 0.642,0.863 -0.622,0.153 -1.332,0.181 -1.89,-0.177 -0.459,-0.307 -0.803,-0.892 -0.629,-1.45 0.188,-0.636 0.656,-1.157 1.189,-1.535 z"
     id="path2" />
  <defs>
    <!-- This is the gradient that will actually be used on
     the cards. The colors themselves will be provided by the
     template, but the x values, y values, and offsets will be
     used from the SVG. -->
    <linearGradient id="rarity" x1="0" y1="1" x2="1" y2="0">
      <stop offset="0" style="stop-color:rgb(192,55,38);stop-opacity:1" id="stop2" />
      <stop offset="0.125" style="stop-color:rgb(192,55,38);stop-opacity:1" id="stop4" />
      <stop offset="0.5" style="stop-color:rgb(241,142,30);stop-opacity:1" id="stop6" />
      <stop offset="0.875" style="stop-color:rgb(192,55,38);stop-opacity:1" id="stop8" />
      <stop offset="1" style="stop-color:rgb(192,55,38);stop-opacity:1" id="stop10" />
    </linearGradient>
    <!-- These gradients are here so that you can visualize
     what the set symbol would like like in that rarity. The
     only gradient that matters in the end is the "rarity"
     gradient. -->
    <linearGradient id="mythic" x1="0" y1="1" x2="1" y2="0">
      <stop offset="0" style="stop-color:rgb(192,55,38);stop-opacity:1"/>
      <stop offset="0.125" style="stop-color:rgb(192,55,38);stop-opacity:1"/>
      <stop offset="0.5" style="stop-color:rgb(241,142,30);stop-opacity:1"/>
      <stop offset="0.875" style="stop-color:rgb(192,55,38);stop-opacity:1"/>
      <stop offset="1" style="stop-color:rgb(192,55,38);stop-opacity:1"/>
    </linearGradient>
    <linearGradient id="rare" x1="0" y1="1" x2="1" y2="0">
      <stop offset="0" style="stop-color:rgb(146,116,67);stop-opacity:1"/>
      <stop offset="0.125" style="stop-color:rgb(146,116,67);stop-opacity:1"/>
      <stop offset="0.5" style="stop-color:rgb(211,178,108);stop-opacity:1"/>
      <stop offset="0.875" style="stop-color:rgb(146,116,67);stop-opacity:1"/>
      <stop offset="1" style="stop-color:rgb(146,116,67);stop-opacity:1"/>
    </linearGradient>
    <linearGradient id="special" x1="0" y1="1" x2="1" y2="0">
      <stop offset="0" style="stop-color:rgb(76, 56, 106);stop-opacity:1"/>
      <stop offset="0.125" style="stop-color:rgb(76, 56, 106);stop-opacity:1"/>
      <stop offset="0.5" style="stop-color:rgb(201, 173, 221);stop-opacity:1"/>
      <stop offset="0.875" style="stop-color:rgb(76, 56, 106);stop-opacity:1"/>
      <stop offset="1" style="stop-color:rgb(76, 56, 106);stop-opacity:1"/>
    </linearGradient>
    <linearGradient id="uncommon" x1="0" y1="1" x2="1" y2="0">
      <stop offset="0" style="stop-color:rgb(98,110,119);stop-opacity:1"/>
      <stop offset="0.125" style="stop-color:rgb(98,110,119);stop-opacity:1"/>
      <stop offset="0.5" style="stop-color:rgb(196,222,238);stop-opacity:1"/>
      <stop offset="0.875" style="stop-color:rgb(98,110,119);stop-opacity:1"/>
      <stop offset="1" style="stop-color:rgb(98,110,119);stop-opacity:1"/>
    </linearGradient>
    <linearGradient id="common" x1="0" y1="1" x2="1" y2="0">
      <stop offset="0" style="stop-color:rgb(0,0,0);stop-opacity:1"/>
    </linearGradient>
    <linearGradient
            id="rarity-outline" x1="0" y1="1" x2="0" y2="1">
      <stop offset="0" style="stop-color:rgb(0,0,0);stop-opacity:1"/>
    </linearGradient>
  </defs>
</svg>
