<?xml version="1.0" encoding="UTF-8" standalone="no"?>
<svg
   version="1.1"
   width="25.863804"
   height="28.74996"
   viewBox="0 0 25.863803 28.74996"
   id="svg4"
   xmlns="http://www.w3.org/2000/svg"
   xmlns:svg="http://www.w3.org/2000/svg">
  <defs
     id="defs42">
    <!-- This is the gradient that will actually be used on
     the cards. The colors themselves will be provided by the
     template, but the x values, y values, and offsets will be
     used from the SVG. -->
    <linearGradient
       id="rarity"
       x1="0"
       y1="0"
       x2="1"
       y2="0">
      <stop
         offset="0"
         style="stop-color:rgb(192,55,38);stop-opacity:1"
         id="stop2" />
      <stop
         offset="0.125"
         style="stop-color:rgb(192,55,38);stop-opacity:1"
         id="stop4" />
      <stop
         offset="0.5"
         style="stop-color:rgb(241,142,30);stop-opacity:1"
         id="stop6" />
      <stop
         offset="0.875"
         style="stop-color:rgb(192,55,38);stop-opacity:1"
         id="stop8" />
      <stop
         offset="1"
         style="stop-color:rgb(192,55,38);stop-opacity:1"
         id="stop10" />
    </linearGradient>
    <!-- These gradients are here so that you can visualize
     what the set symbol would like like in that rarity. The
     only gradient that matters in the end is the "rarity"
     gradient. -->
    <linearGradient
       id="mythic"
       x1="0"
       y1="1"
       x2="1"
       y2="0">
      <stop
         offset="0"
         style="stop-color:rgb(192,55,38);stop-opacity:1"
         id="stop13" />
      <stop
         offset="0.125"
         style="stop-color:rgb(192,55,38);stop-opacity:1"
         id="stop15" />
      <stop
         offset="0.5"
         style="stop-color:rgb(241,142,30);stop-opacity:1"
         id="stop17" />
      <stop
         offset="0.875"
         style="stop-color:rgb(192,55,38);stop-opacity:1"
         id="stop19" />
      <stop
         offset="1"
         style="stop-color:rgb(192,55,38);stop-opacity:1"
         id="stop21" />
    </linearGradient>
    <linearGradient
       id="rare"
       x1="0"
       y1="1"
       x2="1"
       y2="0">
      <stop
         offset="0"
         style="stop-color:rgb(146,116,67);stop-opacity:1"
         id="stop24" />
      <stop
         offset="0.125"
         style="stop-color:rgb(146,116,67);stop-opacity:1"
         id="stop26" />
      <stop
         offset="0.5"
         style="stop-color:rgb(211,178,108);stop-opacity:1"
         id="stop28" />
      <stop
         offset="0.875"
         style="stop-color:rgb(146,116,67);stop-opacity:1"
         id="stop30" />
      <stop
         offset="1"
         style="stop-color:rgb(146,116,67);stop-opacity:1"
         id="stop32" />
    </linearGradient>
    <linearGradient
       id="special"
       x1="0"
       y1="1"
       x2="1"
       y2="0">
      <stop
         offset="0"
         style="stop-color:rgb(76, 56, 106);stop-opacity:1"
         id="stop35" />
      <stop
         offset="0.125"
         style="stop-color:rgb(76, 56, 106);stop-opacity:1"
         id="stop37" />
      <stop
         offset="0.5"
         style="stop-color:rgb(201, 173, 221);stop-opacity:1"
         id="stop39" />
      <stop
         offset="0.875"
         style="stop-color:rgb(76, 56, 106);stop-opacity:1"
         id="stop41" />
      <stop
         offset="1"
         style="stop-color:rgb(76, 56, 106);stop-opacity:1"
         id="stop43" />
    </linearGradient>
    <linearGradient
       id="uncommon"
       x1="0"
       y1="1"
       x2="1"
       y2="0">
      <stop
         offset="0"
         style="stop-color:rgb(98,110,119);stop-opacity:1"
         id="stop46" />
      <stop
         offset="0.125"
         style="stop-color:rgb(98,110,119);stop-opacity:1"
         id="stop48" />
      <stop
         offset="0.5"
         style="stop-color:rgb(196,222,238);stop-opacity:1"
         id="stop50" />
      <stop
         offset="0.875"
         style="stop-color:rgb(98,110,119);stop-opacity:1"
         id="stop52" />
      <stop
         offset="1"
         style="stop-color:rgb(98,110,119);stop-opacity:1"
         id="stop54" />
    </linearGradient>
    <linearGradient
       id="common"
       x1="0"
       y1="1"
       x2="1"
       y2="0">
      <stop
         offset="0"
         style="stop-color:rgb(0,0,0);stop-opacity:1"
         id="stop57" />
    </linearGradient>
    <linearGradient
       id="rarity-outline"
       x1="0"
       y1="27.268721"
       x2="27.268721"
       y2="0"
       gradientTransform="scale(0.94847856,1.0543201)"
       gradientUnits="userSpaceOnUse">
      <stop
         offset="0"
         style="stop-color:rgb(0,0,0);stop-opacity:1"
         id="stop60" />
    </linearGradient>
    <linearGradient
       id="rarity-7"
       x1="0.93509442"
       y1="26.325494"
       x2="26.399397"
       y2="0.86119089"
       gradientTransform="scale(0.94620114,1.0568577)"
       gradientUnits="userSpaceOnUse">
      <stop
         offset="0"
         style="stop-color:rgb(192,55,38);stop-opacity:1"
         id="stop2-1" />
      <stop
         offset="0.125"
         style="stop-color:rgb(192,55,38);stop-opacity:1"
         id="stop4-2" />
      <stop
         offset="0.5"
         style="stop-color:rgb(241,142,30);stop-opacity:1"
         id="stop6-6" />
      <stop
         offset="0.875"
         style="stop-color:rgb(192,55,38);stop-opacity:1"
         id="stop8-0" />
      <stop
         offset="1"
         style="stop-color:rgb(192,55,38);stop-opacity:1"
         id="stop10-1" />
    </linearGradient>
  </defs>
  <path
     style="fill:url(#rarity)"
     d="m 16.893864,0.91015626 c 2.585561,0.50607894 5.0233,1.57659684 7.008602,3.14257814 -0.05873,0.9446863 -0.0363,1.8687555 -0.05666,2.7753906 C 23.207344,6.5962773 22.550653,6.377031 21.875727,6.4492187 l -0.04795,0.00586 -0.04358,0.013672 C 21.233625,6.6465462 20.598985,6.856514 20.108319,7.3261725 19.073455,8.1642762 18.646076,9.460906 18.916247,10.666017 l 0.0044,0.01758 0.0066,0.01953 c 0.258969,0.748688 0.7201,1.528618 1.577807,1.974609 0.912962,0.518434 1.911808,0.413128 2.745908,0.414063 0.473243,1.415331 1.017126,2.822546 1.728178,4.173828 -2.744686,3.539639 -6.222758,6.603113 -10.057431,9.21875 l -0.0066,0.0059 -0.0066,0.0039 c -0.632199,0.467635 -1.299765,0.899484 -1.976617,1.328125 -0.681173,-0.433239 -1.365047,-0.850241 -1.970111,-1.322265 l -0.0087,-0.0078 -0.0109,-0.0078 C 7.1086796,23.869746 3.6294859,20.805272 0.88478741,17.265625 1.595839,15.914343 2.1397221,14.507128 2.6129657,13.091797 c 0.8355586,-0.0011 1.8342984,0.104069 2.7480868,-0.416016 0.8545969,-0.446234 1.3168353,-1.224478 1.5756279,-1.972656 l 0.00436,-0.01953 0.00436,-0.01758 C 7.2157219,9.4602215 6.7890062,8.1623241 5.7511458,7.3242187 5.2607651,6.856898 4.6300326,6.6487355 4.0818084,6.4707031 l -0.045765,-0.015625 -0.047944,-0.00586 C 3.3127409,6.3769849 2.6551118,6.5954076 2.0158397,6.828125 1.9900581,5.5872022 1.9659101,4.6600141 1.9548196,4.2949219 1.9507457,4.1608097 1.9497631,4.1264311 1.9482818,4.0644531 4.1721396,2.5259314 6.5910292,1.3394352 8.9699596,0.91210938 9.1918484,2.044901 9.892883,3.0664142 10.93786,3.6914062 l 0.01961,0.011719 0.01743,0.00781 c 1.042272,0.2057615 1.602461,0.2909418 2.44304,0.3691432 0.515714,-0.068484 1.028863,-0.1651613 1.466663,-0.3671875 l 0.01962,-0.00781 0.01962,-0.013672 C 15.969402,3.066073 16.672554,2.043726 16.893929,0.91015866 Z"
     id="path44" />
  <path
     fill="#000000"
     d="M 10.19088,2.1863632 9.4514426,3.0820312 C 9.156998,3.363357 9.0200841,3.6942681 8.910427,3.9570312 v 0.00195 0.00195 C 8.5942669,4.7322871 8.3036834,5.5872201 8.3264426,6.5214843 v 0.00781 0.00781 C 8.3438913,6.8393205 8.2679958,7.422454 8.5783957,7.9765625 8.0044091,7.5377958 7.3958521,7.1121088 6.9651145,6.65625 L 6.9573045,6.64648 6.9475345,6.63867 C 6.3210048,6.0368718 5.8373271,5.2813134 5.4670676,4.4648437 l -0.7167968,-1.5800781 -0.234375,1.71875 c -0.085572,0.6275265 -0.062829,1.235267 -0.046875,1.8085937 l 0.00586,0.2519532 0.2070313,0.1425781 c 0.9952444,0.6966716 1.7232776,1.9543298 1.612484,3.1541642 v 0.00977 l -0.00195,0.00977 C 6.2370467,11.059284 5.4504622,12.118656 4.4670676,12.523437 l -0.00977,0.0039 -0.00781,0.0039 c -0.4813294,0.221256 -1.093652,0.217274 -1.7617188,0.199219 L 2.283472,12.718736 2.187769,13.111314 c -0.2152005,0.879375 -0.633555,1.735674 -0.9472639,2.720717 l -0.5390625,1.695313 1.34375,-1.166016 c 0.4762791,-0.413242 0.9212929,-0.791246 1.4140625,-1.001953 l 0.027344,-0.01172 0.025391,-0.01367 c 0.9631953,-0.550669 2.0036164,-0.933635 3.078125,-1.013672 l 0.5625,-0.04101 c -0.8523281,0.38689 -1.6203378,0.850291 -2.1386719,1.447265 l -0.796875,0.919922 1.2128906,-0.09375 c 0.8291528,-0.0633 1.6806922,0.122252 2.4160157,0.513672 0.6361675,0.36106 1.1461459,0.962271 1.4785156,1.642578 0.118174,0.382822 0.200077,0.822624 0.1660156,1.189453 -0.035236,0.379485 -0.1545389,0.652059 -0.4453125,0.851563 l -0.7539062,0.517578 0.84375,0.355469 c 0.1304359,0.05492 0.2400747,-0.01443 0.3691406,0.0059 -0.062831,0.08332 -0.093515,0.189618 -0.1660156,0.263672 -0.3054521,0.266318 -0.8417207,0.321377 -1.4902344,0.525391 l -1.8046881,0.568312 1.8496094,0.396484 c 1.6096222,0.346323 3.4289021,0.56617 5.1152351,-0.140625 0.878944,-0.338558 1.516144,-1.000904 2.015625,-1.664062 L 16.109645,20.136719 14.43777,20.8125 c -0.273897,0.110853 -0.614397,0.176943 -0.894531,0.152344 -0.280134,-0.0246 -0.479767,-0.114551 -0.625,-0.308594 l -0.01563,-0.02148 -0.01953,-0.01953 c -0.02646,-0.02837 -0.0124,0.03347 0.0059,-0.03125 0.01826,-0.06472 0.09412,-0.197547 0.183593,-0.314453 l 0.607422,-0.794922 -1,-0.0098 c -0.142821,-0.0014 -0.28125,0.0012 -0.419922,0.002 -0.136889,-0.104819 -0.267313,-0.206117 -0.279333,-0.265643 l -0.0059,-0.03125 -0.01172,-0.03125 c -0.01017,-0.02991 -0.01861,-8e-4 0.04102,-0.08789 0.05963,-0.08709 0.192169,-0.21399 0.335937,-0.369141 l 0.867188,-0.935546 -1.271485,0.0957 c -0.216792,0.01641 -0.371349,-0.057 -0.521483,-0.15625 -0.02164,-0.09784 -0.06253,-0.251401 -0.05469,-0.277344 l 0.0059,-0.01563 0.0039,-0.01758 c 0.05019,-0.216829 0.295083,-0.431651 0.625,-0.59961 l 0.666017,-0.339843 -0.56836,-0.486328 c -0.02709,-0.02316 -0.06231,-0.0151 -0.08984,-0.03711 0.461179,0.0889 0.92638,0.197551 1.388672,0.357422 0.314299,0.157286 0.570814,0.404474 0.664063,0.683594 v 0.002 0.002 c 0.0018,0.0052 0.01005,-0.01225 -0.01953,0.05469 -0.02958,0.06693 -0.104961,0.177158 -0.191407,0.328125 l -0.380859,0.666015 0.763672,0.08008 c 0.825734,0.08697 1.616168,0.282185 2.046874,0.822266 l 0.01172,0.01367 0.01172,0.01367 c 0.29473,0.320444 0.350909,0.847353 0.199219,1.320312 L 16.1741,21.25985 17.154569,20.875085 c 0.82757,-0.324997 1.573273,-0.894669 2.056641,-1.679688 0.637677,-0.944418 0.74615,-2.031683 0.857422,-2.980468 l 0.205078,-1.744141 -1.091797,1.375 C 18.948807,16.139123 18.67649,16.26026 18.4241,16.45321 18.35892,16.233189 18.291324,16.010273 18.109647,15.822351 l -0.08398,-0.08984 -0.117188,-0.03711 c -0.05488,-0.01829 -0.112392,-0.03773 -0.167968,-0.05664 0.24877,-1.488309 -0.122156,-3.020687 -1.050781,-4.175781 -1.117799,-1.442453 -2.260815,-2.8487328 -3.326177,-4.3008707 l -0.002,-0.00195 C 12.782159,6.3770811 12.552999,5.3678664 12.545193,4.3359375 12.487932,3.220856 11.825962,3.7771635 11.60574,4.0976562 11.276354,4.6984909 11.076866,5.3635303 11.000271,6.046875 10.817392,5.7452286 10.535788,5.4708276 10.406521,5.1503906 10.218405,4.6610891 10.267812,4.0599468 10.297146,3.4667969 Z M 5.472927,6.2167968 c 0.031693,0.045703 0.061026,0.091644 0.09375,0.1367188 -0.037008,-0.032295 -0.055693,-0.080217 -0.09375,-0.1113281 -2.369e-4,-0.00883 2.329e-4,-0.016573 0,-0.025391 z m 3.796875,2.3222657 0.041016,0.035156 C 9.298281,8.5620405 9.286299,8.5569525 9.273709,8.5449215 c -0.00179,-0.00171 -0.00211,-0.00415 -0.00391,-0.00586 z"
     id="path46" />
  <path
     fill="#ffffff"
     d="m 9.796875,3.4433594 c -0.202,0.193 -0.3178281,0.4530312 -0.4238281,0.7070312 -0.307,0.749 -0.566875,1.538375 -0.546875,2.359375 0.025,0.433 -0.086359,0.917875 0.1816406,1.296875 0.374,0.3590002 0.6857812,0.7811875 0.9257813,1.2421875 0.4059992,0.66 0.7810612,1.3588579 0.9140622,2.1308599 -0.031,-0.032 -0.09595,-0.09691 -0.126953,-0.128907 -0.61,-0.685001 -1.0247655,-1.5431404 -1.7597655,-2.1191404 -0.7329999,-0.712 -1.656375,-1.1895937 -2.359375,-1.9335937 -0.684,-0.657 -1.1998437,-1.4661719 -1.5898437,-2.3261719 -0.078,0.572 -0.1200278,1.5266378 -0.1040278,2.1016378 0.4935577,0.2543384 0.9411581,0.5650849 1.2895744,0.9901591 0.7049293,0.8155946 0.9750096,1.8899563 0.7480469,2.9023441 l -0.00391,0.01758 -0.00391,0.01953 c -0.2587926,0.748178 -0.721575,1.526422 -1.5761719,1.972656 -0.1738101,0.09892 -0.3510473,0.1698 -0.5292969,0.228516 -0.057505,0.02824 -0.1142156,0.05749 -0.1738281,0.08203 -0.62,0.285 -1.318375,0.262141 -1.984375,0.244141 -0.232,0.948 -0.6579062,1.812703 -0.9570312,2.751953 0.476,-0.413 0.959875,-0.832984 1.546875,-1.083984 1.011,-0.578 2.1210625,-0.991126 3.2890625,-1.078126 -0.494,-0.272 -1.0251719,-0.462171 -1.5761719,-0.576171 0.523,-0.464 1.1534062,-0.799625 1.8164063,-1.015625 1.5172496,-0.385558 2.985077,-0.167477 4.0742189,0.324218 -1.1830009,-0.112 -2.3968596,-0.0076 -3.5058596,0.441407 0.654,0.303 1.3998595,0.499218 1.8808594,1.074218 -1.5781848,0.356181 -3.0710036,1.089594 -3.8496094,1.986329 0.93,-0.071 1.8743125,0.133265 2.6953125,0.572265 0.752,0.425 1.3360313,1.115672 1.7070313,1.888672 0.2789998,0.872 0.3902028,2.058484 -0.4667969,2.646484 0.342,0.144 0.6978747,0.102907 1.0468747,0.0039 -0.15,0.409 -0.3873122,0.788656 -0.6953122,1.097656 -0.465,0.414 -1.1126406,0.451859 -1.6816406,0.630859 1.5784759,0.339621 3.2921718,0.531766 4.8261718,-0.115234 0.749,-0.287 1.327781,-0.873953 1.800781,-1.501953 -0.677,0.274 -1.622422,0.325734 -2.107422,-0.322266 -0.291,-0.312 -0.05575,-0.713234 0.15625,-0.990234 -0.202,-0.002 -0.401516,9.53e-4 -0.603516,0.002 -0.246,-0.166 -0.517078,-0.354016 -0.580078,-0.666016 -0.136,-0.4 0.244375,-0.699984 0.484375,-0.958984 -0.37,0.028 -0.721954,-0.06741 -1.001953,-0.316406 -0.06,-0.249 -0.169798,-0.503719 -0.0918,-0.761719 0.103,-0.445 0.501719,-0.737594 0.886719,-0.933594 -0.58,-0.496 -1.315781,-0.690547 -2.0507808,-0.810547 1.2730008,-0.501 2.6468588,-0.140937 3.8808588,0.289063 0.415,0.202 0.782641,0.540328 0.931641,0.986328 0.102,0.297 -0.112,0.553922 -0.25,0.794922 0.864,0.091 1.813766,0.291812 2.384765,1.007812 0.447,0.486 0.501641,1.202547 0.306641,1.810547 0.741,-0.291 1.404266,-0.797469 1.822266,-1.480469 0.556,-0.816 0.667297,-1.816484 0.779297,-2.771484 -0.418,0.526 -0.890454,1.03375 -1.564454,1.21875 C 18.085812,16.943 18.07,16.500922 17.75,16.169922 17.582,16.113922 17.416,16.055 17.25,16 17.66,14.539 17.23783,12.945344 16.298828,11.777344 15.183829,10.338343 14.035984,8.9250314 12.958984,7.4570312 c -0.663,-0.8959999 -0.905718,-2.0141874 -0.914062,-3.1171874 -0.307,0.56 -0.500453,1.1754999 -0.564453,1.8125 0.041,0.23 0.08377,0.4604531 0.134765,0.6894531 1.017,1.5660002 2.394625,2.8789684 3.265625,4.5429691 0.288,0.574 0.541188,1.179265 0.617188,1.822265 C 15.352047,13.130031 15.242828,13.02 15.173828,12.875 14.316828,11.217 13.126734,9.7656563 11.927734,8.3476562 11.176734,7.4086561 10.395407,6.4609844 9.9414062,5.3339844 9.6956672,4.6991961 9.7686392,4.0142839 9.796875,3.4433594 Z m 3.339844,8.8339846 c 1.094,0.599 1.843922,1.772187 2.044922,2.992187 -0.406,-0.044 -0.871063,-0.05377 -1.164063,-0.384765 -0.499001,-0.516 -0.816749,-1.194625 -0.96875,-1.890625 -0.063,-0.243 0.01989,-0.485797 0.08789,-0.716797 z"
     id="path48" />
  <path
     style="fill:url(#rarity-outline)"
     d="M 9.6308594,0 9.1640625,0.0703125 C 6.4130028,0.47885396 3.712219,1.8590931 1.28125,3.5625 L 1.27148,3.57031 1.259761,3.57812 C 1.237507,3.596001 1.1345603,3.7399227 1.1210892,3.8027294 c -0.013471,0.062807 -0.011597,0.086998 -0.011719,0.1230468 -2.42e-4,0.072098 0.00133,0.177277 0.00781,0.390625 0.012962,0.4266963 0.03993,1.2692599 0.072266,2.9550782 L 1.203125,7.9511719 1.8378906,7.5800781 C 2.4242169,7.2368213 3.1318313,7.132954 3.8515625,7.203125 4.3725577,7.3739644 4.8454408,7.5414846 5.1542969,7.8417969 l 0.015625,0.013672 0.013672,0.013672 c 0.8012529,0.6395569 1.1442897,1.6747346 0.9394531,2.6269531 -0.2254155,0.641462 -0.594251,1.229807 -1.1875,1.537109 l -0.00781,0.0039 -0.00977,0.0039 C 4.2407137,12.4296 3.3143331,12.303075 2.3027344,12.34375 l -0.296875,0.01172 -0.085937,0.257812 C 1.4135706,14.158395 0.82999829,15.678969 0.05664062,17.115234 L 0,17.21875 l 0.05273437,0.306641 0.05468751,0.07031 c 2.81253492,3.655851 6.38675362,6.795881 10.30468712,9.470703 0.004,0.0032 0.0096,0.0047 0.01367,0.0078 0.0033,0.0022 0.0046,0.0056 0.0078,0.0078 0.72644,0.563974 1.508356,1.034861 2.253906,1.513672 L 12.929688,28.75 13.171875,28.597656 c 0.765954,-0.480624 1.526741,-0.975663 2.257813,-1.515625 l 0.0078,-0.0078 c 3.923863,-2.677637 7.504825,-5.818826 10.320312,-9.478516 l 0.05273,-0.07031 0.05273,-0.306641 -0.05664,-0.103516 c -0.77333,-1.436279 -1.356908,-2.956853 -1.863261,-4.501967 l -0.08398,-0.257812 -0.298828,-0.01172 C 22.54862,12.30306 21.62237,12.43029 20.945312,12.041016 l -0.0098,-0.0039 -0.0078,-0.0039 C 20.333585,11.725902 19.965729,11.137849 19.740234,10.496094 19.53546,9.544083 19.87932,8.5087602 20.679688,7.8691406 l 0.01562,-0.013672 0.01172,-0.013672 c 0.3091,-0.30055 0.786458,-0.4689133 1.306641,-0.6386719 0.718634,-0.069654 1.427576,0.03468 2.013672,0.3769531 l 0.615234,0.359375 0.03125,-0.6582031 c 0.05476,-1.1595407 -0.01942,-2.2931933 0.06836,-3.3945312 L 24.755859,3.703125 24.603516,3.5800781 C 22.38936,1.7929116 19.633282,0.58115906 16.712891,0.07226562 l -0.03906,-0.0078125 h -0.04102 -0.404296 l -0.01367,0.359375 C 16.167887,1.4690378 15.452723,2.4603354 14.474609,3.0527344 13.994015,3.2716891 13.487703,3.4260655 12.990234,3.4335938 h -0.02539 C 12.448215,3.4530859 11.883694,3.2868903 11.388672,3.0546875 10.409874,2.4623847 9.6973746,1.4695091 9.6503906,0.42382812 Z M 16.894531,0.91015625 C 19.480092,1.4162352 21.917042,2.4867531 23.902344,4.0527344 23.843614,4.9974207 23.866063,5.9214899 23.845703,6.828125 23.207241,6.5962773 22.549926,6.377031 21.875,6.4492188 l -0.04687,0.00586 -0.04297,0.013672 C 21.234588,6.6465463 20.598092,6.8565142 20.107426,7.3261727 19.072562,8.1642764 18.645849,9.4609054 18.91602,10.666017 l 0.0039,0.01758 0.0078,0.01953 c 0.258969,0.748688 0.720418,1.528618 1.578125,1.974609 0.912962,0.518434 1.910041,0.413128 2.744141,0.414063 0.473243,1.415331 1.017464,2.822546 1.728516,4.173828 -2.744686,3.539639 -6.221968,6.603113 -10.056641,9.21875 l -0.0059,0.0059 -0.0078,0.0039 c -0.632199,0.467635 -1.29971,0.899484 -1.976562,1.328125 C 12.250468,27.389027 11.566002,26.972024 10.960938,26.5 l -0.0078,-0.0078 -0.01172,-0.0078 C 7.1079049,23.869684 3.6294641,20.805272 0.88476562,17.265625 1.5958172,15.914343 2.1400377,14.507128 2.6132812,13.091797 3.4488399,13.090697 4.4475397,13.195866 5.3613281,12.675781 6.215925,12.229547 6.6787074,11.451303 6.9375,10.703125 l 0.00391,-0.01953 0.00391,-0.01758 C 7.215634,9.4602221 6.7898135,8.1623241 5.7519531,7.3242188 5.2395497,6.8661103 4.7586738,6.5713752 4.0351562,6.4550781 l -0.046875,-0.00586 C 3.3129228,6.3769856 2.6548971,6.5954076 2.015625,6.828125 1.9898434,5.5872022 1.9661686,4.6600141 1.9550781,4.2949219 1.9510042,4.1608097 1.9507001,4.1264311 1.9492188,4.0644531 4.1730766,2.5259314 6.5917727,1.3394352 8.9707031,0.91210938 9.1925919,2.044901 9.892523,3.0664142 10.9375,3.6914062 l 0.01953,0.011719 0.01758,0.00781 c 1.23093,0.5100525 1.926455,0.3932493 2.44336,0.3691406 0.515714,-0.068484 1.028997,-0.1651613 1.466797,-0.3671875 l 0.01953,-0.00781 0.01953,-0.013672 C 15.969386,3.0660705 16.673155,2.0437237 16.89453,0.91015635 Z"
     id="path50" />
</svg>
