<?xml version="1.0" encoding="UTF-8" standalone="no"?>
<!-- Generated by IcoMoon.io -->

<svg
   version="1.1"
   width="31.936001"
   height="13.465"
   viewBox="0 0 31.936001 13.465"
   id="svg6"
   sodipodi:docname="all.svg"
   inkscape:version="1.1.1 (3bf5ae0d25, 2021-09-20)"
   xmlns:inkscape="http://www.inkscape.org/namespaces/inkscape"
   xmlns:sodipodi="http://sodipodi.sourceforge.net/DTD/sodipodi-0.dtd"
   xmlns="http://www.w3.org/2000/svg"
   xmlns:svg="http://www.w3.org/2000/svg">
  <defs
     id="defs10" />
  <sodipodi:namedview
     id="namedview8"
     pagecolor="#ffffff"
     bordercolor="#666666"
     borderopacity="1.0"
     inkscape:pageshadow="2"
     inkscape:pageopacity="0.0"
     inkscape:pagecheckerboard="0"
     showgrid="false"
     inkscape:zoom="25.75"
     inkscape:cx="15.941748"
     inkscape:cy="6.6990291"
     inkscape:window-width="1920"
     inkscape:window-height="1009"
     inkscape:window-x="-8"
     inkscape:window-y="-8"
     inkscape:window-maximized="1"
     inkscape:current-layer="svg6" />
  <title
     id="title2">all</title>
  <path
     fill="#000000"
     d="M 25.003,5.272 24.314,5.213 25.118,7.109 C 21.673,4.926 18.4,6.074 18.4,6.074 18.056,4.695 18.459,2.801 18.459,2.801 21.96,1.137 27.3,3.204 27.3,3.204 25.577,4.35 25.003,5.271 25.003,5.271 Z M 20.56,7.538 19.722,7.109 c 0.401,-0.344 0.862,-0.287 0.862,-0.287 l -0.023,0.716 z m -2.791,0.43 C 16.506,7.223 10.419,4.064 4.277,4.581 c 0,0 2.468,-0.862 4.536,-1.205 0,0 -0.458,-0.745 -2.986,-1.951 0,0 5.627,0.057 11.484,3.617 0,0 0,0.975 0.344,1.78 0.344,0.802 0.862,0.572 0.862,0.572 0,0 0.802,0.634 1.492,0.862 0,0 -0.977,0.46 -2.24,-0.287 z m 8.383,-0.574 c 0,0 -0.195,-0.608 -0.596,-1.47 0,0 1.113,-1.229 2.663,-2.031 l -2.067,3.5 z m 4.389,-7.393 c -0.769,0 -1.393,0.623 -1.393,1.394 0,0.384 0.156,0.73 0.408,0.984 L 29.281,2.845 28.434,2.811 C 28.039,2.659 27.581,2.479 27.581,2.479 27.349,2.39 21.886,0.313 18.126,2.101 L 17.78,2.266 17.7,2.639 C 17.689,2.688 17.548,3.382 17.502,4.256 13.015,1.585 8.596,0.893 6.744,0.709 4.76,0.513 2.785,0.705 2.785,0.705 5.427,1.94 7.046,2.956 7.046,2.956 7.046,2.956 4.622,3.287 0,5.555 L 4.343,5.352 c 6.472,-0.545 12.768,3.125 13.034,3.281 1.073,0.636 2.141,0.655 2.751,0.401 1.484,-0.61 1.214,-2.451 1.214,-2.451 0.988,0.102 2.158,0.416 3.362,1.178 l 0.846,0.551 -2.584,4.464 0.976,0.689 6.028,-9.819 -0.114,-0.458 0.277,-0.471 c 0.129,0.04 0.266,0.07 0.41,0.07 0.771,0 1.393,-0.625 1.393,-1.393 C 31.936,0.623 31.313,0 30.543,0 Z"
     id="path4" />
</svg>
