<?xml version="1.0" encoding="UTF-8" standalone="no"?>
<!-- Generated by IcoMoon.io -->

<svg
   version="1.1"
   width="23.273001"
   height="26.646999"
   viewBox="0 0 23.273001 26.646999"
   id="svg6"
   sodipodi:docname="arb.svg"
   inkscape:version="1.1.1 (3bf5ae0d25, 2021-09-20)"
   xmlns:inkscape="http://www.inkscape.org/namespaces/inkscape"
   xmlns:sodipodi="http://sodipodi.sourceforge.net/DTD/sodipodi-0.dtd"
   xmlns="http://www.w3.org/2000/svg"
   xmlns:svg="http://www.w3.org/2000/svg">
  <defs
     id="defs10" />
  <sodipodi:namedview
     id="namedview8"
     pagecolor="#ffffff"
     bordercolor="#666666"
     borderopacity="1.0"
     inkscape:pageshadow="2"
     inkscape:pageopacity="0.0"
     inkscape:pagecheckerboard="0"
     showgrid="false"
     inkscape:zoom="25.75"
     inkscape:cx="11.980583"
     inkscape:cy="13.300971"
     inkscape:window-width="1920"
     inkscape:window-height="1009"
     inkscape:window-x="-8"
     inkscape:window-y="-8"
     inkscape:window-maximized="1"
     inkscape:current-layer="svg6" />
  <title
     id="title2">arb</title>
  <path
     fill="#000000"
     d="m 23.273,13.323 v 8.086 L 21.294,20.013 19.199,14.66 h -2.327 l 2.807,8.367 -2.982,1.342 -1.977,-9.709 h -1.862 l 1.52,10.752 -2.741,1.235 L 8.893,25.412 10.416,14.66 H 8.551 L 6.577,24.369 3.591,23.027 6.399,14.66 H 4.071 L 1.98,20.013 0,21.409 V 5.235 l 1.98,1.397 2.091,5.353 H 6.399 L 3.591,3.621 6.577,2.276 8.551,11.985 h 1.865 L 8.893,1.233 11.637,0 l 2.741,1.233 -1.52,10.752 h 1.862 l 1.977,-9.709 2.982,1.345 -2.807,8.364 h 2.327 l 2.095,-5.353 1.979,-1.397 z"
     id="path4" />
</svg>
