<?xml version="1.0" encoding="UTF-8" standalone="no"?>
<svg
   version="1.1"
   width="27.546"
   height="32.333767"
   viewBox="0 0 27.546 32.333768"
   id="svg4"
   xmlns="http://www.w3.org/2000/svg"
   xmlns:svg="http://www.w3.org/2000/svg">
  <defs>
    <!-- This is the gradient that will actually be used on
     the cards. The colors themselves will be provided by the
     template, but the x values, y values, and offsets will be
     used from the SVG. -->
    <linearGradient id="rarity" x1="0" y1="0" x2="1" y2="0">
      <stop offset="0" style="stop-color:rgb(192,55,38);stop-opacity:1" id="stop2" />
      <stop offset="0.125" style="stop-color:rgb(192,55,38);stop-opacity:1" id="stop4" />
      <stop offset="0.5" style="stop-color:rgb(241,142,30);stop-opacity:1" id="stop6" />
      <stop offset="0.875" style="stop-color:rgb(192,55,38);stop-opacity:1" id="stop8" />
      <stop offset="1" style="stop-color:rgb(192,55,38);stop-opacity:1" id="stop10" />
    </linearGradient>
    <!-- These gradients are here so that you can visualize
     what the set symbol would like like in that rarity. The
     only gradient that matters in the end is the "rarity"
     gradient. -->
    <linearGradient id="mythic" x1="0" y1="1" x2="1" y2="0">
      <stop offset="0" style="stop-color:rgb(192,55,38);stop-opacity:1"/>
      <stop offset="0.125" style="stop-color:rgb(192,55,38);stop-opacity:1"/>
      <stop offset="0.5" style="stop-color:rgb(241,142,30);stop-opacity:1"/>
      <stop offset="0.875" style="stop-color:rgb(192,55,38);stop-opacity:1"/>
      <stop offset="1" style="stop-color:rgb(192,55,38);stop-opacity:1"/>
    </linearGradient>
    <linearGradient id="rare" x1="0" y1="1" x2="1" y2="0">
      <stop offset="0" style="stop-color:rgb(146,116,67);stop-opacity:1"/>
      <stop offset="0.125" style="stop-color:rgb(146,116,67);stop-opacity:1"/>
      <stop offset="0.5" style="stop-color:rgb(211,178,108);stop-opacity:1"/>
      <stop offset="0.875" style="stop-color:rgb(146,116,67);stop-opacity:1"/>
      <stop offset="1" style="stop-color:rgb(146,116,67);stop-opacity:1"/>
    </linearGradient>
    <linearGradient id="special" x1="0" y1="1" x2="1" y2="0">
      <stop offset="0" style="stop-color:rgb(76, 56, 106);stop-opacity:1"/>
      <stop offset="0.125" style="stop-color:rgb(76, 56, 106);stop-opacity:1"/>
      <stop offset="0.5" style="stop-color:rgb(201, 173, 221);stop-opacity:1"/>
      <stop offset="0.875" style="stop-color:rgb(76, 56, 106);stop-opacity:1"/>
      <stop offset="1" style="stop-color:rgb(76, 56, 106);stop-opacity:1"/>
    </linearGradient>
    <linearGradient id="uncommon" x1="0" y1="1" x2="1" y2="0">
      <stop offset="0" style="stop-color:rgb(98,110,119);stop-opacity:1"/>
      <stop offset="0.125" style="stop-color:rgb(98,110,119);stop-opacity:1"/>
      <stop offset="0.5" style="stop-color:rgb(196,222,238);stop-opacity:1"/>
      <stop offset="0.875" style="stop-color:rgb(98,110,119);stop-opacity:1"/>
      <stop offset="1" style="stop-color:rgb(98,110,119);stop-opacity:1"/>
    </linearGradient>
    <linearGradient id="common" x1="0" y1="1" x2="1" y2="0">
      <stop offset="0" style="stop-color:rgb(0,0,0);stop-opacity:1"/>
    </linearGradient>
    <linearGradient
            id="rarity-outline" x1="0" y1="1" x2="0" y2="1">
      <stop offset="0" style="stop-color:rgb(0,0,0);stop-opacity:1"/>
    </linearGradient>
  </defs>
  <path fill="url(#rarity-outline)" d="M 13.775391,0 C 13.337946,-3.0508987e-4 12.951064,0.28372445 12.820313,0.70117187 L 7.7421875,16.941406 c -0.201669,0.644337 0.2799189,1.299257 0.9550781,1.298828 0,0 0.5677545,0.01398 1.0820313,0.222657 0.2571381,0.104335 0.4722381,0.2456 0.6074221,0.410156 0.135184,0.164556 0.228515,0.347753 0.228515,0.734375 0,0.448294 -0.130201,0.692191 -0.310546,0.865234 -0.180346,0.173043 -0.4512206,0.292969 -0.8476567,0.292969 -0.3691993,0 -0.9192791,-0.07342 -1.4980469,-0.847656 C 7.3802165,19.143731 6.7773438,17.534423 6.7773437,14.447266 6.7773437,8.4162296 10.398438,3.2714844 10.398438,3.2714844 11.009971,2.4103718 10.042634,1.312393 9.1113281,1.8105469 9.1113281,1.8105469 0,6.7076658 0,16.732422 c 2.7233027e-4,0.27903 0.11710138,0.545258 0.32226563,0.734375 l 4.50195307,4.160156 -0.3203125,0.402344 c -0.3145224,0.394421 -0.2860509,0.961341 0.066406,1.322265 l 8.4843758,8.681641 c 0.188125,0.192329 0.445805,0.300752 0.714843,0.300781 h 0.0039 c 0.269038,-2.9e-5 0.526718,-0.108452 0.714843,-0.300781 l 8.486328,-8.681641 c 0.352458,-0.360923 0.380931,-0.927843 0.06641,-1.322265 l -0.320313,-0.402344 4.503906,-4.160156 c 0.205164,-0.189117 0.321994,-0.455345 0.322266,-0.734375 0,-10.0247562 -9.111328,-14.9218751 -9.111328,-14.9218751 -0.932224,-0.5029566 -1.90418,0.598593 -1.289063,1.4609375 0,0 3.619141,5.1454954 3.619141,11.1757816 0,3.087312 -0.603275,4.698578 -1.181641,5.472656 -0.578365,0.774078 -1.126754,0.845703 -1.498047,0.845703 -0.394402,0 -0.663551,-0.119898 -0.84375,-0.292969 -0.180198,-0.17307 -0.310546,-0.41694 -0.310546,-0.865234 0,-0.386622 0.09333,-0.569819 0.228515,-0.734375 0.135184,-0.164556 0.348331,-0.305821 0.605469,-0.410156 0.514277,-0.208672 1.083984,-0.222657 1.083984,-0.222657 0.674341,-8.89e-4 1.15455,-0.655271 0.953125,-1.298828 L 14.730469,0.70117187 C 14.599718,0.28372445 14.212836,-3.0508987e-4 13.775391,0 Z"/>
  <path
     fill="url(#rarity)"
     d="m 13.77,31.333765 -8.484,-8.681 0.901,-1.129 -5.187,-4.792 c 0,-9.417 8.585,-14.041 8.585,-14.041 0,0 -3.807,5.331 -3.807,11.757 0,6.429 2.456,7.318 3.679,7.318 1.229,0 2.158,-0.804 2.158,-2.158 0,-2.368 -2.918,-2.368 -2.918,-2.368 L 13.775,0.99976497 18.849,17.239765 c 0,0 -2.918,0 -2.918,2.368 0,1.354 0.929,2.158 2.155,2.158 1.226,0 3.679,-0.889 3.679,-7.318 0,-6.425 -3.804,-11.757 -3.804,-11.757 0,0 8.585,4.624 8.585,14.041 l -5.187,4.792 0.901,1.129 -8.487,8.681 z"/>
</svg>
