<?xml version="1.0" encoding="UTF-8" standalone="no"?>
<!-- Generated by IcoMoon.io -->

<svg
   version="1.1"
   width="31.957029"
   height="26.804432"
   viewBox="0 0 31.957029 26.804432"
   id="svg6"
   sodipodi:docname="bcore.svg"
   inkscape:version="1.1.1 (3bf5ae0d25, 2021-09-20)"
   xmlns:inkscape="http://www.inkscape.org/namespaces/inkscape"
   xmlns:sodipodi="http://sodipodi.sourceforge.net/DTD/sodipodi-0.dtd"
   xmlns="http://www.w3.org/2000/svg"
   xmlns:svg="http://www.w3.org/2000/svg">
  <defs
     id="defs10" />
  <sodipodi:namedview
     id="namedview8"
     pagecolor="#ffffff"
     bordercolor="#666666"
     borderopacity="1.0"
     inkscape:pageshadow="2"
     inkscape:pageopacity="0.0"
     inkscape:pagecheckerboard="0"
     showgrid="false"
     inkscape:zoom="25.75"
     inkscape:cx="15.941748"
     inkscape:cy="13.378641"
     inkscape:window-width="1920"
     inkscape:window-height="1009"
     inkscape:window-x="-8"
     inkscape:window-y="-8"
     inkscape:window-maximized="1"
     inkscape:current-layer="svg6" />
  <title
     id="title2">bcore</title>
  <path
     fill="#000000"
     d="m 22.828491,0 c 0,0 1.688,0.183 1.688,1.929 l 6.266,1.746 c 0,0 1.565,0.604 1.082,2.652 l -5.179,19.335 c 0,0 -1.085,1.447 -2.349,1.084 l -8.356,-2.298 -8.358,2.298 c -1.264,0.363 -2.349,-1.084 -2.349,-1.084 L 0.09149101,6.327 C -0.38850899,4.278 1.176491,3.675 1.176491,3.675 l 6.266,-1.746 c 0,-1.746 1.686,-1.929 1.686,-1.929 z m -0.055,0.724 h -13.592 c -0.077,0.014 -0.32,0.068 -0.546,0.22 -0.323,0.214 -0.472,0.526 -0.472,0.984 v 0.549 c 0,0 -6.647,1.855 -6.744,1.88 -0.175,0.08 -0.69599999,0.395 -0.69599999,1.227 0,0.169 0.023,0.358 0.072,0.573 0.009,0.032 5.05299999,18.859 5.13599999,19.162 0.22,0.252 0.875,0.907 1.494,0.733 l 8.555,-2.355 8.553,2.355 c 0.618,0.174 1.271,-0.48 1.494,-0.733 0.084,-0.303 5.128,-19.131 5.136,-19.162 0.048,-0.215 0.072,-0.404 0.072,-0.573 0,-0.832 -0.524,-1.147 -0.696,-1.227 -0.097,-0.026 -6.747,-1.88 -6.747,-1.88 V 1.928 c 0,-0.458 -0.149,-0.77 -0.469,-0.984 -0.226,-0.152 -0.47,-0.207 -0.549,-0.22 v 0 z m -14.753,2.75 v 18.593 c 0,0 0.158,1.208 1.124,1.208 h 5.219 l -6.987,1.926 c 0,0 -0.401,0.2 -0.604,-0.24 l -5.139,-19.077 c 0,0 -0.203,-0.601 0.281,-0.761 l 6.106,-1.648 z m 15.921,-0.04 6.1,1.648 c 0.483,0.16 0.283,0.761 0.283,0.761 l -5.142,19.077 c -0.198,0.441 -0.601,0.24 -0.601,0.24 l -6.987,-1.929 h 5.221 c 0.962,0 1.125,-1.204 1.125,-1.204 V 3.434 Z m -1.225,-1.806 c 0.281,0 0.32,0.36 0.32,0.36 v 19.998 c 0,0.321 -0.32,0.401 -0.32,0.401 h -13.452 c -0.283,0 -0.283,-0.401 -0.283,-0.401 V 1.988 c 0,-0.24 0.283,-0.36 0.283,-0.36 z"
     id="path4" />
</svg>
