<?xml version="1.0" encoding="UTF-8" standalone="no"?>
<!-- Generated by IcoMoon.io -->

<svg
   version="1.1"
   width="19.635"
   height="28.415001"
   viewBox="0 0 19.635 28.415001"
   id="svg8"
   sodipodi:docname="bfz.svg"
   inkscape:version="1.1.1 (3bf5ae0d25, 2021-09-20)"
   xmlns:inkscape="http://www.inkscape.org/namespaces/inkscape"
   xmlns:sodipodi="http://sodipodi.sourceforge.net/DTD/sodipodi-0.dtd"
   xmlns="http://www.w3.org/2000/svg"
   xmlns:svg="http://www.w3.org/2000/svg">
  <defs
     id="defs12" />
  <sodipodi:namedview
     id="namedview10"
     pagecolor="#ffffff"
     bordercolor="#666666"
     borderopacity="1.0"
     inkscape:pageshadow="2"
     inkscape:pageopacity="0.0"
     inkscape:pagecheckerboard="0"
     showgrid="false"
     inkscape:zoom="25.75"
     inkscape:cx="9.961165"
     inkscape:cy="14.194175"
     inkscape:window-width="1920"
     inkscape:window-height="1009"
     inkscape:window-x="-8"
     inkscape:window-y="-8"
     inkscape:window-maximized="1"
     inkscape:current-layer="svg8" />
  <title
     id="title2">bfz</title>
  <path
     fill="#000000"
     d="m 9.59,0 c 3.347,4.557 6.702,9.108 10.045,13.669 -1.736,-0.683 -3.471,-1.368 -5.205,-2.058 -1.313,1.49 -2.619,2.988 -3.937,4.475 -0.003,-2.534 -0.003,-5.068 0,-7.602 C 8.467,10.609 6.434,12.727 4.41,14.853 2.94,14.306 1.47,13.756 0,13.208 3.194,8.804 6.393,4.404 9.589,0.001 Z"
     id="path4" />
  <path
     fill="#000000"
     d="m 5.205,16.803 c 1.304,-1.477 2.608,-2.954 3.918,-4.424 0.003,2.532 0.005,5.064 -10e-4,7.596 2.031,-2.141 4.07,-4.272 6.103,-6.411 1.469,0.549 2.938,1.096 4.407,1.645 -3.193,4.404 -6.391,8.804 -9.585,13.206 C 6.702,23.871 3.359,19.32 0.015,14.779 c 0.009,-0.017 0.028,-0.051 0.038,-0.068 0.13,0.066 0.248,0.152 0.383,0.21 1.59,0.624 3.181,1.25 4.769,1.883 z"
     id="path6" />
</svg>
