<?xml version="1.0" encoding="UTF-8" standalone="no"?>
<svg
   version="1.1"
   width="32.737045"
   height="31.530857"
   viewBox="0 0 32.737045 31.530857"
   id="svg4"
   xmlns="http://www.w3.org/2000/svg"
   xmlns:svg="http://www.w3.org/2000/svg">
  <defs>
    <!-- This is the gradient that will actually be used on
     the cards. The colors themselves will be provided by the
     template, but the x values, y values, and offsets will be
     used from the SVG. -->
    <linearGradient id="rarity" x1="0" y1="0" x2="1" y2="1">
      <stop offset="0" style="stop-color:rgb(192,55,38);stop-opacity:1" id="stop2" />
      <stop offset="0.125" style="stop-color:rgb(192,55,38);stop-opacity:1" id="stop4" />
      <stop offset="0.5" style="stop-color:rgb(241,142,30);stop-opacity:1" id="stop6" />
      <stop offset="0.875" style="stop-color:rgb(192,55,38);stop-opacity:1" id="stop8" />
      <stop offset="1" style="stop-color:rgb(192,55,38);stop-opacity:1" id="stop10" />
    </linearGradient>
    <!-- These gradients are here so that you can visualize
     what the set symbol would like like in that rarity. The
     only gradient that matters in the end is the "rarity"
     gradient. -->
    <linearGradient id="mythic" x1="0" y1="1" x2="1" y2="0">
      <stop offset="0" style="stop-color:rgb(192,55,38);stop-opacity:1"/>
      <stop offset="0.125" style="stop-color:rgb(192,55,38);stop-opacity:1"/>
      <stop offset="0.5" style="stop-color:rgb(241,142,30);stop-opacity:1"/>
      <stop offset="0.875" style="stop-color:rgb(192,55,38);stop-opacity:1"/>
      <stop offset="1" style="stop-color:rgb(192,55,38);stop-opacity:1"/>
    </linearGradient>
    <linearGradient id="rare" x1="0" y1="1" x2="1" y2="0">
      <stop offset="0" style="stop-color:rgb(146,116,67);stop-opacity:1"/>
      <stop offset="0.125" style="stop-color:rgb(146,116,67);stop-opacity:1"/>
      <stop offset="0.5" style="stop-color:rgb(211,178,108);stop-opacity:1"/>
      <stop offset="0.875" style="stop-color:rgb(146,116,67);stop-opacity:1"/>
      <stop offset="1" style="stop-color:rgb(146,116,67);stop-opacity:1"/>
    </linearGradient>
    <linearGradient id="special" x1="0" y1="1" x2="1" y2="0">
      <stop offset="0" style="stop-color:rgb(76, 56, 106);stop-opacity:1"/>
      <stop offset="0.125" style="stop-color:rgb(76, 56, 106);stop-opacity:1"/>
      <stop offset="0.5" style="stop-color:rgb(201, 173, 221);stop-opacity:1"/>
      <stop offset="0.875" style="stop-color:rgb(76, 56, 106);stop-opacity:1"/>
      <stop offset="1" style="stop-color:rgb(76, 56, 106);stop-opacity:1"/>
    </linearGradient>
    <linearGradient id="uncommon" x1="0" y1="1" x2="1" y2="0">
      <stop offset="0" style="stop-color:rgb(98,110,119);stop-opacity:1"/>
      <stop offset="0.125" style="stop-color:rgb(98,110,119);stop-opacity:1"/>
      <stop offset="0.5" style="stop-color:rgb(196,222,238);stop-opacity:1"/>
      <stop offset="0.875" style="stop-color:rgb(98,110,119);stop-opacity:1"/>
      <stop offset="1" style="stop-color:rgb(98,110,119);stop-opacity:1"/>
    </linearGradient>
    <linearGradient id="common" x1="0" y1="1" x2="1" y2="0">
      <stop offset="0" style="stop-color:rgb(0,0,0);stop-opacity:1"/>
    </linearGradient>
    <linearGradient id="rarity-outline" x1="0" y1="1" x2="0" y2="1">
      <stop offset="0" style="stop-color:rgb(0,0,0);stop-opacity:1"/>
    </linearGradient>
  </defs>
  <path fill="url(#rarity-outline)" d="M 23.580078 0 L 23.013672 1.1523438 C 21.457824 4.3205275 19.888645 6.0084213 18.746094 6.9042969 C 18.174818 7.3522347 17.708329 7.6032682 17.398438 7.7402344 C 17.088546 7.8772006 16.986328 7.890625 16.986328 7.890625 L 16.242188 8.03125 L 16.390625 8.7753906 C 16.390625 8.7753906 16.545636 9.648341 16.306641 10.445312 C 16.187141 10.843798 15.988719 11.196984 15.640625 11.464844 C 15.292531 11.732703 14.766206 11.943359 13.875 11.943359 C 12.056903 11.943359 11.57491 11.297774 11.439453 10.720703 C 11.303996 10.143632 11.676143 9.5418742 11.945312 9.4589844 L 13.435547 9 L 12.144531 8.1230469 C 12.144531 8.1230469 7.001505 4.6883973 1.3554688 8.0390625 L 0 8.84375 L 1.4785156 9.3886719 C 1.4785156 9.3886719 6.7526159 11.420334 8.6054688 15.443359 L 8.875 16.029297 L 9.4941406 15.849609 C 9.4941406 15.849609 10.461032 15.597886 11.324219 15.796875 C 11.755812 15.896365 12.131144 16.084049 12.421875 16.453125 C 12.712606 16.822201 12.951172 17.413268 12.951172 18.439453 C 12.951172 19.487816 12.73756 20.133545 12.505859 20.474609 C 12.274159 20.815674 12.054756 20.905327 11.767578 20.919922 C 11.193221 20.949112 10.311469 20.360585 10.048828 19.634766 L 9.5800781 18.341797 L 8.7460938 19.433594 C 8.7460938 19.433594 7.8463495 20.62462 7.4140625 22.550781 C 6.9817755 24.476943 7.0005843 27.205913 8.6835938 30.296875 L 9.3554688 31.53125 L 10.007812 30.287109 C 10.007812 30.287109 12.614762 25.424724 16.345703 23.207031 L 16.816406 22.925781 L 16.693359 22.392578 C 16.693359 22.392578 16.500088 21.466571 16.712891 20.628906 C 16.819293 20.210074 17.007008 19.842842 17.34375 19.568359 C 17.680492 19.293877 18.197858 19.074219 19.099609 19.074219 C 20.920716 19.074219 21.730609 19.884508 21.962891 20.619141 C 22.195172 21.353773 21.957391 22.035353 21.035156 22.308594 L 19.464844 22.775391 L 20.84375 23.660156 C 20.84375 23.660156 25.995926 26.909062 31.402344 23.488281 L 32.736328 22.644531 L 31.238281 22.142578 C 31.238281 22.142578 28.191898 21.105409 25.994141 18.458984 C 25.992441 18.456884 25.990081 18.457178 25.988281 18.455078 L 25.988281 18.453125 C 24.713038 16.915295 24.283203 15.642578 24.283203 15.642578 L 23.75 14.083984 L 22.923828 15.509766 C 22.657652 15.969473 22.396484 15.839844 22.396484 15.839844 L 22.345703 15.832031 L 22.294922 15.832031 C 21.503048 15.832031 20.976185 15.318384 20.5625 14.570312 C 20.148815 13.82224 19.96875 12.833244 19.96875 12.630859 C 19.96875 12.429727 20.134489 11.750879 20.451172 11.261719 C 20.767854 10.772558 21.140351 10.478516 21.599609 10.478516 C 22.610709 10.478516 23.099609 11.730469 23.099609 11.730469 L 23.589844 13.068359 L 24.416016 11.90625 C 28.129309 6.6827391 24.304688 1.0585937 24.304688 1.0585938 L 23.580078 0 z " />
  <path fill="url(#rarity)" d="m 25.410434,18.934338 c 2.354,2.839 5.591,3.92 5.591,3.92 -5.048,3.194 -9.753,0.174 -9.753,0.174 2.555,-0.757 1.972,-4.704 -2.149,-4.704 -4.121,0 -3.138,4.238 -3.138,4.238 -4.004,2.38 -6.6180003,7.376 -6.6180003,7.376 -3.194,-5.866 0,-10.048 0,-10.048 0.7570003,2.092 4.3560003,3.137 4.3560003,-1.449 0,-4.586 -4.4130003,-3.312 -4.4130003,-3.312 -2.032,-4.412 -7.549,-6.4439997 -7.549,-6.4439997 5.286,-3.137 9.9870003,0.057 9.9870003,0.057 -1.51,0.465 -1.9150003,3.9509997 2.15,3.9509997 4.065,0 3.251,-4.0649997 3.251,-4.0649997 0,0 3.367,-0.639 6.562,-7.145 0,0 3.542,5.17 0.117,9.9879997 0,0 -0.639,-1.7419997 -2.206,-1.7419997 -1.567,0 -2.381,2.0329997 -2.381,2.9029997 0,0.871 0.813,3.951 3.077,3.951 0,0 0.81,0.113 1.279,-0.697 0,0 0.483,1.413 1.838,3.047 z"/>
</svg>
