<?xml version="1.0" encoding="UTF-8" standalone="no"?>
<!-- Generated by IcoMoon.io -->

<svg
   version="1.1"
   width="29.264"
   height="28.455"
   viewBox="0 0 29.264 28.455"
   id="svg6"
   sodipodi:docname="bok.svg"
   inkscape:version="1.1.1 (3bf5ae0d25, 2021-09-20)"
   xmlns:inkscape="http://www.inkscape.org/namespaces/inkscape"
   xmlns:sodipodi="http://sodipodi.sourceforge.net/DTD/sodipodi-0.dtd"
   xmlns="http://www.w3.org/2000/svg"
   xmlns:svg="http://www.w3.org/2000/svg">
  <defs
     id="defs10" />
  <sodipodi:namedview
     id="namedview8"
     pagecolor="#ffffff"
     bordercolor="#666666"
     borderopacity="1.0"
     inkscape:pageshadow="2"
     inkscape:pageopacity="0.0"
     inkscape:pagecheckerboard="0"
     showgrid="false"
     inkscape:zoom="25.75"
     inkscape:cx="14.504854"
     inkscape:cy="14.194175"
     inkscape:window-width="1920"
     inkscape:window-height="1009"
     inkscape:window-x="-8"
     inkscape:window-y="-8"
     inkscape:window-maximized="1"
     inkscape:current-layer="svg6" />
  <title
     id="title2">bok</title>
  <path
     fill="#000000"
     d="m 23.673,17.451 c 2.354,2.839 5.591,3.92 5.591,3.92 -5.048,3.194 -9.753,0.174 -9.753,0.174 2.555,-0.757 1.972,-4.704 -2.149,-4.704 -4.121,0 -3.138,4.238 -3.138,4.238 -4.004,2.38 -6.618,7.376 -6.618,7.376 -3.194,-5.866 0,-10.048 0,-10.048 0.757,2.092 4.356,3.137 4.356,-1.449 0,-4.586 -4.413,-3.312 -4.413,-3.312 C 5.517,9.234 0,7.202 0,7.202 5.286,4.065 9.987,7.259 9.987,7.259 c -1.51,0.465 -1.915,3.951 2.15,3.951 4.065,0 3.251,-4.065 3.251,-4.065 0,0 3.367,-0.639 6.562,-7.145 0,0 3.542,5.17 0.117,9.988 0,0 -0.639,-1.742 -2.206,-1.742 -1.567,0 -2.381,2.033 -2.381,2.903 0,0.871 0.813,3.951 3.077,3.951 0,0 0.81,0.113 1.279,-0.697 0,0 0.483,1.413 1.838,3.047 z"
     id="path4" />
</svg>
