<?xml version="1.0" encoding="UTF-8" standalone="no"?>
<!-- Generated by IcoMoon.io -->

<svg
   version="1.1"
   width="31.955999"
   height="17.535"
   viewBox="0 0 31.955999 17.535"
   id="svg6"
   sodipodi:docname="brb.svg"
   inkscape:version="1.1.1 (3bf5ae0d25, 2021-09-20)"
   xmlns:inkscape="http://www.inkscape.org/namespaces/inkscape"
   xmlns:sodipodi="http://sodipodi.sourceforge.net/DTD/sodipodi-0.dtd"
   xmlns="http://www.w3.org/2000/svg"
   xmlns:svg="http://www.w3.org/2000/svg">
  <defs
     id="defs10" />
  <sodipodi:namedview
     id="namedview8"
     pagecolor="#ffffff"
     bordercolor="#666666"
     borderopacity="1.0"
     inkscape:pageshadow="2"
     inkscape:pageopacity="0.0"
     inkscape:pagecheckerboard="0"
     showgrid="false"
     inkscape:zoom="25.75"
     inkscape:cx="15.941748"
     inkscape:cy="8.7572816"
     inkscape:window-width="1920"
     inkscape:window-height="1009"
     inkscape:window-x="-8"
     inkscape:window-y="-8"
     inkscape:window-maximized="1"
     inkscape:current-layer="svg6" />
  <title
     id="title2">brb</title>
  <path
     fill="#000000"
     d="m 25.529,0 c 1.309,0.006 2.451,0.368 3.394,0.853 1.933,0.993 3.033,2.499 3.033,2.499 -2.933,0.141 -3.341,2.009 -3.355,2.567 -0.023,0.951 0.421,1.625 0.421,1.625 l 1.258,0.593 v 1.26 L 29.022,9.99 c 0,0 -0.461,0.714 -0.419,1.642 0.025,0.557 0.419,2.409 3.352,2.55 0,0 -1.019,1.438 -2.861,2.431 -0.97,0.523 -2.168,0.922 -3.566,0.922 -4.051,0 -7.403,-1.956 -9.15,-5.168 0,0 2.69,1.99 6.288,1.99 2.724,0 3.592,-1.489 3.592,-2.432 0,-0.941 -0.869,-2.316 -3.001,-2.316 -2.13,0 -3.386,0.698 -3.386,0.698 0,0 -0.315,-0.734 -2.933,-0.734 H 1.467 L 0.767,9.887 0,8.767 0.767,7.65 l 0.7,0.315 h 15.471 c 2.619,0 2.933,-0.734 2.933,-0.734 0,0 1.256,0.698 3.386,0.698 2.132,0 3.001,-1.186 3.001,-2.129 0,-0.943 -0.869,-2.62 -3.592,-2.62 -3.598,0 -6.288,1.992 -6.288,1.992 1.747,-3.214 5.099,-5.188 9.15,-5.17 z"
     id="path4" />
</svg>
