<?xml version="1.0" encoding="UTF-8" standalone="no"?>
<!-- Generated by IcoMoon.io -->

<svg
   version="1.1"
   width="31.915001"
   height="8.9940004"
   viewBox="0 0 31.915001 8.9940004"
   id="svg6"
   sodipodi:docname="btd.svg"
   inkscape:version="1.1.1 (3bf5ae0d25, 2021-09-20)"
   xmlns:inkscape="http://www.inkscape.org/namespaces/inkscape"
   xmlns:sodipodi="http://sodipodi.sourceforge.net/DTD/sodipodi-0.dtd"
   xmlns="http://www.w3.org/2000/svg"
   xmlns:svg="http://www.w3.org/2000/svg">
  <defs
     id="defs10" />
  <sodipodi:namedview
     id="namedview8"
     pagecolor="#ffffff"
     bordercolor="#666666"
     borderopacity="1.0"
     inkscape:pageshadow="2"
     inkscape:pageopacity="0.0"
     inkscape:pagecheckerboard="0"
     showgrid="false"
     inkscape:zoom="25.75"
     inkscape:cx="15.941748"
     inkscape:cy="4.4854369"
     inkscape:window-width="1920"
     inkscape:window-height="1009"
     inkscape:window-x="-8"
     inkscape:window-y="-8"
     inkscape:window-maximized="1"
     inkscape:current-layer="svg6" />
  <title
     id="title2">btd</title>
  <path
     fill="#000000"
     d="m 31.915,4.379 c 0,-0.805 -0.345,-1.267 -0.345,-1.267 h -6.338 c -0.692,0 -0.805,0.692 -0.805,0.692 H 12.673 c 0,0 0,-1.499 -2.42,-1.499 V 0.232 c 0,0 -1.381,0.692 -1.381,2.188 H 7.144 L 6.337,0 5.3,2.304 H 3.917 V 3.343 L 0,4.495 v 0.007 l 3.917,1.15 V 6.69 H 5.3 l 1.037,2.304 0.807,-2.42 h 1.728 c 0,1.497 1.381,2.188 1.381,2.188 V 6.689 c 2.42,0 2.42,-1.499 2.42,-1.499 h 11.754 c 0,0 0.113,0.692 0.805,0.692 h 6.338 c 0,0 0.345,-0.461 0.345,-1.268 V 4.378 Z"
     id="path4" />
</svg>
