<?xml version="1.0" encoding="UTF-8" standalone="no"?>
<svg
   version="1.1"
   width="34.158203"
   height="11.740235"
   viewBox="0 0 34.158203 11.740235"
   id="svg4"
   xmlns="http://www.w3.org/2000/svg"
   xmlns:svg="http://www.w3.org/2000/svg">
  <defs>
    <!-- This is the gradient that will actually be used on
     the cards. The colors themselves will be provided by the
     template, but the x values, y values, and offsets will be
     used from the SVG. -->
    <linearGradient id="rarity" x1="0" y1="0" x2="1" y2="0">
      <stop offset="0" style="stop-color:rgb(192,55,38);stop-opacity:1" id="stop2" />
      <stop offset="0.125" style="stop-color:rgb(192,55,38);stop-opacity:1" id="stop4" />
      <stop offset="0.5" style="stop-color:rgb(241,142,30);stop-opacity:1" id="stop6" />
      <stop offset="0.875" style="stop-color:rgb(192,55,38);stop-opacity:1" id="stop8" />
      <stop offset="1" style="stop-color:rgb(192,55,38);stop-opacity:1" id="stop10" />
    </linearGradient>
    <!-- These gradients are here so that you can visualize
     what the set symbol would like like in that rarity. The
     only gradient that matters in the end is the "rarity"
     gradient. -->
    <linearGradient id="mythic" x1="0" y1="1" x2="1" y2="0">
      <stop offset="0" style="stop-color:rgb(192,55,38);stop-opacity:1"/>
      <stop offset="0.125" style="stop-color:rgb(192,55,38);stop-opacity:1"/>
      <stop offset="0.5" style="stop-color:rgb(241,142,30);stop-opacity:1"/>
      <stop offset="0.875" style="stop-color:rgb(192,55,38);stop-opacity:1"/>
      <stop offset="1" style="stop-color:rgb(192,55,38);stop-opacity:1"/>
    </linearGradient>
    <linearGradient id="rare" x1="0" y1="1" x2="1" y2="0">
      <stop offset="0" style="stop-color:rgb(146,116,67);stop-opacity:1"/>
      <stop offset="0.125" style="stop-color:rgb(146,116,67);stop-opacity:1"/>
      <stop offset="0.5" style="stop-color:rgb(211,178,108);stop-opacity:1"/>
      <stop offset="0.875" style="stop-color:rgb(146,116,67);stop-opacity:1"/>
      <stop offset="1" style="stop-color:rgb(146,116,67);stop-opacity:1"/>
    </linearGradient>
    <linearGradient id="special" x1="0" y1="1" x2="1" y2="0">
      <stop offset="0" style="stop-color:rgb(76, 56, 106);stop-opacity:1"/>
      <stop offset="0.125" style="stop-color:rgb(76, 56, 106);stop-opacity:1"/>
      <stop offset="0.5" style="stop-color:rgb(201, 173, 221);stop-opacity:1"/>
      <stop offset="0.875" style="stop-color:rgb(76, 56, 106);stop-opacity:1"/>
      <stop offset="1" style="stop-color:rgb(76, 56, 106);stop-opacity:1"/>
    </linearGradient>
    <linearGradient id="uncommon" x1="0" y1="1" x2="1" y2="0">
      <stop offset="0" style="stop-color:rgb(98,110,119);stop-opacity:1"/>
      <stop offset="0.125" style="stop-color:rgb(98,110,119);stop-opacity:1"/>
      <stop offset="0.5" style="stop-color:rgb(196,222,238);stop-opacity:1"/>
      <stop offset="0.875" style="stop-color:rgb(98,110,119);stop-opacity:1"/>
      <stop offset="1" style="stop-color:rgb(98,110,119);stop-opacity:1"/>
    </linearGradient>
    <linearGradient id="common" x1="0" y1="1" x2="1" y2="0">
      <stop offset="0" style="stop-color:rgb(0,0,0);stop-opacity:1"/>
    </linearGradient>
    <linearGradient
            id="rarity-outline" x1="0" y1="1" x2="0" y2="1">
      <stop offset="0" style="stop-color:rgb(0,0,0);stop-opacity:1"/>
    </linearGradient>
  </defs>
  <path fill="url(#rarity-outline)" d="M 8.1503906,0 6.7207031,3.1777344 H 5.1621094 V 4.3417969 L 0,5.859375 1.5976562,6.3457031 C 2.7759145,6.7045112 3.9753706,7.0509894 5.1621094,7.3984375 V 8.5625 h 1.5585937 l 1.4296875,3.177735 1.0976562,-3.2929694 h 0.9785162 c 0.282192,1.427808 1.546875,2.1347654 1.546875,2.1347654 l 0.724609,0.361328 V 8.4746094 c 0.971336,-0.1071868 1.66454,-0.4248145 2.00586,-0.8476563 0.214565,-0.2658127 0.169082,-0.3573323 0.21875,-0.5644531 h 11.125 c 0.02757,0.058431 0.01006,0.061661 0.05078,0.1230469 0.178728,0.2694544 0.565459,0.5703125 1.078125,0.5703125 h 6.58789 l 0.150391,-0.2011719 c 0,0 0.443359,-0.6188572 0.443359,-1.5683594 V 5.7519531 C 34.158203,4.804097 33.714844,4.1855469 33.714844,4.1855469 L 33.564453,3.984375 h -6.58789 c -0.512666,0 -0.899397,0.3008582 -1.078125,0.5703125 -0.04072,0.061386 -0.02321,0.064616 -0.05078,0.1230469 h -11.125 C 14.672989,4.4706136 14.718472,4.3790941 14.503907,4.1132813 14.162587,3.6904395 13.469383,3.3728118 12.498047,3.265625 V 0.7949219 l -0.724609,0.3632812 c 0,0 -1.264727,0.7074108 -1.546875,2.1347657 H 9.2480468 Z"/>
  <path fill="url(#rarity)" d="m 33.659141,5.7520469 c 0,-0.805 -0.345,-1.267 -0.345,-1.267 h -6.338 c -0.692,0 -0.805,0.692 -0.805,0.692 h -11.754 c 0,0 0,-1.499 -2.42,-1.499 v -2.073 c 0,0 -1.381,0.692 -1.381,2.188 H 8.8881406 l -0.807,-2.42 -1.037,2.304 h -1.383 v 1.039 l -3.917,1.152 v 0.007 l 3.917,1.15 v 1.038 h 1.383 l 1.037,2.3040001 0.807,-2.4200001 h 1.7280004 c 0,1.497 1.381,2.1880001 1.381,2.1880001 V 8.0620469 c 2.42,0 2.42,-1.499 2.42,-1.499 h 11.754 c 0,0 0.113,0.692 0.805,0.692 h 6.338 c 0,0 0.345,-0.461 0.345,-1.268 v -0.236 z"/>
</svg>
