<?xml version="1.0" encoding="UTF-8" standalone="no"?>
<!-- Generated by IcoMoon.io -->

<svg
   version="1.1"
   width="24.055"
   height="28.552999"
   viewBox="0 0 24.055 28.552999"
   id="svg6"
   sodipodi:docname="c13.svg"
   inkscape:version="1.1.1 (3bf5ae0d25, 2021-09-20)"
   xmlns:inkscape="http://www.inkscape.org/namespaces/inkscape"
   xmlns:sodipodi="http://sodipodi.sourceforge.net/DTD/sodipodi-0.dtd"
   xmlns="http://www.w3.org/2000/svg"
   xmlns:svg="http://www.w3.org/2000/svg">
  <defs
     id="defs10" />
  <sodipodi:namedview
     id="namedview8"
     pagecolor="#ffffff"
     bordercolor="#666666"
     borderopacity="1.0"
     inkscape:pageshadow="2"
     inkscape:pageopacity="0.0"
     inkscape:pagecheckerboard="0"
     showgrid="false"
     inkscape:zoom="25.75"
     inkscape:cx="12.446602"
     inkscape:cy="14.271845"
     inkscape:window-width="1920"
     inkscape:window-height="1009"
     inkscape:window-x="-8"
     inkscape:window-y="-8"
     inkscape:window-maximized="1"
     inkscape:current-layer="svg6" />
  <title
     id="title2">c13</title>
  <path
     fill="#000000"
     d="M 12.091,0 12.056,0.024 8.306,2.546 V 25.25 l 0.007,0.007 3.778,3.296 0.037,-0.032 3.748,-3.271 V 2.546 L 15.866,2.54 Z M 6.634,3.554 6.597,3.59 0,9.89 0.001,9.901 c 0.712,4.273 2.518,6.598 3.612,8.228 0.547,0.815 0.915,1.455 0.886,2.076 -0.029,0.621 -0.454,1.23 -1.508,1.987 l -0.017,0.012 0.011,0.017 c 1.164,1.921 2.466,2.554 3.622,2.753 l 0.026,0.004 V 3.555 Z m 10.788,0 v 21.423 l 0.026,-0.004 c 1.156,-0.199 2.457,-0.831 3.622,-2.753 l 0.011,-0.017 -0.017,-0.012 c -1.054,-0.757 -1.478,-1.367 -1.508,-1.987 -0.03,-0.62 0.338,-1.261 0.886,-2.076 1.095,-1.63 2.9,-3.955 3.612,-8.228 L 24.055,9.889 24.047,9.881 17.421,3.553 Z"
     id="path4" />
</svg>
