<?xml version="1.0" encoding="UTF-8" standalone="no"?>
<!-- Generated by IcoMoon.io -->

<svg
   version="1.1"
   width="30.885"
   height="22.652065"
   viewBox="0 0 30.885 22.652065"
   id="svg8"
   sodipodi:docname="c15.svg"
   inkscape:version="1.1.1 (3bf5ae0d25, 2021-09-20)"
   xmlns:inkscape="http://www.inkscape.org/namespaces/inkscape"
   xmlns:sodipodi="http://sodipodi.sourceforge.net/DTD/sodipodi-0.dtd"
   xmlns="http://www.w3.org/2000/svg"
   xmlns:svg="http://www.w3.org/2000/svg">
  <defs
     id="defs12" />
  <sodipodi:namedview
     id="namedview10"
     pagecolor="#ffffff"
     bordercolor="#666666"
     borderopacity="1.0"
     inkscape:pageshadow="2"
     inkscape:pageopacity="0.0"
     inkscape:pagecheckerboard="0"
     showgrid="false"
     inkscape:zoom="25.75"
     inkscape:cx="15.475728"
     inkscape:cy="11.320388"
     inkscape:window-width="1920"
     inkscape:window-height="1009"
     inkscape:window-x="-8"
     inkscape:window-y="-8"
     inkscape:window-maximized="1"
     inkscape:current-layer="svg8" />
  <title
     id="title2">c15</title>
  <path
     fill="#000000"
     d="m 0,0.00606436 c 3.007,0.003 6.015,-0.022 9.02,0.012 0.84,0.419 1.612,0.978 2.346,1.56400004 -0.366,1.293 -0.267,2.764 0.502,3.898 0.545,0.859 1.488,1.414 2.483,1.572 0.002,5.1789996 0,10.3599996 0.002,15.5389996 -3.405,-1.867 -6.722,-3.948 -9.644,-6.52 -1.002,-0.89 -1.978,-1.96 -2.215,-3.326 -0.284,-1.624 0.397,-3.1999996 0.448,-4.8139996 0.022,-1.253 -0.003,-2.548 -0.51,-3.717 -0.476,-1.265 -1.462,-2.226 -2.19,-3.34000004 -0.188,-0.252 -0.234,-0.562 -0.241,-0.869 z"
     id="path4" />
  <path
     fill="#000000"
     d="m 19.515,1.5730644 c 0.745,-0.572 1.517,-1.13400004 2.357,-1.55500004 3.003,-0.034 6.008,-0.009 9.013,-0.012 -0.022,0.257 -0.016,0.531 -0.174,0.75 -0.674,1.10200004 -1.641,2.01700004 -2.155,3.22100004 -0.609,1.253 -0.65,2.679 -0.61,4.046 0.078,1.574 0.709,3.1119996 0.452,4.6979996 -0.238,1.379 -1.222,2.457 -2.231,3.355 -2.945,2.602 -6.303,4.683 -9.734,6.576 -0.002,-5.198 -0.002,-10.396 -0.002,-15.5939996 1.117,-0.136 2.169,-0.793 2.714,-1.786 0.655,-1.107 0.71,-2.479 0.371,-3.698 z"
     id="path6" />
</svg>
