<?xml version="1.0" encoding="UTF-8" standalone="no"?>
<svg
   version="1.1"
   width="33.129086"
   height="25.424459"
   viewBox="0 0 33.129085 25.424459"
   id="svg6"
   xmlns="http://www.w3.org/2000/svg"
   xmlns:svg="http://www.w3.org/2000/svg">
  <defs>
    <!-- This is the gradient that will actually be used on
     the cards. The colors themselves will be provided by the
     template, but the x values, y values, and offsets will be
     used from the SVG. -->
    <linearGradient id="rarity" x1="0" y1="0" x2="1" y2="1">
      <stop offset="0" style="stop-color:rgb(192,55,38);stop-opacity:1" id="stop2" />
      <stop offset="0.125" style="stop-color:rgb(192,55,38);stop-opacity:1" id="stop4" />
      <stop offset="0.5" style="stop-color:rgb(241,142,30);stop-opacity:1" id="stop6" />
      <stop offset="0.875" style="stop-color:rgb(192,55,38);stop-opacity:1" id="stop8" />
      <stop offset="1" style="stop-color:rgb(192,55,38);stop-opacity:1" id="stop10" />
    </linearGradient>
    <!-- These gradients are here so that you can visualize
     what the set symbol would like like in that rarity. The
     only gradient that matters in the end is the "rarity"
     gradient. -->
    <linearGradient id="mythic" x1="0" y1="1" x2="1" y2="0">
      <stop offset="0" style="stop-color:rgb(192,55,38);stop-opacity:1"/>
      <stop offset="0.125" style="stop-color:rgb(192,55,38);stop-opacity:1"/>
      <stop offset="0.5" style="stop-color:rgb(241,142,30);stop-opacity:1"/>
      <stop offset="0.875" style="stop-color:rgb(192,55,38);stop-opacity:1"/>
      <stop offset="1" style="stop-color:rgb(192,55,38);stop-opacity:1"/>
    </linearGradient>
    <linearGradient id="rare" x1="0" y1="1" x2="1" y2="0">
      <stop offset="0" style="stop-color:rgb(146,116,67);stop-opacity:1"/>
      <stop offset="0.125" style="stop-color:rgb(146,116,67);stop-opacity:1"/>
      <stop offset="0.5" style="stop-color:rgb(211,178,108);stop-opacity:1"/>
      <stop offset="0.875" style="stop-color:rgb(146,116,67);stop-opacity:1"/>
      <stop offset="1" style="stop-color:rgb(146,116,67);stop-opacity:1"/>
    </linearGradient>
    <linearGradient id="special" x1="0" y1="1" x2="1" y2="0">
      <stop offset="0" style="stop-color:rgb(76, 56, 106);stop-opacity:1"/>
      <stop offset="0.125" style="stop-color:rgb(76, 56, 106);stop-opacity:1"/>
      <stop offset="0.5" style="stop-color:rgb(201, 173, 221);stop-opacity:1"/>
      <stop offset="0.875" style="stop-color:rgb(76, 56, 106);stop-opacity:1"/>
      <stop offset="1" style="stop-color:rgb(76, 56, 106);stop-opacity:1"/>
    </linearGradient>
    <linearGradient id="uncommon" x1="0" y1="1" x2="1" y2="0">
      <stop offset="0" style="stop-color:rgb(98,110,119);stop-opacity:1"/>
      <stop offset="0.125" style="stop-color:rgb(98,110,119);stop-opacity:1"/>
      <stop offset="0.5" style="stop-color:rgb(196,222,238);stop-opacity:1"/>
      <stop offset="0.875" style="stop-color:rgb(98,110,119);stop-opacity:1"/>
      <stop offset="1" style="stop-color:rgb(98,110,119);stop-opacity:1"/>
    </linearGradient>
    <linearGradient id="common" x1="0" y1="1" x2="1" y2="0">
      <stop offset="0" style="stop-color:rgb(0,0,0);stop-opacity:1"/>
    </linearGradient>
    <linearGradient
            id="rarity-outline" x1="0" y1="1" x2="0" y2="1">
      <stop offset="0" style="stop-color:rgb(0,0,0);stop-opacity:1"/>
    </linearGradient>
  </defs>
  <path fill="url(#rarity-outline)" d="M 5.5957031,5.8621351e-4 C 4.0909217,0.00221621 2.5892873,0.00793621 1.0898437,0.00644621 L 0,0.00449621 0.025391,1.0923868 c 0.00901,0.394983 0.0621775,0.9590507 0.4511719,1.4804687 L 0.4394535,2.5201215 c 0.8151472,1.2473509 1.7157586,2.1542262 2.083984,3.1328084 l 0.00977,0.023437 0.00977,0.023437 c 0.3971063,0.9156158 0.4410722,2.0448471 0.4199219,3.2675782 -0.044076,1.3367989 -0.782885,3.0037449 -0.4296875,5.0234369 0.3055228,1.756901 1.49493,2.994464 2.5566406,3.9375 l 0.00195,0.002 h 0.00195 c 3.0078808,2.647594 6.3920425,4.768994 9.8339845,6.65625 l 1.529297,0.837891 c 0,0 1.176116,-0.558701 1.576171,-0.779301 3.462626,-1.910449 6.889139,-4.027741 9.923828,-6.708984 l 0.002,-0.002 0.002,-0.002 c 1.068458,-0.950917 2.264672,-2.195882 2.570312,-3.966797 l 0.002,-0.0059 v -0.0059 c 0.317365,-1.958534 -0.370183,-3.583713 -0.439454,-4.9062498 -0.03822,-1.3204548 0.02604,-2.5598268 0.503907,-3.5429688 l 0.01172,-0.023437 0.0098,-0.023437 c 0.392851,-0.9202185 1.277002,-1.7965091 2.039063,-3.0175781 0.411711,-0.5706627 0.356007,-1.1050182 0.371093,-1.28125 l 0.09961,-1.15429679 -1.160157,0.00195 c -1.499134,0.0015 -2.99972,-0.00423 -4.503906,-0.005859996 -1.504053,-0.001630004 -3.01105,4.991e-4 -4.519531,0.0175779965 l -0.246094,0.00195 -0.21875,0.11132807 C 21.534883,0.60531405 20.714425,1.2105366 19.955256,1.793416 l -0.482422,0.3691406 0.07422,0.6015625 c 0.156463,1.2802311 0.105154,2.4370299 -0.240234,3.046875 l -0.0039,0.00586 -0.0039,0.00586 C 18.935932,6.4842667 18.177008,6.9708944 17.388863,7.0668547 L 16.45527,7.180136 V 7.20162 L 15.603516,7.0669924 C 14.886471,6.95313 14.208116,6.540257 13.84961,5.9751956 l -0.0078,-0.013672 -0.0098,-0.013672 C 13.278921,5.1321632 13.177862,3.9756281 13.472656,2.9341799 L 13.666016,2.2544924 13.113281,1.8150393 C 12.353191,1.2082096 11.525531,0.60109301 10.580078,0.12949246 l -0.21875,-0.10937495 -0.24414,-0.0019532 C 8.6077182,0.00108551 7.1010042,-0.00104069 5.5957031,5.8621351e-4 Z"/>
  <path fill="url(#rarity)" d="m 5.5976563,1.0630862 c -1.5028492,0.00162 -3.0069163,0.00735 -4.5097657,0.00586 0.007,0.307 0.052234,0.6171406 0.2402344,0.8691406 0.728,1.114 1.7134531,2.0748438 2.1894531,3.3398438 0.507,1.1689999 0.5317656,2.4637968 0.5097656,3.7167968 -0.051,1.6140002 -0.7312656,3.1885002 -0.4472656,4.8125002 0.237,1.366 1.2128438,2.436171 2.2148438,3.326171 2.922,2.572 6.2395321,4.654485 9.6445321,6.521485 -0.002,-5.179 4.7e-5,-10.360063 -0.002,-15.5390624 -0.995,-0.158 -1.939375,-0.7132657 -2.484374,-1.5722656 -0.768954,-1.1340001 -0.867908,-2.6054375 -0.501909,-3.8984376 -0.734,-0.586 -1.505702,-1.1454531 -2.345702,-1.5644531 -1.5025003,-0.017 -3.0043128,-0.019203 -4.5078127,-0.017578 z m 21.8652337,0 c -1.50225,-0.00162 -3.004359,5.781e-4 -4.505859,0.017578 -0.84,0.421 -1.610469,0.9826875 -2.355469,1.5546875 v 0.00195 c 0.339,1.2189999 0.283907,2.5902656 -0.371094,3.6972656 -0.545,0.993 -1.59589,1.6511093 -2.71289,1.7871094 0,5.1979992 -4.7e-5,10.3957502 0.002,15.5937502 3.431,-1.893 6.789375,-3.974172 9.734375,-6.576172 1.009,-0.898 1.992469,-1.976469 2.230469,-3.355469 0.256999,-1.586 -0.375126,-3.123265 -0.453126,-4.6972655 -0.04,-1.367 0.0023,-2.793875 0.611329,-4.046875 0.514,-1.204 1.480297,-2.1187031 2.154297,-3.2207031 0.158,-0.219 0.151828,-0.493 0.173828,-0.75 -1.502546,0.0015 -3.00561,-0.00423 -4.50786,-0.00586 z"/>
</svg>
