<?xml version="1.0" encoding="UTF-8" standalone="no"?>
<svg
   version="1.1"
   width="24.893898"
   height="39.133465"
   viewBox="0 0 24.893898 39.133464"
   id="svg4"
   xmlns="http://www.w3.org/2000/svg"
   xmlns:svg="http://www.w3.org/2000/svg">
  <defs>
    <!-- This is the gradient that will actually be used on
     the cards. The colors themselves will be provided by the
     template, but the x values, y values, and offsets will be
     used from the SVG. -->
    <linearGradient id="rarity" x1="0" y1="0" x2="1" y2="1">
      <stop offset="0" style="stop-color:rgb(192,55,38);stop-opacity:1" id="stop2" />
      <stop offset="0.125" style="stop-color:rgb(192,55,38);stop-opacity:1" id="stop4" />
      <stop offset="0.5" style="stop-color:rgb(241,142,30);stop-opacity:1" id="stop6" />
      <stop offset="0.875" style="stop-color:rgb(192,55,38);stop-opacity:1" id="stop8" />
      <stop offset="1" style="stop-color:rgb(192,55,38);stop-opacity:1" id="stop10" />
    </linearGradient>
    <!-- These gradients are here so that you can visualize
     what the set symbol would like like in that rarity. The
     only gradient that matters in the end is the "rarity"
     gradient. -->
    <linearGradient id="mythic" x1="0" y1="1" x2="1" y2="0">
      <stop offset="0" style="stop-color:rgb(192,55,38);stop-opacity:1"/>
      <stop offset="0.125" style="stop-color:rgb(192,55,38);stop-opacity:1"/>
      <stop offset="0.5" style="stop-color:rgb(241,142,30);stop-opacity:1"/>
      <stop offset="0.875" style="stop-color:rgb(192,55,38);stop-opacity:1"/>
      <stop offset="1" style="stop-color:rgb(192,55,38);stop-opacity:1"/>
    </linearGradient>
    <linearGradient id="rare" x1="0" y1="1" x2="1" y2="0">
      <stop offset="0" style="stop-color:rgb(146,116,67);stop-opacity:1"/>
      <stop offset="0.125" style="stop-color:rgb(146,116,67);stop-opacity:1"/>
      <stop offset="0.5" style="stop-color:rgb(211,178,108);stop-opacity:1"/>
      <stop offset="0.875" style="stop-color:rgb(146,116,67);stop-opacity:1"/>
      <stop offset="1" style="stop-color:rgb(146,116,67);stop-opacity:1"/>
    </linearGradient>
    <linearGradient id="special" x1="0" y1="1" x2="1" y2="0">
      <stop offset="0" style="stop-color:rgb(76, 56, 106);stop-opacity:1"/>
      <stop offset="0.125" style="stop-color:rgb(76, 56, 106);stop-opacity:1"/>
      <stop offset="0.5" style="stop-color:rgb(201, 173, 221);stop-opacity:1"/>
      <stop offset="0.875" style="stop-color:rgb(76, 56, 106);stop-opacity:1"/>
      <stop offset="1" style="stop-color:rgb(76, 56, 106);stop-opacity:1"/>
    </linearGradient>
    <linearGradient id="uncommon" x1="0" y1="1" x2="1" y2="0">
      <stop offset="0" style="stop-color:rgb(98,110,119);stop-opacity:1"/>
      <stop offset="0.125" style="stop-color:rgb(98,110,119);stop-opacity:1"/>
      <stop offset="0.5" style="stop-color:rgb(196,222,238);stop-opacity:1"/>
      <stop offset="0.875" style="stop-color:rgb(98,110,119);stop-opacity:1"/>
      <stop offset="1" style="stop-color:rgb(98,110,119);stop-opacity:1"/>
    </linearGradient>
    <linearGradient id="common" x1="0" y1="1" x2="1" y2="0">
      <stop offset="0" style="stop-color:rgb(0,0,0);stop-opacity:1"/>
    </linearGradient>
    <linearGradient
            id="rarity-outline" x1="0" y1="1" x2="0" y2="1">
      <stop offset="0" style="stop-color:rgb(0,0,0);stop-opacity:1"/>
    </linearGradient>
  </defs>
  <path fill="url(#rarity-outline)" d="M 12.496094 0 C 11.669989 1.7795279 11.053884 2.9939804 8.3359375 3.4492188 C 10.300185 4.2012493 10.825093 4.6252912 11.121094 5.7539062 L 11.115234 5.7539062 L 10.941406 5.8320312 C 9.5667208 6.450385 8.3196679 7.1153478 7.0429688 7.4042969 L 6.953125 7.4296875 C 5.1097094 7.9612687 3.0058934 7.7946943 0.78125 8.1269531 L 0 8.2441406 L 0.037109375 9.0332031 C 0.22941203 13.144771 -0.3110453 17.448257 0.41796875 21.789062 L 0.41992188 21.804688 L 0.42382812 21.818359 C 1.6889422 28.028142 6.6117434 32.248328 11.027344 35.863281 L 11.060547 35.888672 L 11.09375 35.912109 L 12.148438 36.621094 L 12.681641 39.132812 L 13.134766 36.478516 L 13.904297 35.880859 L 13.919922 35.869141 C 18.881373 31.670701 23.992433 27.097542 24.845703 19.318359 L 24.849609 19.275391 L 24.849609 19.234375 C 24.891839 15.805078 24.827179 12.39159 24.880859 9.0019531 L 24.894531 8.1777344 L 24.072266 8.1152344 C 22.879635 8.0235722 21.646953 7.8571644 20.349609 7.8242188 C 18.132456 7.5944388 15.103493 6.405438 14.015625 5.859375 L 13.90625 5.8046875 C 14.341522 4.5759702 14.722121 4.0941035 16.65625 3.4492188 C 13.876862 2.8977447 13.324583 1.775953 12.496094 0 z " />
  <path fill="url(#rarity)" d="m 7.1959716,8.2719162 c 1.449,-0.32 2.759,-1.037 4.1039994,-1.642 0.262,1.198 0.736,2.8669998 -0.438999,3.7189998 -2.0350004,1.553 -4.7210004,1.437 -7.1450004,1.426 0.127,3.765 -0.763,7.711 0.728,11.307 1.399,3.457 4.332,5.9 7.0719994,8.285 l 0.323438,3.806741 C 7.4384095,31.901649 2.4719716,27.489916 1.2809716,21.643916 c -0.70099996,-4.174 -0.173,-8.44 -0.36999996,-12.6519998 2.08899996,-0.312 4.23899996,-0.131 6.28499996,-0.721 z m 6.4279994,-1.63 c -0.208,1.195 -0.713,2.8129998 0.439,3.6799998 2.031,1.588 4.752,1.464 7.187,1.441 -0.139,3.569 0.644,7.26 -0.52,10.721 -1.295,3.742 -4.226634,6.417259 -7.154634,8.891259 l -0.221366,3.825741 c 1.811,-1.534 3.649,-3.037 5.295,-4.752 2.952,-2.998 5.175,-6.944 5.326,-11.226 0.042,-3.411 -0.023,-6.825 0.031,-10.2349998 -1.249,-0.096 -2.489,-0.266 -3.746,-0.293 -2.351,-0.1 -4.555,-1.017 -6.636,-2.054 z M 5.0419716,13.092916 c 0.139,3.518 -0.582,7.291 1.067,10.567 1.229,2.305 3.002,4.432 5.3139994,5.707 l -1.198999,-16.104 c -1.7300004,0.173 -3.4720004,0.143 -5.1830004,-0.17 z m 9.6759994,0.173 -0.986,16.135 c 2.2,-1.63 4.204,-3.669 5.322,-6.204 1.368,-3.191 0.671,-6.732 0.832,-10.093 -1.707,0.293 -3.445,0.331 -5.168,0.162 z"/>
</svg>
