<?xml version="1.0" encoding="UTF-8" standalone="no"?>
<!-- Generated by IcoMoon.io -->

<svg
   version="1.1"
   width="25.949297"
   height="30.056"
   viewBox="0 0 25.949297 30.056"
   id="svg6"
   sodipodi:docname="c18.svg"
   inkscape:version="1.1.1 (3bf5ae0d25, 2021-09-20)"
   xmlns:inkscape="http://www.inkscape.org/namespaces/inkscape"
   xmlns:sodipodi="http://sodipodi.sourceforge.net/DTD/sodipodi-0.dtd"
   xmlns="http://www.w3.org/2000/svg"
   xmlns:svg="http://www.w3.org/2000/svg">
  <defs
     id="defs10" />
  <sodipodi:namedview
     id="namedview8"
     pagecolor="#ffffff"
     bordercolor="#666666"
     borderopacity="1.0"
     inkscape:pageshadow="2"
     inkscape:pageopacity="0.0"
     inkscape:pagecheckerboard="0"
     showgrid="false"
     inkscape:zoom="25.75"
     inkscape:cx="12.951456"
     inkscape:cy="14.932039"
     inkscape:window-width="1920"
     inkscape:window-height="1009"
     inkscape:window-x="-8"
     inkscape:window-y="-8"
     inkscape:window-maximized="1"
     inkscape:current-layer="svg6" />
  <title
     id="title2">c18</title>
  <path
     fill="#000000"
     d="m 24.065298,10.09 c -0.344,2.813 0.177,5.617 1.07,8.273 -2.266,5.228 -7.597,8.568 -12.13,11.693 h -0.027 C 9.6002978,27.769 6.1612978,25.497 3.4932978,22.371 l 7.9610002,-6.247 0.317,3.808 12.294,-9.843 z M 25.809298,0 h -9.883 c -0.26,1.74 -0.875,4.132 -2.92,4.712 h -10e-4 -0.026 c -2.113,-0.789 -2.66,-2.972 -2.92,-4.712 H 0.17629777 c -0.443,2.44 -0.061,5.482 1.25800003,6.536 0.006,0.005 0.007,0.013 0.009,0.02 0.75,3.892 0.87,7.945 -0.56100003,11.71 L 14.131298,7.735 l 0.394,3.783 11.424,-9.008 c -0.017,-1.887 0.056,-1.052 -0.141,-2.51 z"
     id="path4" />
</svg>
