<?xml version="1.0" encoding="UTF-8" standalone="no"?>
<svg
   width="94.389999"
   height="112.07589"
   viewBox="0 0 94.389999 112.07589"
   version="1.1"
   xml:space="preserve"
   style="clip-rule:evenodd;fill-rule:evenodd;stroke-linecap:round"
   id="svg22"
   xmlns="http://www.w3.org/2000/svg"
   xmlns:svg="http://www.w3.org/2000/svg">
  <defs>
    <!-- This is the gradient that will actually be used on
     the cards. The colors themselves will be provided by the
     template, but the x values, y values, and offsets will be
     used from the SVG. -->
      <linearGradient id="rarity" x1="0" y1="0" x2="1" y2="0">
      <stop offset="0" style="stop-color:rgb(192,55,38);stop-opacity:1" id="stop2" />
          <stop offset="0.125" style="stop-color:rgb(192,55,38);stop-opacity:1" id="stop4" />
          <stop offset="0.5" style="stop-color:rgb(241,142,30);stop-opacity:1" id="stop6" />
          <stop offset="0.875" style="stop-color:rgb(192,55,38);stop-opacity:1" id="stop8" />
          <stop offset="1" style="stop-color:rgb(192,55,38);stop-opacity:1" id="stop10" />
    </linearGradient>
      <!-- These gradients are here so that you can visualize
       what the set symbol would like like in that rarity. The
       only gradient that matters in the end is the "rarity"
       gradient. -->
      <linearGradient id="mythic" x1="0" y1="1" x2="1" y2="0">
      <stop offset="0" style="stop-color:rgb(192,55,38);stop-opacity:1"/>
          <stop offset="0.125" style="stop-color:rgb(192,55,38);stop-opacity:1"/>
          <stop offset="0.5" style="stop-color:rgb(241,142,30);stop-opacity:1"/>
          <stop offset="0.875" style="stop-color:rgb(192,55,38);stop-opacity:1"/>
          <stop offset="1" style="stop-color:rgb(192,55,38);stop-opacity:1"/>
    </linearGradient>
      <linearGradient id="rare" x1="0" y1="1" x2="1" y2="0">
      <stop offset="0" style="stop-color:rgb(146,116,67);stop-opacity:1"/>
          <stop offset="0.125" style="stop-color:rgb(146,116,67);stop-opacity:1"/>
          <stop offset="0.5" style="stop-color:rgb(211,178,108);stop-opacity:1"/>
          <stop offset="0.875" style="stop-color:rgb(146,116,67);stop-opacity:1"/>
          <stop offset="1" style="stop-color:rgb(146,116,67);stop-opacity:1"/>
    </linearGradient>
      <linearGradient id="special" x1="0" y1="1" x2="1" y2="0">
      <stop offset="0" style="stop-color:rgb(76, 56, 106);stop-opacity:1"/>
          <stop offset="0.125" style="stop-color:rgb(76, 56, 106);stop-opacity:1"/>
          <stop offset="0.5" style="stop-color:rgb(201, 173, 221);stop-opacity:1"/>
          <stop offset="0.875" style="stop-color:rgb(76, 56, 106);stop-opacity:1"/>
          <stop offset="1" style="stop-color:rgb(76, 56, 106);stop-opacity:1"/>
    </linearGradient>
      <linearGradient id="uncommon" x1="0" y1="1" x2="1" y2="0">
      <stop offset="0" style="stop-color:rgb(98,110,119);stop-opacity:1"/>
          <stop offset="0.125" style="stop-color:rgb(98,110,119);stop-opacity:1"/>
          <stop offset="0.5" style="stop-color:rgb(196,222,238);stop-opacity:1"/>
          <stop offset="0.875" style="stop-color:rgb(98,110,119);stop-opacity:1"/>
          <stop offset="1" style="stop-color:rgb(98,110,119);stop-opacity:1"/>
    </linearGradient>
      <linearGradient id="common" x1="0" y1="1" x2="1" y2="0">
      <stop offset="0" style="stop-color:rgb(0,0,0);stop-opacity:1"/>
    </linearGradient>
      <linearGradient
              id="rarity-outline" x1="0" y1="1" x2="0" y2="1">
      <stop offset="0" style="stop-color:rgb(0,0,0);stop-opacity:1"/>
    </linearGradient>
  </defs>
  <path fill="url(#rarity)" d="m 46.825,109.505 c -15.42,-8.41 -30.22,-19.89 -42.67,-42.83 l 5.01,-5.01 v -36.14 c 0,-6.1 -7.08,-10.99 -7.08,-10.99 V 2.085 h 32.72 l 3.75,3.75 v 2.36 c 0,4.76 3.87,8.63 8.64,8.63 h 0.11 c 4.72,-0.06 8.52,-3.9 8.52,-8.63 v -2.36 l 3.76,-3.75 h 32.72 v 12.45 c 0,0 -7.08,5.49 -7.08,10.99 v 36.14 l 5,5.01 c -12.55,23.12 -27.48,34.6 -43.03,43.03 z"/>
  <path fill="#FFFFFF" d="m 92.305,14.535 c 0,0 -6.97,5.41 -7.08,10.86 v 0.13 16.03 l -43.22,33.29 v -14.38 l -27.16,22.6 -0.33,-0.42 -0.09,-0.11 -0.25,-0.32 -0.11,-0.15 -0.22,-0.29 -0.12,-0.16 -0.21,-0.28 -0.13,-0.17 -0.2,-0.27 -0.14,-0.18 -0.19,-0.27 -0.14,-0.18 -0.2,-0.27 -0.13,-0.19 -0.2,-0.28 -0.13,-0.17 -0.22,-0.31 -0.11,-0.15 -0.27,-0.4 -0.05,-0.07 -0.33,-0.47 -0.09,-0.14 -0.23,-0.33 -0.13,-0.18 -0.2,-0.29 -0.13,-0.2 -0.19,-0.28 -0.14,-0.21 -0.18,-0.28 -0.15,-0.21 -0.18,-0.28 -0.14,-0.21 -0.18,-0.28 -0.14,-0.22 -0.18,-0.28 -0.14,-0.22 -0.19,-0.3 -0.13,-0.2 -0.2,-0.33 -0.12,-0.18 -0.28,-0.44 -0.03,-0.07 -0.32,-0.51 -0.1,-0.17 -0.21,-0.35 -0.13,-0.2 -0.19,-0.32 -0.13,-0.22 -0.18,-0.31 -0.14,-0.23 -0.17,-0.31 -0.14,-0.23 -0.18,-0.3 -0.13,-0.24 -0.18,-0.31 -0.14,-0.24 -0.17,-0.31 -0.14,-0.23 -0.18,-0.34 -0.12,-0.22 -0.21,-0.37 -0.1,-0.18 48.16,-39.9 v 14.22 l 39.68,-29.84 z"/>
  <path fill="#000000" d="M 93.345703,9.6308594 53.664062,39.472656 V 25.123047 l -50.5273432,41.861328 0.5214843,0.939453 0.2070313,0.367188 0.1132812,0.207031 0.1914063,0.361328 0.1445312,0.236328 0.1660156,0.300781 0.1464844,0.251953 0.171875,0.294922 0.1328125,0.248047 0.1933594,0.322266 0.1289062,0.21289 0.1699219,0.308594 0.1464844,0.242188 0.1777344,0.302734 0.1328125,0.224609 0.2011718,0.339844 0.1308594,0.201172 0.1972656,0.330078 0.1054688,0.179688 0.2851562,0.453125 0.03125,0.07422 0.3320313,0.519532 0.1132812,0.169922 0.1972657,0.326171 0.1347656,0.208985 0.1875,0.294922 0.1425781,0.222656 0.1796875,0.28125 0.140625,0.21875 0.1855469,0.289062 0.1386719,0.210938 0.1894531,0.292969 0.1503906,0.210937 0.171875,0.265625 0.1464844,0.220703 0.1855469,0.275391 0.1328125,0.203125 0.2148437,0.310547 0.1308594,0.18164 0.214844,0.308594 0.08984,0.140625 0.345703,0.490235 0.04492,0.0625 0.273437,0.40625 0.117188,0.160156 0.224609,0.318359 0.130859,0.169922 0.185547,0.257813 0.134766,0.197265 0.21875,0.296875 0.132812,0.169922 0.189453,0.269531 0.148438,0.189453 0.197266,0.267579 0.130859,0.171875 0.207031,0.27539 0.123047,0.16211 0.214844,0.287109 0.115234,0.15625 0.267578,0.339844 0.08984,0.111328 0.984375,1.253906 26.277344,-21.867187 V 76.958984 L 86.265625,42.066406 V 25.525391 25.416016 c 0.0462,-2.288859 1.645209,-4.865625 3.328125,-6.814454 1.682916,-1.948828 3.349609,-3.24414 3.349609,-3.24414 l 0.402344,-0.3125 v -0.509766 z m -2.080078,4.1679686 v 0.302735 c -0.337132,0.268847 -1.618143,1.255446 -3.246094,3.140624 -1.82958,2.118668 -3.770181,4.969723 -3.833984,8.13086 v 0.01172 0.140625 15.517578 L 43.044922,72.732422 V 58.246094 L 15,81.582031 14.898438,81.443359 14.675781,81.148437 14.556641,80.990234 14.34375,80.707031 14.216797,80.539062 14.013672,80.265625 13.880859,80.095703 13.691406,79.826172 13.542969,79.636719 13.363281,79.392578 13.238281,79.208984 13.021484,78.90625 12.892578,78.738281 12.677734,78.435547 12.576172,78.296875 12.308594,77.902344 12.253906,77.824219 11.9375,77.375 11.849609,77.236328 11.603516,76.882812 11.474609,76.705078 11.289063,76.435547 11.162109,76.240234 10.96875,75.955078 10.835938,75.755859 10.646484,75.460937 10.496094,75.251953 10.324219,74.984375 10.185547,74.775391 10.011719,74.503906 9.8710938,74.285156 9.6914063,74.003906 9.5527344,73.787109 9.359375,73.482422 9.2363281,73.291016 9.0332031,72.957031 8.90625,72.767578 8.6777344,72.408203 8.6484375,72.341797 8.2929688,71.775391 8.1992188,71.613281 7.9765625,71.244141 7.8476562,71.046875 7.6699219,70.744141 7.5429687,70.529297 7.359375,70.212891 7.2246094,69.994141 7.0546875,69.683594 6.9042969,69.4375 6.7382812,69.160156 6.6113281,68.925781 6.4238281,68.601562 6.2910156,68.373047 6.1152344,68.054687 5.9804687,67.830078 5.8105469,67.511719 5.7949219,67.482422 51.585937,29.546875 v 14.091797 z"/>
  <path fill="url(#rarity-outline)" d="M 0,0 V 15.628906 L 0.90039063,16.25 c 0,0 1.57448637,1.093818 3.16796877,2.880859 1.5934823,1.787041 3.0117187,4.15119 3.0117187,6.394532 v 35.27539 l -5.5,5.5 0.7421875,1.369141 C 14.963582,90.962436 30.198309,102.81257 45.826172,111.33594 l 0.0039,0.002 0.0039,0.002 1.363282,0.73633 0.992187,-0.53906 C 63.945091,102.99563 79.313948,91.144906 92.056641,67.669922 l 0.742187,-1.367188 -5.488281,-5.5 V 25.525391 c 0,-1.855344 1.414595,-4.313142 3.035156,-6.199219 1.620561,-1.886077 3.236328,-3.142578 3.236328,-3.142578 l 0.808594,-0.626953 V 0 H 58.722656 l -4.982422,4.9707031 v 3.2246094 c 0,3.6132945 -2.857292,6.4991125 -6.460937,6.5449215 h -0.08398 c -3.64226,0 -6.554687,-2.91503 -6.554687,-6.5449215 V 4.9707031 L 35.667969,0 Z M 4.1699219,4.1699219 H 33.941406 l 2.529297,2.5292968 v 1.4960938 c 0,5.8900995 4.82688,10.7148435 10.724609,10.7148435 h 0.123047 0.01367 C 53.168377,18.835965 57.910156,14.042009 57.910156,8.1953125 V 6.7011719 l 2.53711,-2.53125 h 29.773437 v 9.4980471 c -0.571048,0.467512 -1.520488,1.176299 -3.037109,2.941406 -1.919435,2.233919 -4.042969,5.271365 -4.042969,8.916016 v 37.001953 l 4.46875,4.478515 C 75.689638,88.351459 61.836691,99.191067 47.175781,107.27734 32.524152,99.193387 18.681912,88.338256 6.7714844,67.005859 L 11.25,62.529297 V 25.525391 C 11.25,21.668739 9.1281547,18.538424 7.1816406,16.355469 5.683329,14.675159 4.785459,14.092891 4.1699219,13.634766 Z"/>
</svg>
