<?xml version="1.0" encoding="UTF-8" standalone="no"?>
<!-- Generated by IcoMoon.io -->

<svg
   version="1.1"
   width="28.249001"
   height="31.975868"
   viewBox="0 0 28.249001 31.975868"
   id="svg6"
   sodipodi:docname="c19.svg"
   inkscape:version="1.1.1 (3bf5ae0d25, 2021-09-20)"
   xmlns:inkscape="http://www.inkscape.org/namespaces/inkscape"
   xmlns:sodipodi="http://sodipodi.sourceforge.net/DTD/sodipodi-0.dtd"
   xmlns="http://www.w3.org/2000/svg"
   xmlns:svg="http://www.w3.org/2000/svg">
  <defs
     id="defs10" />
  <sodipodi:namedview
     id="namedview8"
     pagecolor="#ffffff"
     bordercolor="#666666"
     borderopacity="1.0"
     inkscape:pageshadow="2"
     inkscape:pageopacity="0.0"
     inkscape:pagecheckerboard="0"
     showgrid="false"
     inkscape:zoom="25.75"
     inkscape:cx="18.699029"
     inkscape:cy="12.718447"
     inkscape:window-width="1920"
     inkscape:window-height="1009"
     inkscape:window-x="-8"
     inkscape:window-y="-8"
     inkscape:window-maximized="1"
     inkscape:current-layer="svg6" />
  <title
     id="title2">c19</title>
  <path
     fill="#000000"
     d="m 5.159,0.31886819 c 1.133,-0.228 2.291,-0.371 3.447,-0.301 -0.409,0.759 -0.669,1.63800001 -0.532,2.50400001 0.1,0.714 0.414,1.394 0.867,1.952 1.016,0.998 2.436,1.467 3.825,1.632 1.573,0.152 3.204,0.087 4.701,-0.465 0.904,-0.336 1.802,-0.88 2.246,-1.772 0.697,-1.175 0.623,-2.694 -0.08,-3.84700001 1.693,-0.099 3.381,0.225 5.002,0.684 1.239,0.36100001 2.449,0.82400001 3.614,1.37900001 -0.804,1.708 -1.44,3.492 -1.954,5.307 -0.74,2.6599998 -1.186,5.4149998 -1.149,8.1809998 0.009,0.501 0.102,1.036 -0.101,1.511 -0.182,0.325 -0.607,0.135 -0.826,-0.046 -1.521,-1.186 -2.863,-2.581 -4.241,-3.927 -0.611,-0.563 -1.164,-1.185 -1.756,-1.767 -0.088,-0.09 -0.191,-0.158 -0.31,-0.201 -0.032,0.196 0.124,0.338 0.222,0.487 2.837,3.812 5.68,7.62 8.604,11.367 -1.267,1.355 -2.668,2.579 -4.101,3.755 -2.605,2.088 -5.423,3.961 -8.526,5.224 -3.397,-1.41 -6.47,-3.503 -9.276,-5.862 -1.168,-0.984 -2.286,-2.028 -3.353,-3.121 0.918,-1.952 1.408,-4.086 1.566,-6.232 0.023,-0.306 0.132,-0.67 0.453,-0.78 0.239,-0.051 0.5,-0.036 0.722,0.075 0.656,0.295 1.122,0.862 1.623,1.355 1.486,1.575 2.912,3.206 4.385,4.794 0.913,1.003 1.836,1.995 2.748,2.999 0.135,0.138 0.253,0.331 0.469,0.342 -0.028,-0.185 -0.148,-0.327 -0.254,-0.47 -3.411,-4.588 -6.835,-9.167 -10.325,-13.694 -0.122,-0.133 -0.101,-0.324 -0.138,-0.487 C 2.221,7.8508682 1.283,4.8818682 0,2.0768682 1.65,1.3108682 3.375,0.69186819 5.158,0.31986819 Z"
     id="path4"
     sodipodi:nodetypes="cccccccccccccccccccccccccccccccccccc" />
</svg>
