<?xml version="1.0" encoding="UTF-8" standalone="no"?>
<svg
        width="125.63"
        height="120.94382"
        viewBox="0 0 125.63 120.94382"
        version="1.1"
        xml:space="preserve"
        style="clip-rule:evenodd;fill-rule:evenodd;stroke-miterlimit:8"
        id="svg14"
        xmlns="http://www.w3.org/2000/svg"
>
  <defs>
    <!-- This is the gradient that will actually be used on
     the cards. The colors themselves will be provided by the
     template, but the x values, y values, and offsets will be
     used from the SVG. -->
    <linearGradient id="rarity" x1="0" y1="0" x2="1" y2="0">
      <stop offset="0" style="stop-color:rgb(192,55,38);stop-opacity:1" id="stop2" />
      <stop offset="0.125" style="stop-color:rgb(192,55,38);stop-opacity:1" id="stop4" />
      <stop offset="0.5" style="stop-color:rgb(241,142,30);stop-opacity:1" id="stop6" />
      <stop offset="0.875" style="stop-color:rgb(192,55,38);stop-opacity:1" id="stop8" />
      <stop offset="1" style="stop-color:rgb(192,55,38);stop-opacity:1" id="stop10" />
    </linearGradient>
    <!-- These gradients are here so that you can visualize
     what the set symbol would like like in that rarity. The
     only gradient that matters in the end is the "rarity"
     gradient. -->
    <linearGradient id="mythic" x1="0" y1="1" x2="1" y2="0">
      <stop offset="0" style="stop-color:rgb(192,55,38);stop-opacity:1"/>
      <stop offset="0.125" style="stop-color:rgb(192,55,38);stop-opacity:1"/>
      <stop offset="0.5" style="stop-color:rgb(241,142,30);stop-opacity:1"/>
      <stop offset="0.875" style="stop-color:rgb(192,55,38);stop-opacity:1"/>
      <stop offset="1" style="stop-color:rgb(192,55,38);stop-opacity:1"/>
    </linearGradient>
    <linearGradient id="rare" x1="0" y1="1" x2="1" y2="0">
      <stop offset="0" style="stop-color:rgb(146,116,67);stop-opacity:1"/>
      <stop offset="0.125" style="stop-color:rgb(146,116,67);stop-opacity:1"/>
      <stop offset="0.5" style="stop-color:rgb(211,178,108);stop-opacity:1"/>
      <stop offset="0.875" style="stop-color:rgb(146,116,67);stop-opacity:1"/>
      <stop offset="1" style="stop-color:rgb(146,116,67);stop-opacity:1"/>
    </linearGradient>
    <linearGradient id="special" x1="0" y1="1" x2="1" y2="0">
      <stop offset="0" style="stop-color:rgb(76, 56, 106);stop-opacity:1"/>
      <stop offset="0.125" style="stop-color:rgb(76, 56, 106);stop-opacity:1"/>
      <stop offset="0.5" style="stop-color:rgb(201, 173, 221);stop-opacity:1"/>
      <stop offset="0.875" style="stop-color:rgb(76, 56, 106);stop-opacity:1"/>
      <stop offset="1" style="stop-color:rgb(76, 56, 106);stop-opacity:1"/>
    </linearGradient>
    <linearGradient id="uncommon" x1="0" y1="1" x2="1" y2="0">
      <stop offset="0" style="stop-color:rgb(98,110,119);stop-opacity:1"/>
      <stop offset="0.125" style="stop-color:rgb(98,110,119);stop-opacity:1"/>
      <stop offset="0.5" style="stop-color:rgb(196,222,238);stop-opacity:1"/>
      <stop offset="0.875" style="stop-color:rgb(98,110,119);stop-opacity:1"/>
      <stop offset="1" style="stop-color:rgb(98,110,119);stop-opacity:1"/>
    </linearGradient>
    <linearGradient id="common" x1="0" y1="1" x2="1" y2="0">
      <stop offset="0" style="stop-color:rgb(0,0,0);stop-opacity:1"/>
    </linearGradient>
    <linearGradient
            id="rarity-outline" x1="0" y1="1" x2="0" y2="1">
      <stop offset="0" style="stop-color:rgb(0,0,0);stop-opacity:1"/>
    </linearGradient>
  </defs>
    <path fill="url(#rarity)" d="m 62.69,118.8638 c -10.65,-0.24 -41.2,-25.25 -39.56,-39.96 3.7,3.43 6.86,3.92 8.59,2.2 1.83,-1.83 1.51,-3.85 0,-5.37 -5.87,-5.86 -29.63,-27.94 -29.63,-36.51 v -7.37 c 0,0 3.19,4 7.34,4 2.19,0 4.7,-1.68 6.08,-4 8.76,-14.8 26.55,-30.28 36.77,-29.76 v 13.59 c 0,5.82 4.72,10.53 10.54,10.53 5.81,0 10.53,-4.71 10.53,-10.53 v -13.59 c 10.22,-0.52 28.01,14.96 36.77,29.76 1.38,2.32 3.89,4 6.07,4 4.16,0 7.35,-4 7.35,-4 v 7.37 c 0,8.57 -23.76,30.65 -29.63,36.51 -1.51,1.52 -1.83,3.54 0,5.37 1.73,1.72 4.9,1.23 8.59,-2.2 1.64,14.71 -28.91,39.72 -39.56,39.96 z"/>
    <path fill="#FFFFFF"
            d="m 23.29,82.3938 c 11.1,3.15 17.12,-0.75 17.99,-11.77 6.81,11.38 5.83,22.85 -2.2,34.4 -6.96,-6.82 -12.57,-14.21 -15.79,-22.63 z m 79.06,0 c -11.11,3.15 -17.13,-0.75 -18,-11.77 -6.81,11.38 -5.84,22.85 2.2,34.4 6.96,-6.82 12.57,-14.21 15.8,-22.63 z m -39.53,-0.84 c 2.87,-11.65 6.79,-22.58 12.91,-32.01 -3.84,-4.73 -8.06,-8.51 -12.91,-10.69 -4.87,2.18 -9.08,5.96 -12.92,10.69 6.12,9.43 10.04,20.36 12.92,32.01 z m -21.56,-61.39 c 0.8,4.72 3.01,8.53 6.21,11.72 -9.25,5.09 -16.21,12.46 -21.7,21.31 -0.48,-13.22 4.19,-24.42 15.49,-33.03 z m 43.11,0 c -0.8,4.72 -3.01,8.53 -6.21,11.72 9.25,5.09 16.21,12.46 21.7,21.31 0.48,-13.22 -4.19,-24.42 -15.49,-33.03 z"
            id="path846"/>
    <path fill="#000000"
            d="m 41.853,18.6622 -1.0996,0.8379 C 29.264,28.2545 24.4473,39.7914 24.9351,53.2247 l 0.1,2.7383 1.4453,-2.3281 C 31.9132,44.8771 38.7663,37.6265 47.873,32.6154 l 0.9746,-0.5371 -0.7871,-0.7852 c -3.1007,-3.091 -5.2066,-6.7263 -5.9766,-11.2695 z m 41.9239,0 -0.2305,1.3614 c -0.77,4.5432 -2.8759,8.1785 -5.9766,11.2695 l -0.7871,0.7852 0.9746,0.5371 c 9.1068,5.0111 15.9598,12.2617 21.3926,21.0195 l 1.4453,2.3281 0.1,-2.7383 C 101.183,39.7914 96.3663,28.2545 84.8769,19.5001 Z m -42.9942,3.002 c 0.9234,3.916 2.8122,7.2312 5.4258,10.0449 C 38.083,36.3845 31.7566,42.8516 26.6382,50.4806 26.8511,39.0724 31.1806,29.4029 40.7827,21.6642 Z m 44.0645,0 c 9.6027,7.7391 13.932,17.4093 14.1445,28.8184 C 93.8732,42.853 87.5474,36.3847 79.4214,31.7091 82.035,28.8954 83.9238,25.5802 84.8472,21.6642 Z M 62.8198,37.9396 62.478,38.0919 c -5.0347,2.2538 -9.3355,6.133 -13.2265,10.9258 l -0.3828,0.4707 0.3301,0.5098 c 6.0482,9.3194 9.9437,20.1591 12.8105,31.7558 l 0.8125,3.2852 0.8086,-3.2852 C 66.4872,70.1577 70.3829,59.3176 76.4312,49.9982 l 0.3301,-0.5098 -0.3829,-0.4707 C 72.487,44.2243 68.1756,40.3456 63.1616,38.0919 Z m 0,1.8633 c 4.3915,2.0597 8.2845,5.5302 11.877,9.8691 -5.4654,8.5939 -9.126,18.3743 -11.877,28.7441 C 60.0615,68.0465 56.3986,58.266 50.9331,49.672 c 3.5925,-4.3396 7.4782,-7.8096 11.8867,-9.8691 z m -22.166,28.1484 -0.207,2.6074 c -0.4237,5.3671 -2.0639,8.791 -4.7813,10.5645 -2.7174,1.7735 -6.7236,2.0062 -12.1484,0.4668 l -1.6016,-0.4551 0.5938,1.5566 c 3.2773,8.57 8.9712,16.0537 15.9863,22.9278 l 0.7051,0.6933 0.5645,-0.8125 c 8.1597,-11.7366 9.1855,-23.6822 2.2304,-35.3047 z m 44.3223,0 -1.3418,2.2441 c -6.9549,11.6221 -5.9396,23.5678 2.2305,35.3047 l 0.5644,0.8106 0.7051,-0.6914 c 7.0152,-6.8741 12.7088,-14.3565 15.9961,-22.9258 l 0.5957,-1.5586 -1.6035,0.4551 C 96.6927,83.1295 92.6849,82.8967 89.9663,81.1232 87.2477,79.3496 85.6068,75.9258 85.1831,70.5587 Z M 41.7202,73.3009 C 46.8369,83.383 45.7749,93.379 38.9409,103.6642 32.8034,97.5234 27.8615,90.9193 24.7515,83.5626 c 4.8717,1.1122 8.8841,0.8791 11.8262,-1.041 2.7396,-1.788 4.3916,-4.9607 5.1425,-9.2207 z m 42.1895,0 c 0.7509,4.2601 2.4038,7.4327 5.1445,9.2207 2.943,1.92 6.957,2.1529 11.8321,1.041 C 97.7678,90.9199 92.8249,97.5253 86.687,103.6661 79.8447,93.3809 78.7917,83.3835 83.9097,73.3009 Z"
            id="path848"/>
    <path fill="url(#rarity-outline)"
            d="m 62.82,28.3038 v -4.17 c 4.66,0 8.44,-3.78 8.44,-8.45 v -15.57 l 1.98,-0.1 c 4.44,-0.22 10.24,2.2 16.15,6.37 8.39,5.92 17.13,15.29 22.52,24.4 0.99,1.67 2.72,2.99 4.28,2.99 3.26,0 5.72,-3.22 5.72,-3.22 l 3.72,-4.66 v 13.33 c 0,2.86 -2.21,7.15 -5.71,11.81 -7.42,9.88 -20.39,22.03 -24.53,26.17 -0.36,0.36 -0.63,0.75 -0.65,1.19 -0.02,0.42 0.23,0.82 0.65,1.24 0.38,0.38 0.95,0.42 1.61,0.27 1.2,-0.28 2.58,-1.13 4.09,-2.53 l 3.02,-2.8 0.46,4.1 c 0.3,2.67 -0.29,5.65 -1.62,8.76 -1.84,4.29 -5.1,8.88 -9.06,13.22 -6.81,7.49 -15.68,14.28 -22.64,17.74 -3.24,1.61 -6.13,2.5 -8.29,2.55 h -0.02 v 0 0 h -0.25 v 0 0 h -0.05 c -2.14,-0.05 -5.02,-0.94 -8.26,-2.55 -6.96,-3.46 -15.83,-10.25 -22.64,-17.74 -3.96,-4.34 -7.22,-8.93 -9.06,-13.22 -1.33,-3.11 -1.92,-6.09 -1.62,-8.76 l 0.46,-4.1 3.02,2.8 c 1.52,1.4 2.89,2.25 4.09,2.53 0.66,0.15 1.23,0.11 1.61,-0.27 0.42,-0.42 0.67,-0.82 0.65,-1.24 -0.02,-0.44 -0.29,-0.83 -0.65,-1.19 C 26.1,73.0638 13.13,60.9138 5.71,51.0338 2.21,46.3738 0,42.0838 0,39.2238 v -13.33 l 3.72,4.66 c 0,0 2.46,3.22 5.71,3.22 1.57,0 3.3,-1.32 4.29,-2.99 5.39,-9.11 14.13,-18.48 22.52,-24.4 5.91,-4.17 11.71,-6.59 16.15,-6.37 l 1.98,0.1 v 15.57 c 0,4.67 3.78,8.45 8.45,8.45 v 4.17 c -6.97,0 -12.62,-5.65 -12.62,-12.62 0,0 0,-11.4 0,-11.4 -3.39,0.51 -7.41,2.58 -11.55,5.5 -7.96,5.61 -16.24,14.49 -21.34,23.13 -1.77,2.98 -5.07,5.02 -7.88,5.02 -1.98,0 -3.79,-0.74 -5.26,-1.63 v 2.92 c 0,0.79 0.3,1.72 0.77,2.77 0.87,1.93 2.32,4.16 4.1,6.54 7.3,9.72 20.07,21.66 24.15,25.73 1.16,1.16 1.8,2.54 1.86,3.95 0.06,1.43 -0.45,2.95 -1.86,4.36 -1.64,1.65 -4.37,2.15 -7.6,0.59 0.23,0.86 0.54,1.73 0.92,2.63 1.68,3.92 4.69,8.09 8.31,12.06 5.54,6.08 12.5,11.7 18.54,15.25 3.74,2.19 7.06,3.62 9.38,3.67 v 0.01 c 0.03,-0.01 0.07,-0.01 0.11,-0.01 h 0.04 v 0 c 2.32,-0.05 5.64,-1.48 9.38,-3.67 6.04,-3.55 13,-9.17 18.54,-15.25 3.62,-3.97 6.63,-8.14 8.3,-12.06 0.39,-0.9 0.7,-1.77 0.93,-2.63 -3.23,1.56 -5.96,1.06 -7.6,-0.59 -1.41,-1.41 -1.92,-2.93 -1.86,-4.36 0.06,-1.41 0.7,-2.79 1.86,-3.95 4.07,-4.07 16.85,-16.01 24.15,-25.73 1.78,-2.38 3.23,-4.61 4.1,-6.54 0.47,-1.05 0.77,-1.98 0.77,-2.77 0,0 0,-2.92 0,-2.92 -1.47,0.89 -3.28,1.63 -5.27,1.63 -2.8,0 -6.1,-2.04 -7.87,-5.02 -5.11,-8.64 -13.38,-17.52 -21.34,-23.13 -4.14,-2.92 -8.16,-4.99 -11.55,-5.5 0,0 0,11.4 0,11.4 0,6.86 -5.48,12.44 -12.29,12.62 z"
            id="path10"/>
</svg>
