<?xml version="1.0" encoding="UTF-8" standalone="no"?>
<!-- Generated by IcoMoon.io -->

<svg
   version="1.1"
   width="24.105"
   height="27.302999"
   viewBox="0 0 24.105 27.302999"
   id="svg6"
   sodipodi:docname="c21.svg"
   inkscape:version="1.1.1 (3bf5ae0d25, 2021-09-20)"
   xmlns:inkscape="http://www.inkscape.org/namespaces/inkscape"
   xmlns:sodipodi="http://sodipodi.sourceforge.net/DTD/sodipodi-0.dtd"
   xmlns="http://www.w3.org/2000/svg"
   xmlns:svg="http://www.w3.org/2000/svg">
  <defs
     id="defs10" />
  <sodipodi:namedview
     id="namedview8"
     pagecolor="#ffffff"
     bordercolor="#666666"
     borderopacity="1.0"
     inkscape:pageshadow="2"
     inkscape:pageopacity="0.0"
     inkscape:pagecheckerboard="0"
     showgrid="false"
     inkscape:zoom="25.75"
     inkscape:cx="12.291262"
     inkscape:cy="13.61165"
     inkscape:window-width="1920"
     inkscape:window-height="1009"
     inkscape:window-x="-8"
     inkscape:window-y="-8"
     inkscape:window-maximized="1"
     inkscape:current-layer="svg6" />
  <title
     id="title2">c21</title>
  <path
     fill="#000000"
     d="M 4.201,21.59 C 3.462,20.819 2.952,19.813 2.495,18.907 2.381,17.044 2.509,15.171 2.446,13.306 2.441,12.967 2.235,12.681 2.084,12.395 1.373,11.217 0.718,10.007 0,8.834 0.702,7.022 1.422,5.196 2.451,3.54 3.373,4.56 4.86,4.89 6.115,4.302 v 0 C 7.356,3.605 7.906,2.109 7.59,0.748 9.049,0.33 10.55,0.016 12.071,0 c 1.51,0.021 2.997,0.332 4.444,0.746 -0.358,1.468 0.349,3.046 1.721,3.696 1.372,0.367 2.439,0.049 3.441,-0.934 1.034,1.663 1.738,3.501 2.428,5.325 -0.806,1.426 -1.712,2.809 -2.428,4.279 -0.114,1.931 0.053,3.873 -0.07,5.803 -0.466,1.069 -1.154,2.013 -1.949,2.857 v 0 l 0.007,0.074 C 17.63,24.26 15.019,26.2 12.05,27.303 9.083,26.197 6.472,24.26 4.442,21.844 Z M 5.569,9.543 5.247,8.913 c -1.403,1.64 -1.91,3.835 -1.803,5.954 0.211,-0.002 0.637,-0.007 0.848,-0.009 v 0 C 5.799,15.639 7.228,16.56 8.68,17.437 7.205,17.386 5.711,17.207 4.34,16.626 v 0 c -0.619,-0.31 -0.311,-0.153 -0.925,-0.472 0.297,1.206 0.688,2.386 1.169,3.531 -0.038,1.06 -0.004,0.695 -0.042,1.098 0.002,-0.019 0.004,-0.039 0.005,-0.058 0,0 0,0 0,0 l 0.037,-1.04 c 0.255,0.376 0.541,0.732 0.836,1.078 1.255,-0.771 2.706,-1.113 4.072,-1.64 -0.808,1.331 -2.13,2.3 -3.668,2.6 1.104,1.148 2.432,2.216 4.084,2.358 -0.132,-1.412 0.75,-2.597 1.322,-3.812 C 10.535,19.9 9.804,19.502 9.381,18.808 8.64,17.732 8.677,16.192 9.509,15.179 10.022,14.473 10.847,14.12 11.63,13.804 11.665,9.632 11.604,5.457 11.518,1.285 10.431,2.168 9.246,2.99 8.461,4.177 7.887,4.974 7.515,5.894 7.267,6.839 7.771,7.429 8.215,8.1 8.35,8.881 8.815,11.072 8.97,13.313 9.117,15.544 7.863,13.871 6.796,12.059 5.888,10.178 v 0 L 5.569,9.544 Z M 12.59,1.291 c -0.1,4.172 -0.13,8.345 -0.107,12.517 0.783,0.311 1.603,0.664 2.119,1.366 0.832,1.013 0.871,2.553 0.13,3.629 -0.425,0.695 -1.155,1.099 -1.854,1.466 0.574,1.213 1.45,2.4 1.324,3.81 1.647,-0.146 2.978,-1.208 4.082,-2.353 -1.538,-0.302 -2.857,-1.271 -3.668,-2.602 1.366,0.525 2.82,0.869 4.077,1.645 0.572,-0.714 0.294,-0.351 0.834,-1.09 v 0 c 0.476,-1.141 0.869,-2.316 1.157,-3.517 -0.608,0.312 -0.303,0.157 -0.915,0.465 v 0 c -1.368,0.588 -2.864,0.755 -4.34,0.808 1.452,-0.879 2.895,-1.767 4.386,-2.579 v 0 l 0.191,0.003 c 0.523,0.008 0.307,0.004 0.65,0.01 0.123,-2.121 -0.395,-4.312 -1.791,-5.957 -0.43,0.845 -0.216,0.422 -0.643,1.271 v 0 c -0.911,1.879 -1.977,3.689 -3.229,5.362 0.149,-2.23 0.3,-4.474 0.764,-6.665 C 15.892,8.099 16.335,7.43 16.842,6.84 16.336,4.438 14.517,2.661 12.591,1.29 Z"
     id="path4" />
</svg>
