<?xml version="1.0" encoding="UTF-8" standalone="no"?>
<svg
   version="1.1"
   width="33.679688"
   height="22.340073"
   viewBox="0 0 33.679688 22.340072"
   id="svg4"
   xmlns="http://www.w3.org/2000/svg"
   xmlns:svg="http://www.w3.org/2000/svg">
  <defs>
    <!-- This is the gradient that will actually be used on
     the cards. The colors themselves will be provided by the
     template, but the x values, y values, and offsets will be
     used from the SVG. -->
    <linearGradient id="rarity" x1="0" y1="0" x2="1" y2="0">
      <stop offset="0" style="stop-color:rgb(192,55,38);stop-opacity:1" id="stop2" />
      <stop offset="0.125" style="stop-color:rgb(192,55,38);stop-opacity:1" id="stop4" />
      <stop offset="0.5" style="stop-color:rgb(241,142,30);stop-opacity:1" id="stop6" />
      <stop offset="0.875" style="stop-color:rgb(192,55,38);stop-opacity:1" id="stop8" />
      <stop offset="1" style="stop-color:rgb(192,55,38);stop-opacity:1" id="stop10" />
    </linearGradient>
    <!-- These gradients are here so that you can visualize
     what the set symbol would like like in that rarity. The
     only gradient that matters in the end is the "rarity"
     gradient. -->
    <linearGradient id="mythic" x1="0" y1="1" x2="1" y2="0">
      <stop offset="0" style="stop-color:rgb(192,55,38);stop-opacity:1"/>
      <stop offset="0.125" style="stop-color:rgb(192,55,38);stop-opacity:1"/>
      <stop offset="0.5" style="stop-color:rgb(241,142,30);stop-opacity:1"/>
      <stop offset="0.875" style="stop-color:rgb(192,55,38);stop-opacity:1"/>
      <stop offset="1" style="stop-color:rgb(192,55,38);stop-opacity:1"/>
    </linearGradient>
    <linearGradient id="rare" x1="0" y1="1" x2="1" y2="0">
      <stop offset="0" style="stop-color:rgb(146,116,67);stop-opacity:1"/>
      <stop offset="0.125" style="stop-color:rgb(146,116,67);stop-opacity:1"/>
      <stop offset="0.5" style="stop-color:rgb(211,178,108);stop-opacity:1"/>
      <stop offset="0.875" style="stop-color:rgb(146,116,67);stop-opacity:1"/>
      <stop offset="1" style="stop-color:rgb(146,116,67);stop-opacity:1"/>
    </linearGradient>
    <linearGradient id="special" x1="0" y1="1" x2="1" y2="0">
      <stop offset="0" style="stop-color:rgb(76, 56, 106);stop-opacity:1"/>
      <stop offset="0.125" style="stop-color:rgb(76, 56, 106);stop-opacity:1"/>
      <stop offset="0.5" style="stop-color:rgb(201, 173, 221);stop-opacity:1"/>
      <stop offset="0.875" style="stop-color:rgb(76, 56, 106);stop-opacity:1"/>
      <stop offset="1" style="stop-color:rgb(76, 56, 106);stop-opacity:1"/>
    </linearGradient>
    <linearGradient id="uncommon" x1="0" y1="1" x2="1" y2="0">
      <stop offset="0" style="stop-color:rgb(98,110,119);stop-opacity:1"/>
      <stop offset="0.125" style="stop-color:rgb(98,110,119);stop-opacity:1"/>
      <stop offset="0.5" style="stop-color:rgb(196,222,238);stop-opacity:1"/>
      <stop offset="0.875" style="stop-color:rgb(98,110,119);stop-opacity:1"/>
      <stop offset="1" style="stop-color:rgb(98,110,119);stop-opacity:1"/>
    </linearGradient>
    <linearGradient id="common" x1="0" y1="1" x2="1" y2="0">
      <stop offset="0" style="stop-color:rgb(0,0,0);stop-opacity:1"/>
    </linearGradient>
    <linearGradient
            id="rarity-outline" x1="0" y1="1" x2="0" y2="1">
      <stop offset="0" style="stop-color:rgb(0,0,0);stop-opacity:1"/>
    </linearGradient>
  </defs>
  <path fill="url(#rarity-outline)"
     d="M 17.050782,0.00489188 C 16.867043,-0.00365212 16.68323,-9.7712168e-4 16.5,0.01270488 15.492616,0.16280011 14.644319,0.57223986 14.0625,1.030283 13.521137,1.448432 13.097593,1.9572617 12.771485,2.5439549 l -1.251953,0.019531 c -0.963784,0.016384 -4.414326,0.00366 -5.4316414,0.00977 H 5.5859375 l -0.1894532,0.46875 c -0.5000242,1.2320595 -0.9984499,2.4615545 -1.5,3.6894531 L 3.7109376,7.1884857 c -0.4385633,-2.188e-4 -0.8750982,-8.643e-4 -1.3144532,0 L 1.9355468,7.1904388 1.7285156,7.6025481 C 1.212433,8.6287356 0.68481701,9.6556213 0.16796875,10.694345 L 0,11.034189 0.171875,11.370126 c 0.52141679,1.015967 1.034465,2.044145 1.5585937,3.070313 l 0.2089844,0.408203 h 0.4589845 c 0.4389172,3.13e-4 0.8774941,-4.4e-5 1.3164062,0 l -0.00586,0.0059 0.1894532,0.460938 c 0.5006814,1.22622 0.9989938,2.45451 1.4980468,3.681641 l 0.19336,0.478474 0.515625,-0.01172 c 0.957161,-0.01959 1.982513,-0.08431 2.9687501,-0.07617 l 0.2949219,0.59375 c 0.3258796,0.657427 0.9518043,1.206349 1.7695313,1.302735 h 0.002 c 0.8128,0.0937 1.504708,0.02139 2.125,0.05078 0.0014,0.0029 4.42e-4,9.36e-4 0.002,0.0039 0.0498,0.101182 0.116979,0.258945 0.291016,0.4375 0.160965,0.165144 0.464464,0.288998 0.748047,0.306641 0.413993,0.02259 0.837704,-0.253724 0.978515,-0.453125 0.137248,-0.194357 0.181695,-0.294982 0.167969,-0.283203 0.03902,0.07408 0.109702,0.218464 0.232422,0.396484 0.219465,0.358189 0.60564,0.537379 0.90625,0.580078 0.303331,0.04309 0.559437,-0.0022 0.785156,-0.07227 l 0.06445,-0.01953 0.06055,-0.0332 c 0.473878,-0.249152 0.617058,-0.648571 0.705079,-0.816406 0.01407,-0.02683 0.0062,-0.0164 0.01367,-0.03125 0.0052,0.02039 0.05264,0.113127 0.173829,0.283203 0.07464,0.10475 0.188884,0.240392 0.376953,0.345703 0.169807,0.09509 0.397246,0.122341 0.599609,0.107422 0.285359,-0.01596 0.590093,-0.149436 0.751953,-0.316406 0.171578,-0.176995 0.237806,-0.333032 0.287109,-0.433594 0.0014,-0.0029 4.98e-4,-0.0011 0.002,-0.0039 0.617301,-0.03013 1.307448,0.04433 2.11914,-0.04883 0.820459,-0.09359 1.448591,-0.64489 1.775391,-1.302735 l 0.263672,-0.53125 c 1.005699,8.87e-4 2.018441,0.01123 3.013672,0.01563 l 0.507812,0.002 0.189453,-0.470703 c 0.497631,-1.228088 0.999079,-2.453834 1.5,-3.681641 l 0.189453,-0.464844 c 0.436991,1.03e-4 0.873586,0 1.310547,0 h 0.462891 l 0.207031,-0.412109 c 0.517299,-1.02561 1.039155,-2.051259 1.558594,-3.078125 L 33.679688,11.02247 33.509766,10.684579 C 32.989327,9.6547118 32.467693,8.6275526 31.949219,7.600595 L 31.742188,7.1904388 31.28125,7.1884888 c -0.437764,-8.617e-4 -0.873195,-2.167e-4 -1.310547,0 l -0.1875,-0.4570313 C 29.281336,5.5017751 28.781012,4.2734151 28.28125,3.0420013 l -0.189453,-0.4648438 -0.5,-0.00391 c -1.022977,-0.00716 -5.458883,0.0075 -6.416015,-0.00781 L 20.875,2.5595775 C 20.362001,1.6388929 19.669535,0.81625724 18.664063,0.38379813 18.150483,0.15646312 17.601997,0.030524 17.050782,0.00489188 Z M 11.359375,2.5791107 h 0.0293 c -0.005,9.3e-6 -0.0087,0.00387 -0.01367,0.00391 -0.006,2.159e-4 -0.0097,-0.00416 -0.01563,-0.00391 z m 12.939453,0.6875 0.02148,0.015625 c -0.0041,-0.00325 -0.0096,-0.00263 -0.01367,-0.00586 -0.0035,-0.00262 -0.0043,-0.00715 -0.0078,-0.00977 z M 6.9746093,8.1962981 c -0.00205,0.00373 7.34e-5,0.00798 -0.00195,0.011719 -0.00354,0.00703 -0.010192,0.010493 -0.013672,0.017578 z m 20.0195317,0.8945313 0.0039,0.035156 c -6.05e-4,-0.00523 -0.0052,-0.00845 -0.0059,-0.013672 -0.0012,-0.00751 0.0032,-0.01397 0.002,-0.021484 z m 0.09766,4.3398436 -0.0039,0.04102 c 0.0012,-0.009 -0.005,-0.01643 -0.0039,-0.02539 4.83e-4,-0.0061 0.0074,-0.0096 0.0078,-0.01563 z m -20.5058594,0.0039 c 5.582e-4,0.0076 0.00915,0.01197 0.00977,0.01953 8.347e-4,0.0069 -0.00479,0.01259 -0.00391,0.01953 z m 17.5781254,2.792968 c 0.0067,-1.82e-4 0.0109,0.0061 0.01758,0.0059 h -0.03125 c 0.0054,3.7e-5 0.0083,-0.0059 0.01367,-0.0059 z m -14.6406255,0.002 c 0.00473,-2.2e-5 0.00699,0.0059 0.011719,0.0059 h -0.029297 c 0.00667,2.09e-4 0.010923,-0.006 0.017578,-0.0059 z m 3.7031255,3.052735 -0.07227,0.0059 c 0.0038,-1.34e-4 0.006,-0.0038 0.0098,-0.0039 0.02136,-0.0028 0.04113,9.27e-4 0.0625,-0.002 z" />
  <path fill="url(#rarity)" d="m 14.811844,1.3362403 c 1.046,-0.66499996 2.421,-0.76799996 3.553,-0.265 1.147,0.492 1.991,1.5460001 2.343,2.7290001 0.931,-0.638 2.253,-0.638 3.146,0.07 1.113,0.818 1.464,2.423 0.904,3.668 0.77,0.208 1.403,0.869 1.496,1.673 0.125,0.764 -0.251,1.5379996 -0.87,1.9849996 0.655,0.51 1.068,1.34 0.96,2.18 -0.082,1.111 -1.05,2.116 -2.188,2.108 -0.896,0.031 -1.684,-0.59 -2.051,-1.377 -0.877,0.071 -1.879,-0.227 -2.633,0.365 -0.571,0.372 -0.776,1.074 -0.827,1.719 -0.051,0.733 -0.176,1.535 0.208,2.205 0.265,0.505 0.74,0.907 1.312,0.998 1.139,0.247 2.313,0.215 3.47,0.254 -0.231,0.465 -0.662,0.83 -1.188,0.89 -0.773,0.089 -1.556,-0.019 -2.331,0.055 -0.414,0.085 -0.333,0.764 -0.788,0.763 -0.306,0.044 -0.377,-0.301 -0.524,-0.49 -0.14,-0.301 -0.533,-0.337 -0.819,-0.267 -0.459,0.114 -0.443,0.732 -0.831,0.936 -0.274,0.085 -0.666,0.095 -0.833,-0.184 -0.195,-0.255 -0.269,-0.658 -0.618,-0.749 -0.29,-0.075 -0.692,-0.039 -0.831,0.267 -0.145,0.188 -0.213,0.526 -0.516,0.489 -0.462,0.007 -0.379,-0.689 -0.802,-0.765 -0.774,-0.071 -1.555,0.035 -2.327,-0.054 -0.526,-0.062 -0.956,-0.426 -1.186,-0.89 1.191,-0.042 2.402,-0.003 3.571,-0.277 0.927,-0.204 1.515,-1.19 1.479,-2.1 -0.019,-0.634 -0.025,-1.281 -0.216,-1.892 -0.2,-0.658 -0.819,-1.14 -1.485,-1.258 -0.606,-0.035 -1.213,-10e-4 -1.818,-0.013 -0.365,0.786 -1.151,1.405 -2.0430002,1.377 -1.14,0.011 -2.112,-0.994 -2.194,-2.107 -0.107,-0.839 0.303,-1.671 0.96,-2.181 -0.829,-0.569 -1.1510001,-1.7509996 -0.6620001,-2.6419996 0.252,-0.513 0.7510001,-0.853 1.2860001,-1.018 -0.336,-0.803 -0.361,-1.74 0.009,-2.537 0.418,-0.962 1.4020002,-1.671 2.4630002,-1.673 0.565,-0.024 1.105,0.187 1.581,0.474 0.301,-1.002 0.943,-1.912 1.84,-2.4640001 z m -0.962,6.9740001 c 0.749,0.494 1.383,1.142 1.9,1.8729996 -0.005,-0.9759996 0.001,-1.9529996 -0.004,-2.9289996 -0.702,0.205 -1.348,0.571 -1.896,1.056 z m 4.082,-1.056 c -0.005,0.976 10e-4,1.953 -0.003,2.9289996 0.516,-0.7319996 1.151,-1.3789996 1.899,-1.8749996 -0.551,-0.481 -1.192,-0.85 -1.896,-1.054 z m -5.044,2.331 c -0.278,0.5679996 -0.457,1.1779996 -0.545,1.8039996 0.916,-0.054 1.855,0.087 2.658,0.551 -0.49,-0.947 -1.179,-1.813 -2.112,-2.3539996 z m 5.79,2.3529996 c 0.803,-0.463 1.74,-0.606 2.656,-0.548 -0.086,-0.627 -0.265,-1.238 -0.544,-1.8059996 -0.933,0.5429996 -1.617,1.4099996 -2.112,2.3539996 z M 6.0918437,3.3232404 c -0.5,1.232 -0.999,2.462 -1.501,3.691 1.084,0.004 2.166,10e-4 3.25,10e-4 -0.224,-1.342 0.2230001,-2.792 1.2530001,-3.701 -1,0.017 -2.0010001,0.003 -3.0010001,0.009 z m 18.4930003,-0.008 c 1.031,0.908 1.477,2.358 1.253,3.701 1.084,-0.001 2.167,0.001 3.251,-0.001 -0.502,-1.23 -1.003,-2.46 -1.503,-3.692 -1,-0.007 -2.001,0.008 -3.001,-0.008 z m -22.1860003,4.624 c -0.518,1.03 -1.045,2.056 -1.55899995,3.0889996 0.52399995,1.021 1.03699995,2.049 1.55899995,3.071 1.402,10e-4 2.805,0 4.207,10e-4 -0.291,-0.976 -0.121,-2.049 0.43,-2.903 -0.622,-0.975 -0.6469999,-2.2629996 -0.064,-3.2609996 -1.524,0.007 -3.048,0 -4.573,0.003 z m 24.3070003,-0.003 c 0.585,0.998 0.559,2.2859996 -0.062,3.2609996 0.548,0.854 0.718,1.927 0.428,2.903 1.403,-10e-4 2.807,0 4.21,0 0.518,-1.027 1.039,-2.052 1.558,-3.078 -0.52,-1.0289996 -1.041,-2.0549996 -1.56,-3.0829996 -1.524,-0.003 -3.05,0.004 -4.574,-0.003 z M 4.5918437,15.03224 c 0.501,1.227 1,2.455 1.499,3.682 2.3450001,-0.048 4.7060003,0.134 7.0370003,-0.175 0.595,-0.021 1.082,-0.532 1.092,-1.123 -0.012,-0.641 0.023,-1.323 -0.244,-1.919 -0.406,-0.658 -1.261,-0.436 -1.902,-0.463 -0.62,0.894 -1.707,1.479 -2.8080002,1.354 -0.902,-0.079 -1.695,-0.633 -2.21,-1.358 -0.821,0 -1.642,-10e-4 -2.463,0.001 z m 15.2220003,0.32 c -0.368,0.457 -0.301,1.097 -0.355,1.646 -0.066,0.529 0.093,1.156 0.604,1.413 0.666,0.22 1.378,0.236 2.073,0.277 1.816,0.052 3.634,0.02 5.451,0.028 0.498,-1.229 0.998,-2.456 1.499,-3.684 -0.821,-0.003 -1.641,-10e-4 -2.462,-10e-4 -0.517,0.724 -1.309,1.279 -2.212,1.358 -1.101,0.125 -2.188,-0.459 -2.808,-1.355 -0.598,0.043 -1.329,-0.183 -1.791,0.318 z"/>
</svg>
