<?xml version="1.0" encoding="UTF-8" standalone="no"?>
<!-- Generated by IcoMoon.io -->

<svg
   version="1.1"
   width="29.478001"
   height="22.655001"
   viewBox="0 0 29.478001 22.655001"
   id="svg6"
   sodipodi:docname="chk.svg"
   inkscape:version="1.1.1 (3bf5ae0d25, 2021-09-20)"
   xmlns:inkscape="http://www.inkscape.org/namespaces/inkscape"
   xmlns:sodipodi="http://sodipodi.sourceforge.net/DTD/sodipodi-0.dtd"
   xmlns="http://www.w3.org/2000/svg"
   xmlns:svg="http://www.w3.org/2000/svg">
  <defs
     id="defs10" />
  <sodipodi:namedview
     id="namedview8"
     pagecolor="#ffffff"
     bordercolor="#666666"
     borderopacity="1.0"
     inkscape:pageshadow="2"
     inkscape:pageopacity="0.0"
     inkscape:pagecheckerboard="0"
     showgrid="false"
     inkscape:zoom="25.75"
     inkscape:cx="14.970874"
     inkscape:cy="11.320388"
     inkscape:window-width="1920"
     inkscape:window-height="1009"
     inkscape:window-x="-8"
     inkscape:window-y="-8"
     inkscape:window-maximized="1"
     inkscape:current-layer="svg6" />
  <title
     id="title2">chk</title>
  <path
     fill="#000000"
     d="m 20.947,3.586 h -4.023 l 0.132,1.708 h 4.023 L 20.948,3.586 Z M 8.396,5.293 h 4.023 L 12.551,3.585 H 8.528 L 8.397,5.293 Z m 3.936,3.41 0.044,-1.445 H 8.353 l -1.226,14.215 0.438,0.219 -0.26,0.963 H 4.286 c 0,0 -0.219,-0.744 0.351,-1.226 L 5.948,7.217 H 1.706 V 5.335 H 6.124 L 6.299,3.63 H 2.057 C 2.057,3.63 1.4,3.455 1.4,2.841 V 2.056 H 0.611 C 0.611,2.056 0,1.925 0,1.399 V 0 c 0,0 3.06,1.53 13.775,1.53 h 1.924 C 26.416,1.53 29.478,0 29.478,0 v 1.399 c 0,0.526 -0.613,0.657 -0.613,0.657 h -0.789 v 0.785 c 0,0.613 -0.657,0.789 -0.657,0.789 h -4.242 l 0.175,1.705 h 4.418 v 1.882 h -4.242 l 1.311,14.212 c 0.57,0.481 0.351,1.226 0.351,1.226 H 22.171 L 21.911,21.692 22.346,21.473 21.123,7.258 H 17.1 l 0.044,1.445 h -4.811 z"
     id="path4" />
</svg>
