<?xml version="1.0" encoding="UTF-8" standalone="no"?>
<!-- Generated by IcoMoon.io -->

<svg
   version="1.1"
   width="22.415001"
   height="29.365"
   viewBox="0 0 22.415001 29.365"
   id="svg6"
   sodipodi:docname="chr.svg"
   inkscape:version="1.1.1 (3bf5ae0d25, 2021-09-20)"
   xmlns:inkscape="http://www.inkscape.org/namespaces/inkscape"
   xmlns:sodipodi="http://sodipodi.sourceforge.net/DTD/sodipodi-0.dtd"
   xmlns="http://www.w3.org/2000/svg"
   xmlns:svg="http://www.w3.org/2000/svg">
  <defs
     id="defs10" />
  <sodipodi:namedview
     id="namedview8"
     pagecolor="#ffffff"
     bordercolor="#666666"
     borderopacity="1.0"
     inkscape:pageshadow="2"
     inkscape:pageopacity="0.0"
     inkscape:pagecheckerboard="0"
     showgrid="false"
     inkscape:zoom="25.75"
     inkscape:cx="11.475728"
     inkscape:cy="14.660194"
     inkscape:window-width="1920"
     inkscape:window-height="1009"
     inkscape:window-x="-8"
     inkscape:window-y="-8"
     inkscape:window-maximized="1"
     inkscape:current-layer="svg6" />
  <title
     id="title2">chr</title>
  <path
     fill="#000000"
     d="M 12.661,24.504 11.85,23.158 c 3.897,-1.123 6.746,-4.713 6.746,-8.97 0,-5.158 -4.178,-9.337 -9.337,-9.337 -1.712,0 -3.32,0.465 -4.7,1.269 L 4.25,4.549 c 1.5,-0.78 3.207,-1.225 5.01,-1.225 5.992,0 10.865,4.872 10.865,10.864 0,4.802 -3.133,8.886 -7.463,10.316 z M 3.233,16.578 C 2.133,13.819 2.503,9.744 7.16,7.891 8.102,7.514 9.963,7.127 11.641,7.208 l 1.218,3.048 -0.39,0.155 C 11.16,8.089 8.973,7.914 7.18,8.631 5.189,9.425 3.971,11.982 5.286,15.286 c 1.275,3.2 4.054,5.467 6.645,4.434 1.121,-0.447 2.574,-1.894 2.941,-4.724 l 0.935,1.954 C 14.75,18.872 13.338,19.989 11.736,20.624 6.555,22.689 3.975,18.43 3.234,16.577 Z M 9.258,1.033 c -2.065,0 -4.061,0.475 -5.86,1.373 0,0 -1.568,-0.593 -2.43,-2.406 0,0 -1.191,2.627 1.003,4.01 L 2.712,7.566 C 1.033,9.248 0,11.569 0,14.134 c 0,5.097 4.098,9.239 9.182,9.309 l 1.767,2.578 c 0.525,1.672 0.047,3.344 0.047,3.344 1.433,-0.528 2.6,-2.755 2.6,-2.755 1.844,-0.643 3.537,-1.699 4.963,-3.126 2.487,-2.486 3.856,-5.786 3.856,-9.296 0,-7.254 -5.902,-13.155 -13.156,-13.155 z"
     id="path4" />
</svg>
