<?xml version="1.0" encoding="UTF-8" standalone="no"?>
<svg
   width="2095.7939"
   height="2795.0471"
   viewBox="0 0 2095.7939 2795.0471"
   version="1.1"
   xml:space="preserve"
   style="clip-rule:evenodd;fill-rule:evenodd;stroke-linejoin:round;stroke-miterlimit:2"
   id="svg10"
   xmlns="http://www.w3.org/2000/svg"
   xmlns:svg="http://www.w3.org/2000/svg">
    <defs>
    <!-- This is the gradient that will actually be used on
     the cards. The colors themselves will be provided by the
     template, but the x values, y values, and offsets will be
     used from the SVG. -->
    <linearGradient id="rarity" x1="0" y1="0" x2="1" y2="0">
      <stop offset="0" style="stop-color:rgb(192,55,38);stop-opacity:1" id="stop2" />
        <stop offset="0.125" style="stop-color:rgb(192,55,38);stop-opacity:1" id="stop4" />
        <stop offset="0.5" style="stop-color:rgb(241,142,30);stop-opacity:1" id="stop6" />
        <stop offset="0.875" style="stop-color:rgb(192,55,38);stop-opacity:1" id="stop8" />
        <stop offset="1" style="stop-color:rgb(192,55,38);stop-opacity:1" id="stop10" />
    </linearGradient>
      <!-- These gradients are here so that you can visualize
       what the set symbol would like like in that rarity. The
       only gradient that matters in the end is the "rarity"
       gradient. -->
      <linearGradient id="mythic" x1="0" y1="1" x2="1" y2="0">
      <stop offset="0" style="stop-color:rgb(192,55,38);stop-opacity:1"/>
        <stop offset="0.125" style="stop-color:rgb(192,55,38);stop-opacity:1"/>
        <stop offset="0.5" style="stop-color:rgb(241,142,30);stop-opacity:1"/>
        <stop offset="0.875" style="stop-color:rgb(192,55,38);stop-opacity:1"/>
        <stop offset="1" style="stop-color:rgb(192,55,38);stop-opacity:1"/>
    </linearGradient>
      <linearGradient id="rare" x1="0" y1="1" x2="1" y2="0">
      <stop offset="0" style="stop-color:rgb(146,116,67);stop-opacity:1"/>
        <stop offset="0.125" style="stop-color:rgb(146,116,67);stop-opacity:1"/>
        <stop offset="0.5" style="stop-color:rgb(211,178,108);stop-opacity:1"/>
        <stop offset="0.875" style="stop-color:rgb(146,116,67);stop-opacity:1"/>
        <stop offset="1" style="stop-color:rgb(146,116,67);stop-opacity:1"/>
    </linearGradient>
      <linearGradient id="special" x1="0" y1="1" x2="1" y2="0">
      <stop offset="0" style="stop-color:rgb(76, 56, 106);stop-opacity:1"/>
        <stop offset="0.125" style="stop-color:rgb(76, 56, 106);stop-opacity:1"/>
        <stop offset="0.5" style="stop-color:rgb(201, 173, 221);stop-opacity:1"/>
        <stop offset="0.875" style="stop-color:rgb(76, 56, 106);stop-opacity:1"/>
        <stop offset="1" style="stop-color:rgb(76, 56, 106);stop-opacity:1"/>
    </linearGradient>
      <linearGradient id="uncommon" x1="0" y1="1" x2="1" y2="0">
      <stop offset="0" style="stop-color:rgb(98,110,119);stop-opacity:1"/>
        <stop offset="0.125" style="stop-color:rgb(98,110,119);stop-opacity:1"/>
        <stop offset="0.5" style="stop-color:rgb(196,222,238);stop-opacity:1"/>
        <stop offset="0.875" style="stop-color:rgb(98,110,119);stop-opacity:1"/>
        <stop offset="1" style="stop-color:rgb(98,110,119);stop-opacity:1"/>
    </linearGradient>
      <linearGradient id="common" x1="0" y1="1" x2="1" y2="0">
      <stop offset="0" style="stop-color:rgb(0,0,0);stop-opacity:1"/>
    </linearGradient>
      <linearGradient
              id="rarity-outline" x1="0" y1="1" x2="0" y2="1">
      <stop offset="0" style="stop-color:rgb(0,0,0);stop-opacity:1"/>
    </linearGradient>
  </defs>
  <path fill="url(#rarity)" d="m 1047.8954,2731.507 c 611.48,-427.4 1000.22,-1067.26 995.77,-2082.155 -174.23,21.596 -372.49,0 -408.61,-110.148 -16.72,-50.986 47.17,-109.201 191.87,-127.914 -42.91,-107.504 -78.32,-222.513 -103.04,-348.21 -160.73,37.83 -344.79,42.638 -675.99,42.638 -331.20398,0 -515.25598,-4.808 -675.98898,-42.638 -24.721,125.697 -60.129,240.706 -103.042,348.21 144.703,18.713 208.592,76.928 191.871,127.914 -36.124,110.148 -234.38,131.744 -408.613995,110.148 -4.448,1014.895 384.295995,1654.755 995.773975,2082.155 z"/>
  <path fill="url(#rarity-outline)" d="m 1018.0554,2774.197 29.84,20.85 29.84,-20.85 c 624.28,-436.35 1022.56,-1088.93 1018.02,-2125.073 l -0.26,-58.678 -58.23,7.218 c -96.4,11.948 -200.82,10.6 -276.09,-15.161 -36.87,-12.622 -66.84,-29.674 -76.63,-59.53 -0.7,-2.139 1.8,-3.571 3.46,-5.683 3.32,-4.198 7.76,-8.151 13.1,-12.033 26.98,-19.633 71.45,-34.419 132.5,-42.314 l 66.58,-8.61 -24.89,-62.352 c -41.77,-104.647 -76.24,-216.596 -100.31,-338.952 L 1764.5554,0 l -52.6,12.382 c -157.89,37.16 -338.72,41.253 -664.06,41.253 -325.33798,0 -506.16998,-4.093 -664.05698,-41.253 L 331.23042,0 l -10.429,53.029 c -24.063,122.356 -58.537,234.305 -100.309,338.952 l -24.889,62.352 66.581,8.61 c 61.052,7.895 105.525,22.681 132.502,42.314 5.335,3.882 9.78,7.835 13.095,12.033 1.667,2.112 4.166,3.544 3.464,5.683 -9.791,29.856 -39.759,46.908 -76.634,59.53 -75.265,25.761 -179.691,27.109 -276.082995,15.161 l -58.23300036,-7.218 -0.257,58.678 C -4.5025754,1685.267 393.77842,2337.847 1018.0554,2774.197 Z m 29.84,-106.54 C 477.87942,2257.497 114.37242,1650.957 104.37842,706.618 c 94.914,6.297 191.087,-0.618 263.965,-25.562 72.011,-24.647 122.761,-67.318 141.882,-125.622 12.274,-37.427 4.347,-77.967 -30.741,-114.151 -26.296,-27.117 -72.467,-53.208 -139.689,-69.781 28.4,-77.953 52.87,-159.834 72.347,-246.71 152.16,28.58 333.885,33.009 635.75298,33.009 301.87,0 483.59,-4.429 635.75,-33.009 19.48,86.876 43.95,168.758 72.35,246.71 -67.22,16.573 -113.39,42.664 -139.69,69.781 -35.09,36.184 -43.01,76.724 -30.74,114.151 19.12,58.304 69.87,100.975 141.88,125.622 72.88,24.944 169.05,31.859 263.97,25.562 -10,944.339 -373.5,1550.879 -943.52,1961.039 z"/>
  <path fill="url(#rarity-outline)" d="m 1562.4554,983.087 c -115.93,-58.63 -199.8,-162.48 -246.42,-320.203 l -11.03,-37.32 H 790.78542 l -11.03,37.32 c -46.625,157.733 -130.509,261.593 -246.475,320.223 -137.578,-59.47 -270.591,-171.01 -401.205,-320.223 -13.319,-15.215 -83.323995,63.175 -64.878995,83.833 136.905995,153.33 277.278995,267.21 421.048995,330.38 38.999,220.42 111.396,417.87 210.814,596.79 -144.609,114.06 -249.299,250.31 -317.957,406.53 -11.566,26.32 83.798,68.23 95.363,41.91 60.21,-137 151.346,-256.78 276.164,-357.9 74.276,118.2 160.726,228.08 257.27598,331.03 l 37.99,40.51 37.99,-40.51 c 96.55,-102.95 183,-212.83 257.32,-331.1 124.81,101.12 215.95,220.91 276.16,357.91 11.56,26.32 106.93,-15.59 95.36,-41.91 -68.66,-156.23 -173.35,-292.47 -317.96,-406.54 99.4,-178.89 171.79,-376.34 210.79,-596.77 153.99,-67.66 304.06,-193.47 450.14,-363.598 8.71,-10.14 -70.71,-77.538 -79.05,-67.816 -135.43,157.874 -273.35,275.734 -416.19,337.454 z"/>
  <path fill="#FFFFFF" d="m 1047.8954,1982.697 c -226.10998,-253.21 -388.78298,-550.05 -455.15598,-913.08 124.312,-66.51 218.596,-176.35 274.986,-339.886 0,0 260.76998,0 360.33998,0 56.39,163.536 150.67,273.376 274.99,339.886 -66.38,363.03 -229.05,659.87 -455.16,913.08 z"/>
</svg>
