<?xml version="1.0" encoding="UTF-8" standalone="no"?>
<!-- Generated by IcoMoon.io -->

<svg
   version="1.1"
   width="24.495001"
   height="31.386827"
   viewBox="0 0 24.495001 31.386827"
   id="svg6"
   sodipodi:docname="cma.svg"
   inkscape:version="1.1.1 (3bf5ae0d25, 2021-09-20)"
   xmlns:inkscape="http://www.inkscape.org/namespaces/inkscape"
   xmlns:sodipodi="http://sodipodi.sourceforge.net/DTD/sodipodi-0.dtd"
   xmlns="http://www.w3.org/2000/svg"
   xmlns:svg="http://www.w3.org/2000/svg">
  <defs
     id="defs10" />
  <sodipodi:namedview
     id="namedview8"
     pagecolor="#ffffff"
     bordercolor="#666666"
     borderopacity="1.0"
     inkscape:pageshadow="2"
     inkscape:pageopacity="0.0"
     inkscape:pagecheckerboard="0"
     showgrid="false"
     inkscape:zoom="25.75"
     inkscape:cx="12.485437"
     inkscape:cy="15.669903"
     inkscape:window-width="1920"
     inkscape:window-height="1009"
     inkscape:window-x="-8"
     inkscape:window-y="-8"
     inkscape:window-maximized="1"
     inkscape:current-layer="svg6" />
  <title
     id="title2">cma</title>
  <path
     fill="#000000"
     d="m 12.064,0.093 c 0.064,-0.124 0.303,-0.124 0.368,0 0.666,0.924 1.38,1.811 2.081,2.708 0.084,0.136 0.252,0.275 0.156,0.45 -0.508,0.258 -1.081,0.588 -1.168,1.209 0.025,0.769 0.634,1.342 1.172,1.818 0.84,0.558 1.838,0.955 2.862,0.898 0.735,0.033 1.435,-0.224 2.15,-0.356 1.057,-0.207 2.054,-0.626 3.033,-1.06 -0.024,0.128 -0.013,0.274 -0.024,0.403 -0.018,0.226 -0.048,0.437 -0.058,0.665 -0.11,1.119 -0.453,2.198 -0.827,3.254 -0.044,0.195 -0.264,0.147 -0.41,0.159 C 15.263,10.234 9.128,10.242 2.992,10.238 2.824,10.271 2.684,10.169 2.657,10 2.361,9.12 2.06,8.236 1.929,7.315 1.848,6.925 1.836,6.587 1.793,6.138 1.781,6.018 1.78,5.892 1.751,5.774 2.273,5.896 2.711,6.23 3.228,6.365 4.134,6.706 5.087,6.876 6.027,7.09 7.363,7.379 8.793,7.037 9.888,6.23 10.399,5.76 10.979,5.205 10.998,4.462 10.914,3.879 10.397,3.532 9.906,3.299 9.706,3.218 9.836,2.982 9.936,2.872 c 0.71,-0.925 1.45,-1.829 2.131,-2.777 z m -8.758,14.24 c 5.99,-0.011 11.98,-10e-4 17.971,-0.006 -0.58,1.325 -1.117,2.668 -1.681,3.999 -0.065,1.794 0.035,3.598 -0.047,5.39 -1.606,1.817 -3.665,3.216 -5.922,4.095 -0.566,0.15 -1.132,0.516 -1.733,0.34 C 9.227,27.352 6.823,25.759 4.946,23.717 4.877,22.334 4.938,20.943 4.918,19.557 4.894,19.059 4.999,18.539 4.821,18.061 4.311,16.821 3.749,15.601 3.306,14.334 Z M 0.001,11.609 c 0.196,0.533 0.541,0.985 0.824,1.472 0.089,0.133 0.122,0.291 0.117,0.449 0.001,3.895 -0.007,7.788 0.003,11.681 0.456,0.302 0.827,0.701 1.231,1.065 1.604,1.285 3.298,2.485 5.166,3.356 1.432,0.759 2.971,1.298 4.532,1.721 0.399,0.08 0.809,0.01 1.188,-0.125 0.949,-0.26 1.876,-0.592 2.783,-0.971 2.174,-0.965 4.27,-2.142 6.095,-3.68 0.576,-0.409 1.017,-0.976 1.611,-1.365 0.011,-3.628 0.002,-7.256 0.003,-10.884 0.012,-0.364 -0.042,-0.736 0.04,-1.093 0.278,-0.555 0.691,-1.036 0.901,-1.626 C 16.33,11.595 8.164,11.595 0,11.609 Z m 5.352,4.088 c 0.222,0.73 0.573,1.41 0.852,2.118 0.086,0.189 0.076,0.399 0.081,0.6 -0.01,1.443 0.001,2.885 -0.008,4.329 0.01,0.184 -0.028,0.409 0.143,0.535 0.941,0.979 2.042,1.794 3.221,2.466 0.62,0.418 1.344,0.631 2.026,0.926 0.257,0.098 0.54,0.227 0.817,0.119 2.171,-0.69 4.173,-1.95 5.7,-3.642 0.084,-1.678 -0.02,-3.368 0.047,-5.048 0.247,-0.82 0.705,-1.566 0.919,-2.399 C 14.552,15.682 9.952,15.693 5.352,15.696 Z"
     id="path4" />
</svg>
