<?xml version="1.0" encoding="UTF-8" standalone="no"?>
<svg
   version="1.1"
   width="27.343145"
   height="34.069881"
   viewBox="0 0 27.343146 34.069881"
   id="svg4"
   xmlns="http://www.w3.org/2000/svg"
   xmlns:svg="http://www.w3.org/2000/svg">
  <defs>
    <!-- This is the gradient that will actually be used on
     the cards. The colors themselves will be provided by the
     template, but the x values, y values, and offsets will be
     used from the SVG. -->
    <linearGradient id="rarity" x1="-0.25" y1="0.75" x2="1.2" y2="1">
      <stop offset="0" style="stop-color:rgb(192,55,38);stop-opacity:1" id="stop2" />
      <stop offset="0.125" style="stop-color:rgb(192,55,38);stop-opacity:1" id="stop4" />
      <stop offset="0.5" style="stop-color:rgb(241,142,30);stop-opacity:1" id="stop6" />
      <stop offset="0.875" style="stop-color:rgb(192,55,38);stop-opacity:1" id="stop8" />
      <stop offset="1" style="stop-color:rgb(192,55,38);stop-opacity:1" id="stop10" />
    </linearGradient>
    <!-- These gradients are here so that you can visualize
     what the set symbol would like like in that rarity. The
     only gradient that matters in the end is the "rarity"
     gradient. -->
    <linearGradient id="mythic" x1="0" y1="1" x2="1" y2="0">
      <stop offset="0" style="stop-color:rgb(192,55,38);stop-opacity:1"/>
      <stop offset="0.125" style="stop-color:rgb(192,55,38);stop-opacity:1"/>
      <stop offset="0.5" style="stop-color:rgb(241,142,30);stop-opacity:1"/>
      <stop offset="0.875" style="stop-color:rgb(192,55,38);stop-opacity:1"/>
      <stop offset="1" style="stop-color:rgb(192,55,38);stop-opacity:1"/>
    </linearGradient>
    <linearGradient id="rare" x1="0" y1="1" x2="1" y2="0">
      <stop offset="0" style="stop-color:rgb(146,116,67);stop-opacity:1"/>
      <stop offset="0.125" style="stop-color:rgb(146,116,67);stop-opacity:1"/>
      <stop offset="0.5" style="stop-color:rgb(211,178,108);stop-opacity:1"/>
      <stop offset="0.875" style="stop-color:rgb(146,116,67);stop-opacity:1"/>
      <stop offset="1" style="stop-color:rgb(146,116,67);stop-opacity:1"/>
    </linearGradient>
    <linearGradient id="special" x1="0" y1="1" x2="1" y2="0">
      <stop offset="0" style="stop-color:rgb(76, 56, 106);stop-opacity:1"/>
      <stop offset="0.125" style="stop-color:rgb(76, 56, 106);stop-opacity:1"/>
      <stop offset="0.5" style="stop-color:rgb(201, 173, 221);stop-opacity:1"/>
      <stop offset="0.875" style="stop-color:rgb(76, 56, 106);stop-opacity:1"/>
      <stop offset="1" style="stop-color:rgb(76, 56, 106);stop-opacity:1"/>
    </linearGradient>
    <linearGradient id="uncommon" x1="0" y1="1" x2="1" y2="0">
      <stop offset="0" style="stop-color:rgb(98,110,119);stop-opacity:1"/>
      <stop offset="0.125" style="stop-color:rgb(98,110,119);stop-opacity:1"/>
      <stop offset="0.5" style="stop-color:rgb(196,222,238);stop-opacity:1"/>
      <stop offset="0.875" style="stop-color:rgb(98,110,119);stop-opacity:1"/>
      <stop offset="1" style="stop-color:rgb(98,110,119);stop-opacity:1"/>
    </linearGradient>
    <linearGradient id="common" x1="0" y1="1" x2="1" y2="0">
      <stop offset="0" style="stop-color:rgb(0,0,0);stop-opacity:1"/>
    </linearGradient>
    <linearGradient
            id="rarity-outline" x1="0" y1="1" x2="0" y2="1">
      <stop offset="0" style="stop-color:rgb(0,0,0);stop-opacity:1"/>
    </linearGradient>
  </defs>
  <path fill="url(#rarity-outline)" d="M 13.671875,0 12.882812,1.0507812 9.7460938,5.234375 10.732422,5.7949219 c 0,0 0.220038,0.1275135 0.439453,0.3027343 0.14724,0.117583 0.149901,0.1118111 0.179687,0.1269532 -0.05177,0.2236613 -0.262933,0.5189855 -0.675781,0.90625 C 9.8128652,7.7470862 8.6860033,8.0136678 7.671875,7.7949219 6.7042211,7.5748549 5.801581,7.4086162 5.0117188,7.1113281 L 4.9628906,7.09375 4.9121094,7.0800781 C 4.502556,6.9731348 4.160832,6.8104587 3.6054688,6.5507812 l -1.6015626,-0.75 L 2.1875,7.5605469 C 2.239022,8.0510678 2.27269,8.524456 2.3710938,9.1386719 2.5196042,10.18278 2.8454183,11.124311 3.140625,12.001953 l -0.039063,-0.162109 c 0.02811,0.175945 0.1908323,0.300914 0.3027344,0.451172 -0.6048032,7.87e-4 -1.3847588,-9.7e-4 -1.9726563,0 L 0,12.292969 l 0.49414062,1.34375 c 0.25827883,0.70236 0.63711778,1.184978 0.87890628,1.59375 9.711e-4,3.887599 -0.00609,7.775799 0.00391,11.666015 v 0.535157 l 0.4472657,0.294921 c 0.3261169,0.215981 0.6654799,0.571145 1.1132812,0.97461 l 0.021484,0.01953 0.023437,0.01758 c 1.6285311,1.304653 3.3803017,2.548011 5.3476562,3.46875 C 9.8437226,33.006188 11.443763,33.566647 13.042969,34 l 0.0332,0.0098 0.0332,0.0059 c 0.637273,0.127774 1.224684,0.01011 1.714844,-0.164063 h 0.0039 c 0.97267,-0.270322 1.917644,-0.607331 2.833984,-0.990234 l 0.0098,-0.0039 0.0098,-0.0039 c 2.221698,-0.986173 4.391704,-2.202288 6.30664,-3.810547 0.704406,-0.511088 1.139445,-1.049518 1.541016,-1.3125 l 0.451172,-0.294922 0.002,-0.539063 c 0.01098,-3.620595 9.53e-4,-7.238399 0.002,-10.853515 v -0.0332 c 0.01131,-0.412407 -0.0019,-0.658969 0.01367,-0.789063 0.222465,-0.390803 0.603945,-0.843188 0.871094,-1.59375 l 0.474609,-1.333984 -1.416016,-0.002 c -0.662609,-7.54e-4 -1.238845,6.61e-4 -1.902343,0 0.0612,-0.106454 0.161094,-0.194649 0.185547,-0.298828 0.369174,-1.048736 0.731629,-2.1647176 0.851562,-3.3847661 v -0.00586 l 0.002,-0.00586 c 0.02828,-0.3284178 0.05842,-0.7171576 0.08203,-1.0898437 L 25.251953,5.859375 23.744141,6.5273438 C 22.777098,6.9560431 21.84745,7.3406047 20.923828,7.5214844 20.103077,7.6741342 19.483011,7.880535 19.011719,7.859375 l -0.05078,-0.00195 -0.05078,0.00195 C 18.199052,7.8989578 17.421873,7.6010743 16.71875,7.1464844 16.301134,6.7658619 16.069251,6.4547704 16.013672,6.2167969 c 0.03132,-0.016802 0.03567,-0.015449 0.189453,-0.1328125 0.228332,-0.1742594 0.457031,-0.296875 0.457031,-0.296875 l 1.052735,-0.5546875 z" />
  <path fill="url(#rarity)" d="m 13.683217,1.6510376 2.417114,3.2821336 c 0,0 -1.081,0.588 -1.168,1.209 0.025,0.769 0.634,1.342 1.172,1.818 0.84,0.558 1.838,0.955 2.862,0.898 0.735,0.033 1.435,-0.224 2.15,-0.356 1.057,-0.207 2.054,-0.626 3.033,-1.06 -0.024,0.128 -0.013,0.274 -0.024,0.403 -0.018,0.226 -0.048,0.437 -0.058,0.665 -0.11,1.119 -0.453,2.1979998 -0.827,3.2539998 -0.044,0.195 -0.264,0.147 -0.41,0.159 -6.136,-0.007 -12.271,10e-4 -18.407,-0.003 -0.168,0.033 -0.308,-0.069 -0.335,-0.238 -0.296,-0.88 -0.597,-1.7639998 -0.728,-2.6849998 -0.081,-0.39 -0.093,-0.728 -0.136,-1.177 -0.012,-0.12 -0.013,-0.246 -0.042,-0.364 0.522,0.122 0.96,0.456 1.477,0.591 0.906,0.341 1.859,0.511 2.799,0.725 1.336,0.289 2.766,-0.053 3.861,-0.86 0.511,-0.47 1.091,-1.025 1.11,-1.768 -0.084,-0.583 -1.092,-1.163 -1.092,-1.163 z M 4.737331,16.015171 c 5.99,-0.011 11.98,-10e-4 17.971,-0.006 -0.58,1.325 -1.117,2.668 -1.681,3.999 -0.065,1.794 0.035,3.598 -0.047,5.39 -1.606,1.817 -3.665,3.216 -5.922,4.095 -0.566,0.15 -1.132,0.516 -1.733,0.34 -2.667,-0.799 -5.071,-2.392 -6.948,-4.434 -0.069,-1.383 -0.008,-2.774 -0.028,-4.16 -0.024,-0.498 0.081,-1.018 -0.097,-1.496 -0.51,-1.24 -1.072,-2.46 -1.515,-3.727 z m -3.305,-2.724 c 0.196,0.533 0.541,0.985 0.824,1.472 0.089,0.133 0.122,0.291 0.117,0.449 0.001,3.895 -0.007,7.788 0.003,11.681 0.456,0.302 0.827,0.701 1.231,1.065 1.604,1.285 3.298,2.485 5.166,3.356 1.432,0.759 2.971,1.298 4.532,1.721 0.399,0.08 0.809,0.01 1.188,-0.125 0.949,-0.26 1.876,-0.592 2.783,-0.971 2.174,-0.965 4.27,-2.142 6.095,-3.68 0.576,-0.409 1.017,-0.976 1.611,-1.365 0.011,-3.628 0.002,-7.256 0.003,-10.884 0.012,-0.364 -0.042,-0.736 0.04,-1.093 0.278,-0.555 0.691,-1.036 0.901,-1.626 -8.531712,-0.0097 -17.1951054,-0.01204 -24.494,0 z m 5.352,4.088 c 0.222,0.73 0.573,1.41 0.852,2.118 0.086,0.189 0.076,0.399 0.081,0.6 -0.01,1.443 0.001,2.885 -0.008,4.329 0.01,0.184 -0.028,0.409 0.143,0.535 0.941,0.979 2.042,1.794 3.221,2.466 0.62,0.418 1.344,0.631 2.026,0.926 0.257,0.098 0.54,0.227 0.817,0.119 2.171,-0.69 4.173,-1.95 5.7,-3.642 0.084,-1.678 -0.02,-3.368 0.047,-5.048 0.247,-0.82 0.705,-1.566 0.919,-2.399 -4.599,-0.019 -9.199,-0.008 -13.799,-0.005 z"/>
</svg>
