<?xml version="1.0" encoding="UTF-8" standalone="no"?>
<svg
   version="1.1"
   width="31.072937"
   height="34.155872"
   viewBox="0 0 31.072937 34.155873"
   id="svg4"
   xmlns="http://www.w3.org/2000/svg"
   xmlns:svg="http://www.w3.org/2000/svg">
  <defs>
    <!-- This is the gradient that will actually be used on
     the cards. The colors themselves will be provided by the
     template, but the x values, y values, and offsets will be
     used from the SVG. -->
    <linearGradient id="rarity" x1="0" y1="0" x2="1" y2="0">
      <stop offset="0" style="stop-color:rgb(192,55,38);stop-opacity:1" id="stop2" />
      <stop offset="0.125" style="stop-color:rgb(192,55,38);stop-opacity:1" id="stop4" />
      <stop offset="0.5" style="stop-color:rgb(241,142,30);stop-opacity:1" id="stop6" />
      <stop offset="0.875" style="stop-color:rgb(192,55,38);stop-opacity:1" id="stop8" />
      <stop offset="1" style="stop-color:rgb(192,55,38);stop-opacity:1" id="stop10" />
    </linearGradient>
    <!-- These gradients are here so that you can visualize
     what the set symbol would like like in that rarity. The
     only gradient that matters in the end is the "rarity"
     gradient. -->
    <linearGradient id="mythic" x1="0" y1="1" x2="1" y2="0">
      <stop offset="0" style="stop-color:rgb(192,55,38);stop-opacity:1"/>
      <stop offset="0.125" style="stop-color:rgb(192,55,38);stop-opacity:1"/>
      <stop offset="0.5" style="stop-color:rgb(241,142,30);stop-opacity:1"/>
      <stop offset="0.875" style="stop-color:rgb(192,55,38);stop-opacity:1"/>
      <stop offset="1" style="stop-color:rgb(192,55,38);stop-opacity:1"/>
    </linearGradient>
    <linearGradient id="rare" x1="0" y1="1" x2="1" y2="0">
      <stop offset="0" style="stop-color:rgb(146,116,67);stop-opacity:1"/>
      <stop offset="0.125" style="stop-color:rgb(146,116,67);stop-opacity:1"/>
      <stop offset="0.5" style="stop-color:rgb(211,178,108);stop-opacity:1"/>
      <stop offset="0.875" style="stop-color:rgb(146,116,67);stop-opacity:1"/>
      <stop offset="1" style="stop-color:rgb(146,116,67);stop-opacity:1"/>
    </linearGradient>
    <linearGradient id="special" x1="0" y1="1" x2="1" y2="0">
      <stop offset="0" style="stop-color:rgb(76, 56, 106);stop-opacity:1"/>
      <stop offset="0.125" style="stop-color:rgb(76, 56, 106);stop-opacity:1"/>
      <stop offset="0.5" style="stop-color:rgb(201, 173, 221);stop-opacity:1"/>
      <stop offset="0.875" style="stop-color:rgb(76, 56, 106);stop-opacity:1"/>
      <stop offset="1" style="stop-color:rgb(76, 56, 106);stop-opacity:1"/>
    </linearGradient>
    <linearGradient id="uncommon" x1="0" y1="1" x2="1" y2="0">
      <stop offset="0" style="stop-color:rgb(98,110,119);stop-opacity:1"/>
      <stop offset="0.125" style="stop-color:rgb(98,110,119);stop-opacity:1"/>
      <stop offset="0.5" style="stop-color:rgb(196,222,238);stop-opacity:1"/>
      <stop offset="0.875" style="stop-color:rgb(98,110,119);stop-opacity:1"/>
      <stop offset="1" style="stop-color:rgb(98,110,119);stop-opacity:1"/>
    </linearGradient>
    <linearGradient id="common" x1="0" y1="1" x2="1" y2="0">
      <stop offset="0" style="stop-color:rgb(0,0,0);stop-opacity:1"/>
    </linearGradient>
    <linearGradient
            id="rarity-outline" x1="0" y1="1" x2="0" y2="1">
      <stop offset="0" style="stop-color:rgb(0,0,0);stop-opacity:1"/>
    </linearGradient>
  </defs>
  <path fill="url(#rarity-outline)"
     d="m 15.394418,0.00159034 c -0.914851,0.0198325 -1.826789,0.22114585 -2.675781,0.60351565 -0.01065,0.004796 -0.02258,0.004912 -0.0332,0.009766 l -0.164063,0.0742187 -0.01367,0.0136719 C 11.484636,1.1768666 10.720211,2.0168558 10.179575,2.9957309 8.9831394,2.9185522 7.7734495,2.4297281 6.6776214,1.6695591 L 6.0174652,1.2105747 5.4276214,1.7574497 C 4.5208145,2.5994135 4.2710335,3.6781595 4.1756683,4.7164341 3.4661768,4.6129124 2.749368,4.3662285 2.0233246,3.9312778 L 0.97840269,3.3043247 0.56824644,4.4508091 C 0.10095821,5.7568198 -0.19640911,7.2621896 0.15223081,8.7886997 l 0.001953,0.00781 0.001953,0.00586 C 0.44579201,9.9936285 1.2505143,10.859543 2.081918,11.466432 l 0.6464847,0.470706 0.6015625,-0.525391 c 0.3943402,-0.344675 0.5765164,-0.440603 0.6542969,-0.433594 l 0.048828,0.0039 h 0.050781 c 2.704659,-0.02387 5.4207483,0.0042 8.1503909,-0.0098 0.951931,0.0029 1.920536,-0.397723 2.535156,-1.2343752 0.406011,-0.5401864 0.529719,-1.0602323 0.773438,-1.6152344 0.240857,0.5388451 0.360843,1.0709216 0.734375,1.5859375 0.601035,0.8392191 1.561834,1.2582681 2.521484,1.2617191 2.731273,0.01807 5.451865,-0.01015 8.162109,0.0098 h 0.05078 l 0.05078,-0.0039 c 0.108878,-0.01032 0.290791,0.07852 0.599609,0.390625 l 0.589847,0.595703 0.689453,-0.476562 c 0.879755,-0.607593 1.695968,-1.5033182 1.978516,-2.7109382 v -0.00195 c 0.355548,-1.532998 0.04113,-3.0347073 -0.423828,-4.3320312 l -0.419922,-1.171875 -1.052735,0.6621093 c -0.702077,0.4402857 -1.416556,0.682693 -2.125,0.7832031 -0.09012,-1.0431705 -0.33495,-2.1370288 -1.28125,-2.9726562 L 25.019418,1.214481 24.372934,1.6793247 C 23.328911,2.4288184 22.129484,2.8825485 20.90809,3.0230747 20.608664,2.4737591 20.360376,1.889609 19.712778,1.4000279 18.716035,0.63479487 17.53015,0.17787147 16.308481,0.04260599 16.005337,0.00904143 15.699369,-0.00502046 15.394418,0.00159034 Z M 4.0545746,12.855106 3.3963714,12.892216 C 3.1791955,12.904416 2.3846045,12.751582 1.7030121,13.4137 l -0.046875,0.04687 -0.041016,0.05078 c -0.202964,0.257136 -0.369381,0.578302 -0.4355469,0.882813 -0.066166,0.30451 -0.055704,0.529412 -0.058594,0.751953 v 0.0078 3.304688 l 0.017578,0.339844 0.1367187,0.220703 c 2.5457967,3.844889 5.040184,7.35308 8.076172,10.351562 l 2.7168374,2.443362 c 0.920226,0.804122 1.926482,1.477791 2.957032,2.0625 l 0.49414,0.279297 0.492188,-0.279297 c 1.034309,-0.584747 2.037313,-1.262506 2.953125,-2.0625 l 2.718657,-2.441408 c 0,0 5.34917,-5.311673 8.039068,-10.292968 l 0.130859,-0.210938 0.01758,-0.246094 c 0.09352,-1.317862 0.0332,-2.595141 0.0332,-3.808593 l -0.002,0.05469 c 0.05918,-1.106903 -0.862583,-2.054719 -1.998047,-1.958984 l 0.0918,-0.0039 c -3.068558,-0.024 -6.132978,-0.0079 -9.189453,-0.0078 -1.238556,-0.03497 -2.476349,0.63004 -2.994141,1.861328 -0.142823,0.326648 -0.195443,0.660013 -0.304688,0.990235 -0.130304,-0.3918 -0.182149,-0.781501 -0.373047,-1.169922 l -0.0078,-0.01367 -0.0078,-0.01367 C 14.546323,13.47225 13.406859,12.858602 12.218569,12.900037 l 0.03906,-0.002 c -2.7306092,-0.0075 -5.4593888,7.9e-4 -8.1835932,-0.0059 z" />
  <path fill="#FFFFFF" d="M 2.7139364,5.925509 H 28.359517 V 18.199055 H 2.7139364 Z"/>
  <path fill="url(#rarity-outline)" d="M 2.3534027,5.5640903 V 5.9254184 18.560184 H 28.72059 V 5.5640903 Z M 3.0741058,6.2867466 H 27.997934 V 17.837528 H 3.0741058 Z"/>
  <path fill="url(#rarity-outline)" d="M 15.400391 0.50585938 C 14.545463 0.52438013 13.693109 0.71119276 12.90625 1.0683594 C 12.90625 1.0683594 12.904297 1.0683594 12.904297 1.0683594 C 12.900597 1.0700294 12.896298 1.0686373 12.892578 1.0703125 L 12.810547 1.1074219 L 12.802734 1.1152344 C 11.720947 1.580331 10.908645 2.4731799 10.421875 3.5351562 C 9.0021135 3.5242715 7.6099484 2.9245602 6.3925781 2.0800781 L 6.0625 1.8496094 L 5.7675781 2.125 C 4.8492175 2.9776913 4.6508567 4.161023 4.6210938 5.2617188 C 3.638235 5.2532403 2.6773712 4.9055746 1.765625 4.359375 L 1.2441406 4.046875 L 1.0390625 4.6210938 C 0.5909186 5.8735985 0.32230522 7.2839799 0.640625 8.6777344 L 0.640625 8.6816406 L 0.640625 8.6855469 C 0.89195237 9.7191674 1.6057516 10.499555 2.3769531 11.0625 L 2.7011719 11.298828 L 3.0019531 11.035156 C 3.3976229 10.689319 3.7074068 10.451465 4.0292969 10.480469 L 4.0546875 10.482422 L 4.078125 10.482422 C 6.7904507 10.458492 9.5105001 10.486656 12.236328 10.472656 C 13.042162 10.475056 13.861615 10.131387 14.367188 9.4433594 L 14.367188 9.4414062 C 14.958977 8.65523 15.226794 7.7961424 15.548828 6.9589844 C 15.859703 7.7935856 16.124736 8.6461547 16.681641 9.4140625 C 17.175855 10.106981 17.989374 10.46769 18.800781 10.470703 C 21.526416 10.488743 24.24677 10.460479 26.962891 10.480469 L 26.988281 10.480469 L 27.013672 10.478516 C 27.353111 10.446356 27.675169 10.66762 28.017578 11.013672 L 28.3125 11.3125 L 28.658203 11.074219 C 29.46658 10.515923 30.18832 9.7104189 30.433594 8.6621094 L 30.433594 8.6601562 C 30.757368 7.2641548 30.472368 5.8565364 30.025391 4.609375 L 29.814453 4.0234375 L 29.289062 4.3535156 C 28.397208 4.912814 27.432526 5.2549488 26.451172 5.2597656 C 26.424127 4.1589514 26.238579 2.95738 25.287109 2.1171875 L 24.988281 1.8535156 L 24.664062 2.0859375 C 23.48719 2.9308022 22.114518 3.4673337 20.697266 3.5703125 C 20.376484 2.9667642 20.066548 2.2951409 19.414062 1.8007812 C 19.414062 1.8007812 19.412109 1.8007812 19.412109 1.8007812 C 18.492746 1.0937879 17.390663 0.66878711 16.253906 0.54296875 C 15.970719 0.5116251 15.685366 0.49968579 15.400391 0.50585938 z M 3.7539062 13.373047 L 3.4257812 13.390625 C 3.1391933 13.406725 2.5315772 13.306375 2.0507812 13.773438 L 2.0273438 13.796875 L 2.0078125 13.822266 C 1.8360798 14.039829 1.7178642 14.27037 1.6679688 14.5 C 1.6180737 14.72963 1.6240388 14.925574 1.6210938 15.152344 L 1.6210938 15.15625 L 1.6210938 18.445312 L 1.6308594 18.644531 L 1.6992188 18.753906 C 2.4464037 19.956914 3.3032201 21.164129 4.09375 22.310547 L 4.3007812 22.611328 L 4.6484375 22.505859 C 5.0734045 22.37744 5.6520464 22.082521 5.8261719 21.4375 L 5.8339844 21.414062 L 5.8378906 21.390625 C 5.8456806 21.344995 5.8757597 21.249262 5.8867188 21.097656 C 5.9515148 20.213191 5.848623 19.396621 5.90625 18.589844 L 5.9082031 18.572266 L 5.9082031 18.552734 C 5.9082031 18.335089 6.0709551 18.173828 6.2773438 18.173828 C 6.4837324 18.173828 6.6445312 18.335089 6.6445312 18.552734 L 6.6445312 18.556641 L 6.6640625 20.226562 C 6.6769035 25.380651 6.5963069 22.08138 6.7011719 25.544922 L 6.7070312 25.712891 L 6.8125 25.84375 C 7.7099828 26.958743 8.6869152 28.015594 9.703125 29.015625 L 9.8164062 29.126953 L 9.9765625 29.152344 C 10.800732 29.282107 11.488996 28.588492 11.4375 27.785156 C 11.48226 25.960218 11.392963 24.159294 11.476562 22.392578 C 11.487243 22.303248 11.512082 22.270713 11.570312 22.228516 C 11.629883 22.185346 11.735883 22.150531 11.845703 22.150391 C 11.955524 22.150256 12.058907 22.184242 12.117188 22.226562 C 12.174148 22.267923 12.198614 22.300162 12.208984 22.390625 C 12.266594 25.270249 12.220573 28.162831 12.226562 31.0625 L 12.226562 31.289062 L 12.396484 31.4375 C 13.284597 32.213561 14.264664 32.869052 15.273438 33.441406 L 15.519531 33.582031 L 15.765625 33.441406 C 16.776279 32.870033 17.74986 32.210497 18.634766 31.4375 L 18.806641 31.287109 L 18.806641 31.058594 C 18.794651 28.354798 18.808828 25.647453 18.798828 22.9375 C 18.799828 22.722237 18.79859 22.526759 18.824219 22.404297 C 18.850039 22.28094 18.861429 22.263044 18.925781 22.226562 L 18.953125 22.210938 L 18.978516 22.191406 C 19.175761 22.043472 19.599402 22.212496 19.572266 22.480469 L 19.568359 22.511719 L 19.570312 22.541016 C 19.602792 24.274026 19.546941 26.030414 19.587891 27.798828 C 19.554061 28.593838 20.23522 29.264585 21.046875 29.15625 L 21.212891 29.134766 L 21.332031 29.017578 C 22.345409 28.018346 23.326496 26.963309 24.21875 25.839844 L 24.318359 25.714844 L 24.326172 25.554688 C 24.449042 23.166342 24.303168 20.797951 24.392578 18.476562 C 24.407948 18.137591 24.951497 18.100753 25.095703 18.369141 C 25.257218 19.283867 24.993564 20.378422 25.244141 21.580078 L 25.25 21.605469 L 25.259766 21.632812 C 25.363565 21.952405 25.612272 22.166723 25.824219 22.28125 C 26.036165 22.395777 26.228076 22.448411 26.351562 22.496094 L 26.71875 22.638672 L 26.943359 22.314453 C 27.736408 21.169272 28.550311 20.020322 29.298828 18.816406 L 29.363281 18.710938 L 29.373047 18.587891 C 29.463157 17.318227 29.405127 16.062136 29.404297 14.841797 C 29.447387 14.035845 28.768045 13.338836 27.945312 13.408203 L 27.992188 13.40625 C 24.923406 13.38225 21.855691 13.398338 18.792969 13.398438 C 17.7487 13.368948 16.697923 13.936923 16.271484 14.953125 C 15.918649 15.758439 15.695265 16.591378 15.517578 17.425781 C 15.337057 16.542758 15.104961 15.654162 14.685547 14.800781 L 14.681641 14.792969 L 14.677734 14.787109 C 14.202417 13.890545 13.231973 13.36372 12.236328 13.398438 C 9.4108317 13.390837 6.5866569 13.400778 3.7636719 13.392578 L 3.7539062 13.373047 z " />
  <path fill="url(#rarity)" d="m 13.10042,1.5245893 c 1.929,-0.88100002 4.326,-0.62300002 6.009,0.6719999 0.644,0.486 0.997,1.23 1.373,1.921 1.62,-0.057 3.165,-0.687 4.473,-1.626 0.932,0.823 1.079,2.139 1.046,3.31 1.281,0.141 2.491,-0.358 3.553,-1.024 0.429,1.197 0.684,2.511 0.392,3.77 -0.208,0.889 -0.836,1.6059998 -1.573,2.1149998 -0.376,-0.38 -0.836,-0.7359998 -1.406,-0.6819998 -2.722,-0.02 -5.443,0.008 -8.163,-0.01 -0.662,-0.002 -1.328,-0.302 -1.716,-0.846 -0.727,-1.001 -1.12,-2.19 -1.534,-3.343 -0.482,1.14 -0.832,2.36 -1.586,3.361 -0.396,0.543 -1.069,0.832 -1.731,0.83 -2.7219999,0.014 -5.4429999,-0.014 -8.1629999,0.01 -0.566,-0.051 -1.005,0.3289998 -1.402,0.6759998 -0.711,-0.519 -1.332,-1.2159998 -1.545,-2.0919998 -0.28799998,-1.261 -0.047,-2.579 0.382,-3.778 1.075,0.644 2.272,1.156 3.559,1.018 -0.037,-1.175 0.131,-2.472 1.04,-3.316 1.332,0.924 2.899,1.651 4.5559999,1.584 0.402,-1.152 1.295,-2.0979999 2.434,-2.5479999 z M 3.4534201,13.89059 v 0 c -0.356,0.02 -0.774,-0.031 -1.054,0.241 -0.281,0.356 -0.272,0.566 -0.278,1.028 v 3.273 l 0.003,0.058 c 0.736,1.185 1.587,2.387 2.38,3.537 0.364,-0.11 0.725,-0.295 0.84,-0.721 0.014,-0.082 0.037,-0.162 0.043,-0.245 0.06,-0.819 -0.042,-1.64 0.02,-2.508 0,-0.485 0.389,-0.879 0.869,-0.879 0.48,0 0.869,0.394 0.869,0.879 l 0.019,1.667 c 0.013,5.175 -0.068,1.842 0.037,5.31 0.883,1.097 1.847,2.139 2.8519999,3.128 0.47,0.074 0.915,-0.374 0.885,-0.842 0.047,-1.823 -0.049,-3.651 0.039,-5.474 0.1,-0.922 1.635,-0.926 1.731,0 0.059,2.904 0.012,5.813 0.018,8.719 0.856,0.748 1.806,1.385 2.793,1.945 0.987,-0.558 1.933,-1.199 2.787,-1.945 -0.012,-2.707 0.002,-5.415 -0.008,-8.122 0.002,-0.405 -0.031,-0.915 0.38,-1.148 0.548,-0.411 1.463,0.029 1.391,0.74 0.033,1.761 -0.024,3.527 0.018,5.288 -0.02,0.47 0.421,0.905 0.893,0.842 1.003,-0.989 1.97,-2.029 2.846,-3.132 0.121,-2.352 -0.024,-4.72 0.067,-7.076 0.039,-0.86 1.369,-1.038 1.688,-0.264 0.219,1.079 -0.072,2.209 0.153,3.288 0.114,0.351 0.494,0.435 0.797,0.552 0.795,-1.148 1.604,-2.291 2.342,-3.478 0.088,-1.24 0.031,-2.493 0.031,-3.737 0.027,-0.505 -0.407,-0.952 -0.917,-0.909 -3.069,-0.024 -6.14,-0.008 -9.209,-0.008 -0.85,-0.024 -1.712,0.45 -2.047,1.251 -0.711,1.62 -0.938,3.446919 -1.187,10.428726 -0.274161,-6.946887 -0.501,-8.914726 -1.308,-10.556726 -0.378,-0.713 -1.179,-1.15 -1.982,-1.122 -2.9319999,-0.008 -5.8659999,0.004 -8.7999999,-0.006 z"/>
</svg>
