<?xml version="1.0" encoding="UTF-8" standalone="no"?>
<!-- Generated by IcoMoon.io -->

<svg
   version="1.1"
   width="26.367907"
   height="29.510283"
   viewBox="0 0 26.367907 29.510283"
   id="svg6"
   sodipodi:docname="cn2.svg"
   inkscape:version="1.1.1 (3bf5ae0d25, 2021-09-20)"
   xmlns:inkscape="http://www.inkscape.org/namespaces/inkscape"
   xmlns:sodipodi="http://sodipodi.sourceforge.net/DTD/sodipodi-0.dtd"
   xmlns="http://www.w3.org/2000/svg"
   xmlns:svg="http://www.w3.org/2000/svg">
  <defs
     id="defs10" />
  <sodipodi:namedview
     id="namedview8"
     pagecolor="#ffffff"
     bordercolor="#666666"
     borderopacity="1.0"
     inkscape:pageshadow="2"
     inkscape:pageopacity="0.0"
     inkscape:pagecheckerboard="0"
     showgrid="false"
     inkscape:zoom="25.75"
     inkscape:cx="12.990291"
     inkscape:cy="14.737864"
     inkscape:window-width="1920"
     inkscape:window-height="1009"
     inkscape:window-x="-8"
     inkscape:window-y="-8"
     inkscape:window-maximized="1"
     inkscape:current-layer="svg6" />
  <title
     id="title2">cn2</title>
  <path
     fill="#000000"
     d="m 9.4344328,1.3352376 c 1.1590002,-0.92899997 2.6630002,-1.41699997 4.1480002,-1.32399997 1.586,0.085 3.093,0.853 4.177,1.99999997 0.762,0.79 1.299,1.767 1.677,2.791 1.61,-0.309 3.22,-0.622 4.83,-0.931 -0.533,1.294 -1.065,2.588 -1.603,3.879 -3.215,-2.081 -6.428,-4.169 -9.646,-6.248 -2.99,2.065 -5.9840002,4.126 -8.9770002,6.189 -0.532,-1.254 -1.061,-2.508 -1.591,-3.762 1.55,0.243 3.099,0.491 4.649,0.733 0.484,-1.28 1.251,-2.477 2.337,-3.328 z m 2.6980002,5.813 c 1.422,-0.213 2.91,-0.012 4.208,0.611 1.514,0.722 2.759,1.97 3.522,3.4600004 0.782,1.512 1.043,3.272 0.815,4.953 -0.242,1.775 -1.084,3.468 -2.378,4.709 -1.031,0.994 -2.351,1.689 -3.76,1.949 -1.587,0.291 -3.275,0.056 -4.7020002,-0.706 -1.848,-0.974 -3.239,-2.738 -3.818,-4.739 -0.387,-1.353 -0.439,-2.804 -0.139,-4.179 0.366,-1.679 1.275,-3.2410004 2.582,-4.3610004 1.035,-0.89 2.3180002,-1.494 3.6690002,-1.697 z m -7.7870002,1.926 c 0.019,3.9700004 0.024,7.9420004 0.036,11.9130004 2.968,1.953 5.9370002,3.905 8.9040002,5.86 2.939,-1.999 5.875,-4.003 8.812,-6.006 -0.017,-3.973 -0.021,-7.945 -0.04,-11.9180004 -3.006,-1.947 -6.01,-3.895 -9.017,-5.842 -2.898,1.997 -5.7970002,3.994 -8.6950002,5.993 z M 0.49843283,11.990238 c -0.701,1.9 -0.661,4.061 0.11,5.933 0.51699997,1.266 1.39799997,2.379 2.51699997,3.167 -0.016,-4.173 -0.028,-8.346 -0.037,-12.5190004 -1.19,0.835 -2.09399997,2.0550004 -2.58899997,3.4190004 z M 23.320433,8.6972376 c 0.013,4.1360004 0.026,8.2730004 0.033,12.4090004 1.145,-0.833 2.02,-2.019 2.506,-3.347 0.707,-1.895 0.678,-4.056 -0.095,-5.927 -0.504,-1.246 -1.357,-2.3450004 -2.444,-3.1360004 z m -11.025,0.559 c -2.157,0.344 -3.9260002,2.1310004 -4.4220002,4.2320004 -0.359,1.448 -0.194,3.029 0.51,4.35 0.632,1.207 1.7040002,2.19 2.9860002,2.667 1.439,0.544 3.113,0.419 4.454,-0.334 1.282,-0.708 2.243,-1.946 2.666,-3.343 0.412,-1.372 0.348,-2.89 -0.22,-4.21 -0.505,-1.19 -1.413,-2.213 -2.559,-2.8190004 -1.035,-0.556 -2.257,-0.749 -3.414,-0.543 z M 2.2844328,25.774238 c 1.568,-0.3 3.137,-0.604 4.705,-0.904 0.397,1 0.933,1.959 1.696,2.727 1.072,1.108 2.5550002,1.825 4.1010002,1.902 1.526,0.095 3.069,-0.427 4.24,-1.406 1.005,-0.816 1.718,-1.934 2.2,-3.124 1.564,0.248 3.127,0.499 4.692,0.747 -0.501,-1.168 -0.999,-2.338 -1.5,-3.506 -3.041,2.069 -6.078,4.143 -9.117,6.214 -3.167,-2.084 -6.3350002,-4.166 -9.5010002,-6.253 -0.505,1.202 -1.011,2.402 -1.516,3.604 z"
     id="path4" />
</svg>
