<?xml version="1.0" encoding="UTF-8" standalone="no"?>
<svg
   version="1.1"
   width="31.025391"
   height="26.291016"
   viewBox="0 0 31.025391 26.291015"
   id="svg4"
   xmlns="http://www.w3.org/2000/svg"
   xmlns:svg="http://www.w3.org/2000/svg">
  <defs>
    <!-- This is the gradient that will actually be used on
     the cards. The colors themselves will be provided by the
     template, but the x values, y values, and offsets will be
     used from the SVG. -->
    <linearGradient id="rarity" x1="0" y1="1" x2="1" y2="0">
      <stop offset="0" style="stop-color:rgb(192,55,38);stop-opacity:1" id="stop2" />
      <stop offset="0.125" style="stop-color:rgb(192,55,38);stop-opacity:1" id="stop4" />
      <stop offset="0.5" style="stop-color:rgb(241,142,30);stop-opacity:1" id="stop6" />
      <stop offset="0.875" style="stop-color:rgb(192,55,38);stop-opacity:1" id="stop8" />
      <stop offset="1" style="stop-color:rgb(192,55,38);stop-opacity:1" id="stop10" />
    </linearGradient>
    <!-- These gradients are here so that you can visualize
     what the set symbol would like like in that rarity. The
     only gradient that matters in the end is the "rarity"
     gradient. -->
    <linearGradient id="mythic" x1="0" y1="1" x2="1" y2="0">
      <stop offset="0" style="stop-color:rgb(192,55,38);stop-opacity:1"/>
      <stop offset="0.125" style="stop-color:rgb(192,55,38);stop-opacity:1"/>
      <stop offset="0.5" style="stop-color:rgb(241,142,30);stop-opacity:1"/>
      <stop offset="0.875" style="stop-color:rgb(192,55,38);stop-opacity:1"/>
      <stop offset="1" style="stop-color:rgb(192,55,38);stop-opacity:1"/>
    </linearGradient>
    <linearGradient id="rare" x1="0" y1="1" x2="1" y2="0">
      <stop offset="0" style="stop-color:rgb(146,116,67);stop-opacity:1"/>
      <stop offset="0.125" style="stop-color:rgb(146,116,67);stop-opacity:1"/>
      <stop offset="0.5" style="stop-color:rgb(211,178,108);stop-opacity:1"/>
      <stop offset="0.875" style="stop-color:rgb(146,116,67);stop-opacity:1"/>
      <stop offset="1" style="stop-color:rgb(146,116,67);stop-opacity:1"/>
    </linearGradient>
    <linearGradient id="special" x1="0" y1="1" x2="1" y2="0">
      <stop offset="0" style="stop-color:rgb(76, 56, 106);stop-opacity:1"/>
      <stop offset="0.125" style="stop-color:rgb(76, 56, 106);stop-opacity:1"/>
      <stop offset="0.5" style="stop-color:rgb(201, 173, 221);stop-opacity:1"/>
      <stop offset="0.875" style="stop-color:rgb(76, 56, 106);stop-opacity:1"/>
      <stop offset="1" style="stop-color:rgb(76, 56, 106);stop-opacity:1"/>
    </linearGradient>
    <linearGradient id="uncommon" x1="0" y1="1" x2="1" y2="0">
      <stop offset="0" style="stop-color:rgb(98,110,119);stop-opacity:1"/>
      <stop offset="0.125" style="stop-color:rgb(98,110,119);stop-opacity:1"/>
      <stop offset="0.5" style="stop-color:rgb(196,222,238);stop-opacity:1"/>
      <stop offset="0.875" style="stop-color:rgb(98,110,119);stop-opacity:1"/>
      <stop offset="1" style="stop-color:rgb(98,110,119);stop-opacity:1"/>
    </linearGradient>
    <linearGradient id="common" x1="0" y1="1" x2="1" y2="0">
      <stop offset="0" style="stop-color:rgb(0,0,0);stop-opacity:1"/>
    </linearGradient>
    <linearGradient
            id="rarity-outline" x1="0" y1="1" x2="0" y2="1">
      <stop offset="0" style="stop-color:rgb(0,0,0);stop-opacity:1"/>
    </linearGradient>
  </defs>
  <path fill="url(#rarity-outline)" d="m 16.638672,0 a 1.1251125,1.1251125 0 0 0 -1.125,1.125 1.1251125,1.1251125 0 0 0 -1.91211,-0.80273435 L 4.7558594,9.0078125 a 1.1251125,1.1251125 0 0 0 0.40625,1.8593755 c 0,0 1.2345501,0.452953 2.4453125,1.242187 1.2107623,0.789234 2.1660156,1.838432 2.1660156,2.742188 v 2.808593 C 7.6929627,16.57006 4.1132811,13.96143 4.1132812,8.4902344 c 0,-1.5490694 0.7128907,-3.7460938 0.7128907,-3.7460937 A 1.1251125,1.1251125 0 0 0 3.0957031,3.4726563 c 0,0 -0.8790987,0.6732294 -1.6308594,2 C 0.71308311,6.7994269 0,8.8509365 0,11.748047 v 0.002 c 0,3.287519 1.2939576,6.864185 3.7363281,9.683594 2.4423705,2.819409 6.0945999,4.857422 10.6523439,4.857422 a 1.1251125,1.1251125 0 0 0 1.125,-1.125 1.1251125,1.1251125 0 0 0 1.914062,0.800781 l 8.839844,-8.6875 a 1.1251125,1.1251125 0 0 0 -0.404297,-1.859375 c 0,0 -1.23378,-0.453474 -2.443359,-1.242187 -1.20958,-0.788715 -2.164063,-1.835824 -2.164063,-2.742188 V 8.6269531 c 2.080404,1.0894903 5.660157,3.6987269 5.660157,9.1699219 0,1.549794 -0.716797,3.744141 -0.716797,3.744141 a 1.1251125,1.1251125 0 0 0 1.730469,1.273437 c 0,0 0.878963,-0.671892 1.630859,-1.998047 0.751896,-1.326154 1.464844,-3.376327 1.464844,-6.273437 0,-3.28778 -1.292759,-6.8659371 -3.734375,-9.6855471 C 24.849399,2.0378119 21.196416,0 16.638672,0 Z" />
  <path fill="url(#rarity)" d="M 16.639,1.1230469 V 25.165047 l 8.841,-8.688 c 0,0 -5.35,-1.936 -5.35,-5.041 V 6.8620469 c 0,0 7.911,2.558 7.911,10.9340001 0,1.863 -0.778,4.112 -0.778,4.112 0,0 2.637,-1.936 2.637,-7.366 C 29.9,8.5700469 25.094,1.1240469 16.639,1.1240469 Z"/>
  <path fill="url(#rarity)" d="m 1.125,11.748047 c 0,-5.4300001 2.637,-7.3690001 2.637,-7.3690001 0,0 -0.774,2.251 -0.774,4.112 0,8.3760001 7.911,10.9360001 7.911,10.9360001 v -4.576 c 0,-3.102 -5.354,-5.0410001 -5.354,-5.0410001 l 8.844,-8.686 V 25.166047 c -8.455,0 -13.264,-7.446 -13.264,-13.417 z"/>
</svg>
