<?xml version="1.0" encoding="UTF-8" standalone="no"?>
<svg
   version="1.1"
   width="32.943359"
   height="22.787748"
   viewBox="0 0 32.943359 22.787749"
   id="svg4"
   xmlns="http://www.w3.org/2000/svg"
   xmlns:svg="http://www.w3.org/2000/svg">
  <defs>
    <!-- This is the gradient that will actually be used on
     the cards. The colors themselves will be provided by the
     template, but the x values, y values, and offsets will be
     used from the SVG. -->
    <linearGradient id="rarity" x1="-0.125" y1="0.25" x2="0.75" y2="0">
      <stop offset="0" style="stop-color:rgb(192,55,38);stop-opacity:1" id="stop2" />
      <stop offset="0.125" style="stop-color:rgb(192,55,38);stop-opacity:1" id="stop4" />
      <stop offset="0.5" style="stop-color:rgb(241,142,30);stop-opacity:1" id="stop6" />
      <stop offset="0.875" style="stop-color:rgb(192,55,38);stop-opacity:1" id="stop8" />
      <stop offset="1" style="stop-color:rgb(192,55,38);stop-opacity:1" id="stop10" />
    </linearGradient>
    <!-- These gradients are here so that you can visualize
     what the set symbol would like like in that rarity. The
     only gradient that matters in the end is the "rarity"
     gradient. -->
    <linearGradient id="mythic" x1="0" y1="1" x2="1" y2="0">
      <stop offset="0" style="stop-color:rgb(192,55,38);stop-opacity:1"/>
      <stop offset="0.125" style="stop-color:rgb(192,55,38);stop-opacity:1"/>
      <stop offset="0.5" style="stop-color:rgb(241,142,30);stop-opacity:1"/>
      <stop offset="0.875" style="stop-color:rgb(192,55,38);stop-opacity:1"/>
      <stop offset="1" style="stop-color:rgb(192,55,38);stop-opacity:1"/>
    </linearGradient>
    <linearGradient id="rare" x1="0" y1="1" x2="1" y2="0">
      <stop offset="0" style="stop-color:rgb(146,116,67);stop-opacity:1"/>
      <stop offset="0.125" style="stop-color:rgb(146,116,67);stop-opacity:1"/>
      <stop offset="0.5" style="stop-color:rgb(211,178,108);stop-opacity:1"/>
      <stop offset="0.875" style="stop-color:rgb(146,116,67);stop-opacity:1"/>
      <stop offset="1" style="stop-color:rgb(146,116,67);stop-opacity:1"/>
    </linearGradient>
    <linearGradient id="special" x1="0" y1="1" x2="1" y2="0">
      <stop offset="0" style="stop-color:rgb(76, 56, 106);stop-opacity:1"/>
      <stop offset="0.125" style="stop-color:rgb(76, 56, 106);stop-opacity:1"/>
      <stop offset="0.5" style="stop-color:rgb(201, 173, 221);stop-opacity:1"/>
      <stop offset="0.875" style="stop-color:rgb(76, 56, 106);stop-opacity:1"/>
      <stop offset="1" style="stop-color:rgb(76, 56, 106);stop-opacity:1"/>
    </linearGradient>
    <linearGradient id="uncommon" x1="0" y1="1" x2="1" y2="0">
      <stop offset="0" style="stop-color:rgb(98,110,119);stop-opacity:1"/>
      <stop offset="0.125" style="stop-color:rgb(98,110,119);stop-opacity:1"/>
      <stop offset="0.5" style="stop-color:rgb(196,222,238);stop-opacity:1"/>
      <stop offset="0.875" style="stop-color:rgb(98,110,119);stop-opacity:1"/>
      <stop offset="1" style="stop-color:rgb(98,110,119);stop-opacity:1"/>
    </linearGradient>
    <linearGradient id="common" x1="0" y1="1" x2="1" y2="0">
      <stop offset="0" style="stop-color:rgb(0,0,0);stop-opacity:1"/>
    </linearGradient>
    <linearGradient
            id="rarity-outline" x1="0" y1="1" x2="0" y2="1">
      <stop offset="0" style="stop-color:rgb(0,0,0);stop-opacity:1"/>
    </linearGradient>
  </defs>
  <path fill="url(#rarity-outline)" d="M 10.107422,0.00259216 C 10.030223,0.0108092 9.9559978,0.03688835 9.890625,0.07876404 4.3155597,3.6112318 4.6386719,9.5425351 4.6386719,9.5425351 4.6631784,9.9015665 5.0475073,10.117945 5.3671875,9.9526914 6.5749252,9.3243148 7.9414062,8.7398008 7.9414062,8.7398008 8.1256883,8.6615893 8.2455636,8.4810079 8.2460938,8.2808164 l -0.00195,0.044922 C 8.6775169,3.5673502 10.560547,0.79751404 10.560547,0.79751404 c 0.197572,-0.26710347 0.08455,-0.64904968 -0.226563,-0.765625 -0.07225,-0.02711682 -0.149792,-0.0371441 -0.226562,-0.02929688 z m 12.615234,0.003906 c -0.37727,0.0485889 -0.564296,0.48390873 -0.339844,0.79101562 0,0 1.882041,2.76972532 2.316407,7.52822412 0.01649,0.1779446 0.126689,0.3335631 0.289062,0.4082032 0.978528,0.4507453 1.802686,0.8124517 2.591797,1.2207031 0.320397,0.1655098 0.70532,-0.052235 0.728516,-0.4121094 0,0 0.273143,-5.7994432 -5.121094,-9.33877102 -0.05801,-0.0380598 -0.07543,-0.0874188 -0.134766,-0.125 -0.09831,-0.0616586 -0.215,-0.0872065 -0.330078,-0.07226562 z M 16.351562,8.6432171 c -4.023159,0 -8.0417767,0.7788188 -11.1054682,2.2148439 C 2.1824023,12.294086 0,14.451241 0,17.197905 c 0,1.028509 0.49737195,1.893812 1.2265625,2.542968 0.7291905,0.649157 1.6862978,1.118288 2.7207031,1.478516 2.0688107,0.720455 4.4613542,0.999008 5.9785156,1.089844 0.5568218,0.0328 0.7411808,-0.732755 0.2304688,-0.957032 0,0 -1.2438145,-0.551117 -2.4765625,-1.339843 -0.616374,-0.394363 -1.2253631,-0.8483 -1.6582031,-1.296875 -0.43284,-0.448575 -0.65625,-0.875573 -0.65625,-1.169922 0,-0.185343 0.2034378,-0.519429 0.7792968,-0.888672 0.5758591,-0.369243 1.4540318,-0.517694 2.5117188,-0.831763 2.112361,-0.627244 4.945721,-0.940469 7.689453,-0.975453 2.748997,0.03393 5.650456,0.346297 7.828125,0.975453 1.088835,0.314578 1.998537,0.464579 2.597656,0.835669 0.59912,0.37109 0.808594,0.710406 0.808594,0.884766 0,0.294225 -0.22119,0.721335 -0.654297,1.169922 -0.433107,0.448587 -1.043405,0.902503 -1.660156,1.296875 -1.233501,0.788743 -2.478516,1.339844 -2.478516,1.339843 -0.512228,0.22452 -0.325728,0.992461 0.232422,0.957032 1.517162,-0.09084 3.907752,-0.369389 5.976563,-1.089844 1.034405,-0.360228 1.991512,-0.829359 2.720703,-1.478516 0.72919,-0.649156 1.226562,-1.514459 1.226562,-2.542968 0,-1.377503 -0.576967,-2.628432 -1.529297,-3.685547 -0.952328,-1.057115 -2.277129,-1.939071 -3.83789,-2.65625 C 24.454651,9.4217489 20.377159,8.6432171 16.351562,8.6432171 Z m -4.492187,7.5839839 c -2.5104327,0.373982 -3.8417969,1.22461 -3.8417969,1.22461 -0.2446894,0.157952 -0.3031564,0.490764 -0.1269531,0.722656 0,0 3.228409,4.613281 8.582031,4.613281 v 0 c 3.47573,-0.04136 6.322058,-2.151261 8.552775,-4.578125 0.209462,-0.227799 0.163816,-0.58924 -0.0957,-0.757812 0,0 -1.334118,-0.851643 -3.845704,-1.22461 -0.216355,-0.03197 -0.428382,0.08038 -0.523437,0.277344 0,0 -0.186204,0.40427 -0.798828,0.867188 -0.612337,0.462701 -1.625919,0.947418 -3.28711,0.951172 -1.664162,-0.0033 -2.677769,-0.488201 -3.291015,-0.951172 -0.613247,-0.462971 -0.798828,-0.867188 -0.798828,-0.867188 -0.09528,-0.197738 -0.308371,-0.310225 -0.525391,-0.277344 z" />
  <path fill="url(#rarity)" d="M 10.158203,0.50063904 C 4.7922031,3.900639 5.1367188,9.266264 5.1367188,9.266264 c 1.232,-0.641 2.609375,-1.2285156 2.609375,-1.2285156 v -0.00195 C 8.1900937,3.1607952 10.158203,0.50063904 10.158203,0.50063904 Z m 12.626953,0 c 0,0 1.96711,2.66015616 2.41211,7.53515616 0,0 1.379723,0.5907816 2.611328,1.2304688 0,0 0.344562,-5.365625 -5.023438,-8.76562496 z M 15.351562,9.1588421 C 8.3219416,9.3887976 1.5426014,12.026409 0.609375,16.205717 a 3.3331798,3.3331798 0 0 0 0.0761719,1.96875 c 0.9581823,2.397348 5.4141176,3.277314 8.2734375,3.556641 a 0.18818171,0.18818171 0 0 0 0.097656,-0.357422 C 7.900629,20.779527 5.9494493,19.65379 5.1855469,18.477201 A 1.4263007,1.4263007 0 0 1 5.3066406,16.67642 C 6.671211,15.335188 10.993307,14.242443 15.351562,14.047514 a 22.451885,22.451885 0 0 1 2,0 c 4.389051,0.194872 8.868944,1.290345 10.277344,2.634766 a 1.4084109,1.4084109 0 0 1 0.132813,1.792968 c -0.763281,1.176759 -2.715629,2.303813 -3.873047,2.898438 a 0.18825123,0.18825123 0 0 0 0.09766,0.357422 c 2.859266,-0.279308 7.313183,-1.159349 8.271484,-3.556641 a 3.3007243,3.3007243 0 0 0 0.07422,-1.96875 C 31.372626,12.025015 24.403111,9.3883513 17.351562,9.1588421 a 30.657187,30.657187 0 0 0 -2,0 z m -3.417968,7.5644529 c -2.4300002,0.362 -3.6445315,1.148438 -3.6445315,1.148438 0,0 3.0965935,4.068359 8.1835935,4.068359 5.084,0 8.183594,-4.068359 8.183594,-4.068359 -0.0039,-0.0025 -1.219425,-0.788023 -3.646484,-1.148438 0,0 -1.012157,2.09261 -4.535157,2.09961 -3.526,-0.007 -4.541015,-2.09961 -4.541015,-2.09961 z" />
</svg>
