<?xml version="1.0" encoding="UTF-8" standalone="no"?>
<svg
   version="1.1"
   width="32.068897"
   height="26.107422"
   viewBox="0 0 32.068897 26.107422"
   id="svg4"
   xmlns="http://www.w3.org/2000/svg"
   xmlns:svg="http://www.w3.org/2000/svg">
  <defs>
    <!-- This is the gradient that will actually be used on
     the cards. The colors themselves will be provided by the
     template, but the x values, y values, and offsets will be
     used from the SVG. -->
    <linearGradient id="rarity" x1="0" y1="1" x2="1" y2="0">
      <stop offset="0" style="stop-color:rgb(192,55,38);stop-opacity:1" id="stop2" />
      <stop offset="0.125" style="stop-color:rgb(192,55,38);stop-opacity:1" id="stop4" />
      <stop offset="0.5" style="stop-color:rgb(241,142,30);stop-opacity:1" id="stop6" />
      <stop offset="0.875" style="stop-color:rgb(192,55,38);stop-opacity:1" id="stop8" />
      <stop offset="1" style="stop-color:rgb(192,55,38);stop-opacity:1" id="stop10" />
    </linearGradient>
    <!-- These gradients are here so that you can visualize
     what the set symbol would like like in that rarity. The
     only gradient that matters in the end is the "rarity"
     gradient. -->
    <linearGradient id="mythic" x1="0" y1="1" x2="1" y2="0">
      <stop offset="0" style="stop-color:rgb(192,55,38);stop-opacity:1"/>
      <stop offset="0.125" style="stop-color:rgb(192,55,38);stop-opacity:1"/>
      <stop offset="0.5" style="stop-color:rgb(241,142,30);stop-opacity:1"/>
      <stop offset="0.875" style="stop-color:rgb(192,55,38);stop-opacity:1"/>
      <stop offset="1" style="stop-color:rgb(192,55,38);stop-opacity:1"/>
    </linearGradient>
    <linearGradient id="rare" x1="0" y1="1" x2="1" y2="0">
      <stop offset="0" style="stop-color:rgb(146,116,67);stop-opacity:1"/>
      <stop offset="0.125" style="stop-color:rgb(146,116,67);stop-opacity:1"/>
      <stop offset="0.5" style="stop-color:rgb(211,178,108);stop-opacity:1"/>
      <stop offset="0.875" style="stop-color:rgb(146,116,67);stop-opacity:1"/>
      <stop offset="1" style="stop-color:rgb(146,116,67);stop-opacity:1"/>
    </linearGradient>
    <linearGradient id="special" x1="0" y1="1" x2="1" y2="0">
      <stop offset="0" style="stop-color:rgb(76, 56, 106);stop-opacity:1"/>
      <stop offset="0.125" style="stop-color:rgb(76, 56, 106);stop-opacity:1"/>
      <stop offset="0.5" style="stop-color:rgb(201, 173, 221);stop-opacity:1"/>
      <stop offset="0.875" style="stop-color:rgb(76, 56, 106);stop-opacity:1"/>
      <stop offset="1" style="stop-color:rgb(76, 56, 106);stop-opacity:1"/>
    </linearGradient>
    <linearGradient id="uncommon" x1="0" y1="1" x2="1" y2="0">
      <stop offset="0" style="stop-color:rgb(98,110,119);stop-opacity:1"/>
      <stop offset="0.125" style="stop-color:rgb(98,110,119);stop-opacity:1"/>
      <stop offset="0.5" style="stop-color:rgb(196,222,238);stop-opacity:1"/>
      <stop offset="0.875" style="stop-color:rgb(98,110,119);stop-opacity:1"/>
      <stop offset="1" style="stop-color:rgb(98,110,119);stop-opacity:1"/>
    </linearGradient>
    <linearGradient id="common" x1="0" y1="1" x2="1" y2="0">
      <stop offset="0" style="stop-color:rgb(0,0,0);stop-opacity:1"/>
    </linearGradient>
    <linearGradient
            id="rarity-outline" x1="0" y1="1" x2="0" y2="1">
      <stop offset="0" style="stop-color:rgb(0,0,0);stop-opacity:1"/>
    </linearGradient>
  </defs>
  <path fill="url(#rarity-outline)" d="M 16.018822,0 C 15.24689,0.37714795 14.529586,0.7401461 13.850853,1.0976562 12.650754,1.168442 10.95789,1.4559923 9.0676506,2.3730468 8.9341585,2.3795623 8.8033265,2.4127684 8.682885,2.4707031 1.6494981,5.8392 0.02077563,14.123047 0.02077563,14.123047 c -0.12720418,0.619772 0.34582501,1.200436 0.97851562,1.201172 0.47238845,0 0.58674505,0.03228 0.83984375,0.214844 0.2530987,0.182565 0.6497426,0.622255 1.2441406,1.433594 v 0.002 c 1.1881974,1.616298 1.9180524,2.926076 4.5664062,5.857422 2.6281302,2.90809 6.9927912,3.199453 8.1933592,3.263671 l -0.01367,-0.01367 c 0.02183,0.0092 0.04398,0.01772 0.06641,0.02539 0,0 0.07461,-0.0016 0.138672,-0.0039 0.06485,0.0024 0.140625,0.0039 0.140625,0.0039 0.02243,-0.0077 0.04458,-0.01614 0.06641,-0.02539 l -0.01367,0.01367 c 1.200568,-0.06422 5.564104,-0.354785 8.189453,-3.263671 2.651702,-2.931684 3.37867,-4.241753 4.566406,-5.857422 0,0 0.002,-0.002 0.002,-0.002 0.594475,-0.811444 0.989287,-1.251118 1.242188,-1.433594 0.2529,-0.182477 0.36686,-0.214844 0.839843,-0.214844 0.633489,5.01e-4 1.107833,-0.580619 0.980469,-1.201172 0,0 -1.626704,-8.2839167 -8.662109,-11.6523439 C 22.238096,1.9749193 19.608023,1.2720238 17.915365,1.0019531 17.309305,0.65489498 16.677566,0.32042883 16.01888,0 Z" />
  <path fill="url(#rarity)" d="m 22.954291,3.3733906 c 0,0 3.057,3.06 3.057,8.0610004 0,5.238 -3.834,10.971 -9.976,11.056 -6.1459998,-0.085 -9.9759998,-5.819 -9.9759998,-11.056 0,-5.0010004 3.055,-8.0610004 3.055,-8.0610004 -6.502,3.114 -8.11499995,10.9510004 -8.11499995,10.9510004 1.16699995,0 1.66799995,0.389 2.88999995,2.057 1.224,1.665 1.892,2.89 4.503,5.78 2.2529998,2.493 6.4009998,2.877 7.5039998,2.936 v 0.011 c 0,0 0.049,0 0.139,-0.005 0.088,0.005 0.139,0.005 0.139,0.005 v -0.011 c 1.103,-0.059 5.251,-0.443 7.501,-2.936 2.614,-2.89 3.279,-4.115 4.503,-5.78 1.222,-1.668 1.722,-2.057 2.89,-2.057 0,0 -1.611,-7.8370004 -8.115,-10.9510004 z m -11.476,1.668 c 0.721,1.279 1.943,2.5 1.943,2.5 v 2.114 c -2.444,-1.614 -3.5009998,-4.336 -3.5009998,-4.336 -1,1.222 -1.389,3.614 -1.389,3.614 1.8329998,3.2220004 4.8899998,4.7220004 4.8899998,4.7220004 v 2.222 c -3.8899998,-1.776 -5.8359998,-5.336 -5.8359998,-5.336 0,8.618 8.0609998,10.118 8.0609998,10.118 V 1.1503906 c -2.89,1.278 -4.168,3.89 -4.168,3.89 z m 9.115,0 c -0.725,1.279 -1.946,2.5 -1.946,2.5 v 2.114 c 2.446,-1.614 3.501,-4.336 3.501,-4.336 1.002,1.222 1.392,3.614 1.392,3.614 -1.835,3.2220004 -4.893,4.7220004 -4.893,4.7220004 v 2.222 c 3.89,-1.776 5.836,-5.336 5.836,-5.336 0,8.618 -8.058,10.118 -8.058,10.118 V 1.1503906 c 2.89,1.278 4.168,3.89 4.168,3.89 z"/>
</svg>
