<?xml version="1.0" encoding="UTF-8" standalone="no"?>
<!-- Generated by IcoMoon.io -->

<svg
   version="1.1"
   width="30.069"
   height="23.958"
   viewBox="0 0 30.069 23.958"
   id="svg6"
   sodipodi:docname="ddd.svg"
   inkscape:version="1.1.1 (3bf5ae0d25, 2021-09-20)"
   xmlns:inkscape="http://www.inkscape.org/namespaces/inkscape"
   xmlns:sodipodi="http://sodipodi.sourceforge.net/DTD/sodipodi-0.dtd"
   xmlns="http://www.w3.org/2000/svg"
   xmlns:svg="http://www.w3.org/2000/svg">
  <defs
     id="defs10" />
  <sodipodi:namedview
     id="namedview8"
     pagecolor="#ffffff"
     bordercolor="#666666"
     borderopacity="1.0"
     inkscape:pageshadow="2"
     inkscape:pageopacity="0.0"
     inkscape:pagecheckerboard="0"
     showgrid="false"
     inkscape:zoom="25.75"
     inkscape:cx="15.514563"
     inkscape:cy="11.941748"
     inkscape:window-width="1920"
     inkscape:window-height="1009"
     inkscape:window-x="-8"
     inkscape:window-y="-8"
     inkscape:window-maximized="1"
     inkscape:current-layer="svg6" />
  <title
     id="title2">ddd</title>
  <path
     fill="#000000"
     d="m 21.955,2.223 c 0,0 3.057,3.06 3.057,8.061 0,5.238 -3.834,10.971 -9.976,11.056 C 8.89,21.255 5.06,15.521 5.06,10.284 5.06,5.283 8.115,2.223 8.115,2.223 1.613,5.337 0,13.174 0,13.174 c 1.167,0 1.668,0.389 2.89,2.057 1.224,1.665 1.892,2.89 4.503,5.78 2.253,2.493 6.401,2.877 7.504,2.936 v 0.011 c 0,0 0.049,0 0.139,-0.005 0.088,0.005 0.139,0.005 0.139,0.005 v -0.011 c 1.103,-0.059 5.251,-0.443 7.501,-2.936 2.614,-2.89 3.279,-4.115 4.503,-5.78 1.222,-1.668 1.722,-2.057 2.89,-2.057 0,0 -1.611,-7.837 -8.115,-10.951 z M 10.479,3.891 c 0.721,1.279 1.943,2.5 1.943,2.5 V 8.505 C 9.978,6.891 8.921,4.169 8.921,4.169 c -1,1.222 -1.389,3.614 -1.389,3.614 1.833,3.222 4.89,4.722 4.89,4.722 v 2.222 C 8.532,12.951 6.586,9.391 6.586,9.391 c 0,8.618 8.061,10.118 8.061,10.118 V 0 c -2.89,1.278 -4.168,3.89 -4.168,3.89 z m 9.115,0 c -0.725,1.279 -1.946,2.5 -1.946,2.5 v 2.114 c 2.446,-1.614 3.501,-4.336 3.501,-4.336 1.002,1.222 1.392,3.614 1.392,3.614 -1.835,3.222 -4.893,4.722 -4.893,4.722 v 2.222 c 3.89,-1.776 5.836,-5.336 5.836,-5.336 0,8.618 -8.058,10.118 -8.058,10.118 V 0 c 2.89,1.278 4.168,3.89 4.168,3.89 z"
     id="path4" />
</svg>
