<?xml version="1.0" encoding="UTF-8" standalone="no"?>
<svg
   version="1.1"
   width="27.805"
   height="29.955999"
   viewBox="0 0 27.805 29.955999"
   id="svg4"
   xmlns="http://www.w3.org/2000/svg"
   xmlns:svg="http://www.w3.org/2000/svg">
  <defs>
    <!-- This is the gradient that will actually be used on
     the cards. The colors themselves will be provided by the
     template, but the x values, y values, and offsets will be
     used from the SVG. -->
    <radialGradient id="rarity">
      <stop offset="0" style="stop-color:rgb(192,55,38);stop-opacity:1" id="stop2" />
      <stop offset="00" style="stop-color:rgb(192,55,38);stop-opacity:1" id="stop4" />
      <stop offset="0" style="stop-color:rgb(241,142,30);stop-opacity:1" id="stop6" />
      <stop offset="0.95" style="stop-color:rgb(192,55,38);stop-opacity:1" id="stop8" />
      <stop offset="1" style="stop-color:rgb(192,55,38);stop-opacity:1" id="stop10" />
    </radialGradient>
    <!-- These gradients are here so that you can visualize
     what the set symbol would like like in that rarity. The
     only gradient that matters in the end is the "rarity"
     gradient. -->
    <linearGradient id="mythic" x1="0" y1="1" x2="1" y2="0">
      <stop offset="0" style="stop-color:rgb(192,55,38);stop-opacity:1"/>
      <stop offset="0.125" style="stop-color:rgb(192,55,38);stop-opacity:1"/>
      <stop offset="0.5" style="stop-color:rgb(241,142,30);stop-opacity:1"/>
      <stop offset="0.875" style="stop-color:rgb(192,55,38);stop-opacity:1"/>
      <stop offset="1" style="stop-color:rgb(192,55,38);stop-opacity:1"/>
    </linearGradient>
    <linearGradient id="rare" x1="0" y1="1" x2="1" y2="0">
      <stop offset="0" style="stop-color:rgb(146,116,67);stop-opacity:1"/>
      <stop offset="0.125" style="stop-color:rgb(146,116,67);stop-opacity:1"/>
      <stop offset="0.5" style="stop-color:rgb(211,178,108);stop-opacity:1"/>
      <stop offset="0.875" style="stop-color:rgb(146,116,67);stop-opacity:1"/>
      <stop offset="1" style="stop-color:rgb(146,116,67);stop-opacity:1"/>
    </linearGradient>
    <linearGradient id="special" x1="0" y1="1" x2="1" y2="0">
      <stop offset="0" style="stop-color:rgb(76, 56, 106);stop-opacity:1"/>
      <stop offset="0.125" style="stop-color:rgb(76, 56, 106);stop-opacity:1"/>
      <stop offset="0.5" style="stop-color:rgb(201, 173, 221);stop-opacity:1"/>
      <stop offset="0.875" style="stop-color:rgb(76, 56, 106);stop-opacity:1"/>
      <stop offset="1" style="stop-color:rgb(76, 56, 106);stop-opacity:1"/>
    </linearGradient>
    <linearGradient id="uncommon" x1="0" y1="1" x2="1" y2="0">
      <stop offset="0" style="stop-color:rgb(98,110,119);stop-opacity:1"/>
      <stop offset="0.125" style="stop-color:rgb(98,110,119);stop-opacity:1"/>
      <stop offset="0.5" style="stop-color:rgb(196,222,238);stop-opacity:1"/>
      <stop offset="0.875" style="stop-color:rgb(98,110,119);stop-opacity:1"/>
      <stop offset="1" style="stop-color:rgb(98,110,119);stop-opacity:1"/>
    </linearGradient>
    <linearGradient id="common" x1="0" y1="1" x2="1" y2="0">
      <stop offset="0" style="stop-color:rgb(0,0,0);stop-opacity:1"/>
    </linearGradient>
    <linearGradient
            id="rarity-outline" x1="0" y1="1" x2="0" y2="1">
      <stop offset="0" style="stop-color:rgb(0,0,0);stop-opacity:1"/>
    </linearGradient>
  </defs>
  <path fill="url(#rarity-outline)" d="M 13.896484 0 C 12.885649 0 12.024488 0.46307688 11.402344 1.0429688 C 11.254185 1.1810657 11.223717 1.3691913 11.097656 1.5195312 A 1.1251125 1.1251125 0 0 0 9.7421875 0.86914062 C 9.7421875 0.86914062 8.4660414 1.2796203 7.0195312 2.1660156 C 6.0126443 2.7774883 5.289857 3.7604909 4.5429688 4.5195312 A 1.1251125 1.1251125 0 0 0 4.53125 4.53125 C 4.2937833 4.7790413 4.050914 5.0393517 3.8066406 5.3164062 A 1.1251125 1.1251125 0 0 0 3.8261719 5.6367188 A 1.1251125 1.1251125 0 0 0 3.3007812 5.9238281 C 2.813255 6.5364432 2.3437747 7.2107938 1.9199219 7.9609375 A 1.1251125 1.1251125 0 0 0 2.1621094 8.8828125 A 1.1251125 1.1251125 0 0 0 1.2675781 9.2519531 C 0.95374512 9.9640295 0.68183326 10.733593 0.47265625 11.560547 A 1.1251125 1.1251125 0 0 0 0.59960938 12.417969 A 1.1251125 1.1251125 0 0 0 0.23632812 12.679688 C 0.081558605 13.562848 3.7007434e-17 14.498345 0 15.498047 C 0 16.506263 0.087227145 17.463791 0.25195312 18.363281 A 1.1251125 1.1251125 0 0 0 0.60351562 18.894531 A 1.1251125 1.1251125 0 0 0 0.43554688 19.21875 C 0.82789614 20.830417 1.4635354 22.237529 2.2304688 23.449219 A 1.1251125 1.1251125 0 0 0 2.546875 23.523438 A 1.1251125 1.1251125 0 0 0 2.671875 24.107422 C 4.1760851 26.212557 6.0445804 27.649137 7.6171875 28.570312 C 8.4034911 29.030901 9.1148994 29.362482 9.6894531 29.585938 C 9.97673 29.697667 10.228688 29.782429 10.449219 29.84375 C 10.669749 29.90507 10.804376 29.955078 11.123047 29.955078 A 1.1251125 1.1251125 0 0 0 11.751953 27.898438 C 11.751953 27.898438 7.8354224 25.095456 7.0234375 21.712891 A 1.1251125 1.1251125 0 0 0 6.9199219 21.591797 A 1.1251125 1.1251125 0 0 0 6.9121094 20.613281 C 6.7915484 20.404975 6.3274192 19.338443 6.0273438 18.275391 A 1.1251125 1.1251125 0 0 0 6.4238281 17.234375 C 6.4183581 17.200835 6.4184584 17.077764 6.4121094 17.033203 C 6.8208785 17.34152 7.3089632 17.741103 7.8710938 18.53125 C 8.5791397 19.5265 9.2965511 20.778887 9.9238281 21.996094 C 11.178382 24.430507 12.078125 26.707031 12.078125 26.707031 A 1.1251125 1.1251125 0 0 0 13.902344 26.714844 A 1.1251125 1.1251125 0 0 0 15.726562 26.707031 C 15.726562 26.707031 16.628259 24.430507 17.882812 21.996094 C 18.510089 20.778887 19.225548 19.5265 19.933594 18.53125 C 20.495724 17.741103 20.983809 17.34152 21.392578 17.033203 C 21.386378 17.076393 21.386279 17.198049 21.380859 17.230469 A 1.1251125 1.1251125 0 0 0 21.798828 18.208984 C 21.49911 19.314655 21.005514 20.416191 20.894531 20.603516 A 1.1251125 1.1251125 0 0 0 21.083984 21.361328 A 1.1251125 1.1251125 0 0 0 20.78125 21.712891 C 19.970208 25.095055 16.050781 27.898438 16.050781 27.898438 A 1.1251125 1.1251125 0 0 0 16.681641 29.955078 C 17.001264 29.955078 17.133305 29.905068 17.353516 29.84375 C 17.573726 29.78243 17.826185 29.697654 18.113281 29.585938 C 18.687474 29.362506 19.399319 29.030895 20.185547 28.570312 C 21.758002 27.649148 23.625592 26.21282 25.128906 24.107422 A 1.1251125 1.1251125 0 0 0 25.316406 23.589844 A 1.1251125 1.1251125 0 0 0 25.572266 23.449219 C 26.339448 22.23822 26.975833 20.830986 27.369141 19.21875 A 1.1251125 1.1251125 0 0 0 27.3125 18.5625 A 1.1251125 1.1251125 0 0 0 27.552734 18.363281 C 27.71746 17.463791 27.804689 16.506263 27.804688 15.498047 C 27.804688 14.496882 27.720947 13.561575 27.570312 12.683594 A 1.1251125 1.1251125 0 0 0 27.171875 12.394531 A 1.1251125 1.1251125 0 0 0 27.330078 11.560547 C 27.121581 10.73628 26.852097 9.9666496 26.537109 9.2519531 A 1.1251125 1.1251125 0 0 0 25.902344 8.9902344 A 1.1251125 1.1251125 0 0 0 25.882812 7.9570312 C 25.45555 7.2074288 24.98705 6.5347297 24.501953 5.9238281 A 1.1251125 1.1251125 0 0 0 24.226562 5.7734375 A 1.1251125 1.1251125 0 0 0 24 5.3222656 C 23.754933 5.0395782 23.507797 4.7758256 23.261719 4.5234375 A 1.1251125 1.1251125 0 0 0 23.261719 4.5214844 C 22.51546 3.7592646 21.785979 2.7765726 20.785156 2.1660156 L 20.783203 2.1660156 C 19.33757 1.2805622 18.0625 0.86914062 18.0625 0.86914062 A 1.1251125 1.1251125 0 0 0 16.802734 1.6835938 C 16.641832 1.4764833 16.589214 1.2264503 16.388672 1.0410156 C 15.763463 0.46290461 14.905637 1.4802974e-16 13.896484 0 z M 13.902344 12.761719 A 1.1251125 1.1251125 0 0 0 14.210938 13.082031 A 1.1251125 1.1251125 0 0 0 13.902344 13.390625 A 1.1251125 1.1251125 0 0 0 13.59375 13.082031 A 1.1251125 1.1251125 0 0 0 13.902344 12.761719 z " />
  <path fill="url(#rarity)" d="m 13.896,7.566 v 0.003 c -0.012,0 -0.023,0 -0.035,0 -0.015,0 -0.026,0 -0.038,0 V 7.566 c -0.59,-0.035 -1,-0.517 -1,-1.476 0,-1.002 1.038,-2.37 1.038,-2.37 0,0 1.038,1.368 1.038,2.37 0,0.959 -0.412,1.441 -1.003,1.476 z M 17.055,5.903 C 16.979,5.164 16.944,4.422 16.611,3.387 16.277,2.349 15.222,1.125 13.896,1.125 c -1.333,0 -2.37,1.224 -2.703,2.262 -0.334,1.035 -0.372,1.777 -0.444,2.516 -0.073,0.743 -0.515,4.039 3.154,4.039 3.665,0 3.226,-3.296 3.153,-4.039 z m 7.567,16.945 c 0.707,-1.116 1.291,-2.408 1.654,-3.896 0,0 -1,-0.392 -1.596,-0.529 -0.596,-0.141 -1.628,-0.392 -1.628,-0.392 -0.29,1.549 -1.017,2.853 -1.19,3.145 l 2.759,1.672 z m -2.747,-0.873 c -0.958,3.995 -5.194,6.856 -5.194,6.856 0.561,0 4.758,-1.493 7.532,-5.378 z m 4.571,-3.815 c 0.152,-0.83 0.234,-1.719 0.234,-2.662 0,-0.938 -0.079,-1.809 -0.219,-2.625 l -2.891,0.438 v -0.816 l 2.669,-0.658 C 26.046,11.074 25.798,10.364 25.508,9.706 l -0.976,0.38 -0.483,-0.444 -0.035,-0.59 0.892,-0.537 C 24.511,7.822 24.075,7.197 23.62,6.624 L 22.273,7.755 21.864,7.2 23.15,6.06 C 22.922,5.797 22.691,5.549 22.457,5.309 21.662,4.497 20.864,3.532 20.198,3.126 18.868,2.311 17.716,1.939 17.716,1.939 c 0.555,1.111 0.465,1.909 0.687,2.964 0.222,1.055 0.5,2.111 -0.281,4.113 -0.777,1.998 -3.442,1.888 -3.442,1.888 v 1.499 c 5.889,0.204 7.925,3.206 7.925,3.206 0.027,0.801 -0.061,1.487 -0.114,1.806 0,0 1.228,0.175 1.891,0.304 0.663,0.129 2.063,0.441 2.063,0.441 z M 14.68,13.739 v 12.555 c 0,0 3.668,-9.279 6.611,-10.667 0,0 -1.777,-1.888 -6.611,-1.888 z M 5.938,21.176 C 5.769,20.884 5.041,19.581 4.751,18.031 c 0,0 -1.032,0.251 -1.628,0.392 -0.596,0.137 -1.595,0.529 -1.595,0.529 0.362,1.487 0.946,2.779 1.653,3.896 l 2.756,-1.672 z m -2.35,2.277 c 2.776,3.885 6.971,5.378 7.535,5.378 0,0 -4.235,-2.861 -5.194,-6.856 z M 3.419,17.719 C 4.086,17.59 5.313,17.415 5.313,17.415 5.261,17.096 5.173,16.409 5.199,15.609 c 0,0 2.037,-3.002 7.926,-3.206 v -1.499 c 0,0 -2.669,0.111 -3.446,-1.888 C 8.902,7.014 9.179,5.959 9.401,4.903 9.623,3.847 9.53,3.051 10.088,1.939 c 0,0 -1.151,0.372 -2.481,1.187 C 6.937,3.532 6.143,4.497 5.344,5.309 5.114,5.549 4.882,5.798 4.651,6.06 L 5.937,7.2 5.531,7.755 4.181,6.624 C 3.725,7.197 3.29,7.823 2.899,8.515 L 3.79,9.052 3.752,9.642 3.273,10.086 2.297,9.706 c -0.29,0.658 -0.541,1.368 -0.734,2.131 l 2.672,0.658 v 0.816 L 1.344,12.873 c -0.143,0.816 -0.219,1.686 -0.219,2.625 0,0.943 0.082,1.832 0.234,2.662 0,0 1.397,-0.313 2.06,-0.441 z m 9.706,-3.98 v 12.555 c 0,0 -3.668,-9.279 -6.611,-10.667 0,0 1.777,-1.888 6.611,-1.888 z"/>
</svg>
