<?xml version="1.0" encoding="UTF-8" standalone="no"?>
<!-- Generated by IcoMoon.io -->

<svg
   version="1.1"
   width="26.799999"
   height="26.629999"
   viewBox="0 0 26.799999 26.629999"
   id="svg12"
   sodipodi:docname="ddh.svg"
   inkscape:version="1.1.1 (3bf5ae0d25, 2021-09-20)"
   xmlns:inkscape="http://www.inkscape.org/namespaces/inkscape"
   xmlns:sodipodi="http://sodipodi.sourceforge.net/DTD/sodipodi-0.dtd"
   xmlns="http://www.w3.org/2000/svg"
   xmlns:svg="http://www.w3.org/2000/svg">
  <defs
     id="defs16" />
  <sodipodi:namedview
     id="namedview14"
     pagecolor="#ffffff"
     bordercolor="#666666"
     borderopacity="1.0"
     inkscape:pageshadow="2"
     inkscape:pageopacity="0.0"
     inkscape:pagecheckerboard="0"
     showgrid="false"
     inkscape:zoom="25.75"
     inkscape:cx="13.495146"
     inkscape:cy="13.300971"
     inkscape:window-width="1920"
     inkscape:window-height="1009"
     inkscape:window-x="-8"
     inkscape:window-y="-8"
     inkscape:window-maximized="1"
     inkscape:current-layer="svg12" />
  <title
     id="title2">ddh</title>
  <path
     fill="#000000"
     d="m 13.4,26.63 c 6.945,0 12.315,-2.559 12.29,-7.905 -0.012,-2.49 -5.072,-6.671 -5.346,-9.184 -0.208,-1.903 1.761,-6.398 2.473,-8.42 0.081,-0.23 -0.042,-0.358 -0.162,-0.438 -0.106,-0.071 -0.375,-0.035 -0.478,0.135 -1.274,2.098 -4.313,7.371 -4.255,9.591 0.091,3.518 3.731,5.907 3.747,8.088 0.025,3.381 -3.746,3.838 -8.269,3.838 -4.523,0 -8.294,-0.457 -8.269,-3.838 C 5.147,16.316 8.786,13.928 8.878,10.409 8.936,8.189 5.896,2.916 4.623,0.818 4.52,0.648 4.252,0.612 4.145,0.683 4.025,0.763 3.902,0.891 3.983,1.121 4.695,3.143 6.664,7.638 6.456,9.541 6.182,12.054 1.121,16.235 1.11,18.725 1.085,24.071 6.455,26.63 13.4,26.63 Z"
     id="path4" />
  <path
     fill="#000000"
     d="m 13.4,20.261 c 0,0 0.94,0.001 1.129,0.001 0.032,0 0.08,-0.035 0.08,-0.1 -0.002,-0.691 -10e-4,-5.167 -10e-4,-6.628 0,-0.085 0.053,-0.13 0.134,-0.13 0.222,-0.002 0.66,-0.005 0.851,-0.006 0.174,-10e-4 0.536,0.044 0.663,-0.211 0.118,-0.238 -0.019,-0.505 -0.151,-0.573 -0.339,-0.174 -0.832,-0.103 -0.844,-0.784 -0.008,-0.445 0.408,-0.696 0.646,-0.696 0.171,0 0.254,-0.091 0.259,-0.312 C 16.176,10.35 16.192,9.254 16.393,8.61 17.056,6.243 19.072,2.433 19.677,1.668 19.745,1.581 19.655,1.503 19.655,1.503 19.655,1.503 17.592,0 13.401,0 9.21,0 7.147,1.503 7.147,1.503 c 0,0 -0.09,0.079 -0.022,0.165 0.605,0.765 2.62,4.574 3.284,6.942 0.201,0.643 0.217,1.74 0.227,2.212 0.005,0.221 0.088,0.312 0.259,0.312 0.237,0 0.653,0.251 0.646,0.696 -0.012,0.681 -0.505,0.61 -0.844,0.784 -0.132,0.067 -0.269,0.335 -0.151,0.573 0.127,0.256 0.489,0.21 0.663,0.211 0.191,10e-4 0.628,0.004 0.851,0.006 0.081,10e-4 0.134,0.045 0.134,0.13 0,1.461 0,5.937 -0.001,6.628 0,0.064 0.048,0.1 0.08,0.1 0.19,0 1.129,-0.001 1.129,-0.001 z"
     id="path6" />
  <path
     fill="#000000"
     d="M 0,12.759 C 0.016,8.646 2.488,5.359 3.244,4.585 3.277,4.547 3.321,4.567 3.345,4.621 3.71,5.469 4.337,7.429 4.608,8.469 4.626,8.546 4.609,8.605 4.545,8.653 3.413,9.387 1.417,11.095 1.409,12.746 1.407,12.809 1.371,12.863 1.293,12.862 0.905,12.864 0.461,12.858 0.093,12.854 0.047,12.853 0.001,12.81 0,12.759 Z"
     id="path8" />
  <path
     fill="#000000"
     d="M 26.8,12.759 C 26.784,8.646 24.312,5.359 23.556,4.585 23.523,4.547 23.479,4.567 23.455,4.621 23.09,5.469 22.463,7.429 22.192,8.469 c -0.018,0.077 -0.001,0.136 0.063,0.184 1.132,0.734 3.127,2.442 3.136,4.093 0.002,0.063 0.038,0.117 0.116,0.116 0.388,0.002 0.832,-0.004 1.2,-0.008 0.041,-0.002 0.093,-0.05 0.093,-0.095 z"
     id="path10" />
</svg>
