<?xml version="1.0" encoding="UTF-8" standalone="no"?>
<svg
        version="1.1"
        width="30.292969"
        height="31.408203"
        viewBox="0 0 30.292969 31.408203"
        id="svg6"
        xmlns="http://www.w3.org/2000/svg"
        xmlns:svg="http://www.w3.org/2000/svg">
  <defs>
    <!-- This is the gradient that will actually be used on
     the cards. The colors themselves will be provided by the
     template, but the x values, y values, and offsets will be
     used from the SVG. -->
    <linearGradient id="rarity" x1="0" y1="1" x2="1" y2="0">
      <stop offset="0" style="stop-color:rgb(192,55,38);stop-opacity:1" id="stop2" />
      <stop offset="0.125" style="stop-color:rgb(192,55,38);stop-opacity:1" id="stop4" />
      <stop offset="0.5" style="stop-color:rgb(241,142,30);stop-opacity:1" id="stop6" />
      <stop offset="0.875" style="stop-color:rgb(192,55,38);stop-opacity:1" id="stop8" />
      <stop offset="1" style="stop-color:rgb(192,55,38);stop-opacity:1" id="stop10" />
    </linearGradient>
    <!-- These gradients are here so that you can visualize
     what the set symbol would like like in that rarity. The
     only gradient that matters in the end is the "rarity"
     gradient. -->
    <linearGradient id="mythic" x1="0" y1="1" x2="1" y2="0">
      <stop offset="0" style="stop-color:rgb(192,55,38);stop-opacity:1"/>
      <stop offset="0.125" style="stop-color:rgb(192,55,38);stop-opacity:1"/>
      <stop offset="0.5" style="stop-color:rgb(241,142,30);stop-opacity:1"/>
      <stop offset="0.875" style="stop-color:rgb(192,55,38);stop-opacity:1"/>
      <stop offset="1" style="stop-color:rgb(192,55,38);stop-opacity:1"/>
    </linearGradient>
    <linearGradient id="rare" x1="0" y1="1" x2="1" y2="0">
      <stop offset="0" style="stop-color:rgb(146,116,67);stop-opacity:1"/>
      <stop offset="0.125" style="stop-color:rgb(146,116,67);stop-opacity:1"/>
      <stop offset="0.5" style="stop-color:rgb(211,178,108);stop-opacity:1"/>
      <stop offset="0.875" style="stop-color:rgb(146,116,67);stop-opacity:1"/>
      <stop offset="1" style="stop-color:rgb(146,116,67);stop-opacity:1"/>
    </linearGradient>
    <linearGradient id="special" x1="0" y1="1" x2="1" y2="0">
      <stop offset="0" style="stop-color:rgb(76, 56, 106);stop-opacity:1"/>
      <stop offset="0.125" style="stop-color:rgb(76, 56, 106);stop-opacity:1"/>
      <stop offset="0.5" style="stop-color:rgb(201, 173, 221);stop-opacity:1"/>
      <stop offset="0.875" style="stop-color:rgb(76, 56, 106);stop-opacity:1"/>
      <stop offset="1" style="stop-color:rgb(76, 56, 106);stop-opacity:1"/>
    </linearGradient>
    <linearGradient id="uncommon" x1="0" y1="1" x2="1" y2="0">
      <stop offset="0" style="stop-color:rgb(98,110,119);stop-opacity:1"/>
      <stop offset="0.125" style="stop-color:rgb(98,110,119);stop-opacity:1"/>
      <stop offset="0.5" style="stop-color:rgb(196,222,238);stop-opacity:1"/>
      <stop offset="0.875" style="stop-color:rgb(98,110,119);stop-opacity:1"/>
      <stop offset="1" style="stop-color:rgb(98,110,119);stop-opacity:1"/>
    </linearGradient>
    <linearGradient id="common" x1="0" y1="1" x2="1" y2="0">
      <stop offset="0" style="stop-color:rgb(0,0,0);stop-opacity:1"/>
    </linearGradient>
    <linearGradient
            id="rarity-outline" x1="0" y1="1" x2="0" y2="1">
      <stop offset="0" style="stop-color:rgb(0,0,0);stop-opacity:1"/>
    </linearGradient>
  </defs>
  <path fill="url(#rarity-outline)" d="m 14.417968,0.78125 c 2.066162,3.675472 3.621457,6.5714111 5.685547,10.248047 l -6.757812,8.914062 3.048828,1.951172 v 8.648437 L 30.191406,18.585937 h -1.339844 c -1.560394,-9.13e-4 -2.814453,-1.258631 -2.814453,-2.822265 0,-1.564205 1.254843,-2.820313 2.816406,-2.820313 h 1.439454 z M 13.896486,0.8652344 13.068361,1.5839844 0.1015625,12.822265 h 1.3398437 c 1.5604004,9.08e-4 2.8144531,1.258624 2.8144531,2.822266 0,1.564204 -1.254843,2.820312 -2.8164062,2.820312 H 0 L 15.679687,30.580078 10.189453,20.378906 16.947265,11.464844 13.896484,9.5117188 Z" />
  <path fill="url(#rarity)" d="m 15.583984,1.9589844 5.115235,9.1113286 -6.628907,8.74414 2.824219,1.80664 v 7.826172 L 28.851562,19.085937 c -1.831089,-0.0011 -3.314453,-1.488926 -3.314453,-3.322265 0,-1.834 1.484406,-3.320313 3.316406,-3.320313 z m -2.1875,0.00195 L 1.4414062,12.322265 c 1.8310951,0.0011 3.3144531,1.488923 3.3144531,3.322266 0,1.834 -1.4844062,3.320312 -3.3164062,3.320312 L 14.708984,29.449218 9.59375,20.33789 16.222656,11.59375 13.396484,9.7851563 Z" />
</svg>
