<?xml version="1.0" encoding="UTF-8" standalone="no"?>
<!-- Generated by IcoMoon.io -->

<svg
   version="1.1"
   width="23.445"
   height="32.002998"
   viewBox="0 0 23.445 32.002998"
   id="svg6"
   sodipodi:docname="ddj.svg"
   inkscape:version="1.1.1 (3bf5ae0d25, 2021-09-20)"
   xmlns:inkscape="http://www.inkscape.org/namespaces/inkscape"
   xmlns:sodipodi="http://sodipodi.sourceforge.net/DTD/sodipodi-0.dtd"
   xmlns="http://www.w3.org/2000/svg"
   xmlns:svg="http://www.w3.org/2000/svg">
  <defs
     id="defs10" />
  <sodipodi:namedview
     id="namedview8"
     pagecolor="#ffffff"
     bordercolor="#666666"
     borderopacity="1.0"
     inkscape:pageshadow="2"
     inkscape:pageopacity="0.0"
     inkscape:pagecheckerboard="0"
     showgrid="false"
     inkscape:zoom="25.75"
     inkscape:cx="11.980583"
     inkscape:cy="15.980583"
     inkscape:window-width="1920"
     inkscape:window-height="1009"
     inkscape:window-x="-8"
     inkscape:window-y="-8"
     inkscape:window-maximized="1"
     inkscape:current-layer="svg6" />
  <title
     id="title2">ddj</title>
  <path
     fill="#000000"
     d="m 19.869,22.658 c 2.23,-2.36 3.576,-3.962 3.576,-7.704 0,-2.453 -0.277,-4.284 -0.787,-5.537 -0.091,0.2 -0.32,0.266 -1.301,-0.487 C 19.342,7.384 18.631,4.429 18.554,2.096 18.525,1.215 18.992,0.474 19.431,0 c -1.65,0.679 -3.642,3.008 -3.642,6.728 0,1.25 0.368,2.529 1.054,3.43 2.064,-0.269 2.922,1.039 2.922,1.729 0,0.719 -0.676,1.112 -1.603,0.737 l 1.799,2.256 c 0,2.55 -1.425,4.637 -2.965,4.637 -0.901,0 -1.564,-0.196 -1.806,-1.003 -0.162,-0.543 -0.209,-1.122 -0.256,-1.704 -0.102,-1.246 0.734,-2.249 2.442,-3.03 -0.909,-0.17 -1.699,-0.484 -2.257,-1.079 0.442,-0.817 1.107,-1.673 1.826,-2.392 -0.485,-0.055 -1.581,0.283 -2.246,0.649 -0.478,0.263 -0.818,0.381 -1.361,0.516 C 13.113,11.213 13.095,10.619 13.294,10.13 13.719,9.084 14.253,8.117 14.188,7.042 13.59,7.645 13.069,8.083 12.712,8.255 11.1,9.036 10.35,9.759 9.762,10.538 8.343,11.423 7.35,13.034 6.115,15.106 c -0.373,0.626 -0.352,1.505 -0.087,2.091 0.402,0.889 1.029,2.06 2.608,2.29 -0.444,-0.31 -0.781,-0.86 -0.758,-1.473 0.019,-0.488 0.309,-0.811 1.119,-0.777 0.681,0.028 1.163,0.473 1.163,1.279 0,1.039 -0.947,1.593 -2.195,1.613 C 5.891,20.163 3.451,18.033 3.451,14.883 L 5.25,12.627 C 4.323,13.001 3.647,12.609 3.647,11.89 3.647,11.2 4.505,9.892 6.569,10.161 7.255,9.26 7.623,7.981 7.623,6.731 7.623,3.011 5.631,0.682 3.981,0.003 4.42,0.477 4.887,1.218 4.858,2.099 4.78,4.432 4.07,7.387 2.055,8.933 1.074,9.686 0.845,9.62 0.754,9.42 0.244,10.672 0,12.503 0,14.957 c 0,4.418 0.995,4.342 4.53,7.96 1.825,1.867 3.357,3.49 3.464,5.686 0.087,1.795 -0.4,3.4 0.087,3.4 l 4.129,-4.398 4.129,4.398 c 0.487,0 0.016,-1.605 0.087,-3.4 0.071,-1.783 1.332,-3.711 3.44,-5.942 z"
     id="path4" />
</svg>
