<?xml version="1.0" encoding="UTF-8" standalone="no"?>
<svg
   version="1.1"
   width="27.800566"
   height="28.971809"
   viewBox="0 0 27.800566 28.971809"
   id="svg4"
   xmlns="http://www.w3.org/2000/svg"
   xmlns:svg="http://www.w3.org/2000/svg">
  <defs>
    <!-- This is the gradient that will actually be used on
     the cards. The colors themselves will be provided by the
     template, but the x values, y values, and offsets will be
     used from the SVG. -->
    <linearGradient id="rarity" x1="0" y1="1" x2="1" y2="0">
      <stop offset="0" style="stop-color:rgb(192,55,38);stop-opacity:1" id="stop2" />
      <stop offset="0.125" style="stop-color:rgb(192,55,38);stop-opacity:1" id="stop4" />
      <stop offset="0.5" style="stop-color:rgb(241,142,30);stop-opacity:1" id="stop6" />
      <stop offset="0.875" style="stop-color:rgb(192,55,38);stop-opacity:1" id="stop8" />
      <stop offset="1" style="stop-color:rgb(192,55,38);stop-opacity:1" id="stop10" />
    </linearGradient>
    <!-- These gradients are here so that you can visualize
     what the set symbol would like like in that rarity. The
     only gradient that matters in the end is the "rarity"
     gradient. -->
    <linearGradient id="mythic" x1="0" y1="1" x2="1" y2="0">
      <stop offset="0" style="stop-color:rgb(192,55,38);stop-opacity:1"/>
      <stop offset="0.125" style="stop-color:rgb(192,55,38);stop-opacity:1"/>
      <stop offset="0.5" style="stop-color:rgb(241,142,30);stop-opacity:1"/>
      <stop offset="0.875" style="stop-color:rgb(192,55,38);stop-opacity:1"/>
      <stop offset="1" style="stop-color:rgb(192,55,38);stop-opacity:1"/>
    </linearGradient>
    <linearGradient id="rare" x1="0" y1="1" x2="1" y2="0">
      <stop offset="0" style="stop-color:rgb(146,116,67);stop-opacity:1"/>
      <stop offset="0.125" style="stop-color:rgb(146,116,67);stop-opacity:1"/>
      <stop offset="0.5" style="stop-color:rgb(211,178,108);stop-opacity:1"/>
      <stop offset="0.875" style="stop-color:rgb(146,116,67);stop-opacity:1"/>
      <stop offset="1" style="stop-color:rgb(146,116,67);stop-opacity:1"/>
    </linearGradient>
    <linearGradient id="special" x1="0" y1="1" x2="1" y2="0">
      <stop offset="0" style="stop-color:rgb(76, 56, 106);stop-opacity:1"/>
      <stop offset="0.125" style="stop-color:rgb(76, 56, 106);stop-opacity:1"/>
      <stop offset="0.5" style="stop-color:rgb(201, 173, 221);stop-opacity:1"/>
      <stop offset="0.875" style="stop-color:rgb(76, 56, 106);stop-opacity:1"/>
      <stop offset="1" style="stop-color:rgb(76, 56, 106);stop-opacity:1"/>
    </linearGradient>
    <linearGradient id="uncommon" x1="0" y1="1" x2="1" y2="0">
      <stop offset="0" style="stop-color:rgb(98,110,119);stop-opacity:1"/>
      <stop offset="0.125" style="stop-color:rgb(98,110,119);stop-opacity:1"/>
      <stop offset="0.5" style="stop-color:rgb(196,222,238);stop-opacity:1"/>
      <stop offset="0.875" style="stop-color:rgb(98,110,119);stop-opacity:1"/>
      <stop offset="1" style="stop-color:rgb(98,110,119);stop-opacity:1"/>
    </linearGradient>
    <linearGradient id="common" x1="0" y1="1" x2="1" y2="0">
      <stop offset="0" style="stop-color:rgb(0,0,0);stop-opacity:1"/>
    </linearGradient>
    <linearGradient
            id="rarity-outline" x1="0" y1="1" x2="0" y2="1">
      <stop offset="0" style="stop-color:rgb(0,0,0);stop-opacity:1"/>
    </linearGradient>
  </defs>
  <path fill="url(#rarity-outline)" d="M 10.352659,0.00435472 C 6.9614251,0.12389894 2.766558,2.6032707 0.6846898,8.7875579 -0.91058775,13.525178 0.85467231,18.228636 0.3253148,21.803182 L 0.13586167,23.082479 3.8057836,21.648886 c 1.1388063,2.163425 2.6851747,4.344517 4.3691406,5.623046 l 1.609375,1.220704 -0.421875,-1.97461 C 8.9217063,24.455834 9.1788235,21.62054 9.827268,19.863729 l 0.1347656,-0.363281 -0.21875,-0.318359 C 8.2885225,17.04686 8.2655592,15.297953 8.8682836,13.910604 9.3220979,12.866016 10.226565,12.117083 11.21594,11.574667 l 0.138672,15.654297 v 0.002 c 0.006,0.650194 0.470652,1.173099 0.957031,1.419922 0.484548,0.245893 1.029209,0.329013 1.589844,0.320312 0.580919,-7.67e-4 1.129894,-0.101519 1.605469,-0.351562 0.477352,-0.250979 0.9375,-0.752214 0.9375,-1.396485 l 0.138672,-15.648437 c 0.989573,0.542456 1.895465,1.291315 2.349609,2.335937 0.603162,1.387394 0.57972,3.136316 -0.875,5.271485 l -0.21875,0.318359 0.134766,0.363281 c 0.64829,1.756393 0.903695,4.591698 0.46289,6.654297 l -0.421875,1.97461 1.609375,-1.220704 c 1.683762,-1.278374 3.231881,-3.459405 4.371094,-5.623046 l 3.667969,1.433593 -0.189453,-1.279297 C 26.944431,18.228833 28.711672,13.525366 27.116331,8.7875579 24.895672,2.190985 20.271641,-0.18946129 16.782346,0.01216722 l -1.554687,0.0898438 1.039063,1.15820308 c 1.09085,1.2172168 1.237869,2.261069 1.001953,3.1464844 -0.149749,0.5620192 -0.516302,1.0291382 -0.94336,1.4277344 C 15.961423,4.1967341 15.265625,2.680664 14.557737,1.3852141 L 13.899534,0.18013597 13.241331,1.3852141 C 12.533266,2.6809878 11.839045,4.196954 11.475706,5.8344329 11.048337,5.4357596 10.681976,4.9691972 10.532346,4.4066985 10.296828,3.5213217 10.443381,2.4775049 11.5343,1.2602141 L 12.573362,0.10201097 11.018675,0.01216717 C 10.800594,-4.346293e-4 10.578741,-0.00361493 10.352659,0.00435472 Z" />
  <path fill="url(#rarity)" d="M 10.378049,0.75435472 C 7.3282576,0.85931569 3.4009399,3.0709172 1.3956273,9.0277923 c -1.489,4.4219997 0.245875,9.0087647 -0.328125,12.8847647 l 3.0488282,-1.191406 c 1.104,2.269 2.8337187,4.679125 4.5117187,5.953125 -0.48,-2.246 -0.2159062,-5.141312 0.4960938,-7.070312 -3.132,-4.597 -0.3279188,-8.288344 2.830079,-9.277344 l 0.15039,16.896484 c 0.0062,0.676853 0.853497,1.01572 1.791016,1 0.969977,0 1.798828,-0.381547 1.798828,-1 l 0.15039,-16.896484 c 3.157997,0.989 5.964032,4.680344 2.832032,9.277344 0.712,1.929 0.97414,4.824312 0.49414,7.070312 1.678,-1.274 3.409672,-3.684125 4.513672,-5.953125 l 3.046875,1.191406 c -0.574,-3.876 1.162828,-8.462765 -0.326172,-12.8847647 -2.139,-6.3540002 -6.465077,-8.44757821 -9.580078,-8.2675782 2.443001,2.726 0.984688,5.3935157 -0.945312,6.3535156 v -0.00195 C 15.773255,5.1765025 14.787548,3.3696731 13.899534,1.7445891 13.01152,3.3696731 12.027779,5.1765056 11.921018,7.1117766 l -0.002,0.00195 C 9.9891118,6.153733 8.532705,3.4862141 10.975706,0.7602141 c -0.194688,-0.01125 -0.394337,-0.0128568 -0.597657,-0.005859 z" />
</svg>
