<?xml version="1.0" encoding="UTF-8" standalone="no"?>
<!-- Generated by IcoMoon.io -->

<svg
   version="1.1"
   width="22.495005"
   height="30.633318"
   viewBox="0 0 22.495005 30.633318"
   id="svg6"
   sodipodi:docname="ddm.svg"
   inkscape:version="1.1.1 (3bf5ae0d25, 2021-09-20)"
   xmlns:inkscape="http://www.inkscape.org/namespaces/inkscape"
   xmlns:sodipodi="http://sodipodi.sourceforge.net/DTD/sodipodi-0.dtd"
   xmlns="http://www.w3.org/2000/svg"
   xmlns:svg="http://www.w3.org/2000/svg">
  <defs
     id="defs10" />
  <sodipodi:namedview
     id="namedview8"
     pagecolor="#ffffff"
     bordercolor="#666666"
     borderopacity="1.0"
     inkscape:pageshadow="2"
     inkscape:pageopacity="0.0"
     inkscape:pagecheckerboard="0"
     showgrid="false"
     inkscape:zoom="25.75"
     inkscape:cx="11.514563"
     inkscape:cy="15.281553"
     inkscape:window-width="1920"
     inkscape:window-height="1009"
     inkscape:window-x="-8"
     inkscape:window-y="-8"
     inkscape:window-maximized="1"
     inkscape:current-layer="svg6" />
  <title
     id="title2">ddm</title>
  <path
     fill="#000000"
     d="m 9.5927148,0.002 -0.088,0.015 c -4.56,0.721 -7.956,4.178 -9.09300002,8.3 -1.134,4.113 -0.011,8.888 4.43900002,12.268 0.002,10e-4 0.003,0.003 0.005,0.005 l 4.716,9.389 v -0.326 l 0.019,-11.446 v -0.058 l -0.058,-0.015 c -3.414,-0.9 -5.284,-3.781 -5.368,-6.739 -0.084,-2.958 1.615,-5.993 5.373,-7.206 l 0.053,-0.015 V 0.002 Z m 3.3160002,0 v 4.167 l 0.049,0.019 c 4.84,1.77 6.055,5.739 5.417,8.684 -0.457,2.11 -2.018,3.369 -3.263,4.444 -4.239,3.662 -4.094,8.021 -2.169,10.726 0.963,1.353 2.366,2.295 3.89,2.533 1.518,0.237 3.15,-0.234 4.556,-1.677 10e-4,-0.001 0.004,0.001 0.005,0 0.005,-0.005 0.01,-0.01 0.015,-0.015 l 0.462,-0.477 -0.559,0.36 c -0.005,0.003 -0.009,0.006 -0.015,0.01 -2.189,1.393 -4.611,0.564 -5.742,-1.211 -1.134,-1.779 -0.978,-4.512 2.076,-6.958 4.341,-3.477 5.563,-8.192 4.507,-12.253 -1.056,-4.061 -4.388,-7.47 -9.136,-8.339 L 12.909715,0 Z m -1.638,6.437 c -2.6480002,0 -4.7940002,2.142 -4.7940002,4.789 0,2.647 2.147,4.794 4.7940002,4.794 2.648,0 4.794,-2.146 4.794,-4.794 0,-2.648 -2.146,-4.789 -4.794,-4.789 z"
     id="path4" />
</svg>
