<?xml version="1.0" encoding="UTF-8" standalone="no"?>
<!-- Generated by IcoMoon.io -->

<svg
   version="1.1"
   width="31.874001"
   height="23.063"
   viewBox="0 0 31.874001 23.063"
   id="svg6"
   sodipodi:docname="ddn.svg"
   inkscape:version="1.1.1 (3bf5ae0d25, 2021-09-20)"
   xmlns:inkscape="http://www.inkscape.org/namespaces/inkscape"
   xmlns:sodipodi="http://sodipodi.sourceforge.net/DTD/sodipodi-0.dtd"
   xmlns="http://www.w3.org/2000/svg"
   xmlns:svg="http://www.w3.org/2000/svg">
  <defs
     id="defs10" />
  <sodipodi:namedview
     id="namedview8"
     pagecolor="#ffffff"
     bordercolor="#666666"
     borderopacity="1.0"
     inkscape:pageshadow="2"
     inkscape:pageopacity="0.0"
     inkscape:pagecheckerboard="0"
     showgrid="false"
     inkscape:zoom="25.75"
     inkscape:cx="15.902913"
     inkscape:cy="11.514563"
     inkscape:window-width="1920"
     inkscape:window-height="1009"
     inkscape:window-x="-8"
     inkscape:window-y="-8"
     inkscape:window-maximized="1"
     inkscape:current-layer="svg6" />
  <title
     id="title2">ddn</title>
  <path
     fill="#000000"
     d="m 23.238,14.911 c 0.125,0 0.253,0.004 0.383,0.012 0.853,0.05 1.476,0.081 2.053,0.081 0.655,0 1.252,-0.039 2.063,-0.133 -0.387,-0.558 -0.666,-0.905 -1.208,-1.352 1.907,-0.201 2.955,-0.53 4.418,-1.296 -0.709,-0.448 -1.143,-0.75 -2.068,-1.096 C 30.12,10.464 31.126,9.803 31.874,9.062 31.049,8.659 30.278,8.485 29.326,8.26 30.434,7.179 31.274,5.948 31.874,4.15 28.47,4.525 27.042,5.726 25.919,5.745 24.967,5.745 24.025,4.26 23.199,3.388 20.762,0.814 18.124,0 15.937,0 13.75,0 11.113,0.814 8.675,3.388 7.849,4.26 6.908,5.745 5.955,5.745 4.832,5.726 3.404,4.525 0,4.15 0.6,5.948 1.44,7.179 2.548,8.26 1.595,8.485 0.824,8.659 0,9.062 c 0.748,0.741 1.754,1.402 2.995,2.065 -0.925,0.346 -1.36,0.648 -2.068,1.096 1.463,0.766 2.511,1.095 4.418,1.296 -0.542,0.447 -0.821,0.794 -1.208,1.352 0.811,0.094 1.408,0.133 2.063,0.133 0.577,0 1.2,-0.03 2.053,-0.081 0.13,-0.008 0.258,-0.012 0.383,-0.012 2.454,0 3.843,1.468 3.245,3.956 l 2.565,4.196 V 13.282 C 10.136,12.664 8.538,9.405 8.538,7.628 c 0,-0.242 0.019,-0.481 0.057,-0.715 0.754,-0.875 1.955,-1.596 3.43,-2.062 -0.262,0.535 -0.409,1.131 -0.409,1.761 0,2.288 1.934,4.143 4.319,4.143 2.385,0 4.319,-1.855 4.319,-4.143 0,-0.63 -0.147,-1.227 -0.409,-1.761 1.475,0.466 2.676,1.188 3.43,2.062 0.037,0.234 0.057,0.473 0.057,0.715 0,1.777 -1.598,5.036 -5.908,5.654 v 9.781 l 2.565,-4.196 c -0.598,-2.488 0.791,-3.956 3.245,-3.956 z"
     id="path4" />
</svg>
