<?xml version="1.0" encoding="UTF-8" standalone="no"?>
<!-- Generated by IcoMoon.io -->

<svg
   version="1.1"
   width="25.985323"
   height="27.56719"
   viewBox="0 0 25.985323 27.56719"
   id="svg8"
   sodipodi:docname="ddp.svg"
   inkscape:version="1.1.1 (3bf5ae0d25, 2021-09-20)"
   xmlns:inkscape="http://www.inkscape.org/namespaces/inkscape"
   xmlns:sodipodi="http://sodipodi.sourceforge.net/DTD/sodipodi-0.dtd"
   xmlns="http://www.w3.org/2000/svg"
   xmlns:svg="http://www.w3.org/2000/svg">
  <defs
     id="defs12" />
  <sodipodi:namedview
     id="namedview10"
     pagecolor="#ffffff"
     bordercolor="#666666"
     borderopacity="1.0"
     inkscape:pageshadow="2"
     inkscape:pageopacity="0.0"
     inkscape:pagecheckerboard="0"
     showgrid="false"
     inkscape:zoom="25.75"
     inkscape:cx="13.417476"
     inkscape:cy="13.76699"
     inkscape:window-width="1920"
     inkscape:window-height="1009"
     inkscape:window-x="-8"
     inkscape:window-y="-8"
     inkscape:window-maximized="1"
     inkscape:current-layer="svg8" />
  <title
     id="title2">ddp</title>
  <path
     fill="#000000"
     d="m 14.36,0 c 2.19,1.376 4.281,2.906 6.275,4.55 1.507,1.271 2.982,2.61 4.164,4.197 0.652,0.907 1.27,1.961 1.177,3.121 -0.05,1.514 -0.928,2.853 -2.001,3.862 -1.577,1.524 -3.533,2.619 -4.972,4.291 -0.803,0.926 -1.344,2.118 -1.317,3.36 0.026,0.669 0.077,1.39 0.455,1.965 0.26,0.392 0.791,0.461 1.209,0.319 0.588,-0.192 1.146,-0.612 1.37,-1.205 0.132,-0.302 -0.075,-0.686 -0.404,-0.726 -0.274,-0.025 -0.547,0.037 -0.817,0.073 0.025,-0.273 0.195,-0.505 0.471,-0.563 0.487,-0.13 1.144,-0.203 1.493,0.245 0.425,0.551 0.394,1.327 0.13,1.942 -0.351,0.822 -0.968,1.586 -1.821,1.916 -0.906,0.323 -1.962,0.304 -2.821,-0.146 -0.934,-0.525 -1.55,-1.463 -1.978,-2.421 -0.4,-0.957 -0.741,-1.998 -0.564,-3.047 0.253,-1.537 1.083,-2.93 2.122,-4.068 0.963,-1.089 2.354,-1.701 3.256,-2.851 0.405,-0.499 0.677,-1.16 0.525,-1.808 -0.11,-0.424 -0.316,-0.87 -0.714,-1.093 -0.41,-0.216 -0.9,-0.108 -1.308,0.056 -0.904,0.384 -1.621,1.074 -2.366,1.692 -0.54,0.442 -1.045,0.923 -1.564,1.387 C 14.357,10.032 14.359,5.017 14.359,10e-4 Z"
     id="path4" />
  <path
     fill="#000000"
     d="m 8.698,1.919 c 0.521,-0.465 1.005,-0.97 1.555,-1.402 0.027,5.851 0.003,11.703 0.011,17.555 -0.008,2.349 0.017,4.698 -0.012,7.047 C 10.114,24.95 9.982,24.776 9.859,24.597 6.582,19.713 3.27,14.854 0,9.966 2.903,7.287 5.799,4.601 8.698,1.92 Z"
     id="path6" />
</svg>
