<?xml version="1.0" encoding="UTF-8" standalone="no"?>
<!-- Generated by IcoMoon.io -->

<svg
   version="1.1"
   width="29.374001"
   height="27.398001"
   viewBox="0 0 29.374001 27.398001"
   id="svg6"
   sodipodi:docname="ddr.svg"
   inkscape:version="1.1.1 (3bf5ae0d25, 2021-09-20)"
   xmlns:inkscape="http://www.inkscape.org/namespaces/inkscape"
   xmlns:sodipodi="http://sodipodi.sourceforge.net/DTD/sodipodi-0.dtd"
   xmlns="http://www.w3.org/2000/svg"
   xmlns:svg="http://www.w3.org/2000/svg">
  <defs
     id="defs10" />
  <sodipodi:namedview
     id="namedview8"
     pagecolor="#ffffff"
     bordercolor="#666666"
     borderopacity="1.0"
     inkscape:pageshadow="2"
     inkscape:pageopacity="0.0"
     inkscape:pagecheckerboard="0"
     showgrid="false"
     inkscape:zoom="25.75"
     inkscape:cx="15.281553"
     inkscape:cy="14.194175"
     inkscape:window-width="1920"
     inkscape:window-height="1009"
     inkscape:window-x="-8"
     inkscape:window-y="-8"
     inkscape:window-maximized="1"
     inkscape:current-layer="svg6" />
  <title
     id="title2">ddr</title>
  <path
     fill="#000000"
     d="M 3.995,1.253 C 4.315,0.83 4.67,0.431 4.982,0 5.119,0.986 4.985,2.008 5.297,2.964 5.305,3.267 5.605,3.422 5.865,3.478 7.131,3.908 8.333,4.527 9.615,4.908 9.283,5.676 8.817,6.377 8.412,7.108 7.438,8.841 6.442,10.561 5.472,12.296 5.269,12.623 5.132,13.048 4.737,13.187 3.155,13.965 1.589,14.78 0,15.542 0.012,15.239 -0.008,14.923 0.124,14.643 0.303,14.252 0.224,13.801 0.396,13.409 0.569,13.017 0.477,12.563 0.651,12.172 0.911,11.609 0.656,10.865 1.195,10.43 2.625,9.175 4.015,7.878 5.375,6.547 5.023,5.796 4.583,5.088 4.198,4.351 3.822,3.876 3.938,3.246 3.957,2.687 3.985,2.209 3.918,1.727 3.996,1.253 Z M 24.357,0.065 c -0.065,0.795 -0.079,1.594 -0.139,2.391 -0.071,0.368 -0.143,0.829 -0.547,0.969 -1.33,0.446 -2.593,1.078 -3.931,1.494 1.487,2.729 3.063,5.411 4.59,8.119 1.672,0.852 3.345,1.717 5.044,2.509 C 29.349,15.22 29.359,14.879 29.221,14.574 29.016,14.156 29.146,13.659 28.949,13.24 28.742,12.826 28.868,12.333 28.665,11.918 28.512,11.559 28.557,11.158 28.469,10.784 27.645,9.865 26.672,9.098 25.78,8.248 25.145,7.716 24.591,7.095 23.966,6.551 24.425,5.697 24.914,4.858 25.36,3.999 25.457,3.087 25.413,2.155 25.345,1.242 25.082,0.803 24.711,0.435 24.358,0.065 Z m -10.05,3.476 c -1.394,2.401 -2.879,4.755 -4.229,7.18 1.378,-0.718 2.723,-1.506 4.073,-2.279 0.283,-0.196 0.671,-0.295 0.989,-0.121 0.951,0.58 1.932,1.113 2.895,1.673 0.432,0.263 0.871,0.522 1.347,0.695 C 17.849,8.089 16.311,5.49 14.81,2.871 14.627,3.083 14.437,3.29 14.307,3.541 Z m -0.817,9.032 c -1.385,0.748 -2.795,1.447 -4.181,2.192 0.222,0.704 0.578,1.358 0.843,2.048 1.458,3.429 2.919,6.86 4.376,10.29 0.075,0.063 0.224,0.191 0.299,0.253 0.387,-1.23 0.971,-2.391 1.437,-3.594 0.918,-2.233 1.85,-4.46 2.77,-6.693 0.339,-0.758 0.591,-1.555 0.997,-2.283 -1.704,-1.001 -3.491,-1.856 -5.232,-2.788 -0.486,0.04 -0.866,0.399 -1.307,0.575 z m 9.798,3.79 c -0.35,0.915 -0.826,1.774 -1.214,2.672 -1.109,2.443 -2.241,4.873 -3.359,7.311 -0.129,0.289 -0.305,0.567 -0.309,0.895 0.048,-0.019 0.147,-0.057 0.196,-0.076 0.86,-0.927 1.917,-1.638 2.808,-2.531 0.666,-0.627 1.417,-1.157 2.064,-1.804 0.67,-0.67 1.462,-1.202 2.134,-1.869 0.743,-0.748 1.625,-1.343 2.371,-2.09 0.035,-0.084 0.104,-0.252 0.139,-0.336 -1.11,-0.555 -2.188,-1.171 -3.284,-1.75 -0.426,-0.24 -0.895,-0.414 -1.265,-0.74 -0.093,0.105 -0.191,0.208 -0.28,0.319 z m -17.9,-0.046 c -0.612,0.329 -1.211,0.688 -1.834,0.999 -0.814,0.41 -1.578,0.931 -2.443,1.231 0.623,0.791 1.513,1.302 2.216,2.014 0.727,0.747 1.604,1.326 2.336,2.068 0.426,0.422 0.901,0.79 1.358,1.175 0.62,0.49 1.138,1.095 1.769,1.573 0.812,0.638 1.51,1.406 2.34,2.021 C 10.032,24.962 8.902,22.538 7.783,20.11 7.243,18.817 6.544,17.59 6.073,16.271 5.844,16.214 5.605,16.206 5.389,16.316 Z"
     id="path4" />
</svg>
