<?xml version="1.0" encoding="UTF-8" standalone="no"?>
<svg
   width="109.52456"
   height="107.69326"
   viewBox="0 0 109.52456 107.69326"
   version="1.1"
   xml:space="preserve"
   style="clip-rule:evenodd;fill-rule:evenodd;stroke-linecap:round;stroke-miterlimit:5"
   id="svg4"
   xmlns="http://www.w3.org/2000/svg"
   xmlns:svg="http://www.w3.org/2000/svg">
  <defs>
    <!-- This is the gradient that will actually be used on
     the cards. The colors themselves will be provided by the
     template, but the x values, y values, and offsets will be
     used from the SVG. -->
    <linearGradient id="rarity" x1="0" y1="1" x2="0" y2="0">
      <stop offset="0" style="stop-color:rgb(192,55,38);stop-opacity:1" id="stop2" />
      <stop offset="0.125" style="stop-color:rgb(192,55,38);stop-opacity:1" id="stop4" />
      <stop offset="0.5" style="stop-color:rgb(241,142,30);stop-opacity:1" id="stop6" />
      <stop offset="0.875" style="stop-color:rgb(192,55,38);stop-opacity:1" id="stop8" />
      <stop offset="1" style="stop-color:rgb(192,55,38);stop-opacity:1" id="stop10" />
    </linearGradient>
    <!-- These gradients are here so that you can visualize
     what the set symbol would like like in that rarity. The
     only gradient that matters in the end is the "rarity"
     gradient. -->
    <linearGradient id="mythic" x1="0" y1="1" x2="1" y2="0">
      <stop offset="0" style="stop-color:rgb(192,55,38);stop-opacity:1"/>
      <stop offset="0.125" style="stop-color:rgb(192,55,38);stop-opacity:1"/>
      <stop offset="0.5" style="stop-color:rgb(241,142,30);stop-opacity:1"/>
      <stop offset="0.875" style="stop-color:rgb(192,55,38);stop-opacity:1"/>
      <stop offset="1" style="stop-color:rgb(192,55,38);stop-opacity:1"/>
    </linearGradient>
    <linearGradient id="rare" x1="0" y1="1" x2="1" y2="0">
      <stop offset="0" style="stop-color:rgb(146,116,67);stop-opacity:1"/>
      <stop offset="0.125" style="stop-color:rgb(146,116,67);stop-opacity:1"/>
      <stop offset="0.5" style="stop-color:rgb(211,178,108);stop-opacity:1"/>
      <stop offset="0.875" style="stop-color:rgb(146,116,67);stop-opacity:1"/>
      <stop offset="1" style="stop-color:rgb(146,116,67);stop-opacity:1"/>
    </linearGradient>
    <linearGradient id="special" x1="0" y1="1" x2="1" y2="0">
      <stop offset="0" style="stop-color:rgb(76, 56, 106);stop-opacity:1"/>
      <stop offset="0.125" style="stop-color:rgb(76, 56, 106);stop-opacity:1"/>
      <stop offset="0.5" style="stop-color:rgb(201, 173, 221);stop-opacity:1"/>
      <stop offset="0.875" style="stop-color:rgb(76, 56, 106);stop-opacity:1"/>
      <stop offset="1" style="stop-color:rgb(76, 56, 106);stop-opacity:1"/>
    </linearGradient>
    <linearGradient id="uncommon" x1="0" y1="1" x2="1" y2="0">
      <stop offset="0" style="stop-color:rgb(98,110,119);stop-opacity:1"/>
      <stop offset="0.125" style="stop-color:rgb(98,110,119);stop-opacity:1"/>
      <stop offset="0.5" style="stop-color:rgb(196,222,238);stop-opacity:1"/>
      <stop offset="0.875" style="stop-color:rgb(98,110,119);stop-opacity:1"/>
      <stop offset="1" style="stop-color:rgb(98,110,119);stop-opacity:1"/>
    </linearGradient>
    <linearGradient id="common" x1="0" y1="1" x2="1" y2="0">
      <stop offset="0" style="stop-color:rgb(0,0,0);stop-opacity:1"/>
    </linearGradient>
    <linearGradient
            id="rarity-outline" x1="0" y1="1" x2="0" y2="1">
      <stop offset="0" style="stop-color:rgb(0,0,0);stop-opacity:1"/>
    </linearGradient>
  </defs>
    <path fill="url(#rarity)" d="m 54.762279,103.52098 19.54,-48.289999 -19.54,-9.22 -19.54,9.22 z m -28.91,-43.909999 -19.0699996,9.84 37.0399996,31.729999 z m 57.82,0 19.070001,9.84 -37.040001,31.729999 z m -44.38,-37.66 -14.69,-6.25 -1.72,-12.5100003 -6.41,5.94 v 9.6900003 l 4.69,9.06 -14.3799996,13.29 -4.53,19.69 20.6299996,-9.85 z m 30.95,0 14.68,-6.25 1.72,-12.5100003 6.41,5.94 v 9.6900003 l -4.69,9.06 14.380001,13.29 4.53,19.69 -20.630001,-9.85 z m -15.48,13.75 -19.54,10.31 19.54,-34.22 19.54,34.22 z"/>
  <path fill="url(#rarity-outline)" d="M 24.023437,0 14.908203,8.4472656 V 19.201172 L 19.224609,27.541016 5.3652344,40.349609 0,63.669922 24.001953,52.210937 41.515625,21.195312 39.904297,20.511719 26.03125,14.609375 Z M 85.501953,0 83.492187,14.609375 68.019531,21.197266 68.878906,22.720703 85.521484,52.210937 109.52539,63.669922 104.1582,40.349609 90.300781,27.541016 94.617187,19.201172 V 8.4472656 Z M 21.742187,6.3828125 23.171875,16.792969 37.068359,22.705078 21.761719,49.810547 4.5039062,58.052734 8.1992188,41.992187 23.099609,28.220703 l -5.0625,-9.78125 V 9.8144531 Z m 66.041016,0 3.703125,3.4316406 v 8.6249999 l -5.0625,9.78125 14.902342,13.771484 3.69531,16.060547 L 87.761719,49.8125 72.464844,22.705078 86.351562,16.792969 Z M 54.761719,8.6347656 31.197266,49.904297 54.761719,37.470703 78.328125,49.904297 Z m 0,6.3125004 15.515625,27.169921 -15.515625,-8.185546 -0.730469,0.384765 -14.783203,7.800781 z m 0,29.333984 -21.544922,10.166016 21.544922,53.246094 1.451172,-3.58594 20.095703,-49.660154 z m 0,3.460937 17.535156,8.273438 L 54.761719,99.349609 37.228516,56.015625 Z M 26.623047,57.451172 25.134766,58.220703 3.9980469,69.126953 47.945312,106.77344 Z m 56.277344,0 -0.664063,1.539062 -20.65625,47.783206 43.947262,-37.646487 z M 25.080078,61.769531 39.701172,95.589844 9.5664063,69.775391 Z m 59.365234,0 15.511719,8.00586 -30.130859,25.8125 z"/>
</svg>
