<?xml version="1.0" encoding="UTF-8" standalone="no"?>
<svg
   version="1.1"
   width="33.998047"
   height="30.458111"
   viewBox="0 0 33.998047 30.458111"
   id="svg4"
   xmlns="http://www.w3.org/2000/svg"
   xmlns:svg="http://www.w3.org/2000/svg">
  <defs>
    <!-- This is the gradient that will actually be used on
     the cards. The colors themselves will be provided by the
     template, but the x values, y values, and offsets will be
     used from the SVG. -->
    <linearGradient id="rarity" x1="0" y1="1" x2="1" y2="0">
      <stop offset="0" style="stop-color:rgb(192,55,38);stop-opacity:1" id="stop2" />
      <stop offset="0.125" style="stop-color:rgb(192,55,38);stop-opacity:1" id="stop4" />
      <stop offset="0.5" style="stop-color:rgb(241,142,30);stop-opacity:1" id="stop6" />
      <stop offset="0.875" style="stop-color:rgb(192,55,38);stop-opacity:1" id="stop8" />
      <stop offset="1" style="stop-color:rgb(192,55,38);stop-opacity:1" id="stop10" />
    </linearGradient>
    <!-- These gradients are here so that you can visualize
     what the set symbol would like like in that rarity. The
     only gradient that matters in the end is the "rarity"
     gradient. -->
    <linearGradient id="mythic" x1="0" y1="1" x2="1" y2="0">
      <stop offset="0" style="stop-color:rgb(192,55,38);stop-opacity:1"/>
      <stop offset="0.125" style="stop-color:rgb(192,55,38);stop-opacity:1"/>
      <stop offset="0.5" style="stop-color:rgb(241,142,30);stop-opacity:1"/>
      <stop offset="0.875" style="stop-color:rgb(192,55,38);stop-opacity:1"/>
      <stop offset="1" style="stop-color:rgb(192,55,38);stop-opacity:1"/>
    </linearGradient>
    <linearGradient id="rare" x1="0" y1="1" x2="1" y2="0">
      <stop offset="0" style="stop-color:rgb(146,116,67);stop-opacity:1"/>
      <stop offset="0.125" style="stop-color:rgb(146,116,67);stop-opacity:1"/>
      <stop offset="0.5" style="stop-color:rgb(211,178,108);stop-opacity:1"/>
      <stop offset="0.875" style="stop-color:rgb(146,116,67);stop-opacity:1"/>
      <stop offset="1" style="stop-color:rgb(146,116,67);stop-opacity:1"/>
    </linearGradient>
    <linearGradient id="special" x1="0" y1="1" x2="1" y2="0">
      <stop offset="0" style="stop-color:rgb(76, 56, 106);stop-opacity:1"/>
      <stop offset="0.125" style="stop-color:rgb(76, 56, 106);stop-opacity:1"/>
      <stop offset="0.5" style="stop-color:rgb(201, 173, 221);stop-opacity:1"/>
      <stop offset="0.875" style="stop-color:rgb(76, 56, 106);stop-opacity:1"/>
      <stop offset="1" style="stop-color:rgb(76, 56, 106);stop-opacity:1"/>
    </linearGradient>
    <linearGradient id="uncommon" x1="0" y1="1" x2="1" y2="0">
      <stop offset="0" style="stop-color:rgb(98,110,119);stop-opacity:1"/>
      <stop offset="0.125" style="stop-color:rgb(98,110,119);stop-opacity:1"/>
      <stop offset="0.5" style="stop-color:rgb(196,222,238);stop-opacity:1"/>
      <stop offset="0.875" style="stop-color:rgb(98,110,119);stop-opacity:1"/>
      <stop offset="1" style="stop-color:rgb(98,110,119);stop-opacity:1"/>
    </linearGradient>
    <linearGradient id="common" x1="0" y1="1" x2="1" y2="0">
      <stop offset="0" style="stop-color:rgb(0,0,0);stop-opacity:1"/>
    </linearGradient>
    <linearGradient
            id="rarity-outline" x1="0" y1="1" x2="0" y2="1">
      <stop offset="0" style="stop-color:rgb(0,0,0);stop-opacity:1"/>
    </linearGradient>
  </defs>
  <path fill="url(#rarity-outline)" d="m 19.925781,0 2.15625,2.0410157 c 0,0 0.549072,0.5180553 1.238281,1.4023437 0.399181,0.5121657 0.788005,1.0880688 1.0625,1.7128906 0.572124,1.3012485 0.730042,2.7617908 0.384766,3.5957031 -0.318957,0.7683622 -1.140667,2.0049409 -2.248047,3.4667969 L 17.201172,6.2734375 C 15.368222,8.5038327 13.446785,10.869719 11.869141,12.806641 10.52887,11.106806 9.5893198,9.7236983 9.2167969,8.9082031 8.9467271,8.316028 8.943425,7.5113601 9.2011719,6.6308594 9.4589187,5.7503587 9.970707,4.8280062 10.550781,4.1113281 L 13.832031,0.05664063 9.0039062,0.41210938 8.7929688,0.54492188 C 7.147671,1.5785766 5.7506981,3.0376479 4.8632812,4.8046875 l -0.00195,0.00586 -0.00391,0.00586 C 4.1862274,6.197456 3.8107545,7.7125117 4.265625,9.7285157 4.3993225,10.320098 4.6222766,10.940412 4.8574219,11.494141 h -0.00195 c 0.3841248,0.906195 1.3394163,2.336762 2.7597656,4.300781 0.1855358,0.256554 0.4899191,0.601548 0.6894531,0.871094 L 8.0507812,16.927735 C 7.0001193,18.010656 6.0514939,18.950617 5.3515625,19.585938 5.0906586,19.822757 4.9123946,19.961809 4.7382812,20.099609 4.6528645,20.008941 4.5791093,19.937858 4.4765625,19.816406 4.1273808,19.402853 3.709184,18.844593 3.3164062,18.292969 2.5308504,17.189721 1.8417969,16.113281 1.8417969,16.113281 L 0,13.230469 v 3.421875 5.919922 l 0.17773438,0.257812 c 0,0 1.35142812,1.952257 3.33398442,3.869141 1.9825562,1.916883 4.6201559,3.952478 7.5546872,3.74414 1.84293,-0.130155 3.608397,-1.501574 5.583985,-3.298828 0.109966,-0.100039 0.219511,-0.252338 0.330078,-0.355468 l 0.162109,0.15039 c 2.035959,1.897144 3.834395,3.345939 5.720703,3.480469 2.928705,0.207923 5.582094,-1.798285 7.582031,-3.691406 1.999939,-1.893122 3.369141,-3.822266 3.369141,-3.822266 l 0.183594,-0.259765 v -9.330079 l -1.833985,2.78711 c 0,0 -0.705085,1.071949 -1.507812,2.169922 -0.401363,0.548986 -0.827638,1.103218 -1.183594,1.515625 -0.03589,0.04158 -0.05747,0.0592 -0.0918,0.09766 l -3.28125,-3.667969 c 1.473175,-1.8966 2.261721,-2.973237 2.6875,-4.130859 0.88205,-2.3947191 0.901018,-3.5160881 0.734375,-5.1601566 C 29.268885,4.4447819 27.939692,2.1913339 25.888672,0.77148438 L 25.679688,0.62695313 Z m -2.943359,15.097656 1.71875,1.712891 -0.115234,0.126953 c -0.487954,0.540126 -1.16321,1.09373 -1.681641,1.640625 l -0.04492,-0.04883 C 16.253913,17.891148 15.875698,17.3826 15.322266,16.767578 Z m -5.546875,5.519532 c 0.525903,0.641327 0.904242,1.199936 1.460937,1.84375 l 0.01367,0.01563 c -0.938957,0.884725 -1.707393,1.772479 -2.707029,2.642573 C 9.9424391,24.967384 9.556329,24.67547 9.1835938,24.353516 8.7872949,24.011208 8.6944939,23.89567 8.4199219,23.623047 Z m 11.183594,0.101562 2.890625,2.880859 c -0.274567,0.272633 -0.36742,0.388148 -0.763672,0.730469 -0.377602,0.326209 -0.772716,0.625562 -1.033203,0.775391 -0.853259,-0.74304 -1.697735,-1.499926 -2.519532,-2.269531 L 20.90625,22.566406 c 0.556432,-0.636414 1.146881,-1.161835 1.677734,-1.804687 z" />
  <path fill="url(#rarity)" d="m 1,16.652297 c 0,0 2.793,4.369 3.636,4.66 0.308,0.106 2.015,-1.506 4.132,-3.688 l 1.875,2.373 -3.654,3.639 c 0,0 2.916,3.092 3.58,2.519 3.253,-2.807 6.215,-5.732 8.759,-8.548 l 2.485,2.518 c -3.716,4.5 -8.241,9.138 -10.818,9.32 -4.775,0.339 -9.995,-7.186 -9.995,-7.186 v -5.608 z m 16.235,-8.8430001 -0.011,0.007 -4.638,5.6930001 2.108,2.473 2.285,-2.299 9.961,9.93 c 0,0 -2.916,3.092 -3.579,2.519 -0.969,-0.836 -1.923,-1.696 -2.852,-2.566 l -2.685,2.641 c 1.98,1.845 3.807,3.123 5.111,3.216 4.775,0.339 10.064,-7.097 10.064,-7.097 v -5.672 c 0,0 -2.861,4.345 -3.705,4.636 z m -7.91,-6.418 c -1.501,0.943 -2.771,2.276 -3.568,3.863 -0.625,1.286 -0.928,2.428 -0.516,4.254 0.113,0.5000001 0.319,1.0840001 0.536,1.5950001 0.543,1.281 3.894,6.1 7.875,10.704 l 2.482,-2.589 C 12.133,15.001297 9.19,11.259297 8.306,9.3222969 7.4983506,7.551385 8.4545865,5.1121024 9.7731116,3.4830729 L 11.601553,1.2240444 Z m 13.445388,-0.075961 c 0,0 0.60588,0.573684 1.338169,1.5132443 0.427338,0.5482947 0.867625,1.1909009 1.190443,1.9257169 0.645,1.467 0.906,3.142 0.393,4.381 -0.398237,0.9593471 -1.161649,2.2049831 -2.454623,3.8720921 l 2.186678,2.476263 c 1.427923,-1.841404 2.065509,-2.76411 2.424945,-3.741355 0.856,-2.3240001 0.842,-3.0960001 0.678,-4.7140001 -0.223,-2.192 -1.397,-4.182 -3.207,-5.435 z"/>
</svg>
