<?xml version="1.0" encoding="UTF-8" standalone="no"?>
<!-- Generated by IcoMoon.io -->

<svg
   version="1.1"
   width="31.999001"
   height="28.80212"
   viewBox="0 0 31.999001 28.80212"
   id="svg6"
   sodipodi:docname="dds.svg"
   inkscape:version="1.1.1 (3bf5ae0d25, 2021-09-20)"
   xmlns:inkscape="http://www.inkscape.org/namespaces/inkscape"
   xmlns:sodipodi="http://sodipodi.sourceforge.net/DTD/sodipodi-0.dtd"
   xmlns="http://www.w3.org/2000/svg"
   xmlns:svg="http://www.w3.org/2000/svg">
  <defs
     id="defs10" />
  <sodipodi:namedview
     id="namedview8"
     pagecolor="#ffffff"
     bordercolor="#666666"
     borderopacity="1.0"
     inkscape:pageshadow="2"
     inkscape:pageopacity="0.0"
     inkscape:pagecheckerboard="0"
     showgrid="false"
     inkscape:zoom="26.5625"
     inkscape:cx="15.981176"
     inkscape:cy="15.228235"
     inkscape:window-width="1920"
     inkscape:window-height="1009"
     inkscape:window-x="-8"
     inkscape:window-y="-8"
     inkscape:window-maximized="1"
     inkscape:current-layer="svg6" />
  <title
     id="title2">dds</title>
  <path
     fill="#000000"
     d="m 0,15.998 c 0,0 2.793,4.369 3.636,4.66 0.308,0.106 2.015,-1.506 4.132,-3.688 l 1.875,2.373 -3.654,3.639 c 0,0 2.916,3.092 3.58,2.519 3.253,-2.807 6.215,-5.732 8.759,-8.548 l 2.485,2.518 c -3.716,4.5 -8.241,9.138 -10.818,9.32 C 5.22,29.13 0,21.605 0,21.605 V 15.997 Z M 16.235,7.155 16.224,7.162 c -0.277,0.542 -0.653,0.982 -0.993,1.413 -1.16,1.472 -2.396,2.883 -3.645,4.28 l 2.108,2.473 2.285,-2.299 9.961,9.93 c 0,0 -2.916,3.092 -3.579,2.519 -0.969,-0.836 -1.923,-1.696 -2.852,-2.566 l -2.685,2.641 c 1.98,1.845 3.807,3.123 5.111,3.216 4.775,0.339 10.064,-7.097 10.064,-7.097 V 16 c 0,0 -2.861,4.345 -3.705,4.636 C 27.45,20.927 16.408,8.143 16.267,7.246 16.262,7.217 16.245,7.181 16.236,7.157 Z m -6.2,-7.133 C 9.427,0.055 8.825,0.423 8.325,0.737 6.824,1.68 5.554,3.013 4.757,4.6 4.132,5.886 3.829,7.028 4.241,8.854 c 0.113,0.5 0.319,1.084 0.536,1.595 0.543,1.281 3.894,6.1 7.875,10.704 l 2.482,-2.589 C 11.133,14.347 8.19,10.605 7.306,8.668 5.941,5.675 10.248,1.221 10.248,0.172 10.237,0.055 10.14,0.025 10.035,0.022 Z M 22.059,0 c -0.162,0.003 -0.342,0.006 -0.377,0.197 0,0.594 1.741,1.909 2.617,3.903 0.645,1.467 0.906,3.142 0.393,4.381 -0.423,1.019 -1.258,2.361 -2.702,4.188 l 2.219,2.437 c 1.58,-2.028 2.263,-2.993 2.64,-4.018 C 27.705,8.764 27.691,7.992 27.527,6.374 27.304,4.182 26.13,2.192 24.32,0.939 23.666,0.486 22.921,0.1 22.123,0.001 H 22.06 Z"
     id="path4" />
</svg>
