<?xml version="1.0" encoding="UTF-8" standalone="no"?>
<!-- Generated by IcoMoon.io -->

<svg
   version="1.1"
   width="31.91"
   height="22.607"
   viewBox="0 0 31.91 22.607"
   id="svg6"
   sodipodi:docname="dgm.svg"
   inkscape:version="1.1.1 (3bf5ae0d25, 2021-09-20)"
   xmlns:inkscape="http://www.inkscape.org/namespaces/inkscape"
   xmlns:sodipodi="http://sodipodi.sourceforge.net/DTD/sodipodi-0.dtd"
   xmlns="http://www.w3.org/2000/svg"
   xmlns:svg="http://www.w3.org/2000/svg">
  <defs
     id="defs10" />
  <sodipodi:namedview
     id="namedview8"
     pagecolor="#ffffff"
     bordercolor="#666666"
     borderopacity="1.0"
     inkscape:pageshadow="2"
     inkscape:pageopacity="0.0"
     inkscape:pagecheckerboard="0"
     showgrid="false"
     inkscape:zoom="26.5625"
     inkscape:cx="15.943529"
     inkscape:cy="11.727059"
     inkscape:window-width="1920"
     inkscape:window-height="1009"
     inkscape:window-x="-8"
     inkscape:window-y="-8"
     inkscape:window-maximized="1"
     inkscape:current-layer="svg6" />
  <title
     id="title2">dgm</title>
  <path
     fill="#000000"
     d="m 15.965,0 2.251,3.975 h 2.423 l -3.183,4.782 5.657,5.916 c -1.072,1.723 -1.832,5.34 -0.859,7.934 H 9.564 C 10.584,20.25 9.835,16.45 8.778,14.679 L 14.45,8.758 11.293,3.976 h 2.277 l 2.396,-3.975 z m 4.021,9.047 c 1.365,0.406 7.819,5.248 7.256,13.559 H 31.91 L 22.543,5.134 Z M 9.367,5.134 0,22.606 H 4.668 C 4.105,14.294 10.559,9.452 11.924,9.046 L 9.368,5.133 Z m 9.931,11.001 c 0,-1.358 -0.808,-2.529 -1.969,-3.055 L 17.305,8.742 15.944,0.606 14.572,8.773 14.533,13.092 c -1.147,0.533 -1.943,1.696 -1.943,3.044 0,1.852 1.501,3.354 3.354,3.354 1.853,0 3.354,-1.501 3.354,-3.353 z"
     id="path4" />
</svg>
