<?xml version="1.0" encoding="UTF-8" standalone="no"?>
<!-- Generated by IcoMoon.io -->

<svg
   version="1.1"
   width="29.57"
   height="29.601"
   viewBox="0 0 29.57 29.601"
   id="svg6"
   sodipodi:docname="dimir.svg"
   inkscape:version="1.1.1 (3bf5ae0d25, 2021-09-20)"
   xmlns:inkscape="http://www.inkscape.org/namespaces/inkscape"
   xmlns:sodipodi="http://sodipodi.sourceforge.net/DTD/sodipodi-0.dtd"
   xmlns="http://www.w3.org/2000/svg"
   xmlns:svg="http://www.w3.org/2000/svg">
  <defs
     id="defs10" />
  <sodipodi:namedview
     id="namedview8"
     pagecolor="#ffffff"
     bordercolor="#666666"
     borderopacity="1.0"
     inkscape:pageshadow="2"
     inkscape:pageopacity="0.0"
     inkscape:pagecheckerboard="0"
     showgrid="false"
     inkscape:zoom="26.5625"
     inkscape:cx="14.964706"
     inkscape:cy="14.776471"
     inkscape:window-width="1920"
     inkscape:window-height="1009"
     inkscape:window-x="-8"
     inkscape:window-y="-8"
     inkscape:window-maximized="1"
     inkscape:current-layer="svg6" />
  <title
     id="title2">dimir</title>
  <path
     fill="#000000"
     d="m 10.972,0 c 1.274,0.31 2.369,1.268 2.872,2.477 -0.879,0.2 -1.687,0.636 -2.373,1.215 C 11.71,2.724 11.677,1.686 11.317,0.752 11.222,0.493 11.086,0.251 10.973,0 Z m 4.752,2.476 c 0.879,0.201 1.688,0.636 2.375,1.215 C 17.955,3.06 17.892,2.403 17.993,1.761 18.074,1.139 18.311,0.554 18.597,0 17.322,0.31 16.229,1.269 15.724,2.476 Z M 0,10.932 C 0.42,9.392 1.13,7.899 2.251,6.744 2.975,5.98 3.977,5.474 5.03,5.39 5.998,5.304 6.994,5.592 7.76,6.191 8.304,6.598 8.704,7.162 9.007,7.764 9.316,6.704 9.79,5.685 10.454,4.8 10.624,4.572 10.819,4.362 10.993,4.138 9.819,4.28 8.601,4.05 7.573,3.461 6.414,2.809 5.516,1.725 5.072,0.473 2.13,3.138 0.261,6.967 0,10.932 Z M 24.497,0.473 c -0.434,1.224 -1.302,2.288 -2.425,2.943 -1.043,0.621 -2.293,0.868 -3.496,0.721 0.176,0.225 0.369,0.434 0.54,0.663 0.664,0.885 1.137,1.904 1.447,2.963 0.274,-0.537 0.613,-1.049 1.08,-1.438 0.739,-0.645 1.729,-0.99 2.71,-0.948 1.09,0.037 2.145,0.528 2.906,1.304 1.155,1.162 1.883,2.683 2.311,4.249 C 29.309,6.966 27.441,3.137 24.498,0.471 Z M 14.051,9.327 c 1.041,-0.131 2.14,0.004 3.074,0.501 0.549,0.297 1.062,0.755 1.235,1.374 0.152,0.522 -0.022,1.093 -0.371,1.496 -0.503,0.59 -1.242,0.925 -1.985,1.097 -1.134,0.251 -2.363,0.164 -3.417,-0.34 C 12,13.168 11.44,12.715 11.23,12.075 11.043,11.531 11.22,10.918 11.594,10.496 12.211,9.791 13.144,9.45 14.052,9.326 Z M 14.416,4.096 C 13.448,4.19 12.558,4.694 11.884,5.38 10.767,6.519 10.157,8.078 9.958,9.644 c -0.224,1.831 0.077,3.759 1.015,5.364 0.582,0.99 1.444,1.863 2.537,2.266 0.944,0.356 2.03,0.289 2.929,-0.164 1.109,-0.549 1.927,-1.557 2.451,-2.659 0.811,-1.722 0.981,-3.715 0.591,-5.569 C 19.167,7.438 18.479,6.028 17.338,5.061 16.538,4.377 15.472,3.979 14.415,4.097 Z m 6.351,4.465 c 0.293,1.495 0.322,3.048 0.022,4.544 0.245,-0.315 0.53,-0.628 0.919,-0.761 0.458,-0.175 0.978,-0.051 1.373,0.218 0.698,0.475 1.139,1.232 1.475,1.989 1.004,2.334 1.076,4.994 0.479,7.442 0.964,-1.807 1.588,-3.79 1.919,-5.808 0.249,-1.597 0.333,-3.232 0.129,-4.839 -0.902,0.259 -1.86,0.077 -2.719,-0.25 -1.38,-0.534 -2.66,-1.38 -3.597,-2.535 z M 5.38,11.028 c -0.907,0.369 -1.929,0.595 -2.893,0.318 -0.248,2.022 -0.074,4.083 0.367,6.068 0.366,1.587 0.909,3.143 1.681,4.578 -0.596,-2.448 -0.525,-5.108 0.479,-7.441 0.319,-0.719 0.732,-1.431 1.368,-1.914 0.4,-0.306 0.942,-0.476 1.434,-0.309 0.41,0.125 0.711,0.448 0.965,0.776 C 8.481,11.618 8.512,10.077 8.794,8.592 7.877,9.667 6.689,10.499 5.38,11.027 Z m 9.155,-0.616 c -0.483,0.094 -0.881,0.51 -0.952,0.998 -0.086,0.486 0.16,1.006 0.589,1.248 0.432,0.258 1.023,0.207 1.402,-0.125 0.38,-0.315 0.529,-0.87 0.36,-1.333 -0.185,-0.563 -0.82,-0.921 -1.399,-0.787 z m -6.299,4.807 c -0.521,0.849 -1.28,1.576 -2.221,1.935 0,0.139 0.012,0.278 0.037,0.415 0.273,1.642 0.763,3.245 1.411,4.777 0.85,1.997 1.991,3.876 3.419,5.514 0.546,0.613 1.106,1.221 1.745,1.74 -0.197,-0.331 -0.436,-0.634 -0.636,-0.962 -1.007,-1.587 -1.822,-3.31 -2.285,-5.136 -0.385,-1.54 -0.503,-3.179 -0.109,-4.73 0.117,-0.414 0.275,-0.872 0.658,-1.113 0.202,-0.131 0.451,-0.09 0.676,-0.064 -0.99,-1.076 -1.63,-2.43 -2.009,-3.832 -0.185,0.504 -0.396,1.001 -0.684,1.456 z m 10.404,2.376 c 0.198,-0.019 0.408,-0.063 0.596,0.024 0.261,0.115 0.43,0.363 0.547,0.612 0.185,0.405 0.272,0.846 0.34,1.285 0.217,1.445 0.04,2.925 -0.348,4.326 -0.351,1.258 -0.871,2.465 -1.495,3.611 -0.396,0.746 -0.873,1.444 -1.337,2.148 0.314,-0.236 0.584,-0.523 0.865,-0.796 1.525,-1.526 2.778,-3.316 3.739,-5.246 0.89,-1.793 1.55,-3.704 1.915,-5.673 0.042,-0.242 0.096,-0.484 0.092,-0.73 -0.338,-0.137 -0.663,-0.307 -0.955,-0.527 -0.949,-0.704 -1.565,-1.764 -1.951,-2.864 -0.38,1.402 -1.019,2.756 -2.009,3.832 z"
     id="path4" />
</svg>
