<?xml version="1.0" encoding="UTF-8" standalone="no"?>
<svg
   version="1.1"
   width="30.75304"
   height="27.907196"
   viewBox="0 0 30.75304 27.907196"
   id="svg4"
   xmlns="http://www.w3.org/2000/svg"
   xmlns:svg="http://www.w3.org/2000/svg">
  <defs>
    <!-- This is the gradient that will actually be used on
     the cards. The colors themselves will be provided by the
     template, but the x values, y values, and offsets will be
     used from the SVG. -->
    <radialGradient id="rarity" cy="0.4" r="0.7">
      <stop offset="0" style="stop-color:rgb(192,55,38);stop-opacity:1" id="stop2" />
      <stop offset="0" style="stop-color:rgb(192,55,38);stop-opacity:1" id="stop4" />
      <stop offset="0" style="stop-color:rgb(241,142,30);stop-opacity:1" id="stop6" />
      <stop offset="0.875" style="stop-color:rgb(192,55,38);stop-opacity:1" id="stop8" />
      <stop offset="1" style="stop-color:rgb(192,55,38);stop-opacity:1" id="stop10" />
    </radialGradient>
    <!-- These gradients are here so that you can visualize
     what the set symbol would like like in that rarity. The
     only gradient that matters in the end is the "rarity"
     gradient. -->
    <linearGradient id="mythic" x1="0" y1="1" x2="1" y2="0">
      <stop offset="0" style="stop-color:rgb(192,55,38);stop-opacity:1"/>
      <stop offset="0.125" style="stop-color:rgb(192,55,38);stop-opacity:1"/>
      <stop offset="0.5" style="stop-color:rgb(241,142,30);stop-opacity:1"/>
      <stop offset="0.875" style="stop-color:rgb(192,55,38);stop-opacity:1"/>
      <stop offset="1" style="stop-color:rgb(192,55,38);stop-opacity:1"/>
    </linearGradient>
    <linearGradient id="rare" x1="0" y1="1" x2="1" y2="0">
      <stop offset="0" style="stop-color:rgb(146,116,67);stop-opacity:1"/>
      <stop offset="0.125" style="stop-color:rgb(146,116,67);stop-opacity:1"/>
      <stop offset="0.5" style="stop-color:rgb(211,178,108);stop-opacity:1"/>
      <stop offset="0.875" style="stop-color:rgb(146,116,67);stop-opacity:1"/>
      <stop offset="1" style="stop-color:rgb(146,116,67);stop-opacity:1"/>
    </linearGradient>
    <linearGradient id="special" x1="0" y1="1" x2="1" y2="0">
      <stop offset="0" style="stop-color:rgb(76, 56, 106);stop-opacity:1"/>
      <stop offset="0.125" style="stop-color:rgb(76, 56, 106);stop-opacity:1"/>
      <stop offset="0.5" style="stop-color:rgb(201, 173, 221);stop-opacity:1"/>
      <stop offset="0.875" style="stop-color:rgb(76, 56, 106);stop-opacity:1"/>
      <stop offset="1" style="stop-color:rgb(76, 56, 106);stop-opacity:1"/>
    </linearGradient>
    <linearGradient id="uncommon" x1="0" y1="1" x2="1" y2="0">
      <stop offset="0" style="stop-color:rgb(98,110,119);stop-opacity:1"/>
      <stop offset="0.125" style="stop-color:rgb(98,110,119);stop-opacity:1"/>
      <stop offset="0.5" style="stop-color:rgb(196,222,238);stop-opacity:1"/>
      <stop offset="0.875" style="stop-color:rgb(98,110,119);stop-opacity:1"/>
      <stop offset="1" style="stop-color:rgb(98,110,119);stop-opacity:1"/>
    </linearGradient>
    <linearGradient id="common" x1="0" y1="1" x2="1" y2="0">
      <stop offset="0" style="stop-color:rgb(0,0,0);stop-opacity:1"/>
    </linearGradient>
    <linearGradient
            id="rarity-outline" x1="0" y1="1" x2="0" y2="1">
      <stop offset="0" style="stop-color:rgb(0,0,0);stop-opacity:1"/>
    </linearGradient>
  </defs>
  <path fill="url(#rarity-outline)" d="M 28.199219 0 C 27.583787 -0.0070056375 26.996013 0.029012545 26.441406 0.095703125 C 23.113766 0.49584662 20.962891 2.0058594 20.962891 2.0058594 L 20.355469 2.4335938 L 20.90625 2.984375 L 20.933594 3.0058594 L 21.265625 3.2714844 L 19.501953 4.3085938 C 19.175673 4.0546051 18.851432 3.7943682 18.478516 3.6015625 L 17.683594 3.1914062 L 17.363281 5.7285156 L 16.134766 7.4746094 L 16.640625 7.8339844 C 17.206829 8.2369656 17.578125 8.8967745 17.578125 9.6445312 C 17.578125 10.03498 17.478945 10.392136 17.300781 10.716797 L 17.060547 11.154297 L 16.660156 11.447266 C 16.289729 11.718234 15.837207 11.878906 15.347656 11.878906 C 14.665174 11.878906 14.059968 11.57556 13.652344 11.097656 L 13.314453 10.699219 L 11.525391 11.738281 L 12.1875 10.140625 C 12.364225 10.076685 12.540639 10.012905 12.716797 9.9492188 L 13.085938 9.8164062 L 13.126953 9.4238281 C 13.240203 8.2991362 14.187937 7.4179687 15.347656 7.4179688 L 15.800781 7.4179688 L 16.568359 5.0605469 L 15.791016 2.8378906 L 15.347656 2.8378906 C 13.788458 2.8378906 12.388668 3.4211374 11.240234 4.3046875 L 9.4902344 3.2734375 L 10.474609 2.4863281 L 9.7929688 2.0078125 C 9.7929688 2.0078125 5.9679655 -0.67651966 0.62890625 0.1640625 L 0 0.26367188 L 0.109375 0.88867188 C 0.109375 0.88867188 0.31620999 2.0348435 1.1699219 3.4785156 C 2.0236337 4.9221878 3.5409097 6.716527 6.1503906 8.1425781 L 6.9199219 8.5644531 L 7.1386719 7.2753906 L 8.7402344 8.21875 C 8.6393152 8.6851942 8.5351563 9.1523925 8.5351562 9.6464844 C 8.5351562 11.085936 8.9825158 12.425024 9.7441406 13.523438 L 10.396484 14.462891 L 11.478516 11.851562 L 11.623047 15.363281 L 11.919922 15.535156 C 12.254565 15.730609 12.627414 15.859777 12.996094 15.996094 L 12.996094 18.199219 L 11.816406 17.75 L 11.75 18.580078 C 11.75 18.580078 11.372166 23.23917 14.802734 27.416016 L 15.207031 27.90625 L 15.691406 27.496094 C 15.691406 27.496094 16.574243 26.737079 17.386719 25.269531 C 18.199194 23.801983 18.978871 21.584666 18.886719 18.611328 L 18.859375 17.734375 L 17.636719 18.199219 L 17.636719 15.970703 C 18.367358 15.70427 19.083349 15.392501 19.671875 14.908203 L 20.316406 14.378906 L 18.322266 13.025391 L 17.529297 11.566406 L 18.630859 12.470703 L 21.560547 12.470703 L 21.712891 12.068359 C 21.998926 11.315867 22.158203 10.49785 22.158203 9.6445312 C 22.158203 9.1622003 22.054704 8.7064449 21.957031 8.25 L 23.615234 7.2734375 L 23.832031 8.5625 L 24.603516 8.1425781 C 27.21453 6.7165426 28.730598 4.9223094 29.583984 3.4785156 C 30.43737 2.0347218 30.644531 0.88867188 30.644531 0.88867188 L 30.753906 0.26171875 L 30.125 0.16210938 C 29.457739 0.057035095 28.81465 0.0070056375 28.199219 0 z " />
  <path fill="url(#rarity)" d="m 12.504246,9.3614211 c 0.145,-1.44 1.365,-2.569 2.843,-2.569 l 0.562187,-1.725 -0.562187,-1.605 c -1.579,0 -3.016,0.591 -4.109,1.564 l -2.8459999,-1.674 1.042,-0.834 c 0,0 -3.615,-2.53900008 -8.70900001,-1.73700008 0,0 0.71300001,4.07400008 5.72500001,6.81300008 l 0.222,-1.319 2.741,1.613 c -0.165,0.557 -0.254,1.149 -0.254,1.758 0,1.3099999 0.407,2.5219999 1.0989999,3.5199999 l 1.458,-3.5199999 0.788,-0.286 z m 8.819,-6.843 1.042,0.834 -2.886,1.694 c -0.384,-0.346 -0.817,-0.646 -1.287,-0.889 l -0.228,1.804 -0.961,1.364 c 0.725,0.516 1.2,1.365 1.2,2.32 0,0.4989999 -0.13,0.9629999 -0.355,1.3729999 l 1.007,0.828 h 2.274 c 0.26,-0.684 0.404,-1.425 0.404,-2.2009999 0,-0.598 -0.086,-1.178 -0.248,-1.726 l 2.796,-1.645 0.222,1.319 c 5.015,-2.739 5.725,-6.81300008 5.725,-6.81300008 -5.093,-0.802 -8.706,1.73700008 -8.706,1.73700008 z m -3.477,10.9379999 1.428,0.97 c -0.655,0.539 -1.422,0.946 -2.262,1.18 v 3.5 l 1.249,-0.476 c 0.177,5.711 -2.975,8.389 -2.975,8.389 -3.273,-3.985 -2.914,-8.389 -2.914,-8.389 l 1.249,0.476 v -3.517 c -0.490629,-0.1406 -0.955302,-0.341417 -1.386893,-0.593494 l -0.118755,-2.87734 1.061648,-0.616166 c 0.522,0.612 1.301,1.001 2.17,1.001 0.626,0 1.209,-0.205 1.682,-0.551 l 0.817,1.503 z"/>
</svg>
