<?xml version="1.0" encoding="UTF-8" standalone="no"?>
<svg
   version="1.1"
   width="26.900389"
   height="34.410236"
   viewBox="0 0 26.900388 34.410236"
   id="svg4"
   xmlns="http://www.w3.org/2000/svg"
   xmlns:svg="http://www.w3.org/2000/svg">
  <defs>
    <!-- This is the gradient that will actually be used on
     the cards. The colors themselves will be provided by the
     template, but the x values, y values, and offsets will be
     used from the SVG. -->
    <linearGradient id="rarity" x1="-0.125" y1="0" x2="1.125" y2="1">
      <stop offset="0" style="stop-color:rgb(192,55,38);stop-opacity:1" id="stop2" />
      <stop offset="0.125" style="stop-color:rgb(192,55,38);stop-opacity:1" id="stop4" />
      <stop offset="0.5" style="stop-color:rgb(241,142,30);stop-opacity:1" id="stop6" />
      <stop offset="0.875" style="stop-color:rgb(192,55,38);stop-opacity:1" id="stop8" />
      <stop offset="1" style="stop-color:rgb(192,55,38);stop-opacity:1" id="stop10" />
    </linearGradient>
    <!-- These gradients are here so that you can visualize
     what the set symbol would like like in that rarity. The
     only gradient that matters in the end is the "rarity"
     gradient. -->
    <linearGradient id="mythic" x1="0" y1="1" x2="1" y2="0">
      <stop offset="0" style="stop-color:rgb(192,55,38);stop-opacity:1"/>
      <stop offset="0.125" style="stop-color:rgb(192,55,38);stop-opacity:1"/>
      <stop offset="0.5" style="stop-color:rgb(241,142,30);stop-opacity:1"/>
      <stop offset="0.875" style="stop-color:rgb(192,55,38);stop-opacity:1"/>
      <stop offset="1" style="stop-color:rgb(192,55,38);stop-opacity:1"/>
    </linearGradient>
    <linearGradient id="rare" x1="0" y1="1" x2="1" y2="0">
      <stop offset="0" style="stop-color:rgb(146,116,67);stop-opacity:1"/>
      <stop offset="0.125" style="stop-color:rgb(146,116,67);stop-opacity:1"/>
      <stop offset="0.5" style="stop-color:rgb(211,178,108);stop-opacity:1"/>
      <stop offset="0.875" style="stop-color:rgb(146,116,67);stop-opacity:1"/>
      <stop offset="1" style="stop-color:rgb(146,116,67);stop-opacity:1"/>
    </linearGradient>
    <linearGradient id="special" x1="0" y1="1" x2="1" y2="0">
      <stop offset="0" style="stop-color:rgb(76, 56, 106);stop-opacity:1"/>
      <stop offset="0.125" style="stop-color:rgb(76, 56, 106);stop-opacity:1"/>
      <stop offset="0.5" style="stop-color:rgb(201, 173, 221);stop-opacity:1"/>
      <stop offset="0.875" style="stop-color:rgb(76, 56, 106);stop-opacity:1"/>
      <stop offset="1" style="stop-color:rgb(76, 56, 106);stop-opacity:1"/>
    </linearGradient>
    <linearGradient id="uncommon" x1="0" y1="1" x2="1" y2="0">
      <stop offset="0" style="stop-color:rgb(98,110,119);stop-opacity:1"/>
      <stop offset="0.125" style="stop-color:rgb(98,110,119);stop-opacity:1"/>
      <stop offset="0.5" style="stop-color:rgb(196,222,238);stop-opacity:1"/>
      <stop offset="0.875" style="stop-color:rgb(98,110,119);stop-opacity:1"/>
      <stop offset="1" style="stop-color:rgb(98,110,119);stop-opacity:1"/>
    </linearGradient>
    <linearGradient id="common" x1="0" y1="1" x2="1" y2="0">
      <stop offset="0" style="stop-color:rgb(0,0,0);stop-opacity:1"/>
    </linearGradient>
    <linearGradient
            id="rarity-outline" x1="0" y1="1" x2="0" y2="1">
      <stop offset="0" style="stop-color:rgb(0,0,0);stop-opacity:1"/>
    </linearGradient>
  </defs>
  <path fill="url(#rarity-outline)" d="M 13.423828,3.1441163e-5 C 13.265313,4.8044116e-4 13.10308,0.00588144 12.9375,0.01760944 10.629065,0.13992404 8.3515665,0.81103872 6.3535156,2.0039377 4.7411329,2.9694037 3.2874306,4.2491683 2.1816406,5.8242502 l -0.625,0.8886718 0.7929688,0.7421875 c 0.197573,0.1849599 0.3438471,0.4196107 0.5332031,0.6132813 L 2.6992188,8.2344064 C 2.3813156,8.5238079 2.0575406,8.8419097 1.7558594,9.2090158 L 2.5625,10.222688 c -5.318e-4,7.38e-4 -0.00142,0.0012 -0.00195,0.002 L 1.7519531,9.2168283 c -0.2157877,0.2668954 -0.5228676,0.6444968 -0.6875,1.2187497 l -0.17773432,0.625 0.40625002,0.503906 c 0.1441327,0.178734 0.2699736,0.375931 0.4121093,0.556641 -0.5539783,0.589329 -0.9237911,1.2866 -1.15039058,1.998047 L 0.2441406,15.093781 1.140625,15.591828 c 0.1378454,0.07635 0.2596782,0.175926 0.3964844,0.253906 L 1.3847656,16.201203 C 0.7930729,17.580661 0.38674493,19.018684 0.1523438,20.275422 L 0,21.101593 0.70507815,21.554719 c 1.11892135,0.720915 2.14925895,1.550733 3.02148435,2.503906 0.9706625,1.061463 1.7412662,2.280951 2.1523438,3.583984 l 0.00195,0.002 c 0.2099227,0.680853 0.3310796,1.345045 0.3046875,1.955078 l -0.019531,0.445313 0.265625,0.355469 c 1.4488235,1.944627 3.6026452,3.15652 5.8281242,3.71289 l 0.81836,0.205078 0.371093,0.0918 0.373047,-0.0918 0.816406,-0.205078 c 2.224321,-0.555521 4.378538,-1.769191 5.828126,-3.710937 l 0.265624,-0.355469 -0.01953,-0.445313 c -0.02409,-0.555683 0.07654,-1.161282 0.253907,-1.785156 0.343786,-1.188234 0.993168,-2.313943 1.822265,-3.314453 0.944569,-1.138617 2.117349,-2.116473 3.40625,-2.947265 l 0.705078,-0.453126 -0.152343,-0.824218 c -0.25172,-1.364095 -0.609708,-2.774655 -1.25586,-4.123047 l -0.144531,-0.300781 c 0.141416,-0.08069 0.267629,-0.182768 0.410156,-0.261719 l 0.898438,-0.498047 -0.3125,-0.976562 c -0.22679,-0.710776 -0.594802,-1.408165 -1.148438,-1.998047 0.14196,-0.180607 0.266209,-0.377893 0.410156,-0.556641 l 0.410159,-0.507859 -0.183594,-0.626953 C 25.667159,9.865263 25.368484,9.4903696 25.154297,9.2246408 l -0.002,-0.00391 -0.0039,-0.00391 C 24.843653,8.8437296 24.51776,8.5245846 24.199218,8.2344064 L 24.019531,8.0703439 c 0.191901,-0.1987363 0.343554,-0.4338653 0.542969,-0.625 L 25.333984,6.7070626 24.724609,5.8301095 C 23.996467,4.7834763 23.106786,3.8860271 22.15039,3.1152658 v -0.00195 h -0.002 C 20.033516,1.41561 17.442216,0.36518361 14.755859,0.08206264 h -0.002 -0.0039 C 14.342444,0.04084944 13.899371,-0.00131556 13.423828,3.1441163e-5 Z" />
  <path fill="url(#rarity)" d="m 6.9948594,3.0765668 c 1.819,-1.086 3.9079996,-1.702 6.0219996,-1.812 0.536,-0.039 1.074,0.007 1.608,0.061 2.448,0.258 4.821,1.22 6.742,2.762 0.881,0.71 1.684,1.526 2.331,2.456 -1.975,1.893 -3.606,4.1430002 -4.784,6.6119992 -0.483,-0.737 -1.091,-1.394 -1.806,-1.909999 -1.04,-0.757 -2.311,-1.204 -3.6,-1.212 -1.264,-0.016 -2.521,0.389 -3.5609996,1.103 -0.797,0.542999 -1.469,1.257999 -1.991,2.066999 -1.149,-2.490999 -2.747,-4.7839992 -4.752,-6.6609992 0.992,-1.413 2.314,-2.582 3.792,-3.467 z m -4.271,6.9260002 c -0.19,0.235 -0.373,0.485 -0.457,0.778 1.183,1.466999 2.292,2.992999 3.359,4.545999 -1.003,-0.785 -2,-1.576 -3.009,-2.353 -0.405,0.43 -0.692,0.962 -0.871,1.524 1.354,0.75 2.665,1.578 3.913,2.494 1.023,0.758 2.012,1.575 2.857,2.531 -0.154,-0.776 -0.355,-1.543 -0.59,-2.298 -0.919,-2.936 -2.34,-5.751 -4.386,-8.0659992 -0.29,0.264 -0.569,0.542 -0.818,0.8450002 z m 17.3729996,4.267999 c -0.761,1.681 -1.348,3.443 -1.714,5.252 0.832,-0.941 1.803,-1.747 2.808,-2.495 1.262,-0.93 2.59,-1.77 3.962,-2.53 -0.179,-0.561 -0.466,-1.093 -0.871,-1.524 -1.009,0.778 -2.007,1.568 -3.009,2.354 1.067,-1.555 2.177,-3.08 3.36,-4.548999 -0.085,-0.29 -0.265,-0.538 -0.452,-0.77 -0.25,-0.3060002 -0.531,-0.5850002 -0.823,-0.8510002 -1.347,1.5200002 -2.422,3.2669992 -3.262,5.1119992 z m -8.766,-1.997 c -1.183,0.636 -2.0589996,1.752 -2.5349996,2.995 0.71,2.01 1.185,4.109 1.3499996,6.235 0.413,0.543 0.803,1.106 1.145,1.699 0.892,1.536 1.59,3.178 2.159,4.858 0.248,-0.739 0.525,-1.469 0.831,-2.187 0.661,-1.539 1.435,-3.047 2.476,-4.366 0.083,-2.165 0.574,-4.303 1.308,-6.337 -0.268,-0.659 -0.641,-1.276 -1.119,-1.804 -0.706,-0.785 -1.654,-1.369 -2.697,-1.564 -0.989,-0.192 -2.037,-0.012 -2.919,0.469 z m -9.9489996,8.231 c 1.192,0.768 2.308,1.663 3.267,2.711 1.069,1.169 1.947,2.537 2.425,4.054 0.238,0.77 0.395,1.576 0.36,2.385 1.239,1.663 3.1379996,2.749 5.1299996,3.247 -0.01,-1.921 -0.355,-3.838 -1.014,-5.641 -1.098,-3.022 -3.0349996,-5.696 -5.3999996,-7.856 -1.115,-1.015 -2.317,-1.94 -3.616,-2.71 -0.576,1.202 -0.912,2.504 -1.153,3.81 z m 19.2499996,-0.992 c -2.253,2.085 -4.107,4.641 -5.199,7.522 -0.712,1.869 -1.087,3.866 -1.097,5.866 1.99,-0.497 3.889,-1.584 5.129,-3.245 -0.032,-0.738 0.098,-1.474 0.299,-2.181 0.401,-1.389 1.143,-2.662 2.062,-3.771 1.045,-1.26 2.32,-2.314 3.693,-3.199 -0.241,-1.306 -0.577,-2.608 -1.153,-3.81 -1.345,0.797 -2.586,1.76 -3.734,2.819 z"/>
</svg>
