<?xml version="1.0" encoding="UTF-8" standalone="no"?>
<svg
   version="1.1"
   width="29.099745"
   height="29.099745"
   viewBox="0 0 29.099745 29.099744"
   id="svg4"
   xmlns="http://www.w3.org/2000/svg"
   xmlns:svg="http://www.w3.org/2000/svg">
  <defs>
    <!-- This is the gradient that will actually be used on
     the cards. The colors themselves will be provided by the
     template, but the x values, y values, and offsets will be
     used from the SVG. -->
    <radialGradient id="rarity">
      <stop offset="0" style="stop-color:rgb(192,55,38);stop-opacity:1" id="stop2" />
      <stop offset="0" style="stop-color:rgb(192,55,38);stop-opacity:1" id="stop4" />
      <stop offset="0" style="stop-color:rgb(241,142,30);stop-opacity:1" id="stop6" />
      <stop offset="1" style="stop-color:rgb(192,55,38);stop-opacity:1" id="stop8" />
      <stop offset="5" style="stop-color:rgb(192,55,38);stop-opacity:1" id="stop10" />
    </radialGradient>
    <!-- These gradients are here so that you can visualize
     what the set symbol would like like in that rarity. The
     only gradient that matters in the end is the "rarity"
     gradient. -->
    <linearGradient id="mythic" x1="0" y1="1" x2="1" y2="0">
      <stop offset="0" style="stop-color:rgb(192,55,38);stop-opacity:1"/>
      <stop offset="0.125" style="stop-color:rgb(192,55,38);stop-opacity:1"/>
      <stop offset="0.5" style="stop-color:rgb(241,142,30);stop-opacity:1"/>
      <stop offset="0.875" style="stop-color:rgb(192,55,38);stop-opacity:1"/>
      <stop offset="1" style="stop-color:rgb(192,55,38);stop-opacity:1"/>
    </linearGradient>
    <linearGradient id="rare" x1="0" y1="1" x2="1" y2="0">
      <stop offset="0" style="stop-color:rgb(146,116,67);stop-opacity:1"/>
      <stop offset="0.125" style="stop-color:rgb(146,116,67);stop-opacity:1"/>
      <stop offset="0.5" style="stop-color:rgb(211,178,108);stop-opacity:1"/>
      <stop offset="0.875" style="stop-color:rgb(146,116,67);stop-opacity:1"/>
      <stop offset="1" style="stop-color:rgb(146,116,67);stop-opacity:1"/>
    </linearGradient>
    <linearGradient id="special" x1="0" y1="1" x2="1" y2="0">
      <stop offset="0" style="stop-color:rgb(76, 56, 106);stop-opacity:1"/>
      <stop offset="0.125" style="stop-color:rgb(76, 56, 106);stop-opacity:1"/>
      <stop offset="0.5" style="stop-color:rgb(201, 173, 221);stop-opacity:1"/>
      <stop offset="0.875" style="stop-color:rgb(76, 56, 106);stop-opacity:1"/>
      <stop offset="1" style="stop-color:rgb(76, 56, 106);stop-opacity:1"/>
    </linearGradient>
    <linearGradient id="uncommon" x1="0" y1="1" x2="1" y2="0">
      <stop offset="0" style="stop-color:rgb(98,110,119);stop-opacity:1"/>
      <stop offset="0.125" style="stop-color:rgb(98,110,119);stop-opacity:1"/>
      <stop offset="0.5" style="stop-color:rgb(196,222,238);stop-opacity:1"/>
      <stop offset="0.875" style="stop-color:rgb(98,110,119);stop-opacity:1"/>
      <stop offset="1" style="stop-color:rgb(98,110,119);stop-opacity:1"/>
    </linearGradient>
    <linearGradient id="common" x1="0" y1="1" x2="1" y2="0">
      <stop offset="0" style="stop-color:rgb(0,0,0);stop-opacity:1"/>
    </linearGradient>
    <linearGradient
            id="rarity-outline" x1="0" y1="1" x2="0" y2="1">
      <stop offset="0" style="stop-color:rgb(0,0,0);stop-opacity:1"/>
    </linearGradient>
  </defs>
  <circle fill="url(#rarity)" cx="14.549872" cy="14.549872" r="14.549872"/>
  <path fill="#000000" d="m 17.543872,20.661373 c -1.061,0.771 -2.26,1.407 -2.83,2.668 l -1.133,-0.565 c 0.088,-0.234 0.145,-0.502 0.16,-0.81 0.011,-0.177 -0.069,-0.397 -0.097,-0.576 -0.034,-0.188 -0.069,-0.38 -0.103,-0.571 -0.069,-0.376 -0.142,-0.756 -0.223,-1.132 -0.156,-0.73 -0.339,-1.456 -0.559,-2.166 -0.205,-0.679 -0.443,-1.353 -0.736,-2 -0.274,-0.605 -0.605,-1.185 -1.01,-1.712 -0.242,-0.311 -0.508,-0.602 -0.787,-0.882 -0.126,-0.123 -0.259,-0.242 -0.382,-0.368 -0.085,-0.091 -0.194,-0.26 -0.331,-0.265 -0.22,-0.009 -0.337,0.237 -0.408,0.408 -0.097,0.232 -0.188,0.446 -0.317,0.665 -0.129,0.219 -0.299,0.117 -0.511,0.077 -0.245,-0.046 -0.756,-0.419 -0.859,-0.468 -0.091,-0.048 -0.365,-0.097 -0.419,-0.191 -0.054,-0.094 0.034,-0.234 0.1,-0.399 0.069,-0.16 0.585,-1.558 0.645,-1.821 0.034,-0.142 0.06,-0.291 0.074,-0.442 0.009,-0.072 0.069,-0.4080003 0.018,-0.4570003 -0.374,-0.359 -1.073,-0.388 -1.538,-0.648 0.277,-0.411 0.465,-0.676 0.648,-0.97 1.624,-0.06 2.998,0.129 4.613,0.08 0.879,2.0320003 1.998,3.8270003 3.236,5.5050003 0.457,-0.166 0.511,-0.733 1.133,-0.73 0.262,0.003 0.456,0.171 0.611,0.362 0.074,0.096 0.14,0.199 0.214,0.297 0.071,0.1 0.183,0.199 0.196,0.331 0.012,0.126 -0.031,0.328 -0.099,0.434 -1.213,1.897 0.237,4.445 0.696,6.348 z m 9.161,0.252 c -0.151,0.291 -0.317,0.579 -0.491,0.859 -0.283,-0.091 -1.361,-0.431 -2.031,-0.462 -1.849,-0.12 -3.005,0.448 -4.212,0.97 l -0.565,-0.728 c 0.069,-0.094 0.14,-0.186 0.217,-0.271 0.443,-0.497 1.093,-0.828 1.338,-1.486 0.242,-0.639 0.018,-1.33 -0.237,-1.926 -0.271,-0.639 -0.565,-1.267 -0.833,-1.903 -0.334,-0.793 -0.67,-1.584 -1.161,-2.294 -0.086,-0.126 -0.146,-0.291 -0.269,-0.385 -0.191,-0.143 -0.339,0.048 -0.502,0.131 -0.4,0.197 -0.771,-0.222 -1.03,-0.488 -0.137,-0.142 -0.294,-0.325 -0.334,-0.527 -0.046,-0.235 0.117,-0.411 0.256,-0.579 0.299,-0.357 0.622,-0.733 0.836,-1.148 0.139,-0.262 0.228,-0.565 0.259,-0.8610003 -0.348,-0.676 -1.38,-0.668 -1.78,-1.293 0.031,-0.048 0.06,-0.1 0.088,-0.148 0.105,-0.191 0.205,-0.408 0.382,-0.545 0.22,-0.171 0.471,-0.026 0.694,0.054 0.245,0.088 0.502,0.126 0.759,0.148 0.285,0.023 0.57,0.069 0.858,0.075 0.254,0.006 0.516,-0.003 0.771,-0.02 0.362,-0.023 0.907,-0.228 1.113,-0.222 0.262,0.011 0.276,0.105 0.516,0.253 -0.034,0.089 -0.058,0.194 -0.072,0.305 -0.034,0.26 -0.023,0.522 -0.015,0.779 0.012,0.277 -0.005,0.57 0.037,0.8500003 0.049,0.299 0.191,0.559 0.302,0.838 0.117,0.297 0.242,0.594 0.371,0.89 0.257,0.576 0.531,1.147 0.808,1.715 0.556,1.144 1.115,2.283 1.56,3.472 0.22,0.593 0.428,1.198 0.554,1.817 0.148,0.744 0.887,1.475 1.478,1.909 0.096,0.072 0.225,0.154 0.331,0.22 z m -19.113,0.556 c 0.183,-0.06 0.031,-0.454 0.08,-0.645 -0.397,-0.229 -0.771,-0.474 -0.973,-0.89 -0.054,-0.114 0.017,-0.413 0.028,-0.536 0.017,-0.177 0.037,-0.354 0.066,-0.525 0.051,-0.325 0.126,-0.642 0.217,-0.959 0.171,-0.584 0.405,-1.147 0.639,-1.711 0.14,-0.334 0.513,-1.361 0.579,-1.535 0.051,-0.134 0.129,-0.291 0.06,-0.442 -0.054,-0.12 -0.166,-0.146 -0.274,-0.197 -0.12,-0.06 -0.611,-0.311 -0.742,-0.354 -0.105,-0.037 -0.334,-0.18 -0.439,-0.129 -0.115,0.054 -0.348,0.533 -0.402,0.633 -0.123,0.229 -0.232,0.465 -0.331,0.702 -0.234,0.548 -0.431,1.11 -0.622,1.678 -0.346,1.019 -0.639,2.083 -1.124,3.05 -0.365,0.728 -0.936,1.44 -1.675,1.817 0.171,0.294 0.354,0.585 0.548,0.865 0.959,-0.768 2.634,-1.091 4.366,-0.822 z m 16.539,0.728 h -0.009 c -0.145,-0.009 -0.291,-0.015 -0.43,-0.015 -0.765,0 -1.396,0.143 -1.986,0.348 -1.901,1.703 -4.408,2.742 -7.156,2.742 -2.865,0 -5.469,-1.127 -7.393,-2.962 -0.257,-0.028 -0.513,-0.045 -0.765,-0.045 -1.101,0 -2.083,0.279 -2.642,0.744 2.511,3.201 6.414,5.258 10.799,5.258 4.594,0 8.662,-2.259 11.151,-5.727 -0.494,-0.151 -1.176,-0.325 -1.564,-0.345 h -0.006 z m -21.872,-1.555 h -0.003 c -0.91,-1.835 -1.42400001,-3.903 -1.42400001,-6.092 0,-7.5750003 6.14300001,-13.71800033 13.71800001,-13.71800033 7.575,0 13.718,6.14300003 13.718,13.71800033 0,1.98 -0.419,3.857 -1.172,5.555 -0.075,-0.042 -0.145,-0.093 -0.197,-0.131 -0.602,-0.44 -1.055,-0.99 -1.133,-1.367 -0.14,-0.702 -0.376,-1.381 -0.587,-1.949 -0.026,-0.066 -0.052,-0.131 -0.075,-0.194 0.112,-0.622 0.169,-1.261 0.169,-1.914 0,-5.9150003 -4.811,-10.7260003 -10.723,-10.7260003 -5.912,0 -10.723,4.811 -10.723,10.7260003 0,1.019 0.14,2.006 0.408,2.936 -0.2,0.608 -0.408,1.184 -0.679,1.723 -0.337,0.668 -0.81,1.19 -1.298,1.432 z"/>
</svg>
