<?xml version="1.0" encoding="UTF-8" standalone="no"?>
<svg
   version="1.1"
   width="23.59375"
   height="29.482422"
   viewBox="0 0 23.59375 29.482421"
   id="svg4"
   xmlns="http://www.w3.org/2000/svg"
   xmlns:svg="http://www.w3.org/2000/svg">
  <defs>
    <!-- This is the gradient that will actually be used on
     the cards. The colors themselves will be provided by the
     template, but the x values, y values, and offsets will be
     used from the SVG. -->
    <linearGradient id="rarity" x1="0" y1="0" x2="0" y2="1">
      <stop offset="0" style="stop-color:rgb(192,55,38);stop-opacity:1" id="stop2" />
      <stop offset="0.125" style="stop-color:rgb(192,55,38);stop-opacity:1" id="stop4" />
      <stop offset="0.5" style="stop-color:rgb(241,142,30);stop-opacity:1" id="stop6" />
      <stop offset="0.95" style="stop-color:rgb(192,55,38);stop-opacity:1" id="stop8" />
      <stop offset="1" style="stop-color:rgb(192,55,38);stop-opacity:1" id="stop10" />
    </linearGradient>
    <!-- These gradients are here so that you can visualize
     what the set symbol would like like in that rarity. The
     only gradient that matters in the end is the "rarity"
     gradient. -->
    <linearGradient id="mythic" x1="0" y1="1" x2="1" y2="0">
      <stop offset="0" style="stop-color:rgb(192,55,38);stop-opacity:1"/>
      <stop offset="0.125" style="stop-color:rgb(192,55,38);stop-opacity:1"/>
      <stop offset="0.5" style="stop-color:rgb(241,142,30);stop-opacity:1"/>
      <stop offset="0.875" style="stop-color:rgb(192,55,38);stop-opacity:1"/>
      <stop offset="1" style="stop-color:rgb(192,55,38);stop-opacity:1"/>
    </linearGradient>
    <linearGradient id="rare" x1="0" y1="1" x2="1" y2="0">
      <stop offset="0" style="stop-color:rgb(146,116,67);stop-opacity:1"/>
      <stop offset="0.125" style="stop-color:rgb(146,116,67);stop-opacity:1"/>
      <stop offset="0.5" style="stop-color:rgb(211,178,108);stop-opacity:1"/>
      <stop offset="0.875" style="stop-color:rgb(146,116,67);stop-opacity:1"/>
      <stop offset="1" style="stop-color:rgb(146,116,67);stop-opacity:1"/>
    </linearGradient>
    <linearGradient id="special" x1="0" y1="1" x2="1" y2="0">
      <stop offset="0" style="stop-color:rgb(76, 56, 106);stop-opacity:1"/>
      <stop offset="0.125" style="stop-color:rgb(76, 56, 106);stop-opacity:1"/>
      <stop offset="0.5" style="stop-color:rgb(201, 173, 221);stop-opacity:1"/>
      <stop offset="0.875" style="stop-color:rgb(76, 56, 106);stop-opacity:1"/>
      <stop offset="1" style="stop-color:rgb(76, 56, 106);stop-opacity:1"/>
    </linearGradient>
    <linearGradient id="uncommon" x1="0" y1="1" x2="1" y2="0">
      <stop offset="0" style="stop-color:rgb(98,110,119);stop-opacity:1"/>
      <stop offset="0.125" style="stop-color:rgb(98,110,119);stop-opacity:1"/>
      <stop offset="0.5" style="stop-color:rgb(196,222,238);stop-opacity:1"/>
      <stop offset="0.875" style="stop-color:rgb(98,110,119);stop-opacity:1"/>
      <stop offset="1" style="stop-color:rgb(98,110,119);stop-opacity:1"/>
    </linearGradient>
    <linearGradient id="common" x1="0" y1="1" x2="1" y2="0">
      <stop offset="0" style="stop-color:rgb(0,0,0);stop-opacity:1"/>
    </linearGradient>
    <linearGradient
            id="rarity-outline" x1="0" y1="1" x2="0" y2="1">
      <stop offset="0" style="stop-color:rgb(0,0,0);stop-opacity:1"/>
    </linearGradient>
  </defs>
  <path fill="url(#rarity-outline)" d="M 3.8945312,0 C 3.3476159,0.00753202 2.9082059,0.45303283 2.9082031,1 l 0.7109375,2.34375 c -0.3541545,-0.021258 -0.6930622,0.1467093 -0.890625,0.4414062 0,0 -1.639015,2.6874566 -2.3769531,6.4707028 -0.0561548,0.288475 0.0174169,0.587048 0.20117188,0.816407 l 0.005859,0.0078 C 0.37314725,11.190875 0.22856663,11.358753 0.14648401,11.558582 0.05465184,12.279547 0,13.033036 0,13.810547 c 0,0.749827 0.0283424,1.463495 0.078125,2.138672 0.01881833,0.254348 0.13409956,0.491897 0.32226562,0.664062 l 0.1953125,0.179688 c -0.2138046,0.176631 -0.34466649,0.43411 -0.36132812,0.710937 0.42224824,3.269052 1.2949219,5.28125 1.2949219,5.28125 0.071173,0.162799 0.1844313,0.303698 0.328125,0.408203 0,0 3.1093967,2.165032 6.625,3.107422 0.01224,0.35072 -0.047277,0.515194 0.1503906,1.070313 0.1713486,0.481206 0.4611508,1.01135 0.96875,1.429687 0.5075995,0.418338 1.2244025,0.681641 2.0390625,0.681641 h 0.310547 c 0.813944,0 1.527814,-0.261817 2.035156,-0.679688 0.507342,-0.41787 0.799104,-0.948977 0.970703,-1.429687 0.197806,-0.554126 0.137772,-0.717937 0.150391,-1.068359 3.515727,-0.944016 6.625,-3.107422 6.625,-3.107422 0.143694,-0.104505 0.256953,-0.245405 0.328125,-0.408204 0,0 0.872696,-2.013163 1.294922,-5.285156 0.01943,-0.324903 -0.120466,-0.638938 -0.375,-0.841797 0.280279,-0.140595 0.478392,-0.404505 0.535156,-0.71289 0.04979,-0.674293 0.07813,-1.387879 0.07813,-2.138672 0,-0.777511 -0.05431,-1.531274 -0.142578,-2.25 -0.08137,-0.201275 -0.22602,-0.370607 -0.41211,-0.482422 l 0.0039,-0.0059 c 0.177359,-0.253842 0.227126,-0.575524 0.134765,-0.871094 l 0.06641,0.05469 C 22.506194,6.4736671 20.867188,3.7851562 20.867188,3.7851562 20.669158,3.4912016 20.330334,3.324019 19.976562,3.3457031 l 0.673829,-2.03125 C 20.864664,0.6673038 20.382872,1.3118924e-4 19.701172,0 Z M 14.880859,18.71875 c 0.0302,0.02866 0.06216,0.05541 0.0957,0.08008 0,0 0.261159,0.07645 0.664063,0.271484 0.123841,-0.0048 0.245703,-0.03266 0.359378,-0.08203 0.04808,0.186779 0.149146,0.355671 0.291016,0.486328 0.369856,0.268661 0.819906,0.67068 1.003906,0.953125 0.09695,0.09134 0.211159,0.162389 0.335937,0.208985 -0.04444,0.09574 -0.07345,0.19792 -0.08594,0.302734 0.02002,0.05938 0.02146,0.123238 0.03711,0.183594 -0.365831,0.391268 -1.572408,1.521925 -3.197265,2.582031 -0.512045,-0.58987 -1.308063,-1.18164 -2.539063,-1.18164 h -0.09961 -0.002 c -1.231115,7.27e-4 -2.0268184,0.591942 -2.5390629,1.18164 -1.6244656,-1.062195 -2.8323118,-2.193953 -3.1972656,-2.583984 0.015191,-0.05787 0.017972,-0.121642 0.037109,-0.177735 0.035554,-0.112958 0.050765,-0.231332 0.044922,-0.349609 0.026058,3.51e-4 0.052119,-3.16e-4 0.078125,-0.002 v -0.002 c 0.049934,-0.04985 0.094453,-0.104843 0.1328124,-0.164063 0.1829489,-0.28258 0.6295322,-0.678695 1.0019532,-0.949219 0.1074082,-0.08833 0.195215,-0.198087 0.2578125,-0.322265 0.1374737,-0.0234 0.2685343,-0.07529 0.3847656,-0.152344 l 0.015625,0.06641 c 0.3961878,-0.194611 0.6504409,-0.265535 0.6504409,-0.265535 0.037838,-0.01978 0.074372,-0.04196 0.109375,-0.06641 l 0.1152344,0.347656 c 0.1355867,0.409211 0.5181299,0.685492 0.9492187,0.685547 h 4.0253908 c 0.431089,-5.4e-5 0.813632,-0.276336 0.949219,-0.685547 z" />
  <path fill="url(#rarity)" d="M 22.262,10.447 C 21.56,6.849 20.012,4.305 20.012,4.305 L 15.258,17.84 c 0,0 0.347,0.102 0.818,0.33 l 6.187,-7.723 z m 0.257,5.428 c 0.048,-0.65 0.075,-1.339 0.075,-2.065 0,-0.731 -0.051,-1.443 -0.135,-2.127 l -5.581,6.983 c 0.413,0.3 0.941,0.734 1.255,1.216 l 4.385,-4.008 z m -10.773,7.648 c -1.756,0 -2.301,1.588 -2.301,1.588 C 6.967,23.766 4.927,21.456 4.927,21.456 4.948,21.154 5.011,20.875 5.098,20.62 L 1.227,17.376 c 0.407,3.151 1.219,5.009 1.219,5.009 0,0 3.409,2.48 6.923,3.203 0,0 -0.21,2.894 2.271,2.894 h 0.311 c 2.478,0 2.271,-2.891 2.271,-2.891 3.514,-0.726 6.923,-3.203 6.923,-3.203 0,0 0.812,-1.858 1.219,-5.012 l -3.871,3.244 c 0.087,0.258 0.15,0.537 0.171,0.836 0,0 -2.04,2.313 -4.521,3.655 0,0 -0.542,-1.588 -2.298,-1.588 H 11.744 Z M 7.519,18.17 c 0.47,-0.231 0.818,-0.33 0.818,-0.33 L 3.583,4.305 c 0,0 -1.548,2.543 -2.25,6.142 L 7.52,18.17 Z M 5.461,19.883 C 5.775,19.398 6.303,18.967 6.716,18.667 L 1.138,11.684 C 1.051,12.367 1,13.08 1,13.811 c 0,0.725 0.027,1.414 0.075,2.065 L 5.46,19.884 Z M 3.894,1 h 15.807 l -5.89,17.769 H 9.785 L 3.895,1 Z"/>
</svg>
