<?xml version="1.0" encoding="UTF-8" standalone="no"?>
<!-- Generated by IcoMoon.io -->

<svg
   version="1.1"
   width="21.594"
   height="27.482"
   viewBox="0 0 21.594 27.482"
   id="svg6"
   sodipodi:docname="dst.svg"
   inkscape:version="1.1.1 (3bf5ae0d25, 2021-09-20)"
   xmlns:inkscape="http://www.inkscape.org/namespaces/inkscape"
   xmlns:sodipodi="http://sodipodi.sourceforge.net/DTD/sodipodi-0.dtd"
   xmlns="http://www.w3.org/2000/svg"
   xmlns:svg="http://www.w3.org/2000/svg">
  <defs
     id="defs10" />
  <sodipodi:namedview
     id="namedview8"
     pagecolor="#ffffff"
     bordercolor="#666666"
     borderopacity="1.0"
     inkscape:pageshadow="2"
     inkscape:pageopacity="0.0"
     inkscape:pagecheckerboard="0"
     showgrid="false"
     inkscape:zoom="25.75"
     inkscape:cx="11.009709"
     inkscape:cy="12.912621"
     inkscape:window-width="1920"
     inkscape:window-height="1009"
     inkscape:window-x="-8"
     inkscape:window-y="-8"
     inkscape:window-maximized="1"
     inkscape:current-layer="svg6" />
  <title
     id="title2">dst</title>
  <path
     fill="#000000"
     d="M 21.262,9.447 C 20.56,5.849 19.012,3.305 19.012,3.305 L 14.258,16.84 c 0,0 0.347,0.102 0.818,0.33 l 6.187,-7.723 z m 0.257,5.428 c 0.048,-0.65 0.075,-1.339 0.075,-2.065 0,-0.731 -0.051,-1.443 -0.135,-2.127 l -5.581,6.983 c 0.413,0.3 0.941,0.734 1.255,1.216 l 4.385,-4.008 z m -10.773,7.648 c -1.756,0 -2.301,1.588 -2.301,1.588 C 5.967,22.766 3.927,20.456 3.927,20.456 3.948,20.154 4.011,19.875 4.098,19.62 L 0.227,16.376 c 0.407,3.151 1.219,5.009 1.219,5.009 0,0 3.409,2.48 6.923,3.203 0,0 -0.21,2.894 2.271,2.894 h 0.311 c 2.478,0 2.271,-2.891 2.271,-2.891 3.514,-0.726 6.923,-3.203 6.923,-3.203 0,0 0.812,-1.858 1.219,-5.012 l -3.871,3.244 c 0.087,0.258 0.15,0.537 0.171,0.836 0,0 -2.04,2.313 -4.521,3.655 0,0 -0.542,-1.588 -2.298,-1.588 H 10.744 Z M 6.519,17.17 c 0.47,-0.231 0.818,-0.33 0.818,-0.33 L 2.583,3.305 c 0,0 -1.548,2.543 -2.25,6.142 L 6.52,17.17 Z M 4.461,18.883 C 4.775,18.398 5.303,17.967 5.716,17.667 L 0.138,10.684 C 0.051,11.367 0,12.08 0,12.811 c 0,0.725 0.027,1.414 0.075,2.065 L 4.46,18.884 Z M 2.894,0 h 15.807 l -5.89,17.769 H 8.785 L 2.895,0 Z"
     id="path4" />
</svg>
