<?xml version="1.0" encoding="UTF-8" standalone="no"?>
<!-- Generated by IcoMoon.io -->

<svg
   version="1.1"
   width="26.229572"
   height="29.60037"
   viewBox="0 0 26.229572 29.60037"
   id="svg6"
   sodipodi:docname="e01.svg"
   inkscape:version="1.1.1 (3bf5ae0d25, 2021-09-20)"
   xmlns:inkscape="http://www.inkscape.org/namespaces/inkscape"
   xmlns:sodipodi="http://sodipodi.sourceforge.net/DTD/sodipodi-0.dtd"
   xmlns="http://www.w3.org/2000/svg"
   xmlns:svg="http://www.w3.org/2000/svg">
  <defs
     id="defs10" />
  <sodipodi:namedview
     id="namedview8"
     pagecolor="#ffffff"
     bordercolor="#666666"
     borderopacity="1.0"
     inkscape:pageshadow="2"
     inkscape:pageopacity="0.0"
     inkscape:pagecheckerboard="0"
     showgrid="false"
     inkscape:zoom="25.75"
     inkscape:cx="12.990291"
     inkscape:cy="14.815534"
     inkscape:window-width="1920"
     inkscape:window-height="1009"
     inkscape:window-x="-8"
     inkscape:window-y="-8"
     inkscape:window-maximized="1"
     inkscape:current-layer="svg6" />
  <title
     id="title2">e01</title>
  <path
     fill="#000000"
     d="m 17.948572,0.04636956 c 0.021,-0.011 0.187,-0.063 0.178,-0.041 -0.151,0.342 -0.249,0.609 -0.287,0.739 -1.063,3.37500004 -0.985,5.66900004 1.952,7.66900004 2.558,1.7410004 6.036,4.0130004 6.438,7.4370004 -0.148,2.938 -3.272,4.595 -5.519,5.906 -3.142,1.726 -6.585,4.117 -7.543,7.844 -1.325,-3.974 -5.0970002,-6.407 -8.5420002,-8.288 -2.093,-1.254 -5.01299996,-3.04 -4.58299996,-5.837 1.12699996,-3.939 3.86799996,-4.983 6.74999996,-7.6250004 2.25,-2.063 2.523,-4.317 1.402,-7.03300004 -0.192,-0.465 -0.42,-0.798 -0.301,-0.78 0.178,0.027 0.614,0.276 0.987,0.701 1.3790002,1.57600004 3.5180002,6.00500004 -0.088,9.61100044 -1.685,1.685 -4.583,4.393 -3.899,6.157 0.684,1.764 5.7420002,3.044 8.1800002,5.207 2.417,-2.494 8.293,-3.836 8.413,-5.82 0.12,-1.984 -3.265,-4.171 -4.943,-6.1060004 -1.952,-2.33 -1.246,-5.678 0.108,-8.124 0.131,-0.237 0.489,-0.88900004 0.848,-1.26400004 0.156,-0.163 0.301,-0.271 0.451,-0.353 z m -4.808,1.55700004 c 0,0 -0.053,1.735 -0.778,4.09 -0.498,1.619 -0.733,2.272 -1.061,2.977 -0.557,1.198 -0.95,1.7180004 -1.4400002,2.7490004 -0.32,0.658 -0.645,1.325 -0.803,2.054 -0.134,0.895 -0.038,1.84 0.353,2.65 0.478,1.076 1.3980002,1.898 2.4580002,2.228 0.527,0.2 1.095,0.136 1.643,0.131 1.607,-0.186 3.017,-1.567 3.362,-3.272 0.298,-1.112 -0.074,-2.604 -0.572,-3.599 -0.372,-0.78 -1.017,-1.6900004 -1.438,-2.7500004 -0.469,-1.181 -0.729,-2.219 -1,-3.24 -0.494,-1.863 -0.561,-3.239 -0.724,-4.018 z"
     id="path4" />
</svg>
