<?xml version="1.0" encoding="UTF-8" standalone="no"?>
<svg
   width="115.56"
   height="113.879"
   viewBox="0 0 115.56 113.879"
   version="1.1"
   xml:space="preserve"
   style="clip-rule:evenodd;fill-rule:evenodd;stroke-linecap:round;stroke-miterlimit:7"
   id="svg6"
   xmlns="http://www.w3.org/2000/svg"
   xmlns:svg="http://www.w3.org/2000/svg">
  <defs>
    <!-- This is the gradient that will actually be used on
     the cards. The colors themselves will be provided by the
     template, but the x values, y values, and offsets will be
     used from the SVG. -->
    <linearGradient id="rarity" x1="-0.25" y1="0" x2="1.25" y2="0">
      <stop offset="0" style="stop-color:rgb(192,55,38);stop-opacity:1" id="stop2" />
      <stop offset="0.125" style="stop-color:rgb(192,55,38);stop-opacity:1" id="stop4" />
      <stop offset="0.5" style="stop-color:rgb(241,142,30);stop-opacity:1" id="stop6" />
      <stop offset="0.875" style="stop-color:rgb(192,55,38);stop-opacity:1" id="stop8" />
      <stop offset="1" style="stop-color:rgb(192,55,38);stop-opacity:1" id="stop10" />
    </linearGradient>
    <!-- These gradients are here so that you can visualize
     what the set symbol would like like in that rarity. The
     only gradient that matters in the end is the "rarity"
     gradient. -->
    <linearGradient id="mythic" x1="0" y1="1" x2="1" y2="0">
      <stop offset="0" style="stop-color:rgb(192,55,38);stop-opacity:1"/>
      <stop offset="0.125" style="stop-color:rgb(192,55,38);stop-opacity:1"/>
      <stop offset="0.5" style="stop-color:rgb(241,142,30);stop-opacity:1"/>
      <stop offset="0.875" style="stop-color:rgb(192,55,38);stop-opacity:1"/>
      <stop offset="1" style="stop-color:rgb(192,55,38);stop-opacity:1"/>
    </linearGradient>
    <linearGradient id="rare" x1="0" y1="1" x2="1" y2="0">
      <stop offset="0" style="stop-color:rgb(146,116,67);stop-opacity:1"/>
      <stop offset="0.125" style="stop-color:rgb(146,116,67);stop-opacity:1"/>
      <stop offset="0.5" style="stop-color:rgb(211,178,108);stop-opacity:1"/>
      <stop offset="0.875" style="stop-color:rgb(146,116,67);stop-opacity:1"/>
      <stop offset="1" style="stop-color:rgb(146,116,67);stop-opacity:1"/>
    </linearGradient>
    <linearGradient id="special" x1="0" y1="1" x2="1" y2="0">
      <stop offset="0" style="stop-color:rgb(76, 56, 106);stop-opacity:1"/>
      <stop offset="0.125" style="stop-color:rgb(76, 56, 106);stop-opacity:1"/>
      <stop offset="0.5" style="stop-color:rgb(201, 173, 221);stop-opacity:1"/>
      <stop offset="0.875" style="stop-color:rgb(76, 56, 106);stop-opacity:1"/>
      <stop offset="1" style="stop-color:rgb(76, 56, 106);stop-opacity:1"/>
    </linearGradient>
    <linearGradient id="uncommon" x1="0" y1="1" x2="1" y2="0">
      <stop offset="0" style="stop-color:rgb(98,110,119);stop-opacity:1"/>
      <stop offset="0.125" style="stop-color:rgb(98,110,119);stop-opacity:1"/>
      <stop offset="0.5" style="stop-color:rgb(196,222,238);stop-opacity:1"/>
      <stop offset="0.875" style="stop-color:rgb(98,110,119);stop-opacity:1"/>
      <stop offset="1" style="stop-color:rgb(98,110,119);stop-opacity:1"/>
    </linearGradient>
    <linearGradient id="common" x1="0" y1="1" x2="1" y2="0">
      <stop offset="0" style="stop-color:rgb(0,0,0);stop-opacity:1"/>
    </linearGradient>
    <linearGradient
            id="rarity-outline" x1="0" y1="1" x2="0" y2="1">
      <stop offset="0" style="stop-color:rgb(0,0,0);stop-opacity:1"/>
    </linearGradient>
  </defs>
    <path fill="url(#rarity-outline)" d="M 57.779297 0 L 37.3125 52.148438 L 39.951172 53.910156 C 45.28363 57.471409 50.346602 62.035472 55.216797 66.207031 L 57.779297 68.402344 L 60.34375 66.207031 C 65.213944 62.035472 70.274964 57.471409 75.607422 53.910156 L 78.246094 52.148438 L 57.779297 0 z M 35.148438 1.0722656 L 32.755859 8.8222656 C 30.318795 16.71413 22.305067 28.829115 14.574219 33.652344 L 14.572266 33.652344 L 14.570312 33.654297 C 11.993056 35.267347 8.7209756 36.755274 5.7402344 39.066406 C 2.7594932 41.377539 0 45.113621 0 49.923828 C 0 55.017287 2.1036939 59.172228 4.7285156 62.222656 C 7.3533373 65.273085 10.425186 67.454927 12.910156 69.466797 C 27.078432 80.979097 54.894531 110.77734 54.894531 110.77734 L 57.779297 113.87891 L 60.664062 110.77734 C 60.664062 110.77734 88.479878 80.979636 102.64844 69.466797 L 102.6543 69.462891 C 105.13838 67.452155 108.20899 65.271016 110.83203 62.222656 C 113.45685 59.172228 115.56055 55.017287 115.56055 49.923828 C 115.56055 45.113621 112.7991 41.377539 109.81836 39.066406 C 106.83762 36.755274 103.56759 35.267394 100.99023 33.654297 L 100.98828 33.652344 L 100.98633 33.652344 C 93.255438 28.829156 85.241753 16.71413 82.804688 8.8222656 L 80.412109 1.0722656 L 75.798828 7.7441406 C 72.649284 12.299939 72.089844 16.52707 72.089844 19.644531 C 72.089844 26.739039 75.804176 32.72542 79.917969 37.341797 C 84.031761 41.958173 88.700811 45.341327 91.634766 47.234375 L 91.636719 47.236328 L 91.638672 47.238281 C 93.701421 48.56483 93.679688 48.938743 93.679688 50.964844 C 93.679688 50.527858 93.618017 51.254989 92.787109 52.333984 C 91.956199 53.41298 90.560891 54.828325 88.816406 56.337891 C 85.327437 59.357022 80.452647 62.798473 75.556641 65.974609 C 67.255076 71.359999 60.128331 75.314347 57.779297 76.605469 C 55.430263 75.314347 48.305471 71.359999 40.003906 65.974609 C 35.1079 62.798473 30.231157 59.357022 26.742188 56.337891 C 24.997704 54.828325 23.604349 53.41298 22.773438 52.333984 C 21.942528 51.254989 21.880859 50.527858 21.880859 50.964844 C 21.880859 48.938743 21.859129 48.56483 23.921875 47.238281 L 23.923828 47.236328 L 23.925781 47.234375 C 26.859736 45.341327 31.526832 41.958173 35.640625 37.341797 C 39.754418 32.72542 43.470703 26.739039 43.470703 19.644531 C 43.470703 16.52707 42.911263 12.299939 39.761719 7.7441406 L 35.148438 1.0722656 z " />
    <path fill="url(#rarity)" d="m 57.78,108.09443 c 0,0 -27.62,-29.690002 -42.39,-41.690002 -5.2,-4.21 -11.4499999,-8.3 -11.4499999,-16.48 0,-6.99 6.9999999,-9.35 12.7199999,-12.93 9.04,-5.64 17.09,-18.04 19.86,-27.0099998 2.71,3.9199998 3.01,6.8199998 3.01,9.6599998 0,11.34 -12.3,20.77 -17.74,24.28 -2.97,1.91 -3.85,4.2 -3.85,7.04 0,8.63 39.84,30.16 39.84,30.16 0,0 39.84,-21.53 39.84,-30.16 0,-2.84 -0.88,-5.13 -3.85,-7.04 -5.44,-3.51 -17.74,-12.94 -17.74,-24.28 0,-2.84 0.3,-5.74 3.01,-9.6599998 2.77,8.9699998 10.82,21.3699998 19.86,27.0099998 5.72,3.58 12.72,5.94 12.72,12.93 0,8.18 -6.25,12.27 -11.45,16.48 -14.77,12 -42.39,41.690002 -42.39,41.690002 z m 0,-44.880002 c 4.81,-4.12 9.98,-8.8 15.64,-12.58 l -15.64,-39.85 -15.64,39.85 c 5.66,3.78 10.83,8.46 15.64,12.58 z"/>
</svg>
