<?xml version="1.0" encoding="UTF-8" standalone="no"?>
<svg
   version="1.1"
   width="25.779297"
   height="29.430414"
   viewBox="0 0 25.779297 29.430414"
   id="svg4"
   xmlns="http://www.w3.org/2000/svg"
   xmlns:svg="http://www.w3.org/2000/svg">
  <defs>
    <!-- This is the gradient that will actually be used on
     the cards. The colors themselves will be provided by the
     template, but the x values, y values, and offsets will be
     used from the SVG. -->
    <linearGradient id="rarity" x1="0" y1="0.25" x2="1" y2="0.75">
      <stop offset="0" style="stop-color:rgb(192,55,38);stop-opacity:1" id="stop2" />
      <stop offset="0.125" style="stop-color:rgb(192,55,38);stop-opacity:1" id="stop4" />
      <stop offset="0.5" style="stop-color:rgb(241,142,30);stop-opacity:1" id="stop6" />
      <stop offset="0.875" style="stop-color:rgb(192,55,38);stop-opacity:1" id="stop8" />
      <stop offset="1" style="stop-color:rgb(192,55,38);stop-opacity:1" id="stop10" />
    </linearGradient>
    <!-- These gradients are here so that you can visualize
     what the set symbol would like like in that rarity. The
     only gradient that matters in the end is the "rarity"
     gradient. -->
    <linearGradient id="mythic" x1="0" y1="1" x2="1" y2="0">
      <stop offset="0" style="stop-color:rgb(192,55,38);stop-opacity:1"/>
      <stop offset="0.125" style="stop-color:rgb(192,55,38);stop-opacity:1"/>
      <stop offset="0.5" style="stop-color:rgb(241,142,30);stop-opacity:1"/>
      <stop offset="0.875" style="stop-color:rgb(192,55,38);stop-opacity:1"/>
      <stop offset="1" style="stop-color:rgb(192,55,38);stop-opacity:1"/>
    </linearGradient>
    <linearGradient id="rare" x1="0" y1="1" x2="1" y2="0">
      <stop offset="0" style="stop-color:rgb(146,116,67);stop-opacity:1"/>
      <stop offset="0.125" style="stop-color:rgb(146,116,67);stop-opacity:1"/>
      <stop offset="0.5" style="stop-color:rgb(211,178,108);stop-opacity:1"/>
      <stop offset="0.875" style="stop-color:rgb(146,116,67);stop-opacity:1"/>
      <stop offset="1" style="stop-color:rgb(146,116,67);stop-opacity:1"/>
    </linearGradient>
    <linearGradient id="special" x1="0" y1="1" x2="1" y2="0">
      <stop offset="0" style="stop-color:rgb(76, 56, 106);stop-opacity:1"/>
      <stop offset="0.125" style="stop-color:rgb(76, 56, 106);stop-opacity:1"/>
      <stop offset="0.5" style="stop-color:rgb(201, 173, 221);stop-opacity:1"/>
      <stop offset="0.875" style="stop-color:rgb(76, 56, 106);stop-opacity:1"/>
      <stop offset="1" style="stop-color:rgb(76, 56, 106);stop-opacity:1"/>
    </linearGradient>
    <linearGradient id="uncommon" x1="0" y1="1" x2="1" y2="0">
      <stop offset="0" style="stop-color:rgb(98,110,119);stop-opacity:1"/>
      <stop offset="0.125" style="stop-color:rgb(98,110,119);stop-opacity:1"/>
      <stop offset="0.5" style="stop-color:rgb(196,222,238);stop-opacity:1"/>
      <stop offset="0.875" style="stop-color:rgb(98,110,119);stop-opacity:1"/>
      <stop offset="1" style="stop-color:rgb(98,110,119);stop-opacity:1"/>
    </linearGradient>
    <linearGradient id="common" x1="0" y1="1" x2="1" y2="0">
      <stop offset="0" style="stop-color:rgb(0,0,0);stop-opacity:1"/>
    </linearGradient>
    <linearGradient
            id="rarity-outline" x1="0" y1="1" x2="0" y2="1">
      <stop offset="0" style="stop-color:rgb(0,0,0);stop-opacity:1"/>
    </linearGradient>
  </defs>
  <path fill="url(#rarity-outline)" d="m 19.986328,0.00152455 c -4.732109,-0.005002 -9.461867,0.003906 -14.189453,0.003906 H 5.2363281 L 4.9433594,0.48199305 C 4.1599987,1.7584058 2.5758373,2.5411458 1.0449219,2.4995714 H 1.03125 1.0175781 0 l 0.015625,1.015625 c 0.0279663,1.8490038 0.41922887,3.6942348 1.1757812,5.3925781 0,0 0.00195,0.00195 0.00195,0.00195 0,0 0,0.00195 0,0.00195 0.9681161,2.1924485 2.582087,4.0681185 4.5820312,5.3710935 0.2607907,0.175241 0.5079984,0.274797 0.7695313,0.421875 -0.1305695,0.07537 -0.2498523,0.124549 -0.3808594,0.207031 -1.4087803,0.872257 -2.6661516,2.007268 -3.6523437,3.363282 -1.61807508,2.217626 -2.45746326,4.928651 -2.49414071,7.640625 l -0.015625,1.042968 1.04296881,-0.0293 c 1.5311785,-0.04315 3.1168648,0.742886 3.8964844,2.021494 l 0.2929688,0.478516 h 0.5605469 c 4.7269951,0.001 9.4551751,0.002 14.1835941,0 h 0.5625 l 0.292968,-0.480469 c 0.778587,-1.28085 2.369585,-2.06322 3.904297,-2.017578 l 1.023438,0.0293 0.0078,-1.021485 c 0.02496,-3.41041 -1.321604,-6.815203 -3.80664,-9.207031 -0.83674,-0.832767 -1.785795,-1.461039 -2.757813,-2.025391 0.283353,-0.164275 0.554218,-0.282923 0.835938,-0.478515 1.284242,-0.869832 2.423728,-1.962069 3.328125,-3.240234 1.55048,-2.1819699 2.360858,-4.8246814 2.396496,-7.4726596 l 0.01367,-1.0019531 -1.001953,-0.011719 c -0.466697,-0.00548 -0.90279,-0.043278 -1.289063,-0.140625 l -0.0059,-0.00195 -0.0059,-0.00195 C 22.402283,2.1003025 21.409381,1.4002687 20.835937,0.47418081 L 20.542969,0.00152455 Z M 1.0234375,4.4917589 l -0.00781,0.00781 h -0.0253906 c 0.0115185,3.128e-4 0.0216844,-0.00806 0.0332031,-0.00781 z M 12.859375,8.8706652 c 0.109997,-6.686e-4 0.220624,0.0045 0.330078,0.015625 0.437818,0.0445 0.864883,0.1815653 1.226563,0.4082031 l 0.0039,0.00391 0.0039,0.00195 c 0.869642,0.5320415 1.436601,1.6212697 1.400391,2.6328127 -0.145725,0.678112 -0.678362,1.367897 -1.34375,2.121094 l -0.589844,0.667968 0.595703,0.66211 c 0.602372,0.670258 1.099741,1.319454 1.314453,1.982422 0.133445,0.507809 0.01943,1.150371 -0.287109,1.691406 -0.462024,0.799683 -1.369038,1.387072 -2.291016,1.486328 h -0.0039 l -0.0059,0.002 c -0.926716,0.10984 -1.952779,-0.290098 -2.572219,-0.996142 v -0.002 l -0.002,-0.002 C 10.122554,18.96383 9.8538707,18.13293 9.9589844,17.41168 10.120448,16.742583 10.640137,16.08415 11.304687,15.440977 l 0.72461,-0.701172 -0.705078,-0.71875 C 10.737736,13.423148 10.2479,12.832567 10.007813,12.216368 l -0.002,-0.0039 -0.002,-0.0039 c -0.1123274,-0.280078 -0.1036569,-0.703736 0.01562,-1.169935 0.231772,-0.890376 0.983393,-1.6892062 1.865235,-1.9960928 l 0.0059,-0.00195 0.0078,-0.00195 c 0.302935,-0.1106731 0.630919,-0.1659695 0.960909,-0.167975 z" />
  <path fill="url(#rarity)" d="m 1.017625,3.4999714 c 1.878,0.051 3.786,-0.876 4.779,-2.494 4.729,0 9.459,-0.01 14.189,-0.005 0.722,1.166 1.928,2.011 3.259,2.329 0.496,0.125 1.01,0.165 1.521,0.171 -0.033,2.452 -0.787,4.903 -2.211,6.9069996 -0.831,1.175 -1.884,2.187 -3.074,2.993 -0.731,0.509 -1.531,0.902 -2.315,1.32 1.478,0.72 2.925,1.555 4.098,2.724 2.275,2.186 3.528,5.343 3.505,8.486 -1.883,-0.056 -3.801,0.872 -4.79,2.499 -4.728,0.002 -9.456,0.001 -14.183,0 -0.989,-1.622 -2.899,-2.553 -4.779,-2.5 0.034,-2.514 0.817,-5.031 2.303,-7.067 0.904,-1.243 2.066,-2.293 3.371,-3.101 0.623,-0.393 1.289,-0.709 1.94,-1.052 -0.778,-0.4 -1.575,-0.77 -2.303,-1.26 -1.842,-1.198 -3.333,-2.932 -4.221,-4.9449996 -0.7,-1.57 -1.065,-3.286 -1.091,-5.005 z m 10.538,4.599 c -1.204,0.419 -2.182,1.45 -2.504,2.6869996 -0.15,0.583 -0.204,1.223 0.025,1.794 0.323,0.829 0.917,1.514 1.533,2.142 -0.715,0.692 -1.413,1.492 -1.641,2.488 -0.177,1.071 0.208,2.195 0.921,3 0.844,0.962 2.168,1.48 3.441,1.329 1.254,-0.135 2.425,-0.893 3.054,-1.987 0.417,-0.736 0.609,-1.637 0.383,-2.464 -0.287,-0.913 -0.908,-1.671 -1.538,-2.372 0.682,-0.772 1.414,-1.605 1.609,-2.648 0.093,-1.429 -0.671,-2.8729996 -1.892,-3.6199996 -0.999,-0.626 -2.285,-0.753 -3.391,-0.349 z"/>
</svg>
