<?xml version="1.0" encoding="UTF-8" standalone="no"?>
<svg
   version="1.1"
   width="31.196356"
   height="21.615694"
   viewBox="0 0 31.196356 21.615694"
   id="svg4"
   xmlns="http://www.w3.org/2000/svg"
   xmlns:svg="http://www.w3.org/2000/svg">
  <defs>
    <!-- This is the gradient that will actually be used on
     the cards. The colors themselves will be provided by the
     template, but the x values, y values, and offsets will be
     used from the SVG. -->
    <linearGradient id="rarity" x1="0" y1="1" x2="1" y2="0">
      <stop offset="0" style="stop-color:rgb(192,55,38);stop-opacity:1" id="stop2" />
      <stop offset="0.125" style="stop-color:rgb(192,55,38);stop-opacity:1" id="stop4" />
      <stop offset="0.5" style="stop-color:rgb(241,142,30);stop-opacity:1" id="stop6" />
      <stop offset="0.875" style="stop-color:rgb(192,55,38);stop-opacity:1" id="stop8" />
      <stop offset="1" style="stop-color:rgb(192,55,38);stop-opacity:1" id="stop10" />
    </linearGradient>
    <!-- These gradients are here so that you can visualize
     what the set symbol would like like in that rarity. The
     only gradient that matters in the end is the "rarity"
     gradient. -->
    <linearGradient id="mythic" x1="0" y1="1" x2="1" y2="0">
      <stop offset="0" style="stop-color:rgb(192,55,38);stop-opacity:1"/>
      <stop offset="0.125" style="stop-color:rgb(192,55,38);stop-opacity:1"/>
      <stop offset="0.5" style="stop-color:rgb(241,142,30);stop-opacity:1"/>
      <stop offset="0.875" style="stop-color:rgb(192,55,38);stop-opacity:1"/>
      <stop offset="1" style="stop-color:rgb(192,55,38);stop-opacity:1"/>
    </linearGradient>
    <linearGradient id="rare" x1="0" y1="1" x2="1" y2="0">
      <stop offset="0" style="stop-color:rgb(146,116,67);stop-opacity:1"/>
      <stop offset="0.125" style="stop-color:rgb(146,116,67);stop-opacity:1"/>
      <stop offset="0.5" style="stop-color:rgb(211,178,108);stop-opacity:1"/>
      <stop offset="0.875" style="stop-color:rgb(146,116,67);stop-opacity:1"/>
      <stop offset="1" style="stop-color:rgb(146,116,67);stop-opacity:1"/>
    </linearGradient>
    <linearGradient id="special" x1="0" y1="1" x2="1" y2="0">
      <stop offset="0" style="stop-color:rgb(76, 56, 106);stop-opacity:1"/>
      <stop offset="0.125" style="stop-color:rgb(76, 56, 106);stop-opacity:1"/>
      <stop offset="0.5" style="stop-color:rgb(201, 173, 221);stop-opacity:1"/>
      <stop offset="0.875" style="stop-color:rgb(76, 56, 106);stop-opacity:1"/>
      <stop offset="1" style="stop-color:rgb(76, 56, 106);stop-opacity:1"/>
    </linearGradient>
    <linearGradient id="uncommon" x1="0" y1="1" x2="1" y2="0">
      <stop offset="0" style="stop-color:rgb(98,110,119);stop-opacity:1"/>
      <stop offset="0.125" style="stop-color:rgb(98,110,119);stop-opacity:1"/>
      <stop offset="0.5" style="stop-color:rgb(196,222,238);stop-opacity:1"/>
      <stop offset="0.875" style="stop-color:rgb(98,110,119);stop-opacity:1"/>
      <stop offset="1" style="stop-color:rgb(98,110,119);stop-opacity:1"/>
    </linearGradient>
    <linearGradient id="common" x1="0" y1="1" x2="1" y2="0">
      <stop offset="0" style="stop-color:rgb(0,0,0);stop-opacity:1"/>
    </linearGradient>
    <linearGradient
            id="rarity-outline" x1="0" y1="1" x2="0" y2="1">
      <stop offset="0" style="stop-color:rgb(0,0,0);stop-opacity:1"/>
    </linearGradient>
  </defs>
  <path fill="url(#rarity-outline)" d="M 15.689453 -0.12109375 C 15.471944 -0.12717178 15.258646 -0.11057641 15.052734 -0.076171875 C 14.632243 -0.005914495 14.238581 0.13073614 13.884766 0.27148438 A 0.6250625 0.6250625 0 0 0 13.582031 0.5546875 L 13.84375 0.29296875 C 13.123105 0.64004535 12.46634 1.0566807 11.828125 1.4472656 A 0.6250625 0.6250625 0 0 0 11.822266 1.4511719 C 9.7155094 2.7729008 7.6436445 4.1523184 5.5957031 5.5664062 C 5.2473819 5.7787645 5.0364708 6.1095015 4.9296875 6.4453125 A 0.6250625 0.6250625 0 0 0 5.1035156 7.0957031 C 5.9828938 7.8984218 6.8503057 8.7082505 7.671875 9.5546875 A 0.6250625 0.6250625 0 0 0 7.671875 9.5566406 C 8.097468 9.9935039 8.4800448 10.452114 8.7675781 10.953125 C 9.0338157 11.417026 9.1870503 11.917631 9.1054688 12.335938 A 0.6250625 0.6250625 0 0 0 9.1054688 12.337891 C 9.0133088 12.819142 8.6447818 13.257081 8.1835938 13.574219 C 7.3070772 14.171368 6.1984529 14.387461 5.0976562 14.351562 C 4.5427998 14.326533 4.0747031 14.284633 3.7460938 14.089844 A 0.6250625 0.6250625 0 0 0 3.7382812 14.083984 C 3.4877071 13.94126 3.2876844 13.658628 3.2792969 13.404297 A 0.6250625 0.6250625 0 0 0 3.2773438 13.394531 C 3.2720337 13.286788 3.388841 13.119149 3.5039062 13.066406 A 0.6250625 0.6250625 0 0 0 3.5078125 13.064453 C 3.6915625 12.978703 3.9607955 12.965689 4.2753906 13.011719 C 4.5905713 13.065119 4.9233686 13.314603 5.1503906 13.669922 A 0.6250625 0.6250625 0 0 0 6.203125 13.669922 C 6.4331562 13.309067 6.4466753 12.880722 6.3574219 12.550781 C 6.2681689 12.22084 6.0987598 11.956765 5.9121094 11.744141 C 5.3407664 11.096178 4.5269042 10.641888 3.6230469 10.619141 C 2.5982519 10.566651 1.5210494 10.871475 0.70507812 11.611328 C 0.70507812 11.611328 0.703125 11.613281 0.703125 11.613281 C -0.02263585 12.256628 -0.27308517 13.265543 -0.0390625 14.179688 C 0.1801987 15.120717 0.77817412 15.878036 1.4863281 16.390625 C 2.6406392 17.222777 4.0166424 17.515941 5.3066406 17.572266 A 0.6250625 0.6250625 0 0 0 5.3105469 17.572266 C 7.6690388 17.656166 9.9599225 16.960638 12.017578 15.929688 C 12.020678 15.928187 12.020337 15.929218 12.023438 15.927734 C 12.026938 15.986734 12.030625 16.051067 12.015625 16.111328 A 0.6250625 0.6250625 0 0 0 12.013672 16.121094 C 11.808639 17.001429 11.272585 17.801308 10.589844 18.384766 C 10.246041 18.66441 9.9060673 18.803769 9.5976562 18.84375 C 9.6264822 18.711046 9.6383988 18.600291 9.75 18.361328 A 0.6250625 0.6250625 0 0 0 8.9472656 17.517578 C 8.4972663 17.701517 8.0190108 18.016672 7.7304688 18.548828 C 7.7304688 18.548828 7.7285156 18.550781 7.7285156 18.550781 C 7.2256131 19.46537 7.443735 20.643213 8.3125 21.259766 C 9.0449625 21.788668 9.9231767 21.803236 10.646484 21.669922 A 0.6250625 0.6250625 0 0 0 10.658203 21.667969 C 11.784589 21.439232 12.788677 20.847144 13.615234 20.095703 A 0.6250625 0.6250625 0 0 0 13.619141 20.09375 C 14.526656 19.260535 15.283717 18.114302 15.433594 16.753906 A 0.6250625 0.6250625 0 0 0 15.435547 16.732422 C 15.523027 15.563534 15.396717 14.28477 14.748047 13.183594 C 14.673147 13.031663 14.605068 12.936378 14.572266 12.890625 C 14.602346 12.630221 14.73302 12.335523 14.917969 11.982422 A 0.6250625 0.6250625 0 0 0 14.886719 11.347656 C 14.613019 10.931897 14.340613 10.513871 14.0625 10.09375 A 0.6250625 0.6250625 0 0 0 14.033203 10.054688 C 14.011333 10.026747 14.005713 9.9965217 14.007812 9.9804688 A 0.6250625 0.6250625 0 0 0 14.009766 9.9628906 C 14.050256 9.5664679 14.221292 9.1707188 14.46875 8.8828125 C 14.900906 8.3959542 15.696739 8.2867336 16.296875 8.5585938 A 0.6250625 0.6250625 0 0 0 16.300781 8.5585938 C 16.729487 8.750402 17.079349 9.2828875 17.175781 9.859375 C 17.197951 9.9933631 17.162669 10.043537 17.199219 9.9921875 A 0.6250625 0.6250625 0 0 0 17.185547 10.013672 C 16.895623 10.457759 16.600635 10.903723 16.308594 11.353516 A 0.6250625 0.6250625 0 0 0 16.28125 11.986328 C 16.463061 12.327297 16.591245 12.624104 16.625 12.888672 C 16.59196 12.934872 16.52399 13.029916 16.449219 13.181641 C 15.7994 14.284117 15.675202 15.564556 15.763672 16.734375 A 0.6250625 0.6250625 0 0 0 15.765625 16.755859 C 15.911229 18.079015 16.634607 19.199824 17.503906 20.023438 A 0.6250625 0.6250625 0 0 0 17.505859 20.025391 C 18.348664 20.813616 19.38414 21.433588 20.546875 21.667969 A 0.6250625 0.6250625 0 0 0 20.558594 21.669922 C 21.298008 21.804734 22.205226 21.784194 22.941406 21.214844 L 22.943359 21.212891 C 23.789939 20.565014 23.971738 19.379091 23.431641 18.480469 C 23.137671 17.983803 22.679045 17.691657 22.251953 17.515625 A 0.6250625 0.6250625 0 0 0 21.449219 18.361328 C 21.551564 18.577849 21.566323 18.69258 21.599609 18.828125 C 21.35478 18.801595 21.089956 18.736495 20.794922 18.527344 C 20.141487 18.040644 19.610475 17.339809 19.3125 16.546875 C 19.21999 16.271227 19.188102 16.083139 19.193359 15.939453 C 19.262389 15.971703 19.287329 15.982893 19.421875 16.042969 C 20.932869 16.777945 22.556002 17.311224 24.242188 17.503906 A 0.6250625 0.6250625 0 0 0 24.246094 17.505859 C 25.591009 17.654117 27.011712 17.595249 28.355469 17.103516 A 0.6250625 0.6250625 0 0 0 28.357422 17.103516 C 29.266885 16.766974 30.183452 16.197559 30.775391 15.271484 A 0.6250625 0.6250625 0 0 0 30.777344 15.267578 C 31.209001 14.582675 31.48277 13.676562 31.207031 12.767578 C 31.053187 12.203514 30.703517 11.74707 30.28125 11.429688 C 30.28125 11.429688 30.279297 11.429688 30.279297 11.429688 C 29.318873 10.697401 28.083682 10.454317 26.941406 10.701172 A 0.6250625 0.6250625 0 0 0 26.886719 10.716797 C 26.106243 10.95892 25.284589 11.480502 24.900391 12.386719 C 24.684147 12.850424 24.807984 13.311538 24.964844 13.617188 A 0.6250625 0.6250625 0 0 0 26.048828 13.667969 C 26.275317 13.313483 26.606974 13.064023 26.923828 13.009766 C 27.23728 12.964176 27.509312 12.97632 27.693359 13.0625 C 27.805327 13.11482 27.914601 13.266382 27.917969 13.369141 C 27.924069 13.556739 27.817177 13.7853 27.652344 13.9375 A 0.6250625 0.6250625 0 0 0 27.650391 13.939453 C 27.43815 14.137143 27.119811 14.257606 26.767578 14.298828 C 25.852565 14.406682 24.931025 14.361278 24.087891 14.089844 C 23.368006 13.85216 22.708994 13.463434 22.320312 12.882812 A 0.6250625 0.6250625 0 0 0 22.316406 12.876953 C 22.093758 12.552613 22.011579 12.088732 22.117188 11.703125 A 0.6250625 0.6250625 0 0 0 22.119141 11.697266 C 22.297269 11.019641 22.752097 10.401658 23.283203 9.8085938 C 24.168278 8.8660984 25.124845 7.980202 26.09375 7.09375 A 0.6250625 0.6250625 0 0 0 26.265625 6.4394531 C 26.158979 6.1085444 25.953395 5.7777611 25.603516 5.5644531 C 23.422997 4.0607993 21.217188 2.5868627 18.962891 1.1933594 A 0.6250625 0.6250625 0 0 0 18.951172 1.1875 C 18.21019 0.75045268 17.393499 0.17896113 16.353516 -0.02734375 C 16.128681 -0.086264275 15.906962 -0.11501572 15.689453 -0.12109375 z " />
  <path fill="url(#rarity)" d="m 14.116346,0.85191932 c 0.663647,-0.264 1.393471,-0.467 2.09966,-0.274 0.882973,0.17 1.64683,0.69299998 2.418249,1.14800008 2.251865,1.392 4.458352,2.865 6.643095,4.372 0.19191,0.117 0.323316,0.314 0.394218,0.534 -0.972783,0.89 -1.942729,1.788 -2.849336,2.754 -0.555876,0.6199996 -1.088118,1.3149996 -1.308388,2.1519996 -0.156931,0.573 -0.04443,1.211 0.286446,1.693 0.495372,0.74 1.288535,1.188 2.091152,1.453 0.951039,0.307 1.964473,0.351 2.9486,0.235 0.444322,-0.052 0.895263,-0.205 1.235595,-0.522 0.282665,-0.261 0.480246,-0.645 0.467011,-1.049 -0.01229,-0.375 -0.268484,-0.704 -0.585182,-0.852 -0.354513,-0.166 -0.756294,-0.161 -1.13255,-0.105 -0.54075,0.09 -1.002089,0.468 -1.303661,0.94 -0.107772,-0.21 -0.166385,-0.463 -0.05767,-0.687 0.284556,-0.69 0.948204,-1.126 1.609015,-1.331 0.967111,-0.209 2.025922,-0.001 2.830429,0.613 0.329934,0.247 0.596527,0.597 0.707135,1.012 0.210817,0.679 9.45e-4,1.421 -0.362076,1.997 -0.495372,0.775 -1.286644,1.278 -2.108168,1.582 -1.224251,0.448 -2.546819,0.508 -3.825901,0.367 -1.601452,-0.183 -3.158472,-0.693 -4.618118,-1.403 -0.207981,-0.092 -0.405563,-0.226 -0.632451,-0.253 -0.258085,-0.003 -0.452831,0.248 -0.501045,0.498 -0.06901,0.354 0.05105,0.708 0.162603,1.037 0.341278,0.911 0.944422,1.71 1.701661,2.272 0.425416,0.303 0.931187,0.559 1.457756,0.486 0.199473,-0.022 0.395164,-0.176 0.414071,-0.399 0.03498,-0.368 -0.134242,-0.71 -0.284555,-1.028 0.346949,0.143 0.681609,0.367 0.882027,0.708 0.363021,0.604 0.21838,1.495 -0.33466,1.917 -0.537914,0.417 -1.254502,0.453 -1.890734,0.337 -1.021942,-0.206 -1.961637,-0.762 -2.736838,-1.487 -0.788436,-0.747 -1.422777,-1.748 -1.547566,-2.882 -0.08319,-1.1 0.04065,-2.263 0.609762,-3.213 0.08697,-0.199 0.298736,-0.359 0.266594,-0.598 -0.03876,-0.427 -0.233506,-0.816 -0.429197,-1.183 0.290228,-0.447 0.584237,-0.892 0.87541,-1.338 0.121007,-0.17 0.11628,-0.3979996 0.08319,-0.5979996 -0.124788,-0.746 -0.561548,-1.466 -1.23654,-1.768 -0.83665,-0.379 -1.91815,-0.242 -2.556273,0.479 -0.339387,0.392 -0.556821,0.904 -0.610707,1.431 -0.02553,0.1949996 0.03498,0.3889996 0.15315,0.5399996 0.276047,0.417 0.547367,0.835 0.822469,1.253 -0.1938,0.37 -0.393273,0.757 -0.428251,1.186 -0.03309,0.239 0.178674,0.398 0.265648,0.597 0.568165,0.949 0.692954,2.111 0.610707,3.21 -0.12857,1.167 -0.793163,2.193 -1.616578,2.949 -0.760075,0.691 -1.672354,1.221 -2.662154,1.422 -0.6239423,0.115 -1.3206783,0.085 -1.8585922,-0.305 -0.5681656,-0.402 -0.7392771,-1.286 -0.3970542,-1.904 0.1966364,-0.364 0.5435861,-0.603 0.9056617,-0.751 -0.1559856,0.334 -0.3460044,0.703 -0.2722657,1.09 0.052941,0.248 0.3110258,0.349 0.5275148,0.35 0.5795106,0.014 1.1098616,-0.307 1.5551296,-0.671 0.776147,-0.662 1.387799,-1.572 1.627922,-2.603 0.08319,-0.335 0.04065,-0.769 -0.263757,-0.966 -0.198527,-0.14 -0.431088,-0.016 -0.621106,0.075 -1.9918893,0.998 -4.1832506,1.656 -6.403918,1.577 -1.2138514,-0.053 -2.4626814,-0.33 -3.4808418,-1.064 -0.607871,-0.44 -1.10891559,-1.084 -1.28569922,-1.852 -0.17961975,-0.691 0.0274157,-1.489 0.55209442,-1.953 0.6778282,-0.618 1.6014519,-0.885 2.4844248,-0.837 0.6986263,0.016 1.3679462,0.38 1.8396844,0.915 0.270375,0.308 0.484028,0.784 0.2335057,1.177 -0.3015721,-0.472 -0.7619659,-0.851 -1.3027159,-0.94 -0.3762561,-0.056 -0.7770918,-0.061 -1.1306591,0.104 -0.3403322,0.156 -0.6088164,0.524 -0.5889637,0.927 0.017017,0.516 0.3564034,0.965 0.7742556,1.203 0.5010446,0.297 1.0900083,0.324 1.6496657,0.349 1.1958894,0.039 2.4399925,-0.192 3.4590983,-0.887 0.551149,-0.379 1.0474668,-0.933 1.1817085,-1.634 0.123843,-0.635 -0.1002085,-1.277 -0.4083982,-1.814 -0.3242569,-0.565 -0.7430546,-1.0629996 -1.1902132,-1.5219996 -0.8357045,-0.861 -1.7111145,-1.679 -2.5940874,-2.485 0.069957,-0.22 0.2032539,-0.417 0.3951635,-0.534 2.0514466,-1.417 4.1265286,-2.798 6.2337516,-4.12 0.643795,-0.394 1.282863,-0.7990001 1.959746,-1.12500008 z"/>
</svg>
