<?xml version="1.0" encoding="UTF-8" standalone="no"?>
<svg
   version="1.1"
   width="35.524845"
   height="27.252048"
   viewBox="0 0 35.524845 27.252048"
   id="svg63"
   xmlns:xlink="http://www.w3.org/1999/xlink"
   xmlns="http://www.w3.org/2000/svg"
   xmlns:svg="http://www.w3.org/2000/svg">
  <defs
     id="defs59">
    <!-- This is the gradient that will actually be used on
     the cards. The colors themselves will be provided by the
     template, but the x values, y values, and offsets will be
     used from the SVG. -->
    <linearGradient
       id="rarity"
       x1="0"
       y1="1"
       x2="1"
       y2="0">
      <stop
         offset="0"
         style="stop-color:rgb(192,55,38);stop-opacity:1"
         id="stop2" />
      <stop
         offset="0.125"
         style="stop-color:rgb(192,55,38);stop-opacity:1"
         id="stop4" />
      <stop
         offset="0.5"
         style="stop-color:rgb(241,142,30);stop-opacity:1"
         id="stop6" />
      <stop
         offset="0.875"
         style="stop-color:rgb(192,55,38);stop-opacity:1"
         id="stop8" />
      <stop
         offset="1"
         style="stop-color:rgb(192,55,38);stop-opacity:1"
         id="stop10" />
    </linearGradient>
    <!-- These gradients are here so that you can visualize
     what the set symbol would like like in that rarity. The
     only gradient that matters in the end is the "rarity"
     gradient. -->
    <linearGradient
       id="mythic"
       x1="0"
       y1="1"
       x2="1"
       y2="0">
      <stop
         offset="0"
         style="stop-color:rgb(192,55,38);stop-opacity:1"
         id="stop9" />
      <stop
         offset="0.125"
         style="stop-color:rgb(192,55,38);stop-opacity:1"
         id="stop11" />
      <stop
         offset="0.5"
         style="stop-color:rgb(241,142,30);stop-opacity:1"
         id="stop13" />
      <stop
         offset="0.875"
         style="stop-color:rgb(192,55,38);stop-opacity:1"
         id="stop15" />
      <stop
         offset="1"
         style="stop-color:rgb(192,55,38);stop-opacity:1"
         id="stop17" />
    </linearGradient>
    <linearGradient
       id="rare"
       x1="0"
       y1="1"
       x2="1"
       y2="0">
      <stop
         offset="0"
         style="stop-color:rgb(146,116,67);stop-opacity:1"
         id="stop20" />
      <stop
         offset="0.125"
         style="stop-color:rgb(146,116,67);stop-opacity:1"
         id="stop22" />
      <stop
         offset="0.5"
         style="stop-color:rgb(211,178,108);stop-opacity:1"
         id="stop24" />
      <stop
         offset="0.875"
         style="stop-color:rgb(146,116,67);stop-opacity:1"
         id="stop26" />
      <stop
         offset="1"
         style="stop-color:rgb(146,116,67);stop-opacity:1"
         id="stop28" />
    </linearGradient>
    <linearGradient
       id="special"
       x1="0"
       y1="1"
       x2="1"
       y2="0">
      <stop
         offset="0"
         style="stop-color:rgb(76, 56, 106);stop-opacity:1"
         id="stop31" />
      <stop
         offset="0.125"
         style="stop-color:rgb(76, 56, 106);stop-opacity:1"
         id="stop33" />
      <stop
         offset="0.5"
         style="stop-color:rgb(201, 173, 221);stop-opacity:1"
         id="stop35" />
      <stop
         offset="0.875"
         style="stop-color:rgb(76, 56, 106);stop-opacity:1"
         id="stop37" />
      <stop
         offset="1"
         style="stop-color:rgb(76, 56, 106);stop-opacity:1"
         id="stop39" />
    </linearGradient>
    <linearGradient
       id="uncommon"
       x1="0"
       y1="1"
       x2="1"
       y2="0">
      <stop
         offset="0"
         style="stop-color:rgb(98,110,119);stop-opacity:1"
         id="stop42" />
      <stop
         offset="0.125"
         style="stop-color:rgb(98,110,119);stop-opacity:1"
         id="stop44" />
      <stop
         offset="0.5"
         style="stop-color:rgb(196,222,238);stop-opacity:1"
         id="stop46" />
      <stop
         offset="0.875"
         style="stop-color:rgb(98,110,119);stop-opacity:1"
         id="stop48" />
      <stop
         offset="1"
         style="stop-color:rgb(98,110,119);stop-opacity:1"
         id="stop50" />
    </linearGradient>
    <linearGradient
       id="common"
       x1="0"
       y1="1"
       x2="1"
       y2="0">
      <stop
         offset="0"
         style="stop-color:rgb(0,0,0);stop-opacity:1"
         id="stop53" />
    </linearGradient>
    <linearGradient
       id="rarity-outline"
       x1="0"
       y1="1"
       x2="0"
       y2="1">
      <stop
         offset="0"
         style="stop-color:rgb(0,0,0);stop-opacity:1"
         id="stop56" />
    </linearGradient>
    <linearGradient
       xlink:href="#rarity"
       id="linearGradient1111"
       x1="7.1578536"
       y1="11.372"
       x2="25.179985"
       y2="11.372"
       gradientUnits="userSpaceOnUse"
       gradientTransform="translate(2.5781247,2.7324219)" />
    <linearGradient
       xlink:href="#rarity"
       id="linearGradient1306"
       gradientUnits="userSpaceOnUse"
       x1="7.1578536"
       y1="11.372"
       x2="25.179985"
       y2="11.372"
       gradientTransform="rotate(61.169679,15.128132,7.9705313)" />
    <linearGradient
       xlink:href="#rarity"
       id="linearGradient1310"
       gradientUnits="userSpaceOnUse"
       gradientTransform="rotate(-61.161911,19.789592,3.6551915)"
       x1="7.1578536"
       y1="11.372"
       x2="25.179985"
       y2="11.372" />
  </defs>
  <path
     id="path1714"
     style="color:#000000;fill:#000000;stroke-width:2;-inkscape-stroke:none"
     d="m 26.757813,0 -0.78711,2.4238281 c -0.698355,2.1521122 -1.725239,3.2808572 -2.943359,3.9589844 -1.21812,0.6781272 -2.70264,0.890625 -4.28125,0.890625 -1.577459,0 -3.061445,-0.2123696 -4.279297,-0.890625 C 13.248945,5.7045571 12.222272,4.5755403 11.523437,2.4238281 L 10.736328,0.0019531 9.6660153,2.3125 C 9.1036339,3.5250536 8.8730864,4.8186374 8.8203123,6.1152344 L 7.8359372,6.6386719 c -0.5548921,0.2946135 -1.0941,0.6818722 -1.5429687,1.1933594 v 0.00195 h -0.00195 C 5.5613197,8.6689076 5.2105849,9.6763171 4.9902341,10.617188 4.7987083,11.417702 4.7055675,12.08978 4.4882809,12.587891 c -0.2378643,0.541144 -0.6791892,1.059689 -1.1835937,1.375 h -0.00195 l -0.00195,0.002 c -0.3296354,0.207909 -0.726062,0.35327 -1.1425782,0.43164 L 5e-8,14.802781 1.7246094,16.16411 C 2.1913439,16.532544 2.663003,16.85324 3.125,17.162157 v -0.002 c 0.9735494,0.65367 2.0875739,1.414015 3.4980468,1.664063 0.9515093,0.169773 1.9684424,0.09533 2.8925782,-0.302735 1.108086,-0.472101 1.804484,-1.209314 2.433594,-1.548828 l 0.0039,-0.002 c 0.275766,-0.146981 0.615168,-0.27546 0.996094,-0.412109 l 0.08594,-0.03125 c -0.0019,0.603754 0.06863,1.233337 0.291016,1.847656 v 0.002 c 0.379491,1.041664 1.092186,1.835349 1.810547,2.482422 0.609677,0.554486 1.15336,0.960822 1.484375,1.390625 0.358891,0.468833 0.599766,1.104378 0.632812,1.699219 v 0.002 0.002 c 0.02311,0.387781 -0.04089,0.806511 -0.173828,1.210938 l -0.6875,2.08789 2.025391,-0.853515 c 0.548927,-0.231528 1.057629,-0.49242 1.550781,-0.748047 1.041495,-0.537351 2.245349,-1.147879 3.144531,-2.261719 0.607521,-0.751115 1.033492,-1.676829 1.13086,-2.677734 v -0.002 c 0.12115,-1.200206 -0.190507,-2.168877 -0.183594,-2.884765 0.004,-0.315131 0.05537,-0.67396 0.11914,-1.072266 l 0.0039,-0.02734 c 0.524778,0.289937 1.104192,0.533811 1.746093,0.634765 h 0.002 c 1.095464,0.169993 2.135695,-0.07157 3.048828,-0.388672 0.777023,-0.265803 1.395176,-0.54587 1.93164,-0.628906 0.58546,-0.0889 1.258553,0.008 1.794922,0.265625 h 0.002 0.002 c 0.35164,0.16718 0.68783,0.424719 0.976563,0.734375 l 1.496094,1.607422 0.228515,-2.185547 c 0.06149,-0.589006 0.0817,-1.157667 0.0957,-1.714844 v -0.002 c 0.03151,-1.171404 0.07722,-2.519293 -0.464844,-3.84375 v -0.002 C 34.677142,10.305246 34.068909,9.4870142 33.240234,8.9199219 h -0.002 C 32.246811,8.2358368 31.251396,8.0424752 30.626953,7.6914063 l -0.002,-0.00195 C 30.349666,7.5330919 30.058545,7.3149388 29.742187,7.0683594 l -1.0625,-0.8261719 C 28.642266,4.9032443 28.410662,3.5647495 27.830078,2.3125 Z" />
  <path
     fill="#000000"
     d="m 10.572125,2.7324219 c -1.2940002,2.79 -1.0750003,6.046 0.58,8.6390001 1.655,2.593 4.518,4.162 7.594,4.162 3.076,0 5.939,-1.569 7.594,-4.162 1.657,-2.5930001 1.876,-5.8480001 0.582,-8.6390001 -1.518,4.678 -4.846,5.541 -8.176,5.541 -3.328,0 -6.655,-0.864 -8.174,-5.541 z m 7.457,22.7440001 c 0.505,-0.213 0.991,-0.46 1.481,-0.714 1.035,-0.534 2.096,-1.098 2.825,-2.002 0.495,-0.612 0.84,-1.38 0.914,-2.152 0.094,-0.927 -0.198,-1.861 -0.189,-2.793 0.005,-0.407 0.066,-0.815 0.131,-1.221 -0.724,0.337 -1.464,0.59 -2.245,0.767 -0.623,0.142 -1.705,0.31 -2.353,0.278 -1.638,-0.077 -3.1,-0.446 -4.57,-1.176 -0.008,0.53 0.062,1.072 0.243,1.572 0.294,0.807 0.885,1.492 1.54,2.082 0.556,0.506 1.158,0.941 1.607,1.524 0.486,0.634 0.794,1.443 0.839,2.253 0.032,0.537 -0.056,1.077 -0.222,1.582 z"
     id="path61"
     style="fill:url(#linearGradient1111);fill-opacity:1" />
  <path
     fill="#000000"
     d="m 2.3415037,15.377403 c 0.4301188,0.339694 0.8808612,0.646348 1.3396647,0.953129 0.9669065,0.649209 1.9726322,1.30673 3.1161193,1.509447 0.7748412,0.138528 1.6140139,0.07042 2.3260099,-0.23702 C 9.9807258,17.238292 10.658151,16.532094 11.478971,16.090552 11.837935,15.89867 12.224779,15.755363 12.6118,15.616527 11.967445,15.144773 11.388963,14.618496 10.85729,14.019652 10.43247,13.542346 9.7635339,12.675471 9.4790908,12.092359 8.7566748,10.620255 8.374936,9.1615298 8.3055942,7.5217152 7.837429,7.770282 7.3963642,8.0929674 7.0456199,8.4926415 6.4804181,9.13935 6.1653132,9.9874154 5.9642951,10.845737 5.7891258,11.576824 5.6983382,12.313972 5.4041156,12.988452 5.0830567,13.719939 4.5228538,14.379876 3.8349517,14.809894 3.3799431,15.096879 2.86444,15.280183 2.3419859,15.378279 Z"
     id="path1201"
     style="fill:url(#linearGradient1306);fill-opacity:1" />
  <path
     fill="#000000"
     d="m 34.418467,16.66296 c 0.057,-0.545111 0.07504,-1.089978 0.08889,-1.641723 0.03144,-1.164213 0.04914,-2.365673 -0.391124,-3.440298 C 33.81888,10.852136 33.312526,10.179488 32.671961,9.7422994 31.905261,9.2128313 30.946248,9.0181171 30.134169,8.5606965 29.780055,8.3600053 29.452074,8.1097779 29.127777,7.8570104 c -0.054,0.7967609 -0.189309,1.5670214 -0.410964,2.3365396 -0.176106,0.614232 -0.550828,1.643081 -0.891413,2.195286 -0.857517,1.397726 -1.885931,2.500436 -3.234435,3.43603 0.460414,0.262645 0.968962,0.462753 1.494258,0.545368 0.848727,0.131705 1.733838,-0.0556 2.5666,-0.344795 0.711428,-0.242987 1.382848,-0.560515 2.110118,-0.67263 0.78979,-0.119931 1.647022,4.77e-4 2.378276,0.351751 0.48584,0.230983 0.916426,0.568531 1.278733,0.957524 z"
     id="path1308"
     style="fill:url(#linearGradient1310);fill-opacity:1" />
</svg>
