<?xml version="1.0" encoding="UTF-8" standalone="no"?>
<!-- Generated by IcoMoon.io -->

<svg
   version="1.1"
   width="31.903122"
   height="22.743999"
   viewBox="0 0 31.903122 22.743999"
   id="svg6"
   sodipodi:docname="eve.svg"
   inkscape:version="1.1.1 (3bf5ae0d25, 2021-09-20)"
   xmlns:inkscape="http://www.inkscape.org/namespaces/inkscape"
   xmlns:sodipodi="http://sodipodi.sourceforge.net/DTD/sodipodi-0.dtd"
   xmlns="http://www.w3.org/2000/svg"
   xmlns:svg="http://www.w3.org/2000/svg">
  <defs
     id="defs10" />
  <sodipodi:namedview
     id="namedview8"
     pagecolor="#ffffff"
     bordercolor="#666666"
     borderopacity="1.0"
     inkscape:pageshadow="2"
     inkscape:pageopacity="0.0"
     inkscape:pagecheckerboard="0"
     showgrid="false"
     inkscape:zoom="25.75"
     inkscape:cx="15.941748"
     inkscape:cy="11.359223"
     inkscape:window-width="1920"
     inkscape:window-height="1009"
     inkscape:window-x="-8"
     inkscape:window-y="-8"
     inkscape:window-maximized="1"
     inkscape:current-layer="svg6" />
  <title
     id="title2">eve</title>
  <path
     fill="#000000"
     d="M 5.802,4.833 C 5.115,5.22 4.444,5.771 4.078,6.453 3.674,7.199 3.642,8.099 3.474,8.979 3.297,9.896 2.972,10.789 2.368,11.454 1.764,12.117 0.876,12.553 0,12.772 c 0.845,0.751 1.813,1.315 2.868,1.815 0.839,0.396 1.732,0.751 2.606,0.684 0.869,-0.066 1.716,-0.55 2.448,-1.104 0.425,-0.326 0.81,-0.673 1.262,-0.924 0.268,-0.147 0.558,-0.259 0.85,-0.356 C 8.807,12.023 7.61,10.754 6.936,9.383 6.217,7.918 5.866,6.461 5.803,4.834 Z m 16.208,8.254 c 0.588,0.289 1.245,0.502 1.89,0.524 0.909,0.037 1.791,-0.302 2.694,-0.61 0.818,-0.281 1.655,-0.534 2.47,-0.43 0.968,0.12 1.908,0.746 2.59,1.468 0.211,-0.907 0.27,-1.837 0.243,-2.78 C 31.87,10.369 31.766,9.466 31.379,8.685 30.991,7.902 30.318,7.242 29.548,6.803 28.866,6.413 28.11,6.194 27.466,5.775 27.127,5.555 26.819,5.277 26.528,4.994 c -0.085,1.607 -0.497,3.189 -1.243,4.619 -0.708,1.358 -2.021,2.652 -3.274,3.475 z M 7.994,0 C 6.7,2.79 6.919,6.046 8.574,8.639 c 1.655,2.593 4.518,4.162 7.594,4.162 3.076,0 5.939,-1.569 7.594,-4.162 C 25.419,6.046 25.638,2.791 24.344,0 22.826,4.678 19.498,5.541 16.168,5.541 12.84,5.541 9.513,4.677 7.994,0 Z m 7.457,22.744 c 0.505,-0.213 0.991,-0.46 1.481,-0.714 1.035,-0.534 2.096,-1.098 2.825,-2.002 0.495,-0.612 0.84,-1.38 0.914,-2.152 0.094,-0.927 -0.198,-1.861 -0.189,-2.793 0.005,-0.407 0.066,-0.815 0.131,-1.221 -0.724,0.337 -1.464,0.59 -2.245,0.767 -0.623,0.142 -1.705,0.31 -2.353,0.278 -1.638,-0.077 -3.1,-0.446 -4.57,-1.176 -0.008,0.53 0.062,1.072 0.243,1.572 0.294,0.807 0.885,1.492 1.54,2.082 0.556,0.506 1.158,0.941 1.607,1.524 0.486,0.634 0.794,1.443 0.839,2.253 0.032,0.537 -0.056,1.077 -0.222,1.582 z"
     id="path4" />
</svg>
