<?xml version="1.0" encoding="UTF-8" standalone="no"?>
<svg
   version="1.1"
   width="32.996769"
   height="16.910156"
   viewBox="0 0 32.996769 16.910156"
   id="svg4"
   xmlns="http://www.w3.org/2000/svg"
   xmlns:svg="http://www.w3.org/2000/svg">
  <defs>
    <!-- This is the gradient that will actually be used on
     the cards. The colors themselves will be provided by the
     template, but the x values, y values, and offsets will be
     used from the SVG. -->
    <linearGradient id="rarity" x1="0" y1="1" x2="1" y2="0">
      <stop offset="0" style="stop-color:rgb(192,55,38);stop-opacity:1" id="stop2" />
      <stop offset="0.125" style="stop-color:rgb(192,55,38);stop-opacity:1" id="stop4" />
      <stop offset="0.5" style="stop-color:rgb(241,142,30);stop-opacity:1" id="stop6" />
      <stop offset="0.875" style="stop-color:rgb(192,55,38);stop-opacity:1" id="stop8" />
      <stop offset="1" style="stop-color:rgb(192,55,38);stop-opacity:1" id="stop10" />
    </linearGradient>
    <!-- These gradients are here so that you can visualize
     what the set symbol would like like in that rarity. The
     only gradient that matters in the end is the "rarity"
     gradient. -->
    <linearGradient id="mythic" x1="0" y1="1" x2="1" y2="0">
      <stop offset="0" style="stop-color:rgb(192,55,38);stop-opacity:1"/>
      <stop offset="0.125" style="stop-color:rgb(192,55,38);stop-opacity:1"/>
      <stop offset="0.5" style="stop-color:rgb(241,142,30);stop-opacity:1"/>
      <stop offset="0.875" style="stop-color:rgb(192,55,38);stop-opacity:1"/>
      <stop offset="1" style="stop-color:rgb(192,55,38);stop-opacity:1"/>
    </linearGradient>
    <linearGradient id="rare" x1="0" y1="1" x2="1" y2="0">
      <stop offset="0" style="stop-color:rgb(146,116,67);stop-opacity:1"/>
      <stop offset="0.125" style="stop-color:rgb(146,116,67);stop-opacity:1"/>
      <stop offset="0.5" style="stop-color:rgb(211,178,108);stop-opacity:1"/>
      <stop offset="0.875" style="stop-color:rgb(146,116,67);stop-opacity:1"/>
      <stop offset="1" style="stop-color:rgb(146,116,67);stop-opacity:1"/>
    </linearGradient>
    <linearGradient id="special" x1="0" y1="1" x2="1" y2="0">
      <stop offset="0" style="stop-color:rgb(76, 56, 106);stop-opacity:1"/>
      <stop offset="0.125" style="stop-color:rgb(76, 56, 106);stop-opacity:1"/>
      <stop offset="0.5" style="stop-color:rgb(201, 173, 221);stop-opacity:1"/>
      <stop offset="0.875" style="stop-color:rgb(76, 56, 106);stop-opacity:1"/>
      <stop offset="1" style="stop-color:rgb(76, 56, 106);stop-opacity:1"/>
    </linearGradient>
    <linearGradient id="uncommon" x1="0" y1="1" x2="1" y2="0">
      <stop offset="0" style="stop-color:rgb(98,110,119);stop-opacity:1"/>
      <stop offset="0.125" style="stop-color:rgb(98,110,119);stop-opacity:1"/>
      <stop offset="0.5" style="stop-color:rgb(196,222,238);stop-opacity:1"/>
      <stop offset="0.875" style="stop-color:rgb(98,110,119);stop-opacity:1"/>
      <stop offset="1" style="stop-color:rgb(98,110,119);stop-opacity:1"/>
    </linearGradient>
    <linearGradient id="common" x1="0" y1="1" x2="1" y2="0">
      <stop offset="0" style="stop-color:rgb(0,0,0);stop-opacity:1"/>
    </linearGradient>
    <linearGradient
            id="rarity-outline" x1="0" y1="1" x2="0" y2="1">
      <stop offset="0" style="stop-color:rgb(0,0,0);stop-opacity:1"/>
    </linearGradient>
  </defs>
  <path fill="url(#rarity-outline)" d="m 23.687007,0 -0.679688,0.0761719 c 0,0 -3.039011,0.31974067 -4.33789,2.9863281 l -0.251953,0.515625 0.544922,0.1796875 c 0,0 1.593486,0.6545943 2.824218,2.0585937 l -7.96875,5.4628908 c -0.194669,-1.7950619 0.3006,-2.9141827 1.050782,-3.513672 0.877134,-0.7009403 1.910156,-0.84375 1.910156,-0.84375 L 17.286616,6.855469 17.208486,6.3496097 C 17.136417,5.8845826 16.921884,5.0453144 16.321773,4.2773437 15.721661,3.509373 14.696857,2.84375 13.200679,2.84375 11.492471,2.84375 9.8488325,3.9401039 8.3100538,4.9609375 6.771275,5.9817711 5.3081479,6.9121093 4.3881788,6.9121094 3.5729702,6.9121094 2.9989712,6.5857523 2.5971631,6.1328125 2.195355,5.6798727 1.9916944,5.0844554 1.9916944,4.6386718 c 0,-1.2635488 0.6213211,-1.7676191 1.3085937,-2.078125 C 3.9875608,2.2500411 4.6967725,2.2421875 4.6967725,2.2421875 h 1.5 L 4.9975538,1.3417969 C 4.6813821,1.1045077 4.1951507,0.86283657 3.579585,0.83398437 2.9640193,0.80513217 2.2349269,1.0139712 1.5366163,1.6074218 0.82379638,2.2137816 0.44539846,2.9979476 0.24169442,3.6679687 0.03799038,4.3379898 0.0053663,4.8900038 0.0053663,5.1308594 c 0,0.1016665 -0.0507931,0.6510616 0.16015624,1.328125 0.21094939,0.6770633 0.67677614,1.5340443 1.64453126,2.5332031 1.9015533,1.9653155 3.8671875,3.1035165 3.8671875,3.1035165 L 6.4819288,12.5625 6.4272413,11.634766 C 6.3206202,9.8196067 7.8016541,8.404297 9.1323194,8.4042968 c 1.3687026,0 2.8300786,1.2913644 2.8300786,2.7656252 0,0.78563 -0.263217,1.344475 -0.515625,1.734375 l -1.9160161,1.316407 c -0.1541685,-0.05831 -0.286712,-0.160157 -0.4609375,-0.160157 -0.7801191,0 -1.4238281,0.644723 -1.4238281,1.425781 0,0.78012 0.643709,1.423829 1.4238281,1.423829 0.7505939,0 1.3431656,-0.607574 1.3906246,-1.345703 l 1.335938,-0.84375 c 0.255377,0.143269 0.505766,0.289093 1.076172,0.542968 1.17735,0.522913 3.681416,1.399827 5.728515,0.695313 1.013543,-0.349948 1.530167,-0.999658 1.720704,-1.560547 0.190536,-0.560889 0.08398,-1.052735 0.08398,-1.052734 l -0.171875,-0.798829 -0.632813,0.517579 c -1.374038,1.122434 -2.646135,1.018337 -3.669921,0.65625 -0.790423,-0.279553 -1.094046,-0.586765 -1.322266,-0.775391 l 8.304687,-5.2460943 c 0.954934,2.8934033 0.645541,4.5377673 -0.945312,6.8906253 l -0.337891,0.498047 0.552735,0.240234 c 0,0 4.116807,1.715633 7.458984,-0.769531 1.309319,-0.789446 2.620238,-2.646548 3.087893,-4.109374 0.341178,-1.1072762 0.257812,-1.9218753 0.257812,-1.9218753 l -0.05664,-0.5136719 -0.511719,0.074219 c 0,0 -4.167645,0.5191846 -6.589844,-2.2285156 L 27.452632,4.8359375 28.278804,4.8632812 28.40771,2.6679687 26.212398,2.125 26.013179,2.9160156 24.528804,3.9335937 C 24.040471,3.0098281 23.679898,2.1410487 23.593257,1.6054687 23.488068,0.95523183 23.552241,0.66992187 23.552241,0.66992187 Z" />
  <path
     fill="url(#rarity)" d="m 23.182651,14.623266 c 0,0 3.233,1.123 5.815,-0.843 2.588,-1.973 2.814,-3.533 2.936,-4.7050004 0,0 -0.869,2.1170004 -3.429,3.8000004 -1.5,0.987 -1.849,1.172 -5.322,1.747 z m 6.472,-0.617 c -3.143,2.65 -7.273,0.863 -7.273,0.863 1.666,-2.464 2.035,-4.376 0.987,-7.4570004 -0.056,-0.164 -0.118,-0.322 -0.186,-0.473 l -9.438,5.9610004 0.132,0.182 c 0,0 3.021,2.836 6.041,0.369 0,0 0.307,1.418 -1.48,2.035 -1.787,0.615 -4.252,-0.186 -5.362,-0.679 -0.701,-0.312 -1.033,-0.502 -1.306,-0.659 l -1.7980006,1.134 c 0.014,0.066 0.022,0.134 0.022,0.204 0,0.509 -0.413,0.923 -0.924,0.923 -0.509,0 -0.923,-0.414 -0.923,-0.923 0,-0.511 0.414,-0.925 0.923,-0.925 0.214,0 0.407,0.074 0.563,0.196 l 2.2150006,-1.52 c 0.302,-0.453 0.614,-1.144 0.614,-2.067 0,-1.7850004 -1.664,-3.2650004 -3.3290006,-3.2650004 -1.664,0 -3.327,1.664 -3.204,3.7580004 0,0 -1.911,-1.108 -3.76,-3.0190004 -1.84899996,-1.909 -1.66399996,-3.143 -1.66399996,-3.513 0,-0.37 0.124,-2.095 1.35599996,-3.143 1.232,-1.04699998 2.343,-0.616 2.836,-0.246 0,0 -3.205,0 -3.205,2.896 0,1.172 0.986,2.774 2.896,2.774 2.404,0 5.8549996,-4.068 8.8130006,-4.068 2.712,0 3.389,2.281 3.513,3.081 0,0 -4.627,0.605 -3.373,5.7880004 l 9.241,-6.3370004 c -1.356,-1.903 -3.463,-2.594 -3.463,-2.594 1.17,-2.40199998 3.944,-2.70999998 3.944,-2.70999998 0,0 -0.317,1.59599998 1.242,4.12199998 l 2.147,-1.472 0.124,-0.493 1.308,0.324 -0.076,1.294 -0.493,-0.016 -2.273,1.436 c 0.058,0.076 0.116,0.152 0.178,0.228 2.588,3.267 7.271,2.588 7.271,2.588 0,0 0.308,2.7740004 -2.834,5.4240004 z"/>
</svg>
