<?xml version="1.0" encoding="UTF-8" standalone="no"?>
<svg
   version="1.1"
   width="33.005001"
   height="13.212"
   viewBox="0 0 33.005001 13.212"
   id="svg4"
   xmlns="http://www.w3.org/2000/svg"
   xmlns:svg="http://www.w3.org/2000/svg">
  <defs>
    <!-- This is the gradient that will actually be used on
     the cards. The colors themselves will be provided by the
     template, but the x values, y values, and offsets will be
     used from the SVG. -->
    <linearGradient id="rarity" x1="0" y1="0" x2="1" y2="0">
      <stop offset="0" style="stop-color:rgb(192,55,38);stop-opacity:1" id="stop2" />
      <stop offset="0.125" style="stop-color:rgb(192,55,38);stop-opacity:1" id="stop4" />
      <stop offset="0.5" style="stop-color:rgb(241,142,30);stop-opacity:1" id="stop6" />
      <stop offset="0.875" style="stop-color:rgb(192,55,38);stop-opacity:1" id="stop8" />
      <stop offset="1" style="stop-color:rgb(192,55,38);stop-opacity:1" id="stop10" />
    </linearGradient>
    <!-- These gradients are here so that you can visualize
     what the set symbol would like like in that rarity. The
     only gradient that matters in the end is the "rarity"
     gradient. -->
    <linearGradient id="mythic" x1="0" y1="1" x2="1" y2="0">
      <stop offset="0" style="stop-color:rgb(192,55,38);stop-opacity:1"/>
      <stop offset="0.125" style="stop-color:rgb(192,55,38);stop-opacity:1"/>
      <stop offset="0.5" style="stop-color:rgb(241,142,30);stop-opacity:1"/>
      <stop offset="0.875" style="stop-color:rgb(192,55,38);stop-opacity:1"/>
      <stop offset="1" style="stop-color:rgb(192,55,38);stop-opacity:1"/>
    </linearGradient>
    <linearGradient id="rare" x1="0" y1="1" x2="1" y2="0">
      <stop offset="0" style="stop-color:rgb(146,116,67);stop-opacity:1"/>
      <stop offset="0.125" style="stop-color:rgb(146,116,67);stop-opacity:1"/>
      <stop offset="0.5" style="stop-color:rgb(211,178,108);stop-opacity:1"/>
      <stop offset="0.875" style="stop-color:rgb(146,116,67);stop-opacity:1"/>
      <stop offset="1" style="stop-color:rgb(146,116,67);stop-opacity:1"/>
    </linearGradient>
    <linearGradient id="special" x1="0" y1="1" x2="1" y2="0">
      <stop offset="0" style="stop-color:rgb(76, 56, 106);stop-opacity:1"/>
      <stop offset="0.125" style="stop-color:rgb(76, 56, 106);stop-opacity:1"/>
      <stop offset="0.5" style="stop-color:rgb(201, 173, 221);stop-opacity:1"/>
      <stop offset="0.875" style="stop-color:rgb(76, 56, 106);stop-opacity:1"/>
      <stop offset="1" style="stop-color:rgb(76, 56, 106);stop-opacity:1"/>
    </linearGradient>
    <linearGradient id="uncommon" x1="0" y1="1" x2="1" y2="0">
      <stop offset="0" style="stop-color:rgb(98,110,119);stop-opacity:1"/>
      <stop offset="0.125" style="stop-color:rgb(98,110,119);stop-opacity:1"/>
      <stop offset="0.5" style="stop-color:rgb(196,222,238);stop-opacity:1"/>
      <stop offset="0.875" style="stop-color:rgb(98,110,119);stop-opacity:1"/>
      <stop offset="1" style="stop-color:rgb(98,110,119);stop-opacity:1"/>
    </linearGradient>
    <linearGradient id="common" x1="0" y1="1" x2="1" y2="0">
      <stop offset="0" style="stop-color:rgb(0,0,0);stop-opacity:1"/>
    </linearGradient>
    <linearGradient
            id="rarity-outline" x1="0" y1="1" x2="0" y2="1">
      <stop offset="0" style="stop-color:rgb(0,0,0);stop-opacity:1"/>
    </linearGradient>
  </defs>
  <path fill="url(#rarity-outline)" d="M 16.46875,0 C 10.589921,0.028858 7.2288042,2.577327 6.3632812,3.2753906 6.3500722,3.2297916 6.3665912,3.2321176 6.3496092,3.1855466 6.2596422,2.9388236 6.1055374,2.6682226 5.8417967,2.4570306 5.578056,2.2458396 5.2115617,2.1152336 4.7890623,2.1152336 c -0.8022394,0 -1.3440656,0.419466 -1.5644531,0.837891 C 3.0068015,3.3666521 3.0326156,3.7620513 3.0332031,3.7714844 3.0350122,3.9663032 3.1343237,4.055261 3.1835938,4.2109375 H 2.4472656 l 0.011719,0.5117187 c 0,0 0.013708,0.5486994 -0.00977,1.1835938 C 2.4303032,6.4180623 2.354914,6.8749205 2.2890625,7.1816406 H 0 v 3.4394534 l 0.5703125,-0.08008 c 0,0 0.29448036,-0.03986 0.6152344,0.162109 0.320754,0.201966 0.71875,0.651518 0.71875,2.009766 v 0.5 H 8.9746094 L 8.9628904,12.70117 c 0,0 -0.030635,-1.480611 0.8710938,-2.9687501 C 10.735713,8.2442846 12.520237,6.7348588 16.464844,6.734375 h 0.07422 c 3.945621,0 5.729395,1.5098495 6.63086,2.9980469 0.901464,1.4881971 0.871094,2.9667971 0.871094,2.9667971 l -0.01172,0.513672 h 7.072265 v -0.5 c 0,-1.358362 0.398521,-1.809872 0.71875,-2.011719 0.320231,-0.201848 0.615235,-0.160156 0.615235,-0.160156 l 0.570312,0.08008 V 7.1816406 H 30.716797 C 30.651137,6.8750969 30.57712,6.4180142 30.558594,5.90625 c -0.02298,-0.6348576 -0.0098,-1.1835938 -0.0098,-1.1835938 l 0.01367,-0.5117187 h -0.738281 c 0.04927,-0.1556765 0.148581,-0.2446343 0.15039,-0.4394531 5.88e-4,-0.00943 0.0264,-0.4048323 -0.191406,-0.8183594 C 29.56278,2.5347 29.020953,2.115234 28.218714,2.115234 c -0.422856,0 -0.790648,0.130709 -1.054688,0.341797 -0.264037,0.211089 -0.41766,0.481739 -0.507812,0.728516 -0.01702,0.046581 -4.36e-4,0.044234 -0.01367,0.089844 C 25.776613,2.5768741 22.408327,0.0234511 16.519495,1e-7 h -0.04883 z" />
  <path fill="url(#rarity)" d="m 25.622,7.646 h -0.546 c 0,0 -0.259,-0.501 -1.034,-1.105 l 0.002,-2.769 c 0.699,0.374 1.23,0.729 1.58,0.98 L 25.622,7.647 Z M 21.741,5.323 C 21.135,5.089 20.493,4.878 19.681,4.725 V 2.198 c 0.743,0.154 1.432,0.35 2.06,0.568 z M 17.559,4.472 C 17.222,4.454 16.87,4.444 16.502,4.444 c -0.355,0 -0.725,0.01 -1.054,0.026 L 15.45,1.911 c 0.333,-0.024 0.678,-0.036 1.028,-0.038 h 0.037 c 0.355,0.002 0.705,0.014 1.044,0.038 z M 11.196,5.35 11.198,2.788 C 11.819,2.57 12.499,2.374 13.237,2.219 l 0.006,2.531 c -0.777,0.158 -1.467,0.366 -2.046,0.6 z M 8.954,6.668 C 8.282,7.244 8.045,7.702 8.045,7.702 H 7.386 V 4.751 C 7.731,4.501 8.261,4.149 8.953,3.778 v 2.89 z M 30.296,7.682 C 29.991,6.959 30.049,4.71 30.049,4.71 h -1.066 c 0,0 0.495,-0.228 0.495,-0.953 0,0 0.056,-1.142 -1.259,-1.142 -1.315,0 -1.2,1.485 -1.2,1.485 0,0 -3.972,-3.574 -10.501,-3.6 H 16.472 C 9.953,0.532 5.987,4.1 5.987,4.1 c 0,0 0.115,-1.485 -1.198,-1.485 -1.315,0 -1.259,1.142 -1.259,1.142 0,0.725 0.495,0.953 0.495,0.953 H 2.959 c 0,0 0.056,2.249 -0.249,2.972 H 0.5 v 2.364 c 0,0 1.905,-0.267 1.905,2.666 h 6.058 c 0,0 -0.152,-6.477 8.002,-6.478 h 0.074 c 8.156,0 8.002,6.478 8.002,6.478 h 6.061 c 0,-2.933 1.903,-2.666 1.903,-2.666 V 7.682 h -2.21 z"/>
</svg>
