<?xml version="1.0" encoding="UTF-8" standalone="no"?>
<!-- Generated by IcoMoon.io -->

<svg
   version="1.1"
   width="30.814495"
   height="26.683001"
   viewBox="0 0 30.814495 26.683001"
   id="svg6"
   sodipodi:docname="frf.svg"
   inkscape:version="1.1.1 (3bf5ae0d25, 2021-09-20)"
   xmlns:inkscape="http://www.inkscape.org/namespaces/inkscape"
   xmlns:sodipodi="http://sodipodi.sourceforge.net/DTD/sodipodi-0.dtd"
   xmlns="http://www.w3.org/2000/svg"
   xmlns:svg="http://www.w3.org/2000/svg">
  <defs
     id="defs10" />
  <sodipodi:namedview
     id="namedview8"
     pagecolor="#ffffff"
     bordercolor="#666666"
     borderopacity="1.0"
     inkscape:pageshadow="2"
     inkscape:pageopacity="0.0"
     inkscape:pagecheckerboard="0"
     showgrid="false"
     inkscape:zoom="25.75"
     inkscape:cx="15.514563"
     inkscape:cy="13.339806"
     inkscape:window-width="1920"
     inkscape:window-height="1009"
     inkscape:window-x="-8"
     inkscape:window-y="-8"
     inkscape:window-maximized="1"
     inkscape:current-layer="svg6" />
  <title
     id="title2">frf</title>
  <path
     fill="#000000"
     d="m 2.7497706,10.107 c -2.89200002,3.435 -2.77500002,6.854 -2.73800002,7.403 1.67200002,-1.3 3.77700002,-2.077 6.06000002,-2.076 5.4730004,-0.002 9.9140004,4.441 9.9150004,9.92 0.001,0.446 -0.037,0.887 -0.09,1.329 l 0.003,-0.001 c 1.611,-2.355 3.506,-6.354 1.346,-10.24 -1.708,-3.089 -3.315,-2.034 -5.641,-5.124 -1.8280004,-2.405 -1.576,-5.148 -1.576,-5.148 0,0 -0.6170004,0.028 -1.5610004,0.281 -1.492,0.4 -3.791,1.363 -5.718,3.656 z M 13.562771,10.25 c 1.708,3.086 3.307,2.03 5.64,5.118 1.822,2.406 1.572,5.146 1.572,5.146 0,0 4.136,-0.19 7.291,-3.939 2.89,-3.432 2.774,-6.86 2.737,-7.393 -1.687,1.292 -3.785,2.073 -6.071,2.07 -5.461,0.002 -9.907,-4.439 -9.907,-9.913 0,-0.453 0.033,-0.902 0.091,-1.339 -1.617,2.357 -3.508,6.355 -1.353,10.251 z"
     id="path4" />
</svg>
