<?xml version="1.0" encoding="UTF-8" standalone="no"?>
<!-- Generated by IcoMoon.io -->

<svg
   version="1.1"
   width="29.031"
   height="21.268"
   viewBox="0 0 29.031 21.268"
   id="svg6"
   sodipodi:docname="fut.svg"
   inkscape:version="1.1.1 (3bf5ae0d25, 2021-09-20)"
   xmlns:inkscape="http://www.inkscape.org/namespaces/inkscape"
   xmlns:sodipodi="http://sodipodi.sourceforge.net/DTD/sodipodi-0.dtd"
   xmlns="http://www.w3.org/2000/svg"
   xmlns:svg="http://www.w3.org/2000/svg">
  <defs
     id="defs10" />
  <sodipodi:namedview
     id="namedview8"
     pagecolor="#ffffff"
     bordercolor="#666666"
     borderopacity="1.0"
     inkscape:pageshadow="2"
     inkscape:pageopacity="0.0"
     inkscape:pagecheckerboard="0"
     showgrid="false"
     inkscape:zoom="25.75"
     inkscape:cx="14.504854"
     inkscape:cy="10.621359"
     inkscape:window-width="1920"
     inkscape:window-height="1009"
     inkscape:window-x="-8"
     inkscape:window-y="-8"
     inkscape:window-maximized="1"
     inkscape:current-layer="svg6" />
  <title
     id="title2">fut</title>
  <path
     fill="#000000"
     d="m 18.492,17.662 c 1.656,-2.222 2.238,-3.972 2.238,-6.746 0,-2.772 -0.582,-4.519 -2.238,-6.739 2.896,1.248 4.441,3.61 4.43,6.766 -0.014,3.138 -1.551,5.47 -4.43,6.718 z m -3.919,0.327 c -1.876,0 -3.395,-3.211 -3.395,-7.178 0,-3.965 1.518,-7.176 3.395,-7.176 1.873,0 3.392,3.211 3.392,7.176 0,3.967 -1.519,7.178 -3.392,7.178 z M 6.013,10.943 C 6,7.608 8.01,5.004 11.24,4.177 9.121,6.114 8.272,8.043 8.272,10.916 c 0,2.874 0.85,4.803 2.968,6.746 C 8.027,16.835 6.025,14.265 6.013,10.944 Z M 25.73,10.606 c 0,-2.38 -1.289,-4.535 -3.367,-6.081 2.68,0.854 4.97,2.13 6.668,3.695 C 27.838,3.765 21.759,0 14.481,0 7.202,0 1.191,3.765 0,8.22 1.695,6.656 3.986,5.382 6.663,4.525 4.588,6.071 3.298,8.227 3.298,10.606 c 0,2.382 1.289,4.533 3.365,6.081 C 3.986,15.833 1.695,14.555 0,12.99 c 1.191,4.459 7.201,8.278 14.481,8.278 7.278,0 13.357,-3.819 14.55,-8.278 -1.698,1.564 -3.988,2.842 -6.668,3.697 2.078,-1.548 3.367,-3.699 3.367,-6.081 z"
     id="path4" />
</svg>
