<?xml version="1.0" encoding="UTF-8" standalone="no"?>
<!-- Generated by IcoMoon.io -->

<svg
   version="1.1"
   width="29.441999"
   height="28.000999"
   viewBox="0 0 29.441999 28.000999"
   id="svg6"
   sodipodi:docname="gnt.svg"
   inkscape:version="1.1.1 (3bf5ae0d25, 2021-09-20)"
   xmlns:inkscape="http://www.inkscape.org/namespaces/inkscape"
   xmlns:sodipodi="http://sodipodi.sourceforge.net/DTD/sodipodi-0.dtd"
   xmlns="http://www.w3.org/2000/svg"
   xmlns:svg="http://www.w3.org/2000/svg">
  <defs
     id="defs10" />
  <sodipodi:namedview
     id="namedview8"
     pagecolor="#ffffff"
     bordercolor="#666666"
     borderopacity="1.0"
     inkscape:pageshadow="2"
     inkscape:pageopacity="0.0"
     inkscape:pagecheckerboard="0"
     showgrid="false"
     inkscape:zoom="25.75"
     inkscape:cx="14.970874"
     inkscape:cy="14"
     inkscape:window-width="1920"
     inkscape:window-height="1009"
     inkscape:window-x="-8"
     inkscape:window-y="-8"
     inkscape:window-maximized="1"
     inkscape:current-layer="svg6" />
  <title
     id="title2">gnt</title>
  <path
     fill="#000000"
     d="m 14.741,28.001 c 2.296,-2.249 4.733,-4.315 7.313,-6.197 2.58,-1.882 5.042,-3.392 7.388,-4.529 C 28.019,14.628 26.789,11.714 25.751,8.532 24.713,5.35 24.064,2.507 23.804,0 20.853,0.474 17.903,0.715 14.952,0.722 12.001,0.729 8.882,0.502 5.595,0.043 5.126,2.839 4.458,5.579 3.592,8.261 2.726,10.943 1.528,13.976 0,17.36 c 2.423,1.148 4.846,2.596 7.269,4.345 2.423,1.749 4.914,3.847 7.474,6.295 z m 9.995,-11.358 c -0.009,0.087 -0.014,0.174 -0.014,0.262 0,0.388 0.09,0.755 0.249,1.081 -1.44,0.915 -2.907,1.921 -4.401,3.019 -1.49,1.095 -2.878,2.172 -4.163,3.231 -0.286,-0.342 -0.664,-0.603 -1.095,-0.745 l -0.071,-2.33 7.319,-5.46 2.175,0.943 z M 18.837,5.935 21.628,14.542 14.372,19.863 7.116,14.542 9.875,5.935 h 8.961 z M 4.343,17.971 c 0.181,-0.343 0.283,-0.734 0.283,-1.149 0,-0.146 -0.013,-0.293 -0.038,-0.437 l 1.838,-0.586 7.298,5.317 0.02,2.244 C 13.263,23.482 12.84,23.749 12.521,24.112 11.113,22.904 9.657,21.751 8.158,20.658 6.81,19.675 5.539,18.779 4.343,17.972 Z M 6.058,4.367 c 0.11,0.016 0.223,0.024 0.338,0.024 0.429,0 0.832,-0.113 1.182,-0.311 L 8.789,5.441 5.985,14.692 4.094,15.223 C 3.774,14.759 3.3,14.413 2.746,14.26 3.454,12.499 4.134,10.603 4.787,8.572 5.332,6.876 5.756,5.475 6.059,4.367 Z M 19.404,1.86 c 0.109,0.413 0.325,0.79 0.625,1.094 L 18.878,4.594 9.78,4.616 8.526,3.201 C 8.79,2.836 8.948,2.405 8.983,1.955 c 1.754,0.026 3.551,0.04 5.389,0.04 1.809,0 3.486,-0.045 5.031,-0.135 z m 6.845,12.628 c -0.407,0.203 -0.75,0.517 -0.988,0.904 l -2.266,-0.956 -2.756,-9.12 1.097,-1.508 c 0.237,0.076 0.484,0.114 0.733,0.114 0.259,0 0.509,-0.041 0.744,-0.117 0.389,1.571 0.887,3.292 1.496,5.165 0.624,1.92 1.271,3.759 1.941,5.518 z"
     id="path4" />
</svg>
