<?xml version="1.0" encoding="UTF-8" standalone="no"?>
<!-- Generated by IcoMoon.io -->

<svg
   version="1.1"
   width="31.919001"
   height="20.252001"
   viewBox="0 0 31.919001 20.252001"
   id="svg6"
   sodipodi:docname="gtc.svg"
   inkscape:version="1.1.1 (3bf5ae0d25, 2021-09-20)"
   xmlns:inkscape="http://www.inkscape.org/namespaces/inkscape"
   xmlns:sodipodi="http://sodipodi.sourceforge.net/DTD/sodipodi-0.dtd"
   xmlns="http://www.w3.org/2000/svg"
   xmlns:svg="http://www.w3.org/2000/svg">
  <defs
     id="defs10" />
  <sodipodi:namedview
     id="namedview8"
     pagecolor="#ffffff"
     bordercolor="#666666"
     borderopacity="1.0"
     inkscape:pageshadow="2"
     inkscape:pageopacity="0.0"
     inkscape:pagecheckerboard="0"
     showgrid="false"
     inkscape:zoom="25.75"
     inkscape:cx="15.941748"
     inkscape:cy="10.466019"
     inkscape:window-width="1920"
     inkscape:window-height="1009"
     inkscape:window-x="-8"
     inkscape:window-y="-8"
     inkscape:window-maximized="1"
     inkscape:current-layer="svg6" />
  <title
     id="title2">gtc</title>
  <path
     fill="#000000"
     d="m 24.439,6.358 7.48,13.894 h -6.683 c -0.031,-0.755 -0.167,-1.5 -0.406,-2.219 l -0.007,-0.019 c -0.746,-1.857 -2.039,-3.291 -3.74,-4.147 l -0.037,-0.018 -0.04,-0.009 c -0.465,-0.092 -0.94,-0.132 -1.413,-0.159 z M 15.959,0 12.345,5.831 H 8.513 l 5.172,7.816 h 1.383 L 15.959,2.926 16.85,13.647 h 1.44 L 23.462,5.831 H 19.573 Z M 7.505,6.31 0,20.252 H 6.683 C 6.714,19.497 6.85,18.753 7.089,18.033 l 0.007,-0.019 c 0.746,-1.857 2.039,-3.291 3.74,-4.147 l 0.037,-0.018 0.04,-0.009 c 0.483,-0.097 0.977,-0.132 1.468,-0.163 L 7.506,6.31 Z"
     id="path4" />
</svg>
