<?xml version="1.0" encoding="UTF-8" standalone="no"?>
<svg
   version="1.1"
   width="30.849125"
   height="28.58465"
   viewBox="0 0 30.849125 28.58465"
   id="svg4"
   xmlns="http://www.w3.org/2000/svg"
   xmlns:svg="http://www.w3.org/2000/svg">
  <defs>
    <!-- This is the gradient that will actually be used on
     the cards. The colors themselves will be provided by the
     template, but the x values, y values, and offsets will be
     used from the SVG. -->
    <radialGradient id="rarity" cx="0.525">
      <stop offset="0" style="stop-color:rgb(192,55,38);stop-opacity:1" id="stop2" />
      <stop offset="0" style="stop-color:rgb(192,55,38);stop-opacity:1" id="stop4" />
      <stop offset="0.5" style="stop-color:rgb(241,142,30);stop-opacity:1" id="stop6" />
      <stop offset="0.875" style="stop-color:rgb(192,55,38);stop-opacity:1" id="stop8" />
      <stop offset="1" style="stop-color:rgb(192,55,38);stop-opacity:1" id="stop10" />
    </radialGradient>
    <!-- These gradients are here so that you can visualize
     what the set symbol would like like in that rarity. The
     only gradient that matters in the end is the "rarity"
     gradient. -->
    <linearGradient id="mythic" x1="0" y1="1" x2="1" y2="0">
      <stop offset="0" style="stop-color:rgb(192,55,38);stop-opacity:1"/>
      <stop offset="0.125" style="stop-color:rgb(192,55,38);stop-opacity:1"/>
      <stop offset="0.5" style="stop-color:rgb(241,142,30);stop-opacity:1"/>
      <stop offset="0.875" style="stop-color:rgb(192,55,38);stop-opacity:1"/>
      <stop offset="1" style="stop-color:rgb(192,55,38);stop-opacity:1"/>
    </linearGradient>
    <linearGradient id="rare" x1="0" y1="1" x2="1" y2="0">
      <stop offset="0" style="stop-color:rgb(146,116,67);stop-opacity:1"/>
      <stop offset="0.125" style="stop-color:rgb(146,116,67);stop-opacity:1"/>
      <stop offset="0.5" style="stop-color:rgb(211,178,108);stop-opacity:1"/>
      <stop offset="0.875" style="stop-color:rgb(146,116,67);stop-opacity:1"/>
      <stop offset="1" style="stop-color:rgb(146,116,67);stop-opacity:1"/>
    </linearGradient>
    <linearGradient id="special" x1="0" y1="1" x2="1" y2="0">
      <stop offset="0" style="stop-color:rgb(76, 56, 106);stop-opacity:1"/>
      <stop offset="0.125" style="stop-color:rgb(76, 56, 106);stop-opacity:1"/>
      <stop offset="0.5" style="stop-color:rgb(201, 173, 221);stop-opacity:1"/>
      <stop offset="0.875" style="stop-color:rgb(76, 56, 106);stop-opacity:1"/>
      <stop offset="1" style="stop-color:rgb(76, 56, 106);stop-opacity:1"/>
    </linearGradient>
    <linearGradient id="uncommon" x1="0" y1="1" x2="1" y2="0">
      <stop offset="0" style="stop-color:rgb(98,110,119);stop-opacity:1"/>
      <stop offset="0.125" style="stop-color:rgb(98,110,119);stop-opacity:1"/>
      <stop offset="0.5" style="stop-color:rgb(196,222,238);stop-opacity:1"/>
      <stop offset="0.875" style="stop-color:rgb(98,110,119);stop-opacity:1"/>
      <stop offset="1" style="stop-color:rgb(98,110,119);stop-opacity:1"/>
    </linearGradient>
    <linearGradient id="common" x1="0" y1="1" x2="1" y2="0">
      <stop offset="0" style="stop-color:rgb(0,0,0);stop-opacity:1"/>
    </linearGradient>
    <linearGradient
            id="rarity-outline" x1="0" y1="1" x2="0" y2="1">
      <stop offset="0" style="stop-color:rgb(0,0,0);stop-opacity:1"/>
    </linearGradient>
  </defs>
  <path fill="url(#rarity-outline)" d="M 18.599609 0 C 13.916428 -0.026582256 8.8553526 1.6195033 4.8945312 5.8222656 C -1.1866139 12.272416 0.1171875 20.648438 0.1171875 20.648438 A 1.250125 1.250125 0 0 0 2.2363281 21.341797 L 2.2382812 21.339844 A 1.250125 1.250125 0 0 0 2.5546875 20.808594 C 3.5052972 17.563155 5.1420786 14.473289 7.3007812 12.251953 C 9.4594839 10.030618 12.079889 8.6679686 15.220703 8.6679688 C 18.397578 8.6679688 20.079489 9.8370949 21.148438 11.3125 C 22.217388 12.787905 22.585939 14.695325 22.585938 15.919922 C 22.585938 17.130957 22.207904 18.594439 21.373047 19.667969 C 20.53819 20.741498 19.311691 21.519531 17.160156 21.519531 C 13.058032 21.519531 10.25 17 10.25 17 A 1.250125 1.250125 0 0 0 7.9277344 17.757812 C 8.2078704 20.599114 9.3190274 23.294295 11.271484 25.302734 C 13.223942 27.311174 16.031898 28.583984 19.443359 28.583984 C 22.935085 28.583984 25.835637 26.958277 27.796875 24.703125 C 29.758113 22.447973 30.849609 19.573591 30.849609 16.833984 C 30.849609 14.134876 29.889776 11.700625 28.861328 9.8339844 C 27.83288 7.9673439 26.777809 6.7095775 26.263672 6.1933594 A 1.250125 1.250125 0 0 0 26.261719 6.1914062 C 25.519955 5.4486419 25.199219 5.1468627 25.199219 4.5097656 C 25.199219 4.1181087 25.808594 3.3867187 25.808594 3.3867188 A 1.250125 1.250125 0 0 0 25.435547 1.2910156 C 23.95721 0.70616119 22.311412 0.29662705 20.580078 0.11132812 C 19.930828 0.041841032 19.268635 0.0037974652 18.599609 0 z " />
  <path fill="url(#rarity)" d="m 1.3531239,20.458649 c 0,0 -1.2,-7.787 4.452,-13.7799998 5.6480001,-5.99300001 13.6960001,-6.39100001 19.1710001,-4.225 0,0 -1.026,0.915 -1.026,2.056 0,1.139 0.686,1.824 1.427,2.566 0.741,0.744 4.222,4.9659998 4.222,9.7589998 0,4.795 -3.937,10.5 -10.156,10.5 -6.219,0 -9.7590001,-4.507 -10.2710001,-9.7 0,0 3.0240001,5.134 7.9880001,5.134 4.964,0 6.676,-3.937 6.676,-6.849 0,-2.907 -1.597,-8.5009998 -8.615,-8.5009998 -7.0200001,0 -11.8690001,6.2199998 -13.8660001,13.0379998 z"/>
</svg>
