<?xml version="1.0" encoding="UTF-8" standalone="no"?>
<svg
   version="1.1"
   width="32.242897"
   height="30.342566"
   viewBox="0 0 32.242897 30.342565"
   id="svg4"
   xmlns="http://www.w3.org/2000/svg"
   xmlns:svg="http://www.w3.org/2000/svg">
  <defs>
    <!-- This is the gradient that will actually be used on
     the cards. The colors themselves will be provided by the
     template, but the x values, y values, and offsets will be
     used from the SVG. -->
    <linearGradient id="rarity" x1="0" y1="0" x2="1" y2="1">
      <stop offset="0" style="stop-color:rgb(192,55,38);stop-opacity:1" id="stop2" />
      <stop offset="0.125" style="stop-color:rgb(192,55,38);stop-opacity:1" id="stop4" />
      <stop offset="0.5" style="stop-color:rgb(241,142,30);stop-opacity:1" id="stop6" />
      <stop offset="0.875" style="stop-color:rgb(192,55,38);stop-opacity:1" id="stop8" />
      <stop offset="1" style="stop-color:rgb(192,55,38);stop-opacity:1" id="stop10" />
    </linearGradient>
    <!-- These gradients are here so that you can visualize
     what the set symbol would like like in that rarity. The
     only gradient that matters in the end is the "rarity"
     gradient. -->
    <linearGradient id="mythic" x1="0" y1="1" x2="1" y2="0">
      <stop offset="0" style="stop-color:rgb(192,55,38);stop-opacity:1"/>
      <stop offset="0.125" style="stop-color:rgb(192,55,38);stop-opacity:1"/>
      <stop offset="0.5" style="stop-color:rgb(241,142,30);stop-opacity:1"/>
      <stop offset="0.875" style="stop-color:rgb(192,55,38);stop-opacity:1"/>
      <stop offset="1" style="stop-color:rgb(192,55,38);stop-opacity:1"/>
    </linearGradient>
    <linearGradient id="rare" x1="0" y1="1" x2="1" y2="0">
      <stop offset="0" style="stop-color:rgb(146,116,67);stop-opacity:1"/>
      <stop offset="0.125" style="stop-color:rgb(146,116,67);stop-opacity:1"/>
      <stop offset="0.5" style="stop-color:rgb(211,178,108);stop-opacity:1"/>
      <stop offset="0.875" style="stop-color:rgb(146,116,67);stop-opacity:1"/>
      <stop offset="1" style="stop-color:rgb(146,116,67);stop-opacity:1"/>
    </linearGradient>
    <linearGradient id="special" x1="0" y1="1" x2="1" y2="0">
      <stop offset="0" style="stop-color:rgb(76, 56, 106);stop-opacity:1"/>
      <stop offset="0.125" style="stop-color:rgb(76, 56, 106);stop-opacity:1"/>
      <stop offset="0.5" style="stop-color:rgb(201, 173, 221);stop-opacity:1"/>
      <stop offset="0.875" style="stop-color:rgb(76, 56, 106);stop-opacity:1"/>
      <stop offset="1" style="stop-color:rgb(76, 56, 106);stop-opacity:1"/>
    </linearGradient>
    <linearGradient id="uncommon" x1="0" y1="1" x2="1" y2="0">
      <stop offset="0" style="stop-color:rgb(98,110,119);stop-opacity:1"/>
      <stop offset="0.125" style="stop-color:rgb(98,110,119);stop-opacity:1"/>
      <stop offset="0.5" style="stop-color:rgb(196,222,238);stop-opacity:1"/>
      <stop offset="0.875" style="stop-color:rgb(98,110,119);stop-opacity:1"/>
      <stop offset="1" style="stop-color:rgb(98,110,119);stop-opacity:1"/>
    </linearGradient>
    <linearGradient id="common" x1="0" y1="1" x2="1" y2="0">
      <stop offset="0" style="stop-color:rgb(0,0,0);stop-opacity:1"/>
    </linearGradient>
    <linearGradient
            id="rarity-outline" x1="0" y1="1" x2="0" y2="1">
      <stop offset="0" style="stop-color:rgb(0,0,0);stop-opacity:1"/>
    </linearGradient>
  </defs>
  <path fill="url(#rarity-outline)" d="m 21.700452,0.00107701 c -0.352376,-0.005793 -0.69583,0.0117848 -1.029297,0.0527344 -1.333866,0.16379827 -2.505675,0.70464024 -3.445312,1.64843749 a 1.0001,1.0001 0 0 0 -0.15625,0.203125 c -0.18733,0.3215363 -0.180363,0.4728258 -0.212891,0.6855468 -0.03253,0.2127213 -0.05439,0.4527812 -0.07227,0.7421876 -0.03576,0.5788126 -0.05273,1.3472934 -0.05273,2.328125 0,1.7503815 0.07471,4.4120787 0.181641,7.5078127 C 16.825621,12.70103 16.739444,12.120657 16.684827,11.22764 16.555815,9.1182182 16.549051,5.9079921 16.673108,1.641702 A 1.0001,1.0001 0 0 0 15.550062,0.62021763 C 12.23177,1.0313783 9.9678855,1.5507842 8.5305301,2.454202 7.8118525,2.9059109 7.2263371,3.5594805 7.1399051,4.3995145 7.0690268,5.088383 7.3785749,5.6960713 7.8020145,6.2491239 c 0.071809,1.7973569 0.1340221,3.737814 0.1914063,5.7675781 -2.3620713,0.765863 -4.1974833,1.583303 -5.4570313,2.445313 -1.4022217,0.959653 -2.25367315,1.982418 -2.48437497,3.126953 -0.23070182,1.144535 0.33049223,2.26489 1.19921877,2.921875 0.8687265,0.656985 2.0209289,0.995475 3.3105468,1.052735 1.0496234,0.04712 2.3442279,-0.100234 3.6328126,-0.244141 0.037264,2.313424 0.070191,4.688329 0.09375,7.226562 a 1.0001,1.0001 0 0 0 0.5390624,0.878907 c 2.6805329,1.390718 5.3969839,1.211484 7.4082029,-0.611328 a 1.0001,1.0001 0 0 0 0.320313,-0.861329 c -0.01338,-0.110332 -0.03507,-1.077413 -0.0039,-2.523437 0.0279,-1.295352 0.09347,-3.211401 0.177734,-5.423828 l 0.416016,-0.177735 c 0.0498,-0.01 0.09511,-0.01936 0.144531,-0.0293 l 0.308594,8.3125 a 1.0001,1.0001 0 0 0 0.585937,0.873047 c 1.477493,0.670094 2.810688,1.03711 4.041016,1.03711 1.230327,0 2.371854,-0.415748 3.214843,-1.228516 0.25781,-0.248247 0.457988,-0.44514 0.636719,-0.681641 0.178731,-0.236498 0.348979,-0.563453 0.376953,-0.925781 0.05595,-0.724656 -0.236216,-1.034763 -0.443359,-1.523437 -0.39608,-0.9344 -1.006448,-2.906924 -1.126953,-7.525391 2.998538,-1.040326 5.130533,-2.80222 6.197266,-4.021484 a 1.0001,1.0001 0 0 0 0,-0.002 c 0.57394,-0.657441 0.912317,-1.069122 1.089843,-1.640625 0.08876,-0.285752 0.1037,-0.655434 -0.0039,-0.962891 -0.107612,-0.307457 -0.285387,-0.502981 -0.414063,-0.63086 a 1.0001,1.0001 0 0 0 -0.957043,-0.259715 c -2.120827,0.549302 -4.009843,1.025954 -5.857422,1.490234 0.09909,-4.1218309 0.3178,-7.7708319 0.791016,-10.3164064 A 1.0001,1.0001 0 0 0 25.081312,0.66709263 C 23.894746,0.24446381 22.757582,0.01845672 21.700452,0.00107701 Z" />
  <path fill="url(#rarity)" d="m 23.83662,13.421498 c 2.198,-0.548 4.601,-1.159 7.211,-1.835 0.323,0.321 0.367,0.625 -0.719,1.869 -1.084,1.239 -3.23,3.196 -6.484,4.081 v 0.125 c 0.152,10.387 2.87,8.516 0.902,10.411 -1.311,1.264 -3.361,1.264 -6.148,0 l -0.352,-9.487 c -0.453,0.091 -0.92,0.187 -1.402,0.283 l -1.093,0.466 c -0.203,5.183 -0.266,8.096 -0.188,8.739 -1.74,1.577 -3.831,1.732 -6.275,0.464 -0.027,-2.909 -0.063,-5.67 -0.108,-8.285 -1.72,0.236 -3.309,0.37 -4.575,0.313 -4.52699997,-0.201 -6.47,-4.588 4.411,-7.857 -0.065,-2.415 -0.141,-4.6710003 -0.226,-6.7680003 -1.932,-2.078 0.362,-3.519 6.883,-4.327 -0.249,8.5630003 0.016,12.9000003 0.796,13.0110003 0.779,0.113 1.267,-0.083 1.464,-0.585 -0.268,-7.2930003 -0.268,-11.1710003 0,-11.6310003 1.581,-1.58800001 3.851,-1.85400001 6.813,-0.799 -0.551,2.964 -0.854,6.901 -0.91,11.8110003 z m -14.725,3.257 c -0.012,-0.604 -0.026,-1.198 -0.04,-1.784 -3.702,1.758 -3.689,2.353 0.04,1.784 z"/>
</svg>
