<?xml version="1.0" encoding="UTF-8" standalone="no"?>
<!-- Generated by IcoMoon.io -->

<svg
   version="1.1"
   width="26.624001"
   height="26.620001"
   viewBox="0 0 26.624001 26.620001"
   id="svg6"
   sodipodi:docname="hml.svg"
   inkscape:version="1.1.1 (3bf5ae0d25, 2021-09-20)"
   xmlns:inkscape="http://www.inkscape.org/namespaces/inkscape"
   xmlns:sodipodi="http://sodipodi.sourceforge.net/DTD/sodipodi-0.dtd"
   xmlns="http://www.w3.org/2000/svg"
   xmlns:svg="http://www.w3.org/2000/svg">
  <defs
     id="defs10" />
  <sodipodi:namedview
     id="namedview8"
     pagecolor="#ffffff"
     bordercolor="#666666"
     borderopacity="1.0"
     inkscape:pageshadow="2"
     inkscape:pageopacity="0.0"
     inkscape:pagecheckerboard="0"
     showgrid="false"
     inkscape:zoom="25.75"
     inkscape:cx="13.456311"
     inkscape:cy="13.300971"
     inkscape:window-width="1920"
     inkscape:window-height="1009"
     inkscape:window-x="-8"
     inkscape:window-y="-8"
     inkscape:window-maximized="1"
     inkscape:current-layer="svg6" />
  <title
     id="title2">hml</title>
  <path
     fill="#000000"
     d="m 3.308,14.342 c 0.025,0.115 0.006,0.22 0.003,0.352 -0.006,0.31 0.034,0.628 0.084,0.935 0.197,1.275 0.794,2.33 1.703,3.24 0.458,0.456 0.96,0.873 1.469,1.27 0.256,0.197 0.514,0.391 0.777,0.585 0.132,0.096 0.338,0.391 0.399,0.076 0.059,-0.295 0.051,-0.499 0.217,-0.769 0.357,-0.579 1.428,0 1.472,0.535 0.044,0.535 0.223,2.052 1.472,2.187 1.247,0.132 1.74,0.312 2.184,0.489 0.329,0.133 0.819,0.028 1.16,-0.008 0.476,-0.051 0.948,-0.121 1.421,-0.203 0.149,-0.025 0.324,-0.022 0.391,-0.185 0.067,-0.163 -0.05,-0.347 -0.16,-0.456 -0.267,-0.264 -0.684,-0.38 -1.019,-0.518 -0.285,-0.115 -0.569,-0.231 -0.859,-0.326 -0.346,-0.115 -0.7,-0.169 -0.96,-0.456 -0.38,-0.419 -0.43,-1.028 -0.411,-1.571 0.022,-0.588 0.093,-1.196 0.391,-1.716 0.205,-0.357 0.366,-0.741 0.535,-1.118 0.099,-0.217 0.465,-1.025 0.223,-1.221 -0.228,-0.192 -0.741,0.138 -0.803,0.377 -0.132,0.535 -1.112,0.535 -1.112,0.535 0,0 -1.652,-0.045 -2.364,0.267 C 8.806,16.956 6.844,16.556 6.177,15.618 6.132,15.554 5.879,15.579 5.802,15.534 5.54,15.376 5.509,14.625 5.774,14.459 c 0.357,-0.223 0,-1.649 -1.292,-1.649 -0.422,0 -0.904,0.065 -1.233,0.357 -0.233,0.205 -0.256,0.45 -0.143,0.726 0.05,0.127 0.127,0.239 0.177,0.369 0.009,0.028 0.017,0.053 0.022,0.081 z M 8.187,5.137 c 0,0 -2.694,0.659 -2.472,2.663 0,0 -1.41,0.458 -1.81,1.75 -0.402,1.295 0.087,1.652 0.623,1.652 0.538,0 0.982,-0.222 0.982,-0.222 0,0 0.802,-0.177 1.25,0.132 0.445,0.313 2.362,0.267 2.81,-0.357 0.445,-0.625 1.469,0 1.917,1.073 0.445,1.069 1.827,1.427 2.274,0.132 0,0 0.4,-1.694 0,-3.969 0,0 -1.382,-1.249 -3.212,-1.559 C 8.719,6.12 8.455,5.985 8.188,5.137 Z m 10.876,5.754 c 0,-2.81 -2.942,-3.746 -2.942,-3.746 0,0 -0.666,-0.133 -0.666,-0.67 0,0 -1.143,0.017 -1.813,-0.341 0,0 -0.597,-0.149 -0.597,-0.548 0,-0.403 -2.987,-1.194 -1.939,-2.064 0,0 7.76,-1.801 11.769,6.142 0,0 -1.67,-0.87 -1.67,1.472 0,1.618 1.084,2.114 1.985,2.023 0,0 1.621,5.63 -6.266,8.61 0,0 -0.569,-0.166 -0.332,-0.703 0.233,-0.532 -0.335,-0.532 -0.335,-0.532 0,0 -0.802,0.064 -0.802,-1.073 0,-1.137 0.301,-1.236 0.301,-1.236 l 1.202,-0.937 c 0,0 0.267,-0.234 0.033,-0.535 -0.236,-0.301 -0.836,-1.005 -0.836,-1.371 0,-0.267 0.161,-0.481 0.338,-0.58 0,0 2.57,0.394 2.57,-3.912 z m -5.751,13.843 c -6.299,0 -11.425,-5.126 -11.425,-11.426 0,-6.3 5.126,-11.425 11.425,-11.425 6.299,0 11.425,5.126 11.425,11.425 0,6.299 -5.126,11.426 -11.425,11.426 z M 13.312,0 C 5.963,0 0,5.959 0,13.308 0,20.66 5.962,26.62 13.312,26.62 20.664,26.62 26.624,20.661 26.624,13.308 26.624,5.959 20.665,0 13.312,0 Z"
     id="path4" />
</svg>
