<?xml version="1.0" encoding="UTF-8" standalone="no"?>
<svg
   version="1.1"
   width="33.344193"
   height="25.628929"
   viewBox="0 0 33.344193 25.62893"
   id="svg4"
   xmlns="http://www.w3.org/2000/svg"
   xmlns:svg="http://www.w3.org/2000/svg">
  <defs>
    <!-- This is the gradient that will actually be used on
     the cards. The colors themselves will be provided by the
     template, but the x values, y values, and offsets will be
     used from the SVG. -->
    <linearGradient id="rarity" x1="0" y1="1" x2="1" y2="0">
      <stop offset="0" style="stop-color:rgb(192,55,38);stop-opacity:1" id="stop2" />
      <stop offset="0.125" style="stop-color:rgb(192,55,38);stop-opacity:1" id="stop4" />
      <stop offset="0.5" style="stop-color:rgb(241,142,30);stop-opacity:1" id="stop6" />
      <stop offset="0.875" style="stop-color:rgb(192,55,38);stop-opacity:1" id="stop8" />
      <stop offset="1" style="stop-color:rgb(192,55,38);stop-opacity:1" id="stop10" />
    </linearGradient>
    <!-- These gradients are here so that you can visualize
     what the set symbol would like like in that rarity. The
     only gradient that matters in the end is the "rarity"
     gradient. -->
    <linearGradient id="mythic" x1="0" y1="1" x2="1" y2="0">
      <stop offset="0" style="stop-color:rgb(192,55,38);stop-opacity:1"/>
      <stop offset="0.125" style="stop-color:rgb(192,55,38);stop-opacity:1"/>
      <stop offset="0.5" style="stop-color:rgb(241,142,30);stop-opacity:1"/>
      <stop offset="0.875" style="stop-color:rgb(192,55,38);stop-opacity:1"/>
      <stop offset="1" style="stop-color:rgb(192,55,38);stop-opacity:1"/>
    </linearGradient>
    <linearGradient id="rare" x1="0" y1="1" x2="1" y2="0">
      <stop offset="0" style="stop-color:rgb(146,116,67);stop-opacity:1"/>
      <stop offset="0.125" style="stop-color:rgb(146,116,67);stop-opacity:1"/>
      <stop offset="0.5" style="stop-color:rgb(211,178,108);stop-opacity:1"/>
      <stop offset="0.875" style="stop-color:rgb(146,116,67);stop-opacity:1"/>
      <stop offset="1" style="stop-color:rgb(146,116,67);stop-opacity:1"/>
    </linearGradient>
    <linearGradient id="special" x1="0" y1="1" x2="1" y2="0">
      <stop offset="0" style="stop-color:rgb(76, 56, 106);stop-opacity:1"/>
      <stop offset="0.125" style="stop-color:rgb(76, 56, 106);stop-opacity:1"/>
      <stop offset="0.5" style="stop-color:rgb(201, 173, 221);stop-opacity:1"/>
      <stop offset="0.875" style="stop-color:rgb(76, 56, 106);stop-opacity:1"/>
      <stop offset="1" style="stop-color:rgb(76, 56, 106);stop-opacity:1"/>
    </linearGradient>
    <linearGradient id="uncommon" x1="0" y1="1" x2="1" y2="0">
      <stop offset="0" style="stop-color:rgb(98,110,119);stop-opacity:1"/>
      <stop offset="0.125" style="stop-color:rgb(98,110,119);stop-opacity:1"/>
      <stop offset="0.5" style="stop-color:rgb(196,222,238);stop-opacity:1"/>
      <stop offset="0.875" style="stop-color:rgb(98,110,119);stop-opacity:1"/>
      <stop offset="1" style="stop-color:rgb(98,110,119);stop-opacity:1"/>
    </linearGradient>
    <linearGradient id="common" x1="0" y1="1" x2="1" y2="0">
      <stop offset="0" style="stop-color:rgb(0,0,0);stop-opacity:1"/>
    </linearGradient>
    <linearGradient
            id="rarity-outline" x1="0" y1="1" x2="0" y2="1">
      <stop offset="0" style="stop-color:rgb(0,0,0);stop-opacity:1"/>
    </linearGradient>
  </defs>
  <path fill="url(#rarity)" d="m 24.176754,1.1038335 c 1.846,-0.68499997 3.866,-0.72199997 5.794,-0.42999997 v 0 c 0.514,0.082 1.006,0.258 1.498,0.42099997 -0.031,0.037 -0.073,0.085 -0.112,0.113 -0.447,0.327 -0.973,0.792 -1.409,1.255 -0.567,0.601 -1.098,1.371 -1.451,2.149 -0.36,0.781 -0.407,1.546 -0.274,2.509 0.109,0.79 0.654,1.4 1.268,1.831 1.012,0.576 2.218,0.361 3.309,0.199 0.005,0.9590005 0.104,1.5789995 -0.011,2.8779995 -0.162,1.841 -0.747,3.635 -1.579,5.287 -0.817,1.376 -1.772,2.688 -2.948,3.78 -0.326,0.304 -0.646,0.634 -1.056,0.827 -1.259,-0.163 -2.572,-0.247 -3.807,0.116 -1.001,0.264 -1.967,0.651 -2.892,1.114 -2.192,1.064 -4.57,1.739 -7.001,1.939 -2.011,0.103 -4.0529996,0.016 -5.9909996,-0.581 -2.525,-0.808 -4.966,-2.154 -6.671,-4.22 1.268,-0.442 2.752,-0.811 3.732,-1.552 1.458,-1.103 2.052,-2.055 2.632,-3.381 0.6,-1.334 0.876,-2.777 1.185,-4.198 0.581,-1.9849995 1.588,-3.9569995 3.2799996,-5.2159995 0.541,-0.41 1.156,-0.718 1.813,-0.893 -0.068,0.868 -0.378,1.859 0.181,2.635 0.446,0.695 1.429,0.772 2.105,0.388 1.076,-0.575 1.655,-1.696 2.389,-2.615 1.619,-1.894 3.635,-3.532 6.015,-4.353 z"/>
  <path fill="url(#rarity-outline)" d="m 27.011723,0.02243679 c -1.0146,0.060705 -2.02551,0.25188812 -2.998047,0.61132813 -0.0038,0.001395 -0.0079,5.5321e-4 -0.01172,0.001953 l -0.183593,0.0683595 -0.02344,0.046875 C 21.40815,1.6342902 19.388056,3.2540349 17.781254,5.1337649 l -0.0059,0.00586 -0.0059,0.00781 C 16.991737,6.1211703 16.43859,7.150939 15.535079,7.633763 l -0.0039,0.00195 -0.0059,0.00391 c -0.235018,0.1335011 -0.548595,0.1910125 -0.81836,0.1503906 -0.269764,-0.040622 -0.481786,-0.1609608 -0.61914,-0.375 l -0.0078,-0.00977 -0.0078,-0.011719 C 13.877392,7.1230024 13.825759,6.8168942 13.839848,6.4208743 13.853937,6.0248544 13.946916,5.5690048 13.984379,5.0907961 L 14.039069,4.385718 13.357428,4.5673586 C 12.63442,4.7599401 11.961405,5.0985068 11.371098,5.5458743 9.5575165,6.8975052 8.511288,8.971438 7.9121138,11.01853 l -0.00391,0.01758 -0.00391,0.01758 C 7.5934958,12.482959 7.3201486,13.890005 6.75195,15.1533 L 6.75,15.1553 v 0.002 c -0.5649821,1.291666 -1.0768493,2.124689 -2.4765625,3.183594 -0.850002,0.642705 -2.2929284,1.025074 -3.59375,1.478515 L 0,20.055737 0.45898437,20.608472 c 1.78625883,2.164464 4.31487293,3.55029 6.90429683,4.378906 h 0.00195 l 0.00195,0.002 c 2.0193738,0.622067 4.1214318,0.706183 6.1640618,0.601563 h 0.0078 0.0078 c 2.496065,-0.205353 4.932672,-0.898525 7.177734,-1.988282 l 0.0039,-0.002 h 0.002 c 0.900126,-0.45055 1.833731,-0.824624 2.794922,-1.078125 l 0.0078,-0.002 0.0059,-0.002 c 1.122988,-0.330076 2.364771,-0.259734 3.601563,-0.09961 l 0.146484,0.01758 0.13086,-0.06055 c 0.51747,-0.24359 0.870474,-0.621973 1.183593,-0.914063 1.223426,-1.136038 2.20597,-2.487521 3.039063,-3.890625 l 0.0078,-0.01563 0.0078,-0.01563 c 0.855059,-1.697784 1.462132,-3.54935 1.630859,-5.466796 0.118455,-1.338028 0.01655,-2.000068 0.01172,-2.9257812 l -0.002,-0.5761719 -0.570313,0.085937 C 31.635051,8.819279 30.577848,8.9718813 29.763676,8.5224368 29.227516,8.1408205 28.800592,7.6448729 28.718754,7.0517336 28.592848,6.1400978 28.636212,5.5045611 28.951176,4.8212649 v -0.00195 C 29.277511,4.100083 29.782908,3.3649263 30.310551,2.805643 h 0.002 C 30.72453,2.3681519 31.233461,1.91821 31.648488,1.6142367 l 0.0039,-0.00195 c 0.116853,-0.084869 0.162696,-0.1536743 0.199218,-0.1972656 L 32.324263,0.85252112 31.626997,0.62009924 C 31.142491,0.45958915 30.623728,0.27235481 30.048832,0.18063992 h -0.002 l -0.002,-0.001953 c -0.992653,-0.15033949 -2.014667,-0.2171905 -3.033203,-0.15625 z m 0.0625,1.00000001 c 0.934961,-0.0558094 1.88692,0.00482 2.822265,0.1464844 0.183452,0.029478 0.384981,0.1086263 0.574219,0.1621094 -0.302814,0.2600062 -0.611477,0.4967756 -0.886719,0.7890624 -0.605759,0.6420835 -1.161377,1.44732 -1.541015,2.2832032 -0.405036,0.8787022 -0.4565,1.770794 -0.316407,2.7851562 0.135081,0.9790211 0.794863,1.6933529 1.476563,2.171875 l 0.01953,0.013672 0.02148,0.011719 c 1.010216,0.5749847 2.085755,0.4602012 3.052734,0.3203125 0.02388,0.7023381 0.08392,1.2652381 -0.0059,2.2792961 -0.154666,1.757651 -0.715671,3.485003 -1.519532,5.085937 -0.799438,1.344853 -1.724072,2.613062 -2.849609,3.658204 h -0.002 c -0.312093,0.291031 -0.578893,0.530975 -0.855469,0.68164 -1.222764,-0.149302 -2.525338,-0.225097 -3.800781,0.148438 -1.037747,0.274434 -2.033177,0.672326 -2.980469,1.146484 l 0.0059,-0.0039 c -2.138932,1.038241 -4.458288,1.695978 -6.824218,1.890625 -1.972069,0.100001 -3.9468478,0.01021 -5.7968749,-0.558594 l -0.00586,-0.002 C 5.4604527,23.326884 3.4191538,22.125919 1.8359419,20.48728 2.8842379,20.152191 3.9988396,19.801635 4.8769575,19.137671 6.3910973,17.9922 7.0696581,16.921046 7.6640669,15.563452 l 0.00195,-0.0039 c 0.6305155,-1.403496 0.9079375,-2.881598 1.2148438,-4.292969 l -0.00781,0.0332 C 9.4353758,9.3785858 10.403092,7.5111492 11.970707,6.3447024 l 0.002,-0.00195 h 0.002 c 0.275668,-0.2089161 0.608715,-0.3081936 0.919922,-0.453125 -0.02032,0.1725158 -0.04617,0.3116333 -0.05273,0.4960937 -0.018,0.506071 0.06,1.0758031 0.416016,1.578125 0.309301,0.4727253 0.803111,0.7395127 1.300781,0.8144532 0.500167,0.075316 1.01529,-0.019383 1.455078,-0.2675782 1.238165,-0.664786 1.842293,-1.8646576 2.527344,-2.7265625 1.578307,-1.8463956 3.528401,-3.4225501 5.796875,-4.2050781 l 0.01367,-0.00586 c 0.0025,-9.349e-4 0.0053,-0.00102 0.0078,-0.00195 0.867745,-0.3210209 1.78259,-0.4931804 2.714844,-0.5488281 z m -1.402344,7.3125 c -5.066793,0.1915034 -9.555073,1.1292998 -12.119141,4.8085932 1.017237,-0.589362 2.066151,-1.216712 3.04812,-0.581768 0.9366,0.61982 0.788773,1.061932 1.029446,2.044391 0.293609,1.054838 1.409708,3.348485 3.278702,4.219521 0.584855,-0.402197 0.996965,-0.945706 1.380058,-1.402843 0.979428,-1.159079 1.50617,-2.588864 1.792969,-4 l 0.0039,-0.01953 0.002,-0.02149 c 0.193837,-2.548535 1.057379,-3.6065359 3,-4.9394524 z m -12.935547,6.3847652 -0.330078,0.552734 c -0.521342,0.875726 -0.820138,1.775269 -1.296875,2.492188 l -0.02344,0.03516 c -0.549033,0.942639 -1.3814719,1.711183 -2.2988282,2.404297 l -0.59375,0.449219 0.640625,0.378906 c 0.7097905,0.42035 1.4743122,0.495475 2.1289062,0.591797 l 0.01563,0.002 0.01563,0.002 c 1.699147,0.142111 3.445669,0.03454 5.111328,-0.458984 l 0.0059,-0.002 0.0078,-0.002 c 0.976235,-0.322147 2.069638,-0.597995 3.041015,-1.263671 l 0.607387,-0.416021 c -2.944249,-1.047505 -5.428464,-2.602895 -7.03125,-4.765625 z"/>
</svg>
