<?xml version="1.0" encoding="UTF-8" standalone="no"?>
<svg
   version="1.1"
   width="30.773369"
   height="30.773369"
   viewBox="0 0 30.773369 30.773369"
   id="svg4"
   xmlns="http://www.w3.org/2000/svg"
   xmlns:svg="http://www.w3.org/2000/svg">
  <defs>
    <!-- This is the gradient that will actually be used on
     the cards. The colors themselves will be provided by the
     template, but the x values, y values, and offsets will be
     used from the SVG. -->
    <linearGradient id="rarity" x1="0" y1="1" x2="1" y2="0">
      <stop offset="0" style="stop-color:rgb(192,55,38);stop-opacity:1" id="stop2" />
      <stop offset="0.125" style="stop-color:rgb(192,55,38);stop-opacity:1" id="stop4" />
      <stop offset="0.5" style="stop-color:rgb(241,142,30);stop-opacity:1" id="stop6" />
      <stop offset="0.875" style="stop-color:rgb(192,55,38);stop-opacity:1" id="stop8" />
      <stop offset="1" style="stop-color:rgb(192,55,38);stop-opacity:1" id="stop10" />
    </linearGradient>
    <!-- These gradients are here so that you can visualize
     what the set symbol would like like in that rarity. The
     only gradient that matters in the end is the "rarity"
     gradient. -->
    <linearGradient id="mythic" x1="0" y1="1" x2="1" y2="0">
      <stop offset="0" style="stop-color:rgb(192,55,38);stop-opacity:1"/>
      <stop offset="0.125" style="stop-color:rgb(192,55,38);stop-opacity:1"/>
      <stop offset="0.5" style="stop-color:rgb(241,142,30);stop-opacity:1"/>
      <stop offset="0.875" style="stop-color:rgb(192,55,38);stop-opacity:1"/>
      <stop offset="1" style="stop-color:rgb(192,55,38);stop-opacity:1"/>
    </linearGradient>
    <linearGradient id="rare" x1="0" y1="1" x2="1" y2="0">
      <stop offset="0" style="stop-color:rgb(146,116,67);stop-opacity:1"/>
      <stop offset="0.125" style="stop-color:rgb(146,116,67);stop-opacity:1"/>
      <stop offset="0.5" style="stop-color:rgb(211,178,108);stop-opacity:1"/>
      <stop offset="0.875" style="stop-color:rgb(146,116,67);stop-opacity:1"/>
      <stop offset="1" style="stop-color:rgb(146,116,67);stop-opacity:1"/>
    </linearGradient>
    <linearGradient id="special" x1="0" y1="1" x2="1" y2="0">
      <stop offset="0" style="stop-color:rgb(76, 56, 106);stop-opacity:1"/>
      <stop offset="0.125" style="stop-color:rgb(76, 56, 106);stop-opacity:1"/>
      <stop offset="0.5" style="stop-color:rgb(201, 173, 221);stop-opacity:1"/>
      <stop offset="0.875" style="stop-color:rgb(76, 56, 106);stop-opacity:1"/>
      <stop offset="1" style="stop-color:rgb(76, 56, 106);stop-opacity:1"/>
    </linearGradient>
    <linearGradient id="uncommon" x1="0" y1="1" x2="1" y2="0">
      <stop offset="0" style="stop-color:rgb(98,110,119);stop-opacity:1"/>
      <stop offset="0.125" style="stop-color:rgb(98,110,119);stop-opacity:1"/>
      <stop offset="0.5" style="stop-color:rgb(196,222,238);stop-opacity:1"/>
      <stop offset="0.875" style="stop-color:rgb(98,110,119);stop-opacity:1"/>
      <stop offset="1" style="stop-color:rgb(98,110,119);stop-opacity:1"/>
    </linearGradient>
    <linearGradient id="common" x1="0" y1="1" x2="1" y2="0">
      <stop offset="0" style="stop-color:rgb(0,0,0);stop-opacity:1"/>
    </linearGradient>
    <linearGradient
            id="rarity-outline" x1="0" y1="1" x2="0" y2="1">
      <stop offset="0" style="stop-color:rgb(0,0,0);stop-opacity:1"/>
    </linearGradient>
  </defs>
  <circle fill="url(#rarity-outline)" cx="15.386684" cy="15.386684" r="15.386684" />
  <path fill="url(#rarity)" d="m 9.15441,3.117747 c 3.839,-1.9799999 8.624,-1.9819999 12.463,10e-4 -2.056,1.521 -4.14,3.003 -6.204,4.513 -2.083,-1.508 -4.188,-2.988 -6.259,-4.514 z m 6.202,9.386 c -2.223,-3.044 -4.483,-6.061 -6.686,-9.12 -3.289,1.813 -5.741,5.054 -6.634,8.697 -0.721,2.881 -0.474,5.996 0.7,8.724 0.926,2.187 2.45,4.092 4.317,5.55 0.861,-1.313 1.687,-2.648 2.559,-3.953 -1.547,-1.289 -2.655,-3.092 -3.072,-5.065 -0.518,-2.31 -0.066,-4.838 1.25,-6.808 2.189,2.986 4.384,5.967 6.58,8.948 -1.758,2.716 -3.522,5.429 -5.246,8.167 3.858,1.997 8.665,1.996 12.524,10e-4 -1.718,-2.734 -3.485,-5.439 -5.234,-8.155 2.187,-3.015 4.323,-6.068 6.524,-9.072 1.222,1.869 1.76,4.192 1.392,6.403 -0.331,2.166 -1.486,4.181 -3.17,5.581 0.872,1.303 1.693,2.64 2.56,3.946 2.951,-2.258 4.962,-5.731 5.334,-9.438 0.285,-2.484 -0.13,-5.05 -1.194,-7.313 -1.223,-2.665 -3.333,-4.895 -5.898,-6.306 -2.205,3.067 -4.396,6.146 -6.605,9.212 z"/>
</svg>
