<?xml version="1.0" encoding="UTF-8" standalone="no"?>
<svg
   version="1.1"
   width="25.480709"
   height="34.949219"
   viewBox="0 0 25.480709 34.949219"
   id="svg4"
   xmlns="http://www.w3.org/2000/svg"
   xmlns:svg="http://www.w3.org/2000/svg">
  <defs>
    <!-- This is the gradient that will actually be used on
     the cards. The colors themselves will be provided by the
     template, but the x values, y values, and offsets will be
     used from the SVG. -->
    <radialGradient id="rarity">
      <stop offset="0" style="stop-color:rgb(192,55,38);stop-opacity:1" id="stop2" />
      <stop offset="0" style="stop-color:rgb(192,55,38);stop-opacity:1" id="stop4" />
      <stop offset="0" style="stop-color:rgb(241,142,30);stop-opacity:1" id="stop6" />
      <stop offset="0.9" style="stop-color:rgb(192,55,38);stop-opacity:1" id="stop8" />
      <stop offset="1" style="stop-color:rgb(192,55,38);stop-opacity:1" id="stop10" />
    </radialGradient>
    <!-- These gradients are here so that you can visualize
     what the set symbol would like like in that rarity. The
     only gradient that matters in the end is the "rarity"
     gradient. -->
    <linearGradient id="mythic" x1="0" y1="1" x2="1" y2="0">
      <stop offset="0" style="stop-color:rgb(192,55,38);stop-opacity:1"/>
      <stop offset="0.125" style="stop-color:rgb(192,55,38);stop-opacity:1"/>
      <stop offset="0.5" style="stop-color:rgb(241,142,30);stop-opacity:1"/>
      <stop offset="0.875" style="stop-color:rgb(192,55,38);stop-opacity:1"/>
      <stop offset="1" style="stop-color:rgb(192,55,38);stop-opacity:1"/>
    </linearGradient>
    <linearGradient id="rare" x1="0" y1="1" x2="1" y2="0">
      <stop offset="0" style="stop-color:rgb(146,116,67);stop-opacity:1"/>
      <stop offset="0.125" style="stop-color:rgb(146,116,67);stop-opacity:1"/>
      <stop offset="0.5" style="stop-color:rgb(211,178,108);stop-opacity:1"/>
      <stop offset="0.875" style="stop-color:rgb(146,116,67);stop-opacity:1"/>
      <stop offset="1" style="stop-color:rgb(146,116,67);stop-opacity:1"/>
    </linearGradient>
    <linearGradient id="special" x1="0" y1="1" x2="1" y2="0">
      <stop offset="0" style="stop-color:rgb(76, 56, 106);stop-opacity:1"/>
      <stop offset="0.125" style="stop-color:rgb(76, 56, 106);stop-opacity:1"/>
      <stop offset="0.5" style="stop-color:rgb(201, 173, 221);stop-opacity:1"/>
      <stop offset="0.875" style="stop-color:rgb(76, 56, 106);stop-opacity:1"/>
      <stop offset="1" style="stop-color:rgb(76, 56, 106);stop-opacity:1"/>
    </linearGradient>
    <linearGradient id="uncommon" x1="0" y1="1" x2="1" y2="0">
      <stop offset="0" style="stop-color:rgb(98,110,119);stop-opacity:1"/>
      <stop offset="0.125" style="stop-color:rgb(98,110,119);stop-opacity:1"/>
      <stop offset="0.5" style="stop-color:rgb(196,222,238);stop-opacity:1"/>
      <stop offset="0.875" style="stop-color:rgb(98,110,119);stop-opacity:1"/>
      <stop offset="1" style="stop-color:rgb(98,110,119);stop-opacity:1"/>
    </linearGradient>
    <linearGradient id="common" x1="0" y1="1" x2="1" y2="0">
      <stop offset="0" style="stop-color:rgb(0,0,0);stop-opacity:1"/>
    </linearGradient>
    <linearGradient
            id="rarity-outline" x1="0" y1="1" x2="0" y2="1">
      <stop offset="0" style="stop-color:rgb(0,0,0);stop-opacity:1"/>
    </linearGradient>
  </defs>
  <path fill="url(#rarity-outline)" d="M 12.735988,0 C 11.750872,0 10.909258,0.45128645 10.294582,1.0234375 9.9779575,1.3181571 9.8572012,1.6975523 9.6422383,2.0429688 L 8.3375508,2.4121094 c 0,0 -2.611068,0.740114 -4.984375,3.1132812 v 0.00195 h -0.00195 c -1.2666812,1.26575 -2.3598588,3.212377 -2.94140624,5.3691402 -0.5818198,2.157774 -0.6458069,4.566135 0.48242188,6.597657 l 0.85937496,1.546875 0.8828126,-1.535157 c 0,0 0.035424,-0.04191 0.037109,-0.04492 l 1.2695312,0.324218 c 0.6460728,0.165183 1.5375759,0.88113 2.3847656,1.988282 0.8471897,1.107151 1.6583399,2.551529 2.3457032,3.974609 1.3747268,2.84616 2.2578128,5.583984 2.2578128,5.583984 0.569871,1.882909 1.810546,5.617188 1.810546,5.617188 0,0 1.355983,-4.211599 1.808594,-5.617188 0,0 0.884449,-2.73591 2.259766,-5.582031 0.687657,-1.42306 1.498044,-2.867471 2.345703,-3.974609 0.847658,-1.107139 1.739685,-1.824927 2.386718,-1.990235 l 1.267579,-0.322265 c 0.0016,0.0029 0.03711,0.04297 0.03711,0.04297 l 0.882812,1.533203 0.859375,-1.546874 c 1.128229,-2.031524 1.065618,-4.440014 0.484375,-6.597657 C 24.491499,8.7399191 23.401154,6.7970417 22.138332,5.53125 20.731084,4.0703378 19.009594,3.1239885 17.234035,2.4394531 L 15.714504,1.8554687 C 15.521987,1.578913 15.437193,1.2619282 15.177394,1.0214844 14.560461,0.45051207 13.719433,0 12.735988,0 Z m -9.3847654,5.5273438 0.00195,-0.00195 h -0.00195 z" />
  <path fill="url(#rarity)" d="m 12.735994,7.57 v 0 c -0.014,0 -0.024,0 -0.039,0 -0.011,0 -0.024,0 -0.039,0 v 0 c -0.6,-0.039 -1.017,-0.53 -1.017,-1.508 0,-1.019 1.056,-2.418 1.056,-2.418 0,0 1.059,1.398 1.059,2.418 0,0.978 -0.42,1.469 -1.02,1.508 z m 3.22,-1.698 c -0.078,-0.755 -0.113,-1.51 -0.455,-2.566 -0.339,-1.059 -1.413,-2.306 -2.765,-2.306 -1.359,0 -2.418,1.246 -2.7569997,2.306 -0.339,1.056 -0.378,1.811 -0.452,2.566 -0.078,0.756 -0.526,4.117 3.2129997,4.117 3.739,0 3.291,-3.361 3.216,-4.117 z m 0.918,-2.499 c 0.226,0.84 0.296,1.518 0.353,2.118 l 0.028,0.306 c 0.07,0.668 0.283,2.698 -1.017,4.141 -0.646,0.717 -1.539,1.137 -2.644,1.282 v 2.263 c 8.091,0 10.119,3.524 10.119,3.524 1.906,-3.432 -0.096,-8.582 -2.288,-10.775 -2.195,-2.193 -4.55,-2.86 -4.55,-2.86 z m 4.42,13.444 c -4.102,1.048 -7.697,12.208 -7.697,12.208 V 14.769 c 5.645,0 7.697,2.048 7.697,2.048 z M 4.0589943,6.233 c -2.196,2.193 -4.19800004,7.343 -2.292,10.775 0,0 2.027,-3.524 10.1219997,-3.524 v -2.263 c -1.105,-0.145 -2.0019997,-0.565 -2.6479997,-1.282 -1.3,-1.443 -1.084,-3.473 -1.017,-4.141 l 0.032,-0.306 c 0.053,-0.6 0.127,-1.278 0.353,-2.118 0,0 -2.359,0.667 -4.551,2.86 z m 7.8229997,8.536 v 14.256 c 0,0 -3.5939997,-11.16 -7.6929997,-12.208 0,0 2.052,-2.048 7.6929997,-2.048 z"/>
</svg>
