<?xml version="1.0" encoding="UTF-8" standalone="no"?>
<svg
   version="1.1"
   width="33.945068"
   height="29.664013"
   viewBox="0 0 33.945069 29.664013"
   id="svg4"
   xmlns="http://www.w3.org/2000/svg"
   xmlns:svg="http://www.w3.org/2000/svg">
  <defs>
    <!-- This is the gradient that will actually be used on
     the cards. The colors themselves will be provided by the
     template, but the x values, y values, and offsets will be
     used from the SVG. -->
    <radialGradient id="rarity" r="0.6">
      <stop offset="0" style="stop-color:rgb(192,55,38);stop-opacity:1" id="stop2" />
      <stop offset="0" style="stop-color:rgb(192,55,38);stop-opacity:1" id="stop4" />
      <stop offset="0" style="stop-color:rgb(241,142,30);stop-opacity:1" id="stop6" />
      <stop offset="0.75" style="stop-color:rgb(192,55,38);stop-opacity:1" id="stop8" />
      <stop offset="1" style="stop-color:rgb(192,55,38);stop-opacity:1" id="stop10" />
    </radialGradient>
    <!-- These gradients are here so that you can visualize
     what the set symbol would like like in that rarity. The
     only gradient that matters in the end is the "rarity"
     gradient. -->
    <linearGradient id="mythic" x1="0" y1="1" x2="1" y2="0">
      <stop offset="0" style="stop-color:rgb(192,55,38);stop-opacity:1"/>
      <stop offset="0.125" style="stop-color:rgb(192,55,38);stop-opacity:1"/>
      <stop offset="0.5" style="stop-color:rgb(241,142,30);stop-opacity:1"/>
      <stop offset="0.875" style="stop-color:rgb(192,55,38);stop-opacity:1"/>
      <stop offset="1" style="stop-color:rgb(192,55,38);stop-opacity:1"/>
    </linearGradient>
    <linearGradient id="rare" x1="0" y1="1" x2="1" y2="0">
      <stop offset="0" style="stop-color:rgb(146,116,67);stop-opacity:1"/>
      <stop offset="0.125" style="stop-color:rgb(146,116,67);stop-opacity:1"/>
      <stop offset="0.5" style="stop-color:rgb(211,178,108);stop-opacity:1"/>
      <stop offset="0.875" style="stop-color:rgb(146,116,67);stop-opacity:1"/>
      <stop offset="1" style="stop-color:rgb(146,116,67);stop-opacity:1"/>
    </linearGradient>
    <linearGradient id="special" x1="0" y1="1" x2="1" y2="0">
      <stop offset="0" style="stop-color:rgb(76, 56, 106);stop-opacity:1"/>
      <stop offset="0.125" style="stop-color:rgb(76, 56, 106);stop-opacity:1"/>
      <stop offset="0.5" style="stop-color:rgb(201, 173, 221);stop-opacity:1"/>
      <stop offset="0.875" style="stop-color:rgb(76, 56, 106);stop-opacity:1"/>
      <stop offset="1" style="stop-color:rgb(76, 56, 106);stop-opacity:1"/>
    </linearGradient>
    <linearGradient id="uncommon" x1="0" y1="1" x2="1" y2="0">
      <stop offset="0" style="stop-color:rgb(98,110,119);stop-opacity:1"/>
      <stop offset="0.125" style="stop-color:rgb(98,110,119);stop-opacity:1"/>
      <stop offset="0.5" style="stop-color:rgb(196,222,238);stop-opacity:1"/>
      <stop offset="0.875" style="stop-color:rgb(98,110,119);stop-opacity:1"/>
      <stop offset="1" style="stop-color:rgb(98,110,119);stop-opacity:1"/>
    </linearGradient>
    <linearGradient id="common" x1="0" y1="1" x2="1" y2="0">
      <stop offset="0" style="stop-color:rgb(0,0,0);stop-opacity:1"/>
    </linearGradient>
    <linearGradient
            id="rarity-outline" x1="0" y1="1" x2="0" y2="1">
      <stop offset="0" style="stop-color:rgb(0,0,0);stop-opacity:1"/>
    </linearGradient>
  </defs>
  <path fill="url(#rarity-outline)" d="m 19.346648,0.16992185 c -0.815219,0.0538352 -1.488592,0.10437533 -2.261719,0.42773438 -0.03516,0.01097 -0.07006,0.0226435 -0.105469,0.0332031 C 16.9292,0.61477073 16.88249,0.59710323 16.831023,0.58203123 14.943042,-0.1910515 12.865972,-0.0969935 11.038054,0.47070312 h -0.002 l -0.002,0.001953 C 7.8034466,1.4921515 5.1243864,4.0204665 3.9755538,7.2265625 3.0757798,9.7094608 2.8703136,12.385237 3.1864914,14.955079 c 0.029464,0.312574 0.1739193,0.595231 0.2304687,0.902343 l -0.4648437,0.291015 c -1.2177875,0.764605 -2.47002241,1.913797 -2.84765631,3.59375 l -0.001953,0.0078 -0.001953,0.0078 c -0.3878149,1.870412 0.38763393,3.691584 1.61328121,4.9375 l 1.375,1.396484 0.3242187,-1.93164 C 3.437913,24.012575 3.5286984,23.89488 3.7821947,23.777318 4.035691,23.659756 4.414191,23.623029 4.6747728,23.689428 l 0.015625,0.0039 0.015625,0.0039 c 0.6701272,0.147355 1.316825,0.870688 2.3007812,1.630859 2.7475341,2.379188 6.205571,4.006946 9.890625,4.328124 l 0.08789,0.0078 0.08789,-0.0078 c 3.630823,-0.326401 7.04658,-1.914849 9.771485,-4.251953 l 0.03711,-0.0293 c 0.0021,-0.0018 0.0038,-0.0041 0.0059,-0.0059 0.98283,-0.76423 1.638294,-1.486319 2.332031,-1.65625 0.208706,-0.02982 0.394035,0.01097 0.617187,0.160156 0.232269,0.155283 0.469297,0.42654 0.619141,0.710938 l 0.578125,1.099609 0.951172,-0.800781 c 1.501328,-1.26486 2.303536,-3.315736 1.818359,-5.300781 l -0.0039,-0.01563 -0.0039,-0.01367 C 33.360032,17.967258 32.161312,16.883935 30.989278,16.1464 l -0.498047,-0.314452 c 0.17047,-0.98935 0.373863,-1.993399 0.419922,-2.919922 v -0.0332 -0.0332 c -0.03225,-2.03266 -0.300378,-4.1460622 -1.14263,-6.1249219 l -0.002,-0.00391 C 28.500446,3.66479 25.823135,1.3205098 22.668914,0.40039062 l -0.01172,-0.003906 -0.01367,-0.003906 C 22.188159,0.27287854 21.680392,0.24199585 21.190398,0.17578125 c -0.696156,-0.0647896 -1.395767,-0.0173915 -1.84375,-0.005859 z m 10.501953,10.74414115 -0.002,0.04297 c 3.35e-4,-0.0059 -0.0042,-0.0117 -0.0039,-0.01758 1.63e-4,-0.009 0.0057,-0.01642 0.0059,-0.02539 z" />
  <path fill="url(#rarity)" d="m 10.567499,5.0596443 c 0.647001,-0.002 1.279001,0.136 1.904001,0.288 1.009,0.315 1.986,0.766 2.801,1.449 0.698,0.535 1.198,1.271 1.699,1.984 1.035,-1.695 2.712,-3.052 4.686,-3.432 l -0.084,-0.033 c 0.984,-0.231 2.037,-0.396 3.024,-0.088 1.284,0.398 2.278,1.472 2.758,2.705 0.571,1.454 0.67,3.0970007 0.246,4.6019997 l 0.007,0.018 c -0.505,1.490999 -1.291,2.993999 -2.583,3.938999 -0.234,0.175 0.2,0.175 0.291,0.099 0.498,-0.376 0.994,-0.759 1.502,-1.121999 0.631,0.885 0.959,2.016999 0.644,3.084999 -0.541,2.088001 -2.205,3.638001 -3.861,4.904 -0.743,0.579001 -1.565,1.042001 -2.346,1.565001 3.937,-1.330001 7.661,-4.051 9.202,-8.03 1.052,0.662 2.035,1.592999 2.374,2.826 0.383,1.567 -0.272,3.272999 -1.491,4.3 -0.441,-0.837 -1.314,-1.571001 -2.316,-1.398 -1.136,0.258 -1.905,1.21 -2.79,1.892 -2.587,2.231999 -5.835,3.74 -9.25,4.047 -3.465,-0.302 -6.756001,-1.849 -9.3660008,-4.123 -0.853,-0.659 -1.601,-1.575 -2.697,-1.816 -1.0127319,-0.258055 -2.3181107,0.229955 -2.494,1.274 -1.028,-1.045 -1.65199997,-2.563 -1.347,-4.034 0.292,-1.299 1.312,-2.281 2.403,-2.966 1.401,3.646 4.673,6.208 8.1890008,7.677 0.348,0.122 0.688,0.267 1.037,0.391 -2.058001,-1.337 -4.2060008,-2.729 -5.5300008,-4.86 -0.739,-1.183 -1.141,-2.753 -0.454,-4.054 0.144,-0.203 0.226,-0.579 0.505,-0.609 0.537,0.401 1.058,0.827 1.659,1.131 -0.995,-1.103 -1.951,-2.301 -2.415,-3.732 -0.545,-1.482 -0.502,-3.1460007 -0.023,-4.6380007 0.416,-1.301 1.352,-2.488 2.649,-2.986 0.333,-0.131 0.685,-0.206 1.0399998,-0.238 0.142,-0.013 0.284,-0.011 0.427,-0.017 z m 6.468001,13.7609997 -0.065,0.003 c -0.71,-0.056 -0.845,0.802 -1.245,1.207 -0.305,0.170001 -0.639,-0.071 -0.944,-0.122 0.238,2.034 0.984,4.026 2.19,5.685 1.2,-1.664 1.95,-3.653 2.187,-5.687 -0.305,0.049 -0.637,0.297 -0.941,0.122 -0.399,-0.426 -0.504,-1.156 -1.183,-1.208 z m -6.209001,-8.32 c -1.0329998,0.092 -0.593,0.027 -1.3239998,0.156 0.106,0.137 0.211,0.274 0.319,0.409 0.026,0.576001 -0.025,1.2 0.2959998,1.71 0.432,0.789 1.339001,1.261 2.232001,1.202 0.596,-0.021 1.302,-0.258 1.735,0.3 0.104,-0.904999 0.343,-1.842 0.092,-2.74 -0.134,-0.515 -0.669,-0.736 -1.141,-0.835 -0.516,-0.097 -0.714,-0.145 -1.32,-0.185 -0.296,-0.02 -0.593,-0.011 -0.889001,-0.016 z m 12.091001,-0.005 c -0.7,0.018 -0.4,10e-4 -0.899,0.037 -0.735,0.124 -1.675,0.096 -2.151,0.771 -0.418,0.938001 -0.114,1.999001 -0.007,2.973001 0.477,-0.607 1.253,-0.271001 1.897,-0.297001 0.915,0.002 1.809,-0.56 2.171,-1.404999 0.309,-0.614001 -0.021,-1.392 0.479,-1.928001 -0.489,-0.113 -0.99,-0.13 -1.49,-0.151 z m -2.727,-9.4689997 c 0.747,0.007 1.48,0.144 2.199,0.333 2.859,0.834 5.314,2.988 6.456,5.744 0.774,1.814 1.035,3.7999997 1.066,5.7579997 -0.069,1.388 -0.15,2.8 -0.583,4.133 -0.427,1.276 -1.113,2.459 -1.961,3.499 0.512,-0.824 1.009,-1.7 1.076,-2.691 0.14,-1.131999 -0.262,-2.259999 -0.939,-3.157999 0.782,-1.094 1.325,-2.382 1.344,-3.744001 0.134,-2.3509997 -0.759,-4.9649997 -2.854,-6.2349997 -1.01,-0.655 -2.242,-0.789 -3.415,-0.702 -2.134,0.203 -4.158,1.233 -5.607,2.806 -1.451,-1.571 -3.471,-2.605 -5.606,-2.806 -1.174001,-0.082 -2.4070008,0.04 -3.4150008,0.698 -2.192,1.332 -3.074,4.115 -2.831,6.5649997 0.059,1.25 0.606,2.412 1.316,3.422001 -0.678,0.896 -1.08,2.026999 -0.939,3.157999 0.076,0.980001 0.55,1.86 1.073,2.671 -1.332,-1.585 -2.2,-3.562 -2.392,-5.628999 -0.302,-2.438 -0.102,-4.9670007 0.738,-7.2840007 1.037,-2.894 3.493,-5.216 6.4180008,-6.139 1.684,-0.523 3.575,-0.588 5.216,0.117 0.14,0.041 0.281,0.089 0.419,0.14 0.14,-0.051 0.282,-0.096 0.427,-0.135 0.682,-0.296 1.415,-0.46 2.157,-0.509 0.212,-0.014 0.425,-0.01 0.637,-0.015 z"/>
</svg>
