<?xml version="1.0" encoding="UTF-8" standalone="no"?>
<!-- Generated by IcoMoon.io -->

<svg
   version="1.1"
   width="31.999632"
   height="23.372999"
   viewBox="0 0 31.999632 23.372999"
   id="svg6"
   sodipodi:docname="j21-outline.svg"
   inkscape:version="1.1.1 (3bf5ae0d25, 2021-09-20)"
   xmlns:inkscape="http://www.inkscape.org/namespaces/inkscape"
   xmlns:sodipodi="http://sodipodi.sourceforge.net/DTD/sodipodi-0.dtd"
   xmlns="http://www.w3.org/2000/svg"
   xmlns:svg="http://www.w3.org/2000/svg">
  <defs
     id="defs10" />
  <sodipodi:namedview
     id="namedview8"
     pagecolor="#ffffff"
     bordercolor="#666666"
     borderopacity="1.0"
     inkscape:pageshadow="2"
     inkscape:pageopacity="0.0"
     inkscape:pagecheckerboard="0"
     showgrid="false"
     inkscape:zoom="25.75"
     inkscape:cx="15.980583"
     inkscape:cy="11.669903"
     inkscape:window-width="1920"
     inkscape:window-height="1009"
     inkscape:window-x="-8"
     inkscape:window-y="-8"
     inkscape:window-maximized="1"
     inkscape:current-layer="svg6" />
  <title
     id="title2">j21-outline</title>
  <path
     fill="#000000"
     d="m 23.209255,0.001 c 0.575,0.008 1.012,0.407 1.125,0.957 0.021,0.002 0.003,0.315 0.025,0.315 3.527,0.042 5.731,0.945 7.196,3.769 2.082,4.835 -3.364,11.524 -11.9,15.201 l -0.447,0.186 v 1.802 c 0,0.633 -0.515,1.142 -1.145,1.142 H 8.7062547 c -0.495,-0.009 -0.944,-0.322 -1.093,-0.802 -0.036,-0.16 0.031,-0.543 -0.031,-0.543 -2.94,-0.022 -5.813,-0.423 -7.14799997,-3.581 C -1.6157453,13.598 3.7982547,6.923 12.334255,3.246 l 0.374,-0.158 V 1.142 c 0,-0.633 0.515,-1.142 1.145,-1.142 h 9.357 z m -4.874,15.535 h -1.674 l 0.002,0.069 c -0.021,1.502 -0.456,3.147 -1.633,4.168 -0.189,0.164 -0.421,0.334 -0.651,0.435 l 0.009,0.009 c -0.385,0.212 -0.499,0.273 -0.698,0.378 -1.681,0.913 -3.36,1.287 -5.2580003,1.373 v 0.264 c 0,0.15 0.123,0.271 0.274,0.271 h 9.3570003 c 0.151,0 0.274,-0.121 0.274,-0.271 v -6.695 z m 6.224,-13.479 c -0.111,0 -0.222,0.004 -0.332,0.009 l -0.659,0.03 c -1.41,0.075 -2.916,0.427 -4.185,1.063 0.365,0.115 0.702,0.327 0.989,0.576 1.18,1.023 1.607,2.663 1.633,4.167 0,2.646 -1.466,4.888 -3.475,4.888 -0.122,-0.008 -0.165,-0.005 -0.195,-0.009 v -0.81 -2.992 c 0,-0.149 -0.122,-0.271 -0.273,-0.271 v 0 H 8.7052547 c -0.151,0 -0.274,0.121 -0.274,0.271 v 9.344 c -0.079,0.08 -0.209,0.155 -0.369,0.223 -0.146,0.061 -0.486,0.154 -0.486,0.154 -1.352,0.255 -2.618,-0.086 -3.376,-1.291 -0.657,-1.094 -0.628,-2.625 0.022,-4.004 0.338,-0.717 0.746,-0.581 0.658,-0.182 -0.057,0.256 -0.134,0.45 -0.153,0.492 -0.286,0.635 -0.275,2.42 0.22,3.245 0.576,0.925 1.626,1.11 2.628,0.848 l -0.015,-8.829 c 0,-0.633 0.515,-1.142 1.145,-1.142 H 12.707255 V 4.035 l -0.029,0.012 C 4.5262547,7.558 -0.59774527,13.851 1.2332547,18.103 c 1.095,2.453 3.742,2.946 6.348,2.99 l 0.85,0.003 c 1.389,-0.029 2.5200003,-0.284 3.8050003,-0.783 -1.82,-0.775 -2.4910003,-2.873 -2.5230003,-4.707 0,-2.078 1.0550003,-4.803 3.4750003,-4.888 v 0 l 0.187,0.007 0.203,0.028 v 3.641 c 0,0.15 0.123,0.271 0.274,0.271 h 9.357 c 0.151,0 0.274,-0.121 0.274,-0.271 V 5.033 c 0,0 0.008,-0.002 0.02,-0.005 0.469,-0.155 0.872,-0.244 0.872,-0.244 0.334,-0.083 0.679,-0.1 1.021,-0.11 1.052,0.027 1.973,0.444 2.474,1.375 0.62,1.152 0.58,2.291 0.044,3.632 -0.089,0.223 -0.508,0.843 -0.724,0.737 -0.216,-0.106 -0.029,-0.621 -0.013,-0.684 0.308,-1.247 0.442,-2.411 -0.053,-3.237 -0.618,-0.992 -1.702,-1.09 -2.75,-0.816 l -0.018,8.713 c 0,0.633 -0.515,1.142 -1.145,1.142 h -4.002 v 3.949 l 0.103,-0.043 c 8.152,-3.511 13.276,-9.804 11.445,-14.056 -1.135,-2.337 -3.089,-3.197 -5.581,-3.325 v 0 c -0.205,10e-4 -0.41,-0.002 -0.615,-0.005 z m -11.852,9.536 c -1.624,0.527 -2.163,2.487 -2.189,4.013 0,2.255 1.196,4.083 2.671,4.083 1.475,0 2.671,-1.828 2.671,-4.083 l -0.002,-0.069 h -2.006 c -0.63,0 -1.145,-0.509 -1.145,-1.142 v -2.801 z m 5.992,0.382 v 0 c -0.056,0.004 -0.113,0.007 -0.169,0.011 0.134,-0.004 0.077,10e-4 0.169,-0.011 z m -0.326,0.002 c 0.02,0.003 0.013,0.003 0.021,0.003 z m 0.614,-0.054 v 0 c -0.091,0.016 -0.181,0.036 -0.272,0.05 0.199,-0.026 0.108,-0.007 0.272,-0.05 z m -0.457,-8.104 c -1.919,0.104 -2.643,2.414 -2.67,4.019 h 2.201 c 0.63,0 1.145,0.509 1.145,1.142 v 2.872 c 0.27,-0.095 0.494,-0.274 0.708,-0.457 0.945,-0.877 1.265,-2.251 1.286,-3.492 0,-2.255 -1.196,-4.083 -2.671,-4.083 v 0 z m 4.679,-2.947 h -9.357 c -0.151,0 -0.274,0.121 -0.274,0.271 v 6.695 h 1.478 c 0.025,-1.557 0.561,-3.463 2.166,-4.484 l 0.043,-0.028 c 1.939,-1.281 3.91,-1.884 6.217,-2.029 V 1.143 c 0,-0.149 -0.122,-0.271 -0.273,-0.271 z"
     id="path4" />
</svg>
