<?xml version="1.0" encoding="UTF-8" standalone="no"?>
<!-- Generated by IcoMoon.io -->

<svg
   version="1.1"
   width="31.875"
   height="31.441999"
   viewBox="0 0 31.875 31.441999"
   id="svg6"
   sodipodi:docname="jmp.svg"
   inkscape:version="1.1.1 (3bf5ae0d25, 2021-09-20)"
   xmlns:inkscape="http://www.inkscape.org/namespaces/inkscape"
   xmlns:sodipodi="http://sodipodi.sourceforge.net/DTD/sodipodi-0.dtd"
   xmlns="http://www.w3.org/2000/svg"
   xmlns:svg="http://www.w3.org/2000/svg">
  <defs
     id="defs10" />
  <sodipodi:namedview
     id="namedview8"
     pagecolor="#ffffff"
     bordercolor="#666666"
     borderopacity="1.0"
     inkscape:pageshadow="2"
     inkscape:pageopacity="0.0"
     inkscape:pagecheckerboard="0"
     showgrid="false"
     inkscape:zoom="25.75"
     inkscape:cx="15.902913"
     inkscape:cy="15.708738"
     inkscape:window-width="1920"
     inkscape:window-height="1009"
     inkscape:window-x="-8"
     inkscape:window-y="-8"
     inkscape:window-maximized="1"
     inkscape:current-layer="svg6" />
  <title
     id="title2">jmp</title>
  <path
     fill="#000000"
     d="m 5.9170003,3.574 -0.311,2.649 -0.01,0.011 -0.175,1.494 0.01,-0.011 -1.409,12.011 L 11.274,20.58 c -0.025,0.33 -0.052,0.66 -0.082,0.989 l -0.133,1.134 c -0.092,0.508 -0.191,1.142 -0.668,1.444 -0.305,0.193 -0.6769997,0.191 -1.0239997,0.169 -3.23,-0.269 -7.451,-4.687 -6.897,-10.276 0.157,-1.59 0.715,-2.825 1.47,-4.202 0.034,-0.117 0.028,-0.066 0.039,-0.173 0,-0.2 -0.162,-0.362 -0.362,-0.362 -0.149,0.004 -0.271,0.085 -0.329,0.221 -1.021,1.978 -1.495,4.169 -1.523,6.386 -0.004,5.577 3.418,10.82 8.5669997,12.998 l -0.214,1.823 C 3.9640003,28.437 0.08200034,22.376 3.3648243e-7,15.909 -9.9966352e-4,11.111 2.2270003,6.602 5.9160003,3.573 Z M 7.4180003,0 5.2140003,18.792 18.379,20.35 c 0,0 0.622,-5.696 0.68,-5.731 0.253,-0.151 1.042,-0.031 1.042,-0.031 l 0.041,0.007 c 0.071,0.012 0.142,0.026 0.212,0.039 2.765,0.598 4.359,4.074 3.561,7.764 -0.798,3.69 -3.686,6.197 -6.451,5.599 -3.087,-0.758 -4.057,-4.322 -3.671,-7.117 l 0.99,0.118 c -0.348,2.266 0.405,5.268 2.917,5.904 2.226,0.482 4.572,-1.63 5.24,-4.715 0.668,-3.085 -0.597,-5.977 -2.823,-6.459 -0.075,-0.014 -0.039,-0.007 -0.108,-0.02 l -0.695,5.832 -1.062,-0.127 v -0.002 l -6.037,-0.72 -1.08,9.205 13.183,1.546 2.204,-18.792 -13.184,-1.546 -0.7,5.965 c -0.082,0.007 -0.164,0.018 -0.246,0.02 -0.321,0.008 -0.643,-0.014 -0.958,-0.081 C 8.6690003,16.41 7.0750003,12.934 7.8730003,9.244 8.5430003,6.39 10.394,3.726 13.545,3.557 c 0.607,0.048 0.349,0.01 0.779,0.088 2.969,0.748 4.093,4.189 3.694,6.946 l 1.5,0.176 1.081,-9.22 L 7.4160003,0.001 Z M 13.461,4.67 c -2.542,0.121 -4.0799997,2.525 -4.6119997,4.784 -0.667,3.086 0.597,5.977 2.8229997,6.459 l 0.199,0.036 0.703,-5.997 4.455,0.523 C 17.342,8.255 16.522,5.349 14.088,4.739 13.741,4.677 13.95,4.707 13.46,4.671 Z m 12.498,23.415 c 3.69,-3.029 5.917,-7.538 5.916,-12.336 C 31.793,9.282 27.911,3.221 21.757,0.927 l -0.214,1.824 c 5.149,2.178 8.571,7.421 8.567,12.998 -0.028,2.217 -0.503,4.408 -1.523,6.386 -0.057,0.136 -0.18,0.217 -0.329,0.221 -0.2,0 -0.362,-0.162 -0.362,-0.362 0.011,-0.108 0.005,-0.056 0.039,-0.173 0.755,-1.377 1.313,-2.612 1.47,-4.202 C 29.959,12.03 25.738,7.612 22.508,7.343 22.161,7.321 21.789,7.319 21.484,7.512 21.008,7.814 20.909,8.448 20.816,8.956 l -0.133,1.134 c -0.029,0.329 -0.056,0.659 -0.081,0.989 v 10e-4 l 7.253,0.851 -1.409,12.012 0.01,-0.011 -0.175,1.494 -0.01,0.011 -0.311,2.649 z"
     id="path4" />
</svg>
