<?xml version="1.0" encoding="UTF-8" standalone="no"?>
<svg
   version="1.1"
   width="33.375"
   height="33.866055"
   viewBox="0 0 33.375 33.866054"
   id="svg4"
   xmlns="http://www.w3.org/2000/svg"
   xmlns:svg="http://www.w3.org/2000/svg">
  <defs>
    <!-- This is the gradient that will actually be used on
     the cards. The colors themselves will be provided by the
     template, but the x values, y values, and offsets will be
     used from the SVG. -->
    <linearGradient id="rarity" x1="0" y1="0" x2="1.152" y2="0.25">
      <stop offset="0" style="stop-color:rgb(192,55,38);stop-opacity:1" id="stop2" />
      <stop offset="0.125" style="stop-color:rgb(192,55,38);stop-opacity:1" id="stop4" />
      <stop offset="0.5" style="stop-color:rgb(241,142,30);stop-opacity:1" id="stop6" />
      <stop offset="0.875" style="stop-color:rgb(192,55,38);stop-opacity:1" id="stop8" />
      <stop offset="1" style="stop-color:rgb(192,55,38);stop-opacity:1" id="stop10" />
    </linearGradient>
    <!-- These gradients are here so that you can visualize
     what the set symbol would like like in that rarity. The
     only gradient that matters in the end is the "rarity"
     gradient. -->
    <linearGradient id="mythic" x1="0" y1="1" x2="1" y2="0">
      <stop offset="0" style="stop-color:rgb(192,55,38);stop-opacity:1"/>
      <stop offset="0.125" style="stop-color:rgb(192,55,38);stop-opacity:1"/>
      <stop offset="0.5" style="stop-color:rgb(241,142,30);stop-opacity:1"/>
      <stop offset="0.875" style="stop-color:rgb(192,55,38);stop-opacity:1"/>
      <stop offset="1" style="stop-color:rgb(192,55,38);stop-opacity:1"/>
    </linearGradient>
    <linearGradient id="rare" x1="0" y1="1" x2="1" y2="0">
      <stop offset="0" style="stop-color:rgb(146,116,67);stop-opacity:1"/>
      <stop offset="0.125" style="stop-color:rgb(146,116,67);stop-opacity:1"/>
      <stop offset="0.5" style="stop-color:rgb(211,178,108);stop-opacity:1"/>
      <stop offset="0.875" style="stop-color:rgb(146,116,67);stop-opacity:1"/>
      <stop offset="1" style="stop-color:rgb(146,116,67);stop-opacity:1"/>
    </linearGradient>
    <linearGradient id="special" x1="0" y1="1" x2="1" y2="0">
      <stop offset="0" style="stop-color:rgb(76, 56, 106);stop-opacity:1"/>
      <stop offset="0.125" style="stop-color:rgb(76, 56, 106);stop-opacity:1"/>
      <stop offset="0.5" style="stop-color:rgb(201, 173, 221);stop-opacity:1"/>
      <stop offset="0.875" style="stop-color:rgb(76, 56, 106);stop-opacity:1"/>
      <stop offset="1" style="stop-color:rgb(76, 56, 106);stop-opacity:1"/>
    </linearGradient>
    <linearGradient id="uncommon" x1="0" y1="1" x2="1" y2="0">
      <stop offset="0" style="stop-color:rgb(98,110,119);stop-opacity:1"/>
      <stop offset="0.125" style="stop-color:rgb(98,110,119);stop-opacity:1"/>
      <stop offset="0.5" style="stop-color:rgb(196,222,238);stop-opacity:1"/>
      <stop offset="0.875" style="stop-color:rgb(98,110,119);stop-opacity:1"/>
      <stop offset="1" style="stop-color:rgb(98,110,119);stop-opacity:1"/>
    </linearGradient>
    <linearGradient id="common" x1="0" y1="1" x2="1" y2="0">
      <stop offset="0" style="stop-color:rgb(0,0,0);stop-opacity:1"/>
    </linearGradient>
    <linearGradient
            id="rarity-outline" x1="0" y1="1" x2="0" y2="1">
      <stop offset="0" style="stop-color:rgb(0,0,0);stop-opacity:1"/>
    </linearGradient>
  </defs>
  <ellipse fill="url(#rarity-outline)"
     cx="16.6875"
     cy="16.933027"
     rx="16.281399"
     ry="16.933027" />
  <path fill="url(#rarity-outline)" d="M 7.5097656,0.37890625 7.4238281,1.125 7.15625,3.4121094 6.1894531,4.2050781 C 2.332798,7.371738 -0.00104841,12.090821 0,17.121094 v 0.0039 0.0059 c 0.08572937,6.76112 4.143069,13.106664 10.605469,15.515625 l 0.896484,0.333985 0.134766,-1.146485 14.08789,1.652344 0.3125,-2.667969 1.148438,-0.941406 C 31.043294,26.710255 33.376048,21.991106 33.375,16.960937 v -0.0039 -0.0059 C 33.289271,10.190052 29.231931,3.8445078 22.769531,1.4355469 L 21.873047,1.1015625 21.761719,2.0527344 21.4375,2.0136719 C 17.045381,1.4970571 8.2558594,0.46679687 8.2558594,0.46679688 Z M 8.8242188,2.0449219 c 0.8429628,0.098832 7.3924202,0.8657546 11.6914062,1.3710937 l -0.904297,7.7304684 -0.09766,-0.0098 C 19.582635,9.83208 19.428238,8.4754846 18.865234,7.2617187 18.191311,5.8088242 16.984764,4.5639887 15.257813,4.1289062 l -0.02539,-0.00586 -0.02539,-0.00391 c -0.420252,-0.076232 -0.260877,-0.050792 -0.853515,-0.097656 l -0.04883,-0.00391 -0.05078,0.00195 C 12.4758,4.1148872 11.01947,4.9393102 9.9707051,6.1035046 8.9219405,7.2676991 8.2508344,8.7590887 7.8925801,10.285145 l -0.00195,0.0059 v 0.0059 c -0.4310911,1.993391 -0.2265518,3.942269 0.4941406,5.513672 0.7206924,1.571403 1.9937743,2.786405 3.6406253,3.142578 h 0.002 c 0.384053,0.08169 0.765088,0.106821 1.132812,0.09766 0.136829,-0.0033 0.233142,-0.0185 0.291016,-0.02344 l 0.611328,-0.05078 0.683594,-5.828124 11.693359,1.371093 -0.990234,8.449219 c 0.222931,-1.703512 0.07486,-3.357259 -0.546875,-4.712891 -0.720693,-1.571403 -1.993774,-2.786405 -3.640625,-3.142578 l -0.0098,-0.002 -0.01172,-0.002 c -0.06447,-0.01197 -0.138154,-0.02673 -0.222656,-0.04102 l -0.04687,-0.0078 -0.0078,-0.002 c 0,0 -0.228644,-0.03554 -0.501954,-0.04883 -0.273309,-0.01329 -0.540914,-0.118414 -1.037109,0.177734 l -0.002,0.002 c -2.27e-4,1.37e-4 -0.202881,0.177426 -0.203125,0.177735 -2.44e-4,3.08e-4 -0.05554,0.08024 -0.07031,0.107421 -0.02955,0.05436 -0.04023,0.08355 -0.04883,0.107422 -0.0172,0.04775 -0.02041,0.07135 -0.02539,0.0918 -0.01,0.04089 -0.01614,0.06559 -0.02148,0.0957 -0.01069,0.06024 -0.01934,0.128918 -0.03125,0.212891 -0.02381,0.167946 -0.05437,0.396226 -0.08789,0.667969 -0.06703,0.543486 -0.150915,1.259263 -0.232422,1.974609 -0.120085,1.053928 -0.181567,1.623093 -0.234375,2.103516 L 6.796875,19.347656 Z m 14.2968752,1.296875 c 5.292898,2.4248149 8.678535,7.7952121 8.753906,13.6250001 -7.39e-4,3.852409 -1.577198,7.459732 -4.166016,10.246094 l 0.408203,-3.482422 c 0.195479,0.327697 0.488631,0.58789 0.890625,0.58789 h 0.0098 0.0098 c 0.406153,-0.0109 0.826659,-0.287971 0.99414,-0.675781 1.063301,-2.081788 1.558835,-4.371252 1.587891,-6.671875 v -0.0039 -0.0059 C 31.613451,11.277866 28.219208,6.0135833 23.091797,3.5839844 Z M 21.888672,4.6074219 22,4.6542969 c 2.959977,1.2520548 5.202706,3.6469278 6.597656,6.4726561 C 27.119363,9.2365934 25.199164,7.9631146 23.320312,7.8066406 h -0.0078 -0.0078 C 22.926797,7.7826806 22.371888,7.7482456 21.832056,8.0898438 21.610014,8.230719 21.54748,8.4330442 21.417994,8.6132813 Z m -7.667969,2.03125 c 0.268194,0.016753 0.226496,0.00595 0.449219,0.046875 0.954523,0.2450182 1.579573,0.9069501 1.980469,1.828125 0.304911,0.7006241 0.300942,1.5317551 0.292968,2.3203121 l -4.277343,-0.501953 -0.671875,5.748047 c -0.559818,-0.30452 -1.055879,-0.764339 -1.38086,-1.507812 -0.437751,-1.001463 -0.582141,-2.344258 -0.28125,-3.742188 0.243276,-1.0276913 0.721988,-2.0918864 1.388672,-2.8710936 0.662412,-0.7742144 1.471077,-1.2630535 2.5,-1.3203125 z M 5.6679687,6.8691406 5.2578125,10.351563 C 5.0623345,10.023865 4.769182,9.765625 4.3671875,9.765625 h -0.00977 -0.00977 C 3.9414265,9.7765305 3.5230056,10.054151 3.3554688,10.435547 2.2890279,12.51911 1.7947041,14.81084 1.765625,17.113281 v 0.0039 0.0039 c -0.00408,5.683024 3.3902394,10.947326 8.517578,13.376953 l -0.0293,0.242187 C 4.9610083,28.31542 1.575371,22.945022 1.5,17.115234 1.5007393,13.262739 3.0792647,9.6555985 5.6679687,6.8691406 Z M 23.199219,9.3046875 c 1.303099,0.1101919 3.041543,1.1453045 4.328125,2.8457035 0.02579,0.03408 0.03511,0.08457 0.06055,0.11914 l -5.429688,-0.638672 c 0.0068,-0.08061 0.01246,-0.16169 0.01953,-0.242187 v -0.0059 c 4.59e-4,-0.0052 0.0015,-0.01041 0.002,-0.01563 l 0.125,-1.064454 v -0.002 c 0.09584,-0.5223806 0.217465,-0.8706717 0.332032,-0.9433591 0.06928,-0.043247 0.259017,-0.070314 0.5625,-0.052734 z M 5.0644531,12.003906 4.2910156,18.595703 C 4.0198946,17.573348 3.8514335,16.490009 3.9667969,15.326172 4.0882132,14.096542 4.5050828,13.093183 5.0644531,12.003906 Z m 24.0195309,3.492188 c 0.269711,1.020342 0.439309,2.100635 0.324219,3.261718 -0.121338,1.228839 -0.538883,2.229918 -1.097656,3.31836 z m -7.701172,2.535156 c 0.521103,0.312093 0.984854,0.7581 1.292969,1.462891 0.438498,1.003031 0.584269,2.346674 0.28125,3.746093 -0.30306,1.399611 -0.990948,2.564553 -1.804687,3.296875 -0.809415,0.728431 -1.694895,1.019282 -2.529297,0.84375 C 17.630019,27.124557 17.005631,26.440397 16.613281,25.488281 16.311093,24.75496 16.327426,23.884784 16.353516,23.0625 l 1.898437,0.226562 v 0.002 l 2.46875,0.294921 z m -15.5957026,3.783203 5.4296876,0.638672 c -0.0075,0.08653 -0.01362,0.173481 -0.02148,0.259766 l -0.125,1.070312 c -0.09461,0.521224 -0.214491,0.868225 -0.330079,0.941406 -0.06922,0.0438 -0.259884,0.07314 -0.568359,0.05469 -1.3027584,-0.111561 -3.0386483,-1.148594 -4.3242188,-2.847656 -0.025467,-0.03366 -0.035428,-0.08305 -0.060547,-0.117188 z m 7.8339846,0.921875 0.169922,0.02148 c -0.07566,1.318736 0.05402,2.703943 0.597656,3.955079 0.648514,1.492519 1.856289,2.785034 3.646484,3.224609 l 0.0098,0.002 0.0098,0.002 c 1.646881,0.356179 3.307657,-0.224175 4.613282,-1.357422 1.265952,-1.098812 2.217111,-2.733787 2.667968,-4.648437 l -0.92585,7.886629 -11.691406,-1.371094 z m -8.8417971,0.220703 c 1.4781756,1.889697 3.3969308,3.161918 5.2753911,3.31836 h 0.0078 l 0.0078,0.002 c 0.377915,0.02396 0.932824,0.05644 1.472656,-0.285157 0.117944,-0.07467 0.130737,-0.189521 0.220703,-0.277343 l -0.433594,3.6875 C 8.3936429,28.145544 6.1666277,25.766378 4.7792969,22.957031 Z"/>
  <path fill="url(#rarity)" d="m 4.7720003,20.940028 7.2519997,0.852 c -0.025,0.33 -0.052,0.66 -0.082,0.989 l -0.133,1.134 c -0.092,0.508 -0.191,1.142 -0.668,1.444 -0.305,0.193 -0.677,0.191 -1.024,0.169 -3.2299997,-0.269 -7.4509997,-4.687 -6.8969997,-10.276 0.157,-1.59 0.715,-2.825 1.47,-4.202 0.034,-0.117 0.028,-0.066 0.039,-0.173 0,-0.2 -0.162,-0.362 -0.362,-0.362 -0.149,0.004 -0.271,0.085 -0.329,0.221 -1.021,1.978 -1.495,4.169 -1.523,6.386 -0.004,5.577 3.418,10.82 8.5669997,12.998 l -0.214,1.823 c -6.1539997,-2.294 -10.03599966,-8.355 -10.11799966,-14.822 -0.001,-4.798 2.22699996,-9.3070005 5.91599996,-12.3360005 z m 3.396,-19.7280005 -2.204,18.7920005 13.1649997,1.558 c 0,0 0.622,-5.696 0.68,-5.731 0.253,-0.151 1.042,-0.031 1.042,-0.031 l 0.041,0.007 c 0.071,0.012 0.142,0.026 0.212,0.039 2.765,0.598 4.359,4.074 3.561,7.764 -0.798,3.69 -3.686,6.197 -6.451,5.599 -3.087,-0.758 -4.057,-4.322 -3.671,-7.117 l 0.99,0.118 c -0.348,2.266 0.405,5.268 2.917,5.904 2.226,0.482 4.572,-1.63 5.24,-4.715 0.668,-3.085 -0.597,-5.977 -2.823,-6.459 -0.075,-0.014 -0.039,-0.007 -0.108,-0.02 l -0.695,5.832 -1.062,-0.127 v -0.002 l -6.037,-0.72 -1.08,9.205 13.183,1.546 2.204,-18.792 -13.184,-1.546 -0.7,5.965 c -0.082,0.007 -0.164,0.018 -0.246,0.02 -0.321,0.008 -0.643,-0.014 -0.958,-0.081 -2.7649997,-0.598 -4.3589997,-4.074 -3.5609997,-7.764 0.67,-2.8540005 2.5209997,-5.5180005 5.6719997,-5.6870005 0.607,0.048 0.349,0.01 0.779,0.088 2.969,0.748 4.093,4.189 3.694,6.9460005 l 1.5,0.176 1.081,-9.2200005 c -4.391745,-0.5165708 -13.1809997,-1.547 -13.1809997,-1.547 z m 6.0429997,4.67 c -2.542,0.121 -4.08,2.525 -4.6119997,4.7840005 -0.667,3.086 0.5969997,5.977 2.8229997,6.459 l 0.199,0.036 0.703,-5.997 4.455,0.523 c 0.313,-2.2200005 -0.507,-5.1260005 -2.941,-5.7360005 -0.347,-0.062 -0.138,-0.032 -0.628,-0.068 z M 26.709,29.297028 c 3.69,-3.029 5.917,-7.538 5.916,-12.336 -0.082,-6.467 -3.964,-12.5280005 -10.118,-14.8220005 l -0.214,1.824 c 5.149,2.178 8.571,7.4210005 8.567,12.9980005 -0.028,2.217 -0.503,4.408 -1.523,6.386 -0.057,0.136 -0.18,0.217 -0.329,0.221 -0.2,0 -0.362,-0.162 -0.362,-0.362 0.011,-0.108 0.005,-0.056 0.039,-0.173 0.755,-1.377 1.313,-2.612 1.47,-4.202 0.554,-5.589 -3.667,-10.0070005 -6.897,-10.2760005 -0.347,-0.022 -0.719,-0.024 -1.024,0.169 -0.476,0.302 -0.575,0.936 -0.668,1.4440005 l -0.133,1.134 c -0.029,0.329 -0.056,0.659 -0.081,0.989 v 10e-4 l 7.253,0.851 z"/>
</svg>
