<?xml version="1.0" encoding="UTF-8" standalone="no"?>
<svg
   version="1.1"
   width="27.662695"
   height="25.991499"
   viewBox="0 0 27.662695 25.991499"
   id="svg4"
   xmlns="http://www.w3.org/2000/svg"
   xmlns:svg="http://www.w3.org/2000/svg">
  <defs>
    <!-- This is the gradient that will actually be used on
     the cards. The colors themselves will be provided by the
     template, but the x values, y values, and offsets will be
     used from the SVG. -->
    <linearGradient id="rarity" x1="0" y1="1" x2="1" y2="0">
      <stop offset="0" style="stop-color:rgb(192,55,38);stop-opacity:1" id="stop2" />
      <stop offset="0.125" style="stop-color:rgb(192,55,38);stop-opacity:1" id="stop4" />
      <stop offset="0.5" style="stop-color:rgb(241,142,30);stop-opacity:1" id="stop6" />
      <stop offset="0.875" style="stop-color:rgb(192,55,38);stop-opacity:1" id="stop8" />
      <stop offset="1" style="stop-color:rgb(192,55,38);stop-opacity:1" id="stop10" />
    </linearGradient>
    <!-- These gradients are here so that you can visualize
     what the set symbol would like like in that rarity. The
     only gradient that matters in the end is the "rarity"
     gradient. -->
    <linearGradient id="mythic" x1="0" y1="1" x2="1" y2="0">
      <stop offset="0" style="stop-color:rgb(192,55,38);stop-opacity:1"/>
      <stop offset="0.125" style="stop-color:rgb(192,55,38);stop-opacity:1"/>
      <stop offset="0.5" style="stop-color:rgb(241,142,30);stop-opacity:1"/>
      <stop offset="0.875" style="stop-color:rgb(192,55,38);stop-opacity:1"/>
      <stop offset="1" style="stop-color:rgb(192,55,38);stop-opacity:1"/>
    </linearGradient>
    <linearGradient id="rare" x1="0" y1="1" x2="1" y2="0">
      <stop offset="0" style="stop-color:rgb(146,116,67);stop-opacity:1"/>
      <stop offset="0.125" style="stop-color:rgb(146,116,67);stop-opacity:1"/>
      <stop offset="0.5" style="stop-color:rgb(211,178,108);stop-opacity:1"/>
      <stop offset="0.875" style="stop-color:rgb(146,116,67);stop-opacity:1"/>
      <stop offset="1" style="stop-color:rgb(146,116,67);stop-opacity:1"/>
    </linearGradient>
    <linearGradient id="special" x1="0" y1="1" x2="1" y2="0">
      <stop offset="0" style="stop-color:rgb(76, 56, 106);stop-opacity:1"/>
      <stop offset="0.125" style="stop-color:rgb(76, 56, 106);stop-opacity:1"/>
      <stop offset="0.5" style="stop-color:rgb(201, 173, 221);stop-opacity:1"/>
      <stop offset="0.875" style="stop-color:rgb(76, 56, 106);stop-opacity:1"/>
      <stop offset="1" style="stop-color:rgb(76, 56, 106);stop-opacity:1"/>
    </linearGradient>
    <linearGradient id="uncommon" x1="0" y1="1" x2="1" y2="0">
      <stop offset="0" style="stop-color:rgb(98,110,119);stop-opacity:1"/>
      <stop offset="0.125" style="stop-color:rgb(98,110,119);stop-opacity:1"/>
      <stop offset="0.5" style="stop-color:rgb(196,222,238);stop-opacity:1"/>
      <stop offset="0.875" style="stop-color:rgb(98,110,119);stop-opacity:1"/>
      <stop offset="1" style="stop-color:rgb(98,110,119);stop-opacity:1"/>
    </linearGradient>
    <linearGradient id="common" x1="0" y1="1" x2="1" y2="0">
      <stop offset="0" style="stop-color:rgb(0,0,0);stop-opacity:1"/>
    </linearGradient>
    <linearGradient
            id="rarity-outline" x1="0" y1="1" x2="0" y2="1">
      <stop offset="0" style="stop-color:rgb(0,0,0);stop-opacity:1"/>
    </linearGradient>
  </defs>
  <path fill="url(#rarity)" d="M 9.4199005,0.50284596 C 10.146428,1.6820003 10.874422,2.8602712 11.6019,4.038846 v 12.686 c -2.3449995,-1.022 -3.4089995,-2.11 -3.8069995,-3.259 -0.401,-1.155 -0.132,-2.376 0.191,-3.656 0.323,-1.28 0.7,-2.619 0.505,-4.007 -0.194,-1.388 -0.962,-2.822 -2.918,-4.29 l -0.032,-0.025 -0.003,0.04 c -0.257,3.202 -0.841,5.811 -2.014,7.334 l -2.442,-3.45 -0.01,0.052 c -1.48799999,7.706 0.052,12.951 3.032,16.135 2.531,2.704 6.0989995,3.918 9.7269995,3.892 3.628,0.026 7.196,-1.188 9.728,-3.892 2.98,-3.183 4.521,-8.429 3.032,-16.135 l -0.01,-0.052 -0.031,0.043 -2.411,3.406 c -1.173,-1.523 -1.757,-4.131 -2.014,-7.334 l -0.003,-0.04 -0.032,0.025 c -1.956,1.469 -2.724,2.903 -2.918,4.29 -0.194,1.387 0.183,2.727 0.505,4.006 0.322,1.279 0.591,2.501 0.191,3.656 -0.399,1.149 -1.463,2.237 -3.807,3.259 v -12.686 l 2.181,-3.53600004 c -2.939783,0.002493 -5.885754,-0.004401 -8.8219995,0.002 z"/>
  <path fill="url(#rarity-outline)" d="m 18.241445,8.4596027e-4 c -2.938715,0.002492 -5.884512,-0.004451 -8.8222658,0.001953 L 8.5266011,0.00475196 8.993398,0.76451759 C 9.6953099,1.9037213 10.400183,3.0423502 11.102773,4.1805335 V 15.850455 C 9.4593495,14.997658 8.5589763,14.145019 8.2668354,13.301627 7.9243685,12.31522 8.1493037,11.203201 8.4699604,9.9324866 8.7906172,8.6617724 9.1991009,7.25306 8.9855855,5.7332679 8.7730794,4.212864 7.9030758,2.6362911 5.8723042,1.1121741 L 5.1125386,0.51842409 5.0402729,1.4910803 C 4.8168732,4.2704759 4.2626165,6.422707 3.430898,7.8660804 L 0.81175731,4.1649085 0.58128855,5.3699866 c -1.50818177,7.8105164 0.0497348,13.2490494 3.15820315,16.5703124 2.6401832,2.820646 6.3538263,4.077597 10.0957033,4.050781 3.739229,0.02501 7.448585,-1.232186 10.08789,-4.050781 3.108272,-3.32001 4.666731,-8.760845 3.158203,-16.5703124 v -0.00195 L 26.852773,4.1785804 26.143788,5.1649085 24.231679,7.8660804 C 23.399224,6.4225548 22.847648,4.2712687 22.624257,1.4891272 v -0.00195 L 22.550038,0.51647096 21.790273,1.1121741 c -2.030683,1.5250882 -2.900754,3.1016337 -3.113282,4.6210938 -0.212429,1.5187597 0.195998,2.9276887 0.515625,4.1972656 0.319688,1.2698125 0.544751,2.3826955 0.203125,3.3691405 -0.292827,0.843255 -1.193002,1.694529 -2.833984,2.546875 V 4.1785804 L 19.137929,8.4596027e-4 Z M 17.346913,1.000846 15.561757,3.8953773 V 17.487174 l 0.699219,-0.306641 c 2.412356,-1.051803 3.622803,-2.235921 4.080078,-3.552734 0.458373,-1.323553 0.144625,-2.653222 -0.179688,-3.9414061 -0.324371,-1.2884206 -0.66971,-2.5592157 -0.49414,-3.8144532 0.14849,-1.0616251 0.81712,-2.1681358 2.107422,-3.3339843 0.295719,2.767358 0.819381,5.1365885 1.96875,6.6289062 l 0.412109,0.5351563 2.076172,-2.9335938 C 27.295,13.654602 25.881243,18.387014 23.19457,21.256705 20.77172,23.84414 17.349311,25.016264 13.835195,24.99108 h -0.0039 -0.0039 C 10.313267,25.016264 6.8898191,23.844054 4.4680073,21.256705 1.7817843,18.386593 0.37145498,13.656243 1.4328511,6.7723304 L 3.5070698,9.703971 3.9191792,9.1668616 C 5.0686677,7.6743885 5.5922342,5.3049695 5.8879292,2.5379554 7.1789846,3.7035411 7.8468008,4.8091162 7.9953511,5.8719397 8.1718352,7.1281449 7.826553,8.3990627 7.5012104,9.688346 7.1758679,10.977629 6.8639438,12.306162 7.3234761,13.629752 h -0.00195 c 0.4562558,1.317181 1.6667161,2.500941 4.0800779,3.552735 l 0.701172,0.30664 V 3.8973304 l -0.07618,-0.1210938 c -0.57073,-0.9246298 -1.140709,-1.8488999 -1.710937,-2.7734375 2.341117,-0.003137 4.686246,-0.0013 7.031249,-0.00195 z"/>
</svg>
