<?xml version="1.0" encoding="UTF-8" standalone="no"?>
<!-- Generated by IcoMoon.io -->

<svg
   version="1.1"
   width="26.668621"
   height="24.990408"
   viewBox="0 0 26.668621 24.990408"
   id="svg6"
   sodipodi:docname="jou.svg"
   inkscape:version="1.1.1 (3bf5ae0d25, 2021-09-20)"
   xmlns:inkscape="http://www.inkscape.org/namespaces/inkscape"
   xmlns:sodipodi="http://sodipodi.sourceforge.net/DTD/sodipodi-0.dtd"
   xmlns="http://www.w3.org/2000/svg"
   xmlns:svg="http://www.w3.org/2000/svg">
  <defs
     id="defs10" />
  <sodipodi:namedview
     id="namedview8"
     pagecolor="#ffffff"
     bordercolor="#666666"
     borderopacity="1.0"
     inkscape:pageshadow="2"
     inkscape:pageopacity="0.0"
     inkscape:pagecheckerboard="0"
     showgrid="false"
     inkscape:zoom="25.75"
     inkscape:cx="13.456311"
     inkscape:cy="12.485437"
     inkscape:window-width="1920"
     inkscape:window-height="1009"
     inkscape:window-x="-8"
     inkscape:window-y="-8"
     inkscape:window-maximized="1"
     inkscape:current-layer="svg6" />
  <title
     id="title2">jou</title>
  <path
     fill="#000000"
     d="m 8.9225963,0.002 0.021,0.035 2.1609997,3.501 v 12.686 c -2.3449997,-1.022 -3.4089997,-2.11 -3.8069997,-3.259 -0.401,-1.155 -0.132,-2.376 0.191,-3.656 0.323,-1.28 0.7,-2.619 0.505,-4.007 -0.194,-1.388 -0.962,-2.822 -2.918,-4.29 l -0.032,-0.025 -0.003,0.04 c -0.257,3.202 -0.841,5.811 -2.014,7.334 l -2.44199997,-3.45 -0.01,0.052 c -1.488,7.706 0.052,12.951 3.03199997,16.135 2.531,2.704 6.099,3.918 9.7269997,3.892 3.628,0.026 7.196,-1.188 9.728,-3.892 2.98,-3.183 4.521,-8.429 3.032,-16.135 l -0.01,-0.052 -0.031,0.043 -2.411,3.406 c -1.173,-1.523 -1.757,-4.131 -2.014,-7.334 l -0.003,-0.04 -0.032,0.025 c -1.956,1.469 -2.724,2.903 -2.918,4.29 -0.194,1.387 0.183,2.727 0.505,4.006 0.322,1.279 0.591,2.501 0.191,3.656 -0.399,1.149 -1.463,2.237 -3.807,3.259 V 3.536 L 17.744596,0 H 8.9225963 Z"
     id="path4" />
</svg>
