<?xml version="1.0" encoding="UTF-8" standalone="no"?>
<svg
   version="1.1"
   width="31.050781"
   height="26.703125"
   viewBox="0 0 31.050781 26.703125"
   id="svg4"
   xmlns="http://www.w3.org/2000/svg"
   xmlns:svg="http://www.w3.org/2000/svg">
  <defs>
    <!-- This is the gradient that will actually be used on
     the cards. The colors themselves will be provided by the
     template, but the x values, y values, and offsets will be
     used from the SVG. -->
    <radialGradient id="rarity">
      <stop offset="0" style="stop-color:rgb(192,55,38);stop-opacity:1" id="stop2" />
      <stop offset="0" style="stop-color:rgb(192,55,38);stop-opacity:1" id="stop4" />
      <stop offset="0" style="stop-color:rgb(241,142,30);stop-opacity:1" id="stop6" />
      <stop offset="0.9" style="stop-color:rgb(192,55,38);stop-opacity:1" id="stop8" />
      <stop offset="1" style="stop-color:rgb(192,55,38);stop-opacity:1" id="stop10" />
    </radialGradient>
    <!-- These gradients are here so that you can visualize
     what the set symbol would like like in that rarity. The
     only gradient that matters in the end is the "rarity"
     gradient. -->
    <linearGradient id="mythic" x1="0" y1="1" x2="1" y2="0">
      <stop offset="0" style="stop-color:rgb(192,55,38);stop-opacity:1"/>
      <stop offset="0.125" style="stop-color:rgb(192,55,38);stop-opacity:1"/>
      <stop offset="0.5" style="stop-color:rgb(241,142,30);stop-opacity:1"/>
      <stop offset="0.875" style="stop-color:rgb(192,55,38);stop-opacity:1"/>
      <stop offset="1" style="stop-color:rgb(192,55,38);stop-opacity:1"/>
    </linearGradient>
    <linearGradient id="rare" x1="0" y1="1" x2="1" y2="0">
      <stop offset="0" style="stop-color:rgb(146,116,67);stop-opacity:1"/>
      <stop offset="0.125" style="stop-color:rgb(146,116,67);stop-opacity:1"/>
      <stop offset="0.5" style="stop-color:rgb(211,178,108);stop-opacity:1"/>
      <stop offset="0.875" style="stop-color:rgb(146,116,67);stop-opacity:1"/>
      <stop offset="1" style="stop-color:rgb(146,116,67);stop-opacity:1"/>
    </linearGradient>
    <linearGradient id="special" x1="0" y1="1" x2="1" y2="0">
      <stop offset="0" style="stop-color:rgb(76, 56, 106);stop-opacity:1"/>
      <stop offset="0.125" style="stop-color:rgb(76, 56, 106);stop-opacity:1"/>
      <stop offset="0.5" style="stop-color:rgb(201, 173, 221);stop-opacity:1"/>
      <stop offset="0.875" style="stop-color:rgb(76, 56, 106);stop-opacity:1"/>
      <stop offset="1" style="stop-color:rgb(76, 56, 106);stop-opacity:1"/>
    </linearGradient>
    <linearGradient id="uncommon" x1="0" y1="1" x2="1" y2="0">
      <stop offset="0" style="stop-color:rgb(98,110,119);stop-opacity:1"/>
      <stop offset="0.125" style="stop-color:rgb(98,110,119);stop-opacity:1"/>
      <stop offset="0.5" style="stop-color:rgb(196,222,238);stop-opacity:1"/>
      <stop offset="0.875" style="stop-color:rgb(98,110,119);stop-opacity:1"/>
      <stop offset="1" style="stop-color:rgb(98,110,119);stop-opacity:1"/>
    </linearGradient>
    <linearGradient id="common" x1="0" y1="1" x2="1" y2="0">
      <stop offset="0" style="stop-color:rgb(0,0,0);stop-opacity:1"/>
    </linearGradient>
    <linearGradient
            id="rarity-outline" x1="0" y1="1" x2="0" y2="1">
      <stop offset="0" style="stop-color:rgb(0,0,0);stop-opacity:1"/>
    </linearGradient>
  </defs>
  <path fill="url(#rarity-outline)" d="m 15.117188,0 -2.382813,3.3925782 v 0.9101562 c -0.659939,0.1305561 -1.76019,0.3346012 -2.8535156,0.6386719 l -0.00195,0.00195 C 9.2071393,5.1312934 8.4606322,4.8540694 8.0996094,4.7421876 8.0588352,4.5738458 8.1110927,4.5647872 8.0214844,4.3769532 7.7072647,3.7182965 6.843942,3.0000001 5.6835938,3 4.5169002,3 3.6524902,3.7351961 3.3417969,4.4003907 c -0.3106933,0.6651945 -0.2675782,1.2475 -0.2675781,1.25 0,0.4806175 0.1852528,0.8128039 0.359375,1.1113281 L 0.33398438,12.701172 v 0.002 c 0,0 -0.0761148,0.143521 -0.15039063,0.326172 C 0.10931792,13.211901 0,13.397096 0,13.824219 c 0,0.318352 0.0642027,0.439968 0.13085938,0.617188 0.0666567,0.177217 0.15444206,0.363616 0.26757812,0.564453 0.22627213,0.401672 0.55318858,0.860839 1.0058594,1.308593 0.9053416,0.895509 2.3517164,1.736328 4.2792969,1.736328 1.4256358,0 2.4650707,-0.521751 3.328125,-1.128906 l 1.5664062,3.769532 h 1.425781 V 22.0625 H 9.8789062 L 7.6933594,26.703125 H 22.404297 L 20.474609,22.0625 h -2.375 v -1.371093 h 1.648438 l 0.148437,-0.361329 c 0.0696,0.165842 0.07922,0.375102 0.1875,0.56836 0.229978,0.410448 0.563393,0.871781 1.023438,1.316406 0.920089,0.88925 2.38222,1.701172 4.333984,1.701172 3.976018,0 5.535157,-3.705078 5.535156,-3.705078 l 0.07422,-0.179688 v -0.195312 c 0,-0.644522 -0.279297,-1.154297 -0.279297,-1.154297 l -3.148437,-5.972656 c 0.208692,-0.339541 0.425781,-0.743461 0.425781,-1.300782 0,-1.350739 -1.100127,-2.5410154 -2.533203,-2.5410154 -0.779463,0 -1.331795,0.3476648 -1.710937,0.6953124 C 23.325583,9.2923182 22.681605,8.8552756 21.972656,7.9863282 21.219351,7.0644148 20.239789,6.2664552 19.291016,5.6660157 18.691653,5.2867042 18.144245,5.0184914 17.587891,4.8339844 V 3.4609376 Z M 9.234375,9.1503907 c 0.6142779,0.056922 0.838423,0.1388957 1.482422,0.1015625 0.656777,-0.037455 1.123757,0.1117844 1.605469,0.2207031 l -0.341797,6.5781247 h -1.875 c 0.707402,-0.779843 1.183593,-1.580078 1.183593,-1.580078 l 0.0957,-0.203125 v -0.222656 c 0,-0.386628 -0.05495,-0.699739 -0.119141,-0.929687 -0.06419,-0.229949 -0.171875,-0.4375 -0.171875,-0.4375 z m 8.660156,1.7812503 c 0.183131,0.0553 0.345271,0.05809 0.558594,0.228515 0.8595,0.690408 2.225567,1.649438 4.197266,2.310547 l -1.429688,2.726563 h -2.904297 z" />
  <path fill="url(#rarity)" d="m 25.369,12.835469 -3.072,6.232 h 6.074 z M 5.684,7.0074688 2.613,13.239469 h 6.072 l -3,-6.2320002 z m 15.295,11.8020002 3.074,-5.863 c -2.635,-0.514 -3.879,-1.687 -4.976,-2.568 C 17.978,9.5004688 16.805,9.8664688 16.805,9.8664688 l 0.588,7.3300002 h 2.709 l -1.025,2.494 h -1.978 v 3.372 h 2.709 l 1.097,2.64 H 9.27 l 1.244,-2.64 h 2.489 v -3.372 h -1.758 l -1.097,-2.64 h 2.781 l 0.439,-8.4310002 c 0,0 -1.464,-0.437 -2.709,-0.366 -1.242,0.072 -3.145,-0.22 -3.145,-0.22 l 2.706,5.1310002 c 0,0 0.164,0.294 0.164,0.881 0,0 -1.409,3.005 -4.7,3.005 -3.291,0 -4.684,-2.785 -4.684,-3.226 0,-0.238 0.22,-0.66 0.22,-0.66 L 4.588,6.7124688 c 0,0 -0.514,-0.42 -0.514,-1.062 0,-0.005 -0.071,-1.65 1.61,-1.65 1.681,0 1.61,1.613 1.61,1.613 0,0 1.536,0.661 2.855,0.292 1.316,-0.366 3.585,-0.803 3.585,-0.803 v -1.393 l 1.39,-1.979 1.464,2.05 v 1.833 c 0.951,0 3.292,1.393 4.61,3.006 1.316,1.6130002 2.854,2.2000002 2.854,2.2000002 0,0 0.585,-0.9530002 1.464,-0.9530002 0.876,0 1.533,0.7320002 1.533,1.5420002 0,0.803 -0.585,1.244 -0.585,1.244 l 3.44,6.526 c 0,0 0.146,0.255 0.146,0.658 0,0 -1.242,3.08 -4.608,3.08 -3.366,0 -4.756,-2.714 -4.756,-3.226 0,-0.348 0.292,-0.881 0.292,-0.881 z"/>
</svg>
