<?xml version="1.0" encoding="UTF-8" standalone="no"?>
<!-- Generated by IcoMoon.io -->

<svg
   version="1.1"
   width="29.049999"
   height="23.972"
   viewBox="0 0 29.049999 23.972"
   id="svg6"
   sodipodi:docname="jud.svg"
   inkscape:version="1.1.1 (3bf5ae0d25, 2021-09-20)"
   xmlns:inkscape="http://www.inkscape.org/namespaces/inkscape"
   xmlns:sodipodi="http://sodipodi.sourceforge.net/DTD/sodipodi-0.dtd"
   xmlns="http://www.w3.org/2000/svg"
   xmlns:svg="http://www.w3.org/2000/svg">
  <defs
     id="defs10" />
  <sodipodi:namedview
     id="namedview8"
     pagecolor="#ffffff"
     bordercolor="#666666"
     borderopacity="1.0"
     inkscape:pageshadow="2"
     inkscape:pageopacity="0.0"
     inkscape:pagecheckerboard="0"
     showgrid="false"
     inkscape:zoom="25.75"
     inkscape:cx="14.504854"
     inkscape:cy="11.980583"
     inkscape:window-width="1920"
     inkscape:window-height="1009"
     inkscape:window-x="-8"
     inkscape:window-y="-8"
     inkscape:window-maximized="1"
     inkscape:current-layer="svg6" />
  <title
     id="title2">jud</title>
  <path
     fill="#000000"
     d="m 24.369,11.105 -3.072,6.232 h 6.074 z M 4.684,5.277 1.613,11.509 h 6.072 l -3,-6.232 z m 15.295,11.802 3.074,-5.863 C 20.418,10.702 19.174,9.529 18.077,8.648 16.978,7.77 15.805,8.136 15.805,8.136 l 0.588,7.33 h 2.709 l -1.025,2.494 h -1.978 v 3.372 h 2.709 l 1.097,2.64 H 8.27 l 1.244,-2.64 h 2.489 V 17.96 H 10.245 L 9.148,15.32 h 2.781 l 0.439,-8.431 c 0,0 -1.464,-0.437 -2.709,-0.366 C 8.417,6.595 6.514,6.303 6.514,6.303 l 2.706,5.131 c 0,0 0.164,0.294 0.164,0.881 0,0 -1.409,3.005 -4.7,3.005 C 1.393,15.32 0,12.535 0,12.094 0,11.856 0.22,11.434 0.22,11.434 L 3.588,4.982 c 0,0 -0.514,-0.42 -0.514,-1.062 0,-0.005 -0.071,-1.65 1.61,-1.65 1.681,0 1.61,1.613 1.61,1.613 0,0 1.536,0.661 2.855,0.292 1.316,-0.366 3.585,-0.803 3.585,-0.803 V 1.979 L 14.124,0 15.588,2.05 v 1.833 c 0.951,0 3.292,1.393 4.61,3.006 1.316,1.613 2.854,2.2 2.854,2.2 0,0 0.585,-0.953 1.464,-0.953 0.876,0 1.533,0.732 1.533,1.542 0,0.803 -0.585,1.244 -0.585,1.244 l 3.44,6.526 c 0,0 0.146,0.255 0.146,0.658 0,0 -1.242,3.08 -4.608,3.08 -3.366,0 -4.756,-2.714 -4.756,-3.226 0,-0.348 0.292,-0.881 0.292,-0.881 z"
     id="path4" />
</svg>
