<?xml version="1.0" encoding="UTF-8" standalone="no"?>
<svg
   version="1.1"
   width="26.5"
   height="28.474985"
   viewBox="0 0 26.5 28.474986"
   id="svg4"
   xmlns="http://www.w3.org/2000/svg"
   xmlns:svg="http://www.w3.org/2000/svg">
  <defs>
    <!-- This is the gradient that will actually be used on
     the cards. The colors themselves will be provided by the
     template, but the x values, y values, and offsets will be
     used from the SVG. -->
    <radialGradient id="rarity">
      <stop offset="0" style="stop-color:rgb(192,55,38);stop-opacity:1" id="stop2" />
      <stop offset="0" style="stop-color:rgb(192,55,38);stop-opacity:1" id="stop4" />
      <stop offset="0" style="stop-color:rgb(241,142,30);stop-opacity:1" id="stop6" />
      <stop offset="0.9" style="stop-color:rgb(192,55,38);stop-opacity:1" id="stop8" />
      <stop offset="1" style="stop-color:rgb(192,55,38);stop-opacity:1" id="stop10" />
    </radialGradient>
    <!-- These gradients are here so that you can visualize
     what the set symbol would like like in that rarity. The
     only gradient that matters in the end is the "rarity"
     gradient. -->
    <linearGradient id="mythic" x1="0" y1="1" x2="1" y2="0">
      <stop offset="0" style="stop-color:rgb(192,55,38);stop-opacity:1"/>
      <stop offset="0.125" style="stop-color:rgb(192,55,38);stop-opacity:1"/>
      <stop offset="0.5" style="stop-color:rgb(241,142,30);stop-opacity:1"/>
      <stop offset="0.875" style="stop-color:rgb(192,55,38);stop-opacity:1"/>
      <stop offset="1" style="stop-color:rgb(192,55,38);stop-opacity:1"/>
    </linearGradient>
    <linearGradient id="rare" x1="0" y1="1" x2="1" y2="0">
      <stop offset="0" style="stop-color:rgb(146,116,67);stop-opacity:1"/>
      <stop offset="0.125" style="stop-color:rgb(146,116,67);stop-opacity:1"/>
      <stop offset="0.5" style="stop-color:rgb(211,178,108);stop-opacity:1"/>
      <stop offset="0.875" style="stop-color:rgb(146,116,67);stop-opacity:1"/>
      <stop offset="1" style="stop-color:rgb(146,116,67);stop-opacity:1"/>
    </linearGradient>
    <linearGradient id="special" x1="0" y1="1" x2="1" y2="0">
      <stop offset="0" style="stop-color:rgb(76, 56, 106);stop-opacity:1"/>
      <stop offset="0.125" style="stop-color:rgb(76, 56, 106);stop-opacity:1"/>
      <stop offset="0.5" style="stop-color:rgb(201, 173, 221);stop-opacity:1"/>
      <stop offset="0.875" style="stop-color:rgb(76, 56, 106);stop-opacity:1"/>
      <stop offset="1" style="stop-color:rgb(76, 56, 106);stop-opacity:1"/>
    </linearGradient>
    <linearGradient id="uncommon" x1="0" y1="1" x2="1" y2="0">
      <stop offset="0" style="stop-color:rgb(98,110,119);stop-opacity:1"/>
      <stop offset="0.125" style="stop-color:rgb(98,110,119);stop-opacity:1"/>
      <stop offset="0.5" style="stop-color:rgb(196,222,238);stop-opacity:1"/>
      <stop offset="0.875" style="stop-color:rgb(98,110,119);stop-opacity:1"/>
      <stop offset="1" style="stop-color:rgb(98,110,119);stop-opacity:1"/>
    </linearGradient>
    <linearGradient id="common" x1="0" y1="1" x2="1" y2="0">
      <stop offset="0" style="stop-color:rgb(0,0,0);stop-opacity:1"/>
    </linearGradient>
    <linearGradient
            id="rarity-outline" x1="0" y1="1" x2="0" y2="1">
      <stop offset="0" style="stop-color:rgb(0,0,0);stop-opacity:1"/>
    </linearGradient>
  </defs>
  <path fill="url(#rarity-outline)" d="M 18.144531,0 18.75,3.9609375 18.923828,5.0898437 16.685547,7.5410156 H 15.488281 C 15.326661,6.1101641 14.86301,4.6777612 13.787109,3.5742187 L 13.25,3.0234375 12.712891,3.5742187 C 11.63699,4.6777612 11.173339,6.1101641 11.011719,7.5410156 H 9.8144531 L 7.5761719,5.0898437 7.75,3.9609375 8.3457031,0.06249998 7.28125,0.29296872 C 7.0150249,0.35036592 6.7441013,0.43494131 6.4785156,0.56640622 l -0.00391,0.001953 -0.00195,0.001953 C 4.2323855,1.7027576 2.1363877,3.662844 0.7109375,5.6601562 L 0.64648438,5.7519531 0.609375,5.8574218 C 0.21506677,7.0300003 0,8.8248824 0,10.890625 0,12.842911 0.16243022,14.49082 0.51953125,15.6875 l 0.001953,0.0078 0.001953,0.0078 c 0.0427659,0.132437 0.0474343,0.150357 0.0625,0.205078 0.0150657,0.05472 0.0449822,0.142567 0.0859375,0.242188 l 0.0859375,0.212891 0.1484375,0.09766 c 0.49201835,0.472919 1.15460005,1.097612 1.48437495,1.523437 0.6377425,0.831738 1.1491978,1.746628 1.4316407,2.716797 l 0.00391,0.01367 0.00391,0.01367 c 0.2238654,0.672435 0.2686295,1.479619 0.4140625,2.367187 L 4.40625,24.080079 5.3066406,23.652344 c 1.001348,-0.474004 1.692891,-1.256604 2.2929688,-1.9375 l 0.019531,-0.02344 0.019531,-0.02539 C 7.8904213,21.32579 8.2529264,20.832511 8.5273433,20.279295 8.8941512,19.67678 8.5984463,19.332316 8.3613276,19.095701 8.1716779,18.907027 7.9882067,18.700421 7.835937,18.539061 L 7.820312,18.521481 7.802734,18.503901 C 7.5047129,18.21301 7.3248639,17.818118 7.0820312,17.476563 l 0.1855469,-0.31836 c 0.6141544,-1.055012 1.3677248,-2.039593 2.2988281,-2.671874 0.00112,-7.6e-4 8.369e-4,-0.0031 0.00195,-0.0039 0.1153961,-0.07515 0.1395299,-0.08089 0.1503906,-0.08594 0.00884,-7.6e-5 0.00119,7.9e-5 0.011719,0 0.1737049,-0.0013 0.5362712,-0.0019 1.2402342,0.0039 l 0.02344,0.002 h 0.0098 0.171875 l 0.0039,0.773438 c 0.0031,1.690996 0.0034,2.075416 0.0039,2.769531 -1.27e-4,5e-6 -0.0098,-4e-6 -0.0098,0 3e-6,0.0013 -5e-6,0.0024 0,0.0039 v 0.002 c 1.1e-5,0.0031 -2.2e-5,0.0076 0,0.01367 2.4e-5,0.006 -4.6e-5,0.0075 0,0.01953 1.65e-4,0.04345 0.0015,0.12715 0.002,0.261719 9.23e-4,0.236137 0.0021,0.543884 0.0039,0.896485 7.62e-4,0.215685 8.58e-4,0.295506 0.002,0.595703 v 0.002 0.0039 c 0.01206,1.03656 -0.328223,2.09019 -0.81836,3.103516 -0.20815,0.425385 -0.4949893,0.86392 -0.7929685,1.287109 l -0.00586,0.0078 -0.00586,0.0078 c -0.014251,0.02138 -0.050642,0.08956 -0.050781,0.08984 -1.396e-4,2.87e-4 -0.060504,0.177523 -0.060547,0.177734 -7e-7,4e-6 -5.7e-6,0.0057 0,0.0059 l -0.1679687,0.505859 0.546875,0.300781 c 0.032707,0.01796 0.064961,0.03667 0.097656,0.05469 -0.1856397,0.238198 -0.3413153,0.472839 -0.5605469,0.724609 l -0.00195,0.002 -0.00195,0.002 c -0.018798,0.02193 -0.07206,0.09732 -0.072266,0.09766 -2.058e-4,3.36e-4 -0.089786,0.222409 -0.089844,0.222656 -2.2e-6,9e-6 -0.00174,0.01336 -0.00195,0.01563 l -0.1621094,0.433593 0.4628907,0.333985 c 0.00228,0.0017 0.00553,0.0023 0.00781,0.0039 0.00358,0.0031 0.017568,0.01562 0.017578,0.01563 3.28e-5,2.1e-5 0.028589,0.01213 0.041016,0.01758 l 0.00195,0.002 c 0.00179,7.84e-4 0.0039,0.0011 0.00586,0.002 0.055597,0.02437 0.1465151,0.06437 0.1601563,0.07031 -0.00815,-0.0033 -0.081497,-0.0338 -0.1191407,-0.04883 1.0104872,0.708697 2.2512732,1.267065 3.6230472,1.292969 l 0.09961,0.002 0.03906,-0.01172 c 1.334433,-0.05244 2.543913,-0.59637 3.529297,-1.289062 -0.02651,0.01057 -0.123762,0.04908 -0.132813,0.05273 0.01378,-0.006 0.107301,-0.04628 0.16211,-0.07031 0.0014,-5.93e-4 0.0026,-0.0014 0.0039,-0.002 0.003,-0.0021 0.0068,-0.0037 0.0098,-0.0059 0.0084,-0.0037 0.03318,-0.01365 0.0332,-0.01367 6e-6,-4e-6 0.01012,-0.0084 0.01172,-0.0098 0.0041,-0.003 0.0096,-0.0048 0.01367,-0.0078 l 0.462891,-0.335938 -0.162109,-0.433593 c -1.67e-4,-0.0018 -0.002,-0.01366 -0.002,-0.01367 -5.7e-5,-2.47e-4 -0.08964,-0.224274 -0.08984,-0.22461 -2.06e-4,-3.35e-4 -0.05347,-0.07377 -0.07227,-0.0957 v -0.002 l -0.002,-0.002 c -0.219916,-0.25309 -0.376361,-0.487654 -0.5625,-0.726563 0.03202,-0.01763 0.06369,-0.03718 0.0957,-0.05469 l 0.548828,-0.300781 -0.171875,-0.515625 c -5.44e-4,-0.0046 -0.002,-0.02147 -0.002,-0.02148 -1.2e-5,-4.9e-5 -0.0143,-0.03396 -0.02344,-0.05664 -0.02352,-0.05837 -0.05849,-0.146312 -0.05859,-0.146485 -1.4e-4,-2.39e-4 -0.04558,-0.0687 -0.0625,-0.08984 l 0.02734,0.03516 c -0.298419,-0.423814 -0.586468,-0.861377 -0.792969,-1.285156 -0.490137,-1.013326 -0.830423,-2.06891 -0.81836,-3.105469 v -0.002 -0.0039 c 10e-4,-0.300196 0.0012,-0.380019 0.002,-0.595704 7.39e-4,-0.143891 0.0013,-0.213339 0.002,-0.365234 5.38e-4,-0.150571 0.0016,-0.435431 0.002,-0.53125 4.24e-4,-0.116494 0.0018,-0.179344 0.002,-0.226562 1.7e-5,-0.0046 -1.4e-5,-0.03138 0,-0.03516 4.1e-5,-0.01086 -2.4e-5,-0.01159 0,-0.01758 2.5e-5,-0.007 -1.1e-5,-0.01253 0,-0.01563 5e-6,-0.0015 -3e-6,-0.0026 0,-0.0039 0,-4e-6 -0.0096,5e-6 -0.0098,0 5.41e-4,-0.694115 8.57e-4,-1.078535 0.0039,-2.769531 v -0.0039 l 0.0039,-0.771484 h 0.171875 0.0098 0.01172 c 0.7191,-0.006 1.076333,-0.0072 1.251953,-0.0059 0.0088,6.5e-5 0.0022,-6.4e-5 0.0098,0 0.01185,0.0054 0.0295,0.0089 0.154297,0.08984 0.929771,0.631102 1.684744,1.616985 2.298828,2.671875 l 0.185547,0.320313 c -0.242833,0.341555 -0.422682,0.736443 -0.720703,1.027344 l -0.01758,0.01758 -0.01563,0.01758 c -0.1658,0.184858 -0.308956,0.335287 -0.523437,0.554687 0.0092,-0.0096 -0.02764,0.02334 -0.07422,0.07031 -0.322351,0.260335 -0.403668,0.57795 -0.09574,1.113286 l 0.002,0.002 c 0.274417,0.553216 0.636922,1.046495 0.888672,1.386719 l 0.01953,0.02539 0.01953,0.02344 c 0.600077,0.680896 1.29162,1.463496 2.292968,1.9375 l 0.900391,0.427735 0.162109,-0.984376 c 0.14538,-0.888313 0.190138,-1.694575 0.414063,-2.367187 l 0.0039,-0.01367 0.0039,-0.01367 c 0.282443,-0.970169 0.793899,-1.885059 1.431641,-2.716797 l 0.002,-0.0039 c 0.330992,-0.426499 0.993187,-1.048254 1.484375,-1.519531 l 0.144531,-0.09766 0.08789,-0.208985 c 0.04175,-0.100195 0.07273,-0.192353 0.08789,-0.248047 0.01516,-0.05569 0.01802,-0.07144 0.06055,-0.203125 l 0.002,-0.0078 0.002,-0.0078 C 26.337266,14.490631 26.5,12.842911 26.5,10.890625 26.5,8.8248824 26.284933,7.0300004 25.890625,5.8574218 l -0.03711,-0.1054687 -0.06445,-0.091797 C 24.364337,3.6623861 22.267112,1.7035716 20.027347,0.57031238 l -0.02539,-0.0136719 -0.02734,-0.0117188 C 19.578391,0.38199656 19.669073,0.41277141 19.255867,0.30078105 Z m -1.876953,23.820313 c -0.0056,3.47e-4 -0.04488,0.0048 -0.06836,0.0078 0.0037,-8.11e-4 0.01565,-0.0039 0.01563,-0.0039 -4.14e-4,5.7e-5 0.06003,-0.0044 0.05273,-0.0039 z m -5.875,0.03125 c 0.0038,8.16e-4 0.0176,0.0039 0.01758,0.0039 -1.2e-5,-4e-6 0.01695,0.0083 0.01953,0.0098 -0.01655,-0.0064 -0.02823,-0.01022 -0.03711,-0.01367 z m -0.9433592,0.607422 c 0.00182,0.05623 0.00609,0.218024 0.00781,0.269531 -0.00197,-0.03036 -0.015597,-0.236595 -0.015625,-0.236328 -6.4e-6,6.1e-5 0.00537,-0.02195 0.00781,-0.0332 z m 7.5957032,0.257812 c -1.73e-4,0.0029 -0.002,0.01955 -0.002,0.01953 10e-7,-6e-6 -0.0038,0.0056 -0.0039,0.0059 0.0015,-0.0093 0.004,-0.01368 0.0059,-0.02539 z m -7.5429689,0.117188 c 0.048744,0.07701 0.1263342,0.201357 0.1621094,0.257812 -0.023882,-0.01993 -0.060579,-0.05082 -0.060547,-0.05078 8.3e-5,1.03e-4 -0.058905,-0.120423 -0.1015625,-0.207031 z m 0.2714844,0.349609 c 0.061814,0.0345 0.1126154,0.0612 0.1464844,0.08008 -0.0458,-0.01785 -0.091886,-0.0352 -0.091797,-0.03516 4.16e-5,2.3e-5 -0.034802,-0.02831 -0.054687,-0.04492 z m 6.9628905,0 c -0.0014,0.0013 -0.01173,0.01173 -0.01172,0.01172 1.63e-4,-1.07e-4 -0.139615,0.06988 -0.15625,0.07813 -8.65e-4,-0.0011 -0.0011,-0.0028 -0.002,-0.0039 0.03962,-0.02006 0.130331,-0.06586 0.169922,-0.08594 z m -6.419922,0.683594 c 0.0026,0.0011 0.01759,0.0078 0.01758,0.0078 -2.5e-5,-1.6e-5 0.02618,0.02298 0.04492,0.03906 v 0.0039 c -0.03094,-0.02454 -0.04817,-0.03943 -0.0625,-0.05078 z m 5.867188,0 c -0.01424,0.01128 -0.03193,0.02458 -0.0625,0.04883 v -0.002 c 0.01874,-0.01608 0.04495,-0.03908 0.04492,-0.03906 -1.5e-5,10e-6 0.01499,-0.0067 0.01758,-0.0078 z" />
  <path fill="url(#rarity)" d="m 13.248,27.722391 c -1.218,-0.023 -2.377,-0.535 -3.312,-1.212 0.003,-0.008 -0.014,-10e-4 -0.008,-0.008 0.411,-0.472 0.801,-0.93 1.117,-1.45 -0.284,-0.163 -0.571,-0.323 -0.857,-0.48 0.002,-0.006 -0.009,0 -0.005,-0.006 0.307,-0.436 0.618,-0.905 0.856,-1.392 0.519,-1.073 0.906,-2.236 0.892,-3.439 -0.021,-6.016 0.018,5.946 -10e-4,-4.564 l -0.009,-1.52 h -0.012 v 0 0 h -0.891 c -0.016,-10e-4 -0.006,-10e-4 -0.028,0 -1.443,-0.012 -1.437,-10e-4 -1.475,0 -0.209,0.095 -0.111,0.046 -0.368,0.21 -1.074,0.728 -1.882,1.811 -2.527,2.919 v 0 c -1.219,-1.926 -1.728,-4.269 -1.569,-6.567 0.04,-0.5800004 0.141,-1.1630004 0.224,-1.7050004 0.004,-0.025 0.018,-0.061 0.018,-0.087 -0.409,0.494 -0.568,1.201 -0.676,1.8160004 -0.173,1.19 -0.17,2.408 0.015,3.597 0.434,1.911 1.223,3.817 2.646,5.206 0.174,0.194 0.327,0.355 0.545,0.578 0.031,0.032 0.126,0.114 0.142,0.157 -0.004,0.027 0.017,-0.017 0.007,0.008 -0.202,0.508 -0.623,1.013 -0.936,1.436 -0.594,0.674 -1.225,1.365 -2.051,1.756 -0.136,-0.83 -0.176,-1.681 -0.443,-2.483 -0.315,-1.082 -0.875,-2.078 -1.558,-2.968 -0.412,-0.532 -1.117,-1.181 -1.601,-1.647 l -0.018,-0.012 c -0.074,-0.18 -0.034,-0.104 -0.127,-0.392 -0.319,-1.069 -0.488,-2.675 -0.488,-4.583 0,-2.0090004 0.228,-3.7740004 0.571,-4.7940004 1.356,-1.9 3.397,-3.799 5.49,-4.857 0.2,-0.099 0.411,-0.167 0.629,-0.214 v 0 l -0.431,2.821 v 0 l -0.23,1.483 2.704,2.962 h 2.178 c 0.006,-0.079 0.015,-0.252 0.021,-0.331 0,-0.001 0,-0.001 0,-0.002 0.104,-1.43 0.556,-2.823 1.568,-3.861 1.012,1.038 1.464,2.431 1.568,3.861 v 0.002 c 0.006,0.079 0.015,0.252 0.021,0.331 h 2.178 l 2.704,-2.962 -0.23,-1.483 v 0 l -0.431,-2.821 c 0.428,0.116 0.218,0.045 0.629,0.214 2.093,1.059 4.135,2.957 5.49,4.857 0.343,1.02 0.571,2.785 0.571,4.7940004 0,1.908 -0.169,3.514 -0.488,4.583 -0.093,0.288 -0.052,0.212 -0.127,0.392 l -0.018,0.012 c -0.485,0.466 -1.189,1.115 -1.601,1.647 -0.683,0.89 -1.243,1.886 -1.558,2.968 -0.267,0.802 -0.307,1.652 -0.443,2.483 -0.826,-0.391 -1.457,-1.082 -2.051,-1.756 -0.313,-0.423 -0.734,-0.928 -0.936,-1.436 -0.01,-0.025 0.011,0.019 0.007,-0.008 0.015,-0.043 0.11,-0.125 0.142,-0.157 0.218,-0.223 0.371,-0.384 0.545,-0.578 1.423,-1.389 2.212,-3.295 2.646,-5.206 0.186,-1.189 0.189,-2.406 0.015,-3.597 -0.108,-0.6140004 -0.267,-1.3210004 -0.676,-1.8160004 0,0.026 0.014,0.061 0.018,0.087 0.082,0.542 0.184,1.124 0.224,1.7040004 0.159,2.298 -0.351,4.641 -1.569,6.567 v 0 c -0.645,-1.108 -1.454,-2.192 -2.527,-2.919 -0.257,-0.164 -0.159,-0.115 -0.368,-0.21 -0.037,-0.001 -0.032,-0.012 -1.474,0 -0.021,-0.001 -0.012,-0.001 -0.028,0 h -0.904 l -0.009,1.52 c -0.019,10.51 0.02,-1.452 -10e-4,4.564 -0.014,1.203 0.373,2.366 0.892,3.439 0.237,0.487 0.549,0.956 0.856,1.392 0.004,0.005 -0.007,0 -0.005,0.006 -0.287,0.157 -0.573,0.318 -0.857,0.48 0.316,0.519 0.706,0.977 1.117,1.45 0.006,0.007 -0.011,0 -0.008,0.008 -0.935,0.676 -2.094,1.189 -3.312,1.212 v 0 z"/>
</svg>
