<?xml version="1.0" encoding="UTF-8" standalone="no"?>
<svg
   version="1.1"
   width="31.682478"
   height="27.99794"
   viewBox="0 0 31.682478 27.99794"
   id="svg4"
   xmlns="http://www.w3.org/2000/svg"
   xmlns:svg="http://www.w3.org/2000/svg">
  <defs>
    <!-- This is the gradient that will actually be used on
     the cards. The colors themselves will be provided by the
     template, but the x values, y values, and offsets will be
     used from the SVG. -->
    <linearGradient id="rarity" x1="0" y1="0.35" x2="1" y2="0.65">
      <stop offset="0" style="stop-color:rgb(192,55,38);stop-opacity:1" id="stop2" />
      <stop offset="0.125" style="stop-color:rgb(192,55,38);stop-opacity:1" id="stop4" />
      <stop offset="0.5" style="stop-color:rgb(241,142,30);stop-opacity:1" id="stop6" />
      <stop offset="0.875" style="stop-color:rgb(192,55,38);stop-opacity:1" id="stop8" />
      <stop offset="1" style="stop-color:rgb(192,55,38);stop-opacity:1" id="stop10" />
    </linearGradient>
    <!-- These gradients are here so that you can visualize
     what the set symbol would like like in that rarity. The
     only gradient that matters in the end is the "rarity"
     gradient. -->
    <linearGradient id="mythic" x1="0" y1="1" x2="1" y2="0">
      <stop offset="0" style="stop-color:rgb(192,55,38);stop-opacity:1"/>
      <stop offset="0.125" style="stop-color:rgb(192,55,38);stop-opacity:1"/>
      <stop offset="0.5" style="stop-color:rgb(241,142,30);stop-opacity:1"/>
      <stop offset="0.875" style="stop-color:rgb(192,55,38);stop-opacity:1"/>
      <stop offset="1" style="stop-color:rgb(192,55,38);stop-opacity:1"/>
    </linearGradient>
    <linearGradient id="rare" x1="0" y1="1" x2="1" y2="0">
      <stop offset="0" style="stop-color:rgb(146,116,67);stop-opacity:1"/>
      <stop offset="0.125" style="stop-color:rgb(146,116,67);stop-opacity:1"/>
      <stop offset="0.5" style="stop-color:rgb(211,178,108);stop-opacity:1"/>
      <stop offset="0.875" style="stop-color:rgb(146,116,67);stop-opacity:1"/>
      <stop offset="1" style="stop-color:rgb(146,116,67);stop-opacity:1"/>
    </linearGradient>
    <linearGradient id="special" x1="0" y1="1" x2="1" y2="0">
      <stop offset="0" style="stop-color:rgb(76, 56, 106);stop-opacity:1"/>
      <stop offset="0.125" style="stop-color:rgb(76, 56, 106);stop-opacity:1"/>
      <stop offset="0.5" style="stop-color:rgb(201, 173, 221);stop-opacity:1"/>
      <stop offset="0.875" style="stop-color:rgb(76, 56, 106);stop-opacity:1"/>
      <stop offset="1" style="stop-color:rgb(76, 56, 106);stop-opacity:1"/>
    </linearGradient>
    <linearGradient id="uncommon" x1="0" y1="1" x2="1" y2="0">
      <stop offset="0" style="stop-color:rgb(98,110,119);stop-opacity:1"/>
      <stop offset="0.125" style="stop-color:rgb(98,110,119);stop-opacity:1"/>
      <stop offset="0.5" style="stop-color:rgb(196,222,238);stop-opacity:1"/>
      <stop offset="0.875" style="stop-color:rgb(98,110,119);stop-opacity:1"/>
      <stop offset="1" style="stop-color:rgb(98,110,119);stop-opacity:1"/>
    </linearGradient>
    <linearGradient id="common" x1="0" y1="1" x2="1" y2="0">
      <stop offset="0" style="stop-color:rgb(0,0,0);stop-opacity:1"/>
    </linearGradient>
    <linearGradient
            id="rarity-outline" x1="0" y1="1" x2="0" y2="1">
      <stop offset="0" style="stop-color:rgb(0,0,0);stop-opacity:1"/>
    </linearGradient>
  </defs>
  <path fill="url(#rarity-outline)" d="m 10.382562,0.00323416 c -0.4318765,-0.0184813 -0.7645717,0.0480694 -0.9414059,0.0527344 l -0.068359,0.001953 -0.066406,0.0117187 C 7.186011,0.41471521 5.2063696,1.4501687 3.704828,2.9876092 c -0.00101,0.00103 -0.0029,9.192e-4 -0.00391,0.00195 -0.00458,0.0047 -0.011052,0.00701 -0.015625,0.011719 l -0.0625,0.066406 -0.00391,0.00781 C 1.9146268,4.7242692 0.79111526,6.8658926 0.2692812,9.1282342 0.1286317,9.7398083 0.0792456,10.432318 0.0505312,10.739562 v 0.002 c -0.076176,0.834631 -0.0520144,1.64782 -0.0195313,2.410159 l -0.001953,-0.002 c 0.0232001,0.565238 0.0606501,0.750953 0.0917969,1.021485 0.0705866,0.614103 0.20645951,1.107384 0.29882813,1.582031 0.38293422,1.968104 1.34335807,3.732842 2.47656247,5.261719 h 0.00195 c 0.596048,0.802758 1.2529678,1.66947 2.1328125,2.40039 2.314933,2.09622 5.1481261,3.662787 8.2480471,4.34375 h 0.002 c 0.541132,0.118604 1.10895,0.161319 1.582031,0.189453 0.732004,0.04396 1.526091,0.07629 2.320313,0.01758 0.429172,-0.03192 0.943464,-0.106123 1.398437,-0.222656 2.605004,-0.667173 4.543394,-1.656151 6.498047,-3.080078 l 0.0098,-0.0059 0.0078,-0.0078 c 1.099477,-0.837697 2.211051,-1.771303 3.117188,-2.96289 v -0.002 l 0.002,-0.002 c 0.841111,-1.116718 1.685684,-2.328942 2.25,-3.748047 h 0.002 v -0.002 c 0.42446,-1.071057 0.783875,-2.196499 0.984375,-3.378906 l 0.01563,-0.0957 -0.002,-0.09375 c -0.0031,-0.137775 0.06939,-0.523468 0.0957,-0.964844 v -0.0039 c 0.295107,-1.431825 -0.03608,-2.69323 -0.119256,-3.7302645 l -0.0039,-0.048828 -0.0078,-0.048828 c -0.08951,-0.4972918 -0.2228,-0.84721 -0.261737,-1.0859377 l -0.0098,-0.056641 -0.01563,-0.052734 C 30.798196,7.1360586 30.234875,5.992753 29.558344,4.9544061 l -0.0059,-0.00586 -0.0039,-0.00781 C 28.04053,2.7098038 25.774762,0.84787215 23.003656,0.22784353 22.082467,-0.06014842 21.279145,0.06571929 20.736078,0.05206228 l -0.06445,-0.001953 -0.06445,0.007813 C 19.454332,0.17934262 18.325921,0.78449937 17.68725,1.8645623 l -0.0039,0.00586 -0.002,0.00586 c -0.523579,0.9133936 -0.64515,1.9456161 -0.527303,2.894532 l 0.0078,0.068359 0.01758,0.064453 c 0.01265,0.047869 0.111986,0.4618197 0.232421,0.8339844 -0.283921,0.059531 -0.521075,0.050702 -0.808593,0.2734375 C 16.137398,6.3205593 15.916872,6.7145402 15.80052,7.1067493 15.7394,6.9079751 15.7047,6.7102407 15.534895,6.5071399 l -0.002,-0.00391 -0.0039,-0.00391 C 15.306699,6.2388799 14.980539,5.8004965 14.241938,5.6301873 14.414514,5.1059618 14.500206,4.6093799 14.558344,4.2688592 l 0.03125,-0.1855469 -0.03906,-0.1855469 C 14.452071,3.424512 14.428961,2.6663648 13.947016,1.8879998 13.281782,0.78140101 12.101194,0.1305386 10.845453,0.05596853 10.681579,0.02570464 10.526521,0.00939457 10.382562,0.00323416 Z m 7.738282,5.49414064 c -0.0029,1.634e-4 -0.01075,0.00374 -0.01367,0.00391 -0.0033,2.442e-4 -0.0045,-0.00221 -0.0078,-0.00195 z m -0.632813,0.5390625 c 0.0028,0.00503 0.0069,0.0067 0.0098,0.011719 0.0043,0.00728 -4.73e-4,0.00635 0.0039,0.013672 z M 13.87475,6.4700311 13.8435,6.5129998 c 0.0038,-0.00511 0.0021,-0.010511 0.0059,-0.015625 0.0078,-0.011533 0.01761,-0.015724 0.02539,-0.027344 z m 1.958984,1.9453124 c 0.139051,0.6930697 0.302351,1.4116812 0.820313,2.0117185 l 0.04101,0.04687 0.04688,0.04297 c 0.419695,0.376762 1.009385,0.677143 1.673828,0.839844 -0.187251,0.137644 -0.405036,0.265421 -0.552735,0.402343 l -0.0039,0.0039 -0.002,0.0039 c -0.744566,0.703289 -0.910268,1.589327 -1.052734,2.195312 l -0.0098,0.04102 -0.0059,0.04102 c -0.118149,0.797506 0.146138,1.378614 0.230469,1.724609 l 0.0039,0.01172 0.002,0.01172 c 0.362123,1.346033 1.477058,2.416014 2.90625,2.615235 l 0.05273,0.0078 0.05469,0.002 c 0.398779,0.01205 0.837894,0.02557 1.3125,-0.01758 l 0.05859,-0.0059 0.05859,-0.01172 c 0.40729,-0.086 0.702424,-0.277837 1.033203,-0.441406 -1.276902,0.900734 -2.691367,1.632794 -4.236328,2.15039 -0.328676,0.10956 -0.926707,0.215709 -1.21875,0.242188 h -0.002 c -0.90017,0.08209 -1.877882,-0.02994 -2.95104,-0.103505 -0.52112,-0.138926 -0.974603,-0.191162 -1.154297,-0.263672 l -0.04101,-0.01562 -0.04102,-0.01172 C 11.647948,19.568643 10.489331,18.962511 9.3981874,18.229796 9.1841328,18.078497 9.0669981,17.87734 8.861078,17.721984 c 0.4496344,0.251821 0.8607871,0.569258 1.390625,0.667969 l 0.08398,0.01563 0.08398,0.002 c 0.482154,0.0074 1.304931,0.152799 2.185547,-0.289063 1.316665,-0.571139 2.002485,-1.853388 2.154297,-3.082031 l 0.0059,-0.05664 v -0.05859 c 0.0028,-0.347265 0.02716,-0.757091 -0.01953,-1.226563 l -0.0078,-0.07813 -0.01953,-0.07422 c -0.143833,-0.551038 -0.381731,-1.180869 -0.894586,-1.709034 l -0.01172,-0.01172 -0.01172,-0.01172 c -0.148911,-0.143383 -0.367365,-0.294946 -0.564453,-0.447265 0.185681,-0.0487 0.37964,-0.05308 0.554688,-0.140625 1.189636,-0.520856 1.841784,-1.6399947 2.042968,-2.8066405 z" />
  <path fill="url(#rarity)" d="m 4.4031332,3.6980319 c 1.351,-1.39 3.153,-2.331 5.064,-2.642 0.417,-0.011 0.8339998,-0.12500002 1.2489998,-0.027 0.951,0.032 1.888,0.557 2.379,1.378 0.318,0.508 0.358,1.122 0.477,1.694 -0.105,0.615 -0.139,1.293 -0.528,1.812 -0.472,0.705 -1.098,1.282 -1.667,1.903 0.171,0.399 0.327,0.877 0.77,1.051 0.382,0.245 0.826,-0.026 1.135,-0.265 0.189,-0.138 0.44,-0.627 0.223,-0.587 -0.233,0.043 -0.321,0.248 -0.507,0.329 -0.154,0.067 -0.271,0.097 -0.486,-0.008 -0.22,-0.107 -0.271,-0.431 -0.294,-0.679 0.071,-0.442 0.42,-0.896 0.906,-1.073 0.343,-0.125 0.59,-0.059 0.884,0 0.291,0.058 0.573,0.345 0.76,0.564 0.204,0.244 0.184,0.57 0.175,0.868 -0.089,0.964 -0.655,1.918 -1.569,2.3070001 -0.496,0.259 -1.111,0.268 -1.611,0.016 -0.63,-0.226 -1.022,-0.7940001 -1.494,-1.2340001 -0.6159998,0.677 -1.1869998,1.4570001 -1.3759998,2.3710001 -0.154,0.919 -0.013,1.936 0.587,2.677 0.327,0.389 0.7749998,0.792 1.3219998,0.734 0.378,0.06 0.745,-0.317 0.695,-0.694 0.031,-0.335 -0.254,-0.573 -0.513,-0.728 -0.109,0.283 -0.264,0.713 -0.629,0.685 -0.201,-0.066 -0.4139998,-0.191 -0.4919998,-0.4 -0.063,-0.477 0.017,-0.994 0.3169998,-1.383 0.321,-0.407 0.814,-0.725 1.351,-0.667 0.628,0.007 1.144,0.415 1.575,0.83 0.335,0.345 0.524,0.804 0.644,1.264 0.037,0.372 0.019,0.746 0.016,1.12 -0.118,0.955 -0.656,1.922 -1.577,2.308 -0.54,0.286 -1.168,0.194 -1.754,0.185 -1.3579998,-0.253 -2.4829998,-1.278 -3.0579998,-2.508 -0.501,-1.037 -0.587,-2.215 -0.502,-3.347 0.084,-0.391 0.175,-0.784 0.157,-1.185 -0.575,-0.314 -1.054,-0.8290001 -1.259,-1.4570001 -0.033,-0.416 -0.037,-0.837 0.002,-1.254 0.229,-0.642 0.704,-1.219 1.335,-1.493 0.359,-0.009 0.814,-0.131 1.076,0.186 0.266,0.215 0.43,0.66 0.168,0.938 -0.205,0.272 -0.597,0.144 -0.821,-0.04 -0.112,0.155 -0.329,0.277 -0.309,0.493 0.079,0.345 0.376,0.692 0.76,0.657 0.535,-0.118 0.894,-0.575 1.312,-0.895 0.642,-0.716 1.3769998,-1.432 1.6259998,-2.393 0.143,-0.656 -0.342,-1.282 -0.9429998,-1.49 -0.624,-0.269 -1.309,-0.026 -1.913,0.182 -2.124,0.895 -3.523,3 -4.019,5.211 -0.13,0.582 -0.194,0.963 -0.195,1.4560001 -0.026,0.614 0.118,1.199 0.204,1.819 0.183,1.319 0.756,2.583 1.526,3.679 0.824,1.267 2.027,2.225 3.249,3.088 1.154,0.776 2.3999998,1.432 3.7329998,1.84 0.456,0.184 0.955,0.176 1.421,0.331 1.054,0.071 2.098,0.2 3.151,0.104 0.375,-0.034 0.99,-0.137 1.446,-0.289 1.776,-0.595 3.486,-1.391 4.967,-2.528 1.13,-0.903 2.207,-1.926 2.902,-3.212 0.585,-1.08 1.026,-2.255 1.156,-3.482 0.174,-0.802 0.218,-1.643 0.01,-2.4420001 -0.231,-1.605 -0.978,-3.162 -2.173,-4.273 -0.605,-0.635 -1.373,-1.11 -2.199,-1.399 -0.401,-0.156 -0.839,-0.117 -1.26,-0.118 -0.83,-0.02 -1.604,0.974 -1.2,1.753 0.262,0.695 0.714,1.302 1.244,1.816 0.374,0.362 0.715,0.768 1.163,1.044 0.282,0.216 0.785,0.248 0.989,-0.087 0.219,-0.172 0.114,-0.464 0.129,-0.702 -0.268,-0.042 -0.515,0.059 -0.772,0.101 -0.202,-0.131 -0.452,-0.311 -0.408,-0.586 -0.036,-0.336 0.233,-0.611 0.511,-0.751 0.289,-0.042 0.585,-0.038 0.875,-0.007 0.855,0.333 1.369,1.239 1.427,2.124 -0.027,0.519 -0.225,1.031 -0.547,1.44 -0.199,0.2880001 -0.522,0.4470001 -0.796,0.6500001 -0.097,0.414 0.114,0.819 0.153,1.229 0.026,0.376 0.013,0.754 0.015,1.131 0.011,0.472 -0.163,0.919 -0.218,1.383 -0.337,1.05 -0.964,2.042 -1.885,2.67 -0.436,0.265 -0.902,0.504 -1.404,0.61 -0.396,0.036 -0.795,0.025 -1.192,0.013 -0.99,-0.138 -1.82,-0.925 -2.078,-1.884 -0.107,-0.439 -0.282,-0.883 -0.214,-1.342 0.142,-0.604 0.297,-1.255 0.766,-1.698 0.466,-0.432 1.054,-0.834 1.719,-0.789 0.52,0.02 0.971,0.364 1.256,0.782 0.26,0.391 0.289,0.885 0.215,1.337 -0.166,0.186 -0.393,0.366 -0.658,0.334 -0.254,-0.128 -0.344,-0.431 -0.453,-0.674 -0.156,0.113 -0.359,0.193 -0.445,0.378 -0.143,0.336 -0.083,0.789 0.278,0.965 0.377,0.141 0.834,0.07 1.164,-0.174 0.794,-0.553 1.11,-1.543 1.229,-2.456 -0.085,-1.034 -0.536,-2.044 -1.269,-2.7860001 -0.105,-0.14 -0.297,-0.11 -0.447,-0.083 -0.361,0.325 -0.658,0.7420001 -1.114,0.9440001 -0.274,0.108 -0.544,0.269 -0.849,0.245 -0.665,0.046 -1.28,-0.313 -1.759,-0.7430001 -0.467,-0.541 -0.697,-1.24 -0.777,-1.941 0.057,-0.391 0.175,-0.833 0.545,-1.042 0.319,-0.281 0.613,-0.272 0.999,-0.294 0.419,-0.033 0.974,0.38 1.107,0.77 0.057,0.355 0.188,0.835 -0.099,1.057 -0.153,0.118 -0.3,0.118 -0.533,0.017 -0.169,-0.074 -0.35,-0.347 -0.504,-0.444 -0.002,0.121 -0.035,0.493 0.054,0.601 0.285,0.343 0.396,0.389 0.689,0.388 0.362,-10e-4 0.495,0.072 0.817,-0.145 0.307,-0.207 0.498,-0.614 0.43,-1.004 -0.623,-0.701 -1.316,-1.361 -1.778,-2.188 -0.164,-0.274 -0.135,-0.601 -0.214,-0.9 -0.096,-0.773 0.011,-1.592 0.402,-2.274 0.45,-0.761 1.299,-1.231 2.163,-1.322 0.676,0.017 1.375,-0.088 2.029,0.129 2.483,0.539 4.578,2.246 5.98,4.32 0.632,0.97 1.149,2.023 1.462,3.141 0.061,0.374 0.198,0.73 0.265,1.103 0.092,1.1470001 0.374,2.3030001 0.136,3.4530001 0.007,0.402 -0.126,0.785 -0.117,1.188 -0.185,1.091 -0.521,2.152 -0.928,3.179 -0.509,1.28 -1.296,2.422 -2.12,3.516 -0.819,1.077 -1.856,1.958 -2.927,2.774 -1.882,1.371 -3.663,2.28 -6.158,2.919 -0.367,0.094 -0.86,0.167 -1.223,0.194 -0.717,0.053 -1.471,0.025 -2.187,-0.018 -0.454,-0.027 -0.991,-0.072 -1.429,-0.168 -2.918,-0.641 -5.6099998,-2.124 -7.8099998,-4.121 -0.773,-0.638 -1.39,-1.442 -1.984,-2.242 -1.074,-1.449 -1.9539999,-3.088 -2.2979999,-4.856 -0.101,-0.519 -0.228,-0.984 -0.288,-1.506 -0.035,-0.304 -0.063,-0.412 -0.085,-0.948 -0.032,-0.751 -0.052,-1.521 0.017,-2.277 0.03,-0.321 0.086,-0.9920001 0.198,-1.4790001 0.492,-2.133 1.5569999,-4.143 3.1569999,-5.652 z"/>
</svg>
