<?xml version="1.0" encoding="UTF-8" standalone="no"?>
<svg
   version="1.1"
   width="26.4303"
   height="30.265625"
   viewBox="0 0 26.430299 30.265625"
   id="svg65"
   xmlns:xlink="http://www.w3.org/1999/xlink"
   xmlns="http://www.w3.org/2000/svg"
   xmlns:svg="http://www.w3.org/2000/svg">
  <defs>
    <!-- This is the gradient that will actually be used on
     the cards. The colors themselves will be provided by the
     template, but the x values, y values, and offsets will be
     used from the SVG. -->
    <linearGradient
       id="rarity"
       x1="0"
       y1="1"
       x2="1"
       y2="0">
      <stop
         offset="0"
         style="stop-color:rgb(192,55,38);stop-opacity:1"
         id="stop2" />
      <stop
         offset="0.125"
         style="stop-color:rgb(192,55,38);stop-opacity:1"
         id="stop4" />
      <stop
         offset="0.5"
         style="stop-color:rgb(241,142,30);stop-opacity:1"
         id="stop6" />
      <stop
         offset="0.875"
         style="stop-color:rgb(192,55,38);stop-opacity:1"
         id="stop8" />
      <stop
         offset="1"
         style="stop-color:rgb(192,55,38);stop-opacity:1"
         id="stop10" />
    </linearGradient>
    <!-- These gradients are here so that you can visualize
     what the set symbol would like like in that rarity. The
     only gradient that matters in the end is the "rarity"
     gradient. -->
    <linearGradient
       id="mythic"
       x1="0"
       y1="1"
       x2="1"
       y2="0">
      <stop
         offset="0"
         style="stop-color:rgb(192,55,38);stop-opacity:1"
         id="stop9" />
      <stop
         offset="0.125"
         style="stop-color:rgb(192,55,38);stop-opacity:1"
         id="stop11" />
      <stop
         offset="0.5"
         style="stop-color:rgb(241,142,30);stop-opacity:1"
         id="stop13" />
      <stop
         offset="0.875"
         style="stop-color:rgb(192,55,38);stop-opacity:1"
         id="stop15" />
      <stop
         offset="1"
         style="stop-color:rgb(192,55,38);stop-opacity:1"
         id="stop17" />
    </linearGradient>
    <linearGradient
       id="rare"
       x1="0"
       y1="1"
       x2="1"
       y2="0">
      <stop
         offset="0"
         style="stop-color:rgb(146,116,67);stop-opacity:1"
         id="stop20" />
      <stop
         offset="0.125"
         style="stop-color:rgb(146,116,67);stop-opacity:1"
         id="stop22" />
      <stop
         offset="0.5"
         style="stop-color:rgb(211,178,108);stop-opacity:1"
         id="stop24" />
      <stop
         offset="0.875"
         style="stop-color:rgb(146,116,67);stop-opacity:1"
         id="stop26" />
      <stop
         offset="1"
         style="stop-color:rgb(146,116,67);stop-opacity:1"
         id="stop28" />
    </linearGradient>
    <linearGradient
       id="special"
       x1="0"
       y1="1"
       x2="1"
       y2="0">
      <stop
         offset="0"
         style="stop-color:rgb(76, 56, 106);stop-opacity:1"
         id="stop31" />
      <stop
         offset="0.125"
         style="stop-color:rgb(76, 56, 106);stop-opacity:1"
         id="stop33" />
      <stop
         offset="0.5"
         style="stop-color:rgb(201, 173, 221);stop-opacity:1"
         id="stop35" />
      <stop
         offset="0.875"
         style="stop-color:rgb(76, 56, 106);stop-opacity:1"
         id="stop37" />
      <stop
         offset="1"
         style="stop-color:rgb(76, 56, 106);stop-opacity:1"
         id="stop39" />
    </linearGradient>
    <linearGradient
       id="uncommon"
       x1="0"
       y1="1"
       x2="1"
       y2="0">
      <stop
         offset="0"
         style="stop-color:rgb(98,110,119);stop-opacity:1"
         id="stop42" />
      <stop
         offset="0.125"
         style="stop-color:rgb(98,110,119);stop-opacity:1"
         id="stop44" />
      <stop
         offset="0.5"
         style="stop-color:rgb(196,222,238);stop-opacity:1"
         id="stop46" />
      <stop
         offset="0.875"
         style="stop-color:rgb(98,110,119);stop-opacity:1"
         id="stop48" />
      <stop
         offset="1"
         style="stop-color:rgb(98,110,119);stop-opacity:1"
         id="stop50" />
    </linearGradient>
    <linearGradient
       id="common"
       x1="0"
       y1="1"
       x2="1"
       y2="0">
      <stop
         offset="0"
         style="stop-color:rgb(0,0,0);stop-opacity:1"
         id="stop53" />
    </linearGradient>
    <linearGradient
       id="rarity-outline"
       x1="0"
       y1="1"
       x2="0"
       y2="1">
      <stop
         offset="0"
         style="stop-color:rgb(0,0,0);stop-opacity:1"
         id="stop56" />
    </linearGradient>
    <linearGradient
       xlink:href="#rarity"
       id="linearGradient890"
       x1="-2.6402884"
       y1="-0.28470513"
       x2="27.999443"
       y2="31.485357"
       gradientUnits="userSpaceOnUse"
       gradientTransform="translate(0.86219016,2.1660156)" />
    <linearGradient
       xlink:href="#rarity"
       id="linearGradient898"
       x1="-7.0022416"
       y1="16.658928"
       x2="-8.4667625"
       y2="17.025059"
       gradientUnits="userSpaceOnUse"
       gradientTransform="translate(0.86219016,2.1660156)" />
  </defs>
  <path fill="url(#rarity-outline)" d="m 13.196174,0 -0.798828,1.8144531 c -0.06633,0.1507493 -0.98166,1.9764674 -1.015625,2.03125 -0.17373,0.2580977 -0.284036,0.3345815 -0.169922,0.2832031 C 9.7005961,4.6734614 8.2766078,5.2867488 6.936409,5.9980468 L 5.1942214,6.9453125 3.3153152,4.8164062 C 2.9235691,4.3896651 2.3967338,4.1616278 1.8524245,4.1542968 h -0.035156 l -0.035156,0.00195 -0.2207031,0.015625 -0.046875,0.00781 c -0.3275294,0.058493 -0.62976478,0.20513 -0.88476562,0.4218807 l -0.001953,0.00195 h -0.001953 c -0.7997091,0.6884286 -0.8195468,1.9277795 -0.13671888,2.6992188 l 0.32031251,0.3632812 0.0117188,-0.00195 C 0.9478457,7.8038108 1.0888985,7.9580386 1.2703933,8.1601562 1.5617787,8.484651 1.9163886,8.8846618 2.2586746,9.2695312 L 1.1688308,10.462891 2.108284,13.722657 c 0.2690036,1.006666 1.0346568,3.028871 1.5039062,4.359375 l 0.00195,0.0078 0.00391,0.0098 c 0.3089981,0.816716 0.7648966,1.706831 1.4375,2.703125 l 0.089844,0.132812 c -0.1295506,0.0796 -0.642579,0.417947 -0.642579,0.417947 l -0.5,0.296875 0.080078,0.578125 c 0,0 0.2286534,1.862424 0.171875,2.521484 -0.1185849,1.398801 -0.9335937,2.726563 -0.9335937,2.726563 l -1.7792969,2.789062 2.9257813,-1.544921 c 0,0 2.0299315,-1.273761 4.5058593,-3.080079 l 0.2753907,0.304688 c 1.5646721,1.732127 2.9335961,3.110393 3.3300781,3.505859 l 0.613281,0.611328 0.617188,-0.605468 c 0.399604,-0.392506 1.793079,-1.772256 3.376953,-3.509766 l 0.279297,-0.306641 c 2.472772,1.806885 4.498047,3.082032 4.498046,3.082032 l 2.914063,1.541015 -1.765625,-2.783203 c 0,0 -0.814048,-1.339374 -0.931641,-2.730469 v -0.002 c -0.05739,-0.654985 0.166016,-2.527343 0.166016,-2.527343 l 0.08008,-0.576172 -0.501953,-0.296875 c 0,0 -0.544123,-0.381529 -0.617188,-0.425782 l 0.08203,-0.125 c 0.660493,-0.993914 1.099338,-1.898447 1.396484,-2.71289 v -0.002 c 0.507701,-1.404829 1.261509,-3.434195 1.541016,-4.365235 L 25.256721,10.45889 24.17469,9.2713904 c 0.343583,-0.3858089 0.699341,-0.787361 0.990234,-1.1113282 0.22222,-0.2474854 0.413693,-0.4599115 0.548828,-0.609375 0.06757,-0.074732 0.120504,-0.1346414 0.15625,-0.1738281 0.01439,-0.015772 0.0237,-0.025008 0.03125,-0.033203 -0.002,0.00201 -0.0022,2.818e-4 -0.0059,0.00391 -0.0054,0.00538 -0.0334,0.031422 -0.0332,0.03125 9.7e-5,-8.6e-5 -0.05865,0.048871 -0.05859,0.048828 5.9e-5,-4.32e-5 0.128906,-0.1191407 0.128906,-0.1191407 l 0.0039,-0.00391 c 0.684123,-0.771822 0.672073,-2.0102132 -0.126912,-2.6991247 l -0.0059,-0.00391 -0.0039,-0.00391 C 25.455366,4.3079661 25.01689,4.1578757 24.594612,4.1542968 h -0.03516 l -0.0332,0.00195 -0.214843,0.015625 -0.04492,0.00781 C 24.02782,4.2214058 23.84188,4.4037797 23.62977,4.5292911 22.794437,5.1482089 22.196792,5.8586083 21.231337,6.9453068 L 19.493055,5.996088 C 18.184413,5.3896335 16.393079,4.6053706 15.202034,4.1289062 15.313893,4.1790322 15.206134,4.1182702 15.022346,3.8398437 14.678328,3.292986 14.221468,2.3149614 13.998909,1.8125 Z" />
  <path fill="url(#linearGradient898)" d="m 9.8957105,25.359016 c 0.9659995,-0.747 2.0069995,-1.598 3.0679995,-2.575 l 0.251,-0.238 0.265,0.24 c 1.054,0.975 2.091,1.826 3.061,2.571 -1.567,1.719 -2.95,3.088 -3.344,3.475 -0.39,-0.389 -1.751,-1.758 -3.3009995,-3.474 z m -6.862,-12.095 c 0.529,1.828 1.056,3.551 1.403,4.526 0.283,0.748 0.704,1.574 1.344,2.522 0.825,-0.547 1.939,-1.318 3.11,-2.219 -1.704,-1.886 -4.285,-4.985 -4.815,-5.624 z m 18.9309995,4.52 c 0.352,-0.97 0.883,-2.705 1.414,-4.533 l -1.019,-0.783 c -0.532,0.639 -3.121,3.738 -4.821,5.624 1.177,0.904 2.296,1.681 3.122,2.22 0.624,-0.939 1.03,-1.777 1.304,-2.528 z m -8.75,-3.537 c 1.326,-1.318 4.394,-4.4430004 5.042,-5.1030004 l -1.892,-1.55 1.866,-1.094 c -0.943,-0.499 -2.066,-1.05 -3.386,-1.572 -0.212,-0.095 -0.366,-0.321 -0.562,-0.622 -0.402,-0.639 -0.855,-1.623 -1.084,-2.14 -0.121,0.275 -0.886,1.84 -1.072,2.14 -0.195,0.301 -0.345,0.526 -0.556,0.621 -1.316,0.519 -2.4389995,1.071 -3.3809995,1.565 l 1.8789995,1.101 -1.8999995,1.555 c 0.65,0.66 3.7229995,3.7820004 5.0469995,5.1000004 z"/>
  <path fill="url(#linearGradient890)" d="m 13.89171,21.689016 0.324,0.296 c 4.172,3.855 8.158,5.964 8.158,5.964 0,0 -0.923,-1.456 -1.064,-3.124 -0.08,-0.913 0.169,-2.724 0.169,-2.724 0,0 -2.297,-1.357 -4.792,-3.308 -0.908,0.983 -1.858,1.972 -2.794,2.897 z m 9.864,-16.2850004 -0.002,0.02 -2.331,2.623 -1.915,-1.046 -1.265,0.741 1.604,1.318 c 0,0 -6.085,6.2080004 -7.475,7.5040004 -3.2419995,3.061 -7.4219995,5.541 -7.4219995,5.541 0,0 0.256,1.802 0.177,2.719 -0.142,1.675 -1.068,3.124 -1.068,3.124 0,0 3.992,-2.107 8.1629995,-5.957 3.367,-3.09 7.112,-7.538 8.771,-9.561 l 1.197,-1.448 1.649,1.261 0.443,-1.555 -1.286,-1.4110004 c 1.005,-1.136 2.281,-2.553 2.286,-2.553 0.397,-0.448 0.376,-1.093 -0.045,-1.456 -0.189,-0.159 -0.413,-0.237 -0.649,-0.239 l -0.17,0.012 c -0.246,0.043 -0.478,0.165 -0.66,0.363 z m -22.5599995,-0.137 c -0.42400003,0.365 -0.44600003,1.011 -0.053,1.455 0.012,-0.002 1.296,1.428 2.293,2.556 l -1.29,1.4140004 0.447,1.553 1.643,-1.267 1.208,1.45 c 0.951,1.154 2.565,3.087 4.406,5.112 0.6439995,-0.516 2.4159995,-2.132 2.7149995,-2.431 -1.352,-1.326 -5.9789995,-6.0470004 -5.9789995,-6.0470004 l -0.005,10e-4 1.615,-1.317 -1.275,-0.744 -1.922,1.044 -2.318,-2.627 -0.005,0.001 -0.002,-0.012 c -0.223,-0.244 -0.536,-0.374 -0.833,-0.378 l -0.171,0.011 c -0.168,0.03 -0.333,0.108 -0.473,0.227 z"/>
</svg>
