<?xml version="1.0" encoding="UTF-8" standalone="no"?>
<!-- Generated by IcoMoon.io -->

<svg
   version="1.1"
   width="24.704269"
   height="26.666"
   viewBox="0 0 24.704269 26.666"
   id="svg8"
   sodipodi:docname="ktk.svg"
   inkscape:version="1.1.1 (3bf5ae0d25, 2021-09-20)"
   xmlns:inkscape="http://www.inkscape.org/namespaces/inkscape"
   xmlns:sodipodi="http://sodipodi.sourceforge.net/DTD/sodipodi-0.dtd"
   xmlns="http://www.w3.org/2000/svg"
   xmlns:svg="http://www.w3.org/2000/svg">
  <defs
     id="defs12" />
  <sodipodi:namedview
     id="namedview10"
     pagecolor="#ffffff"
     bordercolor="#666666"
     borderopacity="1.0"
     inkscape:pageshadow="2"
     inkscape:pageopacity="0.0"
     inkscape:pagecheckerboard="0"
     showgrid="false"
     inkscape:zoom="25.75"
     inkscape:cx="12.446602"
     inkscape:cy="13.300971"
     inkscape:window-width="1920"
     inkscape:window-height="1009"
     inkscape:window-x="-8"
     inkscape:window-y="-8"
     inkscape:window-maximized="1"
     inkscape:current-layer="svg8" />
  <title
     id="title2">ktk</title>
  <path
     fill="#000000"
     d="m 9.0335203,23.193 c 0.966,-0.747 2.0069997,-1.598 3.0679997,-2.575 l 0.251,-0.238 0.265,0.24 c 1.054,0.975 2.091,1.826 3.061,2.571 -1.567,1.719 -2.95,3.088 -3.344,3.475 -0.39,-0.389 -1.751,-1.758 -3.3009997,-3.474 z m -6.862,-12.095 c 0.529,1.828 1.056,3.551 1.403,4.526 0.283,0.748 0.704,1.574 1.344,2.522 0.825,-0.547 1.939,-1.318 3.11,-2.219 -1.704,-1.886 -4.285,-4.985 -4.815,-5.624 z m 18.9309997,4.52 c 0.352,-0.97 0.883,-2.705 1.414,-4.533 l -1.019,-0.783 c -0.532,0.639 -3.121,3.738 -4.821,5.624 1.177,0.904 2.296,1.681 3.122,2.22 0.624,-0.939 1.03,-1.777 1.304,-2.528 z m -8.75,-3.537 c 1.326,-1.318 4.394,-4.443 5.042,-5.103 l -1.892,-1.55 1.866,-1.094 c -0.943,-0.499 -2.066,-1.05 -3.386,-1.572 -0.212,-0.095 -0.366,-0.321 -0.562,-0.622 -0.402,-0.639 -0.855,-1.623 -1.084,-2.14 -0.121,0.275 -0.886,1.84 -1.072,2.14 -0.195,0.301 -0.345,0.526 -0.556,0.621 C 9.3925203,3.28 8.2695203,3.832 7.3275203,4.326 l 1.879,1.101 -1.9,1.555 c 0.65,0.66 3.7229997,3.782 5.0469997,5.1 z"
     id="path4" />
  <path
     fill="#000000"
     d="m 13.02952,19.523 0.324,0.296 c 4.172,3.855 8.158,5.964 8.158,5.964 0,0 -0.923,-1.456 -1.064,-3.124 -0.08,-0.913 0.169,-2.724 0.169,-2.724 0,0 -2.297,-1.357 -4.792,-3.308 -0.908,0.983 -1.858,1.972 -2.794,2.897 z m 9.864,-16.285 -0.002,0.02 -2.331,2.623 -1.915,-1.046 -1.265,0.741 1.604,1.318 c 0,0 -6.085,6.208 -7.475,7.504 -3.2419997,3.061 -7.4219997,5.541 -7.4219997,5.541 0,0 0.256,1.802 0.177,2.719 -0.142,1.675 -1.068,3.124 -1.068,3.124 0,0 3.992,-2.107 8.1629997,-5.957 3.367,-3.09 7.112,-7.538 8.771,-9.561 l 1.197,-1.448 1.649,1.261 0.443,-1.555 -1.286,-1.411 c 1.005,-1.136 2.281,-2.553 2.286,-2.553 0.397,-0.448 0.376,-1.093 -0.045,-1.456 -0.189,-0.159 -0.413,-0.237 -0.649,-0.239 l -0.17,0.012 c -0.246,0.043 -0.478,0.165 -0.66,0.363 z M 0.33352031,3.101 c -0.424,0.365 -0.446,1.011 -0.053,1.455 0.012,-0.002 1.29599999,1.428 2.29299999,2.556 l -1.29,1.414 0.447,1.553 1.643,-1.267 1.208,1.45 c 0.951,1.154 2.565,3.087 4.406,5.112 0.644,-0.516 2.4159997,-2.132 2.7149997,-2.431 -1.352,-1.326 -5.9789997,-6.047 -5.9789997,-6.047 l -0.005,0.001 1.615,-1.317 -1.275,-0.744 -1.922,1.044 -2.318,-2.627 -0.005,10e-4 -0.002,-0.012 c -0.223,-0.244 -0.536,-0.374 -0.83299999,-0.378 l -0.171,0.011 c -0.168,0.03 -0.333,0.108 -0.473,0.227 z"
     id="path6" />
</svg>
