<?xml version="1.0" encoding="UTF-8" standalone="no"?>
<!-- Generated by IcoMoon.io -->

<svg
   version="1.1"
   width="31.957029"
   height="26.804432"
   viewBox="0 0 31.957029 26.804432"
   id="svg6"
   sodipodi:docname="lea.svg"
   inkscape:version="1.1.1 (3bf5ae0d25, 2021-09-20)"
   xmlns:inkscape="http://www.inkscape.org/namespaces/inkscape"
   xmlns:sodipodi="http://sodipodi.sourceforge.net/DTD/sodipodi-0.dtd"
   xmlns="http://www.w3.org/2000/svg"
   xmlns:svg="http://www.w3.org/2000/svg">
  <defs
     id="defs10" />
  <sodipodi:namedview
     id="namedview8"
     pagecolor="#ffffff"
     bordercolor="#666666"
     borderopacity="1.0"
     inkscape:pageshadow="2"
     inkscape:pageopacity="0.0"
     inkscape:pagecheckerboard="0"
     showgrid="false"
     inkscape:zoom="25.75"
     inkscape:cx="15.941748"
     inkscape:cy="13.378641"
     inkscape:window-width="1920"
     inkscape:window-height="1009"
     inkscape:window-x="-8"
     inkscape:window-y="-8"
     inkscape:window-maximized="1"
     inkscape:current-layer="svg6" />
  <title
     id="title2">lea</title>
  <path
     fill="#000000"
     d="m 22.828491,0 c 0,0 1.688,0.183 1.688,1.929 l 6.266,1.746 c 0,0 1.565,0.604 1.082,2.652 l -5.179,19.335 c 0,0 -1.085,1.447 -2.349,1.084 l -8.356,-2.298 -8.358,2.298 c -1.264,0.363 -2.349,-1.084 -2.349,-1.084 L 0.09149101,6.327 C -0.38850899,4.278 1.176491,3.675 1.176491,3.675 l 6.266,-1.746 c 0,-1.746 1.686,-1.929 1.686,-1.929 z m -0.055,0.724 h -13.592 c -0.077,0.014 -0.32,0.068 -0.546,0.22 -0.323,0.214 -0.472,0.526 -0.472,0.984 v 0.549 c 0,0 -6.647,1.855 -6.744,1.88 -0.175,0.08 -0.69599999,0.395 -0.69599999,1.227 0,0.169 0.023,0.358 0.072,0.573 0.009,0.032 5.05299999,18.859 5.13599999,19.162 0.22,0.252 0.875,0.907 1.494,0.733 l 8.555,-2.355 8.553,2.355 c 0.618,0.174 1.271,-0.48 1.494,-0.733 0.084,-0.303 5.128,-19.131 5.136,-19.162 0.048,-0.215 0.072,-0.404 0.072,-0.573 0,-0.832 -0.524,-1.147 -0.696,-1.227 -0.097,-0.026 -6.747,-1.88 -6.747,-1.88 V 1.928 c 0,-0.458 -0.149,-0.77 -0.469,-0.984 -0.226,-0.152 -0.47,-0.207 -0.549,-0.22 v 0 z m -14.753,2.75 v 18.593 c 0,0 0.158,1.208 1.124,1.208 h 5.219 l -6.987,1.926 c 0,0 -0.401,0.2 -0.604,-0.24 l -5.139,-19.077 c 0,0 -0.203,-0.601 0.281,-0.761 l 6.106,-1.648 z m 15.921,-0.04 6.1,1.648 c 0.483,0.16 0.283,0.761 0.283,0.761 l -5.142,19.077 c -0.198,0.441 -0.601,0.24 -0.601,0.24 l -6.987,-1.929 h 5.221 c 0.962,0 1.125,-1.204 1.125,-1.204 V 3.434 Z m -1.225,-1.806 c 0.281,0 0.32,0.36 0.32,0.36 v 19.998 c 0,0.321 -0.32,0.401 -0.32,0.401 h -13.452 c -0.283,0 -0.283,-0.401 -0.283,-0.401 V 1.988 c 0,-0.24 0.283,-0.36 0.283,-0.36 z m -3.377,4.201 c -0.18,0 -0.734,0.054 -1.662,0.163 -0.928,0.109 -1.746,0.163 -2.457,0.163 -0.47,0 -1.228,-0.027 -2.276,-0.081 -1.048,-0.054 -2.053,-0.111 -3.017,-0.171 0,0.409 0.855,0.656 2.565,0.74 0.349,0.132 0.698,0.259 1.048,0.379 l -1.771,6.593 c 0,-0.012 0.009,-0.066 0.027,-0.162 l 0.006,-0.029 0.022,-0.079 c 0,-0.002 0.002,-0.005 0,-0.006 -0.003,-0.001 -0.006,0.013 -0.01,0.032 -0.005,0.024 -0.008,0.035 -0.011,0.054 -0.24,0.879 -0.476,1.759 -0.71,2.64 -0.319,1.198 -0.536,1.84 -0.65,1.924 -0.114,0.084 -0.232,0.127 -0.352,0.127 -0.108,-0.024 -0.196,-0.042 -0.262,-0.054 -0.066,-0.012 -0.099,0.012 -0.099,0.072 0,0.072 0.018,0.247 0.054,0.524 l 3.45,-0.235 c 0,-0.072 0,-0.169 0,-0.289 0,-0.12 -0.06,-0.199 -0.181,-0.235 -0.277,0.024 -0.554,0.049 -0.831,0.073 -0.241,0 -0.374,-0.093 -0.398,-0.28 -0.024,-0.187 -0.036,-0.364 -0.036,-0.533 0,-0.578 0.084,-1.216 0.253,-1.915 0.169,-0.699 0.337,-1.343 0.505,-1.933 0.133,-0.168 1.024,-0.37 2.674,-0.605 1.65,-0.235 2.529,-0.328 2.637,-0.28 0.108,0.048 0.244,0.617 0.407,1.707 0.163,1.09 0.322,2.171 0.479,3.242 -0.096,0.169 -0.376,0.304 -0.84,0.407 -0.464,0.103 -0.695,0.214 -0.695,0.334 0,0.084 0.06,0.187 0.18,0.307 0.024,0.024 0.148,0.006 0.37,-0.054 0.222,-0.06 0.695,-0.09 1.418,-0.09 0.783,0 1.355,0.027 1.716,0.081 0.361,0.054 0.602,0.081 0.723,0.081 0.132,0 0.319,-0.024 0.56,-0.073 0.048,-0.421 -0.127,-0.632 -0.524,-0.632 -0.397,0 -0.69,-0.063 -0.876,-0.19 -0.187,-0.127 -0.4,-0.804 -0.641,-2.032 -0.241,-1.228 -0.415,-2.24 -0.524,-3.035 -0.085,-0.193 -0.265,-1.021 -0.542,-2.484 -0.277,-1.463 -0.415,-2.466 -0.415,-3.008 0,-0.169 0.009,-0.292 0.027,-0.37 0.018,-0.078 0.22,-0.145 0.605,-0.199 0.385,-0.054 0.662,-0.142 0.831,-0.262 -0.072,-0.217 -0.331,-0.325 -0.777,-0.325 z m -2.927,0.904 c 0.12,0 0.211,0.027 0.271,0.081 0.06,0.054 0.253,0.681 0.578,1.879 0.325,1.198 0.488,2.098 0.488,2.7 -0.638,0.072 -1.346,0.136 -2.123,0.19 -0.777,0.054 -1.46,0.081 -2.05,0.081 -0.349,0 -0.542,-0.018 -0.578,-0.055 -0.012,-0.012 0.123,-0.554 0.406,-1.626 0.283,-1.072 0.569,-2.144 0.858,-3.216 0.289,-0.012 0.596,-0.021 0.921,-0.027 0.325,-0.006 0.626,-0.009 0.903,-0.009 0.096,0 0.205,0 0.325,0 z"
     id="path4" />
</svg>
