<?xml version="1.0" encoding="UTF-8" standalone="no"?>
<svg
   version="1.1"
   width="33.442787"
   height="28.304539"
   viewBox="0 0 33.442787 28.304539"
   id="svg71"
   xmlns="http://www.w3.org/2000/svg"
   xmlns:svg="http://www.w3.org/2000/svg">
  <path
     style="fill:url(#rarity-outline)"
     d="m 9.8310738,0 -0.041016,0.003906 c 0,0 -0.5810664,0.0572179 -1.1601563,0.41992187 C 8.1775473,0.70715344 7.7886945,1.3100224 7.6025582,2.0625 l -5.9179687,1.6503906 -0.035156,0.011719 c 0,0 -0.5766638,0.2243882 -1.0332031,0.7851562 -0.45653927,0.5607681 -0.79673157,1.5216328 -0.51171875,2.7382813 l 0.001953,0.011719 5.22265625,19.4863281 0.087891,0.115234 c 0,0 0.3278938,0.443187 0.8554688,0.832031 0.5275749,0.388845 1.3599432,0.793631 2.3007812,0.523438 l 8.1503904,-2.240235 8.148437,2.240235 c 0.940838,0.270193 1.773207,-0.134593 2.300781,-0.523438 0.527575,-0.388844 0.855469,-0.832031 0.855469,-0.832031 L 28.11623,26.746094 33.33498,7.2597656 33.336933,7.25 C 33.623755,6.0338268 33.285269,5.070861 32.82912,4.5097656 32.372972,3.9486702 31.795917,3.7246094 31.795917,3.7246094 L 31.762714,3.7128906 25.842792,2.0625 C 25.656445,1.3097591 25.266262,0.70707553 24.813495,0.42382812 24.233935,0.06125928 23.653339,0.00390625 23.653339,0.00390625 L 23.612324,0 h -0.04102 z"
     id="path2" />
  <path
     style="fill:url(#rarity)"
     d="m 23.571674,0.75 c 0,0 1.688,0.183 1.688,1.929 l 6.266,1.746 c 0,0 1.565,0.604 1.082,2.652 l -5.179,19.335 c 0,0 -1.085,1.447 -2.349,1.084 l -8.356,-2.298 -8.3579998,2.298 c -1.264,0.363 -2.349,-1.084 -2.349,-1.084 L 0.83467423,7.077 c -0.48,-2.049 1.08499997,-2.652 1.08499997,-2.652 l 6.266,-1.746 c 0,-1.746 1.686,-1.929 1.686,-1.929 z"
     id="path4" />
  <path
     fill="url(#rarity-outline)"
     d="m 17.706491,5.793 c -0.28,0 -0.52,0.023 -0.718,0.07 v 0 c -0.968,0.222 -1.741,0.499 -2.319,0.832 -0.578,0.333 -1.246,0.499 -2.004,0.499 -0.327,0 -0.677,-0.041 -1.05,-0.123 -0.373,-0.082 -0.741,-0.163 -1.103,-0.245 -0.117,0 -0.213,0.05 -0.289,0.149 -0.076,0.099 -0.114,0.19 -0.114,0.271 0,0.129 0.382,0.245 1.146,0.35 0.764,0.105 1.196,0.405 1.295,0.901 0.099,0.496 0.19,1.444 0.271,2.844 0.081,1.4 0.123,2.649 0.123,3.745 0,0.514 -0.012,0.925 -0.035,1.234 -0.023,0.309 -0.058,0.481 -0.105,0.516 l -2.048,0.577 c -0.07,0.058 -0.105,0.111 -0.105,0.158 0,0.07 0.018,0.131 0.053,0.184 0.035,0.053 0.076,0.096 0.123,0.131 l 1.593,-0.28 0.613,-0.035 c 0.502,0 1.053,0.079 1.654,0.236 0.601,0.157 1.106,0.274 1.514,0.35 0.408,0.076 0.864,0.114 1.365,0.114 0.397,0 0.793,-0.035 1.19,-0.105 0.397,-0.07 0.863,-0.21 1.4,-0.42 0.537,-0.21 0.919,-0.581 1.146,-1.111 0.227,-0.53 0.341,-1.117 0.341,-1.759 0,-0.688 -0.277,-1.377 -0.831,-2.065 -0.554,-0.688 -1.263,-1.114 -2.127,-1.278 0.163,-0.116 0.583,-0.408 1.26,-0.875 0.572,-0.525 0.858,-1.161 0.858,-1.908 0,-0.163 -0.041,-0.499 -0.123,-1.006 -0.082,-0.507 -0.417,-0.96 -1.007,-1.356 -0.589,-0.397 -1.246,-0.595 -1.969,-0.595 z m -1.243,1.033 c 0.653,0 1.187,0.207 1.602,0.621 0.415,0.414 0.622,0.925 0.622,1.531 v 0.297 c 0,0.677 -0.257,1.188 -0.77,1.532 -0.513,0.344 -1.068,0.569 -1.663,0.674 0.852,0.374 1.709,0.747 2.573,1.12 0.7,0.432 1.05,1.015 1.05,1.75 0,0.817 -0.096,1.467 -0.289,1.951 -0.193,0.484 -0.502,0.831 -0.927,1.041 -0.426,0.21 -1.018,0.315 -1.777,0.315 -0.432,0 -0.823,-0.047 -1.173,-0.14 -0.35,-0.093 -0.607,-0.242 -0.77,-0.446 -0.163,-0.204 -0.268,-0.435 -0.315,-0.691 -0.047,-0.256 -0.07,-0.642 -0.07,-1.155 0.012,-0.502 0.024,-1.03 0.035,-1.584 0.011,-0.554 0.018,-1.257 0.018,-2.109 0,-0.198 -0.006,-0.508 -0.018,-0.928 -0.012,-0.42 -0.018,-0.735 -0.018,-0.945 0,-0.84 0.096,-1.496 0.289,-1.969 0.193,-0.473 0.592,-0.75 1.199,-0.832 l 0.402,-0.035 z"
     id="path2-1" />
  <path
     style="fill:url(#rarity-outline)"
     d="M 23.516674,1.4740003 H 9.9276742 c -0.08,0.014 -0.32,0.068 -0.549,0.22 -0.32,0.215 -0.472,0.527 -0.472,0.985 v 0.549 c 0,0 -6.647,1.854 -6.744,1.88 -0.172,0.08 -0.696,0.395 -0.696,1.227 0,0.169 0.023,0.358 0.072,0.57 0.012,0.034 5.053,18.8619997 5.136,19.1649997 0.22,0.249 0.875,0.907 1.491,0.73 l 8.5579998,-2.355 8.553,2.355 c 0.618,0.177 1.271,-0.48 1.494,-0.73 0.084,-0.303 5.128,-19.1309997 5.136,-19.1649997 0.048,-0.212 0.072,-0.401 0.072,-0.57 0,-0.832 -0.524,-1.147 -0.696,-1.227 -0.097,-0.026 -6.744,-1.88 -6.744,-1.88 v -0.549 c 0,-0.458 -0.152,-0.77 -0.472,-0.985 -0.226,-0.152 -0.47,-0.206 -0.549,-0.22 v 0 z m -14.7539998,2.716 V 22.783 c 0,0 0.158,1.205 1.124,1.205 h 5.2189998 l -6.9869998,1.929 c 0,0 -0.401,0.2 -0.604,-0.24 l -5.139,-19.0769997 c 0,0 -0.2,-0.601 0.281,-0.761 l 6.106,-1.648 z m 15.9179998,-0.04 6.103,1.648 c 0.483,0.16 0.283,0.761 0.283,0.761 L 25.924674,25.633 c -0.2,0.443 -0.601,0.243 -0.601,0.243 l -6.987,-1.929 h 5.219 c 0.964,0 1.124,-1.204 1.124,-1.204 V 4.1500003 Z m -1.221,-1.806 c 0.28,0 0.32,0.36 0.32,0.36 V 22.702 c 0,0.32 -0.32,0.401 -0.32,0.401 h -13.452 c -0.2829998,0 -0.2829998,-0.401 -0.2829998,-0.401 V 2.7040003 c 0,-0.24 0.2829998,-0.36 0.2829998,-0.36 z"
     id="path6" />
  <defs
     id="defs45">
    <!-- This is the gradient that will actually be used on
     the cards. The colors themselves will be provided by the
     template, but the x values, y values, and offsets will be
     used from the SVG. -->
    <linearGradient
       id="rarity"
       x1="0"
       y1="1"
       x2="1"
       y2="0">
      <stop
         offset="0"
         style="stop-color:rgb(192,55,38);stop-opacity:1"
         id="stop2" />
      <stop
         offset="0.125"
         style="stop-color:rgb(192,55,38);stop-opacity:1"
         id="stop4" />
      <stop
         offset="0.5"
         style="stop-color:rgb(241,142,30);stop-opacity:1"
         id="stop6" />
      <stop
         offset="0.875"
         style="stop-color:rgb(192,55,38);stop-opacity:1"
         id="stop8" />
      <stop
         offset="1"
         style="stop-color:rgb(192,55,38);stop-opacity:1"
         id="stop10" />
    </linearGradient>
    <!-- These gradients are here so that you can visualize
     what the set symbol would like like in that rarity. The
     only gradient that matters in the end is the "rarity"
     gradient. -->
    <linearGradient
       id="mythic"
       x1="0"
       y1="1"
       x2="1"
       y2="0">
      <stop
         offset="0"
         style="stop-color:rgb(192,55,38);stop-opacity:1"
         id="stop13" />
      <stop
         offset="0.125"
         style="stop-color:rgb(192,55,38);stop-opacity:1"
         id="stop15" />
      <stop
         offset="0.5"
         style="stop-color:rgb(241,142,30);stop-opacity:1"
         id="stop17" />
      <stop
         offset="0.875"
         style="stop-color:rgb(192,55,38);stop-opacity:1"
         id="stop19" />
      <stop
         offset="1"
         style="stop-color:rgb(192,55,38);stop-opacity:1"
         id="stop21" />
    </linearGradient>
    <linearGradient
       id="rare"
       x1="0"
       y1="1"
       x2="1"
       y2="0">
      <stop
         offset="0"
         style="stop-color:rgb(146,116,67);stop-opacity:1"
         id="stop24" />
      <stop
         offset="0.125"
         style="stop-color:rgb(146,116,67);stop-opacity:1"
         id="stop26" />
      <stop
         offset="0.5"
         style="stop-color:rgb(211,178,108);stop-opacity:1"
         id="stop28" />
      <stop
         offset="0.875"
         style="stop-color:rgb(146,116,67);stop-opacity:1"
         id="stop30" />
      <stop
         offset="1"
         style="stop-color:rgb(146,116,67);stop-opacity:1"
         id="stop32" />
    </linearGradient>
    <linearGradient
       id="special"
       x1="0"
       y1="1"
       x2="1"
       y2="0">
      <stop
         offset="0"
         style="stop-color:rgb(76, 56, 106);stop-opacity:1"
         id="stop35" />
      <stop
         offset="0.125"
         style="stop-color:rgb(76, 56, 106);stop-opacity:1"
         id="stop37" />
      <stop
         offset="0.5"
         style="stop-color:rgb(201, 173, 221);stop-opacity:1"
         id="stop39" />
      <stop
         offset="0.875"
         style="stop-color:rgb(76, 56, 106);stop-opacity:1"
         id="stop41" />
      <stop
         offset="1"
         style="stop-color:rgb(76, 56, 106);stop-opacity:1"
         id="stop43" />
    </linearGradient>
    <linearGradient
       id="uncommon"
       x1="0"
       y1="1"
       x2="1"
       y2="0">
      <stop
         offset="0"
         style="stop-color:rgb(98,110,119);stop-opacity:1"
         id="stop46" />
      <stop
         offset="0.125"
         style="stop-color:rgb(98,110,119);stop-opacity:1"
         id="stop48" />
      <stop
         offset="0.5"
         style="stop-color:rgb(196,222,238);stop-opacity:1"
         id="stop50" />
      <stop
         offset="0.875"
         style="stop-color:rgb(98,110,119);stop-opacity:1"
         id="stop52" />
      <stop
         offset="1"
         style="stop-color:rgb(98,110,119);stop-opacity:1"
         id="stop54" />
    </linearGradient>
    <linearGradient
       id="common"
       x1="0"
       y1="1"
       x2="1"
       y2="0">
      <stop
         offset="0"
         style="stop-color:rgb(0,0,0);stop-opacity:1"
         id="stop57" />
    </linearGradient>
    <linearGradient
       id="rarity-outline"
       x1="0"
       y1="27.268721"
       x2="27.268721"
       y2="0"
       gradientTransform="scale(0.94847856,1.0543201)"
       gradientUnits="userSpaceOnUse">
      <stop
         offset="0"
         style="stop-color:rgb(0,0,0);stop-opacity:1"
         id="stop60" />
    </linearGradient>
    <linearGradient
       id="rarity-7"
       x1="0.93509442"
       y1="26.325494"
       x2="26.399397"
       y2="0.86119089"
       gradientTransform="scale(0.94620114,1.0568577)"
       gradientUnits="userSpaceOnUse">
      <stop
         offset="0"
         style="stop-color:rgb(192,55,38);stop-opacity:1"
         id="stop2-1" />
      <stop
         offset="0.125"
         style="stop-color:rgb(192,55,38);stop-opacity:1"
         id="stop4-2" />
      <stop
         offset="0.5"
         style="stop-color:rgb(241,142,30);stop-opacity:1"
         id="stop6-6" />
      <stop
         offset="0.875"
         style="stop-color:rgb(192,55,38);stop-opacity:1"
         id="stop8-0" />
      <stop
         offset="1"
         style="stop-color:rgb(192,55,38);stop-opacity:1"
         id="stop10-1" />
    </linearGradient>
  </defs>
</svg>
