<?xml version="1.0" encoding="UTF-8" standalone="no"?>
<svg
   version="1.1"
   width="35.781258"
   height="16.302944"
   viewBox="0 0 35.781257 16.302944"
   id="svg4"
   xmlns="http://www.w3.org/2000/svg"
   xmlns:svg="http://www.w3.org/2000/svg">
  <defs>
    <!-- This is the gradient that will actually be used on
     the cards. The colors themselves will be provided by the
     template, but the x values, y values, and offsets will be
     used from the SVG. -->
    <linearGradient id="rarity" x1="0" y1="1" x2="1" y2="0">
      <stop offset="0" style="stop-color:rgb(192,55,38);stop-opacity:1" id="stop2" />
      <stop offset="0.125" style="stop-color:rgb(192,55,38);stop-opacity:1" id="stop4" />
      <stop offset="0.5" style="stop-color:rgb(241,142,30);stop-opacity:1" id="stop6" />
      <stop offset="0.875" style="stop-color:rgb(192,55,38);stop-opacity:1" id="stop8" />
      <stop offset="1" style="stop-color:rgb(192,55,38);stop-opacity:1" id="stop10" />
    </linearGradient>
    <!-- These gradients are here so that you can visualize
     what the set symbol would like like in that rarity. The
     only gradient that matters in the end is the "rarity"
     gradient. -->
    <linearGradient id="mythic" x1="0" y1="1" x2="1" y2="0">
      <stop offset="0" style="stop-color:rgb(192,55,38);stop-opacity:1"/>
      <stop offset="0.125" style="stop-color:rgb(192,55,38);stop-opacity:1"/>
      <stop offset="0.5" style="stop-color:rgb(241,142,30);stop-opacity:1"/>
      <stop offset="0.875" style="stop-color:rgb(192,55,38);stop-opacity:1"/>
      <stop offset="1" style="stop-color:rgb(192,55,38);stop-opacity:1"/>
    </linearGradient>
    <linearGradient id="rare" x1="0" y1="1" x2="1" y2="0">
      <stop offset="0" style="stop-color:rgb(146,116,67);stop-opacity:1"/>
      <stop offset="0.125" style="stop-color:rgb(146,116,67);stop-opacity:1"/>
      <stop offset="0.5" style="stop-color:rgb(211,178,108);stop-opacity:1"/>
      <stop offset="0.875" style="stop-color:rgb(146,116,67);stop-opacity:1"/>
      <stop offset="1" style="stop-color:rgb(146,116,67);stop-opacity:1"/>
    </linearGradient>
    <linearGradient id="special" x1="0" y1="1" x2="1" y2="0">
      <stop offset="0" style="stop-color:rgb(76, 56, 106);stop-opacity:1"/>
      <stop offset="0.125" style="stop-color:rgb(76, 56, 106);stop-opacity:1"/>
      <stop offset="0.5" style="stop-color:rgb(201, 173, 221);stop-opacity:1"/>
      <stop offset="0.875" style="stop-color:rgb(76, 56, 106);stop-opacity:1"/>
      <stop offset="1" style="stop-color:rgb(76, 56, 106);stop-opacity:1"/>
    </linearGradient>
    <linearGradient id="uncommon" x1="0" y1="1" x2="1" y2="0">
      <stop offset="0" style="stop-color:rgb(98,110,119);stop-opacity:1"/>
      <stop offset="0.125" style="stop-color:rgb(98,110,119);stop-opacity:1"/>
      <stop offset="0.5" style="stop-color:rgb(196,222,238);stop-opacity:1"/>
      <stop offset="0.875" style="stop-color:rgb(98,110,119);stop-opacity:1"/>
      <stop offset="1" style="stop-color:rgb(98,110,119);stop-opacity:1"/>
    </linearGradient>
    <linearGradient id="common" x1="0" y1="1" x2="1" y2="0">
      <stop offset="0" style="stop-color:rgb(0,0,0);stop-opacity:1"/>
    </linearGradient>
    <linearGradient
            id="rarity-outline" x1="0" y1="1" x2="0" y2="1">
      <stop offset="0" style="stop-color:rgb(0,0,0);stop-opacity:1"/>
    </linearGradient>
  </defs>
  <path fill="url(#rarity-outline)" d="M 12.042969 0 L 12.101562 6.1425781 L 9.7285156 5.2597656 C 9.7059357 5.0926122 9.7466238 5.0548063 9.6445312 4.8398438 C 9.416055 4.3587725 8.8391408 3.8426847 7.9589844 3.7578125 C 6.4700213 3.6142339 1.9550781 3.4824219 1.9550781 3.4824219 L 0 3.4238281 L 6.0371094 8.0019531 L 6.0429688 8.0058594 C 6.0429688 8.0058594 6.5166089 8.3596452 7.1621094 8.53125 C 7.4848596 8.617052 7.8714336 8.6641243 8.2792969 8.5605469 C 8.5107099 8.5017789 8.6920823 8.2654208 8.9003906 8.0976562 L 12.132812 9.3378906 C 12.142012 9.5727097 12.157227 9.8659399 12.179688 10.28125 L 7.4707031 12.054688 L 8.4628906 14.882812 L 13.455078 13.21875 C 13.836999 13.574517 15.449667 15.0538 17.583984 16.226562 L 17.724609 16.302734 L 17.884766 16.302734 L 17.886719 16.302734 L 18.052734 16.302734 L 18.193359 16.226562 C 20.329474 15.053831 21.942088 13.574523 22.324219 13.21875 L 27.316406 14.882812 L 28.308594 12.054688 L 23.599609 10.28125 C 23.622149 9.8662638 23.637484 9.5726419 23.646484 9.3378906 L 26.878906 8.0976562 C 27.087215 8.2654208 27.268587 8.5017792 27.5 8.5605469 C 27.907863 8.6641244 28.294437 8.617053 28.617188 8.53125 C 29.262688 8.3596452 29.736328 8.0058594 29.736328 8.0058594 L 29.742188 8.0019531 L 35.78125 3.4238281 L 33.826172 3.4824219 C 33.826172 3.4824219 29.308863 3.6154387 27.820312 3.7578125 C 26.939622 3.8420465 26.363733 4.356778 26.134766 4.8378906 C 26.03215 5.0535092 26.071478 5.0923161 26.048828 5.2597656 L 23.677734 6.1425781 L 23.736328 0.001953125 L 22.564453 1.8261719 C 22.564453 1.8261719 22.200153 2.3935649 21.710938 2.9511719 C 21.466257 3.2299752 21.190362 3.5003481 20.943359 3.6835938 C 20.707565 3.8585236 20.51809 3.9178242 20.447266 3.9238281 C 20.035637 3.8863191 19.778482 3.7341378 19.466797 3.3867188 C 19.14755 3.0308703 18.819428 2.4786759 18.417969 1.8339844 L 17.869141 0.95507812 L 17.347656 1.8476562 C 17.347656 1.8476562 17.016671 2.4129191 16.5625 2.9667969 C 16.335415 3.2437357 16.07763 3.5117553 15.845703 3.6914062 C 15.613776 3.8710571 15.418514 3.9355469 15.357422 3.9355469 C 15.296332 3.9355469 15.082946 3.8668149 14.835938 3.6835938 C 14.588928 3.5003725 14.314839 3.2299504 14.070312 2.9511719 C 13.581257 2.3936148 13.214844 1.8261719 13.214844 1.8261719 L 12.042969 0 z " />
  <path fill="url(#rarity)" d="m 17.884645,15.677944 c -2.304,-1.266 -4.291,-3.163 -4.291,-3.163 l -4.7450005,1.58 -0.586,-1.671 4.5640005,-1.718 c -0.046,-0.586 -0.091,-1.8060003 -0.091,-1.8060003 l -3.8870005,-1.492 c -0.812,1.264 -2.441,0.091 -2.441,0.091 l -4.472,-3.391 c 0,0 4.564,0.137 5.964,0.272 1.4,0.135 1.311,1.354 1.311,1.354 l 3.5260005,1.31 -0.047,-4.88 c 0,0 1.538,2.397 2.667,2.397 1.129,0 2.53,-2.397 2.53,-2.397 h 0.005 c 0,0 1.401,2.397 2.532,2.397 1.128,0 2.667,-2.397 2.667,-2.397 l -0.046,4.88 3.523,-1.31 c 0,0 -0.088,-1.22 1.313,-1.354 1.401,-0.134 5.964,-0.272 5.964,-0.272 l -4.473,3.391 c 0,0 -1.629,1.173 -2.441,-0.091 l -3.887,1.492 c 0,0 -0.044,1.2200003 -0.091,1.8060003 l 4.564,1.718 -0.586,1.671 -4.745,-1.58 c 0,0 -1.988,1.897 -4.294,3.163 h -0.005 z"/>
</svg>
