<?xml version="1.0" encoding="UTF-8" standalone="no"?>
<!-- Generated by IcoMoon.io -->

<svg
   version="1.1"
   width="19.994165"
   height="28.476006"
   viewBox="0 0 19.994165 28.476006"
   id="svg6"
   sodipodi:docname="lrw.svg"
   inkscape:version="1.1.1 (3bf5ae0d25, 2021-09-20)"
   xmlns:inkscape="http://www.inkscape.org/namespaces/inkscape"
   xmlns:sodipodi="http://sodipodi.sourceforge.net/DTD/sodipodi-0.dtd"
   xmlns="http://www.w3.org/2000/svg"
   xmlns:svg="http://www.w3.org/2000/svg">
  <defs
     id="defs10" />
  <sodipodi:namedview
     id="namedview8"
     pagecolor="#ffffff"
     bordercolor="#666666"
     borderopacity="1.0"
     inkscape:pageshadow="2"
     inkscape:pageopacity="0.0"
     inkscape:pagecheckerboard="0"
     showgrid="false"
     inkscape:zoom="25.75"
     inkscape:cx="10.504854"
     inkscape:cy="14.23301"
     inkscape:window-width="1920"
     inkscape:window-height="1009"
     inkscape:window-x="-8"
     inkscape:window-y="-8"
     inkscape:window-maximized="1"
     inkscape:current-layer="svg6" />
  <title
     id="title2">lrw</title>
  <path
     fill="#000000"
     d="m 16.387,13.278417 c 0,0 2.79,1.113 2.97,4.417 0,0 -2.713,-1.052 -3.148,-0.266 0,0 1.499,1.606 0.845,6.414 0,0 -1.362,-1.196 -4.86,-1.196 -2.016,0 -4.209,0.584 -6.35,1.654 -1.927,0.967 -3.38,2.037 -4.361,3.218 -0.802,0.96 -1.16,1.162 -1.373,0.764 -0.061,-0.113 -0.11,-0.655 -0.11,-1.202 0,-0.997 0,-0.997 0.404,-1.508 0.722,-0.911 2.138,-2.089 3.441,-2.856 0.404,-0.239 1.447,-0.701 2.315,-1.025 2.735,-1.027 4.111,-1.78 5.445,-2.988 1.832,-1.658 3.126,-4.267 3.652,-7.36 0.217,-1.287 0.425,-4.6639996 0.278,-4.5269996 -0.043,0.04 -0.303,0.59 -0.572,1.221 -0.982,2.2719996 -2.221,4.2149996 -3.637,5.6919996 -1.38,1.447 -2.514,2.08 -4.377,2.447 -1.052,0.211 -2.218,0.847 -3.135,1.716 -1.266,1.205 -2.128,2.651 -2.799,4.698 l -0.352,1.077 -0.071,-0.459 c -0.04,-0.254 -0.101,-1.102 -0.135,-1.882 -0.146,-3.211 0.597,-6.04 2.113,-8.06 0.875,-1.159 1.799,-1.881 3.692,-2.881 4.698,-2.4869996 8.36,-6.1599996 9.17,-9.2039996 0.08,-0.30000001 0.147,-0.67000001 0.147,-0.82300001 0.003,-0.281 0.199,-0.443 0.388,-0.315 0.159,0.106 1.441,2.19600001 1.847,3.01500001 0.829,1.664 1.532,3.845 1.884,5.842 0.187,1.049 0.325,3.3069996 0.291,4.5269996 0,0 -1.716,-1.159 -3.603,-0.153 z"
     id="path4" />
</svg>
