<?xml version="1.0" encoding="UTF-8" standalone="no"?>
<svg
   version="1.1"
   width="21.996815"
   height="30.443148"
   viewBox="0 0 21.996814 30.443148"
   id="svg4"
   xmlns="http://www.w3.org/2000/svg"
   xmlns:svg="http://www.w3.org/2000/svg">
  <defs>
    <!-- This is the gradient that will actually be used on
     the cards. The colors themselves will be provided by the
     template, but the x values, y values, and offsets will be
     used from the SVG. -->
    <linearGradient id="rarity" x1="0" y1="1" x2="1" y2="0">
      <stop offset="0" style="stop-color:rgb(192,55,38);stop-opacity:1" id="stop2" />
      <stop offset="0.125" style="stop-color:rgb(192,55,38);stop-opacity:1" id="stop4" />
      <stop offset="0.5" style="stop-color:rgb(241,142,30);stop-opacity:1" id="stop6" />
      <stop offset="0.875" style="stop-color:rgb(192,55,38);stop-opacity:1" id="stop8" />
      <stop offset="1" style="stop-color:rgb(192,55,38);stop-opacity:1" id="stop10" />
    </linearGradient>
    <!-- These gradients are here so that you can visualize
     what the set symbol would like like in that rarity. The
     only gradient that matters in the end is the "rarity"
     gradient. -->
    <linearGradient id="mythic" x1="0" y1="1" x2="1" y2="0">
      <stop offset="0" style="stop-color:rgb(192,55,38);stop-opacity:1"/>
      <stop offset="0.125" style="stop-color:rgb(192,55,38);stop-opacity:1"/>
      <stop offset="0.5" style="stop-color:rgb(241,142,30);stop-opacity:1"/>
      <stop offset="0.875" style="stop-color:rgb(192,55,38);stop-opacity:1"/>
      <stop offset="1" style="stop-color:rgb(192,55,38);stop-opacity:1"/>
    </linearGradient>
    <linearGradient id="rare" x1="0" y1="1" x2="1" y2="0">
      <stop offset="0" style="stop-color:rgb(146,116,67);stop-opacity:1"/>
      <stop offset="0.125" style="stop-color:rgb(146,116,67);stop-opacity:1"/>
      <stop offset="0.5" style="stop-color:rgb(211,178,108);stop-opacity:1"/>
      <stop offset="0.875" style="stop-color:rgb(146,116,67);stop-opacity:1"/>
      <stop offset="1" style="stop-color:rgb(146,116,67);stop-opacity:1"/>
    </linearGradient>
    <linearGradient id="special" x1="0" y1="1" x2="1" y2="0">
      <stop offset="0" style="stop-color:rgb(76, 56, 106);stop-opacity:1"/>
      <stop offset="0.125" style="stop-color:rgb(76, 56, 106);stop-opacity:1"/>
      <stop offset="0.5" style="stop-color:rgb(201, 173, 221);stop-opacity:1"/>
      <stop offset="0.875" style="stop-color:rgb(76, 56, 106);stop-opacity:1"/>
      <stop offset="1" style="stop-color:rgb(76, 56, 106);stop-opacity:1"/>
    </linearGradient>
    <linearGradient id="uncommon" x1="0" y1="1" x2="1" y2="0">
      <stop offset="0" style="stop-color:rgb(98,110,119);stop-opacity:1"/>
      <stop offset="0.125" style="stop-color:rgb(98,110,119);stop-opacity:1"/>
      <stop offset="0.5" style="stop-color:rgb(196,222,238);stop-opacity:1"/>
      <stop offset="0.875" style="stop-color:rgb(98,110,119);stop-opacity:1"/>
      <stop offset="1" style="stop-color:rgb(98,110,119);stop-opacity:1"/>
    </linearGradient>
    <linearGradient id="common" x1="0" y1="1" x2="1" y2="0">
      <stop offset="0" style="stop-color:rgb(0,0,0);stop-opacity:1"/>
    </linearGradient>
    <linearGradient
            id="rarity-outline" x1="0" y1="1" x2="0" y2="1">
      <stop offset="0" style="stop-color:rgb(0,0,0);stop-opacity:1"/>
    </linearGradient>
  </defs>
  <path fill="url(#rarity-outline)" d="M 16.793199,9.0364425e-4 C 16.524409,0.01013064 16.257482,0.09004424 16.072495,0.24113802 15.702026,0.54373053 15.584268,0.94639833 15.580308,1.3173099 a 1.0001,1.0001 0 0 0 0,0.00977 c 0,-0.1389389 -0.05021,0.3279335 -0.113281,0.5644531 a 1.0001,1.0001 0 0 0 0,0.00195 c -0.668804,2.5133808 -4.141836,6.1791201 -8.6699221,8.576172 -1.9499391,1.030079 -3.0647897,1.892311 -4.0234375,3.162109 a 1.0001,1.0001 0 0 0 -0.00195,0.0039 c -1.6908991,2.253045 -2.46474959,5.313673 -2.31054681,8.705078 l -0.001953,-0.002 c 0.0348929,0.800484 0.0775816,1.556608 0.14648437,1.99414 l 0.0703125,0.455078 A 1.0001,1.0001 0 0 0 1.293202,25.362178 c -0.1890591,0.198819 -0.51548344,0.363728 -0.66992191,0.558594 a 1.0001,1.0001 0 0 0 -0.001953,0 c -0.20199979,0.2555 -0.42763486,0.532252 -0.53515624,0.933594 -0.10752834,0.401449 -0.08398784,0.696867 -0.08398784,1.195366 0,0.30336 0.0137728,0.597547 0.0371094,0.853516 0.0116683,0.127984 0.0245443,0.244912 0.0449219,0.361328 0.0203776,0.116416 0.001035,0.187881 0.1484375,0.460937 0.12518845,0.233105 0.37662766,0.549306 0.79296879,0.669922 0.4174449,0.120937 0.7988953,-0.0105 1.0390624,-0.144531 0.4803341,-0.268055 0.7616885,-0.613347 1.1875,-1.123047 a 1.0001,1.0001 0 0 0 0.00195,-0.002 c 0.8603236,-1.035721 2.1971165,-2.038373 4.0390625,-2.962891 2.026892,-1.012972 4.0794675,-1.548828 5.9023435,-1.548828 1.226272,0 2.143588,0.156122 2.804688,0.341797 0.220366,0.06189 0.412981,0.127919 0.578125,0.191407 0.330287,0.126976 0.534232,0.230474 0.65625,0.302734 0.122018,0.07226 0.162109,0.113281 0.162109,0.113281 l 1.398438,1.228516 0.251953,-1.845703 c 0.342756,-2.519837 0.128256,-4.271912 -0.208984,-5.425782 -0.04039,-0.138197 -0.08584,-0.189382 -0.128907,-0.310546 0.0077,0.0017 0.0118,1.69e-4 0.01953,0.002 0.639265,0.143755 1.269532,0.382812 1.269532,0.382812 l 1.443359,0.560547 -0.08398,-1.546875 c -0.09074,-1.66552 -0.796671,-2.804395 -1.544922,-3.646484 0.321814,0.114081 0.619141,0.26367 0.619141,0.263671 l 1.507812,1.017579 0.05078,-1.81836 c 0.03706,-1.329667 -0.09105,-3.521066 -0.30664,-4.730469 l 0.002,0.00195 C 21.315936,7.5982512 20.594716,5.3568875 19.711167,3.5829349 v -0.00195 C 19.472382,3.0994969 19.052806,2.3824035 18.652574,1.7294193 18.452298,1.4026675 18.25988,1.0987134 18.099839,0.85832552 18.019819,0.73813157 17.949347,0.63596066 17.881089,0.5438724 17.846959,0.4978283 17.813919,0.4546009 17.771714,0.40520052 17.730384,0.35682842 17.714324,0.30922892 17.529527,0.1844974 h -0.002 C 17.33264,0.05313445 17.061988,-0.00832381 16.793199,9.0364425e-4 Z M 17.580308,1.3270755 v 0.00977 c -8e-6,7.64e-4 -0.0019,0.00313 -0.002,0.00391 2.6e-5,-0.00556 0.002,-0.00806 0.002,-0.013672 z M 15.066636,12.799732 c -0.528245,2.431979 -1.513374,4.51183 -2.857422,5.869141 -0.08996,0.08989 -0.18082,0.177898 -0.273437,0.261719 -1.233646,1.117127 -2.4372637,1.783716 -5.1250002,2.792968 -0.9134017,0.341018 -1.9059378,0.766301 -2.4726563,1.101563 -0.538878,0.317349 -0.9008827,0.786148 -1.4140625,1.179687 l 0.042969,-0.134765 c 0.6354569,-1.93857 1.3982499,-3.199311 2.5390624,-4.285156 0.7852296,-0.74336 1.8280889,-1.295407 2.6386719,-1.458985 2.0014387,-0.394271 3.4379457,-1.19869 4.9062497,-2.738281 0.727192,-0.758668 1.396443,-1.633654 2.015625,-2.587891 z" />
  <path fill="url(#rarity)" d="m 17.389183,14.246118 c 0,0 2.79,1.113 2.97,4.417 0,0 -2.713,-1.052 -3.148,-0.266 0,0 1.499,1.606 0.845,6.414 0,0 -1.362,-1.196 -4.86,-1.196 -2.016,0 -4.209,0.584 -6.35,1.654 -1.927,0.967 -3.38,2.037 -4.361,3.218 -0.802,0.96 -1.16,1.162 -1.373,0.764 -0.061,-0.113 -0.11,-0.655 -0.11,-1.202 0,-0.997 0,-0.997 0.404,-1.508 0.722,-0.911 2.138,-2.089 3.441,-2.856 0.404,-0.239 1.447,-0.701 2.315,-1.025 2.735,-1.027 4.111,-1.78 5.445,-2.988 1.832,-1.658 3.126,-4.267 3.652,-7.36 0.217,-1.287 0.425,-4.6640001 0.278,-4.5270001 -0.043,0.04 -0.303,0.59 -0.572,1.221 -0.982,2.2720001 -2.221,4.2150001 -3.637,5.6920001 -1.38,1.447 -2.514,2.08 -4.377,2.447 -1.052,0.211 -2.218,0.847 -3.135,1.716 -1.266,1.205 -2.128,2.651 -2.799,4.698 l -0.352,1.077 -0.071,-0.459 c -0.04,-0.254 -0.101,-1.102 -0.135,-1.882 -0.146,-3.211 0.597,-6.04 2.113,-8.06 0.875,-1.159 1.799,-1.881 3.692,-2.881 4.698,-2.4870001 8.36,-6.1600001 9.17,-9.2040001 0.08,-0.3 0.147,-0.67 0.147,-0.823 0.003,-0.281 0.199,-0.44299999 0.388,-0.315 0.159,0.106 1.441,2.196 1.847,3.015 0.829,1.664 1.532,3.845 1.884,5.842 0.187,1.0490001 0.325,3.3070001 0.291,4.5270001 0,0 -1.716,-1.159 -3.603,-0.153 z"/>
</svg>
