<?xml version="1.0" encoding="UTF-8" standalone="no"?>
<svg
   version="1.1"
   width="31.502001"
   height="16.832001"
   viewBox="0 0 31.502001 16.832001"
   id="svg4"
   xmlns="http://www.w3.org/2000/svg"
   xmlns:svg="http://www.w3.org/2000/svg">
  <defs>
    <!-- This is the gradient that will actually be used on
     the cards. The colors themselves will be provided by the
     template, but the x values, y values, and offsets will be
     used from the SVG. -->
    <linearGradient id="rarity" x1="0" y1="1" x2="1" y2="0">
      <stop offset="0" style="stop-color:rgb(192,55,38);stop-opacity:1" id="stop2" />
      <stop offset="0.125" style="stop-color:rgb(192,55,38);stop-opacity:1" id="stop4" />
      <stop offset="0.5" style="stop-color:rgb(241,142,30);stop-opacity:1" id="stop6" />
      <stop offset="0.875" style="stop-color:rgb(192,55,38);stop-opacity:1" id="stop8" />
      <stop offset="1" style="stop-color:rgb(192,55,38);stop-opacity:1" id="stop10" />
    </linearGradient>
    <!-- These gradients are here so that you can visualize
     what the set symbol would like like in that rarity. The
     only gradient that matters in the end is the "rarity"
     gradient. -->
    <linearGradient id="mythic" x1="0" y1="1" x2="1" y2="0">
      <stop offset="0" style="stop-color:rgb(192,55,38);stop-opacity:1"/>
      <stop offset="0.125" style="stop-color:rgb(192,55,38);stop-opacity:1"/>
      <stop offset="0.5" style="stop-color:rgb(241,142,30);stop-opacity:1"/>
      <stop offset="0.875" style="stop-color:rgb(192,55,38);stop-opacity:1"/>
      <stop offset="1" style="stop-color:rgb(192,55,38);stop-opacity:1"/>
    </linearGradient>
    <linearGradient id="rare" x1="0" y1="1" x2="1" y2="0">
      <stop offset="0" style="stop-color:rgb(146,116,67);stop-opacity:1"/>
      <stop offset="0.125" style="stop-color:rgb(146,116,67);stop-opacity:1"/>
      <stop offset="0.5" style="stop-color:rgb(211,178,108);stop-opacity:1"/>
      <stop offset="0.875" style="stop-color:rgb(146,116,67);stop-opacity:1"/>
      <stop offset="1" style="stop-color:rgb(146,116,67);stop-opacity:1"/>
    </linearGradient>
    <linearGradient id="special" x1="0" y1="1" x2="1" y2="0">
      <stop offset="0" style="stop-color:rgb(76, 56, 106);stop-opacity:1"/>
      <stop offset="0.125" style="stop-color:rgb(76, 56, 106);stop-opacity:1"/>
      <stop offset="0.5" style="stop-color:rgb(201, 173, 221);stop-opacity:1"/>
      <stop offset="0.875" style="stop-color:rgb(76, 56, 106);stop-opacity:1"/>
      <stop offset="1" style="stop-color:rgb(76, 56, 106);stop-opacity:1"/>
    </linearGradient>
    <linearGradient id="uncommon" x1="0" y1="1" x2="1" y2="0">
      <stop offset="0" style="stop-color:rgb(98,110,119);stop-opacity:1"/>
      <stop offset="0.125" style="stop-color:rgb(98,110,119);stop-opacity:1"/>
      <stop offset="0.5" style="stop-color:rgb(196,222,238);stop-opacity:1"/>
      <stop offset="0.875" style="stop-color:rgb(98,110,119);stop-opacity:1"/>
      <stop offset="1" style="stop-color:rgb(98,110,119);stop-opacity:1"/>
    </linearGradient>
    <linearGradient id="common" x1="0" y1="1" x2="1" y2="0">
      <stop offset="0" style="stop-color:rgb(0,0,0);stop-opacity:1"/>
    </linearGradient>
    <linearGradient
            id="rarity-outline" x1="0" y1="1" x2="0" y2="1">
      <stop offset="0" style="stop-color:rgb(0,0,0);stop-opacity:1"/>
    </linearGradient>
  </defs>
  <path fill="url(#rarity)" d="m 29.477,0.001 c 0.635,1.583 1.363,3.15 1.656,4.843 0.162,0.648 0.224,1.312 0.369,1.962 v 2.869 c -0.13,0.79 -0.187,1.593 -0.377,2.37 -0.116,0.731 -0.389,1.42 -0.591,2.126 -0.319,0.906 -0.682,1.799 -1.107,2.661 H 2.082 C 1.511,15.736 1.098,14.568 0.714,13.398 0.545,12.704 0.313,12.028 0.219,11.319 0.162,10.908 0.099,10.497 0,10.095 v -3 C 0.076,6.615 0.145,6.135 0.199,5.652 0.28,4.885 0.524,4.149 0.731,3.408 1.06,2.234 1.565,1.122 2.033,0 h 27.443 z"/>
  <path fill="url(#rarity-outline)" d="M 28.522,0.992 C 20.244,0.994 11.964,0.992 3.685,0.994 3.348,0.996 3.011,0.977 2.676,1.006 2.513,1.611 2.186,2.153 2.004,2.751 1.738,3.603 1.436,4.451 1.278,5.333 1.093,6.189 1.049,7.068 1.042,7.939 c -0.008,0.884 -0.008,1.77 0.084,2.648 0.076,0.596 0.224,1.177 0.354,1.76 0.152,0.81 0.497,1.561 0.753,2.335 0.167,0.382 0.319,0.765 0.473,1.152 8.697,0.005 17.394,0.005 26.092,0 0.637,-1.573 1.26,-3.175 1.501,-4.866 C 30.484,10.097 30.442,9.203 30.491,8.32 30.447,7.636 30.464,6.944 30.371,6.262 30.265,5.706 30.196,5.142 30.041,4.596 29.938,3.941 29.667,3.331 29.483,2.698 29.278,2.122 29.017,1.568 28.784,1.004 28.696,0.999 28.61,0.992 28.523,0.99 Z M 3.617,1.991 c 8.168,0.008 16.334,-0.005 24.502,0.008 0.157,0.241 0.243,0.519 0.34,0.79 0.212,0.633 0.443,1.258 0.622,1.902 0.111,0.616 0.261,1.225 0.32,1.851 0.152,0.861 0.103,1.737 0.106,2.606 v 0 c 0.005,0.364 -0.052,0.724 -0.101,1.083 -0.054,0.357 -0.066,0.724 -0.142,1.078 -0.081,0.379 -0.192,0.75 -0.29,1.127 -0.174,0.79 -0.492,1.54 -0.788,2.294 -0.02,0.113 -0.147,0.103 -0.236,0.11 -7.939,-0.002 -15.878,0 -23.82,0 C 3.874,14.831 3.608,14.877 3.36,14.808 3.165,14.37 2.988,13.92 2.848,13.459 3.254,13.211 3.734,13.127 4.199,13.06 4.735,13.021 5.282,13.023 5.813,13.117 5.831,12.864 5.831,12.608 5.808,12.354 5.565,12.187 5.21,12.076 5.146,11.746 5.045,11.267 5.234,10.792 5.358,10.334 5.466,9.877 5.71,9.473 5.877,9.037 5.995,8.719 6.261,8.432 6.201,8.072 6.191,7.897 6.012,7.806 5.874,7.732 5.623,7.614 5.362,7.489 5.081,7.459 4.899,7.434 4.757,7.582 4.685,7.729 4.213,8.721 3.952,9.794 3.516,10.8 3.287,11.396 3.006,11.994 2.541,12.442 2.381,12.1 2.354,11.718 2.258,11.359 2.145,10.793 2.076,10.219 2.014,9.651 1.982,8.869 1.987,8.086 2.009,7.301 2.073,6.403 2.265,5.519 2.435,4.638 2.698,3.75 3.001,2.871 3.35,2.012 3.439,2.004 3.527,1.992 3.616,1.99 Z M 5.316,3.147 5.15,3.163 C 4.941,3.316 4.791,3.54 4.646,3.751 4.567,3.852 4.579,4.007 4.7,4.069 4.99,4.21 5.33,4.214 5.62,4.359 5.834,4.435 5.755,4.711 5.745,4.886 5.605,5.435 5.309,5.932 5.172,6.481 5.113,6.754 5.398,6.892 5.595,6.998 5.88,7.133 6.175,7.358 6.51,7.264 6.768,7.057 6.773,6.664 7.014,6.442 c 0.195,-0.15 0.355,0.111 0.485,0.224 0.65,0.771 1.075,1.695 1.464,2.616 0.306,0.665 0.5,1.371 0.719,2.065 0.221,0.721 0.379,1.479 0.31,2.237 0.003,0.116 -0.035,0.244 0.014,0.352 0.254,0.204 0.551,0.342 0.849,0.473 0.33,-0.595 0.777,-1.13 1.354,-1.501 0.251,-0.165 0.541,-0.251 0.805,-0.394 -0.121,-0.854 -0.443,-1.666 -0.753,-2.466 v 0 C 12.076,9.586 12.042,9.078 12.098,8.589 12.137,8.283 12.411,8.089 12.509,7.808 12.59,7.528 12.347,7.316 12.186,7.119 12.026,6.956 11.874,6.728 11.625,6.708 11.413,6.745 11.246,6.895 11.047,6.964 10.923,6.956 10.835,6.856 10.749,6.779 10.129,6.119 9.774,5.265 9.238,4.544 8.937,4.165 8.679,3.734 8.62,3.244 7.906,3.197 7.191,3.219 6.474,3.2 6.197,3.205 5.922,3.16 5.646,3.149 5.535,3.144 5.424,3.148 5.314,3.147 Z m 7.052,-0.262 c -0.163,0.268 -0.338,0.532 -0.495,0.802 0.396,0.271 0.866,0.426 1.24,0.731 0.094,0.079 0.173,0.209 0.113,0.335 -0.111,0.28 -0.278,0.534 -0.448,0.782 -0.133,0.199 -0.332,0.347 -0.462,0.546 -0.094,0.2 -0.025,0.438 0.115,0.598 0.173,0.207 0.34,0.428 0.568,0.576 0.222,0.091 0.426,-0.103 0.643,-0.133 0.155,0.074 0.217,0.254 0.295,0.396 0.401,0.911 0.923,1.767 1.263,2.707 0.175,0.453 0.452,0.948 0.275,1.445 -0.239,0.581 -0.829,0.881 -1.258,1.302 0.19,0.266 0.421,0.5 0.65,0.731 0.278,-0.16 0.537,-0.355 0.847,-0.45 0.852,-0.261 1.76,-0.253 2.636,-0.135 0.566,0.035 1.098,0.258 1.658,0.32 0.116,-0.209 0.241,-0.423 0.263,-0.667 C 20.19,12.599 20.03,12.488 19.882,12.385 19.528,12.149 19.159,11.928 18.839,11.647 18.489,11.32 18.465,10.81 18.327,10.377 18.044,9.459 17.611,8.595 17.245,7.706 16.966,7.01 16.566,6.37 16.228,5.701 16.012,5.251 15.909,4.756 15.849,4.261 15.805,3.928 15.945,3.618 15.972,3.291 15.765,3.166 15.571,3.013 15.35,2.91 15.101,2.947 14.865,3.06 14.609,3.075 14.166,3.1 13.721,3.1 13.278,3.057 12.971,3.03 12.678,2.907 12.368,2.885 Z m 14.318,0.101 c -0.61,0.204 -1.181,0.507 -1.774,0.753 v 0 c -0.362,0.168 -0.753,0.278 -1.078,0.515 -0.01,0.177 -0.013,0.354 0.003,0.532 0.384,0.037 0.767,-0.018 1.152,0.014 0.096,-0.008 0.152,0.086 0.155,0.172 0.098,1.605 0.091,3.212 0.012,4.816 0.106,-0.049 0.205,-0.116 0.276,-0.209 0.295,-0.357 0.635,-0.677 0.987,-0.982 0.099,-0.091 0.229,-0.187 0.214,-0.34 0.013,-0.869 -0.005,-1.738 0.005,-2.604 0.059,-0.888 0.022,-1.779 0.049,-2.667 z m -4.568,0 c -0.61,0.204 -1.181,0.507 -1.774,0.753 v 0 c -0.362,0.168 -0.753,0.278 -1.078,0.515 -0.01,0.177 -0.013,0.354 0.003,0.532 0.384,0.037 0.767,-0.018 1.152,0.014 0.096,-0.008 0.152,0.086 0.155,0.172 0.098,1.605 0.091,3.212 0.012,4.816 C 20.694,9.739 20.793,9.672 20.864,9.579 21.16,9.222 21.499,8.902 21.851,8.597 21.95,8.506 22.08,8.41 22.065,8.257 22.078,7.388 22.06,6.519 22.07,5.653 22.129,4.765 22.092,3.874 22.119,2.985 Z"/>
</svg>
