<?xml version="1.0" encoding="UTF-8" standalone="no"?>
<svg
   version="1.1"
   width="31.500999"
   height="16.799999"
   viewBox="0 0 31.500999 16.799999"
   id="svg4"
   xmlns="http://www.w3.org/2000/svg"
   xmlns:svg="http://www.w3.org/2000/svg">
  <defs>
    <!-- This is the gradient that will actually be used on
     the cards. The colors themselves will be provided by the
     template, but the x values, y values, and offsets will be
     used from the SVG. -->
    <linearGradient id="rarity" x1="0" y1="1" x2="1" y2="0">
      <stop offset="0" style="stop-color:rgb(192,55,38);stop-opacity:1" id="stop2" />
      <stop offset="0.125" style="stop-color:rgb(192,55,38);stop-opacity:1" id="stop4" />
      <stop offset="0.5" style="stop-color:rgb(241,142,30);stop-opacity:1" id="stop6" />
      <stop offset="0.875" style="stop-color:rgb(192,55,38);stop-opacity:1" id="stop8" />
      <stop offset="1" style="stop-color:rgb(192,55,38);stop-opacity:1" id="stop10" />
    </linearGradient>
    <!-- These gradients are here so that you can visualize
     what the set symbol would like like in that rarity. The
     only gradient that matters in the end is the "rarity"
     gradient. -->
    <linearGradient id="mythic" x1="0" y1="1" x2="1" y2="0">
      <stop offset="0" style="stop-color:rgb(192,55,38);stop-opacity:1"/>
      <stop offset="0.125" style="stop-color:rgb(192,55,38);stop-opacity:1"/>
      <stop offset="0.5" style="stop-color:rgb(241,142,30);stop-opacity:1"/>
      <stop offset="0.875" style="stop-color:rgb(192,55,38);stop-opacity:1"/>
      <stop offset="1" style="stop-color:rgb(192,55,38);stop-opacity:1"/>
    </linearGradient>
    <linearGradient id="rare" x1="0" y1="1" x2="1" y2="0">
      <stop offset="0" style="stop-color:rgb(146,116,67);stop-opacity:1"/>
      <stop offset="0.125" style="stop-color:rgb(146,116,67);stop-opacity:1"/>
      <stop offset="0.5" style="stop-color:rgb(211,178,108);stop-opacity:1"/>
      <stop offset="0.875" style="stop-color:rgb(146,116,67);stop-opacity:1"/>
      <stop offset="1" style="stop-color:rgb(146,116,67);stop-opacity:1"/>
    </linearGradient>
    <linearGradient id="special" x1="0" y1="1" x2="1" y2="0">
      <stop offset="0" style="stop-color:rgb(76, 56, 106);stop-opacity:1"/>
      <stop offset="0.125" style="stop-color:rgb(76, 56, 106);stop-opacity:1"/>
      <stop offset="0.5" style="stop-color:rgb(201, 173, 221);stop-opacity:1"/>
      <stop offset="0.875" style="stop-color:rgb(76, 56, 106);stop-opacity:1"/>
      <stop offset="1" style="stop-color:rgb(76, 56, 106);stop-opacity:1"/>
    </linearGradient>
    <linearGradient id="uncommon" x1="0" y1="1" x2="1" y2="0">
      <stop offset="0" style="stop-color:rgb(98,110,119);stop-opacity:1"/>
      <stop offset="0.125" style="stop-color:rgb(98,110,119);stop-opacity:1"/>
      <stop offset="0.5" style="stop-color:rgb(196,222,238);stop-opacity:1"/>
      <stop offset="0.875" style="stop-color:rgb(98,110,119);stop-opacity:1"/>
      <stop offset="1" style="stop-color:rgb(98,110,119);stop-opacity:1"/>
    </linearGradient>
    <linearGradient id="common" x1="0" y1="1" x2="1" y2="0">
      <stop offset="0" style="stop-color:rgb(0,0,0);stop-opacity:1"/>
    </linearGradient>
    <linearGradient
            id="rarity-outline" x1="0" y1="1" x2="0" y2="1">
      <stop offset="0" style="stop-color:rgb(0,0,0);stop-opacity:1"/>
    </linearGradient>
  </defs>
  <path fill="url(#rarity)" d="m 29.408,0 c 1.331,2.473 2.093,5.341 2.093,8.4 0,3.059 -0.762,5.927 -2.093,8.4 H 2.093 C 0.762,14.327 0,11.459 0,8.4 0,5.341 0.762,2.473 2.093,0 Z M 2.837,13.461 2.842,13.475 Z"/>
  <path fill="url(#rarity-outline)" d="M 28.782,0.997 H 2.719 L 2.454,1.583 C 1.488,3.719 0.998,6.012 0.998,8.399 c 0,2.43 0.508,4.761 1.508,6.928 l 0.268,0.579 h 25.954 l 0.268,-0.579 c 1.001,-2.168 1.508,-4.499 1.508,-6.928 0,-2.387 -0.49,-4.681 -1.456,-6.817 L 28.783,0.996 Z m -0.643,0.998 c 0.876,1.936 1.368,4.109 1.368,6.405 0,2.338 -0.51,4.547 -1.416,6.51 H 3.413 C 3.204,14.44 2.996,13.967 2.843,13.475 3.713,12.923 4.812,12.985 5.795,13.09 V 12.407 C 4.929,12.18 4.964,11.322 5.209,10.587 5.455,9.848 5.838,9.16 6.145,8.441 6.252,8.192 6.203,7.99 5.97,7.883 5.748,7.781 5.547,7.67 5.344,7.572 5.057,7.434 4.792,7.608 4.682,7.829 4.25,8.704 4.017,9.621 3.674,10.572 3.414,11.271 3.089,11.978 2.546,12.507 2.165,11.189 2.037,9.793 1.997,8.399 1.997,6.103 2.489,3.93 3.365,1.994 H 28.141 Z M 5.093,3.176 C 4.857,3.425 4.673,3.727 4.603,4.06 5.447,4.165 6.069,4.266 5.767,5.049 5.603,5.476 5.425,5.875 5.242,6.265 5.138,6.487 5.161,6.733 5.417,6.904 5.589,7.018 5.96,7.205 6.152,7.28 6.41,7.381 6.569,7.276 6.651,7.088 6.711,6.95 6.846,6.68 6.914,6.545 7.041,6.292 7.264,6.347 7.421,6.571 8.425,8 9.374,9.996 9.967,12.381 c 0.164,0.66 0.158,1.199 -0.044,1.531 0.29,0.215 0.614,0.366 0.971,0.455 0.421,-0.791 1.152,-1.415 2.144,-1.899 -0.204,-0.812 -0.465,-1.613 -0.805,-2.398 -0.343,-1.104 -0.136,-1.681 0.21,-2.117 0.094,-0.12 0.097,-0.277 0,-0.43 C 12.258,7.231 12.056,7 11.848,6.824 11.701,6.7 11.509,6.674 11.349,6.833 11.255,6.926 11.173,7.032 11.06,7.113 9.922,5.765 8.951,4.322 8.592,3.307 L 5.092,3.176 Z M 15.287,2.854 c -0.403,0.4 -2.004,0.409 -2.837,0 -0.194,0.332 -0.389,0.59 -0.584,0.827 0.521,0.221 0.938,0.477 1.247,0.743 0.206,0.178 0.21,0.37 0.075,0.585 -0.263,0.418 -0.517,0.752 -0.806,1.002 -0.151,0.13 -0.127,0.35 -0.035,0.525 0.202,0.383 0.516,0.625 0.831,0.788 0.261,-0.261 0.522,-0.351 0.674,-0.061 0.557,1.065 0.974,2.145 1.479,3.141 0.441,0.871 0.327,1.471 -0.166,1.873 -0.345,0.281 -0.677,0.514 -0.945,0.788 0.226,0.235 0.464,0.46 0.717,0.674 1.158,-0.945 2.914,-0.894 5.049,-0.21 0.083,-0.254 0.194,-0.499 0.332,-0.735 C 19.57,12.122 18.789,11.96 18.516,11.306 18.371,10.961 18.299,10.262 18.123,9.817 17.545,8.357 17.002,7.264 16.101,5.409 15.697,4.577 15.788,3.768 15.996,3.318 15.694,3.189 15.46,3.034 15.287,2.856 Z m 12.636,0.095 -4.708,0.14 c -0.031,0.514 -0.223,0.935 -0.49,1.313 1.022,-0.136 2.101,-0.176 3.255,-0.087 l -2.678,2.301 0.324,0.586 c 1.436,0.13 2.863,0.269 3.334,1.383 0.041,0.327 0.042,0.653 -0.009,0.98 -0.199,0.319 -0.547,0.593 -1.033,0.849 -0.61,0.321 -1.46,-0.062 -2.056,-0.696 C 23.579,9.61 23.29,9.546 23.056,9.468 l -0.262,0.569 2.721,1.724 c 0.735,-0.678 1.533,-1.262 2.441,-1.68 C 28.066,9.471 28.129,8.845 28.131,8.2 27.685,7.097 26.722,6.581 25.488,6.301 L 27.921,2.95 Z m -6.121,0 c -0.821,0.532 -1.815,0.976 -2.901,1.374 v 0.604 h 1.461 v 5.215 L 21.801,8.703 V 2.95 Z M 2.837,13.461 2.842,13.475 Z"/>
</svg>
