<?xml version="1.0" encoding="UTF-8" standalone="no"?>
<svg
   version="1.1"
   width="31.500999"
   height="16.799999"
   viewBox="0 0 31.500999 16.799999"
   id="svg4"
   xmlns="http://www.w3.org/2000/svg"
   xmlns:svg="http://www.w3.org/2000/svg">
  <defs>
    <!-- This is the gradient that will actually be used on
     the cards. The colors themselves will be provided by the
     template, but the x values, y values, and offsets will be
     used from the SVG. -->
    <linearGradient id="rarity" x1="0" y1="1" x2="1" y2="0">
      <stop offset="0" style="stop-color:rgb(192,55,38);stop-opacity:1" id="stop2" />
      <stop offset="0.125" style="stop-color:rgb(192,55,38);stop-opacity:1" id="stop4" />
      <stop offset="0.5" style="stop-color:rgb(241,142,30);stop-opacity:1" id="stop6" />
      <stop offset="0.875" style="stop-color:rgb(192,55,38);stop-opacity:1" id="stop8" />
      <stop offset="1" style="stop-color:rgb(192,55,38);stop-opacity:1" id="stop10" />
    </linearGradient>
    <!-- These gradients are here so that you can visualize
     what the set symbol would like like in that rarity. The
     only gradient that matters in the end is the "rarity"
     gradient. -->
    <linearGradient id="mythic" x1="0" y1="1" x2="1" y2="0">
      <stop offset="0" style="stop-color:rgb(192,55,38);stop-opacity:1"/>
      <stop offset="0.125" style="stop-color:rgb(192,55,38);stop-opacity:1"/>
      <stop offset="0.5" style="stop-color:rgb(241,142,30);stop-opacity:1"/>
      <stop offset="0.875" style="stop-color:rgb(192,55,38);stop-opacity:1"/>
      <stop offset="1" style="stop-color:rgb(192,55,38);stop-opacity:1"/>
    </linearGradient>
    <linearGradient id="rare" x1="0" y1="1" x2="1" y2="0">
      <stop offset="0" style="stop-color:rgb(146,116,67);stop-opacity:1"/>
      <stop offset="0.125" style="stop-color:rgb(146,116,67);stop-opacity:1"/>
      <stop offset="0.5" style="stop-color:rgb(211,178,108);stop-opacity:1"/>
      <stop offset="0.875" style="stop-color:rgb(146,116,67);stop-opacity:1"/>
      <stop offset="1" style="stop-color:rgb(146,116,67);stop-opacity:1"/>
    </linearGradient>
    <linearGradient id="special" x1="0" y1="1" x2="1" y2="0">
      <stop offset="0" style="stop-color:rgb(76, 56, 106);stop-opacity:1"/>
      <stop offset="0.125" style="stop-color:rgb(76, 56, 106);stop-opacity:1"/>
      <stop offset="0.5" style="stop-color:rgb(201, 173, 221);stop-opacity:1"/>
      <stop offset="0.875" style="stop-color:rgb(76, 56, 106);stop-opacity:1"/>
      <stop offset="1" style="stop-color:rgb(76, 56, 106);stop-opacity:1"/>
    </linearGradient>
    <linearGradient id="uncommon" x1="0" y1="1" x2="1" y2="0">
      <stop offset="0" style="stop-color:rgb(98,110,119);stop-opacity:1"/>
      <stop offset="0.125" style="stop-color:rgb(98,110,119);stop-opacity:1"/>
      <stop offset="0.5" style="stop-color:rgb(196,222,238);stop-opacity:1"/>
      <stop offset="0.875" style="stop-color:rgb(98,110,119);stop-opacity:1"/>
      <stop offset="1" style="stop-color:rgb(98,110,119);stop-opacity:1"/>
    </linearGradient>
    <linearGradient id="common" x1="0" y1="1" x2="1" y2="0">
      <stop offset="0" style="stop-color:rgb(0,0,0);stop-opacity:1"/>
    </linearGradient>
    <linearGradient
            id="rarity-outline" x1="0" y1="1" x2="0" y2="1">
      <stop offset="0" style="stop-color:rgb(0,0,0);stop-opacity:1"/>
    </linearGradient>
  </defs>
  <path fill="url(#rarity)" d="m 29.408,0 c 1.331,2.473 2.093,5.341 2.093,8.4 0,3.059 -0.762,5.928 -2.093,8.4 H 2.093 C 0.762,14.327 0,11.459 0,8.4 0,5.341 0.762,2.472 2.093,0 Z"/>
  <path fill="url(#rarity-outline)" d="M 28.783,0.997 H 2.72 L 2.455,1.583 C 1.489,3.719 0.999,6.012 0.999,8.399 c 0,2.429 0.508,4.761 1.508,6.928 l 0.267,0.58 h 25.954 l 0.267,-0.58 c 1.001,-2.168 1.508,-4.499 1.508,-6.928 0,-2.387 -0.49,-4.681 -1.456,-6.817 L 28.782,0.996 Z m -0.644,0.998 c 0.876,1.937 1.368,4.11 1.368,6.405 0,2.338 -0.51,4.547 -1.417,6.51 H 3.412 C 3.19,14.445 3.012,13.961 2.842,13.476 V 13.475 C 3.734,12.929 4.795,12.989 5.793,13.091 V 12.409 C 4.927,12.181 4.962,11.324 5.207,10.588 5.453,9.849 5.835,9.161 6.143,8.443 6.249,8.194 6.201,7.991 5.968,7.884 5.746,7.783 5.545,7.671 5.342,7.574 5.055,7.436 4.79,7.61 4.68,7.831 4.248,8.706 4.015,9.623 3.672,10.574 3.407,11.263 3.097,11.994 2.544,12.509 v 0 C 2.158,11.174 2.014,9.786 1.995,8.401 1.995,6.105 2.487,3.932 3.363,1.996 H 28.139 Z M 5.093,3.176 C 4.857,3.425 4.673,3.727 4.603,4.06 5.447,4.165 6.068,4.265 5.767,5.048 5.603,5.475 5.425,5.875 5.242,6.265 5.138,6.487 5.161,6.733 5.417,6.903 5.589,7.018 5.96,7.204 6.152,7.279 6.41,7.38 6.569,7.275 6.651,7.087 6.711,6.949 6.846,6.679 6.913,6.544 7.04,6.291 7.262,6.346 7.42,6.57 8.424,8 9.373,9.996 9.966,12.381 c 0.164,0.66 0.158,1.199 -0.044,1.531 0.29,0.215 0.614,0.366 0.971,0.455 0.421,-0.791 1.152,-1.415 2.144,-1.898 -0.203,-0.813 -0.464,-1.613 -0.805,-2.398 -0.343,-1.104 -0.135,-1.681 0.21,-2.118 0.094,-0.119 0.096,-0.278 0,-0.43 C 12.257,7.232 12.056,7 11.847,6.824 11.7,6.7 11.508,6.674 11.348,6.832 11.254,6.926 11.172,7.032 11.059,7.112 9.921,5.765 8.95,4.321 8.591,3.306 L 5.091,3.175 Z M 15.287,2.854 c -0.402,0.4 -2.004,0.409 -2.837,0 -0.194,0.332 -0.388,0.59 -0.584,0.827 0.521,0.221 0.938,0.477 1.247,0.743 0.206,0.178 0.21,0.371 0.075,0.585 -0.263,0.418 -0.517,0.752 -0.805,1.001 -0.15,0.13 -0.127,0.35 -0.035,0.525 0.203,0.383 0.515,0.625 0.831,0.788 0.261,-0.261 0.523,-0.35 0.674,-0.061 0.557,1.065 0.974,2.145 1.479,3.141 0.441,0.871 0.327,1.471 -0.166,1.873 -0.344,0.281 -0.677,0.513 -0.945,0.788 0.226,0.235 0.464,0.459 0.718,0.673 1.158,-0.945 2.914,-0.893 5.049,-0.21 0.083,-0.253 0.194,-0.498 0.332,-0.735 C 19.572,12.121 18.791,11.958 18.518,11.305 18.373,10.96 18.301,10.261 18.125,9.815 17.547,8.355 17.004,7.262 16.103,5.406 15.699,4.574 15.79,3.765 15.998,3.314 15.696,3.185 15.462,3.03 15.289,2.853 v 0 z m 10.94,-0.293 c -0.192,2.597 -3.759,5.906 -3.795,5.861 l 0.633,0.457 c 1.201,-0.156 2.473,-0.231 2.999,-0.256 0.077,0.639 -0.035,2.181 -0.105,2.782 0.93,-0.508 1.683,-0.423 1.683,-0.423 0,0 -0.177,-1.748 -0.107,-2.338 0.311,-0.027 0.37,-0.05 0.822,0.068 0.229,-0.357 0.578,-1.056 0.578,-1.056 L 28.644,7.28 28.367,7.525 H 27.564 C 27.592,5.579 27.368,4.386 27.699,3.373 L 26.228,2.561 Z m -0.128,2.895 v 0 c 0.026,0.734 0.029,0.631 0.018,1.575 -0.002,0.175 -0.012,0.35 -0.018,0.525 0,0 -1.375,0.085 -1.588,0.011 0.61,-0.639 1.11,-1.371 1.588,-2.111 z M 21.802,2.948 C 20.981,3.48 19.987,3.924 18.901,4.322 v 0.604 h 1.461 v 5.215 l 1.44,-1.439 z"/>
</svg>
