<?xml version="1.0" encoding="UTF-8" standalone="no"?>
<!-- Generated by IcoMoon.io -->

<svg
   version="1.1"
   width="31.500002"
   height="16.799999"
   viewBox="0 0 31.500002 16.799999"
   id="svg6"
   sodipodi:docname="m15.svg"
   inkscape:version="1.1.1 (3bf5ae0d25, 2021-09-20)"
   xmlns:inkscape="http://www.inkscape.org/namespaces/inkscape"
   xmlns:sodipodi="http://sodipodi.sourceforge.net/DTD/sodipodi-0.dtd"
   xmlns="http://www.w3.org/2000/svg"
   xmlns:svg="http://www.w3.org/2000/svg">
  <defs
     id="defs10" />
  <sodipodi:namedview
     id="namedview8"
     pagecolor="#ffffff"
     bordercolor="#666666"
     borderopacity="1.0"
     inkscape:pageshadow="2"
     inkscape:pageopacity="0.0"
     inkscape:pagecheckerboard="0"
     showgrid="false"
     inkscape:zoom="25.75"
     inkscape:cx="15.747573"
     inkscape:cy="8.368932"
     inkscape:window-width="1920"
     inkscape:window-height="1009"
     inkscape:window-x="-8"
     inkscape:window-y="-8"
     inkscape:window-maximized="1"
     inkscape:current-layer="svg6" />
  <title
     id="title2">m15</title>
  <path
     fill="#000000"
     d="m 29.405001,0 c 0,0 2.095,4.174 2.095,8.4 0,4.226 -2.095,8.4 -2.095,8.4 H 2.0310015 c 0,0 -2.03300003,-4.16 -2.0310000253155,-8.398 C -0.00199853,4.16 2.0310015,0 2.0310015,0 Z M 2.7220015,1.011 c -1.117,2.57 -1.7,4.554 -1.701,7.386 0,2.835 0.587,4.813 1.7,7.389 l 26.0669995,0.001 c 1.116,-2.574 1.704,-4.555 1.704,-7.39 0.001,-2.831 -0.587,-4.813 -1.703,-7.384 L 2.7220015,1.012 Z m 0.637,0.969 24.7899995,0.002 c 0.914,2.17 1.369,4.005 1.371,6.417 -0.003,2.412 -0.457,4.242 -1.371,6.416 L 3.3640015,14.813 c -0.203,-0.477 -0.382,-0.937 -0.539,-1.393 0.898,-0.467 2.004,-0.505 2.99,-0.352 l 10e-4,-0.738 -0.228,-0.091 c -0.061,-0.036 -0.157,-0.095 -0.269,-0.199 -0.677,-0.61 0.509,-2.887 0.822,-3.59 0.154,-0.404 -0.007,-0.592 -0.264,-0.704 l -0.521,-0.235 c -0.232,-0.133 -0.528,-0.131 -0.65,0.212 -0.406,0.779 -0.637,1.63 -0.938,2.454 -0.335,0.894 -0.607,1.637 -1.247,2.262 -0.351,-1.269 -0.526,-2.544 -0.523,-4.044 0,-2.407 0.448,-4.241 1.363,-6.415 z m 1.767,1.155 -0.287,0.368 -0.196,0.263 c -0.085,0.117 0.03,0.338 0.245,0.376 l 0.277,0.057 c 0.226,0.053 0.445,0.117 0.551,0.187 0.244,0.156 -0.338,1.547 -0.434,1.797 -0.232,0.414 -0.076,0.603 0.231,0.756 l 0.532,0.25 c 0.336,0.149 0.57,0.052 0.691,-0.27 l 0.118,-0.267 c 0.055,-0.099 0.1,-0.179 0.142,-0.228 l 0.169,-0.055 c 1.178,0.662 3.0929995,5.567 2.8399995,7.239 l -0.070999,0.271 0.9279995,0.519 c 0.365,-0.793 1.311,-1.71 2.187,-1.868 -0.113,-0.569 -0.267,-1.102 -0.463,-1.639 -0.305,-0.84 -0.867,-2.026 -0.234,-2.841 0.171,-0.208 0.272,-0.476 0.014,-0.74 l -0.413,-0.462 c -0.213,-0.196 -0.491,-0.185 -0.713,0.024 l -0.182,0.146 c -0.706,-0.511 -1.0589995,-1.335 -1.5269995,-2.062 -0.353,-0.535 -0.858,-1.061 -0.886,-1.726 l -3.519,-0.097 z m 7.2759995,-0.285 -0.55,0.851 c 0.28,0.142 1.598,0.685 1.419,1.039 -0.415,0.798 -0.701,1.077 -0.822,1.183 -0.219,0.2 -0.235,0.474 -0.008,0.747 l 0.37,0.41 c 0.242,0.241 0.444,0.206 0.683,0.045 0.094,-0.046 0.22,-0.102 0.351,0.163 0.545,1.137 1.363,2.625 1.68,3.815 0.212,0.789 -0.842,1.433 -1.322,1.843 l 0.678,0.737 c 1.343,-1.071 3.715,-0.692 5.125,-0.232 l 0.287,-0.682 c -0.126,-0.16 -0.251,-0.291 -0.417,-0.414 l -0.396,-0.269 c -0.274,-0.181 -0.524,-0.344 -0.691,-0.523 -0.284,-0.31 -0.314,-0.598 -0.405,-0.997 -0.223,-0.948 -1.463,-3.646 -1.896,-4.392 -0.534,-0.936 -0.801,-2.037 -0.53,-2.717 l 0.033,-0.171 -0.652,-0.377 c -0.709,0.311 -2.198,0.243 -2.935,-0.06 z m 15.238,-0.311 -0.035,0.051 -0.344,0.499 -3.256,0.002 -0.011,0.104 -0.441,4.011 h 0.13 c 2.239,0.004 3.06,0.899 3.189,1.63 l 0.019,0.211 c -0.009,0.657 -0.33,1.06 -0.927,1.172 -0.093,0.016 -0.192,0.025 -0.298,0.025 -0.66,-0.006 -1.119,-0.391 -1.229,-0.995 -0.015,-0.084 -0.022,-0.173 -0.022,-0.266 V 8.896 l -0.202,-0.06 -0.048,0.072 -0.879,1.314 0.067,0.068 c 0.52,0.53 1.28,0.849 2.124,0.845 0.241,10e-4 0.466,-0.019 0.677,-0.056 1.415,-0.244 2.13,-1.308 2.125,-2.5 0,-0.16 -0.014,-0.322 -0.042,-0.481 -0.219,-1.261 -1.354,-2.372 -3.57,-2.434 l 0.118,-1.182 3.08,-0.002 V 4.363 2.543 l -0.225,-0.001 z m -5.903,0.439 -0.034,0.031 c -0.67,0.614 -1.849,1.24 -2.536,1.403 l -0.088,0.021 -0.001,0.09 -0.003,0.229 1.158,-10e-4 0.002,5.544 -1.156,0.42 -0.001,0.08 -0.002,0.11 -0.001,0.118 h 4.087 l 0.003,-0.114 0.005,-0.203 -0.094,-0.021 c -0.59,-0.137 -0.908,-0.416 -1.025,-1.039 -0.025,-0.141 -0.038,-0.3 -0.037,-0.478 l -0.003,-6.188 -0.115,-0.002 -0.157,-0.002 z"
     id="path4" />
</svg>
