<?xml version="1.0" encoding="UTF-8" standalone="no"?>
<!-- Generated by IcoMoon.io -->

<svg
   version="1.1"
   width="32.000229"
   height="13.371"
   viewBox="0 0 32.000229 13.371"
   id="svg6"
   sodipodi:docname="m19.svg"
   inkscape:version="1.1.1 (3bf5ae0d25, 2021-09-20)"
   xmlns:inkscape="http://www.inkscape.org/namespaces/inkscape"
   xmlns:sodipodi="http://sodipodi.sourceforge.net/DTD/sodipodi-0.dtd"
   xmlns="http://www.w3.org/2000/svg"
   xmlns:svg="http://www.w3.org/2000/svg">
  <defs
     id="defs10" />
  <sodipodi:namedview
     id="namedview8"
     pagecolor="#ffffff"
     bordercolor="#666666"
     borderopacity="1.0"
     inkscape:pageshadow="2"
     inkscape:pageopacity="0.0"
     inkscape:pagecheckerboard="0"
     showgrid="false"
     inkscape:zoom="25.75"
     inkscape:cx="15.980583"
     inkscape:cy="6.6601942"
     inkscape:window-width="1920"
     inkscape:window-height="1009"
     inkscape:window-x="-8"
     inkscape:window-y="-8"
     inkscape:window-maximized="1"
     inkscape:current-layer="svg6" />
  <title
     id="title2">m19</title>
  <path
     fill="#000000"
     d="M 1.4702998,0 C 11.1473,0.01 20.8253,-0.005 30.5023,0.007 c 0.677,1.657 1.193,3.388 1.399,5.17 0.372,2.799 -0.351,5.607 -1.401,8.186 -9.676,0.016 -19.352,0 -29.0290002,0.008 C 0.24429976,10.416 -0.40770024,7.097 0.27829976,3.926 0.53729976,2.58 0.93229976,1.261 1.4702998,0 Z m 4.902,1.485 c -1.283,0.02 -0.734,0.002 -1.65,0.039 0.547,0.303 1.187,0.523 1.541,1.073 0.146,0.267 0.068,0.6 -0.039,0.87 -0.893,1.982 -1.758,3.975 -2.647,5.958 -0.393,0.786 -0.964,1.467 -1.593,2.074 1.618,0.05 3.238,0.038 4.856,0.002 -0.451,-0.387 -0.973,-0.718 -1.256,-1.261 -0.227,-0.352 -0.182,-0.808 -0.013,-1.175 0.54,-1.247 1.099,-2.487 1.651,-3.729 0.037,-0.003 0.112,-0.008 0.15,-0.011 0.798,1.877 1.548,3.774 2.329,5.658 0.172,0.42 0.3210002,0.854 0.5520002,1.247 1.042,-2.289 2.041,-4.598 3.065,-6.895 0.037,-0.002 0.112,-0.006 0.149,-0.008 0.582,1.313 1.089,2.658 1.652,3.98 0.202,0.455 0.308,0.996 0.104,1.469 -0.16,0.293 -0.433,0.499 -0.66,0.738 1.799,0.011 3.599,0.038 5.398,-0.018 -0.598,-0.607 -1.146,-1.283 -1.47,-2.079 -0.827,-2.023 -1.652,-4.048 -2.485,-6.069 -0.129,-0.357 -0.266,-0.753 -0.121,-1.127 0.135,-0.307 0.436,-0.495 0.669,-0.723 -1.671,-0.011 -3.343,-0.03 -5.014,0.013 0.362,0.265 0.786,0.491 0.985,0.915 0.081,0.389 -0.074,0.766 -0.233,1.113 -0.386,0.833 -0.741,1.68 -1.131,2.511 -0.037,-0.003 -0.112,-0.009 -0.149,-0.012 -0.406,-0.98 -0.803,-1.963 -1.2070002,-2.945 -0.226,-0.537 -0.419,-1.089 -0.684,-1.609 -1.65,0.007 -0.733,0.005 -2.751,-10e-4 z M 22.8493,1.402 h -0.107 q -0.503,0.455 -1.267,0.87 -0.764,0.415 -1.315,0.554 v 0.113 h 1.13 l 0.021,0.032 v 5.693 l -1.151,0.418 v 0.107 h 3.84 V 9.082 Q 23.4163,8.954 23.1323,8.568 22.8483,8.182 22.8483,7.454 V 1.403 Z m 4.048,0 q -0.645,0 -1.215,0.328 -0.57,0.328 -0.922,0.906 -0.352,0.578 -0.351,1.265 0,1.02 0.602,1.677 0.602,0.657 1.579,0.658 h 0.38 l 0.972,-0.386 q -0.18,1.469 -0.919,2.184 -0.739,0.715 -2.055,0.726 v 0.428 q 0.792,0 1.492,-0.177 0.7,-0.177 1.294,-0.547 0.594,-0.37 1.022,-0.906 0.428,-0.536 0.668,-1.294 0.24,-0.758 0.24,-1.672 0,-0.676 -0.161,-1.226 -0.161,-0.55 -0.431,-0.909 -0.27,-0.359 -0.634,-0.602 Q 28.0943,1.612 27.7053,1.506 27.3163,1.4 26.8943,1.4 Z m -0.022,0.539 q 0.565,0 0.851,0.679 0.286,0.679 0.285,2.19 0,0.28 -0.048,0.887 h -0.602 q -0.729,0 -1.056,-0.526 -0.327,-0.526 -0.328,-1.672 0,-0.391 0.098,-0.74 0.098,-0.349 0.306,-0.584 0.208,-0.235 0.494,-0.235 z"
     id="path4" />
</svg>
