<?xml version="1.0" encoding="UTF-8" standalone="no"?>
<svg
   version="1.1"
   width="33.750153"
   height="15.121094"
   viewBox="0 0 33.750153 15.121093"
   id="svg4"
   xmlns="http://www.w3.org/2000/svg"
   xmlns:svg="http://www.w3.org/2000/svg">
  <defs>
    <!-- This is the gradient that will actually be used on
     the cards. The colors themselves will be provided by the
     template, but the x values, y values, and offsets will be
     used from the SVG. -->
    <linearGradient id="rarity" x1="0" y1="0.45" x2="1" y2="0.65">
      <stop offset="0" style="stop-color:rgb(192,55,38);stop-opacity:1" id="stop2" />
      <stop offset="0.125" style="stop-color:rgb(192,55,38);stop-opacity:1" id="stop4" />
      <stop offset="0.5" style="stop-color:rgb(241,142,30);stop-opacity:1" id="stop6" />
      <stop offset="0.875" style="stop-color:rgb(192,55,38);stop-opacity:1" id="stop8" />
      <stop offset="1" style="stop-color:rgb(192,55,38);stop-opacity:1" id="stop10" />
    </linearGradient>
    <!-- These gradients are here so that you can visualize
     what the set symbol would like like in that rarity. The
     only gradient that matters in the end is the "rarity"
     gradient. -->
    <linearGradient id="mythic" x1="0" y1="1" x2="1" y2="0">
      <stop offset="0" style="stop-color:rgb(192,55,38);stop-opacity:1"/>
      <stop offset="0.125" style="stop-color:rgb(192,55,38);stop-opacity:1"/>
      <stop offset="0.5" style="stop-color:rgb(241,142,30);stop-opacity:1"/>
      <stop offset="0.875" style="stop-color:rgb(192,55,38);stop-opacity:1"/>
      <stop offset="1" style="stop-color:rgb(192,55,38);stop-opacity:1"/>
    </linearGradient>
    <linearGradient id="rare" x1="0" y1="1" x2="1" y2="0">
      <stop offset="0" style="stop-color:rgb(146,116,67);stop-opacity:1"/>
      <stop offset="0.125" style="stop-color:rgb(146,116,67);stop-opacity:1"/>
      <stop offset="0.5" style="stop-color:rgb(211,178,108);stop-opacity:1"/>
      <stop offset="0.875" style="stop-color:rgb(146,116,67);stop-opacity:1"/>
      <stop offset="1" style="stop-color:rgb(146,116,67);stop-opacity:1"/>
    </linearGradient>
    <linearGradient id="special" x1="0" y1="1" x2="1" y2="0">
      <stop offset="0" style="stop-color:rgb(76, 56, 106);stop-opacity:1"/>
      <stop offset="0.125" style="stop-color:rgb(76, 56, 106);stop-opacity:1"/>
      <stop offset="0.5" style="stop-color:rgb(201, 173, 221);stop-opacity:1"/>
      <stop offset="0.875" style="stop-color:rgb(76, 56, 106);stop-opacity:1"/>
      <stop offset="1" style="stop-color:rgb(76, 56, 106);stop-opacity:1"/>
    </linearGradient>
    <linearGradient id="uncommon" x1="0" y1="1" x2="1" y2="0">
      <stop offset="0" style="stop-color:rgb(98,110,119);stop-opacity:1"/>
      <stop offset="0.125" style="stop-color:rgb(98,110,119);stop-opacity:1"/>
      <stop offset="0.5" style="stop-color:rgb(196,222,238);stop-opacity:1"/>
      <stop offset="0.875" style="stop-color:rgb(98,110,119);stop-opacity:1"/>
      <stop offset="1" style="stop-color:rgb(98,110,119);stop-opacity:1"/>
    </linearGradient>
    <linearGradient id="common" x1="0" y1="1" x2="1" y2="0">
      <stop offset="0" style="stop-color:rgb(0,0,0);stop-opacity:1"/>
    </linearGradient>
    <linearGradient
            id="rarity-outline" x1="0" y1="1" x2="0" y2="1">
      <stop offset="0" style="stop-color:rgb(0,0,0);stop-opacity:1"/>
    </linearGradient>
  </defs>
  <path fill="url(#rarity-outline)" d="M 1.7667492,0 1.5401867,0.53125 C 0.97804851,1.8488266 0.56818828,3.223292 0.29799919,4.6230469 -0.43614703,8.026887 0.26532128,11.51646 1.5382336,14.582031 l 0.2226562,0.539063 h 0.5859375 c 9.6755437,-0.008 19.3513777,0.0082 29.0292967,-0.0078 l 0.587891,-0.002 0.220703,-0.542969 C 33.264752,11.915623 34.043464,8.962818 33.643702,5.9433594 33.425367,4.0629235 32.884485,2.2587241 32.186671,0.55078125 L 31.964015,0.0078125 H 31.378077 C 21.699459,-0.00418951 12.020358,0.00999843 2.3448742,0 Z" />
  <path fill="url(#rarity)" d="M 2.3444709,0.875 C 12.021471,0.885 21.699471,0.87 31.376471,0.882 c 0.677,1.657 1.193,3.388 1.399,5.17 0.372,2.799 -0.351,5.607 -1.401,8.186 -9.676,0.016 -19.352,0 -29.0290001,0.008 C 1.1184708,11.291 0.46647083,7.972 1.1524708,4.801 c 0.259,-1.346 0.654,-2.665 1.1920001,-3.926 z m 4.902,1.485 c -1.283,0.02 -0.734,0.002 -1.65,0.039 0.547,0.303 1.187,0.523 1.541,1.073 0.146,0.267 0.068,0.6 -0.039,0.87 -0.893,1.982 -1.758,3.975 -2.647,5.958 -0.393,0.786 -0.964,1.467 -1.593,2.074 1.618,0.05 3.238,0.038 4.856,0.002 -0.451,-0.387 -0.973,-0.718 -1.256,-1.261 -0.227,-0.352 -0.182,-0.808 -0.013,-1.175 0.54,-1.247 1.099,-2.487 1.651,-3.729 0.037,-0.003 0.112,-0.008 0.15,-0.011 0.798,1.877 1.548,3.774 2.3290001,5.658 0.172,0.42 0.321,0.854 0.552,1.247 1.042,-2.289 2.041,-4.598 3.065,-6.895 0.037,-0.002 0.112,-0.006 0.149,-0.008 0.582,1.313 1.089,2.658 1.652,3.98 0.202,0.455 0.308,0.996 0.104,1.469 -0.16,0.293 -0.433,0.499 -0.66,0.738 1.799,0.011 3.599,0.038 5.398,-0.018 -0.598,-0.607 -1.146,-1.283 -1.47,-2.079 -0.827,-2.023 -1.652,-4.048 -2.485,-6.069 -0.129,-0.357 -0.266,-0.753 -0.121,-1.127 0.135,-0.307 0.436,-0.495 0.669,-0.723 -1.671,-0.011 -3.343,-0.03 -5.014,0.013 0.362,0.265 0.786,0.491 0.985,0.915 0.081,0.389 -0.074,0.766 -0.233,1.113 -0.386,0.833 -0.741,1.68 -1.131,2.511 -0.037,-0.003 -0.112,-0.009 -0.149,-0.012 -0.406,-0.98 -0.803,-1.963 -1.207,-2.945 -0.226,-0.537 -0.419,-1.089 -0.6840001,-1.609 -1.65,0.007 -0.733,0.005 -2.751,-10e-4 z M 23.723471,2.277 h -0.107 q -0.503,0.455 -1.267,0.87 -0.764,0.415 -1.315,0.554 v 0.113 h 1.13 l 0.021,0.032 v 5.693 l -1.151,0.418 v 0.107 h 3.84 V 9.957 q -0.584,-0.128 -0.868,-0.514 -0.284,-0.386 -0.284,-1.114 V 2.278 Z m 4.048,0 q -0.645,0 -1.215,0.328 -0.57,0.328 -0.922,0.906 -0.352,0.578 -0.351,1.265 0,1.02 0.602,1.677 0.602,0.657 1.579,0.658 h 0.38 l 0.972,-0.386 q -0.18,1.469 -0.919,2.184 -0.739,0.715 -2.055,0.726 v 0.428 q 0.792,0 1.492,-0.177 0.7,-0.177 1.294,-0.547 0.594,-0.37 1.022,-0.906 0.428,-0.536 0.668,-1.294 0.24,-0.758 0.24,-1.672 0,-0.676 -0.161,-1.226 -0.161,-0.55 -0.431,-0.909 -0.27,-0.359 -0.634,-0.602 -0.364,-0.243 -0.753,-0.349 -0.389,-0.106 -0.811,-0.106 z m -0.022,0.539 q 0.565,0 0.851,0.679 0.286,0.679 0.285,2.19 0,0.28 -0.048,0.887 h -0.602 q -0.729,0 -1.056,-0.526 -0.327,-0.526 -0.328,-1.672 0,-0.391 0.098,-0.74 0.098,-0.349 0.306,-0.584 0.208,-0.235 0.494,-0.235 z"/>
</svg>
