<?xml version="1.0" encoding="UTF-8" standalone="no"?>
<svg
   version="1.1"
   width="26.205078"
   height="32.585938"
   viewBox="0 0 26.205078 32.585937"
   id="svg4"
   xmlns="http://www.w3.org/2000/svg"
   xmlns:svg="http://www.w3.org/2000/svg">
  <defs>
    <!-- This is the gradient that will actually be used on
     the cards. The colors themselves will be provided by the
     template, but the x values, y values, and offsets will be
     used from the SVG. -->
    <linearGradient id="rarity" x1="0" y1="0" x2="1" y2="1">
      <stop offset="0" style="stop-color:rgb(192,55,38);stop-opacity:1" id="stop2" />
      <stop offset="0.125" style="stop-color:rgb(192,55,38);stop-opacity:1" id="stop4" />
      <stop offset="0.5" style="stop-color:rgb(241,142,30);stop-opacity:1" id="stop6" />
      <stop offset="0.875" style="stop-color:rgb(192,55,38);stop-opacity:1" id="stop8" />
      <stop offset="1" style="stop-color:rgb(192,55,38);stop-opacity:1" id="stop10" />
    </linearGradient>
    <!-- These gradients are here so that you can visualize
     what the set symbol would like like in that rarity. The
     only gradient that matters in the end is the "rarity"
     gradient. -->
    <linearGradient id="mythic" x1="0" y1="1" x2="1" y2="0">
      <stop offset="0" style="stop-color:rgb(192,55,38);stop-opacity:1"/>
      <stop offset="0.125" style="stop-color:rgb(192,55,38);stop-opacity:1"/>
      <stop offset="0.5" style="stop-color:rgb(241,142,30);stop-opacity:1"/>
      <stop offset="0.875" style="stop-color:rgb(192,55,38);stop-opacity:1"/>
      <stop offset="1" style="stop-color:rgb(192,55,38);stop-opacity:1"/>
    </linearGradient>
    <linearGradient id="rare" x1="0" y1="1" x2="1" y2="0">
      <stop offset="0" style="stop-color:rgb(146,116,67);stop-opacity:1"/>
      <stop offset="0.125" style="stop-color:rgb(146,116,67);stop-opacity:1"/>
      <stop offset="0.5" style="stop-color:rgb(211,178,108);stop-opacity:1"/>
      <stop offset="0.875" style="stop-color:rgb(146,116,67);stop-opacity:1"/>
      <stop offset="1" style="stop-color:rgb(146,116,67);stop-opacity:1"/>
    </linearGradient>
    <linearGradient id="special" x1="0" y1="1" x2="1" y2="0">
      <stop offset="0" style="stop-color:rgb(76, 56, 106);stop-opacity:1"/>
      <stop offset="0.125" style="stop-color:rgb(76, 56, 106);stop-opacity:1"/>
      <stop offset="0.5" style="stop-color:rgb(201, 173, 221);stop-opacity:1"/>
      <stop offset="0.875" style="stop-color:rgb(76, 56, 106);stop-opacity:1"/>
      <stop offset="1" style="stop-color:rgb(76, 56, 106);stop-opacity:1"/>
    </linearGradient>
    <linearGradient id="uncommon" x1="0" y1="1" x2="1" y2="0">
      <stop offset="0" style="stop-color:rgb(98,110,119);stop-opacity:1"/>
      <stop offset="0.125" style="stop-color:rgb(98,110,119);stop-opacity:1"/>
      <stop offset="0.5" style="stop-color:rgb(196,222,238);stop-opacity:1"/>
      <stop offset="0.875" style="stop-color:rgb(98,110,119);stop-opacity:1"/>
      <stop offset="1" style="stop-color:rgb(98,110,119);stop-opacity:1"/>
    </linearGradient>
    <linearGradient id="common" x1="0" y1="1" x2="1" y2="0">
      <stop offset="0" style="stop-color:rgb(0,0,0);stop-opacity:1"/>
    </linearGradient>
    <linearGradient
            id="rarity-outline" x1="0" y1="1" x2="0" y2="1">
      <stop offset="0" style="stop-color:rgb(0,0,0);stop-opacity:1"/>
    </linearGradient>
  </defs>
  <path fill="url(#rarity-outline)" d="M 13.107422,0 12.375,1.6074219 c -0.644971,2.774876 -1.017617,6.8290006 -1.177734,12.0976561 -0.169495,0.0564 -0.326226,0.132972 -0.488282,0.203125 C 10.046125,11.950232 9.3850342,9.9925311 8.7226562,8.0332032 L 8.4570312,7.2460938 7.7011718,7.5917969 C 7.4485599,7.7069764 7.2064899,7.8346036 6.9648437,7.9628907 a 0.750075,0.750075 0 0 0 -0.056641,0.019531 c -0.023596,0.013849 -0.044886,0.02906 -0.068359,0.042969 -0.94825,0.5162164 -1.8168173,1.1356576 -2.6230469,1.8847656 l -0.4609374,0.4296877 0.00586,0.0098 c -0.087109,0.08473 -0.1698475,0.171603 -0.2539069,0.257808 l -0.013672,-0.01563 -0.1289062,0.160156 C 1.1169727,13.127952 -2.0999997e-7,16.049025 0,19.482422 c 4.0000003e-7,7.22746 5.8760554,13.103516 13.103516,13.103516 7.227461,1e-6 13.101562,-5.876055 13.101562,-13.103516 2e-6,-4.478857 -2.264917,-8.516784 -5.755859,-10.7968751 -0.05847,-0.039795 -0.116656,-0.080331 -0.175781,-0.1191406 -0.0027,-0.00177 -0.0051,-0.00409 -0.0078,-0.00586 -0.0057,-0.00356 -0.0119,-0.00622 -0.01758,-0.00977 C 19.696429,8.1905464 19.119095,7.8691562 18.503907,7.5898438 L 17.748047,7.2480469 17.482422,8.0332032 C 16.891247,9.7829718 16.192328,11.862247 15.5,13.908203 15.338049,13.838115 15.181068,13.761446 15.011719,13.705078 14.8516,8.4364293 14.476707,4.3833764 13.835938,1.609375 Z" />
  <path fill="url(#rarity)" d="m 14.994808,25.283344 c 3.552,-1.156 5.247,-5.195 3.585,-8.538 1.375,-1.655 2.746,-3.311 4.12,-4.966 6.011,7.504 1.474,18.693 -8.066,19.889 0.033,-0.341 0.06,-0.684 0.086,-1.028 0.076,-0.962 0.132,-1.924 0.178,-2.884 0.033,-0.631 0.056,-1.262 0.08,-1.893 0.006,-0.192 0.009,-0.387 0.016,-0.579 z m -7.3680002,-8.539 c -1.662,3.344 0.033,7.382 3.5850002,8.538 0.007,0.191 0.01,0.387 0.02,0.579 0.019,0.631 0.046,1.262 0.076,1.893 0.046,0.961 0.106,1.923 0.178,2.884 0.026,0.343 0.052,0.687 0.085,1.028 -9.5390002,-1.196 -14.0760002,-12.385 -8.0660002,-19.889 1.375,1.655 2.746,3.311 4.12,4.966 z M 18.193808,8.2733438 c 1.229,0.558 2.297,1.269 3.285,2.1870002 -1.156,1.785 -2.316,3.565 -3.472,5.347 -0.506,-0.674 -1.084,-1.193 -1.811,-1.616 0.667,-1.973 1.331,-3.945 1.999,-5.9180002 z m -8.182,5.9180002 c -0.7230002,0.423 -1.3040002,0.941 -1.8070002,1.616 -1.16,-1.781 -2.319,-3.562 -3.477,-5.347 0.988,-0.9180002 2.059,-1.6280002 3.285,-2.1870002 0.667,1.9730002 1.331,3.9450002 1.9990002,5.9180002 z m 1.874,8.957 c -0.019,-1.169 -0.033,-2.398 -0.033,-3.68 0,-1.286 0.014,-2.511 0.033,-3.685 -3.5490002,1.173 -3.5490002,6.193 0,7.365 z m 2.468,-3.681 c 0,1.285 -0.009,2.511 -0.033,3.68 3.549,-1.172 3.549,-6.192 0,-7.365 0.024,1.173 0.033,2.399 0.033,3.685 z m -2.435,-5.26 c 0.149,-5.5140002 0.542,-9.6550002 1.187,-12.4300002 0.641,2.775 1.034,6.916 1.183,12.4300002 2.458,0.552 4.21,2.739 4.21,5.261 0,2.522 -1.748,4.705 -4.21,5.261 -0.073,2.653 -0.198,4.992 -0.383,7.012 -0.535,0.033 -1.068,0.033 -1.6,0 -0.188,-2.019 -0.314,-4.359 -0.387,-7.012 -2.4580002,-0.556 -4.2060002,-2.74 -4.2060002,-5.261 0,-2.521 1.748,-4.709 4.2060002,-5.261 z"/>
</svg>
