<?xml version="1.0" encoding="UTF-8" standalone="no"?>
<!-- Generated by IcoMoon.io -->

<svg
   version="1.1"
   width="24.623226"
   height="29.98875"
   viewBox="0 0 24.623226 29.98875"
   id="svg6"
   sodipodi:docname="mbs.svg"
   inkscape:version="1.1.1 (3bf5ae0d25, 2021-09-20)"
   xmlns:inkscape="http://www.inkscape.org/namespaces/inkscape"
   xmlns:sodipodi="http://sodipodi.sourceforge.net/DTD/sodipodi-0.dtd"
   xmlns="http://www.w3.org/2000/svg"
   xmlns:svg="http://www.w3.org/2000/svg">
  <defs
     id="defs10" />
  <sodipodi:namedview
     id="namedview8"
     pagecolor="#ffffff"
     bordercolor="#666666"
     borderopacity="1.0"
     inkscape:pageshadow="2"
     inkscape:pageopacity="0.0"
     inkscape:pagecheckerboard="0"
     showgrid="false"
     inkscape:zoom="25.75"
     inkscape:cx="12.446602"
     inkscape:cy="15.087379"
     inkscape:window-width="1920"
     inkscape:window-height="1009"
     inkscape:window-x="-8"
     inkscape:window-y="-8"
     inkscape:window-maximized="1"
     inkscape:current-layer="svg6" />
  <title
     id="title2">mbs</title>
  <path
     fill="#000000"
     d="m 14.203792,23.506 c 3.552,-1.156 5.247,-5.195 3.585,-8.538 1.375,-1.655 2.746,-3.311 4.12,-4.966 6.011,7.504 1.474,18.693 -8.066,19.889 0.033,-0.341 0.06,-0.684 0.086,-1.028 0.076,-0.962 0.132,-1.924 0.178,-2.884 0.033,-0.631 0.056,-1.262 0.08,-1.893 0.006,-0.192 0.009,-0.387 0.016,-0.579 z M 6.8357922,14.967 c -1.662,3.344 0.033,7.382 3.5849998,8.538 0.007,0.191 0.01,0.387 0.02,0.579 0.019,0.631 0.046,1.262 0.076,1.893 0.046,0.961 0.106,1.923 0.178,2.884 0.026,0.343 0.052,0.687 0.085,1.028 C 1.2407922,28.693 -3.2962078,17.504 2.7137922,10 c 1.375,1.655 2.746,3.311 4.12,4.966 z M 17.402792,6.496 c 1.229,0.558 2.297,1.269 3.285,2.187 -1.156,1.785 -2.316,3.565 -3.472,5.347 -0.506,-0.674 -1.084,-1.193 -1.811,-1.616 0.667,-1.973 1.331,-3.945 1.999,-5.918 z m -8.1819998,5.918 c -0.723,0.423 -1.304,0.941 -1.807,1.616 -1.16,-1.781 -2.319,-3.562 -3.477,-5.347 0.988,-0.918 2.059,-1.628 3.285,-2.187 0.667,1.973 1.331,3.945 1.999,5.918 z m 1.8739998,8.957 c -0.019,-1.169 -0.033,-2.398 -0.033,-3.68 0,-1.286 0.014,-2.511 0.033,-3.685 -3.5489998,1.173 -3.5489998,6.193 0,7.365 z m 2.468,-3.681 c 0,1.285 -0.009,2.511 -0.033,3.68 3.549,-1.172 3.549,-6.192 0,-7.365 0.024,1.173 0.033,2.399 0.033,3.685 z m -2.435,-5.26 c 0.149,-5.514 0.542,-9.655 1.187,-12.43 0.641,2.775 1.034,6.916 1.183,12.43 2.458,0.552 4.21,2.739 4.21,5.261 0,2.522 -1.748,4.705 -4.21,5.261 -0.073,2.653 -0.198,4.992 -0.383,7.012 -0.535,0.033 -1.068,0.033 -1.6,0 -0.188,-2.019 -0.314,-4.359 -0.387,-7.012 -2.4579998,-0.556 -4.2059998,-2.74 -4.2059998,-5.261 0,-2.521 1.748,-4.709 4.2059998,-5.261 z"
     id="path4" />
</svg>
