<?xml version="1.0" encoding="UTF-8" standalone="no"?>
<svg
   version="1.1"
   width="30.775391"
   height="30.826172"
   viewBox="0 0 30.775391 30.826172"
   id="svg4"
   xmlns="http://www.w3.org/2000/svg"
   xmlns:svg="http://www.w3.org/2000/svg">
  <defs>
    <!-- This is the gradient that will actually be used on
     the cards. The colors themselves will be provided by the
     template, but the x values, y values, and offsets will be
     used from the SVG. -->
    <linearGradient id="rarity" x1="0" y1="0.75" x2="1.125" y2="0.25">
      <stop offset="0" style="stop-color:rgb(192,55,38);stop-opacity:1" id="stop2" />
      <stop offset="0.125" style="stop-color:rgb(192,55,38);stop-opacity:1" id="stop4" />
      <stop offset="0.5" style="stop-color:rgb(241,142,30);stop-opacity:1" id="stop6" />
      <stop offset="0.875" style="stop-color:rgb(192,55,38);stop-opacity:1" id="stop8" />
      <stop offset="1" style="stop-color:rgb(192,55,38);stop-opacity:1" id="stop10" />
    </linearGradient>
    <!-- These gradients are here so that you can visualize
     what the set symbol would like like in that rarity. The
     only gradient that matters in the end is the "rarity"
     gradient. -->
    <linearGradient id="mythic" x1="0" y1="1" x2="1" y2="0">
      <stop offset="0" style="stop-color:rgb(192,55,38);stop-opacity:1"/>
      <stop offset="0.125" style="stop-color:rgb(192,55,38);stop-opacity:1"/>
      <stop offset="0.5" style="stop-color:rgb(241,142,30);stop-opacity:1"/>
      <stop offset="0.875" style="stop-color:rgb(192,55,38);stop-opacity:1"/>
      <stop offset="1" style="stop-color:rgb(192,55,38);stop-opacity:1"/>
    </linearGradient>
    <linearGradient id="rare" x1="0" y1="1" x2="1" y2="0">
      <stop offset="0" style="stop-color:rgb(146,116,67);stop-opacity:1"/>
      <stop offset="0.125" style="stop-color:rgb(146,116,67);stop-opacity:1"/>
      <stop offset="0.5" style="stop-color:rgb(211,178,108);stop-opacity:1"/>
      <stop offset="0.875" style="stop-color:rgb(146,116,67);stop-opacity:1"/>
      <stop offset="1" style="stop-color:rgb(146,116,67);stop-opacity:1"/>
    </linearGradient>
    <linearGradient id="special" x1="0" y1="1" x2="1" y2="0">
      <stop offset="0" style="stop-color:rgb(76, 56, 106);stop-opacity:1"/>
      <stop offset="0.125" style="stop-color:rgb(76, 56, 106);stop-opacity:1"/>
      <stop offset="0.5" style="stop-color:rgb(201, 173, 221);stop-opacity:1"/>
      <stop offset="0.875" style="stop-color:rgb(76, 56, 106);stop-opacity:1"/>
      <stop offset="1" style="stop-color:rgb(76, 56, 106);stop-opacity:1"/>
    </linearGradient>
    <linearGradient id="uncommon" x1="0" y1="1" x2="1" y2="0">
      <stop offset="0" style="stop-color:rgb(98,110,119);stop-opacity:1"/>
      <stop offset="0.125" style="stop-color:rgb(98,110,119);stop-opacity:1"/>
      <stop offset="0.5" style="stop-color:rgb(196,222,238);stop-opacity:1"/>
      <stop offset="0.875" style="stop-color:rgb(98,110,119);stop-opacity:1"/>
      <stop offset="1" style="stop-color:rgb(98,110,119);stop-opacity:1"/>
    </linearGradient>
    <linearGradient id="common" x1="0" y1="1" x2="1" y2="0">
      <stop offset="0" style="stop-color:rgb(0,0,0);stop-opacity:1"/>
    </linearGradient>
    <linearGradient
            id="rarity-outline" x1="0" y1="1" x2="0" y2="1">
      <stop offset="0" style="stop-color:rgb(0,0,0);stop-opacity:1"/>
    </linearGradient>
  </defs>
  <path fill="url(#rarity-outline)" d="M 11.371094,0 C 4.990071,1.7182997 0.37979107,7.3871053 0,14 l 0.82031252,1.853516 1.20507808,-1.115235 c 0.7666942,-1.02671 1.961592,-1.638671 3.2734375,-1.638671 2.2657754,0 4.0898438,1.82502 4.0898438,4.089843 0,1.132012 -0.4658422,2.204782 -1.2890625,2.978515 l -0.7617187,0.716797 8.0507813,9.941406 8.050781,-9.941406 -0.759765,-0.716797 c -0.822717,-0.773997 -1.291016,-1.847023 -1.291016,-2.978515 0,-2.265108 1.823993,-4.08877 4.087891,-4.089843 h 0.002 c 1.31228,6.14e-4 2.508275,0.612961 3.273437,1.638671 L 30.160203,15.824218 30.775438,14 C 30.395506,7.3871053 25.787273,1.7182997 19.40625,0 l -2.488281,0.44726562 1.390625,1.42578128 c 0.741681,0.7589481 1.167969,1.7835356 1.167969,2.859375 0,1.1011826 -0.418746,2.1140576 -1.197266,2.8925781 -0.77852,0.7785205 -1.789442,1.1972656 -2.890625,1.1972656 -1.100644,0 -2.113744,-0.4192226 -2.892578,-1.1972656 -0.777788,-0.7769982 -1.197266,-1.7913955 -1.197266,-2.8925781 0,-1.0758394 0.426288,-2.1004269 1.167969,-2.859375 l 1.339844,-1.41796878 z" />
  <path fill="url(#rarity)" d="m 25.479047,11.973938 c -2.875,0 -5.215,2.339 -5.215,5.215 0,1.442 0.597,2.814 1.644,3.798999 l -6.519,8.050001 -6.5190001,-8.050001 c 1.048,-0.984999 1.6440001,-2.356999 1.6440001,-3.798999 0,-2.875 -2.3390001,-5.215 -5.2150001,-5.215 -1.665,0 -3.2,0.784 -4.176,2.091 0.352,-6.1290005 4.628,-11.3870005 10.5400001,-12.9790005 -0.945,0.967 -1.489,2.274 -1.489,3.647 0,1.393 0.542,2.703 1.527,3.687 0.985,0.984 2.294,1.527 3.687,1.527 1.393,0 2.702,-0.542 3.687,-1.527 0.985,-0.985 1.527,-2.294 1.527,-3.687 0,-1.373 -0.544,-2.68 -1.489,-3.647 5.912,1.592 10.188,6.85 10.54,12.9789995 -0.975,-1.307 -2.51,-2.091 -4.176,-2.091 z"/>
</svg>
