<?xml version="1.0" encoding="UTF-8" standalone="no"?>
<!-- Generated by IcoMoon.io -->

<svg
   version="1.1"
   width="28.530001"
   height="27.952"
   viewBox="0 0 28.530001 27.952"
   id="svg6"
   sodipodi:docname="md1.svg"
   inkscape:version="1.1.1 (3bf5ae0d25, 2021-09-20)"
   xmlns:inkscape="http://www.inkscape.org/namespaces/inkscape"
   xmlns:sodipodi="http://sodipodi.sourceforge.net/DTD/sodipodi-0.dtd"
   xmlns="http://www.w3.org/2000/svg"
   xmlns:svg="http://www.w3.org/2000/svg">
  <defs
     id="defs10" />
  <sodipodi:namedview
     id="namedview8"
     pagecolor="#ffffff"
     bordercolor="#666666"
     borderopacity="1.0"
     inkscape:pageshadow="2"
     inkscape:pageopacity="0.0"
     inkscape:pagecheckerboard="0"
     showgrid="false"
     inkscape:zoom="25.75"
     inkscape:cx="14.504854"
     inkscape:cy="13.961165"
     inkscape:window-width="1920"
     inkscape:window-height="1009"
     inkscape:window-x="-8"
     inkscape:window-y="-8"
     inkscape:window-maximized="1"
     inkscape:current-layer="svg6" />
  <title
     id="title2">md1</title>
  <path
     fill="#000000"
     d="m 24.356,10.888 c -2.875,0 -5.215,2.339 -5.215,5.215 0,1.442 0.597,2.814 1.644,3.799 l -6.519,8.05 -6.519,-8.05 c 1.048,-0.985 1.644,-2.357 1.644,-3.799 0,-2.875 -2.339,-5.215 -5.215,-5.215 -1.665,0 -3.2,0.784 -4.176,2.091 C 0.352,6.85 4.628,1.592 10.54,0 9.595,0.967 9.051,2.274 9.051,3.647 c 0,1.393 0.542,2.703 1.527,3.687 0.985,0.984 2.294,1.527 3.687,1.527 1.393,0 2.702,-0.542 3.687,-1.527 0.985,-0.985 1.527,-2.294 1.527,-3.687 0,-1.373 -0.544,-2.68 -1.489,-3.647 5.912,1.592 10.188,6.85 10.54,12.979 -0.975,-1.307 -2.51,-2.091 -4.176,-2.091 z"
     id="path4" />
</svg>
