<?xml version="1.0" encoding="UTF-8" standalone="no"?>
<!-- Generated by IcoMoon.io -->

<svg
   version="1.1"
   width="29.031"
   height="24.952"
   viewBox="0 0 29.031 24.952"
   id="svg6"
   sodipodi:docname="me3.svg"
   inkscape:version="1.1.1 (3bf5ae0d25, 2021-09-20)"
   xmlns:inkscape="http://www.inkscape.org/namespaces/inkscape"
   xmlns:sodipodi="http://sodipodi.sourceforge.net/DTD/sodipodi-0.dtd"
   xmlns="http://www.w3.org/2000/svg"
   xmlns:svg="http://www.w3.org/2000/svg">
  <defs
     id="defs10" />
  <sodipodi:namedview
     id="namedview8"
     pagecolor="#ffffff"
     bordercolor="#666666"
     borderopacity="1.0"
     inkscape:pageshadow="2"
     inkscape:pageopacity="0.0"
     inkscape:pagecheckerboard="0"
     showgrid="false"
     inkscape:zoom="25.75"
     inkscape:cx="15.009709"
     inkscape:cy="12.757282"
     inkscape:window-width="1920"
     inkscape:window-height="1009"
     inkscape:window-x="-8"
     inkscape:window-y="-8"
     inkscape:window-maximized="1"
     inkscape:current-layer="svg6" />
  <title
     id="title2">me3</title>
  <path
     fill="#000000"
     d="m 14.514,10.763 1.273,0.364 c 0.19,0.055 2.454,0.724 5.292,2.512 C 22.178,12.212 22.835,10.42 22.835,8.48 22.835,3.795 19.037,0 14.352,0 9.67,0 5.872,3.796 5.872,8.48 c 0,2.004 0.698,3.848 1.863,5.3 2.94,-1.894 5.314,-2.598 5.51,-2.653 l 1.27,-0.364 z m 0.817,1.957 v 12.232 h 13.7 C 24.462,15.329 15.331,12.72 15.331,12.72 Z m -1.631,0 V 24.952 H 0 C 4.569,15.329 13.7,12.72 13.7,12.72 Z"
     id="path4" />
</svg>
