<?xml version="1.0" encoding="UTF-8" standalone="no"?>
<!-- Generated by IcoMoon.io -->

<svg
   version="1.1"
   width="32"
   height="19.400999"
   viewBox="0 0 32 19.400999"
   id="svg6"
   sodipodi:docname="mh1.svg"
   inkscape:version="1.1.1 (3bf5ae0d25, 2021-09-20)"
   xmlns:inkscape="http://www.inkscape.org/namespaces/inkscape"
   xmlns:sodipodi="http://sodipodi.sourceforge.net/DTD/sodipodi-0.dtd"
   xmlns="http://www.w3.org/2000/svg"
   xmlns:svg="http://www.w3.org/2000/svg">
  <defs
     id="defs10" />
  <sodipodi:namedview
     id="namedview8"
     pagecolor="#ffffff"
     bordercolor="#666666"
     borderopacity="1.0"
     inkscape:pageshadow="2"
     inkscape:pageopacity="0.0"
     inkscape:pagecheckerboard="0"
     showgrid="false"
     inkscape:zoom="25.75"
     inkscape:cx="15.980583"
     inkscape:cy="9.6893204"
     inkscape:window-width="1920"
     inkscape:window-height="1009"
     inkscape:window-x="-8"
     inkscape:window-y="-8"
     inkscape:window-maximized="1"
     inkscape:current-layer="svg6" />
  <title
     id="title2">mh1</title>
  <path
     fill="#000000"
     d="M 9.926,10.223 16,14.709 22.074,10.223 V 8.912 L 24.686,6.863 C 23.375,1.25 19.462,0 19.462,0 20.886,4.538 17.045,5.562 16,5.562 14.955,5.562 11.114,4.538 12.538,0 c 0,0 -3.913,1.25 -5.224,6.873 L 9.926,8.922 Z M 25.024,5.214 32,8.881 c -7.324,3.073 -16,10.52 -16,10.52 0,0 -8.676,-7.457 -16,-10.52 L 6.965,5.214 c 0,0 -0.615,0.963 -0.492,2.131 l 2.622,1.946 v 1.373 l 6.894,4.948 6.894,-4.947 V 9.292 L 25.505,7.346 C 25.628,6.188 25.024,5.215 25.024,5.215 Z"
     id="path4" />
</svg>
