<?xml version="1.0" encoding="UTF-8" standalone="no"?>
<!-- Generated by IcoMoon.io -->

<svg
   version="1.1"
   width="31.999001"
   height="21.636"
   viewBox="0 0 31.999001 21.636"
   id="svg6"
   sodipodi:docname="mh2.svg"
   inkscape:version="1.1.1 (3bf5ae0d25, 2021-09-20)"
   xmlns:inkscape="http://www.inkscape.org/namespaces/inkscape"
   xmlns:sodipodi="http://sodipodi.sourceforge.net/DTD/sodipodi-0.dtd"
   xmlns="http://www.w3.org/2000/svg"
   xmlns:svg="http://www.w3.org/2000/svg">
  <defs
     id="defs10" />
  <sodipodi:namedview
     id="namedview8"
     pagecolor="#ffffff"
     bordercolor="#666666"
     borderopacity="1.0"
     inkscape:pageshadow="2"
     inkscape:pageopacity="0.0"
     inkscape:pagecheckerboard="0"
     showgrid="false"
     inkscape:zoom="25.75"
     inkscape:cx="15.980583"
     inkscape:cy="10.815534"
     inkscape:window-width="1920"
     inkscape:window-height="1009"
     inkscape:window-x="-8"
     inkscape:window-y="-8"
     inkscape:window-maximized="1"
     inkscape:current-layer="svg6" />
  <title
     id="title2">mh2</title>
  <path
     fill="#000000"
     d="M 1.998,9.701 C 3.629,8.696 5.305,7.759 6.877,6.66 7.088,7.39 7.197,8.156 7.532,8.847 7.837,9.551 8.288,10.174 8.716,10.808 8.397,11.374 7.949,11.856 7.659,12.44 7.247,13.201 7.024,14.051 6.979,14.914 6.967,14.911 6.954,14.909 6.944,14.902 3.773,12.966 2.284,12.117 0.732,11.232 0.515,11.106 0.195,10.967 0,10.809 0.644,10.401 1.344,10.092 1.999,9.701 Z M 12.496,9.382 v 0 c -0.66,0.192 -1.219,0.606 -1.746,1.032 -1.516,1.251 -2.535,3.142 -2.624,5.116 -0.006,0.101 -0.011,0.205 0.013,0.304 l 0.507,0.369 0.069,0.045 c 2.336,1.591 4.513,3.206 6.696,5.001 0.179,0.122 0.333,0.289 0.564,0.384 0.006,0.003 0.014,0.002 0.021,0.003 0.012,-0.003 0.025,-0.005 0.035,-0.011 0.223,-0.128 0.449,-0.352 0.663,-0.513 2.129,-1.809 4.403,-3.444 6.704,-5.025 0.129,-0.102 0.083,-0.062 0.145,-0.116 l 0.341,-0.261 -0.005,-0.293 c -0.043,-1.395 -0.594,-2.757 -1.439,-3.858 -0.198,0.134 -0.396,0.269 -0.581,0.419 -1.076,0.877 -2.107,1.518 -3.396,2.025 -0.576,0.226 -1.343,0.43 -2.46,0.457 -2.03,0 -3.675,-1.645 -3.675,-3.675 0.025,-0.488 -0.006,-0.253 0.086,-0.707 0.04,-0.437 0.014,-0.204 0.082,-0.698 z M 30,9.737 c 0.655,0.391 1.355,0.7 1.999,1.108 -0.194,0.158 -0.514,0.297 -0.732,0.423 -1.553,0.886 -3.042,1.735 -6.212,3.67 -0.01,0.006 -0.023,0.008 -0.035,0.012 -0.045,-0.863 -0.269,-1.713 -0.68,-2.474 -0.29,-0.584 -0.738,-1.067 -1.057,-1.632 0.428,-0.634 0.878,-1.257 1.184,-1.961 0.32,-0.66 0.532,-1.512 0.538,-2.215 0,-0.038 -0.006,-0.012 0.004,-0.044 1.572,1.098 3.362,2.107 4.992,3.113 z m -10.569,2.517 v 0 c 0.66,-0.192 1.219,-0.606 1.746,-1.032 C 22.693,9.971 23.712,8.08 23.801,6.106 23.807,6.005 23.812,5.901 23.788,5.802 L 23.281,5.433 23.212,5.388 C 20.876,3.797 18.699,2.182 16.516,0.387 16.337,0.265 16.183,0.098 15.952,0.003 15.946,0 15.938,0.001 15.931,0 15.919,0.003 15.906,0.005 15.896,0.011 15.673,0.139 15.447,0.363 15.233,0.524 13.104,2.333 10.83,3.968 8.529,5.549 8.399,5.651 8.446,5.611 8.384,5.666 L 8.043,5.927 8.048,6.22 c 0.043,1.395 0.594,2.757 1.439,3.858 0.198,-0.134 0.396,-0.269 0.582,-0.419 1.076,-0.877 2.107,-1.518 3.396,-2.025 0.575,-0.226 1.342,-0.43 2.46,-0.457 2.03,0 3.675,1.646 3.675,3.675 -0.025,0.488 0.006,0.253 -0.087,0.707 -0.04,0.437 -0.014,0.204 -0.082,0.698 z"
     id="path4" />
</svg>
