<?xml version="1.0" encoding="UTF-8" standalone="no"?>
<svg
   version="1.1"
   width="35.267094"
   height="23.845705"
   viewBox="0 0 35.267094 23.845705"
   id="svg4"
   xmlns="http://www.w3.org/2000/svg"
   xmlns:svg="http://www.w3.org/2000/svg">
  <defs>
    <!-- This is the gradient that will actually be used on
     the cards. The colors themselves will be provided by the
     template, but the x values, y values, and offsets will be
     used from the SVG. -->
    <linearGradient id="rarity" x1="0" y1="0" x2="1" y2="0">
      <stop offset="0" style="stop-color:rgb(192,55,38);stop-opacity:1" id="stop2" />
      <stop offset="0.125" style="stop-color:rgb(192,55,38);stop-opacity:1" id="stop4" />
      <stop offset="0.5" style="stop-color:rgb(241,142,30);stop-opacity:1" id="stop6" />
      <stop offset="0.875" style="stop-color:rgb(192,55,38);stop-opacity:1" id="stop8" />
      <stop offset="1" style="stop-color:rgb(192,55,38);stop-opacity:1" id="stop10" />
    </linearGradient>
    <!-- These gradients are here so that you can visualize
     what the set symbol would like like in that rarity. The
     only gradient that matters in the end is the "rarity"
     gradient. -->
    <linearGradient id="mythic" x1="0" y1="1" x2="1" y2="0">
      <stop offset="0" style="stop-color:rgb(192,55,38);stop-opacity:1"/>
      <stop offset="0.125" style="stop-color:rgb(192,55,38);stop-opacity:1"/>
      <stop offset="0.5" style="stop-color:rgb(241,142,30);stop-opacity:1"/>
      <stop offset="0.875" style="stop-color:rgb(192,55,38);stop-opacity:1"/>
      <stop offset="1" style="stop-color:rgb(192,55,38);stop-opacity:1"/>
    </linearGradient>
    <linearGradient id="rare" x1="0" y1="1" x2="1" y2="0">
      <stop offset="0" style="stop-color:rgb(146,116,67);stop-opacity:1"/>
      <stop offset="0.125" style="stop-color:rgb(146,116,67);stop-opacity:1"/>
      <stop offset="0.5" style="stop-color:rgb(211,178,108);stop-opacity:1"/>
      <stop offset="0.875" style="stop-color:rgb(146,116,67);stop-opacity:1"/>
      <stop offset="1" style="stop-color:rgb(146,116,67);stop-opacity:1"/>
    </linearGradient>
    <linearGradient id="special" x1="0" y1="1" x2="1" y2="0">
      <stop offset="0" style="stop-color:rgb(76, 56, 106);stop-opacity:1"/>
      <stop offset="0.125" style="stop-color:rgb(76, 56, 106);stop-opacity:1"/>
      <stop offset="0.5" style="stop-color:rgb(201, 173, 221);stop-opacity:1"/>
      <stop offset="0.875" style="stop-color:rgb(76, 56, 106);stop-opacity:1"/>
      <stop offset="1" style="stop-color:rgb(76, 56, 106);stop-opacity:1"/>
    </linearGradient>
    <linearGradient id="uncommon" x1="0" y1="1" x2="1" y2="0">
      <stop offset="0" style="stop-color:rgb(98,110,119);stop-opacity:1"/>
      <stop offset="0.125" style="stop-color:rgb(98,110,119);stop-opacity:1"/>
      <stop offset="0.5" style="stop-color:rgb(196,222,238);stop-opacity:1"/>
      <stop offset="0.875" style="stop-color:rgb(98,110,119);stop-opacity:1"/>
      <stop offset="1" style="stop-color:rgb(98,110,119);stop-opacity:1"/>
    </linearGradient>
    <linearGradient id="common" x1="0" y1="1" x2="1" y2="0">
      <stop offset="0" style="stop-color:rgb(0,0,0);stop-opacity:1"/>
    </linearGradient>
    <linearGradient
            id="rarity-outline" x1="0" y1="1" x2="0" y2="1">
      <stop offset="0" style="stop-color:rgb(0,0,0);stop-opacity:1"/>
    </linearGradient>
  </defs>
  <path fill="url(#rarity-outline)" d="M 17.558594 0 C 17.545374 0.003303 17.530551 0.00510875 17.519531 0.01171875 C 17.273756 0.15279153 17.024918 0.40068189 16.789062 0.578125 C 14.442921 2.5716281 4.0007036 9.5824112 2.2011719 10.691406 C 1.4796957 11.121927 0.70929413 11.462742 0 11.912109 C 0.2149156 12.086246 0.56747814 12.240038 0.80664062 12.378906 C 2.5171481 13.354292 14.578423 21.441596 16.984375 23.419922 C 17.181656 23.554382 17.352821 23.737091 17.607422 23.841797 C 17.614032 23.845097 17.621206 23.844603 17.628906 23.845703 C 17.642126 23.842383 17.656949 23.840584 17.667969 23.833984 C 17.913744 23.692911 18.162582 23.445021 18.398438 23.267578 C 20.744874 21.273822 32.749327 13.394457 34.460938 12.417969 C 34.701201 12.2791 35.053764 12.127261 35.267578 11.953125 C 34.557805 11.503455 33.864473 11.147731 33.142578 10.716797 C 30.63722 9.0423554 28.650133 8.0676494 26.142578 6.3964844 C 18.514177 1.1095615 17.836623 0.10860876 17.582031 0.00390625 C 17.575421 0.00059625 17.566294 0.0011 17.558594 0 z M 17.632812 9.375 A 2.5477159 2.5477159 0 0 1 20.181641 11.923828 A 2.5477159 2.5477159 0 0 1 17.632812 14.470703 A 2.5477159 2.5477159 0 0 1 15.085938 11.923828 A 2.5477159 2.5477159 0 0 1 17.632812 9.375 z " />
  <path fill="url(#rarity)" d="m 3.6320467,10.805854 c 1.631,-1.0050001 3.307,-1.9420001 4.879,-3.0410001 0.211,0.73 0.32,1.496 0.655,2.187 0.305,0.7040001 0.756,1.3270001 1.1840003,1.9610001 -0.319,0.566 -0.7670003,1.048 -1.0570003,1.632 -0.412,0.761 -0.635,1.611 -0.68,2.474 -0.012,-0.003 -0.025,-0.005 -0.035,-0.012 -3.171,-1.936 -4.66,-2.785 -6.212,-3.67 -0.217,-0.126 -0.537,-0.265 -0.732,-0.423 0.644,-0.408 1.344,-0.717 1.999,-1.108 z m 10.4980003,-0.319 v 0 c -0.66,0.192 -1.219,0.606 -1.746,1.032 -1.516,1.251 -2.5350003,3.142 -2.6240003,5.116 -0.006,0.101 -0.011,0.205 0.013,0.304 l 0.5070003,0.369 0.069,0.045 c 2.336,1.591 4.513,3.206 6.696,5.001 0.179,0.122 0.333,0.289 0.564,0.384 0.006,0.003 0.014,0.002 0.021,0.003 0.012,-0.003 0.025,-0.005 0.035,-0.011 0.223,-0.128 0.449,-0.352 0.663,-0.513 2.129,-1.809 4.403,-3.444 6.704,-5.025 0.129,-0.102 0.083,-0.062 0.145,-0.116 l 0.341,-0.261 -0.005,-0.293 c -0.043,-1.395 -0.594,-2.757 -1.439,-3.858 -0.198,0.134 -0.396,0.269 -0.581,0.419 -1.076,0.877 -2.107,1.518 -3.396,2.025 -0.576,0.226 -1.343,0.43 -2.46,0.457 -2.03,0 -3.675,-1.645 -3.675,-3.675 0.025,-0.488 -0.006,-0.253 0.086,-0.707 0.04,-0.437 0.014,-0.204 0.082,-0.698 z m 17.504,0.355 c 0.655,0.391 1.355,0.7 1.999,1.108 -0.194,0.158 -0.514,0.297 -0.732,0.423 -1.553,0.886 -3.042,1.735 -6.212,3.67 -0.01,0.006 -0.023,0.008 -0.035,0.012 -0.045,-0.863 -0.269,-1.713 -0.68,-2.474 -0.29,-0.584 -0.738,-1.067 -1.057,-1.632 0.428,-0.634 0.878,-1.257 1.184,-1.9610001 0.32,-0.66 0.532,-1.512 0.538,-2.215 0,-0.038 -0.006,-0.012 0.004,-0.044 1.572,1.098 3.362,2.107 4.992,3.1130001 z m -10.569,2.517 v 0 c 0.66,-0.192 1.219,-0.606 1.746,-1.032 1.516,-1.251 2.535,-3.1420001 2.624,-5.1160001 0.006,-0.101 0.011,-0.205 -0.013,-0.304 l -0.507,-0.369 -0.069,-0.045 c -2.336,-1.591 -4.513,-3.206 -6.696,-5.001 -0.179,-0.122 -0.333,-0.289 -0.564,-0.384 -0.006,-0.003 -0.014,-0.002 -0.021,-0.003 -0.012,0.003 -0.025,0.005 -0.035,0.011 -0.223,0.128 -0.449,0.352 -0.663,0.513 -2.129,1.809 -4.403,3.444 -6.704,5.025 -0.13,0.102 -0.083,0.062 -0.145,0.117 l -0.3410003,0.261 0.005,0.293 c 0.043,1.395 0.5940003,2.7570001 1.4390003,3.8580001 0.198,-0.134 0.396,-0.269 0.582,-0.419 1.076,-0.8770001 2.107,-1.5180001 3.396,-2.0250001 0.575,-0.226 1.342,-0.43 2.46,-0.457 2.03,0 3.675,1.646 3.675,3.6750001 -0.025,0.488 0.006,0.253 -0.087,0.707 -0.04,0.437 -0.014,0.204 -0.082,0.698 z"/>
</svg>
