<?xml version="1.0" encoding="UTF-8" standalone="no"?>
<!-- Generated by IcoMoon.io -->

<svg
   version="1.1"
   width="32.001999"
   height="29.192318"
   viewBox="0 0 32.001999 29.192318"
   id="svg6"
   sodipodi:docname="mir.svg"
   inkscape:version="1.1.1 (3bf5ae0d25, 2021-09-20)"
   xmlns:inkscape="http://www.inkscape.org/namespaces/inkscape"
   xmlns:sodipodi="http://sodipodi.sourceforge.net/DTD/sodipodi-0.dtd"
   xmlns="http://www.w3.org/2000/svg"
   xmlns:svg="http://www.w3.org/2000/svg">
  <defs
     id="defs10" />
  <sodipodi:namedview
     id="namedview8"
     pagecolor="#ffffff"
     bordercolor="#666666"
     borderopacity="1.0"
     inkscape:pageshadow="2"
     inkscape:pageopacity="0.0"
     inkscape:pagecheckerboard="0"
     showgrid="false"
     inkscape:zoom="25.75"
     inkscape:cx="15.980583"
     inkscape:cy="14.854369"
     inkscape:window-width="1920"
     inkscape:window-height="1009"
     inkscape:window-x="-8"
     inkscape:window-y="-8"
     inkscape:window-maximized="1"
     inkscape:current-layer="svg6" />
  <title
     id="title2">mir</title>
  <path
     fill="#000000"
     d="M 15.306,2.564 C 15.752,1.475 16.658,0.684 17.582,0 c -0.169,0.505 -0.385,1.018 -0.351,1.564 0.04,0.643 0.239,1.269 0.523,1.845 0.176,0.377 0.394,0.788 0.272,1.217 C 17.777,5.625 16.888,6.25 16.153,6.892 16.009,6.975 15.865,7.056 15.721,7.138 15.66,7.173 15.537,7.243 15.476,7.278 15.839,6.624 15.623,5.868 15.419,5.199 15.13,4.361 14.954,3.41 15.307,2.563 Z m 7.803,0.331 c -1.275,0.411 -2.123,1.486 -3.03,2.401 -0.393,0.42 -0.752,0.871 -1.172,1.262 -0.317,0.316 -0.623,0.642 -0.926,0.969 0.085,-0.021 0.255,-0.063 0.34,-0.085 0.086,-0.035 0.258,-0.105 0.344,-0.139 0.159,-0.068 0.32,-0.136 0.48,-0.201 1.931,-0.783 3.991,-1.354 6.09,-1.306 0.288,-0.278 0.571,-0.561 0.879,-0.817 0.07,-0.005 0.21,-0.018 0.279,-0.024 0.411,-0.009 0.817,0.049 1.221,0.117 L 27.723,5.056 C 28,4.677 28.34,4.341 28.768,4.14 28.64,4.326 28.506,4.51 28.37,4.69 28.884,4.427 29.457,4.399 30.019,4.348 30.746,4.095 31.266,3.462 32.002,3.217 29.081,2.703 26.045,2.149 23.111,2.896 Z M 3.705,4.687 C 3.416,4.767 3.116,4.791 2.818,4.812 2.401,4.913 1.995,5.057 1.586,5.184 1.185,5.315 0.794,5.472 0.407,5.641 0.293,5.69 0.178,5.741 0.063,5.79 L 0,5.818 C 0.099,5.832 0.294,5.857 0.392,5.871 0.686,5.915 0.987,5.957 1.26,6.082 1.576,6.245 1.84,6.499 2.174,6.625 2.644,6.62 3.114,6.478 3.583,6.571 4.005,6.676 4.382,6.913 4.805,7.017 5.43,6.706 6.24,6.627 6.753,7.184 7.243,7.51 7.832,7.246 8.37,7.25 c 1.844,-0.077 3.686,0.235 5.462,0.71 0.211,0.052 0.426,0.091 0.641,0.126 C 13.234,7.092 11.961,6.138 10.722,5.143 9.921,4.489 8.881,4.212 7.861,4.169 6.46,4.11 5.058,4.334 3.705,4.687 Z m 15.847,2.912 c -0.119,0.049 -0.235,0.101 -0.35,0.157 -0.169,0.083 -0.336,0.171 -0.504,0.254 -0.091,0.044 -0.27,0.133 -0.36,0.177 0.246,0.059 0.5,0.063 0.753,0.063 1.657,-0.077 3.342,0.184 4.867,0.844 0.614,0.274 1.298,0.278 1.956,0.323 0.207,0.318 0.39,0.652 0.575,0.986 0.408,0.353 0.989,0.313 1.495,0.356 0.006,0.071 0.018,0.212 0.024,0.283 0.209,0.279 0.385,0.584 0.623,0.84 0.5,0.291 1.143,0.284 1.588,0.681 0.433,0.378 0.86,0.763 1.319,1.112 C 31.396,12.622 31.103,11.598 30.809,10.579 30.477,9.547 30.123,8.49 29.468,7.612 28.975,6.949 28.116,6.748 27.341,6.645 24.712,6.356 22.063,6.832 19.551,7.598 Z M 15.22,8.054 c -0.008,0.056 -0.024,0.167 -0.032,0.222 0.183,0.455 0.315,0.926 0.446,1.396 0.028,0.054 0.082,0.163 0.109,0.217 C 16.368,9.86 16.994,9.895 17.618,9.871 17.502,9.249 17.335,8.638 17.152,8.034 16.673,7.829 16.149,7.795 15.634,7.833 15.495,7.906 15.357,7.98 15.22,8.053 Z M 4.767,8.592 C 4.34,8.768 3.917,8.971 3.564,9.273 3.174,9.636 2.963,10.144 2.783,10.635 2.23,12.249 2.104,13.962 1.924,15.646 1.921,15.724 1.916,15.881 1.914,15.959 l 0.054,0.107 C 2.126,16.013 2.283,15.957 2.443,15.912 2.571,15.71 2.705,15.511 2.856,15.326 3.027,15.09 3.185,14.843 3.361,14.611 3.655,14.167 4.21,14.056 4.669,13.857 4.75,13.456 4.856,13.061 4.971,12.668 5.129,12.624 5.287,12.581 5.445,12.538 5.787,12.444 6.131,12.352 6.461,12.22 6.685,11.765 6.74,11.025 7.374,10.982 7.882,10.873 8.385,10.737 8.856,10.515 8.914,10.49 9.03,10.437 9.088,10.41 10.426,9.524 12.042,9.069 13.638,9.001 13.864,8.954 14.087,8.89 14.31,8.828 12.13,8.058 9.768,7.971 7.482,8.138 6.562,8.191 5.664,8.401 4.765,8.593 Z M 18.33,9.03 c 0.171,0.148 0.341,0.297 0.512,0.447 1.232,1.021 2.005,2.48 2.588,3.946 0.077,0.083 0.166,0.155 0.264,0.216 0.307,0.148 0.662,0.227 0.913,0.467 0.22,0.293 0.317,0.656 0.468,0.986 0.025,0.021 0.075,0.064 0.1,0.086 0.436,0.086 0.878,0.126 1.319,0.182 0.116,0.318 0.225,0.641 0.355,0.954 0.028,0.033 0.082,0.099 0.109,0.131 0.454,0.081 0.953,0.029 1.361,0.28 0.437,0.251 0.848,0.547 1.288,0.795 0.011,-0.035 0.035,-0.105 0.047,-0.139 -0.056,-0.014 -0.166,-0.042 -0.221,-0.056 -0.224,-0.95 -0.596,-1.859 -0.977,-2.756 C 25.857,13.218 25.165,11.884 24.187,10.766 23.391,9.831 22.173,9.418 21.007,9.181 20.157,9.002 19.284,8.998 18.418,8.995 l -0.086,0.033 z m -6.626,1.091 c -0.605,0.229 -1.151,0.585 -1.74,0.852 -0.697,0.495 -1.217,1.191 -1.608,1.945 -1.005,1.919 -1.547,4.046 -1.857,6.18 -0.004,0.033 -0.009,0.101 -0.011,0.134 0.027,-10e-4 0.08,-0.004 0.107,-0.005 L 6.72,19.159 c 0.264,-0.421 0.594,-0.792 0.927,-1.157 0.412,0.01 0.828,-0.005 1.226,-0.125 0.042,-0.035 0.124,-0.107 0.166,-0.144 0.023,-0.327 0.077,-0.651 0.145,-0.972 0.164,-0.043 0.33,-0.086 0.494,-0.131 0.289,-0.085 0.575,-0.183 0.854,-0.298 0.078,-0.375 0.171,-0.748 0.269,-1.118 0.171,-0.104 0.341,-0.207 0.514,-0.307 0.182,-0.105 0.368,-0.203 0.556,-0.298 0.418,-1.825 1.168,-3.626 2.494,-4.981 -0.906,0.048 -1.778,0.31 -2.661,0.495 z m 3.966,0.421 c -0.018,0.039 -0.053,0.116 -0.072,0.154 0.03,0.052 0.091,0.154 0.121,0.206 0.494,0.706 0.733,1.548 0.962,2.368 0.672,-0.005 1.346,0.029 2.017,-0.013 -0.043,-0.974 -0.301,-1.958 -0.738,-2.821 -0.764,0.004 -1.524,0.134 -2.29,0.106 z m 0.725,3.346 c 0,0.033 0.003,0.097 0.003,0.13 0.411,0.954 0.566,1.995 0.591,3.026 0.791,0.176 1.563,0.433 2.364,0.566 0.292,-1.212 0.059,-2.477 -0.262,-3.658 -0.882,-0.047 -1.765,-0.073 -2.645,-0.154 l -0.032,0.014 -0.02,0.076 z m 0.035,3.673 c -0.01,0.095 -0.016,0.19 -0.019,0.286 0.078,1.239 0.082,2.519 -0.335,3.706 0.898,0.327 1.816,0.599 2.704,0.951 l 0.006,-0.013 c 0.536,-1.276 0.723,-2.66 0.742,-4.034 -1.017,-0.332 -2.055,-0.601 -3.068,-0.948 -0.008,0.013 -0.023,0.039 -0.03,0.052 z m -1.098,4.602 c -0.038,0.123 -0.071,0.246 -0.104,0.37 -10e-4,0.739 -0.28,1.433 -0.574,2.099 -0.287,0.619 -0.572,1.247 -1.003,1.783 -0.064,0.155 -0.13,0.312 -0.195,0.47 0.027,0.034 0.078,0.102 0.104,0.138 0.884,0.647 1.698,1.384 2.578,2.037 0.107,0.075 0.231,0.176 0.369,0.112 1.274,-1.672 2.293,-3.578 2.665,-5.664 -1.234,-0.5 -2.53,-0.841 -3.741,-1.397 -0.025,0.014 -0.073,0.04 -0.098,0.053 z"
     id="path4" />
</svg>
