<?xml version="1.0" encoding="UTF-8" standalone="no"?>
<svg
   version="1.1"
   width="33.6875"
   height="24.504427"
   viewBox="0 0 33.6875 24.504427"
   id="svg4"
   xmlns="http://www.w3.org/2000/svg"
   xmlns:svg="http://www.w3.org/2000/svg">
  <defs>
    <!-- This is the gradient that will actually be used on
     the cards. The colors themselves will be provided by the
     template, but the x values, y values, and offsets will be
     used from the SVG. -->
    <linearGradient id="rarity" x1="0" y1="0" x2="1" y2="1">
      <stop offset="0" style="stop-color:rgb(192,55,38);stop-opacity:1" id="stop2" />
      <stop offset="0.125" style="stop-color:rgb(192,55,38);stop-opacity:1" id="stop4" />
      <stop offset="0.5" style="stop-color:rgb(241,142,30);stop-opacity:1" id="stop6" />
      <stop offset="0.875" style="stop-color:rgb(192,55,38);stop-opacity:1" id="stop8" />
      <stop offset="1" style="stop-color:rgb(192,55,38);stop-opacity:1" id="stop10" />
    </linearGradient>
    <!-- These gradients are here so that you can visualize
     what the set symbol would like like in that rarity. The
     only gradient that matters in the end is the "rarity"
     gradient. -->
    <linearGradient id="mythic" x1="0" y1="1" x2="1" y2="0">
      <stop offset="0" style="stop-color:rgb(192,55,38);stop-opacity:1"/>
      <stop offset="0.125" style="stop-color:rgb(192,55,38);stop-opacity:1"/>
      <stop offset="0.5" style="stop-color:rgb(241,142,30);stop-opacity:1"/>
      <stop offset="0.875" style="stop-color:rgb(192,55,38);stop-opacity:1"/>
      <stop offset="1" style="stop-color:rgb(192,55,38);stop-opacity:1"/>
    </linearGradient>
    <linearGradient id="rare" x1="0" y1="1" x2="1" y2="0">
      <stop offset="0" style="stop-color:rgb(146,116,67);stop-opacity:1"/>
      <stop offset="0.125" style="stop-color:rgb(146,116,67);stop-opacity:1"/>
      <stop offset="0.5" style="stop-color:rgb(211,178,108);stop-opacity:1"/>
      <stop offset="0.875" style="stop-color:rgb(146,116,67);stop-opacity:1"/>
      <stop offset="1" style="stop-color:rgb(146,116,67);stop-opacity:1"/>
    </linearGradient>
    <linearGradient id="special" x1="0" y1="1" x2="1" y2="0">
      <stop offset="0" style="stop-color:rgb(76, 56, 106);stop-opacity:1"/>
      <stop offset="0.125" style="stop-color:rgb(76, 56, 106);stop-opacity:1"/>
      <stop offset="0.5" style="stop-color:rgb(201, 173, 221);stop-opacity:1"/>
      <stop offset="0.875" style="stop-color:rgb(76, 56, 106);stop-opacity:1"/>
      <stop offset="1" style="stop-color:rgb(76, 56, 106);stop-opacity:1"/>
    </linearGradient>
    <linearGradient id="uncommon" x1="0" y1="1" x2="1" y2="0">
      <stop offset="0" style="stop-color:rgb(98,110,119);stop-opacity:1"/>
      <stop offset="0.125" style="stop-color:rgb(98,110,119);stop-opacity:1"/>
      <stop offset="0.5" style="stop-color:rgb(196,222,238);stop-opacity:1"/>
      <stop offset="0.875" style="stop-color:rgb(98,110,119);stop-opacity:1"/>
      <stop offset="1" style="stop-color:rgb(98,110,119);stop-opacity:1"/>
    </linearGradient>
    <linearGradient id="common" x1="0" y1="1" x2="1" y2="0">
      <stop offset="0" style="stop-color:rgb(0,0,0);stop-opacity:1"/>
    </linearGradient>
    <linearGradient
            id="rarity-outline" x1="0" y1="1" x2="0" y2="1">
      <stop offset="0" style="stop-color:rgb(0,0,0);stop-opacity:1"/>
    </linearGradient>
  </defs>
  <path fill="url(#rarity-outline)" d="M 12.464843,0 11.226562,0.5742187 C 9.5278362,1.3617822 7.9024423,2.2779854 6.3300782,3.2714843 l -0.3789063,0.2402344 0.03125,0.4453125 c 0.2246153,3.2512283 1.20555,7.0742678 4.5273441,8.8828128 l 0.0059,0.002 0.0059,0.0039 c 3.854053,2.01285 8.733557,1.958659 12.589844,0.02148 l 0.002,-0.002 h 0.0039 c 3.38741,-1.734523 4.297678,-5.5876442 4.660156,-8.7792966 L 27.828125,3.6425781 27.460937,3.3867187 C 25.884925,2.2891568 24.213299,1.3583548 22.472656,0.57031245 L 21.25,0.0175781 21.419921,1.3476562 c 0.295049,2.3206274 0.953565,4.5737791 -0.18164,6.2402344 l -0.0098,0.015625 -0.0098,0.017578 C 19.505099,10.434677 14.715646,10.588434 12.753837,7.970703 L 12.740167,7.953125 12.726497,7.9375 C 12.016543,7.0980897 11.817571,6.1203153 11.83789,4.9785156 c 0.02032,-1.1417997 0.285032,-2.4007335 0.447266,-3.625 z m -8.2968742,7.6523437 -0.7148438,1 C 1.6630179,11.157029 0.63216997,14.03922 0.11132813,17.007812 L 0,17.634765 0.6015625,17.845703 c 3.468572,1.217598 6.452169,3.475427 8.8046875,6.326172 L 9.625,24.4375 9.9707032,24.4434 c 4.5743868,0.08822 9.1464218,0.0719 13.7226558,0.0078 l 0.34375,-0.0039 0.21875,-0.263671 c 2.381182,-2.834092 5.344737,-5.127819 8.820312,-6.3125 L 33.6875,17.662144 33.570312,17.025425 C 33.027394,14.071064 32.057562,11.161996 30.224609,8.6542968 L 29.5,7.6601562 28.949218,8.7597656 C 27.737795,11.182612 26.339173,13.475024 24,14.707031 19.767027,16.93531 14.242259,16.944139 9.6660156,14.689451 h -0.00195 C 7.3126208,13.531311 5.9765405,11.165677 4.7304688,8.7441406 Z" />
  <path fill="url(#rarity)" d="m 6.7306094,3.9059062 c 1.551,-0.98 3.149,-1.88 4.8119996,-2.651 -0.313,2.362 -1.101,5.142 0.611,7.166 2.306,3.0769998 7.689,2.8999998 9.705,-0.41 1.374,-2.017 0.587,-4.539 0.305,-6.757 1.703,0.771 3.334,1.679 4.869,2.748 -0.354,3.117 -1.229,6.6439998 -4.258,8.1949998 -3.631,1.824 -8.291,1.872 -11.906,-0.016 -2.9809996,-1.623 -3.9209996,-5.1339998 -4.1379996,-8.2749998 z m -2.667,5.182 c -1.711,2.3939998 -2.708,5.1659998 -3.21400002,8.0499998 3.61500002,1.269 6.70800002,3.615 9.13500002,6.556 4.5629996,0.088 9.1269996,0.072 13.6979996,0.008 2.45,-2.916 5.519,-5.302 9.151,-6.54 -0.53,-2.884 -1.47,-5.68 -3.214,-8.0659998 -1.229,2.4579998 -2.703,4.9229998 -5.27,6.2749998 -4.468,2.352 -10.226,2.352 -15.0159996,-0.008 -2.609,-1.285 -4.017,-3.84 -5.27,-6.2749998 z"/>
</svg>
