<?xml version="1.0" encoding="UTF-8" standalone="no"?>
<!-- Generated by IcoMoon.io -->

<svg
   version="1.1"
   width="31.983999"
   height="22.50104"
   viewBox="0 0 31.983999 22.50104"
   id="svg6"
   sodipodi:docname="mm3.svg"
   inkscape:version="1.1.1 (3bf5ae0d25, 2021-09-20)"
   xmlns:inkscape="http://www.inkscape.org/namespaces/inkscape"
   xmlns:sodipodi="http://sodipodi.sourceforge.net/DTD/sodipodi-0.dtd"
   xmlns="http://www.w3.org/2000/svg"
   xmlns:svg="http://www.w3.org/2000/svg">
  <defs
     id="defs10" />
  <sodipodi:namedview
     id="namedview8"
     pagecolor="#ffffff"
     bordercolor="#666666"
     borderopacity="1.0"
     inkscape:pageshadow="2"
     inkscape:pageopacity="0.0"
     inkscape:pagecheckerboard="0"
     showgrid="false"
     inkscape:zoom="25.75"
     inkscape:cx="15.980583"
     inkscape:cy="11.747573"
     inkscape:window-width="1920"
     inkscape:window-height="1009"
     inkscape:window-x="-8"
     inkscape:window-y="-8"
     inkscape:window-maximized="1"
     inkscape:current-layer="svg6" />
  <title
     id="title2">mm3</title>
  <path
     fill="#000000"
     d="m 5.881,2.652 c 1.551,-0.98 3.149,-1.88 4.812,-2.651 -0.313,2.362 -1.101,5.142 0.611,7.166 2.306,3.077 7.689,2.9 9.705,-0.41 C 22.383,4.74 21.596,2.218 21.314,0 c 1.703,0.771 3.334,1.679 4.869,2.748 -0.354,3.117 -1.229,6.644 -4.258,8.195 -3.631,1.824 -8.291,1.872 -11.906,-0.016 C 7.038,9.304 6.098,5.793 5.881,2.652 Z M 3.214,7.834 C 1.503,10.228 0.506,13 0,15.884 c 3.615,1.269 6.708,3.615 9.135,6.556 4.563,0.088 9.127,0.072 13.698,0.008 2.45,-2.916 5.519,-5.302 9.151,-6.54 -0.53,-2.884 -1.47,-5.68 -3.214,-8.066 C 27.541,10.3 26.067,12.765 23.5,14.117 19.032,16.469 13.274,16.469 8.484,14.109 5.875,12.824 4.467,10.269 3.214,7.834 Z"
     id="path4" />
</svg>
