<?xml version="1.0" encoding="UTF-8" standalone="no"?>
<svg
   version="1.1"
   width="32.242188"
   height="26.30278"
   viewBox="0 0 32.242187 26.30278"
   id="svg4"
   xmlns="http://www.w3.org/2000/svg"
   xmlns:svg="http://www.w3.org/2000/svg">
  <defs>
    <!-- This is the gradient that will actually be used on
     the cards. The colors themselves will be provided by the
     template, but the x values, y values, and offsets will be
     used from the SVG. -->
    <radialGradient id="rarity" cx="0" cy="0.75" r="1.25">
      <stop offset="0" style="stop-color:rgb(192,55,38);stop-opacity:1" id="stop2" />
      <stop offset="0.125" style="stop-color:rgb(192,55,38);stop-opacity:1" id="stop4" />
      <stop offset="0.5" style="stop-color:rgb(241,142,30);stop-opacity:1" id="stop6" />
      <stop offset="0.875" style="stop-color:rgb(192,55,38);stop-opacity:1" id="stop8" />
      <stop offset="1" style="stop-color:rgb(192,55,38);stop-opacity:1" id="stop10" />
    </radialGradient>
    <!-- These gradients are here so that you can visualize
     what the set symbol would like like in that rarity. The
     only gradient that matters in the end is the "rarity"
     gradient. -->
    <linearGradient id="mythic" x1="0" y1="1" x2="1" y2="0">
      <stop offset="0" style="stop-color:rgb(192,55,38);stop-opacity:1"/>
      <stop offset="0.125" style="stop-color:rgb(192,55,38);stop-opacity:1"/>
      <stop offset="0.5" style="stop-color:rgb(241,142,30);stop-opacity:1"/>
      <stop offset="0.875" style="stop-color:rgb(192,55,38);stop-opacity:1"/>
      <stop offset="1" style="stop-color:rgb(192,55,38);stop-opacity:1"/>
    </linearGradient>
    <linearGradient id="rare" x1="0" y1="1" x2="1" y2="0">
      <stop offset="0" style="stop-color:rgb(146,116,67);stop-opacity:1"/>
      <stop offset="0.125" style="stop-color:rgb(146,116,67);stop-opacity:1"/>
      <stop offset="0.5" style="stop-color:rgb(211,178,108);stop-opacity:1"/>
      <stop offset="0.875" style="stop-color:rgb(146,116,67);stop-opacity:1"/>
      <stop offset="1" style="stop-color:rgb(146,116,67);stop-opacity:1"/>
    </linearGradient>
    <linearGradient id="special" x1="0" y1="1" x2="1" y2="0">
      <stop offset="0" style="stop-color:rgb(76, 56, 106);stop-opacity:1"/>
      <stop offset="0.125" style="stop-color:rgb(76, 56, 106);stop-opacity:1"/>
      <stop offset="0.5" style="stop-color:rgb(201, 173, 221);stop-opacity:1"/>
      <stop offset="0.875" style="stop-color:rgb(76, 56, 106);stop-opacity:1"/>
      <stop offset="1" style="stop-color:rgb(76, 56, 106);stop-opacity:1"/>
    </linearGradient>
    <linearGradient id="uncommon" x1="0" y1="1" x2="1" y2="0">
      <stop offset="0" style="stop-color:rgb(98,110,119);stop-opacity:1"/>
      <stop offset="0.125" style="stop-color:rgb(98,110,119);stop-opacity:1"/>
      <stop offset="0.5" style="stop-color:rgb(196,222,238);stop-opacity:1"/>
      <stop offset="0.875" style="stop-color:rgb(98,110,119);stop-opacity:1"/>
      <stop offset="1" style="stop-color:rgb(98,110,119);stop-opacity:1"/>
    </linearGradient>
    <linearGradient id="common" x1="0" y1="1" x2="1" y2="0">
      <stop offset="0" style="stop-color:rgb(0,0,0);stop-opacity:1"/>
    </linearGradient>
    <linearGradient
            id="rarity-outline" x1="0" y1="1" x2="0" y2="1">
      <stop offset="0" style="stop-color:rgb(0,0,0);stop-opacity:1"/>
    </linearGradient>
  </defs>
  <path fill="url(#rarity-outline)" d="m 24.080078,16.898396 0.292968,-0.476562 c 0.537932,-0.876769 1.965634,-2.127482 4.248047,-2.292887 l 0.980469,-0.07031 -0.05469,-0.982422 C 29.271967,8.1025718 27.179929,4.9830599 25.378906,3.253947 23.603502,1.5504749 21.344162,0.40576127 19.035156,0.01761887 c 0,0 -1.229755,-0.12709477 -1.46056,0.30141971 -0.230805,0.42851448 0.528919,1.32748652 0.528919,1.32748652 0.567657,0.6781404 1.220703,1.563573 1.220703,2.7304688 0,1.8706118 -1.386595,3.2636718 -3.238281,3.2636718 -1.893154,0 -3.226358,-1.3332714 -3.238281,-3.2617187 -0.0078,-1.2079561 0.584464,-2.0630069 1.126953,-2.6953125 0,0 0.570421,-0.92492049 0.347752,-1.30795522 C 14.099693,-0.0073555 13.060548,0.0430095 13.060548,0.0430095 10.488848,0.44566035 8.1263383,1.7340136 6.3007814,3.7344158 5.1366769,5.0092839 4.230817,6.5284405 3.6054689,8.2363689 3.0507035,9.7496574 2.7259454,11.385919 2.6289064,13.109416 l -0.054687,0.970703 0.96875,0.08203 c 0.6951291,0.05895 1.5996402,0.216976 2.375,0.560547 0.7753597,0.343571 1.393224,0.832806 1.734375,1.595703 l 0.265625,0.591797 0.017578,0.312501 C 6.268061,18.541289 5.4449001,19.059151 4.8476563,19.265666 4.2504125,19.472181 3.6650338,19.444412 2.3261719,19.517619 L 0,19.644572 7.0390625,26.28715 25.179687,26.30278 25.466796,26.039108 c 1.836027,-1.6877 3.741548,-3.466839 5.066407,-4.736328 l 1.708984,-1.638672 -2.365234,-0.08398 C 27.701859,19.502685 27.09431,19.546258 24.085937,17.19926 Z M 20.914062,2.7324626 c 1.112372,0.4840789 2.183939,1.1050108 3.080078,1.9648438 1.398559,1.3430402 3.002509,3.7317057 3.427735,7.6406246 -2.02605,0.408163 -3.401617,1.451672 -4.265625,2.5625 -4.701423,0.0056 -9.408897,0.0061 -14.1132811,0.0098 C 8.4288988,13.982905 7.6100043,13.28517 6.7285157,12.894572 6.0328085,12.586296 5.4205317,12.535998 4.7832033,12.425822 4.9147944,11.199219 5.0902076,9.993751 5.482422,8.9238689 6.0250728,7.4418005 6.7974505,6.1552015 7.7773439,5.082072 h 0.00195 C 8.7675617,3.999155 9.9591972,3.2852177 11.220703,2.7500407 c -0.169289,0.5144795 -0.377176,1.0026757 -0.373047,1.6406251 0.01808,2.9235478 2.32944,5.25 5.238281,5.25 2.902309,0 5.238281,-2.3542885 5.238281,-5.2636719 0,-0.6426616 -0.226718,-1.1292204 -0.410156,-1.6445313 z M 8.8378907,19.007853 H 23.27539 c 1.831191,1.375567 3.177196,1.963097 4.398438,2.228516 -1.040128,0.980186 -2.083331,1.966832 -3.277344,3.066406 L 7.8339845,24.289105 4.623047,21.257855 C 4.8931918,21.212325 5.2163834,21.253055 5.5019533,21.15434 6.406649,20.841514 7.40209,20.124957 8.8378907,19.007855 Z"/>
  <path fill="url(#rarity)" d="m 23.536859,18.006947 c 3.084,2.406 4.113,2.495 6.304,2.573 -1.315999,1.261 -3.219,3.038 -5.051,4.722 l -17.3529995,-0.014 -5.056,-4.772 c 2.597,-0.142 2.796,0.163 6.175,-2.509 z m -0.017,-2.107 c 0.719,-1.172 2.42,-2.579 5.028,-2.768 -0.261,-4.722 -2.209,-7.57 -3.862,-9.157 -1.629,-1.563 -3.722,-2.619 -5.816,-2.971 0.596,0.712 1.455001,1.834 1.455001,3.373 0,2.39 -1.862001,4.263 -4.239,4.263 -2.401,0 -4.223001,-1.829 -4.238,-4.255 -0.01,-1.545 0.764,-2.649 1.368,-3.353 -2.344001,0.367 -4.4950005,1.534 -6.1760005,3.376 -1.072,1.174 -1.912,2.577 -2.496,4.172 -0.518,1.413 -0.825,2.951 -0.917,4.585 1.533,0.13 4.012,0.672 4.939,2.745 4.9842305,-0.0042 9.9715365,-0.0038 14.9539995,-0.01 z"/>
</svg>
