<?xml version="1.0" encoding="UTF-8" standalone="no"?>
<!-- Generated by IcoMoon.io -->

<svg
   version="1.1"
   width="26.615345"
   height="25.705128"
   viewBox="0 0 26.615345 25.705128"
   id="svg6"
   sodipodi:docname="mmq.svg"
   inkscape:version="1.1.1 (3bf5ae0d25, 2021-09-20)"
   xmlns:inkscape="http://www.inkscape.org/namespaces/inkscape"
   xmlns:sodipodi="http://sodipodi.sourceforge.net/DTD/sodipodi-0.dtd"
   xmlns="http://www.w3.org/2000/svg"
   xmlns:svg="http://www.w3.org/2000/svg">
  <defs
     id="defs10" />
  <sodipodi:namedview
     id="namedview8"
     pagecolor="#ffffff"
     bordercolor="#666666"
     borderopacity="1.0"
     inkscape:pageshadow="2"
     inkscape:pageopacity="0.0"
     inkscape:pagecheckerboard="0"
     showgrid="false"
     inkscape:zoom="25.75"
     inkscape:cx="13.456311"
     inkscape:cy="12.834951"
     inkscape:window-width="1920"
     inkscape:window-height="1009"
     inkscape:window-x="-8"
     inkscape:window-y="-8"
     inkscape:window-maximized="1"
     inkscape:current-layer="svg6" />
  <title
     id="title2">mmq</title>
  <path
     fill="#000000"
     d="m 21.242912,17.382 c 1.975,0 2.783,-0.76 2.808,-1.623 0.039,-1.154 -1.315,-2.458 -3.13,-2.458 -2.866,0 -4.953,3.388 -4.953,3.388 1.105,0.421 3.243,0.693 3.854,0.693 z m -14.4530004,0 c 0.614,0 2.752,-0.272 3.8540004,-0.693 0,0 -2.0870004,-3.388 -4.9530004,-3.388 -1.811,0 -3.166,1.304 -3.13,2.458 0.028,0.863 0.832,1.623 2.808,1.623 z M 13.090912,0 C 3.7299116,0 0.29791157,5.202 0.29791157,5.202 c 0,0 1.04000003,2.392 4.88800003,2.6 0,0 3.122,-3.122 8.0110004,-3.122 h 0.111 c 4.889,0 8.01,3.122 8.01,3.122 3.846,-0.208 4.886,-2.6 4.886,-2.6 0,0 -3.432,-5.202 -12.793,-5.202 z m 0.327,11.026 c 11.026,0 13.107,-2.6 13.107,-2.6 0,0 1.246,14.874 -5.512,17.163 0,0 -2.184,0.727 -3.432,-1.457 -1.248,-2.184 -2.914,-5.202 -4.265,-5.202 h -0.017 c -1.351,0 -3.016,3.019 -4.2640004,5.202 -1.248,2.183 -3.432,1.457 -3.432,1.457 -6.761,-2.289 -5.51200003,-17.163 -5.51200003,-17.163 0,0 2.08000003,2.6 13.10700043,2.6 h 0.222 z"
     id="path4" />
</svg>
