<?xml version="1.0" encoding="UTF-8" standalone="no"?>
<svg
   version="1.1"
   width="31.400179"
   height="31.138334"
   viewBox="0 0 31.400179 31.138335"
   id="svg4"
   xmlns="http://www.w3.org/2000/svg"
   xmlns:svg="http://www.w3.org/2000/svg">
  <defs>
    <!-- This is the gradient that will actually be used on
     the cards. The colors themselves will be provided by the
     template, but the x values, y values, and offsets will be
     used from the SVG. -->
    <linearGradient id="rarity" x1="0" y1="0" x2="1" y2="1">
      <stop offset="0" style="stop-color:rgb(192,55,38);stop-opacity:1" id="stop2" />
      <stop offset="0.125" style="stop-color:rgb(192,55,38);stop-opacity:1" id="stop4" />
      <stop offset="0.5" style="stop-color:rgb(241,142,30);stop-opacity:1" id="stop6" />
      <stop offset="0.875" style="stop-color:rgb(192,55,38);stop-opacity:1" id="stop8" />
      <stop offset="1" style="stop-color:rgb(192,55,38);stop-opacity:1" id="stop10" />
    </linearGradient>
    <!-- These gradients are here so that you can visualize
     what the set symbol would like like in that rarity. The
     only gradient that matters in the end is the "rarity"
     gradient. -->
    <linearGradient id="mythic" x1="0" y1="1" x2="1" y2="0">
      <stop offset="0" style="stop-color:rgb(192,55,38);stop-opacity:1"/>
      <stop offset="0.125" style="stop-color:rgb(192,55,38);stop-opacity:1"/>
      <stop offset="0.5" style="stop-color:rgb(241,142,30);stop-opacity:1"/>
      <stop offset="0.875" style="stop-color:rgb(192,55,38);stop-opacity:1"/>
      <stop offset="1" style="stop-color:rgb(192,55,38);stop-opacity:1"/>
    </linearGradient>
    <linearGradient id="rare" x1="0" y1="1" x2="1" y2="0">
      <stop offset="0" style="stop-color:rgb(146,116,67);stop-opacity:1"/>
      <stop offset="0.125" style="stop-color:rgb(146,116,67);stop-opacity:1"/>
      <stop offset="0.5" style="stop-color:rgb(211,178,108);stop-opacity:1"/>
      <stop offset="0.875" style="stop-color:rgb(146,116,67);stop-opacity:1"/>
      <stop offset="1" style="stop-color:rgb(146,116,67);stop-opacity:1"/>
    </linearGradient>
    <linearGradient id="special" x1="0" y1="1" x2="1" y2="0">
      <stop offset="0" style="stop-color:rgb(76, 56, 106);stop-opacity:1"/>
      <stop offset="0.125" style="stop-color:rgb(76, 56, 106);stop-opacity:1"/>
      <stop offset="0.5" style="stop-color:rgb(201, 173, 221);stop-opacity:1"/>
      <stop offset="0.875" style="stop-color:rgb(76, 56, 106);stop-opacity:1"/>
      <stop offset="1" style="stop-color:rgb(76, 56, 106);stop-opacity:1"/>
    </linearGradient>
    <linearGradient id="uncommon" x1="0" y1="1" x2="1" y2="0">
      <stop offset="0" style="stop-color:rgb(98,110,119);stop-opacity:1"/>
      <stop offset="0.125" style="stop-color:rgb(98,110,119);stop-opacity:1"/>
      <stop offset="0.5" style="stop-color:rgb(196,222,238);stop-opacity:1"/>
      <stop offset="0.875" style="stop-color:rgb(98,110,119);stop-opacity:1"/>
      <stop offset="1" style="stop-color:rgb(98,110,119);stop-opacity:1"/>
    </linearGradient>
    <linearGradient id="common" x1="0" y1="1" x2="1" y2="0">
      <stop offset="0" style="stop-color:rgb(0,0,0);stop-opacity:1"/>
    </linearGradient>
    <linearGradient
            id="rarity-outline" x1="0" y1="1" x2="0" y2="1">
      <stop offset="0" style="stop-color:rgb(0,0,0);stop-opacity:1"/>
    </linearGradient>
  </defs>
  <path fill="url(#rarity-outline)" d="M 17.134766 0.001953125 C 16.54801 -0.009279875 16.008402 0.0409971 15.404297 0.1171875 C 13.814401 0.3803384 12.589844 2.3046875 12.589844 2.3046875 C 12.589844 2.3046875 14.574552 2.5732953 15.09375 2.7851562 C 15.612947 2.9970172 16.975181 4.1289598 17.466797 5.1035156 L 17.46875 5.1054688 L 17.46875 5.1074219 C 17.758254 5.6770672 17.798274 6.2589391 17.75 6.3925781 L 17.75 6.3945312 C 17.69671 6.5423966 17.1925 7.0252451 16.546875 7.2519531 C 15.782442 7.5177867 14.704423 7.4773236 13.353516 7.9628906 C 12.594912 8.2348119 11.935675 8.6437176 11.353516 9.1152344 C 11.373499 8.9628988 11.398223 8.8117479 11.433594 8.6640625 C 11.676474 7.6499471 12.36357 6.5649382 13.128906 5.8710938 C 13.894242 5.1772494 14.902344 4.7363281 14.902344 4.7363281 C 14.902344 4.7363281 13.771953 3.17837 11.466797 3.421875 C 9.9604715 3.6823764 8.0239957 5.4541931 6.7148438 6.9902344 C 5.2676377 8.6811387 4.2636543 10.756099 3.9023438 13.023438 C 3.4835607 15.64646 3.8868194 18.530732 5.5234375 20.769531 C 5.2379988 20.681026 4.9510875 20.562224 4.671875 20.414062 L 4.6699219 20.412109 L 4.6679688 20.412109 C 2.3674209 19.563344 1.4286528 18.078009 0.033203125 16.490234 C 0.033203125 16.490234 -0.061849625 19.040407 0.068359375 20.080078 C 0.19856888 21.119749 1.1909105 22.802315 2.0292969 24.009766 L 2.03125 24.011719 L 2.0332031 24.013672 C 2.8843303 25.232407 3.9418218 26.398045 5.2890625 27.248047 L 5.2890625 27.246094 C 6.6832047 28.128127 8.2142157 28.564772 9.6738281 28.863281 L 9.6972656 28.867188 L 9.7207031 28.871094 C 9.7586571 28.877594 9.8067721 28.887021 9.8691406 28.900391 L 11.779297 29.310547 C 12.414051 29.835162 13.130712 30.261974 13.90625 30.570312 L 13.908203 30.570312 C 15.573072 31.230477 17.427908 31.323823 19.15625 30.804688 L 19.158203 30.804688 C 19.88279 30.585772 20.570563 30.265856 21.201172 29.857422 C 21.931279 29.656976 22.80745 29.388958 23.890625 29.033203 L 23.953125 29.011719 L 24.011719 28.986328 C 24.686136 28.698249 25.349716 28.35382 25.984375 27.941406 L 25.984375 27.943359 C 27.942795 26.671525 29.577184 24.835978 30.445312 22.648438 C 31.119418 20.955437 31.426911 19.27047 31.398438 17.376953 C 31.372038 15.578277 31.123765 13.436566 29.9375 11.705078 L 29.935547 11.703125 L 29.933594 11.699219 C 29.434453 10.977106 29.089064 10.644141 28.175781 9.9335938 C 27.262498 9.2230463 25.798828 9.203125 25.798828 9.203125 C 25.854188 10.415007 25.888946 11.771992 25.822266 12.923828 L 25.822266 12.927734 L 25.820312 12.933594 C 25.666729 13.621241 25.181362 14.359874 24.503906 14.982422 L 24.501953 14.984375 C 24.205362 15.257926 23.880979 15.497949 23.539062 15.707031 L 23.228516 15.453125 C 22.781872 15.088073 22.489335 14.679564 22.373047 14.271484 L 22.373047 14.269531 C 22.251262 13.829945 22.375947 13.243215 22.476562 13.111328 L 22.476562 13.109375 C 22.570833 12.985445 23.235825 12.677463 24.080078 11.873047 C 25.331331 10.68281 25.734436 9.0125969 25.601562 7.4785156 C 25.464914 5.8883139 24.714941 4.5675437 23.873047 3.5 L 23.871094 3.4980469 C 22.892895 2.2605513 21.629995 1.1660672 20.058594 0.55664062 L 20.056641 0.55664062 C 19.295399 0.26134422 18.507458 0.0954051 17.722656 0.03125 C 17.5263 0.0151985 17.330351 0.005697325 17.134766 0.001953125 z " />
  <path fill="url(#rarity)" d="m 23.227125,23.154197 c 0,1.385 -0.469,2.762 -1.313,3.867 -0.809,1.055 -1.955,1.843 -3.226,2.227 -1.365,0.41 -2.857,0.337 -4.181,-0.188 -1.24,-0.493 -2.306,-1.383 -3.021,-2.508 -0.767,-1.213 -1.099,-2.675 -0.944,-4.099 0.147,-1.354 0.739,-2.634 1.664,-3.63 0.941,-1.016 2.204,-1.696 3.566,-1.937 1.363,-0.237 2.778,-0.02 4.005,0.616 2.092,1.078 3.449,3.293 3.449,5.652 z m 1.77,-0.355 c 0,-1.901 -0.668,-3.744 -1.887,-5.206 0.879,-0.346 1.7,-0.853 2.408,-1.506 0.839,-0.771 1.524,-1.74 1.767,-2.828 0.158,-0.689 0.134,-1.424 0,-2.118 0.536,0.395 1.04,0.87 1.415,1.412 0.879,1.283 1.175,3.211 1.199,4.846 0.026,1.729 -0.237,3.162 -0.847,4.694 -0.732,1.846 -2.165,3.474 -3.885,4.591 -0.554,0.36 -1.14,0.665 -1.744,0.923 1.023,-1.394 1.574,-3.079 1.574,-4.808 z m -2.816,-6.153 c -1.863,-1.611 -4.357,-2.288 -6.78,-1.846 -0.117,-0.029 -0.232,-0.062 -0.349,-0.097 -1.603,-0.492 -3.1,-1.617 -3.718,-3.217 -0.026,-0.068 -0.053,-0.135 -0.073,-0.205 0.041,-0.047 0.085,-0.094 0.126,-0.141 0.71,-0.762 1.544,-1.4330001 2.473,-1.7660001 0.996,-0.358 2.098,-0.329 3.183,-0.707 0.917,-0.322 1.819,-0.935 2.118,-1.766 0.272,-0.753 0.047,-1.682 -0.355,-2.473 -0.68,-1.348 -1.863,-2.291 -3.179,-2.828 1.286,-0.193 2.672,-0.117 3.888,0.355 1.254,0.486 2.327,1.394 3.18,2.473 0.735,0.932 1.31,1.992 1.412,3.179 0.099,1.143 -0.244,2.4020001 -1.061,3.1790001 -0.551,0.525 -1.318,0.83 -1.763,1.415 -0.492,0.645 -0.589,1.635 -0.355,2.473 0.22,0.779 0.727,1.43 1.351,1.94 l -0.097,0.032 z m -13.3870003,5.154 c -0.755,-0.498 -1.453,-1.108 -1.998,-1.828 -1.382,-1.829 -1.784,-4.383 -1.412,-6.713 0.316,-1.983 1.195,-3.8060001 2.472,-5.2970001 1.154,-1.354 2.6370003,-2.438 4.2400003,-3.179 -0.996,0.946 -1.796,2.174 -2.1210003,3.531 -0.308,1.286 -0.188,2.6870001 0.3540003,3.8880001 0.621,1.383 1.805,2.496 3.18,3.179 0.002,0.003 0.008,0.003 0.014,0.006 -2.612004,1.341223 -4.3645004,3.707311 -4.7290003,6.413 z m -0.053,1.377 c 0.071,1.526 0.572,3 1.4420003,4.257 -0.07,-0.015 -0.138,-0.029 -0.2080003,-0.041 -1.374,-0.281 -2.728,-0.683 -3.885,-1.415 -1.119,-0.706 -2.057,-1.72 -2.828,-2.824 -0.761,-1.096 -1.362,-2.279 -1.766,-3.534 0.653,0.867 1.5,1.605 2.473,2.118 0.767,0.407 1.614,0.674 2.473,0.706 0.36,0.015 0.721,-0.011 1.078,-0.073 0.4030912,0.314377 0.8546504,0.575354 1.221,0.806 z"/>
</svg>
