<?xml version="1.0" encoding="UTF-8" standalone="no"?>
<!-- Generated by IcoMoon.io -->

<svg
   version="1.1"
   width="26.934999"
   height="27.591845"
   viewBox="0 0 26.934999 27.591845"
   id="svg8"
   sodipodi:docname="mp1.svg"
   inkscape:version="1.1.1 (3bf5ae0d25, 2021-09-20)"
   xmlns:inkscape="http://www.inkscape.org/namespaces/inkscape"
   xmlns:sodipodi="http://sodipodi.sourceforge.net/DTD/sodipodi-0.dtd"
   xmlns="http://www.w3.org/2000/svg"
   xmlns:svg="http://www.w3.org/2000/svg">
  <defs
     id="defs12" />
  <sodipodi:namedview
     id="namedview10"
     pagecolor="#ffffff"
     bordercolor="#666666"
     borderopacity="1.0"
     inkscape:pageshadow="2"
     inkscape:pageopacity="0.0"
     inkscape:pagecheckerboard="0"
     showgrid="false"
     inkscape:zoom="25.75"
     inkscape:cx="13.456311"
     inkscape:cy="13.76699"
     inkscape:window-width="1920"
     inkscape:window-height="1009"
     inkscape:window-x="-8"
     inkscape:window-y="-8"
     inkscape:window-maximized="1"
     inkscape:current-layer="svg8" />
  <title
     id="title2">mp1</title>
  <path
     fill="#000000"
     d="M 8.923,9.164 V 9.216 C 8.903,9.212 8.917,9.214 8.88,9.212 Z"
     id="path4" />
  <path
     fill="#000000"
     d="m 13.211,0 c 5.537,0.029 3.164,0.003 7.119,0.058 1.361,0.003 2.724,0.033 4.084,0.081 0.84,0.016 1.68,0.043 2.521,0.087 -0.157,1.794 -1.886,2.651 -3.613,3.008 1.016,0.52 2.096,0.974 2.817,1.906 0.875,1.157 0.434,2.828 -0.71,3.633 -1.358,0.965 -3.078,1.25 -4.693,0.998 C 19.877,9.633 18.904,9.175 18.703,8.242 18.378,6.789 20.134,5.445 21.465,6.068 21.85,6.258 22.288,6.827 22.174,7.296 22.041,7.895 21.332,8.103 20.799,8.098 20.65,8.097 20.628,7.868 20.726,7.738 20.824,7.607 21.169,7.572 21.197,7.488 21.299,7.183 21.05,6.94 20.824,6.855 c -0.237,-0.089 -0.728,0.04 -0.906,0.248 -0.259,0.303 -0.15,0.941 0.167,1.19 0.906,0.711 2.427,0.414 3.069,-0.814 C 23.4,7.01 23.115,6.207 22.716,5.892 21.706,5.097 20.211,4.888 19.02,5.224 c -0.923,0.26 -1.872,1.141 -1.966,2.203 -0.285,2.407 -0.211,4.573 -0.211,7.25 0,2.373 -0.211,4.863 0.486,7.167 0.255,0.938 0.823,1.956 1.712,2.276 0.774,0.278 1.871,0.235 2.631,0.042 1.067,-0.271 1.333,-0.522 1.844,-1.22 0.369,-0.504 0.441,-1.116 0.256,-1.903 -0.296,-1.26 -2.424,-1.517 -3.212,-0.529 -0.229,0.287 -0.392,1.015 -0.074,1.274 0.353,0.288 1.219,0.254 1.466,0.04 0.188,-0.163 0.227,-0.656 -0.061,-0.809 -0.091,-0.048 -0.408,-0.054 -0.239,-0.308 0.182,-0.273 0.847,-0.271 1.075,0.209 0.313,0.658 0.158,1.274 -0.372,1.696 -0.875,0.697 -2.537,0.849 -3.275,-0.071 -1.01,-1.259 -0.602,-3.593 0.961,-4.254 1.407,-0.595 2.872,-0.526 4.185,0.015 1.693,0.698 2.865,3.04 2.609,5.133 -0.262,2.139 -2.134,3.218 -4.167,3.794 -1.462,0.414 -3.32,0.561 -4.729,-0.032 -1.364,-0.574 -2.028,-1.055 -2.537,-2.079 -0.656,-1.347 -0.698,-2.912 -0.768,-4.384 -0.207,-4.305 -0.278,-8.587 -0.429,-12.888 0.016,-0.596 -0.225,-1.4 -0.818,-1.383 -0.731,0.021 -0.892,1.342 -0.816,2.09 -0.038,4.681 -0.041,9.265 -0.52,14.028 -0.137,1.361 -0.491,2.854 -1.654,3.711 C 8.256,27.921 5.356,27.797 2.922,26.897 1.795,26.314 0.802,25.583 0.333,24.35 -0.786,21.575 1.135,18.185 4.154,17.919 5.409,17.916 6.817,17.894 7.641,18.984 8.375,20.033 8.489,21.7 7.646,22.708 6.909,23.449 5.657,23.414 4.868,22.825 4.301,22.402 3.879,21.739 4.079,20.975 4.19,20.55 5.01,20.437 5.262,20.773 c 0.152,0.202 -0.208,0.19 -0.344,0.364 -0.133,0.17 -0.102,0.353 -0.02,0.495 0.211,0.366 1.092,0.47 1.456,0.182 C 6.623,21.601 6.532,20.768 6.272,20.51 5.597,19.842 4.556,19.674 3.761,20.144 c -0.5,0.296 -0.887,0.989 -0.818,1.575 0.058,0.496 0.214,0.862 0.355,1.107 0.17,0.294 0.394,0.475 0.752,0.773 1.075,0.896 2.927,1.092 4.218,0.23 C 9.623,22.87 9.804,20.913 9.917,19.382 10.069,15.769 9.957,12.203 9.938,8.588 9.973,7.713 9.688,6.676 9.048,6.111 8.057,5.236 6.966,4.906 5.804,5.122 4.93,5.284 3.905,5.919 3.653,6.938 3.526,7.51 4.102,8.096 4.53,8.316 5.216,8.679 6.312,8.845 6.806,8.295 7.048,8.025 7.132,7.31 6.952,7.042 6.784,6.792 6.089,6.706 5.887,6.917 5.729,7.083 5.726,7.776 6.217,7.725 6.345,7.712 6.453,7.858 6.379,7.968 6.308,8.073 6.062,8.141 5.886,8.108 5.382,8.012 4.486,7.575 4.697,6.754 5.258,5.529 7.058,5.781 7.738,6.759 8.5,7.586 8.155,9.019 7.126,9.445 5.448,10.198 3.597,9.934 1.983,9.192 0.866,8.678 0.079,7.418 0.334,6.123 0.621,4.597 2.428,3.532 3.777,3.144 3.706,3.033 3.452,3.077 3.099,3.024 1.564,2.795 0.181,1.79 0,0.193 1.287,0.098 2.481,0.118 3.771,0.099 4.888,0.075 6.004,0.05 7.124,0.056 8.363,0.023 9.601,0.005 10.84,0.023 L 13.213,0 Z"
     id="path6" />
</svg>
