<?xml version="1.0" encoding="UTF-8" standalone="no"?>
<svg
   version="1.1"
   width="28.583984"
   height="29.102007"
   viewBox="0 0 28.583984 29.102007"
   id="svg6"
   xmlns="http://www.w3.org/2000/svg"
   xmlns:svg="http://www.w3.org/2000/svg">
  <defs>
    <!-- This is the gradient that will actually be used on
     the cards. The colors themselves will be provided by the
     template, but the x values, y values, and offsets will be
     used from the SVG. -->
    <linearGradient id="rarity" x1="0" y1="0" x2="1" y2="1">
      <stop offset="0" style="stop-color:rgb(192,55,38);stop-opacity:1" id="stop2" />
      <stop offset="0.125" style="stop-color:rgb(192,55,38);stop-opacity:1" id="stop4" />
      <stop offset="0.5" style="stop-color:rgb(241,142,30);stop-opacity:1" id="stop6" />
      <stop offset="0.875" style="stop-color:rgb(192,55,38);stop-opacity:1" id="stop8" />
      <stop offset="1" style="stop-color:rgb(192,55,38);stop-opacity:1" id="stop10" />
    </linearGradient>
    <!-- These gradients are here so that you can visualize
     what the set symbol would like like in that rarity. The
     only gradient that matters in the end is the "rarity"
     gradient. -->
    <linearGradient id="mythic" x1="0" y1="1" x2="1" y2="0">
      <stop offset="0" style="stop-color:rgb(192,55,38);stop-opacity:1"/>
      <stop offset="0.125" style="stop-color:rgb(192,55,38);stop-opacity:1"/>
      <stop offset="0.5" style="stop-color:rgb(241,142,30);stop-opacity:1"/>
      <stop offset="0.875" style="stop-color:rgb(192,55,38);stop-opacity:1"/>
      <stop offset="1" style="stop-color:rgb(192,55,38);stop-opacity:1"/>
    </linearGradient>
    <linearGradient id="rare" x1="0" y1="1" x2="1" y2="0">
      <stop offset="0" style="stop-color:rgb(146,116,67);stop-opacity:1"/>
      <stop offset="0.125" style="stop-color:rgb(146,116,67);stop-opacity:1"/>
      <stop offset="0.5" style="stop-color:rgb(211,178,108);stop-opacity:1"/>
      <stop offset="0.875" style="stop-color:rgb(146,116,67);stop-opacity:1"/>
      <stop offset="1" style="stop-color:rgb(146,116,67);stop-opacity:1"/>
    </linearGradient>
    <linearGradient id="special" x1="0" y1="1" x2="1" y2="0">
      <stop offset="0" style="stop-color:rgb(76, 56, 106);stop-opacity:1"/>
      <stop offset="0.125" style="stop-color:rgb(76, 56, 106);stop-opacity:1"/>
      <stop offset="0.5" style="stop-color:rgb(201, 173, 221);stop-opacity:1"/>
      <stop offset="0.875" style="stop-color:rgb(76, 56, 106);stop-opacity:1"/>
      <stop offset="1" style="stop-color:rgb(76, 56, 106);stop-opacity:1"/>
    </linearGradient>
    <linearGradient id="uncommon" x1="0" y1="1" x2="1" y2="0">
      <stop offset="0" style="stop-color:rgb(98,110,119);stop-opacity:1"/>
      <stop offset="0.125" style="stop-color:rgb(98,110,119);stop-opacity:1"/>
      <stop offset="0.5" style="stop-color:rgb(196,222,238);stop-opacity:1"/>
      <stop offset="0.875" style="stop-color:rgb(98,110,119);stop-opacity:1"/>
      <stop offset="1" style="stop-color:rgb(98,110,119);stop-opacity:1"/>
    </linearGradient>
    <linearGradient id="common" x1="0" y1="1" x2="1" y2="0">
      <stop offset="0" style="stop-color:rgb(0,0,0);stop-opacity:1"/>
    </linearGradient>
    <linearGradient
            id="rarity-outline" x1="0" y1="1" x2="0" y2="1">
      <stop offset="0" style="stop-color:rgb(0,0,0);stop-opacity:1"/>
    </linearGradient>
  </defs>
  <path fill="url(#rarity-outline)" d="M 14.039062,0 11.666015,0.0234375 C 10.419085,0.0056988 9.1760474,0.02365271 7.9375,0.0566406 6.8123707,0.0510786 5.6979823,0.0757998 4.5898438,0.0996094 3.3158453,0.1182946 2.1066053,0.0973374 0.77929688,0.1953125 L 0,0.2519531 0.0878906,1.0273437 C 0.26232295,2.5663956 1.4117689,3.4834496 2.7167969,4.0195312 2.487614,4.1555488 2.2492105,4.1968939 2.0332032,4.3632812 1.2847838,4.9397779 0.62258803,5.7204692 0.43164063,6.7324219 v 0.00195 C 0.10591988,8.4045656 1.0873415,9.9711988 2.5039063,10.623047 c 1.7469049,0.8031 3.8294416,1.115574 5.7519531,0.257812 1.0498568,-0.441366 1.5583276,-1.546084 1.421875,-2.5917965 0.1332945,0.3626556 0.3606096,0.6468653 0.3457026,1.0195313 l -0.002,0.015625 v 0.017578 c 0.01905,3.6246012 0.130336,7.1745042 -0.01953,10.7480472 -0.034476,0.46429 -0.1314198,0.916904 -0.2070309,1.376953 -0.045414,-0.771801 -0.270909,-1.541614 -0.7050781,-2.162109 l -0.00781,-0.01172 -0.00781,-0.01172 C 8.5368269,18.57039 7.7739297,18.213094 7.0488282,18.058594 6.3237266,17.904093 5.6101156,17.918431 4.9863282,17.919922 h -0.03125 l -0.033203,0.002 c -3.5427554,0.3121 -5.75445172,4.203506 -4.4531252,7.449172 0.559745,1.467056 1.7499906,2.324073 2.9433594,2.941406 l 0.041016,0.02148 0.042969,0.01563 c 2.5926567,0.958666 5.7689832,1.126011 8.1835936,-0.707031 1.435413,-1.060994 1.806912,-2.803205 1.951172,-4.236328 0.483762,-4.810354 0.485466,-9.420315 0.523437,-14.0976562 l 0.002,-0.041016 -0.0059,-0.041016 c -0.02685,-0.2642968 9.25e-4,-0.6934332 0.07617,-0.9882813 0.02632,0.1189411 0.06547,0.2272543 0.0625,0.3378907 v 0.023437 0.023437 c 0.150677,4.2917898 0.221937,8.5758758 0.429688,12.8964838 0.06948,1.461023 0.09314,3.136474 0.84375,4.677735 v 0.002 l 0.002,0.002 c 0.583052,1.172978 1.496111,1.839152 2.917969,2.4375 1.667121,0.701634 3.647114,0.509205 5.224609,0.0625 1.076584,-0.305024 2.142034,-0.745876 3.013672,-1.449219 0.871637,-0.703343 1.538002,-1.708209 1.693359,-2.976562 0.297676,-2.433736 -0.941572,-5.039172 -3.068359,-5.916016 -1.473917,-0.607303 -3.165504,-0.689516 -4.763672,-0.01367 -1.051609,0.44473 -1.675669,1.425775 -1.886719,2.441406 -0.01608,0.07739 0.0097,0.157973 -0.002,0.236329 -0.278776,-1.778248 -0.265625,-3.664669 -0.265625,-5.595704 0,-2.690818 -0.07196,-4.822339 0.205078,-7.1621087 l 0.002,-0.011719 v -0.011719 c 0.01714,-0.1936406 0.177935,-0.3741385 0.292969,-0.5625 -0.179314,0.4476443 -0.23817,0.9500878 -0.123047,1.4707031 0.147651,0.6853664 0.59337,1.2024136 1.087891,1.5292966 0.49452,0.326884 1.044585,0.499455 1.558594,0.582032 h 0.002 0.002 c 1.779424,0.277656 3.695697,-0.02843 5.240234,-1.125 l 0.002,-0.0019 C 28.16465,9.1001158 28.727397,6.9674966 27.570312,5.4375 l -0.002,-0.00391 -0.002,-0.00195 C 27.089468,4.8150069 26.512895,4.4013618 25.923828,4.0605469 26.279236,3.9037302 26.673822,3.8558809 26.990234,3.6269531 27.786051,3.05117 28.417183,2.1658823 28.515625,1.0410156 L 28.583984,0.26757812 27.808593,0.2265625 C 26.962123,0.1822763 26.117414,0.1548288 25.27539,0.1386719 H 25.26172 C 23.90219,0.0908089 22.537582,0.0617026 21.17383,0.0585938 h -0.0078 C 17.230047,0.0038434 19.578527,0.02896176 14.048828,0 V 0.25 L 14.046828,0 h -0.002 l -0.002,0.75 z" />
  <path fill="url(#rarity)" d="m 14.044984,0.75 c 5.537,0.029 3.164,0.003 7.119,0.058 1.361,0.003 2.724,0.033 4.084,0.081 0.84,0.016 1.68,0.043 2.521,0.087 -0.157,1.794 -1.886,2.651 -3.613,3.008 1.016,0.52 2.096,0.974 2.817,1.906 0.875,1.157 0.434,2.828 -0.71,3.633 -1.358,0.965 -3.078,1.25 -4.693,0.998 -0.859,-0.138 -1.832,-0.596 -2.033,-1.529 -0.325,-1.453 1.431,-2.797 2.762,-2.174 0.385,0.19 0.823,0.759 0.709,1.228 -0.133,0.599 -0.842,0.807 -1.375,0.802 -0.149,-0.001 -0.171,-0.23 -0.073,-0.36 0.098,-0.131 0.443,-0.166 0.471,-0.25 0.102,-0.305 -0.147,-0.548 -0.373,-0.633 -0.237,-0.089 -0.728,0.04 -0.906,0.248 -0.259,0.303 -0.15,0.941 0.167,1.19 0.906,0.711 2.427,0.414 3.069,-0.814 0.246,-0.469 -0.039,-1.272 -0.438,-1.587 -1.01,-0.795 -2.505,-1.004 -3.696,-0.668 -0.923,0.26 -1.872,1.141 -1.966,2.203 -0.285,2.407 -0.211,4.573 -0.211,7.25 0,2.373 -0.211,4.863 0.486,7.167 0.255,0.938 0.823,1.956 1.712,2.276 0.774,0.278 1.871,0.235 2.631,0.042 1.067,-0.271 1.333,-0.522 1.844,-1.22 0.369,-0.504 0.441,-1.116 0.256,-1.903 -0.296,-1.26 -2.424,-1.517 -3.212,-0.529 -0.229,0.287 -0.392,1.015 -0.074,1.274 0.353,0.288 1.219,0.254 1.466,0.04 0.188,-0.163 0.227,-0.656 -0.061,-0.809 -0.091,-0.048 -0.408,-0.054 -0.239,-0.308 0.182,-0.273 0.847,-0.271 1.075,0.209 0.313,0.658 0.158,1.274 -0.372,1.696 -0.875,0.697 -2.537,0.849 -3.275,-0.071 -1.01,-1.259 -0.602,-3.593 0.961,-4.254 1.407,-0.595 2.872,-0.526 4.185,0.015 1.693,0.698 2.865,3.04 2.609,5.133 -0.262,2.139 -2.134,3.218 -4.167,3.794 -1.462,0.414 -3.32,0.561 -4.729,-0.032 -1.364,-0.574 -2.028,-1.055 -2.537,-2.079 -0.656,-1.347 -0.698,-2.912 -0.768,-4.384 -0.207,-4.305 -0.278,-8.587 -0.429,-12.888 0.016,-0.596 -0.225,-1.4 -0.818,-1.383 -0.731,0.021 -0.892,1.342 -0.816,2.09 -0.038,4.681 -0.041,9.265 -0.52,14.028 -0.137,1.361 -0.491,2.854 -1.654,3.711 -2.1409996,1.629 -5.0409996,1.505 -7.4749996,0.605 -1.127,-0.583 -2.12,-1.314 -2.589,-2.547 -1.11900002,-2.775 0.802,-6.165 3.821,-6.431 1.255,-0.003 2.663,-0.025 3.487,1.065 0.734,1.049 0.848,2.716 0.005,3.724 -0.737,0.741 -1.989,0.706 -2.778,0.117 -0.567,-0.423 -0.989,-1.086 -0.789,-1.85 0.111,-0.425 0.931,-0.538 1.183,-0.202 0.152,0.202 -0.208,0.19 -0.344,0.364 -0.133,0.17 -0.102,0.353 -0.02,0.495 0.211,0.366 1.092,0.47 1.456,0.182 0.269,-0.213 0.178,-1.046 -0.082,-1.304 -0.675,-0.668 -1.716,-0.836 -2.511,-0.366 -0.5,0.296 -0.887,0.989 -0.818,1.575 0.058,0.496 0.214,0.862 0.355,1.107 0.17,0.294 0.394,0.475 0.752,0.773 1.075,0.896 2.927,1.092 4.218,0.23 1.3549996,-0.959 1.5359996,-2.916 1.6489996,-4.447 0.152,-3.613 0.04,-7.179 0.021,-10.794 0.035,-0.875 -0.25,-1.912 -0.8899996,-2.477 -0.991,-0.875 -2.082,-1.205 -3.244,-0.989 -0.874,0.162 -1.899,0.797 -2.151,1.816 -0.127,0.572 0.449,1.158 0.877,1.378 0.686,0.363 1.782,0.529 2.276,-0.021 0.242,-0.27 0.326,-0.985 0.146,-1.253 -0.168,-0.25 -0.863,-0.336 -1.065,-0.125 -0.158,0.166 -0.161,0.859 0.33,0.808 0.128,-0.013 0.236,0.133 0.162,0.243 -0.071,0.105 -0.317,0.173 -0.493,0.14 -0.504,-0.096 -1.4,-0.533 -1.189,-1.354 0.561,-1.225 2.361,-0.973 3.041,0.005 0.762,0.827 0.417,2.26 -0.612,2.686 -1.678,0.753 -3.529,0.489 -5.143,-0.253 -1.117,-0.514 -1.90400002,-1.774 -1.649,-3.069 0.287,-1.526 2.094,-2.591 3.443,-2.979 -0.071,-0.111 -0.325,-0.067 -0.678,-0.12 -1.535,-0.229 -2.918,-1.234 -3.09900002,-2.831 C 2.1209844,0.848 3.3149844,0.868 4.6049844,0.849 c 1.117,-0.024 2.233,-0.049 3.353,-0.043 1.239,-0.033 2.4769996,-0.051 3.7159996,-0.033 l 2.373,-0.023 z"/>
</svg>
