<?xml version="1.0" encoding="UTF-8" standalone="no"?>
<!-- Generated by IcoMoon.io -->

<svg
   version="1.1"
   width="31.976999"
   height="16.69368"
   viewBox="0 0 31.976999 16.69368"
   id="svg6"
   sodipodi:docname="mrd.svg"
   inkscape:version="1.1.1 (3bf5ae0d25, 2021-09-20)"
   xmlns:inkscape="http://www.inkscape.org/namespaces/inkscape"
   xmlns:sodipodi="http://sodipodi.sourceforge.net/DTD/sodipodi-0.dtd"
   xmlns="http://www.w3.org/2000/svg"
   xmlns:svg="http://www.w3.org/2000/svg">
  <defs
     id="defs10" />
  <sodipodi:namedview
     id="namedview8"
     pagecolor="#ffffff"
     bordercolor="#666666"
     borderopacity="1.0"
     inkscape:pageshadow="2"
     inkscape:pageopacity="0.0"
     inkscape:pagecheckerboard="0"
     showgrid="false"
     inkscape:zoom="25.75"
     inkscape:cx="15.980583"
     inkscape:cy="8.3300971"
     inkscape:window-width="1920"
     inkscape:window-height="1009"
     inkscape:window-x="-8"
     inkscape:window-y="-8"
     inkscape:window-maximized="1"
     inkscape:current-layer="svg6" />
  <title
     id="title2">mrd</title>
  <path
     fill="#000000"
     d="m 23.532,6.099 -2.393,6.776 c 0,0 0.452,0.452 1.218,0.496 l 0.588,-1.67 c 0,0 5.69,0.496 6.73,1.309 0,0 -0.723,1.492 -1.673,-0.315 0,0 -1.49,2.078 0.046,3.297 1.536,1.221 3.567,0.632 3.929,-0.134 0,0 -1.492,-0.09 -1.853,-0.86 -0.359,-0.767 0.046,-1.084 0.361,-1.174 0.318,-0.09 1.402,-0.269 1.402,-1.174 0,-0.901 -1.944,-2.437 -7.678,-4.605 L 24.751,6.6 c 0,0 -0.454,-0.498 -1.221,-0.498 z m -7.724,0.785 c 0,0 2.935,0.421 4.336,0.782 L 18.293,5.875 c 0,0 -1.099,0.586 -2.486,1.009 z M 14.905,7.003 C 9.303,6.551 6.097,3.345 6.097,3.345 9.032,9.577 14.905,7.003 14.905,7.003 Z M 0,0.001 c 0,0 2.122,1.536 7.226,1.673 L 6.459,2.531 c 0,0 5.15,4.336 11.924,1.987 l 3.975,2.981 -1.265,3.522 c 0,0 -5.148,0.273 -10.886,-2.484 C 4.471,5.782 1.446,2.801 0,0 Z"
     id="path4" />
</svg>
