<?xml version="1.0" encoding="UTF-8" standalone="no"?>
<svg
   version="1.1"
   width="33.97784"
   height="18.675264"
   viewBox="0 0 33.97784 18.675265"
   id="svg4"
   xmlns="http://www.w3.org/2000/svg"
   xmlns:svg="http://www.w3.org/2000/svg">
  <defs>
    <!-- This is the gradient that will actually be used on
     the cards. The colors themselves will be provided by the
     template, but the x values, y values, and offsets will be
     used from the SVG. -->
    <linearGradient id="rarity" x1="-0.125" y1="0" x2="1.125" y2="0">
      <stop offset="0" style="stop-color:rgb(192,55,38);stop-opacity:1" id="stop2" />
      <stop offset="0.125" style="stop-color:rgb(192,55,38);stop-opacity:1" id="stop4" />
      <stop offset="0.5" style="stop-color:rgb(241,142,30);stop-opacity:1" id="stop6" />
      <stop offset="0.875" style="stop-color:rgb(192,55,38);stop-opacity:1" id="stop8" />
      <stop offset="1" style="stop-color:rgb(192,55,38);stop-opacity:1" id="stop10" />
    </linearGradient>
    <!-- These gradients are here so that you can visualize
     what the set symbol would like like in that rarity. The
     only gradient that matters in the end is the "rarity"
     gradient. -->
    <linearGradient id="mythic" x1="0" y1="1" x2="1" y2="0">
      <stop offset="0" style="stop-color:rgb(192,55,38);stop-opacity:1"/>
      <stop offset="0.125" style="stop-color:rgb(192,55,38);stop-opacity:1"/>
      <stop offset="0.5" style="stop-color:rgb(241,142,30);stop-opacity:1"/>
      <stop offset="0.875" style="stop-color:rgb(192,55,38);stop-opacity:1"/>
      <stop offset="1" style="stop-color:rgb(192,55,38);stop-opacity:1"/>
    </linearGradient>
    <linearGradient id="rare" x1="0" y1="1" x2="1" y2="0">
      <stop offset="0" style="stop-color:rgb(146,116,67);stop-opacity:1"/>
      <stop offset="0.125" style="stop-color:rgb(146,116,67);stop-opacity:1"/>
      <stop offset="0.5" style="stop-color:rgb(211,178,108);stop-opacity:1"/>
      <stop offset="0.875" style="stop-color:rgb(146,116,67);stop-opacity:1"/>
      <stop offset="1" style="stop-color:rgb(146,116,67);stop-opacity:1"/>
    </linearGradient>
    <linearGradient id="special" x1="0" y1="1" x2="1" y2="0">
      <stop offset="0" style="stop-color:rgb(76, 56, 106);stop-opacity:1"/>
      <stop offset="0.125" style="stop-color:rgb(76, 56, 106);stop-opacity:1"/>
      <stop offset="0.5" style="stop-color:rgb(201, 173, 221);stop-opacity:1"/>
      <stop offset="0.875" style="stop-color:rgb(76, 56, 106);stop-opacity:1"/>
      <stop offset="1" style="stop-color:rgb(76, 56, 106);stop-opacity:1"/>
    </linearGradient>
    <linearGradient id="uncommon" x1="0" y1="1" x2="1" y2="0">
      <stop offset="0" style="stop-color:rgb(98,110,119);stop-opacity:1"/>
      <stop offset="0.125" style="stop-color:rgb(98,110,119);stop-opacity:1"/>
      <stop offset="0.5" style="stop-color:rgb(196,222,238);stop-opacity:1"/>
      <stop offset="0.875" style="stop-color:rgb(98,110,119);stop-opacity:1"/>
      <stop offset="1" style="stop-color:rgb(98,110,119);stop-opacity:1"/>
    </linearGradient>
    <linearGradient id="common" x1="0" y1="1" x2="1" y2="0">
      <stop offset="0" style="stop-color:rgb(0,0,0);stop-opacity:1"/>
    </linearGradient>
    <linearGradient
            id="rarity-outline" x1="0" y1="1" x2="0" y2="1">
      <stop offset="0" style="stop-color:rgb(0,0,0);stop-opacity:1"/>
    </linearGradient>
  </defs>
  <path fill="url(#rarity-outline)" d="M 0.76367188,0.01187723 C 0.31585744,0.12083062 4.8337e-4,0.52170251 0,0.98258035 0.0529114,2.4250603 5.1186672,7.6292886 10.773438,10.42008 c 5.322054,2.557146 9.626854,2.55467 10.623046,2.535156 l -0.201172,0.570313 c -0.127665,0.362978 -0.03577,0.767008 0.236329,1.039062 0,0 0.732227,0.721916 1.867187,0.78711 0.445109,0.02617 0.853776,-0.245481 1.001953,-0.666016 l 0.322266,-0.916016 c 0.476782,0.04615 1.032569,0.09117 2.152344,0.253907 0.314927,0.04577 0.592722,0.110401 0.904297,0.164062 -0.08683,0.198595 -0.131428,0.176806 -0.197266,0.421875 -0.118215,0.440032 -0.187444,0.967561 -0.06836,1.539063 0.119085,0.571501 0.457689,1.169686 1.011719,1.609375 0.99738,0.792839 2.168458,1.005361 3.146485,0.886718 0.978026,-0.118643 1.861211,-0.430283 2.308593,-1.376953 0.302586,-0.639934 -0.137175,-1.383049 -0.84375,-1.425781 0,0 -0.278417,-0.02035 -0.578125,-0.105469 -0.194907,-0.05536 -0.216246,-0.0803 -0.279296,-0.117187 0.198319,-0.05372 0.314958,-0.0578 0.603515,-0.214844 0.490299,-0.266844 1.103516,-0.919722 1.103516,-1.771484 0,-0.58485 -0.281377,-1.051866 -0.646485,-1.460938 C 32.875127,11.762961 32.387349,11.378546 31.736328,10.963049 30.625447,10.254057 28.717225,9.4123357 26.46875,8.5138303 L 26.6875,7.9337522 c 0.132061,-0.3517176 0.05587,-0.7477772 -0.197266,-1.0253907 0,0 -0.761083,-0.8242187 -1.960937,-0.8242187 l 0.0039,0.00781 C 24.20001,6.0891428 23.8873,6.2524552 23.699219,6.5275022 l -0.002,0.00195 c -0.01571,0.087625 -0.01965,0.1769564 -0.01172,0.265625 L 23.589844,6.7482053 23.40625,7.2677365 19.982422,4.7013303 C 19.716764,4.5012968 19.369054,4.4463952 19.054688,4.5548459 13.687607,6.4159725 10.096848,4.0417687 9,3.2423459 9.4638188,2.6037294 9.0397539,1.7046674 8.2519531,1.6564085 5.7964449,1.5904985 4.0944775,1.1900928 3.0234375,0.8224241 1.5524551,0.1797705 1.1081471,-0.05842455 0.76367188,0.01187723 Z" />
  <path fill="url(#rarity)" d="M 24.532,7.0815803 22.139,13.85758 c 0,0 0.452,0.452 1.218,0.496 l 0.588,-1.67 c 0,0 5.69,0.496 6.73,1.309 0,0 -0.723,1.492 -1.673,-0.315 0,0 -1.49,2.078 0.046,3.297 1.536,1.221 3.567,0.632 3.929,-0.134 0,0 -1.492,-0.09 -1.853,-0.86 -0.359,-0.767 0.046,-1.084 0.361,-1.174 0.318,-0.09 1.402,-0.269 1.402,-1.174 0,-0.901 -1.944,-2.437 -7.678,-4.6049997 l 0.542,-1.445 c 0,0 -0.454,-0.498 -1.221,-0.498 z m -7.724,0.785 c 0,0 2.935,0.421 4.336,0.782 l -1.851,-1.791 c 0,0 -1.099,0.586 -2.486,1.009 z m -0.903,0.119 c -5.602,-0.452 -8.808,-3.658 -8.808,-3.658 2.935,6.2319997 8.808,3.658 8.808,3.658 z M 1,0.98358035 c 0,0 2.122,1.53599995 7.226,1.67299995 l -0.767,0.857 c 0,0 5.15,4.336 11.924,1.987 l 3.975,2.981 -1.265,3.5219997 c 0,0 -5.148,0.273 -10.886,-2.4839997 C 5.471,6.7645803 2.446,3.7835803 1,0.98258035 Z"/>
</svg>
