<?xml version="1.0" encoding="UTF-8" standalone="no"?>
<svg
   version="1.1"
   width="20.3113"
   height="30.025734"
   viewBox="0 0 20.3113 30.025734"
   id="svg4"
   xmlns="http://www.w3.org/2000/svg"
   xmlns:svg="http://www.w3.org/2000/svg">
  <defs>
    <!-- This is the gradient that will actually be used on
     the cards. The colors themselves will be provided by the
     template, but the x values, y values, and offsets will be
     used from the SVG. -->
    <linearGradient id="rarity" x1="0" y1="1" x2="1" y2="0">
      <stop offset="0" style="stop-color:rgb(192,55,38);stop-opacity:1" id="stop2" />
      <stop offset="0.125" style="stop-color:rgb(192,55,38);stop-opacity:1" id="stop4" />
      <stop offset="0.5" style="stop-color:rgb(241,142,30);stop-opacity:1" id="stop6" />
      <stop offset="0.875" style="stop-color:rgb(192,55,38);stop-opacity:1" id="stop8" />
      <stop offset="1" style="stop-color:rgb(192,55,38);stop-opacity:1" id="stop10" />
    </linearGradient>
    <!-- These gradients are here so that you can visualize
     what the set symbol would like like in that rarity. The
     only gradient that matters in the end is the "rarity"
     gradient. -->
    <linearGradient id="mythic" x1="0" y1="1" x2="1" y2="0">
      <stop offset="0" style="stop-color:rgb(192,55,38);stop-opacity:1"/>
      <stop offset="0.125" style="stop-color:rgb(192,55,38);stop-opacity:1"/>
      <stop offset="0.5" style="stop-color:rgb(241,142,30);stop-opacity:1"/>
      <stop offset="0.875" style="stop-color:rgb(192,55,38);stop-opacity:1"/>
      <stop offset="1" style="stop-color:rgb(192,55,38);stop-opacity:1"/>
    </linearGradient>
    <linearGradient id="rare" x1="0" y1="1" x2="1" y2="0">
      <stop offset="0" style="stop-color:rgb(146,116,67);stop-opacity:1"/>
      <stop offset="0.125" style="stop-color:rgb(146,116,67);stop-opacity:1"/>
      <stop offset="0.5" style="stop-color:rgb(211,178,108);stop-opacity:1"/>
      <stop offset="0.875" style="stop-color:rgb(146,116,67);stop-opacity:1"/>
      <stop offset="1" style="stop-color:rgb(146,116,67);stop-opacity:1"/>
    </linearGradient>
    <linearGradient id="special" x1="0" y1="1" x2="1" y2="0">
      <stop offset="0" style="stop-color:rgb(76, 56, 106);stop-opacity:1"/>
      <stop offset="0.125" style="stop-color:rgb(76, 56, 106);stop-opacity:1"/>
      <stop offset="0.5" style="stop-color:rgb(201, 173, 221);stop-opacity:1"/>
      <stop offset="0.875" style="stop-color:rgb(76, 56, 106);stop-opacity:1"/>
      <stop offset="1" style="stop-color:rgb(76, 56, 106);stop-opacity:1"/>
    </linearGradient>
    <linearGradient id="uncommon" x1="0" y1="1" x2="1" y2="0">
      <stop offset="0" style="stop-color:rgb(98,110,119);stop-opacity:1"/>
      <stop offset="0.125" style="stop-color:rgb(98,110,119);stop-opacity:1"/>
      <stop offset="0.5" style="stop-color:rgb(196,222,238);stop-opacity:1"/>
      <stop offset="0.875" style="stop-color:rgb(98,110,119);stop-opacity:1"/>
      <stop offset="1" style="stop-color:rgb(98,110,119);stop-opacity:1"/>
    </linearGradient>
    <linearGradient id="common" x1="0" y1="1" x2="1" y2="0">
      <stop offset="0" style="stop-color:rgb(0,0,0);stop-opacity:1"/>
    </linearGradient>
    <linearGradient
            id="rarity-outline" x1="0" y1="1" x2="0" y2="1">
      <stop offset="0" style="stop-color:rgb(0,0,0);stop-opacity:1"/>
    </linearGradient>
  </defs>
  <path fill="url(#rarity-outline)" d="M 10.974263,0 C 6.1216064,0 2.1656703,3.957219 2.1656702,8.8125 c 0,2.217598 0.7417711,3.702631 1.1855468,4.480469 -0.2955343,0.273168 -0.5656715,0.499005 -0.921875,0.921875 -0.2728126,0.323872 -0.5353678,0.690155 -0.7011718,1.152344 -0.165804,0.462187 -0.2039273,1.070732 0.044922,1.613281 v 0.002 l 0.00195,0.0039 c 0.3815617,0.816957 1.0639557,1.095887 1.4355469,1.294881 l 0.00391,0.002 0.00586,0.002 c 0.3209556,0.167431 0.5635749,0.285405 0.6972657,0.38086 0.1326441,0.09471 0.1675366,0.131257 0.2207031,0.269531 0.1160908,0.306694 0.073369,0.434031 0.060547,0.580078 -1.2378093,1.043776 -2.8143072,1.813874 -3.89257811,3.761719 h -0.001953 c -0.48597955,0.879051 -0.33307188,1.885653 0.0605469,2.427734 0.0441286,0.06077 0.0695641,0.03808 0.11328125,0.08984 -0.0142602,0.03282 -0.0217922,0.02238 -0.0351563,0.05664 -0.22631654,0.58016 -0.31618027,1.49368 0.171875,2.353516 C 1.0624721,28.993382 2.0791972,29.396309 3.2965341,29.328215 6.394298,29.160204 7.2613733,29.1875 7.2613733,29.1875 h 0.00195 0.00391 c 1.4563025,0.03498 2.7648157,-0.100214 4.0312497,-0.02539 h 0.002 c 0.795317,0.04542 1.624076,0.210418 2.417969,0.453125 0.07154,0.02181 0.595598,0.22511 1.138672,0.335938 0.271537,0.05541 0.562756,0.102747 0.923828,0.05469 0.360649,-0.04801 0.893458,-0.280169 1.140625,-0.773437 h 0.002 c 0.07637,-0.148845 0.141756,-0.284143 0.201172,-0.400391 l 0.09961,-0.195312 c 0.444815,-0.140292 0.840648,-0.395274 1.126954,-0.699219 0.560893,-0.59545 0.902112,-1.354254 0.857422,-2.205078 v -0.0039 -0.002 c -0.01581,-0.27528 -0.105594,-0.411453 -0.173829,-0.595703 0.257012,-0.242452 0.429895,-0.500285 0.550782,-0.673828 v -0.002 c 0.597509,-0.857301 0.860584,-1.911381 0.658203,-2.935547 -0.202499,-1.024759 -0.96186,-1.999067 -2.134766,-2.419922 -0.263442,-0.09455 -0.493893,0.006 -0.75,-0.02734 0.326884,-0.23594 0.646335,-0.404239 0.949219,-0.78125 l 0.002,-0.002 c 0.354058,-0.443221 0.539771,-0.941924 0.660156,-1.46875 0.120386,-0.526825 0.176276,-1.064814 0.01953,-1.642578 v -0.002 -0.002 C 18.760916,14.338694 18.212737,13.759005 17.550435,13.337891 18.017907,12.962103 19.78481,11.452083 19.78481,8.8125 19.78481,3.957837 15.832168,0 10.974263,0 Z" />
  <path fill="url(#rarity)" d="m 4.1543663,15.74 c -0.394,0.869 0.697,0.77 1.239,1.083 0.355,0.204 0.68,0.451 0.878,0.797 0.231,0.406 0.598,1.155 0.649,1.536 0,0 1.248,-0.406 1.823,-1.894 0,0 1.9929997,0.145 2.7389997,-0.048 0.743,-0.192 1.197,-0.506 1.197,-0.506 -0.888,0.048 -1.822,-0.12 -1.822,-0.12 0,0 0.553,-1.344 1.524,-2.204 1.506,-1.329 5.066,-1.055 5.644,1.055 0.172,0.634 -0.087,1.713 -0.496,2.225 -0.38,0.473 -0.924,0.815 -1.422,1.149 -1.079,0.718 -2.232,1.109 -3.479,1.425 -1.506,0.385 -3.4749997,0.289 -3.4749997,0.289 0,0 -2.018,0.959 -3.867,1.573 -1.115,0.367 -1.951,1.245 -2.33,2.394 0.069,0 2.402,-2.096 5.923,-1.837 0.818,0.06 1.6719997,0.202 2.4809997,0.024 1.97,-0.427 2.171,-1.63 2.932,-2.011 1.055,-0.526 2.291,-1.055 3.478,-0.629 1.753,0.629 1.897,2.55 0.995,3.843 -0.207,0.297 -0.538,0.724 -0.971,0.821 0,0 0.391,0.661 0.415,1.079 0.052,0.99 -0.941,2.288 -2.026,1.907 -0.632,-0.226 -0.888,-1.068 -0.74,-1.666 0.087,-0.349 0.276,-0.56 0.625,-0.65 0.812,-0.205 1.248,0.385 1.248,0.385 -0.096,-0.67 0.112,-1.359 -1.287,-1.675 -1.308,-0.295 -2.062,0.286 -2.892,0.282 -1.249,-0.002 -2.015,0 -3.3559997,-0.165 -1.407,-0.178 -3.461,0.213 -4.182,0.502 -0.466,0.186 -1.347,0.565 -1.516,1.158 -0.373,1.308 2.453,0.172 2.814,0.09 1.569,-0.346 3.046,-0.369 4.6549997,-0.385 0.848,-0.006 1.921,0.049 2.637,0.153 0.099,1.771 0.677,2.201 2.044,2.656 -0.069,0.135 -0.135,0.273 -0.205,0.409 -0.276,0.553 -1.644,-0.012 -2.018,-0.126 -0.857,-0.262 -1.759,-0.445 -2.652,-0.496 -1.3709997,-0.081 -2.6939997,0.057 -4.0679997,0.024 0,0 -0.932,-0.027 -4.05,0.142 -1.019,0.057 -1.53,-0.219 -1.756,-0.617 -0.65899995,-1.161 0.273,-2.125 0.273,-2.125 -0.108,-0.045 -1.25699995,-0.596 -0.577,-1.826 0.992,-1.792 2.595,-2.426 4.02,-3.761 0,0 0.156,-0.674 -0.126,-1.419 -0.256,-0.67 -0.815,-0.881 -1.392,-1.182 -0.366,-0.196 -0.817,-0.442 -1.001,-0.836 -0.516,-1.125 1.252,-2.391 1.892,-3.079 0,0 -1.408,-2.081 -1.408,-4.672 0,-4.315 3.497,-7.812 7.8089997,-7.812 4.318,0 7.811,3.497 7.811,7.812 0,2.399 -2.144,4.038 -2.144,4.038 -1.789,-0.55 -3.184,-0.223 -4.303,0.451 -2.032,1.223 -2.5289997,3.235 -2.5289997,3.235 -1.576,-0.238 -3.313,-1.098 -4.338,-2.123 0,0 -1.233,1.142 -1.317,1.329 z"/>
</svg>
