<?xml version="1.0" encoding="UTF-8" standalone="no"?>
<!-- Generated by IcoMoon.io -->

<svg
   version="1.1"
   width="31.539"
   height="27.058001"
   viewBox="0 0 31.539 27.058001"
   id="svg6"
   sodipodi:docname="ogw.svg"
   inkscape:version="1.1.1 (3bf5ae0d25, 2021-09-20)"
   xmlns:inkscape="http://www.inkscape.org/namespaces/inkscape"
   xmlns:sodipodi="http://sodipodi.sourceforge.net/DTD/sodipodi-0.dtd"
   xmlns="http://www.w3.org/2000/svg"
   xmlns:svg="http://www.w3.org/2000/svg">
  <defs
     id="defs10" />
  <sodipodi:namedview
     id="namedview8"
     pagecolor="#ffffff"
     bordercolor="#666666"
     borderopacity="1.0"
     inkscape:pageshadow="2"
     inkscape:pageopacity="0.0"
     inkscape:pagecheckerboard="0"
     showgrid="false"
     inkscape:zoom="25.75"
     inkscape:cx="15.747573"
     inkscape:cy="13.495146"
     inkscape:window-width="1920"
     inkscape:window-height="1009"
     inkscape:window-x="-8"
     inkscape:window-y="-8"
     inkscape:window-maximized="1"
     inkscape:current-layer="svg6" />
  <title
     id="title2">ogw</title>
  <path
     fill="#000000"
     d="m 13.958,0.485 c 0.058,-0.164 0.122,-0.325 0.194,-0.484 0.041,3.747 0.006,7.496 0.018,11.243 -0.006,4.665 0.014,9.331 -0.01,13.998 -3.227,-3.02 -6.428,-6.067 -9.648,-9.094 0.093,-0.084 0.19,-0.164 0.293,-0.236 1.568,-1.046 3.128,-2.104 4.694,-3.152 0.254,-0.135 0.288,-0.444 0.387,-0.686 1.352,-3.865 2.719,-7.725 4.073,-11.589 z m 3.544,-0.484 c -0.041,3.363 -0.006,6.728 -0.018,10.092 0.006,5.049 -0.014,10.099 0.01,15.148 3.227,-3.018 6.425,-6.067 9.646,-9.09 C 27.049,16.063 26.953,15.982 26.849,15.91 25.3,14.881 23.764,13.832 22.216,12.801 22.094,12.714 21.952,12.63 21.914,12.475 20.433,8.321 19.012,4.144 17.501,0 Z M 0,26.61 c 3.73,0.148 7.46,0.308 11.19,0.447 C 8.95,24.975 6.697,22.905 4.447,20.834 2.957,22.754 1.476,24.679 0,26.609 Z m 20.349,0.447 c 3.731,-0.139 7.46,-0.299 11.19,-0.447 -1.476,-1.93 -2.957,-3.856 -4.445,-5.775 -2.252,2.07 -4.504,4.141 -6.744,6.223 z"
     id="path4" />
</svg>
