<?xml version="1.0" encoding="UTF-8" standalone="no"?>
<svg
   version="1.1"
   width="34.509766"
   height="32.169109"
   viewBox="0 0 34.509766 32.16911"
   id="svg4"
   xmlns="http://www.w3.org/2000/svg"
   xmlns:svg="http://www.w3.org/2000/svg">
  <defs>
    <!-- This is the gradient that will actually be used on
     the cards. The colors themselves will be provided by the
     template, but the x values, y values, and offsets will be
     used from the SVG. -->
    <linearGradient id="rarity" x1="0" y1="0" x2="1" y2="1">
      <stop offset="0" style="stop-color:rgb(192,55,38);stop-opacity:1" id="stop2" />
      <stop offset="0.125" style="stop-color:rgb(192,55,38);stop-opacity:1" id="stop4" />
      <stop offset="0.5" style="stop-color:rgb(241,142,30);stop-opacity:1" id="stop6" />
      <stop offset="0.875" style="stop-color:rgb(192,55,38);stop-opacity:1" id="stop8" />
      <stop offset="1" style="stop-color:rgb(192,55,38);stop-opacity:1" id="stop10" />
    </linearGradient>
    <!-- These gradients are here so that you can visualize
     what the set symbol would like like in that rarity. The
     only gradient that matters in the end is the "rarity"
     gradient. -->
    <linearGradient id="mythic" x1="0" y1="1" x2="1" y2="0">
      <stop offset="0" style="stop-color:rgb(192,55,38);stop-opacity:1"/>
      <stop offset="0.125" style="stop-color:rgb(192,55,38);stop-opacity:1"/>
      <stop offset="0.5" style="stop-color:rgb(241,142,30);stop-opacity:1"/>
      <stop offset="0.875" style="stop-color:rgb(192,55,38);stop-opacity:1"/>
      <stop offset="1" style="stop-color:rgb(192,55,38);stop-opacity:1"/>
    </linearGradient>
    <linearGradient id="rare" x1="0" y1="1" x2="1" y2="0">
      <stop offset="0" style="stop-color:rgb(146,116,67);stop-opacity:1"/>
      <stop offset="0.125" style="stop-color:rgb(146,116,67);stop-opacity:1"/>
      <stop offset="0.5" style="stop-color:rgb(211,178,108);stop-opacity:1"/>
      <stop offset="0.875" style="stop-color:rgb(146,116,67);stop-opacity:1"/>
      <stop offset="1" style="stop-color:rgb(146,116,67);stop-opacity:1"/>
    </linearGradient>
    <linearGradient id="special" x1="0" y1="1" x2="1" y2="0">
      <stop offset="0" style="stop-color:rgb(76, 56, 106);stop-opacity:1"/>
      <stop offset="0.125" style="stop-color:rgb(76, 56, 106);stop-opacity:1"/>
      <stop offset="0.5" style="stop-color:rgb(201, 173, 221);stop-opacity:1"/>
      <stop offset="0.875" style="stop-color:rgb(76, 56, 106);stop-opacity:1"/>
      <stop offset="1" style="stop-color:rgb(76, 56, 106);stop-opacity:1"/>
    </linearGradient>
    <linearGradient id="uncommon" x1="0" y1="1" x2="1" y2="0">
      <stop offset="0" style="stop-color:rgb(98,110,119);stop-opacity:1"/>
      <stop offset="0.125" style="stop-color:rgb(98,110,119);stop-opacity:1"/>
      <stop offset="0.5" style="stop-color:rgb(196,222,238);stop-opacity:1"/>
      <stop offset="0.875" style="stop-color:rgb(98,110,119);stop-opacity:1"/>
      <stop offset="1" style="stop-color:rgb(98,110,119);stop-opacity:1"/>
    </linearGradient>
    <linearGradient id="common" x1="0" y1="1" x2="1" y2="0">
      <stop offset="0" style="stop-color:rgb(0,0,0);stop-opacity:1"/>
    </linearGradient>
    <linearGradient
            id="rarity-outline" x1="0" y1="1" x2="0" y2="1">
      <stop offset="0" style="stop-color:rgb(0,0,0);stop-opacity:1"/>
    </linearGradient>
  </defs>
  <path fill="url(#rarity-outline)" d="M 15.514292,0 14.208984,3.6729688 9.9726562,15.663203 9.7441406,16.069453 3.9199219,20.026484 16.158203,31.561641 16.169922,15.249141 16.14552,0 Z m 1.99435,0 -0.0067,4.005 -0.01758,10.091797 0.01172,17.464844 12.236328,-11.53125 -5.859375,-3.986329 -0.08594,-0.0918 L 18.145561,0 Z M 5.3222656,23.362422 0,30.274531 v 1.300781 l 0.9609375,0.03906 13.9042965,0.554687 z m 22.8964844,0.002 -9.544922,8.804687 2.714844,-0.107421 13.121094,-0.525391 z" />
  <path fill="url(#rarity)" d="m 14.958,4.49 c 0.058,-0.164 0.122,-0.325 0.194,-0.484 0.041,3.747 0.006,7.496 0.018,11.243 -0.006,4.665 0.014,9.331 -0.01,13.998 -3.227,-3.02 -6.428,-6.067 -9.648,-9.094 0.093,-0.084 0.19,-0.164 0.293,-0.236 1.568,-1.046 3.128,-2.104 4.694,-3.152 0.254,-0.135 0.288,-0.444 0.387,-0.686 1.352,-3.865 2.719,-7.725 4.073,-11.589 z m 3.544,-0.484 c -0.041,3.363 -0.006,6.728 -0.018,10.092 0.006,5.049 -0.014,10.099 0.01,15.148 3.227,-3.018 6.425,-6.067 9.646,-9.09 C 28.049,20.068 27.953,19.987 27.849,19.915 26.3,18.886 24.764,17.837 23.216,16.806 23.094,16.719 22.952,16.635 22.914,16.48 21.433,12.326 20.012,8.149 18.501,4.005 Z M 1,30.615 c 3.73,0.148 7.46,0.308 11.19,0.447 C 9.95,28.98 7.697,26.91 5.447,24.839 3.957,26.759 2.476,28.684 1,30.614 Z m 20.349,0.447 c 3.731,-0.139 7.46,-0.299 11.19,-0.447 -1.476,-1.93 -2.957,-3.856 -4.445,-5.775 -2.252,2.07 -4.504,4.141 -6.744,6.223 z"/>
</svg>
