<?xml version="1.0" encoding="UTF-8" standalone="no"?>
<svg
   version="1.1"
   width="28.302818"
   height="23.977774"
   viewBox="0 0 28.302818 23.977774"
   id="svg4"
   xmlns="http://www.w3.org/2000/svg"
   xmlns:svg="http://www.w3.org/2000/svg">
  <defs>
    <!-- This is the gradient that will actually be used on
     the cards. The colors themselves will be provided by the
     template, but the x values, y values, and offsets will be
     used from the SVG. -->
    <linearGradient id="rarity" x1="0" y1="0" x2="1.5" y2="0">
      <stop offset="0" style="stop-color:rgb(192,55,38);stop-opacity:1" id="stop2" />
      <stop offset="0.125" style="stop-color:rgb(192,55,38);stop-opacity:1" id="stop4" />
      <stop offset="0.5" style="stop-color:rgb(241,142,30);stop-opacity:1" id="stop6" />
      <stop offset="0.875" style="stop-color:rgb(192,55,38);stop-opacity:1" id="stop8" />
      <stop offset="1" style="stop-color:rgb(192,55,38);stop-opacity:1" id="stop10" />
    </linearGradient>
    <!-- These gradients are here so that you can visualize
     what the set symbol would like like in that rarity. The
     only gradient that matters in the end is the "rarity"
     gradient. -->
    <linearGradient id="mythic" x1="0" y1="1" x2="1" y2="0">
      <stop offset="0" style="stop-color:rgb(192,55,38);stop-opacity:1"/>
      <stop offset="0.125" style="stop-color:rgb(192,55,38);stop-opacity:1"/>
      <stop offset="0.5" style="stop-color:rgb(241,142,30);stop-opacity:1"/>
      <stop offset="0.875" style="stop-color:rgb(192,55,38);stop-opacity:1"/>
      <stop offset="1" style="stop-color:rgb(192,55,38);stop-opacity:1"/>
    </linearGradient>
    <linearGradient id="rare" x1="0" y1="1" x2="1" y2="0">
      <stop offset="0" style="stop-color:rgb(146,116,67);stop-opacity:1"/>
      <stop offset="0.125" style="stop-color:rgb(146,116,67);stop-opacity:1"/>
      <stop offset="0.5" style="stop-color:rgb(211,178,108);stop-opacity:1"/>
      <stop offset="0.875" style="stop-color:rgb(146,116,67);stop-opacity:1"/>
      <stop offset="1" style="stop-color:rgb(146,116,67);stop-opacity:1"/>
    </linearGradient>
    <linearGradient id="special" x1="0" y1="1" x2="1" y2="0">
      <stop offset="0" style="stop-color:rgb(76, 56, 106);stop-opacity:1"/>
      <stop offset="0.125" style="stop-color:rgb(76, 56, 106);stop-opacity:1"/>
      <stop offset="0.5" style="stop-color:rgb(201, 173, 221);stop-opacity:1"/>
      <stop offset="0.875" style="stop-color:rgb(76, 56, 106);stop-opacity:1"/>
      <stop offset="1" style="stop-color:rgb(76, 56, 106);stop-opacity:1"/>
    </linearGradient>
    <linearGradient id="uncommon" x1="0" y1="1" x2="1" y2="0">
      <stop offset="0" style="stop-color:rgb(98,110,119);stop-opacity:1"/>
      <stop offset="0.125" style="stop-color:rgb(98,110,119);stop-opacity:1"/>
      <stop offset="0.5" style="stop-color:rgb(196,222,238);stop-opacity:1"/>
      <stop offset="0.875" style="stop-color:rgb(98,110,119);stop-opacity:1"/>
      <stop offset="1" style="stop-color:rgb(98,110,119);stop-opacity:1"/>
    </linearGradient>
    <linearGradient id="common" x1="0" y1="1" x2="1" y2="0">
      <stop offset="0" style="stop-color:rgb(0,0,0);stop-opacity:1"/>
    </linearGradient>
    <linearGradient
            id="rarity-outline" x1="0" y1="1" x2="0" y2="1">
      <stop offset="0" style="stop-color:rgb(0,0,0);stop-opacity:1"/>
    </linearGradient>
  </defs>
  <path fill="url(#rarity-outline)" d="M 14.197266 0 C 13.837306 -0.0012299338 13.47817 0.011326853 13.119141 0.037109375 C 11.683658 0.14019394 10.262982 0.46014997 8.9140625 0.99414062 C 8.9140625 0.99414062 8.9121094 0.99414062 8.9121094 0.99414062 L 8.4375 1.1816406 L 8.4375 1.2792969 C 5.7975526 2.4400991 3.4577598 4.3592941 1.9433594 6.9140625 C 0.46543133 9.3838025 -0.20972846 12.342819 0.05859375 15.242188 C 0.05859375 15.242188 0.05859375 15.244141 0.05859375 15.244141 C 0.2973279 18.128994 1.4940626 20.871639 3.34375 23.007812 L 4.1835938 23.978516 L 4.6171875 22.769531 C 4.8637597 22.081321 5.1793763 21.420711 5.5566406 20.802734 L 5.7226562 20.53125 L 5.6425781 20.224609 C 5.2749355 18.804543 4.9061002 17.385613 4.5371094 15.966797 C 5.180322 16.775699 5.783932 17.599183 6.4824219 18.375 L 6.984375 18.933594 L 7.5410156 18.429688 C 7.7522301 18.239109 7.9672021 18.055398 8.1875 17.878906 L 8.484375 17.642578 L 8.46875 17.265625 C 8.390518 15.267427 8.1477443 13.313211 7.9414062 11.347656 C 8.7726214 12.89334 9.5678593 14.450838 10.496094 15.955078 L 10.792969 16.4375 L 11.337891 16.283203 C 11.685507 16.185423 12.038052 16.103036 12.392578 16.037109 L 12.875 15.949219 L 12.986328 15.470703 C 13.455049 13.466873 13.788487 11.452635 14.15625 9.4394531 C 14.524357 11.451813 14.859818 13.464936 15.326172 15.46875 L 15.4375 15.947266 L 15.921875 16.037109 C 16.301767 16.106689 16.665934 16.175712 17.007812 16.265625 L 17.533203 16.402344 L 17.828125 15.947266 C 18.712965 14.578021 19.573574 13.19782 20.441406 11.820312 C 20.292532 12.881587 20.11945 13.935388 20 15.003906 L 19.998047 15.007812 L 19.998047 15.009766 C 19.929107 15.674258 19.858773 16.36156 19.849609 17.072266 L 19.845703 17.474609 L 20.177734 17.701172 C 20.448431 17.885665 20.712813 18.081757 20.972656 18.289062 L 21.503906 18.712891 L 21.976562 18.228516 C 22.605657 17.584622 23.233323 16.939497 23.861328 16.294922 C 23.510186 17.460175 23.157336 18.621815 22.814453 19.792969 L 22.712891 20.140625 L 22.919922 20.4375 C 23.347571 21.043727 23.698177 21.724454 23.988281 22.443359 L 24.464844 23.626953 L 25.267578 22.634766 C 27.251242 20.183154 28.368728 17.003044 28.300781 13.783203 C 28.270579 10.777035 27.213536 7.8328049 25.404297 5.5078125 C 23.399798 2.9042945 20.525288 1.0958356 17.412109 0.375 C 16.357795 0.12911434 15.277144 0.0036898013 14.197266 0 z " />
  <path fill="url(#rarity)" d="m 9.1878815,1.6905591 c 2.5528665,-1.01100001 5.3904455,-1.20700001 8.0531835,-0.586 2.943629,0.681 5.673246,2.398 7.568787,4.86 1.709235,2.195 2.71242,4.9929999 2.740127,7.8299999 0.06497,3.036 -0.995541,6.057 -2.866241,8.369 -0.306688,-0.76 -0.68121,-1.494 -1.150319,-2.159 0.627707,-2.144 1.282166,-4.279 1.921337,-6.419 -1.337579,1.373 -2.674203,2.747 -4.013693,4.118 -0.273248,-0.218 -0.553184,-0.426 -0.840764,-0.622 0.0086,-0.667 0.07548,-1.331 0.144268,-1.994 0.246497,-2.205 0.572293,-4.4 0.914331,-6.5909999 -1.479936,2.3529999 -2.953184,4.7099999 -4.460827,7.0429999 -0.376433,-0.099 -0.759554,-0.171 -1.141719,-0.241 -0.753822,-3.239 -1.312739,-6.5229999 -1.900318,-9.7969999 -0.581847,3.276 -1.142675,6.5599999 -1.900318,9.7989999 -0.376433,0.07 -0.750955,0.157 -1.1207,0.261 -1.5334403,-2.485 -2.8748412,-5.093 -4.255414,-7.6729999 0.3171973,3.1309999 0.7165603,6.2579999 0.8398086,9.4059999 -0.2321655,0.186 -0.4585985,0.379 -0.6802545,0.579 -1.4522289,-1.613 -2.7563686,-3.364 -4.1006357,-5.075 0.65828,2.538 1.3203817,5.075 1.9777064,7.614 -0.40414,0.662 -0.7414011,1.368 -1.0050953,2.104 -1.7464962,-2.017 -2.8815277,-4.618 -3.1060499,-7.336 -0.25509547,-2.739 0.3869425,-5.5499999 1.7818465,-7.8809999 1.5229295,-2.571 3.9019097,-4.548 6.6009534,-5.608 z"/>
</svg>
