<?xml version="1.0" encoding="UTF-8" standalone="no"?>
<!-- Generated by IcoMoon.io -->

<svg
   version="1.1"
   width="28.053333"
   height="21.766125"
   viewBox="0 0 28.053333 21.766125"
   id="svg6"
   sodipodi:docname="ori.svg"
   inkscape:version="1.1.1 (3bf5ae0d25, 2021-09-20)"
   xmlns:inkscape="http://www.inkscape.org/namespaces/inkscape"
   xmlns:sodipodi="http://sodipodi.sourceforge.net/DTD/sodipodi-0.dtd"
   xmlns="http://www.w3.org/2000/svg"
   xmlns:svg="http://www.w3.org/2000/svg">
  <defs
     id="defs10" />
  <sodipodi:namedview
     id="namedview8"
     pagecolor="#ffffff"
     bordercolor="#666666"
     borderopacity="1.0"
     inkscape:pageshadow="2"
     inkscape:pageopacity="0.0"
     inkscape:pagecheckerboard="0"
     showgrid="false"
     inkscape:zoom="25.75"
     inkscape:cx="13.961165"
     inkscape:cy="10.854369"
     inkscape:window-width="1920"
     inkscape:window-height="1009"
     inkscape:window-x="-8"
     inkscape:window-y="-8"
     inkscape:window-maximized="1"
     inkscape:current-layer="svg6" />
  <title
     id="title2">ori</title>
  <path
     fill="#000000"
     d="m 8.8313816,0.94012547 c 2.6720004,-1.011 5.6420004,-1.207 8.4290004,-0.586 3.081,0.68100003 5.938,2.39800003 7.922,4.86000003 1.789,2.195 2.839,4.9929995 2.868,7.8299995 0.068,3.036 -1.042,6.057 -3,8.369 -0.321,-0.76 -0.713,-1.494 -1.204,-2.159 0.657,-2.144 1.342,-4.279 2.011,-6.419 -1.4,1.373 -2.799,2.747 -4.201,4.118 -0.286,-0.218 -0.579,-0.426 -0.88,-0.622 0.009,-0.667 0.079,-1.331 0.151,-1.994 0.258,-2.205 0.599,-4.3999995 0.957,-6.5909995 -1.549,2.3529995 -3.091,4.7099995 -4.669,7.0429995 -0.394,-0.099 -0.795,-0.171 -1.195,-0.241 -0.789,-3.239 -1.374,-6.5229995 -1.989,-9.7969995 -0.609,3.276 -1.196,6.5599995 -1.989,9.7989995 -0.394,0.07 -0.786,0.157 -1.173,0.261 -1.6050004,-2.485 -3.0090004,-5.0929995 -4.4540004,-7.6729995 0.332,3.1309995 0.75,6.2579995 0.879,9.4059995 -0.243,0.186 -0.48,0.379 -0.712,0.579 -1.52,-1.613 -2.885,-3.364 -4.292,-5.075 0.689,2.538 1.382,5.075 2.07,7.614 -0.423,0.662 -0.776,1.368 -1.052,2.104 -1.828,-2.017 -3.01599995,-4.618 -3.25099995,-7.336 -0.267,-2.739 0.405,-5.5499995 1.86499995,-7.8809995 1.594,-2.571 4.084,-4.548 6.909,-5.60800003 z"
     id="path4" />
</svg>
