<?xml version="1.0" encoding="UTF-8" standalone="no"?>
<!-- Generated by IcoMoon.io -->

<svg
   version="1.1"
   width="31.883249"
   height="24.766001"
   viewBox="0 0 31.883249 24.766001"
   id="svg6"
   sodipodi:docname="parl3.svg"
   inkscape:version="1.1.1 (3bf5ae0d25, 2021-09-20)"
   xmlns:inkscape="http://www.inkscape.org/namespaces/inkscape"
   xmlns:sodipodi="http://sodipodi.sourceforge.net/DTD/sodipodi-0.dtd"
   xmlns="http://www.w3.org/2000/svg"
   xmlns:svg="http://www.w3.org/2000/svg">
  <defs
     id="defs10" />
  <sodipodi:namedview
     id="namedview8"
     pagecolor="#ffffff"
     bordercolor="#666666"
     borderopacity="1.0"
     inkscape:pageshadow="2"
     inkscape:pageopacity="0.0"
     inkscape:pagecheckerboard="0"
     showgrid="false"
     inkscape:zoom="25.75"
     inkscape:cx="15.941748"
     inkscape:cy="12.368932"
     inkscape:window-width="1920"
     inkscape:window-height="1009"
     inkscape:window-x="-8"
     inkscape:window-y="-8"
     inkscape:window-maximized="1"
     inkscape:current-layer="svg6" />
  <title
     id="title2">parl3</title>
  <path
     fill="#000000"
     d="m 21.26075,0 c 0.173,0.183 0.253,0.423 0.24,0.722 -0.411,0.315 -0.577,0.825 -0.499,1.529 6.512,16.53 9.266,20.533 10.721,21.938 0.214,0.385 0.214,0.577 0,0.577 h -11.17 c -0.299,0 -0.404,-0.192 -0.316,-0.577 0.51,-0.754 0.765,-1.581 0.765,-2.48 0,-1.35 -8.523,-20.2 -9.379,-20.675 -0.571,-0.317 -0.657,-0.662 -0.26,-1.034 z m -16.736,16.224 c -0.122,0.02 -0.143,0.067 -0.149,0.189 0,2.335 -1.723,4.457 -4.18,7.625 -0.261,0.213 -0.261,0.4 0,0.563 3.514,0 5.926,0 7.235,0 0.191,0 0.227,-0.137 0.222,-0.205 -0.176,-2.056 -0.543,-4.137 -1.413,-6.024 -0.271,-0.587 -0.969,-1.991 -1.715,-2.149 z m 3.976,-14.182 c 0,0 -0.373,0.26 -0.409,1.555 -0.154,5.472 -0.567,7.264 -0.567,7.264 l -0.846,0.1 c 0,0 -0.362,-1.144 -0.464,-3.209 -0.103,-2.067 -0.154,-3.661 -0.435,-3.659 -0.284,0 -0.362,1.694 -0.467,3.634 -0.1,1.94 -0.357,3.558 -0.357,3.558 l -0.924,0.299 c 0,0 -0.362,-1.268 -0.567,-2.387 -0.205,-1.121 -0.257,-2.39 -0.411,-2.39 -0.154,0 -0.386,0.87 -0.489,3.16 -0.103,2.288 -0.127,2.735 -0.127,2.735 0,0 3.034,1.096 4.216,3.934 1.183,2.836 1.483,5.298 1.492,5.572 0.015,0.424 0.357,0.478 0.357,0.478 0,0 0.297,-0.054 0.357,-0.478 0.038,-0.271 0.308,-2.736 1.491,-5.572 1.181,-2.838 4.216,-3.934 4.216,-3.934 0,0 -0.025,-0.447 -0.127,-2.735 -0.103,-2.291 -0.335,-3.16 -0.489,-3.16 -0.156,0 -0.205,1.269 -0.411,2.39 -0.205,1.118 -0.567,2.387 -0.567,2.387 l -0.924,-0.299 c 0,0 -0.259,-1.619 -0.362,-3.558 -0.1,-1.94 -0.178,-3.634 -0.464,-3.634 -0.279,-0.002 -0.333,1.593 -0.435,3.659 -0.103,2.065 -0.462,3.209 -0.462,3.209 l -0.848,-0.1 c 0,0 -0.411,-1.792 -0.565,-7.264 -0.036,-1.295 -0.409,-1.555 -0.409,-1.555 z"
     id="path4" />
</svg>
