<?xml version="1.0" encoding="UTF-8" standalone="no"?>
<!-- Generated by IcoMoon.io -->

<svg
   version="1.1"
   width="31.943403"
   height="13.241606"
   viewBox="0 0 31.943403 13.241606"
   id="svg6"
   sodipodi:docname="parl.svg"
   inkscape:version="1.1.1 (3bf5ae0d25, 2021-09-20)"
   xmlns:inkscape="http://www.inkscape.org/namespaces/inkscape"
   xmlns:sodipodi="http://sodipodi.sourceforge.net/DTD/sodipodi-0.dtd"
   xmlns="http://www.w3.org/2000/svg"
   xmlns:svg="http://www.w3.org/2000/svg">
  <defs
     id="defs10" />
  <sodipodi:namedview
     id="namedview8"
     pagecolor="#ffffff"
     bordercolor="#666666"
     borderopacity="1.0"
     inkscape:pageshadow="2"
     inkscape:pageopacity="0.0"
     inkscape:pagecheckerboard="0"
     showgrid="false"
     inkscape:zoom="25.75"
     inkscape:cx="15.941748"
     inkscape:cy="6.9320388"
     inkscape:window-width="1920"
     inkscape:window-height="1009"
     inkscape:window-x="-8"
     inkscape:window-y="-8"
     inkscape:window-maximized="1"
     inkscape:current-layer="svg6" />
  <title
     id="title2">parl</title>
  <path
     fill="#000000"
     d="m 12.058,6.325 c 0.69,-0.01 1.652,-0.1 2.056,0.197 0.282,0.207 0.328,0.67 0.213,1.084 -0.058,0.215 -0.149,0.461 -0.283,0.64 C 13.8,8.568 13.34,8.727 12.955,8.787 12.834,8.805 11.518,8.795 11.516,8.807 11.697,7.98 11.879,7.151 12.057,6.324 Z M 31.932,7.496 C 31.604,5.055 29.27,4.086 27.264,3.303 25.787,2.728 24.125,2.466 22.364,2.136 21.7,2.076 21.038,2.015 20.374,1.955 19.903,1.933 19.432,1.911 18.959,1.889 h -1.727 c -0.29,0.006 -0.579,0.01 -0.871,0.018 L 14.208,2.086 C 13.172,2.274 12.148,2.366 11.182,2.613 9.518,3.037 8.082,3.605 6.727,4.291 7.045,3.631 7.363,2.973 7.68,2.317 7.909,1.911 8.141,1.506 8.37,1.099 8.11,1.268 7.928,1.701 7.746,1.955 7.076,2.893 6.408,3.83 5.74,4.766 5.734,4.776 5.73,4.788 5.721,4.798 5.403,3.726 5.085,2.651 4.77,1.577 4.633,1.052 4.494,0.525 4.357,0 4.592,1.571 4.967,3.264 4.999,4.964 4.697,4.821 4.395,4.681 4.093,4.537 3.479,4.225 2.88,3.923 2.302,3.584 1.901,3.349 1.501,3.113 1.103,2.878 1.084,2.872 1.068,2.866 1.053,2.86 1.397,3.118 1.743,3.375 2.087,3.633 2.576,4.018 3.065,4.402 3.551,4.784 3.895,5.066 4.241,5.343 4.585,5.623 4.225,5.737 3.863,5.854 3.501,5.969 2.346,6.325 1.189,6.681 0.032,7.037 0.022,7.043 0.01,7.047 0,7.053 1.529,6.884 3.032,6.393 4.751,6.379 V 6.397 C 4.068,7.789 3.481,9.191 2.729,10.506 v 0.016 H 2.747 C 3.25,9.79 3.755,9.053 4.258,8.319 4.608,7.838 4.96,7.355 5.31,6.872 5.332,6.856 5.354,6.84 5.376,6.824 c 0.471,1.024 0.703,2.281 1.02,3.42 0.109,0.449 0.219,0.898 0.328,1.349 v 0.03 H 6.74 C 6.647,11.017 6.555,10.408 6.46,9.798 6.383,9.17 6.307,8.539 6.231,7.909 6.187,7.487 6.142,7.066 6.1,6.643 7.295,7.142 8.343,7.748 9.404,8.37 9.277,8.929 9.151,9.489 9.025,10.046 v 0.05 h 3.091 c 0.94,0 1.904,0.035 2.582,-0.231 C 15.541,9.537 16.012,8.968 16.342,8.122 16.525,7.662 16.741,6.903 16.59,6.249 16.475,5.76 16.17,5.424 15.751,5.245 15.133,4.982 14.197,5.032 13.318,5.032 H 10.161 C 9.92,6.119 9.678,7.203 9.437,8.288 H 9.421 C 8.743,7.847 8.143,7.298 7.514,6.809 7.2,6.563 6.806,6.316 6.56,6.002 7.645,5.656 8.731,5.312 9.816,4.966 10.092,4.88 10.943,4.725 11.098,4.555 10.593,4.734 10.019,4.756 9.454,4.867 8.939,4.94 8.424,5.01 7.909,5.08 V 5.066 C 8.275,4.883 8.644,4.704 9.012,4.52 9.773,4.192 10.586,3.925 11.412,3.667 15.348,2.439 22.076,1.987 26.34,3.254 c 1.863,0.555 4.304,1.314 4.654,3.322 0.125,0.721 -0.26,1.28 -0.527,1.644 -0.78,1.075 -1.998,1.752 -3.287,2.318 -1.831,0.8 -3.865,1.245 -6.117,1.694 -0.843,0.092 -1.685,0.224 -2.531,0.28 -1.318,0.087 -1.552,0.124 -2.688,0.112 L 14.881,12.599 C 14.14,12.558 13.597,12.537 12.734,12.414 11.5,12.238 10.336,12.014 9.254,11.673 8.632,11.478 7.761,11.167 7.105,11.032 c -0.28,-0.058 0.543,0.271 0.823,0.392 0.811,0.352 1.654,0.614 2.579,0.89 5.151,1.539 13.021,1.082 17.397,-0.773 1.382,-0.588 2.652,-1.264 3.469,-2.416 0.255,-0.363 0.648,-0.966 0.557,-1.628 z m -6.97,-2.483 c -0.378,1.688 -0.757,3.377 -1.135,5.063 h 2.137 C 26.343,8.39 26.721,6.702 27.099,5.013 Z M 21.64,8.104 c -0.27,0.712 -2.387,1 -2.566,0.034 -0.159,-0.871 0.541,-1.622 1.151,-1.777 0.694,-0.175 1.642,-0.072 1.563,0.658 h 2.416 c 0.028,-1.328 -0.575,-1.735 -1.692,-1.942 0,0 -2.107,-0.121 -2.795,-0.008 -1.515,0.252 -2.364,0.861 -2.781,2.23 -0.097,0.32 -0.235,0.776 -0.163,1.231 0.238,1.493 1.594,1.545 3.32,1.545 0.777,0 1.553,0.008 2.155,-0.179 0.851,-0.268 1.385,-0.994 1.711,-1.793 h -2.32 z"
     id="path4" />
</svg>
