<?xml version="1.0" encoding="UTF-8" standalone="no"?>
<!-- Generated by IcoMoon.io -->

<svg
   version="1.1"
   width="31.917999"
   height="3.6059999"
   viewBox="0 0 31.917999 3.6059999"
   id="svg6"
   sodipodi:docname="parl2.svg"
   inkscape:version="1.1.1 (3bf5ae0d25, 2021-09-20)"
   xmlns:inkscape="http://www.inkscape.org/namespaces/inkscape"
   xmlns:sodipodi="http://sodipodi.sourceforge.net/DTD/sodipodi-0.dtd"
   xmlns="http://www.w3.org/2000/svg"
   xmlns:svg="http://www.w3.org/2000/svg">
  <defs
     id="defs10" />
  <sodipodi:namedview
     id="namedview8"
     pagecolor="#ffffff"
     bordercolor="#666666"
     borderopacity="1.0"
     inkscape:pageshadow="2"
     inkscape:pageopacity="0.0"
     inkscape:pagecheckerboard="0"
     showgrid="false"
     inkscape:zoom="25.75"
     inkscape:cx="15.941748"
     inkscape:cy="1.7669903"
     inkscape:window-width="1920"
     inkscape:window-height="1009"
     inkscape:window-x="-8"
     inkscape:window-y="-8"
     inkscape:window-maximized="1"
     inkscape:current-layer="svg6" />
  <title
     id="title2">parl2</title>
  <path
     fill="#000000"
     d="m 29.671,0 1.847,3.163 c 0.141,0.243 0.182,0.269 0.4,0.28 V 3.558 H 29.544 V 3.443 c 0.478,-0.006 0.605,-0.042 0.605,-0.181 0,-0.057 -0.028,-0.121 -0.085,-0.224 L 29.713,2.443 H 28.35 l -0.266,0.533 c -0.049,0.099 -0.071,0.154 -0.071,0.212 0,0.176 0.154,0.248 0.527,0.254 h 0.069 v 0.115 h -1.46 V 3.442 c 0.218,-0.01 0.323,-0.052 0.43,-0.17 0.07,-0.089 0.147,-0.208 0.224,-0.369 L 29.249,0 Z m -0.682,1.175 -0.535,1.06 h 1.139 L 28.988,1.175 Z M 21.007,0.709 h -0.014 v 2.292 c 0,0.327 0.149,0.424 0.668,0.44 V 3.556 H 20.046 V 3.441 c 0.232,-0.01 0.387,-0.058 0.498,-0.145 0.085,-0.067 0.113,-0.14 0.113,-0.259 0.008,-0.02 0.008,-0.058 0.008,-0.109 V 0.413 L 20.524,0.288 C 20.439,0.21 20.356,0.163 20.27,0.149 20.207,0.133 20.179,0.133 20.018,0.127 V 0.014 h 1.938 l 2.465,2.219 h 0.014 V 0.55 C 24.435,0.364 24.413,0.302 24.336,0.241 24.239,0.167 24.084,0.126 23.872,0.126 H 23.775 V 0.013 h 1.574 V 0.126 C 24.921,0.142 24.766,0.241 24.766,0.499 V 3.606 H 24.217 L 21.007,0.707 Z M 13.679,3.557 V 3.442 h 0.162 c 0.196,0 0.323,-0.036 0.4,-0.113 0.063,-0.057 0.077,-0.131 0.077,-0.311 V 0.559 C 14.318,0.373 14.304,0.305 14.241,0.248 14.15,0.161 14.037,0.135 13.749,0.135 H 13.636 V 0.016 h 4.165 V 1.009 H 17.638 C 17.561,0.498 17.196,0.228 16.572,0.228 h -0.83 v 1.433 h 0.149 c 0.47,0 0.702,-0.238 0.759,-0.771 h 0.161 V 2.63 H 16.65 C 16.62,2.331 16.551,2.158 16.388,2.02 16.269,1.905 16.136,1.869 15.891,1.869 h -0.149 v 1.169 c 0,0.285 0.05,0.333 0.372,0.333 h 0.373 c 0.4,0 0.569,-0.031 0.814,-0.141 0.168,-0.078 0.309,-0.181 0.408,-0.301 0.127,-0.149 0.16,-0.216 0.232,-0.44 h 0.155 l -0.24,1.068 H 13.677 Z M 8.957,0.237 c 0.121,0 0.212,0.006 0.303,0.022 0.343,0.056 0.561,0.331 0.561,0.708 0,0.239 -0.077,0.446 -0.202,0.575 C 9.476,1.683 9.274,1.74 8.915,1.74 v 0 H 8.677 V 0.238 h 0.28 z M 9.401,0.016 H 6.613 v 0.113 h 0.168 c 0.196,0 0.323,0.036 0.4,0.115 0.055,0.061 0.077,0.129 0.077,0.309 v 2.466 c 0,0.18 -0.022,0.254 -0.077,0.311 -0.077,0.077 -0.212,0.113 -0.4,0.113 H 6.64 V 3.558 H 9.323 V 3.443 H 9.16 C 8.956,3.443 8.837,3.407 8.76,3.33 8.697,3.273 8.677,3.199 8.677,3.019 V 1.943 h 0.155 l 1.257,1.615 h 1.77 V 3.443 C 11.627,3.437 11.466,3.365 11.34,3.195 L 10.322,1.869 C 10.94,1.703 11.235,1.413 11.235,0.967 11.235,0.677 11.073,0.436 10.771,0.259 10.462,0.083 10.075,0.015 9.402,0.015 Z m -7.56,1.159 0.604,1.06 H 1.306 Z M 2.521,0 H 2.101 L 0.654,2.903 C 0.577,3.064 0.499,3.183 0.428,3.272 0.323,3.391 0.218,3.432 0,3.442 V 3.557 H 1.461 V 3.442 H 1.391 C 1.019,3.436 0.864,3.364 0.864,3.188 0.864,3.13 0.886,3.075 0.934,2.976 L 1.201,2.443 h 1.364 l 0.35,0.595 C 2.97,3.141 3,3.204 3,3.262 3,3.401 2.873,3.436 2.396,3.443 V 3.558 H 4.77 V 3.443 C 4.552,3.433 4.509,3.407 4.37,3.163 Z"
     id="path4" />
</svg>
