<?xml version="1.0" encoding="UTF-8" standalone="no"?>
<svg
   version="1.1"
   width="33.518009"
   height="24.171282"
   viewBox="0 0 33.518009 24.171282"
   id="svg4"
   xmlns="http://www.w3.org/2000/svg"
   xmlns:svg="http://www.w3.org/2000/svg">
  <defs>
    <!-- This is the gradient that will actually be used on
     the cards. The colors themselves will be provided by the
     template, but the x values, y values, and offsets will be
     used from the SVG. -->
    <linearGradient id="rarity" x1="0" y1="1" x2="1" y2="0">
      <stop offset="0" style="stop-color:rgb(192,55,38);stop-opacity:1" id="stop2" />
      <stop offset="0.125" style="stop-color:rgb(192,55,38);stop-opacity:1" id="stop4" />
      <stop offset="0.5" style="stop-color:rgb(241,142,30);stop-opacity:1" id="stop6" />
      <stop offset="0.875" style="stop-color:rgb(192,55,38);stop-opacity:1" id="stop8" />
      <stop offset="1" style="stop-color:rgb(192,55,38);stop-opacity:1" id="stop10" />
    </linearGradient>
    <!-- These gradients are here so that you can visualize
     what the set symbol would like like in that rarity. The
     only gradient that matters in the end is the "rarity"
     gradient. -->
    <linearGradient id="mythic" x1="0" y1="1" x2="1" y2="0">
      <stop offset="0" style="stop-color:rgb(192,55,38);stop-opacity:1"/>
      <stop offset="0.125" style="stop-color:rgb(192,55,38);stop-opacity:1"/>
      <stop offset="0.5" style="stop-color:rgb(241,142,30);stop-opacity:1"/>
      <stop offset="0.875" style="stop-color:rgb(192,55,38);stop-opacity:1"/>
      <stop offset="1" style="stop-color:rgb(192,55,38);stop-opacity:1"/>
    </linearGradient>
    <linearGradient id="rare" x1="0" y1="1" x2="1" y2="0">
      <stop offset="0" style="stop-color:rgb(146,116,67);stop-opacity:1"/>
      <stop offset="0.125" style="stop-color:rgb(146,116,67);stop-opacity:1"/>
      <stop offset="0.5" style="stop-color:rgb(211,178,108);stop-opacity:1"/>
      <stop offset="0.875" style="stop-color:rgb(146,116,67);stop-opacity:1"/>
      <stop offset="1" style="stop-color:rgb(146,116,67);stop-opacity:1"/>
    </linearGradient>
    <linearGradient id="special" x1="0" y1="1" x2="1" y2="0">
      <stop offset="0" style="stop-color:rgb(76, 56, 106);stop-opacity:1"/>
      <stop offset="0.125" style="stop-color:rgb(76, 56, 106);stop-opacity:1"/>
      <stop offset="0.5" style="stop-color:rgb(201, 173, 221);stop-opacity:1"/>
      <stop offset="0.875" style="stop-color:rgb(76, 56, 106);stop-opacity:1"/>
      <stop offset="1" style="stop-color:rgb(76, 56, 106);stop-opacity:1"/>
    </linearGradient>
    <linearGradient id="uncommon" x1="0" y1="1" x2="1" y2="0">
      <stop offset="0" style="stop-color:rgb(98,110,119);stop-opacity:1"/>
      <stop offset="0.125" style="stop-color:rgb(98,110,119);stop-opacity:1"/>
      <stop offset="0.5" style="stop-color:rgb(196,222,238);stop-opacity:1"/>
      <stop offset="0.875" style="stop-color:rgb(98,110,119);stop-opacity:1"/>
      <stop offset="1" style="stop-color:rgb(98,110,119);stop-opacity:1"/>
    </linearGradient>
    <linearGradient id="common" x1="0" y1="1" x2="1" y2="0">
      <stop offset="0" style="stop-color:rgb(0,0,0);stop-opacity:1"/>
    </linearGradient>
    <linearGradient
            id="rarity-outline" x1="0" y1="1" x2="0" y2="1">
      <stop offset="0" style="stop-color:rgb(0,0,0);stop-opacity:1"/>
    </linearGradient>
  </defs>
  <path fill="url(#rarity-outline)" d="M 16.739793,2.5968739e-5 A 0.750075,0.750075 0 0 0 16.075731,0.41213535 C 15.368056,1.8177384 14.872068,3.2521013 14.298387,4.6074479 12.905157,4.8557837 11.615665,5.3187082 10.396043,5.796901 9.3153031,5.4314316 8.2581092,4.662469 6.919481,4.1211198 a 0.750075,0.750075 0 0 0 -1.015625,0.84375 C 6.1511379,6.2003531 6.3932829,7.4306148 6.622606,8.6621354 5.6985779,9.67708 4.9144252,10.807677 4.2710435,12.023464 3.1263401,11.970123 1.9700393,11.876423 0.7827622,11.824245 a 0.750075,0.750075 0 0 0 -0.62695312,1.207031 c 0.81740215,1.060213 1.65548072,2.094511 2.49023442,3.126953 -0.3869576,1.554862 -0.6720724,3.214918 -0.3828125,4.919922 a 0.750075,0.750075 0 0 0 0.00195,0.002 c 0.071972,0.420053 0.2855011,0.721084 0.6699219,0.90625 0.1922104,0.09258 0.4742322,0.152499 0.7636719,0.04492 0.2889496,-0.107393 0.4928937,-0.371182 0.5761718,-0.601562 v -0.002 c 1.5308295,-4.230696 4.7859753,-8.027643 9.0957064,-9.287108 a 0.750075,0.750075 0 0 0 0.0332,-0.01172 c 3.272079,-1.118247 7.040781,-0.444946 9.96875,1.410156 a 0.750075,0.750075 0 0 0 0,0.002 c 2.851447,1.801062 4.807947,4.781329 6.046875,7.976562 0.05411,0.139181 0.119021,0.295117 0.318359,0.455078 0.199338,0.159961 0.60283,0.222376 0.839844,0.128906 0.474028,-0.186938 0.499377,-0.422824 0.589844,-0.607421 0.180934,-0.369196 0.277895,-0.724969 0.308593,-1.089844 a 0.750075,0.750075 0 0 0 0,-0.002 C 31.599825,18.9109 31.32373,17.4697 30.939009,16.105493 c 0.791294,-1.015345 1.623925,-2.01503 2.427735,-3.076172 a 0.750075,0.750075 0 0 0 -0.628904,-1.20117 c -1.137635,0.04714 -2.253463,0.133746 -3.363281,0.199219 C 28.790728,10.961802 28.108302,9.9236257 27.261278,8.9863541 27.612844,7.708009 28.1626,6.4302433 28.540575,4.9980729 A 0.750075,0.750075 0 0 0 27.538621,4.109401 C 26.131105,4.6657473 24.852398,5.3469208 23.558153,5.8789322 22.254734,5.4215 20.858338,4.8302134 19.280809,4.5957291 18.667201,3.2495746 18.147607,1.8169755 17.411668,0.40432285 A 0.750075,0.750075 0 0 0 16.739793,2.5968739e-5 Z M 16.98784,13.195338 c -4.943121,-0.102034 -9.7139088,3.323738 -11.0937497,8.117188 -4.047e-4,0.002 -0.00139,0.0043 -0.00195,0.0059 -0.00188,0.0066 -0.0079,0.01102 -0.00977,0.01758 a 0.750075,0.750075 0 0 0 -0.00781,0.05269 c -0.1273097,0.373501 -0.2616093,0.860406 -0.3066406,1.349609 -0.02418,0.262687 -0.07042,0.498828 0.099609,0.873047 0.085015,0.18711 0.311215,0.448973 0.6210937,0.519531 0.3098787,0.07056 0.5541936,-0.02981 0.7207031,-0.125 a 0.750075,0.750075 0 0 0 0,-0.002 c 1.1605646,-0.665669 1.9313592,-1.593952 2.9804688,-2.15039 4.3128209,-2.286772 9.9146519,-2.275397 14.0292969,0.361328 a 0.750075,0.750075 0 0 0 0.01953,0.01172 c 0.599912,0.360117 1.172248,0.936214 1.91211,1.464844 a 0.750075,0.750075 0 0 0 0.002,0 c -0.0053,-0.0038 0.118804,0.12371 0.320313,0.267578 0.100754,0.07193 0.229513,0.170702 0.488281,0.207032 0.258029,0.03623 0.65416,-0.119733 0.824219,-0.333985 v -0.002 c 0.22612,-0.287308 0.269553,-0.694314 0.273437,-0.859375 0.01064,-0.481613 -0.11804,-0.870668 -0.193359,-1.173828 a 0.750075,0.750075 0 0 0 0,-0.002 c -0.137671,-0.549555 -0.331227,-1.04281 -0.46875,-1.480469 a 0.750075,0.750075 0 0 0 -0.01758,-0.05078 c -1.436956,-3.6188 -4.836011,-6.287182 -8.65625,-6.921875 -0.511505,-0.08847 -1.023799,-0.135928 -1.535157,-0.146485 z" />
  <path fill="url(#rarity)" d="m 16.745559,0.75002597 c 0.758,1.45500003 1.297,3.00400003 1.997,4.48300003 1.707,0.148 3.256,0.929 4.841,1.455 1.437,-0.566 2.794,-1.313 4.231,-1.881 -0.384,1.455 -1.012,2.83 -1.375,4.291 1.064,1.071 1.865,2.371 2.566,3.702 1.256,-0.067 2.509,-0.171 3.764,-0.223 -0.859,1.134 -1.777,2.218 -2.643,3.346 0.431,1.427 0.726,2.923 0.602,4.418 -0.035,0.416 -0.388,1.476 -0.61,0.905 -1.278,-3.296 -3.31,-6.423 -6.345,-8.34 -3.103,-1.966 -7.09,-2.69 -10.613,-1.486 -4.5989999,1.344 -7.9939999,5.339 -9.5909999,9.754 -0.122,0.339 -0.511,0.1 -0.566,-0.221 -0.284,-1.674 0.018,-3.372 0.444,-4.991 -0.908,-1.123 -1.816,-2.244 -2.69800002,-3.388 1.29700002,0.057 2.58900002,0.176 3.88600002,0.223 0.711,-1.463 1.655,-2.804 2.781,-3.977 -0.246,-1.336 -0.511,-2.669 -0.778,-4.003 1.271,0.514 2.394,1.385 3.7069999,1.777 1.468,-0.571 2.934,-1.183 4.514,-1.385 0.646,-1.479 1.16,-3.017 1.886,-4.45900003 z M 6.6045591,21.542026 c -0.221,0.617 -0.561,2.151 0.032,1.812 0.999,-0.573 1.8,-1.527 3.001,-2.164 4.5489999,-2.412 10.4159999,-2.407 14.7869999,0.394 0.708,0.425 1.293,1.019 1.962,1.497 0.197,0.14 0.46,0.478 0.611,0.286 0.106,-0.134 0.107,-0.243 0.111,-0.413 0.007,-0.317 -0.09,-0.654 -0.17,-0.976 -0.122,-0.487 -0.309,-0.967 -0.457,-1.438 -1.333,-3.357 -4.532,-5.871 -8.086,-6.46 -5.053,-0.874 -10.3919999,2.553 -11.7909999,7.461 z"/>
</svg>
