<?xml version="1.0" encoding="UTF-8" standalone="no"?>
<svg
   version="1.1"
   width="28.542965"
   height="25.442543"
   viewBox="0 0 28.542965 25.442543"
   id="svg4"
   xmlns="http://www.w3.org/2000/svg"
   xmlns:svg="http://www.w3.org/2000/svg">
  <defs>
    <!-- This is the gradient that will actually be used on
     the cards. The colors themselves will be provided by the
     template, but the x values, y values, and offsets will be
     used from the SVG. -->
    <linearGradient id="rarity" x1="0" y1="1" x2="1" y2="0">
      <stop offset="0" style="stop-color:rgb(192,55,38);stop-opacity:1" id="stop2" />
      <stop offset="0.125" style="stop-color:rgb(192,55,38);stop-opacity:1" id="stop4" />
      <stop offset="0.5" style="stop-color:rgb(241,142,30);stop-opacity:1" id="stop6" />
      <stop offset="0.875" style="stop-color:rgb(192,55,38);stop-opacity:1" id="stop8" />
      <stop offset="1" style="stop-color:rgb(192,55,38);stop-opacity:1" id="stop10" />
    </linearGradient>
    <!-- These gradients are here so that you can visualize
     what the set symbol would like like in that rarity. The
     only gradient that matters in the end is the "rarity"
     gradient. -->
    <linearGradient id="mythic" x1="0" y1="1" x2="1" y2="0">
      <stop offset="0" style="stop-color:rgb(192,55,38);stop-opacity:1"/>
      <stop offset="0.125" style="stop-color:rgb(192,55,38);stop-opacity:1"/>
      <stop offset="0.5" style="stop-color:rgb(241,142,30);stop-opacity:1"/>
      <stop offset="0.875" style="stop-color:rgb(192,55,38);stop-opacity:1"/>
      <stop offset="1" style="stop-color:rgb(192,55,38);stop-opacity:1"/>
    </linearGradient>
    <linearGradient id="rare" x1="0" y1="1" x2="1" y2="0">
      <stop offset="0" style="stop-color:rgb(146,116,67);stop-opacity:1"/>
      <stop offset="0.125" style="stop-color:rgb(146,116,67);stop-opacity:1"/>
      <stop offset="0.5" style="stop-color:rgb(211,178,108);stop-opacity:1"/>
      <stop offset="0.875" style="stop-color:rgb(146,116,67);stop-opacity:1"/>
      <stop offset="1" style="stop-color:rgb(146,116,67);stop-opacity:1"/>
    </linearGradient>
    <linearGradient id="special" x1="0" y1="1" x2="1" y2="0">
      <stop offset="0" style="stop-color:rgb(76, 56, 106);stop-opacity:1"/>
      <stop offset="0.125" style="stop-color:rgb(76, 56, 106);stop-opacity:1"/>
      <stop offset="0.5" style="stop-color:rgb(201, 173, 221);stop-opacity:1"/>
      <stop offset="0.875" style="stop-color:rgb(76, 56, 106);stop-opacity:1"/>
      <stop offset="1" style="stop-color:rgb(76, 56, 106);stop-opacity:1"/>
    </linearGradient>
    <linearGradient id="uncommon" x1="0" y1="1" x2="1" y2="0">
      <stop offset="0" style="stop-color:rgb(98,110,119);stop-opacity:1"/>
      <stop offset="0.125" style="stop-color:rgb(98,110,119);stop-opacity:1"/>
      <stop offset="0.5" style="stop-color:rgb(196,222,238);stop-opacity:1"/>
      <stop offset="0.875" style="stop-color:rgb(98,110,119);stop-opacity:1"/>
      <stop offset="1" style="stop-color:rgb(98,110,119);stop-opacity:1"/>
    </linearGradient>
    <linearGradient id="common" x1="0" y1="1" x2="1" y2="0">
      <stop offset="0" style="stop-color:rgb(0,0,0);stop-opacity:1"/>
    </linearGradient>
    <linearGradient
            id="rarity-outline" x1="0" y1="1" x2="0" y2="1">
      <stop offset="0" style="stop-color:rgb(0,0,0);stop-opacity:1"/>
    </linearGradient>
  </defs>
  <path fill="#FFFFFF" d="M 15.578125 -0.97070312 A 1.0001 1.0001 0 0 0 14.642578 -0.72070312 L 9.3183594 4.3925781 A 1.0001 1.0001 0 0 0 9.0117188 5.0761719 L 8.8222656 10.222656 L 7.2421875 7.4316406 A 1.0001 1.0001 0 0 0 6.5761719 6.9453125 L 1.859375 5.9589844 A 1.0001 1.0001 0 0 0 0.71875 6.5859375 L -0.93554688 10.994141 A 1.0001 1.0001 0 0 0 -0.88085938 11.820312 L 3.7089844 20.330078 C 2.2636814 20.47878 1.1315406 20.752723 0.44140625 21.40625 C -0.06050111 21.881466 -0.29443072 22.458702 -0.32421875 22.998047 C -0.35400145 23.537282 -0.1640625 23.943359 -0.1640625 23.943359 A 1.0001 1.0001 0 0 0 -0.15820312 23.955078 L -0.009765625 24.291016 A 1.0001 1.0001 0 0 0 1.0214844 24.878906 L 1.3867188 24.835938 L 1.3828125 24.837891 C 1.3828125 24.837891 2.550718 24.703831 3.9492188 24.681641 C 5.3294526 24.659741 7.0799819 24.88865 7.4863281 25.082031 A 1.0001 1.0001 0 0 0 7.4921875 25.083984 C 9.5130042 26.043527 11.85381 26.996581 15.021484 26.011719 C 17.596137 25.214334 19.752321 25.109817 21.003906 25.457031 C 22.244665 25.800636 23.645346 25.725064 24.814453 25.638672 C 25.923269 25.556732 26.732001 25.428066 26.822266 25.414062 C 26.858016 25.411863 27.45103 25.382962 28.09375 25.037109 C 28.817603 24.647594 29.542969 23.791393 29.542969 22.587891 C 29.542969 21.16132 28.546364 20.253601 27.908203 19.681641 C 27.532985 19.345346 27.423241 19.298878 27.166016 19.119141 L 28.697266 17.082031 A 1.0001 1.0001 0 0 0 28.894531 16.398438 L 28.550781 12.199219 A 1.0001 1.0001 0 0 0 27.46875 11.285156 L 23.455078 11.632812 A 1.0001 1.0001 0 0 0 22.798828 11.958984 L 22.078125 12.757812 L 22.443359 5.7480469 A 1.0001 1.0001 0 0 0 22.126953 4.9628906 L 16.017578 -0.73242188 A 1.0001 1.0001 0 0 0 15.578125 -0.97070312 z " />
  <path fill="#000000" d="M 15.335938,0 10.011719,5.1132812 9.6914066,13.791016 6.3710937,7.9238281 1.6542969,6.9375 0,11.345703 5.234375,21.050781 c -0.00783,0.03814 -0.018274,0.08092 -0.027344,0.119141 -6.313e-4,0.0027 -0.00131,0.0032 -0.00195,0.0059 -2.2928618,0.04567 -3.492725,0.404532 -4.0761719,0.957031 -0.3109532,0.294417 -0.4401394,0.649347 -0.455081,0.919881 -0.014942,0.270535 0.082031,0.498047 0.082031,0.498047 l 0.1484375,0.335938 0.3652344,-0.04297 c 0,0 1.2106139,-0.139047 2.6640625,-0.162109 1.4534485,-0.02306 3.1658732,0.109449 3.9824219,0.498047 h 0.00195 c 2.0001282,0.949911 3.9243206,1.774352 6.8085936,0.876953 2.693405,-0.834163 4.988044,-0.994408 6.544922,-0.5625 0.990632,0.274337 2.331786,0.230501 3.46875,0.146484 1.117529,-0.08258 1.99078,-0.219811 2.021485,-0.224609 0.0058,-3.54e-4 0.42317,-0.02609 0.857421,-0.259766 0.437244,-0.235287 0.923829,-0.772403 0.923829,-1.568359 0,-0.923765 -0.696714,-1.618955 -1.302735,-2.16211 C 26.63421,19.882625 26.0332,19.509765 26.0332,19.509765 l -0.07617,-0.04883 -0.259765,-0.05078 2.201171,-2.929687 -0.34375,-4.199219 -4.013671,0.347656 -2.607422,2.892578 0.511718,-9.8261715 z m 2.898438,6.5644531 0.482422,0.4824219 -0.63086,12.771484 c -0.03619,-0.01052 -0.110377,0.01027 -0.140625,-0.0059 -0.105455,-0.0561 -0.202375,-0.163464 -0.283203,-0.308594 -0.156912,-0.281742 -0.202251,-0.621839 -0.205078,-0.642578 z M 5.234375,10.476563 c -3.4895833,-6.9843753 -1.7447917,-3.4921877 0,0 z M 4.3105469,10.75 l 0.5625,0.103516 3.9902343,7.117187 c 0.01416,0.312003 -0.029546,0.511543 -0.048828,0.539063 -0.021865,0.0312 -0.00232,0.02344 -0.087891,0.02344 -0.1382087,0 -0.332823,-0.0926 -0.4277344,-0.134765 z" />
  <path fill="url(#rarity)" d="m 22.356829,18.6055 0.664,0.759 2.655,-3.223 -0.048,-1.421 -3.272,3.885 z m -17.1610009,-8.2 -1.803,-0.332 4.551,8.723 c 0,0 1.6120005,0.948 1.4230005,-0.948 l -4.1720005,-7.443 z m 14.0310009,-3.555 -1.421,-1.423 -0.852,13.466 c 0,0 0.186,1.8 1.609,1.423 l 0.664,-13.465 z m -13.4630009,14.129 -5.215,-9.671 1.423,-3.794 4.076,0.852 4.0790009,7.207 0.377,-10.239 4.838,-4.64700004 5.592,5.21500004 -0.571,10.999 3.417,-3.792 3.317,-0.287 0.287,3.51 -2.563,3.412 0.948,0.189 c 0,0 2.275,1.423 2.275,2.655 0,1.234 -1.325,1.33 -1.325,1.33 0,0 -3.605,0.566 -5.313,0.093 -1.705,-0.473 -4.076,-0.284 -6.827,0.568 -2.748,0.855 -4.453,0.095 -6.4470009,-0.852 -1.992,-0.948 -6.92,-0.38 -6.92,-0.38 0,0 -0.759,-1.705 4.36,-1.705 0,0 0.284,-0.57 0.191,-0.663 z"/>
</svg>
