<?xml version="1.0" encoding="UTF-8" standalone="no"?>
<!-- Generated by IcoMoon.io -->

<svg
   version="1.1"
   width="27.495001"
   height="24.264139"
   viewBox="0 0 27.495001 24.264139"
   id="svg6"
   sodipodi:docname="pcy.svg"
   inkscape:version="1.1.1 (3bf5ae0d25, 2021-09-20)"
   xmlns:inkscape="http://www.inkscape.org/namespaces/inkscape"
   xmlns:sodipodi="http://sodipodi.sourceforge.net/DTD/sodipodi-0.dtd"
   xmlns="http://www.w3.org/2000/svg"
   xmlns:svg="http://www.w3.org/2000/svg">
  <defs
     id="defs10" />
  <sodipodi:namedview
     id="namedview8"
     pagecolor="#ffffff"
     bordercolor="#666666"
     borderopacity="1.0"
     inkscape:pageshadow="2"
     inkscape:pageopacity="0.0"
     inkscape:pagecheckerboard="0"
     showgrid="false"
     inkscape:zoom="25.75"
     inkscape:cx="14"
     inkscape:cy="12.097087"
     inkscape:window-width="1920"
     inkscape:window-height="1009"
     inkscape:window-x="-8"
     inkscape:window-y="-8"
     inkscape:window-maximized="1"
     inkscape:current-layer="svg6" />
  <title
     id="title2">pcy</title>
  <path
     fill="#000000"
     d="m 21.808,17.918 0.664,0.759 2.655,-3.223 -0.048,-1.421 -3.272,3.885 z M 4.647,9.718 2.844,9.386 7.395,18.109 c 0,0 1.612,0.948 1.423,-0.948 L 4.646,9.718 Z M 18.678,6.163 17.257,4.74 16.405,18.206 c 0,0 0.186,1.8 1.609,1.423 L 18.678,6.164 Z M 5.215,20.292 0,10.621 1.423,6.827 5.499,7.679 9.578,14.886 9.955,4.647 14.793,0 l 5.592,5.215 -0.571,10.999 3.417,-3.792 3.317,-0.287 0.287,3.51 -2.563,3.412 0.948,0.189 c 0,0 2.275,1.423 2.275,2.655 0,1.234 -1.325,1.33 -1.325,1.33 0,0 -3.605,0.566 -5.313,0.093 -1.705,-0.473 -4.076,-0.284 -6.827,0.568 -2.748,0.855 -4.453,0.095 -6.447,-0.852 -1.992,-0.948 -6.92,-0.38 -6.92,-0.38 0,0 -0.759,-1.705 4.36,-1.705 0,0 0.284,-0.57 0.191,-0.663 z"
     id="path4" />
</svg>
