<?xml version="1.0" encoding="UTF-8" standalone="no"?>
<!-- Generated by IcoMoon.io -->

<svg
   version="1.1"
   width="23.51"
   height="32.001999"
   viewBox="0 0 23.51 32.001999"
   id="svg6"
   sodipodi:docname="pd2.svg"
   inkscape:version="1.1.1 (3bf5ae0d25, 2021-09-20)"
   xmlns:inkscape="http://www.inkscape.org/namespaces/inkscape"
   xmlns:sodipodi="http://sodipodi.sourceforge.net/DTD/sodipodi-0.dtd"
   xmlns="http://www.w3.org/2000/svg"
   xmlns:svg="http://www.w3.org/2000/svg">
  <defs
     id="defs10" />
  <sodipodi:namedview
     id="namedview8"
     pagecolor="#ffffff"
     bordercolor="#666666"
     borderopacity="1.0"
     inkscape:pageshadow="2"
     inkscape:pageopacity="0.0"
     inkscape:pagecheckerboard="0"
     showgrid="false"
     inkscape:zoom="25.75"
     inkscape:cx="11.980583"
     inkscape:cy="15.980583"
     inkscape:window-width="1920"
     inkscape:window-height="1009"
     inkscape:window-x="-8"
     inkscape:window-y="-8"
     inkscape:window-maximized="1"
     inkscape:current-layer="svg6" />
  <title
     id="title2">pd2</title>
  <path
     fill="#000000"
     d="m 16.468,6.966 c 0,0 1.74,3.338 1.74,5.519 0,2.175 -2.537,5.804 -2.537,5.804 -0.146,-1.163 -1.16,-3.921 -1.669,-5.228 C 13.493,11.758 12.479,9.652 12.479,6.605 12.479,3.558 14.583,0 14.583,0 7.11,2.466 5.441,7.04 5.441,11.104 c 0,4.06 2.975,9.505 2.975,9.505 C 7.402,19.446 5.804,17.706 4.498,15.965 3.192,14.224 2.175,10.67 2.175,10.67 c 0,0 -2.175,2.32 -2.175,6.527 0,4.21 3.338,8.274 4.281,9.506 0.943,1.238 0.943,2.252 1.669,3.338 0.722,1.089 1.74,1.886 2.83,1.886 0.039,0 0.082,0 0.12,0.004 l -3.241,-9.797 6.239,1.163 -3.844,-13.135 9.43,16.762 -7.106,-1.018 2.946,6.096 h 0.025 c 1.018,0 2.466,-0.146 3.847,-1.378 1.381,-1.234 2.829,-4.936 3.626,-6.747 0.801,-1.818 2.688,-4.285 2.688,-8.42 0,-6.676 -7.04,-8.491 -7.04,-8.491 z"
     id="path4" />
</svg>
