<?xml version="1.0" encoding="UTF-8" standalone="no"?>
<svg
   version="1.1"
   width="29.123047"
   height="26.316269"
   viewBox="0 0 29.123047 26.316269"
   id="svg4"
   xmlns="http://www.w3.org/2000/svg"
   xmlns:svg="http://www.w3.org/2000/svg">
  <defs>
    <!-- This is the gradient that will actually be used on
     the cards. The colors themselves will be provided by the
     template, but the x values, y values, and offsets will be
     used from the SVG. -->
    <linearGradient id="rarity" x1="0" y1="0" x2="1" y2="1">
      <stop offset="0" style="stop-color:rgb(192,55,38);stop-opacity:1" id="stop2" />
      <stop offset="0.125" style="stop-color:rgb(192,55,38);stop-opacity:1" id="stop4" />
      <stop offset="0.5" style="stop-color:rgb(241,142,30);stop-opacity:1" id="stop6" />
      <stop offset="0.875" style="stop-color:rgb(192,55,38);stop-opacity:1" id="stop8" />
      <stop offset="1" style="stop-color:rgb(192,55,38);stop-opacity:1" id="stop10" />
    </linearGradient>
    <!-- These gradients are here so that you can visualize
     what the set symbol would like like in that rarity. The
     only gradient that matters in the end is the "rarity"
     gradient. -->
    <linearGradient id="mythic" x1="0" y1="1" x2="1" y2="0">
      <stop offset="0" style="stop-color:rgb(192,55,38);stop-opacity:1"/>
      <stop offset="0.125" style="stop-color:rgb(192,55,38);stop-opacity:1"/>
      <stop offset="0.5" style="stop-color:rgb(241,142,30);stop-opacity:1"/>
      <stop offset="0.875" style="stop-color:rgb(192,55,38);stop-opacity:1"/>
      <stop offset="1" style="stop-color:rgb(192,55,38);stop-opacity:1"/>
    </linearGradient>
    <linearGradient id="rare" x1="0" y1="1" x2="1" y2="0">
      <stop offset="0" style="stop-color:rgb(146,116,67);stop-opacity:1"/>
      <stop offset="0.125" style="stop-color:rgb(146,116,67);stop-opacity:1"/>
      <stop offset="0.5" style="stop-color:rgb(211,178,108);stop-opacity:1"/>
      <stop offset="0.875" style="stop-color:rgb(146,116,67);stop-opacity:1"/>
      <stop offset="1" style="stop-color:rgb(146,116,67);stop-opacity:1"/>
    </linearGradient>
    <linearGradient id="special" x1="0" y1="1" x2="1" y2="0">
      <stop offset="0" style="stop-color:rgb(76, 56, 106);stop-opacity:1"/>
      <stop offset="0.125" style="stop-color:rgb(76, 56, 106);stop-opacity:1"/>
      <stop offset="0.5" style="stop-color:rgb(201, 173, 221);stop-opacity:1"/>
      <stop offset="0.875" style="stop-color:rgb(76, 56, 106);stop-opacity:1"/>
      <stop offset="1" style="stop-color:rgb(76, 56, 106);stop-opacity:1"/>
    </linearGradient>
    <linearGradient id="uncommon" x1="0" y1="1" x2="1" y2="0">
      <stop offset="0" style="stop-color:rgb(98,110,119);stop-opacity:1"/>
      <stop offset="0.125" style="stop-color:rgb(98,110,119);stop-opacity:1"/>
      <stop offset="0.5" style="stop-color:rgb(196,222,238);stop-opacity:1"/>
      <stop offset="0.875" style="stop-color:rgb(98,110,119);stop-opacity:1"/>
      <stop offset="1" style="stop-color:rgb(98,110,119);stop-opacity:1"/>
    </linearGradient>
    <linearGradient id="common" x1="0" y1="1" x2="1" y2="0">
      <stop offset="0" style="stop-color:rgb(0,0,0);stop-opacity:1"/>
    </linearGradient>
    <linearGradient
            id="rarity-outline" x1="0" y1="1" x2="0" y2="1">
      <stop offset="0" style="stop-color:rgb(0,0,0);stop-opacity:1"/>
    </linearGradient>
  </defs>
  <path fill="#000000" d="m 14.923828,0.0272066 c -0.86516,-0.0459022 -1.157975,-0.0261775 -2.060547,0.003906 -3.6310469,0 -7.0705095,2.0834835 -8.9160154,3.9160157 v 0.00195 C 2.6743611,5.2135823 1.6749762,6.0803563 0.98632812,7.361191 0.29768001,8.6420256 0,10.23625 0,12.812363 v 0.121094 c 1.1938e-4,0.0353 0.00273,0.07054 0.007813,0.105469 l 0.12109375,0.84375 c 0.001704,0.01111 0.003658,0.02218 0.005859,0.0332 l 0.47070313,2.457031 v 0.04883 c 6.706e-5,0.08101 0.0132588,0.161485 0.0390625,0.238281 l 0.12109362,0.36133 c 0.005938,0.0165 0.0124521,0.03279 0.0195313,0.04883 l 0.83203125,2.011719 c 0.3456373,1.315661 1.4615038,2.202148 2.4160156,2.728515 0.5331406,0.453066 1.2461032,0.65625 2.0488281,0.65625 h 1.2128907 c 0.036839,0 2.2762058,-0.488243 2.7851561,-0.601562 0.464842,0 0.806609,-0.08428 1.03711,-0.144532 0.230499,-0.06025 0.349045,-0.0957 0.658203,-0.0957 h 2.423828 c 0.15577,0 0.176316,0.006 0.267578,0.02734 0.06365,0.01487 0.183853,0.04004 0.326172,0.0625 0.460558,0.247969 0.798618,0.238195 0.826172,0.220703 0.03301,0.06883 0.102801,0.252727 0.175781,0.619141 0.07406,0.371486 0.05339,0.749293 0.123047,1.222656 0.04368,0.296815 0.338604,0.599505 0.560547,0.910156 v 0.638672 c -3.54e-4,0.246145 0.120082,0.476798 0.322265,0.617188 -5.49e-4,-3.8e-4 0.08695,0.06633 0.177735,0.132812 0.04539,0.03324 0.09454,0.06869 0.164062,0.109375 0.06952,0.04069 0.100277,0.130859 0.449219,0.130859 0.672861,0 1.202208,-0.163171 1.621094,-0.259765 0.1494,-0.09155 0.262035,-0.232517 0.318359,-0.398438 0.116164,0.10276 0.188406,0.245233 0.326172,0.289063 0.284709,0.09058 0.531113,0.07015 0.777344,0.03125 0.383528,-0.06125 1.553415,-0.09935 2.138672,-0.150391 0.250176,-0.02822 0.46951,-0.180065 0.583984,-0.404297 0.118299,0.04289 0.170208,0.171875 0.291016,0.171875 h 0.121093 c 0.43583,0 0.829044,-0.120823 1.261719,-0.283203 0.289061,-0.108482 0.540146,-0.31669 0.798828,-0.505859 0.05762,0.02853 0.118666,0.04954 0.181641,0.0625 0.457981,-0.0377 1.069278,-0.180719 1.675781,-0.425781 0.303252,-0.122531 0.598186,-0.266808 0.865234,-0.478516 0.267049,-0.211708 0.570313,-0.545005 0.570313,-1.044922 v -0.242187 c 0,-1.120838 -0.663162,-2.058038 -1.234375,-2.84375 -0.285607,-0.392857 -0.563511,-0.739924 -0.75586,-0.996094 -0.08674,-0.115518 -0.149034,-0.203214 -0.1875,-0.263672 0.0042,-0.458041 0.260827,-1.032548 0.542969,-1.642578 0.14223,-0.30752 0.287348,-0.621315 0.367188,-0.988281 0.07376,-0.339031 0.07278,-0.773494 -0.13086,-1.15625 l -0.541015,-1.285157 c -0.0073,-0.183484 -0.08166,-0.357913 -0.208985,-0.490234 l -0.40625,-1.310547 C 26.461724,10.444316 26.30594,9.128202 25.775391,8.0311128 25.738479,7.9549809 25.688951,7.8856431 25.628906,7.8260347 L 25.572266,7.7693937 24.285156,5.67955 C 24.269666,5.654485 24.252706,5.630355 24.234376,5.607284 L 22.902344,3.9217378 c -0.0244,-0.030695 -0.05118,-0.059429 -0.08008,-0.085937 L 21.126953,2.2713472 C 19.786635,0.82403755 17.191876,0.0272066 14.923828,0.0272066 Z" />
  <path fill="url(#rarity)" d="m 14.924,0.7772066 c 2.084,0 4.651,0.881 5.694,2.046 l 1.696,1.564 1.333,1.685 1.333,2.166 0.121,0.12 c 0.457,0.945 0.622,2.2310004 0.727,3.4900004 l 0.485,1.565 0.121,0.12 v 0.12 l 0.606,1.444 c 0.512,0.802 -0.848,2.086 -0.848,3.49 v 0.12 c 0,0.414 2.181,2.443 2.181,3.971 v 0.241 c 0,0.659 -1.767,1.149 -2.423,1.203 v -0.361 c 0,-0.325 -0.058,-0.332 -0.122,-0.602 l -0.611,0.088 0.411,0.856 c -0.274,0.363 -1.402,0.742 -1.859,0.742 h -0.121 c -0.467,0 -0.453,-0.407 -0.606,-0.722 h -0.484 l 0.151,0.958 c -0.516,0.045 -1.666,0.073 -2.192,0.157 -0.747,0.118 -0.746,-0.251 -0.746,-1.236 h -0.363 c -0.28,0 -0.363,0.084 -0.363,0.361 v 0.963 c -0.451,0.104 -0.905,0.24 -1.454,0.24 -0.065,0 -0.266,-0.173 -0.363,-0.24 v -0.722 c -0.774,-0.515 -0.508,-1.248 -0.697,-2.196 -0.337,-1.692 -0.679,-0.906 -1.484,-1.413 -0.379,-0.032 -0.43,-0.121 -0.848,-0.121 h -2.423 c -0.774,0 -0.922,0.241 -1.696,0.241 -0.013,0.006 -2.745,0.602 -2.786,0.602 H 6.082 c -0.691,0 -1.206,-0.163 -1.575,-0.481 -0.854,-0.449 -1.939,-1.376 -2.181,-2.407 l -0.849,-2.046 -0.121,-0.361 v -0.12 l -0.485,-2.527 -0.121,-0.842 v -0.121 c 0,-5.0380004 1.151,-5.7750004 3.725,-8.3320004 1.707,-1.695 5.059,-3.7 8.389,-3.7 h 2.059 z m 8.602,12.5140004 c -0.258,10e-4 -0.16,0.044 -0.485,0.121 l -0.363,0.24 -0.122,1.925 -0.605,1.925 c 0.076,0.907 1.107,0.003 1.938,1.564 0.563,-0.131 1.333,-0.773 1.333,-1.444 v -0.361 c 0,-0.415 -0.09,-0.466 -0.122,-0.842 l -0.484,-2.045 c -0.116,-0.173 -0.912,-1.083 -1.091,-1.083 z m -6.18,-2.406 h -0.12 c -2.307,-10e-4 -4.24,1.579 -4.24,3.971 0.065,0.771 0.942,1.825 1.455,2.166 0.268,0.14 0.591,0.361 0.969,0.361 h 0.242 c 2.421,0 3.552,-0.85 4.361,-2.527 v -0.241 c 0,-1.462 -0.457,-2.666 -1.333,-3.248 -0.386,-0.258 -0.677,-0.482 -1.333,-0.482 z m 6.421,-1.8060004 c -0.234,0.001 -0.393,0.164 -0.726,0.241 l -0.121,0.121 -0.122,0.12 -0.242,0.24 c -0.177,0.2630004 -0.363,0.5130004 -0.363,0.9640004 0,0.922 0.942,1.472 1.574,1.805 0.118,0.062 0.721,0.481 0.727,0.481 0.383,0 0.413,-0.297 0.484,-0.602 v -0.24 l 0.121,-0.241 c 0,-1.295 -0.155,-2.8870004 -1.333,-2.8870004 z"/>
</svg>
