<?xml version="1.0" encoding="UTF-8" standalone="no"?>
<!-- Generated by IcoMoon.io -->

<svg
   version="1.1"
   width="31.975"
   height="22.726158"
   viewBox="0 0 31.975 22.726158"
   id="svg6"
   sodipodi:docname="pdep.svg"
   inkscape:version="1.1.1 (3bf5ae0d25, 2021-09-20)"
   xmlns:inkscape="http://www.inkscape.org/namespaces/inkscape"
   xmlns:sodipodi="http://sodipodi.sourceforge.net/DTD/sodipodi-0.dtd"
   xmlns="http://www.w3.org/2000/svg"
   xmlns:svg="http://www.w3.org/2000/svg">
  <defs
     id="defs10" />
  <sodipodi:namedview
     id="namedview8"
     pagecolor="#ffffff"
     bordercolor="#666666"
     borderopacity="1.0"
     inkscape:pageshadow="2"
     inkscape:pageopacity="0.0"
     inkscape:pagecheckerboard="0"
     showgrid="false"
     inkscape:zoom="25.75"
     inkscape:cx="15.980583"
     inkscape:cy="11.359223"
     inkscape:window-width="1920"
     inkscape:window-height="1009"
     inkscape:window-x="-8"
     inkscape:window-y="-8"
     inkscape:window-maximized="1"
     inkscape:current-layer="svg6" />
  <title
     id="title2">pdep</title>
  <path
     fill="#000000"
     d="m 17.832,3.455 1.196,0.01 C 18.982,3.909 18.971,4 18.947,4.681 c -0.098,2.828 -0.008,5.661 0.095,8.487 0.111,3.039 0.268,6.077 0.455,9.112 -0.849,0.38 -1.729,0.45 -2.685,0.446 -1.11,-0.005 -2.08,-0.085 -3.018,-0.462 C 13.634,22.2 13.507,22.072 13.364,21.976 12.384,21.077 13.674,9.7 0.465,10.123 L 0.291,10.105 C 0.044,8.571 0.002,7.016 0,5.467 L 0.082,3.693 C 5.997,3.507 11.914,3.472 17.832,3.455 Z m 2.489,5.587 -0.002,0.231 c 0.024,3.279 0.201,6.554 0.386,9.827 0.598,-2.23 1.567,-4.471 3.398,-5.978 -1.053,-1.543 -2.331,-2.898 -3.782,-4.08 z m 0.274,-5.564 c -0.272,3.159 -0.239,1.923 -0.256,3.699 1.796,1.513 3.53,3.12 5.021,4.941 2.216,-1.252 3.628,-1.854 6.234,-2.017 l 0.119,0.005 c 0.222,-1.534 0.26,-3.089 0.262,-4.638 L 31.901,3.68 C 23.444,3.482 27.212,3.534 20.595,3.48 Z M 18.053,0 V 0 C 17.64,0.003 17.226,0.002 16.813,0.017 16.354,0.002 15.895,0.003 15.436,0 10.419,0.027 5.405,0.249 0.395,0.53 L 0.203,2.339 C 10.714,1.634 21.259,1.724 31.774,2.311 L 31.604,0.53 C 27.091,0.249 22.573,0.027 18.053,0 Z"
     id="path4" />
</svg>
