<?xml version="1.0" encoding="UTF-8" standalone="no"?>
<!-- Generated by IcoMoon.io -->

<svg
   version="1.1"
   width="31.942146"
   height="15.897596"
   viewBox="0 0 31.942146 15.897596"
   id="svg6"
   sodipodi:docname="pfnm.svg"
   inkscape:version="1.1.1 (3bf5ae0d25, 2021-09-20)"
   xmlns:inkscape="http://www.inkscape.org/namespaces/inkscape"
   xmlns:sodipodi="http://sodipodi.sourceforge.net/DTD/sodipodi-0.dtd"
   xmlns="http://www.w3.org/2000/svg"
   xmlns:svg="http://www.w3.org/2000/svg">
  <defs
     id="defs10" />
  <sodipodi:namedview
     id="namedview8"
     pagecolor="#ffffff"
     bordercolor="#666666"
     borderopacity="1.0"
     inkscape:pageshadow="2"
     inkscape:pageopacity="0.0"
     inkscape:pagecheckerboard="0"
     showgrid="false"
     inkscape:zoom="25.75"
     inkscape:cx="15.941748"
     inkscape:cy="7.9417476"
     inkscape:window-width="1920"
     inkscape:window-height="1009"
     inkscape:window-x="-8"
     inkscape:window-y="-8"
     inkscape:window-maximized="1"
     inkscape:current-layer="svg6" />
  <title
     id="title2">pfnm</title>
  <path
     fill="#000000"
     d="m 26.391863,0 c 0.335,0.047 0.184,0.023 0.456,0.07 0.48,0.088 0.976,0.017 1.448,0.154 0.142,0.048 0.277,-0.03 0.414,-0.062 0.289,-0.094 0.591,0 0.885,-0.001 0.479,-0.066 0.978,-0.203 1.451,-0.03 0.219,0.074 0.582,-0.051 0.676,0.236 0.126,0.446 0.038,0.915 0.049,1.371 0.014,0.413 -0.014,0.826 0.004,1.239 -0.018,0.445 0.081,0.893 -0.049,1.329 0.039,0.481 0.082,0.961 0.029,1.443 0.038,0.745 -0.03,1.492 0.038,2.236 -0.035,0.405 -0.071,0.812 -0.108,1.216 -0.1,-0.001 -0.101,-0.117 -0.129,-0.186 -0.191,-0.066 -0.133,0.187 -0.15,0.294 l 0.104,-0.072 c 0.053,0.048 0.111,0.089 0.175,0.122 l 0.042,0.035 c 0.056,0.348 0.189,0.689 0.162,1.047 0.039,1.13 0.083,2.263 0.026,3.394 -0.006,0.303 -0.005,0.611 -0.084,0.906 0.026,0.186 0.163,0.412 -0.003,0.568 -0.191,0.096 -0.411,0.007 -0.612,0.002 -0.041,0.109 -0.06,0.236 -0.158,0.312 -0.174,0.042 -0.354,0.076 -0.533,0.082 -0.901,-0.029 -1.805,-0.039 -2.706,-0.003 -0.365,0.085 -0.715,-0.126 -1.079,-0.054 -0.518,0.081 -1.038,-0.03 -1.559,0.012 -0.556,-0.028 -1.115,-0.025 -1.67,0.025 -0.294,0.025 -0.572,-0.119 -0.865,-0.083 -0.129,-0.01 -0.256,-0.021 -0.384,-0.032 -0.124,0.062 -0.256,0.11 -0.395,0.116 -0.146,0.05 -0.297,0.099 -0.452,0.108 -0.787,0.012 -1.573,0.028 -2.359,0.064 -0.435,-0.004 -0.87,-0.065 -1.304,-0.026 -0.221,0.032 -0.431,-0.059 -0.645,-0.094 -0.151,0.006 -0.295,0.066 -0.446,0.064 -0.564,-0.139 -1.149,-0.055 -1.723,-0.075 -0.577,-0.015 -1.155,0.008 -1.732,0.007 -0.345,-0.079 -0.697,-0.099 -1.051,-0.083 -0.505,0.201 -1.053,0.205 -1.588,0.238 -1.0290004,-0.002 -2.0580004,0.02 -3.0870004,-0.006 -0.203,-0.002 -0.394,-0.127 -0.599,-0.08 -0.651,0.167 -1.33,0.02 -1.99,0.09 -0.476,-0.041 -0.956,-0.012 -1.434,-0.007 -0.568,0.069 -1.129,-0.199 -1.693,-0.045 -0.137,0.058 -0.267,-0.011 -0.377,-0.089 -0.342,-0.177 -0.73399996,-0.091 -1.09499996,-0.032 -0.081,-0.391 -0.1,-0.794 -0.099,-1.192 0.076,-0.586 0.145,-1.185 0.031,-1.77 0.022,-0.859 -0.236,-1.732 -0.012,-2.581 0.07,-0.92 -0.134,-1.862 0.119,-2.765 -0.044,-0.119 -0.089,-0.237 -0.143,-0.352 -0.009,-0.253 0.012,-0.506 0.034,-0.758 0.029,-0.292 -0.156,-0.556 -0.133,-0.849 0.056,-0.742 -0.132,-1.517 0.137,-2.233 -0.048,-0.166 -0.119,-0.326 -0.16,-0.494 -0.008,-0.225 0.032,-0.448 0.045,-0.673 -0.028,-0.464 -0.216,-0.953 -0.029,-1.406 0.134,-0.028 0.271,-0.01 0.406,0.001 0.219,-0.138 0.479,-0.145 0.72999996,-0.163 0.387,-0.3 0.897,-0.056 1.336,-0.166 0.472,0.007 0.96,-0.025 1.412,0.141 0.129,-0.042 0.256,-0.093 0.378,-0.152 0.283,-0.012 0.566,0.008 0.844,0.059 0.264,-0.114 0.552,-0.113 0.834,-0.138 0.508,-0.028 1.019,-0.098 1.53,-0.063 0.54,0.074 1.094,0.109 1.633,0.009 0.092,-0.002 0.183,0.013 0.271,0.044 -0.003,-0.008 -0.009,-0.026 -0.013,-0.035 0.6970004,-0.029 1.4220004,-0.22 2.1050004,-0.008 0.649,0.02 1.294,-0.048 1.941,-0.005 0.317,-0.03 0.627,0.182 0.938,0.049 0.308,-0.174 0.658,-0.013 0.986,-0.039 0.383,-0.039 0.766,-0.12 1.153,-0.087 0.433,0.028 0.872,-0.066 1.299,0.045 0.531,0.113 1.07,-0.008 1.599,0 0.419,-0.066 0.844,-0.071 1.266,-0.106 0.311,-0.006 0.635,-0.032 0.931,0.088 0.386,-0.06 0.775,0.041 1.162,-0.018 0.49,-0.023 0.991,-0.02 1.463,0.135 0.053,-0.02 0.16,-0.06 0.213,-0.08 0.3,-0.153 0.639,-0.038 0.955,-0.016 0.22,-0.043 0.442,-0.088 0.668,-0.092 0.146,-0.05 0.057,-0.027 0.269,-0.046 z M 8.8538626,15.241 c -0.011,0.112 -0.015,0.224 -0.014,0.337 0.126,-0.082 0.248,-0.168 0.367,-0.259 -0.118,-0.027 -0.236,-0.052 -0.354,-0.078 z m 2.6850004,-0.296 c -0.13,0.135 -0.168,0.321 -0.222,0.494 0.066,0.035 0.133,0.071 0.199,0.106 0.007,-0.2 0.032,-0.4 0.023,-0.6 z m 7.426,0.242 c -0.026,0.072 -0.052,0.145 -0.077,0.217 0.022,0.022 0.066,0.066 0.087,0.087 0.115,-0.082 0.232,-0.16 0.35,-0.237 -0.121,-0.022 -0.24,-0.045 -0.36,-0.067 z m 2.64,-0.305 c -0.069,0.134 -0.124,0.274 -0.171,0.418 -0.015,0.019 -0.046,0.056 -0.061,0.076 0.086,0.037 0.173,0.075 0.26,0.113 -0.021,-0.058 -0.042,-0.115 -0.062,-0.173 0.076,-0.135 0.062,-0.288 0.034,-0.434 z m -9.284,0.404 c -0.094,0.031 -0.126,0.05 -0.091,0.149 0.062,0.098 0.288,0.042 0.2,-0.087 -0.045,-0.061 -0.013,-0.034 -0.11,-0.062 z m -11.1630004,-0.205 -0.042,0.01 c -0.105,-10e-4 -0.20299996,0.185 -0.046,0.19 0.096,0.059 0.271,-0.134 0.148,-0.196 -0.018,-0.009 -0.04,-0.003 -0.06,-0.004 z M 31.411863,14.724 c -0.061,0.008 -0.035,0 -0.08,0.02 -0.155,0.044 -0.102,0.3 0.056,0.183 0.074,-0.023 0.131,-0.099 0.077,-0.175 -0.012,-0.016 -0.035,-0.018 -0.053,-0.028 z M 4.9678626,14.649 c -0.054,0.036 -0.107,0.073 -0.161,0.109 0.129,0.046 0.253,0.105 0.367,0.18 0.055,-0.02 0.109,-0.04 0.164,-0.059 0.017,-0.039 0.05,-0.119 0.066,-0.158 -0.146,-0.021 -0.292,-0.044 -0.437,-0.072 z M 15.198863,14.491 c -0.059,0.042 -0.117,0.084 -0.176,0.127 0.052,0.008 0.158,0.025 0.21,0.033 0.039,0.035 0.117,0.105 0.156,0.139 0.032,-0.005 0.093,-0.015 0.124,-0.019 0.046,-0.068 0.092,-0.135 0.139,-0.202 -0.153,-0.023 -0.304,-0.048 -0.454,-0.079 z m 14.168,-0.02 c -0.025,0.026 -0.074,0.079 -0.098,0.106 0.144,0.055 0.287,0.118 0.434,0.166 0.057,-0.066 0.115,-0.132 0.173,-0.198 -0.171,-0.02 -0.341,-0.043 -0.509,-0.074 z m -4.037,-0.042 c -0.053,0.02 -0.161,0.059 -0.214,0.079 0.145,0.072 0.283,0.169 0.442,0.209 0.079,-0.064 0.141,-0.146 0.206,-0.222 -0.066,0.018 -0.198,0.055 -0.264,0.073 -0.042,-0.035 -0.127,-0.104 -0.17,-0.139 z m -3.089,-12.943 c -0.241,0.03 -0.141,0.001 -0.306,0.062 -0.51,0.218 -1.072,0.119 -1.609,0.163 -0.867,0.015 -1.735,0.004 -2.602,0.02 -0.262,0.028 -0.515,-0.049 -0.769,-0.095 -0.191,0.046 -0.393,0.133 -0.582,0.031 -0.478,-0.08 -0.964,-0.039 -1.445,-0.032 -0.556,-0.032 -1.113,-0.02 -1.668,0.021 -0.408,-0.069 -0.816,-0.116 -1.23,-0.095 -0.118,0.056 -0.245,0.088 -0.375,0.097 -0.102,0.043 -0.209,0.076 -0.319,0.086 -0.794,0.055 -1.5920004,0.011 -2.3850004,0.068 -0.473,0.003 -0.945,-0.047 -1.418,-0.019 -0.231,0.017 -0.45,-0.085 -0.679,-0.081 -0.661,0.164 -1.346,0 -2.016,0.075 -0.504,-0.016 -1.009,-0.03 -1.513,-10e-4 -0.264,0.039 -0.532,0.013 -0.785,-0.067 -0.245,-0.006 -0.489,-0.011 -0.734,-0.022 -0.09,0.042 -0.181,0.083 -0.273,0.123 0.06,0.671 -0.041,1.345 0.032,2.017 0.042,0.287 -0.001,0.576 -0.078,0.854 0.107,0.532 0.035,1.073 0.046,1.609 0.011,0.511 -0.009,1.022 -0.005,1.532 0.001,0.257 0.08,0.512 0.023,0.769 -0.09,0.487 -0.092,0.99 0.008,1.475 0.039,0.146 0.085,0.292 0.101,0.443 0.021,0.689 0.032,1.378 0.035,2.069 0.082,0.603 -0.056,1.21 0.023,1.814 0.735,0.076 1.485,-0.098 2.208,0.092 0.156,0.049 0.315,-0.005 0.463,-0.054 0.282,-0.097 0.579,0.002 0.868,-0.003 0.683,-0.121 1.377,-0.153 2.069,-0.191 0.312,-0.016 0.617,0.068 0.928,0.085 0.979,0.033 1.9440004,-0.186 2.9240004,-0.149 0.175,-0.009 0.35,0.019 0.507,0.1 0.349,-0.033 0.699,0.013 1.048,-0.009 0.535,-0.066 1.073,0.008 1.602,0.079 0.272,-0.07 0.548,-0.147 0.832,-0.093 0.496,0.098 0.979,-0.17 1.475,-0.078 0.411,0.062 0.827,-0.054 1.236,0.032 0.486,0.097 0.989,0.082 1.476,0.002 0.54,-0.007 1.075,-0.102 1.617,-0.093 0.299,-0.009 0.613,-0.015 0.884,0.132 -0.006,-0.015 -0.019,-0.046 -0.025,-0.062 0.689,0.082 1.374,-0.058 2.062,0.025 0.278,0.042 0.594,0.163 0.846,-0.027 0.232,-0.015 0.465,-0.005 0.696,0.008 0.459,0.031 0.915,-0.17 1.371,-0.051 0.307,0.066 0.623,0.035 0.933,0.083 0.257,-0.035 0.505,0.063 0.757,0.1 0.192,-0.02 0.371,-0.101 0.562,-0.126 0.256,-0.007 0.51,0.07 0.765,0.029 0.199,-0.033 0.398,-0.061 0.6,-0.067 0.168,-1.08 -0.015,-2.167 -0.053,-3.249 10e-4,-0.085 10e-4,-0.169 10e-4,-0.254 -0.015,-0.277 -0.02,-0.553 0.06,-0.823 -0.017,-0.411 0.047,-0.823 -0.015,-1.231 -0.032,-0.521 0.027,-1.042 0.122,-1.554 -0.122,-0.297 -0.157,-0.608 -0.106,-0.925 0.063,-0.346 -0.099,-0.672 -0.112,-1.012 0.039,-0.692 -0.099,-1.396 0.079,-2.079 0.064,-0.227 -0.051,-0.44 -0.103,-0.655 -0.009,-0.26 0.027,-0.519 0.059,-0.777 -0.995,-0.041 -1.991,0.013 -2.986,0.003 -0.565,-0.143 -1.139,0.047 -1.708,-0.048 -0.741,0.019 -1.485,-0.045 -2.223,0.038 -0.225,0.002 -0.447,-0.049 -0.666,-0.096 -0.179,0.008 -0.065,0.006 -0.318,-0.008 -0.07,-0.004 -0.141,-0.007 -0.211,-0.011 z M 5.0318626,3.262 c 0.343,0.097 0.695,0.151 1.052,0.127 0.698,-0.034 1.401,0.082 2.095,-0.031 0.191,-0.015 0.381,0.031 0.572,0.039 0.366,0.031 0.746,-0.041 1.096,0.095 0.035,0.109 0.088,0.219 0.046,0.334 -0.107,0.508 -0.049,1.032 -0.087,1.545 -0.069,0.106 -0.197,0.138 -0.316,0.136 -0.803,0.026 -1.606,0.009 -2.41,0.008 -0.193,0.005 -0.37,-0.083 -0.53,-0.181 -0.12,0.076 -0.24,0.151 -0.363,0.224 -0.039,0.139 -0.073,0.279 -0.103,0.421 0.19,0.443 0.068,0.927 -0.011,1.38 0.089,0.043 0.177,0.086 0.267,0.129 0.011,-0.049 0.035,-0.147 0.047,-0.196 0.504,-0.005 1.034,-0.284 1.517,-0.039 0.324,-0.029 0.646,-0.085 0.971,-0.102 0.067,0.06 0.134,0.121 0.201,0.181 0.014,0.191 0.008,0.382 -0.015,0.572 -0.044,0.331 0.035,0.664 -0.026,0.994 -0.13,0.028 -0.26,0.071 -0.394,0.068 -0.532,-0.018 -1.067,-0.015 -1.597,-0.076 -0.17,0.169 -0.407,0.165 -0.629,0.184 -0.108,0.056 -0.19,0.148 -0.282,0.226 -0.03,0.253 -0.049,0.51 0.003,0.762 0.077,0.308 -0.066,0.61 -0.055,0.918 0.008,0.264 0.069,0.532 -0.022,0.789 0.04,0.187 0.062,0.378 0.03,0.568 -0.755,0.09 -1.523,0.296 -2.28,0.109 -0.157,-0.053 -0.3,-0.197 -0.29,-0.373 -0.018,-0.465 -0.036,-0.936 0.071,-1.393 0.137,-0.676 -0.203,-1.363 -0.009,-2.03 -0.11,-0.15 -0.196,-0.323 -0.194,-0.514 -0.012,-0.671 0.05,-1.341 0.051,-2.012 -0.052,-0.119 -0.129,-0.236 -0.116,-0.373 0.009,-0.354 -0.006,-0.716 0.098,-1.059 -0.072,-0.368 -0.072,-0.752 0.023,-1.116 0.062,-0.119 0.183,-0.212 0.323,-0.198 0.425,0.012 0.86,0.031 1.266,-0.116 z m 0.353,6.384 c -0.014,0.186 -0.026,0.371 -0.031,0.558 0.106,0.083 0.207,0.17 0.309,0.258 0.016,-0.135 0.029,-0.27 0.054,-0.403 0.015,-0.134 0.028,-0.269 0.04,-0.403 -0.124,-0.004 -0.248,-0.007 -0.372,-0.01 z M 28.029863,3.023 c 0.212,-0.016 0.456,0.109 0.489,0.335 0.079,0.478 0.085,0.965 0.134,1.448 0.062,0.596 -0.203,1.18 -0.089,1.774 0.074,0.494 -0.183,0.978 -0.087,1.474 0.107,0.615 0.039,1.238 0.065,1.858 -0.006,0.64 0.048,1.284 -0.03,1.921 -0.012,0.23 -0.243,0.381 -0.461,0.358 -0.512,-0.041 -1.026,-0.051 -1.539,-0.025 -0.15,0.018 -0.301,-0.044 -0.401,-0.155 -0.152,-0.231 -0.038,-0.516 -0.048,-0.771 -0.062,-0.257 -0.172,-0.504 -0.2,-0.769 0.032,-0.266 0.216,-0.514 0.114,-0.786 -0.092,-0.304 0.129,-0.568 0.25,-0.827 -0.105,-0.389 -0.105,-0.793 -0.138,-1.19 -0.076,-0.297 -0.062,-0.605 -0.012,-0.904 -0.056,-0.079 -0.112,-0.157 -0.166,-0.236 0.126,-0.092 0.091,-0.233 0.067,-0.363 -0.149,-0.002 -0.297,-0.002 -0.445,0.005 -0.063,0.183 -0.127,0.366 -0.195,0.549 0.04,0.263 0.115,0.556 -0.062,0.788 -0.153,0.204 -0.126,0.465 -0.178,0.702 -0.032,0.172 -0.121,0.326 -0.176,0.491 -0.069,0.327 0.044,0.677 -0.076,0.998 -0.105,0.28 -0.142,0.589 -0.332,0.83 0.009,0.226 0.024,0.464 -0.102,0.663 -0.165,0.248 -0.081,0.584 -0.275,0.816 -0.221,0.192 -0.53,0.13 -0.797,0.15 -0.31,0.004 -0.67,0.043 -0.916,-0.181 -0.125,-0.272 -0.236,-0.555 -0.299,-0.848 -0.112,-0.22 -0.293,-0.42 -0.301,-0.68 -0.022,-0.32 -0.222,-0.599 -0.21,-0.925 0.042,-0.587 -0.431,-1.046 -0.451,-1.623 -0.04,-0.38 -0.08,-0.826 -0.436,-1.052 -0.082,0.045 -0.164,0.089 -0.246,0.133 0.125,1.052 -0.111,2.103 -0.022,3.155 0.083,0.536 0.065,1.079 0.066,1.619 -0.012,0.201 -0.042,0.523 -0.291,0.558 -0.376,0.014 -0.753,0.016 -1.125,0.076 -0.208,0.055 -0.466,-0.032 -0.522,-0.257 -0.122,-0.554 -0.042,-1.128 -0.084,-1.69 -0.059,-0.926 0.099,-1.847 0.121,-2.771 0.037,-0.31 -0.128,-0.602 -0.078,-0.913 0.059,-0.347 -0.22,-0.729 0.007,-1.043 -0.072,-0.551 -0.31,-1.094 -0.201,-1.656 0.018,-0.251 0.099,-0.491 0.185,-0.726 0.734,0.017 1.468,-0.105 2.2,-0.028 0.264,0.044 0.499,-0.124 0.761,-0.118 0.223,-0.02 0.49,0.068 0.555,0.307 0.107,0.374 0.233,0.742 0.361,1.109 0.181,0.301 0.142,0.665 0.248,0.991 0.06,0.193 -0.024,0.414 0.089,0.593 0.126,0.236 0.24,0.482 0.273,0.752 l 0.037,-0.005 c 0.034,0.071 0.069,0.141 0.106,0.211 0.013,0.203 -10e-4,0.407 -0.022,0.609 0.237,0.094 0.468,0.2 0.703,0.297 0.024,-0.046 0.072,-0.139 0.097,-0.185 -0.212,-0.602 -0.105,-1.277 0.094,-1.87 0.032,-0.158 0.015,-0.329 0.084,-0.478 0.185,-0.336 0.146,-0.742 0.307,-1.087 0.092,-0.183 0.114,-0.386 0.13,-0.586 0.047,-0.177 0.164,-0.326 0.253,-0.483 0.364,-0.351 0.923,-0.257 1.384,-0.255 0.609,0.111 1.221,-0.036 1.829,-0.081 z m -1.335,7.92 c -0.111,0.018 -0.222,0.035 -0.332,0.052 0.102,0.162 0.134,0.349 0.089,0.535 0.072,0.07 0.145,0.14 0.218,0.211 0.11,-0.259 0.136,-0.535 0.025,-0.798 z m 1.084,0.348 c -0.096,0.042 -0.184,0.101 -0.254,0.18 0.06,0.012 0.18,0.035 0.24,0.047 0.025,0.016 0.075,0.049 0.099,0.064 -0.027,-0.097 -0.056,-0.194 -0.085,-0.29 z m -8.29,-0.026 c -0.009,0.103 -0.018,0.206 -0.026,0.309 0.127,-0.012 0.254,-0.023 0.382,-0.034 0.004,-0.077 0.008,-0.154 0.012,-0.23 -0.123,-0.015 -0.246,-0.029 -0.368,-0.045 z m 3.678,-0.785 c -0.055,0.06 -0.11,0.119 -0.165,0.179 0.104,0.068 0.2,0.148 0.284,0.241 0.068,-0.047 0.137,-0.095 0.206,-0.142 -0.066,-0.14 -0.146,-0.284 -0.324,-0.278 z m 2.005,-4.316 c -0.086,0.035 -0.173,0.069 -0.258,0.104 -0.009,0.089 -0.017,0.178 -0.025,0.267 0.092,-0.007 0.183,-0.014 0.275,-0.022 0.002,-0.117 0.005,-0.233 0.008,-0.35 z m -0.028,-0.905 c -0.166,10e-4 -0.332,0 -0.498,0.002 -0.002,0.079 -0.002,0.157 -0.003,0.236 0.172,0.033 0.345,0.063 0.518,0.09 -0.006,-0.109 -0.012,-0.219 -0.018,-0.327 z m 0.102,-1.349 c -0.114,0.049 -0.228,0.098 -0.343,0.144 -0.055,0.214 -0.066,0.436 -0.074,0.656 0.033,0 0.099,-0.001 0.132,-0.001 0.178,-0.245 0.381,-0.47 0.555,-0.718 -0.067,-0.02 -0.202,-0.062 -0.27,-0.082 z m 0.317,-0.393 c -0.148,0.003 -0.214,0.099 -0.274,0.22 0.133,-0.034 0.27,-0.077 0.337,-0.208 l -0.064,-0.012 z m -7.989,-0.296 c 0.133,0.015 0.079,-0.004 0.168,0.04 0.272,0.165 0.27,0.523 0.305,0.801 0.022,0.82 -0.005,1.64 0.013,2.459 0.005,0.305 0.033,0.614 -0.042,0.914 0.082,0.308 -0.026,0.619 -0.005,0.931 0.015,0.457 0.017,0.917 -0.07,1.367 -0.06,0.18 -0.199,0.318 -0.272,0.491 -0.028,0.216 0.022,0.448 -0.067,0.653 -0.113,0.138 -0.283,0.209 -0.424,0.312 0.074,0.093 0.14,0.195 0.224,0.28 0.113,0.052 0.242,0.026 0.363,0.032 0.062,0.159 0.124,0.318 0.183,0.478 -0.036,0.042 -0.108,0.128 -0.144,0.17 -0.287,0.026 -0.576,0.035 -0.863,0.055 -0.26,0.03 -0.542,0.173 -0.795,0.037 -0.265,-0.22 -0.48,-0.497 -0.638,-0.802 -0.331,-0.438 -0.65,-0.885 -0.951,-1.344 -0.139,-0.299 -0.266,-0.603 -0.428,-0.89 -0.286,-0.276 -0.537,-0.585 -0.705,-0.947 -0.246,-0.32 -0.336,-0.726 -0.589,-1.041 -10e-4,-0.091 -10e-4,-0.182 -10e-4,-0.273 -0.066,-0.074 -0.132,-0.148 -0.196,-0.222 -0.124,0.054 -0.252,0.116 -0.303,0.251 0.114,0.039 0.173,0.114 0.178,0.226 0.07,0.539 0.016,1.08 -0.013,1.619 -0.088,0.389 -0.086,0.79 -0.028,1.183 -0.012,0.303 -0.086,0.606 -0.039,0.91 0.071,0.17 0.213,0.3 0.287,0.47 0.072,0.272 0.018,0.565 -0.104,0.814 -0.275,0.137 -0.603,0.134 -0.904,0.111 -0.341,-0.035 -0.69,-0.008 -1.022,-0.109 -0.141,-0.336 -0.096,-0.706 -0.1,-1.059 0.01,-0.746 -0.042,-1.495 0.039,-2.237 -0.072,-0.136 -0.138,-0.281 -0.141,-0.439 -0.094,-1.185 -0.202,-2.374 -0.135,-3.562 0.025,-0.477 -0.054,-0.973 0.093,-1.435 0.223,-0.114 0.472,-0.081 0.71,-0.051 -0.007,0.02 -0.021,0.06 -0.028,0.08 0.447,-0.181 0.955,-0.096 1.427,-0.107 0.503,0.08 0.654,0.634 0.907,1 0.408,0.536 0.776,1.106 1.071,1.713 0.122,0.181 0.363,0.277 0.412,0.507 0.079,0.314 0.368,0.507 0.495,0.797 0.118,0.263 0.246,0.522 0.329,0.799 0.148,0.016 0.297,0.031 0.445,0.04 -0.221,-0.559 -0.109,-1.156 -0.148,-1.736 -0.328,-0.29 -0.179,-0.763 -0.224,-1.145 -0.049,-0.6 -0.013,-1.201 0.098,-1.792 0.031,-0.086 0.09,-0.158 0.139,-0.234 0.358,-0.036 0.732,0.016 1.027,0.234 0.036,-0.015 0.109,-0.043 0.144,-0.058 0.011,-0.05 0.032,-0.149 0.042,-0.2 0.162,-0.069 0.07,-0.036 0.278,-0.092 z m -5.784,8.473 c -0.102,0.022 -0.203,0.045 -0.304,0.071 -0.18,-0.072 -0.355,-0.012 -0.519,0.069 0.016,0.079 0.032,0.159 0.049,0.239 0.213,-0.006 0.426,0.008 0.637,0.041 0.096,-0.052 0.192,-0.103 0.29,-0.153 -0.039,-0.066 -0.115,-0.199 -0.153,-0.266 z m 5.115,-0.363 c -0.065,0.142 -0.121,0.288 -0.164,0.438 l 0.174,0.132 c -0.001,-0.19 -0.001,-0.381 -0.01,-0.57 z m -0.807,-0.284 c 0.071,0.176 0.194,0.321 0.315,0.465 0.039,-0.03 0.118,-0.089 0.157,-0.119 -0.109,-0.172 -0.29,-0.267 -0.472,-0.346 z m 0.25,-7.096 c -0.016,0.067 -0.049,0.2 -0.065,0.267 0.054,0.055 0.092,0.177 0.188,0.109 0.106,-0.143 -0.058,-0.258 -0.122,-0.377 z m 1.146,-0.182 c -0.109,0.06 -0.216,0.123 -0.321,0.186 -0.007,0.025 -0.02,0.075 -0.027,0.101 0.082,0.037 0.165,0.075 0.247,0.113 0.046,-0.015 0.093,-0.031 0.14,-0.047 -0.015,-0.118 -0.026,-0.236 -0.039,-0.354 z M 1.1538626,12.736 c -0.012,0.166 -0.085,0.542 0.204,0.438 0.063,-0.143 -0.144,-0.297 -0.204,-0.438 z m 30.2620004,-0.32 c -0.028,0.107 -0.055,0.214 -0.082,0.32 0.072,0.05 0.142,0.103 0.211,0.158 0.035,-0.097 0.058,-0.197 -0.028,-0.277 -0.035,-0.067 -0.069,-0.135 -0.101,-0.202 z m -30.43400036,-2.094 -0.142,0.005 c 0.136,0.099 0.28999996,0.168 0.43699996,0.249 0.042,-0.082 0.085,-0.164 0.13,-0.245 -0.236,0.024 -0.094,0.018 -0.42499996,-0.008 z M 31.171863,9.946 c -0.012,0.032 -0.034,0.094 -0.045,0.125 0.138,0.05 0.277,0.102 0.416,0.152 0.012,-0.053 0.037,-0.16 0.049,-0.213 -0.141,-0.018 -0.28,-0.042 -0.421,-0.063 z M 1.2638626,9.383 c -0.106,0.018 -0.133,0.183 -0.044,0.24 0.145,0.068 0.192,-0.239 0.044,-0.24 z M 0.49686264,6 c 0.015,0.159 0.014,0.321 -0.063,0.465 0.012,0.068 0.025,0.136 0.039,0.204 0.062,-0.106 0.123,-0.212 0.187,-0.315 0.006,-0.06 0.012,-0.12 0.018,-0.18 -0.061,-0.058 -0.121,-0.116 -0.18,-0.174 z M 30.730863,5.663 c -0.009,0.163 -0.024,0.326 -0.078,0.481 0.034,0.071 0.068,0.141 0.103,0.211 0.007,-0.059 0.021,-0.179 0.028,-0.238 0.056,-0.067 0.107,-0.137 0.16,-0.207 -0.072,-0.082 -0.143,-0.164 -0.213,-0.247 z M 0.40586264,1.804 c 0.009,0.154 0.003,0.31 -0.05,0.457 0.02,0.064 0.04,0.128 0.06,0.191 0.055,-0.101 0.111,-0.202 0.17,-0.3 0.005,-0.062 0.008,-0.126 0.012,-0.188 -0.065,-0.053 -0.129,-0.106 -0.193,-0.16 z M 30.637863,1.536 c 0.009,0.049 0.029,0.146 0.038,0.195 -0.042,0.055 -0.085,0.112 -0.127,0.167 0.035,0.072 0.069,0.146 0.105,0.218 0.041,-0.109 0.079,-0.223 0.165,-0.309 0.008,-0.133 -0.052,-0.236 -0.18,-0.271 z M 2.0268626,1.287 c -0.049,0.061 -0.094,0.125 -0.137,0.19 0.063,0.041 0.128,0.079 0.194,0.113 -0.015,-0.102 -0.035,-0.203 -0.057,-0.303 z M 11.417863,0.876 c -0.064,0.105 -0.124,0.211 -0.185,0.317 -0.003,0.055 -0.007,0.11 -0.01,0.165 0.077,0.048 0.152,0.098 0.226,0.151 -0.024,-0.075 -0.048,-0.15 -0.072,-0.225 0.064,-0.129 0.083,-0.27 0.041,-0.408 z M 8.7458626,1.161 c -0.007,0.108 -0.012,0.216 10e-4,0.325 0.131,-0.087 0.25,-0.19 0.372,-0.29 -0.124,-0.012 -0.249,-0.024 -0.373,-0.035 z M 18.903863,1.1 c -0.042,0.049 -0.083,0.099 -0.124,0.148 0.032,0.053 0.063,0.106 0.096,0.159 0.105,-0.087 0.218,-0.166 0.335,-0.238 -0.103,-0.022 -0.205,-0.044 -0.307,-0.069 z m -6.66,0.109 c -0.088,0.005 -0.056,-0.012 -0.105,0.032 -0.076,0.104 0.105,0.21 0.177,0.121 0.04,-0.086 -0.009,-0.11 -0.072,-0.152 z m 9.314,-0.37 c -0.031,0.009 -0.092,0.027 -0.122,0.035 -0.045,0.148 -0.095,0.293 -0.144,0.439 0.092,0.021 0.186,0.042 0.279,0.063 -0.029,-0.024 -0.086,-0.07 -0.115,-0.093 0.066,-0.139 0.099,-0.29 0.102,-0.444 z m 0.764,0.295 c -0.13,0.022 -0.083,-0.008 -0.155,0.065 -0.008,0.11 0.149,0.176 0.234,0.118 -0.004,-0.039 -0.012,-0.116 -0.016,-0.155 z m -15.5510004,-0.1 -0.029,0.012 c -0.039,0.087 -0.009,0.203 0.051,0.274 0.165,0.027 0.131,-0.215 0.03,-0.28 -0.015,-0.009 -0.035,-0.004 -0.052,-0.007 z M 16.883863,1.01 c -0.097,0.053 -0.068,0.271 0.059,0.259 0.123,-0.045 0.06,-0.26 -0.059,-0.259 z M 4.8798626,0.57 c -0.057,0.03 -0.113,0.06 -0.17,0.09 0.148,0.069 0.297,0.138 0.451,0.192 0.057,-0.073 0.114,-0.146 0.171,-0.219 -0.151,-0.016 -0.302,-0.037 -0.451,-0.063 z M 15.160863,0.437 c -0.191,0.027 -0.113,0.001 -0.242,0.056 0.107,0.059 0.216,0.118 0.322,0.18 0.05,0.002 0.1,0.004 0.151,0.005 0.061,-0.068 0.123,-0.134 0.188,-0.199 -0.251,-0.026 -0.111,-0.012 -0.419,-0.043 z m 14.132,-0.062 c -0.044,0.04 -0.087,0.08 -0.13,0.12 0.139,0.059 0.277,0.118 0.419,0.17 0.055,-0.071 0.111,-0.142 0.166,-0.213 -0.152,-0.025 -0.304,-0.05 -0.455,-0.078 z m -4.057,0.005 c -0.18,0.027 -0.107,0.002 -0.227,0.056 0.11,0.042 0.218,0.092 0.314,0.164 0.044,0.008 0.132,0.022 0.176,0.029 0.045,-0.072 0.089,-0.143 0.136,-0.213 -0.238,-0.02 -0.106,-0.008 -0.397,-0.036 z m -7.246,0 c -0.085,0 -0.199,0.024 -0.16,0.13 0.081,0.039 0.23,0.052 0.277,-0.043 -0.014,-0.063 -0.061,-0.068 -0.116,-0.087 z"
     id="path4" />
</svg>
