<?xml version="1.0" encoding="UTF-8" standalone="no"?>
<svg
   version="1.1"
   width="33.25"
   height="12.971148"
   viewBox="0 0 33.25 12.971147"
   id="svg4"
   xmlns="http://www.w3.org/2000/svg"
   xmlns:svg="http://www.w3.org/2000/svg">
  <defs>
    <!-- This is the gradient that will actually be used on
     the cards. The colors themselves will be provided by the
     template, but the x values, y values, and offsets will be
     used from the SVG. -->
    <linearGradient id="rarity" x1="0" y1="1" x2="1" y2="0">
      <stop offset="0" style="stop-color:rgb(192,55,38);stop-opacity:1" id="stop2" />
      <stop offset="0.125" style="stop-color:rgb(192,55,38);stop-opacity:1" id="stop4" />
      <stop offset="0.5" style="stop-color:rgb(241,142,30);stop-opacity:1" id="stop6" />
      <stop offset="0.875" style="stop-color:rgb(192,55,38);stop-opacity:1" id="stop8" />
      <stop offset="1" style="stop-color:rgb(192,55,38);stop-opacity:1" id="stop10" />
    </linearGradient>
    <!-- These gradients are here so that you can visualize
     what the set symbol would like like in that rarity. The
     only gradient that matters in the end is the "rarity"
     gradient. -->
    <linearGradient id="mythic" x1="0" y1="1" x2="1" y2="0">
      <stop offset="0" style="stop-color:rgb(192,55,38);stop-opacity:1"/>
      <stop offset="0.125" style="stop-color:rgb(192,55,38);stop-opacity:1"/>
      <stop offset="0.5" style="stop-color:rgb(241,142,30);stop-opacity:1"/>
      <stop offset="0.875" style="stop-color:rgb(192,55,38);stop-opacity:1"/>
      <stop offset="1" style="stop-color:rgb(192,55,38);stop-opacity:1"/>
    </linearGradient>
    <linearGradient id="rare" x1="0" y1="1" x2="1" y2="0">
      <stop offset="0" style="stop-color:rgb(146,116,67);stop-opacity:1"/>
      <stop offset="0.125" style="stop-color:rgb(146,116,67);stop-opacity:1"/>
      <stop offset="0.5" style="stop-color:rgb(211,178,108);stop-opacity:1"/>
      <stop offset="0.875" style="stop-color:rgb(146,116,67);stop-opacity:1"/>
      <stop offset="1" style="stop-color:rgb(146,116,67);stop-opacity:1"/>
    </linearGradient>
    <linearGradient id="special" x1="0" y1="1" x2="1" y2="0">
      <stop offset="0" style="stop-color:rgb(76, 56, 106);stop-opacity:1"/>
      <stop offset="0.125" style="stop-color:rgb(76, 56, 106);stop-opacity:1"/>
      <stop offset="0.5" style="stop-color:rgb(201, 173, 221);stop-opacity:1"/>
      <stop offset="0.875" style="stop-color:rgb(76, 56, 106);stop-opacity:1"/>
      <stop offset="1" style="stop-color:rgb(76, 56, 106);stop-opacity:1"/>
    </linearGradient>
    <linearGradient id="uncommon" x1="0" y1="1" x2="1" y2="0">
      <stop offset="0" style="stop-color:rgb(98,110,119);stop-opacity:1"/>
      <stop offset="0.125" style="stop-color:rgb(98,110,119);stop-opacity:1"/>
      <stop offset="0.5" style="stop-color:rgb(196,222,238);stop-opacity:1"/>
      <stop offset="0.875" style="stop-color:rgb(98,110,119);stop-opacity:1"/>
      <stop offset="1" style="stop-color:rgb(98,110,119);stop-opacity:1"/>
    </linearGradient>
    <linearGradient id="common" x1="0" y1="1" x2="1" y2="0">
      <stop offset="0" style="stop-color:rgb(0,0,0);stop-opacity:1"/>
    </linearGradient>
    <linearGradient
            id="rarity-outline" x1="0" y1="1" x2="0" y2="1">
      <stop offset="0" style="stop-color:rgb(0,0,0);stop-opacity:1"/>
    </linearGradient>
  </defs>
  <path fill="url(#rarity-outline)"
     d="m 0,0 v 12.970703 h 0.625 c 1.5617317,0 3.1230151,10e-4 4.6855469,0 h 0.625 0.1875 c 1.8794416,10e-4 3.757942,0 5.6367191,0 h 0.002 c 0.883762,-0.0021 1.799968,-0.109637 2.677734,-0.431641 h 0.002 c 0.94148,-0.340035 1.79195,-0.950543 2.38086,-1.791015 0.565793,-0.7958315 0.826513,-1.7044978 0.986328,-2.6113282 0.245918,1.4381272 0.491624,2.8764792 0.738281,4.3144532 l 0.08984,0.519531 h 5.158203 l 0.113281,-0.484375 C 24.236426,11.074315 24.562984,9.6622639 24.890625,8.25 25.21805,9.6619408 25.546702,11.074218 25.875,12.486328 l 0.111328,0.484375 h 5.160156 l 0.08789,-0.519531 C 31.904466,8.5466472 32.569343,4.6416468 33.240234,0.73828125 L 33.25,0.68554687 V 0 H 28.28125 L 28.22852,0.56640625 C 28.117063,1.754585 28.005674,2.9425616 27.894531,4.1308594 27.64094,3.0618319 27.386566,1.9927593 27.132812,0.92382812 l -0.002,-0.007813 -0.002,-0.005859 C 27.097671,0.79061093 27.075567,0.6736398 27.064453,0.5625 L 27.007812,0 H 22.78125 l -0.0625,0.55273438 C 22.684396,0.84943113 22.572738,1.1988627 22.484375,1.6171875 L 21.888672,4.1308594 C 21.778144,2.9501656 21.667795,1.7704281 21.556641,0.58984375 V 0 h -0.625 -4.517579 l 0.125,0.73046875 C 16.626397,1.2373538 16.711729,1.7449859 16.798828,2.2519531 16.279576,1.5413528 15.622761,0.93330425 14.826172,0.578125 13.930346,0.17359489 12.970911,0.02344728 12.046875,0 l -0.0078,0.625 c -0.0026,-6.794e-5 -0.0052,6.58e-5 -0.0078,0 V 0 h -6.0957031 -0.4375 -0.1875 z m 10.589844,3.9960938 c 0.383321,0.00407 0.750468,-3.276e-4 1.050781,0.060547 l 0.0039,0.00195 h 0.0059 c 0.330176,0.061203 0.613436,0.1869732 0.783203,0.3613281 l 0.002,0.00195 0.002,0.00195 c 0.161925,0.1637042 0.284498,0.4223792 0.357422,0.7246094 0.105441,0.4447494 0.129494,0.9339511 0.123047,1.4472656 -0.0168,0.6381606 -0.123764,1.2371381 -0.41211,1.671875 l -0.002,0.00195 -0.002,0.00391 C 12.309154,8.5705157 11.96688,8.7980141 11.587891,8.8925781 l -0.0059,0.00195 -0.0059,0.00195 c -0.266556,0.072278 -0.643672,0.052271 -0.986328,0.054687 -4.85e-4,-1.6517942 -1.37e-4,-3.303533 0,-4.9550781 z" />
  <path fill="url(#rarity)" d="m 5.31,0.625 c 0,3.907 0,7.814 0,11.721 -1.562,10e-4 -3.123,0 -4.685,0 V 0.625 Z m 5.105,2.735 c 0.45,0.006 0.905,-0.005 1.349,0.085 0.41,0.076 0.822,0.235 1.118,0.539 0.273,0.276 0.431,0.645 0.521,1.018 0.125,0.526 0.146,1.07 0.139,1.608 -0.018,0.692 -0.125,1.415 -0.515,2.003 -0.292,0.45 -0.771,0.757 -1.288,0.886 -0.579,0.157 -1.183,0.103 -1.774,0.113 -10e-4,-2.084 0,-4.167 0,-6.25 L 10.416,3.361 Z M 12.032,0.625 H 6.123 c 0,3.907 0,7.813 0,11.72 1.879,10e-4 3.758,0 5.637,0 0.835,-0.002 1.678,-0.103 2.465,-0.392 0.83,-0.299 1.578,-0.839 2.086,-1.564 C 16.962,9.475 17.244,8.352 17.342,7.248 17.411,6.427 17.409,5.593 17.257,4.781 17.125,4.067 16.876,3.369 16.474,2.76 16.014,2.051 15.339,1.49 14.568,1.147 13.773,0.788 12.898,0.647 12.031,0.625 Z m 8.9,0 h -3.777 c 0.673,3.906 1.338,7.814 2.008,11.72 1.379,0 2.757,0 4.136,0 0.492,-2.116 0.982,-4.233 1.474,-6.35 0.039,-0.158 0.066,-0.32 0.12,-0.474 0.158,0.615 0.29,1.238 0.437,1.856 0.384,1.656 0.768,3.312 1.153,4.968 1.379,0 2.757,0 4.136,0 0.67,-3.904 1.335,-7.809 2.006,-11.713 V 0.625 H 28.85 C 28.667,2.576 28.485,4.528 28.302,6.479 28.252,6.949 28.225,7.422 28.161,7.89 28.109,7.783 28.091,7.666 28.064,7.552 27.55,5.391 27.038,3.229 26.525,1.068 26.487,0.923 26.458,0.775 26.443,0.625 H 23.339 C 23.295,1.005 23.175,1.372 23.096,1.746 22.725,3.309 22.354,4.872 21.983,6.435 21.862,6.92 21.764,7.411 21.628,7.892 21.617,7.85 21.607,7.807 21.601,7.764 21.378,5.385 21.156,3.005 20.932,0.626 Z"/>
</svg>
