<?xml version="1.0" encoding="UTF-8" standalone="no"?>
<svg
   version="1.1"
   width="30.819296"
   height="23.591173"
   viewBox="0 0 30.819296 23.591173"
   id="svg4"
   xmlns="http://www.w3.org/2000/svg"
   xmlns:svg="http://www.w3.org/2000/svg">
  <defs>
    <!-- This is the gradient that will actually be used on
     the cards. The colors themselves will be provided by the
     template, but the x values, y values, and offsets will be
     used from the SVG. -->
    <linearGradient id="rarity" x1="0" y1="0" x2="1" y2="1">
      <stop offset="0" style="stop-color:rgb(192,55,38);stop-opacity:1" id="stop2" />
      <stop offset="0.125" style="stop-color:rgb(192,55,38);stop-opacity:1" id="stop4" />
      <stop offset="0.5" style="stop-color:rgb(241,142,30);stop-opacity:1" id="stop6" />
      <stop offset="0.875" style="stop-color:rgb(192,55,38);stop-opacity:1" id="stop8" />
      <stop offset="1" style="stop-color:rgb(192,55,38);stop-opacity:1" id="stop10" />
    </linearGradient>
    <!-- These gradients are here so that you can visualize
     what the set symbol would like like in that rarity. The
     only gradient that matters in the end is the "rarity"
     gradient. -->
    <linearGradient id="mythic" x1="0" y1="1" x2="1" y2="0">
      <stop offset="0" style="stop-color:rgb(192,55,38);stop-opacity:1"/>
      <stop offset="0.125" style="stop-color:rgb(192,55,38);stop-opacity:1"/>
      <stop offset="0.5" style="stop-color:rgb(241,142,30);stop-opacity:1"/>
      <stop offset="0.875" style="stop-color:rgb(192,55,38);stop-opacity:1"/>
      <stop offset="1" style="stop-color:rgb(192,55,38);stop-opacity:1"/>
    </linearGradient>
    <linearGradient id="rare" x1="0" y1="1" x2="1" y2="0">
      <stop offset="0" style="stop-color:rgb(146,116,67);stop-opacity:1"/>
      <stop offset="0.125" style="stop-color:rgb(146,116,67);stop-opacity:1"/>
      <stop offset="0.5" style="stop-color:rgb(211,178,108);stop-opacity:1"/>
      <stop offset="0.875" style="stop-color:rgb(146,116,67);stop-opacity:1"/>
      <stop offset="1" style="stop-color:rgb(146,116,67);stop-opacity:1"/>
    </linearGradient>
    <linearGradient id="special" x1="0" y1="1" x2="1" y2="0">
      <stop offset="0" style="stop-color:rgb(76, 56, 106);stop-opacity:1"/>
      <stop offset="0.125" style="stop-color:rgb(76, 56, 106);stop-opacity:1"/>
      <stop offset="0.5" style="stop-color:rgb(201, 173, 221);stop-opacity:1"/>
      <stop offset="0.875" style="stop-color:rgb(76, 56, 106);stop-opacity:1"/>
      <stop offset="1" style="stop-color:rgb(76, 56, 106);stop-opacity:1"/>
    </linearGradient>
    <linearGradient id="uncommon" x1="0" y1="1" x2="1" y2="0">
      <stop offset="0" style="stop-color:rgb(98,110,119);stop-opacity:1"/>
      <stop offset="0.125" style="stop-color:rgb(98,110,119);stop-opacity:1"/>
      <stop offset="0.5" style="stop-color:rgb(196,222,238);stop-opacity:1"/>
      <stop offset="0.875" style="stop-color:rgb(98,110,119);stop-opacity:1"/>
      <stop offset="1" style="stop-color:rgb(98,110,119);stop-opacity:1"/>
    </linearGradient>
    <linearGradient id="common" x1="0" y1="1" x2="1" y2="0">
      <stop offset="0" style="stop-color:rgb(0,0,0);stop-opacity:1"/>
    </linearGradient>
    <linearGradient
            id="rarity-outline" x1="0" y1="1" x2="0" y2="1">
      <stop offset="0" style="stop-color:rgb(0,0,0);stop-opacity:1"/>
    </linearGradient>
  </defs>
  <path fill="url(#rarity-outline)" d="M 16.766154,0.00353205 C 13.155164,0.05782494 9.7940146,0.74283323 6.8130293,2.9957196 L 6.5142012,3.222282 v 0.375 c 0.0061,1.7004277 0.013667,3.4002331 0.021484,5.0996094 -1.2911498,0.00586 -2.5822206,0.011713 -3.875,0.017578 l -0.3710937,0.00195 -0.2246094,0.296875 C 1.1078965,10.283743 0.32764829,11.797999 0.08256029,13.396107 c -0.42182965,2.746928 0.80581445,5.470955 2.92773431,7.244141 2.8756714,2.403497 7.1966854,3.004642 11.0429684,2.947266 3.611814,-0.05226 6.972606,-0.742976 9.953125,-2.990235 l 0.298829,-0.226562 -0.002,-0.375 c -0.0061,-1.702257 -0.01171,-3.401608 -0.01953,-5.101563 1.291149,-0.0047 2.582224,-0.01004 3.875,-0.01758 l 0.371094,-0.002 0.222656,-0.296875 c 0.95744,-1.269743 1.739295,-2.784757 1.984375,-4.382813 C 31.158687,7.4480107 29.92909,4.7259369 27.80717,2.9527508 24.931498,0.54925348 20.612292,-0.05281786 16.766154,0.00353205 Z" />
  <path fill="url(#rarity)" d="m 24.328891,11.741878 c -0.261,0.146 -0.529,0.268 -0.808,0.377 -0.005,-1.224 -0.012,-2.4439997 -0.016,-3.6659997 -0.698,-0.502 -1.444,-0.938 -2.227,-1.294 -0.963,-0.439 -1.982,-0.758 -3.02,-0.956 l 0.014,3.193 c -3.271,0.014 -6.542,0.028 -9.8129993,0.041 0.002,-0.566 0.145,-1.134 0.418,-1.591 0.79,-1.317 2.6639993,-1.71 4.4009993,-1.954 3.058,-0.43 5.687,-0.409 8.501,-0.083 0.901,0.104 1.82,0.241 2.633,0.649 1.063,0.533 1.945,1.532 1.979,2.52 0.04,1.0689997 -0.917,2.1249997 -2.063,2.7649997 z m -15.4289993,-0.693 c 1.1640003,-0.199 2.3889993,-0.22 3.5619993,-0.261 1.994,-0.072 3.835,-0.201 5.937,0.118 1.328,0.201 2.758,0.582 3.454,1.539 0.025,0.033 0.046,0.064 0.067,0.097 -1.164,0.199 -2.389,0.219 -3.562,0.261 -1.994,0.072 -3.835,0.203 -5.937,-0.118 -1.328,-0.201 -2.7579993,-0.584 -3.4549993,-1.538 -0.024,-0.033 -0.044,-0.065 -0.065,-0.097 z m 13.0429993,4.696 c -0.79,1.319 -2.666,1.71 -4.401,1.954 -3.058,0.432 -5.687,0.409 -8.5009993,0.083 -0.901,-0.103 -1.82,-0.24 -2.633,-0.649 -1.063,-0.534 -1.945,-1.534 -1.979,-2.52 -0.04,-1.07 0.917,-2.123 2.063,-2.765 0.261,-0.146 0.529,-0.268 0.808,-0.374 l 0.016,3.664 c 0.698,0.501 1.444,0.936 2.227,1.293 0.9630003,0.439 1.9819993,0.758 3.0199993,0.959 l -0.014,-3.195 c 3.271,-0.014 6.542,-0.028 9.813,-0.044 -0.002,0.568 -0.145,1.138 -0.418,1.594 z m 5.384,-12.2169997 c -2.631,-2.199 -6.796,-2.83000001 -10.55,-2.77500001 -3.525,0.053 -6.686999,0.70700001 -9.5119993,2.84200001 0.007,1.95 0.016,3.9 0.025,5.849 -1.541,0.007 -3.082,0.014 -4.625,0.021 -0.901,1.1959997 -1.6219999,2.6169997 -1.84099991,4.0449997 -0.377,2.455 0.72700001,4.932 2.66799991,6.554 2.631,2.199 6.7960003,2.83 10.5499993,2.774 3.525,-0.051 6.687,-0.709 9.512,-2.839 -0.007,-1.952 -0.016,-3.901 -0.025,-5.851 1.541,-0.005 3.082,-0.012 4.625,-0.021 0.901,-1.195 1.622,-2.617 1.841,-4.045 0.377,-2.4549997 -0.727,-4.9319997 -2.668,-6.5539997 z"/>
</svg>
