<?xml version="1.0" encoding="UTF-8" standalone="no"?>
<!-- Generated by IcoMoon.io -->

<svg
   version="1.1"
   width="31.957479"
   height="22.455999"
   viewBox="0 0 31.957479 22.455999"
   id="svg6"
   sodipodi:docname="pleaf.svg"
   inkscape:version="1.1.1 (3bf5ae0d25, 2021-09-20)"
   xmlns:inkscape="http://www.inkscape.org/namespaces/inkscape"
   xmlns:sodipodi="http://sodipodi.sourceforge.net/DTD/sodipodi-0.dtd"
   xmlns="http://www.w3.org/2000/svg"
   xmlns:svg="http://www.w3.org/2000/svg">
  <defs
     id="defs10" />
  <sodipodi:namedview
     id="namedview8"
     pagecolor="#ffffff"
     bordercolor="#666666"
     borderopacity="1.0"
     inkscape:pageshadow="2"
     inkscape:pageopacity="0.0"
     inkscape:pagecheckerboard="0"
     showgrid="false"
     inkscape:zoom="25.75"
     inkscape:cx="15.941748"
     inkscape:cy="11.864078"
     inkscape:window-width="1920"
     inkscape:window-height="1009"
     inkscape:window-x="-8"
     inkscape:window-y="-8"
     inkscape:window-maximized="1"
     inkscape:current-layer="svg6" />
  <title
     id="title2">pleaf</title>
  <path
     fill="#000000"
     d="m 11.292,10.569 c -0.492,2.024 -0.652,3.58 -0.652,3.58 -0.137,1.066 -0.137,1.92 -0.137,1.92 5.595,-2.956 14.302,-9.895 14.302,-9.895 -5.554,3.003 -8.815,2.634 -10.013,2.48 -1.181,-0.151 -1.693,0.028 -1.8,0.069 0,0 -1.397,0.608 -1.699,1.845 z M 6.758,22.455 C 6.386,21.24 5.121,20.924 3.326,21.559 1.532,22.192 0,21.137 0,21.137 c 0,0 6.332,-0.53 17.627,-7.916 C 28.922,5.831 31.956,0 31.956,0 c 0.079,3.773 -3.034,8.048 -3.034,8.048 -1.478,0 -3.219,1.002 -3.219,1.002 0.896,0.317 2.796,0.53 2.796,0.53 -5.962,8.708 -10.66,6.438 -10.66,6.438 0.423,1.688 2.48,2.956 2.48,2.956 -2.853,3.589 -7.494,0.79 -8.179,0.263 -0.686,-0.529 -2.799,0.476 -2.799,0.476 -1.358,0.574 -2.004,1.182 -2.34,1.66 -0.291,0.411 -0.244,1.083 -0.244,1.083 z"
     id="path4" />
</svg>
