<?xml version="1.0" encoding="UTF-8" standalone="no"?>
<svg
   version="1.1"
   width="33.962894"
   height="19.709015"
   viewBox="0 0 33.962895 19.709015"
   id="svg4"
   xmlns="http://www.w3.org/2000/svg"
   xmlns:svg="http://www.w3.org/2000/svg">
  <defs>
    <!-- This is the gradient that will actually be used on
     the cards. The colors themselves will be provided by the
     template, but the x values, y values, and offsets will be
     used from the SVG. -->
    <linearGradient id="rarity" x1="0" y1="0" x2="1" y2="0">
      <stop offset="0" style="stop-color:rgb(192,55,38);stop-opacity:1" id="stop2" />
      <stop offset="0.125" style="stop-color:rgb(192,55,38);stop-opacity:1" id="stop4" />
      <stop offset="0.5" style="stop-color:rgb(241,142,30);stop-opacity:1" id="stop6" />
      <stop offset="0.875" style="stop-color:rgb(192,55,38);stop-opacity:1" id="stop8" />
      <stop offset="1" style="stop-color:rgb(192,55,38);stop-opacity:1" id="stop10" />
    </linearGradient>
    <!-- These gradients are here so that you can visualize
     what the set symbol would like like in that rarity. The
     only gradient that matters in the end is the "rarity"
     gradient. -->
    <linearGradient id="mythic" x1="0" y1="1" x2="1" y2="0">
      <stop offset="0" style="stop-color:rgb(192,55,38);stop-opacity:1"/>
      <stop offset="0.125" style="stop-color:rgb(192,55,38);stop-opacity:1"/>
      <stop offset="0.5" style="stop-color:rgb(241,142,30);stop-opacity:1"/>
      <stop offset="0.875" style="stop-color:rgb(192,55,38);stop-opacity:1"/>
      <stop offset="1" style="stop-color:rgb(192,55,38);stop-opacity:1"/>
    </linearGradient>
    <linearGradient id="rare" x1="0" y1="1" x2="1" y2="0">
      <stop offset="0" style="stop-color:rgb(146,116,67);stop-opacity:1"/>
      <stop offset="0.125" style="stop-color:rgb(146,116,67);stop-opacity:1"/>
      <stop offset="0.5" style="stop-color:rgb(211,178,108);stop-opacity:1"/>
      <stop offset="0.875" style="stop-color:rgb(146,116,67);stop-opacity:1"/>
      <stop offset="1" style="stop-color:rgb(146,116,67);stop-opacity:1"/>
    </linearGradient>
    <linearGradient id="special" x1="0" y1="1" x2="1" y2="0">
      <stop offset="0" style="stop-color:rgb(76, 56, 106);stop-opacity:1"/>
      <stop offset="0.125" style="stop-color:rgb(76, 56, 106);stop-opacity:1"/>
      <stop offset="0.5" style="stop-color:rgb(201, 173, 221);stop-opacity:1"/>
      <stop offset="0.875" style="stop-color:rgb(76, 56, 106);stop-opacity:1"/>
      <stop offset="1" style="stop-color:rgb(76, 56, 106);stop-opacity:1"/>
    </linearGradient>
    <linearGradient id="uncommon" x1="0" y1="1" x2="1" y2="0">
      <stop offset="0" style="stop-color:rgb(98,110,119);stop-opacity:1"/>
      <stop offset="0.125" style="stop-color:rgb(98,110,119);stop-opacity:1"/>
      <stop offset="0.5" style="stop-color:rgb(196,222,238);stop-opacity:1"/>
      <stop offset="0.875" style="stop-color:rgb(98,110,119);stop-opacity:1"/>
      <stop offset="1" style="stop-color:rgb(98,110,119);stop-opacity:1"/>
    </linearGradient>
    <linearGradient id="common" x1="0" y1="1" x2="1" y2="0">
      <stop offset="0" style="stop-color:rgb(0,0,0);stop-opacity:1"/>
    </linearGradient>
    <linearGradient
            id="rarity-outline" x1="0" y1="1" x2="0" y2="1">
      <stop offset="0" style="stop-color:rgb(0,0,0);stop-opacity:1"/>
    </linearGradient>
  </defs>
  <path fill="url(#rarity-outline)" d="M 16.804688,0 C 13.25497,0 10.884698,0.4892902 9.3710938,1.0058594 8.6142913,1.2641439 8.0725054,1.5295406 7.7070312,1.7421875 7.3415572,1.9548344 7.1035156,2.1582031 7.1035156,2.1582031 6.8031429,2.4567165 6.7233418,2.9120521 6.9042969,3.2949219 6.862464,3.3062612 6.8249808,3.3047973 6.7832031,3.3164062 5.1116975,3.7808741 3.4734684,4.458008 2.1894531,5.5390625 0.90543791,6.620117 0,8.1817852 0,10.099609 c 0,1.888931 0.85628895,3.511593 2.1191406,4.75586 1.2628517,1.244266 2.9231151,2.165858 4.7109375,2.875 3.5756449,1.418283 7.6670499,1.978515 10.3105469,1.978515 0.0052,4.1e-5 0.01042,4.1e-5 0.01563,0 5.467114,-0.08386 10.888641,-1.851006 15.001953,-5.625 0.463212,-0.45744 0.372841,-1.228476 -0.183594,-1.566406 1.103631,-0.82709 1.988282,-1.969325 1.988282,-3.4746092 0,-1.6142933 -0.729184,-3.0494268 -1.835938,-4.1875 C 31.020194,3.7173954 29.538896,2.8275317 27.867188,2.1171875 24.523772,0.69649902 20.394264,0 16.804688,0 Z" />
  <path fill="url(#rarity)" d="m 31.482,13.348 c 0,0 -5.715,1.623 -10.724,1.623 -5.011,0 -13.549,-2.541 -13.549,-6.491 0,-3.954 7.975,-3.53 7.975,-3.53 0,0 4.308,0.123 4.934,2.111 0.701,2.228 -1.548,2.969 -1.548,2.969 0,0 5.646,0.071 5.646,-2.892 C 24.216,4.174 17.3,3.326 14.9,3.326 12.5,3.326 1,3.61 1,10.1 c 0,6.393 11.15,8.609 16.141,8.609 9.207,0 14.342,-5.362 14.342,-5.362 z M 16.714,2.26 C 16.557,2.254 16.399,2.252 16.24,2.252 c -5.998,0 -8.469,0.651 -8.469,0.651 0,0 2.118,-1.903 9.034,-1.903 6.914,0 16.157,2.75 16.157,8.043 0,5.293 -12.279,4.939 -12.279,4.939 0,0 -6.326,-0.372 -9.439,-2.258 -4.887,-2.967 0.15,-5.239 0.15,-5.239 1.678,-0.783 3.927,-0.476 3.927,-0.476 0,0 -2.47,1.129 -2.47,2.61 0,1.481 4.73,2.259 7.553,2.259 2.777,0 6.495,-0.907 6.771,-2.6 0.826,-5.087 -10.461,-6.02 -10.461,-6.02 z"/>
</svg>
