<?xml version="1.0" encoding="UTF-8" standalone="no"?>
<!-- Generated by IcoMoon.io -->

<svg
   version="1.1"
   width="32.001522"
   height="24.573135"
   viewBox="0 0 32.001522 24.573135"
   id="svg6"
   sodipodi:docname="pmodo.svg"
   inkscape:version="1.1.1 (3bf5ae0d25, 2021-09-20)"
   xmlns:inkscape="http://www.inkscape.org/namespaces/inkscape"
   xmlns:sodipodi="http://sodipodi.sourceforge.net/DTD/sodipodi-0.dtd"
   xmlns="http://www.w3.org/2000/svg"
   xmlns:svg="http://www.w3.org/2000/svg">
  <defs
     id="defs10" />
  <sodipodi:namedview
     id="namedview8"
     pagecolor="#ffffff"
     bordercolor="#666666"
     borderopacity="1.0"
     inkscape:pageshadow="2"
     inkscape:pageopacity="0.0"
     inkscape:pagecheckerboard="0"
     showgrid="false"
     inkscape:zoom="25.75"
     inkscape:cx="15.980583"
     inkscape:cy="12.252427"
     inkscape:window-width="1920"
     inkscape:window-height="1009"
     inkscape:window-x="-8"
     inkscape:window-y="-8"
     inkscape:window-maximized="1"
     inkscape:current-layer="svg6" />
  <title
     id="title2">pmodo</title>
  <path
     fill="#000000"
     d="M 17.816,3.9805267e-4 C 21.045,-0.01860195 24.379,0.64039805 27.104,2.4473981 c 1.038,0.681 1.94,1.553 2.719,2.517 2.266,3.091 2.64,6.8829999 1.693,10.5449999 l -0.217,0.7 c -0.894,2.615 -2.764,4.862 -5.138,6.269 -3.125,1.864 -6.91,2.358 -10.484,1.973 -2.962,-0.292 -5.889,-1.383 -8.142,-3.361 -1.726,-1.569 -3.059,-3.633 -3.586,-5.912 -0.043,-0.18 -0.083,-0.36 -0.12,-0.539 -0.079,-0.397 -0.129,-0.799 -0.183,-1.198 -0.618,0.02 -1.236,0.044 -1.854,0.087 -0.292,0.022 -0.644,0.096 -0.782,0.388 -0.172,0.325 -0.271,0.681 -0.392,1.026 -0.143,-0.106 -0.283,-0.213 -0.423,-0.322 -0.048,-0.04 -0.147,-0.121 -0.195,-0.162 0.032,-1.718 -0.011,-3.438 0.016,-5.1569999 0.199,-0.101 0.478,-0.512 0.677,-0.316 0.129,0.338 0.198,0.714 0.429,1.005 0.16,0.2139999 0.45,0.2279999 0.689,0.2879999 0.664,0.039 1.33,0.069 1.995,0.063 C 4.336,7.2893981 6.104,4.4723981 8.625,2.6693981 11.268,0.75239805 14.591,0.00339805 17.815,3.9805267e-4 Z M 18.147,1.5103981 c -2.243,-0.035 -4.276,0.58 -6.084,1.91 -1.442,1.118 -2.424,2.756 -2.894,4.505 -0.244,0.863 -0.35,1.754 -0.436,2.6439999 l 1.178,0.039 c 1.846,0.082 3.691,0.194 5.538,0.246 0.253,-0.632 0.65,-1.2599999 1.311,-1.5199999 1.052,-0.495 2.416,-0.21 3.101,0.7529999 0.614,1.037 0.687,2.391 0.209,3.493 -0.615,1.333 -2.447,1.699 -3.652,0.964 -0.132,-0.136 -0.268,-0.267 -0.396,-0.405 -0.271,-0.351 -0.427,-0.77 -0.58,-1.181 -2.226,0.113 -4.455,0.163 -6.68,0.285 l 0.082,0.628 0.068,0.631 c 0.389,2.297 1.162,4.666 2.896,6.31 0.54,0.57 1.208,1.004 1.913,1.341 3.735,1.742 8.636,0.793 11.266,-2.437 1.451,-1.785 2.037,-4.109 2.152,-6.366 -0.039,-0.54 -0.015,-1.08 -0.007,-1.62 -0.054,-0.626 -0.147,-1.25 -0.198,-1.8769999 -0.323,-1.874 -0.99,-3.742 -2.207,-5.228 -1.231,-1.602 -3.109,-2.649 -5.091,-2.974 -0.823,-0.117 -0.327,-0.059 -1.49,-0.14 z"
     id="path4" />
</svg>
