<?xml version="1.0" encoding="UTF-8" standalone="no"?>
<!-- Generated by IcoMoon.io -->

<svg
   version="1.1"
   width="27.468"
   height="27.414"
   viewBox="0 0 27.468 27.414"
   id="svg6"
   sodipodi:docname="pmtg2.svg"
   inkscape:version="1.1.1 (3bf5ae0d25, 2021-09-20)"
   xmlns:inkscape="http://www.inkscape.org/namespaces/inkscape"
   xmlns:sodipodi="http://sodipodi.sourceforge.net/DTD/sodipodi-0.dtd"
   xmlns="http://www.w3.org/2000/svg"
   xmlns:svg="http://www.w3.org/2000/svg">
  <defs
     id="defs10" />
  <sodipodi:namedview
     id="namedview8"
     pagecolor="#ffffff"
     bordercolor="#666666"
     borderopacity="1.0"
     inkscape:pageshadow="2"
     inkscape:pageopacity="0.0"
     inkscape:pagecheckerboard="0"
     showgrid="false"
     inkscape:zoom="25.75"
     inkscape:cx="14"
     inkscape:cy="13.68932"
     inkscape:window-width="1920"
     inkscape:window-height="1009"
     inkscape:window-x="-8"
     inkscape:window-y="-8"
     inkscape:window-maximized="1"
     inkscape:current-layer="svg6" />
  <title
     id="title2">pmtg2</title>
  <path
     fill="#000000"
     d="M 27.26,19.911 C 26.914,19.537 26.544,19.266 26.189,19.003 25.626,18.586 25.143,18.229 24.935,17.595 24.097,14.181 22.479,10.531 21.24,8.238 21.137,7.782 21.106,7.297 21.081,6.827 21.078,6.815 21.05,6.366 21.047,6.319 c 0.003,-0.043 0.015,-0.23 0.015,-0.233 0,-0.424 -0.119,-0.715 -0.35,-0.896 -0.389,-0.307 -0.881,-0.12 -1.04,-0.059 -0.253,0.093 -0.544,0.05 -0.881,0 0.014,0 -1.697,-0.201 -1.697,-0.201 0.002,0 -1.009,-0.087 -1.009,-0.087 -0.424,0 -0.734,0.374 -0.839,0.724 -0.008,0.024 -0.014,0.047 -0.017,0.07 l -0.025,0.167 c -0.006,0.026 -0.006,0.052 -0.006,0.079 0.003,0.269 0.122,0.505 0.333,0.651 l 0.418,0.286 c -0.003,-0.003 0.563,0.395 0.725,0.505 0.216,0.28 0.316,0.523 0.316,0.8 v 0.012 c -0.051,0.076 -0.131,0.207 -0.131,0.207 -0.301,0.479 -0.582,0.929 -0.921,1.279 -0.015,0.018 -0.122,0.141 -0.122,0.141 -0.094,0.099 -0.25,0.265 -0.296,0.561 -0.005,0.023 -0.008,0.049 -0.008,0.073 0,0.275 0.139,0.532 0.346,0.786 -0.233,-0.245 -0.503,-0.438 -0.753,-0.499 -0.307,-0.073 -0.6,0.023 -0.782,0.26 -0.031,0.041 -0.068,0.108 -0.085,0.155 -0.097,0.28 -0.182,0.449 -0.245,0.561 -0.006,-0.003 -0.015,-0.003 -0.02,-0.006 C 13.786,11.316 13.087,10.069 13.087,10.069 11.274,6.769 10.386,5.323 9.531,5.352 8.152,5.516 7.169,5.442 5.71,5.3 5.679,5.297 5.631,5.297 5.599,5.3 5.087,5.358 4.496,6.077 4.496,6.501 v 0.072 c 0,0.234 0.167,0.435 0.395,0.467 l 0.071,0.009 c 1.063,0.149 1.151,0.526 1.151,0.964 0,0 -0.006,0.099 -0.012,0.161 -0.276,1.083 -0.571,1.676 -0.85,2.149 -0.043,0.073 -0.076,0.198 -0.076,0.283 0,0.356 0.293,0.642 0.619,0.844 C 5.712,11.432 5.624,11.403 5.549,11.4 5.072,11.377 4.87,11.666 4.805,11.789 4.791,11.815 4.771,11.868 4.762,11.894 4.191,13.731 3.534,15.598 2.698,17.758 2.664,17.816 2.525,18.041 2.525,18.041 1.968,18.97 1.445,19.843 0.404,20.328 0.33,20.363 0.236,20.442 0.188,20.509 0.066,20.687 0,20.894 0,21.113 c 0,0.222 0.068,0.438 0.194,0.608 0.222,0.298 0.583,0.409 0.918,0.28 0.045,-0.015 0.105,-0.049 0.142,-0.079 1.043,-0.826 2.399,-1.124 4.147,-0.908 0.034,0.003 0.088,0.005 0.119,0.003 C 5.918,20.979 6.211,20.643 6.245,20.181 6.248,20.176 6.251,20.1 6.251,20.1 6.251,19.618 5.99,19.236 5.6,19.136 5.577,19.13 5.554,19.124 5.529,19.121 5.35,19.104 5.299,19.051 5.256,18.978 5.247,18.879 5.202,18.307 5.202,18.307 c 0,-1.408 0.594,-3.143 1.816,-5.298 0.028,-0.044 0.028,-0.032 0.039,-0.082 l 0.06,-0.33 c 0.002,-0.018 0.002,-0.026 0.002,-0.032 0,-0.009 -0.002,-0.009 -0.008,-0.044 L 7.099,12.454 C 7.093,12.42 7.082,12.381 7.068,12.349 6.977,12.121 6.753,11.914 6.494,11.747 6.92,11.829 7.296,11.718 7.523,11.44 l 0.173,-0.257 0.122,-0.21 0.08,-0.126 0.111,-0.213 c 0.012,-0.015 0.023,-0.044 0.028,-0.061 0,0 0.074,-0.193 0.079,-0.202 0.071,0.029 0.14,0.055 0.14,0.055 2.206,1.078 4.241,8.729 4.452,11.136 v 0.006 c 0,0.409 0.231,0.797 0.583,0.946 0,0 0.466,0.032 0.466,0.032 0.097,0.009 0.06,-0.005 0.143,-0.061 l 0.176,-0.12 0.634,-0.572 1.763,-1.665 c 0.435,-0.319 0.534,-0.783 0.586,-1.031 0.008,-0.035 0.014,-0.087 0.014,-0.135 0,-0.048 -0.006,-0.093 -0.011,-0.126 l -0.006,-0.017 c -0.003,-0.023 -0.012,-0.038 -0.017,-0.058 -0.27,-0.701 -0.574,-1.457 -0.977,-2.24 -0.199,-0.409 -0.299,-0.803 -0.299,-1.192 0,-0.455 0.125,-0.873 0.271,-1.358 0.153,-0.517 0.312,-1.049 0.361,-1.708 0,-0.009 0,-0.021 0,-0.035 0,-0.041 -0.003,-0.09 -0.009,-0.126 -0.06,-0.266 -0.219,-0.544 -0.421,-0.789 0.042,0.044 0.06,0.09 0.111,0.132 0.006,0.006 0.071,0.067 0.071,0.067 0.006,0.003 0.474,0.304 0.474,0.304 0.071,0.023 0.358,0.102 0.6,0.032 0,0 0.003,-0.003 0.003,-0.003 0,0 0,0.003 -0.003,0.003 0.06,-0.018 0.111,-0.047 0.162,-0.084 0.057,-0.041 0.114,-0.088 0.167,-0.135 0.108,0.017 0.247,0.07 0.401,0.336 0.953,1.577 1.74,3.393 2.343,5.403 0.097,0.484 0.145,0.844 0.145,1.121 0,0.382 -0.091,0.529 -0.162,0.607 l -0.159,0.141 c -0.316,0.289 -0.64,0.584 -0.913,0.748 -0.105,0.064 -0.213,0.184 -0.242,0.306 l -0.009,0.035 c 0,-0.006 -0.06,0.4 -0.06,0.4 l 0.185,0.561 c 0.179,0.222 0.455,0.321 0.816,0.295 0.091,-0.008 0.222,-0.061 0.295,-0.12 0.307,-0.251 0.717,-0.449 1.257,-0.61 1.017,-0.187 1.902,-0.17 2.701,-0.12 0.588,0.09 1.316,0.221 2.015,0.546 0.017,0.009 0.037,0.018 0.06,0.023 0.426,0.129 0.839,0.018 1.075,-0.292 0.003,0 0.17,-0.511 0.17,-0.511 l -0.127,-0.482 c -0.023,-0.076 -0.026,-0.05 -0.08,-0.105 z M 1.94,17.662 c 0,0 0.094,-0.152 0.137,-0.225 0.239,-0.622 0.461,-1.212 0.674,-1.79 -0.108,-0.631 -0.174,-1.276 -0.174,-1.939 0,-2.263 0.651,-4.372 1.76,-6.15 C 4.016,7.347 3.806,6.979 3.806,6.57 V 6.497 c 0,-0.812 0.895,-1.808 1.711,-1.904 0,0 0.253,-0.003 0.256,-0.003 0.401,0.04 0.759,0.072 1.1,0.099 1.893,-1.524 4.273,-2.445 6.862,-2.445 2.371,0 4.569,0.771 6.379,2.073 0.464,-0.023 0.799,0.138 1.017,0.307 0.234,0.187 0.504,0.52 0.586,1.095 1.961,2.064 3.172,4.88 3.172,7.987 0,0.371 -0.02,0.739 -0.054,1.101 0.287,0.849 0.543,1.714 0.753,2.564 0.108,0.324 0.35,0.555 0.736,0.853 0.483,-1.416 0.75,-2.935 0.75,-4.518 C 27.074,6.148 21.088,0 13.733,0 6.378,0 0.392,6.148 0.392,13.706 c 0,1.746 0.325,3.411 0.904,4.95 0.225,-0.301 0.426,-0.636 0.643,-0.996 z m 22.133,3.774 c 0.191,0.032 0.392,0.067 0.595,0.111 -2.414,3.543 -6.413,5.867 -10.933,5.867 -4.401,0 -8.309,-2.202 -10.74,-5.587 0.666,-0.184 1.433,-0.221 2.326,-0.114 -0.006,0 0.264,0.006 0.264,0.006 0.054,-0.006 0.106,-0.02 0.156,-0.032 2.03,2.146 4.861,3.484 7.993,3.484 3.218,0 6.115,-1.419 8.153,-3.668 0.805,-0.114 1.527,-0.105 2.186,-0.067 z"
     id="path4" />
</svg>
