<?xml version="1.0" encoding="UTF-8" standalone="no"?>
<!-- Generated by IcoMoon.io -->

<svg
   version="1.1"
   width="26.681"
   height="26.688"
   viewBox="0 0 26.681 26.688"
   id="svg6"
   sodipodi:docname="por.svg"
   inkscape:version="1.1.1 (3bf5ae0d25, 2021-09-20)"
   xmlns:inkscape="http://www.inkscape.org/namespaces/inkscape"
   xmlns:sodipodi="http://sodipodi.sourceforge.net/DTD/sodipodi-0.dtd"
   xmlns="http://www.w3.org/2000/svg"
   xmlns:svg="http://www.w3.org/2000/svg">
  <defs
     id="defs10" />
  <sodipodi:namedview
     id="namedview8"
     pagecolor="#ffffff"
     bordercolor="#666666"
     borderopacity="1.0"
     inkscape:pageshadow="2"
     inkscape:pageopacity="0.0"
     inkscape:pagecheckerboard="0"
     showgrid="false"
     inkscape:zoom="25.75"
     inkscape:cx="13.495146"
     inkscape:cy="13.339806"
     inkscape:window-width="1920"
     inkscape:window-height="1009"
     inkscape:window-x="-8"
     inkscape:window-y="-8"
     inkscape:window-maximized="1"
     inkscape:current-layer="svg6" />
  <title
     id="title2">por</title>
  <path
     fill="#000000"
     d="m 6.78,11.753 c -0.061,0.357 -0.089,0.724 -0.089,1.095 0,0.712 0.11,1.405 0.323,2.062 l 1.435,-0.576 c -0.176,-0.516 -0.274,-1.07 -0.274,-1.649 0,-0.187 0.012,-0.372 0.032,-0.554 z M 8.24,8.584 C 7.629,9.316 7.171,10.181 6.917,11.13 l 1.39,0.41 C 8.483,10.779 8.829,10.081 9.304,9.493 Z M 9.675,9.083 C 10.361,8.4 11.24,7.912 12.226,7.708 L 11.672,6.41 C 10.522,6.707 9.493,7.307 8.671,8.117 L 9.674,9.083 Z M 7.239,15.51 c 0.329,0.752 0.799,1.445 1.399,2.042 0.404,0.403 0.85,0.749 1.329,1.035 l 0.816,-1.465 C 9.846,16.6 9.094,15.79 8.641,14.813 l -1.402,0.698 z m 3.342,3.396 c 0.856,0.39 1.79,0.594 2.759,0.594 0.121,0 0.242,-0.003 0.363,-0.009 l -0.219,-1.729 c -0.075,0.003 -0.15,0.003 -0.227,0.003 -0.669,0 -1.309,-0.13 -1.895,-0.366 z m 3.71,0.528 c 1.292,-0.185 2.494,-0.741 3.477,-1.62 l -1.225,-1.251 c -0.697,0.59 -1.557,0.994 -2.5,1.144 z m 3.875,-2.007 c 0.802,-0.842 1.355,-1.86 1.629,-2.964 l -1.692,-0.248 c -0.242,0.776 -0.669,1.47 -1.225,2.036 l 1.289,1.177 z m 1.736,-3.483 c 0.058,-0.358 0.089,-0.724 0.089,-1.096 0,-0.96 -0.205,-1.874 -0.574,-2.702 l -1.369,0.842 c 0.187,0.531 0.291,1.101 0.291,1.695 0,0.38 -0.043,0.749 -0.121,1.107 l 1.684,0.153 z M 19.111,9.55 C 18.468,8.422 17.503,7.505 16.34,6.914 l -0.709,1.278 c 0.952,0.502 1.722,1.298 2.194,2.263 z M 15.847,6.69 C 15.072,6.373 14.227,6.2 13.339,6.2 c -0.363,0 -0.723,0.029 -1.072,0.086 l 0.504,1.34 c 0.162,-0.014 0.323,-0.023 0.485,-0.023 0.703,0 1.372,0.141 1.98,0.401 L 15.847,6.689 Z M 1.398,10.331 c -0.159,0.788 -0.242,1.6 -0.242,2.437 0,1.459 0.251,2.88 0.738,4.212 l 4.405,-1.788 c -0.231,-0.72 -0.355,-1.482 -0.355,-2.26 0,-0.464 0.046,-0.92 0.13,-1.364 z M 4.013,4.902 C 2.898,6.234 2.059,7.808 1.589,9.529 l 4.639,1.39 C 6.528,9.875 7.052,8.93 7.748,8.134 L 4.014,4.902 Z M 8.185,7.673 C 9.084,6.805 10.206,6.165 11.451,5.845 L 9.485,1.148 C 7.603,1.785 5.928,2.869 4.578,4.273 Z M 2.278,17.909 c 0.599,1.298 1.43,2.494 2.47,3.535 0.77,0.77 1.621,1.425 2.54,1.952 L 9.594,19.265 C 9.049,18.948 8.544,18.562 8.086,18.103 7.422,17.439 6.904,16.67 6.54,15.83 l -4.264,2.079 z m 5.751,5.885 c 1.658,0.813 3.494,1.242 5.394,1.242 0.314,0 0.629,-0.011 0.94,-0.035 l -0.577,-4.774 c -0.176,0.011 -0.351,0.017 -0.53,0.017 -1.064,0 -2.096,-0.228 -3.036,-0.658 l -2.191,4.207 z m 7.038,1.136 c 2.473,-0.332 4.774,-1.405 6.637,-3.108 l -3.483,-3.521 c -1.075,0.998 -2.405,1.638 -3.837,1.857 z M 22.3,21.233 c 1.591,-1.667 2.661,-3.702 3.125,-5.911 l -5.036,-0.773 c -0.277,1.24 -0.877,2.385 -1.753,3.336 l 3.664,3.347 z m 3.275,-6.761 c 0.075,-0.559 0.115,-1.131 0.115,-1.704 0,-2.047 -0.504,-3.979 -1.392,-5.674 l -4.402,2.773 c 0.432,0.932 0.672,1.969 0.672,3.065 0,0.36 -0.026,0.717 -0.075,1.067 l 5.083,0.473 z M 23.837,6.289 C 22.689,4.45 21.066,2.933 19.143,1.915 l -2.526,4.524 c 1.226,0.637 2.252,1.611 2.95,2.803 L 23.837,6.29 Z M 18.276,1.499 C 16.788,0.853 15.147,0.496 13.423,0.496 c -1.095,0 -2.157,0.144 -3.165,0.416 l 1.813,4.803 c 0.387,-0.063 0.782,-0.095 1.185,-0.095 1.003,0 1.96,0.205 2.831,0.571 L 18.275,1.499 Z M 13.339,0 c 3.557,0 6.907,1.393 9.43,3.916 2.523,2.523 3.912,5.87 3.912,9.428 0,3.564 -1.387,6.917 -3.909,9.437 -2.517,2.521 -5.87,3.907 -9.433,3.907 -3.563,0 -6.913,-1.386 -9.433,-3.907 C 1.386,20.258 0,16.908 0,13.344 0,5.986 5.982,0 13.34,0 Z"
     id="path4" />
</svg>
