<?xml version="1.0" encoding="UTF-8" standalone="no"?>
<svg
   version="1.1"
   width="33.504631"
   height="26.073425"
   viewBox="0 0 33.504631 26.073425"
   id="svg4"
   xmlns="http://www.w3.org/2000/svg"
   xmlns:svg="http://www.w3.org/2000/svg">
  <defs>
    <!-- This is the gradient that will actually be used on
     the cards. The colors themselves will be provided by the
     template, but the x values, y values, and offsets will be
     used from the SVG. -->
    <linearGradient id="rarity" x1="0" y1="0" x2="1" y2="0">
      <stop offset="0" style="stop-color:rgb(192,55,38);stop-opacity:1" id="stop2" />
      <stop offset="0.125" style="stop-color:rgb(192,55,38);stop-opacity:1" id="stop4" />
      <stop offset="0.5" style="stop-color:rgb(241,142,30);stop-opacity:1" id="stop6" />
      <stop offset="0.875" style="stop-color:rgb(192,55,38);stop-opacity:1" id="stop8" />
      <stop offset="1" style="stop-color:rgb(192,55,38);stop-opacity:1" id="stop10" />
    </linearGradient>
    <!-- These gradients are here so that you can visualize
     what the set symbol would like like in that rarity. The
     only gradient that matters in the end is the "rarity"
     gradient. -->
    <linearGradient id="mythic" x1="0" y1="1" x2="1" y2="0">
      <stop offset="0" style="stop-color:rgb(192,55,38);stop-opacity:1"/>
      <stop offset="0.125" style="stop-color:rgb(192,55,38);stop-opacity:1"/>
      <stop offset="0.5" style="stop-color:rgb(241,142,30);stop-opacity:1"/>
      <stop offset="0.875" style="stop-color:rgb(192,55,38);stop-opacity:1"/>
      <stop offset="1" style="stop-color:rgb(192,55,38);stop-opacity:1"/>
    </linearGradient>
    <linearGradient id="rare" x1="0" y1="1" x2="1" y2="0">
      <stop offset="0" style="stop-color:rgb(146,116,67);stop-opacity:1"/>
      <stop offset="0.125" style="stop-color:rgb(146,116,67);stop-opacity:1"/>
      <stop offset="0.5" style="stop-color:rgb(211,178,108);stop-opacity:1"/>
      <stop offset="0.875" style="stop-color:rgb(146,116,67);stop-opacity:1"/>
      <stop offset="1" style="stop-color:rgb(146,116,67);stop-opacity:1"/>
    </linearGradient>
    <linearGradient id="special" x1="0" y1="1" x2="1" y2="0">
      <stop offset="0" style="stop-color:rgb(76, 56, 106);stop-opacity:1"/>
      <stop offset="0.125" style="stop-color:rgb(76, 56, 106);stop-opacity:1"/>
      <stop offset="0.5" style="stop-color:rgb(201, 173, 221);stop-opacity:1"/>
      <stop offset="0.875" style="stop-color:rgb(76, 56, 106);stop-opacity:1"/>
      <stop offset="1" style="stop-color:rgb(76, 56, 106);stop-opacity:1"/>
    </linearGradient>
    <linearGradient id="uncommon" x1="0" y1="1" x2="1" y2="0">
      <stop offset="0" style="stop-color:rgb(98,110,119);stop-opacity:1"/>
      <stop offset="0.125" style="stop-color:rgb(98,110,119);stop-opacity:1"/>
      <stop offset="0.5" style="stop-color:rgb(196,222,238);stop-opacity:1"/>
      <stop offset="0.875" style="stop-color:rgb(98,110,119);stop-opacity:1"/>
      <stop offset="1" style="stop-color:rgb(98,110,119);stop-opacity:1"/>
    </linearGradient>
    <linearGradient id="common" x1="0" y1="1" x2="1" y2="0">
      <stop offset="0" style="stop-color:rgb(0,0,0);stop-opacity:1"/>
    </linearGradient>
    <linearGradient
            id="rarity-outline" x1="0" y1="1" x2="0" y2="1">
      <stop offset="0" style="stop-color:rgb(0,0,0);stop-opacity:1"/>
    </linearGradient>
  </defs>
  <path fill="url(#rarity-outline)" d="M 18.568359,3.9168845e-4 C 15.229268,0.00379295 11.750564,0.77537539 8.9414063,2.8128917 6.4440263,4.6007172 4.7602566,7.341146 4.0683594,10.326564 3.6092839,10.31941 3.1496171,10.307518 2.6816406,10.281642 2.5248713,10.238404 2.4368122,10.208921 2.4375,10.225001 2.3667627,10.100517 2.2954169,9.8491329 2.1503906,9.4691417 L 2.0917969,9.3167979 1.9746094,9.2015636 C 1.7690745,8.9991272 1.3719272,8.9017815 1.1269531,8.9554698 0.88197906,9.0091582 0.75516997,9.1107139 0.65625001,9.1859386 0.45841006,9.336388 0.29116427,9.4545012 0.43164063,9.3832042 L 0.02929688,9.5882823 0.02148438,10.039454 c -0.02731973,1.739356 0.01596841,3.460079 -0.015625,5.15625 L 3.8e-7,15.54922 0.26953164,15.779689 c 0.0643141,0.05494 0.16025592,0.133872 0.20117187,0.167969 l 0.009766,0.0078 0.009766,0.0078 c 0.14350886,0.111732 0.28865593,0.221699 0.4375,0.332031 l 0.81640629,0.605469 0.3378906,-0.958985 c 0.1259282,-0.359051 0.2183006,-0.653869 0.3320312,-0.880859 0.036808,-0.01106 0.09873,-0.02832 0.1894531,-0.03516 l -0.00391,0.002 c 0.3842039,-0.02673 0.7749885,-0.03902 1.1640625,-0.05469 0.02809,0.188584 0.04702,0.366927 0.085937,0.5625 v 0.0039 0.002 c 0.038515,0.186327 0.080168,0.374832 0.125,0.5625 v -0.0059 c 0.5671496,2.452626 1.9864739,4.636948 3.8125,6.296875 l 0.00391,0.0059 0.00586,0.0039 c 2.3922658,2.100267 5.4669968,3.237808 8.5625008,3.542969 3.695187,0.396767 7.63831,-0.105727 10.939453,-2.074219 2.526681,-1.49749 4.509827,-3.878395 5.464843,-6.671875 l 0.0039,-0.0098 0.226562,-0.726562 0.0039,-0.01758 c 0.990427,-3.829866 0.60122,-7.8806463 -1.814442,-11.1757959 l -0.0098,-0.015625 -0.01172,-0.013672 C 30.3448,4.2311281 29.389328,3.3051804 28.273437,2.5726573 l -0.002,-0.00195 C 25.383246,0.65624495 21.904333,-0.01868028 18.572265,3.9168845e-4 Z M 18.873047,3.0121105 c 1.091442,0.07522 0.611284,0.019881 1.404296,0.1328124 1.799682,0.2972574 3.510433,1.2548161 4.611328,2.6875 l 0.0059,0.00977 0.0078,0.00977 c 1.103599,1.3475324 1.736089,3.0829654 2.044922,4.8632811 0.05382,0.635184 0.141222,1.239946 0.191406,1.814453 -0.0082,0.480743 -0.02497,0.994101 0.0078,1.535156 -0.109981,2.153175 -0.674361,4.315724 -1.986328,5.929688 -2.38614,2.928197 -6.948342,3.81902 -10.359375,2.232421 -0.645264,-0.308444 -1.23502,-0.695883 -1.69336,-1.179687 l -0.01367,-0.01563 -0.01367,-0.01367 c -1.55227,-1.471702 -2.293729,-3.667425 -2.669922,-5.884766 -3.47e-4,-0.002 -0.0016,-0.0038 -0.0019,-0.0059 l -0.04492,-0.419922 c 1.784775,-0.08542 3.579861,-0.14375 5.384766,-0.228515 0.120689,0.289853 0.206786,0.572849 0.435546,0.86914 l 0.02149,0.02734 0.02344,0.02539 c 0.147195,0.158694 0.285923,0.292042 0.40625,0.416015 l 0.06641,0.06836 0.08203,0.05078 c 1.587999,0.968613 3.894134,0.509022 4.724609,-1.291016 l 0.002,-0.0078 0.0039,-0.0078 c 0.578341,-1.333327 0.494587,-2.912978 -0.251953,-4.173828 l -0.01563,-0.02734 -0.01758,-0.02539 C 20.315879,9.1198239 18.593782,8.7691253 17.21875,9.4046886 16.498432,9.6983935 16.084785,10.262969 15.783203,10.83633 14.097768,10.78058 12.404611,10.685521 10.699219,10.609767 h -0.0039 l -0.330075,-0.01172 c 0.07302,-0.585366 0.128849,-1.1797247 0.28125,-1.7187501 l 0.002,-0.00391 v -0.00586 c 0.431651,-1.60629 1.337134,-3.0960138 2.625,-4.0976556 1.673403,-1.2281966 3.512067,-1.7888796 5.59961,-1.7597656 z" />
  <path fill="url(#rarity)" d="m 18.571859,0.75078974 c 3.229,-0.019 6.563,0.63999996 9.288,2.44700006 1.038,0.681 1.94,1.553 2.719,2.517 2.266,3.091 2.64,6.8830002 1.693,10.5450002 l -0.217,0.7 c -0.894,2.615 -2.764,4.862 -5.138,6.269 -3.125,1.864 -6.91,2.358 -10.484,1.973 -2.962,-0.292 -5.889,-1.383 -8.1419996,-3.361 -1.726,-1.569 -3.059,-3.633 -3.586,-5.912 -0.043,-0.18 -0.083,-0.36 -0.12,-0.539 -0.079,-0.397 -0.129,-0.799 -0.183,-1.198 -0.618,0.02 -1.236,0.044 -1.854,0.087 -0.292,0.022 -0.644,0.096 -0.782,0.388 -0.172,0.325 -0.271,0.681 -0.392,1.026 -0.143,-0.106 -0.283,-0.213 -0.42300002,-0.322 -0.048,-0.04 -0.147,-0.121 -0.195,-0.162 0.032,-1.718 -0.011,-3.438 0.016,-5.157 0.199,-0.1010002 0.47800002,-0.5120002 0.67700002,-0.3160002 0.129,0.3380002 0.198,0.7140002 0.429,1.0050002 0.16,0.214 0.45,0.228 0.689,0.288 0.664,0.039 1.33,0.069 1.995,0.063 0.53,-3.0520002 2.298,-5.8690002 4.819,-7.6720002 C 12.023859,1.5027897 15.346859,0.75378974 18.570859,0.75078974 Z m 0.331,1.51000006 c -2.243,-0.035 -4.276,0.58 -6.084,1.91 -1.442,1.118 -2.424,2.756 -2.8939996,4.505 -0.244,0.863 -0.35,1.7540002 -0.436,2.6440002 l 1.1779996,0.039 c 1.846,0.082 3.691,0.194 5.538,0.246 0.253,-0.632 0.65,-1.26 1.311,-1.52 1.052,-0.4950002 2.416,-0.2100002 3.101,0.753 0.614,1.037 0.687,2.391 0.209,3.493 -0.615,1.333 -2.447,1.699 -3.652,0.964 -0.132,-0.136 -0.268,-0.267 -0.396,-0.405 -0.271,-0.351 -0.427,-0.77 -0.58,-1.181 -2.226,0.113 -4.455,0.163 -6.6799996,0.285 l 0.082,0.628 0.068,0.631 c 0.3889996,2.297 1.1619996,4.666 2.8959996,6.31 0.54,0.57 1.208,1.004 1.913,1.341 3.735,1.742 8.636,0.793 11.266,-2.437 1.451,-1.785 2.037,-4.109 2.152,-6.366 -0.039,-0.54 -0.015,-1.08 -0.007,-1.62 -0.054,-0.626 -0.147,-1.25 -0.198,-1.877 -0.323,-1.8740002 -0.99,-3.7420002 -2.207,-5.2280002 -1.231,-1.602 -3.109,-2.649 -5.091,-2.974 -0.823,-0.117 -0.327,-0.059 -1.49,-0.14 z"/>
</svg>
