<?xml version="1.0" encoding="UTF-8" standalone="no"?>
<!-- Generated by IcoMoon.io -->

<svg
   version="1.1"
   width="31.645645"
   height="29.181999"
   viewBox="0 0 31.645645 29.181999"
   id="svg6"
   sodipodi:docname="psalvat11.svg"
   inkscape:version="1.1.1 (3bf5ae0d25, 2021-09-20)"
   xmlns:inkscape="http://www.inkscape.org/namespaces/inkscape"
   xmlns:sodipodi="http://sodipodi.sourceforge.net/DTD/sodipodi-0.dtd"
   xmlns="http://www.w3.org/2000/svg"
   xmlns:svg="http://www.w3.org/2000/svg">
  <defs
     id="defs10" />
  <sodipodi:namedview
     id="namedview8"
     pagecolor="#ffffff"
     bordercolor="#666666"
     borderopacity="1.0"
     inkscape:pageshadow="2"
     inkscape:pageopacity="0.0"
     inkscape:pagecheckerboard="0"
     showgrid="false"
     inkscape:zoom="25.75"
     inkscape:cx="15.786408"
     inkscape:cy="14.582524"
     inkscape:window-width="1920"
     inkscape:window-height="1009"
     inkscape:window-x="-8"
     inkscape:window-y="-8"
     inkscape:window-maximized="1"
     inkscape:current-layer="svg6" />
  <title
     id="title2">psalvat11</title>
  <path
     fill="#000000"
     d="m 25.08089,0 c 0.465,0.732 0.857,1.525 1.005,2.384 0.14,0.579 0.061,1.234 0.445,1.729 0.653,0.948 1.228,1.964 1.527,3.082 0.303,1.033 0.24,2.134 0.564,3.16 0.587,1.951 1.801,3.614 2.899,5.298 0.24,0.299 0.102,0.721 -0.146,0.965 -0.46,0.462 -1.141,0.702 -1.79,0.647 -0.352,-0.144 -0.6,-0.45 -0.88,-0.696 -0.859,-0.853 -1.837,-1.572 -2.772,-2.335 -1.563,-1.247 -3.466,-1.987 -5.01,-3.26 -0.727,-0.596 -1.334,-1.546 -1.08,-2.522 0.155,-0.636 0.778,-0.944 1.207,-1.372 0.229,-0.233 0.03,-0.566 -0.17,-0.738 -0.662,-0.053 -1.175,0.481 -1.57,0.942 -0.899,1.15 -0.6,2.87 0.354,3.89 1.631,1.799 4.068,2.526 5.862,4.119 1.247,1.2 1.574,3.056 1.158,4.692 -1.239,-2.284 -3.561,-3.733 -5.979,-4.507 -3.232,-1.02 -6.454,-2.238 -9.258,-4.178 -0.808,-0.583 -1.6140001,-1.196 -2.2480001,-1.973 -0.267,-0.312 -0.098,-0.751 -0.006,-1.097 0.742,-2.193 2.0660001,-4.24 3.9640001,-5.599 2.414,-1.765 5.568,-2.346 8.492,-1.894 1.022,0.148 1.994,0.545 2.838,1.139 0.248,-0.609 0.428,-1.241 0.592,-1.875 z M 4.3778899,5.951 c -1.678,1.001 -2.98,2.812 -2.944,4.823 -1.40000002,0.857 -1.72900002,2.779 -1.18600002,4.236 0.301,1.08 1.13500002,1.873 2.01500002,2.507 0.1,0.386 0.202,0.77 0.303,1.156 0.645,1.385 1.845,2.426 3.245,3.003 4,1.775 8.6680001,0.471 12.6160001,2.422 1.031,0.482 1.693,1.478 1.898,2.577 -0.085,0.31 -0.157,0.619 -0.229,0.931 -0.367,0.581 -0.808,1.116 -1.321,1.576 1.122,-0.344 2.28,-0.577 3.377,-1.005 1.43,-0.621 2.878,-1.485 3.633,-2.904 0.787,-1.48 0.53,-3.292 -0.159,-4.757 -1.007,-2.03 -3.088,-3.256 -5.167,-3.964 -4.111,-1.328 -8.338,-2.872 -11.5640001,-5.854 -1.55,-1.438 -2.339,-3.735 -1.726,-5.797 -0.965,0.242 -1.949,0.496 -2.791,1.05 z"
     id="path4" />
</svg>
