<?xml version="1.0" encoding="UTF-8" standalone="no"?>
<!-- Generated by IcoMoon.io -->

<svg
   version="1.1"
   width="30.599001"
   height="22.586226"
   viewBox="0 0 30.599001 22.586226"
   id="svg6"
   sodipodi:docname="psega.svg"
   inkscape:version="1.1.1 (3bf5ae0d25, 2021-09-20)"
   xmlns:inkscape="http://www.inkscape.org/namespaces/inkscape"
   xmlns:sodipodi="http://sodipodi.sourceforge.net/DTD/sodipodi-0.dtd"
   xmlns="http://www.w3.org/2000/svg"
   xmlns:svg="http://www.w3.org/2000/svg">
  <defs
     id="defs10" />
  <sodipodi:namedview
     id="namedview8"
     pagecolor="#ffffff"
     bordercolor="#666666"
     borderopacity="1.0"
     inkscape:pageshadow="2"
     inkscape:pageopacity="0.0"
     inkscape:pagecheckerboard="0"
     showgrid="false"
     inkscape:zoom="25.75"
     inkscape:cx="15.514563"
     inkscape:cy="11.281553"
     inkscape:window-width="1920"
     inkscape:window-height="1009"
     inkscape:window-x="-8"
     inkscape:window-y="-8"
     inkscape:window-maximized="1"
     inkscape:current-layer="svg6" />
  <title
     id="title2">psega</title>
  <path
     fill="#000000"
     d="m 23.494,0 c 3.999,0.452 6.349,2.366 7.105,8.29 H 26.585 C 26.326,6.727 25.802,4.239 23.246,4.117 20.983,4.009 20.03,7.715 20.03,11.365 c 0,3.65 1.086,7.09 3.216,7.207 2.226,0.122 2.835,-2.462 3.235,-3.877 h 4.031 c -0.422,5.383 -3.061,8.07 -7.961,7.882 -4.339,-0.276 -6.622,-4.534 -7.435,-8.328 -0.069,0.733 -0.256,1.447 -0.456,2.154 q -0.644,2.09 -1.633,3.31 -1.195,1.22 -2.595,1.837 -1.4,0.617 -3.602,0.617 H 0 V 0.361 h 6.635 q 2.516,0 3.797,0.558 1.487,0.558 2.565,1.882 1.078,1.324 1.692,3.436 c 0.202,0.69 0.335,1.398 0.419,2.112 0.728,-3.803 3.096,-8.187 7.441,-8.347 h 0.942 z M 4.049,4.234 v 13.989 l 2.303,0.022 q 0.947,-0.081 1.733,-0.408 0.786,-0.327 1.288,-0.989 0.502,-0.414 0.831,-1.842 0.329,-1.428 0.329,-3.763 0,-2.425 -0.337,-3.823 Q 9.859,6.228 9.148,5.425 8.437,4.622 7.418,4.369 7.46,4.257 5.273,4.257 L 4.048,4.235 Z"
     id="path4" />
</svg>
