<?xml version="1.0" encoding="UTF-8" standalone="no"?>
<!-- Generated by IcoMoon.io -->

<svg
   version="1.1"
   width="32.000694"
   height="13.614532"
   viewBox="0 0 32.000694 13.614532"
   id="svg6"
   sodipodi:docname="ptg.svg"
   inkscape:version="1.1.1 (3bf5ae0d25, 2021-09-20)"
   xmlns:inkscape="http://www.inkscape.org/namespaces/inkscape"
   xmlns:sodipodi="http://sodipodi.sourceforge.net/DTD/sodipodi-0.dtd"
   xmlns="http://www.w3.org/2000/svg"
   xmlns:svg="http://www.w3.org/2000/svg">
  <defs
     id="defs10" />
  <sodipodi:namedview
     id="namedview8"
     pagecolor="#ffffff"
     bordercolor="#666666"
     borderopacity="1.0"
     inkscape:pageshadow="2"
     inkscape:pageopacity="0.0"
     inkscape:pagecheckerboard="0"
     showgrid="false"
     inkscape:zoom="25.75"
     inkscape:cx="15.980583"
     inkscape:cy="6.776699"
     inkscape:window-width="1920"
     inkscape:window-height="1009"
     inkscape:window-x="-8"
     inkscape:window-y="-8"
     inkscape:window-maximized="1"
     inkscape:current-layer="svg6" />
  <title
     id="title2">ptg</title>
  <path
     fill="#000000"
     d="m 9.8991393,0.05553211 c 0.8479997,-0.164 1.7249997,0.051 2.4819997,0.438 0.707,0.34 1.313,0.88499999 1.723,1.55299999 0.452,0.746 0.642,1.626 0.641,2.491 0.015,1.117 -0.244,2.217 -0.585,3.274 -0.369,1.105 -0.85,2.17 -1.392,3.2009999 -0.477,0.895 -0.998,1.767 -1.575,2.602 -1.3739997,-0.079 -2.7439997,-0.265 -4.0889997,-0.56 -1.138,-0.244 -2.258,-0.582 -3.326,-1.045 -0.908,-0.41 -1.788,-0.921 -2.496,-1.632 C 0.65313928,9.7525321 0.18713928,8.9425321 0.05413928,8.0595321 c -0.009,-0.068 -0.022,-0.135 -0.032,-0.202 -0.028,-0.314 -0.031,-0.631 0,-0.945 0.012,-0.07 0.026,-0.139 0.035,-0.209 0.071,-0.429 0.181,-0.855 0.361,-1.252 0.291,-0.669 0.79500002,-1.25 1.44200002,-1.594 0.744,-0.406 1.612,-0.522 2.449,-0.485 0.691,0.024 1.378,0.148 2.039,0.353 0.207,-0.568 0.492,-1.107 0.826,-1.61 0.248,-0.383 0.541,-0.736 0.867,-1.055 0.517,-0.48799999 1.151,-0.87699999 1.858,-1.00399999 z M 14.400139,1.3015321 c 0.33,0.418 0.585,0.894 0.743,1.403 1.429,-0.098 2.867,-0.08 4.29,0.09 1.353,0.164 2.691,0.464 3.978,0.914 1.832,0.641 3.564,1.586 5.064,2.82 0.706,0.584 1.37,1.224 1.932,1.948 -0.452,-0.693 -0.98,-1.335 -1.536,-1.947 -0.64,-0.708 -1.36,-1.34 -2.117,-1.919 -1.67,-1.254 -3.59,-2.163 -5.604,-2.708 -0.732,-0.21 -1.481,-0.351 -2.232,-0.469 -1.494,-0.216 -3.015,-0.282 -4.519,-0.133 z m 0.863,2.029 c 0.179,1.322 0.043,2.68 -0.362,3.95 1.189,-0.38 2.407,-0.674 3.645,-0.84 1.428,-0.185 2.885,-0.204 4.31,0.02 1.172,0.185 2.321,0.53 3.392,1.045 1.664,0.792 3.128,1.981 4.288,3.4099999 0.546,0.678 1.037,1.403 1.424,2.184 0.052,0.091 0.051,0.199 0.014,-0.038 -0.433,-1.454 -1.084,-2.849 -1.978,-4.0759999 -1.183,-1.638 -2.793,-2.945 -4.596,-3.845 -2.21,-1.108 -4.667,-1.654 -7.122,-1.821 -1.003,-0.06 -2.012,-0.071 -3.014,0.011 z m 2.985,3.727 c -1.224,0.2 -2.43,0.519 -3.585,0.974 -0.295,0.852 -0.646,1.685 -1.05,2.4909999 0.916,-0.6539999 1.92,-1.1859999 2.976,-1.5769999 1.294,-0.482 2.663,-0.751 4.04,-0.832 1.43,-0.082 2.869,0.024 4.276,0.291 1.019,0.197 2.026,0.468 2.995,0.844 -0.509,-0.413 -1.056,-0.78 -1.634,-1.089 -1.158,-0.625 -2.436,-1.015 -3.738,-1.19 -1.42,-0.19 -2.866,-0.138 -4.279,0.089 z"
     id="path4" />
</svg>
