<?xml version="1.0" encoding="UTF-8" standalone="no"?>
<svg
   version="1.1"
   width="32.985115"
   height="14.614418"
   viewBox="0 0 32.985115 14.614418"
   id="svg4"
   xmlns="http://www.w3.org/2000/svg"
   xmlns:svg="http://www.w3.org/2000/svg">
  <defs>
    <!-- This is the gradient that will actually be used on
     the cards. The colors themselves will be provided by the
     template, but the x values, y values, and offsets will be
     used from the SVG. -->
    <linearGradient id="rarity" x1="-1" y1="0" x2="1" y2="0">
      <stop offset="0" style="stop-color:rgb(192,55,38);stop-opacity:1" id="stop2" />
      <stop offset="0.125" style="stop-color:rgb(192,55,38);stop-opacity:1" id="stop4" />
      <stop offset="0.5" style="stop-color:rgb(241,142,30);stop-opacity:1" id="stop6" />
      <stop offset="0.875" style="stop-color:rgb(192,55,38);stop-opacity:1" id="stop8" />
      <stop offset="1" style="stop-color:rgb(192,55,38);stop-opacity:1" id="stop10" />
    </linearGradient>
    <!-- These gradients are here so that you can visualize
     what the set symbol would like like in that rarity. The
     only gradient that matters in the end is the "rarity"
     gradient. -->
    <linearGradient id="mythic" x1="0" y1="1" x2="1" y2="0">
      <stop offset="0" style="stop-color:rgb(192,55,38);stop-opacity:1"/>
      <stop offset="0.125" style="stop-color:rgb(192,55,38);stop-opacity:1"/>
      <stop offset="0.5" style="stop-color:rgb(241,142,30);stop-opacity:1"/>
      <stop offset="0.875" style="stop-color:rgb(192,55,38);stop-opacity:1"/>
      <stop offset="1" style="stop-color:rgb(192,55,38);stop-opacity:1"/>
    </linearGradient>
    <linearGradient id="rare" x1="0" y1="1" x2="1" y2="0">
      <stop offset="0" style="stop-color:rgb(146,116,67);stop-opacity:1"/>
      <stop offset="0.125" style="stop-color:rgb(146,116,67);stop-opacity:1"/>
      <stop offset="0.5" style="stop-color:rgb(211,178,108);stop-opacity:1"/>
      <stop offset="0.875" style="stop-color:rgb(146,116,67);stop-opacity:1"/>
      <stop offset="1" style="stop-color:rgb(146,116,67);stop-opacity:1"/>
    </linearGradient>
    <linearGradient id="special" x1="0" y1="1" x2="1" y2="0">
      <stop offset="0" style="stop-color:rgb(76, 56, 106);stop-opacity:1"/>
      <stop offset="0.125" style="stop-color:rgb(76, 56, 106);stop-opacity:1"/>
      <stop offset="0.5" style="stop-color:rgb(201, 173, 221);stop-opacity:1"/>
      <stop offset="0.875" style="stop-color:rgb(76, 56, 106);stop-opacity:1"/>
      <stop offset="1" style="stop-color:rgb(76, 56, 106);stop-opacity:1"/>
    </linearGradient>
    <linearGradient id="uncommon" x1="0" y1="1" x2="1" y2="0">
      <stop offset="0" style="stop-color:rgb(98,110,119);stop-opacity:1"/>
      <stop offset="0.125" style="stop-color:rgb(98,110,119);stop-opacity:1"/>
      <stop offset="0.5" style="stop-color:rgb(196,222,238);stop-opacity:1"/>
      <stop offset="0.875" style="stop-color:rgb(98,110,119);stop-opacity:1"/>
      <stop offset="1" style="stop-color:rgb(98,110,119);stop-opacity:1"/>
    </linearGradient>
    <linearGradient id="common" x1="0" y1="1" x2="1" y2="0">
      <stop offset="0" style="stop-color:rgb(0,0,0);stop-opacity:1"/>
    </linearGradient>
    <linearGradient
            id="rarity-outline" x1="0" y1="1" x2="0" y2="1">
      <stop offset="0" style="stop-color:rgb(0,0,0);stop-opacity:1"/>
    </linearGradient>
  </defs>
  <path fill="url(#rarity-outline)" d="M 11.046801,3.4284824e-4 C 10.803475,-0.00296215 10.556985,0.01756115 10.310473,0.06479595 c -0.002,3.803e-4 -0.0039,-3.838e-4 -0.0059,0 -0.0013,0.001944 -0.0026,0.003897 -0.0039,0.005859 -0.8256199,0.15130904 -1.5372854,0.59248429 -2.1035158,1.12695315 -0.00197,0.00194 -0.00392,0.00389 -0.00586,0.00586 C 7.8418951,1.5454083 7.5265583,1.9258344 7.2577384,2.3401866 6.9831817,2.7536655 6.7743441,3.2133954 6.5741447,3.676124 6.0031348,3.5288986 5.4255182,3.3944557 4.8319571,3.3733897 h -0.00195 C 3.933607,3.3339891 2.9757497,3.4532919 2.1249259,3.9163584 l -0.00195,0.00195 C 1.3670468,4.3210323 0.79365288,4.9867222 0.46086337,5.7503428 0.2585546,6.198309 0.13992954,6.6649411 0.06437899,7.1214366 c -0.001432,0.00648 -0.002734,0.012996 -0.003906,0.019531 -0.005936,0.046171 -0.0175528,0.1075996 -0.03125,0.1875 -0.001716,0.011669 -0.003019,0.023395 -0.003906,0.035156 -0.0345424,0.3498819 -0.0323169,0.6985565 -0.001953,1.0390626 0.001013,0.0098 0.002316,0.019572 0.003906,0.029297 0.0121552,0.08144 0.0248621,0.1450952 0.03125,0.1933594 6.1861e-4,0.00326 0.00127,0.00652 0.001953,0.00977 0.15191229,1.0085605 0.67451019,1.9074434 1.36914061,2.5976564 0.769274,0.771848 1.7037992,1.308524 2.6425781,1.732422 0.00259,0.0013 0.0052,0.0026 0.00781,0.0039 1.1024175,0.477921 2.2524597,0.824531 3.4160157,1.074219 1.3714405,0.300799 2.7680846,0.489824 4.1679686,0.570312 0.173905,0.0098 0.340385,-0.07158 0.439454,-0.214843 0.451869,-0.653919 0.869148,-1.328794 1.257812,-2.017579 0.315781,-0.481319 0.502641,-0.596911 1.042969,-0.951171 0.879742,-0.628115 1.845094,-1.140073 2.859375,-1.5156255 1.242924,-0.4629748 2.56292,-0.7224512 3.894531,-0.8007813 1.386271,-0.079493 2.784834,0.023326 4.154297,0.2832032 l -0.002,-0.00195 c 0.99537,0.1924318 1.972581,0.4572641 2.908203,0.8203126 1.213448,0.444646 1.73116,0.743533 2.429688,1.515625 0.527933,0.655807 0.996723,1.35205 1.363281,2.091797 0.0013,0.002 0.0026,0.0039 0.0039,0.0059 -5e-6,0.0013 -5e-6,0.0026 0,0.0039 0.0011,0.0042 0.0035,0.0076 0.0059,0.01563 0.0015,0.0049 0.0058,0.0213 0.0059,0.02149 5.6e-5,1.61e-4 0.02731,0.06243 0.02734,0.0625 l 0.01758,0.0293 0.0332,0.05078 c 0,0 0.215868,0.271319 0.548828,0.15039 0.390632,-0.162922 0.338304,-0.468755 0.314453,-0.677734 -0.0037,-0.02247 -0.0089,-0.04465 -0.01563,-0.06641 C 32.465285,11.713449 32.118263,9.9181472 31.288988,8.6565928 30.82446,7.9524297 30.29595,7.3033211 29.742114,6.6937022 29.076278,5.9571219 28.333459,5.3059545 27.55852,4.7132334 c -0.0013,-6.567e-4 -0.0026,-0.00131 -0.0039,-0.00195 C 25.831885,3.4176895 23.856837,2.4830849 21.787035,1.9222178 21.025158,1.7036464 20.256995,1.5593633 19.49602,1.439796 c -0.002,-1.15e-5 -0.0039,-1.15e-5 -0.0059,0 C 17.962953,1.2189833 16.400859,1.1493889 14.849535,1.3030772 14.493954,1.3398311 14.397848,1.3470361 14.138598,1.4026866 13.847415,1.0806381 13.493475,0.73422468 13.101488,0.54526472 12.481781,0.22959776 11.776778,0.01025916 11.046801,3.4284824e-4 Z M 15.763598,3.3304209 c -0.0013,6.453e-4 -0.0026,0.0013 -0.0039,0.00195 -0.01242,9.886e-4 -0.02469,-0.00102 -0.03711,0 z" />
  <path fill="url(#rarity)" d="m 10.399065,0.55587496 c 0.848,-0.164 1.725,0.051 2.482,0.438 0.707,0.34000004 1.313,0.88499994 1.723,1.55299994 0.452,0.746 0.642,1.626 0.641,2.491 0.015,1.117 -0.244,2.217 -0.585,3.274 -0.369,1.105 -0.85,2.1700001 -1.392,3.2010001 -0.477,0.895 -0.998,1.767 -1.575,2.602 -1.374,-0.079 -2.7439998,-0.265 -4.0889998,-0.56 -1.138,-0.244 -2.258,-0.582 -3.326,-1.045 -0.908,-0.41 -1.788,-0.921 -2.496,-1.632 -0.629,-0.625 -1.09500005,-1.4350001 -1.22800005,-2.3180001 -0.009,-0.068 -0.022,-0.135 -0.032,-0.202 -0.028,-0.314 -0.031,-0.631 0,-0.945 0.012,-0.07 0.026,-0.139 0.035,-0.209 0.071,-0.429 0.181,-0.855 0.361,-1.252 0.29100005,-0.669 0.79500005,-1.25 1.44200005,-1.594 0.744,-0.406 1.612,-0.522 2.449,-0.485 0.691,0.024 1.378,0.148 2.039,0.353 0.207,-0.568 0.492,-1.107 0.826,-1.61 0.248,-0.383 0.541,-0.736 0.867,-1.055 0.517,-0.4879999 1.151,-0.87699994 1.8579998,-1.00399994 z m 4.501,1.24599994 c 0.33,0.418 0.585,0.894 0.743,1.403 1.429,-0.098 2.867,-0.08 4.29,0.09 1.353,0.164 2.691,0.464 3.978,0.914 1.832,0.641 3.564,1.586 5.064,2.82 0.706,0.584 1.37,1.224 1.932,1.948 -0.452,-0.693 -0.98,-1.335 -1.536,-1.947 -0.64,-0.708 -1.36,-1.34 -2.117,-1.919 -1.67,-1.254 -3.59,-2.163 -5.604,-2.708 -0.732,-0.21 -1.481,-0.351 -2.232,-0.469 -1.494,-0.216 -3.015,-0.282 -4.519,-0.133 z m 0.863,2.029 c 0.179,1.322 0.043,2.68 -0.362,3.95 1.189,-0.38 2.407,-0.674 3.645,-0.84 1.428,-0.185 2.885,-0.204 4.31,0.02 1.172,0.185 2.321,0.53 3.392,1.045 1.664,0.792 3.128,1.981 4.288,3.4100001 0.546,0.678 1.037,1.403 1.424,2.184 0.052,0.091 0.051,0.199 0.014,-0.038 -0.433,-1.454 -1.084,-2.849 -1.978,-4.0760001 -1.183,-1.638 -2.793,-2.945 -4.596,-3.845 -2.21,-1.108 -4.667,-1.654 -7.122,-1.821 -1.003,-0.06 -2.012,-0.071 -3.014,0.011 z m 2.985,3.727 c -1.224,0.2 -2.43,0.519 -3.585,0.974 -0.295,0.852 -0.646,1.6850001 -1.05,2.4910001 0.916,-0.654 1.92,-1.1860001 2.976,-1.5770001 1.294,-0.482 2.663,-0.751 4.04,-0.832 1.43,-0.082 2.869,0.024 4.276,0.291 1.019,0.197 2.026,0.468 2.995,0.844 -0.509,-0.413 -1.056,-0.78 -1.634,-1.089 -1.158,-0.625 -2.436,-1.015 -3.738,-1.19 -1.42,-0.19 -2.866,-0.138 -4.279,0.089 z"/>
</svg>
