<?xml version="1.0" encoding="UTF-8" standalone="no"?>
<!-- Generated by IcoMoon.io -->

<svg
   version="1.1"
   width="26.718294"
   height="26.57131"
   viewBox="0 0 26.718294 26.57131"
   id="svg6"
   sodipodi:docname="ptsa.svg"
   inkscape:version="1.1.1 (3bf5ae0d25, 2021-09-20)"
   xmlns:inkscape="http://www.inkscape.org/namespaces/inkscape"
   xmlns:sodipodi="http://sodipodi.sourceforge.net/DTD/sodipodi-0.dtd"
   xmlns="http://www.w3.org/2000/svg"
   xmlns:svg="http://www.w3.org/2000/svg">
  <defs
     id="defs10" />
  <sodipodi:namedview
     id="namedview8"
     pagecolor="#ffffff"
     bordercolor="#666666"
     borderopacity="1.0"
     inkscape:pageshadow="2"
     inkscape:pageopacity="0.0"
     inkscape:pagecheckerboard="0"
     showgrid="false"
     inkscape:zoom="25.75"
     inkscape:cx="13.495146"
     inkscape:cy="13.262136"
     inkscape:window-width="1920"
     inkscape:window-height="1009"
     inkscape:window-x="-8"
     inkscape:window-y="-8"
     inkscape:window-maximized="1"
     inkscape:current-layer="svg6" />
  <title
     id="title2">ptsa</title>
  <path
     fill="#000000"
     d="m 13.232924,0.001 0.741,0.001 0.37,0.002 c 1.021,0.075 2.093,0.093 3.068,0.455 0.327,0.122 0.705,0.294 0.753,0.678 -0.202,0.781 -1.932,1.019 -2.51,1.208 -1.649,0.538 -3.332,1.175 -2.939,3.227 l 0.105,0.307 c 0.436,0.934 1.281,1.082 2.209,0.873 0.232,-0.055 0.121,-0.033 0.334,-0.067 0.708,-0.33 1.452,-0.569 2.204,-0.776 0.443,-0.135 0.901,-0.186 1.358,-0.244 l 0.282,-0.002 c 1.394,0.057 1.954,0.796 2.346,2.05 0.077,0.313 0.174,0.632 0.163,0.958 l 0.095,0.004 c 1.521,0.178 1.876,-2.279 3.351,-0.899 0.625,0.751 0.94,2.214 1.179,3.103 0.193,1.006 0.453,2.046 0.355,3.081 -0.033,0.348 -0.101,0.757 -0.46,0.903 -0.806,0.007 -1.485,-1.602 -1.817,-2.112 -0.947,-1.454 -2.406,-3.482 -3.956,-2.068 -0.347,0.291 -0.193,0.182 -0.448,0.349 l 0.028,-0.012 c -0.544,0.478 -0.743,1.243 -0.453,1.916 0.056,0.13 0.153,0.238 0.229,0.357 0.526,0.455 0.972,0.995 1.415,1.528 1.812,2.216 1.253,3.345 -0.008,4.376 -0.254,0.199 -0.505,0.419 -0.806,0.542 l 0.035,0.088 c 0.462,1.459 2.848,0.774 2.196,2.686 -0.427,0.879 -1.632,1.767 -2.344,2.349 -0.838,0.589 -1.679,1.253 -2.663,1.59 -0.33,0.113 -0.732,0.219 -1.013,-0.048 -0.338,-0.732 0.851,-2.012 1.179,-2.524 0.936,-1.46 1.835,-3.019 0.233,-4.358 l -0.176,-0.11 0.018,0.029 c -0.052,-0.044 -0.01,-0.01 -0.128,-0.097 l -0.048,-0.03 c -1.019,-0.624 -1.785,-0.243 -2.485,0.634 -0.107,0.144 -0.21,0.296 -0.35,0.411 -0.381,0.627 -0.84,1.201 -1.316,1.756 -1.879,2.16 -3.086,1.8 -4.3149999,0.731 -0.239,-0.217 -0.498,-0.427 -0.67,-0.703 l -0.081,0.05 c -1.361,0.702 -0.282,2.938 -2.277,2.618 -0.938,-0.273 -2.017,-1.31 -2.712,-1.914 -0.722,-0.727 -1.518,-1.444 -2.017,-2.357 -0.167,-0.306 -0.339,-0.684 -0.123,-1.006 0.665,-0.457 2.127,0.499 2.687,0.736 1.597,0.677 3.285,1.3 4.335,-0.506 l 0.127,-0.315 c 0.195,-1.169 -0.493,-1.829 -1.579,-2.08 -0.221,-0.035 -0.428,-0.107 -0.627,-0.207 -0.638,-0.167 -0.302,-0.07 -1.008,-0.295 -2.712,-0.916 -2.838,-2.169 -2.317,-3.712 0.11,-0.303 0.206,-0.623 0.396,-0.887 l -0.077,-0.056 c -1.167,-0.991 -2.82399999,0.856 -3.28799999,-1.11 -0.104,-0.971 0.445,-2.364 0.739,-3.236 C 1.1489241,6.922 1.5099241,5.912 2.1649241,5.105 c 0.22,-0.271 0.504,-0.574 0.884,-0.497 0.675,0.441 0.347,2.157 0.341,2.765 -0.018,1.735 0.047,3.541 2.117,3.816 l 0.358,0.04 c 1.058,-0.104 1.566,-0.874 1.546,-1.894 -0.136,-0.706 -0.133,-1.428 -0.142,-2.144 0,-2.863 1.147,-3.383 2.7759999,-3.383 0.322,0.007 0.656,-0.004 0.967,0.091 l 0.028,-0.091 c 0.566,-1.423 -1.7149999,-2.402 0,-3.47 0.699,-0.303 1.444,-0.296 2.191,-0.338 z"
     id="path4" />
</svg>
