<?xml version="1.0" encoding="UTF-8" standalone="no"?>
<svg
   version="1.1"
   width="29.377001"
   height="32.676281"
   viewBox="0 0 29.377001 32.676281"
   id="svg4"
   xmlns:xlink="http://www.w3.org/1999/xlink"
   xmlns="http://www.w3.org/2000/svg"
   xmlns:svg="http://www.w3.org/2000/svg">
  <defs
     id="defs59">
    <!-- This is the gradient that will actually be used on
     the cards. The colors themselves will be provided by the
     template, but the x values, y values, and offsets will be
     used from the SVG. -->
    <linearGradient
       id="rarity"
       x1="0"
       y1="1"
       x2="1"
       y2="0">
      <stop
         offset="0"
         style="stop-color:rgb(192,55,38);stop-opacity:1"
         id="stop2" />
      <stop
         offset="0.125"
         style="stop-color:rgb(192,55,38);stop-opacity:1"
         id="stop4" />
      <stop
         offset="0.5"
         style="stop-color:rgb(241,142,30);stop-opacity:1"
         id="stop6" />
      <stop
         offset="0.875"
         style="stop-color:rgb(192,55,38);stop-opacity:1"
         id="stop8" />
      <stop
         offset="1"
         style="stop-color:rgb(192,55,38);stop-opacity:1"
         id="stop10" />
    </linearGradient>
    <!-- These gradients are here so that you can visualize
     what the set symbol would like like in that rarity. The
     only gradient that matters in the end is the "rarity"
     gradient. -->
    <linearGradient
       id="mythic"
       x1="0"
       y1="1"
       x2="1"
       y2="0">
      <stop
         offset="0"
         style="stop-color:rgb(192,55,38);stop-opacity:1"
         id="stop9" />
      <stop
         offset="0.125"
         style="stop-color:rgb(192,55,38);stop-opacity:1"
         id="stop11" />
      <stop
         offset="0.5"
         style="stop-color:rgb(241,142,30);stop-opacity:1"
         id="stop13" />
      <stop
         offset="0.875"
         style="stop-color:rgb(192,55,38);stop-opacity:1"
         id="stop15" />
      <stop
         offset="1"
         style="stop-color:rgb(192,55,38);stop-opacity:1"
         id="stop17" />
    </linearGradient>
    <linearGradient
       id="rare"
       x1="0"
       y1="1"
       x2="1"
       y2="0">
      <stop
         offset="0"
         style="stop-color:rgb(146,116,67);stop-opacity:1"
         id="stop20" />
      <stop
         offset="0.125"
         style="stop-color:rgb(146,116,67);stop-opacity:1"
         id="stop22" />
      <stop
         offset="0.5"
         style="stop-color:rgb(211,178,108);stop-opacity:1"
         id="stop24" />
      <stop
         offset="0.875"
         style="stop-color:rgb(146,116,67);stop-opacity:1"
         id="stop26" />
      <stop
         offset="1"
         style="stop-color:rgb(146,116,67);stop-opacity:1"
         id="stop28" />
    </linearGradient>
    <linearGradient
       id="special"
       x1="0"
       y1="1"
       x2="1"
       y2="0">
      <stop
         offset="0"
         style="stop-color:rgb(76, 56, 106);stop-opacity:1"
         id="stop31" />
      <stop
         offset="0.125"
         style="stop-color:rgb(76, 56, 106);stop-opacity:1"
         id="stop33" />
      <stop
         offset="0.5"
         style="stop-color:rgb(201, 173, 221);stop-opacity:1"
         id="stop35" />
      <stop
         offset="0.875"
         style="stop-color:rgb(76, 56, 106);stop-opacity:1"
         id="stop37" />
      <stop
         offset="1"
         style="stop-color:rgb(76, 56, 106);stop-opacity:1"
         id="stop39" />
    </linearGradient>
    <linearGradient
       id="uncommon"
       x1="0"
       y1="1"
       x2="1"
       y2="0">
      <stop
         offset="0"
         style="stop-color:rgb(98,110,119);stop-opacity:1"
         id="stop42" />
      <stop
         offset="0.125"
         style="stop-color:rgb(98,110,119);stop-opacity:1"
         id="stop44" />
      <stop
         offset="0.5"
         style="stop-color:rgb(196,222,238);stop-opacity:1"
         id="stop46" />
      <stop
         offset="0.875"
         style="stop-color:rgb(98,110,119);stop-opacity:1"
         id="stop48" />
      <stop
         offset="1"
         style="stop-color:rgb(98,110,119);stop-opacity:1"
         id="stop50" />
    </linearGradient>
    <linearGradient
       id="common"
       x1="0"
       y1="1"
       x2="1"
       y2="0">
      <stop
         offset="0"
         style="stop-color:rgb(0,0,0);stop-opacity:1"
         id="stop53" />
    </linearGradient>
    <linearGradient
       id="rarity-outline"
       x1="0"
       y1="1"
       x2="0"
       y2="1">
      <stop
         offset="0"
         style="stop-color:rgb(0,0,0);stop-opacity:1"
         id="stop56" />
    </linearGradient>
    <linearGradient
       xlink:href="#rarity"
       id="linearGradient1091"
       x1="19.841526"
       y1="18.752125"
       x2="6.5324411"
       y2="3.9667954"
       gradientTransform="scale(1.2991033,0.76976175)"
       gradientUnits="userSpaceOnUse" />
    <linearGradient
       xlink:href="#rarity"
       id="linearGradient2345"
       x1="-6.9087229"
       y1="19.912319"
       x2="25.127281"
       y2="18.130043"
       gradientTransform="scale(0.77489243,1.2905017)"
       gradientUnits="userSpaceOnUse" />
    <linearGradient
       xlink:href="#rarity"
       id="linearGradient2649"
       x1="32.678532"
       y1="22.144054"
       x2="29.461739"
       y2="8.746748"
       gradientTransform="scale(0.77664552,1.2875887)"
       gradientUnits="userSpaceOnUse" />
  </defs>
  <path
     fill="url(#rarity-outline)"
     d="M 14.490234 0 L 13.990234 0.2890625 C 10.488747 2.3076492 7.007327 4.3507141 3.515625 6.3652344 L 1.4453125 7.5585938 L 3.75 8.1953125 C 4.9262285 8.5196198 6.3439678 9.1339199 7.7148438 9.8164062 C 9.9180799 11.032097 11.905283 12.675816 13.810547 14.441406 L 14.542969 15.121094 L 15.222656 14.388672 C 16.580017 12.925857 18.07745 11.608134 19.732422 10.558594 L 19.734375 10.558594 L 19.734375 10.556641 C 21.471105 9.4480087 23.406081 8.6464388 25.416016 8.2070312 L 27.935547 7.65625 L 25.703125 6.3652344 C 22.13564 4.3008521 18.529288 2.3339815 14.988281 0.2890625 L 14.490234 0 z M 29.376953 9.09375 L 27.662109 10.851562 C 26.048458 12.50514 24.290665 13.995956 22.324219 15.082031 L 22.322266 15.082031 L 22.320312 15.082031 C 20.675987 15.996382 18.867336 16.619661 17.009766 16.898438 L 16.150391 17.027344 L 16.158203 17.896484 C 16.195033 21.972244 16.12114 26.065828 16.15625 30.177734 L 16.177734 32.636719 L 17.878906 30.859375 C 19.034106 29.65344 20.253242 28.532948 21.580078 27.583984 L 21.582031 27.582031 L 21.583984 27.580078 C 23.644097 26.088435 26.034211 25.046405 28.523438 24.677734 L 29.376953 24.550781 L 29.376953 9.09375 z M 0 9.1347656 L 0 11.548828 L 0 24.535156 L 0.83398438 24.675781 C 2.9805299 25.038697 5.0499213 25.867898 6.8964844 27.048828 L 6.8984375 27.050781 C 8.5540651 28.102894 10.057296 29.416935 11.445312 30.861328 L 13.191406 32.675781 L 13.166016 30.158203 C 13.127206 26.08475 13.209119 21.990777 13.167969 17.878906 L 13.160156 17.033203 L 12.322266 16.902344 C 10.479865 16.61446 8.6855091 15.980106 7.0332031 15.082031 L 7.03125 15.082031 C 5.0698576 14.021211 3.3328811 12.508708 1.7167969 10.851562 L 1.7128906 10.847656 L 0 9.1347656 z "
     id="path61" />
  <path
     fill="url(#rarity)"
     d="m 4.015,7.230523 c 3.496,-2.017 6.977,-4.06 10.474,-6.076 3.555,2.053 7.16,4.02 10.713,6.076 -2.127,0.465 -4.169,1.312 -6.005,2.484 -1.744,1.106 -3.304,2.482 -4.707,3.994 -1.937,-1.795 -3.988,-3.501 -6.31,-4.779 C 6.7724604,8.2278522 5.3066231,7.5866466 4.015,7.230523 Z"
     id="path63"
     style="fill-opacity:1;fill:url(#linearGradient1091)" />
  <path
     fill="url(#rarity)"
     d="m 1,11.548523 v 12.141 c 2.289,0.387 4.482,1.268 6.435,2.517 1.742,1.107 3.304,2.475 4.732,3.961 -0.039,-4.093 0.042,-8.186 10e-4,-12.278 -1.965,-0.307 -3.867,-0.979 -5.613,-1.928 -2.093,-1.132 -3.901,-2.717 -5.554,-4.412 z"
     id="path65"
     style="fill-opacity:1;fill:url(#linearGradient2345)" />
  <path
     fill="url(#rarity)"
     d="m 22.807,15.956523 c -1.748,0.972 -3.669,1.633 -5.648,1.93 0.037,4.094 -0.038,8.188 -0.003,12.282 1.184,-1.236 2.448,-2.401 3.842,-3.398 2.178,-1.577 4.712,-2.687 7.379,-3.082 v -12.139 c -1.657,1.698 -3.486,3.256 -5.57,4.407 z"
     id="path67"
     style="fill-opacity:1;fill:url(#linearGradient2649)" />
</svg>
