<?xml version="1.0" encoding="UTF-8" standalone="no"?>
<!-- Generated by IcoMoon.io -->

<svg
   version="1.1"
   width="31.978001"
   height="22.374001"
   viewBox="0 0 31.978001 22.374001"
   id="svg6"
   sodipodi:docname="pz2.svg"
   inkscape:version="1.1.1 (3bf5ae0d25, 2021-09-20)"
   xmlns:inkscape="http://www.inkscape.org/namespaces/inkscape"
   xmlns:sodipodi="http://sodipodi.sourceforge.net/DTD/sodipodi-0.dtd"
   xmlns="http://www.w3.org/2000/svg"
   xmlns:svg="http://www.w3.org/2000/svg">
  <defs
     id="defs10" />
  <sodipodi:namedview
     id="namedview8"
     pagecolor="#ffffff"
     bordercolor="#666666"
     borderopacity="1.0"
     inkscape:pageshadow="2"
     inkscape:pageopacity="0.0"
     inkscape:pagecheckerboard="0"
     showgrid="false"
     inkscape:zoom="25.75"
     inkscape:cx="15.980583"
     inkscape:cy="11.165049"
     inkscape:window-width="1920"
     inkscape:window-height="1009"
     inkscape:window-x="-8"
     inkscape:window-y="-8"
     inkscape:window-maximized="1"
     inkscape:current-layer="svg6" />
  <title
     id="title2">pz2</title>
  <path
     fill="#000000"
     d="m 22.021,13.133 c 0,3.339 -2.707,6.045 -6.045,6.045 -3.338,0 -6.045,-2.707 -6.045,-6.045 0,-3.339 2.707,-6.045 6.045,-6.045 3.338,0 6.045,2.707 6.045,6.045 z m 2.11,3.509 -0.381,5.716 h 6.578 l 1.205,-10.503 c -3.395,0.813 -5.252,2.803 -7.402,4.787 z M 7.636,13.856 C 5.384,12.161 2.71,10.412 0.124,9.282 L 0,8.199 8.959,8.075 c 0,0 -0.728,0.728 -1.125,2.317 -0.397,1.589 -0.198,3.464 -0.198,3.464 z m 0.185,2.786 0.381,5.716 H 1.624 L 0.419,11.855 c 3.395,0.813 5.252,2.803 7.402,4.787 z m 4.04,3.231 H 10.27 v 2.501 h 11.396 v -2.501 h -1.591 c -1.115,0.868 -2.546,1.39 -4.107,1.39 -1.561,0 -2.992,-0.522 -4.107,-1.39 z m 12.481,-6.03 c 2.252,-1.695 4.926,-3.444 7.512,-4.574 L 31.978,8.186 23.019,8.062 c 0,0 0.728,0.728 1.125,2.317 0.397,1.589 0.198,3.464 0.198,3.464 z M 24.104,0.001 c 0.679,1.765 1.096,3.652 1.094,5.548 h 6.425 L 27.904,0.001 Z m -7.402,0 c 0.103,1.153 0.132,2.311 0.137,3.468 -0.003,0.693 -0.012,1.387 -0.048,2.08 h 6.228 C 23.009,4.387 22.85,3.317 22.53,2.198 22.308,1.45 22.067,0.706 21.728,0.001 H 16.703 Z M 9.757,0 C 9.417,0.703 9.172,1.449 8.955,2.197 8.661,3.29 8.447,4.412 8.465,5.548 h 5.906 C 14.336,4.855 14.325,4.162 14.323,3.469 14.328,2.312 14.359,1.154 14.46,0 Z M 3.782,0 0.063,5.548 H 6.285 C 6.29,3.651 6.698,1.767 7.379,0 Z"
     id="path4" />
</svg>
