<?xml version="1.0" encoding="UTF-8" standalone="no"?>
<svg
   version="1.1"
   width="36.675781"
   height="26.261547"
   viewBox="0 0 36.675782 26.261548"
   id="svg4"
   xmlns="http://www.w3.org/2000/svg"
   xmlns:svg="http://www.w3.org/2000/svg">
  <defs>
    <!-- This is the gradient that will actually be used on
     the cards. The colors themselves will be provided by the
     template, but the x values, y values, and offsets will be
     used from the SVG. -->
    <linearGradient id="rarity" x1="0" y1="1" x2="1" y2="0">
      <stop offset="0" style="stop-color:rgb(192,55,38);stop-opacity:1" id="stop2" />
      <stop offset="0.125" style="stop-color:rgb(192,55,38);stop-opacity:1" id="stop4" />
      <stop offset="0.5" style="stop-color:rgb(241,142,30);stop-opacity:1" id="stop6" />
      <stop offset="0.875" style="stop-color:rgb(192,55,38);stop-opacity:1" id="stop8" />
      <stop offset="1" style="stop-color:rgb(192,55,38);stop-opacity:1" id="stop10" />
    </linearGradient>
    <!-- These gradients are here so that you can visualize
     what the set symbol would like like in that rarity. The
     only gradient that matters in the end is the "rarity"
     gradient. -->
    <linearGradient id="mythic" x1="0" y1="1" x2="1" y2="0">
      <stop offset="0" style="stop-color:rgb(192,55,38);stop-opacity:1"/>
      <stop offset="0.125" style="stop-color:rgb(192,55,38);stop-opacity:1"/>
      <stop offset="0.5" style="stop-color:rgb(241,142,30);stop-opacity:1"/>
      <stop offset="0.875" style="stop-color:rgb(192,55,38);stop-opacity:1"/>
      <stop offset="1" style="stop-color:rgb(192,55,38);stop-opacity:1"/>
    </linearGradient>
    <linearGradient id="rare" x1="0" y1="1" x2="1" y2="0">
      <stop offset="0" style="stop-color:rgb(146,116,67);stop-opacity:1"/>
      <stop offset="0.125" style="stop-color:rgb(146,116,67);stop-opacity:1"/>
      <stop offset="0.5" style="stop-color:rgb(211,178,108);stop-opacity:1"/>
      <stop offset="0.875" style="stop-color:rgb(146,116,67);stop-opacity:1"/>
      <stop offset="1" style="stop-color:rgb(146,116,67);stop-opacity:1"/>
    </linearGradient>
    <linearGradient id="special" x1="0" y1="1" x2="1" y2="0">
      <stop offset="0" style="stop-color:rgb(76, 56, 106);stop-opacity:1"/>
      <stop offset="0.125" style="stop-color:rgb(76, 56, 106);stop-opacity:1"/>
      <stop offset="0.5" style="stop-color:rgb(201, 173, 221);stop-opacity:1"/>
      <stop offset="0.875" style="stop-color:rgb(76, 56, 106);stop-opacity:1"/>
      <stop offset="1" style="stop-color:rgb(76, 56, 106);stop-opacity:1"/>
    </linearGradient>
    <linearGradient id="uncommon" x1="0" y1="1" x2="1" y2="0">
      <stop offset="0" style="stop-color:rgb(98,110,119);stop-opacity:1"/>
      <stop offset="0.125" style="stop-color:rgb(98,110,119);stop-opacity:1"/>
      <stop offset="0.5" style="stop-color:rgb(196,222,238);stop-opacity:1"/>
      <stop offset="0.875" style="stop-color:rgb(98,110,119);stop-opacity:1"/>
      <stop offset="1" style="stop-color:rgb(98,110,119);stop-opacity:1"/>
    </linearGradient>
    <linearGradient id="common" x1="0" y1="1" x2="1" y2="0">
      <stop offset="0" style="stop-color:rgb(0,0,0);stop-opacity:1"/>
    </linearGradient>
    <linearGradient
            id="rarity-outline" x1="0" y1="1" x2="0" y2="1">
      <stop offset="0" style="stop-color:rgb(0,0,0);stop-opacity:1"/>
    </linearGradient>
  </defs>
  <path fill="url(#rarity-outline)" d="M 5.2680028,0 1.0898437,5.3865469 H 0 v 4.5039062 h 0.953125 l 1.5527343,13.2460939 -1.7460937,3.125 H 5.9179687 L 7.6402648,22.777 H 28.56703 l 2.190783,3.484547 h 5.158203 l -1.746094,-3.125 1.552735,-13.2460939 h 0.953125 V 5.3865469 H 35.585938 L 31.482581,0 Z" />
  <path fill="url(#rarity)" d="m 23.87998,13.179497 c 0,3.0739 -2.492078,5.565057 -5.565057,5.565057 -3.072979,0 -5.565057,-2.492078 -5.565057,-5.565057 0,-3.0739 2.492078,-5.5650565 5.565057,-5.5650565 3.072979,0 5.565057,2.4920775 5.565057,5.5650565 z m 1.942476,3.230403 -0.35075,5.262177 h 6.055739 l 1.109329,-9.669113 C 29.51132,12.751416 27.801757,14.58342 25.822456,16.4099 Z M 10.637078,13.845095 C 8.5638755,12.284669 6.102178,10.674531 3.7214936,9.6342476 L 3.6073386,8.6372325 11.855038,8.5230775 c 0,0 -0.6702,0.6702004 -1.03568,2.1330415 -0.365481,1.462841 -0.18228,3.188976 -0.18228,3.188976 z m 0.170312,2.564805 0.35075,5.262177 H 5.102401 L 3.9930721,12.002964 c 3.1254537,0.748452 4.835017,2.580456 6.8143179,4.406936 z m 3.719244,2.974474 h -1.464682 v 2.302433 h 10.491213 v -2.302433 h -1.464682 c -1.026475,0.799085 -2.34386,1.279641 -3.780925,1.279641 -1.437064,0 -2.75445,-0.480556 -3.780924,-1.279641 z m 11.49007,-5.551247 c 2.073202,-1.560426 4.5349,-3.170564 6.915584,-4.2108472 L 33.046443,8.6252647 24.798744,8.5111096 c 0,0 0.6702,0.6702004 1.03568,2.1330414 0.36548,1.462841 0.18228,3.188976 0.18228,3.188976 z M 25.7976,1.0901134 c 0.625091,1.6248677 1.008983,3.3620492 1.007142,5.1075161 h 5.914886 L 29.295899,1.0901134 Z m -6.814318,0 c 0.09482,1.0614575 0.12152,2.127518 0.126123,3.1926579 -0.0028,0.6379792 -0.01105,1.276879 -0.04419,1.9148582 h 5.733528 C 24.789537,5.1278866 24.643161,4.1428393 24.348568,3.1126824 24.144193,2.42407 23.922328,1.7391399 23.610243,1.0901134 h -4.62604 z m -6.393601,-9.206e-4 c -0.313006,0.6471853 -0.538554,1.3339566 -0.738325,2.022569 -0.270658,1.0062212 -0.467668,2.0391399 -0.451097,3.0849471 h 5.437093 c -0.03222,-0.6379792 -0.04235,-1.2759584 -0.04419,-1.9139376 0.0046,-1.0651399 0.03314,-2.1312004 0.126123,-3.1935785 z m -5.5006146,0 -3.4237297,5.1075161 h 5.7280038 c 0.0046,-1.7463875 0.3802098,-3.4808072 1.0071415,-5.1075161 z"/>
</svg>
