<?xml version="1.0" encoding="UTF-8" standalone="no"?>
<!-- Generated by IcoMoon.io -->

<svg
   version="1.1"
   width="32.000999"
   height="24.801001"
   viewBox="0 0 32.000999 24.801001"
   id="svg6"
   sodipodi:docname="rakdos.svg"
   inkscape:version="1.1.1 (3bf5ae0d25, 2021-09-20)"
   xmlns:inkscape="http://www.inkscape.org/namespaces/inkscape"
   xmlns:sodipodi="http://sodipodi.sourceforge.net/DTD/sodipodi-0.dtd"
   xmlns="http://www.w3.org/2000/svg"
   xmlns:svg="http://www.w3.org/2000/svg">
  <defs
     id="defs10" />
  <sodipodi:namedview
     id="namedview8"
     pagecolor="#ffffff"
     bordercolor="#666666"
     borderopacity="1.0"
     inkscape:pageshadow="2"
     inkscape:pageopacity="0.0"
     inkscape:pagecheckerboard="0"
     showgrid="false"
     inkscape:zoom="25.75"
     inkscape:cx="15.980583"
     inkscape:cy="12.368932"
     inkscape:window-width="1920"
     inkscape:window-height="1009"
     inkscape:window-x="-8"
     inkscape:window-y="-8"
     inkscape:window-maximized="1"
     inkscape:current-layer="svg6" />
  <title
     id="title2">rakdos</title>
  <path
     fill="#000000"
     d="m 20.515,0.002 c -0.653,0.887 -1.092,1.991 -0.982,3.107 0.083,0.855 0.526,1.625 1.068,2.272 0.634,0.779 1.418,1.452 1.895,2.349 0.458,0.847 0.453,1.846 0.402,2.781 0.518,-0.273 0.929,-0.715 1.295,-1.165 0.79,-1.021 1.205,-2.352 1.034,-3.641 -0.101,-0.866 -0.466,-1.679 -0.55,-2.548 -0.044,-0.426 0.026,-0.854 0.162,-1.258 0.154,0.893 0.548,1.778 1.253,2.37 0.385,0.313 0.782,0.612 1.134,0.963 0.692,0.67 1.244,1.513 1.456,2.461 0.121,0.517 0.128,1.054 0.073,1.581 -0.329,-0.626 -0.777,-1.256 -1.468,-1.507 0.152,1.374 0.036,2.847 -0.689,4.057 0.583,0.351 1.115,0.791 1.533,1.33 0.43,0.541 0.727,1.17 1.024,1.789 0.279,0.578 0.591,1.176 1.123,1.562 0.496,0.371 1.119,0.506 1.723,0.57 -0.375,0.502 -0.974,0.786 -1.579,0.895 -0.617,0.109 -1.277,0.11 -1.86,-0.147 -0.785,-0.33 -1.391,-0.999 -2.225,-1.227 -0.499,-0.137 -1.059,-0.15 -1.526,0.101 -0.484,0.245 -0.831,0.746 -0.866,1.291 -0.041,0.452 0.14,0.886 0.369,1.265 -0.325,0.329 -0.804,0.4 -1.245,0.417 0.032,0.648 0.182,1.306 0.544,1.854 0.519,0.775 1.132,1.493 1.854,2.086 -0.848,0.189 -1.749,0.103 -2.553,-0.222 -0.681,0.771 -1.681,1.154 -2.651,1.413 0.409,-0.451 0.785,-0.958 0.957,-1.55 0.125,-0.422 0.103,-0.903 -0.129,-1.284 -0.232,-0.377 -0.703,-0.549 -1.13,-0.507 -0.411,0.062 -0.742,0.439 -0.72,0.862 -0.225,-0.155 -0.462,-0.369 -0.454,-0.667 0.04,-0.422 0.353,-0.797 0.285,-1.235 -0.046,-0.222 -0.316,-0.317 -0.506,-0.212 -0.592,0.267 -0.956,0.936 -0.916,1.578 0.011,0.22 0.078,0.432 0.145,0.641 -0.368,-0.284 -0.661,-0.692 -0.691,-1.169 -0.237,0.443 -0.483,0.884 -0.632,1.367 -0.121,-0.531 -0.201,-1.074 -0.182,-1.62 0.001,-3.531 0.008,-7.062 0.003,-10.594 C 16.29,10.07 16.375,9.69 16.632,9.452 17.293,9.281 17.959,9.493 18.613,9.591 18.718,9.26 18.691,8.893 18.495,8.602 17.74,7.32 17.328,5.816 17.474,4.325 17.53,3.398 17.864,2.493 18.429,1.757 18.98,1.025 19.707,0.435 20.512,0.004 Z m 1.399,13.978 c -0.834,0.22 -1.664,0.475 -2.441,0.853 -0.423,0.211 -0.844,0.455 -1.15,0.825 0.228,0.206 0.434,0.437 0.587,0.704 0.122,0.193 0.24,0.436 0.484,0.492 0.345,0.084 0.649,-0.156 0.915,-0.34 0.51,-0.401 0.995,-0.854 1.36,-1.395 0.145,-0.361 0.159,-0.761 0.245,-1.139 z m -11.824,0 c 0.864,0.228 1.725,0.492 2.526,0.895 0.392,0.201 0.78,0.437 1.064,0.782 -0.227,0.206 -0.434,0.436 -0.585,0.704 -0.124,0.193 -0.241,0.437 -0.485,0.493 -0.26,0.072 -0.509,-0.071 -0.721,-0.205 C 11.425,16.34 11.021,15.947 10.65,15.533 10.49,15.341 10.3,15.15 10.258,14.895 10.195,14.591 10.145,14.285 10.089,13.979 Z M 11.489,0.002 c 0.585,0.797 0.997,1.758 0.999,2.76 0.007,0.688 -0.225,1.361 -0.59,1.94 C 11.328,5.615 10.487,6.313 9.855,7.177 9.546,7.599 9.299,8.076 9.193,8.592 9.066,9.223 9.064,9.872 9.105,10.512 8.811,10.377 8.576,10.149 8.34,9.934 7.21,8.864 6.57,7.257 6.777,5.701 6.876,4.879 7.204,4.106 7.313,3.287 7.378,2.82 7.316,2.345 7.164,1.901 7.003,2.856 6.555,3.799 5.766,4.39 4.955,5.01 4.178,5.723 3.707,6.645 3.281,7.447 3.139,8.378 3.247,9.276 3.576,8.65 4.024,8.02 4.715,7.769 4.563,9.143 4.679,10.617 5.404,11.826 4.572,12.315 3.869,13.018 3.398,13.861 2.924,14.655 2.661,15.587 2.006,16.263 1.484,16.802 0.726,17.008 0,17.076 c 0.649,0.846 1.826,1.055 2.828,0.927 1.123,-0.157 1.852,-1.182 2.938,-1.431 0.47,-0.111 0.988,-0.108 1.421,0.125 0.486,0.245 0.834,0.748 0.87,1.293 0.04,0.451 -0.14,0.885 -0.369,1.264 0.324,0.329 0.803,0.4 1.244,0.417 C 8.9,20.32 8.749,20.98 8.386,21.527 7.867,22.301 7.255,23.018 6.534,23.61 c 0.848,0.188 1.749,0.103 2.553,-0.222 0.681,0.771 1.681,1.154 2.652,1.413 -0.421,-0.463 -0.806,-0.986 -0.971,-1.598 -0.118,-0.439 -0.079,-0.946 0.199,-1.318 0.352,-0.449 1.121,-0.612 1.55,-0.182 0.178,0.154 0.231,0.392 0.243,0.618 0.225,-0.155 0.462,-0.369 0.454,-0.667 -0.04,-0.424 -0.356,-0.8 -0.284,-1.239 0.044,-0.196 0.278,-0.307 0.46,-0.224 0.5,0.194 0.842,0.692 0.938,1.208 0.069,0.347 -0.008,0.698 -0.122,1.027 0.368,-0.284 0.661,-0.692 0.691,-1.17 0.237,0.443 0.483,0.885 0.632,1.367 0.101,-0.468 0.189,-0.942 0.182,-1.422 C 15.71,17.602 15.703,14.005 15.707,10.407 15.716,10.073 15.622,9.726 15.401,9.47 14.74,9.257 14.05,9.495 13.388,9.589 13.301,9.291 13.293,8.958 13.46,8.685 13.919,7.891 14.285,7.032 14.446,6.124 14.606,5.22 14.592,4.279 14.375,3.385 13.981,1.894 12.82,0.714 11.488,0 Z"
     id="path4" />
</svg>
