<?xml version="1.0" encoding="UTF-8" standalone="no"?>
<svg
   version="1.1"
   width="31.494612"
   height="28.505859"
   viewBox="0 0 31.494611 28.50586"
   id="svg4"
   xmlns="http://www.w3.org/2000/svg"
   xmlns:svg="http://www.w3.org/2000/svg">
  <defs>
    <!-- This is the gradient that will actually be used on
     the cards. The colors themselves will be provided by the
     template, but the x values, y values, and offsets will be
     used from the SVG. -->
    <linearGradient id="rarity" x1="0" y1="0" x2="1" y2="0">
      <stop offset="0" style="stop-color:rgb(192,55,38);stop-opacity:1" id="stop2" />
      <stop offset="0.125" style="stop-color:rgb(192,55,38);stop-opacity:1" id="stop4" />
      <stop offset="0.5" style="stop-color:rgb(241,142,30);stop-opacity:1" id="stop6" />
      <stop offset="0.875" style="stop-color:rgb(192,55,38);stop-opacity:1" id="stop8" />
      <stop offset="1" style="stop-color:rgb(192,55,38);stop-opacity:1" id="stop10" />
    </linearGradient>
    <!-- These gradients are here so that you can visualize
     what the set symbol would like like in that rarity. The
     only gradient that matters in the end is the "rarity"
     gradient. -->
    <linearGradient id="mythic" x1="0" y1="1" x2="1" y2="0">
      <stop offset="0" style="stop-color:rgb(192,55,38);stop-opacity:1"/>
      <stop offset="0.125" style="stop-color:rgb(192,55,38);stop-opacity:1"/>
      <stop offset="0.5" style="stop-color:rgb(241,142,30);stop-opacity:1"/>
      <stop offset="0.875" style="stop-color:rgb(192,55,38);stop-opacity:1"/>
      <stop offset="1" style="stop-color:rgb(192,55,38);stop-opacity:1"/>
    </linearGradient>
    <linearGradient id="rare" x1="0" y1="1" x2="1" y2="0">
      <stop offset="0" style="stop-color:rgb(146,116,67);stop-opacity:1"/>
      <stop offset="0.125" style="stop-color:rgb(146,116,67);stop-opacity:1"/>
      <stop offset="0.5" style="stop-color:rgb(211,178,108);stop-opacity:1"/>
      <stop offset="0.875" style="stop-color:rgb(146,116,67);stop-opacity:1"/>
      <stop offset="1" style="stop-color:rgb(146,116,67);stop-opacity:1"/>
    </linearGradient>
    <linearGradient id="special" x1="0" y1="1" x2="1" y2="0">
      <stop offset="0" style="stop-color:rgb(76, 56, 106);stop-opacity:1"/>
      <stop offset="0.125" style="stop-color:rgb(76, 56, 106);stop-opacity:1"/>
      <stop offset="0.5" style="stop-color:rgb(201, 173, 221);stop-opacity:1"/>
      <stop offset="0.875" style="stop-color:rgb(76, 56, 106);stop-opacity:1"/>
      <stop offset="1" style="stop-color:rgb(76, 56, 106);stop-opacity:1"/>
    </linearGradient>
    <linearGradient id="uncommon" x1="0" y1="1" x2="1" y2="0">
      <stop offset="0" style="stop-color:rgb(98,110,119);stop-opacity:1"/>
      <stop offset="0.125" style="stop-color:rgb(98,110,119);stop-opacity:1"/>
      <stop offset="0.5" style="stop-color:rgb(196,222,238);stop-opacity:1"/>
      <stop offset="0.875" style="stop-color:rgb(98,110,119);stop-opacity:1"/>
      <stop offset="1" style="stop-color:rgb(98,110,119);stop-opacity:1"/>
    </linearGradient>
    <linearGradient id="common" x1="0" y1="1" x2="1" y2="0">
      <stop offset="0" style="stop-color:rgb(0,0,0);stop-opacity:1"/>
    </linearGradient>
    <linearGradient
            id="rarity-outline" x1="0" y1="1" x2="0" y2="1">
      <stop offset="0" style="stop-color:rgb(0,0,0);stop-opacity:1"/>
    </linearGradient>
  </defs>
  <path fill="url(#rarity-outline)" d="m 12.799087,0 -0.08789,0.91015625 C 12.356505,4.5715043 11.996069,8.2324079 11.648697,11.898438 9.7286516,12.406178 7.9849339,13.322718 6.4592437,14.501953 5.1317257,14.113029 3.8021943,13.708026 2.4533843,13.320312 L 0.74635309,12.830078 1.21315,14.542969 c 0.395225,1.455538 0.8195123,2.885251 1.2148437,4.310547 h 0.00195 c 3.319e-4,0.0012 -3.318e-4,0.0027 0,0.0039 -0.00664,0.01148 -0.00825,0.01379 -0.015625,0.02734 -1.61535961,2.579457 -2.43102946,5.605935 -2.41406245724,8.625 l 0.005859377,0.99414 0.99414058,0.002 H 30.496353 l 0.992187,-0.002 0.0059,-0.992187 c 0.01608,-3.050577 -0.8843,-6.07393 -2.519532,-8.669922 0.38124,-1.401505 0.816604,-2.807717 1.207032,-4.259766 l 0.455078,-1.689453 -1.6875,0.464844 c -1.326908,0.366453 -2.623171,0.766013 -3.916016,1.140625 -1.542977,-1.182546 -3.313978,-2.121071 -5.28125,-2.605469 C 19.396543,8.2416443 19.057729,4.5864235 18.724868,0.9296875 l -0.08008,-0.890625 z m 7.044922,18.087891 c 0.553361,0.215278 1.055037,0.47888 1.541016,0.751953 -0.480093,0.391925 -0.963397,0.762278 -1.4375,1.142578 -0.03513,-0.631194 -0.07142,-1.262541 -0.103516,-1.894531 z m -8.333984,0.201171 c -0.03025,0.562683 -0.06552,1.124208 -0.09766,1.685547 -0.420159,-0.339494 -0.842116,-0.676954 -1.261718,-1.021484 0.428605,-0.240533 0.880921,-0.466605 1.359375,-0.664063 z m 13.076172,4.220704 c 0.254467,0.507453 0.480593,1.025828 0.685546,1.560546 -0.58769,-0.06601 -1.169164,-0.144469 -1.748046,-0.216796 0.35356,-0.450913 0.711003,-0.896853 1.0625,-1.34375 z M 6.8557281,22.613281 c 0.3280402,0.41554 0.6579133,0.831808 0.984375,1.251953 -0.5392232,0.06313 -1.0782672,0.121919 -1.6152344,0.183594 0.1883952,-0.493946 0.3998323,-0.969407 0.6308594,-1.435547 z" />
  <path fill="url(#rarity)" d="m 13.706503,1.006 c 0.317,0.002 0.633,0.002 0.951,-0.003 0.005,3.793 -0.003,7.585 0.003,11.378 0.699,-0.015 1.4,-0.005 2.099,-0.021 -0.007,-3.787 -0.008,-7.573 0,-11.36 0.322,0.007 0.646,0.013 0.97,0.02 0.352,3.867 0.707,7.735 1.086,11.599 2.259,0.38 4.3,1.54 6.06,2.966 1.449,-0.413 2.889,-0.862 4.341,-1.263 -0.413,1.536 -0.892,3.053 -1.3,4.591 1.712,2.512 2.594,5.558 2.578,8.593 -4.58,0.007 -9.157,0.005 -13.737,0.002 0.002,-3.686 -0.016,-7.373 0.008,-11.058 -0.699,-0.085 -1.403,-0.043 -2.104,-0.025 -0.008,3.693 -0.002,7.386 -0.003,11.08 -4.553,0.007 -9.1049997,0.005 -13.6579997,0 -0.016,-2.847 0.755,-5.706 2.275,-8.12 0.076,-0.174 0.268,-0.347 0.188,-0.551 -0.418,-1.522 -0.873,-3.032 -1.286,-4.553 1.482,0.426 2.956,0.882 4.438,1.311 1.732,-1.425 3.7489997,-2.543 5.9679997,-2.974 0.365,-3.872 0.748,-7.741 1.123,-11.612 z M 8.3225033,18.76 c 1.318,1.082 2.6299997,2.173 3.9779997,3.218 0.117,-1.777 0.207,-3.553 0.303,-5.331 -1.5,0.531 -3.0319997,1.097 -4.2799997,2.114 z M 18.762503,16.61 c 0.087,1.786 0.178,3.575 0.291,5.361 1.401,-1.02 2.709,-2.163 4.07,-3.236 -1.253,-1.051 -2.831,-1.609 -4.361,-2.125 z m 2.877,8.016 c 1.739,0.281 3.499,0.438 5.247,0.653 -0.479,-1.64 -1.147,-3.237 -2.063,-4.683 -1.076,1.331 -2.112,2.694 -3.185,4.03 z M 4.6195033,25.238 c 1.708,-0.178 3.408,-0.393 5.114,-0.582 -1.031,-1.326 -2.053,-2.66 -3.114,-3.961 -0.903,1.393 -1.528,2.956 -2,4.543 z"/>
</svg>
