<?xml version="1.0" encoding="UTF-8" standalone="no"?>
<!-- Generated by IcoMoon.io -->

<svg
   version="1.1"
   width="29.494457"
   height="26.51075"
   viewBox="0 0 29.494457 26.51075"
   id="svg6"
   sodipodi:docname="rix.svg"
   inkscape:version="1.1.1 (3bf5ae0d25, 2021-09-20)"
   xmlns:inkscape="http://www.inkscape.org/namespaces/inkscape"
   xmlns:sodipodi="http://sodipodi.sourceforge.net/DTD/sodipodi-0.dtd"
   xmlns="http://www.w3.org/2000/svg"
   xmlns:svg="http://www.w3.org/2000/svg">
  <defs
     id="defs10" />
  <sodipodi:namedview
     id="namedview8"
     pagecolor="#ffffff"
     bordercolor="#666666"
     borderopacity="1.0"
     inkscape:pageshadow="2"
     inkscape:pageopacity="0.0"
     inkscape:pagecheckerboard="0"
     showgrid="false"
     inkscape:zoom="25.75"
     inkscape:cx="15.009709"
     inkscape:cy="13.223301"
     inkscape:window-width="1920"
     inkscape:window-height="1009"
     inkscape:window-x="-8"
     inkscape:window-y="-8"
     inkscape:window-maximized="1"
     inkscape:current-layer="svg6" />
  <title
     id="title2">rix</title>
  <path
     fill="#000000"
     d="m 12.706244,0.006 c 0.317,0.002 0.633,0.002 0.951,-0.003 0.005,3.793 -0.003,7.585 0.003,11.378 0.699,-0.015 1.4,-0.005 2.099,-0.021 -0.007,-3.787 -0.008,-7.573 0,-11.36 0.322,0.007 0.646,0.013 0.97,0.02 0.352,3.867 0.707,7.735 1.086,11.599 2.259,0.38 4.3,1.54 6.06,2.966 1.449,-0.413 2.889,-0.862 4.341,-1.263 -0.413,1.536 -0.892,3.053 -1.3,4.591 1.712,2.512 2.594,5.558 2.578,8.593 -4.58,0.007 -9.157,0.005 -13.737,0.002 0.002,-3.686 -0.016,-7.373 0.008,-11.058 -0.699,-0.085 -1.403,-0.043 -2.104,-0.025 -0.008,3.693 -0.002,7.386 -0.003,11.08 -4.553,0.007 -9.105,0.005 -13.65799999565,0 C -0.015756,23.658 0.755244,20.799 2.275244,18.385 c 0.076,-0.174 0.268,-0.347 0.188,-0.551 -0.418,-1.522 -0.873,-3.032 -1.286,-4.553 1.482,0.426 2.956,0.882 4.438,1.311 1.732,-1.425 3.749,-2.543 5.968,-2.974 0.365,-3.872 0.748,-7.741 1.123,-11.612 z m -5.384,17.754 c 1.318,1.082 2.63,2.173 3.978,3.218 0.117,-1.777 0.207,-3.553 0.303,-5.331 -1.5,0.531 -3.032,1.097 -4.28,2.114 z m 10.44,-2.15 c 0.087,1.786 0.178,3.575 0.291,5.361 1.401,-1.02 2.709,-2.163 4.07,-3.236 -1.253,-1.051 -2.831,-1.609 -4.361,-2.125 z m 2.877,8.016 c 1.739,0.281 3.499,0.438 5.247,0.653 -0.479,-1.64 -1.147,-3.237 -2.063,-4.683 -1.076,1.331 -2.112,2.694 -3.185,4.03 z m -17.02,0.612 c 1.708,-0.178 3.408,-0.393 5.114,-0.582 -1.031,-1.326 -2.053,-2.66 -3.114,-3.961 -0.903,1.393 -1.528,2.956 -2,4.543 z"
     id="path4" />
</svg>
