<?xml version="1.0" encoding="UTF-8" standalone="no"?>
<!-- Generated by IcoMoon.io -->

<svg
   version="1.1"
   width="31.99925"
   height="18.408001"
   viewBox="0 0 31.99925 18.408001"
   id="svg6"
   sodipodi:docname="rna.svg"
   inkscape:version="1.1.1 (3bf5ae0d25, 2021-09-20)"
   xmlns:inkscape="http://www.inkscape.org/namespaces/inkscape"
   xmlns:sodipodi="http://sodipodi.sourceforge.net/DTD/sodipodi-0.dtd"
   xmlns="http://www.w3.org/2000/svg"
   xmlns:svg="http://www.w3.org/2000/svg">
  <defs
     id="defs10" />
  <sodipodi:namedview
     id="namedview8"
     pagecolor="#ffffff"
     bordercolor="#666666"
     borderopacity="1.0"
     inkscape:pageshadow="2"
     inkscape:pageopacity="0.0"
     inkscape:pagecheckerboard="0"
     showgrid="false"
     inkscape:zoom="25.75"
     inkscape:cx="15.980583"
     inkscape:cy="7.9417476"
     inkscape:window-width="1920"
     inkscape:window-height="1009"
     inkscape:window-x="-8"
     inkscape:window-y="-8"
     inkscape:window-maximized="1"
     inkscape:current-layer="svg6" />
  <title
     id="title2">rna</title>
  <path
     fill="#000000"
     d="M 0,0.003 C 1.512,0.001 3.023,0.007 4.535,0 4.015,0.301 3.652,0.869 3.65,1.476 c -0.004,1.4 -10e-4,2.8 -10e-4,4.2 1.8,-1.776 3.925,-3.24 6.279,-4.178 2.668,-1.075 5.623,-1.431 8.468,-0.999 3.779,0.554 7.262,2.504 9.954,5.178 0.002,-1.325 -0.001,-2.649 0.002,-3.974 0.061,-0.681 -0.291,-1.366 -0.888,-1.702 1.512,0.007 3.023,0.001 4.535,0.003 0,5.319 0.001,10.639 -10e-4,15.958 C 31.021,14.301 29.791,12.788 28.352,11.505 28.348,10.718 28.35,9.932 28.35,9.146 27.808,8.668 27.24,8.22 26.65,7.804 26.633,8.25 26.681,8.703 26.626,9.146 26.07,10.568 25.506,11.989 24.944,13.409 24.383,11.977 23.807,10.549 23.255,9.115 23.222,8.043 23.25,6.968 23.241,5.895 22.617,5.625 21.978,5.392 21.328,5.193 c -0.446,2.291 -0.422,4.672 0.069,6.955 -2.238,1.648 -4.098,3.803 -5.398,6.26 -1.301,-2.456 -3.16,-4.611 -5.398,-6.26 C 11.09,9.866 11.117,7.485 10.669,5.194 10.02,5.393 9.382,5.628 8.758,5.895 8.751,6.959 8.77,8.025 8.749,9.09 8.205,10.537 7.617,11.971 7.054,13.411 6.535,12.1 6.018,10.788 5.499,9.476 5.434,9.304 5.336,9.134 5.348,8.944 5.349,8.565 5.351,8.185 5.349,7.806 4.759,8.222 4.191,8.671 3.648,9.148 c 10e-4,0.785 0,1.57 10e-4,2.355 C 2.211,12.79 0.977,14.301 0,15.965 0,10.645 0,5.325 0,0.005 Z m 15.354,4.744 c -0.462,0.126 -0.883,0.392 -1.197,0.754 -0.783,0.863 -0.794,2.29 -0.026,3.166 0.742,0.922 2.18,1.148 3.169,0.496 C 18.289,8.567 18.721,7.224 18.255,6.165 17.818,5.056 16.5,4.407 15.355,4.748 Z"
     id="path4" />
</svg>
