<?xml version="1.0" encoding="UTF-8" standalone="no"?>
<!-- Generated by IcoMoon.io -->

<svg
   version="1.1"
   width="26.690001"
   height="26.549"
   viewBox="0 0 26.690001 26.549"
   id="svg6"
   sodipodi:docname="rtr.svg"
   inkscape:version="1.1.1 (3bf5ae0d25, 2021-09-20)"
   xmlns:inkscape="http://www.inkscape.org/namespaces/inkscape"
   xmlns:sodipodi="http://sodipodi.sourceforge.net/DTD/sodipodi-0.dtd"
   xmlns="http://www.w3.org/2000/svg"
   xmlns:svg="http://www.w3.org/2000/svg">
  <defs
     id="defs10" />
  <sodipodi:namedview
     id="namedview8"
     pagecolor="#ffffff"
     bordercolor="#666666"
     borderopacity="1.0"
     inkscape:pageshadow="2"
     inkscape:pageopacity="0.0"
     inkscape:pagecheckerboard="0"
     showgrid="false"
     inkscape:zoom="25.75"
     inkscape:cx="13.495146"
     inkscape:cy="13.378641"
     inkscape:window-width="1920"
     inkscape:window-height="1009"
     inkscape:window-x="-8"
     inkscape:window-y="-8"
     inkscape:window-maximized="1"
     inkscape:current-layer="svg6" />
  <title
     id="title2">rtr</title>
  <path
     fill="#000000"
     d="m 1.363,26.549 0.208,-0.662 c 0.528,-1.682 0.795,-3.471 0.795,-5.316 0,-3.038 -0.772,-6.03 -2.172,-8.424 L 0,11.815 11.304,0 v 9.22 l -0.297,0.136 c -1.988,0.913 -3.273,2.913 -3.273,5.097 0,3.092 2.517,5.607 5.611,5.607 3.094,0 5.611,-2.516 5.611,-5.607 0,-2.184 -1.285,-4.185 -3.273,-5.097 L 15.386,9.22 V 0 l 11.304,11.815 -0.194,0.332 c -1.401,2.394 -2.172,5.386 -2.172,8.424 0,1.845 0.267,3.634 0.795,5.316 l 0.208,0.662 H 1.367 Z"
     id="path4" />
</svg>
