<?xml version="1.0" encoding="UTF-8" standalone="no"?>
<svg
   version="1.1"
   width="29.486328"
   height="29.48856"
   viewBox="0 0 29.486328 29.48856"
   id="svg4"
   xmlns="http://www.w3.org/2000/svg"
   xmlns:svg="http://www.w3.org/2000/svg">
  <defs>
    <!-- This is the gradient that will actually be used on
     the cards. The colors themselves will be provided by the
     template, but the x values, y values, and offsets will be
     used from the SVG. -->
    <linearGradient id="rarity" x1="0" y1="1" x2="1" y2="0">
      <stop offset="0" style="stop-color:rgb(192,55,38);stop-opacity:1" id="stop2" />
      <stop offset="0.125" style="stop-color:rgb(192,55,38);stop-opacity:1" id="stop4" />
      <stop offset="0.5" style="stop-color:rgb(241,142,30);stop-opacity:1" id="stop6" />
      <stop offset="0.875" style="stop-color:rgb(192,55,38);stop-opacity:1" id="stop8" />
      <stop offset="1" style="stop-color:rgb(192,55,38);stop-opacity:1" id="stop10" />
    </linearGradient>
    <!-- These gradients are here so that you can visualize
     what the set symbol would like like in that rarity. The
     only gradient that matters in the end is the "rarity"
     gradient. -->
    <linearGradient id="mythic" x1="0" y1="1" x2="1" y2="0">
      <stop offset="0" style="stop-color:rgb(192,55,38);stop-opacity:1"/>
      <stop offset="0.125" style="stop-color:rgb(192,55,38);stop-opacity:1"/>
      <stop offset="0.5" style="stop-color:rgb(241,142,30);stop-opacity:1"/>
      <stop offset="0.875" style="stop-color:rgb(192,55,38);stop-opacity:1"/>
      <stop offset="1" style="stop-color:rgb(192,55,38);stop-opacity:1"/>
    </linearGradient>
    <linearGradient id="rare" x1="0" y1="1" x2="1" y2="0">
      <stop offset="0" style="stop-color:rgb(146,116,67);stop-opacity:1"/>
      <stop offset="0.125" style="stop-color:rgb(146,116,67);stop-opacity:1"/>
      <stop offset="0.5" style="stop-color:rgb(211,178,108);stop-opacity:1"/>
      <stop offset="0.875" style="stop-color:rgb(146,116,67);stop-opacity:1"/>
      <stop offset="1" style="stop-color:rgb(146,116,67);stop-opacity:1"/>
    </linearGradient>
    <linearGradient id="special" x1="0" y1="1" x2="1" y2="0">
      <stop offset="0" style="stop-color:rgb(76, 56, 106);stop-opacity:1"/>
      <stop offset="0.125" style="stop-color:rgb(76, 56, 106);stop-opacity:1"/>
      <stop offset="0.5" style="stop-color:rgb(201, 173, 221);stop-opacity:1"/>
      <stop offset="0.875" style="stop-color:rgb(76, 56, 106);stop-opacity:1"/>
      <stop offset="1" style="stop-color:rgb(76, 56, 106);stop-opacity:1"/>
    </linearGradient>
    <linearGradient id="uncommon" x1="0" y1="1" x2="1" y2="0">
      <stop offset="0" style="stop-color:rgb(98,110,119);stop-opacity:1"/>
      <stop offset="0.125" style="stop-color:rgb(98,110,119);stop-opacity:1"/>
      <stop offset="0.5" style="stop-color:rgb(196,222,238);stop-opacity:1"/>
      <stop offset="0.875" style="stop-color:rgb(98,110,119);stop-opacity:1"/>
      <stop offset="1" style="stop-color:rgb(98,110,119);stop-opacity:1"/>
    </linearGradient>
    <linearGradient id="common" x1="0" y1="1" x2="1" y2="0">
      <stop offset="0" style="stop-color:rgb(0,0,0);stop-opacity:1"/>
    </linearGradient>
    <linearGradient
            id="rarity-outline" x1="0" y1="1" x2="0" y2="1">
      <stop offset="0" style="stop-color:rgb(0,0,0);stop-opacity:1"/>
    </linearGradient>
  </defs>
  <path fill="url(#rarity-outline)" d="m 20.652344,0.00472363 c -0.877092,-0.01717542 -1.735983,0.01586258 -2.517578,0.04492188 -2.314878,0.086969 -4.786849,0.71531384 -6.765625,2.06054689 -1.9787768,1.345233 -3.4433598,3.5102625 -3.4433598,6.3339843 0,0.9225148 0.2251074,1.7279493 0.5332032,2.4804693 L 0,14.834802 l 10.007813,5.001953 0.410156,3.736328 C 10.27722,23.280945 10.142784,22.982379 10.0625,22.752771 c -0.05181,-0.148165 -0.09082,-0.271597 -0.1308594,-0.386719 -0.02002,-0.05756 -0.037241,-0.110963 -0.074219,-0.193359 -0.018489,-0.0412 -0.038289,-0.08752 -0.095703,-0.173828 -0.028707,-0.04315 -0.065584,-0.09864 -0.140625,-0.171875 -0.4343327,-0.310919 -1.097528,-0.745808 -1.5996092,-0.767578 -0.2288542,0 -0.5860004,0.07298 -0.8535157,0.34375 -0.2675153,0.270764 -0.3339842,0.618507 -0.3339843,0.841797 v 0.05469 l 0.6054687,5.498047 -0.00586,-0.109375 c 0,0.314315 0.163232,0.633239 0.3378907,0.808594 0.1720487,0.172734 0.3352393,0.25163 0.4824218,0.308593 0.0011,4.31e-4 0.00281,-4.3e-4 0.00391,0 0.462116,0.181498 0.9637649,0.335768 1.5078125,0.457032 1.7389709,0.388381 3.7469449,0.192159 5.2812499,0.03125 2.342455,-0.24138 4.971388,-1.059424 7.105469,-2.550782 1.164979,-0.81412 2.153785,-1.879733 2.841797,-3.134765 l 4.238281,0.86914 -1.001953,-1.876953 -2.755859,-5.167968 -0.0293,0.142578 c -0.183976,-0.508284 -0.373569,-1.019154 -0.669922,-1.464847 -0.222589,-0.334144 -0.553302,-0.480991 -0.808594,-0.761719 l 5.519532,-9.9824223 -4.865235,0.984375 -0.355469,-4.9902343 0.0039,0.070312 c 0,-0.2568821 -0.123593,-0.61452866 -0.345703,-0.83398439 C 23.701711,0.37706478 23.465008,0.29994659 23.28515,0.26253613 h -0.0039 -0.002 C 22.424731,0.08928782 21.52939,0.02189904 20.652297,0.00472363 Z M 18.197266,3.3367549 c 0.985441,-0.010607 1.703403,0.283195 2.146484,1.0976562 v 0.00195 c 0.08198,0.1506582 0.387822,0.8903604 0.636719,1.5136718 0.124449,0.3116557 0.244042,0.6062421 0.34961,0.8457032 0.03175,0.072011 0.06396,0.1360859 0.0957,0.2011718 L 18.841797,7.5203486 15.519532,4.0320674 c 0.709276,-0.3291592 1.484232,-0.6059088 2.238281,-0.671875 0.151635,-0.013265 0.298676,-0.021922 0.439453,-0.023437 z m 0.535156,18.9921881 1.539063,0.314453 c -0.158309,0.350043 -0.388942,0.666188 -0.691406,0.964844 -0.590783,0.583344 -1.445713,1.058116 -2.31836,1.367187 v -0.002 c -0.436316,0.153742 -0.908737,0.233025 -1.371094,0.34375 z" />
  <path fill="url(#rarity)" d="m 23.492641,7.4114585 c 0.127,0 0.188,-0.06 0.188,-0.188 l -0.412,-5.793 c 0,-0.102 -0.063,-0.162 -0.188,-0.188 -1.534,-0.31099996 -3.349,-0.25099996 -4.909,-0.193 -4.312,0.162 -9.2460004,2.407 -9.2460004,7.395 0,4.6300005 4.9120004,6.3610005 8.4000004,7.9880005 2.788,1.306 4.183,3.003 4.183,5.096 0,2.284 -1.963,3.698 -3.914,4.389 -1.629,0.574 -3.574,0.989 -5.308,0.574 -2.6790004,-0.64 -3.2440004,-3.914 -3.3710004,-3.952 l -0.895,-0.481 c -0.127,0 -0.187,0.063 -0.187,0.187 l 0.599,5.442 c 0,0.076 0.063,0.14 0.188,0.188 0.412,0.162 0.865,0.301 1.363,0.412 1.4910004,0.333 3.4440004,0.171 4.9600004,0.012 4.367,-0.45 9.998,-3.146 9.998,-8.226 0,-1.151 -0.361,-2.451 -0.998,-3.409 -2.56,-3.843 -8.042,-3.504 -10.779,-7.0370005 -1.274,-1.646 -1.214,-4.402 0.577,-5.756 1.948,-1.474 6.035,-2.572 7.481,0.086 0.333,0.612 1.094,2.784 1.218,2.784 l 1.053,0.669 z m -11.901,17.6850005 c 0.266,0.193 0.567,0.358 0.923,0.441 0.39,0.092 0.818,0.14 1.278,0.14 0.123,0 0.26,-0.013 0.39,-0.019 l 4.208,-4.42 1.595,0.326 c -0.266,-1.566 -1.516,-2.857 -3.799,-3.926 -0.326,-0.155 -0.666,-0.307 -1.024,-0.469 -2.556,-1.154 -5.5780004,-2.524 -6.9510004,-5.029 l -5.905,2.73 8.6350004,4.316 0.65,5.911 z m 2.981,-20.6090005 c -0.08,0.058 -0.165,0.108 -0.238,0.165 -0.564,0.425 -0.929,1.088 -1.034,1.868 -0.117,0.898 0.121,1.836 0.638,2.505 1.157,1.4970005 2.943,2.2290005 4.833,3.0060005 1.576,0.647 3.186,1.319 4.525,2.464 l 4.268,-7.7210005 -9.066,1.835 z m 12.776,18.5830005 -1.906,-0.39 c 0.276,-0.736 0.432,-1.509 0.464,-2.314 0.480341,0.900103 0.964444,1.807966 1.442,2.704 z"/>
</svg>
