<?xml version="1.0" encoding="UTF-8" standalone="no"?>
<!-- Generated by IcoMoon.io -->

<svg
   version="1.1"
   width="30.995001"
   height="29.60025"
   viewBox="0 0 30.995001 29.60025"
   id="svg6"
   sodipodi:docname="selesnya.svg"
   inkscape:version="1.1.1 (3bf5ae0d25, 2021-09-20)"
   xmlns:inkscape="http://www.inkscape.org/namespaces/inkscape"
   xmlns:sodipodi="http://sodipodi.sourceforge.net/DTD/sodipodi-0.dtd"
   xmlns="http://www.w3.org/2000/svg"
   xmlns:svg="http://www.w3.org/2000/svg">
  <defs
     id="defs10" />
  <sodipodi:namedview
     id="namedview8"
     pagecolor="#ffffff"
     bordercolor="#666666"
     borderopacity="1.0"
     inkscape:pageshadow="2"
     inkscape:pageopacity="0.0"
     inkscape:pagecheckerboard="0"
     showgrid="false"
     inkscape:zoom="25.75"
     inkscape:cx="15.514563"
     inkscape:cy="14.776699"
     inkscape:window-width="1920"
     inkscape:window-height="1009"
     inkscape:window-x="-8"
     inkscape:window-y="-8"
     inkscape:window-maximized="1"
     inkscape:current-layer="svg6" />
  <title
     id="title2">selesnya</title>
  <path
     fill="#000000"
     d="m 16.79,4.546 c 0.297,0.039 0.592,0.086 0.887,0.138 -0.388,0.867 -0.781,1.734 -1.234,2.57 -0.089,0.168 -0.197,0.342 -0.172,0.541 0.049,1.474 0.079,2.949 0.136,4.423 0.771,-1.216 1.513,-2.451 2.278,-3.67 0.081,-0.131 0.172,-0.269 0.169,-0.43 0.033,-1.022 0.113,-2.042 0.23,-3.059 0.28,0.101 0.558,0.208 0.835,0.321 -0.031,0.926 -0.066,1.852 -0.093,2.778 0.78,-0.492 1.556,-0.991 2.335,-1.485 0.233,0.185 0.466,0.371 0.693,0.564 -0.817,0.597 -1.646,1.179 -2.508,1.708 -0.135,0.073 -0.226,0.2 -0.293,0.335 -0.686,1.287 -1.39,2.563 -2.072,3.852 1.302,-0.691 2.593,-1.399 3.894,-2.09 0.123,-0.06 0.23,-0.15 0.298,-0.27 0.532,-0.861 1.11,-1.693 1.712,-2.506 0.193,0.226 0.38,0.459 0.565,0.693 -0.485,0.787 -0.973,1.572 -1.453,2.362 0.916,-0.037 1.832,-0.083 2.748,-0.125 0.112,0.276 0.219,0.553 0.321,0.833 -0.997,0.109 -1.997,0.199 -3.001,0.226 -0.151,-0.006 -0.295,0.04 -0.418,0.126 -1.25,0.779 -2.509,1.541 -3.758,2.321 1.415,0.053 2.831,0.081 4.247,0.13 0.186,0.003 0.387,0.029 0.553,-0.074 0.897,-0.482 1.819,-0.916 2.752,-1.324 0.053,0.294 0.099,0.589 0.138,0.886 -0.809,0.438 -1.617,0.879 -2.423,1.321 0.807,0.327 1.615,0.649 2.423,0.973 -0.039,0.296 -0.086,0.591 -0.138,0.885 -0.966,-0.389 -1.935,-0.774 -2.9,-1.167 -0.093,-0.035 -0.187,-0.073 -0.287,-0.077 -1.153,-0.017 -2.326,0.197 -3.356,0.729 -0.781,0.402 -1.463,1.016 -1.885,1.791 -0.537,0.973 -0.655,2.139 -0.468,3.224 0.162,0.939 0.644,1.822 1.363,2.451 0.889,0.788 2.055,1.198 3.219,1.347 0.7,0.098 1.407,0.061 2.112,0.071 -0.381,0.39 -0.784,0.762 -1.213,1.099 -0.12,0.072 -0.27,-0.009 -0.398,-0.024 -0.741,-0.171 -1.482,-0.343 -2.226,-0.504 0.686,0.329 1.385,0.632 2.081,0.944 -0.303,0.213 -0.616,0.411 -0.933,0.601 -0.81,-0.358 -1.608,-0.741 -2.417,-1.103 0.609,0.478 1.23,0.94 1.842,1.414 -0.313,0.155 -0.631,0.299 -0.953,0.437 -0.259,-0.196 -0.515,-0.397 -0.777,-0.59 0.017,0.283 0.039,0.567 0.06,0.85 -0.295,0.087 -0.587,0.191 -0.89,0.25 -0.068,0.016 -0.13,-0.028 -0.189,-0.053 -0.255,-0.138 -0.503,-0.292 -0.76,-0.428 0.065,0.217 0.135,0.433 0.205,0.648 -0.31,0.05 -0.62,0.094 -0.932,0.131 -0.083,-0.257 -0.164,-0.514 -0.252,-0.769 -0.159,0.27 -0.308,0.546 -0.459,0.821 -0.354,0.011 -0.708,0.011 -1.062,0 -0.151,-0.275 -0.301,-0.551 -0.459,-0.822 -0.088,0.255 -0.169,0.513 -0.252,0.771 -0.312,-0.037 -0.622,-0.082 -0.932,-0.132 0.07,-0.215 0.14,-0.432 0.205,-0.648 -0.282,0.146 -0.547,0.323 -0.833,0.462 -0.067,0.039 -0.143,0.015 -0.212,0.001 -0.268,-0.065 -0.53,-0.152 -0.795,-0.232 0.022,-0.283 0.044,-0.567 0.061,-0.85 -0.262,0.193 -0.518,0.393 -0.777,0.59 -0.321,-0.137 -0.64,-0.281 -0.953,-0.436 0.557,-0.444 1.146,-0.847 1.684,-1.313 -0.753,0.324 -1.487,0.69 -2.239,1.015 -0.316,-0.193 -0.631,-0.389 -0.934,-0.601 0.714,-0.314 1.43,-0.625 2.13,-0.97 -0.838,0.168 -1.667,0.38 -2.503,0.558 -0.081,0.018 -0.169,0.02 -0.23,-0.045 -0.418,-0.326 -0.802,-0.695 -1.172,-1.073 0.727,-0.008 1.458,0.028 2.181,-0.079 1.17,-0.159 2.338,-0.587 3.216,-1.398 0.697,-0.636 1.156,-1.516 1.306,-2.445 0.182,-1.129 0.035,-2.343 -0.57,-3.329 -0.5,-0.826 -1.297,-1.441 -2.179,-1.815 C 9.774,16.404 8.751,16.238 7.738,16.255 7.638,16.258 7.543,16.297 7.451,16.332 6.486,16.725 5.518,17.11 4.55,17.499 4.497,17.205 4.451,16.91 4.412,16.614 5.22,16.291 6.029,15.969 6.835,15.642 6.028,15.2 5.221,14.759 4.412,14.321 4.451,14.025 4.497,13.73 4.55,13.436 c 0.917,0.405 1.829,0.823 2.71,1.302 0.139,0.088 0.303,0.11 0.465,0.098 1.459,-0.048 2.919,-0.08 4.377,-0.133 C 10.893,13.947 9.673,13.21 8.463,12.455 8.315,12.366 8.166,12.253 7.985,12.259 6.962,12.231 5.941,12.144 4.925,12.03 5.027,11.75 5.135,11.473 5.246,11.197 6.162,11.238 7.078,11.285 7.994,11.322 7.514,10.532 7.026,9.747 6.541,8.959 6.726,8.725 6.912,8.493 7.106,8.266 c 0.525,0.735 1.076,1.453 1.542,2.227 0.121,0.19 0.203,0.432 0.427,0.527 1.314,0.7 2.62,1.414 3.935,2.112 C 12.328,11.844 11.623,10.567 10.938,9.28 10.871,9.145 10.78,9.018 10.645,8.945 9.784,8.413 8.952,7.837 8.137,7.237 8.365,7.044 8.597,6.858 8.83,6.673 9.609,7.167 10.384,7.666 11.165,8.158 11.138,7.232 11.103,6.306 11.072,5.38 c 0.276,-0.112 0.555,-0.219 0.835,-0.321 0.113,1.016 0.2,2.036 0.23,3.058 -0.004,0.162 0.087,0.299 0.169,0.43 0.765,1.219 1.507,2.454 2.278,3.67 C 14.64,10.765 14.668,9.311 14.718,7.858 14.729,7.707 14.715,7.553 14.635,7.422 14.154,6.529 13.722,5.611 13.313,4.683 13.608,4.631 13.904,4.585 14.2,4.545 c 0.43,0.819 0.861,1.637 1.292,2.454 0.433,-0.817 0.862,-1.636 1.293,-2.454 z m -1.294,21.158 c -0.179,0.541 -0.35,1.086 -0.53,1.627 -0.025,0.1 -0.086,0.214 -0.017,0.312 0.175,0.334 0.369,0.659 0.548,0.992 0.181,-0.332 0.373,-0.658 0.549,-0.992 0.065,-0.098 0.008,-0.212 -0.018,-0.312 -0.181,-0.541 -0.35,-1.086 -0.532,-1.627 z m -1.111,0.42 c -0.531,0.418 -1.085,0.809 -1.605,1.24 -0.111,0.245 -0.06,0.542 -0.099,0.808 0.357,-0.203 0.714,-0.405 1.072,-0.605 0.086,-0.056 0.198,-0.101 0.229,-0.209 0.145,-0.407 0.264,-0.825 0.402,-1.235 z m 2.232,0.009 c 0.11,0.364 0.23,0.724 0.344,1.087 0.037,0.098 0.06,0.22 0.163,0.273 0.391,0.235 0.794,0.449 1.189,0.678 -0.023,-0.257 -0.016,-0.519 -0.069,-0.773 -0.066,-0.085 -0.157,-0.147 -0.24,-0.213 -0.465,-0.347 -0.921,-0.706 -1.387,-1.053 z M 3.186,14.169 v 0 0 C 2.12,14.789 1.061,15.421 0,16.049 1.061,16.676 2.121,17.308 3.187,17.929 3.018,16.682 3.02,15.416 3.186,14.169 Z m 24.621,-0.002 v 0 0 c 0.105,0.779 0.145,1.566 0.119,2.352 -0.011,0.314 -0.037,0.628 -0.063,0.941 -0.013,0.157 -0.037,0.312 -0.055,0.468 1.066,-0.62 2.125,-1.252 3.187,-1.88 -2.122,-1.258 -1.06,-0.631 -3.187,-1.881 v 0 z m -1.164,-3.846 c 0.537,1.134 0.916,2.343 1.122,3.581 0.826,-0.936 1.648,-1.875 2.472,-2.812 -1.198,-0.255 -2.395,-0.519 -3.594,-0.769 z m -22.292,0 v 0 c -1.2,0.25 -2.396,0.513 -3.594,0.769 0.824,0.937 1.645,1.876 2.471,2.812 0.208,-1.238 0.585,-2.446 1.123,-3.58 z M 28.035,6.617 c -1.217,0.138 -2.435,0.274 -3.651,0.417 0.85,0.912 1.577,1.938 2.14,3.051 z m -25.076,0 C 3.461,7.774 3.967,8.929 4.47,10.085 5.033,8.972 5.76,7.946 6.61,7.034 5.393,6.892 4.176,6.755 2.959,6.617 Z m 3.43,-3.548 v 0 C 6.518,4.331 6.656,5.591 6.79,6.852 7.658,5.974 8.653,5.226 9.734,4.631 8.621,4.108 7.506,3.585 6.39,3.069 Z m 18.215,0 c -1.116,0.516 -2.23,1.039 -3.343,1.562 1.081,0.594 2.076,1.343 2.944,2.221 0.132,-1.261 0.271,-2.521 0.4,-3.783 z M 20.285,0.791 c -0.909,0.848 -1.811,1.703 -2.719,2.553 1.203,0.217 2.373,0.611 3.463,1.163 C 20.535,2.029 20.784,3.268 20.284,0.79 Z m -9.576,0 C 10.457,2.029 10.21,3.269 9.964,4.508 11.055,3.955 12.224,3.561 13.427,3.345 12.518,2.497 11.619,1.638 10.708,0.792 Z M 15.497,0 v 0 0 c -1.214,2.202 -0.608,1.101 -1.819,3.304 1.205,-0.177 2.434,-0.177 3.639,0 C 16.105,1.101 16.711,2.202 15.498,0 v 0 z"
     id="path4" />
</svg>
