<?xml version="1.0" encoding="UTF-8" standalone="no"?>
<!-- Generated by IcoMoon.io -->

<svg
   version="1.1"
   width="28.000324"
   height="23.101646"
   viewBox="0 0 28.000324 23.101646"
   id="svg6"
   sodipodi:docname="soi.svg"
   inkscape:version="1.1.1 (3bf5ae0d25, 2021-09-20)"
   xmlns:inkscape="http://www.inkscape.org/namespaces/inkscape"
   xmlns:sodipodi="http://sodipodi.sourceforge.net/DTD/sodipodi-0.dtd"
   xmlns="http://www.w3.org/2000/svg"
   xmlns:svg="http://www.w3.org/2000/svg">
  <defs
     id="defs10" />
  <sodipodi:namedview
     id="namedview8"
     pagecolor="#ffffff"
     bordercolor="#666666"
     borderopacity="1.0"
     inkscape:pageshadow="2"
     inkscape:pageopacity="0.0"
     inkscape:pagecheckerboard="0"
     showgrid="false"
     inkscape:zoom="25.75"
     inkscape:cx="14"
     inkscape:cy="11.514563"
     inkscape:window-width="1920"
     inkscape:window-height="1009"
     inkscape:window-x="-8"
     inkscape:window-y="-8"
     inkscape:window-maximized="1"
     inkscape:current-layer="svg6" />
  <title
     id="title2">soi</title>
  <path
     fill="#000000"
     d="m 10.758324,0.54964702 c 1.763,-0.616 3.7,-0.717 5.518,-0.289 2.081,0.483 3.991,1.66599998 5.355,3.30899998 1.184,1.417 1.966,3.167 2.218,4.997 0.191,1.412 0.095,2.866 -0.315,4.232 -0.355,1.211 -0.962,2.337 -1.73,3.335 0.418,0.503 0.829,1.012 1.256,1.508 0.53,0.068 1.079,0.007 1.618,0.028 1.118,-2.917 2.195,-5.85 3.322,-8.763 -0.039,4.731 -0.036,9.462 -0.065,14.193 -3.741,-1.297 -7.468,-2.639 -11.207,-3.942 -0.523,-3.644 -1.011,-7.294 -1.521,-10.94 1.268,1.487 2.496,3.009 3.763,4.499 0.498,-1.036 0.805,-2.197 0.655,-3.351 -0.147,-1.524 -0.959,-2.967 -2.175,-3.895 -0.983,-0.761 -2.226,-1.193 -3.472,-1.168 -1.311,-0.011 -2.61,0.488 -3.606,1.335 -1.506,1.255 -2.275,3.336 -1.922,5.268 0.097,0.614 0.333,1.192 0.577,1.759 1.252,-1.469 2.462,-2.974 3.714,-4.443 -0.501,3.645 -1.001,7.291 -1.514,10.934 -3.738,1.308 -7.468,2.645 -11.20900001,3.946 -0.016,-4.74 -0.023,-9.48 -0.015,-14.218 1.17300001,2.921 2.31500001,5.856 3.46300001,8.786 0.513,0.01 1.028,0.013 1.541,0.002 0.421,-0.504 0.772,-1.069 1.166,-1.597 -1.064,-1.407 -1.796,-3.077 -2.007,-4.834 -0.283,-2.178 0.168,-4.449 1.293,-6.338 1.177,-2.017 3.091,-3.587 5.298,-4.35199998 z"
     id="path4" />
</svg>
