<?xml version="1.0" encoding="UTF-8" standalone="no"?>
<svg
   version="1.1"
   width="29.523132"
   height="24.804834"
   viewBox="0 0 29.523132 24.804834"
   id="svg4"
   xmlns="http://www.w3.org/2000/svg"
   xmlns:svg="http://www.w3.org/2000/svg">
  <defs>
    <!-- This is the gradient that will actually be used on
     the cards. The colors themselves will be provided by the
     template, but the x values, y values, and offsets will be
     used from the SVG. -->
    <linearGradient id="rarity" x1="0" y1="1" x2="1" y2="0">
      <stop offset="0" style="stop-color:rgb(192,55,38);stop-opacity:1" id="stop2" />
      <stop offset="0.125" style="stop-color:rgb(192,55,38);stop-opacity:1" id="stop4" />
      <stop offset="0.5" style="stop-color:rgb(241,142,30);stop-opacity:1" id="stop6" />
      <stop offset="0.875" style="stop-color:rgb(192,55,38);stop-opacity:1" id="stop8" />
      <stop offset="1" style="stop-color:rgb(192,55,38);stop-opacity:1" id="stop10" />
    </linearGradient>
    <!-- These gradients are here so that you can visualize
     what the set symbol would like like in that rarity. The
     only gradient that matters in the end is the "rarity"
     gradient. -->
    <linearGradient id="mythic" x1="0" y1="1" x2="1" y2="0">
      <stop offset="0" style="stop-color:rgb(192,55,38);stop-opacity:1"/>
      <stop offset="0.125" style="stop-color:rgb(192,55,38);stop-opacity:1"/>
      <stop offset="0.5" style="stop-color:rgb(241,142,30);stop-opacity:1"/>
      <stop offset="0.875" style="stop-color:rgb(192,55,38);stop-opacity:1"/>
      <stop offset="1" style="stop-color:rgb(192,55,38);stop-opacity:1"/>
    </linearGradient>
    <linearGradient id="rare" x1="0" y1="1" x2="1" y2="0">
      <stop offset="0" style="stop-color:rgb(146,116,67);stop-opacity:1"/>
      <stop offset="0.125" style="stop-color:rgb(146,116,67);stop-opacity:1"/>
      <stop offset="0.5" style="stop-color:rgb(211,178,108);stop-opacity:1"/>
      <stop offset="0.875" style="stop-color:rgb(146,116,67);stop-opacity:1"/>
      <stop offset="1" style="stop-color:rgb(146,116,67);stop-opacity:1"/>
    </linearGradient>
    <linearGradient id="special" x1="0" y1="1" x2="1" y2="0">
      <stop offset="0" style="stop-color:rgb(76, 56, 106);stop-opacity:1"/>
      <stop offset="0.125" style="stop-color:rgb(76, 56, 106);stop-opacity:1"/>
      <stop offset="0.5" style="stop-color:rgb(201, 173, 221);stop-opacity:1"/>
      <stop offset="0.875" style="stop-color:rgb(76, 56, 106);stop-opacity:1"/>
      <stop offset="1" style="stop-color:rgb(76, 56, 106);stop-opacity:1"/>
    </linearGradient>
    <linearGradient id="uncommon" x1="0" y1="1" x2="1" y2="0">
      <stop offset="0" style="stop-color:rgb(98,110,119);stop-opacity:1"/>
      <stop offset="0.125" style="stop-color:rgb(98,110,119);stop-opacity:1"/>
      <stop offset="0.5" style="stop-color:rgb(196,222,238);stop-opacity:1"/>
      <stop offset="0.875" style="stop-color:rgb(98,110,119);stop-opacity:1"/>
      <stop offset="1" style="stop-color:rgb(98,110,119);stop-opacity:1"/>
    </linearGradient>
    <linearGradient id="common" x1="0" y1="1" x2="1" y2="0">
      <stop offset="0" style="stop-color:rgb(0,0,0);stop-opacity:1"/>
    </linearGradient>
    <linearGradient
            id="rarity-outline" x1="0" y1="1" x2="0" y2="1">
      <stop offset="0" style="stop-color:rgb(0,0,0);stop-opacity:1"/>
    </linearGradient>
  </defs>
  <path fill="url(#rarity-outline)" d="M 14.958984 0.001953125 C 14.708975 -0.002537875 14.457951 0.000545075 14.207031 0.013671875 C 13.205019 0.066091375 12.211703 0.25986799 11.261719 0.59179688 L 11.154297 0.62890625 A 0.250025 0.250025 0 0 0 11.0625 0.68554688 L 11.017578 0.73046875 C 8.7543168 1.5839613 6.7857963 3.1752414 5.5625 5.2695312 L 5.5644531 5.2695312 C 4.3494778 7.3096204 3.8672034 9.7411485 4.171875 12.085938 C 4.3782935 13.795884 5.0830095 15.380263 6.0351562 16.773438 C 5.8109408 17.088548 5.5921103 17.392346 5.3769531 17.671875 C 5.1608397 17.673675 4.9445558 17.672233 4.7265625 17.669922 C 3.6414014 14.898634 2.5607717 12.1215 1.4492188 9.3535156 L 0.49023438 6.9648438 A 0.250025 0.250025 0 0 0 0.0078125 7.0585938 L 0.00390625 9.6328125 C -0.00409675 14.372339 0.001575225 19.112528 0.017578125 23.853516 A 0.250025 0.250025 0 0 0 0.017578125 23.855469 L 0.021484375 24.556641 A 0.250025 0.250025 0 0 0 0.35351562 24.791016 L 1.0136719 24.560547 C 4.7591706 23.257982 8.4902183 21.920019 12.224609 20.613281 L 12.511719 20.513672 A 0.250025 0.250025 0 0 0 12.677734 20.3125 L 12.720703 20.009766 C 13.233958 16.364961 13.733401 12.717083 14.234375 9.0722656 L 14.466797 7.3789062 A 0.250025 0.250025 0 0 0 14.029297 7.1835938 L 12.921875 8.484375 C 11.951913 9.6224532 11.010776 10.76949 10.0625 11.904297 C 10.01818 11.782757 9.9554628 11.640404 9.9394531 11.539062 L 9.9414062 11.564453 A 0.250025 0.250025 0 0 0 9.9296875 11.496094 L 9.9375 11.521484 C 9.6366128 9.8747351 10.315651 8.036111 11.603516 6.9628906 A 0.250025 0.250025 0 0 0 11.693359 6.7714844 L 11.693359 6.8730469 L 11.623047 6.9453125 C 12.482068 6.2212778 13.613548 5.7934283 14.722656 5.8027344 A 0.250025 0.250025 0 0 0 14.724609 5.8027344 L 14.730469 5.8027344 L 14.738281 5.8027344 A 0.250025 0.250025 0 0 0 14.744141 5.8027344 C 15.803477 5.7814794 16.88631 6.1545805 17.734375 6.8085938 A 0.250025 0.250025 0 0 0 17.744141 6.8164062 C 18.789193 7.6139462 19.502998 8.8821687 19.628906 10.1875 A 0.250025 0.250025 0 0 0 19.628906 10.193359 A 0.250025 0.250025 0 0 0 19.634766 10.224609 L 19.630859 10.210938 C 19.694949 10.70549 19.487334 11.255277 19.308594 11.804688 C 18.386465 10.6995 17.469858 9.585768 16.527344 8.4804688 L 15.414062 7.1757812 A 0.250025 0.250025 0 0 0 14.976562 7.3730469 L 15.214844 9.0722656 C 15.724412 12.715178 16.210681 16.364834 16.734375 20.013672 A 0.250025 0.250025 0 0 0 16.734375 20.015625 L 16.779297 20.316406 A 0.250025 0.250025 0 0 0 16.945312 20.515625 L 17.232422 20.615234 C 20.9665 21.916519 24.692792 23.259631 28.439453 24.558594 L 29.099609 24.787109 A 0.250025 0.250025 0 0 0 29.431641 24.552734 L 29.435547 23.855469 C 29.464577 19.12103 29.46104 14.388642 29.5 9.6621094 L 29.523438 6.921875 A 0.250025 0.250025 0 0 0 29.041016 6.8300781 L 28.050781 9.3867188 C 26.98369 12.14487 25.961735 14.911539 24.912109 17.662109 C 24.646204 17.663609 24.391479 17.662466 24.169922 17.650391 C 23.92768 17.364022 23.686469 17.07194 23.443359 16.777344 C 24.086955 15.855552 24.677583 14.87394 25.003906 13.761719 L 25.003906 13.759766 C 25.445235 12.286215 25.548141 10.727797 25.34375 9.2167969 A 0.250025 0.250025 0 0 0 25.341797 9.2148438 L 25.339844 9.2089844 C 25.067441 7.2378362 24.230251 5.3636215 22.957031 3.8398438 C 21.486818 2.0689044 19.441594 0.80063304 17.197266 0.27929688 A 0.250025 0.250025 0 0 0 17.195312 0.27929688 L 17.185547 0.27734375 A 0.250025 0.250025 0 0 0 17.140625 0.2734375 C 16.423443 0.10876876 15.692261 0.015124235 14.958984 0.001953125 z " />
  <path fill="url(#rarity)" d="m 11.508019,1.299631 c 1.763,-0.61599999 3.7,-0.71699999 5.518,-0.289 2.081,0.483 3.991,1.666 5.355,3.309 1.184,1.417 1.966,3.167 2.218,4.997 0.191,1.412 0.095,2.866 -0.315,4.232 -0.355,1.211 -0.962,2.337 -1.73,3.335 0.418,0.503 0.829,1.012 1.256,1.508 0.53,0.068 1.079,0.007 1.618,0.028 1.118,-2.917 2.195,-5.85 3.322,-8.763 -0.039,4.731 -0.036,9.462 -0.065,14.193 -3.741,-1.297 -7.468,-2.639 -11.207,-3.942 -0.523,-3.644 -1.011,-7.294 -1.521,-10.94 1.268,1.487 2.496,3.009 3.763,4.499 0.498,-1.036 0.805,-2.197 0.655,-3.351 -0.147,-1.524 -0.959,-2.967 -2.175,-3.895 -0.983,-0.761 -2.226,-1.193 -3.472,-1.168 -1.311,-0.011 -2.61,0.488 -3.606,1.335 -1.5059999,1.255 -2.2749999,3.336 -1.9219999,5.268 0.097,0.614 0.333,1.192 0.577,1.759 1.2519999,-1.469 2.4619999,-2.974 3.7139999,-4.443 -0.501,3.645 -1.001,7.291 -1.514,10.934 -3.7379999,1.308 -7.4679999,2.645 -11.20899993,3.946 -0.016,-4.74 -0.023,-9.48 -0.015,-14.218 1.17300003,2.921 2.31500003,5.856 3.46300003,8.786 0.513,0.01 1.028,0.013 1.541,0.002 0.421,-0.504 0.772,-1.069 1.166,-1.597 -1.064,-1.407 -1.796,-3.077 -2.007,-4.834 -0.283,-2.178 0.168,-4.449 1.293,-6.338 1.177,-2.017 3.091,-3.587 5.2979999,-4.352 z"/>
</svg>
