<?xml version="1.0" encoding="UTF-8" standalone="no"?>
<!-- Generated by IcoMoon.io -->

<svg
   version="1.1"
   width="26.709999"
   height="26.709999"
   viewBox="0 0 26.709999 26.709999"
   id="svg6"
   sodipodi:docname="som.svg"
   inkscape:version="1.1.1 (3bf5ae0d25, 2021-09-20)"
   xmlns:inkscape="http://www.inkscape.org/namespaces/inkscape"
   xmlns:sodipodi="http://sodipodi.sourceforge.net/DTD/sodipodi-0.dtd"
   xmlns="http://www.w3.org/2000/svg"
   xmlns:svg="http://www.w3.org/2000/svg">
  <defs
     id="defs10" />
  <sodipodi:namedview
     id="namedview8"
     pagecolor="#ffffff"
     bordercolor="#666666"
     borderopacity="1.0"
     inkscape:pageshadow="2"
     inkscape:pageopacity="0.0"
     inkscape:pagecheckerboard="0"
     showgrid="false"
     inkscape:zoom="25.75"
     inkscape:cx="13.495146"
     inkscape:cy="13.339806"
     inkscape:window-width="1920"
     inkscape:window-height="1009"
     inkscape:window-x="-8"
     inkscape:window-y="-8"
     inkscape:window-maximized="1"
     inkscape:current-layer="svg6" />
  <title
     id="title2">som</title>
  <path
     fill="#000000"
     d="M 13.355,1.981 C 7.073,1.981 1.98,7.073 1.98,13.355 1.98,19.637 7.072,24.73 13.355,24.73 19.637,24.73 24.73,19.638 24.73,13.355 24.73,7.072 19.637,1.981 13.355,1.981 Z M 26.71,13.355 C 26.71,20.733 20.73,26.71 13.355,26.71 5.98,26.71 0,20.733 0,13.355 0,5.979 5.98,0 13.355,0 20.73,0 26.71,5.98 26.71,13.355 Z m -15,6.633 v -4.75 l 4.115,-2.377 4.114,2.377 v 4.38 l 1.806,-1.04 V 8.854 L 13.323,3.99 4.901,8.854 v 9.724 l 8.422,4.861 2.182,-1.258 -3.796,-2.193 z"
     id="path4" />
</svg>
