<?xml version="1.0" encoding="UTF-8" standalone="no"?>
<svg
   version="1.1"
   width="30.707031"
   height="32.884766"
   viewBox="0 0 30.707031 32.884766"
   id="svg4"
   xmlns="http://www.w3.org/2000/svg"
   xmlns:svg="http://www.w3.org/2000/svg">
  <defs>
    <!-- This is the gradient that will actually be used on
     the cards. The colors themselves will be provided by the
     template, but the x values, y values, and offsets will be
     used from the SVG. -->
    <linearGradient id="rarity" x1="0" y1="0" x2="1" y2="0">
      <stop offset="0" style="stop-color:rgb(192,55,38);stop-opacity:1" id="stop2" />
      <stop offset="0.125" style="stop-color:rgb(192,55,38);stop-opacity:1" id="stop4" />
      <stop offset="0.5" style="stop-color:rgb(241,142,30);stop-opacity:1" id="stop6" />
      <stop offset="0.875" style="stop-color:rgb(192,55,38);stop-opacity:1" id="stop8" />
      <stop offset="1" style="stop-color:rgb(192,55,38);stop-opacity:1" id="stop10" />
    </linearGradient>
    <!-- These gradients are here so that you can visualize
     what the set symbol would like like in that rarity. The
     only gradient that matters in the end is the "rarity"
     gradient. -->
    <linearGradient id="mythic" x1="0" y1="1" x2="1" y2="0">
      <stop offset="0" style="stop-color:rgb(192,55,38);stop-opacity:1"/>
      <stop offset="0.125" style="stop-color:rgb(192,55,38);stop-opacity:1"/>
      <stop offset="0.5" style="stop-color:rgb(241,142,30);stop-opacity:1"/>
      <stop offset="0.875" style="stop-color:rgb(192,55,38);stop-opacity:1"/>
      <stop offset="1" style="stop-color:rgb(192,55,38);stop-opacity:1"/>
    </linearGradient>
    <linearGradient id="rare" x1="0" y1="1" x2="1" y2="0">
      <stop offset="0" style="stop-color:rgb(146,116,67);stop-opacity:1"/>
      <stop offset="0.125" style="stop-color:rgb(146,116,67);stop-opacity:1"/>
      <stop offset="0.5" style="stop-color:rgb(211,178,108);stop-opacity:1"/>
      <stop offset="0.875" style="stop-color:rgb(146,116,67);stop-opacity:1"/>
      <stop offset="1" style="stop-color:rgb(146,116,67);stop-opacity:1"/>
    </linearGradient>
    <linearGradient id="special" x1="0" y1="1" x2="1" y2="0">
      <stop offset="0" style="stop-color:rgb(76, 56, 106);stop-opacity:1"/>
      <stop offset="0.125" style="stop-color:rgb(76, 56, 106);stop-opacity:1"/>
      <stop offset="0.5" style="stop-color:rgb(201, 173, 221);stop-opacity:1"/>
      <stop offset="0.875" style="stop-color:rgb(76, 56, 106);stop-opacity:1"/>
      <stop offset="1" style="stop-color:rgb(76, 56, 106);stop-opacity:1"/>
    </linearGradient>
    <linearGradient id="uncommon" x1="0" y1="1" x2="1" y2="0">
      <stop offset="0" style="stop-color:rgb(98,110,119);stop-opacity:1"/>
      <stop offset="0.125" style="stop-color:rgb(98,110,119);stop-opacity:1"/>
      <stop offset="0.5" style="stop-color:rgb(196,222,238);stop-opacity:1"/>
      <stop offset="0.875" style="stop-color:rgb(98,110,119);stop-opacity:1"/>
      <stop offset="1" style="stop-color:rgb(98,110,119);stop-opacity:1"/>
    </linearGradient>
    <linearGradient id="common" x1="0" y1="1" x2="1" y2="0">
      <stop offset="0" style="stop-color:rgb(0,0,0);stop-opacity:1"/>
    </linearGradient>
    <linearGradient
            id="rarity-outline" x1="0" y1="1" x2="0" y2="1">
      <stop offset="0" style="stop-color:rgb(0,0,0);stop-opacity:1"/>
    </linearGradient>
  </defs>
  <path fill="url(#rarity-outline)" d="M 15.388672,0 C 13.673389,0 12.085349,0.55207255 10.791016,1.4863281 L 10.185547,1.3222656 C 7.4497356,0.57531057 5.2626374,0.12362346 1.5878906,0.31445312 l -0.71289062,0.0371094 0.001953,0.7148437 c 9.1923e-4,0.3258887 -7.4485e-4,0.6525708 0,0.9785157 H 0 V 27.128906 l 13.1875,5.695312 4.339844,0.06055 13.179687,-5.757812 -0.002,-25.0820311 h -0.880859 c 5e-6,-0.3261738 0,-0.6523439 0,-0.9785157 V 0.37304988 L 29.134718,0.31836238 C 28.766013,0.28878468 28.396908,0.26975108 28.02925,0.26172178 25.455645,0.20551678 22.914487,0.65729363 20.486281,1.328128 L 19.964844,1.4726562 C 18.674412,0.54686411 17.095404,0 15.388672,0 Z" />
  <path fill="url(#rarity)" d="m 1.6269531,1.0639084 c 3.601,-0.18699996 5.648,0.24 8.362,0.981 -2.605,2.447 -3.278,6.662 -1.478,9.7660006 0.663,1.228 1.6949999,2.207 2.8419999,2.981999 -0.01,0.79 -0.01,1.58 -0.01,2.368 -2.6859999,2.742 -2.1639999,7.738 1.004,9.886 -1.104,-2.498 -0.864,-6.147 1.827,-7.521 0.005,-2.227 0.005,-4.455 0,-6.683 -1.328,-0.377 -2.531,-1.241 -3.188,-2.475 -1.0419999,-1.8379996 -0.777,-4.3099996 0.65,-5.8719996 1.32,-1.537 3.629,-2.1 5.505,-1.325 2.087,0.798 3.428,3.104 3.132,5.314 -0.196,2.0619996 -1.792,3.8359996 -3.782,4.3579996 -0.003,2.23 -0.005,4.463 0.003,6.695 2.684,1.374 2.928,5.029 1.807,7.519 3.176,-2.146 3.706,-7.157 1.009,-9.899 -0.005,-0.795 -0.005,-1.593 0.003,-2.388 2.179,-1.338 3.673,-3.734 3.831,-6.2949996 0.191,-2.373 -0.775,-4.758 -2.457,-6.423 2.722,-0.752 5.559,-1.21299996 8.388,-0.986 0,8.451 -0.003,16.9029996 0.003,25.3539996 -3.262,0.11 -6.565,0.515 -9.624,1.705 -1.565,0.599 -3.023,1.516 -4.119,2.801 -1.3,-1.601 -3.204,-2.549 -5.13,-3.176 -2.7679999,-0.889 -5.6779999,-1.241 -8.5759999,-1.328 0,-8.454 0,-16.9049996 0,-25.3589996 z m 13.1209999,5.043 c -1.313,0.393 -1.708,2.286 -0.663,3.173 0.91,0.9299996 2.651,0.451 2.995,-0.793 0.535,-1.366 -0.948,-2.921 -2.332,-2.38 z"/>
</svg>
