<?xml version="1.0" encoding="UTF-8" standalone="no"?>
<svg
   version="1.1"
   width="29.903"
   height="29.999876"
   viewBox="0 0 29.903 29.999876"
   id="svg4"
   xmlns="http://www.w3.org/2000/svg"
   xmlns:svg="http://www.w3.org/2000/svg">
  <defs>
    <!-- This is the gradient that will actually be used on
     the cards. The colors themselves will be provided by the
     template, but the x values, y values, and offsets will be
     used from the SVG. -->
    <linearGradient id="rarity" x1="0" y1="0" x2="1" y2="0">
      <stop offset="0" style="stop-color:rgb(192,55,38);stop-opacity:1" id="stop2" />
      <stop offset="0.125" style="stop-color:rgb(192,55,38);stop-opacity:1" id="stop4" />
      <stop offset="0.5" style="stop-color:rgb(241,142,30);stop-opacity:1" id="stop6" />
      <stop offset="0.875" style="stop-color:rgb(192,55,38);stop-opacity:1" id="stop8" />
      <stop offset="1" style="stop-color:rgb(192,55,38);stop-opacity:1" id="stop10" />
    </linearGradient>
    <!-- These gradients are here so that you can visualize
     what the set symbol would like like in that rarity. The
     only gradient that matters in the end is the "rarity"
     gradient. -->
    <linearGradient id="mythic" x1="0" y1="1" x2="1" y2="0">
      <stop offset="0" style="stop-color:rgb(192,55,38);stop-opacity:1"/>
      <stop offset="0.125" style="stop-color:rgb(192,55,38);stop-opacity:1"/>
      <stop offset="0.5" style="stop-color:rgb(241,142,30);stop-opacity:1"/>
      <stop offset="0.875" style="stop-color:rgb(192,55,38);stop-opacity:1"/>
      <stop offset="1" style="stop-color:rgb(192,55,38);stop-opacity:1"/>
    </linearGradient>
    <linearGradient id="rare" x1="0" y1="1" x2="1" y2="0">
      <stop offset="0" style="stop-color:rgb(146,116,67);stop-opacity:1"/>
      <stop offset="0.125" style="stop-color:rgb(146,116,67);stop-opacity:1"/>
      <stop offset="0.5" style="stop-color:rgb(211,178,108);stop-opacity:1"/>
      <stop offset="0.875" style="stop-color:rgb(146,116,67);stop-opacity:1"/>
      <stop offset="1" style="stop-color:rgb(146,116,67);stop-opacity:1"/>
    </linearGradient>
    <linearGradient id="special" x1="0" y1="1" x2="1" y2="0">
      <stop offset="0" style="stop-color:rgb(76, 56, 106);stop-opacity:1"/>
      <stop offset="0.125" style="stop-color:rgb(76, 56, 106);stop-opacity:1"/>
      <stop offset="0.5" style="stop-color:rgb(201, 173, 221);stop-opacity:1"/>
      <stop offset="0.875" style="stop-color:rgb(76, 56, 106);stop-opacity:1"/>
      <stop offset="1" style="stop-color:rgb(76, 56, 106);stop-opacity:1"/>
    </linearGradient>
    <linearGradient id="uncommon" x1="0" y1="1" x2="1" y2="0">
      <stop offset="0" style="stop-color:rgb(98,110,119);stop-opacity:1"/>
      <stop offset="0.125" style="stop-color:rgb(98,110,119);stop-opacity:1"/>
      <stop offset="0.5" style="stop-color:rgb(196,222,238);stop-opacity:1"/>
      <stop offset="0.875" style="stop-color:rgb(98,110,119);stop-opacity:1"/>
      <stop offset="1" style="stop-color:rgb(98,110,119);stop-opacity:1"/>
    </linearGradient>
    <linearGradient id="common" x1="0" y1="1" x2="1" y2="0">
      <stop offset="0" style="stop-color:rgb(0,0,0);stop-opacity:1"/>
    </linearGradient>
    <linearGradient
            id="rarity-outline" x1="0" y1="1" x2="0" y2="1">
      <stop offset="0" style="stop-color:rgb(0,0,0);stop-opacity:1"/>
    </linearGradient>
  </defs>
  <path fill="url(#rarity-outline)" d="m 2.311,0.03714659 c 0.107,0.003 0.209,-0.043 0.317,-0.035 0.321,0.005 0.643,-0.005 0.964,0.006 0.097,0.056 0.215,0.019 0.321,0.034 1.041,0.106 2.039,0.463 2.982,0.904 0.698,0.34600001 1.378,0.72700001 2.042,1.13400001 0.041,0.02 0.084,0.036 0.129,0.048 0.244,-0.425 0.547,-0.818 0.901,-1.15900001 0.408,-0.392 0.911,-0.688 1.461,-0.83 0.274,-0.052 0.55,-0.118 0.831,-0.094 -0.098,0.208 -0.174,0.425 -0.216,0.651 C 11.986,0.89414659 12,1.1011466 12,1.3041466 c -10e-4,0.102 0.014,0.203 0.045,0.3 0.026,0.118 0.047,0.239 0.112,0.343 0.127,0.223 0.364,0.348 0.589,0.45 0.45,0.181 0.938,0.228 1.417,0.28 0.488,0.005 0.977,10e-4 1.466,0.002 0.116,-0.004 0.235,0.008 0.347,-0.029 0.384,-0.029 0.765,-0.095 1.129,-0.222 0.24,-0.099 0.492,-0.215 0.641,-0.438 0.075,-0.095 0.093,-0.218 0.139,-0.327 0.091,-0.482 0.062,-0.99700001 -0.142,-1.44800001 -0.027,-0.055 -0.032,-0.117 -0.041,-0.177 0.239,0.007 0.474,0.056 0.712,0.082 0.219,0.053 0.43,0.128 0.637,0.217 0.614,0.287 1.114,0.77100001 1.505,1.31800001 0.1,0.149 0.223,0.286 0.285,0.457 0.04,-0.004 0.083,0.005 0.121,-0.013 0.849,-0.512 1.71,-1.016 2.628,-1.39600001 0.394,-0.178 0.808,-0.305 1.218,-0.439 0.071,-0.01 0.143,-0.019 0.21,-0.046 0.118,-0.046 0.251,-0.036 0.367,-0.095 0.261,-0.019 0.516,-0.091 0.778,-0.086 0.109,0.002 0.213,-0.045 0.323,-0.036 0.31,0.005 0.621,-0.001999998 0.932,0.003 0.016,0.008 0.05,0.022 0.067,0.029 0.446,-0.006 0.891,0.021 1.332,0.086 0.001,0.521 -0.004,1.04100001 0.003,1.56200001 0.361,-0.028 0.72,-0.084 1.083,-0.072 -0.003,7.911 0.003,15.8220004 -0.003,23.7330004 -0.772,0.261 -1.537,0.544 -2.305,0.815 -0.167,0.068 -0.345,0.107 -0.507,0.187 -0.024,0.005 -0.071,0.016 -0.095,0.021 -0.127,0.061 -0.263,0.099 -0.396,0.146 -0.207,0.082 -0.423,0.143 -0.631,0.226 -0.256,0.094 -0.517,0.174 -0.768,0.282 -0.113,0.015 -0.209,0.081 -0.32,0.099 -1.198,0.437 -2.403,0.862 -3.606,1.286 -0.672,0.25 -1.354,0.476 -2.025,0.729 -0.02,0.004 -0.059,0.013 -0.079,0.017 -0.629,0.236 -1.265,0.456 -1.898,0.68 -0.067,0.029 -0.136,0.052 -0.206,0.071 -0.068,0.025 -0.136,0.051 -0.198,0.091 -1.247,0.015 -2.494,0.003 -3.741,0.006 -0.911,-0.334 -1.838,-0.643 -2.748,-0.987 -0.313,-0.093 -0.617,-0.216 -0.926,-0.324 -0.262,-0.095 -0.531,-0.176 -0.788,-0.284 -0.338,-0.108 -0.671,-0.233 -1.004,-0.355 -0.236,-0.084 -0.476,-0.159 -0.708,-0.252 -0.502,-0.176 -1.004,-0.351 -1.502,-0.535 -0.704,-0.246 -1.407,-0.494 -2.107,-0.751 -0.574,-0.192 -1.142,-0.403 -1.712,-0.608 -0.479,-0.159 -0.949,-0.342 -1.427,-0.502 -0.054,-0.015 -0.1,-0.048 -0.146,-0.079 -0.014,-0.001 -0.043,-0.002 -0.057,-0.003 0.01,-4.278 0.001,-8.556 0.004,-12.834 C 0.003,8.8611466 0.006,5.2371466 0.002,1.6131466 c 0.195,-0.003 0.389,-0.003 0.583,0.012 0.18,0.039 0.368,0.031 0.551,0.055 0.03,-0.15 -0.018,-0.297 -0.015,-0.446 0.003,-0.35900001 0,-0.71700001 0.001,-1.07500001 0.018,-0.013 0.052,-0.038 0.069,-0.051 0.106,0 0.214,0.001 0.317,-0.029 0.265,-0.045 0.534,-0.044 0.802,-0.042 z"/>
  <path fill="url(#rarity)" d="m 2.131,0.64214659 c -0.074,0.006 -0.154,-0.009 -0.219,0.034 -0.052,0.002 -0.104,0.002 -0.155,0.003 0,8.00100001 0.003,16.00200041 -0.002,24.00300041 0.173,-0.001 0.346,-0.008 0.519,0.002 0.271,0.059 0.552,0.004 0.825,0.051 1.716,0.115 3.43,0.343 5.109,0.729 -0.277,-0.254 -0.578,-0.485 -0.853,-0.743 -1.373,-1.278 -2.457,-2.882 -3.066,-4.661 -0.418,-1.263 -0.668,-2.579 -0.808,-3.9 -0.06,-0.653 -0.131,-1.305 -0.121,-1.962 -10e-4,-0.097 0.014,-0.199 -0.025,-0.291 -0.01,-0.308 -0.003,-0.616 -0.004,-0.924 0.052,-0.307 0.021,-0.619 0.036,-0.929 0.033,-0.541 0.062,-1.083 0.12,-1.622 0.061,-0.8160004 0.186,-1.6270004 0.307,-2.4360004 0.11,-0.592 0.201,-1.189 0.363,-1.77 0.147,0.333 0.366,0.636 0.632,0.884 0.222,0.216 0.523,0.373 0.839,0.36 0.3,0.01 0.575,-0.144 0.81,-0.317 0.466,-0.356 0.726,-0.9 0.978,-1.415 0.386,-0.852 0.707,-1.733 1.105,-2.581 0.08,-0.154 0.134,-0.322 0.237,-0.464 -0.108,-0.119 -0.264,-0.173 -0.393,-0.263 -1.069,-0.635 -2.175,-1.242 -3.379,-1.57700001 -0.558,-0.154 -1.135,-0.245 -1.715,-0.245 -0.38,0.005 -0.762,-0.004 -1.14,0.033 z m 22.904,0.185 c -1.359,0.36200001 -2.59,1.06500001 -3.784,1.78700001 -0.031,0.027 -0.104,0.053 -0.07,0.105 0.275,0.525 0.502,1.072 0.73,1.619 0.289,0.689 0.551,1.392 0.925,2.041 0.177,0.289 0.369,0.583 0.653,0.778 0.285,0.232 0.665,0.376 1.033,0.292 0.39,-0.096 0.712,-0.376 0.934,-0.702 0.099,-0.149 0.22,-0.289 0.266,-0.466 0.016,0 0.046,0.001 0.062,0.001 0.285,1.194 0.456,2.412 0.606,3.629 0,0.2040004 0.041,0.4040004 0.065,0.6060004 0.012,0.142 0,0.285 0.025,0.426 0.051,0.5 0.062,1.003 0.067,1.506 0.046,0.283 0.025,0.57 0.029,0.856 -0.002,0.263 0.004,0.526 -0.002,0.789 -0.05,0.366 -0.025,0.737 -0.05,1.105 -0.026,0.2 -0.022,0.403 -0.057,0.603 0.002,0.277 -0.066,0.548 -0.079,0.825 -0.175,1.278 -0.429,2.554 -0.878,3.767 -0.615,1.621 -1.624,3.082 -2.886,4.267 -0.291,0.289 -0.615,0.541 -0.928,0.805 1.69,-0.382 3.413,-0.616 5.14,-0.729 0.26,-0.046 0.527,0.007 0.786,-0.049 0.174,-0.014 0.35,-0.004 0.525,-0.004 -0.008,-0.78 0,-1.561 -0.003,-2.341 0.002,-7.22 -0.003,-14.4410004 0.003,-21.66100041 -0.291,-0.036 -0.584,-0.073 -0.879,-0.064 -0.75,-0.037 -1.509,0.008 -2.235,0.21 z M 10.672,2.3871466 c -0.1,0.168 -0.222,0.324 -0.32,0.494 -0.771,1.298 -1.175,2.771 -1.886,4.099 -0.284,0.518 -0.646,1.003 -1.12,1.363 -0.431,0.337 -0.952,0.568 -1.498,0.628 -0.221,0.018 -0.442,0.002 -0.662,-0.015 -0.084,0.552 -0.141,1.1080004 -0.192,1.6640004 -0.048,0.345 -0.041,0.696 -0.088,1.042 -0.014,0.309 -0.018,0.619 -0.023,0.928 -0.032,0.285 -0.015,0.572 -0.019,0.859 0.004,0.249 -0.012,0.5 0.015,0.748 0.02,0.347 -0.002,0.697 0.048,1.042 0.049,0.789 0.147,1.574 0.289,2.352 0.223,1.176 0.541,2.351 1.12,3.406 0.25,0.457 0.52,0.907 0.851,1.31 -0.009,-0.229 -0.047,-0.455 -0.074,-0.681 -0.008,-0.251 -0.043,-0.5 -0.053,-0.751 -0.053,-0.379 0.006,-0.763 -0.052,-1.141 -0.014,-0.133 0.021,-0.264 0.026,-0.396 -0.013,-0.933 0.091,-1.864 0.235,-2.785 0.257,-1.513 0.671,-3.003 1.28,-4.413 0.618,-1.412 1.38,-2.7640004 2.32,-3.9880004 0.731,-0.97 1.572,-1.85 2.459,-2.676 0.011,-0.04 0.039,-0.074 0.078,-0.088 -0.002,0.01 -0.006,0.031 -0.008,0.041 -0.104,0.088 -0.193,0.192 -0.268,0.305 -0.854,1.022 -1.611,2.128 -2.235,3.304 -0.794,1.5200004 -1.386,3.1500004 -1.723,4.8320004 -0.127,0.628 -0.209,1.263 -0.278,1.899 -0.017,0.406 -0.072,0.807 -0.073,1.213 0.004,0.513 -0.017,1.028 0.041,1.538 0.096,1.654 0.447,3.291 1.014,4.848 0.019,-0.058 0.037,-0.116 0.051,-0.175 0.095,-0.455 0.238,-0.897 0.358,-1.346 0.097,-0.367 0.215,-0.727 0.346,-1.083 0.146,-0.448 0.307,-0.891 0.495,-1.323 0.153,-0.395 0.315,-0.788 0.504,-1.168 1.216,-2.591 2.847,-4.997 4.866,-7.03 1.056,-1.081 2.21,-2.0670004 3.441,-2.9430004 0.114,-0.067 0.213,-0.154 0.32,-0.231 -0.267,0.272 -0.578,0.498 -0.841,0.775 -0.511,0.512 -1.036,1.012 -1.508,1.5600004 -0.895,1.004 -1.708,2.082 -2.428,3.217 -0.832,1.324 -1.533,2.73 -2.098,4.188 -0.238,0.643 -0.486,1.286 -0.659,1.951 -0.116,0.41 -0.236,0.819 -0.323,1.237 -0.104,0.483 -0.223,0.965 -0.287,1.456 -0.077,0.512 -0.191,1.025 -0.176,1.546 1.193,-1.925 2.634,-3.697 4.284,-5.247 1.811,-1.715 3.878,-3.158 6.104,-4.283 0.363,-0.185 0.743,-0.34 1.1,-0.532 0.015,0.003 0.045,0.009 0.06,0.011 -0.034,0.023 -0.07,0.044 -0.105,0.064 -0.785,0.474 -1.528,1.012 -2.253,1.572 -0.713,0.569 -1.406,1.163 -2.049,1.811 -1.689,1.646 -3.133,3.543 -4.281,5.604 -0.338,0.624 -0.674,1.252 -0.942,1.911 0.121,-0.102 0.227,-0.218 0.34,-0.328 0.583,-0.585 1.216,-1.117 1.872,-1.617 1.192,-0.894 2.49,-1.658 3.884,-2.192 0.602,-0.223 1.219,-0.418 1.854,-0.521 0.179,-0.011 0.349,-0.081 0.529,-0.071 0.021,-0.02 0.041,-0.04 0.062,-0.061 0.01,0.016 0.029,0.048 0.039,0.064 -0.281,0.068 -0.55,0.177 -0.814,0.293 -1.223,0.551 -2.319,1.353 -3.299,2.263 -0.451,0.396 -0.847,0.848 -1.246,1.296 -0.947,1.109 -1.776,2.329 -2.375,3.662 -0.114,0.247 -0.198,0.506 -0.305,0.755 0.373,10e-4 0.746,0.003 1.119,-0.001 0.473,-0.849 1.157,-1.569 1.943,-2.135 0.514,-0.379 1.076,-0.686 1.649,-0.963 1.989,-1.032 3.686,-2.674 4.654,-4.706 0.348,-0.685 0.572,-1.425 0.755,-2.17 0.168,-0.718 0.301,-1.445 0.38,-2.179 0.052,-0.294 0.049,-0.595 0.097,-0.889 0.016,-0.214 0.011,-0.429 0.03,-0.643 0.025,-0.214 -0.002,-0.43 0.039,-0.642 0.01,-0.44 -0.001,-0.881 0.005,-1.322 0.005,-0.157 -0.044,-0.31 -0.031,-0.467 -0.015,-0.752 -0.085,-1.502 -0.16,-2.25 -0.034,-0.3770004 -0.101,-0.7520004 -0.13,-1.1300004 -0.387,0.035 -0.783,0.036 -1.157,-0.083 -0.689,-0.212 -1.291,-0.669 -1.717,-1.246 -0.296,-0.385 -0.515,-0.822 -0.722,-1.26 -0.301,-0.644 -0.549,-1.311 -0.831,-1.963 -0.279,-0.632 -0.56,-1.268 -0.952,-1.838 -0.04,-0.063 -0.091,-0.117 -0.149,-0.163 -0.08,0.237 -0.227,0.446 -0.387,0.637 -0.381,0.439 -0.918,0.711 -1.468,0.871 -0.448,0.141 -0.916,0.193 -1.381,0.24 -0.665,0.025 -1.332,0.026 -1.997,0.002 -0.642,-0.05 -1.29,-0.15 -1.887,-0.403 -0.436,-0.193 -0.848,-0.47 -1.131,-0.86 -0.121,-0.154 -0.189,-0.34 -0.295,-0.504 z"/>
</svg>
