<?xml version="1.0" encoding="UTF-8" standalone="no"?>
<!-- Generated by IcoMoon.io -->

<svg
   version="1.1"
   width="32.000999"
   height="25.650999"
   viewBox="0 0 32.000999 25.650999"
   id="svg6"
   sodipodi:docname="sta.svg"
   inkscape:version="1.1.1 (3bf5ae0d25, 2021-09-20)"
   xmlns:inkscape="http://www.inkscape.org/namespaces/inkscape"
   xmlns:sodipodi="http://sodipodi.sourceforge.net/DTD/sodipodi-0.dtd"
   xmlns="http://www.w3.org/2000/svg"
   xmlns:svg="http://www.w3.org/2000/svg">
  <defs
     id="defs10" />
  <sodipodi:namedview
     id="namedview8"
     pagecolor="#ffffff"
     bordercolor="#666666"
     borderopacity="1.0"
     inkscape:pageshadow="2"
     inkscape:pageopacity="0.0"
     inkscape:pagecheckerboard="0"
     showgrid="false"
     inkscape:zoom="26.5625"
     inkscape:cx="15.981176"
     inkscape:cy="12.818824"
     inkscape:window-width="1920"
     inkscape:window-height="1009"
     inkscape:window-x="-8"
     inkscape:window-y="-8"
     inkscape:window-maximized="1"
     inkscape:current-layer="svg6" />
  <title
     id="title2">sta</title>
  <path
     fill="#000000"
     d="m 23.673,20.894 c -2.172,0.296 -4.376,0.714 -6.288,-0.613 0.281,-0.375 0.57,-0.742 0.862,-1.106 0.092,-1.832 -0.078,-3.664 -0.306,-5.479 -0.347,1.515 -0.384,3.094 -0.906,4.57 -2.755,-0.4 -5.557,-0.075 -8.2,0.792 v 0 c -0.973,0.353 -1.96,0.737 -2.746,1.434 0.901,-0.136 1.779,-0.384 2.657,-0.62 0.567,0.767 1.295,1.393 2.021,2.001 -0.475,1.409 -1.896,1.924 -3.191,2.31 C 7.384,24.672 7.19,25.162 6.998,25.651 6.676,25.226 6.353,24.803 6.031,24.381 5.072,24.236 3.932,24.412 3.16,23.706 2.915,23.492 2.696,23.253 2.46,23.036 2.871,22.386 3.277,21.732 3.683,21.079 2.891,16.003 2.26,10.902 1.509,5.821 1.009,5.365 0.506,4.912 0,4.464 0.114,3.869 0.095,3.13 0.67,2.76 1.254,2.379 1.968,2.285 2.63,2.096 2.9,1.404 3.158,0.709 3.417,0.011 3.853,0.598 4.29,1.181 4.729,1.762 6.049,1.528 7.901,1.779 8.065,3.416 6.658,4.264 4.991,4.792 3.982,6.176 4.938,5.82 5.83,5.312 6.739,4.853 v 0 c 2.924,-1.156 6.202,-1.848 9.301,-0.987 0.075,0.053 0.231,0.158 0.308,0.211 0.812,1.74 0.873,3.705 1.298,5.554 C 17.857,8.755 17.51,7.663 18.13,6.929 19.414,6.796 20.712,6.784 21.997,6.618 L 22.01,6.617 C 23.258,6.353 24.412,5.867 25.433,5.078 24.46,5.184 23.501,5.378 22.539,5.562 22.072,5.153 21.608,4.742 21.141,4.331 21.4,3.778 21.544,3.125 22.022,2.71 22.65,2.34 23.384,2.232 24.079,2.043 24.326,1.362 24.579,0.681 24.835,0 c 0.431,0.589 0.859,1.179 1.293,1.762 0.734,0.017 1.504,-0.106 2.207,0.161 0.503,0.27 0.781,0.806 1.134,1.231 -0.411,0.645 -0.82,1.293 -1.229,1.938 0.617,4.103 1.156,8.217 1.74,12.325 0.159,0.973 0.186,1.976 0.484,2.922 0.428,0.564 1.009,0.99 1.537,1.454 -0.247,1.49 -1.773,1.946 -3.002,2.374 -0.192,0.495 -0.386,0.99 -0.575,1.484 -0.328,-0.422 -0.656,-0.839 -0.984,-1.259 -1.362,0.036 -2.855,-0.136 -3.697,-1.351 0.37,-0.539 0.684,-1.131 1.162,-1.587 0.756,-0.556 1.601,-1.006 2.218,-1.735 -1.017,0.353 -1.99,0.834 -3.03,1.12 l -0.416,0.055 z"
     id="path4" />
</svg>
