<?xml version="1.0" encoding="UTF-8" standalone="no"?>
<svg
   version="1.1"
   width="33.537121"
   height="27.039171"
   viewBox="0 0 33.53712 27.039171"
   id="svg4"
   xmlns="http://www.w3.org/2000/svg"
   xmlns:svg="http://www.w3.org/2000/svg">
  <defs>
    <!-- This is the gradient that will actually be used on
     the cards. The colors themselves will be provided by the
     template, but the x values, y values, and offsets will be
     used from the SVG. -->
    <linearGradient id="rarity" x1="0" y1="0" x2="1" y2="0">
      <stop offset="0" style="stop-color:rgb(192,55,38);stop-opacity:1" id="stop2" />
      <stop offset="0.0625" style="stop-color:rgb(192,55,38);stop-opacity:1" id="stop4" />
      <stop offset="0.5" style="stop-color:rgb(241,142,30);stop-opacity:1" id="stop6" />
      <stop offset="0.9375" style="stop-color:rgb(192,55,38);stop-opacity:1" id="stop8" />
      <stop offset="1" style="stop-color:rgb(192,55,38);stop-opacity:1" id="stop10" />
    </linearGradient>
    <!-- These gradients are here so that you can visualize
     what the set symbol would like like in that rarity. The
     only gradient that matters in the end is the "rarity"
     gradient. -->
    <linearGradient id="mythic" x1="0" y1="1" x2="1" y2="0">
      <stop offset="0" style="stop-color:rgb(192,55,38);stop-opacity:1"/>
      <stop offset="0.125" style="stop-color:rgb(192,55,38);stop-opacity:1"/>
      <stop offset="0.5" style="stop-color:rgb(241,142,30);stop-opacity:1"/>
      <stop offset="0.875" style="stop-color:rgb(192,55,38);stop-opacity:1"/>
      <stop offset="1" style="stop-color:rgb(192,55,38);stop-opacity:1"/>
    </linearGradient>
    <linearGradient id="rare" x1="0" y1="1" x2="1" y2="0">
      <stop offset="0" style="stop-color:rgb(146,116,67);stop-opacity:1"/>
      <stop offset="0.125" style="stop-color:rgb(146,116,67);stop-opacity:1"/>
      <stop offset="0.5" style="stop-color:rgb(211,178,108);stop-opacity:1"/>
      <stop offset="0.875" style="stop-color:rgb(146,116,67);stop-opacity:1"/>
      <stop offset="1" style="stop-color:rgb(146,116,67);stop-opacity:1"/>
    </linearGradient>
    <linearGradient id="special" x1="0" y1="1" x2="1" y2="0">
      <stop offset="0" style="stop-color:rgb(76, 56, 106);stop-opacity:1"/>
      <stop offset="0.125" style="stop-color:rgb(76, 56, 106);stop-opacity:1"/>
      <stop offset="0.5" style="stop-color:rgb(201, 173, 221);stop-opacity:1"/>
      <stop offset="0.875" style="stop-color:rgb(76, 56, 106);stop-opacity:1"/>
      <stop offset="1" style="stop-color:rgb(76, 56, 106);stop-opacity:1"/>
    </linearGradient>
    <linearGradient id="uncommon" x1="0" y1="1" x2="1" y2="0">
      <stop offset="0" style="stop-color:rgb(98,110,119);stop-opacity:1"/>
      <stop offset="0.125" style="stop-color:rgb(98,110,119);stop-opacity:1"/>
      <stop offset="0.5" style="stop-color:rgb(196,222,238);stop-opacity:1"/>
      <stop offset="0.875" style="stop-color:rgb(98,110,119);stop-opacity:1"/>
      <stop offset="1" style="stop-color:rgb(98,110,119);stop-opacity:1"/>
    </linearGradient>
    <linearGradient id="common" x1="0" y1="1" x2="1" y2="0">
      <stop offset="0" style="stop-color:rgb(0,0,0);stop-opacity:1"/>
    </linearGradient>
    <linearGradient
            id="rarity-outline" x1="0" y1="1" x2="0" y2="1">
      <stop offset="0" style="stop-color:rgb(0,0,0);stop-opacity:1"/>
    </linearGradient>
  </defs>
  <path fill="url(#rarity-outline)" d="M 1.1367187,4.07e-5 1.1074218,0.62113444 C 1.0707894,1.4202646 1.3259193,3.0068663 2.2753906,5.3008219 v 0.00195 c -0.00755,-0.018013 0.00293,0.013204 0,0.00586 L 0,5.4043349 0.15625,6.1289443 C 0.2400581,6.517108 0.68852994,7.7775294 1.7441406,9.2402725 l -0.00977,0.00391 0.4433593,0.6660156 c -0.00554,-0.00968 -0.012129,-0.023431 -0.019531,-0.037109 0.018586,0.021842 0.020126,0.036676 0.039063,0.058594 C 2.0477548,9.9812681 1.8463587,10.046436 1.8417932,10.048871 1.6339659,10.160362 1.5065054,10.4351 1.49609,10.587933 c -0.010459,0.153478 0.018901,0.233835 0.041016,0.298828 0.044228,0.129986 0.089653,0.201469 0.1367188,0.279297 0.094132,0.155656 0.2003582,0.303576 0.2597656,0.394531 h 0.00195 c 0.6102156,0.931474 1.6083382,1.58196 2.5742187,2.121094 -0.4850719,0.245265 -1.0002987,0.501776 -1.6347656,1.210938 -2.656e-4,2.96e-4 -0.1503155,0.310118 -0.1503907,0.310546 -7.5e-5,4.29e-4 0.00379,0.235771 0.00391,0.236328 1.153e-4,5.58e-4 0.028888,0.0973 0.042969,0.128907 0.014081,0.0316 0.025557,0.05529 0.037109,0.07422 0.046208,0.0757 0.073346,0.09794 0.095703,0.121093 0.044715,0.0463 0.074342,0.06995 0.109375,0.09766 0.070065,0.05542 0.1524803,0.111588 0.2578124,0.177734 0.2106643,0.132292 0.5088395,0.294916 0.8964844,0.46289 0.5580738,0.241825 1.496914,0.412019 2.4042969,0.574219 -0.2999477,0.400504 -0.6041292,0.737779 -0.8886719,1.275391 L 5.3027312,19.070359 6.0957,19.253953 c -0.046303,-0.01069 -0.021854,0.0013 0.083984,0.01758 l 0.00586,0.002 h 0.00586 c 1.1291558,0.150829 1.9144393,0.121899 2.4707031,0.04102 -0.035662,0.174348 -0.1331724,0.372141 -0.15625,0.521485 l -0.1171874,0.753906 0.7617187,-0.0332 c 0.7827367,-0.03421 1.5438806,-0.403202 2.2773436,-0.746094 0.03206,0.35452 0.0344,0.689253 0.125,1.009766 l 0.138672,0.492187 0.427734,-0.0332 c -0.47696,0.746733 -0.898269,1.535437 -1.15039,2.357422 l -0.236328,0.769531 0.802734,0.03711 c 0.447991,0.02124 1.004629,-0.100516 1.539063,-0.191407 -0.02174,0.484353 -0.102972,0.954308 0.15039,1.644532 l 0.242188,0.662109 0.628906,-0.320312 c 0.22985,-0.117084 0.578123,-0.268034 0.925781,-0.492188 0.303822,0.579279 0.736155,1.084347 1.441406,1.257813 0,0 0.0542,0.0096 0.08789,0.01563 l 0.197266,0.01953 0.04102,-0.002 c 0.649844,-0.02047 1.180029,-0.383505 1.529297,-0.822266 0.111549,-0.140131 0.107852,-0.323203 0.189453,-0.478515 0.350998,0.228784 0.705307,0.383913 0.9375,0.501953 l 0.625,0.318359 0.244141,-0.660156 c 0.254363,-0.690655 0.172386,-1.160179 0.150391,-1.644532 0.534531,0.09093 1.091052,0.212643 1.539062,0.191407 l 0.802734,-0.03711 -0.236328,-0.769531 C 22.317948,22.813999 21.895535,22.026545 21.417971,21.27936 l 0.429687,0.0332 0.138672,-0.492187 c 0.0906,-0.320513 0.09294,-0.655246 0.125,-1.009766 0.733398,0.342766 1.494593,0.71188 2.277344,0.746094 l 0.761718,0.0332 -0.115234,-0.753906 c -0.02307,-0.149298 -0.120605,-0.347197 -0.15625,-0.521485 0.556198,0.08074 1.340487,0.1097 2.46875,-0.04102 h 0.0059 l 0.0059,-0.002 c 0.105838,-0.01628 0.130291,-0.02826 0.08398,-0.01758 l 0.792969,-0.183594 -0.380859,-0.71875 c -0.284418,-0.537377 -0.588516,-0.874874 -0.888672,-1.275391 0.90632,-0.162482 1.844874,-0.332614 2.402343,-0.574219 0.387524,-0.167951 0.686013,-0.330898 0.896485,-0.46289 0.105236,-0.066 0.188121,-0.122847 0.257812,-0.177734 0.03485,-0.02745 0.06527,-0.0505 0.109375,-0.0957 0.02205,-0.0226 0.0458,-0.04549 0.0918,-0.11914 0.0115,-0.01841 0.02483,-0.03943 0.03906,-0.07031 0.01423,-0.03088 0.04285,-0.128356 0.04297,-0.128906 1.23e-4,-5.5e-4 0.0079,-0.235908 0.0078,-0.236328 -6.7e-5,-4.21e-4 -0.152086,-0.31807 -0.152344,-0.318359 -0.633752,-0.708836 -1.149764,-0.963639 -1.634765,-1.208985 0.966384,-0.53926 1.965384,-1.1907 2.576172,-2.123047 0.05972,-0.09102 0.165436,-0.236596 0.259765,-0.392578 0.04716,-0.07799 0.0945,-0.15104 0.138672,-0.28125 0.02209,-0.06511 0.05135,-0.146215 0.04102,-0.298828 -0.01033,-0.152612 -0.135945,-0.426987 -0.34375,-0.539062 l -0.0098,-0.0039 -0.0078,-0.0039 c -8.73e-4,-4.38e-4 -0.07381,-0.03153 -0.08398,-0.03516 -0.01017,-0.0036 -0.02137,-0.00693 -0.03516,-0.011719 -0.02758,-0.00958 -0.06371,-0.022145 -0.107422,-0.037109 -0.02812,-0.00963 -0.06875,-0.023969 -0.101562,-0.035156 -0.0011,-3.85e-4 -0.0028,3.865e-4 -0.0039,0 0.0023,-0.0027 0.0016,-0.00511 0.0039,-0.00781 1.9e-5,8.39e-5 0.0039,0.0019 0.0039,0.00195 l 0.447265,-0.671875 -0.0098,-0.00391 c 1.054928,-1.4623768 1.501976,-2.722459 1.58594,-3.1113462 l 0.15625,-0.7246094 -2.27539,-0.095703 c -0.0029,0.00732 0.0076,-0.02402 0,-0.00586 v -0.00195 h 0.002 C 32.213117,3.007034 32.468327,1.4214547 32.4317,0.62109374 L 32.40436,0 29.941469,0.10351562 29.798891,0.19921872 c -0.06322,0.0413379 -0.07086,0.043182 -0.02148,0.0175781 l -0.0039,0.001953 -0.0059,0.001994 C 27.369723,1.5118966 25.984489,2.7549171 24.951172,3.8203532 23.917855,4.8857893 23.253304,5.7276469 22.24414,6.3476969 21.971709,6.5145611 21.431917,6.7889849 21.101562,6.9512125 l -0.660156,0.3242188 0.427734,0.5996094 c 0.122314,0.1712384 0.214896,0.2022145 0.16211,0.1601562 0.159618,0.1241475 0.146582,0.13364 0.185547,0.2011719 0.137059,0.9270639 0.113955,2.0472422 -0.08008,2.9296872 v 0.002 l -0.002,0.0039 c -0.01491,0.07159 -0.0049,0.04672 -0.0059,0.07813 -0.0633,0.292347 -0.269865,0.582094 -0.421875,0.878907 -0.294417,-0.57196 -0.495936,-1.071922 -0.46875,-2.103516 v -0.0078 -0.0078 c 0,0.01004 -0.001,0.0033 0,-0.013672 l 0.01953,-0.3398437 -0.27539,-0.2011719 C 19.071262,8.7893479 18.03814,8.2716833 16.865234,8.0918375 l -0.0957,-0.015625 -0.09375,0.015625 c -1.172906,0.1798458 -2.20798,0.6975153 -3.119141,1.3632813 l -0.27539,0.2011719 0.01953,0.3398437 c 0.0011,0.018434 0,0.021182 0,0.013672 v 0.0078 l 0.002,0.0078 c 0.02718,1.030728 -0.176222,1.531405 -0.470703,2.103516 -0.151383,-0.295564 -0.356182,-0.58366 -0.419922,-0.875 -5.31e-4,-0.03081 0.0079,-0.0068 -0.0078,-0.08203 l -0.002,-0.0039 v -0.002 c -0.194318,-0.884634 -0.218153,-2.0030305 -0.08008,-2.9296863 0.03925,-0.067498 0.02602,-0.076491 0.185546,-0.2011719 l 0.0078,-0.00586 c -0.03665,0.033962 0.02149,0.00671 0.123047,-0.1132812 L 13.15625,7.3027751 12.435547,6.9492594 C 12.104886,6.7873633 11.565493,6.5139415 11.294922,6.3476969 10.285816,5.7276823 9.6212257,4.8859361 8.5878906,3.8203532 7.5556023,2.7558498 6.1707717,1.5139144 3.7773437,0.22465007 l -0.00195,-0.001953 c -0.0015,-8.0605e-4 -0.00241,-0.001147 -0.00391,-0.001953 0.00682,0.003668 0.010796,0.006325 -0.021484,-0.015625 L 3.6035153,0.10550967 Z" />
  <path fill="url(#rarity)" d="m 16.612578,26.397431 c -0.805,-0.198 -1.272,-0.934 -1.362,-1.726 -0.009,0.006 -0.023,0.008 -0.028,0.018 -0.261,0.508 -0.932,0.748 -1.411,0.992 -0.301,-0.82 -0.192,-1.573 -0.175,-2.104 -0.013,10e-4 -0.025,0.003 -0.037,0.008 -0.605,0.269 -1.38,0.265 -2.034,0.234 0.511,-1.666 1.69,-3.315 2.955,-4.507 0,0 0.057,-0.05 0.057,-0.05 -0.007,-0.245 -0.213,-0.598 -0.229,-0.841 -0.009,0.008 -0.021,0.014 -0.027,0.024 -0.412,0.72 -0.812,1.163 -1.46,1.742 -0.107,0.096 -0.59,0.454 -0.707,0.463 -0.119,-0.421 -0.177,-1.203 -0.199,-1.64 -0.011,0.003 -0.023,0.004 -0.032,0.01 -0.702,0.503 -1.863,0.87 -2.8009999,0.911 0.07,-0.453 0.212,-1.104 0.436,-1.499 -0.011,0 -0.085,0.048 -0.096,0.05 -0.249,0.05 -1.002,0.464 -3.188,0.172 -0.013,-0.002 -0.026,-0.007 -0.039,-0.01 0.443,-0.837 0.918,-1.489 1.359,-1.955 -0.013,-0.004 -0.025,-0.011 -0.038,-0.012 -2.72,-0.209 -4.249,-1.33 -4.215,-1.368 1.495,-1.671 2.537,-1.449 2.538,-1.575 -1.145,-0.554 -2.723,-1.449 -3.422,-2.516 -0.145,-0.222 -0.41,-0.572 -0.321,-0.619 0.015,-0.008 0.913,-0.312 0.925,-0.313 1.689,-0.173 2.447,-0.176 2.447,-0.176 -0.58,-0.5719997 -2.045,-0.7739997 -2.798,-0.5279997 0.002,0.003 0.002,0.003 -0.001,0 v 0 0 l -0.008,-0.007 c -1.514,-1.728 -1.83899998,-3.138 -1.93399998,-3.578 l 2.52299998,-0.107 c 1.04,0.199 1.269,0.199 2.248,0.596 0,0 0.061,0 0.061,0 -0.634,-0.708 -1.746,-1.381 -2.72,-1.327 -0.009,-0.033 -0.014,-0.067 -0.027,-0.098 -0.923,-2.23 -1.148,-3.822 -1.121,-4.41099998 l 1.667,0.071 c 0.025,0.017 0.049,0.035 0.076,0.05 4.68,2.51899998 5.261,4.73699998 7.4939999,6.10899998 0.319,0.196 0.856,0.466 1.193,0.631 -0.011,0.013 -0.026,0.021 -0.038,0.031 -0.206,0.161 -0.237,0.176 -0.398,0.436 -0.032,0.052 -0.019,0.06 -0.023,0.084 -0.165,1.029 -0.13,2.2399997 0.089,3.2369997 0.005,0.024 0.002,0.05 0.003,0.074 0.272,1.269 1.238,2.597 2.398,3.168 0.069,0.034 0.202,0.117 0.15,0.06 -0.667,-0.739 -0.887,-1.155 -1.188,-1.683 0.004,-0.014 0.006,-0.03 0.014,-0.043 0.447,-0.828 0.795,-1.463 0.758,-2.866 0,-0.017 -10e-4,-0.033 -0.002,-0.05 0.854,-0.624 1.795,-1.089 2.845,-1.25 1.05,0.161 1.991,0.626 2.845,1.25 -0.001,0.017 -0.002,0.034 -0.002,0.05 -0.037,1.404 0.311,2.038 0.758,2.866 0.007,0.013 0.009,0.028 0.014,0.043 -0.301,0.528 -0.521,0.944 -1.188,1.683 -0.052,0.057 0.081,-0.026 0.15,-0.06 1.16,-0.571 2.127,-1.899 2.398,-3.168 10e-4,-0.024 -0.002,-0.05 0.003,-0.074 0.219,-0.996 0.253,-2.2079997 0.089,-3.2369997 -0.004,-0.024 0.009,-0.032 -0.023,-0.084 -0.161,-0.26 -0.191,-0.275 -0.398,-0.436 -0.013,-0.01 -0.028,-0.017 -0.038,-0.031 0.336,-0.165 0.873,-0.435 1.193,-0.631 2.233,-1.372 2.814,-3.589 7.494,-6.10899998 0.027,-0.014 0.05,-0.033 0.076,-0.05 l 1.667,-0.071 c 0.027,0.58999998 -0.199,2.18099998 -1.122,4.41099998 -0.013,0.031 -0.018,0.065 -0.027,0.098 -0.974,-0.054 -2.086,0.618 -2.72,1.327 h 0.061 c 0.979,-0.398 1.208,-0.398 2.248,-0.596 l 2.523,0.107 c -0.095,0.44 -0.421,1.85 -1.934,3.578 l -0.008,0.007 v 0 0 c -0.003,0.003 -0.003,0.003 -0.001,0 -0.753,-0.246 -2.218,-0.044 -2.798,0.5279997 0,0 0.758,0.003 2.447,0.176 0.012,10e-4 0.911,0.306 0.925,0.313 0.089,0.048 -0.176,0.398 -0.321,0.619 -0.699,1.067 -2.277,1.961 -3.422,2.516 0.001,0.126 1.044,-0.096 2.538,1.575 0.033,0.037 -1.495,1.158 -4.215,1.368 -0.013,0.001 -0.025,0.008 -0.038,0.012 0.442,0.466 0.917,1.118 1.36,1.955 -0.013,0.003 -0.026,0.008 -0.039,0.01 -2.186,0.292 -2.939,-0.122 -3.188,-0.172 -0.01,-0.002 -0.085,-0.05 -0.096,-0.05 0.224,0.395 0.366,1.046 0.436,1.499 -0.938,-0.041 -2.098,-0.408 -2.801,-0.911 -0.009,-0.007 -0.021,-0.007 -0.032,-0.01 -0.022,0.437 -0.08,1.219 -0.199,1.64 -0.117,-0.009 -0.6,-0.367 -0.707,-0.463 -0.649,-0.579 -1.048,-1.022 -1.46,-1.742 -0.006,-0.01 -0.018,-0.016 -0.027,-0.024 -0.016,0.243 -0.222,0.596 -0.229,0.841 0,0 0.057,0.05 0.057,0.05 1.265,1.193 2.444,2.841 2.955,4.507 -0.654,0.031 -1.43,0.035 -2.034,-0.234 -0.012,-0.005 -0.024,-0.007 -0.037,-0.008 0.017,0.531 0.127,1.284 -0.175,2.104 -0.478,-0.243 -1.149,-0.484 -1.411,-0.992 -0.005,-0.01 -0.018,-0.012 -0.028,-0.018 -0.056,0.783 -0.663,1.714 -1.52,1.741 l -0.158,-0.015 z m 0.158,-13.948 c -0.214,0.345 -0.512,0.618 -0.831,0.862 0.198,0.829 0.509,1.624 0.831,2.411 0.322,-0.787 0.633,-1.582 0.831,-2.411 -0.319,-0.244 -0.617,-0.518 -0.831,-0.862 z m 7.536,-4.2359997 v 0 c -0.268,1.083 0.247,2.1739997 0.052,3.2549997 -0.475,1.335 -1.439,2.399 -2.277,3.513 0.294,-0.059 0.694,-0.167 0.933,-0.369 1.019,-0.907 1.413,-2.174 2.378,-3.123 0,-0.006 0.006,-0.027 0.247,-0.233 0.005,-0.005 0.011,-0.01 0.011,-0.015 -0.098,0.002 -0.579,0.045 -0.677,0.046 0.016,-0.851 -0.157,-1.7169997 -0.197,-2.5649997 -0.166,-0.179 -0.299,-0.334 -0.47,-0.508 z m -15.0719999,0 c -0.171,0.175 -0.304,0.33 -0.47,0.508 -0.04,0.848 -0.213,1.7139997 -0.197,2.5649997 -0.098,-10e-4 -0.579,-0.043 -0.677,-0.046 0,0.005 0.006,0.011 0.011,0.015 0.24,0.206 0.246,0.227 0.247,0.233 0.965,0.949 1.359,2.217 2.3779999,3.123 0.239,0.202 0.639,0.31 0.933,0.369 -0.838,-1.114 -1.8019999,-2.179 -2.2769999,-3.514 -0.196,-1.082 0.32,-2.1729997 0.052,-3.2549997 v 0 z"/>
</svg>
