<?xml version="1.0" encoding="UTF-8" standalone="no"?>
<!-- Generated by IcoMoon.io -->

<svg
   version="1.1"
   width="27.435343"
   height="28.029594"
   viewBox="0 0 27.435343 28.029594"
   id="svg6"
   sodipodi:docname="td2.svg"
   inkscape:version="1.1.1 (3bf5ae0d25, 2021-09-20)"
   xmlns:inkscape="http://www.inkscape.org/namespaces/inkscape"
   xmlns:sodipodi="http://sodipodi.sourceforge.net/DTD/sodipodi-0.dtd"
   xmlns="http://www.w3.org/2000/svg"
   xmlns:svg="http://www.w3.org/2000/svg">
  <defs
     id="defs10" />
  <sodipodi:namedview
     id="namedview8"
     pagecolor="#ffffff"
     bordercolor="#666666"
     borderopacity="1.0"
     inkscape:pageshadow="2"
     inkscape:pageopacity="0.0"
     inkscape:pagecheckerboard="0"
     showgrid="false"
     inkscape:zoom="26.5625"
     inkscape:cx="13.948235"
     inkscape:cy="13.985882"
     inkscape:window-width="1920"
     inkscape:window-height="1009"
     inkscape:window-x="-8"
     inkscape:window-y="-8"
     inkscape:window-maximized="1"
     inkscape:current-layer="svg6" />
  <title
     id="title2">td2</title>
  <path
     fill="#000000"
     d="m 7.2261043,16.194771 c -0.256,0.682 -3.409,4.346 -4.005,4.431 -0.596,0.085 -2.72700002,-1.193 -3.15300002,-2.216 -0.426,-1.023 1.27200002,-11.7840002 1.61900002,-12.7830002 0.347,-0.999 1.236,-1.723 1.96,-2.216 0.725,-0.493 11.9309997,-3.49399999 12.6979997,-3.40899999 0.599,0.067 2.642,2.04499999 2.557,2.47099999 -0.085,0.426 -3.409,4.687 -3.92,4.858 -0.511,0.171 -2.557,-0.426 -5.8799997,2.8120002 -2.591,2.525 -1.619,5.369 -1.875,6.051 z m 12.9799997,-4.344 c -0.257,0.681 0.711,3.527 -1.884,6.048 -3.329,3.233 -5.373,2.633 -5.885,2.803 -0.512,0.17 -3.8419997,4.425 -3.9279997,4.851 -0.086,0.426 1.9539997,2.408 2.5529997,2.475 0.767,0.086 11.978,-2.897 12.703,-3.389 0.725,-0.492 1.614,-1.214 1.964,-2.213 0.349,-0.998 2.064,-11.757 1.639,-12.7810002 -0.425,-1.024 -2.553,-2.305 -3.15,-2.221 -0.597,0.084 -3.756,3.7440002 -4.012,4.4250002 z m -4.855,3.455 c 6.457,-7.3470002 11.017,-13.8950002 10.186,-14.62500019 -0.831,-0.73 -6.74,4.63199999 -13.197,11.97900019 -6.4569997,7.347 -11.0169997,13.895 -10.1859997,14.625 0.831,0.73 6.74,-4.632 13.1969997,-11.979 z"
     id="path4" />
</svg>
