<?xml version="1.0" encoding="UTF-8" standalone="no"?>
<svg
   version="1.1"
   width="29.463076"
   height="30.039064"
   viewBox="0 0 29.463076 30.039064"
   id="svg4"
   xmlns="http://www.w3.org/2000/svg"
   xmlns:svg="http://www.w3.org/2000/svg">
  <defs>
    <!-- This is the gradient that will actually be used on
     the cards. The colors themselves will be provided by the
     template, but the x values, y values, and offsets will be
     used from the SVG. -->
    <linearGradient id="rarity" x1="0" y1="1" x2="1" y2="0">
      <stop offset="0" style="stop-color:rgb(192,55,38);stop-opacity:1" id="stop2" />
      <stop offset="0.125" style="stop-color:rgb(192,55,38);stop-opacity:1" id="stop4" />
      <stop offset="0.5" style="stop-color:rgb(241,142,30);stop-opacity:1" id="stop6" />
      <stop offset="0.875" style="stop-color:rgb(192,55,38);stop-opacity:1" id="stop8" />
      <stop offset="1" style="stop-color:rgb(192,55,38);stop-opacity:1" id="stop10" />
    </linearGradient>
    <!-- These gradients are here so that you can visualize
     what the set symbol would like like in that rarity. The
     only gradient that matters in the end is the "rarity"
     gradient. -->
    <linearGradient id="mythic" x1="0" y1="1" x2="1" y2="0">
      <stop offset="0" style="stop-color:rgb(192,55,38);stop-opacity:1"/>
      <stop offset="0.125" style="stop-color:rgb(192,55,38);stop-opacity:1"/>
      <stop offset="0.5" style="stop-color:rgb(241,142,30);stop-opacity:1"/>
      <stop offset="0.875" style="stop-color:rgb(192,55,38);stop-opacity:1"/>
      <stop offset="1" style="stop-color:rgb(192,55,38);stop-opacity:1"/>
    </linearGradient>
    <linearGradient id="rare" x1="0" y1="1" x2="1" y2="0">
      <stop offset="0" style="stop-color:rgb(146,116,67);stop-opacity:1"/>
      <stop offset="0.125" style="stop-color:rgb(146,116,67);stop-opacity:1"/>
      <stop offset="0.5" style="stop-color:rgb(211,178,108);stop-opacity:1"/>
      <stop offset="0.875" style="stop-color:rgb(146,116,67);stop-opacity:1"/>
      <stop offset="1" style="stop-color:rgb(146,116,67);stop-opacity:1"/>
    </linearGradient>
    <linearGradient id="special" x1="0" y1="1" x2="1" y2="0">
      <stop offset="0" style="stop-color:rgb(76, 56, 106);stop-opacity:1"/>
      <stop offset="0.125" style="stop-color:rgb(76, 56, 106);stop-opacity:1"/>
      <stop offset="0.5" style="stop-color:rgb(201, 173, 221);stop-opacity:1"/>
      <stop offset="0.875" style="stop-color:rgb(76, 56, 106);stop-opacity:1"/>
      <stop offset="1" style="stop-color:rgb(76, 56, 106);stop-opacity:1"/>
    </linearGradient>
    <linearGradient id="uncommon" x1="0" y1="1" x2="1" y2="0">
      <stop offset="0" style="stop-color:rgb(98,110,119);stop-opacity:1"/>
      <stop offset="0.125" style="stop-color:rgb(98,110,119);stop-opacity:1"/>
      <stop offset="0.5" style="stop-color:rgb(196,222,238);stop-opacity:1"/>
      <stop offset="0.875" style="stop-color:rgb(98,110,119);stop-opacity:1"/>
      <stop offset="1" style="stop-color:rgb(98,110,119);stop-opacity:1"/>
    </linearGradient>
    <linearGradient id="common" x1="0" y1="1" x2="1" y2="0">
      <stop offset="0" style="stop-color:rgb(0,0,0);stop-opacity:1"/>
    </linearGradient>
    <linearGradient
            id="rarity-outline" x1="0" y1="1" x2="0" y2="1">
      <stop offset="0" style="stop-color:rgb(0,0,0);stop-opacity:1"/>
    </linearGradient>
  </defs>
  <path fill="url(#rarity-outline)" d="m 17.168014,0.00463911 c -0.07391,0.006961 -0.131982,0.0204587 -0.208985,0.03125 -0.154006,0.0215822 -0.32771,0.0521988 -0.529296,0.0917969 -0.403174,0.0791962 -0.915495,0.1936745 -1.507813,0.33398437 C 13.737285,0.74229006 12.235823,1.1254665 10.73442,1.5280766 9.2330173,1.9306867 7.7338762,2.3520742 6.5547325,2.705811 5.9651607,2.8826794 5.4565666,3.0423351 5.0586388,3.1784672 4.660711,3.3145993 4.488544,3.3228504 4.0977013,3.5886235 3.3120069,4.1236336 2.227469,4.9458504 1.7559044,6.3034672 1.6627098,6.5717709 1.6148577,6.8234597 1.5332481,7.2292485 1.4516385,7.6350373 1.3576384,8.1482117 1.2559044,8.737061 1.0524363,9.9147595 0.82018903,11.391608 0.61137313,12.87378 0.40255723,14.355951 0.21671083,15.838702 0.10942,17.035889 c -0.0536454,0.598593 -0.0867441,1.124906 -0.09375,1.560547 -0.007006,0.435641 -0.0755753,0.679249 0.14257813,1.203125 0.38367122,0.921351 1.13490327,1.476816 1.88476567,1.972656 0.3749311,0.24792 0.7524727,0.456545 1.1152343,0.611328 0.3627617,0.154783 0.6385881,0.318791 1.2167969,0.236328 0.5105586,-0.07281 0.60669,-0.234298 0.7988281,-0.380859 0.05514,-0.04206 0.1143776,-0.102153 0.1699219,-0.148437 -0.1626674,0.227247 -0.4854745,0.579712 -0.6367187,0.796874 -0.9378587,1.346622 -1.6496954,2.485628 -2.1015625,3.398438 -0.2259336,0.456405 -0.391829,0.848016 -0.4804688,1.251953 -0.04432,0.201969 -0.073284,0.410809 -0.042969,0.666016 0.030315,0.255206 0.1494488,0.59319 0.4257812,0.835937 0.276312,0.242729 0.627857,0.31915 0.8847656,0.316406 0.2569087,-0.0027 0.4596935,-0.05903 0.6542969,-0.128906 0.3892068,-0.139755 0.7560155,-0.354078 1.1796875,-0.636718 0.8473441,-0.56528 1.8863954,-1.418574 3.1015625,-2.521485 0.2561191,-0.232459 0.6552335,-0.705097 0.9257813,-0.958984 -0.155346,0.216986 -0.2943155,0.416331 -0.4023438,0.585937 -0.058708,0.09217 -0.1100737,0.175738 -0.1582031,0.265625 -0.048129,0.08989 -0.099062,0.144182 -0.1503906,0.398438 -0.1015083,0.50282 0.057945,0.698465 0.1503906,0.878906 0.092446,0.180441 0.1953135,0.329026 0.3125,0.482422 0.2343729,0.306792 0.5253214,0.620572 0.8398437,0.925781 0.3145222,0.305209 0.6475142,0.596487 0.9726562,0.835938 0.325142,0.23945 0.517767,0.472644 1.146485,0.542968 0.273997,0.03072 0.35574,-1.41e-4 0.509766,-0.02148 0.154023,-0.02135 0.327646,-0.05251 0.529296,-0.0918 0.403301,-0.07857 0.915262,-0.192656 1.507813,-0.332031 1.185102,-0.278751 2.68742,-0.660323 4.189453,-1.060547 1.502033,-0.400224 3.000051,-0.818047 4.179688,-1.169922 0.589818,-0.175938 1.09994,-0.335181 1.498046,-0.470703 0.398107,-0.135522 0.569131,-0.142315 0.960938,-0.408203 0.786841,-0.533967 1.872656,-1.355151 2.347656,-2.710938 0.09391,-0.268542 0.140358,-0.520108 0.222656,-0.925781 0.0823,-0.405672 0.178559,-0.917154 0.28125,-1.505859 0.205384,-1.17741 0.439244,-2.656738 0.650391,-4.138672 0.211147,-1.481934 0.39871,-2.964958 0.507813,-4.162109 0.05455,-0.598576 0.09003,-1.122876 0.09766,-1.558594 0.0076,-0.435719 0.07502,-0.678847 -0.142578,-1.203125 C 28.922308,9.3449394 28.172933,8.786803 27.423873,8.2897953 27.049341,8.0412907 26.67319,7.8318576 26.310592,7.6765141 25.947994,7.5211706 25.669517,7.356952 25.091842,7.4382329 c -0.370871,0.052183 -0.45078,0.1704849 -0.580078,0.2773437 0.125995,-0.1770049 0.381094,-0.4562225 0.5,-0.6269531 0.937859,-1.3466217 1.649695,-2.4875806 2.101562,-3.4003906 0.225934,-0.4564052 0.391829,-0.8480156 0.480469,-1.2519532 0.04432,-0.2019688 0.07328,-0.408856 0.04297,-0.6640625 C 27.606455,1.5170107 27.487316,1.1770735 27.210984,0.93432661 26.934672,0.69159764 26.583127,0.61713115 26.326218,0.61987349 26.069309,0.62261549 25.866525,0.67890189 25.671921,0.74877973 25.282714,0.88853547 24.915906,1.1009058 24.492234,1.3835454 23.644888,1.9488246 22.605837,2.8021189 21.39067,3.9050297 20.838154,4.4065045 20.008899,5.3752848 19.392623,5.9733891 19.656804,5.6292745 19.94327,5.2667592 20.152389,4.9753422 20.325037,4.7347491 20.47081,4.5212346 20.587936,4.3366703 c 0.05856,-0.092282 0.110209,-0.1756137 0.158203,-0.265625 0.04799,-0.090011 0.09955,-0.143615 0.15039,-0.3984374 C 20.996889,3.1696283 20.836944,2.9738872 20.744186,2.7937016 20.651427,2.613516 20.547165,2.4663753 20.429733,2.3132329 20.194867,2.0069479 19.904854,1.6940309 19.589889,1.3894047 19.274924,1.0847785 18.940654,0.79433859 18.615279,0.55542036 18.289905,0.31650213 18.098282,0.08264323 17.470748,0.01245161 h -0.002 c -0.137075,-0.0151961 -0.226824,-0.0147731 -0.300734,-0.0078125 z M 16.181686,9.299561 c -1.239966,1.306209 -2.255298,2.199919 -3.578125,3.705078 -1.400072,1.593051 -2.213131,2.790069 -3.4023441,4.259766 0.072611,-0.362731 0.087437,-0.671156 0.076172,-0.980469 -0.014543,-0.399305 -0.02886,-0.841686 0.019531,-1.318359 0.096782,-0.95335 0.4012388,-2.01366 1.5175781,-3.101563 1.566026,-1.525968 2.745109,-2.0815728 3.564453,-2.3105468 0.409673,-0.114487 0.733015,-0.1476887 1.009766,-0.1640625 0.237526,-0.014053 0.447737,-0.00221 0.792969,-0.089844 z m 4.058593,3.761719 c -0.0082,0.223577 -0.0664,0.483956 -0.05859,0.707031 0.01397,0.399282 0.0276,0.841743 -0.02148,1.318359 -0.09817,0.953233 -0.403457,2.013465 -1.521484,3.09961 -1.568939,1.523694 -2.750681,2.07696 -3.570312,2.304687 -0.409816,0.113864 -0.731067,0.146178 -1.007813,0.16211 -0.168136,0.0097 -0.380456,0.04591 -0.5625,0.0625 1.252092,-1.317817 2.280026,-2.222672 3.617187,-3.744141 1.285469,-1.462651 2.014978,-2.548201 3.125,-3.910156 z" />
  <path fill="url(#rarity)" d="m 8.2398212,17.19941 c -0.256,0.682 -3.409,4.346 -4.005,4.431 -0.596,0.085 -2.727,-1.193 -3.153,-2.216 -0.42600004,-1.023 1.272,-11.7840001 1.619,-12.7830001 0.347,-0.999 1.236,-1.723 1.96,-2.216 0.725,-0.493 11.9309998,-3.49399998 12.6979998,-3.409 0.599,0.067 2.642,2.045 2.557,2.471 -0.085,0.426 -3.409,4.687 -3.92,4.858 -0.511,0.171 -2.557,-0.426 -5.88,2.8120001 -2.5909998,2.525 -1.6189998,5.369 -1.8749998,6.051 z m 12.9799998,-4.344 c -0.257,0.681 0.711,3.527 -1.884,6.048 -3.329,3.233 -5.373,2.633 -5.885,2.803 -0.512,0.17 -3.8419998,4.425 -3.9279998,4.851 -0.086,0.426 1.9539998,2.408 2.5529998,2.475 0.767,0.086 11.978,-2.897 12.703,-3.389 0.725,-0.492 1.614,-1.214 1.964,-2.213 0.349,-0.998 2.064,-11.757 1.639,-12.781 -0.425,-1.0240001 -2.553,-2.3050001 -3.15,-2.2210001 -0.597,0.084 -3.756,3.7440001 -4.012,4.4250001 z m -4.855,3.455 c 6.457,-7.3470001 11.017,-13.8950001 10.186,-14.6250001 -0.831,-0.72999998 -6.74,4.632 -13.197,11.9790001 -6.4569998,7.347 -11.0169998,13.895 -10.1859998,14.625 0.831,0.73 6.74,-4.632 13.1969998,-11.979 z"/>
</svg>
