<?xml version="1.0" encoding="UTF-8" standalone="no"?>
<svg
   version="1.1"
   width="32.556984"
   height="30.910879"
   viewBox="0 0 32.556984 30.910879"
   id="svg4"
   xmlns="http://www.w3.org/2000/svg"
   xmlns:svg="http://www.w3.org/2000/svg">
  <defs>
    <!-- This is the gradient that will actually be used on
     the cards. The colors themselves will be provided by the
     template, but the x values, y values, and offsets will be
     used from the SVG. -->
    <linearGradient id="rarity" x1="0" y1="1" x2="1" y2="0">
      <stop offset="0" style="stop-color:rgb(192,55,38);stop-opacity:1" id="stop2" />
      <stop offset="0.125" style="stop-color:rgb(192,55,38);stop-opacity:1" id="stop4" />
      <stop offset="0.5" style="stop-color:rgb(241,142,30);stop-opacity:1" id="stop6" />
      <stop offset="0.875" style="stop-color:rgb(192,55,38);stop-opacity:1" id="stop8" />
      <stop offset="1" style="stop-color:rgb(192,55,38);stop-opacity:1" id="stop10" />
    </linearGradient>
    <!-- These gradients are here so that you can visualize
     what the set symbol would like like in that rarity. The
     only gradient that matters in the end is the "rarity"
     gradient. -->
    <linearGradient id="mythic" x1="0" y1="1" x2="1" y2="0">
      <stop offset="0" style="stop-color:rgb(192,55,38);stop-opacity:1"/>
      <stop offset="0.125" style="stop-color:rgb(192,55,38);stop-opacity:1"/>
      <stop offset="0.5" style="stop-color:rgb(241,142,30);stop-opacity:1"/>
      <stop offset="0.875" style="stop-color:rgb(192,55,38);stop-opacity:1"/>
      <stop offset="1" style="stop-color:rgb(192,55,38);stop-opacity:1"/>
    </linearGradient>
    <linearGradient id="rare" x1="0" y1="1" x2="1" y2="0">
      <stop offset="0" style="stop-color:rgb(146,116,67);stop-opacity:1"/>
      <stop offset="0.125" style="stop-color:rgb(146,116,67);stop-opacity:1"/>
      <stop offset="0.5" style="stop-color:rgb(211,178,108);stop-opacity:1"/>
      <stop offset="0.875" style="stop-color:rgb(146,116,67);stop-opacity:1"/>
      <stop offset="1" style="stop-color:rgb(146,116,67);stop-opacity:1"/>
    </linearGradient>
    <linearGradient id="special" x1="0" y1="1" x2="1" y2="0">
      <stop offset="0" style="stop-color:rgb(76, 56, 106);stop-opacity:1"/>
      <stop offset="0.125" style="stop-color:rgb(76, 56, 106);stop-opacity:1"/>
      <stop offset="0.5" style="stop-color:rgb(201, 173, 221);stop-opacity:1"/>
      <stop offset="0.875" style="stop-color:rgb(76, 56, 106);stop-opacity:1"/>
      <stop offset="1" style="stop-color:rgb(76, 56, 106);stop-opacity:1"/>
    </linearGradient>
    <linearGradient id="uncommon" x1="0" y1="1" x2="1" y2="0">
      <stop offset="0" style="stop-color:rgb(98,110,119);stop-opacity:1"/>
      <stop offset="0.125" style="stop-color:rgb(98,110,119);stop-opacity:1"/>
      <stop offset="0.5" style="stop-color:rgb(196,222,238);stop-opacity:1"/>
      <stop offset="0.875" style="stop-color:rgb(98,110,119);stop-opacity:1"/>
      <stop offset="1" style="stop-color:rgb(98,110,119);stop-opacity:1"/>
    </linearGradient>
    <linearGradient id="common" x1="0" y1="1" x2="1" y2="0">
      <stop offset="0" style="stop-color:rgb(0,0,0);stop-opacity:1"/>
    </linearGradient>
    <linearGradient
            id="rarity-outline" x1="0" y1="1" x2="0" y2="1">
      <stop offset="0" style="stop-color:rgb(0,0,0);stop-opacity:1"/>
    </linearGradient>
  </defs>
  <path fill="url(#rarity-outline)" d="M 18.275391 0 C 16.139648 0 14.635443 1.2217647 13.765625 2.3515625 C 13.398421 2.8285197 13.444531 2.9152202 13.248047 3.3085938 C 12.553524 2.7897489 11.531928 2.2734375 10.195312 2.2734375 C 8.6924983 2.2734375 7.2937704 3.1098317 6.375 4.34375 C 5.8184305 5.0912286 5.5732374 6.0495033 5.5449219 7.0527344 C 4.6205551 6.8238035 3.4493074 6.7630785 2.3125 7.4355469 C 1.1253189 8.1363863 0.15279405 9.5004059 0.013671875 11.181641 C -0.12549547 12.863421 0.81288253 14.772727 3.1386719 16.001953 L 3.359375 16.117188 L 7.0390625 16.117188 L 32.556641 30.910156 L 24.035156 21.923828 L 28.169922 22.511719 L 21.353516 16.117188 L 27.462891 16.117188 L 27.548828 16.101562 C 27.548828 16.101562 28.327927 15.965949 29.072266 15.408203 C 29.816604 14.850457 30.570312 13.763813 30.570312 12.216797 C 30.570314 10.638452 29.711842 9.4401663 28.667969 8.8984375 C 27.875843 8.4873561 27.036673 8.463809 26.246094 8.6503906 C 26.029802 8.4124076 25.96309 8.2536158 25.472656 7.9628906 C 25.078101 7.7290018 24.551324 7.5483991 23.972656 7.4902344 C 24.112275 7.0210194 24.294922 6.5958208 24.294922 6.0214844 C 24.294922 4.9799418 23.855318 3.6738358 22.908203 2.4082031 C 22.058507 1.2727606 20.636375 0.35340103 18.841797 0.15234375 L 18.689453 0 L 18.275391 0 z " />
  <path fill="url(#rarity)" d="m 18.275606,1.001 c 3.529,0 5.019,3.677 5.019,5.021 0,1.412 -0.863,2.744 -0.863,2.744 2.042,-1.099 3.532,0.939 3.532,0.939 1.175,-0.623 3.607,0 3.607,2.511 0,2.511 -2.196,2.901 -2.196,2.901 h -8.551 l 6.355,5.96 -3.844,-0.545 5.725,6.036 -17.1770004,-9.958 5.1760004,0.627 -2.823,-2.12 H 3.6066056 c -4.15500002,-2.196 -2.508,-5.804 -0.784,-6.821 1.726,-1.021 3.922,0.312 3.922,0.312 -1.254,-2.665 1.255,-5.334 3.4500004,-5.334 2.195,0 3.295,1.648 3.295,1.648 0,0 1.254,-3.922 4.785,-3.922 z m -4.509,14.108 3.589,3.089 -3.619,-0.321 8.971,5.264 -3.559,-3.677 3.616,0.5 -5.194,-4.846 z"/>
</svg>
