<?xml version="1.0" encoding="UTF-8" standalone="no"?>
<!-- Generated by IcoMoon.io -->

<svg
   version="1.1"
   width="26.612085"
   height="26.945999"
   viewBox="0 0 26.612085 26.945999"
   id="svg6"
   sodipodi:docname="tor.svg"
   inkscape:version="1.1.1 (3bf5ae0d25, 2021-09-20)"
   xmlns:inkscape="http://www.inkscape.org/namespaces/inkscape"
   xmlns:sodipodi="http://sodipodi.sourceforge.net/DTD/sodipodi-0.dtd"
   xmlns="http://www.w3.org/2000/svg"
   xmlns:svg="http://www.w3.org/2000/svg">
  <defs
     id="defs10" />
  <sodipodi:namedview
     id="namedview8"
     pagecolor="#ffffff"
     bordercolor="#666666"
     borderopacity="1.0"
     inkscape:pageshadow="2"
     inkscape:pageopacity="0.0"
     inkscape:pagecheckerboard="0"
     showgrid="false"
     inkscape:zoom="26.5625"
     inkscape:cx="13.458824"
     inkscape:cy="13.458824"
     inkscape:window-width="1920"
     inkscape:window-height="1009"
     inkscape:window-x="-8"
     inkscape:window-y="-8"
     inkscape:window-maximized="1"
     inkscape:current-layer="svg6" />
  <title
     id="title2">tor</title>
  <path
     fill="#000000"
     d="m 14.18315,7.036 c 0.321,-0.643 0.798,-1.079 0.843,-2.083 0,0 -3.549,0.146 -3.374,3.184 0,0 1.779,0.402 2.531,-1.102 z m 2.74,18.755 c 0,0 -0.14,0.203 -0.261,0.286 -0.207,0.135 -0.43,0.126 -0.43,0.126 h -1.214 c 0,0 -0.47,0.743 -1.749,0.743 -1.279,0 -1.819,-0.809 -1.819,-0.809 0,0 -1.414,0.135 -2.0220002,-0.27 -0.203,-0.134 -0.384,-0.525 -0.384,-0.525 0,0 0.08,-0.261 0.097,-0.301 0.066,-0.172 0.075,-0.344 0.109,-0.528 0.023,-0.115 0.017,-0.226 0.066,-0.333 0.043,-0.092 0.161,-0.212 0.247,-0.283 0.077,-0.06 0.198,-0.164 0.283,-0.221 0.1950002,-0.126 0.3940002,-0.198 0.5740002,-0.344 0.189,-0.152 0.548,-0.502 0.548,-0.502 l -0.112,-0.149 c 0,0 -0.278,0.186 -0.318,0.215 -0.187,0.144 -0.35,0.281 -0.5650002,0.382 -0.212,0.101 -0.665,0.355 -0.665,0.355 0,0 -0.089,-0.101 -0.143,-0.184 -0.095,-0.14 -0.212,-0.25 -0.293,-0.402 -0.043,-0.086 -0.275,-0.344 -0.275,-0.344 l -0.089,0.112 c 0,0 0.247,0.519 0.261,0.623 0.017,0.106 0.134,0.336 0.115,0.435 -0.08,0.399 -0.155,0.648 -0.195,1.053 -0.017,0.184 -0.068,0.333 -0.068,0.333 0,0 -2.424,-0.066 -3.233,-0.671 -0.806,-0.608 -1.01,-1.618 -1.01,-1.618 0,0 0.204,-0.471 -0.47,-0.471 -0.674,0 -1.214,-0.47 -1.214,-0.47 C -0.06785024,18.658 1.4975798e-4,14.886 1.4975798e-4,14.886 L 1.0101498,13.876 c 0,0 0.405,-0.674 0.135,-1.01 -0.27000004,-0.338 -0.27000004,-0.471 -0.27000004,-1.145 0,-0.674 0.40400004,-1.213 0.40400004,-1.213 2.694,-3.838 5.523,-4.242 5.523,-4.242 0,0 -2.625,2.355 -2.625,7.676 0,5.321 3.907,8.354 8.4200002,8.354 4.513,0 6.399,-2.49 6.399,-2.49 0,0 3.098,-4.312 1.28,-5.995 -1.819,-1.684 -1.684,-3.772 -1.684,-3.772 -0.27,0 -0.944,0.405 -0.944,0.405 -0.471,-0.272 -0.944,-0.944 -0.944,-0.944 -0.74,1.01 -1.615,1.279 -1.615,1.279 l -0.539,-0.404 c -0.54,1.144 -1.414,2.154 -1.414,2.154 -0.474,0.203 -1.079,-0.132 -1.079,-0.132 -0.405,1.28 0.54,2.964 0.54,2.964 -0.54,0.267 -1.28,0.068 -1.888,-0.54 -0.605,-0.608 -1.0760002,-0.944 -1.5490002,-0.47 -0.471,0.47 -0.201,1.21 -0.201,1.21 -0.404,-0.066 -1.009,-0.402 -1.009,-0.402 -0.27,0.537 -0.27,1.549 -0.27,1.549 -3.841,-1.953 -1.147,-4.179 -1.147,-4.179 0.069,-1.684 0.203,-2.625 1.348,-3.233 1.144,-0.605 1.549,-1.076 1.348,-1.615 -0.204,-0.54 -0.451,-1.315 0.046,-1.839 C 10.06415,5.004 12.32715,5.053 13.00115,2.694 13.67515,0.335 15.49415,0 15.49415,0 c -0.339,1.079 0.671,3.098 1.884,2.224 1.214,-0.878 3.368,-0.878 3.368,-0.878 -0.941,1.618 -0.605,2.762 -0.605,2.762 1.615,-1.01 4.177,0.809 4.378,1.145 0.203,0.339 0.339,1.213 0.539,1.417 0.201,0.2 0.54,0.941 0.135,1.01 -0.405,0.069 -0.605,0.539 0,0.941 0.608,0.407 0.405,1.483 0.608,1.953 0.201,0.473 0.875,1.079 0.806,2.022 -0.066,0.944 -0.74,1.279 -0.674,1.887 0.069,0.605 -0.066,3.637 -0.066,3.637 -0.474,-1.01 -2.023,-1.821 -2.023,-1.821 0,0 1.753,1.618 1.753,3.167 0,1.552 -3.098,2.898 -3.098,2.898 -0.743,1.348 -1.953,2.157 -1.953,2.157 0,0 -1.414,-0.069 -2.022,0.201 -0.539,0.241 -0.921,0.855 -0.996,0.986 0,0 -0.358,-0.576 -0.152,-1.77 0,0 -0.763,0.878 -0.45,1.851 z"
     id="path4" />
</svg>
