<?xml version="1.0" encoding="UTF-8" standalone="no"?>
<svg
   version="1.1"
   width="28.612347"
   height="28.945972"
   viewBox="0 0 28.612346 28.945972"
   id="svg4"
   xmlns="http://www.w3.org/2000/svg"
   xmlns:svg="http://www.w3.org/2000/svg">
  <defs>
    <!-- This is the gradient that will actually be used on
     the cards. The colors themselves will be provided by the
     template, but the x values, y values, and offsets will be
     used from the SVG. -->
    <linearGradient id="rarity" x1="0" y1="1" x2="1" y2="0">
      <stop offset="0" style="stop-color:rgb(192,55,38);stop-opacity:1" id="stop2" />
      <stop offset="0.125" style="stop-color:rgb(192,55,38);stop-opacity:1" id="stop4" />
      <stop offset="0.5" style="stop-color:rgb(241,142,30);stop-opacity:1" id="stop6" />
      <stop offset="0.875" style="stop-color:rgb(192,55,38);stop-opacity:1" id="stop8" />
      <stop offset="1" style="stop-color:rgb(192,55,38);stop-opacity:1" id="stop10" />
    </linearGradient>
    <!-- These gradients are here so that you can visualize
     what the set symbol would like like in that rarity. The
     only gradient that matters in the end is the "rarity"
     gradient. -->
    <linearGradient id="mythic" x1="0" y1="1" x2="1" y2="0">
      <stop offset="0" style="stop-color:rgb(192,55,38);stop-opacity:1"/>
      <stop offset="0.125" style="stop-color:rgb(192,55,38);stop-opacity:1"/>
      <stop offset="0.5" style="stop-color:rgb(241,142,30);stop-opacity:1"/>
      <stop offset="0.875" style="stop-color:rgb(192,55,38);stop-opacity:1"/>
      <stop offset="1" style="stop-color:rgb(192,55,38);stop-opacity:1"/>
    </linearGradient>
    <linearGradient id="rare" x1="0" y1="1" x2="1" y2="0">
      <stop offset="0" style="stop-color:rgb(146,116,67);stop-opacity:1"/>
      <stop offset="0.125" style="stop-color:rgb(146,116,67);stop-opacity:1"/>
      <stop offset="0.5" style="stop-color:rgb(211,178,108);stop-opacity:1"/>
      <stop offset="0.875" style="stop-color:rgb(146,116,67);stop-opacity:1"/>
      <stop offset="1" style="stop-color:rgb(146,116,67);stop-opacity:1"/>
    </linearGradient>
    <linearGradient id="special" x1="0" y1="1" x2="1" y2="0">
      <stop offset="0" style="stop-color:rgb(76, 56, 106);stop-opacity:1"/>
      <stop offset="0.125" style="stop-color:rgb(76, 56, 106);stop-opacity:1"/>
      <stop offset="0.5" style="stop-color:rgb(201, 173, 221);stop-opacity:1"/>
      <stop offset="0.875" style="stop-color:rgb(76, 56, 106);stop-opacity:1"/>
      <stop offset="1" style="stop-color:rgb(76, 56, 106);stop-opacity:1"/>
    </linearGradient>
    <linearGradient id="uncommon" x1="0" y1="1" x2="1" y2="0">
      <stop offset="0" style="stop-color:rgb(98,110,119);stop-opacity:1"/>
      <stop offset="0.125" style="stop-color:rgb(98,110,119);stop-opacity:1"/>
      <stop offset="0.5" style="stop-color:rgb(196,222,238);stop-opacity:1"/>
      <stop offset="0.875" style="stop-color:rgb(98,110,119);stop-opacity:1"/>
      <stop offset="1" style="stop-color:rgb(98,110,119);stop-opacity:1"/>
    </linearGradient>
    <linearGradient id="common" x1="0" y1="1" x2="1" y2="0">
      <stop offset="0" style="stop-color:rgb(0,0,0);stop-opacity:1"/>
    </linearGradient>
    <linearGradient
            id="rarity-outline" x1="0" y1="1" x2="0" y2="1">
      <stop offset="0" style="stop-color:rgb(0,0,0);stop-opacity:1"/>
    </linearGradient>
  </defs>
  <path fill="url(#rarity-outline)" d="M 16.568359 0.001953125 A 1.0001 1.0001 0 0 0 16.3125 0.015625 C 16.3125 0.015625 15.624509 0.15370438 14.925781 0.64453125 C 14.227054 1.1353581 13.437908 2.0239579 13.039062 3.4199219 C 12.783781 4.3134025 12.346074 4.6275745 11.720703 4.9511719 C 11.096 5.2744236 10.276512 5.3830476 9.5488281 6.1542969 C 9.5488281 6.1542969 9.5488281 6.15625 9.5488281 6.15625 C 9.0752489 6.656704 8.953501 7.3289141 8.9921875 7.8320312 C 9.0249975 8.2587256 9.1446502 8.5744178 9.2460938 8.8515625 C 9.1623646 8.9396053 8.9067056 9.1515767 8.4140625 9.4121094 A 1.0001 1.0001 0 0 0 8.4121094 9.4121094 C 7.6651451 9.808749 7.1157732 10.457193 6.8613281 11.173828 C 6.6539057 11.758026 6.6291727 12.393428 6.59375 13.060547 C 6.5035219 13.148516 6.4853036 13.173802 6.3691406 13.320312 C 6.5695698 11.73356 6.9353227 10.412342 7.375 9.5722656 C 7.9638785 8.4471151 8.4707031 8.0097656 8.4707031 8.0097656 A 1.0001 1.0001 0 0 0 7.6601562 6.2753906 C 7.6601562 6.2753906 6.7330736 6.4241456 5.5644531 7.0742188 C 4.3978082 7.7231931 2.8986546 8.8919513 1.46875 10.925781 C 1.4487719 10.950546 0.875 11.665485 0.875 12.720703 C 0.875 13.057703 0.8607409 13.300606 0.9296875 13.626953 C 0.9758805 13.8456 1.1069326 14.021017 1.2207031 14.205078 C 1.2069801 14.243668 1.1991159 14.256936 1.1855469 14.285156 L 0.29296875 15.179688 A 1.0001 1.0001 0 0 0 0 15.867188 C 0 15.867188 -0.078947275 20.002012 2.9199219 23.662109 A 1.0001 1.0001 0 0 0 3.0371094 23.783203 C 3.0371094 23.783203 3.6306139 24.220482 4.46875 24.382812 C 4.533266 24.671463 4.7795805 25.62817 5.7851562 26.386719 A 1.0001 1.0001 0 0 0 5.7890625 26.388672 C 6.5632067 26.967605 7.4151539 27.042974 8.1796875 27.142578 C 8.8723749 27.232818 9.3544496 27.242669 9.4609375 27.246094 C 9.5500665 27.386088 9.613269 27.525748 9.875 27.699219 C 9.875 27.699219 9.8769531 27.701172 9.8769531 27.701172 C 10.519605 28.127379 11.124866 28.132617 11.626953 28.152344 C 11.893574 28.162814 11.945047 28.150978 12.113281 28.142578 C 12.534325 28.5124 13.18037 28.945312 14.269531 28.945312 C 15.102671 28.945312 15.7547 28.690852 16.179688 28.40625 C 16.308656 28.31988 16.290977 28.294186 16.386719 28.203125 L 17.191406 28.203125 C 17.191406 28.203125 17.709698 28.239686 18.208984 27.914062 A 1.0001 1.0001 0 0 0 18.228516 27.902344 C 18.373515 27.802884 18.411845 27.73977 18.474609 27.667969 A 1.0001 1.0001 0 0 0 19.396484 27.205078 C 19.413394 27.175548 19.806241 26.694075 19.929688 26.636719 C 19.942007 26.631219 20.41903 26.534197 20.800781 26.519531 C 21.182532 26.504861 21.498047 26.519531 21.498047 26.519531 A 1.0001 1.0001 0 0 0 22.101562 26.351562 C 22.101562 26.351562 23.261331 25.514724 24.136719 24.148438 C 24.325625 24.063517 24.865562 23.834422 25.613281 23.322266 C 26.047418 23.0249 26.497049 22.669288 26.876953 22.21875 C 27.256857 21.768212 27.597656 21.187485 27.597656 20.466797 C 27.597656 20.175954 27.484327 19.943057 27.421875 19.681641 A 1.0001 1.0001 0 0 0 27.865234 19.164062 C 27.865234 19.164062 27.900391 18.400926 27.925781 17.558594 C 27.950472 16.739475 27.986622 15.978544 27.929688 15.419922 C 27.928074 15.40409 27.927549 15.384638 27.925781 15.369141 L 27.927734 15.375 C 27.929859 15.394668 27.929175 15.411427 27.929688 15.419922 C 27.931224 15.445406 27.943671 15.402006 28.076172 15.183594 C 28.252367 14.893159 28.553338 14.367155 28.603516 13.669922 C 28.706993 12.255723 27.782704 11.260341 27.734375 11.201172 C 27.755178 11.19676 27.694578 10.844874 27.640625 10.441406 C 27.589525 10.059258 27.40758 9.5302354 26.996094 9.0898438 C 27.102033 8.9611352 27.303564 8.9075232 27.337891 8.7792969 C 27.435941 8.4130401 27.374429 8.1700084 27.318359 7.9628906 C 27.22042 7.6010353 27.120477 7.3609256 26.873047 7.0820312 C 26.86723 7.0758701 26.861568 7.0758783 26.853516 7.0546875 C 26.828601 6.9890757 26.788843 6.8669804 26.748047 6.7285156 C 26.666596 6.452065 26.621371 6.1491887 26.376953 5.7402344 L 26.376953 5.7382812 C 26.214403 5.4670946 26.122342 5.4194281 25.994141 5.3085938 C 25.865613 5.1974779 25.717559 5.0855377 25.544922 4.9667969 C 25.199648 4.7293152 24.760498 4.4722193 24.253906 4.2558594 C 23.68186 4.0115447 22.986948 3.8639199 22.269531 3.8632812 C 22.338254 3.5564507 22.354758 3.2907676 22.611328 2.8496094 A 1.0001 1.0001 0 0 0 21.746094 1.3457031 C 21.746094 1.3457031 21.129281 1.3463347 20.359375 1.46875 C 19.591207 1.590889 18.632089 1.8116188 17.798828 2.4121094 C 17.788596 2.4030356 17.754226 2.390533 17.679688 2.28125 C 17.492205 2.0063754 17.416346 1.3972433 17.447266 1.2988281 A 1.0001 1.0001 0 0 0 16.568359 0.001953125 z M 17.679688 11.851562 C 17.876206 12.052853 17.837122 12.130764 18.148438 12.310547 A 1.0001 1.0001 0 0 0 18.765625 12.304688 C 18.953565 13.236757 19.380329 14.417941 20.597656 15.544922 C 20.792045 15.724876 20.868472 15.948746 20.84375 16.404297 C 20.81903 16.859848 20.642979 17.468512 20.396484 18.048828 C 19.906275 19.202914 19.199458 20.199601 19.191406 20.210938 C 19.186906 20.217137 18.866536 20.657235 17.974609 21.193359 C 17.076416 21.733251 15.670241 22.296875 13.597656 22.296875 C 11.565178 22.296875 9.7105017 21.614373 8.3730469 20.378906 C 7.5213727 19.592177 6.9766299 18.492121 6.6113281 17.238281 C 7.0376292 17.718238 7.4420438 18.200712 8.2265625 18.599609 A 1.0001 1.0001 0 0 0 9.6796875 17.707031 C 9.6796875 17.707031 9.6891773 17.570766 9.6914062 17.507812 C 9.7502053 17.520853 9.7350623 17.538728 9.796875 17.548828 A 1.0001 1.0001 0 0 0 10.898438 16.439453 C 10.949967 16.485673 10.942638 16.467741 11 16.525391 A 1.0001 1.0001 0 0 0 11.001953 16.527344 C 11.819681 17.345071 12.998676 17.773193 14.041016 17.257812 A 1.0001 1.0001 0 0 0 14.46875 15.871094 C 14.46875 15.871094 14.280339 15.534779 14.126953 15.054688 C 14.061743 14.850584 14.102912 14.687843 14.076172 14.478516 C 14.240649 14.452716 14.347325 14.525196 14.529297 14.447266 A 1.0001 1.0001 0 0 0 14.892578 14.183594 C 14.892578 14.183594 15.454743 13.31637 15.898438 12.650391 A 1.0001 1.0001 0 0 0 16.382812 12.734375 C 16.382812 12.734375 17.004013 12.404108 17.679688 11.851562 z " />
  <path fill="url(#rarity)" d="m 15.183032,8.0359716 c 0.321,-0.643 0.798,-1.079 0.843,-2.083 0,0 -3.549,0.146 -3.374,3.184 0,0 1.779,0.402 2.531,-1.102 z m 2.74,18.7550004 c 0,0 -0.14,0.203 -0.261,0.286 -0.207,0.135 -0.43,0.126 -0.43,0.126 h -1.214 c 0,0 -0.47,0.743 -1.749,0.743 -1.279,0 -1.819,-0.809 -1.819,-0.809 0,0 -1.414,0.135 -2.022,-0.27 -0.203,-0.134 -0.384,-0.525 -0.384,-0.525 0,0 0.08,-0.261 0.097,-0.301 0.066,-0.172 0.075,-0.344 0.109,-0.528 0.023,-0.115 0.017,-0.226 0.066,-0.333 0.043,-0.092 0.161,-0.212 0.247,-0.283 0.077,-0.06 0.198,-0.164 0.283,-0.221 0.195,-0.126 0.394,-0.198 0.574,-0.344 0.189,-0.152 0.548,-0.502 0.548,-0.502 l -0.112,-0.149 c 0,0 -0.278,0.186 -0.318,0.215 -0.187,0.144 -0.35,0.281 -0.565,0.382 -0.212,0.101 -0.665,0.355 -0.665,0.355 0,0 -0.089,-0.101 -0.143,-0.184 -0.095,-0.14 -0.2119998,-0.25 -0.2929998,-0.402 -0.043,-0.086 -0.275,-0.344 -0.275,-0.344 l -0.089,0.112 c 0,0 0.247,0.519 0.261,0.623 0.017,0.106 0.134,0.336 0.115,0.435 -0.08,0.399 -0.155,0.648 -0.195,1.053 -0.017,0.184 -0.068,0.333 -0.068,0.333 0,0 -2.424,-0.066 -3.233,-0.671 -0.806,-0.608 -1.01,-1.618 -1.01,-1.618 0,0 0.204,-0.471 -0.47,-0.471 -0.674,0 -1.214,-0.47 -1.214,-0.47 -2.76200002,-3.371 -2.694,-7.143 -2.694,-7.143 l 1.01,-1.01 c 0,0 0.405,-0.674 0.135,-1.01 -0.27,-0.338 -0.27,-0.471 -0.27,-1.145 0,-0.674 0.404,-1.213 0.404,-1.213 2.694,-3.8380004 5.523,-4.2420004 5.523,-4.2420004 0,0 -2.625,2.355 -2.625,7.6760004 0,5.321 3.907,8.354 8.4199998,8.354 4.513,0 6.399,-2.49 6.399,-2.49 0,0 3.098,-4.312 1.28,-5.995 -1.819,-1.684 -1.684,-3.772 -1.684,-3.772 -0.27,0 -0.944,0.405 -0.944,0.405 -0.471,-0.272 -0.944,-0.944 -0.944,-0.944 -0.74,1.01 -1.615,1.279 -1.615,1.279 l -0.539,-0.404 c -0.54,1.144 -1.414,2.154 -1.414,2.154 -0.474,0.203 -1.079,-0.132 -1.079,-0.132 -0.405,1.28 0.54,2.964 0.54,2.964 -0.54,0.267 -1.28,0.068 -1.888,-0.54 -0.605,-0.608 -1.076,-0.944 -1.549,-0.47 -0.4709998,0.47 -0.2009998,1.21 -0.2009998,1.21 -0.404,-0.066 -1.009,-0.402 -1.009,-0.402 -0.27,0.537 -0.27,1.549 -0.27,1.549 -3.841,-1.953 -1.147,-4.179 -1.147,-4.179 0.069,-1.684 0.203,-2.625 1.348,-3.233 1.1439998,-0.6050004 1.5489998,-1.0760004 1.3479998,-1.6150004 -0.204,-0.54 -0.4509998,-1.315 0.046,-1.839 0.789,-0.838 3.052,-0.789 3.726,-3.148 0.674,-2.359 2.493,-2.694 2.493,-2.694 -0.339,1.079 0.671,3.098 1.884,2.224 1.214,-0.878 3.368,-0.878 3.368,-0.878 -0.941,1.618 -0.605,2.762 -0.605,2.762 1.615,-1.01 4.177,0.809 4.378,1.145 0.203,0.339 0.339,1.213 0.539,1.417 0.201,0.2 0.54,0.941 0.135,1.01 -0.405,0.069 -0.605,0.539 0,0.941 0.608,0.4070004 0.405,1.4830004 0.608,1.9530004 0.201,0.473 0.875,1.079 0.806,2.022 -0.066,0.944 -0.74,1.279 -0.674,1.887 0.069,0.605 -0.066,3.637 -0.066,3.637 -0.474,-1.01 -2.023,-1.821 -2.023,-1.821 0,0 1.753,1.618 1.753,3.167 0,1.552 -3.098,2.898 -3.098,2.898 -0.743,1.348 -1.953,2.157 -1.953,2.157 0,0 -1.414,-0.069 -2.022,0.201 -0.539,0.241 -0.921,0.855 -0.996,0.986 0,0 -0.358,-0.576 -0.152,-1.77 0,0 -0.763,0.878 -0.45,1.851 z"/>
</svg>
