<?xml version="1.0" encoding="UTF-8" standalone="no"?>
<svg
   version="1.1"
   width="33.396988"
   height="21"
   viewBox="0 0 33.396988 21"
   id="svg8"
   xmlns="http://www.w3.org/2000/svg"
   xmlns:svg="http://www.w3.org/2000/svg">
  <defs>
    <!-- This is the gradient that will actually be used on
     the cards. The colors themselves will be provided by the
     template, but the x values, y values, and offsets will be
     used from the SVG. -->
    <linearGradient id="rarity" x1="0" y1="0" x2="1" y2="0">
      <stop offset="0" style="stop-color:rgb(192,55,38);stop-opacity:1" id="stop2" />
      <stop offset="0.0625" style="stop-color:rgb(192,55,38);stop-opacity:1" id="stop4" />
      <stop offset="0.5" style="stop-color:rgb(241,142,30);stop-opacity:1" id="stop6" />
      <stop offset="0.9375" style="stop-color:rgb(192,55,38);stop-opacity:1" id="stop8" />
      <stop offset="1" style="stop-color:rgb(192,55,38);stop-opacity:1" id="stop10" />
    </linearGradient>
    <!-- These gradients are here so that you can visualize
     what the set symbol would like like in that rarity. The
     only gradient that matters in the end is the "rarity"
     gradient. -->
    <linearGradient id="mythic" x1="0" y1="1" x2="1" y2="0">
      <stop offset="0" style="stop-color:rgb(192,55,38);stop-opacity:1"/>
      <stop offset="0.125" style="stop-color:rgb(192,55,38);stop-opacity:1"/>
      <stop offset="0.5" style="stop-color:rgb(241,142,30);stop-opacity:1"/>
      <stop offset="0.875" style="stop-color:rgb(192,55,38);stop-opacity:1"/>
      <stop offset="1" style="stop-color:rgb(192,55,38);stop-opacity:1"/>
    </linearGradient>
    <linearGradient id="rare" x1="0" y1="1" x2="1" y2="0">
      <stop offset="0" style="stop-color:rgb(146,116,67);stop-opacity:1"/>
      <stop offset="0.125" style="stop-color:rgb(146,116,67);stop-opacity:1"/>
      <stop offset="0.5" style="stop-color:rgb(211,178,108);stop-opacity:1"/>
      <stop offset="0.875" style="stop-color:rgb(146,116,67);stop-opacity:1"/>
      <stop offset="1" style="stop-color:rgb(146,116,67);stop-opacity:1"/>
    </linearGradient>
    <linearGradient id="special" x1="0" y1="1" x2="1" y2="0">
      <stop offset="0" style="stop-color:rgb(76, 56, 106);stop-opacity:1"/>
      <stop offset="0.125" style="stop-color:rgb(76, 56, 106);stop-opacity:1"/>
      <stop offset="0.5" style="stop-color:rgb(201, 173, 221);stop-opacity:1"/>
      <stop offset="0.875" style="stop-color:rgb(76, 56, 106);stop-opacity:1"/>
      <stop offset="1" style="stop-color:rgb(76, 56, 106);stop-opacity:1"/>
    </linearGradient>
    <linearGradient id="uncommon" x1="0" y1="1" x2="1" y2="0">
      <stop offset="0" style="stop-color:rgb(98,110,119);stop-opacity:1"/>
      <stop offset="0.125" style="stop-color:rgb(98,110,119);stop-opacity:1"/>
      <stop offset="0.5" style="stop-color:rgb(196,222,238);stop-opacity:1"/>
      <stop offset="0.875" style="stop-color:rgb(98,110,119);stop-opacity:1"/>
      <stop offset="1" style="stop-color:rgb(98,110,119);stop-opacity:1"/>
    </linearGradient>
    <linearGradient id="common" x1="0" y1="1" x2="1" y2="0">
      <stop offset="0" style="stop-color:rgb(0,0,0);stop-opacity:1"/>
    </linearGradient>
    <linearGradient
            id="rarity-outline" x1="0" y1="1" x2="0" y2="1">
      <stop offset="0" style="stop-color:rgb(0,0,0);stop-opacity:1"/>
    </linearGradient>
  </defs>
  <path fill="url(#rarity-outline)" d="M 12.126953 0 L 11.132812 0.001953125 L 11.5625 0.89648438 C 12.937033 3.7494076 14.315414 6.5982264 15.689453 9.4492188 C 14.883887 9.4299755 14.077446 9.4100479 13.269531 9.3945312 L 11.994141 9.3710938 L 12.757812 10.392578 C 15.012816 13.415582 17.267392 16.437877 19.523438 19.460938 L 21.359375 21.923828 L 20.630859 18.939453 C 20.25847 17.415573 19.886522 15.891158 19.515625 14.367188 C 19.99316 14.356628 20.468288 14.345811 20.951172 14.332031 L 21.845703 14.306641 L 21.515625 13.474609 C 20.593276 11.161018 19.670247 8.8499689 18.748047 6.5371094 C 19.645523 4.6572461 20.548308 2.7787359 21.447266 0.89648438 L 21.875 0.001953125 L 20.882812 0.001953125 C 17.963524 -4.2077142e-05 15.045943 0 12.126953 0 z M 24.111328 0.953125 L 23.828125 1.4882812 C 22.885462 3.2745381 21.951348 5.059366 21.013672 6.84375 L 20.742188 7.3613281 L 21.240234 7.6679688 C 22.826974 8.6408672 23.92713 10.333612 24.585938 12.138672 C 25.354506 14.255488 25.631057 16.550846 25.71875 18.851562 L 25.740234 19.453125 L 26.34375 19.453125 C 27.690439 19.452125 29.036123 19.452125 30.382812 19.453125 L 31.091797 19.453125 L 31.003906 18.75 C 30.873865 17.723807 30.912526 16.68016 31.394531 15.914062 L 31.398438 15.910156 L 31.400391 15.90625 C 31.684734 15.437156 32.225538 15.107243 32.816406 14.986328 L 33.396484 14.867188 L 33.310547 14.28125 C 33.009685 12.252729 32.414696 10.265117 31.533203 8.4082031 C 30.10676 5.3653201 27.728336 2.7133822 24.654297 1.2167969 L 24.111328 0.953125 z M 9.2773438 1.1347656 L 8.7304688 1.4042969 C 7.0650428 2.2218123 5.5741647 3.3763918 4.3515625 4.7617188 L 4.3515625 4.7636719 C 1.9628373 7.4761871 0.62409364 10.94155 0.08984375 14.431641 L 0 15.017578 L 0.58007812 15.136719 C 1.1598399 15.256697 1.6945704 15.582157 1.9785156 16.039062 L 1.9824219 16.044922 L 1.9863281 16.048828 C 2.4826944 16.813694 2.5288039 17.866511 2.3945312 18.898438 L 2.3027344 19.603516 L 3.015625 19.603516 C 4.3639922 19.602516 5.7105942 19.603657 7.0605469 19.601562 L 7.6621094 19.601562 L 7.6835938 18.998047 C 7.7564447 16.91786 7.9953322 14.848269 8.6074219 12.898438 L 8.6054688 12.898438 C 9.2436212 10.87475 10.363583 8.9239657 12.134766 7.8886719 L 12.648438 7.5878906 L 12.373047 7.0605469 C 11.393816 5.1848015 10.4005 3.2806783 9.5605469 1.6757812 L 9.2773438 1.1347656 z " />
  <path fill="url(#rarity)" d="m 12.125535,0.62500009 c 1.522,3.15900001 3.049312,6.31365621 4.570312,9.47265591 -1.146,-0.026 -2.2915,-0.05612 -3.4375,-0.07813 2.255,3.023 4.509625,6.04536 6.765625,9.06836 -0.434,-1.776 -0.866828,-3.552125 -1.298828,-5.328125 0.736,-0.022 1.472984,-0.03174 2.208984,-0.05274 -0.955999,-2.398 -1.91314,-4.7934059 -2.86914,-7.1914059 0.937,-1.964 1.880359,-3.9246719 2.818359,-5.88867188 -2.919,-0.001995 -5.836859,-0.001948 -8.755859,-0.001948 z M 24.381394,1.779297 c -0.942,1.785 -1.876453,3.5704687 -2.814453,5.3554687 1.75,1.073 2.913469,2.8930623 3.605469,4.7890623 0.802,2.208 1.080922,4.569297 1.169922,6.904297 1.347,-0.001 2.694015,-0.001 4.041015,0 -0.138,-1.089 -0.121578,-2.286094 0.482422,-3.246094 0.394,-0.65 1.093172,-1.058984 1.826172,-1.208984 -0.292,-1.969 -0.868656,-3.898266 -1.722656,-5.6972657 C 29.597285,5.7477814 27.308394,3.204297 24.381394,1.779297 Z M 9.0063936,1.9648439 C 7.4178223,2.7446334 5.9906692,3.8502589 4.8208467,5.1757813 2.5304611,7.776624 1.2274907,11.128879 0.70756554,14.525391 c 0.71999996,0.149 1.40873436,0.549593 1.80273436,1.183593 0.623,0.96 0.6469062,2.170532 0.5039062,3.269532 1.349,-10e-4 2.6959219,4.6e-5 4.0449219,-0.002 0.074,-2.112999 0.3151719,-4.239625 0.9511719,-6.265624 0.666,-2.112 1.8445937,-4.2133285 3.8085941,-5.3613285 -0.937,-1.796 -1.8735004,-3.5907657 -2.8125004,-5.3847656 z"/>
</svg>
