<?xml version="1.0" encoding="UTF-8" standalone="no"?>
<svg
   version="1.1"
   width="24.459024"
   height="27.63677"
   viewBox="0 0 24.459025 27.636771"
   id="svg4"
   xmlns="http://www.w3.org/2000/svg"
   xmlns:svg="http://www.w3.org/2000/svg">
  <defs>
    <!-- This is the gradient that will actually be used on
     the cards. The colors themselves will be provided by the
     template, but the x values, y values, and offsets will be
     used from the SVG. -->
    <linearGradient id="rarity" x1="0" y1="0" x2="1" y2="1">
      <stop offset="0" style="stop-color:rgb(192,55,38);stop-opacity:1" id="stop2" />
      <stop offset="0.125" style="stop-color:rgb(192,55,38);stop-opacity:1" id="stop4" />
      <stop offset="0.5" style="stop-color:rgb(241,142,30);stop-opacity:1" id="stop6" />
      <stop offset="0.875" style="stop-color:rgb(192,55,38);stop-opacity:1" id="stop8" />
      <stop offset="1" style="stop-color:rgb(192,55,38);stop-opacity:1" id="stop10" />
    </linearGradient>
    <!-- These gradients are here so that you can visualize
     what the set symbol would like like in that rarity. The
     only gradient that matters in the end is the "rarity"
     gradient. -->
    <linearGradient id="mythic" x1="0" y1="1" x2="1" y2="0">
      <stop offset="0" style="stop-color:rgb(192,55,38);stop-opacity:1"/>
      <stop offset="0.125" style="stop-color:rgb(192,55,38);stop-opacity:1"/>
      <stop offset="0.5" style="stop-color:rgb(241,142,30);stop-opacity:1"/>
      <stop offset="0.875" style="stop-color:rgb(192,55,38);stop-opacity:1"/>
      <stop offset="1" style="stop-color:rgb(192,55,38);stop-opacity:1"/>
    </linearGradient>
    <linearGradient id="rare" x1="0" y1="1" x2="1" y2="0">
      <stop offset="0" style="stop-color:rgb(146,116,67);stop-opacity:1"/>
      <stop offset="0.125" style="stop-color:rgb(146,116,67);stop-opacity:1"/>
      <stop offset="0.5" style="stop-color:rgb(211,178,108);stop-opacity:1"/>
      <stop offset="0.875" style="stop-color:rgb(146,116,67);stop-opacity:1"/>
      <stop offset="1" style="stop-color:rgb(146,116,67);stop-opacity:1"/>
    </linearGradient>
    <linearGradient id="special" x1="0" y1="1" x2="1" y2="0">
      <stop offset="0" style="stop-color:rgb(76, 56, 106);stop-opacity:1"/>
      <stop offset="0.125" style="stop-color:rgb(76, 56, 106);stop-opacity:1"/>
      <stop offset="0.5" style="stop-color:rgb(201, 173, 221);stop-opacity:1"/>
      <stop offset="0.875" style="stop-color:rgb(76, 56, 106);stop-opacity:1"/>
      <stop offset="1" style="stop-color:rgb(76, 56, 106);stop-opacity:1"/>
    </linearGradient>
    <linearGradient id="uncommon" x1="0" y1="1" x2="1" y2="0">
      <stop offset="0" style="stop-color:rgb(98,110,119);stop-opacity:1"/>
      <stop offset="0.125" style="stop-color:rgb(98,110,119);stop-opacity:1"/>
      <stop offset="0.5" style="stop-color:rgb(196,222,238);stop-opacity:1"/>
      <stop offset="0.875" style="stop-color:rgb(98,110,119);stop-opacity:1"/>
      <stop offset="1" style="stop-color:rgb(98,110,119);stop-opacity:1"/>
    </linearGradient>
    <linearGradient id="common" x1="0" y1="1" x2="1" y2="0">
      <stop offset="0" style="stop-color:rgb(0,0,0);stop-opacity:1"/>
    </linearGradient>
    <linearGradient
            id="rarity-outline" x1="0" y1="1" x2="0" y2="1">
      <stop offset="0" style="stop-color:rgb(0,0,0);stop-opacity:1"/>
    </linearGradient>
  </defs>
  <path fill="url(#rarity-outline)" d="M 1.0546875,0 C 0.47002142,0 0,0.49224476 0,1.0625 v 2.4472656 c 0,0.5848389 0.47597379,1.0507813 1.0546875,1.0507813 h 1.1523437 c 0.2375354,2.8758275 2.2732505,5.0257801 4.6972657,6.3027341 6.498e-4,6.52e-4 0.0013,0.0013 0.00195,0.002 0.6139555,0.320496 0.8871389,0.599345 1.0644531,0.962891 0.1773143,0.363546 0.2597657,0.886572 0.2597657,1.675781 0,0.772882 -0.087879,1.297578 -0.2753907,1.675782 -0.1875115,0.378201 -0.4757813,0.675577 -1.09375,1 -2.5805247,1.354483 -4.7910156,3.665891 -4.7910156,6.816406 0,0.02698 0.00554,0.05135 0.00586,0.07813 H 1.0566406 c -0.58466607,0 -1.05468748,0.482856 -1.05468748,1.058593 v 2.451172 c -10e-9,0.580151 0.47894998,1.052735 1.05468748,1.052735 H 23.402344 c 0.570255,0 1.05664,-0.481675 1.05664,-1.052735 v -2.451172 c 0,-0.566807 -0.477664,-1.058593 -1.05664,-1.058593 h -1.0625 c 4.05e-4,-0.02789 0.0059,-0.04979 0.0059,-0.07813 0,-3.151408 -2.215601,-5.46297 -4.792969,-6.816406 -0.616954,-0.324347 -0.906357,-0.619729 -1.09375,-0.998047 -0.187392,-0.378319 -0.27539,-0.904853 -0.27539,-1.677735 0,-0.748152 0.08989,-1.253637 0.283203,-1.626953 0.193313,-0.373315 0.50124,-0.679464 1.136719,-1.013672 2.427672,-1.2753021 4.461817,-3.4267767 4.699218,-6.3027341 h 1.103516 c 0.577283,0 1.052734,-0.4752016 1.052734,-1.0507813 -6.51e-4,-8e-7 -0.0013,-8e-7 -0.002,0 v -0.002 V 1.0625 C 24.457025,0.50096568 23.981314,0 23.402338,0 Z" />
  <path fill="url(#rarity)" d="M 18.414,6.577 C 16.081,7.399 14.631,7.64 12.158,7.623 9.724,7.609 8.302,7.36 6.009,6.538 5.569,5.669 5.297,4.67 5.297,3.806 h 13.869 c 0,0.931 -0.752,2.77 -0.752,2.77 z m -2.773,11.652 c 2.201,1.158 3.631,2.849 3.631,4.907 0,0.303 -0.028,0.291 -0.087,0.687 h -2.872 c -1.974,-1.472 -3.34,-3.895 -3.34,-7.142 l -0.019,-0.348 c 0,0 1.223,1.125 2.686,1.896 z m -4.147,-1.45 c 0,3.248 -1.369,5.673 -3.346,7.045 H 5.279 C 5.217,23.53 5.186,23.54 5.186,23.232 c 0,-2.056 1.436,-3.749 3.632,-4.902 1.472,-0.771 2.689,-1.999 2.689,-1.999 L 11.493,16.78 Z M 23.708,3.51 V 1.062 C 23.708,0.89 23.574,0.75 23.402,0.75 H 1.055 C 0.887,0.75 0.75,0.89 0.75,1.062 V 3.51 c 0,0.162 0.137,0.3 0.305,0.3 H 2.87 L 2.867,4.045 c 0,2.804 1.96,4.877 4.386,6.155 1.408,0.735 1.728,1.63 1.728,3.304 0,1.652 -0.351,2.594 -1.772,3.34 -2.431,1.276 -4.389,3.351 -4.389,6.152 0,0.286 0.02,0.556 0.057,0.828 H 1.056 c -0.168,0 -0.305,0.14 -0.305,0.308 v 2.452 c 0,0.165 0.137,0.302 0.305,0.302 h 22.347 c 0.172,0 0.306,-0.137 0.306,-0.302 v -2.452 c 0,-0.168 -0.134,-0.308 -0.306,-0.308 h -1.864 c 0.031,-0.272 0.056,-0.541 0.056,-0.828 0,-2.801 -1.963,-4.877 -4.391,-6.152 -1.419,-0.746 -1.77,-1.688 -1.77,-3.34 0,-1.612 0.373,-2.543 1.82,-3.304 2.429,-1.276 4.388,-3.351 4.388,-6.155 L 21.639,3.81 h 1.767 c 0.169,0 0.303,-0.138 0.303,-0.3 z"/>
</svg>
