<?xml version="1.0" encoding="UTF-8" standalone="no"?>
<svg
   version="1.1"
   width="26.083862"
   height="29.136719"
   viewBox="0 0 26.083863 29.136719"
   id="svg4"
   xmlns="http://www.w3.org/2000/svg"
   xmlns:svg="http://www.w3.org/2000/svg">
  <defs>
    <!-- This is the gradient that will actually be used on
     the cards. The colors themselves will be provided by the
     template, but the x values, y values, and offsets will be
     used from the SVG. -->
    <linearGradient id="rarity" x1="0" y1="0" x2="1" y2="0">
      <stop offset="0" style="stop-color:rgb(192,55,38);stop-opacity:1" id="stop2" />
      <stop offset="0.0625" style="stop-color:rgb(192,55,38);stop-opacity:1" id="stop4" />
      <stop offset="0.5" style="stop-color:rgb(241,142,30);stop-opacity:1" id="stop6" />
      <stop offset="0.9375" style="stop-color:rgb(192,55,38);stop-opacity:1" id="stop8" />
      <stop offset="1" style="stop-color:rgb(192,55,38);stop-opacity:1" id="stop10" />
    </linearGradient>
    <!-- These gradients are here so that you can visualize
     what the set symbol would like like in that rarity. The
     only gradient that matters in the end is the "rarity"
     gradient. -->
    <linearGradient id="mythic" x1="0" y1="1" x2="1" y2="0">
      <stop offset="0" style="stop-color:rgb(192,55,38);stop-opacity:1"/>
      <stop offset="0.125" style="stop-color:rgb(192,55,38);stop-opacity:1"/>
      <stop offset="0.5" style="stop-color:rgb(241,142,30);stop-opacity:1"/>
      <stop offset="0.875" style="stop-color:rgb(192,55,38);stop-opacity:1"/>
      <stop offset="1" style="stop-color:rgb(192,55,38);stop-opacity:1"/>
    </linearGradient>
    <linearGradient id="rare" x1="0" y1="1" x2="1" y2="0">
      <stop offset="0" style="stop-color:rgb(146,116,67);stop-opacity:1"/>
      <stop offset="0.125" style="stop-color:rgb(146,116,67);stop-opacity:1"/>
      <stop offset="0.5" style="stop-color:rgb(211,178,108);stop-opacity:1"/>
      <stop offset="0.875" style="stop-color:rgb(146,116,67);stop-opacity:1"/>
      <stop offset="1" style="stop-color:rgb(146,116,67);stop-opacity:1"/>
    </linearGradient>
    <linearGradient id="special" x1="0" y1="1" x2="1" y2="0">
      <stop offset="0" style="stop-color:rgb(76, 56, 106);stop-opacity:1"/>
      <stop offset="0.125" style="stop-color:rgb(76, 56, 106);stop-opacity:1"/>
      <stop offset="0.5" style="stop-color:rgb(201, 173, 221);stop-opacity:1"/>
      <stop offset="0.875" style="stop-color:rgb(76, 56, 106);stop-opacity:1"/>
      <stop offset="1" style="stop-color:rgb(76, 56, 106);stop-opacity:1"/>
    </linearGradient>
    <linearGradient id="uncommon" x1="0" y1="1" x2="1" y2="0">
      <stop offset="0" style="stop-color:rgb(98,110,119);stop-opacity:1"/>
      <stop offset="0.125" style="stop-color:rgb(98,110,119);stop-opacity:1"/>
      <stop offset="0.5" style="stop-color:rgb(196,222,238);stop-opacity:1"/>
      <stop offset="0.875" style="stop-color:rgb(98,110,119);stop-opacity:1"/>
      <stop offset="1" style="stop-color:rgb(98,110,119);stop-opacity:1"/>
    </linearGradient>
    <linearGradient id="common" x1="0" y1="1" x2="1" y2="0">
      <stop offset="0" style="stop-color:rgb(0,0,0);stop-opacity:1"/>
    </linearGradient>
    <linearGradient
            id="rarity-outline" x1="0" y1="1" x2="0" y2="1">
      <stop offset="0" style="stop-color:rgb(0,0,0);stop-opacity:1"/>
    </linearGradient>
  </defs>
  <path fill="#FFFFFF" d="M 13.177734 0 C 11.362998 0 10.049559 0.16446941 9.0332031 0.53125 C 8.5248883 0.71468983 8.0563656 0.96472574 7.6738281 1.3457031 C 7.2611611 1.7566871 6.9804688 2.3143947 6.9804688 2.953125 C 6.9804688 3.8097384 7.5168448 4.4201961 8.03125 4.7597656 C 8.195775 4.868372 8.2971572 4.8696129 8.4433594 4.9296875 L 8.4433594 11.173828 L 0 25.544922 L 0.9765625 26.363281 L 0.98046875 26.367188 C 0.98046875 26.367188 1.9983049 27.178352 3.9667969 27.845703 C 5.9277859 28.51051 8.94933 29.136719 13.351562 29.136719 C 17.556843 29.136719 20.424344 28.553418 22.283203 27.931641 C 24.150383 27.30708 25.123047 26.535156 25.123047 26.535156 L 25.128906 26.529297 L 26.083984 25.722656 L 17.832031 11.185547 L 17.832031 4.8945312 C 17.968366 4.8326842 18.057046 4.8350402 18.210938 4.7246094 C 18.711793 4.3652058 19.181641 3.7624725 19.181641 2.953125 C 19.181641 2.3761631 18.962271 1.8365273 18.576172 1.40625 C 18.212857 1.0014078 17.75185 0.73583698 17.257812 0.54492188 C 16.268641 0.16266967 14.992581 0 13.177734 0 z " />
  <path fill="#000000" d="M 13.177691,1 C 11.427747,1 10.21145,1.1700791 9.3730031,1.4726562 8.9537799,1.6239448 8.6244362,1.8101153 8.3788625,2.0546875 8.1332887,2.2992597 7.980425,2.6245299 7.980425,2.953125 c 0,0.4172588 0.2749874,0.7570772 0.6015625,0.9726562 C 8.808011,4.074984 9.1327719,4.1630643 9.4433156,4.2617188 V 11.445313 L 1.2909718,25.322266 1.6151906,25.59375 c 0,0 0.8257335,0.678816 2.671875,1.304688 1.8461415,0.625872 4.7570001,1.238281 9.0644534,1.238281 4.112747,0 6.871048,-0.570877 8.615234,-1.154297 1.744186,-0.58342 2.521484,-1.220703 2.521484,-1.220703 L 24.804644,25.494141 16.831987,11.449219 V 4.25 C 17.1181,4.150985 17.419911,4.0620495 17.628862,3.9121094 17.936069,3.6916635 18.181597,3.3490898 18.181597,2.953125 c 0,-0.3068684 -0.124325,-0.6278436 -0.34961,-0.8789062 C 17.606703,1.8231561 17.295295,1.6326482 16.896441,1.4785156 16.098728,1.1702504 14.927682,1 13.177691,1 Z M 8.8593312,19.757812 7.9765187,24.179688 C 7.3814963,24.048817 6.9670128,23.922896 6.6698781,23.800781 Z" />
  <path fill="url(#rarity)" d="m 8.3615031,24.801 c -1.109,-0.085 -2.424,-0.699 -2.424,-0.699 L 10.000503,16.604 Z M 16.331503,11.583 V 3.924 c 0.88,-0.227 1.35,-0.563 1.35,-0.97 0,-0.754 -1.071,-1.454 -4.503,-1.454 -3.4319999,0 -4.6989999,0.699 -4.6989999,1.454 0,0.407 0.522,0.746 1.464,0.972 v 7.656 l -8.008,13.629 c 0,0 2.896,2.426 11.4159999,2.426 8.133,0 10.814,-2.257 10.814,-2.257 l -7.833,-13.798 z"/>
</svg>
