<?xml version="1.0" encoding="UTF-8" standalone="no"?>
<svg
   version="1.1"
   width="32.991421"
   height="15.963134"
   viewBox="0 0 32.99142 15.963133"
   id="svg4"
   xmlns:xlink="http://www.w3.org/1999/xlink"
   xmlns="http://www.w3.org/2000/svg"
   xmlns:svg="http://www.w3.org/2000/svg">
  <filter id="saturate" filterUnits="objectBoundingBox">
    <feColorMatrix type="saturate" in="SourceGraphic" values="1.2"/>
  </filter>
  <defs
     id="defs59">
    <!-- This is the gradient that will actually be used on
     the cards. The colors themselves will be provided by the
     template, but the x values, y values, and offsets will be
     used from the SVG. -->
    <linearGradient
       id="rarity"
       x1="0"
       y1="1"
       x2="1"
       y2="0">
      <stop
         offset="0"
         style="stop-color:rgb(192,55,38);stop-opacity:1"
         id="stop2" />
      <stop
         offset="0.125"
         style="stop-color:rgb(192,55,38);stop-opacity:1"
         id="stop4" />
      <stop
         offset="0.5"
         style="stop-color:rgb(241,142,30);stop-opacity:1"
         id="stop6" />
      <stop
         offset="0.875"
         style="stop-color:rgb(192,55,38);stop-opacity:1"
         id="stop8" />
      <stop
         offset="1"
         style="stop-color:rgb(192,55,38);stop-opacity:1"
         id="stop10" />
    </linearGradient>
    <!-- These gradients are here so that you can visualize
     what the set symbol would like like in that rarity. The
     only gradient that matters in the end is the "rarity"
     gradient. -->
    <linearGradient
       id="mythic"
       x1="0"
       y1="1"
       x2="1"
       y2="0">
      <stop
         offset="0"
         style="stop-color:rgb(192,55,38);stop-opacity:1"
         id="stop9" />
      <stop
         offset="0.125"
         style="stop-color:rgb(192,55,38);stop-opacity:1"
         id="stop11" />
      <stop
         offset="0.5"
         style="stop-color:rgb(241,142,30);stop-opacity:1"
         id="stop13" />
      <stop
         offset="0.875"
         style="stop-color:rgb(192,55,38);stop-opacity:1"
         id="stop15" />
      <stop
         offset="1"
         style="stop-color:rgb(192,55,38);stop-opacity:1"
         id="stop17" />
    </linearGradient>
    <linearGradient
       id="rare"
       x1="0"
       y1="1"
       x2="1"
       y2="0">
      <stop
         offset="0"
         style="stop-color:rgb(146,116,67);stop-opacity:1"
         id="stop20" />
      <stop
         offset="0.125"
         style="stop-color:rgb(146,116,67);stop-opacity:1"
         id="stop22" />
      <stop
         offset="0.5"
         style="stop-color:rgb(211,178,108);stop-opacity:1"
         id="stop24" />
      <stop
         offset="0.875"
         style="stop-color:rgb(146,116,67);stop-opacity:1"
         id="stop26" />
      <stop
         offset="1"
         style="stop-color:rgb(146,116,67);stop-opacity:1"
         id="stop28" />
    </linearGradient>
    <linearGradient
       id="special"
       x1="0"
       y1="1"
       x2="1"
       y2="0">
      <stop
         offset="0"
         style="stop-color:rgb(76, 56, 106);stop-opacity:1"
         id="stop31" />
      <stop
         offset="0.125"
         style="stop-color:rgb(76, 56, 106);stop-opacity:1"
         id="stop33" />
      <stop
         offset="0.5"
         style="stop-color:rgb(201, 173, 221);stop-opacity:1"
         id="stop35" />
      <stop
         offset="0.875"
         style="stop-color:rgb(76, 56, 106);stop-opacity:1"
         id="stop37" />
      <stop
         offset="1"
         style="stop-color:rgb(76, 56, 106);stop-opacity:1"
         id="stop39" />
    </linearGradient>
    <linearGradient
       id="uncommon"
       x1="0"
       y1="1"
       x2="1"
       y2="0">
      <stop
         offset="0"
         style="stop-color:rgb(98,110,119);stop-opacity:1"
         id="stop42" />
      <stop
         offset="0.125"
         style="stop-color:rgb(98,110,119);stop-opacity:1"
         id="stop44" />
      <stop
         offset="0.5"
         style="stop-color:rgb(196,222,238);stop-opacity:1"
         id="stop46" />
      <stop
         offset="0.875"
         style="stop-color:rgb(98,110,119);stop-opacity:1"
         id="stop48" />
      <stop
         offset="1"
         style="stop-color:rgb(98,110,119);stop-opacity:1"
         id="stop50" />
    </linearGradient>
    <linearGradient
       id="common"
       x1="0"
       y1="1"
       x2="1"
       y2="0">
      <stop
         offset="0"
         style="stop-color:rgb(0,0,0);stop-opacity:1"
         id="stop53" />
    </linearGradient>
    <linearGradient
       id="rarity-outline"
       x1="0"
       y1="1"
       x2="0"
       y2="1">
      <stop
         offset="0"
         style="stop-color:rgb(0,0,0);stop-opacity:1"
         id="stop56" />
    </linearGradient>
    <linearGradient
       xlink:href="#rarity"
       id="linearGradient915"
       x1="9.2302952"
       y1="21.920248"
       x2="-0.36197233"
       y2="17.020428"
       gradientTransform="scale(1.4619624,0.68401211)"
       gradientUnits="userSpaceOnUse" />
    <linearGradient
       xlink:href="#rarity"
       id="linearGradient1467"
       gradientUnits="userSpaceOnUse"
       gradientTransform="scale(1.4619624,0.68401211)"
       x1="11.884759"
       y1="3.6748652"
       x2="22.774094"
       y2="10.315412" />
    <linearGradient
       xlink:href="#rarity"
       id="linearGradient2085"
       x1="5.7985816"
       y1="27.344313"
       x2="6.3257256"
       y2="25.400106"
       gradientTransform="scale(1.4221656,0.703153)"
       gradientUnits="userSpaceOnUse" />
  </defs>
  <path
     fill="url(#rarity-outline)"
     d="m 7.9824219,0 c -2.044339,0 -4.0905484,0.77859797 -5.6464844,2.3339844 -3.11343161,3.1123663 -3.11343161,8.1825556 0,11.2949216 3.1124691,3.112232 8.1810025,3.113032 11.2929685,0 0,0 1.847534,-1.753636 2.657377,-2.555697 1.019646,0.937891 2.154311,1.597376 3.069254,2.547849 l 0.0039,0.0039 0.0039,0.0039 c 3.112367,3.113432 8.179635,3.113334 11.292969,0 3.112399,-3.1124 3.112399,-8.1805695 0,-11.2929685 -3.113334,-3.11333382 -8.180602,-3.11343207 -11.292969,0 0,0 -1.835506,1.7326971 -2.798467,2.6285697 C 15.411862,3.8449306 13.662616,2.3649227 13.628906,2.3359375 12.072723,0.77922146 10.027635,0 7.9824219,0 Z"
     id="path61" />
  <path filter="url(#saturate)"
     fill="url(#rarity)"
     d="m 23.982428,0.62329338 c 1.899,-0.4 3.956,0.159 5.433,1.40499992 -0.775,-0.425 -1.68,-0.5699999 -2.555,-0.497 -0.983,0.081 -1.94,0.389 -2.816,0.838 -0.328,0.173 -0.654,0.358 -0.935,0.601 -0.532,0.516 -1.23,0.808 -1.913,1.067 0.128,0.531 0.198,1.193 -0.215,1.62 -1.579,1.579 -3.116,3.2 -4.735,4.7379997 -0.459,0.442 -0.917,0.884 -1.376,1.326 -0.237,0.222 -0.459,0.46 -0.714,0.662 -0.879,0.722 -1.798,1.4 -2.775,1.985 -0.81,0.493 -1.7030002,0.862 -2.6420002,1.015 -1.267,0.215 -2.591,0.012 -3.752,-0.534 -0.374,-0.168 -0.722,-0.386 -1.067,-0.605 -0.073,-0.013 -0.12,-0.066 -0.147,-0.13 -0.091,-0.054 -0.173,-0.122 -0.255,-0.188 0.868,0.473 1.891,0.608 2.864,0.477 0.87,-0.112 1.713,-0.393 2.494,-0.789 0.341,-0.178 0.68,-0.369 0.973,-0.62 0.5310002,-0.516 1.2300002,-0.808 1.9130002,-1.067 -0.133,-0.544 -0.198,-1.23 0.246,-1.652 1.562,-1.5609997 3.082,-3.1649997 4.683,-4.6859997 0.642,-0.616 1.28,-1.238 1.925,-1.851 0.891,-0.748 1.826,-1.447 2.819,-2.056 0.783,-0.4889999 1.639,-0.87499992 2.548,-1.05699992 z M 3.0004278,2.3672933 c -0.801,0.72 -1.423,1.681 -1.597,2.756 -0.128,0.821 0,1.681 0.349,2.435 0.414,0.89 1.224,1.576 2.161,1.858 -0.162,-0.29 -0.233,-0.619 -0.28,-0.945 -0.13,-0.967 0.039,-1.977 0.503,-2.838 0.497,-0.928 1.316,-1.672 2.278,-2.095 1.318,-0.58 2.804,-0.694 4.2220002,-0.529 -0.206,-0.634 -0.6490002,-1.172 -1.1730002,-1.5739999 -0.721,-0.55000002 -1.65,-0.78200002 -2.548,-0.72500002 -1.442,0.086 -2.841,0.69400002 -3.915,1.65599992 z m 26.0740002,4.143 c 0.175,0.314 0.247,0.673 0.291,1.027 0.142,1.181 -0.175,2.418 -0.903,3.3629997 -0.572,0.765 -1.386,1.33 -2.283,1.649 -1.22,0.436 -2.546,0.519 -3.826,0.369 0.175,0.549 0.537,1.024 0.964,1.404 0.627,0.556 1.453,0.864 2.287,0.897 0.919,0.037 1.837,-0.178 2.675,-0.55 0.985,-0.442 1.877,-1.12 2.512,-1.999 0.523,-0.722 0.851,-1.6 0.845,-2.497 -0.012,-0.8319997 -0.235,-1.6779997 -0.727,-2.3579997 -0.447,-0.622 -1.106,-1.079 -1.835,-1.305 z"
     id="path63"
     style="fill-opacity:1;fill:url(#linearGradient2085)" />
  <path filter="url(#saturate)"
     fill="url(#rarity)"
     d="m 24.262428,3.2982933 c -0.323,0.245 -0.632,0.509 -0.973,0.731 -0.341,0.222 -0.694,0.455 -1.105,0.512 0.09,0.488 0.019,1.003 -0.199,1.449 0.304,-0.14 0.678,-0.147 0.965,0.039 0.271,0.174 0.567,0.35 0.727,0.641 0.141,0.262 0.063,0.587 -0.102,0.819 -0.21,0.288 -0.533,0.483 -0.876,0.568 -0.169,0.04 -0.367,0.056 -0.511,-0.059 -0.425,-0.301 -0.643,-0.817 -0.691,-1.323 -0.357,0.188 -0.713,0.376 -1.074,0.554 0.114,0.029 0.291,0.049 0.3,0.2 0.013,0.742 -0.296,1.485 -0.842,1.992 -0.124,-0.146 -0.256,-0.29 -0.341,-0.463 -0.083,-0.19 -0.062,-0.402 -0.056,-0.603 -0.341,0.595 -0.742,1.166 -1.261,1.619 -0.229,0.3189997 -0.441,0.6509997 -0.665,0.9739997 -0.096,0.125 -0.134,0.313 -0.029,0.445 0.197,0.26 0.456,0.463 0.697,0.68 0.142,-0.253 0.274,-0.525 0.503,-0.711 0.061,-0.038 0.177,-0.122 0.231,-0.029 0.039,0.13 -0.053,0.248 -0.102,0.362 -0.123,0.226 -0.197,0.476 -0.222,0.733 0.275,0.216 0.551,0.431 0.827,0.646 0.072,-0.219 0.139,-0.439 0.226,-0.652 0.039,-0.094 0.095,-0.209 0.215,-0.21 0.091,0.057 0.06,0.173 0.057,0.261 -0.039,0.31 -0.058,0.625 -0.006,0.935 0.297,0.193 0.607,0.367 0.911,0.547 -0.021,-0.272 0.003,-0.552 0.109,-0.805 0.146,-0.37 0.455,-0.651 0.795,-0.843 0.421,0.054 0.849,0.053 1.27,-10e-4 -0.774,-0.365 -1.357,-1.111 -1.49,-1.961 0.788,0.871 1.946,1.389 3.12,1.407 0.923,0.024 1.829,-0.243 2.656,-0.637 -0.768,0.009 -1.629,-0.271 -2.011,-0.987 -0.421,-0.7359997 -0.518,-1.6699997 -0.184,-2.4579997 0.298,-0.714 0.904,-1.257 1.577,-1.615 0.699,-0.365 1.534,-0.399 2.285,-0.19 0.815,0.226 1.572,0.666 2.168,1.267 0.26,0.254 0.419,0.586 0.567,0.913 0.228,0.525 0.381,1.09 0.398,1.665 0.496,-1.414 0.533,-3.043 -0.139,-4.408 -0.483,-0.99 -1.32,-1.777 -2.279,-2.302 -0.865,-0.474 -1.871,-0.683 -2.852,-0.588 -0.917,0.088 -1.814,0.395 -2.594,0.884 z m 4.812,3.212 c 0.175,0.314 0.247,0.673 0.291,1.027 0.142,1.181 -0.175,2.418 -0.903,3.3629997 -0.572,0.765 -1.386,1.33 -2.283,1.649 -1.22,0.436 -2.546,0.519 -3.826,0.369 0.175,0.549 0.537,1.024 0.964,1.404 0.627,0.556 1.453,0.864 2.287,0.897 0.919,0.037 1.837,-0.178 2.675,-0.55 0.985,-0.442 1.877,-1.12 2.512,-1.999 0.523,-0.722 0.851,-1.6 0.845,-2.497 -0.012,-0.8319997 -0.235,-1.6779997 -0.727,-2.3579997 -0.447,-0.622 -1.106,-1.079 -1.835,-1.305 z"
     id="path883"
     style="fill:url(#linearGradient1467);fill-opacity:1" />
  <path filter="url(#saturate)"
     fill="url(#rarity)"
     d="m 12.125428,1.9732933 c 0.017,0.262 -10e-4,0.53 -0.099,0.776 -0.142,0.383 -0.457,0.677 -0.808,0.872 -0.422,-0.055 -0.85,-0.051 -1.2730002,0 0.7760002,0.363 1.3600002,1.11 1.4940002,1.96 -0.699,-0.767 -1.6830002,-1.266 -2.7140002,-1.379 -1.054,-0.122 -2.115,0.154 -3.06,0.61 0.69,-0.003 1.45,0.206 1.879,0.785 0.502,0.716 0.661,1.677 0.373,2.507 -0.265,0.773 -0.895,1.366 -1.599,1.748 -0.663,0.3579997 -1.459,0.4189997 -2.185,0.2429997 -0.854,-0.2059997 -1.647,-0.6539997 -2.273,-1.2689997 -0.285,-0.269 -0.457,-0.627 -0.613,-0.98 -0.221,-0.516 -0.36600003,-1.069 -0.38400003,-1.632 -0.325,0.927 -0.447,1.93 -0.316,2.905 0.13,0.9879997 0.57100003,1.9339997 1.25400003,2.6619997 0.82,0.873 1.913,1.514 3.104,1.696 1.308,0.201 2.665,-0.14 3.787,-0.824 0.316,-0.226 0.607,-0.489 0.932,-0.703 0.364,-0.239 0.7390002,-0.501 1.1810002,-0.561 -0.089,-0.489 -0.019,-1.004 0.199,-1.4499997 -0.318,0.1469997 -0.709,0.1429997 -1,-0.062 -0.3180002,-0.209 -0.7110002,-0.442 -0.7620002,-0.856 -0.032,-0.505 0.391,-0.903 0.8260002,-1.078 0.23,-0.088 0.521,-0.174 0.737,-0.01 0.422,0.301 0.637,0.814 0.689,1.317 0.357,-0.184 0.711,-0.373 1.07,-0.552 -0.122,-0.026 -0.309,-0.062 -0.299,-0.225 -10e-4,-0.734 0.303,-1.466 0.844,-1.966 0.125,0.145 0.255,0.289 0.341,0.461 0.084,0.19 0.062,0.404 0.058,0.607 0.293,-0.517 0.632,-1.014 1.057,-1.431 0.311,-0.249 0.476,-0.622 0.712,-0.935 0.119,-0.186 0.339,-0.4 0.208,-0.637 -0.193,-0.281 -0.471,-0.489 -0.72,-0.717 -0.167,0.279 -0.305,0.63 -0.62,0.771 -0.155,0.053 -0.142,-0.162 -0.084,-0.243 0.144,-0.278 0.274,-0.569 0.294,-0.885 -0.277,-0.214 -0.551,-0.429 -0.827,-0.644 -0.097,0.267 -0.155,0.555 -0.306,0.797 -0.056,0.096 -0.219,0.072 -0.198,-0.056 0.021,-0.358 0.081,-0.718 0.011,-1.075 -0.296,-0.194 -0.605,-0.366 -0.909,-0.547 z"
     id="path1317"
     style="fill:url(#linearGradient915);fill-opacity:1" />
</svg>
