<?xml version="1.0" encoding="UTF-8" standalone="no"?>
<!-- Generated by IcoMoon.io -->

<svg
   version="1.1"
   width="32.000114"
   height="14.971975"
   viewBox="0 0 32.000114 14.971975"
   id="svg6"
   sodipodi:docname="uma.svg"
   inkscape:version="1.1.1 (3bf5ae0d25, 2021-09-20)"
   xmlns:inkscape="http://www.inkscape.org/namespaces/inkscape"
   xmlns:sodipodi="http://sodipodi.sourceforge.net/DTD/sodipodi-0.dtd"
   xmlns="http://www.w3.org/2000/svg"
   xmlns:svg="http://www.w3.org/2000/svg">
  <defs
     id="defs10" />
  <sodipodi:namedview
     id="namedview8"
     pagecolor="#ffffff"
     bordercolor="#666666"
     borderopacity="1.0"
     inkscape:pageshadow="2"
     inkscape:pageopacity="0.0"
     inkscape:pagecheckerboard="0"
     showgrid="false"
     inkscape:zoom="25.75"
     inkscape:cx="15.980583"
     inkscape:cy="7.4757282"
     inkscape:window-width="1920"
     inkscape:window-height="1009"
     inkscape:window-x="-8"
     inkscape:window-y="-8"
     inkscape:window-maximized="1"
     inkscape:current-layer="svg6" />
  <title
     id="title2">uma</title>
  <path
     fill="#000000"
     d="m 23.486775,0.12771395 c 1.899,-0.4 3.956,0.159 5.433,1.40499995 -0.775,-0.425 -1.68,-0.56999995 -2.555,-0.497 -0.983,0.081 -1.94,0.389 -2.816,0.838 -0.328,0.173 -0.654,0.358 -0.935,0.601 -0.532,0.516 -1.23,0.808 -1.913,1.067 0.128,0.531 0.198,1.193 -0.215,1.62 -1.579,1.579 -3.116,3.2 -4.735,4.738 -0.459,0.4420001 -0.917,0.8840001 -1.376,1.3260001 -0.237,0.222 -0.459,0.46 -0.714,0.662 -0.879,0.722 -1.798,1.4 -2.775,1.985 -0.81,0.493 -1.7029997,0.862 -2.6419997,1.015 -1.267,0.215 -2.591,0.012 -3.752,-0.534 -0.374,-0.168 -0.722,-0.386 -1.067,-0.605 -0.073,-0.013 -0.12,-0.066 -0.147,-0.13 -0.091,-0.054 -0.173,-0.122 -0.255,-0.188 0.868,0.473 1.891,0.608 2.864,0.477 0.87,-0.112 1.713,-0.393 2.494,-0.789 0.341,-0.178 0.68,-0.369 0.973,-0.62 0.531,-0.516 1.2299997,-0.808 1.9129997,-1.067 -0.133,-0.544 -0.198,-1.23 0.246,-1.6520001 1.562,-1.561 3.082,-3.165 4.683,-4.686 0.642,-0.616 1.28,-1.238 1.925,-1.851 0.891,-0.748 1.826,-1.447 2.819,-2.056 0.783,-0.48899995 1.639,-0.87499995 2.548,-1.05699995 z M 2.5047753,1.8717139 c -0.801,0.72 -1.423,1.681 -1.59700004,2.756 -0.128,0.821 0,1.681 0.34900004,2.435 0.414,0.89 1.224,1.576 2.161,1.858 -0.162,-0.29 -0.233,-0.619 -0.28,-0.945 -0.13,-0.967 0.039,-1.977 0.503,-2.838 0.497,-0.928 1.316,-1.672 2.278,-2.095 1.318,-0.58 2.804,-0.694 4.2219997,-0.529 -0.2059997,-0.634 -0.6489997,-1.172 -1.1729997,-1.57399995 -0.721,-0.55 -1.65,-0.782 -2.548,-0.725 -1.442,0.086 -2.841,0.694 -3.915,1.65599995 z m 9.1249997,-0.394 c 0.017,0.262 -0.001,0.53 -0.099,0.776 -0.142,0.383 -0.457,0.677 -0.808,0.872 -0.422,-0.055 -0.8499997,-0.051 -1.2729997,0 0.7759997,0.363 1.3599997,1.11 1.4939997,1.96 -0.699,-0.767 -1.6829997,-1.266 -2.7139997,-1.379 -1.054,-0.122 -2.115,0.154 -3.06,0.61 0.69,-0.003 1.45,0.206 1.879,0.785 0.502,0.716 0.661,1.677 0.373,2.507 -0.265,0.773 -0.895,1.366 -1.599,1.748 -0.663,0.358 -1.459,0.419 -2.185,0.243 -0.854,-0.206 -1.647,-0.654 -2.273,-1.269 -0.285,-0.269 -0.45700004,-0.627 -0.61300004,-0.98 -0.221,-0.516 -0.366,-1.069 -0.384,-1.632 -0.325,0.927 -0.447,1.93 -0.316,2.905 0.13,0.988 0.571,1.9340001 1.25400004,2.6620001 0.82,0.873 1.913,1.514 3.104,1.696 1.308,0.201 2.665,-0.14 3.787,-0.824 0.316,-0.226 0.607,-0.489 0.932,-0.703 0.364,-0.239 0.739,-0.501 1.1809997,-0.561 -0.089,-0.489 -0.019,-1.0040001 0.199,-1.4500001 -0.318,0.147 -0.7089997,0.143 -0.9999997,-0.062 -0.318,-0.209 -0.711,-0.442 -0.762,-0.856 -0.032,-0.505 0.391,-0.903 0.826,-1.078 0.23,-0.088 0.5209997,-0.174 0.7369997,-0.01 0.422,0.301 0.637,0.814 0.689,1.317 0.357,-0.184 0.711,-0.373 1.07,-0.552 -0.122,-0.026 -0.309,-0.062 -0.299,-0.225 -10e-4,-0.734 0.303,-1.466 0.844,-1.966 0.125,0.145 0.255,0.289 0.341,0.461 0.084,0.19 0.062,0.404 0.058,0.607 0.293,-0.517 0.632,-1.014 1.057,-1.431 0.311,-0.249 0.476,-0.622 0.712,-0.935 0.119,-0.186 0.339,-0.4 0.208,-0.637 -0.193,-0.281 -0.471,-0.489 -0.72,-0.717 -0.167,0.279 -0.305,0.63 -0.62,0.771 -0.155,0.053 -0.142,-0.162 -0.084,-0.243 0.144,-0.278 0.274,-0.569 0.294,-0.885 -0.277,-0.214 -0.551,-0.429 -0.827,-0.644 -0.097,0.267 -0.155,0.555 -0.306,0.797 -0.056,0.096 -0.219,0.072 -0.198,-0.056 0.021,-0.358 0.081,-0.718 0.011,-1.075 -0.296,-0.194 -0.605,-0.366 -0.909,-0.547 z m 12.137,1.325 c -0.323,0.245 -0.632,0.509 -0.973,0.731 -0.341,0.222 -0.694,0.455 -1.105,0.512 0.09,0.488 0.019,1.003 -0.199,1.449 0.304,-0.14 0.678,-0.147 0.965,0.039 0.271,0.174 0.567,0.35 0.727,0.641 0.141,0.262 0.063,0.587 -0.102,0.819 -0.21,0.288 -0.533,0.483 -0.876,0.568 -0.169,0.04 -0.367,0.056 -0.511,-0.059 -0.425,-0.301 -0.643,-0.817 -0.691,-1.323 -0.357,0.188 -0.713,0.376 -1.074,0.554 0.114,0.029 0.291,0.049 0.3,0.2 0.013,0.742 -0.296,1.485 -0.842,1.992 -0.124,-0.146 -0.256,-0.29 -0.341,-0.463 -0.083,-0.19 -0.062,-0.402 -0.056,-0.603 -0.341,0.595 -0.742,1.166 -1.261,1.619 -0.229,0.319 -0.441,0.6510001 -0.665,0.9740001 -0.096,0.125 -0.134,0.313 -0.029,0.445 0.197,0.26 0.456,0.463 0.697,0.68 0.142,-0.253 0.274,-0.525 0.503,-0.711 0.061,-0.038 0.177,-0.122 0.231,-0.029 0.039,0.13 -0.053,0.248 -0.102,0.362 -0.123,0.226 -0.197,0.476 -0.222,0.733 0.275,0.216 0.551,0.431 0.827,0.646 0.072,-0.219 0.139,-0.439 0.226,-0.652 0.039,-0.094 0.095,-0.209 0.215,-0.21 0.091,0.057 0.06,0.173 0.057,0.261 -0.039,0.31 -0.058,0.625 -0.006,0.935 0.297,0.193 0.607,0.367 0.911,0.547 -0.021,-0.272 0.003,-0.552 0.109,-0.805 0.146,-0.37 0.455,-0.651 0.795,-0.843 0.421,0.054 0.849,0.053 1.27,-10e-4 -0.774,-0.365 -1.357,-1.111 -1.49,-1.9610001 0.788,0.8710001 1.946,1.3890001 3.12,1.4070001 0.923,0.024 1.829,-0.243 2.656,-0.637 -0.768,0.009 -1.629,-0.271 -2.011,-0.9870001 -0.421,-0.736 -0.518,-1.67 -0.184,-2.458 0.298,-0.714 0.904,-1.257 1.577,-1.615 0.699,-0.365 1.534,-0.399 2.285,-0.19 0.815,0.226 1.572,0.666 2.168,1.267 0.26,0.254 0.419,0.586 0.567,0.913 0.228,0.525 0.381,1.09 0.398,1.665 0.496,-1.414 0.533,-3.043 -0.139,-4.408 -0.483,-0.99 -1.32,-1.777 -2.279,-2.302 -0.865,-0.474 -1.871,-0.683 -2.852,-0.588 -0.917,0.088 -1.814,0.395 -2.594,0.884 z m 4.812,3.212 c 0.175,0.314 0.247,0.673 0.291,1.027 0.142,1.181 -0.175,2.418 -0.903,3.3630001 -0.572,0.765 -1.386,1.33 -2.283,1.649 -1.22,0.436 -2.546,0.519 -3.826,0.369 0.175,0.549 0.537,1.024 0.964,1.404 0.627,0.556 1.453,0.864 2.287,0.897 0.919,0.037 1.837,-0.178 2.675,-0.55 0.985,-0.442 1.877,-1.12 2.512,-1.999 0.523,-0.722 0.851,-1.6 0.845,-2.4970001 -0.012,-0.832 -0.235,-1.678 -0.727,-2.358 -0.447,-0.622 -1.106,-1.079 -1.835,-1.305 z"
     id="path4" />
</svg>
