<?xml version="1.0" encoding="UTF-8" standalone="no"?>
<svg
   version="1.1"
   width="33.478516"
   height="19.965391"
   viewBox="0 0 33.478515 19.965391"
   id="svg4"
   xmlns:xlink="http://www.w3.org/1999/xlink"
   xmlns="http://www.w3.org/2000/svg"
   xmlns:svg="http://www.w3.org/2000/svg">
  <defs
     id="defs59">
    <radialGradient
       id="radialGradient1677">
      <stop
         offset="0"
         style="stop-color:rgb(192,55,38);stop-opacity:1"
         id="stop1667" />
      <stop
         offset="0"
         style="stop-color:rgb(192,55,38);stop-opacity:1"
         id="stop1669" />
      <stop
         offset="0"
         style="stop-color:rgb(241,142,30);stop-opacity:1"
         id="stop1671" />
      <stop
         offset="0.78830457"
         style="stop-color:rgb(192,55,38);stop-opacity:1"
         id="stop1673" />
      <stop
         offset="1"
         style="stop-color:rgb(192,55,38);stop-opacity:1"
         id="stop1675" />
    </radialGradient>
    <!-- This is the gradient that will actually be used on
     the cards. The colors themselves will be provided by the
     template, but the x values, y values, and offsets will be
     used from the SVG. -->
    <radialGradient
       id="rarity" r="1.5">
      <stop
         offset="0"
         style="stop-color:rgb(192,55,38);stop-opacity:1"
         id="stop2" />
      <stop
         offset="0"
         style="stop-color:rgb(192,55,38);stop-opacity:1"
         id="stop4" />
      <stop
         offset="0"
         style="stop-color:rgb(241,142,30);stop-opacity:1"
         id="stop6" />
      <stop
         offset="0.5"
         style="stop-color:rgb(192,55,38);stop-opacity:1"
         id="stop8" />
      <stop
         offset="1"
         style="stop-color:rgb(192,55,38);stop-opacity:1"
         id="stop10" />
    </radialGradient>
    <!-- These gradients are here so that you can visualize
     what the set symbol would like like in that rarity. The
     only gradient that matters in the end is the "rarity"
     gradient. -->
    <linearGradient
       id="mythic"
       x1="0"
       y1="1"
       x2="1"
       y2="0">
      <stop
         offset="0"
         style="stop-color:rgb(192,55,38);stop-opacity:1"
         id="stop9" />
      <stop
         offset="0.125"
         style="stop-color:rgb(192,55,38);stop-opacity:1"
         id="stop11" />
      <stop
         offset="0.5"
         style="stop-color:rgb(241,142,30);stop-opacity:1"
         id="stop13" />
      <stop
         offset="0.875"
         style="stop-color:rgb(192,55,38);stop-opacity:1"
         id="stop15" />
      <stop
         offset="1"
         style="stop-color:rgb(192,55,38);stop-opacity:1"
         id="stop17" />
    </linearGradient>
    <linearGradient
       id="rare"
       x1="0"
       y1="1"
       x2="1"
       y2="0">
      <stop
         offset="0"
         style="stop-color:rgb(146,116,67);stop-opacity:1"
         id="stop20" />
      <stop
         offset="0.125"
         style="stop-color:rgb(146,116,67);stop-opacity:1"
         id="stop22" />
      <stop
         offset="0.5"
         style="stop-color:rgb(211,178,108);stop-opacity:1"
         id="stop24" />
      <stop
         offset="0.875"
         style="stop-color:rgb(146,116,67);stop-opacity:1"
         id="stop26" />
      <stop
         offset="1"
         style="stop-color:rgb(146,116,67);stop-opacity:1"
         id="stop28" />
    </linearGradient>
    <linearGradient
       id="special"
       x1="0"
       y1="1"
       x2="1"
       y2="0">
      <stop
         offset="0"
         style="stop-color:rgb(76, 56, 106);stop-opacity:1"
         id="stop31" />
      <stop
         offset="0.125"
         style="stop-color:rgb(76, 56, 106);stop-opacity:1"
         id="stop33" />
      <stop
         offset="0.5"
         style="stop-color:rgb(201, 173, 221);stop-opacity:1"
         id="stop35" />
      <stop
         offset="0.875"
         style="stop-color:rgb(76, 56, 106);stop-opacity:1"
         id="stop37" />
      <stop
         offset="1"
         style="stop-color:rgb(76, 56, 106);stop-opacity:1"
         id="stop39" />
    </linearGradient>
    <linearGradient
       id="uncommon"
       x1="0"
       y1="1"
       x2="1"
       y2="0">
      <stop
         offset="0"
         style="stop-color:rgb(98,110,119);stop-opacity:1"
         id="stop42" />
      <stop
         offset="0.125"
         style="stop-color:rgb(98,110,119);stop-opacity:1"
         id="stop44" />
      <stop
         offset="0.5"
         style="stop-color:rgb(196,222,238);stop-opacity:1"
         id="stop46" />
      <stop
         offset="0.875"
         style="stop-color:rgb(98,110,119);stop-opacity:1"
         id="stop48" />
      <stop
         offset="1"
         style="stop-color:rgb(98,110,119);stop-opacity:1"
         id="stop50" />
    </linearGradient>
    <linearGradient
       id="common"
       x1="0"
       y1="1"
       x2="1"
       y2="0">
      <stop
         offset="0"
         style="stop-color:rgb(0,0,0);stop-opacity:1"
         id="stop53" />
    </linearGradient>
    <linearGradient
       id="rarity-outline"
       x1="0"
       y1="1"
       x2="0"
       y2="1">
      <stop
         offset="0"
         style="stop-color:rgb(0,0,0);stop-opacity:1"
         id="stop56" />
    </linearGradient>
    <radialGradient
       xlink:href="#radialGradient1677"
       id="radialGradient1665"
       r="1"
    >
      <stop offset="0" style="stop-color:rgb(192,55,38);stop-opacity:1" id="stop2" />
      <stop offset="0.25" style="stop-color:rgb(192,55,38);stop-opacity:1" id="stop4" />
      <stop offset="0.5" style="stop-color:rgb(241,142,30);stop-opacity:1" id="stop6" />
      <stop offset="0.75" style="stop-color:rgb(192,55,38);stop-opacity:1" id="stop8" />
      <stop offset="1" style="stop-color:rgb(192,55,38);stop-opacity:1" id="stop10" />
    </radialGradient>
  </defs>
  <path
     fill="url(#rarity-outline)"
     d="m 15.867188,0 -0.501953,0.00195312 c -1.902723,0.00799 -3.808971,0.003906 -5.7148443,0.003906 h -0.5 V 4.25 l 0.5039062,-0.00391 c 0.2409445,-0.00164 0.4829761,-0.00162 0.7246091,-0.00195 -0.09151,0.3973778 -0.141651,0.8024187 -0.208984,1.205075 C 9.5763249,5.189814 8.9833656,4.9272429 8.3886719,4.6660156 8.1389277,3.2540105 7.3810199,1.864048 5.9609375,1.2617187 l -0.00391,-0.00195 h -0.00195 C 5.5008132,1.073154 4.994442,0.92457495 4.4355469,0.93359374 v -0.003906 h -0.00195 v 0.001953 c -0.00427,7.257e-5 -0.00744,-0.002045 -0.011719,-0.001953 l 0.00586,0.49999996 -0.00781,-0.49999996 -0.2324219,0.007813 -0.023437,0.001953 c -0.1290685,0.0164584 -0.2855642,0.0264124 -0.46875,0.0585938 H 3.693369 3.691419 C 3.1056662,1.1037244 2.5606858,1.3209519 2.0605469,1.5898437 L 1.1835938,2.0625 2.0839844,2.484375 C 3.0460753,2.9351514 4.018064,3.3511155 4.9785157,3.7773437 5.0877606,4.3981335 5.1993275,5.0198751 5.3085938,5.6425781 4.8150459,5.9814713 4.3210423,6.3204714 3.828125,6.6601562 2.8710779,6.2346355 1.9159307,5.8028467 0.94335938,5.3886719 L 0,4.9863281 0.265625,5.9785156 C 0.60914149,7.2634819 1.3615431,8.6015836 2.7441407,9.1796875 4.0962817,9.83072 5.589359,9.4606184 6.7460938,8.6875 c 0.9920195,0.4338263 1.9815686,0.867629 2.96875,1.3105469 l 0.234375,0.1054691 c 0.012964,0.136093 -0.00858,0.27225 0.00781,0.408203 l 0.015625,0.132812 C 9.7186647,10.751926 9.4643793,10.855729 9.210935,10.964844 l -0.3652344,0.15625 0.072266,0.392578 c 0.014411,0.07973 0.056583,0.154651 0.072266,0.234375 l -0.1152344,0.05078 C 8.5617337,11.938593 8.2463816,12.078038 7.9316407,12.216797 7.2022706,11.723449 6.3760316,11.350519 5.4375,11.328125 H 5.42969 5.41992 c -0.070557,7.48e-4 -0.1315156,0.0048 -0.1640625,0.0039 l -0.037109,-0.002 -0.037109,0.0039 c -0.1539214,0.01868 -0.3398664,0.03084 -0.5507813,0.07031 -0.3173411,0.05935 -0.6034648,0.171564 -0.8652344,0.298828 0,0 -0.00195,0.002 -0.00195,0.002 -2.207613,0.999024 -3.06017829,3.845298 -1.953125,5.947266 0.9038396,1.980457 3.4360846,2.921067 5.3925781,1.890625 1.3282748,-0.621664 2.0120894,-1.940168 2.2773438,-3.259766 0.3210677,-0.143253 0.6419823,-0.285271 0.9648433,-0.427734 l 0.162108,-0.07225 c 0.367435,0.606659 0.682382,1.244141 1.1875,1.761719 2.37487,2.509719 6.628821,2.808641 9.28125,0.55664 0.762914,-0.651036 1.249218,-1.506231 1.724609,-2.357421 l 0.13086,0.05859 c 0.362144,0.15972 0.724833,0.317109 1.085937,0.47461 0.256426,1.28623 0.903431,2.577185 2.181641,3.216797 1.931479,1.081454 4.483167,0.201479 5.443359,-1.753907 1.186816,-2.131477 0.303774,-5.082878 -1.982422,-6.066406 -0.715274,-0.349743 -1.414189,-0.304758 -1.949218,-0.324219 h -0.03906 l -0.03906,0.0039 c -0.754051,0.09072 -1.410497,0.463377 -2.011719,0.886719 -0.426875,-0.18547 -0.854818,-0.374201 -1.287109,-0.5625 l -0.121094,-0.05273 c 0.009,-0.07077 0.04683,-0.138337 0.05469,-0.208985 l 0.09375,-0.847656 -0.785156,0.330078 c -0.04263,0.01796 -0.08435,0.0367 -0.126953,0.05469 0.0402,-0.275086 0.01484,-0.552105 0.04102,-0.828125 l 0.275378,-0.123044 C 24.75459,9.563141 25.748396,9.1309776 26.742188,8.6894531 27.823404,9.4110664 29.1958,9.8100055 30.503906,9.2871093 32.001433,8.7660488 32.887974,7.3697538 33.236328,5.9785156 L 33.478516,5.0136719 32.558594,5.3945312 C 31.582138,5.8001501 30.629535,6.23614 29.675781,6.6601562 29.180805,6.3227707 28.686587,5.983557 28.193359,5.6445312 28.304124,5.0205957 28.412974,4.3986563 28.523438,3.7773437 29.483499,3.3514891 30.454301,2.9373177 31.417969,2.484375 l 0.943359,-0.4453125 -0.9375,-0.4570313 C 30.755303,1.2551965 30.011212,0.96581508 29.185547,0.93554687 l -0.01563,-0.007813 -0.113281,0.001953 h -0.0098 l -0.175781,0.001953 -0.02539,0.001953 C 28.46088,0.97720837 28.08377,1.0205319 27.6484,1.2187491 26.17432,1.7949172 25.366705,3.2143389 25.111328,4.6679687 24.510241,4.9301424 23.910433,5.1932734 23.310547,5.4570312 23.243751,5.0515695 23.20624,4.6425403 23.115235,4.2421875 h 1.238281 V 3.7402343 c -0.003,-1.0761419 0,-2.1544944 0,-3.2324218 v -0.5 h -0.5 C 21.94447,0.0048105 20.039763,0.00690435 18.132813,0.0039065 h -0.742188 l 0.277344,0.6875 c 0.860043,2.1365638 1.210003,4.4209112 1.24414,6.7050781 -0.718063,0.3118193 -1.433599,0.6302665 -2.15039,0.9453126 L 16.363281,8.1679687 C 15.760688,7.9055813 15.158139,7.6405652 14.552735,7.3769531 l -0.08789,-0.037109 c 0.03637,-2.2647635 0.503014,-4.540788 1.365234,-6.64843746 l 0.03711,-0.0898438 z m 6.408203,10.638672 c 0.06049,0.159536 0.09927,0.192928 0.171875,0.626953 h 0.269531 c -0.325421,0.138727 -0.650223,0.276811 -0.974609,0.416016 0.08232,-0.177608 0.16738,-0.34818 0.248047,-0.521485 0.105116,-0.22583 0.19237,-0.359549 0.285156,-0.521484 z"
     id="path61" />
  <path
     fill="url(#rarity)"
     d="m 12.272047,10.220953 c -0.955,0.398 -1.913,0.794 -2.8630001,1.203 0.383,2.119 1.2230001,4.217 2.7460001,5.776 2.179,2.306 6.166,2.585 8.597,0.521 1.848,-1.577 2.756,-3.995 3.019,-6.361 -0.94,0.396 -1.874,0.799 -2.809,1.2 -0.877,-0.744 -1.754,-1.484 -2.629,-2.231 -1.226,0.854 -2.447,1.715 -3.668,2.574 -0.799,-0.893 -1.598,-1.786 -2.395,-2.681 z m 0.208,-9.1079999 c 0.135,0.609 0.502,1.117 1.151,1.239 -0.625,0.164 -1.02,0.627 -1.151,1.252 -0.13,-0.633 -0.513,-1.106 -1.163,-1.236 0.638,-0.151 1.046,-0.612 1.163,-1.255 z m -0.323,3.91 c 0.068,0.003 0.138,-0.008 0.204,0.009 0.411,0.104 0.598,0.646 0.298,0.954 -0.479,0.536 -1.244,-0.268 -0.802,-0.778 0.086,-0.091 0.171,-0.156 0.299,-0.184 z m -0.031,2.633 c 0.096,0.023 0.118,0.019 0.202,0.073 0.371,0.238 0.403,0.887 -0.062,1.024 -0.625,0.291 -0.992,-0.724 -0.443,-1.033 0.096,-0.044 0.194,-0.076 0.302,-0.064 z m 3.241,-7.15399998 c -1.905,0.008 -3.811,0.003 -5.7160001,0.003 V 3.7459531 c 0.4400001,-0.003 0.8800001,-0.003 1.3200001,-0.003 -0.573,2.181 -0.789,4.461 -0.518,6.7079999 0.646,-0.268 1.291,-0.5389999 1.939,-0.8069999 0.739,0.8279999 1.476,1.6549999 2.22,2.4809999 -1.265,-3.7999999 -0.739,-7.9699999 0.755,-11.62199988 z m 3.782,7.33699998 c -1.541,0.669 -3.079,1.348 -4.618,2.028 0.151,0.7259999 0.331,1.4469999 0.534,2.1599999 1.098,-0.763 2.189,-1.533 3.282,-2.3039999 0.148,0.117 0.445,0.3489999 0.596,0.4659999 0.096,-0.7809999 0.161,-1.5639999 0.206,-2.3499999 z m 1.871,-6.713 c 0.122,0.635 0.513,1.083 1.145,1.231 -0.627,0.161 -1.026,0.619 -1.158,1.247 -0.104,-0.643 -0.523,-1.085 -1.145,-1.244 0.64,-0.146 1.018,-0.606 1.158,-1.234 z m 0.204,3.884 c 0.063,0.015 0.129,0.017 0.188,0.044 0.359,0.166 0.479,0.703 0.158,0.958 -0.497,0.578 -1.275,-0.502 -0.645,-0.88 0.092,-0.072 0.178,-0.117 0.3,-0.122 z m 0.156,2.666 c 0.053,0.006 0.107,0.005 0.159,0.018 0.242,0.059 0.423,0.259 0.393,0.515 0.114,0.401 -0.416,0.734 -0.76,0.539 -0.333,-0.174 -0.396,-0.64 -0.146,-0.914 0.101,-0.097 0.21,-0.154 0.354,-0.158 z m -0.176,2.5219999 c 0.044,0.01 0.09,0.015 0.132,0.031 0.239,0.088 0.415,0.331 0.335,0.587 0.055,0.45 -0.627,0.7 -0.88,0.338 -0.302,-0.271 -0.19,-0.828 0.216,-0.932 0.106,-0.031 0.042,-0.018 0.196,-0.025 z m -3.073,-9.69399988 c 1.27,3.15499998 1.877,6.66099998 1.19,10.02899988 0.573,0.487 1.145,0.976 1.721,1.458 0.633,-0.268 1.265,-0.536 1.898,-0.807 0.411,-2.4749999 0.219,-5.0179999 -0.409,-7.4419999 h 1.322 c -0.003,-1.078 0,-2.158 0,-3.23499998 -1.908,-0.003 -3.813,0 -5.721,-0.003 z m -3.777,7.33199998 c 0.029,0.513 0.065,1.026 0.107,1.538 0.567,-0.245 1.135,-0.497 1.702,-0.747 -0.604,-0.263 -1.205,-0.528 -1.809,-0.791 z"
     id="path63" />
  <path
     fill="url(#rarity)"
     d="m 5.4260469,11.828953 c 0.922,0.022 1.753,0.399 2.481,0.945 0.39,-0.172 0.781,-0.344 1.171,-0.518 0.284,1.083 0.674,2.137 1.1660001,3.142 -0.3830001,0.169 -0.7680001,0.338 -1.1510001,0.51 -0.19,1.304 -0.867,2.613 -2.108,3.189 -1.684,0.898 -3.951,0.055 -4.727,-1.663 -0.979,-1.838 -0.211,-4.407 1.713,-5.276 0.4209519,-0.230025 0.8411209,-0.265403 1.27,-0.327 h 0.185 z m 0.38,1.632 c -0.402,0.03 -0.703,0.297 -0.856,0.659 -0.533,0.331 -1.147,0.637 -1.438,1.231 -0.16,0.281 -0.13,0.609 -0.132,0.92 -0.067,0.208 -0.197,0.39 -0.271,0.596 0.257,0.064 0.565,0.058 0.755,0.269 0.224,0.236 0.533,0.384 0.857,0.408 0.567,0.051 1.109,-0.162 1.624,-0.37 0.383,0.139 0.852,10e-4 1.075,-0.344 0.179,-0.341 0.148,-0.751 0.021,-1.103 -0.095,-0.221 -0.021,-0.458 -0.008,-0.686 0.111,0.019 0.222,0.038 0.332,0.058 0.032,-0.24 0.013,-0.48 -0.056,-0.712 -0.157,0.089 -0.31,0.187 -0.459,0.289 -0.114,-0.104 -0.24,-0.193 -0.377,-0.264 -0.224,-0.404 -0.518,-0.824 -0.99,-0.948 l -0.078,-0.002 z m 21.8390001,0 c 0.402,0.03 0.703,0.297 0.856,0.659 0.533,0.331 1.147,0.637 1.438,1.231 0.16,0.281 0.13,0.609 0.132,0.92 0.067,0.208 0.197,0.39 0.271,0.596 -0.257,0.064 -0.565,0.058 -0.755,0.269 -0.224,0.236 -0.533,0.384 -0.857,0.408 -0.567,0.051 -1.109,-0.162 -1.624,-0.37 -0.383,0.139 -0.852,10e-4 -1.075,-0.345 -0.179,-0.341 -0.148,-0.751 -0.021,-1.103 0.095,-0.221 0.021,-0.458 0.008,-0.686 -0.111,0.019 -0.222,0.038 -0.332,0.058 -0.032,-0.24 -0.013,-0.48 0.055,-0.712 0.157,0.089 0.31,0.187 0.459,0.289 0.114,-0.104 0.24,-0.193 0.377,-0.264 0.224,-0.404 0.518,-0.824 0.99,-0.948 l 0.078,-0.001 z m 0.557,-1.635 c -0.17,0.008 -0.341,0.004 -0.51,0.024 -0.773,0.093 -1.495,0.437 -2.094,0.927 -0.489,-0.211 -0.974,-0.427 -1.463,-0.64 -0.206,1.106 -0.549,2.179 -1.002,3.209 0.424,0.187 0.849,0.372 1.273,0.557 0.185,1.275 0.828,2.559 2.025,3.152 1.663,0.94 3.946,0.154 4.771,-1.544 1.049,-1.866 0.25,-4.539 -1.752,-5.388 -0.41,-0.175 -0.796,-0.291 -1.249,-0.298 z m 0.852,-10.3969999 -0.152,0.002 c -0.397,0.045 -0.693,0.072 -1.064,0.245 -1.382,0.534 -2.189,1.947 -2.345,3.371 -0.687,0.299 -1.372,0.601 -2.059,0.903 0.133,1.192 0.174,2.395 0.128,3.595 1.057,-0.469 2.116,-0.929 3.173,-1.4 1.007,0.773 2.374,1.171 3.595,0.677 1.296,-0.445 2.101,-1.687 2.421,-2.965 -1.052,0.437 -2.087,0.911 -3.129,1.372 -0.661,-0.45 -1.32,-0.901 -1.978,-1.354 0.146,-0.815 0.286,-1.629 0.432,-2.444 1.044,-0.466 2.095,-0.914 3.129,-1.4 -0.675,-0.33 -1.388,-0.599 -2.149,-0.601 z m -24.6180001,0 -0.208,0.007 c -0.149,0.019 -0.299,0.029 -0.447,0.055 -0.521,0.094 -1.019,0.29 -1.484,0.54 1.033,0.484 2.085,0.934 3.129,1.4 0.143,0.812 0.286,1.627 0.429,2.442 -0.659,0.453 -1.317,0.903 -1.973,1.356 -1.044,-0.463 -2.082,-0.932 -3.13400002,-1.38 0.32000002,1.197 1.00700002,2.387 2.19900002,2.879 1.26,0.614 2.749,0.247 3.813,-0.58 1.054,0.461 2.108,0.921 3.16,1.393 -0.057,-1.2 -0.01,-2.405 0.1350001,-3.597 -0.6850001,-0.299 -1.3670001,-0.601 -2.0510001,-0.901 -0.156,-1.382 -0.914,-2.759 -2.239,-3.321 -0.426,-0.175 -0.865,-0.303 -1.332,-0.293 z"
     id="path883"
     style="fill:url(#radialGradient1665)" />
</svg>
