<?xml version="1.0" encoding="UTF-8" standalone="no"?>
<!-- Generated by IcoMoon.io -->

<svg
   version="1.1"
   width="28.324364"
   height="26.080999"
   viewBox="0 0 28.324364 26.080999"
   id="svg6"
   sodipodi:docname="v09.svg"
   inkscape:version="1.1.1 (3bf5ae0d25, 2021-09-20)"
   xmlns:inkscape="http://www.inkscape.org/namespaces/inkscape"
   xmlns:sodipodi="http://sodipodi.sourceforge.net/DTD/sodipodi-0.dtd"
   xmlns="http://www.w3.org/2000/svg"
   xmlns:svg="http://www.w3.org/2000/svg">
  <defs
     id="defs10" />
  <sodipodi:namedview
     id="namedview8"
     pagecolor="#ffffff"
     bordercolor="#666666"
     borderopacity="1.0"
     inkscape:pageshadow="2"
     inkscape:pageopacity="0.0"
     inkscape:pagecheckerboard="0"
     showgrid="false"
     inkscape:zoom="25.75"
     inkscape:cx="14.466019"
     inkscape:cy="13.029126"
     inkscape:window-width="1920"
     inkscape:window-height="1009"
     inkscape:window-x="-8"
     inkscape:window-y="-8"
     inkscape:window-maximized="1"
     inkscape:current-layer="svg6" />
  <title
     id="title2">v09</title>
  <path
     fill="#000000"
     d="m 16.319365,0.001 c 1.293,-0.008 2.855,0.291 3.931,1.037 l 8.074,0.076 -1.97,7.794 c 0,0 1.623,4.161 -2.671,8.455 0,0 1.888,-4.294 0.132,-8.196 0,0 -4.1,1.105 -7.611,6.244 -3.512,5.141 -1.171,9.955 4.747,8.717 0,0 -3.056,1.953 -7.544,1.953 -4.4850003,0 -8.0650003,-2.471 -10.4050003,-5.203 l -0.185,-0.232 C 0.75836466,17.696 -0.73863534,13.614 0.38436466,9.269 1.5083647,4.922 4.1613647,2.452 4.1613647,2.452 c -2.677,5.42 1.397,8.893 7.2500003,6.779 5.855,-2.115 7.952,-5.806 7.952,-5.806 -3.341,-2.677 -7.967,-1.927 -7.967,-1.927 1.51,-0.908 3.165,-1.433 4.924,-1.498 z m 3.367,2.113 1.553,1.129 -12.8940003,12.894 16.0940003,-8.706 0.8,1.365 1.6,-6.636 -7.153,-0.047 z"
     id="path4" />
</svg>
