<?xml version="1.0" encoding="UTF-8" standalone="no"?>
<!-- Generated by IcoMoon.io -->

<svg
   version="1.1"
   width="19.462"
   height="31.665001"
   viewBox="0 0 19.462 31.665001"
   id="svg6"
   sodipodi:docname="v0x.svg"
   inkscape:version="1.1.1 (3bf5ae0d25, 2021-09-20)"
   xmlns:inkscape="http://www.inkscape.org/namespaces/inkscape"
   xmlns:sodipodi="http://sodipodi.sourceforge.net/DTD/sodipodi-0.dtd"
   xmlns="http://www.w3.org/2000/svg"
   xmlns:svg="http://www.w3.org/2000/svg">
  <defs
     id="defs10" />
  <sodipodi:namedview
     id="namedview8"
     pagecolor="#ffffff"
     bordercolor="#666666"
     borderopacity="1.0"
     inkscape:pageshadow="2"
     inkscape:pageopacity="0.0"
     inkscape:pagecheckerboard="0"
     showgrid="false"
     inkscape:zoom="25.75"
     inkscape:cx="10"
     inkscape:cy="15.825243"
     inkscape:window-width="1920"
     inkscape:window-height="1009"
     inkscape:window-x="-8"
     inkscape:window-y="-8"
     inkscape:window-maximized="1"
     inkscape:current-layer="svg6" />
  <title
     id="title2">v0x</title>
  <path
     fill="#000000"
     d="m 9.187,0.001 c 1.481,0.061 2.767,0.765 3.865,1.72 1.286,1.161 2.043,3.198 2.419,5.975 0.246,1.931 0.319,3.886 0.25,5.831 l 1.254,0.286 c 0.131,-0.356 0.448,-0.559 0.819,-0.577 0.483,0 0.874,0.391 0.874,0.874 l -0.005,0.089 0.481,0.11 0.318,15.251 -0.01,0.004 c 0.011,0.055 0.005,0.017 0.01,0.115 0,0.483 -0.391,0.874 -0.874,0.874 -0.27,-0.006 -0.544,-0.125 -0.699,-0.354 l -2.221,0.902 c -0.13,0.349 -0.45,0.545 -0.813,0.564 -0.469,-0.008 -0.848,-0.372 -0.872,-0.841 l -2.899,-0.496 c -0.128,0.377 -0.441,0.602 -0.836,0.622 -0.483,0 -0.874,-0.391 -0.874,-0.874 l 0.002,-0.04 -2.578,-0.441 c -0.085,0.39 -0.465,0.621 -0.84,0.64 -0.483,0 -0.874,-0.391 -0.874,-0.874 L 5.087,29.303 2.712,28.897 C 2.581,29.237 2.259,29.423 1.907,29.441 1.446,29.433 1.059,29.076 1.035,28.61 L 0.318,28.487 0,13.712 0.321,13.707 0.439,13.684 c 0.017,-0.429 0.293,-0.755 0.825,-0.806 0.343,-0.033 0.722,0.228 0.831,0.488 L 3.297,13.13 C 3.274,12.638 3.291,12.972 3.236,12.127 3.156,11.045 3.11,10.308 3.08,9.546 3.019,7.961 3.055,6.649 3.223,5.513 3.448,3.997 4.011,2.908 4.731,1.988 5.877,0.525 7.285,0.036 9.186,0 V 0 Z M 9.093,3.042 v 0 C 8.205,3.035 7.503,3.561 6.979,4.237 6.196,5.293 6.148,6.617 6.256,9.426 c 0.028,0.715 0.072,1.421 0.149,2.469 0.07,0.943 0.043,0.573 0.081,1.11 l 2.202,0.096 c 0.081,-0.399 0.458,-0.639 0.844,-0.658 0.439,0.006 0.773,0.312 0.859,0.733 l 0.2,0.009 1.589,0.132 0.366,0.038 C 12.616,11.607 12.52,9.86 12.322,8.123 12.038,6.025 11.677,5.056 10.923,4.08 10.438,3.455 9.879,3.116 9.093,3.042 Z"
     id="path4" />
</svg>
