<?xml version="1.0" encoding="UTF-8" standalone="no"?>
<!-- Generated by IcoMoon.io -->

<svg
   version="1.1"
   width="28.476999"
   height="27.440001"
   viewBox="0 0 28.476999 27.440001"
   id="svg6"
   sodipodi:docname="v11.svg"
   inkscape:version="1.1.1 (3bf5ae0d25, 2021-09-20)"
   xmlns:inkscape="http://www.inkscape.org/namespaces/inkscape"
   xmlns:sodipodi="http://sodipodi.sourceforge.net/DTD/sodipodi-0.dtd"
   xmlns="http://www.w3.org/2000/svg"
   xmlns:svg="http://www.w3.org/2000/svg">
  <defs
     id="defs10" />
  <sodipodi:namedview
     id="namedview8"
     pagecolor="#ffffff"
     bordercolor="#666666"
     borderopacity="1.0"
     inkscape:pageshadow="2"
     inkscape:pageopacity="0.0"
     inkscape:pagecheckerboard="0"
     showgrid="false"
     inkscape:zoom="25.75"
     inkscape:cx="14.504854"
     inkscape:cy="14.116505"
     inkscape:window-width="1920"
     inkscape:window-height="1009"
     inkscape:window-x="-8"
     inkscape:window-y="-8"
     inkscape:window-maximized="1"
     inkscape:current-layer="svg6" />
  <title
     id="title2">v11</title>
  <path
     fill="#000000"
     d="M 12.127,6.741 C 11.355,9.842 11.246,10.648 10.773,10.773 10.33,10.892 9.514,9.703 8.569,8.317 7.362,6.547 6.057,4.52 5.23,3.655 c 0,0 0.038,2.332 0.313,4.85 0.351,3.202 0.928,6.775 0.505,7.056 C 5.291,16.066 0.662,10.552 0,10.331 c 0,0 2.268,8.821 3.4,10.46 0,0 5.232,-0.44 7.12,-1.134 0,0 0.589,-1.114 1.355,-3.591 0.766,-2.477 1.671,-6.805 2.364,-6.805 0.694,0 1.599,4.328 2.364,6.805 0.765,2.477 1.354,3.591 1.354,3.591 1.888,0.694 7.121,1.134 7.121,1.134 1.131,-1.639 3.399,-10.46 3.399,-10.46 -0.659,0.221 -5.291,5.735 -6.048,5.23 -0.423,-0.281 0.154,-3.855 0.505,-7.056 0.278,-2.518 0.316,-4.85 0.316,-4.85 -0.829,0.864 -2.135,2.892 -3.341,4.662 -0.945,1.386 -1.761,2.575 -2.205,2.456 C 17.231,10.648 17.17,9.828 16.35,6.741 15.532,3.655 14.238,0 14.238,0 c 0,0 -1.345,3.664 -2.112,6.741 z m 13.361,18.872 c 0,0 0.504,0.757 0.345,1.827 0,0 -0.409,-0.032 -0.946,-0.601 -0.534,-0.566 -1.322,-1.259 -1.322,-1.259 h -7.687 c 0,0 -0.472,0.376 -0.725,0.789 -0.252,0.409 -0.63,0.85 -0.914,1.039 v 0 C 13.955,27.219 13.578,26.778 13.326,26.369 13.074,25.957 12.6,25.58 12.6,25.58 H 4.914 c 0,0 -0.789,0.693 -1.323,1.259 -0.536,0.569 -0.945,0.601 -0.945,0.601 -0.157,-1.071 0.345,-1.827 0.345,-1.827 -1.447,-2.08 -1.018,-3.33 -1.018,-3.33 7.561,-0.209 9.618,-0.333 9.998,-0.714 0.376,-0.377 0.42,-0.838 1.006,-2.773 0.589,-1.932 1.262,-3.191 1.262,-3.191 0,0 0.682,1.256 1.262,3.191 0.581,1.934 0.63,2.395 1.007,2.773 0.38,0.38 2.436,0.505 9.998,0.714 0,0 0.429,1.25 -1.018,3.33 z"
     id="path4" />
</svg>
