<?xml version="1.0" encoding="UTF-8" standalone="no"?>
<svg
   version="1.1"
   width="29.977211"
   height="28.939814"
   viewBox="0 0 29.977211 28.939814"
   id="svg4"
   xmlns="http://www.w3.org/2000/svg"
   xmlns:svg="http://www.w3.org/2000/svg">
  <defs>
    <!-- This is the gradient that will actually be used on
     the cards. The colors themselves will be provided by the
     template, but the x values, y values, and offsets will be
     used from the SVG. -->
    <linearGradient id="rarity" x1="0" y1="0" x2="1" y2="0">
      <stop offset="0" style="stop-color:rgb(192,55,38);stop-opacity:1" id="stop2" />
      <stop offset="0.125" style="stop-color:rgb(192,55,38);stop-opacity:1" id="stop4" />
      <stop offset="0.5" style="stop-color:rgb(241,142,30);stop-opacity:1" id="stop6" />
      <stop offset="0.875" style="stop-color:rgb(192,55,38);stop-opacity:1" id="stop8" />
      <stop offset="1" style="stop-color:rgb(192,55,38);stop-opacity:1" id="stop10" />
    </linearGradient>
    <!-- These gradients are here so that you can visualize
     what the set symbol would like like in that rarity. The
     only gradient that matters in the end is the "rarity"
     gradient. -->
    <linearGradient id="mythic" x1="0" y1="1" x2="1" y2="0">
      <stop offset="0" style="stop-color:rgb(192,55,38);stop-opacity:1"/>
      <stop offset="0.125" style="stop-color:rgb(192,55,38);stop-opacity:1"/>
      <stop offset="0.5" style="stop-color:rgb(241,142,30);stop-opacity:1"/>
      <stop offset="0.875" style="stop-color:rgb(192,55,38);stop-opacity:1"/>
      <stop offset="1" style="stop-color:rgb(192,55,38);stop-opacity:1"/>
    </linearGradient>
    <linearGradient id="rare" x1="0" y1="1" x2="1" y2="0">
      <stop offset="0" style="stop-color:rgb(146,116,67);stop-opacity:1"/>
      <stop offset="0.125" style="stop-color:rgb(146,116,67);stop-opacity:1"/>
      <stop offset="0.5" style="stop-color:rgb(211,178,108);stop-opacity:1"/>
      <stop offset="0.875" style="stop-color:rgb(146,116,67);stop-opacity:1"/>
      <stop offset="1" style="stop-color:rgb(146,116,67);stop-opacity:1"/>
    </linearGradient>
    <linearGradient id="special" x1="0" y1="1" x2="1" y2="0">
      <stop offset="0" style="stop-color:rgb(76, 56, 106);stop-opacity:1"/>
      <stop offset="0.125" style="stop-color:rgb(76, 56, 106);stop-opacity:1"/>
      <stop offset="0.5" style="stop-color:rgb(201, 173, 221);stop-opacity:1"/>
      <stop offset="0.875" style="stop-color:rgb(76, 56, 106);stop-opacity:1"/>
      <stop offset="1" style="stop-color:rgb(76, 56, 106);stop-opacity:1"/>
    </linearGradient>
    <linearGradient id="uncommon" x1="0" y1="1" x2="1" y2="0">
      <stop offset="0" style="stop-color:rgb(98,110,119);stop-opacity:1"/>
      <stop offset="0.125" style="stop-color:rgb(98,110,119);stop-opacity:1"/>
      <stop offset="0.5" style="stop-color:rgb(196,222,238);stop-opacity:1"/>
      <stop offset="0.875" style="stop-color:rgb(98,110,119);stop-opacity:1"/>
      <stop offset="1" style="stop-color:rgb(98,110,119);stop-opacity:1"/>
    </linearGradient>
    <linearGradient id="common" x1="0" y1="1" x2="1" y2="0">
      <stop offset="0" style="stop-color:rgb(0,0,0);stop-opacity:1"/>
    </linearGradient>
    <linearGradient
            id="rarity-outline" x1="0" y1="1" x2="0" y2="1">
      <stop offset="0" style="stop-color:rgb(0,0,0);stop-opacity:1"/>
    </linearGradient>
  </defs>
  <path fill="url(#rarity-outline)" d="M 14.992512,1.429895e-5 A 0.750075,0.750075 0 0 0 14.283527,0.4922018 c 0,0 -1.351793,3.6772808 -2.134765,6.8183594 -0.387682,1.5572503 -0.612893,2.5454202 -0.779297,3.0957028 -0.02073,0.06854 -0.02598,0.06299 -0.04492,0.117188 -0.05203,-0.05602 -0.07734,-0.07091 -0.136721,-0.142578 C 10.848982,9.9719073 10.411908,9.3370038 9.9397773,8.6445455 8.7411709,6.8868543 7.4809001,4.8898941 6.5218086,3.8867331 a 0.750075,0.750075 0 0 0 -1.2910156,0.53125 c 0,0 0.03679,2.3577023 0.3164062,4.9179687 0.1770578,1.6152112 0.4099664,3.3125952 0.5429688,4.6191402 0.052494,0.515677 0.070927,0.898555 0.083984,1.251953 -0.02995,-0.02358 -0.041201,-0.02543 -0.072266,-0.05078 C 5.5941631,14.742006 4.9304295,14.104186 4.2698554,13.439467 3.6092814,12.774748 2.9469106,12.082622 2.3987617,11.533217 2.1246872,11.258515 1.8802162,11.019351 1.6682929,10.830092 1.4563696,10.640834 1.3911221,10.50353 0.98860543,10.369155 a 0.750075,0.750075 0 0 0 -0.96484375,0.898437 c 0,0 0.57032677,2.215613 1.28320312,4.640625 0.3564382,1.212506 0.747869,2.478507 1.1269532,3.556641 0.3790842,1.078134 0.7043877,1.929719 1.0996093,2.501953 a 0.750075,0.750075 0 0 0 0.5566407,0.263672 c -0.5965243,0.01778 -0.7027357,0.03383 -1.3867188,0.05273 a 0.750075,0.750075 0 0 0 -0.6894531,0.505859 c 0,0 -0.158142,0.526473 -0.068359,1.22461 0.07533,0.585756 0.4560125,1.433606 0.9902344,2.330078 -0.1814155,0.377147 -0.4204283,1.005652 -0.28125,1.955078 a 0.750075,0.750075 0 0 0 0.8007808,0.638676 c 0,0 0.2726336,-0.03431 0.5292969,-0.154297 C 4.2413625,28.663226 4.5585693,28.452226 4.887043,28.10353 5.3016362,27.664092 5.7782586,27.24341 5.9612617,27.080092 H 13.03548 c 0.127274,0.118145 0.299153,0.264171 0.400391,0.429688 a 0.750075,0.750075 0 0 0 0.002,0.002 c 0.300937,0.488426 0.659607,0.95397 1.136719,1.271484 a 0.750075,0.750075 0 0 0 0.830078,0 C 15.881103,28.4662 16.239984,28.00096 16.541387,27.51178 a 0.750075,0.750075 0 0 0 0.002,0 c 0.102785,-0.167788 0.273749,-0.314044 0.40039,-0.431641 h 7.074219 c 0.182796,0.163318 0.659355,0.583713 1.074219,1.023438 0.328918,0.348518 0.645663,0.559776 0.902344,0.679687 0.256681,0.119911 0.53125,0.154297 0.53125,0.154297 a 0.750075,0.750075 0 0 0 0.798828,-0.636719 c 0.141108,-0.949599 -0.09909,-1.579253 -0.28125,-1.957031 0.534222,-0.896472 0.914904,-1.744322 0.990234,-2.330078 0.08978,-0.698137 -0.06836,-1.224608 -0.06836,-1.22461 a 0.750075,0.750075 0 0 0 -0.6875,-0.505859 c -0.684855,-0.01893 -0.791505,-0.03492 -1.388672,-0.05273 a 0.750075,0.750075 0 0 0 0.55664,-0.263672 c 0.394812,-0.572144 0.718725,-1.425799 1.097657,-2.503906 0.378931,-1.078108 0.772534,-2.342192 1.128906,-3.554688 0.712745,-2.424992 1.28125,-4.640625 1.28125,-4.640625 a 0.750075,0.750075 0 0 0 -0.964937,-0.898488 c -0.402507,0.134983 -0.468099,0.271775 -0.679687,0.460937 -0.211589,0.189163 -0.454556,0.428466 -0.728516,0.703125 -0.547919,0.549318 -1.212311,1.241555 -1.873047,1.90625 -0.660736,0.664696 -1.322124,1.302529 -1.830078,1.716797 -0.0326,0.02659 -0.04481,0.02809 -0.07617,0.05273 0.01299,-0.353756 0.03334,-0.739112 0.08594,-1.255859 0.132946,-1.306121 0.365939,-3.001143 0.542969,-4.6152341 v -0.00195 c 0.282412,-2.5596181 0.320308,-4.9179678 0.320308,-4.9179678 a 0.750075,0.750075 0 0 0 -1.291016,-0.53125 c -0.962477,1.0031125 -2.222155,2.9998975 -3.419922,4.7578124 -0.472129,0.6924584 -0.90915,1.3274314 -1.248046,1.7363285 -0.05482,0.06614 -0.07824,0.07796 -0.126954,0.130859 -0.01621,-0.04937 -0.01964,-0.04361 -0.03711,-0.103516 C 18.464145,9.8488385 18.237588,8.853806 17.824543,7.2988424 16.993931,4.1652618 15.695637,0.5000143 15.695636,0.5000143 A 0.750075,0.750075 0 0 0 14.992512,1.429895e-5 Z M 14.988612,11.419936 c 0.138712,0.366707 0.28221,0.753182 0.435547,1.27539 0.400979,1.365587 0.818654,3.065296 1.212891,4.341797 0.778319,2.520127 1.408203,3.720703 1.408203,3.720703 a 0.750075,0.750075 0 0 0 0.402344,0.353516 c 1.106435,0.406709 2.87143,0.668155 4.433593,0.867188 1.070358,0.136372 1.479611,0.166535 1.976563,0.21289 -2.021606,-0.0653 -4.230216,-0.128782 -5.242188,-0.199218 -0.73956,-0.05147 -1.250335,-0.109713 -1.560546,-0.167969 -0.179314,-0.03368 -0.273821,-0.07885 -0.304688,-0.08984 -0.06211,-0.07269 -0.107599,-0.152642 -0.205078,-0.451172 -0.118813,-0.363864 -0.28262,-0.975964 -0.576172,-1.953125 -0.600798,-2.004386 -1.320312,-3.332031 -1.320312,-3.332031 a 0.750075,0.750075 0 0 0 -1.320313,0.0039 c 0,0 -0.709392,1.328676 -1.318359,3.326172 -0.29628,0.978328 -0.459653,1.592137 -0.578125,1.957031 -0.09665,0.297677 -0.140647,0.37805 -0.201172,0.449219 -0.02696,0.0087 -0.121522,0.05506 -0.306641,0.08984 -0.310179,0.05828 -0.820929,0.116555 -1.560547,0.167969 -1.012307,0.07037 -3.2199009,0.133984 -5.242187,0.199218 0.496862,-0.04636 0.9063751,-0.07652 1.9765624,-0.21289 1.5619142,-0.199033 3.3252446,-0.460494 4.4316406,-0.867188 a 0.750075,0.750075 0 0 0 0.404297,-0.353516 c 0,0 0.628895,-1.20067 1.408203,-3.720703 0.394795,-1.276642 0.811887,-2.97613 1.212891,-4.341797 0.153112,-0.521447 0.295097,-0.908863 0.433593,-1.27539 z" />
  <path fill="url(#rarity)" d="m 12.877324,7.4910143 c -0.772,3.1009997 -0.881,3.9069997 -1.354,4.0319997 -0.443,0.119 -1.259,-1.07 -2.2039998,-2.4559997 -1.207,-1.77 -2.512,-3.797 -3.339,-4.662 0,0 0.038,2.332 0.313,4.85 0.351,3.2019997 0.928,6.7749997 0.505,7.0559997 -0.757,0.505 -5.386,-5.009 -6.04800002,-5.23 0,0 2.26800002,8.821 3.40000002,10.46 0,0 5.232,-0.44 7.1199998,-1.134 0,0 0.589,-1.114 1.355,-3.591 0.766,-2.477 1.671,-6.805 2.364,-6.805 0.694,0 1.599,4.328 2.364,6.805 0.765,2.477 1.354,3.591 1.354,3.591 1.888,0.694 7.121,1.134 7.121,1.134 1.131,-1.639 3.399,-10.46 3.399,-10.46 -0.659,0.221 -5.291,5.735 -6.048,5.23 -0.423,-0.281 0.154,-3.855 0.505,-7.0559997 0.278,-2.518 0.316,-4.85 0.316,-4.85 -0.829,0.864 -2.135,2.892 -3.341,4.662 -0.945,1.3859997 -1.761,2.5749997 -2.205,2.4559997 -0.473,-0.125 -0.534,-0.945 -1.354,-4.0319997 -0.818,-3.086 -2.112,-6.741 -2.112,-6.741 0,0 -1.345,3.664 -2.112,6.741 z m 13.361,18.8719997 c 0,0 0.504,0.757 0.345,1.827 0,0 -0.409,-0.032 -0.946,-0.601 -0.534,-0.566 -1.322,-1.259 -1.322,-1.259 h -7.687 c 0,0 -0.472,0.376 -0.725,0.789 -0.252,0.409 -0.63,0.85 -0.914,1.039 v 0 c -0.284,-0.189 -0.661,-0.63 -0.913,-1.039 -0.252,-0.412 -0.726,-0.789 -0.726,-0.789 H 5.6643242 c 0,0 -0.789,0.693 -1.323,1.259 -0.536,0.569 -0.945,0.601 -0.945,0.601 -0.157,-1.071 0.345,-1.827 0.345,-1.827 -1.447,-2.08 -1.018,-3.33 -1.018,-3.33 7.5609998,-0.209 9.6179998,-0.333 9.9979998,-0.714 0.376,-0.377 0.42,-0.838 1.006,-2.773 0.589,-1.932 1.262,-3.191 1.262,-3.191 0,0 0.682,1.256 1.262,3.191 0.581,1.934 0.63,2.395 1.007,2.773 0.38,0.38 2.436,0.505 9.998,0.714 0,0 0.429,1.25 -1.018,3.33 z"/>
</svg>
