<?xml version="1.0" encoding="UTF-8" standalone="no"?>
<svg
   version="1.1"
   width="31.324219"
   height="23.400391"
   viewBox="0 0 31.324218 23.400391"
   id="svg6"
   xmlns="http://www.w3.org/2000/svg"
   xmlns:svg="http://www.w3.org/2000/svg">
  <defs>
    <!-- This is the gradient that will actually be used on
     the cards. The colors themselves will be provided by the
     template, but the x values, y values, and offsets will be
     used from the SVG. -->
    <linearGradient id="rarity" x1="0" y1=".25" x2="1" y2="0.5">
      <stop offset="0" style="stop-color:rgb(192,55,38);stop-opacity:1" id="stop2" />
      <stop offset="0.125" style="stop-color:rgb(192,55,38);stop-opacity:1" id="stop4" />
      <stop offset="0.5" style="stop-color:rgb(241,142,30);stop-opacity:1" id="stop6" />
      <stop offset="0.875" style="stop-color:rgb(192,55,38);stop-opacity:1" id="stop8" />
      <stop offset="1" style="stop-color:rgb(192,55,38);stop-opacity:1" id="stop10" />
    </linearGradient>
    <!-- These gradients are here so that you can visualize
     what the set symbol would like like in that rarity. The
     only gradient that matters in the end is the "rarity"
     gradient. -->
    <linearGradient id="mythic" x1="0" y1="1" x2="1" y2="0">
      <stop offset="0" style="stop-color:rgb(192,55,38);stop-opacity:1"/>
      <stop offset="0.125" style="stop-color:rgb(192,55,38);stop-opacity:1"/>
      <stop offset="0.5" style="stop-color:rgb(241,142,30);stop-opacity:1"/>
      <stop offset="0.875" style="stop-color:rgb(192,55,38);stop-opacity:1"/>
      <stop offset="1" style="stop-color:rgb(192,55,38);stop-opacity:1"/>
    </linearGradient>
    <linearGradient id="rare" x1="0" y1="1" x2="1" y2="0">
      <stop offset="0" style="stop-color:rgb(146,116,67);stop-opacity:1"/>
      <stop offset="0.125" style="stop-color:rgb(146,116,67);stop-opacity:1"/>
      <stop offset="0.5" style="stop-color:rgb(211,178,108);stop-opacity:1"/>
      <stop offset="0.875" style="stop-color:rgb(146,116,67);stop-opacity:1"/>
      <stop offset="1" style="stop-color:rgb(146,116,67);stop-opacity:1"/>
    </linearGradient>
    <linearGradient id="special" x1="0" y1="1" x2="1" y2="0">
      <stop offset="0" style="stop-color:rgb(76, 56, 106);stop-opacity:1"/>
      <stop offset="0.125" style="stop-color:rgb(76, 56, 106);stop-opacity:1"/>
      <stop offset="0.5" style="stop-color:rgb(201, 173, 221);stop-opacity:1"/>
      <stop offset="0.875" style="stop-color:rgb(76, 56, 106);stop-opacity:1"/>
      <stop offset="1" style="stop-color:rgb(76, 56, 106);stop-opacity:1"/>
    </linearGradient>
    <linearGradient id="uncommon" x1="0" y1="1" x2="1" y2="0">
      <stop offset="0" style="stop-color:rgb(98,110,119);stop-opacity:1"/>
      <stop offset="0.125" style="stop-color:rgb(98,110,119);stop-opacity:1"/>
      <stop offset="0.5" style="stop-color:rgb(196,222,238);stop-opacity:1"/>
      <stop offset="0.875" style="stop-color:rgb(98,110,119);stop-opacity:1"/>
      <stop offset="1" style="stop-color:rgb(98,110,119);stop-opacity:1"/>
    </linearGradient>
    <linearGradient id="common" x1="0" y1="1" x2="1" y2="0">
      <stop offset="0" style="stop-color:rgb(0,0,0);stop-opacity:1"/>
    </linearGradient>
    <linearGradient
            id="rarity-outline" x1="0" y1="1" x2="0" y2="1">
      <stop offset="0" style="stop-color:rgb(0,0,0);stop-opacity:1"/>
    </linearGradient>
  </defs>
  <path fill="#FFFFFF" d="M 13.189453,-0.75 C 5.5066446,-0.75 -0.75,5.5088764 -0.75,13.191406 c 0,3.050123 0.98394277,5.8866 2.6523438,8.183594 l 0.7753906,1.066406 a 0.750075,0.750075 0 0 0 0.7539062,0.257813 l -0.1152344,0.544922 a 0.750075,0.750075 0 0 0 0.734375,0.90625 H 31.324219 a 0.750075,0.750075 0 0 0 0.75,-0.757813 l -0.0078,-0.757812 C 32.001728,16.767849 31.076837,12.084972 29.091797,8.4160156 27.104842,4.7435212 24.031088,2.1662535 20.039062,0.60742188 a 0.750075,0.750075 0 0 0 -0.002,0 L 18.478516,0 a 0.750075,0.750075 0 0 0 -0.84961,0.40234375 L 17.484375,0.14257812 A 0.750075,0.750075 0 0 0 17.019531,-0.21875 l -0.310547,-0.0820312 a 0.750075,0.750075 0 0 0 -0.002,-0.00195 C 15.582524,-0.5953684 14.402673,-0.75 13.189453,-0.75 Z m 0,6.7539062 c 1.146893,0 2.219998,0.2640531 3.179688,0.734375 l 0.90039,0.4414063 a 0.750075,0.750075 0 0 0 0.472657,-0.00391 0.750075,0.750075 0 0 0 0.04492,0.4570313 l 0.273438,0.3632813 c 0.115971,0.1550793 0.212113,0.3278704 0.285156,0.5234374 0.124174,0.3320983 0.107218,0.6185027 0.04883,0.8886719 C 17.212733,7.602781 15.260469,6.3476563 12.9375,6.3476562 c -3.6861297,0 -6.703125,3.0159343 -6.703125,6.7031248 0,1.581785 0.7300314,2.853777 1.6425781,3.933594 -0.2573053,0.121989 -0.5273068,0.219772 -0.7695312,0.367187 A 0.750075,0.750075 0 0 0 7.0390625,17.142578 L 6.7636719,16.621094 v -0.002 C 6.2367514,15.613605 5.9375,14.475414 5.9375,13.257812 c 0,-4.026502 3.226828,-7.2539056 7.251953,-7.2539058 z" />
  <path fill="url(#rarity-outline)" d="M 13.189453,0 C 5.9131043,0 0,5.9151998 0,13.191406 c 0,2.888955 0.93123092,5.568919 2.5097656,7.742188 L 3.2851562,22 3.8066406,20.789062 C 4.288252,19.667739 5.0206391,18.674444 5.9296875,17.880859 L 6.375,17.492188 6.0996094,16.96875 C 5.5179331,15.859358 5.1875,14.599246 5.1875,13.257812 c 0,-4.4298292 3.5733059,-8.0039057 8.001953,-8.0039058 1.262353,0 2.450653,0.2914996 3.509766,0.8105469 l 0.90039,0.4414063 0.167969,-0.9882813 c 0.06837,-0.3991604 0.109375,-0.8143953 0.109375,-1.2421875 0,-1.2702071 -0.326273,-2.4642325 -0.892578,-3.48828123 L 16.828125,0.50585938 16.517578,0.42382808 C 15.454026,0.14707128 14.338687,0 13.189453,0 Z m 5.017578,0.69921875 0.582031,1.56835935 c 0.230848,0.6217843 0.359376,1.2963675 0.359376,2.0078125 0,0.9030994 -0.205371,1.7486249 -0.564454,2.4941406 l -0.197265,0.4121094 0.273437,0.3632813 c 0.158595,0.2117234 0.290392,0.4497542 0.388672,0.7128906 0.392174,1.048851 0.0033,1.9868195 -0.662109,2.6269535 -0.8778,-2.1960512 -2.948167,-3.7871097 -5.449219,-3.7871098 -3.2783439,0 -5.953125,2.6737486 -5.953125,5.9531248 0,1.718892 0.8746832,3.122826 2.0449219,4.210938 -2.370347,0.782555 -4.252952,2.704899 -4.7871094,5.234375 L 4.0507812,23.400391 H 31.324219 l -0.0078,-0.757813 C 31.252565,16.850455 30.33567,12.292661 28.431641,8.7734375 26.527611,5.2542139 23.620627,2.8119665 19.765625,1.3066406 Z" />
  <path fill="url(#rarity)" d="M 13.189453,0.75 C 6.3184531,0.75 0.75,6.3204063 0.75,13.191406 c 0,2.728 0.8781875,5.250781 2.3671875,7.300782 0.527,-1.227001 1.3263594,-2.309782 2.3183594,-3.175782 -0.636,-1.213 -0.9980469,-2.593594 -0.9980469,-4.058594 0,-4.8349995 3.9179531,-8.7539057 8.751953,-8.7539058 1.378,0 2.680844,0.3187188 3.839844,0.8867188 0.062,-0.362 0.09766,-0.7342344 0.09766,-1.1152344 0,-1.142 -0.292828,-2.21 -0.798828,-3.125 C 15.325125,0.88939062 14.274453,0.75 13.189453,0.75 Z m 6.302735,1.2558594 c 0.260999,0.703 0.406249,1.4675312 0.40625,2.2695312 0,1.017 -0.231672,1.9753125 -0.638672,2.8203125 0.2,0.267 0.368187,0.5683907 0.492187,0.9003907 0.642,1.717 -0.1135,3.5857342 -1.6875,4.1777342 -0.417,-2.4559999 -2.552953,-4.3261717 -5.126953,-4.3261718 -2.873,0 -5.203125,2.3291248 -5.203125,5.2031248 0,1.976 1.1006563,3.693219 2.722656,4.574219 -2.6889998,0.327 -4.9134685,2.340391 -5.4804685,5.025391 H 30.566406 c -0.126,-11.434 -3.632218,-17.7385316 -11.074218,-20.6445316 z"/>
</svg>
