<?xml version="1.0" encoding="UTF-8" standalone="no"?>
<svg
   version="1.1"
   width="28.572266"
   height="29.535156"
   viewBox="0 0 28.572266 29.535156"
   id="svg4"
   xmlns="http://www.w3.org/2000/svg"
   xmlns:svg="http://www.w3.org/2000/svg">
  <defs>
    <!-- This is the gradient that will actually be used on
     the cards. The colors themselves will be provided by the
     template, but the x values, y values, and offsets will be
     used from the SVG. -->
    <linearGradient id="rarity" x1="0" y1="1" x2="1" y2="0">
      <stop offset="0" style="stop-color:rgb(192,55,38);stop-opacity:1" id="stop2" />
      <stop offset="0.125" style="stop-color:rgb(192,55,38);stop-opacity:1" id="stop4" />
      <stop offset="0.5" style="stop-color:rgb(241,142,30);stop-opacity:1" id="stop6" />
      <stop offset="0.875" style="stop-color:rgb(192,55,38);stop-opacity:1" id="stop8" />
      <stop offset="1" style="stop-color:rgb(192,55,38);stop-opacity:1" id="stop10" />
    </linearGradient>
    <!-- These gradients are here so that you can visualize
     what the set symbol would like like in that rarity. The
     only gradient that matters in the end is the "rarity"
     gradient. -->
    <linearGradient id="mythic" x1="0" y1="1" x2="1" y2="0">
      <stop offset="0" style="stop-color:rgb(192,55,38);stop-opacity:1"/>
      <stop offset="0.125" style="stop-color:rgb(192,55,38);stop-opacity:1"/>
      <stop offset="0.5" style="stop-color:rgb(241,142,30);stop-opacity:1"/>
      <stop offset="0.875" style="stop-color:rgb(192,55,38);stop-opacity:1"/>
      <stop offset="1" style="stop-color:rgb(192,55,38);stop-opacity:1"/>
    </linearGradient>
    <linearGradient id="rare" x1="0" y1="1" x2="1" y2="0">
      <stop offset="0" style="stop-color:rgb(146,116,67);stop-opacity:1"/>
      <stop offset="0.125" style="stop-color:rgb(146,116,67);stop-opacity:1"/>
      <stop offset="0.5" style="stop-color:rgb(211,178,108);stop-opacity:1"/>
      <stop offset="0.875" style="stop-color:rgb(146,116,67);stop-opacity:1"/>
      <stop offset="1" style="stop-color:rgb(146,116,67);stop-opacity:1"/>
    </linearGradient>
    <linearGradient id="special" x1="0" y1="1" x2="1" y2="0">
      <stop offset="0" style="stop-color:rgb(76, 56, 106);stop-opacity:1"/>
      <stop offset="0.125" style="stop-color:rgb(76, 56, 106);stop-opacity:1"/>
      <stop offset="0.5" style="stop-color:rgb(201, 173, 221);stop-opacity:1"/>
      <stop offset="0.875" style="stop-color:rgb(76, 56, 106);stop-opacity:1"/>
      <stop offset="1" style="stop-color:rgb(76, 56, 106);stop-opacity:1"/>
    </linearGradient>
    <linearGradient id="uncommon" x1="0" y1="1" x2="1" y2="0">
      <stop offset="0" style="stop-color:rgb(98,110,119);stop-opacity:1"/>
      <stop offset="0.125" style="stop-color:rgb(98,110,119);stop-opacity:1"/>
      <stop offset="0.5" style="stop-color:rgb(196,222,238);stop-opacity:1"/>
      <stop offset="0.875" style="stop-color:rgb(98,110,119);stop-opacity:1"/>
      <stop offset="1" style="stop-color:rgb(98,110,119);stop-opacity:1"/>
    </linearGradient>
    <linearGradient id="common" x1="0" y1="1" x2="1" y2="0">
      <stop offset="0" style="stop-color:rgb(0,0,0);stop-opacity:1"/>
    </linearGradient>
    <linearGradient
            id="rarity-outline" x1="0" y1="1" x2="0" y2="1">
      <stop offset="0" style="stop-color:rgb(0,0,0);stop-opacity:1"/>
    </linearGradient>
  </defs>
  <path fill="url(#rarity-outline)" d="M 14.617188,0 C 8.7241988,0 3.6827541,3.6880818 1.6386724,8.8886719 0.59279255,10.85831 -6.4347639e-4,13.106204 5.2360858e-7,15.492188 -0.00101948,23.237899 6.2508029,29.535156 13.953125,29.535156 c 5.892989,0 10.93585,-3.688082 12.980469,-8.888672 1.046137,-1.969638 1.639316,-4.217532 1.638672,-6.603515 C 28.573287,6.2972575 22.31951,0 14.617188,0 Z" />
  <path fill="url(#rarity)" d="m 14.618064,0.625 c 7.363,0 13.331,6.008 13.329,13.419 0.002,7.41 -5.966,13.419 -13.329,13.419 -7.3630005,0 -13.3310005,-6.008 -13.3290005,-13.419 -0.002,-7.41 5.966,-13.419 13.3290005,-13.419 z m 5.588,6.162 c -3.387,-0.062 -4.891,4.554 -4.749,7.382 0.148,2.958 1.308,6.945 4.901,6.949 3.358,0.003 4.844,-4.56 4.858,-7.143 0.023,-4.227 -1.955,-7.131 -5.009,-7.187 z m 0.021,1.369 c 1.909,-0.011 2.499,3.613 2.579,5.904 0.076,2.165 -0.274,5.958 -2.428,5.796 -1.895,-0.142 -2.469,-3.512 -2.493,-5.753 -0.02,-1.902 0.05,-5.934 2.341,-5.947 z m -10.158,-1.229 C 9.6210635,6.944 9.6260635,6.928 9.1830635,7.01 c -2.222,0.411 -3.785,2.495 -4.378,4.549 l 1.225,0.49 c 0.822,-2.317 2.643,-3.494 4.0050005,-2.993 0.937,0.345 2.113,1.705 1.276,3.544 -0.613,1.346 -4.2510005,4.848 -6.5510005,7.301 l 0.015,1.01 8.8010005,0.015 1.056,-3.827 h -1.194 c -0.334,1.142 -0.935,1.517 -1.592,1.73 L 7.5300635,18.783 c 1.87,-2.247 4.0640005,-3.359 5.4640005,-5.082 1.401,-1.724 1.004,-4.483 -0.245,-5.648 -0.748,-0.673 -1.661,-1.111 -2.68,-1.127 z"/>
</svg>
