<?xml version="1.0" encoding="UTF-8" standalone="no"?>
<svg
   version="1.1"
   width="36.253906"
   height="30.382812"
   viewBox="0 0 36.253906 30.382813"
   id="svg10"
   xmlns="http://www.w3.org/2000/svg"
   xmlns:svg="http://www.w3.org/2000/svg">
  <defs>
    <!-- This is the gradient that will actually be used on
     the cards. The colors themselves will be provided by the
     template, but the x values, y values, and offsets will be
     used from the SVG. -->
    <linearGradient id="rarity" x1="0" y1="1" x2="1" y2="0">
      <stop offset="0" style="stop-color:rgb(192,55,38);stop-opacity:1" id="stop2" />
      <stop offset="0.125" style="stop-color:rgb(192,55,38);stop-opacity:1" id="stop4" />
      <stop offset="0.5" style="stop-color:rgb(241,142,30);stop-opacity:1" id="stop6" />
      <stop offset="0.875" style="stop-color:rgb(192,55,38);stop-opacity:1" id="stop8" />
      <stop offset="1" style="stop-color:rgb(192,55,38);stop-opacity:1" id="stop10" />
    </linearGradient>
    <!-- These gradients are here so that you can visualize
     what the set symbol would like like in that rarity. The
     only gradient that matters in the end is the "rarity"
     gradient. -->
    <linearGradient id="mythic" x1="0" y1="1" x2="1" y2="0">
      <stop offset="0" style="stop-color:rgb(192,55,38);stop-opacity:1"/>
      <stop offset="0.125" style="stop-color:rgb(192,55,38);stop-opacity:1"/>
      <stop offset="0.5" style="stop-color:rgb(241,142,30);stop-opacity:1"/>
      <stop offset="0.875" style="stop-color:rgb(192,55,38);stop-opacity:1"/>
      <stop offset="1" style="stop-color:rgb(192,55,38);stop-opacity:1"/>
    </linearGradient>
    <linearGradient id="rare" x1="0" y1="1" x2="1" y2="0">
      <stop offset="0" style="stop-color:rgb(146,116,67);stop-opacity:1"/>
      <stop offset="0.125" style="stop-color:rgb(146,116,67);stop-opacity:1"/>
      <stop offset="0.5" style="stop-color:rgb(211,178,108);stop-opacity:1"/>
      <stop offset="0.875" style="stop-color:rgb(146,116,67);stop-opacity:1"/>
      <stop offset="1" style="stop-color:rgb(146,116,67);stop-opacity:1"/>
    </linearGradient>
    <linearGradient id="special" x1="0" y1="1" x2="1" y2="0">
      <stop offset="0" style="stop-color:rgb(76, 56, 106);stop-opacity:1"/>
      <stop offset="0.125" style="stop-color:rgb(76, 56, 106);stop-opacity:1"/>
      <stop offset="0.5" style="stop-color:rgb(201, 173, 221);stop-opacity:1"/>
      <stop offset="0.875" style="stop-color:rgb(76, 56, 106);stop-opacity:1"/>
      <stop offset="1" style="stop-color:rgb(76, 56, 106);stop-opacity:1"/>
    </linearGradient>
    <linearGradient id="uncommon" x1="0" y1="1" x2="1" y2="0">
      <stop offset="0" style="stop-color:rgb(98,110,119);stop-opacity:1"/>
      <stop offset="0.125" style="stop-color:rgb(98,110,119);stop-opacity:1"/>
      <stop offset="0.5" style="stop-color:rgb(196,222,238);stop-opacity:1"/>
      <stop offset="0.875" style="stop-color:rgb(98,110,119);stop-opacity:1"/>
      <stop offset="1" style="stop-color:rgb(98,110,119);stop-opacity:1"/>
    </linearGradient>
    <linearGradient id="common" x1="0" y1="1" x2="1" y2="0">
      <stop offset="0" style="stop-color:rgb(0,0,0);stop-opacity:1"/>
    </linearGradient>
    <linearGradient
            id="rarity-outline" x1="0" y1="1" x2="0" y2="1">
      <stop offset="0" style="stop-color:rgb(0,0,0);stop-opacity:1"/>
    </linearGradient>
  </defs>
  <path fill="url(#rarity-outline)" d="M 14.097656,0 A 14.097758,14.097758 0 0 0 0,14.097656 14.097758,14.097758 0 0 0 14.097656,28.195312 14.097758,14.097758 0 0 0 22.880859,25.08789 c 0.0797,0.570097 0.16113,1.140166 0.242188,1.708985 l 0.511719,3.585937 1.40039,-3.339843 c 0.387292,-0.92325 0.694336,-1.822939 1.015625,-2.71875 1.108538,0.495247 2.207883,1.017334 3.345703,1.560547 l 2.832032,1.351562 -1.527344,-2.740234 c -0.667284,-1.197877 -1.410053,-2.297216 -2.132813,-3.404297 1.394443,-0.674891 2.827702,-1.299166 4.28711,-2.035157 l 3.398437,-1.71289 -3.802734,-0.177734 c -0.798735,-0.03734 -1.593026,-0.05374 -2.384766,-0.05664 -0.749013,-0.0027 -1.493456,0.0068 -2.236328,0.01953 A 14.097758,14.097758 0 0 0 28.195312,14.097656 14.097758,14.097758 0 0 0 14.097656,0 Z" />
  <path fill="url(#rarity)" d="M 13.9375,1.1132812 C 10.67605,1.1557947 7.4416094,2.3244219 5.0957031,4.6542969 v -0.00195 c -4.39799995,4.07 -5.1798125,11.2943591 -2.0078125,16.3183591 1.519,2.562 4.0185625,4.501438 6.8515625,5.398437 3.6379999,1.199001 7.7368749,0.717501 11.0468749,-1.1875 0.061,-1.122 0.158281,-2.243234 0.238281,-3.365234 -2.889,0.989 -5.672843,2.259063 -8.589843,3.164063 1.691,-1.95 3.936921,-3.309657 5.669922,-5.222657 -2.768001,-0.47 -5.534735,-0.938672 -8.302735,-1.388672 -0.9319999,-0.191 -2.0016561,-0.114843 -2.7226561,-0.839843 3.9170001,-0.114 7.8172811,-0.504078 11.7382811,-0.580078 -2.634,-3.271 -5.689953,-6.188672 -8.251953,-9.5136719 3.458,1.6339999 6.648703,3.7832649 10.095703,5.4472649 -0.195,-3.4279996 -0.31575,-6.8551087 -0.46875,-10.2871087 -1.978844,-1.014 -4.223559,-1.51151 -6.455078,-1.4824219 z m 7.837891,2.3417969 c 0.592,3.001 1.298625,5.9775153 1.890625,8.9785159 0.783,-1.229 1.977593,-2.37375 2.183593,-3.8437503 -0.763,-2.089 -2.331265,-3.7947656 -4.072265,-5.1347656 z m 5.072265,7.5664059 c -0.974,1.637001 -1.596656,3.446235 -2.222656,5.240235 0.809,-0.278 1.614922,-0.566704 2.419922,-0.845703 0.1,-1.47 0.02073,-2.940531 -0.197266,-4.394532 z m 3.214844,7.087891 c -2.343281,-0.0086 -4.687953,0.09719 -7.033203,0.08594 0.29,2.829 0.682984,5.646938 1.083984,8.460938 0.508,-1.211 0.910953,-2.468359 1.376953,-3.69336 1.478,0.603001 2.898891,1.332532 4.337891,2.019532 -0.825,-1.481 -1.787125,-2.882547 -2.703125,-4.310547 1.726,-0.905 3.538297,-1.629813 5.279297,-2.507813 -0.78075,-0.0365 -1.560703,-0.05183 -2.341797,-0.05469 z"/>
</svg>
