<?xml version="1.0" encoding="UTF-8" standalone="no"?>
<!-- Generated by IcoMoon.io -->

<svg
   version="1.1"
   width="32.018002"
   height="18.194582"
   viewBox="0 0 32.018002 18.194582"
   id="svg6"
   sodipodi:docname="v15.svg"
   inkscape:version="1.1.1 (3bf5ae0d25, 2021-09-20)"
   xmlns:inkscape="http://www.inkscape.org/namespaces/inkscape"
   xmlns:sodipodi="http://sodipodi.sourceforge.net/DTD/sodipodi-0.dtd"
   xmlns="http://www.w3.org/2000/svg"
   xmlns:svg="http://www.w3.org/2000/svg">
  <defs
     id="defs10" />
  <sodipodi:namedview
     id="namedview8"
     pagecolor="#ffffff"
     bordercolor="#666666"
     borderopacity="1.0"
     inkscape:pageshadow="2"
     inkscape:pageopacity="0.0"
     inkscape:pagecheckerboard="0"
     showgrid="false"
     inkscape:zoom="26.5625"
     inkscape:cx="15.981176"
     inkscape:cy="9.0917647"
     inkscape:window-width="1920"
     inkscape:window-height="1009"
     inkscape:window-x="-8"
     inkscape:window-y="-8"
     inkscape:window-maximized="1"
     inkscape:current-layer="svg6" />
  <title
     id="title2">v15</title>
  <path
     fill="#000000"
     d="m 19.222,0.46258187 c 0.669,-0.38 1.461,-0.419 2.211,-0.459 3.285,-0.067 6.515,0.83 9.803,0.679 -0.935,1.03400003 -2.04,1.91600003 -3.253,2.60300003 -0.523,0.278 -1.071,0.567 -1.674,0.612 -0.694,0 -1.383,-0.095 -2.077,-0.108 1.978,0.982 3.99,1.898 5.981,2.857 0.6,0.3 1.238,0.527 1.805,0.887 -1.37,0.518 -2.803,0.946 -4.28,0.976 -0.619,-0.01 -1.234,-0.14 -1.791,-0.414 -3.321,3.3590001 -6.622,6.7380001 -9.94,10.0990001 -3.334,-3.346 -6.637,-6.721 -9.948,-10.0900001 -0.628,0.316 -1.336,0.438 -2.034,0.406 -1.274,-0.062 -2.511,-0.419 -3.703,-0.854 -0.115,-0.044 -0.223,-0.102 -0.322,-0.173 2.599,-1.226 5.21,-2.433 7.789,-3.699 -0.7,0.01 -1.395,0.115 -2.095,0.108 -0.538,-0.031 -1.028,-0.285 -1.498,-0.526 -1.256,-0.677 -2.362,-1.6 -3.361,-2.61200003 2.577,0.094 5.126,-0.391 7.694,-0.512 1.176,-0.046 2.41,-0.122 3.526,0.317 0.591,0.213 0.997,0.85100003 0.817,1.47800003 -0.386,1.835 -1.284,3.513 -2.176,5.144 1.76,1.924 3.543,3.8270001 5.311,5.7450001 1.784,-1.911 3.562,-3.8310001 5.336,-5.7520001 -0.896,-1.31 -1.743,-2.668 -2.358,-4.135 -0.193,-0.496 -0.392,-1.008 -0.407,-1.546 -0.017,-0.436 0.279,-0.82900003 0.646,-1.03400003 z"
     id="path4" />
</svg>
