<?xml version="1.0" encoding="UTF-8" standalone="no"?>
<!-- Generated by IcoMoon.io -->

<svg
   version="1.1"
   width="25.306246"
   height="25.351204"
   viewBox="0 0 25.306246 25.351204"
   id="svg6"
   sodipodi:docname="v16.svg"
   inkscape:version="1.1.1 (3bf5ae0d25, 2021-09-20)"
   xmlns:inkscape="http://www.inkscape.org/namespaces/inkscape"
   xmlns:sodipodi="http://sodipodi.sourceforge.net/DTD/sodipodi-0.dtd"
   xmlns="http://www.w3.org/2000/svg"
   xmlns:svg="http://www.w3.org/2000/svg">
  <defs
     id="defs10" />
  <sodipodi:namedview
     id="namedview8"
     pagecolor="#ffffff"
     bordercolor="#666666"
     borderopacity="1.0"
     inkscape:pageshadow="2"
     inkscape:pageopacity="0.0"
     inkscape:pagecheckerboard="0"
     showgrid="false"
     inkscape:zoom="26.5625"
     inkscape:cx="12.48"
     inkscape:cy="12.668235"
     inkscape:window-width="1920"
     inkscape:window-height="1009"
     inkscape:window-x="-8"
     inkscape:window-y="-8"
     inkscape:window-maximized="1"
     inkscape:current-layer="svg6" />
  <title
     id="title2">v16</title>
  <path
     fill="#000000"
     d="m 7.8733288,7.5e-4 c 0.796,-0.001 1.59,-0.001 2.3860002,0 0.001,0.702 0,1.403 0,2.106 0.797,0 1.594,0 2.39,0 0.002,-0.703 0,-1.404 10e-4,-2.106 0.837,-0.001 1.672,-0.001 2.508,0 10e-4,0.702 0,1.404 10e-4,2.106 0.808,-10e-4 1.615,10e-4 2.423,-10e-4 10e-4,-0.702 0,-1.403 10e-4,-2.105 0.832,-0.001 1.664,-0.001 2.497,0 0,0.702 -10e-4,1.403 0,2.106 0.782,0 1.564,0 2.346,0 0,-0.703 -10e-4,-1.404 0,-2.106 0.819,-0.001 1.639,0 2.458,0 10e-4,1.217 0,2.433 0,3.651 -0.63,0.597 -1.261,1.193 -1.892,1.79 -0.11,0.094 -0.113,0.249 -0.151,0.379 -0.229,1.107 -0.315,2.246 -0.264,3.376 0.123,1.592 0.501,3.151 0.898,4.694 0.324,1.234 0.695,2.456 1.111,3.662 0.428,1.265 0.797,2.587 0.706,3.937 -0.055,1.012 -0.404,2.055 -1.162,2.757 -0.712,0.669 -1.697,0.94 -2.645,1.051 -1.336,0.147 -2.676,-0.043 -4.007,-0.164 -5.24,-0.511 -10.4820002,-1.001 -15.7200002,-1.52 -1.15099998,-0.786 -2.06199998,-2.227 -1.66299998,-3.659 0.206,-0.776 0.703,-1.436 1.26399998,-1.994 5.761,0.189 11.5210002,0.382 17.2820002,0.572 0.842,0.026 1.692,0.102 2.497,0.365 -1.037,0.096 -2.079,0.424 -2.916,1.058 -0.513,0.394 -0.896,1 -0.889,1.663 0.007,0.907 0.52,1.753 1.21,2.316 0.717,0.584 1.692,0.756 2.591,0.636 0.663,-0.07 1.31,-0.344 1.788,-0.814 0.754,-0.737 1.1,-1.825 1.049,-2.865 -0.033,-0.772 -0.401,-1.524 -0.998,-2.016 -0.668,-0.555 -1.522,-0.814 -2.362,-0.975 -0.836,-0.156 -1.686,-0.21 -2.534,-0.247 0.001,-2.051 -10e-4,-4.104 0.001,-6.155 -0.724,-0.767 -1.455,-1.528 -2.18,-2.295 -0.727,0.762 -1.453,1.526 -2.178,2.289 0,2.02 0.001,4.041 0,6.061 -2.279,-0.048 -4.5580002,-0.095 -6.8370002,-0.131 0.431,-0.255 0.828,-0.576 1.11,-0.993 0.691,-0.997 1.015,-2.192 1.262,-3.365 0.484,-2.486 0.556,-5.032 0.53,-7.559 -0.638,-0.626 -1.278,-1.249 -1.915,-1.875 10e-4,-1.21 0,-2.42 0,-3.63 z m 12.5600002,19.861 c 0.452,0.229 1.009,0.341 1.312,0.787 0.308,0.433 0.441,1.108 0.047,1.531 -0.358,0.37 -0.913,0.243 -1.369,0.232 -0.538,0.102 -1.051,0.313 -1.529,0.579 0.619,0.659 1.582,1 2.473,0.804 1.283,-0.302 2.132,-1.803 1.714,-3.056 -0.354,-1.024 -1.754,-1.491 -2.649,-0.877 z m -2.071,1.205 c -0.161,0.401 -0.078,0.848 0.038,1.251 0.798,-0.535 1.707,-0.901 2.657,-1.051 -0.437,-0.471 -1.047,-0.862 -1.715,-0.81 -0.392,0.038 -0.827,0.221 -0.981,0.61 z"
     id="path4" />
</svg>
