<?xml version="1.0" encoding="UTF-8" standalone="no"?>
<svg
   version="1.1"
   width="27.542"
   height="27.542"
   viewBox="0 0 27.542 27.542"
   id="svg4"
   xmlns="http://www.w3.org/2000/svg"
   xmlns:svg="http://www.w3.org/2000/svg">
  <defs>
    <!-- This is the gradient that will actually be used on
     the cards. The colors themselves will be provided by the
     template, but the x values, y values, and offsets will be
     used from the SVG. -->
    <linearGradient id="rarity" x1="0" y1="1" x2="1" y2="0">
      <stop offset="0" style="stop-color:rgb(192,55,38);stop-opacity:1" id="stop2" />
      <stop offset="0.125" style="stop-color:rgb(192,55,38);stop-opacity:1" id="stop4" />
      <stop offset="0.5" style="stop-color:rgb(241,142,30);stop-opacity:1" id="stop6" />
      <stop offset="0.875" style="stop-color:rgb(192,55,38);stop-opacity:1" id="stop8" />
      <stop offset="1" style="stop-color:rgb(192,55,38);stop-opacity:1" id="stop10" />
    </linearGradient>
    <!-- These gradients are here so that you can visualize
     what the set symbol would like like in that rarity. The
     only gradient that matters in the end is the "rarity"
     gradient. -->
    <linearGradient id="mythic" x1="0" y1="1" x2="1" y2="0">
      <stop offset="0" style="stop-color:rgb(192,55,38);stop-opacity:1"/>
      <stop offset="0.125" style="stop-color:rgb(192,55,38);stop-opacity:1"/>
      <stop offset="0.5" style="stop-color:rgb(241,142,30);stop-opacity:1"/>
      <stop offset="0.875" style="stop-color:rgb(192,55,38);stop-opacity:1"/>
      <stop offset="1" style="stop-color:rgb(192,55,38);stop-opacity:1"/>
    </linearGradient>
    <linearGradient id="rare" x1="0" y1="1" x2="1" y2="0">
      <stop offset="0" style="stop-color:rgb(146,116,67);stop-opacity:1"/>
      <stop offset="0.125" style="stop-color:rgb(146,116,67);stop-opacity:1"/>
      <stop offset="0.5" style="stop-color:rgb(211,178,108);stop-opacity:1"/>
      <stop offset="0.875" style="stop-color:rgb(146,116,67);stop-opacity:1"/>
      <stop offset="1" style="stop-color:rgb(146,116,67);stop-opacity:1"/>
    </linearGradient>
    <linearGradient id="special" x1="0" y1="1" x2="1" y2="0">
      <stop offset="0" style="stop-color:rgb(76, 56, 106);stop-opacity:1"/>
      <stop offset="0.125" style="stop-color:rgb(76, 56, 106);stop-opacity:1"/>
      <stop offset="0.5" style="stop-color:rgb(201, 173, 221);stop-opacity:1"/>
      <stop offset="0.875" style="stop-color:rgb(76, 56, 106);stop-opacity:1"/>
      <stop offset="1" style="stop-color:rgb(76, 56, 106);stop-opacity:1"/>
    </linearGradient>
    <linearGradient id="uncommon" x1="0" y1="1" x2="1" y2="0">
      <stop offset="0" style="stop-color:rgb(98,110,119);stop-opacity:1"/>
      <stop offset="0.125" style="stop-color:rgb(98,110,119);stop-opacity:1"/>
      <stop offset="0.5" style="stop-color:rgb(196,222,238);stop-opacity:1"/>
      <stop offset="0.875" style="stop-color:rgb(98,110,119);stop-opacity:1"/>
      <stop offset="1" style="stop-color:rgb(98,110,119);stop-opacity:1"/>
    </linearGradient>
    <linearGradient id="common" x1="0" y1="1" x2="1" y2="0">
      <stop offset="0" style="stop-color:rgb(0,0,0);stop-opacity:1"/>
    </linearGradient>
    <linearGradient
            id="rarity-outline" x1="0" y1="1" x2="0" y2="1">
      <stop offset="0" style="stop-color:rgb(0,0,0);stop-opacity:1"/>
    </linearGradient>
  </defs>
  <path fill="url(#rarity-outline)"
     transform="scale(1,-1)"
     d="M 27.58927,-13.72373 A 13.771,13.771 0 0 1 13.81827,0.04726982 13.771,13.771 0 0 1 0.04726982,-13.72373 13.771,13.771 0 0 1 13.81827,-27.49473 a 13.771,13.771 0 0 1 13.771,13.771 z" />
  <path fill="url(#rarity)"
     d="M 13.818359 2.0800781 A 11.643861 11.643861 0 0 0 2.1738281 13.724609 A 11.643861 11.643861 0 0 0 7.3046875 23.355469 C 6.9560001 22.931215 6.84375 22.501953 6.84375 22.501953 C 6.24175 19.144953 9.1160314 18.85575 12.707031 20.34375 C 13.050031 20.48575 11.572813 16.877437 5.8828125 16.898438 C 5.0908125 16.901437 6.8872652 12.108437 15.822266 15.773438 C 16.516266 15.773436 12.582828 11.876859 7.4238281 11.630859 C 6.2318281 11.574859 11.05075 8.102563 20.59375 13.226562 C 21.06375 13.479562 17.064922 8.0708437 11.544922 6.9648438 C 10.423922 6.7398437 14.302625 4.1926875 21.390625 8.1796875 C 22.372625 8.7326875 19.218672 4.722375 18.013672 4.109375 C 17.670172 3.934625 17.624984 3.8522344 17.773438 3.8417969 C 18.218796 3.8104844 20.395406 4.4225 21.410156 5.09375 C 21.860883 5.3917665 22.274328 5.7464177 22.654297 6.1425781 A 11.643861 11.643861 0 0 0 13.818359 2.0800781 z " />
</svg>
