<?xml version="1.0" encoding="UTF-8" standalone="no"?>
<!-- Generated by IcoMoon.io -->

<svg
   version="1.1"
   width="27.542"
   height="27.542"
   viewBox="0 0 27.542 27.542"
   id="svg6"
   sodipodi:docname="v17.svg"
   inkscape:version="1.1.1 (3bf5ae0d25, 2021-09-20)"
   xmlns:inkscape="http://www.inkscape.org/namespaces/inkscape"
   xmlns:sodipodi="http://sodipodi.sourceforge.net/DTD/sodipodi-0.dtd"
   xmlns="http://www.w3.org/2000/svg"
   xmlns:svg="http://www.w3.org/2000/svg">
  <defs
     id="defs10" />
  <sodipodi:namedview
     id="namedview8"
     pagecolor="#ffffff"
     bordercolor="#666666"
     borderopacity="1.0"
     inkscape:pageshadow="2"
     inkscape:pageopacity="0.0"
     inkscape:pagecheckerboard="0"
     showgrid="false"
     inkscape:zoom="26.5625"
     inkscape:cx="14.023529"
     inkscape:cy="13.76"
     inkscape:window-width="1920"
     inkscape:window-height="1009"
     inkscape:window-x="-8"
     inkscape:window-y="-8"
     inkscape:window-maximized="1"
     inkscape:current-layer="svg6" />
  <title
     id="title2">v17</title>
  <path
     fill="#000000"
     d="m 13.771,0 c 7.606,0 13.771,6.165 13.771,13.771 0,7.606 -6.165,13.771 -13.771,13.771 C 6.165,27.542 0,21.377 0,13.771 0,6.165 6.165,0 13.771,0 Z m 4.242,4.11 c 1.205,0.613 4.359,4.623 3.377,4.07 -7.088,-3.987 -10.967,-1.44 -9.846,-1.215 5.52,1.106 9.519,6.514 9.049,6.261 C 11.05,8.102 6.231,11.575 7.423,11.631 c 5.159,0.246 9.094,4.143 8.4,4.143 -8.935,-3.665 -10.733,1.127 -9.941,1.124 5.69,-0.021 7.168,3.588 6.825,3.446 -3.591,-1.488 -6.466,-1.2 -5.864,2.157 0,0 0.148,0.567 0.632,1.041 1.007,0.985 3.625,1.933 6.297,1.933 6.465,0 11.705,-5.24 11.705,-11.705 0,-3.386 -1.448,-6.946 -4.066,-8.677 C 20.058,4.198 16.639,3.41 18.013,4.109 Z"
     id="path4" />
</svg>
