<?xml version="1.0" encoding="UTF-8" standalone="no"?>
<!-- Generated by IcoMoon.io -->

<svg
   version="1.1"
   width="31.662931"
   height="16.301001"
   viewBox="0 0 31.662931 16.301001"
   id="svg6"
   sodipodi:docname="w17.svg"
   inkscape:version="1.1.1 (3bf5ae0d25, 2021-09-20)"
   xmlns:inkscape="http://www.inkscape.org/namespaces/inkscape"
   xmlns:sodipodi="http://sodipodi.sourceforge.net/DTD/sodipodi-0.dtd"
   xmlns="http://www.w3.org/2000/svg"
   xmlns:svg="http://www.w3.org/2000/svg">
  <defs
     id="defs10" />
  <sodipodi:namedview
     id="namedview8"
     pagecolor="#ffffff"
     bordercolor="#666666"
     borderopacity="1.0"
     inkscape:pageshadow="2"
     inkscape:pageopacity="0.0"
     inkscape:pagecheckerboard="0"
     showgrid="false"
     inkscape:zoom="25.75"
     inkscape:cx="15.825243"
     inkscape:cy="8.1359223"
     inkscape:window-width="1920"
     inkscape:window-height="1009"
     inkscape:window-x="-8"
     inkscape:window-y="-8"
     inkscape:window-maximized="1"
     inkscape:current-layer="svg6" />
  <title
     id="title2">w17</title>
  <path
     fill="#000000"
     d="M 8.9450794,0.007 C 24.968079,0.005 18.101079,0.002 29.546079,0.01 c 1.589,3.223 2.56,6.918 1.915,10.512 -0.364,2 -0.988,3.958 -1.915,5.769 -9.157,0.013 -18.312,-0.008 -27.4689996,0.01 C 0.38207941,12.893 -0.51092059,8.929 0.30707941,5.155 0.69407941,3.377 1.2200794,1.612 2.0770794,0 l 6.867,0.007 z m 2.7929996,0.98 C 8.7250794,0.988 5.7120794,1.002 2.6990794,1.013 c -0.643,1.517 -1.257,3.065 -1.499,4.706 -0.54399999,3.259 0.101,6.603 1.499,9.567 8.7569996,0.041 17.5139996,0.039 26.2709996,0.003 0.735,-1.716 1.409,-3.488 1.589,-5.359 0.387,-3.06 -0.292,-6.149 -1.587,-8.92 l -6.569,-0.021 c -3.555,0.001 -7.111,-0.002 -10.666,-0.003 z m 6.948,0.952 c 1.237,0.006 1.366,-0.008 2.602,0.057 0.217,0.011 0.433,0.035 0.65,0.052 -4.136,0.557 -8.128,2 -11.75,4.061 0.245,-1.177 0.645,-2.32 0.787,-3.517 -0.279,0.178 -0.516,0.41 -0.653,0.715 -0.5679996,1.086 -1.0839996,2.196 -1.6509996,3.279 -0.962,-1.151 -1.535,-2.676 -2.779,-3.55 0.356,1.383 1.004,2.663 1.465,4.01 -1.587,-0.374 -3.117,-0.98 -4.727,-1.249 1.226,1.112 2.892,1.561 4.288,2.423 -1.453,0.944 -3.052,1.698 -4.34,2.867 1.7,-0.335 3.246,-1.174 4.892,-1.687 -0.431,1.551 -1.125,3.021 -1.463,4.598 1.28,-1.135 1.829,-2.872 2.771,-4.275 1.068,1.233 1.7649996,2.836 3.1089996,3.801 -0.472,-1.455 -1.295,-2.758 -1.8909996,-4.159 1.7109996,0.552 3.3129996,1.414 5.0619996,1.842 -1.239,-1.213 -2.962,-1.778 -4.373,-2.771 1.556,-0.531 3.261,-0.622 4.74,-1.362 -1.293,-0.204 -2.601,0.021 -3.899,0.018 3.011,-1.775 6.259,-3.189 9.668,-3.994 2.397,-0.547 4.882,-0.864 7.333,-0.537 1.61,3.733 1.473,8.11 -0.23,11.784 -8.319,0.028 -16.64,0.015 -24.9609996,0.008 -1.78,-3.891 -1.762,-8.509 0.031,-12.39 4.456,-0.041 8.9089996,-0.005 13.3649996,-0.018 1.084,0.005 0.434,0.004 1.952,-0.003 z m 9.149,1.774 h -5.685 v 2.921 h 0.049 q 0.467,-1.618 1.8,-1.618 h 2.533 l -3.564,7.661 0.024,0.036 q 0.8,-0.309 2.012,-0.309 l 2.842,-8.649 -0.012,-0.042 z m -7.593,0.017 c -1.029,0.753 -2.162,1.342 -3.349,1.798 0.503,0.028 1.009,0.039 1.515,0.052 0.003,2.152 0.008,4.301 -0.003,6.451 -0.503,0.196 -1.009,0.395 -1.494,0.63 1.584,0.054 3.171,-0.013 4.758,0.049 -0.648,-0.384 -1.45,-0.836 -1.396,-1.716 -0.064,-2.42 0.005,-4.843 -0.031,-7.263 z"
     id="path4" />
</svg>
