<?xml version="1.0" encoding="UTF-8" standalone="no"?>
<svg
   version="1.1"
   width="28.244814"
   height="35.521496"
   viewBox="0 0 28.244814 35.521495"
   id="svg4"
   xmlns="http://www.w3.org/2000/svg"
   xmlns:svg="http://www.w3.org/2000/svg">
  <defs>
    <!-- This is the gradient that will actually be used on
     the cards. The colors themselves will be provided by the
     template, but the x values, y values, and offsets will be
     used from the SVG. -->
    <linearGradient id="rarity" x1="0" y1="0" x2="1" y2="0">
      <stop offset="0" style="stop-color:rgb(192,55,38);stop-opacity:1" id="stop2" />
      <stop offset="0.125" style="stop-color:rgb(192,55,38);stop-opacity:1" id="stop4" />
      <stop offset="0.5" style="stop-color:rgb(241,142,30);stop-opacity:1" id="stop6" />
      <stop offset="0.875" style="stop-color:rgb(192,55,38);stop-opacity:1" id="stop8" />
      <stop offset="1" style="stop-color:rgb(192,55,38);stop-opacity:1" id="stop10" />
    </linearGradient>
    <!-- These gradients are here so that you can visualize
     what the set symbol would like like in that rarity. The
     only gradient that matters in the end is the "rarity"
     gradient. -->
    <linearGradient id="mythic" x1="0" y1="1" x2="1" y2="0">
      <stop offset="0" style="stop-color:rgb(192,55,38);stop-opacity:1"/>
      <stop offset="0.125" style="stop-color:rgb(192,55,38);stop-opacity:1"/>
      <stop offset="0.5" style="stop-color:rgb(241,142,30);stop-opacity:1"/>
      <stop offset="0.875" style="stop-color:rgb(192,55,38);stop-opacity:1"/>
      <stop offset="1" style="stop-color:rgb(192,55,38);stop-opacity:1"/>
    </linearGradient>
    <linearGradient id="rare" x1="0" y1="1" x2="1" y2="0">
      <stop offset="0" style="stop-color:rgb(146,116,67);stop-opacity:1"/>
      <stop offset="0.125" style="stop-color:rgb(146,116,67);stop-opacity:1"/>
      <stop offset="0.5" style="stop-color:rgb(211,178,108);stop-opacity:1"/>
      <stop offset="0.875" style="stop-color:rgb(146,116,67);stop-opacity:1"/>
      <stop offset="1" style="stop-color:rgb(146,116,67);stop-opacity:1"/>
    </linearGradient>
    <linearGradient id="special" x1="0" y1="1" x2="1" y2="0">
      <stop offset="0" style="stop-color:rgb(76, 56, 106);stop-opacity:1"/>
      <stop offset="0.125" style="stop-color:rgb(76, 56, 106);stop-opacity:1"/>
      <stop offset="0.5" style="stop-color:rgb(201, 173, 221);stop-opacity:1"/>
      <stop offset="0.875" style="stop-color:rgb(76, 56, 106);stop-opacity:1"/>
      <stop offset="1" style="stop-color:rgb(76, 56, 106);stop-opacity:1"/>
    </linearGradient>
    <linearGradient id="uncommon" x1="0" y1="1" x2="1" y2="0">
      <stop offset="0" style="stop-color:rgb(98,110,119);stop-opacity:1"/>
      <stop offset="0.125" style="stop-color:rgb(98,110,119);stop-opacity:1"/>
      <stop offset="0.5" style="stop-color:rgb(196,222,238);stop-opacity:1"/>
      <stop offset="0.875" style="stop-color:rgb(98,110,119);stop-opacity:1"/>
      <stop offset="1" style="stop-color:rgb(98,110,119);stop-opacity:1"/>
    </linearGradient>
    <linearGradient id="common" x1="0" y1="1" x2="1" y2="0">
      <stop offset="0" style="stop-color:rgb(0,0,0);stop-opacity:1"/>
    </linearGradient>
    <linearGradient
            id="rarity-outline" x1="0" y1="1" x2="0" y2="1">
      <stop offset="0" style="stop-color:rgb(0,0,0);stop-opacity:1"/>
    </linearGradient>
  </defs>
  <path fill="url(#rarity-outline)" d="M 14.192045,4.178007e-7 C 13.780947,7.875178e-4 13.638896,1.1022921 13.638896,1.1022921 L 11.778115,14.779 10.808957,14.999 8.5122209,3.4666186 c 0,0 -0.2875118,-0.6067134 -0.5565038,-0.5872898 C 7.6782574,2.8993638 7.474681,3.5612907 7.474681,3.5612907 L 5.485014,16.07024 3.1783973,7.8883978 c 0,0 -0.3037787,-0.6044463 -0.5742427,-0.5784993 -0.272473,0.02614 -0.4571549,0.6821531 -0.4571549,0.6821531 -1.16180084,5.4085214 -1.80968794,8.7422994 -2.01159516,10.7988914 -0.28521598,2.905161 -0.03125,4.341797 -0.03125,4.341797 1.40922576,-3.154568 0.030584,-2.198048 0,0 0,1.791642 1.09306096,3.038165 2.10156256,3.761719 0.5042507,0.361777 0.9971256,0.611606 1.3730469,0.775391 0.1879605,0.08189 0.3456506,0.142483 0.4628906,0.183593 0.05862,0.02056 0.1078164,0.03689 0.1464844,0.04883 0.019334,0.006 0.034284,0.01053 0.052734,0.01563 0.00716,0.002 0.017047,0.0033 0.027344,0.0059 0.00413,0.0011 -0.03803,-0.01068 0.015625,0.0098 0.053654,0.02042 0.1335299,0.05232 0.2363281,0.09375 0.2055963,0.08287 0.5021667,0.206542 0.8632812,0.36914 0.7222294,0.325197 1.7038321,0.806545 2.7460938,1.423828 2.0845229,1.234568 4.3827129,3.037323 5.3691409,5.09961 0,0 0.377404,0.602238 0.679687,0.601562 0.302283,-6.75e-4 0.675781,-0.603515 0.675781,-0.603515 0.978554,-2.068368 3.273288,-3.867319 5.359375,-5.097657 2.05997,-1.214934 3.888323,-1.894458 3.966797,-1.927734 0.0023,-7.84e-4 0.0073,-0.0031 0.0098,-0.0039 0.03127,-0.01055 0.07241,-0.02396 0.125,-0.04297 0.113538,-0.04105 0.271915,-0.101676 0.458984,-0.183594 0.374139,-0.163835 0.866966,-0.412874 1.371094,-0.773437 1.006946,-0.720191 2.096776,-1.962109 2.099609,-3.75 -1.267007,-5.418203 -0.03377,1.211548 0,0 0,-1.397907 -0.0066,-2.891076 -0.18799,-4.50368 C 27.550304,14.131229 26.473295,9.4882095 26.473295,9.4882095 L 26.175746,7.9412893 c 0,0 -0.154885,-0.5978588 -0.399717,-0.6196721 -0.286905,-0.025562 -0.589403,0.631913 -0.589403,0.631913 L 22.899076,16.066334 20.928352,3.6900626 c 0,0 -0.188431,-0.769887 -0.498026,-0.7853431 -0.31757,-0.015854 -0.588549,0.750687 -0.588549,0.750687 L 17.683218,14.999 16.609851,14.779 14.744123,1.0897287 c 0,0 -0.14488,-1.0905078822 -0.552078,-1.0897282821993 z" />
  <path fill="url(#rarity)" d="m 4.5865452,16.049631 0.1,-0.05 -1.941,-6.8849996 -1.87500004,9.8209996 -0.116,0.581 0.33200004,-0.481 c 0.017,-0.017 1.46,-2.09 3.5,-2.986 z m 17.6509998,0.647 c 0.564,0.365 5.292,3.368 5.259,6.437 0,2.986 -3.567,4.048 -3.6,4.064 -0.066,0.033 -7.531,2.77 -9.721,7.399 -2.206,-4.612 -9.6549998,-7.382 -9.7209998,-7.399 -0.033,0 -3.60000004,-1.078 -3.60000004,-4.064 0,-3.069 4.71100004,-6.088 5.29200004,-6.436 l 1.875,-11.7949996 2.5549998,13.4539996 -0.083,0.05 c -2.3719998,0.68 -4.6949998,2.82 -4.7109998,4.313 0,0.647 0.415,1.095 1.244,1.344 3.6159998,1.078 6.6349998,3.733 7.1829998,4.214 0.547,-0.498 3.55,-3.119 7.183,-4.213 0.829,-0.249 1.244,-0.697 1.244,-1.344 -0.017,-1.493 -2.339,-3.633 -4.711,-4.313 l -0.116,-0.033 0.017,-0.116 2.538,-13.3379996 1.875,11.7779996 z m -13.2709998,4.744 -0.182,-0.083 3.2179998,-2.687 2.19,-16.0749996 2.19,16.0749996 3.202,2.687 -0.166,0.083 c -3.401,1.659 -5.093,5.176 -5.109,5.209 l -0.116,0.232 -0.116,-0.232 c -0.017,-0.033 -1.692,-3.55 -5.1099998,-5.209 z m 18.3309998,-2.405 c -0.017,-0.017 -1.46,-2.09 -3.5,-2.986 l -0.1,-0.05 1.941,-6.8849996 0.099,0.514 1.891,9.8869996 -0.332,-0.481 z"/>
</svg>
