<?xml version="1.0" encoding="UTF-8" standalone="no"?>
<!-- Generated by IcoMoon.io -->

<svg
   version="1.1"
   width="26.874001"
   height="32.000999"
   viewBox="0 0 26.874001 32.000999"
   id="svg6"
   sodipodi:docname="war.svg"
   inkscape:version="1.1.1 (3bf5ae0d25, 2021-09-20)"
   xmlns:inkscape="http://www.inkscape.org/namespaces/inkscape"
   xmlns:sodipodi="http://sodipodi.sourceforge.net/DTD/sodipodi-0.dtd"
   xmlns="http://www.w3.org/2000/svg"
   xmlns:svg="http://www.w3.org/2000/svg">
  <defs
     id="defs10" />
  <sodipodi:namedview
     id="namedview8"
     pagecolor="#ffffff"
     bordercolor="#666666"
     borderopacity="1.0"
     inkscape:pageshadow="2"
     inkscape:pageopacity="0.0"
     inkscape:pagecheckerboard="0"
     showgrid="false"
     inkscape:zoom="25.75"
     inkscape:cx="13.495146"
     inkscape:cy="15.980583"
     inkscape:window-width="1920"
     inkscape:window-height="1009"
     inkscape:window-x="-8"
     inkscape:window-y="-8"
     inkscape:window-maximized="1"
     inkscape:current-layer="svg6" />
  <title
     id="title2">war</title>
  <path
     fill="#000000"
     d="m 3.832,13.454 0.1,-0.05 L 1.991,6.519 0.116,16.34 0,16.921 0.332,16.44 c 0.017,-0.017 1.46,-2.09 3.5,-2.986 z m 17.651,0.647 c 0.564,0.365 5.292,3.368 5.259,6.437 0,2.986 -3.567,4.048 -3.6,4.064 -0.066,0.033 -7.531,2.77 -9.721,7.399 -2.206,-4.612 -9.655,-7.382 -9.721,-7.399 -0.033,0 -3.6,-1.078 -3.6,-4.064 0,-3.069 4.711,-6.088 5.292,-6.436 L 7.267,2.307 9.822,15.761 9.739,15.811 c -2.372,0.68 -4.695,2.82 -4.711,4.313 0,0.647 0.415,1.095 1.244,1.344 3.616,1.078 6.635,3.733 7.183,4.214 0.547,-0.498 3.55,-3.119 7.183,-4.213 0.829,-0.249 1.244,-0.697 1.244,-1.344 -0.017,-1.493 -2.339,-3.633 -4.711,-4.313 L 17.055,15.779 17.072,15.663 19.61,2.325 21.485,14.103 Z M 8.212,18.845 8.03,18.762 11.248,16.075 13.438,0 l 2.19,16.075 3.202,2.687 -0.166,0.083 c -3.401,1.659 -5.093,5.176 -5.109,5.209 l -0.116,0.232 -0.116,-0.232 c -0.017,-0.033 -1.692,-3.55 -5.11,-5.209 z M 26.543,16.44 c -0.017,-0.017 -1.46,-2.09 -3.5,-2.986 l -0.1,-0.05 1.941,-6.885 0.099,0.514 1.891,9.887 -0.332,-0.481 z"
     id="path4" />
</svg>
