<?xml version="1.0" encoding="UTF-8" standalone="no"?>
<!-- Generated by IcoMoon.io -->

<svg
   version="1.1"
   width="31.973"
   height="20.805"
   viewBox="0 0 31.973 20.805"
   id="svg6"
   sodipodi:docname="wth.svg"
   inkscape:version="1.1.1 (3bf5ae0d25, 2021-09-20)"
   xmlns:inkscape="http://www.inkscape.org/namespaces/inkscape"
   xmlns:sodipodi="http://sodipodi.sourceforge.net/DTD/sodipodi-0.dtd"
   xmlns="http://www.w3.org/2000/svg"
   xmlns:svg="http://www.w3.org/2000/svg">
  <defs
     id="defs10" />
  <sodipodi:namedview
     id="namedview8"
     pagecolor="#ffffff"
     bordercolor="#666666"
     borderopacity="1.0"
     inkscape:pageshadow="2"
     inkscape:pageopacity="0.0"
     inkscape:pagecheckerboard="0"
     showgrid="false"
     inkscape:zoom="181.01934"
     inkscape:cx="9.493461"
     inkscape:cy="0.67119901"
     inkscape:window-width="1920"
     inkscape:window-height="1009"
     inkscape:window-x="-8"
     inkscape:window-y="-8"
     inkscape:window-maximized="1"
     inkscape:current-layer="svg6" />
  <title
     id="title2">wth</title>
  <path
     fill="#000000"
     d="m 28.263893,5.7157074 -1.154015,-0.007 -0.64301,-0.285004 -0.062,-0.216003 -0.835011,-0.393005 -0.266003,-0.844011 c 0,0 -0.580008,0.324004 -1.422019,0.583007 -0.84201,0.259004 -2.072027,-0.518006 -3.82005,-0.518006 -1.746023,0 -3.75305,0.518006 -3.75305,0.518006 -0.840012,-2.33103 -1.811024,-2.201029 -4.272057,-1.683022 -2.1900559,0.461722 -2.9945023,-2.213249 -3.1434642,-2.800013 -0.00936,-0.02346 -0.024108,-0.03347 -0.045443,-0.03032 l -0.7581446,3.283342 -0.9380125,-0.808011 -0.2850038,1.208017 -0.6530086,0.228002 -0.060001,0.192003 -0.5880079,0.211003 -0.045001,0.160002 -0.6470086,0.259003 -0.1780024,0.75101 H 3.623566 L -0.00248213,19.437889 H 13.071691 c 0,0 -0.098,1.326019 2.573034,1.326019 2.669036,0 2.799038,-1.196017 2.799038,-1.196017 H 31.970942 L 28.260893,5.7167074 Z"
     id="path4"
     sodipodi:nodetypes="ccccccssccccccccccccccccscccc"/>
</svg>
