<?xml version="1.0" encoding="UTF-8" standalone="no"?>
<!-- Generated by IcoMoon.io -->

<svg
   version="1.1"
   width="28"
   height="28"
   viewBox="0 0 28 28"
   id="svg6"
   sodipodi:docname="x1e.svg"
   inkscape:version="1.1.1 (3bf5ae0d25, 2021-09-20)"
   xmlns:inkscape="http://www.inkscape.org/namespaces/inkscape"
   xmlns:sodipodi="http://sodipodi.sourceforge.net/DTD/sodipodi-0.dtd"
   xmlns="http://www.w3.org/2000/svg"
   xmlns:svg="http://www.w3.org/2000/svg">
  <defs
     id="defs10" />
  <sodipodi:namedview
     id="namedview8"
     pagecolor="#ffffff"
     bordercolor="#666666"
     borderopacity="1.0"
     inkscape:pageshadow="2"
     inkscape:pageopacity="0.0"
     inkscape:pagecheckerboard="0"
     showgrid="false"
     inkscape:zoom="25.75"
     inkscape:cx="14"
     inkscape:cy="13.961165"
     inkscape:window-width="1920"
     inkscape:window-height="1009"
     inkscape:window-x="-8"
     inkscape:window-y="-8"
     inkscape:window-maximized="1"
     inkscape:current-layer="svg6" />
  <title
     id="title2">x1e</title>
  <path
     fill="#000000"
     d="M 28,0 V 28 H 0 V 0 Z M 6.802,4.934 c 0,0.108 0,0.325 0,0.435 1.488,0.683 3.186,0.489 4.775,0.681 -0.778,2.759 -1.536,5.525 -2.395,8.258 -0.646,2.072 -0.971,4.25 -1.794,6.263 -0.489,0.433 -1.342,0.185 -1.738,0.784 0.939,0.398 1.964,-0.052 2.944,-0.006 0.87,-0.142 1.826,0.101 2.645,-0.259 -0.351,-0.834 -1.699,0.177 -2.109,-0.717 -0.304,-1.975 0.452,-3.92 0.887,-5.822 2.283,-0.743 4.71,-0.881 7.082,-1.133 0.401,2.257 0.786,4.519 1.185,6.776 -0.605,0.483 -1.4,0.493 -2.119,0.676 0.041,0.121 0.121,0.362 0.162,0.483 2.193,-0.155 4.394,-0.392 6.589,-0.11 0.022,-0.202 0.032,-0.405 0.03,-0.61 C 22.384,20.54 21.794,20.536 21.262,20.314 20.954,20.077 20.842,19.681 20.711,19.332 20.2,17.738 19.964,16.077 19.61,14.447 19.046,11.578 18.511,8.698 18.128,5.799 18.727,5.474 19.517,5.631 20.023,5.146 19.913,5.101 19.694,5.015 19.581,4.969 18.009,5.012 16.451,5.307 14.877,5.32 12.183,5.352 9.464,5.417 6.802,4.932 Z m 8.118,1.092 0.874,0.011 c 0.422,2.022 0.618,4.088 1.081,6.104 -2.083,0.159 -4.165,0.383 -6.259,0.291 0.56,-2.122 1.116,-4.245 1.682,-6.367 1.457,-0.014 0.583,-0.004 2.622,-0.039 z"
     id="path4" />
</svg>
