<?xml version="1.0" encoding="UTF-8" standalone="no"?>
<!-- Generated by IcoMoon.io -->

<svg
   version="1.1"
   width="28"
   height="27.139"
   viewBox="0 0 28 27.139"
   id="svg6"
   sodipodi:docname="x3e.svg"
   inkscape:version="1.1.1 (3bf5ae0d25, 2021-09-20)"
   xmlns:inkscape="http://www.inkscape.org/namespaces/inkscape"
   xmlns:sodipodi="http://sodipodi.sourceforge.net/DTD/sodipodi-0.dtd"
   xmlns="http://www.w3.org/2000/svg"
   xmlns:svg="http://www.w3.org/2000/svg">
  <defs
     id="defs10" />
  <sodipodi:namedview
     id="namedview8"
     pagecolor="#ffffff"
     bordercolor="#666666"
     borderopacity="1.0"
     inkscape:pageshadow="2"
     inkscape:pageopacity="0.0"
     inkscape:pagecheckerboard="0"
     showgrid="false"
     inkscape:zoom="25.75"
     inkscape:cx="14"
     inkscape:cy="13.533981"
     inkscape:window-width="1920"
     inkscape:window-height="1009"
     inkscape:window-x="-8"
     inkscape:window-y="-8"
     inkscape:window-maximized="1"
     inkscape:current-layer="svg6" />
  <title
     id="title2">x3e</title>
  <path
     fill="#000000"
     d="M 28,0 V 27.139 H 0 V 0 Z M 15.458,4.537 C 13.973,4.648 14.601,4.546 13.563,4.762 12.671,4.984 11.986,5.619 11.228,6.093 9.613,6.517 7.999,5.802 6.393,5.725 c 0.028,0.112 0.088,0.336 0.116,0.45 0.668,0.394 1.559,0.179 2.208,0.635 0.31,0.383 0.336,0.909 0.422,1.376 0.336,3.14 0.327,6.309 0.228,9.464 -0.125,0.793 -0.004,1.74 -0.513,2.404 -0.694,0.258 -1.462,0.088 -2.184,0.194 -0.377,0.224 -0.185,0.687 0.233,0.622 2.718,-0.287 5.454,-0.099 8.18,-0.129 0.332,0.017 0.474,-0.157 0.431,-0.519 -1.06,-0.196 -2.178,0.138 -3.201,-0.263 -0.491,-0.172 -0.711,-0.709 -0.676,-1.198 0.011,-1.786 -0.084,-3.584 0.131,-5.361 1.135,0.015 2.249,0.476 3.028,1.31 1.437,1.488 2.423,3.334 3.636,4.995 0.42,0.569 1.042,1.06 1.79,0.999 1.083,-0.054 2.201,0.069 3.259,-0.209 -0.047,-0.125 -0.14,-0.37 -0.187,-0.495 -0.698,0.004 -1.534,0.013 -1.982,-0.627 -1.549,-2.025 -2.761,-4.31 -4.508,-6.179 0.616,-0.14 1.251,-0.287 1.779,-0.657 1.424,-0.92 2.126,-2.759 1.786,-4.407 C 20.175,7.001 19.467,5.985 18.491,5.386 17.418,4.714 16.7,4.675 15.458,4.536 Z m -1.081,1.381 c 1.248,0.113 2.292,0.707 2.893,1.82 0.562,1.215 0.666,2.819 -0.213,3.911 -1.073,1.307 -3.158,1.4 -4.551,0.592 C 11.313,11.448 11.56,9.846 11.539,8.612 11.485,7.656 11.767,6.486 12.775,6.131 13.331,5.916 13.795,5.923 14.377,5.918 Z"
     id="path4" />
</svg>
