<?xml version="1.0" encoding="UTF-8" standalone="no"?>
<!-- Generated by IcoMoon.io -->

<svg
   version="1.1"
   width="31.8636"
   height="27.065001"
   viewBox="0 0 31.8636 27.065001"
   id="svg6"
   sodipodi:docname="xduels.svg"
   inkscape:version="1.1.1 (3bf5ae0d25, 2021-09-20)"
   xmlns:inkscape="http://www.inkscape.org/namespaces/inkscape"
   xmlns:sodipodi="http://sodipodi.sourceforge.net/DTD/sodipodi-0.dtd"
   xmlns="http://www.w3.org/2000/svg"
   xmlns:svg="http://www.w3.org/2000/svg">
  <defs
     id="defs10" />
  <sodipodi:namedview
     id="namedview8"
     pagecolor="#ffffff"
     bordercolor="#666666"
     borderopacity="1.0"
     inkscape:pageshadow="2"
     inkscape:pageopacity="0.0"
     inkscape:pagecheckerboard="0"
     showgrid="false"
     inkscape:zoom="25.75"
     inkscape:cx="15.902913"
     inkscape:cy="13.495146"
     inkscape:window-width="1920"
     inkscape:window-height="1009"
     inkscape:window-x="-8"
     inkscape:window-y="-8"
     inkscape:window-maximized="1"
     inkscape:current-layer="svg6" />
  <title
     id="title2">xduels</title>
  <path
     fill="#000000"
     d="m 29.222229,0 c 0,0 2.733,8.023 2.639,13.338 0.025,5.83 -2.706,13.717 -2.706,13.717 l -26.4430005,0.01 c 0,0 -2.741,-6.344 -2.71199999569,-13.202 C 0.0292285,7.005 2.6482285,0.011 2.6482285,0.011 L 29.223229,10e-4 Z m -1.125,1.543 -24.3480005,0.01 -0.046,0.143 c -0.3,0.933 -0.601,1.972 -0.882,3.089 -0.753,2.991 -1.222,5.965 -1.273,8.714 -0.002,0.124 -0.004,0.247 -0.004,0.37 -0.012,2.855 0.476,5.851 1.299,8.789 0.285,1.019 0.591,1.957 0.896,2.789 l 0.028,0.075 24.2690005,-0.01 0.069,-0.223 c 0.31,-1.005 0.62,-2.101 0.909,-3.247 0.448,-1.777 0.804,-3.509 1.031,-5.124 0.184,-1.31 0.279,-2.51 0.275,-3.573 v -0.017 -0.017 c 0.02,-1.153 -0.105,-2.535 -0.359,-4.092 -0.221,-1.357 -0.533,-2.806 -0.912,-4.298 -0.282,-1.113 -0.585,-2.185 -0.888,-3.174 l -0.062,-0.202 z m -13.524,1.763 v 10e-4 l 12.07,0.045 c 0,0 2.035,5.002 1.865,10.004 -0.21,6.186 -1.78,10.343 -1.78,10.343 L 5.0582285,23.681 c 0,0 -1.628,-5.059 -1.713,-10.315 -0.085,-5.256 2.078,-10.059 2.078,-10.059 h 9.1500005 z m 1.545,2.346 H 9.9302285 v 0.099 l 4.0340005,2.473 v 0.088 h -2.792 v 12.244 l -1.2420005,0.769 v 0.088 h 6.1880005 q 3.506,0 5.49,-2.061 1.984,-2.061 1.984,-5.82 0,-2.341 -0.896,-4.122 -0.896,-1.781 -2.594,-2.77 -1.698,-0.989 -3.984,-0.989 z m 0,1.472 q 1.934,0 2.847,1.522 0.913,1.522 0.912,4.885 0,3.242 -0.923,4.831 -0.923,1.589 -2.836,1.588 h -1.572 V 7.124 Z"
     id="path4" />
</svg>
