<?xml version="1.0" encoding="UTF-8" standalone="no"?>
<!-- Generated by IcoMoon.io -->

<svg
   version="1.1"
   width="27.497999"
   height="25.844999"
   viewBox="0 0 27.497999 25.844999"
   id="svg6"
   sodipodi:docname="xin4-border.svg"
   inkscape:version="1.1.1 (3bf5ae0d25, 2021-09-20)"
   xmlns:inkscape="http://www.inkscape.org/namespaces/inkscape"
   xmlns:sodipodi="http://sodipodi.sourceforge.net/DTD/sodipodi-0.dtd"
   xmlns="http://www.w3.org/2000/svg"
   xmlns:svg="http://www.w3.org/2000/svg">
  <defs
     id="defs10" />
  <sodipodi:namedview
     id="namedview8"
     pagecolor="#ffffff"
     bordercolor="#666666"
     borderopacity="1.0"
     inkscape:pageshadow="2"
     inkscape:pageopacity="0.0"
     inkscape:pagecheckerboard="0"
     showgrid="false"
     inkscape:zoom="25.75"
     inkscape:cx="14"
     inkscape:cy="12.912621"
     inkscape:window-width="1920"
     inkscape:window-height="1009"
     inkscape:window-x="-8"
     inkscape:window-y="-8"
     inkscape:window-maximized="1"
     inkscape:current-layer="svg6" />
  <title
     id="title2">xin4-border</title>
  <path
     fill="#000000"
     d="m 15.149,0 c 6.82,0 12.349,5.529 12.349,12.349 0,5.395 -3.46,9.982 -8.281,11.663 0.008,0.009 0.016,0.019 0.024,0.029 0.528,0.648 1.177,1.038 1.947,1.169 -2.838,1.028 -4.917,0.666 -6.238,-1.084 -0.6,0.365 -0.9,0.938 -0.9,1.719 -1.209,-0.563 -1.692,-1.775 -1.449,-3.638 0,0 -0.448,0.19 -1.749,1.489 -0.868,0.866 -2.156,1.178 -3.865,0.935 1.68,-0.772 2.549,-1.982 2.605,-3.632 C 8.264,21.282 8.795,21.48 7.045,22.732 5.878,23.566 4.457,23.754 2.78,23.295 3.994,22.546 4.575,21.676 4.525,20.683 3.575,21.292 2.679,21.397 1.839,21 c 0,0 0,0 0,0 l 0.007,-0.004 c 0.122,-0.061 1.66,-0.85 2.199,-2.058 0.371,-0.831 1.206,-1.264 2.506,-1.3 L 6.591,17.637 6.083,17.07 C 4.999,17.497 3.344,17.561 2.723,16.602 2.313,15.969 1.419,15.47 0.042,15.104 L 0,15.093 C 0.782,14.134 1.723,13.466 2.825,13.09 2.811,12.845 2.803,12.598 2.803,12.349 2.803,5.529 8.332,0 15.152,0 Z m 2.543,15.989 c -2.948,0.353 -5.254,1.606 -6.921,3.758 0.517,-0.261 1.12,-0.349 1.811,-0.261 -1.376,0.97 -2.053,2.007 -2.03,3.111 1.006,-1.086 2.21,-1.538 3.615,-1.356 -0.948,0.947 -1.13,2.046 -0.548,3.296 0.321,-0.966 0.84,-1.509 1.557,-1.628 0.517,1.408 1.684,2.053 3.501,1.933 -3.412,-2.797 -3.74,-5.748 -0.985,-8.853 z M 15.149,0.655 c -6.458,0 -11.694,5.235 -11.694,11.694 0,0.187 0.004,0.373 0.013,0.558 0.957,-0.218 2.021,-0.239 3.194,-0.062 0.358,-0.936 0.537,-1.404 0.537,-1.404 1.36,-1.32 2.646,-2.373 3.855,-3.156 0.74,-0.049 1.55,-0.049 2.431,0 2.015,-1.996 3.867,-3.453 5.558,-4.371 l 1.08,1.811 c 0.403,0.614 0.403,1.105 0,1.474 0.527,0.578 0.641,1.335 0.344,2.273 -0.144,-0.586 -0.468,-0.999 -0.972,-1.238 0.182,0.781 0.11,1.44 -0.218,1.978 -0.241,-0.63 -0.629,-1.059 -1.166,-1.286 0.085,1.315 -0.142,2.121 -0.68,2.417 -0.11,-0.305 -0.314,-0.504 -0.612,-0.595 -0.313,-0.051 -0.671,-0.029 -0.943,0.241 -0.78,0.757 -0.465,1.916 -0.03,2.191 0.382,0.306 0.852,0.366 1.408,0.18 0.528,-0.12 0.734,-0.787 0.764,-1.267 0.457,0.408 0.646,0.841 0.564,1.302 0.665,-0.41 1.023,-1.087 1.075,-2.03 0.37,0.389 0.482,0.906 0.335,1.551 0.635,-0.329 1.017,-1.032 1.146,-2.109 1.099,1.54 1.469,3.066 1.109,4.579 -0.427,-0.624 -1.035,-0.687 -1.821,-0.19 -1.168,0.738 -2.611,1.951 -2.984,4.273 l -0.011,0.071 c -0.185,1.624 1.142,3.198 3.704,2.595 0.247,-0.055 0.572,-0.149 0.957,-0.376 2.881,-2.13 4.749,-5.551 4.749,-9.409 0,-6.458 -5.235,-11.694 -11.694,-11.694 z m -2.086,8.513 c -1.062,0.52 -1.789,0.612 -2.181,0.277 -0.65,0.281 -0.954,0.748 -0.913,1.401 0.408,-0.526 1.143,-0.681 2.205,-0.465 0.532,-0.292 0.828,-0.697 0.89,-1.214 z"
     id="path4" />
</svg>
