<?xml version="1.0" encoding="UTF-8" standalone="no"?>
<!-- Generated by IcoMoon.io -->

<svg
   version="1.1"
   width="28"
   height="32"
   viewBox="0 0 28 32"
   id="svg6"
   sodipodi:docname="xlcu.svg"
   inkscape:version="1.1.1 (3bf5ae0d25, 2021-09-20)"
   xmlns:inkscape="http://www.inkscape.org/namespaces/inkscape"
   xmlns:sodipodi="http://sodipodi.sourceforge.net/DTD/sodipodi-0.dtd"
   xmlns="http://www.w3.org/2000/svg"
   xmlns:svg="http://www.w3.org/2000/svg">
  <defs
     id="defs10" />
  <sodipodi:namedview
     id="namedview8"
     pagecolor="#ffffff"
     bordercolor="#666666"
     borderopacity="1.0"
     inkscape:pageshadow="2"
     inkscape:pageopacity="0.0"
     inkscape:pagecheckerboard="0"
     showgrid="false"
     inkscape:zoom="25.75"
     inkscape:cx="6.3495146"
     inkscape:cy="15.980583"
     inkscape:window-width="1920"
     inkscape:window-height="1009"
     inkscape:window-x="-8"
     inkscape:window-y="-8"
     inkscape:window-maximized="1"
     inkscape:current-layer="svg6" />
  <title
     id="title2">xlcu</title>
  <path
     fill="#000000"
     d="m 3.077,7.569 c 3.496,-2.017 6.977,-4.06 10.474,-6.076 3.555,2.053 7.16,4.02 10.713,6.076 -2.127,0.465 -4.169,1.312 -6.005,2.484 -1.744,1.106 -3.304,2.482 -4.707,3.994 C 11.615,12.252 9.564,10.546 7.242,9.268 5.8344604,8.5663292 4.3686231,7.9251236 3.077,7.569 Z m -3.015,4.318 v 12.141 c 2.289,0.387 4.482,1.268 6.435,2.517 1.742,1.107 3.304,2.475 4.732,3.961 C 11.19,26.413 11.271,22.32 11.23,18.228 9.265,17.921 7.363,17.249 5.617,16.3 3.524,15.168 1.716,13.583 0.063,11.888 Z m 21.807,4.408 c -1.748,0.972 -3.669,1.633 -5.648,1.93 0.037,4.094 -0.038,8.188 -0.003,12.282 1.184,-1.236 2.448,-2.401 3.842,-3.398 2.178,-1.577 4.712,-2.687 7.379,-3.082 V 11.888 c -1.657,1.698 -3.486,3.256 -5.57,4.407 z"
     id="path4"
     style="stroke:none;stroke-opacity:1"
     sodipodi:nodetypes="cccccccccccccccccccccc" />
</svg>
