<?xml version="1.0" encoding="UTF-8" standalone="no"?>
<svg
   version="1.1"
   width="33.992649"
   height="34.000908"
   viewBox="0 0 33.992649 34.000907"
   id="svg4"
   xmlns="http://www.w3.org/2000/svg"
   xmlns:svg="http://www.w3.org/2000/svg">
  <defs>
    <!-- This is the gradient that will actually be used on
     the cards. The colors themselves will be provided by the
     template, but the x values, y values, and offsets will be
     used from the SVG. -->
    <linearGradient id="rarity" x1="0" y1="1" x2="1" y2="0">
      <stop offset="0" style="stop-color:rgb(192,55,38);stop-opacity:1" id="stop2" />
      <stop offset="0.125" style="stop-color:rgb(192,55,38);stop-opacity:1" id="stop4" />
      <stop offset="0.5" style="stop-color:rgb(241,142,30);stop-opacity:1" id="stop6" />
      <stop offset="0.875" style="stop-color:rgb(192,55,38);stop-opacity:1" id="stop8" />
      <stop offset="1" style="stop-color:rgb(192,55,38);stop-opacity:1" id="stop10" />
    </linearGradient>
    <!-- These gradients are here so that you can visualize
     what the set symbol would like like in that rarity. The
     only gradient that matters in the end is the "rarity"
     gradient. -->
    <linearGradient id="mythic" x1="0" y1="1" x2="1" y2="0">
      <stop offset="0" style="stop-color:rgb(192,55,38);stop-opacity:1"/>
      <stop offset="0.125" style="stop-color:rgb(192,55,38);stop-opacity:1"/>
      <stop offset="0.5" style="stop-color:rgb(241,142,30);stop-opacity:1"/>
      <stop offset="0.875" style="stop-color:rgb(192,55,38);stop-opacity:1"/>
      <stop offset="1" style="stop-color:rgb(192,55,38);stop-opacity:1"/>
    </linearGradient>
    <linearGradient id="rare" x1="0" y1="1" x2="1" y2="0">
      <stop offset="0" style="stop-color:rgb(146,116,67);stop-opacity:1"/>
      <stop offset="0.125" style="stop-color:rgb(146,116,67);stop-opacity:1"/>
      <stop offset="0.5" style="stop-color:rgb(211,178,108);stop-opacity:1"/>
      <stop offset="0.875" style="stop-color:rgb(146,116,67);stop-opacity:1"/>
      <stop offset="1" style="stop-color:rgb(146,116,67);stop-opacity:1"/>
    </linearGradient>
    <linearGradient id="special" x1="0" y1="1" x2="1" y2="0">
      <stop offset="0" style="stop-color:rgb(76, 56, 106);stop-opacity:1"/>
      <stop offset="0.125" style="stop-color:rgb(76, 56, 106);stop-opacity:1"/>
      <stop offset="0.5" style="stop-color:rgb(201, 173, 221);stop-opacity:1"/>
      <stop offset="0.875" style="stop-color:rgb(76, 56, 106);stop-opacity:1"/>
      <stop offset="1" style="stop-color:rgb(76, 56, 106);stop-opacity:1"/>
    </linearGradient>
    <linearGradient id="uncommon" x1="0" y1="1" x2="1" y2="0">
      <stop offset="0" style="stop-color:rgb(98,110,119);stop-opacity:1"/>
      <stop offset="0.125" style="stop-color:rgb(98,110,119);stop-opacity:1"/>
      <stop offset="0.5" style="stop-color:rgb(196,222,238);stop-opacity:1"/>
      <stop offset="0.875" style="stop-color:rgb(98,110,119);stop-opacity:1"/>
      <stop offset="1" style="stop-color:rgb(98,110,119);stop-opacity:1"/>
    </linearGradient>
    <linearGradient id="common" x1="0" y1="1" x2="1" y2="0">
      <stop offset="0" style="stop-color:rgb(0,0,0);stop-opacity:1"/>
    </linearGradient>
    <linearGradient
            id="rarity-outline" x1="0" y1="1" x2="0" y2="1">
      <stop offset="0" style="stop-color:rgb(0,0,0);stop-opacity:1"/>
    </linearGradient>
  </defs>
  <path fill="url(#rarity-outline)" d="M 17.261941,4.6656071e-4 C 17.07952,0.00635156 16.895206,0.01109156 16.709206,0.01609156 c -0.256372,0.006647 -0.500394,0.11152722 -0.68164,0.29296875 v 0.001953 c -0.152513,0.15210944 -0.251841,0.34939447 -0.283203,0.5625 C 15.479536,2.6827163 15.211641,4.4939768 14.951394,6.3090604 13.667342,6.5825904 12.425156,7.0458017 11.285378,7.7504666 10.210625,7.4485924 9.1326925,7.1215686 8.0334249,6.8051541 7.278286,6.5876396 6.5788215,7.2860009 6.7951437,8.0414822 7.1099666,9.138839 7.4289368,10.226394 7.738503,11.312967 c -0.6441454,1.096537 -1.1029583,2.303226 -1.3496093,3.583984 -1.8210444,0.288456 -3.6723902,0.513914 -5.55078123,0.822266 -0.49117436,0.08062 -0.84830162,0.510174 -0.83789062327,1.007812 0.003844003,0.180686 0.005616003,0.371273 0.009766003,0.56836 0.0105086,0.485264 0.36793329,0.892925 0.84765626,0.966797 1.86085959,0.285591 3.70356769,0.529044 5.52343749,0.820312 0.2455276,1.268146 0.6689015,2.500281 1.3535156,3.603516 -5.563e-4,0.0019 -0.0014,0.0039 -0.00195,0.0059 0.018283,0.03657 0.012988,0.01895 0.027344,0.04492 0.00732,0.01165 0.010214,0.02549 0.017578,0.03711 l -0.044922,-0.08203 c -0.309288,1.081801 -0.6469948,2.170372 -0.9589844,3.292969 -0.2086677,0.751047 0.4839931,1.441516 1.234375,1.230469 1.1089335,-0.313866 2.2053452,-0.642037 3.2988282,-0.962891 1.103175,0.65695 2.315032,1.13886 3.607421,1.394531 0.263826,1.825022 0.504803,3.665049 0.798829,5.511719 0.07927,0.495741 0.513784,0.855888 1.015625,0.841797 0.184269,-0.0049 0.3725,-0.0077 0.5625,-0.01172 0.4878,-0.01114 0.896361,-0.372653 0.966796,-0.855469 0.267843,-1.821329 0.530216,-3.640665 0.792969,-5.458984 1.272808,-0.25473 2.504082,-0.700749 3.636719,-1.384766 1.067548,0.302825 2.140701,0.636254 3.25,0.945313 0.749632,0.209059 1.440291,-0.480506 1.232422,-1.230469 -0.29894,-1.076182 -0.620071,-2.13179 -0.927734,-3.183594 0.697663,-1.137719 1.19097,-2.392559 1.457031,-3.724609 1.796579,-0.271246 3.61765,-0.495239 5.458984,-0.802734 0.489618,-0.08235 0.844691,-0.511433 0.833985,-1.007813 -0.0039,-0.186567 -0.0069,-0.370873 -0.0078,-0.550781 -0.0024,-0.493856 -0.364987,-0.911996 -0.853516,-0.984375 -1.798748,-0.264339 -3.598169,-0.52715 -5.398437,-0.789062 -0.258661,-1.318254 -0.698994,-2.609681 -1.439453,-3.767579 7.36e-4,-0.0026 0.0012,-0.0053 0.002,-0.0078 v -0.002 c -0.03428,-0.07138 -0.02515,-0.04509 -0.04687,-0.08203 -0.0073,-0.0111 -0.01027,-0.02409 -0.01758,-0.03516 l 0.06445,0.117188 C 26.591326,10.155026 26.902443,9.1225244 27.203347,8.0785916 27.420861,7.3234527 26.7225,6.6239883 25.967019,6.8403104 24.911545,7.1423879 23.864709,7.4498036 22.820534,7.7485135 21.675269,7.0527462 20.415,6.5723536 19.090066,6.3110135 18.821177,4.5089028 18.599516,2.6791207 18.277566,0.82859156 18.192219,0.3383058 17.759371,-0.01463184 17.261941,4.6656071e-4 Z" />
  <path fill="url(#rarity)" d="m 17.293191,1.0004666 c -0.186,0.006 -0.372594,0.010625 -0.558594,0.015625 v 0.00195 c -0.297,2.0289999 -0.600672,4.0559374 -0.888672,6.0859374 -1.59,0.243 -3.13489,0.7948438 -4.462891,1.7148438 -1.212999,-0.333 -2.4179528,-0.7047344 -3.6269528,-1.0527344 0.348,1.213 0.7077812,2.4226715 1.0507812,3.6386725 -0.845,1.323 -1.4462812,2.815767 -1.6132812,4.384765 -2.057,0.349002 -4.1343594,0.578016 -6.1933594,0.916016 0.004,0.188 0.00577,0.378359 0.00977,0.56836 2.0589999,0.315999 4.1295937,0.570968 6.1835937,0.917968 0.17,1.432 0.6557343,2.828875 1.4277344,4.046875 0.067,0.14 0.2223437,0.285078 0.1523437,0.455078 -0.334,1.189 -0.7061094,2.367594 -1.0371094,3.558594 1.226,-0.347 2.4469221,-0.713312 3.6699221,-1.070312 1.282,0.829 2.720234,1.429859 4.240234,1.630859 0.18,-0.007 0.171079,0.211031 0.205078,0.332031 0.286002,1.952 0.53961,3.910422 0.84961,5.857422 0.188,-0.005 0.378359,-0.0097 0.568359,-0.01367 0.3,-2.04 0.591719,-4.08014 0.886719,-6.11914 1.579,-0.217 3.118359,-0.750438 4.443359,-1.648438 1.207,0.333 2.399469,0.714781 3.605469,1.050781 -0.33,-1.188 -0.68825,-2.368734 -1.03125,-3.552734 0.906,-1.353 1.536516,-2.895578 1.728516,-4.517578 2.027,-0.323 4.065843,-0.556531 6.089844,-0.894531 -0.004,-0.19 -0.0068,-0.379407 -0.0078,-0.566407 -2.021,-0.297 -4.0415,-0.595671 -6.0625,-0.888672 -0.197,-1.499998 -0.689391,-2.968375 -1.525391,-4.234374 -0.062,-0.132002 -0.208531,-0.266829 -0.144531,-0.423829 0.323,-1.133 0.664234,-2.2615781 0.990235,-3.3925782 -1.174001,0.3360001 -2.345532,0.6826251 -3.519532,1.015625 -1.355,-0.905 -2.90639,-1.5090781 -4.52539,-1.7050781 -0.321013,-2.034002 -0.55131,-4.0823301 -0.90431,-6.1113301 z m 1.197265,8.4179688 c 1.189,0.157 2.317579,0.7144996 3.267578,1.4374996 0.278001,0.155001 0.323829,0.590485 0.04883,0.771485 -0.729,0.573 -1.491516,1.09911 -2.228516,1.662109 -0.186,0.121001 -0.371234,0.317532 -0.615234,0.269532 -0.259,-0.028 -0.386391,-0.296297 -0.400391,-0.529297 -0.146,-1.004 -0.293688,-2.008625 -0.429688,-3.015626 -0.07,-0.2589995 0.09342,-0.5387026 0.357422,-0.5957026 z m -3.126953,0.00977 c 0.297391,-0.035643 0.602125,0.2329531 0.53125,0.5488281 -0.152,1.0560005 -0.29675,2.1149685 -0.46875,3.1679685 -0.015,0.327 -0.419406,0.53661 -0.691406,0.34961 -0.741,-0.514 -1.447641,-1.079516 -2.181641,-1.603516 -0.18,-0.149 -0.424422,-0.270625 -0.482422,-0.515625 -0.052,-0.22 0.107344,-0.416203 0.277344,-0.533203 0.856,-0.651 1.844625,-1.1289064 2.890625,-1.3789064 0.04112,-0.01825 0.08252,-0.030064 0.125,-0.035156 z m 7.328125,2.5937496 c 0.175406,-0.01692 0.355328,0.0623 0.455078,0.216797 0.708,0.896 1.208266,1.962125 1.447266,3.078125 0.104,0.305 -0.181047,0.648844 -0.498047,0.589844 -0.976,-0.126 -1.947875,-0.287922 -2.921875,-0.419922 -0.261,-0.047 -0.60189,-0.05566 -0.71289,-0.347656 -0.115,-0.371 0.231156,-0.639922 0.410156,-0.919922 0.563,-0.704 1.040437,-1.482484 1.648437,-2.146484 l 0.002,-0.002 c 0.05475,-0.02775 0.111454,-0.04319 0.169922,-0.04883 z m -11.402344,0.03516 c 0.21506,-0.0028 0.386657,0.179656 0.503907,0.347656 0.547,0.75 1.109344,1.492094 1.652343,2.246094 0.254002,0.267 0.07927,0.767343 -0.302734,0.777343 -1.04,0.166 -2.083953,0.306266 -3.126953,0.447266 -0.3100002,0.065 -0.6047188,-0.2595 -0.511719,-0.5625 0.1960002,-0.981007 0.625594,-1.906429 1.183594,-2.732429 0.143,-0.19 0.26786,-0.426719 0.505859,-0.511719 h 0.002 c 0.0325,-0.0086 0.06303,-0.01131 0.09375,-0.01172 z m -1.4589841,6.05664 h 0.00195 c 0.9680001,0.057 1.9266251,0.27286 2.8906251,0.38086 0.28,0.069 0.706547,0.02228 0.810547,0.363281 0.119,0.276 -0.106906,0.511703 -0.253906,0.720703 -0.547,0.712 -1.061188,1.449297 -1.617188,2.154297 -0.177,0.251 -0.578281,0.215891 -0.738281,-0.03711 -0.687,-0.875 -1.1781097,-1.913 -1.4121095,-3 -0.082,-0.25 0.080359,-0.502031 0.3183593,-0.582031 z m 14.2851561,0.01367 c 0.206162,0.0168 0.380266,0.106906 0.478516,0.347656 -0.142,1.197 -0.735891,2.321438 -1.462891,3.273438 -0.174,0.313 -0.651265,0.313094 -0.822265,-0.0039 -0.595,-0.792 -1.188532,-1.583766 -1.769532,-2.384766 -0.219,-0.235 -0.113156,-0.684047 0.214844,-0.748047 0.75,-0.149 1.513531,-0.219797 2.269532,-0.341797 0.315623,0.0012 0.748193,-0.170586 1.091796,-0.142578 z m -9.166015,2.289063 c 0.230906,-0.0054 0.465906,0.179031 0.472656,0.425781 0.166,1.045 0.306172,2.094578 0.451172,3.142578 0.069,0.316 -0.264172,0.629438 -0.576172,0.523437 -1.003,-0.215999 -1.949156,-0.669718 -2.785156,-1.261718 -0.182,-0.143 -0.424266,-0.287969 -0.447266,-0.542969 -0.014,-0.291 0.273703,-0.449422 0.470703,-0.607422 0.738,-0.525 1.44536,-1.093469 2.19336,-1.605469 0.06725,-0.0485 0.143734,-0.07242 0.220703,-0.07422 z m 4.113281,0.02344 c 0.133024,0.01656 0.263422,0.08495 0.365234,0.173828 0.786,0.596 1.591235,1.165391 2.365235,1.775391 0.252,0.186 0.200406,0.583281 -0.05859,0.738281 -0.893,0.689 -1.944828,1.175156 -3.048828,1.410156 -0.334,0.118 -0.675031,-0.2305 -0.582031,-0.5625 0.136,-0.97 0.280968,-1.939203 0.417968,-2.908203 0.051,-0.189 0.03928,-0.45464 0.238282,-0.55664 0.0545,-0.03675 0.111218,-0.05888 0.169922,-0.06836 0.04403,-0.0071 0.08847,-0.0075 0.132812,-0.002 z" />
</svg>
