<?xml version="1.0" encoding="UTF-8" standalone="no"?>
<!-- Generated by IcoMoon.io -->

<svg
   version="1.1"
   width="28.997999"
   height="32"
   viewBox="0 0 28.997999 32"
   id="svg6"
   sodipodi:docname="znc.svg"
   inkscape:version="1.1.1 (3bf5ae0d25, 2021-09-20)"
   xmlns:inkscape="http://www.inkscape.org/namespaces/inkscape"
   xmlns:sodipodi="http://sodipodi.sourceforge.net/DTD/sodipodi-0.dtd"
   xmlns="http://www.w3.org/2000/svg"
   xmlns:svg="http://www.w3.org/2000/svg">
  <defs
     id="defs10" />
  <sodipodi:namedview
     id="namedview8"
     pagecolor="#ffffff"
     bordercolor="#666666"
     borderopacity="1.0"
     inkscape:pageshadow="2"
     inkscape:pageopacity="0.0"
     inkscape:pagecheckerboard="0"
     showgrid="false"
     inkscape:zoom="3.21875"
     inkscape:rotation="60"
     inkscape:cx="-73.710232"
     inkscape:cy="132.33006"
     inkscape:window-width="1920"
     inkscape:window-height="1009"
     inkscape:window-x="-8"
     inkscape:window-y="-8"
     inkscape:window-maximized="1"
     inkscape:current-layer="svg6" />
  <title
     id="title2">znc</title>
  <path
     fill="#000000"
     d="M 12.826,4.051 C 11.479,2.705 10.146,1.343 8.798,0 6.61,1.54 4.576,3.342 2.968,5.492 1.461,7.542 0.457,9.957 0,12.457 c 0.009,0.007 0.018,0.016 0.028,0.02 1.061,0.45 3.037,1.631 3.843,3.166 0.699,1.226 0.709,2.673 0.67,4.045 0.593,-0.606 1.197,-1.199 1.79,-1.8 C 5.701,17.227 5.046,16.592 4.405,15.945 5.046,15.298 5.697,14.655 6.333,14 5.01,12.671 3.688,11.344 2.371,10.009 4.712,7.663 7.044,5.305 9.381,2.953 c 1.153,1.149 2.292,2.311 3.443,3.464 0.004,-0.79 0,-1.579 0.002,-2.367 z M 9.377,4.359 c 1.154,1.16 2.315,2.312 3.449,3.491 v 5.277 c -1.859,1.881 -0.928,0.942 -2.792,2.817 1.866,1.871 0.935,0.933 2.792,2.813 v 5.301 C 11.684,25.223 10.532,26.379 9.377,27.531 7.505,25.648 5.634,23.763 3.768,21.874 5.084,20.541 6.403,19.214 7.725,17.889 7.097,17.221 6.419,16.603 5.801,15.927 6.458,15.303 7.082,14.644 7.725,14.003 6.406,12.672 5.086,11.341 3.763,10.014 5.637,8.131 7.506,6.242 9.378,4.359 v 0 z m 0.011,15.564 v 0 c -0.653,0.643 -1.289,1.304 -1.939,1.949 0.635,0.661 1.29,1.3 1.938,1.949 0.649,-0.641 1.283,-1.3 1.932,-1.943 -0.634,-0.663 -1.298,-1.292 -1.93,-1.955 z M 9.381,8.067 v 0 0 C 8.738,8.719 8.088,9.364 7.443,10.014 8.09,10.661 8.739,11.306 9.377,11.963 10.026,11.316 10.679,10.671 11.315,10.01 10.672,9.361 10.033,8.707 9.381,8.067 Z M 2.95,22.575 c -0.322,0.333 -0.645,0.665 -0.975,0.992 2.885,2.811 5.77,5.622 8.655,8.433 0.732,0 1.464,0 2.195,0 V 25.476 C 11.671,26.625 10.532,27.788 9.376,28.935 7.233,26.814 5.1,24.687 2.949,22.575 Z m 23.098,0 c -2.151,2.112 -4.284,4.239 -6.427,6.36 -1.156,-1.147 -2.295,-2.31 -3.449,-3.459 V 32 c 0.732,0 1.464,0 2.195,0 2.885,-2.811 5.77,-5.622 8.655,-8.433 -0.329,-0.327 -0.653,-0.659 -0.975,-0.992 z M 19.617,8.067 v 0 c -0.652,0.64 -1.29,1.294 -1.934,1.943 0.636,0.661 1.288,1.306 1.938,1.953 0.637,-0.657 1.287,-1.302 1.934,-1.949 C 20.91,9.364 20.26,8.719 19.617,8.067 Z m -0.008,11.856 c -0.632,0.663 -1.296,1.292 -1.93,1.955 0.649,0.643 1.283,1.302 1.932,1.943 0.647,-0.649 1.302,-1.288 1.938,-1.949 -0.651,-0.645 -1.287,-1.306 -1.939,-1.949 v 0 z M 19.621,4.359 v 0 c 1.872,1.883 3.741,3.772 5.615,5.655 -1.323,1.327 -2.643,2.658 -3.962,3.989 0.643,0.641 1.267,1.3 1.924,1.924 -0.618,0.676 -1.296,1.294 -1.924,1.962 1.321,1.325 2.641,2.652 3.957,3.985 -1.866,1.889 -3.738,3.774 -5.609,5.657 -1.155,-1.153 -2.307,-2.308 -3.449,-3.473 V 18.757 C 18.03,16.878 17.1,17.815 18.965,15.944 17.101,14.069 18.032,15.008 16.173,13.127 V 7.85 C 17.307,6.67 18.468,5.518 19.622,4.359 Z M 16.172,4.051 c 0.002,0.788 -0.002,1.577 0.002,2.367 1.151,-1.153 2.29,-2.315 3.443,-3.464 2.337,2.352 4.67,4.71 7.01,7.056 -1.317,1.335 -2.639,2.662 -3.962,3.991 0.636,0.655 1.287,1.298 1.928,1.945 -0.641,0.647 -1.296,1.282 -1.926,1.943 0.593,0.601 1.197,1.193 1.79,1.8 -0.039,-1.372 -0.029,-2.819 0.67,-4.045 0.806,-1.535 2.782,-2.716 3.843,-3.166 0.011,-0.005 0.019,-0.014 0.028,-0.02 C 28.541,9.959 27.537,7.543 26.03,5.493 24.422,3.343 22.387,1.541 20.2,0.001 18.851,1.344 17.518,2.705 16.172,4.052 Z"
     id="path4" />
</svg>
