<?xml version="1.0" encoding="UTF-8" standalone="no"?>
<!-- Generated by IcoMoon.io -->

<svg
   version="1.1"
   width="25.000999"
   height="31.898001"
   viewBox="0 0 25.000999 31.898001"
   id="svg6"
   sodipodi:docname="zne.svg"
   inkscape:version="1.1.1 (3bf5ae0d25, 2021-09-20)"
   xmlns:inkscape="http://www.inkscape.org/namespaces/inkscape"
   xmlns:sodipodi="http://sodipodi.sourceforge.net/DTD/sodipodi-0.dtd"
   xmlns="http://www.w3.org/2000/svg"
   xmlns:svg="http://www.w3.org/2000/svg">
  <defs
     id="defs10" />
  <sodipodi:namedview
     id="namedview8"
     pagecolor="#ffffff"
     bordercolor="#666666"
     borderopacity="1.0"
     inkscape:pageshadow="2"
     inkscape:pageopacity="0.0"
     inkscape:pagecheckerboard="0"
     showgrid="false"
     inkscape:zoom="25.75"
     inkscape:cx="12.485437"
     inkscape:cy="15.941748"
     inkscape:window-width="1920"
     inkscape:window-height="1009"
     inkscape:window-x="-8"
     inkscape:window-y="-8"
     inkscape:window-maximized="1"
     inkscape:current-layer="svg6" />
  <title
     id="title2">zne</title>
  <path
     fill="#000000"
     d="m 10.682,0.003 1.732,3.357 0.066,4.153 4.501,7.209 c 0.593,1.722 0.479,3.493 -0.335,5.313 1.854,-2.854 2.473,-4.848 1.856,-5.982 -0.617,-1.136 -2.022,-3.437 -4.217,-6.906 l 0.016,-3.866 1.421,-3.279 9.279,15.081 -9.279,16.815 -1.605,-2.76 0.018,-4.431 -4.854,-6.686 C 8.467,16.642 8.602,15.017 9.69,13.151 7.475,15.372 6.834,17.227 7.766,18.713 l 4.463,6.365 -0.028,4.042 -1.517,2.778 L 0,15.951 10.682,0 Z"
     id="path4" />
</svg>
