<?xml version="1.0" encoding="UTF-8" standalone="no"?>
<svg
   version="1.1"
   width="23.09"
   height="26.664085"
   viewBox="0 0 23.09 26.664085"
   id="svg4"
   xmlns="http://www.w3.org/2000/svg"
   xmlns:svg="http://www.w3.org/2000/svg">
  <defs
     id="defs8" />
  <g
     id="path2-9"
     style="fill:#ffffff;fill-opacity:1">
    <path
       style="color:#000000;fill:#ffffff;stroke-width:1.5;-inkscape-stroke:none;fill-opacity:1"
       d="M 11.545,0.86604291 22.34,7.0990429 V 19.565043 l -10.795,6.233 -10.795,-6.233 V 7.0990429 Z"
       id="path958" />
    <path
       style="color:#000000;fill:#ffffff;-inkscape-stroke:none;fill-opacity:1"
       d="m 11.544922,0 -0.375,0.21679688 L 0,6.6660156 V 19.998047 l 11.544922,6.666015 11.544922,-6.666015 V 6.6660156 Z m 0,1.7324219 L 21.589844,7.53125 V 19.132812 L 11.544922,24.931641 1.5,19.132812 V 7.53125 Z"
       id="path960" />
  </g>
  <path
     fill="#000000"
     d="M 11.545,0.86604291 22.34,7.0990429 V 19.565043 l -10.795,6.233 -10.795,-6.233 V 7.0990429 Z"
     id="path2-9-1"
     style="fill:#ffffff;stroke:none;stroke-width:1;stroke-miterlimit:4;stroke-dasharray:none;stroke-opacity:1" />
  <path
     fill="#000000"
     d="M 11.545,0.86604291 22.34,7.0990429 V 19.565043 l -10.795,6.233 -10.795,-6.233 V 7.0990429 Z"
     id="path2"
     style="fill:#000001;fill-opacity:1" />
  <path
     fill="#010101"
     d="m 10.395,3.3550429 c -0.795,1.348 -0.989,2.855 -0.581,4.52 1.244,0.897 2.009,1.879 2.296,2.9470001 -0.763,-1.0790001 -1.787,-1.8810001 -3.071,-2.4060001 -1.927,-0.787 -3.445,-2.952 -3.445,-2.952 -0.217,1.03 -0.051,2.021 0.499,2.974 -0.802,-0.24 -1.715,-0.277 -2.738,-0.112 0.944,0.406 1.458,0.948 1.541,1.626 0.083,0.6780001 -0.142,1.1010001 -0.676,1.2690001 -1.109,0.357 -2.1,1.021 -2.974,1.993 2.391,-0.17 3.296,0.996 2.715,3.496 1.086,-1.319 2.462,-2.146 4.129,-2.48 -0.326,-0.255 -0.867,-0.347 -1.623,-0.278 1.451,-1.726 3.428,-2.322 5.932,-1.788 -1.592,0.072 -2.774,0.446 -3.545,1.123 0.873,-0.005 1.526,0.233 1.958,0.716 -1.749,0.438 -3.002,1.331 -3.757,2.68 2.279,-0.263 3.809,0.204 4.589,1.402 1.147,1.76 0.046,2.884 10e-4,2.928 l -10e-4,0.001 0.013,0.002 c 0.442,0.055 0.806,-0.037 1.09,-0.275 0.005,1.018 -0.77,1.73 -2.324,2.136 3.199,0.304 5.443,-0.624 6.732,-2.783 -0.509,0.385 -1.059,0.489 -1.649,0.313 -0.886,-0.264 -0.709,-1.113 -0.38,-1.279 -0.648,0.138 -1.051,0.066 -1.21,-0.214 -0.239,-0.42 -0.135,-0.938 0.314,-1.2 -0.708,0.127 -1.104,-0.044 -1.186,-0.516 -0.124,-0.707 0.108,-1.201 0.648,-1.527 -0.658,-0.377 -1.368,-0.432 -2.132,-0.166 1.071,-0.837 2.45,-0.991 4.138,-0.463 0.84,0.403 1.048,0.948 0.626,1.636 2.269,-0.256 3.293,0.479 3.072,2.206 1.649,-0.886 2.341,-2.475 2.075,-4.767 -0.234,0.786 -0.684,1.292 -1.349,1.519 0.079,-0.709 -0.225,-1.078 -0.915,-1.107 0.294,-1.564 -0.117,-2.882 -1.232,-3.953 -1.115,-1.0710001 -2.311,-2.1400001 -3.586,-3.2080001 -1.125,-1.137 -1.66,-2.236 -1.605,-3.298 -0.595,1.311 -0.489,2.361 0.318,3.149 1.21,1.182 3.955,3.2930001 4.007,5.1410001 -1.069,-1.501 -2.104,-2.7060001 -3.104,-3.6150001 -1.501,-1.364 -3.665,-2.449 -3.609,-5.389 z m 4.472,8.2860001 0.047,10e-4 c 1.122,0.561 1.803,1.339 2.043,2.334 -0.253,0.176 -0.538,0.176 -0.854,0 -0.746,-0.447 -1.095,-1.049 -1.339,-1.706 -0.046,-0.144 -0.171,-0.448 -0.034,-0.579 0.045,-0.043 0.078,-0.039 0.137,-0.05 z"
     id="path2-7"
     style="fill:#ffffff;fill-opacity:1" />
</svg>
