<?xml version="1.0" encoding="UTF-8" standalone="no"?>
<svg
   version="1.1"
   width="31.224001"
   height="31.205"
   viewBox="0 0 31.224001 31.205"
   id="svg4"
   sodipodi:docname="bbd.svg"
   inkscape:version="1.1.1 (3bf5ae0d25, 2021-09-20)"
   xmlns:inkscape="http://www.inkscape.org/namespaces/inkscape"
   xmlns:sodipodi="http://sodipodi.sourceforge.net/DTD/sodipodi-0.dtd"
   xmlns="http://www.w3.org/2000/svg"
   xmlns:svg="http://www.w3.org/2000/svg">
  <defs
     id="defs8" />
  <sodipodi:namedview
     id="namedview6"
     pagecolor="#ffffff"
     bordercolor="#666666"
     borderopacity="1.0"
     inkscape:pageshadow="2"
     inkscape:pageopacity="0.0"
     inkscape:pagecheckerboard="0"
     showgrid="false"
     inkscape:zoom="18.671879"
     inkscape:cx="9.506274"
     inkscape:cy="16.897067"
     inkscape:window-width="1920"
     inkscape:window-height="1009"
     inkscape:window-x="-8"
     inkscape:window-y="-8"
     inkscape:window-maximized="1"
     inkscape:current-layer="svg4" />
  <path
     fill="#000000"
     d="m 31.224,19.016 c -3.05,3.105 -5.743,5.836 -8.08,8.192 0.381,2.113 1.077,3.445 2.088,3.997 H 6.633 C 7.637,30.293 8.251,29.119 8.474,27.682 L 0,19.016 15.669,0 Z"
     id="path2"
     sodipodi:nodetypes="cccccccc" />
  <path
     fill="#000000"
     d="m 14.136,14.734 c -0.259,6.228 0.319,10.206 1.733,11.935 2.15,-2.804 1.733,-9.613 1.733,-11.935 -0.913,-0.278 -2.068,-0.278 -3.466,0 z m -5.507,-0.54 c 0.614,-0.743 1.892,-1.136 1.892,-1.136 0.415,-1.811 1.466,-2.926 3.153,-3.343 0.345,1.477 0.517,2.329 0.517,2.558 1.081,-0.228 2.207,-0.228 3.377,0 0.144,-1.36 0.319,-2.213 0.524,-2.558 1.812,0.333 3.06,2.223 3.06,3.343 0.566,0.189 1.217,0.567 1.953,1.136 v 7.403 L 27.543,17.129 15.57,2.433 3.591,17.129 8.629,22.111 Z"
     id="path825"
     sodipodi:nodetypes="cccccccccccccccccc"
     style="fill:#ffffff" />
</svg>
