<?xml version="1.0" encoding="UTF-8" standalone="no"?>
<svg
   version="1.1"
   width="31.072937"
   height="34.155872"
   viewBox="0 0 31.072937 34.155873"
   id="svg4"
   xmlns="http://www.w3.org/2000/svg"
   xmlns:svg="http://www.w3.org/2000/svg">
  <defs
     id="defs8" />
  <path
     id="path1536"
     style="color:#000000;fill:#ffffff;stroke-width:2;-inkscape-stroke:none"
     d="m 15.394418,0.00159034 c -0.914851,0.0198325 -1.826789,0.22114585 -2.675781,0.60351565 -0.01065,0.004796 -0.02258,0.004912 -0.0332,0.009766 l -0.164063,0.0742187 -0.01367,0.0136719 C 11.484636,1.1768666 10.720211,2.0168558 10.179575,2.9957309 8.9831394,2.9185522 7.7734495,2.4297281 6.6776214,1.6695591 L 6.0174652,1.2105747 5.4276214,1.7574497 C 4.5208145,2.5994135 4.2710335,3.6781595 4.1756683,4.7164341 3.4661768,4.6129124 2.749368,4.3662285 2.0233246,3.9312778 L 0.97840269,3.3043247 0.56824644,4.4508091 C 0.10095821,5.7568198 -0.19640911,7.2621896 0.15223081,8.7886997 l 0.001953,0.00781 0.001953,0.00586 C 0.44579201,9.9936285 1.2505143,10.859543 2.081918,11.466432 l 0.6464847,0.470706 0.6015625,-0.525391 c 0.3943402,-0.344675 0.5765164,-0.440603 0.6542969,-0.433594 l 0.048828,0.0039 h 0.050781 c 2.704659,-0.02387 5.4207483,0.0042 8.1503909,-0.0098 0.951931,0.0029 1.920536,-0.397723 2.535156,-1.2343752 0.406011,-0.5401864 0.529719,-1.0602323 0.773438,-1.6152344 0.240857,0.5388451 0.360843,1.0709216 0.734375,1.5859375 0.601035,0.8392191 1.561834,1.2582681 2.521484,1.2617191 2.731273,0.01807 5.451865,-0.01015 8.162109,0.0098 h 0.05078 l 0.05078,-0.0039 c 0.108878,-0.01032 0.290791,0.07852 0.599609,0.390625 l 0.589847,0.595703 0.689453,-0.476562 c 0.879755,-0.607593 1.695968,-1.5033182 1.978516,-2.7109382 v -0.00195 c 0.355548,-1.532998 0.04113,-3.0347073 -0.423828,-4.3320312 l -0.419922,-1.171875 -1.052735,0.6621093 c -0.702077,0.4402857 -1.416556,0.682693 -2.125,0.7832031 -0.09012,-1.0431705 -0.33495,-2.1370288 -1.28125,-2.9726562 L 25.019418,1.214481 24.372934,1.6793247 C 23.328911,2.4288184 22.129484,2.8825485 20.90809,3.0230747 20.608664,2.4737591 20.360376,1.889609 19.712778,1.4000279 18.716035,0.63479487 17.53015,0.17787147 16.308481,0.04260599 16.005337,0.00904143 15.699369,-0.00502046 15.394418,0.00159034 Z M 4.0545746,12.855106 3.3963714,12.892216 C 3.1791955,12.904416 2.3846045,12.751582 1.7030121,13.4137 l -0.046875,0.04687 -0.041016,0.05078 c -0.202964,0.257136 -0.369381,0.578302 -0.4355469,0.882813 -0.066166,0.30451 -0.055704,0.529412 -0.058594,0.751953 v 0.0078 3.304688 l 0.017578,0.339844 0.1367187,0.220703 c 2.5457967,3.844889 5.040184,7.35308 8.076172,10.351562 l 2.7168374,2.443362 c 0.920226,0.804122 1.926482,1.477791 2.957032,2.0625 l 0.49414,0.279297 0.492188,-0.279297 c 1.034309,-0.584747 2.037313,-1.262506 2.953125,-2.0625 l 2.718657,-2.441408 c 0,0 5.34917,-5.311673 8.039068,-10.292968 l 0.130859,-0.210938 0.01758,-0.246094 c 0.09352,-1.317862 0.0332,-2.595141 0.0332,-3.808593 l -0.002,0.05469 c 0.05918,-1.106903 -0.862583,-2.054719 -1.998047,-1.958984 l 0.0918,-0.0039 c -3.068558,-0.024 -6.132978,-0.0079 -9.189453,-0.0078 -1.238556,-0.03497 -2.476349,0.63004 -2.994141,1.861328 -0.142823,0.326648 -0.195443,0.660013 -0.304688,0.990235 -0.130304,-0.3918 -0.182149,-0.781501 -0.373047,-1.169922 l -0.0078,-0.01367 -0.0078,-0.01367 C 14.546323,13.47225 13.406859,12.858602 12.218569,12.900037 l 0.03906,-0.002 c -2.7306092,-0.0075 -5.4593888,7.9e-4 -8.1835932,-0.0059 z" />
  <path
     id="path4742"
     style="color:#000000;fill:#ffffff;stroke-width:0.816292;-inkscape-stroke:none"
     d="M 15.458984 4.2753906 L 9.1074219 5.5644531 L 2.3535156 5.5644531 L 2.3535156 5.9726562 L 2.3535156 16.085938 L 11.550781 21.277344 L 18.3125 21.117188 L 28.720703 16.103516 L 28.720703 5.5644531 L 21.964844 5.5644531 L 15.458984 4.2753906 z " />
  <path
     fill="#000000"
     d="m 13.10042,1.5245893 c 1.929,-0.88100002 4.326,-0.62300002 6.009,0.6719999 0.644,0.486 0.997,1.23 1.373,1.921 1.62,-0.057 3.165,-0.687 4.473,-1.626 0.932,0.823 1.079,2.139 1.046,3.31 1.281,0.141 2.491,-0.358 3.553,-1.024 0.429,1.197 0.684,2.511 0.392,3.77 -0.208,0.889 -0.836,1.6059998 -1.573,2.1149998 -0.376,-0.38 -0.836,-0.7359998 -1.406,-0.6819998 -2.722,-0.02 -5.443,0.008 -8.163,-0.01 -0.662,-0.002 -1.328,-0.302 -1.716,-0.846 -0.727,-1.001 -1.12,-2.19 -1.534,-3.343 -0.482,1.14 -0.832,2.36 -1.586,3.361 -0.396,0.543 -1.069,0.832 -1.731,0.83 -2.7219999,0.014 -5.4429999,-0.014 -8.1629999,0.01 -0.566,-0.051 -1.005,0.3289998 -1.402,0.6759998 -0.711,-0.519 -1.332,-1.2159998 -1.545,-2.0919998 -0.28799998,-1.261 -0.047,-2.579 0.382,-3.778 1.075,0.644 2.272,1.156 3.559,1.018 -0.037,-1.175 0.131,-2.472 1.04,-3.316 1.332,0.924 2.899,1.651 4.5559999,1.584 0.402,-1.152 1.295,-2.0979999 2.434,-2.5479999 z M 3.4534201,13.89059 v 0 c -0.356,0.02 -0.774,-0.031 -1.054,0.241 -0.281,0.356 -0.272,0.566 -0.278,1.028 v 3.273 l 0.003,0.058 c 0.736,1.185 1.587,2.387 2.38,3.537 0.364,-0.11 0.725,-0.295 0.84,-0.721 0.014,-0.082 0.037,-0.162 0.043,-0.245 0.06,-0.819 -0.042,-1.64 0.02,-2.508 0,-0.485 0.389,-0.879 0.869,-0.879 0.48,0 0.869,0.394 0.869,0.879 l 0.019,1.667 c 0.013,5.175 -0.068,1.842 0.037,5.31 0.883,1.097 1.847,2.139 2.8519999,3.128 0.47,0.074 0.915,-0.374 0.885,-0.842 0.047,-1.823 -0.049,-3.651 0.039,-5.474 0.1,-0.922 1.635,-0.926 1.731,0 0.059,2.904 0.012,5.813 0.018,8.719 0.856,0.748 1.806,1.385 2.793,1.945 0.987,-0.558 1.933,-1.199 2.787,-1.945 -0.012,-2.707 0.002,-5.415 -0.008,-8.122 0.002,-0.405 -0.031,-0.915 0.38,-1.148 0.548,-0.411 1.463,0.029 1.391,0.74 0.033,1.761 -0.024,3.527 0.018,5.288 -0.02,0.47 0.421,0.905 0.893,0.842 1.003,-0.989 1.97,-2.029 2.846,-3.132 0.121,-2.352 -0.024,-4.72 0.067,-7.076 0.039,-0.86 1.369,-1.038 1.688,-0.264 0.219,1.079 -0.072,2.209 0.153,3.288 0.114,0.351 0.494,0.435 0.797,0.552 0.795,-1.148 1.604,-2.291 2.342,-3.478 0.088,-1.24 0.031,-2.493 0.031,-3.737 0.027,-0.505 -0.407,-0.952 -0.917,-0.909 -3.069,-0.024 -6.14,-0.008 -9.209,-0.008 -0.85,-0.024 -1.712,0.45 -2.047,1.251 -0.711,1.62 -1.020379,1.442359 -1.187,5.266299 -0.151067,-3.827839 -0.501,-3.752299 -1.308,-5.394299 -0.378,-0.713 -1.179,-1.15 -1.982,-1.122 -2.9319999,-0.008 -5.8659999,0.004 -8.7999999,-0.006 z"
     id="path2"
     style="fill:#000000;fill-opacity:1" />
</svg>
