<?xml version="1.0" encoding="UTF-8" standalone="no"?>
<!-- Generated by IcoMoon.io -->

<svg
   version="1.1"
   width="22.402"
   height="27.851"
   viewBox="0 0 22.402 27.851"
   id="svg6"
   sodipodi:docname="afc.svg"
   inkscape:version="1.1.1 (3bf5ae0d25, 2021-09-20)"
   xmlns:inkscape="http://www.inkscape.org/namespaces/inkscape"
   xmlns:sodipodi="http://sodipodi.sourceforge.net/DTD/sodipodi-0.dtd"
   xmlns="http://www.w3.org/2000/svg"
   xmlns:svg="http://www.w3.org/2000/svg">
  <defs
     id="defs10" />
  <sodipodi:namedview
     id="namedview8"
     pagecolor="#ffffff"
     bordercolor="#666666"
     borderopacity="1.0"
     inkscape:pageshadow="2"
     inkscape:pageopacity="0.0"
     inkscape:pagecheckerboard="0"
     showgrid="false"
     inkscape:zoom="32"
     inkscape:cx="10.859375"
     inkscape:cy="13.984375"
     inkscape:window-width="1920"
     inkscape:window-height="1009"
     inkscape:window-x="-8"
     inkscape:window-y="-8"
     inkscape:window-maximized="1"
     inkscape:current-layer="svg6" />
  <title
     id="title2">afc</title>
  <path
     fill="#ffffff"
     stroke="#000000"
     stroke-width="0.75"
     d="m 8.85,2.9295 c -0.202,0.193 -0.319,0.453 -0.425,0.707 -0.307,0.749 -0.567,1.538 -0.547,2.359 0.025,0.433 -0.085,0.919 0.183,1.298 0.374,0.359 0.684,0.78 0.924,1.241 0.406,0.66 0.782,1.36 0.915,2.132 C 9.869,10.6345 9.804,10.5695 9.773,10.5375 9.163,9.8525 8.749,8.9945 8.014,8.4185 7.281,7.7065 6.357,7.2295 5.654,6.4855 4.97,5.8285 4.454,5.0185 4.064,4.1585 c -0.078,0.572 -0.059,1.151 -0.043,1.726 1.14,0.798 1.848,2.194 1.719,3.591 -0.065,1.266 -0.842,2.508 -2.03,2.997 -0.62,0.285 -1.318,0.262 -1.984,0.244 -0.232,0.948 -0.656875,1.81375 -0.956,2.753 0.476,-0.413 0.959,-0.833 1.546,-1.084 1.011,-0.578 2.121,-0.991 3.289,-1.078 -0.494,-0.272 -1.025,-0.463 -1.576,-0.577 0.523,-0.464 1.154,-0.8 1.817,-1.016 1.311,-0.44 2.72,-0.252 4.017,0.135 0.014,0.048 0.043,0.142 0.057,0.189 -1.183,-0.112 -2.397,-0.006 -3.506,0.443 0.654,0.303 1.4,0.498 1.881,1.073 -1.5781849,0.356181 -3.0723942,1.090266 -3.851,1.987 0.93,-0.071 1.876,0.133 2.697,0.572 0.752,0.425 1.336,1.115 1.707,1.888 0.279,0.872 0.39,2.059 -0.467,2.647 0.342,0.144 0.697,0.104 1.046,0.005 -0.15,0.409 -0.386,0.787 -0.694,1.096 -0.465,0.414 -1.113,0.453 -1.682,0.632 1.5784757,0.339621 3.292,0.532 4.826,-0.115 0.749,-0.287 1.327,-0.875 1.8,-1.503 -0.677,0.274 -1.622,0.327 -2.107,-0.321 -0.291,-0.312 -0.055,-0.714 0.157,-0.991 -0.202,-0.002 -0.403,0 -0.605,0.001 -0.246,-0.166 -0.516,-0.354 -0.579,-0.666 -0.136,-0.4 0.243,-0.7 0.483,-0.959 -0.37,0.028 -0.721,-0.066 -1.001,-0.315 -0.06,-0.249 -0.169,-0.505 -0.091,-0.763 0.103,-0.445 0.5,-0.737 0.885,-0.933 -0.58,-0.496 -1.315,-0.691 -2.05,-0.811 1.273,-0.501 2.647,-0.14 3.881,0.29 0.415,0.202 0.782,0.54 0.931,0.986 0.102,0.297 -0.112,0.553 -0.25,0.794 0.864,0.091 1.815,0.292 2.386,1.008 0.447,0.486 0.502,1.204 0.307,1.812 0.741,-0.291 1.403,-0.798 1.821,-1.481 0.556,-0.816 0.668,-1.817 0.78,-2.772 -0.418,0.526 -0.89,1.034 -1.564,1.219 0.078,-0.432 0.062,-0.875 -0.258,-1.206 -0.168,-0.056 -0.334,-0.114 -0.5,-0.169 0.41,-1.461 -0.012,-3.055 -0.951,-4.223 -1.115,-1.439 -2.263,-2.852 -3.34,-4.32 -0.663,-0.896 -0.906656,-2.015 -0.915,-3.118 -0.307,0.56 -0.5,1.177 -0.564,1.814 0.041,0.23 0.083,0.459 0.134,0.688 1.017,1.566 2.396,2.88 3.267,4.544 0.288,0.574 0.54,1.18 0.616,1.823 -0.146,-0.077 -0.254,-0.188 -0.323,-0.333 C 13.37,10.7035 12.179,9.2515 10.98,7.8335 10.229,6.8945 9.447,5.9485 8.993,4.8215 8.7472607,4.1867117 8.8217645,3.5004245 8.85,2.9295 Z m 3.339,8.834 c 1.094,0.599 1.844,1.773 2.045,2.993 -0.406,-0.044 -0.872,-0.055 -1.165,-0.386 -0.499,-0.516 -0.815,-1.194 -0.967,-1.89 -0.063,-0.243 0.019,-0.486 0.087,-0.717 z"
     id="path5" />
</svg>
