<?xml version="1.0" encoding="UTF-8" standalone="no"?>
<!-- Generated by IcoMoon.io -->

<svg
   version="1.1"
   width="23.386"
   height="24.201136"
   viewBox="0 0 23.386 24.201136"
   id="svg6"
   sodipodi:docname="mid.svg"
   inkscape:version="1.1.1 (3bf5ae0d25, 2021-09-20)"
   xmlns:inkscape="http://www.inkscape.org/namespaces/inkscape"
   xmlns:sodipodi="http://sodipodi.sourceforge.net/DTD/sodipodi-0.dtd"
   xmlns="http://www.w3.org/2000/svg"
   xmlns:svg="http://www.w3.org/2000/svg">
  <defs
     id="defs10" />
  <sodipodi:namedview
     id="namedview8"
     pagecolor="#ffffff"
     bordercolor="#666666"
     borderopacity="1.0"
     inkscape:pageshadow="2"
     inkscape:pageopacity="0.0"
     inkscape:pagecheckerboard="0"
     showgrid="false"
     inkscape:zoom="22.627418"
     inkscape:cx="10.142562"
     inkscape:cy="13.412931"
     inkscape:window-width="1920"
     inkscape:window-height="1009"
     inkscape:window-x="-8"
     inkscape:window-y="-8"
     inkscape:window-maximized="1"
     inkscape:current-layer="svg6" />
  <title
     id="title2">xin4</title>
  <path
     fill="#010101"
     stroke="#000000"
     d="M 14.237001,15.334 C 11.289,15.687 8.983,16.94 7.316,19.092 c 0.517,-0.261 1.12,-0.349 1.811,-0.261 -1.376,0.97 -2.053,2.007 -2.03,3.111 1.006,-1.086 2.21,-1.538 3.615001,-1.356 -0.9480005,0.947 -1.1300005,2.046 -0.548,3.296 0.321,-0.966 0.84,-1.509 1.557,-1.628 0.517,1.408 1.684,2.053 3.501,1.933 -3.412,-2.797 -3.74,-5.748 -0.985,-8.853 z M 0.013,12.252 C 0.97,12.034 2.034,12.013 3.207,12.19 L 3.744,10.786 C 5.104,9.466 6.39,8.413 7.599,7.63 c 0.74,-0.049 1.55,-0.049 2.431,0 2.015001,-1.996 3.867001,-3.453 5.558,-4.371 l 1.079999,1.811 c 0.403,0.614 0.403,1.105 0,1.474 0.527001,0.578 0.641,1.335 0.344001,2.273 -0.144,-0.586 -0.468,-0.999 -0.972001,-1.238 0.182,0.781 0.11,1.44 -0.217999,1.978 -0.241,-0.63 -0.629,-1.059 -1.166,-1.286 0.085,1.315 -0.142,2.121 -0.68,2.417 -0.11,-0.305 -0.314,-0.504 -0.612,-0.595 -0.312999,-0.051 -0.671,-0.029 -0.943,0.241 -0.779999,0.757 -0.465,1.916 -0.03,2.191 0.382,0.306 0.852,0.366 1.408,0.18 0.528,-0.12 0.733999,-0.787 0.764,-1.267 0.457,0.408 0.646,0.841 0.564,1.302 0.664999,-0.41 1.022999,-1.087 1.074999,-2.03 0.37,0.389 0.481999,0.906 0.335,1.551 0.635001,-0.329 1.017,-1.032 1.146,-2.109 1.099001,1.54 1.469001,3.066 1.109,4.579 -0.426999,-0.624 -1.035,-0.687 -1.821001,-0.19 -1.167999,0.738 -2.610999,1.951 -2.983998,4.273 l -0.011,0.071 c -0.185,1.624 1.142,3.198 3.703999,2.595 0,0 0.1345,0.202562 -0.480499,0.7505 -1.4295,1.1355 -1.4215,1.1455 -1.4135,1.1555 0.528,0.648 1.177,1.038 1.947,1.169 -2.838,1.028 -4.916999,0.666 -6.238,-1.084 -0.6,0.365 -0.9,0.938 -0.9,1.719 -1.209,-0.563 -1.692,-1.775 -1.449,-3.638 0,0 -0.448,0.19 -1.749,1.489 -0.868,0.866 -2.156,1.178 -3.865,0.935 1.68,-0.772 2.549,-1.982 2.605,-3.632 -1.328,0.283 -0.797,0.481 -2.547,1.733 -1.167,0.834 -2.588,1.022 -4.265,0.563 1.214,-0.749 1.795,-1.619 1.745,-2.612 -0.95,0.609 -1.846,0.714 -2.686,0.317 v 0 c 0.97724179,-1.05829 1.753056,-1.12179 2.206,-2.062 0.371,-0.831 1.206,-1.264 2.506,-1.3 l 0.04,-0.001 -0.508,-0.567 c -1.084,0.427 -2.739,0.491 -3.36,-0.468 -0.41,-0.633 -1.304,-1.132 -2.681,-1.498 l -0.042,-0.011 c 0.782,-0.959 1.723,-1.627 2.825,-2.003 M 9.6079995,8.513 C 8.546,9.033 7.819,9.125 7.427,8.79 6.777,9.071 6.473,9.538 6.514,10.191 6.922,9.665 7.657,9.51 8.719,9.726 9.251,9.434 9.5469995,9.029 9.6089995,8.512 Z"
     id="path4-4"
     sodipodi:nodetypes="ccccccccccccccccccccccccccccccccccccccccccccccccsccccccccccccccc"
     style="stroke:none" />
  <metadata
     id="metadata1138" />
</svg>
