<?xml version="1.0" encoding="UTF-8" standalone="no"?>
<!-- Generated by IcoMoon.io -->

<svg
   version="1.1"
   width="31.973"
   height="20.805"
   viewBox="0 0 31.973 20.805"
   id="svg6"
   sodipodi:docname="wth.svg"
   inkscape:version="1.1.1 (3bf5ae0d25, 2021-09-20)"
   xmlns:inkscape="http://www.inkscape.org/namespaces/inkscape"
   xmlns:sodipodi="http://sodipodi.sourceforge.net/DTD/sodipodi-0.dtd"
   xmlns="http://www.w3.org/2000/svg"
   xmlns:svg="http://www.w3.org/2000/svg"
   xmlns:rdf="http://www.w3.org/1999/02/22-rdf-syntax-ns#"
   xmlns:cc="http://creativecommons.org/ns#"
   xmlns:dc="http://purl.org/dc/elements/1.1/">
  <defs
     id="defs10" />
  <sodipodi:namedview
     id="namedview8"
     pagecolor="#ffffff"
     bordercolor="#666666"
     borderopacity="1.0"
     inkscape:pageshadow="2"
     inkscape:pageopacity="0.0"
     inkscape:pagecheckerboard="0"
     showgrid="false"
     inkscape:zoom="32"
     inkscape:cx="10.828125"
     inkscape:cy="11.421875"
     inkscape:window-width="1920"
     inkscape:window-height="1009"
     inkscape:window-x="-8"
     inkscape:window-y="-8"
     inkscape:window-maximized="1"
     inkscape:current-layer="svg6" />
  <title
     id="title2">wth</title>
  <path
     fill="#FFFFFF"
     d="m 18.122,18.508 c 0,0 0.39,1.424 -2.391,1.424 -2.784,0 -2.331,-1.554 -2.331,-1.554 H 1.688 L 5.125,5.028 5.449,4.913 2.068,18.151 c 0,0 2.686,-0.571 4.022,-0.767 1.338,-0.199 7.377,-1.139 9.967,1.189 0,0 1.745,-0.904 5.434,-0.904 3.689,0 6.537,0.645 8.285,0.451 L 26.563,5.847 27.016,6.041 30.23,18.509 H 18.125 Z M 5.731,4.623 6.091,4.493 3.088,17.203 c 0,0 3.732,-0.837 6.777,-0.799 3.045,0.036 4.681,0.928 4.681,0.928 0,0 -2.526,-0.743 -5.089,-0.631 -2.563,0.11 -5.213,0.618 -6.959,1.026 L 5.73,4.622 Z M 6.362,4.234 6.758,4.09 3.924,16.329 c 0,0 2.192,-0.247 3.009,-0.371 0.852,-0.13 4.715,-0.928 8.17,1.225 0,0 -3.307,-1.338 -6.388,-1.041 -3.084,0.298 -4.346,0.559 -5.276,0.743 L 6.362,4.233 Z m 0.986,-1 0.664,0.551 -2.386,11.364 c 0,0 1.322,0.058 3.13,-0.314 1.772,-0.364 4.758,0.413 6.772,2.305 0,0 -3.062,-2.297 -7.369,-1.664 C 6.49,15.718 4.406,15.92 4.406,15.92 4.408,15.915 7.348,3.234 7.348,3.234 Z M 8.935,1.326 c 0,0 0.484,1.909 2.41,2.022 1.925,0.115 4.093,-1.47 4.58,1.829 0,0 -0.132,11.645 -0.132,11.648 0,-0.074 -0.348,-0.3 -0.396,-0.341 -0.362,-0.283 -0.75,-0.54 -1.149,-0.772 -1.182,-0.697 -2.511,-1.311 -3.897,-1.41 C 9.543,14.245 8.744,14.37 7.956,14.525 6.815,14.745 6.085,14.69 6.085,14.69 L 8.934,1.326 Z m 7.444,3.652 c 0.019,-0.005 0.029,-0.007 0.029,-0.007 0.021,-0.005 1.983,-0.506 3.657,-0.506 0.813,0 1.511,0.18 2.125,0.336 0.686,0.177 1.278,0.328 1.808,0.165 0.374,-0.115 0.753,-0.263 1.069,-0.398 l 3.477,12.453 c 0,0 -9.059,-1.554 -12.167,0.775 z m 9.779,0.539 3.227,12.376 c 0,0 -1.489,0 -4.952,-0.422 -3.463,-0.419 -7.28,0.262 -7.28,0.262 0,0 3.398,-1.652 11.81,-0.357 L 25.606,5.259 26.158,5.518 Z"
     />
</svg>
