<?xml version="1.0" encoding="UTF-8" standalone="no"?>
<!-- Generated by IcoMoon.io -->

<svg
   version="1.1"
   width="26.341999"
   height="20.263"
   viewBox="0 0 26.341999 20.263"
   id="svg6"
   sodipodi:docname="10e.svg"
   inkscape:version="1.1.1 (3bf5ae0d25, 2021-09-20)"
   xmlns:inkscape="http://www.inkscape.org/namespaces/inkscape"
   xmlns:sodipodi="http://sodipodi.sourceforge.net/DTD/sodipodi-0.dtd"
   xmlns="http://www.w3.org/2000/svg"
   xmlns:svg="http://www.w3.org/2000/svg">
  <defs
     id="defs10" />
  <sodipodi:namedview
     id="namedview8"
     pagecolor="#ffffff"
     bordercolor="#666666"
     borderopacity="1.0"
     inkscape:pageshadow="2"
     inkscape:pageopacity="0.0"
     inkscape:pagecheckerboard="0"
     showgrid="false"
     inkscape:zoom="25.75"
     inkscape:cx="13.456311"
     inkscape:cy="10.116505"
     inkscape:window-width="1920"
     inkscape:window-height="1009"
     inkscape:window-x="-8"
     inkscape:window-y="-8"
     inkscape:window-maximized="1"
     inkscape:current-layer="svg6" />
  <title
     id="title2">10e</title>
  <path
     fill="#000000"
     d="M 26.342,20.263 C 26.004,19.587 24.99,19.587 24.317,19.418 23.641,19.249 23.303,18.911 16.548,10.131 23.303,1.351 23.641,1.014 24.317,0.844 24.991,0.675 26.004,0.675 26.342,0 H 17.9 c 0,0.338 0,0.676 -0.256,1.265 C 17.393,1.856 16.886,2.701 13.17,7.429 9.458,2.701 8.951,1.857 8.697,1.265 8.444,0.676 8.444,0.338 8.444,0 H 0 C 0.338,0.676 1.351,0.676 2.027,0.844 2.701,1.013 3.041,1.351 9.793,10.131 3.04,18.911 2.7,19.249 2.027,19.418 1.351,19.587 0.338,19.587 0,20.263 h 8.444 c 0,-0.338 0,-0.676 0.253,-1.267 0.253,-0.591 0.76,-1.434 4.473,-6.164 3.716,4.73 4.223,5.572 4.474,6.164 0.256,0.591 0.256,0.929 0.256,1.267 z"
     id="path4" />
</svg>
