<?xml version="1.0" encoding="UTF-8" standalone="no"?>
<svg
   version="1.1"
   width="28.769531"
   height="21.763712"
   viewBox="0 0 28.769531 21.763711"
   id="svg63"
   xmlns:xlink="http://www.w3.org/1999/xlink"
   xmlns="http://www.w3.org/2000/svg"
   xmlns:svg="http://www.w3.org/2000/svg">
  <g
     id="path2-4"
     transform="translate(1.2128906,0.75)">
    <path
       style="color:#000000;fill:#000000;stroke-width:1.5;-inkscape-stroke:none"
       d="M 26.342,20.263 C 26.004,19.587 24.99,19.587 24.317,19.418 23.641,19.249 23.303,18.911 16.548,10.131 23.303,1.351 23.641,1.014 24.317,0.844 24.991,0.675 26.004,0.675 26.342,0 H 17.9 c 0,0.338 0,0.676 -0.256,1.265 C 17.393,1.856 16.886,2.701 13.17,7.429 9.458,2.701 8.951,1.857 8.697,1.265 8.444,0.676 8.444,0.338 8.444,0 H 0 C 0.338,0.676 1.351,0.676 2.027,0.844 2.701,1.013 3.041,1.351 9.793,10.131 3.04,18.911 2.7,19.249 2.027,19.418 1.351,19.587 0.338,19.587 0,20.263 h 8.444 c 0,-0.338 0,-0.676 0.253,-1.267 0.253,-0.591 0.76,-1.434 4.473,-6.164 3.716,4.73 4.223,5.572 4.474,6.164 0.256,0.591 0.256,0.929 0.256,1.267 z"
       id="path1012" />
    <path
       style="color:#000000;fill:url(#linearGradient1000);-inkscape-stroke:none"
       d="m -1.2128906,-0.75 0.54296873,1.0859375 c 0.30303146,0.60606293 0.88691575,0.8699149 1.35546874,1 0.46779563,0.1298748 0.90511233,0.17364 1.15820313,0.2363281 0.1257223,0.031524 0.088197,8.362e-4 0.2519531,0.1367188 0.1637557,0.1358826 0.4658053,0.4452871 0.9609375,1.0332031 0.9326035,1.107366 2.7793461,3.4832392 5.7851563,7.3886715 -3.0062534,3.905433 -4.8525159,6.281263 -5.7851563,7.388672 -0.4951517,0.58794 -0.7972105,0.897271 -0.9609375,1.033203 -0.1622167,0.134678 -0.1286698,0.106616 -0.25,0.136719 -0.2524833,0.06312 -0.6917565,0.108085 -1.16015623,0.238281 -0.46839972,0.130197 -1.05243728,0.393937 -1.35546874,1 l -0.54296873,1.085938 h 10.40625 v -0.75 c 0,-0.338 -0.018926,-0.476764 0.1933594,-0.972656 0.1833084,-0.428203 1.2878482,-1.964816 3.7832032,-5.1875 2.496953,3.222224 3.602325,4.758935 3.783203,5.185546 l 0.002,0.002 v 0.0039 c 0.214544,0.495296 0.195313,0.63075 0.195313,0.96875 v 0.75 h 10.404296 l -0.541015,-1.085938 c -0.303164,-0.606327 -0.889243,-0.869821 -1.357422,-1 C 25.188071,18.797556 24.750202,18.754236 24.5,18.691406 l -0.002,-0.002 c -0.1262,-0.03155 -0.0882,-9.18e-4 -0.251953,-0.136719 -0.16371,-0.135754 -0.465695,-0.445236 -0.960891,-1.033156 C 22.352432,16.412159 20.507113,14.036323 17.5,10.130859 20.507104,6.2254329 22.352433,3.8494446 23.285156,2.7421875 23.780352,2.1543293 24.082224,1.8449127 24.246094,1.7089844 24.409964,1.5730561 24.373503,1.6040771 24.5,1.5722656 24.75102,1.5093244 25.188268,1.4639964 25.65625,1.3339844 26.124232,1.2039724 26.708409,0.94165893 27.011719,0.3359375 L 27.556641,-0.75 H 17.150391 V 0 c 0,0.33799966 0.02083,0.47399712 -0.19336,0.96679688 l -0.002,0.001953 -0.002,0.003906 C 16.771893,1.3993824 15.666541,2.9352219 13.169922,6.15625 10.676679,2.9365415 9.571173,1.398659 9.3867188,0.96875 9.1747844,0.47535332 9.1933594,0.33799966 9.1933594,0 v -0.75 z m 4.4511719,1.5 H 7.84375 C 7.884161,1.019135 7.855048,1.2049025 8.0078125,1.5605469 8.3025585,2.247514 8.861794,3.156574 12.580078,7.8925781 l 0.589844,0.75 0.589844,-0.75 C 17.48081,3.1581597 18.039445,2.2491801 18.332031,1.5605469 18.485679,1.2058109 18.457318,1.0189596 18.498047,0.75 h 4.607422 C 22.841175,0.99149352 22.574041,1.2585547 22.138672,1.7753906 21.102316,3.0056718 19.33148,5.2827165 15.953125,9.6738281 l -0.351562,0.4570309 0.351562,0.457032 c 3.378347,4.3911 5.149191,6.668028 6.185547,7.898437 0.436222,0.517902 0.704029,0.78571 0.96875,1.027344 h -4.609375 c -0.04053,-0.268494 -0.01126,-0.455847 -0.164063,-0.810547 l -0.002,-0.002 c -0.293002,-0.690777 -0.85133,-1.595749 -4.572265,-6.332031 l -0.589844,-0.751953 -0.589844,0.751953 C 8.8608323,17.107097 8.3019282,18.014127 8.0078125,18.701172 7.8550614,19.057994 7.884076,19.244253 7.84375,19.513672 H 3.2363281 C 3.5006895,19.272144 3.7670368,19.004136 4.203125,18.486328 5.2393194,17.255959 7.0093492,14.979021 10.386719,10.587891 L 10.738281,10.130859 10.386719,9.6738281 C 7.0098488,5.2826968 5.2413117,3.0058062 4.2050781,1.7753906 3.7697607,1.2584982 3.5024621,0.99146798 3.2382813,0.75 Z"
       id="path1014" />
  </g>
  <path
     fill="#000000"
     d="m 27.554891,21.013 c -0.338,-0.676 -1.352,-0.676 -2.025,-0.845 -0.676,-0.169 -1.014,-0.507 -7.769,-9.287 6.755,-8.78 7.093,-9.117 7.769,-9.287 0.674,-0.169 1.687,-0.169 2.025,-0.844 h -8.442 c 0,0.338 0,0.676 -0.256,1.265 -0.251,0.591 -0.758,1.436 -4.474,6.164 -3.712,-4.728 -4.219,-5.572 -4.4730004,-6.164 -0.253,-0.589 -0.253,-0.927 -0.253,-1.265 h -8.444 c 0.338,0.676 1.351,0.676 2.027,0.844 0.674,0.169 1.014,0.507 7.7660004,9.287 -6.7530004,8.78 -7.0930004,9.118 -7.7660004,9.287 -0.676,0.169 -1.689,0.169 -2.027,0.845 h 8.444 c 0,-0.338 0,-0.676 0.253,-1.267 0.2530004,-0.591 0.7600004,-1.434 4.4730004,-6.164 3.716,4.73 4.223,5.572 4.474,6.164 0.256,0.591 0.256,0.929 0.256,1.267 z"
     id="path2"
     style="fill:url(#linearGradient1008);fill-opacity:1" />
  <defs
     id="defs61">
    <!-- This is the gradient that will actually be used on
     the cards. The colors themselves will be provided by the
     template, but the x values, y values, and offsets will be
     used from the SVG. -->
    <linearGradient
       id="rarity"
       x1="0"
       y1="1"
       x2="1"
       y2="0">
      <stop
         offset="0"
         style="stop-color:rgb(192,55,38);stop-opacity:1"
         id="stop2" />
      <stop
         offset="0.125"
         style="stop-color:rgb(192,55,38);stop-opacity:1"
         id="stop4" />
      <stop
         offset="0.5"
         style="stop-color:rgb(241,142,30);stop-opacity:1"
         id="stop6" />
      <stop
         offset="0.875"
         style="stop-color:rgb(192,55,38);stop-opacity:1"
         id="stop8" />
      <stop
         offset="1"
         style="stop-color:rgb(192,55,38);stop-opacity:1"
         id="stop10" />
    </linearGradient>
    <!-- These gradients are here so that you can visualize
     what the set symbol would like like in that rarity. The
     only gradient that matters in the end is the "rarity"
     gradient. -->
    <linearGradient
       id="mythic"
       x1="0"
       y1="1"
       x2="1"
       y2="0">
      <stop
         offset="0"
         style="stop-color:rgb(192,55,38);stop-opacity:1"
         id="stop11" />
      <stop
         offset="0.125"
         style="stop-color:rgb(192,55,38);stop-opacity:1"
         id="stop13" />
      <stop
         offset="0.5"
         style="stop-color:rgb(241,142,30);stop-opacity:1"
         id="stop15" />
      <stop
         offset="0.875"
         style="stop-color:rgb(192,55,38);stop-opacity:1"
         id="stop17" />
      <stop
         offset="1"
         style="stop-color:rgb(192,55,38);stop-opacity:1"
         id="stop19" />
    </linearGradient>
    <linearGradient
       id="rare"
       x1="0"
       y1="1"
       x2="1"
       y2="0">
      <stop
         offset="0"
         style="stop-color:rgb(146,116,67);stop-opacity:1"
         id="stop22" />
      <stop
         offset="0.125"
         style="stop-color:rgb(146,116,67);stop-opacity:1"
         id="stop24" />
      <stop
         offset="0.5"
         style="stop-color:rgb(211,178,108);stop-opacity:1"
         id="stop26" />
      <stop
         offset="0.875"
         style="stop-color:rgb(146,116,67);stop-opacity:1"
         id="stop28" />
      <stop
         offset="1"
         style="stop-color:rgb(146,116,67);stop-opacity:1"
         id="stop30" />
    </linearGradient>
    <linearGradient
       id="special"
       x1="0"
       y1="1"
       x2="1"
       y2="0">
      <stop
         offset="0"
         style="stop-color:rgb(76, 56, 106);stop-opacity:1"
         id="stop33" />
      <stop
         offset="0.125"
         style="stop-color:rgb(76, 56, 106);stop-opacity:1"
         id="stop35" />
      <stop
         offset="0.5"
         style="stop-color:rgb(201, 173, 221);stop-opacity:1"
         id="stop37" />
      <stop
         offset="0.875"
         style="stop-color:rgb(76, 56, 106);stop-opacity:1"
         id="stop39" />
      <stop
         offset="1"
         style="stop-color:rgb(76, 56, 106);stop-opacity:1"
         id="stop41" />
    </linearGradient>
    <linearGradient
       id="uncommon"
       x1="0"
       y1="1"
       x2="1"
       y2="0">
      <stop
         offset="0"
         style="stop-color:rgb(98,110,119);stop-opacity:1"
         id="stop44" />
      <stop
         offset="0.125"
         style="stop-color:rgb(98,110,119);stop-opacity:1"
         id="stop46" />
      <stop
         offset="0.5"
         style="stop-color:rgb(196,222,238);stop-opacity:1"
         id="stop48" />
      <stop
         offset="0.875"
         style="stop-color:rgb(98,110,119);stop-opacity:1"
         id="stop50" />
      <stop
         offset="1"
         style="stop-color:rgb(98,110,119);stop-opacity:1"
         id="stop52" />
    </linearGradient>
    <linearGradient
       id="common"
       x1="0"
       y1="1"
       x2="1"
       y2="0">
      <stop
         offset="0"
         style="stop-color:rgb(0,0,0);stop-opacity:1"
         id="stop55" />
    </linearGradient>
    <linearGradient
       id="rarity-outline"
       x1="0"
       y1="1"
       x2="0"
       y2="1">
      <stop
         offset="0"
         style="stop-color:rgb(0,0,0);stop-opacity:1"
         id="stop58" />
    </linearGradient>
    <linearGradient
       xlink:href="#rarity-outline"
       id="linearGradient1000"
       x1="-0.809017"
       y1="10.1315"
       x2="27.151552"
       y2="10.1315"
       gradientUnits="userSpaceOnUse" />
    <linearGradient
       xlink:href="#rarity"
       id="linearGradient1008"
       x1="0"
       y1="10.1315"
       x2="26.341999"
       y2="10.1315"
       gradientUnits="userSpaceOnUse"
       gradientTransform="translate(1.2128906,0.75)" />
  </defs>
</svg>
