<?xml version="1.0" encoding="UTF-8" standalone="no"?>
<svg
   version="1.1"
   width="33.442787"
   height="28.304539"
   viewBox="0 0 33.442787 28.304539"
   id="svg71"
   xmlns="http://www.w3.org/2000/svg"
   xmlns:svg="http://www.w3.org/2000/svg">
  <path
     style="fill:url(#rarity-outline)"
     d="m 9.8310738,0 -0.041016,0.003906 c 0,0 -0.5810664,0.0572179 -1.1601563,0.41992187 C 8.1775473,0.70715344 7.7886945,1.3100224 7.6025582,2.0625 l -5.9179687,1.6503906 -0.035156,0.011719 c 0,0 -0.5766638,0.2243882 -1.0332031,0.7851562 -0.45653927,0.5607681 -0.79673157,1.5216328 -0.51171875,2.7382813 l 0.001953,0.011719 5.22265625,19.4863281 0.087891,0.115234 c 0,0 0.3278938,0.443187 0.8554688,0.832031 0.5275749,0.388845 1.3599432,0.793631 2.3007812,0.523438 l 8.1503904,-2.240235 8.148437,2.240235 c 0.940838,0.270193 1.773207,-0.134593 2.300781,-0.523438 0.527575,-0.388844 0.855469,-0.832031 0.855469,-0.832031 L 28.11623,26.746094 33.33498,7.2597656 33.336933,7.25 C 33.623755,6.0338268 33.285269,5.070861 32.82912,4.5097656 32.372972,3.9486702 31.795917,3.7246094 31.795917,3.7246094 L 31.762714,3.7128906 25.842792,2.0625 C 25.656445,1.3097591 25.266262,0.70707553 24.813495,0.42382812 24.233935,0.06125928 23.653339,0.00390625 23.653339,0.00390625 L 23.612324,0 h -0.04102 z"
     id="path2" />
  <path
     style="fill:url(#rarity)"
     d="m 23.571674,0.75 c 0,0 1.688,0.183 1.688,1.929 l 6.266,1.746 c 0,0 1.565,0.604 1.082,2.652 l -5.179,19.335 c 0,0 -1.085,1.447 -2.349,1.084 l -8.356,-2.298 -8.3579998,2.298 c -1.264,0.363 -2.349,-1.084 -2.349,-1.084 L 0.83467423,7.077 c -0.48,-2.049 1.08499997,-2.652 1.08499997,-2.652 l 6.266,-1.746 c 0,-1.746 1.686,-1.929 1.686,-1.929 z"
     id="path4" />
  <path
     style="fill:url(#rarity-outline)"
     d="M 23.516674,1.4740003 H 9.9276742 c -0.08,0.014 -0.32,0.068 -0.549,0.22 -0.32,0.215 -0.472,0.527 -0.472,0.985 v 0.549 c 0,0 -6.647,1.854 -6.744,1.88 -0.172,0.08 -0.696,0.395 -0.696,1.227 0,0.169 0.023,0.358 0.072,0.57 0.012,0.034 5.053,18.8619997 5.136,19.1649997 0.22,0.249 0.875,0.907 1.491,0.73 l 8.5579998,-2.355 8.553,2.355 c 0.618,0.177 1.271,-0.48 1.494,-0.73 0.084,-0.303 5.128,-19.1309997 5.136,-19.1649997 0.048,-0.212 0.072,-0.401 0.072,-0.57 0,-0.832 -0.524,-1.147 -0.696,-1.227 -0.097,-0.026 -6.744,-1.88 -6.744,-1.88 v -0.549 c 0,-0.458 -0.152,-0.77 -0.472,-0.985 -0.226,-0.152 -0.47,-0.206 -0.549,-0.22 v 0 z m -14.7539998,2.716 V 22.783 c 0,0 0.158,1.205 1.124,1.205 h 5.2189998 l -6.9869998,1.929 c 0,0 -0.401,0.2 -0.604,-0.24 l -5.139,-19.0769997 c 0,0 -0.2,-0.601 0.281,-0.761 l 6.106,-1.648 z m 15.9179998,-0.04 6.103,1.648 c 0.483,0.16 0.283,0.761 0.283,0.761 L 25.924674,25.633 c -0.2,0.443 -0.601,0.243 -0.601,0.243 l -6.987,-1.929 h 5.219 c 0.964,0 1.124,-1.204 1.124,-1.204 V 4.1500003 Z m -1.221,-1.806 c 0.28,0 0.32,0.36 0.32,0.36 V 22.702 c 0,0.32 -0.32,0.401 -0.32,0.401 h -13.452 c -0.2829998,0 -0.2829998,-0.401 -0.2829998,-0.401 V 2.7040003 c 0,-0.24 0.2829998,-0.36 0.2829998,-0.36 z"
     id="path6" />
  <path
          d="m 20.861394,7.056 c -0.263,0 -0.65,0.037 -1.159,0.112 -0.509,0.075 -0.801,0.129 -0.876,0.163 -0.074,0.034 -0.112,0.08 -0.112,0.137 0,0.069 0.123,0.22 0.369,0.455 0.246,0.235 0.395,0.446 0.446,0.635 0.052,0.189 0.083,0.341 0.095,0.455 0.012,0.114 0.017,0.275 0.017,0.481 v 0.361 c 0,0.263 0.009,0.575 0.026,0.936 0.017,0.361 0.051,0.81 0.103,1.348 0.052,0.538 0.077,1.07 0.077,1.597 0,0.63 -0.034,1.151 -0.103,1.563 -0.069,0.412 -0.172,0.784 -0.309,1.116 -0.275,0.492 -0.675,0.844 -1.201999,1.056 -0.527001,0.212 -1.070001,0.318 -1.631001,0.318 -0.16,0 -0.557999,-0.037 -1.192999,-0.112 -0.635,-0.075 -1.122,-0.575 -1.460001,-1.503 -0.337999,-0.927 -0.507,-2.335 -0.507,-4.224 0,-0.343 0.003,-0.687 0.009,-1.03 0.006,-0.343 0.009,-0.693 0.009,-1.047 0.012,-0.32 0.023,-0.658 0.034,-1.013 0.011,-0.355 0.017,-0.704 0.017,-1.047 0,-0.343 -0.049,-0.538 -0.146001,-0.584 -0.097,-0.046 -0.192,-0.069 -0.282999,-0.069 -0.366001,0.08 -0.744,0.155 -1.133001,0.223 -0.388999,0.068 -0.863999,0.103 -1.424999,0.103 0,0.24 0.18,0.458 0.540999,0.652 0.361,0.194 0.575001,0.444 0.644,0.747 0.069,0.303 0.109,0.538 0.120001,0.704 0.011,0.166 0.017,0.65 0.017,1.451 v 1.906 c 0,1.602 0.086,2.77 0.258001,3.503 0.171999,0.733 0.446,1.282 0.823999,1.648 0.378,0.366 0.747,0.627 1.107,0.781 0.36,0.154 0.747,0.232 1.159001,0.232 0.640999,-0.092 1.229999,-0.172 1.767999,-0.241 0.538,-0.069 1.039,-0.281 1.502,-0.635 0.463,-0.354 0.89,-0.71 1.279,-1.064 0.172,-0.034 0.335,0.123 0.489,0.472 0.154,0.349 0.358,0.609 0.609,0.781 0.251,0.172 0.444,0.278 0.575,0.318 0.132,0.04 0.278,0.06 0.438,0.06 0.275,0 0.512,-0.069 0.712,-0.206 0.2,-0.137 0.318,-0.281 0.352,-0.429 -0.721,-0.229 -1.179,-0.615 -1.373,-1.159 -0.194,-0.544 -0.292,-1.399 -0.292,-2.567 V 8.327 c 0,-0.744 -0.037,-1.142 -0.112,-1.193 -0.075,-0.051 -0.169,-0.077 -0.283,-0.077 z"
          style="fill:url(#rarity-outline);fill-opacity:1.0"
          id="path888" />
  <defs>
    <!-- This is the gradient that will actually be used on
     the cards. The colors themselves will be provided by the
     template, but the x values, y values, and offsets will be
     used from the SVG. -->
    <linearGradient id="rarity" x1="0" y1="1" x2="1" y2="0">
      <stop offset="0" style="stop-color:rgb(192,55,38);stop-opacity:1" id="stop2" />
      <stop offset="0.125" style="stop-color:rgb(192,55,38);stop-opacity:1" id="stop4" />
      <stop offset="0.5" style="stop-color:rgb(241,142,30);stop-opacity:1" id="stop6" />
      <stop offset="0.875" style="stop-color:rgb(192,55,38);stop-opacity:1" id="stop8" />
      <stop offset="1" style="stop-color:rgb(192,55,38);stop-opacity:1" id="stop10" />
    </linearGradient>
    <!-- These gradients are here so that you can visualize
     what the set symbol would like like in that rarity. The
     only gradient that matters in the end is the "rarity"
     gradient. -->
    <linearGradient id="mythic" x1="0" y1="1" x2="1" y2="0">
      <stop offset="0" style="stop-color:rgb(192,55,38);stop-opacity:1"/>
      <stop offset="0.125" style="stop-color:rgb(192,55,38);stop-opacity:1"/>
      <stop offset="0.5" style="stop-color:rgb(241,142,30);stop-opacity:1"/>
      <stop offset="0.875" style="stop-color:rgb(192,55,38);stop-opacity:1"/>
      <stop offset="1" style="stop-color:rgb(192,55,38);stop-opacity:1"/>
    </linearGradient>
    <linearGradient id="rare" x1="0" y1="1" x2="1" y2="0">
      <stop offset="0" style="stop-color:rgb(146,116,67);stop-opacity:1"/>
      <stop offset="0.125" style="stop-color:rgb(146,116,67);stop-opacity:1"/>
      <stop offset="0.5" style="stop-color:rgb(211,178,108);stop-opacity:1"/>
      <stop offset="0.875" style="stop-color:rgb(146,116,67);stop-opacity:1"/>
      <stop offset="1" style="stop-color:rgb(146,116,67);stop-opacity:1"/>
    </linearGradient>
    <linearGradient id="special" x1="0" y1="1" x2="1" y2="0">
      <stop offset="0" style="stop-color:rgb(76, 56, 106);stop-opacity:1"/>
      <stop offset="0.125" style="stop-color:rgb(76, 56, 106);stop-opacity:1"/>
      <stop offset="0.5" style="stop-color:rgb(201, 173, 221);stop-opacity:1"/>
      <stop offset="0.875" style="stop-color:rgb(76, 56, 106);stop-opacity:1"/>
      <stop offset="1" style="stop-color:rgb(76, 56, 106);stop-opacity:1"/>
    </linearGradient>
    <linearGradient id="uncommon" x1="0" y1="1" x2="1" y2="0">
      <stop offset="0" style="stop-color:rgb(98,110,119);stop-opacity:1"/>
      <stop offset="0.125" style="stop-color:rgb(98,110,119);stop-opacity:1"/>
      <stop offset="0.5" style="stop-color:rgb(196,222,238);stop-opacity:1"/>
      <stop offset="0.875" style="stop-color:rgb(98,110,119);stop-opacity:1"/>
      <stop offset="1" style="stop-color:rgb(98,110,119);stop-opacity:1"/>
    </linearGradient>
    <linearGradient id="common" x1="0" y1="1" x2="1" y2="0">
      <stop offset="0" style="stop-color:rgb(0,0,0);stop-opacity:1"/>
    </linearGradient>
    <linearGradient
       id="rarity-outline" x1="0" y1="1" x2="0" y2="1">
      <stop offset="0" style="stop-color:rgb(0,0,0);stop-opacity:1"/>
    </linearGradient>
  </defs>
</svg>
