<?xml version="1.0" encoding="UTF-8" standalone="no"?>
<svg
        version="1.1"
        width="32.874161"
        height="20.875349"
        viewBox="0 0 32.87416 20.875349"
        id="svg6"
        xmlns="http://www.w3.org/2000/svg"
>
  <g
     id="path4-1">
    <path
       style="color:#000000;fill:url(#rarity-outline);stroke-miterlimit:5;-inkscape-stroke:none"
       d="m 0.5150789,10.922848 c 0.136,0.163 0.277,0.306 0.425,0.477 0.625,0.729 1.417,1.35 2.185,1.922 0.683,0.483 1.416,0.917 2.224,1.151 0.732,0.191 1.5,0.212 2.249,0.123 0.565,-0.047 1.131,-0.104 1.682,-0.241 0.287,-0.064 0.572,-0.155 0.8680001,-0.164 l 0.007,0.002 1.623,1.59 c -0.891,0.536 -1.638,1.297 -2.2130001,2.16 -0.212,0.293 -0.114,0.139 -0.295,0.464 -0.117,0.236 -0.08,0.145 -0.128,0.267 -0.27,0.497 -0.454,1.027 -0.592,1.573 -1.566,-0.468 -3.162,-1.175 -4.406,-2.255 -0.463,-0.381 -0.878,-0.801 -1.244,-1.279 -0.753,-0.991 -1.341,-2.151 -1.754,-3.316 -0.202,-0.57 -0.326,-0.846 -0.519,-1.593 -0.064,-0.248 -0.128,-0.767 -0.127,-0.863 l 0.015,-0.016 z m 31.8440001,0 v 0 c -0.139,0.161 -0.284,0.317 -0.425,0.477 -0.625,0.729 -1.417,1.35 -2.185,1.922 -0.683,0.483 -1.416,0.917 -2.224,1.151 -0.732,0.191 -1.5,0.212 -2.249,0.123 -0.565,-0.047 -1.131,-0.104 -1.682,-0.241 -0.287,-0.064 -0.572,-0.155 -0.868,-0.164 l -0.007,0.002 -1.623,1.59 c 0.891,0.536 1.638,1.297 2.213,2.16 0.212,0.293 0.113,0.139 0.295,0.464 0.117,0.236 0.08,0.145 0.128,0.267 0.27,0.497 0.454,1.027 0.592,1.573 1.566,-0.468 3.162,-1.175 4.406,-2.255 0.463,-0.381 0.878,-0.801 1.244,-1.279 0.753,-0.991 1.341,-2.151 1.754,-3.316 0.202,-0.57 0.326,-0.846 0.519,-1.593 0.064,-0.248 0.128,-0.767 0.127,-0.863 l -0.015,-0.016 z m -15.922,-4.4579996 4.462,3.9719996 -4.462,3.972 -4.462,-3.972 z m -0.066,-4.769 c -0.093,0.048 -0.172,0.119 -0.241,0.2 -1.023,1.085 -2.107,2.11 -3.127,3.198 -0.995,1.072 -2.14,1.987 -3.2600001,2.923 -0.807,0.685 -1.618,1.367 -2.469,1.9989996 -0.102,0.1 -0.295,0.195 -0.248,0.366 0.241,0.288 0.579,0.473 0.859,0.721 0.998,0.81 2.008,1.606 2.9640001,2.466 0.915,0.895 1.816,1.804 2.701,2.728 0.844,0.898 1.742,1.743 2.582,2.643 0.077,0.071 0.179,0.203 0.286,0.228 0.133,0 0.232,-0.147 0.323,-0.228 0.841,-0.9 1.738,-1.746 2.582,-2.643 0.885,-0.924 1.786,-1.833 2.701,-2.728 0.956,-0.86 1.966,-1.657 2.965,-2.466 0.28,-0.248 0.617,-0.433 0.858,-0.721 0.047,-0.171 -0.146,-0.266 -0.248,-0.366 -0.851,-0.6319996 -1.662,-1.3129996 -2.469,-1.9989996 -1.12,-0.936 -2.265,-1.852 -3.26,-2.923 -1.019,-1.089 -2.104,-2.114 -3.127,-3.198 -0.07,-0.081 -0.151,-0.164 -0.244,-0.212 -0.04509,-0.034797 -0.08444,0.00792 -0.128,0.012 z M 8.5500789,0.62884841 c -1.566,0.46799999 -3.162,1.17499999 -4.406,2.25499999 -0.463,0.381 -0.878,0.801 -1.244,1.28 -0.753,0.991 -1.341,2.151 -1.754,3.316 -0.202,0.57 -0.326,0.846 -0.519,1.593 -0.064,0.248 -0.128,0.767 -0.127,0.863 l 0.015,0.016 c 0.136,-0.164 0.277,-0.306 0.425,-0.477 0.625,-0.729 1.417,-1.35 2.185,-1.922 0.683,-0.483 1.416,-0.917 2.224,-1.151 0.732,-0.191 1.5,-0.212 2.249,-0.123 0.565,0.047 1.131,0.104 1.682,0.241 0.226,0.054 0.455,0.117 0.685,0.147 l 1.7770001,-1.597 c -0.874,-0.545 -1.607,-1.28 -2.1770001,-2.138 -0.212,-0.293 -0.114,-0.139 -0.295,-0.464 -0.117,-0.236 -0.08,-0.145 -0.128,-0.267 -0.2870361,-0.5177353 -0.4370692,-1.1009612 -0.592,-1.57199999 z m 15.7740001,0 c -0.137,0.54599999 -0.322,1.07699999 -0.592,1.57299999 -0.048,0.122 -0.011,0.031 -0.128,0.267 -0.181,0.325 -0.082,0.171 -0.295,0.464 -0.589,0.839 -1.285,1.607 -2.175,2.136 l 1.779,1.598 c 0.231,-0.021 0.454,-0.1 0.681,-0.147 0.551,-0.137 1.117,-0.194 1.682,-0.241 0.749,-0.089 1.517,-0.068 2.249,0.123 0.808,0.234 1.54,0.668 2.224,1.151 0.768,0.573 1.56,1.194 2.185,1.922 0.148,0.17 0.29,0.313 0.425,0.477 l 0.015,-0.016 c 10e-4,-0.095 -0.064,-0.614 -0.127,-0.863 -0.192,-0.748 -0.317,-1.024 -0.519,-1.593 -0.413,-1.166 -1.002,-2.325 -1.754,-3.316 -0.366,-0.478 -0.781,-0.899 -1.244,-1.28 -1.245,-1.08 -2.841,-1.787 -4.406,-2.25499999 z"
       id="path1305" />
    <path
       style="color:#000000;fill:url(#rarity-outline);stroke-miterlimit:5;-inkscape-stroke:none"
       d="m 23.966797,0 -0.126953,0.5078125 c -0.129765,0.5171633 -0.302666,1.0064569 -0.546875,1.4550781 l -0.01563,0.027344 -0.0098,0.029297 c -0.02452,0.062317 -0.01311,0.034319 -0.01758,0.042969 -0.0041,0.00792 -0.03542,0.06675 -0.08594,0.1679688 -0.174234,0.3137685 -0.04423,0.1117198 -0.259765,0.4082031 l -0.002,0.00391 -0.002,0.00391 C 22.335375,3.4513199 21.684614,4.159774 20.878906,4.6386719 l -0.46289,0.2753906 C 20.361381,4.8571188 20.289961,4.8116358 20.236328,4.7539062 v -0.00195 h -0.002 C 19.206126,3.6530689 18.126972,2.6330705 17.121094,1.5683594 17.04777,1.4835128 16.932057,1.3771143 16.779297,1.2832031 16.622719,1.1814668 16.378028,1.1751424 16.289062,1.2011719 l -0.06055,0.00586 -0.08594,0.044922 C 15.973559,1.3391887 15.847637,1.4576479 15.75,1.5722656 l 0.01563,-0.019531 c -1.009881,1.0710863 -2.09323,2.0965806 -3.126953,3.1992187 h -0.002 v 0.00195 c -0.05608,0.060421 -0.130325,0.1084181 -0.1875,0.1679688 L 12.005859,4.6464844 C 11.196621,4.141868 10.515922,3.4573549 9.9824219,2.6542969 l -0.00586,-0.00781 -0.00586,-0.00781 C 9.755951,2.3418683 9.8848576,2.5436177 9.7109375,2.2304688 c -0.00253,-0.00456 -0.00124,-0.00108 -0.00391,-0.00586 C 9.6602419,2.1311252 9.6289416,2.0701233 9.625,2.0625 c -0.00447,-0.00865 0.00694,0.017396 -0.017578,-0.044922 l -0.011719,-0.03125 -0.015625,-0.027344 C 9.3344261,1.5158947 9.1886607,0.96904902 9.0253906,0.47265625 L 8.8730469,0.00976563 8.40625,0.15039062 C 6.8010178,0.63011519 5.1469141,1.3548078 3.8261719,2.4980469 c -0.00142,0.00117 -0.00248,0.00273 -0.00391,0.00391 C 3.334933,2.9034598 2.8919125,3.3490183 2.5019531,3.859375 v 0.00195 C 1.7111,4.9021455 1.103794,6.1051517 0.67578125,7.3125 h -0.001953 C 0.47637336,7.8696743 0.3410915,8.1789263 0.14257812,8.9472656 0.09956728,9.1139326 0.06826917,9.3091237 0.04296875,9.4921875 c -0.0041839,0.030273 -0.003981,0.047958 -0.0078125,0.074219 L 0.015625,9.5429688 v 0.234375 C 0.01122027,9.8274148 -6.4092065e-4,9.8798779 0,9.9414063 l 0.00195313,0.1953127 0.01367187,0.01367 v 0.576172 L 0.00195313,10.740234 0,10.935547 c -0.00175497,0.168477 0.01766833,0.266155 0.04296875,0.449219 0.02530042,0.183063 0.05659853,0.378254 0.09960937,0.544922 0.19851338,0.768339 0.33379524,1.077591 0.53125,1.634765 h 0.001953 C 1.103794,14.771801 1.7111,15.974808 2.5019531,17.015625 l 0.00195,0.002 c 0.3881195,0.506888 0.8277,0.951419 1.3125,1.351563 1.322293,1.147971 2.9807776,1.876551 4.5898437,2.357421 l 0.5,0.148438 0.1289063,-0.505859 c 0.1309629,-0.518158 0.3025667,-1.007324 0.546875,-1.457032 l 0.013672,-0.02734 0.011719,-0.02734 c 0.024518,-0.06232 0.013106,-0.03627 0.017578,-0.04492 0.00394,-0.0076 0.035242,-0.06863 0.082031,-0.162109 l 0.00391,-0.0059 c 0.1739201,-0.313149 0.045013,-0.111399 0.2597656,-0.408203 l 0.00586,-0.0078 0.00391,-0.0078 C 10.519877,17.411122 11.217511,16.702809 12.035156,16.210937 L 12.492188,15.9375 c 0.230673,0.236644 0.468727,0.466469 0.697265,0.705078 0.856847,0.911339 1.752174,1.755817 2.576172,2.638672 l 0.01367,0.01367 0.01367,0.01172 c 0.0059,0.0054 0.05737,0.06267 0.130859,0.130859 0.07349,0.06818 0.171785,0.167948 0.380859,0.216797 l 0.05664,0.01367 h 0.05664 c 0.25071,0 0.417978,-0.129373 0.509765,-0.210938 0.09179,-0.08156 0.145927,-0.144034 0.146485,-0.144531 l 0.01563,-0.01367 0.01563,-0.01758 c 0.825391,-0.883297 1.721652,-1.728735 2.578125,-2.638672 l 0.0039,-0.0039 c 0.227594,-0.2376 0.465602,-0.465521 0.695312,-0.701172 l 0.455079,0.273437 c 0.817645,0.491872 1.515279,1.200185 2.054687,2.009766 l 0.0059,0.0078 0.0059,0.0078 c 0.214321,0.296207 0.08469,0.09471 0.259765,0.408203 0.0025,0.0046 0.0012,0.0011 0.0039,0.0059 0.04679,0.09348 0.07809,0.154486 0.08203,0.162109 0.0045,0.0086 -0.0069,-0.0174 0.01758,0.04492 l 0.0098,0.02734 0.01563,0.02734 c 0.244308,0.449708 0.415912,0.938874 0.546875,1.457032 l 0.126953,0.505859 0.5,-0.148438 c 1.606899,-0.480222 3.26452,-1.20822 4.585937,-2.353515 0.486489,-0.401053 0.929101,-0.847093 1.31836,-1.355469 v -0.002 h 0.002 c 0.790853,-1.040817 1.398159,-2.243824 1.826172,-3.451172 0.197455,-0.557174 0.332736,-0.866426 0.53125,-1.634765 0.04301,-0.166668 0.07431,-0.361859 0.09961,-0.544922 0.0253,-0.183064 0.04668,-0.280742 0.04492,-0.449219 l -0.0039,-0.195313 -0.01172,-0.01367 v -0.578125 l 0.01172,-0.01172 0.0039,-0.1953127 c 6.29e-4,-0.05977 -0.01153,-0.1082306 -0.01563,-0.15625 V 9.578125 l -0.01953,0.021484 c -0.0052,-0.035372 -0.0038,-0.062412 -0.0098,-0.1054688 -0.02539,-0.1827354 -0.05592,-0.3780273 -0.09766,-0.5429687 v -0.00195 h -0.002 C 32.53284,8.179289 32.396516,7.8682534 32.199219,7.3125 31.771083,6.1037672 31.162527,4.9017201 30.373047,3.8613281 h -0.002 V 3.859375 C 29.980334,3.3490385 29.536226,2.9007307 29.046875,2.4980469 27.725454,1.3555744 26.070495,0.62996283 24.466797,0.15039062 Z m 0.644531,1.2734375 c 1.375065,0.4523777 2.735872,1.0729755 3.791016,1.9882813 l 0.0059,0.00391 0.0039,0.00391 c 0.436649,0.3593154 0.822823,0.7535561 1.164063,1.1992187 0.714035,0.9413211 1.282015,2.0550089 1.679687,3.1777344 h 0.002 C 31.364803,7.947859 31.439628,8.2159192 31.519531,8.4492188 31.031319,8.000237 30.552168,7.5278824 30.048828,7.1523437 l -0.0059,-0.00391 -0.0059,-0.00391 C 29.331091,6.6459829 28.553228,6.1793807 27.664062,5.921875 l -0.0059,-0.00195 -0.0078,-0.00195 C 26.84503,5.707827 26.016082,5.6886502 25.21875,5.7832031 h -0.002 c -0.565558,0.047226 -1.152779,0.1049176 -1.744141,0.2519531 l 0.01953,-0.00586 C 23.30335,6.0683953 23.186003,6.096547 23.058594,6.125 L 21.853516,5.0429687 c 0.706437,-0.5343741 1.369816,-1.1199902 1.859375,-1.8164062 0.207331,-0.285202 0.152165,-0.1977231 0.328125,-0.5136719 l 0.0059,-0.011719 0.0059,-0.00977 c 0.05646,-0.1138787 0.06766,-0.1345717 0.08594,-0.1699219 0.01065,-0.020601 0.02174,-0.052693 0.0332,-0.080078 0.20424,-0.3751959 0.31403,-0.7739243 0.439453,-1.1679688 z m -16.3515624,0.00195 c 0.1168316,0.3742024 0.2139242,0.750607 0.4453125,1.1679688 l -0.027344,-0.058594 c 0.023482,0.059682 0.040316,0.1013686 0.058594,0.1367188 0.018278,0.03535 0.029481,0.05409 0.085937,0.1679687 l 0.00586,0.011719 0.00586,0.00977 C 9.0062438,3.020243 8.9625708,2.9510435 9.1523438,3.2128906 9.6394092,3.9449861 10.315846,4.516082 11.019531,5.046875 L 9.8183594,6.125 C 9.6847432,6.0971318 9.5567407,6.0725653 9.4003906,6.0351562 8.8090287,5.8881207 8.2218083,5.830429 7.65625,5.7832031 h -0.00195 C 6.8569651,5.6886502 6.0280164,5.707827 5.2226562,5.9179687 l -0.00586,0.00195 -0.00586,0.00195 c -0.8890591,0.257475 -1.6695924,0.7238101 -2.375,1.2226562 l -0.00391,0.00391 -0.00586,0.00391 C 2.3232496,7.526916 1.8433119,7.9986035 1.3554687,8.4472656 1.4351667,8.2143461 1.5105135,7.9474952 1.6171875,7.6464844 2.0151739,6.523835 2.5836828,5.4079775 3.2988281,4.4667969 H 3.296875 C 3.6377773,4.0206433 4.0239576,3.6291195 4.4609375,3.2695313 l 0.00586,-0.00391 0.00586,-0.00391 C 5.5257434,2.347463 6.8854285,1.727705 8.2597656,1.2753906 Z M 16.4375,2.296875 c 1.018011,1.0742732 2.080588,2.0833429 3.066406,3.1367187 l 0.002,0.00195 c 1.027956,1.1060707 2.188926,2.0340183 3.302735,2.9648437 0.763749,0.6492209 1.54137,1.2955799 2.355468,1.9082034 -0.159683,0.125577 -0.29421,0.232461 -0.505859,0.419922 -0.990625,0.801993 -2.001961,1.599045 -2.96875,2.46875 l -0.0078,0.0078 -0.0078,0.0059 c -0.918685,0.898604 -1.821986,1.812109 -2.710937,2.740234 l -0.002,0.002 -0.002,0.002 c -0.810809,0.861725 -1.68633,1.689367 -2.523437,2.580078 -0.836015,-0.890305 -1.711652,-1.718431 -2.521484,-2.580078 l -0.002,-0.002 v -0.002 c -0.888951,-0.928125 -1.794205,-1.84163 -2.71289,-2.740234 l -0.0078,-0.0059 -0.0078,-0.0078 C 10.217039,12.327771 9.2056389,11.53081 8.2167969,10.728516 l -0.017578,-0.01367 C 7.9950365,10.536437 7.8635523,10.429953 7.7089844,10.308594 8.5232422,9.6957567 9.3010476,9.0483767 10.064453,8.4003906 l 0.002,-0.00195 C 11.179448,7.4683079 12.339695,6.54215 13.367188,5.4355469 l 0.002,-0.00195 C 14.356551,4.380515 15.419245,3.3724692 16.4375,2.296875 Z m 0,3.4980469 -0.332031,0.296875 L 11.222656,10.4375 16.4375,15.078125 21.650391,10.4375 Z m -8.8984375,0.9804687 0.00781,0.00195 h 0.00977 c 0.559209,0.046518 1.0988106,0.1030264 1.6035157,0.2285157 h 0.00195 0.00195 c 0.2147589,0.051314 0.4595131,0.1201437 0.7363281,0.15625 l 0.041016,0.00586 C 9.7601959,7.3186826 9.6037121,7.4808486 9.421875,7.6328125 v 0.00195 h -0.00195 C 8.6140932,8.3187714 7.8114069,8.9952328 6.9765625,9.6152344 l -0.027344,0.019531 -0.025391,0.023437 c 0.00505,-0.00495 -0.079667,0.051163 -0.1914062,0.1679688 -0.1117387,0.1168062 -0.263623,0.4105421 -0.1875,0.6875001 l 0.027344,0.105469 0.070312,0.08398 c 0.3210288,0.383636 0.6872737,0.576027 0.9101563,0.773438 l 0.00977,0.0078 0.00781,0.0059 c 0.8983556,0.729127 1.786643,1.45032 2.6406255,2.199219 l -0.07813,0.002 c -0.3885907,0.01181 -0.7035771,0.118391 -0.960938,0.175782 h -0.00586 l -0.00586,0.002 C 8.6554512,13.99463 8.1158496,14.051138 7.5566406,14.097656 h -0.00977 l -0.00781,0.002 C 6.841624,14.182483 6.1382904,14.158197 5.4824219,13.988281 4.7614325,13.778278 4.0794824,13.382766 3.4238281,12.919922 l -0.00195,-0.002 C 2.6615912,12.351647 1.900212,11.750613 1.3203125,11.074219 h -0.00195 v -0.002 C 1.1577901,10.886743 1.0176861,10.744485 0.8984375,10.601563 L 0.76171875,10.4375 0.90039063,10.271484 C 1.0185215,10.129032 1.1571589,9.9889863 1.3183594,9.8027344 v -0.00195 h 0.00195 C 1.8981935,9.1267408 2.6564178,8.525536 3.4140625,7.9609375 l 0.00195,-0.00195 C 4.0751772,7.4930323 4.761117,7.0952445 5.4863281,6.8847656 6.1411322,6.7157339 6.8429452,6.6926744 7.5390625,6.7753906 Z m 17.7968745,0 c 0.696775,-0.082794 1.397401,-0.060096 2.052735,0.109375 0.723207,0.2098978 1.405514,0.6075822 2.064453,1.0722656 0.759781,0.5670008 1.522153,1.1688536 2.101562,1.8437501 l 0.002,0.00195 c 0.160821,0.1847268 0.299716,0.3255146 0.416015,0.4667966 l 0.140625,0.171875 -0.132812,0.154297 c -0.131003,0.151737 -0.275041,0.306036 -0.421875,0.472656 l -0.002,0.0039 -0.002,0.002 c -0.579899,0.676394 -1.341278,1.277428 -2.101562,1.84375 -7.5e-4,5.58e-4 -0.0012,0.0014 -0.002,0.002 -0.655165,0.462498 -1.336249,0.858234 -2.056641,1.068359 -0.65693,0.170801 -1.359835,0.194358 -2.058594,0.111328 l -0.0098,-0.002 h -0.0078 c -0.559209,-0.04652 -1.09881,-0.103026 -1.603515,-0.228515 l -0.0059,-0.002 h -0.0059 c -0.257361,-0.05739 -0.572347,-0.163967 -0.960938,-0.175782 l -0.07813,-0.002 c 0.854041,-0.749095 1.741799,-1.469387 2.640625,-2.197265 l 0.0078,-0.0078 0.0078,-0.0078 c 0.223325,-0.197803 0.589565,-0.390324 0.910157,-0.773438 l 0.07031,-0.08398 0.0293,-0.105469 C 26.406201,10.236714 26.252364,9.9429781 26.140625,9.8261719 26.028886,9.7093656 25.944166,9.6532491 25.949219,9.6582031 l -0.02539,-0.023437 -0.02734,-0.019531 C 25.061437,8.9950823 24.25859,8.3214135 23.453125,7.6367187 v -0.00195 l -0.002,-0.00195 C 23.268637,7.4802657 23.1116,7.3173542 22.929687,7.1660156 l 0.0293,-0.00195 c 0.314704,-0.028609 0.554593,-0.1166688 0.736328,-0.1542969 l 0.0098,-0.00195 0.0098,-0.00195 C 24.219549,6.8803701 24.75915,6.823862 25.318359,6.7773437 h 0.0078 z M 16.4375,7.1328125 20.146484,10.4375 16.4375,13.740234 12.726563,10.4375 Z M 1.3535156,12.423828 c 0.4885282,0.449554 0.9689106,0.923643 1.4726563,1.298828 l 0.00586,0.0039 0.00391,0.0039 c 0.7054076,0.498846 1.4859409,0.965181 2.375,1.222656 l 0.00586,0.002 0.00586,0.002 c 0.8053602,0.210142 1.6343089,0.229319 2.4316407,0.134766 6.384e-4,-7.6e-5 0.00131,7.6e-5 0.00195,0 0.5655583,-0.04723 1.1527787,-0.104918 1.7441406,-0.251953 l -0.011719,0.0039 c 0.2440406,-0.05442 0.4224285,-0.09094 0.5976562,-0.117187 l 1.0839849,1.064453 c -0.728203,0.537322 -1.4234961,1.129981 -1.9179692,1.871093 -0.189773,0.261847 -0.1461,0.192648 -0.3183594,0.501953 l -0.00586,0.0098 -0.00586,0.01172 c -0.056457,0.113878 -0.06766,0.132618 -0.085937,0.167969 -0.018278,0.03535 -0.035112,0.07704 -0.058594,0.136718 l 0.025391,-0.05469 C 8.4990113,18.811267 8.387053,19.208231 8.2617188,19.601562 6.8866022,19.149215 5.5263223,18.529993 4.4726562,17.615234 l -0.00586,-0.0059 -0.00586,-0.0039 C 4.0246803,17.246475 3.6394498,16.854638 3.2988281,16.410156 l -0.00195,-0.002 C 2.5824707,15.467456 2.0148819,14.352294 1.6171875,13.230469 1.5097314,12.927251 1.4337726,12.658796 1.3535156,12.423828 Z m 30.1660154,0.002 c -0.08006,0.234246 -0.15649,0.502246 -0.263672,0.804688 -0.397986,1.122649 -0.964542,2.238507 -1.679687,3.179687 -0.340826,0.444932 -0.727449,0.836026 -1.164063,1.195313 l -0.0039,0.0039 -0.0059,0.0059 c -1.054108,0.915142 -2.415305,1.533956 -3.791016,1.986328 -0.125323,-0.393262 -0.235374,-0.790359 -0.439453,-1.166015 l 0.02539,0.05469 c -0.02348,-0.05968 -0.04032,-0.101368 -0.05859,-0.136718 -0.01828,-0.03535 -0.02948,-0.05409 -0.08594,-0.167969 l -0.0059,-0.01172 -0.0059,-0.01172 c -0.171754,-0.306703 -0.131222,-0.240632 -0.316407,-0.496093 -0.49499,-0.742916 -1.192171,-1.336571 -1.921875,-1.875 l 1.085938,-1.064453 c 0.175147,0.02627 0.351839,0.06281 0.595703,0.117187 l -0.01172,-0.0039 c 0.592011,0.147197 1.179963,0.2047 1.746094,0.251953 0.797332,0.09455 1.62628,0.07538 2.431641,-0.134766 l 0.0078,-0.002 0.0059,-0.002 c 0.88906,-0.257475 1.66764,-0.72381 2.373047,-1.222656 l 0.0059,-0.0039 0.0039,-0.0039 c 0.50317,-0.374757 0.984607,-0.847944 1.472656,-1.296875 z"
       id="path1307" />
  </g>
  <path
     d="m 0.5150789,10.922848 c 0.136,0.163 0.277,0.306 0.425,0.477 0.625,0.729 1.417,1.35 2.185,1.922 0.683,0.483 1.416,0.917 2.224,1.151 0.732,0.191 1.5,0.212 2.249,0.123 0.565,-0.047 1.131,-0.104 1.682,-0.241 0.287,-0.064 0.572,-0.155 0.8680001,-0.164 l 0.007,0.002 1.623,1.59 c -0.891,0.536 -1.638,1.297 -2.2130001,2.16 -0.212,0.293 -0.114,0.139 -0.295,0.464 -0.117,0.236 -0.08,0.145 -0.128,0.267 -0.27,0.497 -0.454,1.027 -0.592,1.573 -1.566,-0.468 -3.162,-1.175 -4.406,-2.255 -0.463,-0.381 -0.878,-0.801 -1.244,-1.279 -0.753,-0.991 -1.341,-2.151 -1.754,-3.316 -0.202,-0.57 -0.326,-0.846 -0.519,-1.593 -0.0897799,-0.279638 -0.11920215,-0.60644 -0.112,-0.879 z m 31.4190001,0.477 c -0.625,0.729 -1.417,1.35 -2.185,1.922 -0.683,0.483 -1.416,0.917 -2.224,1.151 -0.732,0.191 -1.5,0.212 -2.249,0.123 -0.565,-0.047 -1.131,-0.104 -1.682,-0.241 -0.287,-0.064 -0.572,-0.155 -0.868,-0.164 l -0.007,0.002 -1.623,1.59 c 0.891,0.536 1.638,1.297 2.213,2.16 0.212,0.293 0.113,0.139 0.295,0.464 0.117,0.236 0.08,0.145 0.128,0.267 0.27,0.497 0.454,1.027 0.592,1.573 1.566,-0.468 3.162,-1.175 4.406,-2.255 0.463,-0.381 0.878,-0.801 1.244,-1.279 0.753,-0.991 1.341,-2.151 1.754,-3.316 0.202,-0.57 0.326,-0.846 0.519,-1.593 0.064,-0.248 0.128,-0.767 0.127,-0.863 -0.09275,0.118074 -0.219631,0.221613 -0.44,0.459 z m -15.497,-4.9349996 4.462,3.9719996 -4.462,3.972 -4.462,-3.972 z m -0.066,-4.769 c -0.093,0.048 -0.172,0.119 -0.241,0.2 -1.023,1.085 -2.107,2.11 -3.127,3.198 -0.995,1.072 -2.14,1.987 -3.2600001,2.923 -0.807,0.685 -1.618,1.367 -2.469,1.9989996 -0.102,0.1 -0.295,0.195 -0.248,0.366 0.241,0.288 0.579,0.473 0.859,0.721 0.998,0.81 2.008,1.606 2.9640001,2.466 0.915,0.895 1.816,1.804 2.701,2.728 0.844,0.898 1.742,1.743 2.582,2.643 0.077,0.071 0.179,0.203 0.286,0.228 0.133,0 0.232,-0.147 0.323,-0.228 0.841,-0.9 1.738,-1.746 2.582,-2.643 0.885,-0.924 1.786,-1.833 2.701,-2.728 0.956,-0.86 1.966,-1.657 2.965,-2.466 0.28,-0.248 0.617,-0.433 0.858,-0.721 0.047,-0.171 -0.146,-0.266 -0.248,-0.366 -0.851,-0.6319996 -1.662,-1.3129996 -2.469,-1.9989996 -1.12,-0.936 -2.265,-1.852 -3.26,-2.923 -1.019,-1.089 -2.104,-2.114 -3.127,-3.198 -0.07,-0.081 -0.151,-0.164 -0.244,-0.212 -0.04509,-0.034797 -0.08444,0.00792 -0.128,0.012 z M 8.5500789,0.62884841 c -1.566,0.46799999 -3.162,1.17499999 -4.406,2.25499999 -0.463,0.381 -0.878,0.801 -1.244,1.28 -0.753,0.991 -1.341,2.151 -1.754,3.316 -0.202,0.57 -0.326,0.846 -0.519,1.593 -0.0897799,0.2796382 -0.1231084,0.6025335 -0.112,0.879 0.136,-0.164 0.277,-0.306 0.425,-0.477 0.625,-0.729 1.417,-1.35 2.185,-1.922 0.683,-0.483 1.416,-0.917 2.224,-1.151 0.732,-0.191 1.5,-0.212 2.249,-0.123 0.565,0.047 1.131,0.104 1.682,0.241 0.226,0.054 0.455,0.117 0.685,0.147 l 1.7770001,-1.597 c -0.874,-0.545 -1.607,-1.28 -2.1770001,-2.138 -0.212,-0.293 -0.114,-0.139 -0.295,-0.464 -0.117,-0.236 -0.08,-0.145 -0.128,-0.267 -0.27,-0.497 -0.454,-1.027 -0.592,-1.57299999 z m 15.7740001,0 c -0.137,0.54599999 -0.322,1.07699999 -0.592,1.57299999 -0.048,0.122 -0.011,0.031 -0.128,0.267 -0.181,0.325 -0.082,0.171 -0.295,0.464 -0.589,0.839 -1.285,1.607 -2.175,2.136 l 1.779,1.598 c 0.231,-0.021 0.454,-0.1 0.681,-0.147 0.551,-0.137 1.117,-0.194 1.682,-0.241 0.749,-0.089 1.517,-0.068 2.249,0.123 0.808,0.234 1.54,0.668 2.224,1.151 0.768,0.573 1.56,1.194 2.185,1.922 0.148,0.17 0.29,0.313 0.425,0.477 l 0.015,-0.016 c 10e-4,-0.095 -0.064,-0.614 -0.127,-0.863 -0.192,-0.748 -0.317,-1.024 -0.519,-1.593 -0.413,-1.166 -1.002,-2.325 -1.754,-3.316 -0.366,-0.478 -0.781,-0.899 -1.244,-1.28 -1.245,-1.08 -2.841,-1.787 -4.406,-2.25499999 z"
     id="path4"
     style="fill:url(#rarity);stroke-width:1;stroke-miterlimit:4;stroke-dasharray:none" />
  <defs
     id="defs61">
    <!-- This is the gradient that will actually be used on
     the cards. The colors themselves will be provided by the
     template, but the x values, y values, and offsets will be
     used from the SVG. -->
    <linearGradient
       id="rarity"
       x1="0"
       y1="0"
       x2="1"
       y2="0">
      <stop
         offset="0"
         style="stop-color:rgb(192,55,38);stop-opacity:1"
         id="stop2" />
      <stop
         offset="0.125"
         style="stop-color:rgb(192,55,38);stop-opacity:1"
         id="stop4" />
      <stop
         offset="0.5"
         style="stop-color:rgb(241,142,30);stop-opacity:1"
         id="stop6" />
      <stop
         offset="0.875"
         style="stop-color:rgb(192,55,38);stop-opacity:1"
         id="stop8" />
      <stop
         offset="1"
         style="stop-color:rgb(192,55,38);stop-opacity:1"
         id="stop10" />
    </linearGradient>
    <!-- These gradients are here so that you can visualize
     what the set symbol would like like in that rarity. The
     only gradient that matters in the end is the "rarity"
     gradient. -->
    <linearGradient
       id="mythic"
       x1="0"
       y1="1"
       x2="1"
       y2="0">
      <stop
         offset="0"
         style="stop-color:rgb(192,55,38);stop-opacity:1"
         id="stop11" />
      <stop
         offset="0.125"
         style="stop-color:rgb(192,55,38);stop-opacity:1"
         id="stop13" />
      <stop
         offset="0.5"
         style="stop-color:rgb(241,142,30);stop-opacity:1"
         id="stop15" />
      <stop
         offset="0.875"
         style="stop-color:rgb(192,55,38);stop-opacity:1"
         id="stop17" />
      <stop
         offset="1"
         style="stop-color:rgb(192,55,38);stop-opacity:1"
         id="stop19" />
    </linearGradient>
    <linearGradient
       id="rare"
       x1="0"
       y1="1"
       x2="1"
       y2="0">
      <stop
         offset="0"
         style="stop-color:rgb(146,116,67);stop-opacity:1"
         id="stop22" />
      <stop
         offset="0.125"
         style="stop-color:rgb(146,116,67);stop-opacity:1"
         id="stop24" />
      <stop
         offset="0.5"
         style="stop-color:rgb(211,178,108);stop-opacity:1"
         id="stop26" />
      <stop
         offset="0.875"
         style="stop-color:rgb(146,116,67);stop-opacity:1"
         id="stop28" />
      <stop
         offset="1"
         style="stop-color:rgb(146,116,67);stop-opacity:1"
         id="stop30" />
    </linearGradient>
    <linearGradient
       id="special"
       x1="0"
       y1="1"
       x2="1"
       y2="0">
      <stop
         offset="0"
         style="stop-color:rgb(76, 56, 106);stop-opacity:1"
         id="stop33" />
      <stop
         offset="0.125"
         style="stop-color:rgb(76, 56, 106);stop-opacity:1"
         id="stop35" />
      <stop
         offset="0.5"
         style="stop-color:rgb(201, 173, 221);stop-opacity:1"
         id="stop37" />
      <stop
         offset="0.875"
         style="stop-color:rgb(76, 56, 106);stop-opacity:1"
         id="stop39" />
      <stop
         offset="1"
         style="stop-color:rgb(76, 56, 106);stop-opacity:1"
         id="stop41" />
    </linearGradient>
    <linearGradient
       id="uncommon"
       x1="0"
       y1="1"
       x2="1"
       y2="0">
      <stop
         offset="0"
         style="stop-color:rgb(98,110,119);stop-opacity:1"
         id="stop44" />
      <stop
         offset="0.125"
         style="stop-color:rgb(98,110,119);stop-opacity:1"
         id="stop46" />
      <stop
         offset="0.5"
         style="stop-color:rgb(196,222,238);stop-opacity:1"
         id="stop48" />
      <stop
         offset="0.875"
         style="stop-color:rgb(98,110,119);stop-opacity:1"
         id="stop50" />
      <stop
         offset="1"
         style="stop-color:rgb(98,110,119);stop-opacity:1"
         id="stop52" />
    </linearGradient>
    <linearGradient
       id="common"
       x1="0"
       y1="1"
       x2="1"
       y2="0">
      <stop
         offset="0"
         style="stop-color:rgb(0,0,0);stop-opacity:1"
         id="stop55" />
    </linearGradient>
    <linearGradient
       id="rarity-outline"
       x1="0"
       y1="1"
       x2="0"
       y2="1">
      <stop
         offset="0"
         style="stop-color:rgb(0,0,0);stop-opacity:1"
         id="stop58" />
    </linearGradient>
  </defs>
</svg>
