<?xml version="1.0" encoding="UTF-8" standalone="no"?>
<!-- Generated by IcoMoon.io -->

<svg
   version="1.1"
   width="31.957029"
   height="26.804432"
   viewBox="0 0 31.957029 26.804432"
   id="svg6"
   sodipodi:docname="3ed.svg"
   inkscape:version="1.1.1 (3bf5ae0d25, 2021-09-20)"
   xmlns:inkscape="http://www.inkscape.org/namespaces/inkscape"
   xmlns:sodipodi="http://sodipodi.sourceforge.net/DTD/sodipodi-0.dtd"
   xmlns="http://www.w3.org/2000/svg"
   xmlns:svg="http://www.w3.org/2000/svg">
  <defs
     id="defs10" />
  <sodipodi:namedview
     id="namedview8"
     pagecolor="#ffffff"
     bordercolor="#666666"
     borderopacity="1.0"
     inkscape:pageshadow="2"
     inkscape:pageopacity="0.0"
     inkscape:pagecheckerboard="0"
     showgrid="false"
     inkscape:zoom="25.75"
     inkscape:cx="15.941748"
     inkscape:cy="13.378641"
     inkscape:window-width="1920"
     inkscape:window-height="1009"
     inkscape:window-x="-8"
     inkscape:window-y="-8"
     inkscape:window-maximized="1"
     inkscape:current-layer="svg6" />
  <title
     id="title2">3ed</title>
  <path
     fill="#000000"
     d="m 22.828491,0 c 0,0 1.688,0.183 1.688,1.929 l 6.266,1.746 c 0,0 1.565,0.604 1.082,2.652 l -5.179,19.335 c 0,0 -1.085,1.447 -2.349,1.084 l -8.356,-2.298 -8.358,2.298 c -1.264,0.363 -2.349,-1.084 -2.349,-1.084 L 0.09149101,6.327 C -0.38850899,4.278 1.176491,3.675 1.176491,3.675 l 6.266,-1.746 c 0,-1.746 1.686,-1.929 1.686,-1.929 z m -0.055,0.724 h -13.589 c -0.08,0.014 -0.32,0.068 -0.549,0.22 -0.32,0.215 -0.472,0.527 -0.472,0.985 v 0.549 c 0,0 -6.647,1.854 -6.744,1.88 -0.172,0.08 -0.69599999,0.395 -0.69599999,1.227 0,0.169 0.023,0.358 0.072,0.57 0.012,0.034 5.05299999,18.862 5.13599999,19.165 0.22,0.249 0.875,0.907 1.491,0.73 l 8.558,-2.355 8.553,2.355 c 0.618,0.177 1.271,-0.48 1.494,-0.73 0.084,-0.303 5.128,-19.131 5.136,-19.165 0.048,-0.212 0.072,-0.401 0.072,-0.57 0,-0.832 -0.524,-1.147 -0.696,-1.227 -0.097,-0.026 -6.744,-1.88 -6.744,-1.88 V 1.929 c 0,-0.458 -0.152,-0.77 -0.472,-0.985 -0.226,-0.152 -0.47,-0.206 -0.549,-0.22 v 0 z m -14.754,2.716 v 18.593 c 0,0 0.158,1.205 1.124,1.205 h 5.219 l -6.987,1.929 c 0,0 -0.401,0.2 -0.604,-0.24 L 1.632491,5.85 c 0,0 -0.2,-0.601 0.281,-0.761 l 6.106,-1.648 z m 15.918,-0.04 6.103,1.648 c 0.483,0.16 0.283,0.761 0.283,0.761 l -5.142,19.074 c -0.2,0.443 -0.601,0.243 -0.601,0.243 l -6.987,-1.929 h 5.219 c 0.964,0 1.124,-1.204 1.124,-1.204 V 3.4 Z m -1.221,-1.806 c 0.28,0 0.32,0.36 0.32,0.36 v 19.998 c 0,0.32 -0.32,0.401 -0.32,0.401 h -13.452 c -0.283,0 -0.283,-0.401 -0.283,-0.401 V 1.954 c 0,-0.24 0.283,-0.36 0.283,-0.36 z m -5.918,5.02 v 0 c -0.641,0 -1.185,0.111 -1.635,0.333 -0.45,0.222 -0.844,0.478 -1.185,0.767 h -0.898 c -0.393,0 -0.868,-0.046 -1.425,-0.139 -0.557,-0.093 -0.997,-0.17 -1.317,-0.232 -0.155,0 -0.233,0.093 -0.233,0.279 0,0.155 0.341,0.264 1.023,0.326 0.682,0.062 1.075,0.147 1.178,0.256 0.103,0.108 0.199,0.462 0.287,1.061 0.088,0.599 0.132,1.147 0.132,1.643 v 4.075 c 0,1.26 -0.067,1.916 -0.201,1.968 -0.134,0.052 -0.473,0.09 -1.015,0.116 -0.542,0.026 -0.813,0.116 -0.813,0.271 0,0.196 0.093,0.295 0.279,0.295 l 1.829,-0.171 h 2.324 l 1.348,0.124 h 0.155 c 0.186,0 0.279,-0.108 0.279,-0.325 0,-0.134 -0.077,-0.201 -0.232,-0.201 h -1.193 c -0.434,0 -0.733,-0.054 -0.899,-0.163 -0.166,-0.109 -0.248,-0.354 -0.248,-0.736 v -0.558 c 0,-0.248 0.005,-0.814 0.016,-1.697 0.011,-0.883 0.046,-1.325 0.108,-1.325 0.857,0 1.534,0.31 2.03,0.93 0.496,0.62 1.025,1.369 1.588,2.247 0.563,0.878 0.932,1.371 1.108,1.48 0.176,0.109 0.294,0.168 0.357,0.178 h 2.309 c 0.01,-0.021 0.031,-0.055 0.062,-0.101 0.031,-0.046 0.047,-0.09 0.047,-0.132 0,-0.145 -0.183,-0.23 -0.55,-0.256 -0.367,-0.026 -0.664,-0.214 -0.891,-0.565 -0.496,-0.671 -0.973,-1.33 -1.433,-1.976 -0.46,-0.646 -0.845,-1.247 -1.154,-1.805 0.93,-0.63 1.524,-1.08 1.782,-1.348 0.258,-0.268 0.387,-0.806 0.387,-1.612 0,-0.888 -0.315,-1.611 -0.945,-2.169 -0.63,-0.558 -1.415,-0.837 -2.355,-0.837 z m -0.898,0.961 c 0.785,0 1.379,0.24 1.782,0.721 0.403,0.481 0.604,1.087 0.604,1.821 0,0.62 -0.196,1.111 -0.589,1.472 -0.393,0.361 -0.878,0.542 -1.457,0.542 -0.702,0 -1.203,-0.158 -1.503,-0.473 -0.3,-0.315 -0.449,-0.741 -0.449,-1.278 V 9.171 c 0,-0.599 0.145,-1.015 0.434,-1.247 0.289,-0.232 0.682,-0.349 1.178,-0.349 z"
     id="path4" />
</svg>
