<?xml version="1.0" encoding="UTF-8" standalone="no"?>
<svg
   version="1.1"
   width="31.984436"
   height="26.825661"
   viewBox="0 0 31.984436 26.825661"
   id="svg4"
   xmlns:xlink="http://www.w3.org/1999/xlink"
   xmlns="http://www.w3.org/2000/svg"
   xmlns:svg="http://www.w3.org/2000/svg">
  <defs
     id="defs8">
    <linearGradient
       xlink:href="#rarity-outline"
       id="linearGradient1147"
       x1="10.530996"
       y1="12.110613"
       x2="21.192995"
       y2="12.110613"
       gradientUnits="userSpaceOnUse" />
  </defs>
  <path
     fill="url(#rarity)"
     d="M 9.1894528,0.72265625 H 22.796875 c 0.077,0.014 0.318828,0.06675 0.548828,0.21875 0.317,0.21399995 0.470703,0.52832815 0.470703,0.98632815 v 0.5488281 c 0,0 6.652,1.8568125 6.75,1.8828125 0.175,0.08 0.695313,0.3955156 0.695313,1.2285156 0,0.169 -0.02131,0.3563594 -0.07031,0.5683594 -0.009,0.037 -5.058578,18.879594 -5.142578,19.183594 -0.22,0.252 -0.876187,0.902515 -1.492187,0.728515 l -8.5625,-2.355468 -8.5625004,2.355468 C 6.8156406,26.243359 6.1585,25.591844 5.9375,25.339844 5.8535,25.036844 0.80782813,6.19325 0.79882812,6.15625 c -0.052,-0.212 -0.0761719,-0.3993594 -0.0761719,-0.5683594 0,-0.833 0.52526568,-1.1485156 0.69726568,-1.2285156 0.097,-0.026 6.75,-1.8828125 6.75,-1.8828125 V 1.9277344 c 0,-0.458 0.1526562,-0.7713281 0.4726562,-0.98632815 0.23,-0.152 0.469875,-0.20475 0.5468747,-0.21875 z"
     id="path3" />
  <path
     fill="url(#rarity-outline)"
     d="m 9.1367188,0 c 0,0 -1.6875,0.17873438 -1.6875,1.9277344 l -6.2695313,1.75 c 0,0 -1.56889063,0.6013437 -1.08789063,2.6523437 L 5.2773438,25.681641 c 0,0 1.0855624,1.449937 2.3515624,1.085937 l 8.3652348,-2.300781 8.363281,2.300781 c 1.265,0.364 2.349609,-1.085937 2.349609,-1.085937 L 31.890625,6.3300781 c 0.484,-2.051 -1.080078,-2.6523437 -1.080078,-2.6523437 l -6.269531,-1.75 C 24.541016,0.17773438 22.851562,0 22.851562,0 Z M 9.5638404,1.0482104 22.428553,0.96436786 c 0.077,0.014 0.318828,0.06675 0.548828,0.21875004 0.317,0.2139999 0.470703,0.5283281 0.470703,0.9863281 v 0.5488281 c 0,0 6.559919,1.5690606 6.657919,1.5950606 0.175,0.08 0.695313,0.3955156 0.695313,1.2285156 0,0.169 -0.02131,0.3563594 -0.07031,0.5683594 -0.009,0.037 -4.885927,18.6609023 -4.969927,18.9649023 -0.22,0.252 -0.876187,0.902515 -1.492187,0.728515 L 15.994141,23.54024 7.5293068,25.832332 c -0.616,0.175 -1.2731406,-0.476515 -1.4941406,-0.728515 -0.084,-0.303 -4.8203954,-18.633846 -4.8293954,-18.670846 -0.052,-0.212 -0.076172,-0.3993594 -0.076172,-0.5683594 0,-0.833 0.5252657,-1.1485156 0.6972657,-1.2285156 0.097,-0.026 6.7174446,-1.8339794 6.7174446,-1.8339794 V 2.2532885 c 0,-0.458 0.1526562,-0.7713281 0.4726562,-0.9863281 0.23,-0.152 0.469875,-0.20475 0.546875,-0.21875 z"
     id="path5" />
  <path
     fill="url(#rarity-outline)"
     d="m 24.540598,1.928 c -16.3603987,-1.28533333 -8.180199,-0.6426667 0,0 z m -1.744,-1.206 H 9.1895976 c -0.077,0.014 -0.317,0.068 -0.547,0.22 -0.32,0.215 -0.472,0.527 -0.472,0.985 v 0.55 c 0,0 -6.653,1.856 -6.75,1.882 -0.172,0.08 -0.69699999,0.395 -0.69699999,1.228 0,0.169 0.023,0.358 0.075,0.57 0.009,0.037 5.05399999,18.879 5.13799999,19.182 0.221,0.252 0.879,0.905 1.495,0.73 l 8.5630004,-2.357 8.563,2.357 c 0.616,0.174 1.272,-0.478 1.492,-0.73 0.084,-0.304 5.132,-19.145 5.141,-19.182 0.049,-0.212 0.072,-0.401 0.072,-0.57 0,-0.833 -0.521,-1.148 -0.696,-1.228 -0.098,-0.026 -6.751,-1.882 -6.751,-1.882 v -0.55 c 0,-0.458 -0.152,-0.771 -0.469,-0.985 -0.23,-0.152 -0.473,-0.206 -0.55,-0.22 z M 8.0275976,3.474 v 18.609 c 0,0 0.158,1.209 1.125,1.209 h 5.2240004 l -6.9940004,1.927 c 0,0 -0.4,0.2 -0.604,-0.241 l -5.141,-19.094 c 0,0 -0.203,-0.602 0.278,-0.762 l 6.112,-1.65 z m 15.9350004,-0.04 6.109,1.65 c 0.481,0.161 0.281,0.762 0.281,0.762 l -5.147,19.094 c -0.197,0.441 -0.601,0.241 -0.601,0.241 l -6.994,-1.93 h 5.227 c 0.965,0 1.125,-1.205 1.125,-1.205 V 3.436 Z m -1.226,-1.807 c 0.281,0 0.323,0.361 0.323,0.361 v 20.016 c 0,0.321 -0.323,0.404 -0.323,0.404 H 9.2735976 c -0.284,0 -0.284,-0.404 -0.284,-0.404 V 1.988 c 0,-0.24 0.284,-0.361 0.284,-0.361 z"
     id="path7" />
  <defs
     id="defs65">
    <!-- This is the gradient that will actually be used on
     the cards. The colors themselves will be provided by the
     template, but the x values, y values, and offsets will be
     used from the SVG. -->
    <linearGradient
       id="rarity"
       x1="0"
       y1="1"
       x2="1"
       y2="0">
      <stop
         offset="0"
         style="stop-color:rgb(192,55,38);stop-opacity:1"
         id="stop2" />
      <stop
         offset="0.125"
         style="stop-color:rgb(192,55,38);stop-opacity:1"
         id="stop4" />
      <stop
         offset="0.5"
         style="stop-color:rgb(241,142,30);stop-opacity:1"
         id="stop6" />
      <stop
         offset="0.875"
         style="stop-color:rgb(192,55,38);stop-opacity:1"
         id="stop8" />
      <stop
         offset="1"
         style="stop-color:rgb(192,55,38);stop-opacity:1"
         id="stop10" />
    </linearGradient>
    <!-- These gradients are here so that you can visualize
     what the set symbol would like like in that rarity. The
     only gradient that matters in the end is the "rarity"
     gradient. -->
    <linearGradient
       id="mythic"
       x1="0"
       y1="1"
       x2="1"
       y2="0">
      <stop
         offset="0"
         style="stop-color:rgb(192,55,38);stop-opacity:1"
         id="stop15" />
      <stop
         offset="0.125"
         style="stop-color:rgb(192,55,38);stop-opacity:1"
         id="stop17" />
      <stop
         offset="0.5"
         style="stop-color:rgb(241,142,30);stop-opacity:1"
         id="stop19" />
      <stop
         offset="0.875"
         style="stop-color:rgb(192,55,38);stop-opacity:1"
         id="stop21" />
      <stop
         offset="1"
         style="stop-color:rgb(192,55,38);stop-opacity:1"
         id="stop23" />
    </linearGradient>
    <linearGradient
       id="rare"
       x1="0"
       y1="1"
       x2="1"
       y2="0">
      <stop
         offset="0"
         style="stop-color:rgb(146,116,67);stop-opacity:1"
         id="stop26" />
      <stop
         offset="0.125"
         style="stop-color:rgb(146,116,67);stop-opacity:1"
         id="stop28" />
      <stop
         offset="0.5"
         style="stop-color:rgb(211,178,108);stop-opacity:1"
         id="stop30" />
      <stop
         offset="0.875"
         style="stop-color:rgb(146,116,67);stop-opacity:1"
         id="stop32" />
      <stop
         offset="1"
         style="stop-color:rgb(146,116,67);stop-opacity:1"
         id="stop34" />
    </linearGradient>
    <linearGradient
       id="special"
       x1="0"
       y1="1"
       x2="1"
       y2="0">
      <stop
         offset="0"
         style="stop-color:rgb(76, 56, 106);stop-opacity:1"
         id="stop37" />
      <stop
         offset="0.125"
         style="stop-color:rgb(76, 56, 106);stop-opacity:1"
         id="stop39" />
      <stop
         offset="0.5"
         style="stop-color:rgb(201, 173, 221);stop-opacity:1"
         id="stop41" />
      <stop
         offset="0.875"
         style="stop-color:rgb(76, 56, 106);stop-opacity:1"
         id="stop43" />
      <stop
         offset="1"
         style="stop-color:rgb(76, 56, 106);stop-opacity:1"
         id="stop45" />
    </linearGradient>
    <linearGradient
       id="uncommon"
       x1="0"
       y1="1"
       x2="1"
       y2="0">
      <stop
         offset="0"
         style="stop-color:rgb(98,110,119);stop-opacity:1"
         id="stop48" />
      <stop
         offset="0.125"
         style="stop-color:rgb(98,110,119);stop-opacity:1"
         id="stop50" />
      <stop
         offset="0.5"
         style="stop-color:rgb(196,222,238);stop-opacity:1"
         id="stop52" />
      <stop
         offset="0.875"
         style="stop-color:rgb(98,110,119);stop-opacity:1"
         id="stop54" />
      <stop
         offset="1"
         style="stop-color:rgb(98,110,119);stop-opacity:1"
         id="stop56" />
    </linearGradient>
    <linearGradient
       id="common"
       x1="0"
       y1="1"
       x2="1"
       y2="0">
      <stop
         offset="0"
         style="stop-color:rgb(0,0,0);stop-opacity:1"
         id="stop59" />
    </linearGradient>
    <linearGradient
       id="rarity-outline"
       x1="0"
       y1="1"
       x2="0"
       y2="1">
      <stop
         offset="0"
         style="stop-color:rgb(0,0,0);stop-opacity:1"
         id="stop62" />
    </linearGradient>
  </defs>
  <path
     d="m 16.793996,4.3036139 c -1.428,0 -2.679,0.587333 -3.753,1.762 -1.074,1.174667 -1.611333,2.552333 -1.612,4.1329991 0,1.120667 0.33,2.030333 0.99,2.729 0.66,0.698667 1.512,1.048 2.556,1.048 0.214667,0 0.425667,-0.01533 0.633,-0.046 0.207333,-0.03067 0.418333,-0.07667 0.633,-0.138 0.292,-0.092 0.587667,-0.222667 0.887,-0.392 0.299333,-0.169333 0.625667,-0.392 0.979,-0.668 l 0.046,0.069 c -0.138,0.292 -0.276333,0.560667 -0.415,0.806 -0.138667,0.245333 -0.276667,0.483333 -0.414,0.714 -0.276667,0.43 -0.553,0.817667 -0.829,1.163 -0.276,0.345333 -0.598333,0.687 -0.967,1.025 -0.598667,0.583333 -1.301,1.105333 -2.107,1.566 -0.806,0.460667 -1.631,0.829 -2.475,1.105 -0.06133,0.01533 -0.126667,0.03467 -0.196,0.058 -0.06933,0.02333 -0.142333,0.035 -0.219,0.035 l 0.622,0.645 c 2.41,-0.23 4.609,-1.316 6.597,-3.258 1.988,-1.942 3.12,-4.049 3.396,-6.321 0.01533,-0.153333 0.027,-0.303 0.035,-0.4489995 0.008,-0.146 0.012,-0.295667 0.012,-0.449 0,-1.5046666 -0.406667,-2.7366666 -1.22,-3.6959996 -0.813333,-0.959333 -1.872667,-1.439 -3.178,-1.439 z m -0.023,0.829 c 0.706,0 1.285667,0.318667 1.739,0.956 0.453333,0.637333 0.679667,1.447 0.679,2.429 0,0.4146666 -0.04233,0.8523326 -0.127,1.3129996 -0.08467,0.4606665 -0.219,0.9673325 -0.403,1.5199995 v 0.023 c -0.23,0.214667 -0.452667,0.399 -0.668,0.553 -0.215333,0.154 -0.430333,0.276667 -0.645,0.368 -0.245333,0.122667 -0.491,0.211 -0.737,0.265 -0.246,0.054 -0.507,0.081 -0.783,0.081 -0.675333,0 -1.212667,-0.238 -1.612,-0.714 -0.399333,-0.476 -0.599,-1.113 -0.599,-1.911 0,-1.3199991 0.311,-2.4636661 0.933,-3.4309991 0.622,-0.967333 1.362667,-1.451 2.222,-1.451 z"
     style="fill:url(#linearGradient1147);fill-opacity:1.0"
     id="path930" />
</svg>
