<?xml version="1.0" encoding="UTF-8" standalone="no"?>
<!-- Generated by IcoMoon.io -->

<svg
   version="1.1"
   width="22.402"
   height="27.851"
   viewBox="0 0 22.402 27.851"
   id="svg6"
   sodipodi:docname="afc.svg"
   inkscape:version="1.1.1 (3bf5ae0d25, 2021-09-20)"
   xmlns:inkscape="http://www.inkscape.org/namespaces/inkscape"
   xmlns:sodipodi="http://sodipodi.sourceforge.net/DTD/sodipodi-0.dtd"
   xmlns="http://www.w3.org/2000/svg"
   xmlns:svg="http://www.w3.org/2000/svg">
  <defs
     id="defs10" />
  <sodipodi:namedview
     id="namedview8"
     pagecolor="#ffffff"
     bordercolor="#666666"
     borderopacity="1.0"
     inkscape:pageshadow="2"
     inkscape:pageopacity="0.0"
     inkscape:pagecheckerboard="0"
     showgrid="false"
     inkscape:zoom="16"
     inkscape:cx="15.03125"
     inkscape:cy="11.84375"
     inkscape:window-width="1920"
     inkscape:window-height="1009"
     inkscape:window-x="-8"
     inkscape:window-y="-8"
     inkscape:window-maximized="1"
     inkscape:current-layer="svg6" />
  <title
     id="title2">afc</title>
  <path
     fill="#000000"
     d="m 14.518,0 v 0 c 2.551,0.496 4.961,1.68 6.893,3.42 -0.081,1.134 -0.013,2.272 -0.061,3.406 -0.62,-0.404 -1.36,-0.53 -2.089,-0.443 -0.494,0.178 -1.001,0.37 -1.366,0.766 -0.831,0.741 -1.18,1.918 -0.962,3.003 0.217,0.7 0.592,1.388 1.247,1.766 0.756,0.485 1.683,0.323 2.53,0.361 0.457,1.556 0.986,3.096 1.692,4.559 l -0.016,0.106 c -2.498,3.623 -5.679,6.74 -9.174,9.4 -0.647,0.534 -1.324,1.026 -2.011,1.507 C 10.52,27.363 9.823,26.895 9.19,26.344 5.696,23.685 2.514,20.567 0.016,16.944 L 0,16.838 C 0.706,15.375 1.235,13.835 1.692,12.279 2.539,12.241 3.466,12.402 4.222,11.918 4.876,11.54 5.252,10.852 5.469,10.152 5.687,9.067 5.339,7.89 4.507,7.149 4.142,6.753 3.635,6.562 3.141,6.383 2.412,6.296 1.672,6.421 1.052,6.826 0.994,3.452 0.962,3.444 0.991,3.418 3.140554,1.7373679 5.51582,0.39257215 7.885,0 7.933,1.192 8.646,2.289 9.623,2.941 10.112,3.2 10.689,3.4 11.261,3.372 V 3.37 C 11.794,3.361 12.309,3.183 12.779,2.941 13.756,2.289 14.469,1.192 14.517,0 Z"
     id="path4"
     sodipodi:nodetypes="cscccccccccccccccccccccccccccc" />
</svg>
