<?xml version="1.0" encoding="UTF-8" standalone="no"?>
<svg
   version="1.1"
   width="31.728516"
   height="31.474609"
   viewBox="0 0 31.728515 31.47461"
   id="svg4"
   xmlns="http://www.w3.org/2000/svg"
   xmlns:svg="http://www.w3.org/2000/svg">
  <defs>
    <!-- This is the gradient that will actually be used on
     the cards. The colors themselves will be provided by the
     template, but the x values, y values, and offsets will be
     used from the SVG. -->
    <linearGradient id="rarity" x1="0" y1="0" x2="1" y2="0">
      <stop offset="0" style="stop-color:rgb(192,55,38);stop-opacity:1" id="stop2" />
      <stop offset="0.125" style="stop-color:rgb(192,55,38);stop-opacity:1" id="stop4" />
      <stop offset="0.5" style="stop-color:rgb(241,142,30);stop-opacity:1" id="stop6" />
      <stop offset="0.875" style="stop-color:rgb(192,55,38);stop-opacity:1" id="stop8" />
      <stop offset="1" style="stop-color:rgb(192,55,38);stop-opacity:1" id="stop10" />
    </linearGradient>
    <!-- These gradients are here so that you can visualize
     what the set symbol would like like in that rarity. The
     only gradient that matters in the end is the "rarity"
     gradient. -->
    <linearGradient id="mythic" x1="0" y1="1" x2="1" y2="0">
      <stop offset="0" style="stop-color:rgb(192,55,38);stop-opacity:1"/>
      <stop offset="0.125" style="stop-color:rgb(192,55,38);stop-opacity:1"/>
      <stop offset="0.5" style="stop-color:rgb(241,142,30);stop-opacity:1"/>
      <stop offset="0.875" style="stop-color:rgb(192,55,38);stop-opacity:1"/>
      <stop offset="1" style="stop-color:rgb(192,55,38);stop-opacity:1"/>
    </linearGradient>
    <linearGradient id="rare" x1="0" y1="1" x2="1" y2="0">
      <stop offset="0" style="stop-color:rgb(146,116,67);stop-opacity:1"/>
      <stop offset="0.125" style="stop-color:rgb(146,116,67);stop-opacity:1"/>
      <stop offset="0.5" style="stop-color:rgb(211,178,108);stop-opacity:1"/>
      <stop offset="0.875" style="stop-color:rgb(146,116,67);stop-opacity:1"/>
      <stop offset="1" style="stop-color:rgb(146,116,67);stop-opacity:1"/>
    </linearGradient>
    <linearGradient id="special" x1="0" y1="1" x2="1" y2="0">
      <stop offset="0" style="stop-color:rgb(76, 56, 106);stop-opacity:1"/>
      <stop offset="0.125" style="stop-color:rgb(76, 56, 106);stop-opacity:1"/>
      <stop offset="0.5" style="stop-color:rgb(201, 173, 221);stop-opacity:1"/>
      <stop offset="0.875" style="stop-color:rgb(76, 56, 106);stop-opacity:1"/>
      <stop offset="1" style="stop-color:rgb(76, 56, 106);stop-opacity:1"/>
    </linearGradient>
    <linearGradient id="uncommon" x1="0" y1="1" x2="1" y2="0">
      <stop offset="0" style="stop-color:rgb(98,110,119);stop-opacity:1"/>
      <stop offset="0.125" style="stop-color:rgb(98,110,119);stop-opacity:1"/>
      <stop offset="0.5" style="stop-color:rgb(196,222,238);stop-opacity:1"/>
      <stop offset="0.875" style="stop-color:rgb(98,110,119);stop-opacity:1"/>
      <stop offset="1" style="stop-color:rgb(98,110,119);stop-opacity:1"/>
    </linearGradient>
    <linearGradient id="common" x1="0" y1="1" x2="1" y2="0">
      <stop offset="0" style="stop-color:rgb(0,0,0);stop-opacity:1"/>
    </linearGradient>
    <linearGradient
            id="rarity-outline" x1="0" y1="1" x2="0" y2="1">
      <stop offset="0" style="stop-color:rgb(0,0,0);stop-opacity:1"/>
    </linearGradient>
  </defs>
  <path
          fill="url(#rarity-outline)"
     d="M 15.865188,0 15.296829,0.66210935 C 12.066672,4.4281268 8.8259516,8.1882665 5.5995634,11.962891 l -0.5742188,0.671875 0.7558594,0.457031 c 3.230267,1.951953 6.453529,3.916355 9.683594,5.875 l 0.394531,0.240235 0.390625,-0.244141 c 3.358574,-2.087525 6.768086,-4.20862 9.640625,-5.996094 l 0.742187,-0.46289 -0.570312,-0.66211 C 22.855126,8.113416 19.644311,4.3869352 16.435501,0.66015622 Z m 10.503953,15.472657 -0.542969,0.33789 C 22.506414,17.873608 19.186534,19.937946 15.867188,22 12.529084,19.97731 9.1933048,17.950858 5.8535156,15.927735 L 5.3066406,15.595704 4.8945313,16.083985 C 3.4536434,17.782853 2.0102639,19.4818 0.56835938,21.179688 L 0,21.84961 0.75195312,22.304688 c 4.90693138,2.976958 9.81358088,5.955566 14.72070288,8.93164 l 0.392578,0.238282 0.390625,-0.242188 c 4.907957,-3.039973 9.818373,-6.078947 14.72461,-9.121094 l 0.748047,-0.464843 -0.578125,-0.664063 c -1.300455,-1.498561 -2.843562,-3.274073 -4.361329,-5.02539 z"
  />
  <path
     fill="url(#rarity)"
     d="m 25.493579,12.330391 c -3.207,-3.7280004 -6.418,-7.4530004 -9.627,-11.1800004 -3.231,3.767 -6.472,7.526 -9.697,11.2990004 3.232,1.953 6.456,3.919 9.685,5.877 3.214,-1.998 6.426,-3.997 9.639,-5.995 z m 5.091,9.143 c -4.906,3.042 -9.815,6.082 -14.723,9.122 -4.907,-2.976 -9.814,-5.954 -14.721,-8.931 1.442,-1.698 2.884,-3.397 4.325,-5.096 3.47,2.102 6.936,4.21 10.406,6.312 3.45,-2.143 6.9,-4.289 10.35,-6.433 1.454,1.677 2.909,3.35 4.362,5.026 z"
     id="path2-3"/>
  <path
     fill="url(#rarity-outline)"
     d="m 23.136579,12.219391 c -2.163,1.346 -4.321,2.7 -6.483,4.049 -0.001,-4.051 -0.001,-8.1010004 -0.001,-12.1520004 2.162,2.701 4.327,5.399 6.484,8.1040004 z m 5.369,9.081 c -0.832,-0.928 -1.662,-1.855 -2.494,-2.782 -3.118,1.893 -6.235,3.786 -9.352,5.679 -0.002,1.438 10e-4,2.876 -0.002,4.313 3.951,-2.4 7.9,-4.806 11.848,-7.211 z"
     id="path2" />
</svg>
