<?xml version="1.0" encoding="UTF-8" standalone="no"?>
<!-- Generated by IcoMoon.io -->

<svg
   version="1.1"
   width="29.444"
   height="29.445"
   viewBox="0 0 29.444 29.445"
   id="svg6"
   sodipodi:docname="akh.svg"
   inkscape:version="1.1.1 (3bf5ae0d25, 2021-09-20)"
   xmlns:inkscape="http://www.inkscape.org/namespaces/inkscape"
   xmlns:sodipodi="http://sodipodi.sourceforge.net/DTD/sodipodi-0.dtd"
   xmlns="http://www.w3.org/2000/svg"
   xmlns:svg="http://www.w3.org/2000/svg">
  <defs
     id="defs10" />
  <sodipodi:namedview
     id="namedview8"
     pagecolor="#ffffff"
     bordercolor="#666666"
     borderopacity="1.0"
     inkscape:pageshadow="2"
     inkscape:pageopacity="0.0"
     inkscape:pagecheckerboard="0"
     showgrid="false"
     inkscape:zoom="25.75"
     inkscape:cx="14.970874"
     inkscape:cy="15.242718"
     inkscape:window-width="1920"
     inkscape:window-height="1009"
     inkscape:window-x="-8"
     inkscape:window-y="-8"
     inkscape:window-maximized="1"
     inkscape:current-layer="svg6" />
  <title
     id="title2">akh</title>
  <path
     fill="#000000"
     d="M 5.091,11.18 C 8.298,7.452 11.509,3.727 14.718,0 c 3.231,3.767 6.472,7.526 9.697,11.299 -3.232,1.953 -6.456,3.919 -9.685,5.877 -3.214,-1.998 -6.426,-3.997 -9.639,-5.995 z m 2.357,-0.111 c 2.163,1.346 4.321,2.7 6.483,4.049 C 13.932,11.067 13.932,7.017 13.932,2.966 11.77,5.667 9.605,8.365 7.448,11.07 Z M 2.079,20.15 c 0.832,-0.928 1.662,-1.855 2.494,-2.782 3.118,1.893 6.235,3.786 9.352,5.679 0.002,1.438 -0.001,2.876 0.002,4.313 -3.951,-2.4 -7.9,-4.806 -11.848,-7.211 z M 0,20.323 c 4.906,3.042 9.815,6.082 14.723,9.122 4.907,-2.976 9.814,-5.954 14.721,-8.931 -1.442,-1.698 -2.884,-3.397 -4.325,-5.096 -3.47,2.102 -6.936,4.21 -10.406,6.312 -3.45,-2.143 -6.9,-4.289 -10.35,-6.433 -1.454,1.677 -2.909,3.35 -4.362,5.026 z"
     id="path4" />
</svg>
