<?xml version="1.0" encoding="UTF-8" standalone="no"?>
<!-- Generated by IcoMoon.io -->

<svg
   version="1.1"
   width="20.969999"
   height="26.662001"
   viewBox="0 0 20.969999 26.662001"
   id="svg6"
   sodipodi:docname="apc.svg"
   inkscape:version="1.1.1 (3bf5ae0d25, 2021-09-20)"
   xmlns:inkscape="http://www.inkscape.org/namespaces/inkscape"
   xmlns:sodipodi="http://sodipodi.sourceforge.net/DTD/sodipodi-0.dtd"
   xmlns="http://www.w3.org/2000/svg"
   xmlns:svg="http://www.w3.org/2000/svg">
  <defs
     id="defs10" />
  <sodipodi:namedview
     id="namedview8"
     pagecolor="#ffffff"
     bordercolor="#666666"
     borderopacity="1.0"
     inkscape:pageshadow="2"
     inkscape:pageopacity="0.0"
     inkscape:pagecheckerboard="0"
     showgrid="false"
     inkscape:zoom="25.75"
     inkscape:cx="10.466019"
     inkscape:cy="13.300971"
     inkscape:window-width="1920"
     inkscape:window-height="1009"
     inkscape:window-x="-8"
     inkscape:window-y="-8"
     inkscape:window-maximized="1"
     inkscape:current-layer="svg6" />
  <title
     id="title2">apc</title>
  <path
     fill="#000000"
     d="M 10.274,18.596 H 7.088 c -0.973,2.015 -0.715,5.267 -0.715,5.267 0,0 -2.276,-3.057 -2.276,-6.633 0,-3.576 2.537,-7.152 2.537,-7.152 0.586,-0.259 2.534,-0.325 2.534,-0.325 0,0 -1.495,-3.186 -4.225,-2.339 -2.733,0.844 -3.576,3.9 -3.576,3.9 1.171,-0.715 3.705,-0.846 3.705,-0.846 0,0 -2.342,2.733 -2.342,6.633 0,3.901 4.423,9.558 4.423,9.558 C 7.153,26.659 0,25.23 0,13.654 0,2.181 8.944,0.038 10.431,0 h 0.071 c 1.367,0 10.468,2.081 10.468,13.657 0,11.573 -7.153,13.005 -7.153,13.005 0,0 4.423,-5.657 4.423,-9.561 0,-3.9 -2.342,-6.633 -2.342,-6.633 0,0 2.534,0.132 3.705,0.846 0,0 -0.844,-3.057 -3.576,-3.9 -2.73,-0.847 -4.225,2.339 -4.225,2.339 0,0 1.949,0.066 2.534,0.325 0,0 2.537,3.579 2.537,7.155 0,3.576 -2.276,6.63 -2.276,6.63 0,0 0.258,-3.251 -0.715,-5.267 h -3.611 z"
     id="path4" />
</svg>
