<?xml version="1.0" encoding="UTF-8" standalone="no"?>
<svg
   version="1.1"
   width="22.470709"
   height="28.544922"
   viewBox="0 0 22.470709 28.544922"
   id="svg4"
   xmlns="http://www.w3.org/2000/svg"
   xmlns:svg="http://www.w3.org/2000/svg">
  <defs>
    <!-- This is the gradient that will actually be used on
     the cards. The colors themselves will be provided by the
     template, but the x values, y values, and offsets will be
     used from the SVG. -->
    <linearGradient id="rarity" x1="0" y1="1" x2="0" y2="0">
      <stop offset="0" style="stop-color:rgb(192,55,38);stop-opacity:1" id="stop2" />
      <stop offset="0.125" style="stop-color:rgb(192,55,38);stop-opacity:1" id="stop4" />
      <stop offset="0.5" style="stop-color:rgb(241,142,30);stop-opacity:1" id="stop6" />
      <stop offset="0.875" style="stop-color:rgb(192,55,38);stop-opacity:1" id="stop8" />
      <stop offset="1" style="stop-color:rgb(192,55,38);stop-opacity:1" id="stop10" />
    </linearGradient>
    <!-- These gradients are here so that you can visualize
     what the set symbol would like like in that rarity. The
     only gradient that matters in the end is the "rarity"
     gradient. -->
    <linearGradient id="mythic" x1="0" y1="1" x2="1" y2="0">
      <stop offset="0" style="stop-color:rgb(192,55,38);stop-opacity:1"/>
      <stop offset="0.125" style="stop-color:rgb(192,55,38);stop-opacity:1"/>
      <stop offset="0.5" style="stop-color:rgb(241,142,30);stop-opacity:1"/>
      <stop offset="0.875" style="stop-color:rgb(192,55,38);stop-opacity:1"/>
      <stop offset="1" style="stop-color:rgb(192,55,38);stop-opacity:1"/>
    </linearGradient>
    <linearGradient id="rare" x1="0" y1="1" x2="1" y2="0">
      <stop offset="0" style="stop-color:rgb(146,116,67);stop-opacity:1"/>
      <stop offset="0.125" style="stop-color:rgb(146,116,67);stop-opacity:1"/>
      <stop offset="0.5" style="stop-color:rgb(211,178,108);stop-opacity:1"/>
      <stop offset="0.875" style="stop-color:rgb(146,116,67);stop-opacity:1"/>
      <stop offset="1" style="stop-color:rgb(146,116,67);stop-opacity:1"/>
    </linearGradient>
    <linearGradient id="special" x1="0" y1="1" x2="1" y2="0">
      <stop offset="0" style="stop-color:rgb(76, 56, 106);stop-opacity:1"/>
      <stop offset="0.125" style="stop-color:rgb(76, 56, 106);stop-opacity:1"/>
      <stop offset="0.5" style="stop-color:rgb(201, 173, 221);stop-opacity:1"/>
      <stop offset="0.875" style="stop-color:rgb(76, 56, 106);stop-opacity:1"/>
      <stop offset="1" style="stop-color:rgb(76, 56, 106);stop-opacity:1"/>
    </linearGradient>
    <linearGradient id="uncommon" x1="0" y1="1" x2="1" y2="0">
      <stop offset="0" style="stop-color:rgb(98,110,119);stop-opacity:1"/>
      <stop offset="0.125" style="stop-color:rgb(98,110,119);stop-opacity:1"/>
      <stop offset="0.5" style="stop-color:rgb(196,222,238);stop-opacity:1"/>
      <stop offset="0.875" style="stop-color:rgb(98,110,119);stop-opacity:1"/>
      <stop offset="1" style="stop-color:rgb(98,110,119);stop-opacity:1"/>
    </linearGradient>
    <linearGradient id="common" x1="0" y1="1" x2="1" y2="0">
      <stop offset="0" style="stop-color:rgb(0,0,0);stop-opacity:1"/>
    </linearGradient>
    <linearGradient
            id="rarity-outline" x1="0" y1="1" x2="0" y2="1">
      <stop offset="0" style="stop-color:rgb(0,0,0);stop-opacity:1"/>
    </linearGradient>
  </defs>
  <g
     id="path2"
     transform="translate(0.75,0.75)">
    <path fill="url(#rarity-outline)" d="M 10.412109,-0.75 C 9.8795862,-0.73639147 9.0276486,-0.57776354 7.9140625,-0.16796875 6.8004764,0.24182604 5.4705051,0.90777509 4.1835937,1.9570312 1.6097711,4.0555436 -0.75,7.7229105 -0.75,13.654297 c 0,5.942473 1.863585,9.424447 3.7929688,11.371094 1.9293837,1.946646 3.9628906,2.36914 3.9628906,2.36914 l 1.984375,0.396485 -1.2460938,-1.59375 c 0,0 -0.3926134,-0.605179 -0.4921875,-0.738282 l -0.1308594,-1.65625 c 0,0 -0.060273,-0.763014 -0.00586,-1.777343 0.046985,-0.875852 0.2597019,-1.867513 0.5605468,-2.679688 h 2.5957025 0.002 3.021484 c 0.300907,0.812589 0.513562,1.803946 0.560547,2.679688 0.05441,1.014202 -0.0059,1.777343 -0.0059,1.777343 l -0.132812,1.660157 c -0.099,0.132325 -0.490234,0.736328 -0.490234,0.736328 l -1.248047,1.595703 1.986328,-0.398438 c 0,0 2.031634,-0.422171 3.960937,-2.36914 1.929303,-1.94697 3.794922,-5.430081 3.794922,-11.371094 0,-5.9845429 -2.402579,-9.6634083 -5.001953,-11.7539063 -1.299687,-1.04524891 -2.638128,-1.70170813 -3.75,-2.10156245 C 11.856878,-0.59907307 11.033992,-0.75 10.501953,-0.75 h -0.08008 z m 0.03711,1.5 h 0.05273 c 0.151461,0 0.979952,0.10885507 1.958985,0.4609375 0.979032,0.3520824 2.171924,0.939329 3.318359,1.8613281 1.753069,1.4098731 3.401302,3.6066237 4.089844,7.0507814 C 19.44209,9.0830513 18.571039,7.414326 16.25,6.6972656 h -0.002 c -1.6552,-0.5125322 -3.0509,0.2295638 -3.878859,1.0292969 -0.828318,0.80008 -1.246094,1.7070313 -1.246094,1.7070313 l -0.482422,1.0312502 1.136719,0.03711 c 0,0 0.470372,0.01758 1.007812,0.06445 0.458362,0.03998 0.889395,0.12892 1.064453,0.167969 0.223509,0.334305 2.273438,3.443694 2.273438,6.498047 0,1.482854 -0.453323,2.858691 -0.933594,3.958984 -0.09297,-0.95876 -0.182622,-1.989106 -0.632812,-2.921875 l -0.203125,-0.423828 h -4.080078 -0.002 -3.6542965 l -0.2050321,0.42383 C 5.9614926,19.20272 5.8721656,20.233997 5.7792969,21.193359 5.298633,20.092033 4.8476563,18.714238 4.8476562,17.230469 c 0,-3.054238 2.0498067,-6.161879 2.2734375,-6.496094 0.1758064,-0.03932 0.6061929,-0.127991 1.0644532,-0.167969 0.5373213,-0.04687 1.0078125,-0.06445 1.0078125,-0.06445 L 10.330078,10.464844 9.8476563,9.4335938 c 0,0 -0.4197288,-0.9069513 -1.2480469,-1.7070313 C 7.7716508,6.9268297 6.377902,6.1847345 4.7226562,6.6972656 h -0.00195 C 2.3906953,7.417685 1.5191529,9.0965043 1.0957031,10.132813 1.7747271,6.7201717 3.3974751,4.5343722 5.1308594,3.1210938 6.2658206,2.1957269 7.4519632,1.6014701 8.4335938,1.2402344 9.4152243,0.87899868 10.238243,0.75539145 10.449219,0.75 Z M 6.5390625,8.125 C 6.9278643,8.2627493 7.2602604,8.51153 7.5585937,8.8046875 7.7052758,8.9488248 7.9073708,9.2816435 7.9548911,9.4629316 7.1269758,9.5545205 6.5990857,9.6114747 6.0078124,9.667968 L 5.0332031,9.71875 c 0,0 -0.6692755,0.035504 -1.4902343,0.1640625 C 3.2893328,9.9225308 3.0221616,10.068841 2.75,10.126953 3.2297657,9.3534746 3.987786,8.4941149 5.1640625,8.1308594 h 0.00195 C 5.7029187,7.9642818 6.1502607,7.9872507 6.5390625,8.125 Z m 7.8925785,0 c 0.388801,-0.1377493 0.836143,-0.1607182 1.373047,0.00586 h 0.002 c 1.17549,0.3627292 1.932135,1.2224578 2.412062,1.996093 C 17.947267,10.069029 17.680771,9.9224774 17.427734,9.8828125 16.60687,9.7541372 15.9375,9.71875 15.9375,9.71875 L 14.960938,9.667969 C 14.003093,9.5652585 13.63778,9.5414977 13.097657,9.4785156 13.083762,9.3138 13.262552,8.9491461 13.412109,8.8046875 13.71295,8.5141032 14.042839,8.2627493 14.431641,8.125 Z M 3.5898438,11.417969 c -0.7433376,1.212076 -1.6093751,3.004464 -1.6093751,5.683593 0,2.233951 1.1787532,4.669112 2.3125,6.619141 0.2456178,0.422459 0.2579844,0.370385 0.4921875,0.736328 C 4.5437368,24.263391 4.3607327,24.222357 4.109375,23.96875 2.4622623,22.3069 0.75,19.287812 0.75,13.654297 0.75,13.224943 0.83883518,12.901055 0.86328125,12.5 L 1.7578125,11.955078 c 0.3609531,-0.220394 1.1423361,-0.413464 1.8320313,-0.537109 z m 13.7910152,0 c 0.6898,0.123738 1.470891,0.316909 1.832032,0.537109 L 20.105469,12.5 c 0.02459,0.402323 0.115234,0.725457 0.115234,1.15625 0,5.631975 -1.712181,8.652176 -3.359375,10.314453 -0.25137,0.253672 -0.434346,0.294567 -0.675781,0.488281 0.234206,-0.365998 0.246568,-0.313782 0.492187,-0.736328 1.133756,-1.950429 2.3125,-4.385861 2.3125,-6.621094 0,-2.678871 -0.866054,-4.471451 -1.609375,-5.683593 z"/>
    <path fill="url(#rarity)" d="M 10.274,18.596 H 7.088 c -0.973,2.015 -0.715,5.267 -0.715,5.267 0,0 -2.276,-3.057 -2.276,-6.633 0,-3.576 2.537,-7.152 2.537,-7.152 0.586,-0.259 2.534,-0.325 2.534,-0.325 0,0 -1.495,-3.186 -4.225,-2.339 -2.733,0.844 -3.576,3.9 -3.576,3.9 1.171,-0.715 3.705,-0.846 3.705,-0.846 0,0 -2.342,2.733 -2.342,6.633 0,3.901 4.423,9.558 4.423,9.558 C 7.153,26.659 0,25.23 0,13.654 0,2.181 8.944,0.038 10.431,0 h 0.071 c 1.367,0 10.468,2.081 10.468,13.657 0,11.573 -7.153,13.005 -7.153,13.005 0,0 4.423,-5.657 4.423,-9.561 0,-3.9 -2.342,-6.633 -2.342,-6.633 0,0 2.534,0.132 3.705,0.846 0,0 -0.844,-3.057 -3.576,-3.9 -2.73,-0.847 -4.225,2.339 -4.225,2.339 0,0 1.949,0.066 2.534,0.325 0,0 2.537,3.579 2.537,7.155 0,3.576 -2.276,6.63 -2.276,6.63 0,0 0.258,-3.251 -0.715,-5.267 h -3.611 z"/>
  </g>
</svg>
