<?xml version="1.0" encoding="UTF-8" standalone="no"?>
<!-- Generated by IcoMoon.io -->

<svg
   version="1.1"
   width="25.546"
   height="30.334"
   viewBox="0 0 25.546 30.334"
   id="svg6"
   sodipodi:docname="arc.svg"
   inkscape:version="1.1.1 (3bf5ae0d25, 2021-09-20)"
   xmlns:inkscape="http://www.inkscape.org/namespaces/inkscape"
   xmlns:sodipodi="http://sodipodi.sourceforge.net/DTD/sodipodi-0.dtd"
   xmlns="http://www.w3.org/2000/svg"
   xmlns:svg="http://www.w3.org/2000/svg">
  <defs
     id="defs10" />
  <sodipodi:namedview
     id="namedview8"
     pagecolor="#ffffff"
     bordercolor="#666666"
     borderopacity="1.0"
     inkscape:pageshadow="2"
     inkscape:pageopacity="0.0"
     inkscape:pagecheckerboard="0"
     showgrid="false"
     inkscape:zoom="25.75"
     inkscape:cx="12.757282"
     inkscape:cy="15.165049"
     inkscape:window-width="1920"
     inkscape:window-height="1009"
     inkscape:window-x="-8"
     inkscape:window-y="-8"
     inkscape:window-maximized="1"
     inkscape:current-layer="svg6" />
  <title
     id="title2">arc</title>
  <path
     fill="#000000"
     d="M 12.77,30.334 4.286,21.653 5.187,20.524 0,15.732 C 0,6.315 8.585,1.691 8.585,1.691 c 0,0 -3.807,5.331 -3.807,11.757 0,6.429 2.456,7.318 3.679,7.318 1.229,0 2.158,-0.804 2.158,-2.158 0,-2.368 -2.918,-2.368 -2.918,-2.368 L 12.775,0 17.849,16.24 c 0,0 -2.918,0 -2.918,2.368 0,1.354 0.929,2.158 2.155,2.158 1.226,0 3.679,-0.889 3.679,-7.318 0,-6.425 -3.804,-11.757 -3.804,-11.757 0,0 8.585,4.624 8.585,14.041 l -5.187,4.792 0.901,1.129 -8.487,8.681 z"
     id="path4" />
</svg>
