<?xml version="1.0" encoding="UTF-8" standalone="no"?>
<!-- Generated by IcoMoon.io -->

<svg
   version="1.1"
   width="31.912001"
   height="14.401"
   viewBox="0 0 31.912001 14.401"
   id="svg6"
   sodipodi:docname="ath.svg"
   inkscape:version="1.1.1 (3bf5ae0d25, 2021-09-20)"
   xmlns:inkscape="http://www.inkscape.org/namespaces/inkscape"
   xmlns:sodipodi="http://sodipodi.sourceforge.net/DTD/sodipodi-0.dtd"
   xmlns="http://www.w3.org/2000/svg"
   xmlns:svg="http://www.w3.org/2000/svg">
  <defs
     id="defs10" />
  <sodipodi:namedview
     id="namedview8"
     pagecolor="#ffffff"
     bordercolor="#666666"
     borderopacity="1.0"
     inkscape:pageshadow="2"
     inkscape:pageopacity="0.0"
     inkscape:pagecheckerboard="0"
     showgrid="false"
     inkscape:zoom="25.75"
     inkscape:cx="15.941748"
     inkscape:cy="7.1650485"
     inkscape:window-width="1920"
     inkscape:window-height="1009"
     inkscape:window-x="-8"
     inkscape:window-y="-8"
     inkscape:window-maximized="1"
     inkscape:current-layer="svg6" />
  <title
     id="title2">ath</title>
  <path
     fill="#000000"
     d="M 18.931,9.833 31.497,5.318 13.914,0 2.217,3.743 Z m -1.133,4.301 c -0.119,-0.412 -0.207,-0.893 -0.209,-1.415 0,-0.619 0.121,-1.218 0.367,-1.786 L 0.369,4.527 C 0.35,4.561 0.331,4.6 0.312,4.64 0.169,4.941 0,5.414 0,5.952 0.002,6.461 0.143,6.935 0.432,7.397 L 17.8,14.134 Z M 19.36,14.4 c -0.186,-0.391 -0.404,-0.994 -0.402,-1.681 0,-0.569 0.141,-1.092 0.43,-1.596 L 31.286,6.851 c -0.049,0.25 -0.075,0.504 -0.075,0.752 0,0.481 0.096,0.915 0.284,1.293 0.107,0.216 0.248,0.412 0.417,0.584 l -12.551,4.921 z"
     id="path4" />
</svg>
