<?xml version="1.0" encoding="UTF-8" standalone="no"?>
<!-- Generated by IcoMoon.io -->

<svg
   version="1.1"
   width="32.018002"
   height="16.625999"
   viewBox="0 0 32.018002 16.625999"
   id="svg6"
   sodipodi:docname="atq.svg"
   inkscape:version="1.1.1 (3bf5ae0d25, 2021-09-20)"
   xmlns:inkscape="http://www.inkscape.org/namespaces/inkscape"
   xmlns:sodipodi="http://sodipodi.sourceforge.net/DTD/sodipodi-0.dtd"
   xmlns="http://www.w3.org/2000/svg"
   xmlns:svg="http://www.w3.org/2000/svg">
  <defs
     id="defs10" />
  <sodipodi:namedview
     id="namedview8"
     pagecolor="#ffffff"
     bordercolor="#666666"
     borderopacity="1.0"
     inkscape:pageshadow="2"
     inkscape:pageopacity="0.0"
     inkscape:pagecheckerboard="0"
     showgrid="false"
     inkscape:zoom="25.75"
     inkscape:cx="15.980583"
     inkscape:cy="8.2912621"
     inkscape:window-width="1920"
     inkscape:window-height="1009"
     inkscape:window-x="-8"
     inkscape:window-y="-8"
     inkscape:window-maximized="1"
     inkscape:current-layer="svg6" />
  <title
     id="title2">atq</title>
  <path
     fill="#000000"
     d="m 24.303,12.101 c 0,-0.592 -0.482,-1.074 -1.074,-1.074 -0.592,0 -1.071,0.482 -1.071,1.074 0,0.592 0.479,1.071 1.071,1.071 0.592,0 1.074,-0.48 1.074,-1.071 z m -5.064,0 c 0,-0.592 -0.48,-1.074 -1.071,-1.074 -0.591,0 -1.071,0.482 -1.071,1.074 0,0.592 0.48,1.071 1.071,1.071 0.591,0 1.071,-0.48 1.071,-1.071 z M 32.013,8.377 h -4.724 c -1.205,0 -2.181,0.975 -2.181,2.181 0,1.206 0.976,2.182 2.181,2.182 l 0.771,0.007 c 0,0 0.985,0.308 0.985,1.927 0,1.616 -0.976,1.952 -0.976,1.952 H 12.495 c 0,0 -0.976,-0.336 -0.976,-1.952 0,-1.619 0.983,-1.927 0.983,-1.927 0,0 1.541,-0.007 1.543,-0.007 1.249,0 2.262,-1.015 2.262,-2.262 0,-1.25 -1.012,-2.262 -2.262,-2.262 -5.932,0 -6.047,-1.753 -6.047,-1.753 0,0 -6.849,-0.381 -7.998,-5.48 H 10.097 L 10.869,0 h 21.149 l -0.005,8.378 z"
     id="path4" />
</svg>
