<?xml version="1.0" encoding="UTF-8" standalone="no"?>
<!-- Generated by IcoMoon.io -->

<svg
   version="1.1"
   width="26.669001"
   height="26.771999"
   viewBox="0 0 26.669001 26.771999"
   id="svg6"
   sodipodi:docname="avr.svg"
   inkscape:version="1.1.1 (3bf5ae0d25, 2021-09-20)"
   xmlns:inkscape="http://www.inkscape.org/namespaces/inkscape"
   xmlns:sodipodi="http://sodipodi.sourceforge.net/DTD/sodipodi-0.dtd"
   xmlns="http://www.w3.org/2000/svg"
   xmlns:svg="http://www.w3.org/2000/svg">
  <defs
     id="defs10" />
  <sodipodi:namedview
     id="namedview8"
     pagecolor="#ffffff"
     bordercolor="#666666"
     borderopacity="1.0"
     inkscape:pageshadow="2"
     inkscape:pageopacity="0.0"
     inkscape:pagecheckerboard="0"
     showgrid="false"
     inkscape:zoom="25.75"
     inkscape:cx="13.495146"
     inkscape:cy="13.378641"
     inkscape:window-width="1920"
     inkscape:window-height="1009"
     inkscape:window-x="-8"
     inkscape:window-y="-8"
     inkscape:window-maximized="1"
     inkscape:current-layer="svg6" />
  <title
     id="title2">avr</title>
  <path
     fill="#000000"
     d="M 10.691,24.283 V 20.066 C 6.418,18.89 3.376,14.944 3.376,10.464 3.376,8.348 4.054,6.286 5.298,4.587 L 5.099,4.388 H 3.06 L 0,7.448 V 0 h 7.289 l 4.189,4.189 v 6.579 L 8.925,8.215 c -0.356,0.692 -0.541,1.457 -0.541,2.25 0,2.73 2.221,4.951 4.951,4.951 2.73,0 4.951,-2.221 4.951,-4.951 0,-0.794 -0.185,-1.559 -0.541,-2.251 l -2.554,2.554 V 4.189 L 19.38,0 h 7.289 v 7.448 l -3.06,-3.06 H 21.57 l -0.198,0.198 c 1.243,1.699 1.921,3.761 1.921,5.878 0,4.48 -3.042,8.426 -7.315,9.602 v 4.217 l -2.644,2.489 -2.644,-2.489 z"
     id="path4" />
</svg>
