<?xml version="1.0" encoding="UTF-8" standalone="no"?>
<!-- Generated by IcoMoon.io -->

<svg
   version="1.1"
   width="27.016001"
   height="26.118256"
   viewBox="0 0 27.016001 26.118256"
   id="svg6"
   sodipodi:docname="bng.svg"
   inkscape:version="1.1.1 (3bf5ae0d25, 2021-09-20)"
   xmlns:inkscape="http://www.inkscape.org/namespaces/inkscape"
   xmlns:sodipodi="http://sodipodi.sourceforge.net/DTD/sodipodi-0.dtd"
   xmlns="http://www.w3.org/2000/svg"
   xmlns:svg="http://www.w3.org/2000/svg">
  <defs
     id="defs10" />
  <sodipodi:namedview
     id="namedview8"
     pagecolor="#ffffff"
     bordercolor="#666666"
     borderopacity="1.0"
     inkscape:pageshadow="2"
     inkscape:pageopacity="0.0"
     inkscape:pagecheckerboard="0"
     showgrid="false"
     inkscape:zoom="25.75"
     inkscape:cx="13.495146"
     inkscape:cy="13.029126"
     inkscape:window-width="1920"
     inkscape:window-height="1009"
     inkscape:window-x="-8"
     inkscape:window-y="-8"
     inkscape:window-maximized="1"
     inkscape:current-layer="svg6" />
  <title
     id="title2">bng</title>
  <path
     fill="#000000"
     d="M 9.179,0 C 9.028,2.814 8.993,5.605 6.938,8.058 5.002,5.206 2.546,4.907 0,4.891 2.276,6.462 6.41,9.65 2.238,17.932 c 0.612,2.686 2.249,4.777 4.387,6.173 2.015,1.382 4.421,2.028 6.818,2.013 0.013,0 0.025,0 0.038,0 2.4,0.015 4.811,-0.632 6.827,-2.018 2.134,-1.396 3.768,-3.485 4.379,-6.167 C 20.515,9.651 24.74,6.463 27.016,4.892 24.47,4.908 21.925,5.208 19.989,8.059 17.934,5.606 17.897,2.815 17.747,0.001 c -1.024,1.408 -3.68,7.258 -1.176,10.881 2.138,3.093 0.288,6.427 -3.048,6.557 l -0.061,0.003 -0.06,-0.003 C 10.066,17.308 8.216,13.974 10.354,10.882 12.858,7.26 10.203,1.409 9.178,0.001 Z"
     id="path4" />
</svg>
