<?xml version="1.0" encoding="UTF-8" standalone="no"?>
<svg
   version="1.1"
   width="32.683594"
   height="29.611565"
   viewBox="0 0 32.683594 29.611565"
   id="svg4"
   xmlns="http://www.w3.org/2000/svg"
   xmlns:svg="http://www.w3.org/2000/svg">
  <defs>
    <!-- This is the gradient that will actually be used on
     the cards. The colors themselves will be provided by the
     template, but the x values, y values, and offsets will be
     used from the SVG. -->
    <linearGradient id="rarity" x1="0" y1="0" x2="1" y2="0">
      <stop offset="0" style="stop-color:rgb(192,55,38);stop-opacity:1" id="stop2" />
      <stop offset="0.125" style="stop-color:rgb(192,55,38);stop-opacity:1" id="stop4" />
      <stop offset="0.5" style="stop-color:rgb(241,142,30);stop-opacity:1" id="stop6" />
      <stop offset="0.875" style="stop-color:rgb(192,55,38);stop-opacity:1" id="stop8" />
      <stop offset="1" style="stop-color:rgb(192,55,38);stop-opacity:1" id="stop10" />
    </linearGradient>
    <!-- These gradients are here so that you can visualize
     what the set symbol would like like in that rarity. The
     only gradient that matters in the end is the "rarity"
     gradient. -->
    <linearGradient id="mythic" x1="0" y1="1" x2="1" y2="0">
      <stop offset="0" style="stop-color:rgb(192,55,38);stop-opacity:1"/>
      <stop offset="0.125" style="stop-color:rgb(192,55,38);stop-opacity:1"/>
      <stop offset="0.5" style="stop-color:rgb(241,142,30);stop-opacity:1"/>
      <stop offset="0.875" style="stop-color:rgb(192,55,38);stop-opacity:1"/>
      <stop offset="1" style="stop-color:rgb(192,55,38);stop-opacity:1"/>
    </linearGradient>
    <linearGradient id="rare" x1="0" y1="1" x2="1" y2="0">
      <stop offset="0" style="stop-color:rgb(146,116,67);stop-opacity:1"/>
      <stop offset="0.125" style="stop-color:rgb(146,116,67);stop-opacity:1"/>
      <stop offset="0.5" style="stop-color:rgb(211,178,108);stop-opacity:1"/>
      <stop offset="0.875" style="stop-color:rgb(146,116,67);stop-opacity:1"/>
      <stop offset="1" style="stop-color:rgb(146,116,67);stop-opacity:1"/>
    </linearGradient>
    <linearGradient id="special" x1="0" y1="1" x2="1" y2="0">
      <stop offset="0" style="stop-color:rgb(76, 56, 106);stop-opacity:1"/>
      <stop offset="0.125" style="stop-color:rgb(76, 56, 106);stop-opacity:1"/>
      <stop offset="0.5" style="stop-color:rgb(201, 173, 221);stop-opacity:1"/>
      <stop offset="0.875" style="stop-color:rgb(76, 56, 106);stop-opacity:1"/>
      <stop offset="1" style="stop-color:rgb(76, 56, 106);stop-opacity:1"/>
    </linearGradient>
    <linearGradient id="uncommon" x1="0" y1="1" x2="1" y2="0">
      <stop offset="0" style="stop-color:rgb(98,110,119);stop-opacity:1"/>
      <stop offset="0.125" style="stop-color:rgb(98,110,119);stop-opacity:1"/>
      <stop offset="0.5" style="stop-color:rgb(196,222,238);stop-opacity:1"/>
      <stop offset="0.875" style="stop-color:rgb(98,110,119);stop-opacity:1"/>
      <stop offset="1" style="stop-color:rgb(98,110,119);stop-opacity:1"/>
    </linearGradient>
    <linearGradient id="common" x1="0" y1="1" x2="1" y2="0">
      <stop offset="0" style="stop-color:rgb(0,0,0);stop-opacity:1"/>
    </linearGradient>
    <linearGradient
            id="rarity-outline" x1="0" y1="1" x2="0" y2="1">
      <stop offset="0" style="stop-color:rgb(0,0,0);stop-opacity:1"/>
    </linearGradient>
  </defs>
  <path fill="url(#rarity-outline)" d="M 11.277344,0 11.138672,2.5722656 C 11.005558,5.052952 10.886688,7.2601593 9.6425781,9.2539062 8.773493,8.3063953 7.8365282,7.5788818 6.8339844,7.2089843 5.5027731,6.7178221 4.1453255,6.6429697 2.8398438,6.6347656 L 0,6.6171875 2.3378906,8.2304687 c 1.1141034,0.7690055 2.5256309,1.8381943 3.2187501,3.6035153 0.6931191,1.765322 0.747838,4.327215 -1.2656251,8.324219 l -0.1425781,0.28125 0.070312,0.306641 c 0.6642221,2.915197 2.4552633,5.200131 4.7519531,6.703125 2.1751624,1.48991 4.7529694,2.177025 7.3066394,2.162109 h 0.03711 c 2.555558,0.01491 5.138324,-0.674813 7.314453,-2.167968 2.292969,-1.502984 4.082797,-3.785711 4.746094,-6.697266 l 0.06836,-0.306641 -0.140625,-0.28125 c -2.012313,-3.994721 -1.937877,-6.550213 -1.224609,-8.316406 0.713268,-1.766192 2.150941,-2.8392259 3.269531,-3.6113283 l 2.335937,-1.6113281 -2.839843,0.017578 c -1.305533,0.0082 -2.68191,0.082824 -4.033204,0.5722656 -1.020552,0.3696464 -1.97489,1.0991999 -2.855468,2.0527344 -1.247932,-1.9953176 -1.367674,-4.2050645 -1.5,-6.6875 l -0.13086,-2.4628906 -1.451172,1.9941406 c -0.639386,0.879157 -1.547796,2.7080084 -2.05664,4.9296875 -0.508844,2.2216791 -0.590367,4.8511508 0.869141,6.9628908 0.918256,1.328423 0.931203,2.562141 0.464843,3.503907 -0.46636,0.941765 -1.444667,1.627728 -2.828125,1.68164 h -0.0039 l -0.02148,0.002 -0.02149,-0.002 h -0.0059 c -1.383517,-0.05433 -2.359791,-0.739833 -2.826172,-1.68164 -0.466381,-0.941808 -0.453336,-2.176025 0.464844,-3.503907 l 0.03711,-0.05469 0.0293,-0.06055 C 15.757666,10.211219 14.961394,5.37128 12.734375,2.125 Z"/>
  <path
     fill="url(#rarity)" d="m 12.012984,2.6191406 c -0.151,2.814 -0.186,5.605 -2.2409996,8.0580004 -1.936,-2.8520004 -4.392,-3.1510004 -6.938,-3.1670004 2.276,1.571 6.41,4.7590004 2.238,13.0410004 0.612,2.686 2.249,4.777 4.387,6.173 2.0149996,1.382 4.4209996,2.028 6.8179996,2.013 0.013,0 0.025,0 0.038,0 2.4,0.015 4.811,-0.632 6.827,-2.018 2.134,-1.396 3.768,-3.485 4.379,-6.167 -4.172,-8.282 0.053,-11.4700004 2.329,-13.0410004 -2.546,0.016 -5.091,0.316 -7.027,3.1670004 -2.055,-2.4530004 -2.092,-5.2440004 -2.242,-8.0580004 -1.024,1.408 -3.68,7.258 -1.176,10.8810004 2.138,3.093 0.288,6.427 -3.048,6.557 l -0.061,0.003 -0.06,-0.003 c -3.336,-0.131 -5.186,-3.465 -3.048,-6.557 2.504,-3.6220004 -0.151,-9.4730004 -1.176,-10.8810004 z"/>
</svg>
