<?xml version="1.0" encoding="UTF-8" standalone="no"?>
<!-- Generated by IcoMoon.io -->

<svg
   version="1.1"
   width="31.000999"
   height="30.066999"
   viewBox="0 0 31.000999 30.066999"
   id="svg6"
   sodipodi:docname="boros.svg"
   inkscape:version="1.1.1 (3bf5ae0d25, 2021-09-20)"
   xmlns:inkscape="http://www.inkscape.org/namespaces/inkscape"
   xmlns:sodipodi="http://sodipodi.sourceforge.net/DTD/sodipodi-0.dtd"
   xmlns="http://www.w3.org/2000/svg"
   xmlns:svg="http://www.w3.org/2000/svg">
  <defs
     id="defs10" />
  <sodipodi:namedview
     id="namedview8"
     pagecolor="#ffffff"
     bordercolor="#666666"
     borderopacity="1.0"
     inkscape:pageshadow="2"
     inkscape:pageopacity="0.0"
     inkscape:pagecheckerboard="0"
     showgrid="false"
     inkscape:zoom="25.75"
     inkscape:cx="15.514563"
     inkscape:cy="15.009709"
     inkscape:window-width="1920"
     inkscape:window-height="1009"
     inkscape:window-x="-8"
     inkscape:window-y="-8"
     inkscape:window-maximized="1"
     inkscape:current-layer="svg6" />
  <title
     id="title2">boros</title>
  <path
     fill="#000000"
     d="M 15.32,0.71 C 15.375,0.472 15.424,0.231 15.506,0 c 0.588,2.442 1.155,4.889 1.731,7.334 0.146,0.028 0.292,0.055 0.439,0.081 1.342,-1.822 2.697,-3.635 4.042,-5.457 0.091,-0.125 0.186,-0.248 0.286,-0.366 -0.351,2.39 -0.758,4.772 -1.118,7.161 0.177,0.122 0.355,0.242 0.537,0.356 1.617,-0.946 3.225,-1.909 4.84,-2.861 0.274,-0.16 0.541,-0.334 0.826,-0.474 -1.139,1.855 -2.351,3.665 -3.501,5.513 0.161,0.231 0.32,0.465 0.471,0.704 2.025,-0.232 4.045,-0.51 6.07,-0.744 -1.616,1.208 -3.26,2.38 -4.889,3.571 0.05,0.281 0.111,0.56 0.16,0.841 1.86,0.561 3.739,1.066 5.601,1.62 -1.867,0.488 -3.739,0.956 -5.602,1.461 -0.33,2.166 -1.403,4.209 -2.996,5.712 0.443,1.248 0.934,2.479 1.39,3.723 -1.04,0.804 -2.219,1.423 -3.448,1.881 -0.318,-1.497 -0.616,-3 -0.925,-4.498 -0.134,-0.691 -0.298,-1.376 -0.411,-2.07 0.555,-0.53 1.111,-1.059 1.671,-1.585 0.102,-0.093 0.202,-0.198 0.224,-0.34 0.274,-1.169 0.569,-2.332 0.834,-3.503 -1.145,0.609 -2.274,1.25 -3.414,1.871 -0.237,0.123 -0.46,0.275 -0.707,0.374 -0.097,-0.011 -0.182,-0.063 -0.267,-0.103 -1.174,-0.623 -2.357,-1.231 -3.531,-1.854 -0.117,-0.062 -0.24,-0.124 -0.377,-0.117 -0.761,-0.004 -1.522,0.006 -2.283,-0.003 -0.001,-0.172 -0.001,-0.344 -0.001,-0.515 1.198,-0.008 2.396,0.01 3.594,-0.009 -0.001,-0.74 10e-4,-1.48 -0.001,-2.219 -1.895,-0.015 -3.79,-0.006 -5.684,-0.004 -0.013,1.23 10e-4,2.46 -0.007,3.69 0.004,0.124 -0.011,0.267 0.083,0.364 1.029,1.258 2.06,2.513 3.089,3.771 -0.501,2.256 -1.029,4.506 -1.538,6.761 C 9.447,29.617 8.259,28.986 7.208,28.177 7.664,26.933 8.155,25.702 8.597,24.454 7.004,22.95 5.931,20.908 5.601,18.742 3.739,18.237 1.867,17.768 0,17.281 1.862,16.726 3.74,16.222 5.6,15.661 5.649,15.38 5.71,15.101 5.76,14.82 4.225,13.707 2.694,12.588 1.16,11.474 1.061,11.402 0.965,11.327 0.871,11.249 2.896,11.482 4.915,11.761 6.939,11.992 7.091,11.754 7.25,11.521 7.411,11.29 6.432,9.725 5.422,8.177 4.432,6.619 4.256,6.338 4.063,6.066 3.907,5.773 4.193,5.915 4.461,6.089 4.736,6.25 6.351,7.202 7.959,8.164 9.576,9.111 9.758,8.997 9.936,8.876 10.114,8.755 9.753,6.366 9.346,3.984 8.995,1.594 c 1.458,1.929 2.888,3.88 4.328,5.823 0.146,-0.026 0.293,-0.053 0.439,-0.081 0.515,-2.209 1.04,-4.416 1.557,-6.624 z m -1.421,10.154 c 0,1.328 0,2.656 0,3.984 0.514,0.011 1.029,-0.009 1.543,0.012 -10e-4,0.855 -0.006,1.71 10e-4,2.565 0.283,0.009 0.566,0.009 0.849,0 -0.001,-2.188 0.003,-4.377 -0.002,-6.565 -0.797,-0.003 -1.594,-0.009 -2.391,0.004 z m 3.096,0.884 c -0.001,1.894 -0.006,3.788 0.003,5.682 0.756,-0.001 1.513,-0.001 2.269,0 0.017,-1.894 0.008,-3.788 0.004,-5.682 -0.759,-0.007 -1.518,-0.006 -2.276,0 z m -6.33,0.088 c -0.007,1.004 -0.003,2.008 -0.003,3.012 0.859,0.004 1.719,0.004 2.578,10e-4 0,-1.005 0.005,-2.009 -0.003,-3.014 -0.858,10e-4 -1.715,0 -2.572,10e-4 z m 9.226,0.75 c -0.006,1.615 -0.014,3.23 0.004,4.844 0.648,-0.001 1.298,0.003 1.947,-0.002 0.003,-1.613 0,-3.226 0.001,-4.839 -0.651,-0.008 -1.301,-0.004 -1.952,-0.002 z"
     id="path4" />
</svg>
