<?xml version="1.0" encoding="UTF-8" standalone="no"?>
<svg
   version="1.1"
   width="34.292969"
   height="19.035156"
   viewBox="0 0 34.292968 19.035157"
   id="svg4"
   xmlns="http://www.w3.org/2000/svg"
   xmlns:svg="http://www.w3.org/2000/svg">
  <defs>
    <!-- This is the gradient that will actually be used on
     the cards. The colors themselves will be provided by the
     template, but the x values, y values, and offsets will be
     used from the SVG. -->
    <linearGradient id="rarity" x1="0" y1="1" x2="1" y2="0">
      <stop offset="0" style="stop-color:rgb(192,55,38);stop-opacity:1" id="stop2" />
      <stop offset="0.125" style="stop-color:rgb(192,55,38);stop-opacity:1" id="stop4" />
      <stop offset="0.5" style="stop-color:rgb(241,142,30);stop-opacity:1" id="stop6" />
      <stop offset="0.875" style="stop-color:rgb(192,55,38);stop-opacity:1" id="stop8" />
      <stop offset="1" style="stop-color:rgb(192,55,38);stop-opacity:1" id="stop10" />
    </linearGradient>
    <!-- These gradients are here so that you can visualize
     what the set symbol would like like in that rarity. The
     only gradient that matters in the end is the "rarity"
     gradient. -->
    <linearGradient id="mythic" x1="0" y1="1" x2="1" y2="0">
      <stop offset="0" style="stop-color:rgb(192,55,38);stop-opacity:1"/>
      <stop offset="0.125" style="stop-color:rgb(192,55,38);stop-opacity:1"/>
      <stop offset="0.5" style="stop-color:rgb(241,142,30);stop-opacity:1"/>
      <stop offset="0.875" style="stop-color:rgb(192,55,38);stop-opacity:1"/>
      <stop offset="1" style="stop-color:rgb(192,55,38);stop-opacity:1"/>
    </linearGradient>
    <linearGradient id="rare" x1="0" y1="1" x2="1" y2="0">
      <stop offset="0" style="stop-color:rgb(146,116,67);stop-opacity:1"/>
      <stop offset="0.125" style="stop-color:rgb(146,116,67);stop-opacity:1"/>
      <stop offset="0.5" style="stop-color:rgb(211,178,108);stop-opacity:1"/>
      <stop offset="0.875" style="stop-color:rgb(146,116,67);stop-opacity:1"/>
      <stop offset="1" style="stop-color:rgb(146,116,67);stop-opacity:1"/>
    </linearGradient>
    <linearGradient id="special" x1="0" y1="1" x2="1" y2="0">
      <stop offset="0" style="stop-color:rgb(76, 56, 106);stop-opacity:1"/>
      <stop offset="0.125" style="stop-color:rgb(76, 56, 106);stop-opacity:1"/>
      <stop offset="0.5" style="stop-color:rgb(201, 173, 221);stop-opacity:1"/>
      <stop offset="0.875" style="stop-color:rgb(76, 56, 106);stop-opacity:1"/>
      <stop offset="1" style="stop-color:rgb(76, 56, 106);stop-opacity:1"/>
    </linearGradient>
    <linearGradient id="uncommon" x1="0" y1="1" x2="1" y2="0">
      <stop offset="0" style="stop-color:rgb(98,110,119);stop-opacity:1"/>
      <stop offset="0.125" style="stop-color:rgb(98,110,119);stop-opacity:1"/>
      <stop offset="0.5" style="stop-color:rgb(196,222,238);stop-opacity:1"/>
      <stop offset="0.875" style="stop-color:rgb(98,110,119);stop-opacity:1"/>
      <stop offset="1" style="stop-color:rgb(98,110,119);stop-opacity:1"/>
    </linearGradient>
    <linearGradient id="common" x1="0" y1="1" x2="1" y2="0">
      <stop offset="0" style="stop-color:rgb(0,0,0);stop-opacity:1"/>
    </linearGradient>
    <linearGradient
            id="rarity-outline" x1="0" y1="1" x2="0" y2="1">
      <stop offset="0" style="stop-color:rgb(0,0,0);stop-opacity:1"/>
    </linearGradient>
  </defs>
  <path fill="url(#rarity-outline)" d="M 16.628906,5.5644531 15.322265,7.9648437 H 2.5390625 L 1.4140625,7.4589844 0,9.515625 l 1.4121094,2.0625 1.1249999,-0.505859 H 15.320312 l 1.308594,2.402343 c 1.878331,3.453463 5.516176,5.560547 9.808594,5.560547 1.540702,0 2.865073,-0.441917 3.921875,-1.011719 2.00652,-1.08169 3.117187,-2.658203 3.117187,-2.658203 l 0.792969,-1.117187 -1.369141,-0.06445 c -1.310794,-0.06302 -1.901488,-0.470831 -2.230468,-0.857422 -0.328981,-0.386592 -0.401947,-0.839127 -0.408204,-0.978516 -0.02645,-0.58439 0.205217,-0.951194 0.265625,-1.058593 l 1.41211,-0.666016 V 8.4121094 L 30.52539,7.7441406 C 30.46912,7.6488716 30.246529,7.3155646 30.261718,6.6875 c 0.0029,-0.1173548 0.07272,-0.5818644 0.404297,-0.9726563 0.331579,-0.3907918 0.926836,-0.8003291 2.236328,-0.8632812 l 1.390625,-0.066406 -0.820312,-1.1249999 c 0,0 -1.192591,-1.643619 -3.296875,-2.72460943 C 29.148754,0.40733039 27.888627,0.00662461 26.443359,0 21.168592,0.40716485 18.282281,2.6666935 16.628906,5.5644531 Z m 6.947266,-0.8847656 c 2.415065,0 2.841797,1.3888578 2.841796,1.8710937 0,0.482236 -0.396144,1.3789063 -2.25,1.3789063 -1.966148,0 -3.023437,-0.6035156 -3.023437,-0.6035156 L 20.417968,6.921875 20.138672,7.5742187 c -0.01291,0.011353 -0.03684,0.038505 -0.150391,0.089844 -0.267929,0.1211332 -0.901191,0.3007812 -2.140625,0.3007812 h -2.058594 l 1.945313,-1.4394531 c 0,0 2.52062,-1.8457031 5.841797,-1.8457033 z m -7.792969,6.3925785 h 2.064453 c 1.238907,0 1.872455,0.179576 2.140625,0.300781 0.113655,0.05137 0.137352,0.07839 0.150391,0.08984 l 0.28125,0.652343 0.724609,-0.402343 c 0,0 1.057289,-0.603516 3.023437,-0.603516 1.809532,0 2.25,1.08715 2.25,1.566406 0,0.482766 -0.39111,1.681641 -2.841796,1.681641 -3.321455,0 -5.841797,-1.84375 -5.841797,-1.84375 z"/>
  <path fill="url(#rarity)" d="m 26.439156,0.75 c 1.309,0.006 2.451,0.368 3.394,0.853 1.933,0.993 3.033,2.499 3.033,2.499 -2.933,0.141 -3.341,2.009 -3.355,2.567 -0.023,0.951 0.421,1.625 0.421,1.625 l 1.258,0.593 v 1.26 l -1.258,0.593 c 0,0 -0.461,0.714 -0.419,1.642 0.025,0.557 0.419,2.409 3.352,2.55 0,0 -1.019,1.438 -2.861,2.431 -0.97,0.523 -2.168,0.922 -3.566,0.922 -4.051,0 -7.403,-1.956 -9.15,-5.168 0,0 2.69,1.99 6.288,1.99 2.724,0 3.592,-1.489 3.592,-2.432 0,-0.941 -0.869,-2.316 -3.001,-2.316 -2.13,0 -3.386,0.698 -3.386,0.698 0,0 -0.315,-0.734 -2.933,-0.734 H 2.3771563 L 1.6771562,10.637 0.91015625,9.517 1.6771562,8.4 2.3771563,8.715 H 17.848156 c 2.619,0 2.933,-0.734 2.933,-0.734 0,0 1.256,0.698 3.386,0.698 2.132,0 3.001,-1.186 3.001,-2.129 0,-0.943 -0.869,-2.62 -3.592,-2.62 -3.598,0 -6.288,1.992 -6.288,1.992 1.747,-3.214 5.099,-5.188 9.15,-5.17 z"/>
</svg>
