<?xml version="1.0" encoding="UTF-8" standalone="no"?>
<svg
   version="1.1"
   width="26.132874"
   height="31.086452"
   viewBox="0 0 26.132873 31.086452"
   id="svg4"
   xmlns="http://www.w3.org/2000/svg"
   xmlns:svg="http://www.w3.org/2000/svg">
  <defs>
    <!-- This is the gradient that will actually be used on
     the cards. The colors themselves will be provided by the
     template, but the x values, y values, and offsets will be
     used from the SVG. -->
    <linearGradient id="rarity" x1="0" y1="1" x2="1" y2="0">
      <stop offset="0" style="stop-color:rgb(192,55,38);stop-opacity:1" id="stop2" />
      <stop offset="0.125" style="stop-color:rgb(192,55,38);stop-opacity:1" id="stop4" />
      <stop offset="0.5" style="stop-color:rgb(241,142,30);stop-opacity:1" id="stop6" />
      <stop offset="0.875" style="stop-color:rgb(192,55,38);stop-opacity:1" id="stop8" />
      <stop offset="1" style="stop-color:rgb(192,55,38);stop-opacity:1" id="stop10" />
    </linearGradient>
    <!-- These gradients are here so that you can visualize
     what the set symbol would like like in that rarity. The
     only gradient that matters in the end is the "rarity"
     gradient. -->
    <linearGradient id="mythic" x1="0" y1="1" x2="1" y2="0">
      <stop offset="0" style="stop-color:rgb(192,55,38);stop-opacity:1"/>
      <stop offset="0.125" style="stop-color:rgb(192,55,38);stop-opacity:1"/>
      <stop offset="0.5" style="stop-color:rgb(241,142,30);stop-opacity:1"/>
      <stop offset="0.875" style="stop-color:rgb(192,55,38);stop-opacity:1"/>
      <stop offset="1" style="stop-color:rgb(192,55,38);stop-opacity:1"/>
    </linearGradient>
    <linearGradient id="rare" x1="0" y1="1" x2="1" y2="0">
      <stop offset="0" style="stop-color:rgb(146,116,67);stop-opacity:1"/>
      <stop offset="0.125" style="stop-color:rgb(146,116,67);stop-opacity:1"/>
      <stop offset="0.5" style="stop-color:rgb(211,178,108);stop-opacity:1"/>
      <stop offset="0.875" style="stop-color:rgb(146,116,67);stop-opacity:1"/>
      <stop offset="1" style="stop-color:rgb(146,116,67);stop-opacity:1"/>
    </linearGradient>
    <linearGradient id="special" x1="0" y1="1" x2="1" y2="0">
      <stop offset="0" style="stop-color:rgb(76, 56, 106);stop-opacity:1"/>
      <stop offset="0.125" style="stop-color:rgb(76, 56, 106);stop-opacity:1"/>
      <stop offset="0.5" style="stop-color:rgb(201, 173, 221);stop-opacity:1"/>
      <stop offset="0.875" style="stop-color:rgb(76, 56, 106);stop-opacity:1"/>
      <stop offset="1" style="stop-color:rgb(76, 56, 106);stop-opacity:1"/>
    </linearGradient>
    <linearGradient id="uncommon" x1="0" y1="1" x2="1" y2="0">
      <stop offset="0" style="stop-color:rgb(98,110,119);stop-opacity:1"/>
      <stop offset="0.125" style="stop-color:rgb(98,110,119);stop-opacity:1"/>
      <stop offset="0.5" style="stop-color:rgb(196,222,238);stop-opacity:1"/>
      <stop offset="0.875" style="stop-color:rgb(98,110,119);stop-opacity:1"/>
      <stop offset="1" style="stop-color:rgb(98,110,119);stop-opacity:1"/>
    </linearGradient>
    <linearGradient id="common" x1="0" y1="1" x2="1" y2="0">
      <stop offset="0" style="stop-color:rgb(0,0,0);stop-opacity:1"/>
    </linearGradient>
    <linearGradient id="rarity-outline" x1="0" y1="1" x2="0" y2="1">
      <stop offset="0" style="stop-color:rgb(0,0,0);stop-opacity:1"/>
    </linearGradient>
  </defs>
  <path fill="url(#rarity-outline)" d="M 13.125 0 L 12.533203 0.40625 L 8.8085938 2.9121094 L 7.0625 3.9648438 L 6.9824219 4.0410156 C 4.7101535 6.2119442 2.3729067 8.4428327 0.34960938 10.375 L 0 10.708984 L 0.048828125 11.238281 L 0.0546875 11.273438 C 0.80208155 15.758851 2.7668512 18.322022 3.8222656 19.894531 C 4.3499222 20.680711 4.5481803 21.171941 4.5390625 21.367188 C 4.5298825 21.563855 4.3983166 21.90483 3.4472656 22.587891 L 2.6523438 23.150391 L 3.1699219 23.947266 C 4.4547387 26.067655 6.0948759 26.930118 7.4765625 27.167969 L 7.4863281 27.169922 L 7.5078125 27.173828 L 7.515625 27.173828 L 8.8671875 27.394531 L 8.6699219 27.197266 L 13.126953 31.085938 L 13.824219 30.484375 L 17.363281 27.394531 L 18.613281 27.173828 L 18.626953 27.171875 L 18.648438 27.167969 L 18.65625 27.167969 C 20.03748 26.930197 21.679151 26.068383 22.964844 23.947266 L 23.482422 23.148438 L 22.6875 22.587891 C 21.737031 21.905249 21.603297 21.562543 21.59375 21.365234 C 21.58445 21.172782 21.782351 20.680078 22.310547 19.894531 L 22.3125 19.894531 C 23.369293 18.321405 25.332709 15.758702 26.080078 11.273438 L 26.085938 11.236328 L 26.132812 10.722656 L 25.785156 10.375 L 19.083984 3.9746094 L 19.005859 3.9238281 C 18.470661 3.5754811 17.921722 3.2184333 17.460938 2.9179688 L 17.445312 2.90625 L 17.441406 2.9042969 L 17.435547 2.9003906 L 17.425781 2.8945312 L 13.125 0 z " />
  <path fill="url(#rarity)" d="m 13.130576,1.2088706 -0.035,0.024 -3.7499997,2.522 V 26.458871 l 0.007,0.007 3.7779997,3.296 0.037,-0.032 3.748,-3.271 V 3.7548706 l -0.01,-0.006 z m -5.4569997,3.554 -0.037,0.036 -6.597,6.3000004 10e-4,0.011 c 0.712,4.273 2.518,6.598 3.612,8.228 0.547,0.815 0.915,1.455 0.886,2.076 -0.029,0.621 -0.454,1.23 -1.508,1.987 l -0.017,0.012 0.011,0.017 c 1.164,1.921 2.466,2.554 3.622,2.753 l 0.026,0.004 V 4.7638706 Z m 10.7879997,0 V 26.185871 l 0.026,-0.004 c 1.156,-0.199 2.457,-0.831 3.622,-2.753 l 0.011,-0.017 -0.017,-0.012 c -1.054,-0.757 -1.478,-1.367 -1.508,-1.987 -0.03,-0.62 0.338,-1.261 0.886,-2.076 1.095,-1.63 2.9,-3.955 3.612,-8.228 l 0.001,-0.011 -0.008,-0.008 -6.626,-6.3280004 z"/>
</svg>
