<?xml version="1.0" encoding="UTF-8" standalone="no"?>
<!-- Generated by IcoMoon.io -->

<svg
   version="1.1"
   width="23.102976"
   height="28.570999"
   viewBox="0 0 23.102976 28.570999"
   id="svg6"
   sodipodi:docname="c16.svg"
   inkscape:version="1.1.1 (3bf5ae0d25, 2021-09-20)"
   xmlns:inkscape="http://www.inkscape.org/namespaces/inkscape"
   xmlns:sodipodi="http://sodipodi.sourceforge.net/DTD/sodipodi-0.dtd"
   xmlns="http://www.w3.org/2000/svg"
   xmlns:svg="http://www.w3.org/2000/svg">
  <defs
     id="defs10" />
  <sodipodi:namedview
     id="namedview8"
     pagecolor="#ffffff"
     bordercolor="#666666"
     borderopacity="1.0"
     inkscape:pageshadow="2"
     inkscape:pageopacity="0.0"
     inkscape:pagecheckerboard="0"
     showgrid="false"
     inkscape:zoom="25.75"
     inkscape:cx="11.436893"
     inkscape:cy="14.271845"
     inkscape:window-width="1920"
     inkscape:window-height="1009"
     inkscape:window-x="-8"
     inkscape:window-y="-8"
     inkscape:window-maximized="1"
     inkscape:current-layer="svg6" />
  <title
     id="title2">c16</title>
  <path
     fill="#000000"
     d="m 6.2929763,1.642 c 1.449,-0.32 2.759,-1.037 4.1039997,-1.642 0.262,1.198 0.736,2.867 -0.4389997,3.719 -2.035,1.553 -4.721,1.437 -7.145,1.426 0.127,3.765 -0.763,7.711 0.728,11.307 1.399,3.457 4.332,5.9 7.0719997,8.285 0.035,1.272 0.085,2.543 0.066,3.819 C 6.2779763,24.953 1.5689763,20.86 0.37797634,15.014 c -0.701,-4.174 -0.173,-8.44 -0.37,-12.652 C 2.0969763,2.05 4.2469763,2.231 6.2929763,1.641 Z m 6.4279997,-1.63 c -0.208,1.195 -0.713,2.813 0.439,3.68 2.031,1.588 4.752,1.464 7.187,1.441 -0.139,3.569 0.644,7.26 -0.52,10.721 -1.295,3.742 -4.386,6.405 -7.314,8.879 -0.031,1.279 -0.081,2.555 -0.062,3.838 1.811,-1.534 3.649,-3.037 5.295,-4.752 2.952,-2.998 5.175,-6.944 5.326,-11.226 0.042,-3.411 -0.023,-6.825 0.031,-10.235 -1.249,-0.096 -2.489,-0.266 -3.746,-0.293 -2.351,-0.1 -4.555,-1.017 -6.636,-2.054 z M 4.1389763,6.463 c 0.139,3.518 -0.582,7.291 1.067,10.567 1.229,2.305 3.002,4.432 5.3139997,5.707 -0.393,-2.2 -0.22,-4.451 -0.5859997,-6.651 -0.135,-3.16 -0.547,-6.293 -0.613,-9.453 -1.73,0.173 -3.472,0.143 -5.183,-0.17 z m 9.6759997,0.173 c -0.154,5.391 -0.983,10.74 -0.986,16.135 2.2,-1.63 4.204,-3.669 5.322,-6.204 1.368,-3.191 0.671,-6.732 0.832,-10.093 -1.707,0.293 -3.445,0.331 -5.168,0.162 z"
     id="path4" />
</svg>
