<?xml version="1.0" encoding="UTF-8" standalone="no"?>
<!-- Generated by IcoMoon.io -->

<svg
   version="1.1"
   width="24.23"
   height="28.370001"
   viewBox="0 0 24.23 28.370001"
   id="svg6"
   sodipodi:docname="c17.svg"
   inkscape:version="1.1.1 (3bf5ae0d25, 2021-09-20)"
   xmlns:inkscape="http://www.inkscape.org/namespaces/inkscape"
   xmlns:sodipodi="http://sodipodi.sourceforge.net/DTD/sodipodi-0.dtd"
   xmlns="http://www.w3.org/2000/svg"
   xmlns:svg="http://www.w3.org/2000/svg">
  <defs
     id="defs10" />
  <sodipodi:namedview
     id="namedview8"
     pagecolor="#ffffff"
     bordercolor="#666666"
     borderopacity="1.0"
     inkscape:pageshadow="2"
     inkscape:pageopacity="0.0"
     inkscape:pagecheckerboard="0"
     showgrid="false"
     inkscape:zoom="25.75"
     inkscape:cx="11.902913"
     inkscape:cy="14.15534"
     inkscape:window-width="1920"
     inkscape:window-height="1009"
     inkscape:window-x="-8"
     inkscape:window-y="-8"
     inkscape:window-maximized="1"
     inkscape:current-layer="svg6" />
  <title
     id="title2">c17</title>
  <path
     fill="#000000"
     d="m 8.898,0.001 v 0 0 c -0.191,0.909 -0.05,1.808 0.446,2.594 0.53,0.84 1.455,1.375 2.43,1.505 0.003,8.091 0,16.181 0.003,24.27 C 10.215,26.801 8.646,25.241 7.082,23.673 7.23,19.205 7.177,14.723 6.708,10.274 6.474,8.31 6.18,6.336 5.516,4.466 5.23,3.686 4.864,2.922 4.298,2.304 4.29,1.537 4.296,0.77 4.295,0.003 7.364,0.003 5.829,0.004 8.898,0 v 0 z m 6.433,0.002 v 0 c 0.155,0.765 0.1,1.587 -0.27,2.285 -0.491,0.999 -1.511,1.674 -2.606,1.813 -0.003,8.088 -0.002,16.176 -0.002,24.264 1.567,-1.561 3.129,-3.125 4.692,-4.69 C 17,19.299 17.048,14.911 17.489,10.553 17.695,8.694 17.968,6.833 18.516,5.042 18.825,4.066 19.224,3.086 19.92,2.314 19.927,1.545 19.922,0.776 19.923,0.006 18.392,0.004 16.861,0.009 15.33,0.004 Z M 3.925,3.411 v 0 C 2.761,4.389 1.401,5.105 0,5.678 0.994,9.181 1.959,12.757 2.002,16.42 3.24,18.163 4.601,19.831 6.167,21.293 6.208,16.988 6.095,12.664 5.444,8.403 5.139,6.693 4.84,4.918 3.925,3.412 Z M 20.303,3.409 c -0.93,1.547 -1.251,3.362 -1.552,5.116 -0.634,4.218 -0.709,8.496 -0.678,12.755 1.562,-1.459 2.92,-3.121 4.155,-4.863 C 22.271,12.754 23.234,9.179 24.23,5.677 22.827,5.104 21.466,4.388 20.304,3.409 Z"
     id="path4" />
</svg>
