<?xml version="1.0" encoding="UTF-8" standalone="no"?>
<svg
   version="1.1"
   width="26.337891"
   height="30.826172"
   viewBox="0 0 26.337891 30.826172"
   id="svg4"
   xmlns="http://www.w3.org/2000/svg"
   xmlns:svg="http://www.w3.org/2000/svg">
  <defs>
    <!-- This is the gradient that will actually be used on
     the cards. The colors themselves will be provided by the
     template, but the x values, y values, and offsets will be
     used from the SVG. -->
    <linearGradient id="rarity" x1="0" y1="0" x2="1" y2="1">
      <stop offset="0" style="stop-color:rgb(192,55,38);stop-opacity:1" id="stop2" />
      <stop offset="0.125" style="stop-color:rgb(192,55,38);stop-opacity:1" id="stop4" />
      <stop offset="0.5" style="stop-color:rgb(241,142,30);stop-opacity:1" id="stop6" />
      <stop offset="0.875" style="stop-color:rgb(192,55,38);stop-opacity:1" id="stop8" />
      <stop offset="1" style="stop-color:rgb(192,55,38);stop-opacity:1" id="stop10" />
    </linearGradient>
    <!-- These gradients are here so that you can visualize
     what the set symbol would like like in that rarity. The
     only gradient that matters in the end is the "rarity"
     gradient. -->
    <linearGradient id="mythic" x1="0" y1="1" x2="1" y2="0">
      <stop offset="0" style="stop-color:rgb(192,55,38);stop-opacity:1"/>
      <stop offset="0.125" style="stop-color:rgb(192,55,38);stop-opacity:1"/>
      <stop offset="0.5" style="stop-color:rgb(241,142,30);stop-opacity:1"/>
      <stop offset="0.875" style="stop-color:rgb(192,55,38);stop-opacity:1"/>
      <stop offset="1" style="stop-color:rgb(192,55,38);stop-opacity:1"/>
    </linearGradient>
    <linearGradient id="rare" x1="0" y1="1" x2="1" y2="0">
      <stop offset="0" style="stop-color:rgb(146,116,67);stop-opacity:1"/>
      <stop offset="0.125" style="stop-color:rgb(146,116,67);stop-opacity:1"/>
      <stop offset="0.5" style="stop-color:rgb(211,178,108);stop-opacity:1"/>
      <stop offset="0.875" style="stop-color:rgb(146,116,67);stop-opacity:1"/>
      <stop offset="1" style="stop-color:rgb(146,116,67);stop-opacity:1"/>
    </linearGradient>
    <linearGradient id="special" x1="0" y1="1" x2="1" y2="0">
      <stop offset="0" style="stop-color:rgb(76, 56, 106);stop-opacity:1"/>
      <stop offset="0.125" style="stop-color:rgb(76, 56, 106);stop-opacity:1"/>
      <stop offset="0.5" style="stop-color:rgb(201, 173, 221);stop-opacity:1"/>
      <stop offset="0.875" style="stop-color:rgb(76, 56, 106);stop-opacity:1"/>
      <stop offset="1" style="stop-color:rgb(76, 56, 106);stop-opacity:1"/>
    </linearGradient>
    <linearGradient id="uncommon" x1="0" y1="1" x2="1" y2="0">
      <stop offset="0" style="stop-color:rgb(98,110,119);stop-opacity:1"/>
      <stop offset="0.125" style="stop-color:rgb(98,110,119);stop-opacity:1"/>
      <stop offset="0.5" style="stop-color:rgb(196,222,238);stop-opacity:1"/>
      <stop offset="0.875" style="stop-color:rgb(98,110,119);stop-opacity:1"/>
      <stop offset="1" style="stop-color:rgb(98,110,119);stop-opacity:1"/>
    </linearGradient>
    <linearGradient id="common" x1="0" y1="1" x2="1" y2="0">
      <stop offset="0" style="stop-color:rgb(0,0,0);stop-opacity:1"/>
    </linearGradient>
    <linearGradient
            id="rarity-outline" x1="0" y1="1" x2="0" y2="1">
      <stop offset="0" style="stop-color:rgb(0,0,0);stop-opacity:1"/>
    </linearGradient>
  </defs>
  <path fill="url(#rarity-outline)" d="M 10.826172,0 9.9492188,0.00195313 C 6.8800315,0.00595312 8.4168432,0.00585938 5.3476562,0.00585938 H 4.4707031 l 0.00195,0.875 c 9.276e-4,0.71141272 -0.00201,1.43090542 0.00391,2.15625002 l -0.22461,0.6640625 C 3.0659726,4.5039975 1.8258345,5.2815706 0.71484375,5.7480469 L 0,6.0488281 0.2109375,6.7929688 c 0.9919075,3.4956262 1.9274752,6.9976372 1.96875,10.5136722 l 0.00391,0.273437 0.1582031,0.222656 c 1.253111,1.764276 2.6406388,3.469298 4.2519531,4.978516 l 0.6660156,0.681641 v 1.449218 l 0.2558594,0.25586 c 1.4939213,1.497302 3.3021233,3.290856 5.0234373,5.033203 l 0.617188,0.625 0.623047,-0.621094 c 1.568229,-1.562224 3.474053,-3.4701 5.037109,-5.035156 l 0.25586,-0.25586 v -1.458984 l 0.675781,-0.68164 c 1.608605,-1.506737 2.994476,-3.207217 4.246094,-4.972657 l 0.158203,-0.222656 0.0039,-0.273437 C 24.19753,13.788336 25.131267,10.286996 26.125,6.7929688 L 26.337891,6.0390625 25.613281,5.7441406 C 24.322439,5.216947 23.118102,4.5507723 22.082031,3.7109375 L 21.847656,3.0429688 c 0.0052,-0.7247152 0.003,-1.4444245 0.0039,-2.15820318 V 0.00976563 l -0.875,-0.00195313 C 19.605318,0.0062415 17.976773,0.01287638 16.386719,0.00585938 L 15.3125,0 15.525391,1.0527344 c 0.122776,0.6059558 0.06812,1.2245879 -0.185547,1.703125 l -0.0059,0.011719 -0.0059,0.011719 C 14.98229,3.4829539 14.219145,3.9955896 13.413981,4.1035161 l -0.484374,-0.00195 C 12.199978,4.0000326 11.508528,3.5951413 11.136719,3.0058594 10.761478,2.4112223 10.657333,1.7691715 10.806641,1.0585938 L 10.826172,0.96875 Z" />
  <path fill="url(#rarity)" d="m 9.9507344,0.87795313 v 0 0 c -0.191,0.90899997 -0.05,1.80799997 0.4459996,2.59399997 0.53,0.84 1.455,1.375 2.43,1.505 0.003,8.0909999 0,16.1809999 0.003,24.2699999 -1.562,-1.569 -3.1309996,-3.129 -4.6949996,-4.697 0.148,-4.468 0.095,-8.95 -0.374,-13.399 -0.234,-1.9639999 -0.528,-3.9379999 -1.192,-5.8079999 -0.286,-0.78 -0.652,-1.544 -1.218,-2.162 -0.008,-0.767 -0.002,-1.534 -0.003,-2.30099997 3.069,0 1.534,0.001 4.603,-0.003 v 0 z m 6.4329996,0.002 v 0 c 0.155,0.76499997 0.1,1.58699997 -0.27,2.28499997 -0.491,0.999 -1.511,1.674 -2.606,1.813 -0.003,8.0879999 -0.002,16.1759999 -0.002,24.2639999 1.567,-1.561 3.129,-3.125 4.692,-4.69 -0.145,-4.376 -0.097,-8.764 0.344,-13.122 0.206,-1.8589999 0.479,-3.7199999 1.027,-5.5109999 0.309,-0.976 0.708,-1.956 1.404,-2.728 0.007,-0.769 0.002,-1.538 0.003,-2.30799997 -1.531,-0.002 -3.062,0.003 -4.593,-0.002 z M 4.9777344,4.2879531 v 0 c -1.164,0.978 -2.524,1.694 -3.925,2.267 0.994,3.5029999 1.959,7.0789999 2.002,10.7419999 1.238,1.743 2.599,3.411 4.165,4.873 0.041,-4.305 -0.072,-8.629 -0.723,-12.8899999 -0.305,-1.71 -0.604,-3.485 -1.519,-4.991 z m 16.3779996,-0.002 c -0.93,1.547 -1.251,3.362 -1.552,5.116 -0.634,4.2179999 -0.709,8.4959999 -0.678,12.7549999 1.562,-1.459 2.92,-3.121 4.155,-4.863 0.043,-3.663 1.006,-7.238 2.002,-10.7399999 -1.403,-0.573 -2.764,-1.289 -3.926,-2.268 z"/>
</svg>
