<?xml version="1.0" encoding="UTF-8" standalone="no"?>
<!-- Generated by IcoMoon.io -->

<svg
   version="1.1"
   width="26.500999"
   height="29.532"
   viewBox="0 0 26.500999 29.532"
   id="svg6"
   sodipodi:docname="c21-border.svg"
   inkscape:version="1.1.1 (3bf5ae0d25, 2021-09-20)"
   xmlns:inkscape="http://www.inkscape.org/namespaces/inkscape"
   xmlns:sodipodi="http://sodipodi.sourceforge.net/DTD/sodipodi-0.dtd"
   xmlns="http://www.w3.org/2000/svg"
   xmlns:svg="http://www.w3.org/2000/svg">
  <defs
     id="defs10" />
  <sodipodi:namedview
     id="namedview8"
     pagecolor="#ffffff"
     bordercolor="#666666"
     borderopacity="1.0"
     inkscape:pageshadow="2"
     inkscape:pageopacity="0.0"
     inkscape:pagecheckerboard="0"
     showgrid="false"
     inkscape:zoom="25.75"
     inkscape:cx="13.495146"
     inkscape:cy="14.737864"
     inkscape:window-width="1920"
     inkscape:window-height="1009"
     inkscape:window-x="-8"
     inkscape:window-y="-8"
     inkscape:window-maximized="1"
     inkscape:current-layer="svg6" />
  <title
     id="title2">c21-border</title>
  <path
     fill="#000000"
     d="m 13.297,0 0.5,0.002 c 1.169,0.085 0.67,0.027 1.501,0.141 1.292,0.195 2.546,0.565 3.798,0.929 -0.195,0.813 -0.558,1.715 -0.153,2.521 0.455,0.969 1.849,1.306 2.686,0.625 0.451,-0.402 0.778,-0.92 1.157,-1.387 1.563,1.55 2.346,3.643 3.171,5.636 0.198,0.509 0.439,1.008 0.544,1.552 -0.75,1.54 -1.768,2.943 -2.53,4.479 -0.156,1.977 0.1,3.986 -0.119,5.952 -1.696,3.292 -4.453,6.019 -7.676,7.827 -0.943,0.481 -1.889,1.013 -2.925,1.255 C 9.855,28.477 6.902,26.224 4.648,23.501 3.874,22.497 3.082,21.471 2.597,20.293 2.488,18.36 2.655,16.416 2.525,14.485 1.758,12.961 0.764,11.555 0,10.027 0.102,9.486 0.353,8.989 0.555,8.477 1.394,6.493 2.197,4.425 3.707,2.839 4.086,3.299 4.416,3.805 4.862,4.207 5.691,4.902 7.104,4.572 7.557,3.596 7.968,2.79 7.603,1.886 7.401,1.075 9.15,0.519 10.955,0.083 12.796,0.008 l 0.5,-0.007 z M 13.271,1.095 C 11.749,1.111 10.249,1.425 8.79,1.843 9.106,3.204 8.555,4.7 7.315,5.397 6.06,5.985 4.574,5.655 3.651,4.635 2.622,6.291 1.902,8.117 1.2,9.929 c 0.718,1.173 1.373,2.384 2.084,3.561 0.151,0.286 0.358,0.572 0.362,0.911 0.063,1.865 -0.065,3.738 0.049,5.601 0.476,1.048 1.122,2.126 1.947,2.936 2.03,2.416 4.642,4.354 7.608,5.459 2.969,-1.104 5.58,-3.043 7.615,-5.457 l -0.007,-0.074 c 0.811,-0.822 1.477,-1.805 1.949,-2.857 0.123,-1.93 -0.044,-3.873 0.07,-5.803 0.716,-1.47 1.622,-2.853 2.428,-4.279 C 24.615,8.103 23.911,6.266 22.877,4.602 22.02,5.582 20.668,5.917 19.436,5.536 18.063,4.886 17.357,3.308 17.715,1.84 16.268,1.426 14.781,1.115 13.271,1.094 Z M 12.718,2.38 c 0.086,4.172 0.146,8.347 0.112,12.519 -0.783,0.316 -1.608,0.669 -2.121,1.375 -0.832,1.013 -0.869,2.553 -0.128,3.629 0.423,0.695 1.155,1.092 1.849,1.461 -0.572,1.215 -1.454,2.4 -1.322,3.812 -1.652,-0.142 -2.981,-1.21 -4.084,-2.358 1.538,-0.3 2.86,-1.268 3.668,-2.6 C 9.326,20.745 7.874,21.087 6.62,21.858 6.325,21.512 6.039,21.156 5.784,20.78 5.303,19.635 4.913,18.455 4.616,17.249 c 0.307,0.158 0.613,0.323 0.925,0.472 1.371,0.581 2.864,0.76 4.34,0.811 -1.461,-0.86 -2.876,-1.807 -4.388,-2.579 -0.211,0.002 -0.637,0.007 -0.848,0.009 -0.107,-2.119 0.4,-4.314 1.803,-5.954 0.214,0.421 0.432,0.839 0.641,1.264 0.908,1.882 1.975,3.694 3.229,5.367 C 10.172,14.409 10.016,12.167 9.551,9.976 9.416,9.195 8.973,8.524 8.468,7.934 8.717,6.989 9.088,6.069 9.662,5.272 10.447,4.085 11.632,3.262 12.719,2.38 Z m -1.889,18.759 c -0.678,0.871 -1.559,1.564 -2.569,2.012 0.646,0.525 1.352,0.971 2.123,1.282 0.295,-0.971 0.734,-1.886 1.187,-2.792 -0.246,-0.167 -0.495,-0.335 -0.741,-0.502 z M 5.567,18.46 c 0.286,0.878 0.62,1.745 1.101,2.539 C 7.7,20.569 8.77,20.242 9.814,19.84 9.723,19.612 9.633,19.387 9.544,19.162 8.194,19.106 6.847,18.909 5.567,18.46 Z m 0.751,-7.276 c -0.718,1.22 -1.057,2.625 -1.062,4.038 1.547,0.465 2.802,1.552 4.21,2.309 C 9.512,17.352 9.61,16.994 9.657,16.815 8.351,15.061 7.271,13.149 6.319,11.184 Z m 5.794,-7.515 c -1.385,1.011 -2.46,2.43 -2.964,4.077 0.423,0.537 0.788,1.131 0.932,1.81 0.448,1.833 0.602,3.724 0.762,5.601 0.441,-0.283 0.894,-0.546 1.364,-0.781 0.009,-3.571 0.007,-7.139 -0.093,-10.707 z m 1.677,-1.282 c 1.926,1.371 3.745,3.148 4.251,5.55 -0.506,0.59 -0.95,1.259 -1.085,2.04 -0.465,2.191 -0.616,4.435 -0.764,6.665 1.252,-1.673 2.319,-3.482 3.229,-5.362 0.211,-0.427 0.43,-0.848 0.643,-1.271 1.396,1.645 1.914,3.835 1.791,5.956 -0.209,-0.005 -0.63,-0.009 -0.841,-0.014 -1.51,0.771 -2.922,1.724 -4.386,2.579 1.475,-0.053 2.971,-0.221 4.34,-0.808 0.309,-0.149 0.611,-0.311 0.915,-0.465 -0.288,1.201 -0.681,2.377 -1.157,3.517 -0.258,0.379 -0.544,0.736 -0.834,1.09 -1.257,-0.776 -2.711,-1.12 -4.077,-1.645 0.811,1.331 2.13,2.3 3.668,2.602 -1.104,1.145 -2.435,2.207 -4.082,2.353 0.125,-1.41 -0.75,-2.597 -1.324,-3.81 0.699,-0.367 1.429,-0.771 1.854,-1.466 0.741,-1.076 0.702,-2.616 -0.13,-3.629 -0.516,-0.702 -1.336,-1.055 -2.119,-1.366 -0.023,-4.172 0.007,-8.345 0.107,-12.517 z m 1.884,18.754 -0.743,0.502 c 0.453,0.904 0.897,1.819 1.19,2.792 0.771,-0.314 1.477,-0.76 2.123,-1.285 -1.008,-0.451 -1.891,-1.138 -2.569,-2.009 z m 5.262,-2.681 c -1.282,0.448 -2.63,0.646 -3.982,0.702 -0.086,0.228 -0.172,0.455 -0.258,0.683 1.041,0.397 2.109,0.727 3.141,1.155 0.476,-0.794 0.811,-1.661 1.099,-2.539 z m -0.753,-7.269 c -0.957,1.961 -2.035,3.868 -3.338,5.622 0.049,0.179 0.146,0.539 0.195,0.718 1.405,-0.76 2.662,-1.842 4.207,-2.309 -0.005,-1.41 -0.337,-2.816 -1.064,-4.031 z M 14.388,3.667 c -0.095,3.568 -0.105,7.139 -0.093,10.707 0.469,0.235 0.925,0.495 1.368,0.776 0.158,-1.873 0.311,-3.759 0.757,-5.59 C 16.562,8.879 16.929,8.282 17.356,7.746 16.854,6.097 15.774,4.677 14.387,3.667 Z"
     id="path4" />
</svg>
