<?xml version="1.0" encoding="UTF-8" standalone="no"?>
<svg
   version="1.1"
   width="31.978552"
   height="25.925829"
   viewBox="0 0 31.978552 25.925829"
   id="svg4"
   xmlns="http://www.w3.org/2000/svg"
   xmlns:svg="http://www.w3.org/2000/svg">
  <defs>
    <!-- This is the gradient that will actually be used on
     the cards. The colors themselves will be provided by the
     template, but the x values, y values, and offsets will be
     used from the SVG. -->
    <radialGradient id="rarity" cy="25%">
      <stop offset="0" style="stop-color:rgb(192,55,38);stop-opacity:1" id="stop2" />
      <stop offset="0" style="stop-color:rgb(192,55,38);stop-opacity:1" id="stop4" />
      <stop offset="0" style="stop-color:rgb(241,142,30);stop-opacity:1" id="stop6" />
      <stop offset="0.875" style="stop-color:rgb(192,55,38);stop-opacity:1" id="stop8" />
      <stop offset="1" style="stop-color:rgb(192,55,38);stop-opacity:1" id="stop10" />
    </radialGradient>
    <!-- These gradients are here so that you can visualize
     what the set symbol would like like in that rarity. The
     only gradient that matters in the end is the "rarity"
     gradient. -->
    <linearGradient id="mythic" x1="0" y1="1" x2="1" y2="0">
      <stop offset="0" style="stop-color:rgb(192,55,38);stop-opacity:1"/>
      <stop offset="0.125" style="stop-color:rgb(192,55,38);stop-opacity:1"/>
      <stop offset="0.5" style="stop-color:rgb(241,142,30);stop-opacity:1"/>
      <stop offset="0.875" style="stop-color:rgb(192,55,38);stop-opacity:1"/>
      <stop offset="1" style="stop-color:rgb(192,55,38);stop-opacity:1"/>
    </linearGradient>
    <linearGradient id="rare" x1="0" y1="1" x2="1" y2="0">
      <stop offset="0" style="stop-color:rgb(146,116,67);stop-opacity:1"/>
      <stop offset="0.125" style="stop-color:rgb(146,116,67);stop-opacity:1"/>
      <stop offset="0.5" style="stop-color:rgb(211,178,108);stop-opacity:1"/>
      <stop offset="0.875" style="stop-color:rgb(146,116,67);stop-opacity:1"/>
      <stop offset="1" style="stop-color:rgb(146,116,67);stop-opacity:1"/>
    </linearGradient>
    <linearGradient id="special" x1="0" y1="1" x2="1" y2="0">
      <stop offset="0" style="stop-color:rgb(76, 56, 106);stop-opacity:1"/>
      <stop offset="0.125" style="stop-color:rgb(76, 56, 106);stop-opacity:1"/>
      <stop offset="0.5" style="stop-color:rgb(201, 173, 221);stop-opacity:1"/>
      <stop offset="0.875" style="stop-color:rgb(76, 56, 106);stop-opacity:1"/>
      <stop offset="1" style="stop-color:rgb(76, 56, 106);stop-opacity:1"/>
    </linearGradient>
    <linearGradient id="uncommon" x1="0" y1="1" x2="1" y2="0">
      <stop offset="0" style="stop-color:rgb(98,110,119);stop-opacity:1"/>
      <stop offset="0.125" style="stop-color:rgb(98,110,119);stop-opacity:1"/>
      <stop offset="0.5" style="stop-color:rgb(196,222,238);stop-opacity:1"/>
      <stop offset="0.875" style="stop-color:rgb(98,110,119);stop-opacity:1"/>
      <stop offset="1" style="stop-color:rgb(98,110,119);stop-opacity:1"/>
    </linearGradient>
    <linearGradient id="common" x1="0" y1="1" x2="1" y2="0">
      <stop offset="0" style="stop-color:rgb(0,0,0);stop-opacity:1"/>
    </linearGradient>
    <linearGradient
            id="rarity-outline" x1="0" y1="1" x2="0" y2="1">
      <stop offset="0" style="stop-color:rgb(0,0,0);stop-opacity:1"/>
    </linearGradient>
  </defs>
  <path fill="url(#rarity-outline)" d="M 0,0 V 0.8085938 3.4199219 C 0,4.1949412 0.46615889,4.7311954 0.87695312,4.9960938 1.1944218,5.2008117 1.4283036,5.2421707 1.5078125,5.2597656 l 0.1923828,0.00195 0.00488,0.8457032 v 4.3808592 h 4.1210938 l -1.1835938,12.847656 0.017578,0.0059 C 4.303434,24.183668 4.3359375,25.02539 4.3359375,25.02539 v 0.002 l 0.265625,0.898438 H 9.5117188 L 10.289063,23.052734 9.6953125,22.755859 10.75,10.529297 h 1.587891 l -0.04492,1.445312 h 1.289062 6.101563 l -0.04492,-1.445312 h 1.58789 l 1.050782,12.228515 -0.587891,0.296875 0.773438,2.871094 H 27.375 l 0.265625,-0.898438 v -0.002 c 0,0 0.03214,-0.8425 -0.324219,-1.683594 l 0.01758,-0.0059 -1.183593,-12.847656 h 4.11914 V 6.1074219 l 0.0098,-0.8515625 0.189453,0.00391 c 0.08218,-0.017885 0.31055,-0.058354 0.626953,-0.2617187 0.411308,-0.2643642 0.882813,-0.8004564 0.882813,-1.578125 V 3.8e-6 l -1.814454,0.9042969 -0.0039,0.00391 c 0,0 -0.09472,0.052921 -0.482422,0.1738281 -0.3877,0.120907 -1.03647,0.2913745 -2.044922,0.4746093 -2.013132,0.3657852 -5.384559,0.7441407 -10.683593,0.7441407 H 15.025433 C 9.7274082,2.3007888 6.3561073,1.922415 4.343792,1.5566481 3.3355431,1.3733834 2.6882329,1.2044691 2.3007812,1.0839844 1.9133297,0.9634997 1.8183594,0.9082031 1.8183594,0.9082032 l -0.00391,-0.00195 z" />
  <path fill="url(#rarity)" d="m 22.197,5.6074844 h -4.023 l 0.132,1.708 h 4.023 l -0.131,-1.708 z m -12.551,1.707 h 4.023 l 0.132,-1.708 H 9.778 l -0.131,1.708 z m 3.936,3.4099996 0.044,-1.4449996 H 9.603 l -1.226,14.2149996 0.438,0.219 -0.26,0.963 H 5.536 c 0,0 -0.219,-0.744 0.351,-1.226 L 7.198,9.2384844 H 2.956 v -1.882 h 4.418 l 0.175,-1.705 H 3.307 c 0,0 -0.657,-0.175 -0.657,-0.789 v -0.785 H 1.861 c 0,0 -0.611,-0.131 -0.611,-0.657 v -1.399 c 0,0 3.06,1.53 13.775,1.53 h 1.924 c 10.717,0 13.779,-1.53 13.779,-1.53 v 1.399 c 0,0.526 -0.613,0.657 -0.613,0.657 h -0.789 v 0.785 c 0,0.613 -0.657,0.789 -0.657,0.789 h -4.242 l 0.175,1.705 h 4.418 v 1.882 h -4.242 l 1.311,14.2119996 c 0.57,0.481 0.351,1.226 0.351,1.226 h -3.019 l -0.26,-0.963 0.435,-0.219 L 22.373,9.2794844 H 18.35 l 0.044,1.4449996 h -4.811 z"/>
</svg>
