<?xml version="1.0" encoding="UTF-8" standalone="no"?>
<!-- Generated by IcoMoon.io -->

<svg
   version="1.1"
   width="23.092865"
   height="28.632999"
   viewBox="0 0 23.092865 28.632999"
   id="svg6"
   sodipodi:docname="cm2.svg"
   inkscape:version="1.1.1 (3bf5ae0d25, 2021-09-20)"
   xmlns:inkscape="http://www.inkscape.org/namespaces/inkscape"
   xmlns:sodipodi="http://sodipodi.sourceforge.net/DTD/sodipodi-0.dtd"
   xmlns="http://www.w3.org/2000/svg"
   xmlns:svg="http://www.w3.org/2000/svg">
  <defs
     id="defs10" />
  <sodipodi:namedview
     id="namedview8"
     pagecolor="#ffffff"
     bordercolor="#666666"
     borderopacity="1.0"
     inkscape:pageshadow="2"
     inkscape:pageopacity="0.0"
     inkscape:pagecheckerboard="0"
     showgrid="false"
     inkscape:zoom="25.75"
     inkscape:cx="11.514563"
     inkscape:cy="14.31068"
     inkscape:window-width="1920"
     inkscape:window-height="1009"
     inkscape:window-x="-8"
     inkscape:window-y="-8"
     inkscape:window-maximized="1"
     inkscape:current-layer="svg6" />
  <title
     id="title2">cm2</title>
  <path
     fill="#000000"
     d="m 14.773209,18.187 3.584,4.161 c -1.524,2.439 -3.555,4.525 -6.022,6.008 -0.441,0.214 -0.184,0.11 -0.784,0.277 v 0 c -0.6,-0.167 -0.343,-0.063 -0.784,-0.277 C 8.3152085,26.89 6.1882085,24.79 4.7182085,22.332 l 3.513,-4.078 c 0.823,1.282 1.7780005,2.472 2.7580005,3.636 0.248,0.283 0.709,0.319 0.957,0 1.042,-1.156 1.98,-2.398 2.828,-3.702 z m 8.316,-10.892 -5.14,3.829 c -0.543,1.996 -1.285,3.942 -2.356,5.719 l 3.575,4.151 c 0.482,-0.833 0.905,-1.699 1.294,-2.579 1.517,-3.426 2.715,-7.326 2.626,-11.12 z M 0.0062085,7.369 c -0.09,3.117 0.811,6.335 1.89,9.217 0.583,1.5 1.205,2.992 2.012,4.389 l 3.488,-4.049 c -1.066,-1.812 -1.987,-3.733 -2.37,-5.818 l -5.019,-3.74 z M 18.215209,0 H 4.8872085 c -0.866,0 -1.568,0.702 -1.568,1.568 0.032,0.632 0.366,1.21 0.975,1.444 0.22,0.151 0.317,0.194 0.485,0.456 0.522,0.814 -0.06,1.865 -0.876,2.188 l -1.281,0.095 c -0.638,0.056 -1.285,0.094 -1.902,0.281 l 4.825,3.595 c 1.325,-0.959 2.753,-2.114 3.211,-3.753 0.074,-0.122 0.277,-0.15 0.399,-0.173 0.625,-0.119 1.2700005,-0.096 1.9010005,-0.125 0.941,0.006 1.069,-0.004 1.992,0.044 0.146,0.008 1.132,0.036 1.306,0.184 0.488,1.625 1.76,2.853 3.108,3.814 l 4.839,-3.605 c -0.137,-0.034 -0.271,-0.077 -0.41,-0.1 -0.562,-0.095 -0.877,-0.114 -1.412,-0.161 l -1.28,-0.095 c -1.101,-0.502 -1.546,-1.915 -0.391,-2.644 0.589,-0.249 0.966,-0.8 0.975,-1.444 0,-0.866 -0.702,-1.568 -1.568,-1.568 z"
     id="path4" />
</svg>
