<?xml version="1.0" encoding="UTF-8" standalone="no"?>
<svg
   width="28.082001"
   height="29.329983"
   viewBox="0 0 28.082001 29.329983"
   version="1.1"
   xml:space="preserve"
   style="clip-rule:evenodd;fill-rule:evenodd;stroke-linejoin:round;stroke-miterlimit:2"
   id="svg6"
   xmlns="http://www.w3.org/2000/svg"
   xmlns:svg="http://www.w3.org/2000/svg">
    <defs>
    <!-- This is the gradient that will actually be used on
     the cards. The colors themselves will be provided by the
     template, but the x values, y values, and offsets will be
     used from the SVG. -->
      <linearGradient id="rarity" x1="0" y1="0" x2="1" y2="0">
      <stop offset="0" style="stop-color:rgb(192,55,38);stop-opacity:1" id="stop2" />
        <stop offset="0.125" style="stop-color:rgb(192,55,38);stop-opacity:1" id="stop4" />
        <stop offset="0.5" style="stop-color:rgb(241,142,30);stop-opacity:1" id="stop6" />
        <stop offset="0.875" style="stop-color:rgb(192,55,38);stop-opacity:1" id="stop8" />
        <stop offset="1" style="stop-color:rgb(192,55,38);stop-opacity:1" id="stop10" />
    </linearGradient>
      <!-- These gradients are here so that you can visualize
       what the set symbol would like like in that rarity. The
       only gradient that matters in the end is the "rarity"
       gradient. -->
      <linearGradient id="mythic" x1="0" y1="1" x2="1" y2="0">
      <stop offset="0" style="stop-color:rgb(192,55,38);stop-opacity:1"/>
        <stop offset="0.125" style="stop-color:rgb(192,55,38);stop-opacity:1"/>
        <stop offset="0.5" style="stop-color:rgb(241,142,30);stop-opacity:1"/>
        <stop offset="0.875" style="stop-color:rgb(192,55,38);stop-opacity:1"/>
        <stop offset="1" style="stop-color:rgb(192,55,38);stop-opacity:1"/>
    </linearGradient>
      <linearGradient id="rare" x1="0" y1="1" x2="1" y2="0">
      <stop offset="0" style="stop-color:rgb(146,116,67);stop-opacity:1"/>
        <stop offset="0.125" style="stop-color:rgb(146,116,67);stop-opacity:1"/>
        <stop offset="0.5" style="stop-color:rgb(211,178,108);stop-opacity:1"/>
        <stop offset="0.875" style="stop-color:rgb(146,116,67);stop-opacity:1"/>
        <stop offset="1" style="stop-color:rgb(146,116,67);stop-opacity:1"/>
    </linearGradient>
      <linearGradient id="special" x1="0" y1="1" x2="1" y2="0">
      <stop offset="0" style="stop-color:rgb(76, 56, 106);stop-opacity:1"/>
        <stop offset="0.125" style="stop-color:rgb(76, 56, 106);stop-opacity:1"/>
        <stop offset="0.5" style="stop-color:rgb(201, 173, 221);stop-opacity:1"/>
        <stop offset="0.875" style="stop-color:rgb(76, 56, 106);stop-opacity:1"/>
        <stop offset="1" style="stop-color:rgb(76, 56, 106);stop-opacity:1"/>
    </linearGradient>
      <linearGradient id="uncommon" x1="0" y1="1" x2="1" y2="0">
      <stop offset="0" style="stop-color:rgb(98,110,119);stop-opacity:1"/>
        <stop offset="0.125" style="stop-color:rgb(98,110,119);stop-opacity:1"/>
        <stop offset="0.5" style="stop-color:rgb(196,222,238);stop-opacity:1"/>
        <stop offset="0.875" style="stop-color:rgb(98,110,119);stop-opacity:1"/>
        <stop offset="1" style="stop-color:rgb(98,110,119);stop-opacity:1"/>
    </linearGradient>
      <linearGradient id="common" x1="0" y1="1" x2="1" y2="0">
      <stop offset="0" style="stop-color:rgb(0,0,0);stop-opacity:1"/>
    </linearGradient>
      <linearGradient
              id="rarity-outline" x1="0" y1="1" x2="0" y2="1">
      <stop offset="0" style="stop-color:rgb(0,0,0);stop-opacity:1"/>
    </linearGradient>
  </defs>
  <path fill="url(#rarity-outline)" d="M 14.041016 0 A 1.250125 1.250125 0 0 0 13.457031 0.14453125 L 8.9765625 2.5175781 A 1.250125 1.250125 0 0 0 8.3125 3.6230469 L 8.3125 5.9511719 A 1.250125 1.250125 0 0 0 7.4277344 5.9003906 L 2.1367188 8.4355469 A 1.250125 1.250125 0 0 0 1.4257812 9.5625 L 1.4257812 21.103516 L 1.0625 21.296875 A 2.0002 2.0002 0 0 0 0 23.0625 L 0 27.330078 A 2.0002 2.0002 0 0 0 2 29.330078 L 26.082031 29.330078 A 2.0002 2.0002 0 0 0 28.082031 27.330078 L 28.082031 23.0625 A 2.0002 2.0002 0 0 0 27.019531 21.296875 L 26.658203 21.105469 L 26.658203 9.5625 A 1.250125 1.250125 0 0 0 25.949219 8.4355469 L 20.65625 5.9003906 A 1.250125 1.250125 0 0 0 19.771484 5.9511719 L 19.771484 3.6230469 A 1.250125 1.250125 0 0 0 19.107422 2.5175781 L 14.626953 0.14453125 A 1.250125 1.250125 0 0 0 14.041016 0 z " />
  <path fill="url(#rarity)" d="M 25.409,20.470984 V 9.5629835 l -5.292,-2.535 V 17.932984 Z m -17.441,-2.539 V 7.0269835 l -5.292,2.535 V 20.469984 Z m 6.074,-16.6820005 -4.48,2.373 V 17.123984 l 4.48,-2.377 4.48,2.377 V 3.6229835 Z M 2,27.329984 v -4.267 l 12.041,-6.397 12.041,6.397 v 4.267 z"/>
</svg>
