<?xml version="1.0" encoding="UTF-8" standalone="no"?>
<svg
   version="1.1"
   width="28.37215"
   height="31.510632"
   viewBox="0 0 28.372151 31.510632"
   id="svg4"
   xmlns="http://www.w3.org/2000/svg"
   xmlns:svg="http://www.w3.org/2000/svg">
  <defs>
    <!-- This is the gradient that will actually be used on
     the cards. The colors themselves will be provided by the
     template, but the x values, y values, and offsets will be
     used from the SVG. -->
    <linearGradient id="rarity" x1="0" y1="1" x2="1" y2="0">
      <stop offset="0.125" style="stop-color:rgb(192,55,38);stop-opacity:1" id="stop2" />
      <stop offset="0.25" style="stop-color:rgb(192,55,38);stop-opacity:1" id="stop4" />
      <stop offset="0.6" style="stop-color:rgb(241,142,30);stop-opacity:1" id="stop6" />
      <stop offset="0.875" style="stop-color:rgb(192,55,38);stop-opacity:1" id="stop8" />
      <stop offset="1" style="stop-color:rgb(192,55,38);stop-opacity:1" id="stop10" />
    </linearGradient>
    <!-- These gradients are here so that you can visualize
     what the set symbol would like like in that rarity. The
     only gradient that matters in the end is the "rarity"
     gradient. -->
    <linearGradient id="mythic" x1="0" y1="1" x2="1" y2="0">
      <stop offset="0" style="stop-color:rgb(192,55,38);stop-opacity:1"/>
      <stop offset="0.125" style="stop-color:rgb(192,55,38);stop-opacity:1"/>
      <stop offset="0.5" style="stop-color:rgb(241,142,30);stop-opacity:1"/>
      <stop offset="0.875" style="stop-color:rgb(192,55,38);stop-opacity:1"/>
      <stop offset="1" style="stop-color:rgb(192,55,38);stop-opacity:1"/>
    </linearGradient>
    <linearGradient id="rare" x1="0" y1="1" x2="1" y2="0">
      <stop offset="0" style="stop-color:rgb(146,116,67);stop-opacity:1"/>
      <stop offset="0.125" style="stop-color:rgb(146,116,67);stop-opacity:1"/>
      <stop offset="0.5" style="stop-color:rgb(211,178,108);stop-opacity:1"/>
      <stop offset="0.875" style="stop-color:rgb(146,116,67);stop-opacity:1"/>
      <stop offset="1" style="stop-color:rgb(146,116,67);stop-opacity:1"/>
    </linearGradient>
    <linearGradient id="special" x1="0" y1="1" x2="1" y2="0">
      <stop offset="0" style="stop-color:rgb(76, 56, 106);stop-opacity:1"/>
      <stop offset="0.125" style="stop-color:rgb(76, 56, 106);stop-opacity:1"/>
      <stop offset="0.5" style="stop-color:rgb(201, 173, 221);stop-opacity:1"/>
      <stop offset="0.875" style="stop-color:rgb(76, 56, 106);stop-opacity:1"/>
      <stop offset="1" style="stop-color:rgb(76, 56, 106);stop-opacity:1"/>
    </linearGradient>
    <linearGradient id="uncommon" x1="0" y1="1" x2="1" y2="0">
      <stop offset="0" style="stop-color:rgb(98,110,119);stop-opacity:1"/>
      <stop offset="0.125" style="stop-color:rgb(98,110,119);stop-opacity:1"/>
      <stop offset="0.5" style="stop-color:rgb(196,222,238);stop-opacity:1"/>
      <stop offset="0.875" style="stop-color:rgb(98,110,119);stop-opacity:1"/>
      <stop offset="1" style="stop-color:rgb(98,110,119);stop-opacity:1"/>
    </linearGradient>
    <linearGradient id="common" x1="0" y1="1" x2="1" y2="0">
      <stop offset="0" style="stop-color:rgb(0,0,0);stop-opacity:1"/>
    </linearGradient>
    <linearGradient
            id="rarity-outline" x1="0" y1="1" x2="0" y2="1">
      <stop offset="0" style="stop-color:rgb(0,0,0);stop-opacity:1"/>
    </linearGradient>
  </defs>
  <path fill="url(#rarity-outline)" d="M 13.988281,0.00390625 C 12.475059,0.05483157 11.004847,0.60458541 9.8222656,1.5488281 l -0.00195,-0.00195 c -0.00187,0.00146 -0.00204,0.00439 -0.00391,0.00586 -0.0016,0.00128 -0.00426,6.739e-4 -0.00586,0.00195 l 0.00195,0.00195 c -0.028912,0.022739 -0.045733,0.055007 -0.074219,0.078125 l -0.00781,-0.00781 -0.00195,0.00195 0.00781,0.00781 C 8.7530657,2.4353648 8.0690698,3.4688599 7.5507812,4.5625 6.2370469,4.3560272 4.922801,4.14793 3.6054688,3.9414062 L 1.8300781,3.6640625 2.53125,5.3183594 C 2.9791277,6.378055 3.4256327,7.4391178 3.875,8.5 L 3.515625,8.7519531 C 2.3536748,9.5672711 1.5114431,10.722626 0.91796875,11.990234 -0.27755042,14.001798 -0.03392392,17.476972 0.68554688,19.300781 1.2753167,20.744976 2.2733299,22.007246 3.5527344,22.908203 L 3.765625,23.058594 C 3.2777518,24.219707 2.7818552,25.396257 2.3652344,26.386719 L 1.640625,28.107422 3.4746094,27.755859 c 1.3513003,-0.258539 2.7015494,-0.518414 4.0507812,-0.777343 0.3913839,0.811387 0.7755137,1.638813 1.4492188,2.318359 1.2411506,1.280375 2.9415026,2.107476 4.7597656,2.199219 1.786943,0.109097 3.558904,-0.490493 4.923828,-1.626953 l 0.002,-0.002 c 0.947571,-0.769999 1.59818,-1.762905 2.111328,-2.798829 1.329927,0.211563 2.659289,0.423546 3.992188,0.634766 l 1.791016,0.285156 -0.714844,-1.666015 c -0.441771,-1.029763 -0.881899,-2.062865 -1.324219,-3.095704 l 0.427734,-0.310546 c 1.312491,-0.954852 2.301974,-2.297646 2.855469,-3.806641 v -0.0039 c 0.795047,-2.133824 0.765114,-4.537032 -0.105469,-6.648438 l -0.002,-0.002 C 27.116905,11.036043 26.151498,9.7919846 24.910156,8.8886719 L 24.740234,8.765625 c 0.48688,-1.1711652 0.970936,-2.3430287 1.453125,-3.5136719 l 0.705079,-1.7109375 -1.81836,0.3476563 C 23.690128,4.1554387 22.30168,4.424269 20.914062,4.6914062 20.529751,3.860316 20.15006,3.0133489 19.482422,2.3203125 18.234497,1.0022823 16.511092,0.11446481 14.640625,0.01367188 h -0.002 C 14.421452,3.1967875e-4 14.204456,-0.0033688 13.988281,0.00390625 Z m -3.964843,1.95312495 0.371093,0.4140626 c -7.17e-4,5.732e-4 -0.0012,0.00138 -0.002,0.00195 z" />
  <path fill="url(#rarity)" d="m 10.436535,2.3354111 c 1.159,-0.929 2.663,-1.41699998 4.148,-1.324 1.586,0.085 3.093,0.853 4.177,2 0.762,0.79 1.299,1.767 1.677,2.791 1.61,-0.309 3.22,-0.622 4.83,-0.931 -0.533,1.294 -1.065,2.588 -1.603,3.879 -3.215,-2.081 -6.428,-4.169 -9.646,-6.248 -2.99,2.065 -5.984,4.126 -8.977,6.189 -0.532,-1.254 -1.061,-2.508 -1.591,-3.762 1.55,0.243 3.099,0.491 4.649,0.733 0.484,-1.28 1.251,-2.477 2.337,-3.328 z m 2.698,5.813 c 1.422,-0.213 2.91,-0.012 4.208,0.611 1.514,0.722 2.759,1.9699999 3.522,3.4599999 0.782,1.512 1.043,3.272 0.815,4.953 -0.242,1.775 -1.084,3.468 -2.378,4.709 -1.031,0.994 -2.351,1.689 -3.76,1.949 -1.587,0.291 -3.275,0.056 -4.702,-0.706 -1.848,-0.974 -3.239,-2.738 -3.818,-4.739 -0.387,-1.353 -0.439,-2.804 -0.139,-4.179 0.366,-1.679 1.275,-3.241 2.582,-4.3609999 1.035,-0.89 2.318,-1.494 3.669,-1.697 z m -7.787,1.9259999 c 0.019,3.97 0.024,7.942 0.036,11.913 2.968,1.953 5.937,3.905 8.904,5.86 2.939,-1.999 5.875,-4.003 8.812,-6.006 -0.017,-3.973 -0.021,-7.945 -0.04,-11.9179999 -3.006,-1.947 -6.01,-3.895 -9.017,-5.842 -2.898,1.997 -5.797,3.994 -8.695,5.9929999 z m -3.847,2.916 c -0.70100002,1.9 -0.66100002,4.061 0.11,5.933 0.517,1.266 1.398,2.379 2.517,3.167 -0.016,-4.173 -0.028,-8.346 -0.037,-12.5189999 -1.19,0.8349999 -2.094,2.0549999 -2.589,3.4189999 z m 22.822,-3.2929999 c 0.013,4.1359999 0.026,8.2729999 0.033,12.4089999 1.145,-0.833 2.02,-2.019 2.506,-3.347 0.707,-1.895 0.678,-4.056 -0.095,-5.927 -0.504,-1.246 -1.357,-2.345 -2.444,-3.1359999 z m -11.025,0.5589999 c -2.157,0.344 -3.926,2.131 -4.422,4.232 -0.359,1.448 -0.194,3.029 0.51,4.35 0.632,1.207 1.704,2.19 2.986,2.667 1.439,0.544 3.113,0.419 4.454,-0.334 1.282,-0.708 2.243,-1.946 2.666,-3.343 0.412,-1.372 0.348,-2.89 -0.22,-4.21 -0.505,-1.19 -1.413,-2.213 -2.559,-2.819 -1.035,-0.556 -2.257,-0.749 -3.414,-0.543 z m -10.011,16.518 c 1.568,-0.3 3.137,-0.604 4.705,-0.904 0.397,1 0.933,1.959 1.696,2.727 1.072,1.108 2.555,1.825 4.101,1.902 1.526,0.095 3.069,-0.427 4.24,-1.406 1.005,-0.816 1.718,-1.934 2.2,-3.124 1.564,0.248 3.127,0.499 4.692,0.747 -0.501,-1.168 -0.999,-2.338 -1.5,-3.506 -3.041,2.069 -6.078,4.143 -9.117,6.214 -3.167,-2.084 -6.335,-4.166 -9.501,-6.253 -0.505,1.202 -1.011,2.402 -1.516,3.604 z"/>
</svg>
