<?xml version="1.0" encoding="UTF-8" standalone="no"?>
<!-- Generated by IcoMoon.io -->

<svg
   version="1.1"
   width="20.690001"
   height="29.33"
   viewBox="0 0 20.690001 29.33"
   id="svg8"
   sodipodi:docname="cns.svg"
   inkscape:version="1.1.1 (3bf5ae0d25, 2021-09-20)"
   xmlns:inkscape="http://www.inkscape.org/namespaces/inkscape"
   xmlns:sodipodi="http://sodipodi.sourceforge.net/DTD/sodipodi-0.dtd"
   xmlns="http://www.w3.org/2000/svg"
   xmlns:svg="http://www.w3.org/2000/svg">
  <defs
     id="defs12" />
  <sodipodi:namedview
     id="namedview10"
     pagecolor="#ffffff"
     bordercolor="#666666"
     borderopacity="1.0"
     inkscape:pageshadow="2"
     inkscape:pageopacity="0.0"
     inkscape:pagecheckerboard="0"
     showgrid="false"
     inkscape:zoom="25.75"
     inkscape:cx="10.504854"
     inkscape:cy="14.660194"
     inkscape:window-width="1920"
     inkscape:window-height="1009"
     inkscape:window-x="-8"
     inkscape:window-y="-8"
     inkscape:window-maximized="1"
     inkscape:current-layer="svg8" />
  <title
     id="title2">cns</title>
  <path
     fill="#000000"
     d="m 15.736,20.093 c 0.04,2.422 0.319,4.085 0.522,4.853 L 10.531,29.33 4.21,25.678 C 3.858,24.149 3.733,22.463 3.69,20.78 l 4.948,3.106 7.098,-3.794 z"
     id="path4" />
  <path
     fill="#000000"
     d="M 11.983,0 20.69,5.466 19.137,16.527 8.699,22.102 0,16.636 1.549,5.579 Z m -0.668,3.068 c -4.331,-0.002 -8.345,3.518 -8.95,7.84 -0.305,2.17 0.271,4.218 1.61,5.763 1.322,1.521 3.244,2.366 5.395,2.362 4.332,0 8.344,-3.512 8.946,-7.834 C 18.619,9.027 18.049,6.981 16.71,5.436 15.379,3.905 13.466,3.066 11.315,3.068 Z m 0,2.107 c 1.529,0 2.876,0.588 3.802,1.644 0.93,1.076 1.326,2.528 1.112,4.091 C 15.76,14.226 12.686,16.926 9.37,16.924 7.837,16.928 6.49,16.344 5.568,15.288 4.634,14.208 4.235,12.752 4.456,11.193 4.921,7.877 7.995,5.177 11.315,5.175 Z"
     id="path6" />
</svg>
