<?xml version="1.0" encoding="UTF-8" standalone="no"?>
<svg
   version="1.1"
   width="23.388672"
   height="32.275391"
   viewBox="0 0 23.388672 32.275391"
   id="svg6"
   xmlns="http://www.w3.org/2000/svg"
   xmlns:svg="http://www.w3.org/2000/svg">
  <defs>
    <!-- This is the gradient that will actually be used on
     the cards. The colors themselves will be provided by the
     template, but the x values, y values, and offsets will be
     used from the SVG. -->
    <linearGradient id="rarity" x1="0" y1="0" x2="1.35" y2="0">
      <stop offset="0" style="stop-color:rgb(192,55,38);stop-opacity:1" id="stop2" />
      <stop offset="0.125" style="stop-color:rgb(192,55,38);stop-opacity:1" id="stop4" />
      <stop offset="0.5" style="stop-color:rgb(241,142,30);stop-opacity:1" id="stop6" />
      <stop offset="0.875" style="stop-color:rgb(192,55,38);stop-opacity:1" id="stop8" />
      <stop offset="1" style="stop-color:rgb(192,55,38);stop-opacity:1" id="stop10" />
    </linearGradient>
    <!-- These gradients are here so that you can visualize
     what the set symbol would like like in that rarity. The
     only gradient that matters in the end is the "rarity"
     gradient. -->
    <linearGradient id="mythic" x1="0" y1="1" x2="1" y2="0">
      <stop offset="0" style="stop-color:rgb(192,55,38);stop-opacity:1"/>
      <stop offset="0.125" style="stop-color:rgb(192,55,38);stop-opacity:1"/>
      <stop offset="0.5" style="stop-color:rgb(241,142,30);stop-opacity:1"/>
      <stop offset="0.875" style="stop-color:rgb(192,55,38);stop-opacity:1"/>
      <stop offset="1" style="stop-color:rgb(192,55,38);stop-opacity:1"/>
    </linearGradient>
    <linearGradient id="rare" x1="0" y1="1" x2="1" y2="0">
      <stop offset="0" style="stop-color:rgb(146,116,67);stop-opacity:1"/>
      <stop offset="0.125" style="stop-color:rgb(146,116,67);stop-opacity:1"/>
      <stop offset="0.5" style="stop-color:rgb(211,178,108);stop-opacity:1"/>
      <stop offset="0.875" style="stop-color:rgb(146,116,67);stop-opacity:1"/>
      <stop offset="1" style="stop-color:rgb(146,116,67);stop-opacity:1"/>
    </linearGradient>
    <linearGradient id="special" x1="0" y1="1" x2="1" y2="0">
      <stop offset="0" style="stop-color:rgb(76, 56, 106);stop-opacity:1"/>
      <stop offset="0.125" style="stop-color:rgb(76, 56, 106);stop-opacity:1"/>
      <stop offset="0.5" style="stop-color:rgb(201, 173, 221);stop-opacity:1"/>
      <stop offset="0.875" style="stop-color:rgb(76, 56, 106);stop-opacity:1"/>
      <stop offset="1" style="stop-color:rgb(76, 56, 106);stop-opacity:1"/>
    </linearGradient>
    <linearGradient id="uncommon" x1="0" y1="1" x2="1" y2="0">
      <stop offset="0" style="stop-color:rgb(98,110,119);stop-opacity:1"/>
      <stop offset="0.125" style="stop-color:rgb(98,110,119);stop-opacity:1"/>
      <stop offset="0.5" style="stop-color:rgb(196,222,238);stop-opacity:1"/>
      <stop offset="0.875" style="stop-color:rgb(98,110,119);stop-opacity:1"/>
      <stop offset="1" style="stop-color:rgb(98,110,119);stop-opacity:1"/>
    </linearGradient>
    <linearGradient id="common" x1="0" y1="1" x2="1" y2="0">
      <stop offset="0" style="stop-color:rgb(0,0,0);stop-opacity:1"/>
    </linearGradient>
    <linearGradient
            id="rarity-outline" x1="0" y1="1" x2="0" y2="1">
      <stop offset="0" style="stop-color:rgb(0,0,0);stop-opacity:1"/>
    </linearGradient>
  </defs>
  <path fill="url(#rarity-outline)"
     d="M 13.382812,0 12.742187,0.34375 1.7480469,6.2207031 0,18.710937 l 3.7597656,2.361328 0.029297,1.183594 c 0.044054,1.724251 0.1703394,3.487409 0.5527344,5.148437 l 0.1230469,0.529297 7.5136721,4.341797 7.050781,-5.398437 -0.212891,-0.806641 C 18.655058,25.459891 18.374511,23.853235 18.335937,21.517578 V 20.537109 L 21.636718,18.77539 23.388671,6.2832031 Z" />
  <path fill="url(#rarity)" d="M 13.332031,1.4453125 2.8984375,7.0234375 1.3496094,18.082031 l 8.6992186,5.464844 10.4375,-5.574219 1.552734,-11.0605466 z m -0.667969,3.0683594 c 2.151,-0.002 4.065484,0.8361875 5.396485,2.3671875 1.338999,1.545 1.908468,3.5916716 1.605468,5.7636716 -0.602,4.322 -4.615265,7.833984 -8.947265,7.833984 -2.151,0.004 -4.0725312,-0.840328 -5.3945312,-2.361328 -1.339,-1.545 -1.914375,-3.593671 -1.609375,-5.763671 0.605,-4.3220004 4.6182187,-7.8418441 8.9492182,-7.8398441 z m 0,2.1074218 c -3.3199995,0.002 -6.3943745,2.7015782 -6.8593745,6.0175773 -0.221,1.559 0.1792813,3.01375 1.1132813,4.09375 0.922,1.056 2.2677812,1.640719 3.8007812,1.636719 3.316,0.002 6.390375,-2.697671 6.859375,-6.013671 0.214,-1.563 -0.181329,-3.0157971 -1.111328,-4.0917971 -0.926,-1.056 -2.273735,-1.6425782 -3.802735,-1.6425782 z M 17.085937,21.537109 9.9882813,25.332031 5.0390625,22.224609 c 0.043,1.683 0.1694844,3.369437 0.5214844,4.898437 l 6.3203121,3.652344 5.726562,-4.384765 c -0.203,-0.767999 -0.481484,-2.429563 -0.521484,-4.851563 z"/>
</svg>
