<?xml version="1.0" encoding="UTF-8" standalone="no"?>
<!-- Generated by IcoMoon.io -->

<svg
   version="1.1"
   width="28.891001"
   height="27.511999"
   viewBox="0 0 28.891001 27.511999"
   id="svg6"
   sodipodi:docname="con_.svg"
   inkscape:version="1.1.1 (3bf5ae0d25, 2021-09-20)"
   xmlns:inkscape="http://www.inkscape.org/namespaces/inkscape"
   xmlns:sodipodi="http://sodipodi.sourceforge.net/DTD/sodipodi-0.dtd"
   xmlns="http://www.w3.org/2000/svg"
   xmlns:svg="http://www.w3.org/2000/svg">
  <defs
     id="defs10" />
  <sodipodi:namedview
     id="namedview8"
     pagecolor="#ffffff"
     bordercolor="#666666"
     borderopacity="1.0"
     inkscape:pageshadow="2"
     inkscape:pageopacity="0.0"
     inkscape:pagecheckerboard="0"
     showgrid="false"
     inkscape:zoom="25.75"
     inkscape:cx="14.504854"
     inkscape:cy="13.728155"
     inkscape:window-width="1920"
     inkscape:window-height="1009"
     inkscape:window-x="-8"
     inkscape:window-y="-8"
     inkscape:window-maximized="1"
     inkscape:current-layer="svg6" />
  <title
     id="title2">con</title>
  <path
     fill="#000000"
     d="M 4.815,6.719 C 3.635,6.518 2.657,5.909 1.925,5.05 1.925,5.05 0,6.739 0,10.109 0,11.47 0.392,12.809 0.939,14.001 3.659,12.09 5.046,9.477 4.815,6.719 Z M 18.987,5.374 C 15.507,3.138 14.447,0 14.447,0 c 0,0 -1.06,3.138 -4.544,5.374 4.145,4.799 3.607,12.941 0.042,16.59 1.066,0.748 2.087,1.637 2.54,2.213 0.756,0.962 1.375,1.821 1.961,3.335 0.583,-1.514 1.202,-2.373 1.96,-3.335 0.46,-0.587 1.507,-1.491 2.593,-2.249 C 15.385,18.305 14.825,10.197 18.986,5.374 Z m 3.225,1.332 C 21.768,6.631 21.301,6.501 20.818,6.317 c -3.876,3.535 -3.63,11.398 0.056,14.502 0.036,-0.016 0.071,-0.032 0.107,-0.048 1.481,-0.619 3.166,-1.65 4.336,-2.856 0.454,-0.466 1.093,-1.238 1.705,-2.204 -3.866,-2.583 -5.386,-5.331 -4.809,-9.006 z m 4.754,-1.657 c -0.728,0.86 -1.707,1.465 -2.884,1.669 -0.253,2.787 1.108,5.347 3.876,7.273 0.544,-1.19 0.933,-2.525 0.933,-3.883 0,-3.37 -1.926,-5.059 -1.926,-5.059 z M 7.926,20.777 C 7.923,20.777 7.917,20.774 7.91,20.771 6.432,20.152 4.747,19.121 3.577,17.915 3.113,17.439 2.456,16.642 1.831,15.647 5.632,13.08 7.246,10.351 6.682,6.706 7.126,6.631 7.593,6.501 8.076,6.317 11.929,9.836 11.573,17.65 7.927,20.777 Z"
     id="path4" />
</svg>
