<?xml version="1.0" encoding="UTF-8" standalone="no"?>
<!-- Generated by IcoMoon.io -->

<svg
   version="1.1"
   width="28.775"
   height="24.042999"
   viewBox="0 0 28.775 24.042999"
   id="svg6"
   sodipodi:docname="dd2.svg"
   inkscape:version="1.1.1 (3bf5ae0d25, 2021-09-20)"
   xmlns:inkscape="http://www.inkscape.org/namespaces/inkscape"
   xmlns:sodipodi="http://sodipodi.sourceforge.net/DTD/sodipodi-0.dtd"
   xmlns="http://www.w3.org/2000/svg"
   xmlns:svg="http://www.w3.org/2000/svg">
  <defs
     id="defs10" />
  <sodipodi:namedview
     id="namedview8"
     pagecolor="#ffffff"
     bordercolor="#666666"
     borderopacity="1.0"
     inkscape:pageshadow="2"
     inkscape:pageopacity="0.0"
     inkscape:pagecheckerboard="0"
     showgrid="false"
     inkscape:zoom="25.75"
     inkscape:cx="14.504854"
     inkscape:cy="12.019417"
     inkscape:window-width="1920"
     inkscape:window-height="1009"
     inkscape:window-x="-8"
     inkscape:window-y="-8"
     inkscape:window-maximized="1"
     inkscape:current-layer="svg6" />
  <title
     id="title2">dd2</title>
  <path
     fill="#000000"
     d="m 15.514,0 v 24.042 l 8.841,-8.688 c 0,0 -5.35,-1.936 -5.35,-5.041 V 5.739 c 0,0 7.911,2.558 7.911,10.934 0,1.863 -0.778,4.112 -0.778,4.112 0,0 2.637,-1.936 2.637,-7.366 0,-5.972 -4.806,-13.418 -13.261,-13.418 z M 0,10.625 c 0,-5.43 2.637,-7.369 2.637,-7.369 0,0 -0.774,2.251 -0.774,4.112 0,8.376 7.911,10.936 7.911,10.936 V 13.728 C 9.774,10.626 4.42,8.687 4.42,8.687 L 13.264,10e-4 V 24.043 C 4.809,24.043 0,16.597 0,10.626 Z"
     id="path4" />
</svg>
