<?xml version="1.0" encoding="UTF-8" standalone="no"?>
<!-- Generated by IcoMoon.io -->

<svg
   version="1.1"
   width="31.944"
   height="21.440001"
   viewBox="0 0 31.944 21.440001"
   id="svg6"
   sodipodi:docname="ddc.svg"
   inkscape:version="1.1.1 (3bf5ae0d25, 2021-09-20)"
   xmlns:inkscape="http://www.inkscape.org/namespaces/inkscape"
   xmlns:sodipodi="http://sodipodi.sourceforge.net/DTD/sodipodi-0.dtd"
   xmlns="http://www.w3.org/2000/svg"
   xmlns:svg="http://www.w3.org/2000/svg">
  <defs
     id="defs10" />
  <sodipodi:namedview
     id="namedview8"
     pagecolor="#ffffff"
     bordercolor="#666666"
     borderopacity="1.0"
     inkscape:pageshadow="2"
     inkscape:pageopacity="0.0"
     inkscape:pagecheckerboard="0"
     showgrid="false"
     inkscape:zoom="25.75"
     inkscape:cx="15.941748"
     inkscape:cy="11.475728"
     inkscape:window-width="1920"
     inkscape:window-height="1009"
     inkscape:window-x="-8"
     inkscape:window-y="-8"
     inkscape:window-maximized="1"
     inkscape:current-layer="svg6" />
  <title
     id="title2">ddc</title>
  <path
     fill="#000000"
     d="m 24.158,17.371 c 0,0 -1.217,-0.788 -3.648,-1.149 0,0 -1.013,2.093 -4.536,2.1 -3.526,-0.007 -4.54,-2.1 -4.54,-2.1 -2.43,0.362 -3.645,1.149 -3.645,1.149 0,0 3.097,4.069 8.184,4.069 5.084,0 8.184,-4.069 8.184,-4.069 z m 7.786,-0.674 c 0,3.496 -6.482,4.434 -9.455,4.612 0,0 5.092,-2.247 5.092,-4.265 0,-1.821 -6.138,-3.457 -11.729,-3.526 -5.588,0.069 -11.486,1.705 -11.486,3.526 0,2.018 5.089,4.265 5.089,4.265 C 6.482,21.131 0,20.193 0,16.697 0,11.737 7.936,8.642 15.852,8.642 c 7.921,0 16.092,3.094 16.092,8.055 z M 27.309,8.766 c 0,0 0.344,-5.366 -5.024,-8.766 0,0 1.968,2.661 2.413,7.536 0,0 1.38,0.589 2.612,1.229 z M 7.246,7.536 C 7.69,2.661 9.659,0 9.659,0 4.293,3.4 4.637,8.766 4.637,8.766 5.869,8.125 7.246,7.537 7.246,7.537 Z"
     id="path4" />
</svg>
