<?xml version="1.0" encoding="UTF-8" standalone="no"?>
<!-- Generated by IcoMoon.io -->

<svg
   version="1.1"
   width="25.555"
   height="27.705999"
   viewBox="0 0 25.555 27.705999"
   id="svg6"
   sodipodi:docname="dde.svg"
   inkscape:version="1.1.1 (3bf5ae0d25, 2021-09-20)"
   xmlns:inkscape="http://www.inkscape.org/namespaces/inkscape"
   xmlns:sodipodi="http://sodipodi.sourceforge.net/DTD/sodipodi-0.dtd"
   xmlns="http://www.w3.org/2000/svg"
   xmlns:svg="http://www.w3.org/2000/svg">
  <defs
     id="defs10" />
  <sodipodi:namedview
     id="namedview8"
     pagecolor="#ffffff"
     bordercolor="#666666"
     borderopacity="1.0"
     inkscape:pageshadow="2"
     inkscape:pageopacity="0.0"
     inkscape:pagecheckerboard="0"
     showgrid="false"
     inkscape:zoom="25.75"
     inkscape:cx="12.951456"
     inkscape:cy="13.84466"
     inkscape:window-width="1920"
     inkscape:window-height="1009"
     inkscape:window-x="-8"
     inkscape:window-y="-8"
     inkscape:window-maximized="1"
     inkscape:current-layer="svg6" />
  <title
     id="title2">dde</title>
  <path
     fill="#000000"
     d="m 12.771,6.441 v 0.003 c -0.012,0 -0.023,0 -0.035,0 -0.015,0 -0.026,0 -0.038,0 V 6.441 c -0.59,-0.035 -1,-0.517 -1,-1.476 0,-1.002 1.038,-2.37 1.038,-2.37 0,0 1.038,1.368 1.038,2.37 0,0.959 -0.412,1.441 -1.003,1.476 z M 15.93,4.778 C 15.854,4.039 15.819,3.297 15.486,2.262 15.152,1.224 14.097,0 12.771,0 11.438,0 10.401,1.224 10.068,2.262 9.734,3.297 9.696,4.039 9.624,4.778 9.551,5.521 9.109,8.817 12.778,8.817 c 3.665,0 3.226,-3.296 3.153,-4.039 z m 7.567,16.945 c 0.707,-1.116 1.291,-2.408 1.654,-3.896 0,0 -1,-0.392 -1.596,-0.529 -0.596,-0.141 -1.628,-0.392 -1.628,-0.392 -0.29,1.549 -1.017,2.853 -1.19,3.145 l 2.759,1.672 z M 20.75,20.85 c -0.958,3.995 -5.194,6.856 -5.194,6.856 0.561,0 4.758,-1.493 7.532,-5.378 z m 4.571,-3.815 c 0.152,-0.83 0.234,-1.719 0.234,-2.662 0,-0.938 -0.079,-1.809 -0.219,-2.625 l -2.891,0.438 V 11.37 l 2.669,-0.658 C 24.921,9.949 24.673,9.239 24.383,8.581 L 23.407,8.961 22.924,8.517 22.889,7.927 23.781,7.39 C 23.386,6.697 22.95,6.072 22.495,5.499 L 21.148,6.63 20.739,6.075 22.025,4.935 C 21.797,4.672 21.566,4.424 21.332,4.184 20.537,3.372 19.739,2.407 19.073,2.001 17.743,1.186 16.591,0.814 16.591,0.814 c 0.555,1.111 0.465,1.909 0.687,2.964 0.222,1.055 0.5,2.111 -0.281,4.113 -0.777,1.998 -3.442,1.888 -3.442,1.888 v 1.499 c 5.889,0.204 7.925,3.206 7.925,3.206 0.027,0.801 -0.061,1.487 -0.114,1.806 0,0 1.228,0.175 1.891,0.304 0.663,0.129 2.063,0.441 2.063,0.441 z M 13.555,12.614 v 12.555 c 0,0 3.668,-9.279 6.611,-10.667 0,0 -1.777,-1.888 -6.611,-1.888 z M 4.813,20.051 C 4.644,19.759 3.916,18.456 3.626,16.906 c 0,0 -1.032,0.251 -1.628,0.392 -0.596,0.137 -1.595,0.529 -1.595,0.529 0.362,1.487 0.946,2.779 1.653,3.896 l 2.756,-1.672 z m -2.35,2.277 c 2.776,3.885 6.971,5.378 7.535,5.378 0,0 -4.235,-2.861 -5.194,-6.856 z M 2.294,16.594 C 2.961,16.465 4.188,16.29 4.188,16.29 4.136,15.971 4.048,15.284 4.074,14.484 c 0,0 2.037,-3.002 7.926,-3.206 V 9.779 C 12,9.779 9.331,9.89 8.554,7.891 7.777,5.889 8.054,4.834 8.276,3.778 8.498,2.722 8.405,1.926 8.963,0.814 c 0,0 -1.151,0.372 -2.481,1.187 C 5.812,2.407 5.018,3.372 4.219,4.184 3.989,4.424 3.757,4.673 3.526,4.935 L 4.812,6.075 4.406,6.63 3.056,5.499 C 2.6,6.072 2.165,6.698 1.774,7.39 L 2.665,7.927 2.627,8.517 2.148,8.961 1.172,8.581 C 0.882,9.239 0.631,9.949 0.438,10.712 L 3.11,11.37 v 0.816 L 0.219,11.748 C 0.076,12.564 0,13.434 0,14.373 c 0,0.943 0.082,1.832 0.234,2.662 0,0 1.397,-0.313 2.06,-0.441 z M 12,12.614 v 12.555 c 0,0 -3.668,-9.279 -6.611,-10.667 0,0 1.777,-1.888 6.611,-1.888 z"
     id="path4" />
</svg>
