<?xml version="1.0" encoding="UTF-8" standalone="no"?>
<svg
   version="1.1"
   width="29.908203"
   height="31.003906"
   viewBox="0 0 29.908203 31.003906"
   id="svg4"
   xmlns="http://www.w3.org/2000/svg"
   xmlns:svg="http://www.w3.org/2000/svg">
  <defs>
    <!-- This is the gradient that will actually be used on
     the cards. The colors themselves will be provided by the
     template, but the x values, y values, and offsets will be
     used from the SVG. -->
    <linearGradient id="rarity" x1="0" y1="0" x2="1" y2="0">
      <stop offset="0" style="stop-color:rgb(192,55,38);stop-opacity:1" id="stop2" />
      <stop offset="0.125" style="stop-color:rgb(192,55,38);stop-opacity:1" id="stop4" />
      <stop offset="0.5" style="stop-color:rgb(241,142,30);stop-opacity:1" id="stop6" />
      <stop offset="0.875" style="stop-color:rgb(192,55,38);stop-opacity:1" id="stop8" />
      <stop offset="1" style="stop-color:rgb(192,55,38);stop-opacity:1" id="stop10" />
    </linearGradient>
    <!-- These gradients are here so that you can visualize
     what the set symbol would like like in that rarity. The
     only gradient that matters in the end is the "rarity"
     gradient. -->
    <linearGradient id="mythic" x1="0" y1="1" x2="1" y2="0">
      <stop offset="0" style="stop-color:rgb(192,55,38);stop-opacity:1"/>
      <stop offset="0.125" style="stop-color:rgb(192,55,38);stop-opacity:1"/>
      <stop offset="0.5" style="stop-color:rgb(241,142,30);stop-opacity:1"/>
      <stop offset="0.875" style="stop-color:rgb(192,55,38);stop-opacity:1"/>
      <stop offset="1" style="stop-color:rgb(192,55,38);stop-opacity:1"/>
    </linearGradient>
    <linearGradient id="rare" x1="0" y1="1" x2="1" y2="0">
      <stop offset="0" style="stop-color:rgb(146,116,67);stop-opacity:1"/>
      <stop offset="0.125" style="stop-color:rgb(146,116,67);stop-opacity:1"/>
      <stop offset="0.5" style="stop-color:rgb(211,178,108);stop-opacity:1"/>
      <stop offset="0.875" style="stop-color:rgb(146,116,67);stop-opacity:1"/>
      <stop offset="1" style="stop-color:rgb(146,116,67);stop-opacity:1"/>
    </linearGradient>
    <linearGradient id="special" x1="0" y1="1" x2="1" y2="0">
      <stop offset="0" style="stop-color:rgb(76, 56, 106);stop-opacity:1"/>
      <stop offset="0.125" style="stop-color:rgb(76, 56, 106);stop-opacity:1"/>
      <stop offset="0.5" style="stop-color:rgb(201, 173, 221);stop-opacity:1"/>
      <stop offset="0.875" style="stop-color:rgb(76, 56, 106);stop-opacity:1"/>
      <stop offset="1" style="stop-color:rgb(76, 56, 106);stop-opacity:1"/>
    </linearGradient>
    <linearGradient id="uncommon" x1="0" y1="1" x2="1" y2="0">
      <stop offset="0" style="stop-color:rgb(98,110,119);stop-opacity:1"/>
      <stop offset="0.125" style="stop-color:rgb(98,110,119);stop-opacity:1"/>
      <stop offset="0.5" style="stop-color:rgb(196,222,238);stop-opacity:1"/>
      <stop offset="0.875" style="stop-color:rgb(98,110,119);stop-opacity:1"/>
      <stop offset="1" style="stop-color:rgb(98,110,119);stop-opacity:1"/>
    </linearGradient>
    <linearGradient id="common" x1="0" y1="1" x2="1" y2="0">
      <stop offset="0" style="stop-color:rgb(0,0,0);stop-opacity:1"/>
    </linearGradient>
    <linearGradient
            id="rarity-outline" x1="0" y1="1" x2="0" y2="1">
      <stop offset="0" style="stop-color:rgb(0,0,0);stop-opacity:1"/>
    </linearGradient>
  </defs>
  <path fill="url(#rarity-outline)" d="m 14.958984,0 -0.751953,0.85742185 c 0,0 -0.549461,0.62451375 -1.1875,1.41796875 -0.638038,0.793455 -1.359204,1.7273585 -1.791015,2.5332031 -0.927677,1.7205932 -0.623047,3.6855469 -0.623047,3.6855469 l 0.05273,0.4707031 0.398438,0.2578125 c 0,0 1.11914,0.6924212 1.11914,2.2070318 0,1.214401 -0.371177,2.051204 -0.792969,2.582031 -0.421792,0.530827 -0.96191,0.689453 -0.951171,0.689453 -0.09438,0 -1.2063137,-0.211756 -2.0546879,-0.931641 -0.8483738,-0.719885 -1.6230469,-1.882602 -1.6230469,-4.0683591 0,-4.2676684 4.0605468,-7.3242188 4.0605468,-7.3242188 1.06923,-0.7176777 1.797904,-1.43535544 2.10405,-2.1530332 C 11.523849,0.1778879 10.597172,0.3993775 9.8925781,0.62499998 9.8925781,0.62499998 0,4.2221336 0,14.68164 0,23.732779 7.71875,27.697266 7.71875,27.697266 l 2.441406,1.238281 -1.0703122,-2.521485 c 0,0 -0.1039485,-0.245718 -0.2109376,-0.576172 -0.1069889,-0.330452 -0.1933593,-0.757465 -0.1933593,-0.884765 0,-0.143505 0.06683,-0.375 0.578125,-0.375 0.2178227,0 1.1869531,0.147437 2.1386721,0.720703 0.951719,0.573266 1.961285,1.538193 2.61914,3.259766 l 0.933594,2.445312 0.933594,-2.445312 c 0.657855,-1.721573 1.667423,-2.6865 2.61914,-3.259766 0.95172,-0.573266 1.92085,-0.720703 2.138672,-0.720703 0.511984,0 0.578125,0.228765 0.578125,0.375 0,0.1273 -0.08832,0.554313 -0.195312,0.884765 -0.106989,0.330453 -0.210938,0.576172 -0.210938,0.576172 l -1.070312,2.521485 2.443359,-1.238281 c 0,0 7.716797,-3.964488 7.716797,-13.015626 V 14.66992 14.6582 C 29.756152,8.2737762 25.880094,3.0622277 20.277344,0.76562498 c -1.4e-5,-1.007e-5 -0.0059,-0.005859 -0.0059,-0.005859 l -0.002,0.001953 c -0.07974,-0.0326341 -0.140264,-0.0935639 -0.220703,-0.125 C 18.946712,0.246892 18.228542,0.1549973 16.991714,0.1941629 c 0.208722,0.818815 1.078329,1.5152442 2.103902,2.1827905 0,0 4.0625,3.0576757 4.0625,7.3242188 0,2.1852728 -0.776711,3.3464068 -1.625,4.0664058 -0.848288,0.719999 -1.957799,0.933594 -2.052734,0.933594 0.01074,0 -0.531118,-0.158589 -0.953125,-0.689453 -0.422007,-0.530864 -0.792969,-1.367747 -0.792969,-2.582031 0,-1.5142822 1.119141,-2.2070315 1.119141,-2.2070315 l 0.398437,-0.2578125 0.05469,-0.4707031 c 0,0 0.300668,-1.9657054 -0.625,-3.6855469 C 18.250025,4.0044061 17.528759,3.0706619 16.892493,2.277344 16.256227,1.4840261 15.710853,0.85937523 15.710853,0.85937524 Z" />
  <path
     fill="url(#rarity)" d="m 19.684,1.5675781 c 0,0 4.474,3.256 4.474,8.134 0,4.8779999 -3.713,5.9999999 -4.678,5.9999999 -0.964,0 -2.746,-1.425 -2.746,-4.271 0,-2.0319999 1.578,-3.0489999 1.578,-3.0489999 0,0 0.2,-1.779 -0.511,-3.1 -0.711,-1.325 -2.843,-3.764 -2.843,-3.764 0,0 -2.139,2.439 -2.849,3.764 -0.713,1.321 -0.51,3.1 -0.51,3.1 0,0 1.577,1.017 1.577,3.0489999 0,2.846 -1.781,4.271 -2.745,4.271 -0.9639997,0 -4.6779997,-1.121 -4.6779997,-5.9999999 0,-4.879 4.4739997,-8.134 4.4739997,-8.134 0,0 -9.2269997,3.281 -9.2269997,13.1149999 0,8.488 7.17,12.123 7.17,12.123 0,0 -0.485,-1.143 -0.485,-1.853 0,-0.714 0.611,-1.375 1.578,-1.375 0.9639997,0 4.2169997,0.764 5.6919997,4.624 v 0 c 1.475,-3.86 4.728,-4.624 5.692,-4.624 0.967,0 1.577,0.66 1.577,1.375 0,0.71 -0.485,1.853 -0.485,1.853 0,0 7.17,-3.635 7.17,-12.123 0,-9.8339999 -9.226,-13.1149999 -9.226,-13.1149999 z"/>
</svg>
