<?xml version="1.0" encoding="UTF-8" standalone="no"?>
<!-- Generated by IcoMoon.io -->

<svg
   version="1.1"
   width="27.909"
   height="26.684"
   viewBox="0 0 27.909 26.684"
   id="svg6"
   sodipodi:docname="ddg.svg"
   inkscape:version="1.1.1 (3bf5ae0d25, 2021-09-20)"
   xmlns:inkscape="http://www.inkscape.org/namespaces/inkscape"
   xmlns:sodipodi="http://sodipodi.sourceforge.net/DTD/sodipodi-0.dtd"
   xmlns="http://www.w3.org/2000/svg"
   xmlns:svg="http://www.w3.org/2000/svg">
  <defs
     id="defs10" />
  <sodipodi:namedview
     id="namedview8"
     pagecolor="#ffffff"
     bordercolor="#666666"
     borderopacity="1.0"
     inkscape:pageshadow="2"
     inkscape:pageopacity="0.0"
     inkscape:pagecheckerboard="0"
     showgrid="false"
     inkscape:zoom="25.75"
     inkscape:cx="14"
     inkscape:cy="13.339806"
     inkscape:window-width="1920"
     inkscape:window-height="1009"
     inkscape:window-x="-8"
     inkscape:window-y="-8"
     inkscape:window-maximized="1"
     inkscape:current-layer="svg6" />
  <title
     id="title2">ddg</title>
  <path
     fill="#000000"
     d="m 18.684,0.05 c 0,0 4.474,3.256 4.474,8.134 0,4.878 -3.713,6 -4.678,6 -0.964,0 -2.746,-1.425 -2.746,-4.271 0,-2.032 1.578,-3.049 1.578,-3.049 0,0 0.2,-1.779 -0.511,-3.1 C 16.09,2.439 13.958,0 13.958,0 c 0,0 -2.139,2.439 -2.849,3.764 -0.713,1.321 -0.51,3.1 -0.51,3.1 0,0 1.577,1.017 1.577,3.049 0,2.846 -1.781,4.271 -2.745,4.271 -0.964,0 -4.678,-1.121 -4.678,-6 0,-4.879 4.474,-8.134 4.474,-8.134 0,0 -9.227,3.281 -9.227,13.115 0,8.488 7.17,12.123 7.17,12.123 0,0 -0.485,-1.143 -0.485,-1.853 0,-0.714 0.611,-1.375 1.578,-1.375 0.964,0 4.217,0.764 5.692,4.624 v 0 c 1.475,-3.86 4.728,-4.624 5.692,-4.624 0.967,0 1.577,0.66 1.577,1.375 0,0.71 -0.485,1.853 -0.485,1.853 0,0 7.17,-3.635 7.17,-12.123 0,-9.834 -9.226,-13.115 -9.226,-13.115 z"
     id="path4" />
</svg>
