<?xml version="1.0" encoding="UTF-8" standalone="no"?>
<svg
   version="1.1"
   width="29.300783"
   height="32.489609"
   viewBox="0 0 29.300783 32.489609"
   id="svg10"
   xmlns="http://www.w3.org/2000/svg"
   xmlns:svg="http://www.w3.org/2000/svg">
  <defs>
    <!-- This is the gradient that will actually be used on
     the cards. The colors themselves will be provided by the
     template, but the x values, y values, and offsets will be
     used from the SVG. -->
    <linearGradient id="rarity" x1="0" y1="1" x2="1" y2="0">
      <stop offset="0" style="stop-color:rgb(192,55,38);stop-opacity:1" id="stop2" />
      <stop offset="0.125" style="stop-color:rgb(192,55,38);stop-opacity:1" id="stop4" />
      <stop offset="0.5" style="stop-color:rgb(241,142,30);stop-opacity:1" id="stop6" />
      <stop offset="0.875" style="stop-color:rgb(192,55,38);stop-opacity:1" id="stop8" />
      <stop offset="1" style="stop-color:rgb(192,55,38);stop-opacity:1" id="stop10" />
    </linearGradient>
    <!-- These gradients are here so that you can visualize
     what the set symbol would like like in that rarity. The
     only gradient that matters in the end is the "rarity"
     gradient. -->
    <linearGradient id="mythic" x1="0" y1="1" x2="1" y2="0">
      <stop offset="0" style="stop-color:rgb(192,55,38);stop-opacity:1"/>
      <stop offset="0.125" style="stop-color:rgb(192,55,38);stop-opacity:1"/>
      <stop offset="0.5" style="stop-color:rgb(241,142,30);stop-opacity:1"/>
      <stop offset="0.875" style="stop-color:rgb(192,55,38);stop-opacity:1"/>
      <stop offset="1" style="stop-color:rgb(192,55,38);stop-opacity:1"/>
    </linearGradient>
    <linearGradient id="rare" x1="0" y1="1" x2="1" y2="0">
      <stop offset="0" style="stop-color:rgb(146,116,67);stop-opacity:1"/>
      <stop offset="0.125" style="stop-color:rgb(146,116,67);stop-opacity:1"/>
      <stop offset="0.5" style="stop-color:rgb(211,178,108);stop-opacity:1"/>
      <stop offset="0.875" style="stop-color:rgb(146,116,67);stop-opacity:1"/>
      <stop offset="1" style="stop-color:rgb(146,116,67);stop-opacity:1"/>
    </linearGradient>
    <linearGradient id="special" x1="0" y1="1" x2="1" y2="0">
      <stop offset="0" style="stop-color:rgb(76, 56, 106);stop-opacity:1"/>
      <stop offset="0.125" style="stop-color:rgb(76, 56, 106);stop-opacity:1"/>
      <stop offset="0.5" style="stop-color:rgb(201, 173, 221);stop-opacity:1"/>
      <stop offset="0.875" style="stop-color:rgb(76, 56, 106);stop-opacity:1"/>
      <stop offset="1" style="stop-color:rgb(76, 56, 106);stop-opacity:1"/>
    </linearGradient>
    <linearGradient id="uncommon" x1="0" y1="1" x2="1" y2="0">
      <stop offset="0" style="stop-color:rgb(98,110,119);stop-opacity:1"/>
      <stop offset="0.125" style="stop-color:rgb(98,110,119);stop-opacity:1"/>
      <stop offset="0.5" style="stop-color:rgb(196,222,238);stop-opacity:1"/>
      <stop offset="0.875" style="stop-color:rgb(98,110,119);stop-opacity:1"/>
      <stop offset="1" style="stop-color:rgb(98,110,119);stop-opacity:1"/>
    </linearGradient>
    <linearGradient id="common" x1="0" y1="1" x2="1" y2="0">
      <stop offset="0" style="stop-color:rgb(0,0,0);stop-opacity:1"/>
    </linearGradient>
    <linearGradient
            id="rarity-outline" x1="0" y1="1" x2="0" y2="1">
      <stop offset="0" style="stop-color:rgb(0,0,0);stop-opacity:1"/>
    </linearGradient>
  </defs>
  <path fill="url(#rarity-outline)" d="M 14.650391,0 C 12.405375,0 10.693243,0.45116 9.5273438,0.92142864 8.3614448,1.3916973 7.6601564,1.9452382 7.6601562,1.9452382 l -0.044922,0.034853 -0.041015,0.041388 C 7.4799019,2.0878265 7.3816705,2.1711157 7.279537,2.2459339 7.1699012,2.0261697 7.0193502,1.7269058 6.9414062,1.5836374 6.5204184,0.80868938 5.9572308,0.6713002 5.3828125,0.73191495 5.1834877,0.75294848 4.9643475,0.80217154 4.703125,0.99549146 H 4.701175 C 4.5503095,1.1076604 4.3052751,1.3073764 4.1230469,1.7099798 3.9408187,2.1125833 3.9222863,2.6953445 4.0527344,3.1084602 4.1821146,3.5182493 4.3800379,4.1129971 4.5767561,4.6926755 4.1369983,5.0314158 3.9499523,5.183163 3.5742188,5.5764948 3.0531379,6.1771124 2.2444138,7.3317578 1.4765625,9.0487342 0.69951441,10.786276 0.0089692,13.049247 0,15.620721 v 0.01525 0.01743 c 0.015707,0.893442 0.53300056,1.451371 1.3164062,1.470365 h 0.00781 0.00586 c 0.3593011,0.0043 0.7975817,0.01071 1.1972657,0.0087 l 0.861386,-0.01779 c -0.4635806,0.677151 -0.9122711,1.363642 -1.2930266,2.054519 -0.5326465,0.96648 -0.9817145,1.937151 -0.9863282,3.101925 -0.014462,3.449099 1.6521007,6.20335 4.1445312,7.850658 2.4924306,1.64731 5.7703847,2.367833 9.3964847,2.367833 3.626099,0 6.904501,-0.720453 9.396484,-2.367833 2.491983,-1.647378 4.157039,-4.40173 4.142578,-7.850658 -0.005,-1.164522 -0.453667,-2.135513 -0.986328,-3.101925 -0.388057,-0.704057 -0.846701,-1.403641 -1.31971,-2.093407 l 0.890023,0.05668 c 0.399685,0.002 0.837964,-0.0043 1.197265,-0.0087 h 0.02344 l 0.02344,-0.0022 c 0.467853,-0.02545 0.672832,-0.212528 0.867188,-0.420415 0.194355,-0.207886 0.416015,-0.506255 0.416015,-1.076089 v -0.0022 -0.0022 C 29.291807,13.049382 28.601267,10.786275 27.824219,9.0487342 27.056368,7.3317578 26.247643,6.1771126 25.726562,5.5764948 25.178241,5.0695813 24.699535,4.7597412 24.699535,4.7597412 24.903696,4.1587962 25.111678,3.5341965 25.246094,3.1084602 25.376542,2.6953451 25.358006,2.1125836 25.175784,1.7099798 24.994139,1.308663 24.750594,1.1100299 24.599612,0.99766978 24.061948,0.5960129 23.728442,0.68328418 23.384769,0.77112468 23.041095,0.85896518 22.63932,1.0683235 22.359378,1.5836374 22.283148,1.7236489 22.133587,2.0437219 22.025571,2.2614837 21.920915,2.1953903 21.830119,2.0881842 21.708984,2.0062311 l -0.0332,-0.032675 -0.03516,-0.028319 c 0,0 -0.701289,-0.5535409 -1.867187,-1.02380954 C 18.60754,0.45116 16.895406,0 14.650391,0 Z" />
  <path fill="url(#rarity)" d="m 14.650391,1.3941237 c -4.191,0 -6.2539066,1.677305 -6.2539066,1.677305 0,0 -0.089484,0.087063 -0.021484,0.1829789 0.605,0.8532037 2.6192036,5.1007152 3.2832026,7.7417434 0.201,0.717137 0.218516,1.941614 0.228516,2.468035 0.005,0.246481 0.08681,0.348531 0.257812,0.348531 0.237,0 0.653485,0.279173 0.646485,0.775481 -0.012,0.759519 -0.50475,0.679443 -0.84375,0.873505 -0.132,0.07473 -0.268391,0.374985 -0.150391,0.640426 0.127,0.285517 0.488109,0.234143 0.662109,0.235259 0.191,0.0011 0.628563,0.0044 0.851563,0.0066 0.081,0.0011 0.132812,0.04897 0.132812,0.143769 0,1.629452 0.001,6.622541 0,7.393212 0,0.07138 0.04808,0.111095 0.08008,0.111095 0.189671,0 1.125667,3e-6 1.128906,0 0.0032,3e-6 0.93828,0 1.126953,0 0.032,0 0.08008,-0.0386 0.08008,-0.111095 -0.002,-0.770671 -0.002,-5.76376 -0.002,-7.393212 0,-0.0948 0.05377,-0.143769 0.134766,-0.143769 0.221999,-0.0022 0.660562,-0.0055 0.851562,-0.0066 0.174,-0.0011 0.535109,0.04914 0.662109,-0.235259 0.118,-0.265441 -0.01839,-0.564585 -0.15039,-0.640426 -0.339,-0.194062 -0.83175,-0.113986 -0.84375,-0.873505 -0.008,-0.496308 0.406531,-0.775481 0.644531,-0.775481 0.171,0 0.254766,-0.10205 0.259766,-0.348531 0.01,-0.526421 0.02556,-1.749782 0.226562,-2.468035 0.663,-2.6399129 2.680156,-6.8885397 3.285156,-7.7417434 0.068,-0.097031 -0.02344,-0.1829787 -0.02344,-0.1829789 4.7e-5,0 -2.062859,-1.677305 -6.253859,-1.677305 z M 5.5,2.1195037 c -0.041781,0.0044 -0.078719,0.017235 -0.1054688,0.037031 -0.1199999,0.089224 -0.2431093,0.2314245 -0.1621093,0.4879434 0.712,2.2551344 2.6806562,7.2683161 2.4726562,9.3907306 -0.274,2.802747 -5.3347031,7.465358 -5.3457031,10.242452 -0.025,5.962388 5.3460156,8.817833 12.291016,8.817833 6.945,0 12.314062,-2.855445 12.289062,-8.817833 -0.012,-2.777094 -5.071703,-7.439705 -5.345703,-10.242452 -0.208,-2.1224145 1.760656,-7.1355961 2.472656,-9.3907306 0.081,-0.2565189 -0.04211,-0.3987195 -0.162109,-0.4879434 -0.106,-0.079186 -0.373563,-0.039296 -0.476563,0.1503039 -1.274,2.3398973 -4.313859,8.2195791 -4.255859,10.6955431 0.091,3.923622 3.732047,6.58795 3.748047,9.020417 0.025,3.770825 -3.746531,4.282574 -8.269531,4.282574 -4.523,0 -8.2945316,-0.511749 -8.2695316,-4.282574 0.016,-2.432467 3.6560466,-5.09568 3.7480466,-9.020417 C 10.186906,10.526418 7.1460469,4.6467363 5.8730469,2.3068391 5.7957969,2.1646385 5.6253437,2.106277 5.5,2.1195037 Z M 4.5195312,6.4870318 c -0.00914,0.00293 -0.017141,0.011188 -0.025391,0.021783 C 3.7381406,7.3720565 1.266,11.037853 1.25,15.625078 c 10e-4,0.05688 0.04775,0.103444 0.09375,0.104559 0.368,0.0045 0.8112188,0.01093 1.1992188,0.0087 0.078,0.0011 0.1132343,-0.05825 0.1152343,-0.128521 0.008,-1.841358 2.0047188,-3.747125 3.1367188,-4.565756 0.064,-0.05353 0.0805,-0.118884 0.0625,-0.204761 -0.271,-1.1599115 -0.8967188,-3.3455141 -1.2617188,-4.2912875 -0.018,-0.04517 -0.04875,-0.069776 -0.076172,-0.060993 z m 20.2597658,0 c -0.02742,-0.00879 -0.05622,0.015823 -0.07422,0.060994 -0.365,0.9457734 -0.992672,3.1313761 -1.263672,4.2912872 -0.018,0.08588 4.53e-4,0.151227 0.06445,0.204762 1.132,0.818629 3.125766,2.724397 3.134766,4.565756 0.002,0.07026 0.03919,0.129635 0.117187,0.12852 0.388001,0.0022 0.831219,-0.0042 1.199219,-0.0087 0.041,-0.0022 0.09375,-0.05437 0.09375,-0.10456 -0.016,-4.587225 -2.48814,-8.2530212 -3.24414,-9.1162626 -0.0083,-0.010595 -0.0182,-0.018855 -0.02734,-0.021783 z"/>
</svg>
