<?xml version="1.0" encoding="UTF-8" standalone="no"?>
<!-- Generated by IcoMoon.io -->

<svg
   version="1.1"
   width="27.716999"
   height="32"
   viewBox="0 0 27.716999 32"
   id="svg6"
   sodipodi:docname="ddk.svg"
   inkscape:version="1.1.1 (3bf5ae0d25, 2021-09-20)"
   xmlns:inkscape="http://www.inkscape.org/namespaces/inkscape"
   xmlns:sodipodi="http://sodipodi.sourceforge.net/DTD/sodipodi-0.dtd"
   xmlns="http://www.w3.org/2000/svg"
   xmlns:svg="http://www.w3.org/2000/svg">
  <defs
     id="defs10" />
  <sodipodi:namedview
     id="namedview8"
     pagecolor="#ffffff"
     bordercolor="#666666"
     borderopacity="1.0"
     inkscape:pageshadow="2"
     inkscape:pageopacity="0.0"
     inkscape:pagecheckerboard="0"
     showgrid="false"
     inkscape:zoom="25.75"
     inkscape:cx="14"
     inkscape:cy="15.980583"
     inkscape:window-width="1920"
     inkscape:window-height="1009"
     inkscape:window-x="-8"
     inkscape:window-y="-8"
     inkscape:window-maximized="1"
     inkscape:current-layer="svg6" />
  <title
     id="title2">ddk</title>
  <path
     fill="#000000"
     d="m 13.779,31.998 c -0.052,-0.17 -0.074,-0.385 -0.101,-0.675 -0.032,-0.364 -0.07,-0.775 -0.222,-1.207 -0.054,-0.153 -0.164,-0.279 -0.308,-0.354 -0.437,-0.229 -1.018,-0.586 -1.48,-0.943 0.547,-1.01 -0.195,-1.939 -0.688,-2.539 0.146,-0.129 0.319,-0.249 0.488,-0.366 0.375,-0.262 0.763,-0.532 0.938,-0.956 0.084,-0.204 0.057,-0.437 -0.071,-0.617 -0.12,-0.167 -0.274,-0.287 -0.423,-0.403 -0.142,-0.11 -0.255,-0.202 -0.338,-0.307 1.009,-0.57 1.714,-2.054 1.749,-2.619 0.019,-0.318 -0.071,-0.726 -0.575,-0.951 0.025,-0.112 0.052,-0.214 0.079,-0.313 0.128,-0.477 0.248,-0.929 -0.12,-1.67 -0.074,-0.15 -0.203,-0.264 -0.361,-0.32 -0.401,-0.141 -1.509,-0.366 -2.779,-0.366 -1.079,0 -2.067,0.155 -2.933,0.461 C 5.108,18.392 4.735,19.485 4.511,20.138 4.498,20.175 4.484,20.216 4.469,20.257 4.226,19.997 3.891,19.356 3.748,19.085 3.62,18.842 3.5,18.612 3.382,18.435 3.253,18.239 3.122,18.075 3.006,17.93 2.721,17.572 2.604,17.415 2.604,17.109 c 0,-0.193 0.067,-0.276 0.351,-0.544 0.252,-0.239 0.599,-0.567 0.801,-1.111 0.305,-0.825 0.577,-1.235 0.737,-1.41 0.013,0.034 0.026,0.069 0.037,0.1 0.202,0.548 0.54,1.465 1.89,2.2 0.986,0.537 2.19,0.541 4.185,0.551 0,0 0.181,0.001 0.182,0.001 0.302,0 0.563,-0.21 0.627,-0.504 0.065,-0.295 -0.086,-0.596 -0.361,-0.721 C 7.782,14.183 6.928,11.03 6.174,8.248 5.448,5.569 4.698,2.798 1.62,2.798 1.126,2.798 0.59,2.87 0,3.014 0.035,2.97 0.07,2.93 0.105,2.893 0.68,2.278 1.682,1.897 2.722,1.897 c 0.762,0 1.512,0.204 2.169,0.591 2.395,1.408 3.203,3.602 3.915,5.538 0.688,1.868 1.336,3.633 3.344,3.815 0.019,0.001 0.039,0.003 0.058,0.003 0.177,0 0.347,-0.073 0.469,-0.204 0.135,-0.145 0.196,-0.344 0.164,-0.539 C 12.572,9.431 12.935,4.028 13.927,0 c 0.964,3.937 1.062,9.35 0.898,11.112 -0.017,0.186 0.047,0.371 0.178,0.506 0.121,0.125 0.288,0.195 0.461,0.195 0.013,0 0.025,-0.001 0.039,-0.001 2.183,-0.133 2.843,-1.983 3.541,-3.941 0.74,-2.076 1.579,-4.429 4.341,-5.738 0.445,-0.211 0.942,-0.318 1.475,-0.318 1.063,0 2.148,0.435 2.767,1.106 0.03,0.032 0.06,0.067 0.09,0.104 -0.621,-0.16 -1.181,-0.239 -1.69,-0.239 -2.975,0 -3.648,2.564 -4.36,5.278 -0.745,2.839 -1.588,6.056 -5.091,7.621 -0.274,0.122 -0.425,0.417 -0.366,0.711 0.059,0.294 0.312,0.508 0.611,0.515 0.385,0.011 0.745,0.016 1.07,0.016 2.636,0 3.573,-0.351 4.468,-1.041 0.639,-0.494 0.945,-1.118 1.167,-1.574 0.041,-0.083 0.09,-0.184 0.134,-0.264 0.12,0.138 0.323,0.48 0.618,1.321 0.008,0.024 0.018,0.047 0.03,0.07 0.162,0.331 0.399,0.595 0.63,0.849 0.272,0.302 0.507,0.563 0.511,0.816 0.006,0.401 -0.152,0.579 -0.509,0.942 -0.172,0.176 -0.367,0.373 -0.54,0.625 -0.203,0.297 -0.34,0.645 -0.461,0.952 -0.074,0.189 -0.203,0.515 -0.304,0.65 -0.03,-0.072 -0.063,-0.163 -0.091,-0.238 -0.246,-0.679 -0.658,-1.814 -2.45,-2.426 -0.537,-0.183 -1.173,-0.271 -1.946,-0.271 -0.867,0 -1.749,0.111 -2.527,0.209 -0.376,0.047 -0.731,0.092 -1.025,0.116 -0.257,0.02 -0.476,0.192 -0.558,0.437 -0.195,0.586 -0.125,1.113 -0.068,1.539 0.023,0.175 0.058,0.439 0.027,0.508 v 0 c -10e-4,0 -0.03,0.027 -0.119,0.063 -0.328,0.129 -0.492,0.498 -0.366,0.827 0.352,0.916 0.878,1.335 1.342,1.706 0.177,0.141 0.348,0.278 0.514,0.442 -0.046,0.011 -0.094,0.012 -0.151,0.012 -0.108,0 -0.252,-0.015 -0.439,-0.045 -0.034,-0.006 -0.069,-0.008 -0.103,-0.008 -0.153,0 -0.303,0.055 -0.421,0.157 -0.144,0.124 -0.225,0.307 -0.221,0.498 0.059,2.91 0.131,6.472 -1.256,8.201 z"
     id="path4" />
</svg>
