<?xml version="1.0" encoding="UTF-8" standalone="no"?>
<!-- Generated by IcoMoon.io -->

<svg
   version="1.1"
   width="26.25094"
   height="27.472424"
   viewBox="0 0 26.25094 27.472424"
   id="svg6"
   sodipodi:docname="ddl.svg"
   inkscape:version="1.1.1 (3bf5ae0d25, 2021-09-20)"
   xmlns:inkscape="http://www.inkscape.org/namespaces/inkscape"
   xmlns:sodipodi="http://sodipodi.sourceforge.net/DTD/sodipodi-0.dtd"
   xmlns="http://www.w3.org/2000/svg"
   xmlns:svg="http://www.w3.org/2000/svg">
  <defs
     id="defs10" />
  <sodipodi:namedview
     id="namedview8"
     pagecolor="#ffffff"
     bordercolor="#666666"
     borderopacity="1.0"
     inkscape:pageshadow="2"
     inkscape:pageopacity="0.0"
     inkscape:pagecheckerboard="0"
     showgrid="false"
     inkscape:zoom="25.75"
     inkscape:cx="13.456311"
     inkscape:cy="13.728155"
     inkscape:window-width="1920"
     inkscape:window-height="1009"
     inkscape:window-x="-8"
     inkscape:window-y="-8"
     inkscape:window-maximized="1"
     inkscape:current-layer="svg6" />
  <title
     id="title2">ddl</title>
  <path
     fill="#000000"
     d="m 11.146126,6.3605748 c 0.11,-1.994 1.052,-3.643 1.96,-5.306 1.067,1.627 1.678,3.367 1.923,5.198 2.452,-1.065 3.221,-3.538 1.134,-6.19499996 3.713,-0.19 7.932,3.49499996 9.354,7.89199996 1.571,4.8540002 0.019,9.2230002 0.726,13.2470002 l -3.303,-1.299 c -0.915,2.175 -2.715,4.823 -4.648,6.318 0.657,-2.231 0.333,-5.254 -0.397,-7.364 3.226,-3.618 0.632,-8.592 -2.914,-9.2780002 l -0.026,16.9310002 c -0.002,1.319 -3.613,1.272 -3.625,-0.032 l -0.15,-16.8970002 C 8.0221256,10.564575 5.2171256,14.255575 8.3491256,18.852575 c -0.712,1.929 -0.975,4.825 -0.495,7.071 -1.678,-1.274 -3.409,-3.683 -4.513,-5.952 l -3.04800002,1.191 c 0.574,-3.876 -1.162,-8.464 0.327,-12.8860002 2.13900002,-6.354 6.46600002,-8.44599996 9.58100042,-8.26599996 -2.4430004,2.72599996 -0.9860004,5.39299996 0.944,6.35299996 z"
     id="path4" />
</svg>
