<?xml version="1.0" encoding="UTF-8" standalone="no"?>
<svg
        width="166.47"
        height="126.38"
        viewBox="0 0 166.47 126.38"
        version="1.1"
        xml:space="preserve"
        style="clip-rule:evenodd;fill-rule:evenodd;stroke-miterlimit:7"
        id="svg10"
        xmlns="http://www.w3.org/2000/svg"
>
  <defs>
    <!-- This is the gradient that will actually be used on
     the cards. The colors themselves will be provided by the
     template, but the x values, y values, and offsets will be
     used from the SVG. -->
      <linearGradient id="rarity" x1="0" y1="1" x2="1" y2="0">
      <stop offset="0" style="stop-color:rgb(192,55,38);stop-opacity:1" id="stop2" />
          <stop offset="0.125" style="stop-color:rgb(192,55,38);stop-opacity:1" id="stop4" />
          <stop offset="0.5" style="stop-color:rgb(241,142,30);stop-opacity:1" id="stop6" />
          <stop offset="0.875" style="stop-color:rgb(192,55,38);stop-opacity:1" id="stop8" />
          <stop offset="1" style="stop-color:rgb(192,55,38);stop-opacity:1" id="stop10" />
    </linearGradient>
      <!-- These gradients are here so that you can visualize
       what the set symbol would like like in that rarity. The
       only gradient that matters in the end is the "rarity"
       gradient. -->
      <linearGradient id="mythic" x1="0" y1="1" x2="1" y2="0">
      <stop offset="0" style="stop-color:rgb(192,55,38);stop-opacity:1"/>
          <stop offset="0.125" style="stop-color:rgb(192,55,38);stop-opacity:1"/>
          <stop offset="0.5" style="stop-color:rgb(241,142,30);stop-opacity:1"/>
          <stop offset="0.875" style="stop-color:rgb(192,55,38);stop-opacity:1"/>
          <stop offset="1" style="stop-color:rgb(192,55,38);stop-opacity:1"/>
    </linearGradient>
      <linearGradient id="rare" x1="0" y1="1" x2="1" y2="0">
      <stop offset="0" style="stop-color:rgb(146,116,67);stop-opacity:1"/>
          <stop offset="0.125" style="stop-color:rgb(146,116,67);stop-opacity:1"/>
          <stop offset="0.5" style="stop-color:rgb(211,178,108);stop-opacity:1"/>
          <stop offset="0.875" style="stop-color:rgb(146,116,67);stop-opacity:1"/>
          <stop offset="1" style="stop-color:rgb(146,116,67);stop-opacity:1"/>
    </linearGradient>
      <linearGradient id="special" x1="0" y1="1" x2="1" y2="0">
      <stop offset="0" style="stop-color:rgb(76, 56, 106);stop-opacity:1"/>
          <stop offset="0.125" style="stop-color:rgb(76, 56, 106);stop-opacity:1"/>
          <stop offset="0.5" style="stop-color:rgb(201, 173, 221);stop-opacity:1"/>
          <stop offset="0.875" style="stop-color:rgb(76, 56, 106);stop-opacity:1"/>
          <stop offset="1" style="stop-color:rgb(76, 56, 106);stop-opacity:1"/>
    </linearGradient>
      <linearGradient id="uncommon" x1="0" y1="1" x2="1" y2="0">
      <stop offset="0" style="stop-color:rgb(98,110,119);stop-opacity:1"/>
          <stop offset="0.125" style="stop-color:rgb(98,110,119);stop-opacity:1"/>
          <stop offset="0.5" style="stop-color:rgb(196,222,238);stop-opacity:1"/>
          <stop offset="0.875" style="stop-color:rgb(98,110,119);stop-opacity:1"/>
          <stop offset="1" style="stop-color:rgb(98,110,119);stop-opacity:1"/>
    </linearGradient>
      <linearGradient id="common" x1="0" y1="1" x2="1" y2="0">
      <stop offset="0" style="stop-color:rgb(0,0,0);stop-opacity:1"/>
    </linearGradient>
      <linearGradient
              id="rarity-outline" x1="0" y1="1" x2="0" y2="1">
      <stop offset="0" style="stop-color:rgb(0,0,0);stop-opacity:1"/>
    </linearGradient>
  </defs>
    <path fill="url(#rarity)" d="m 83.24,57.1 c 13.26,0 19.54,-11.84 19.54,-18.17 0,-6.67 -1.19,-8.75 -4.08,-12.84 11.16,4 18.84,9.03 22.5,15.25 v 3.92 c 0,11.84 -13.52,22.62 -29.17,27.17 v 46.76 l 12.94,-20.46 c 0,0 0.38,0.01 0.38,-10.37 0,-3.01 4.76,-7.87 10.52,-7.43 9.44,0.72 18.72,0.76 28.17,-0.83 -0.5,-2.41 -2.14,-4.47 -4.42,-6.34 8.13,-1.3 15.06,-3.79 20.34,-7.93 -1.99,-1.95 -4.83,-3.8 -8.42,-5.57 4.86,-2.12 9.25,-4.92 12.33,-9.53 -1.97,-2.4 -5.71,-4.14 -10.53,-5.47 5.74,-6.75 10.49,-13.56 10.53,-20.67 -7.57,-1.16 -24.64,3.83 -29.6,7.67 -1.13,0.88 -3.42,0.56 -4.27,-0.6 C 124,23.46 102.78,2.09 83.24,2.09 63.69,2.09 42.48,23.46 36.47,31.66 35.62,32.82 33.34,33.14 32.2,32.26 27.25,28.42 10.17,23.43 2.6,24.59 2.64,31.7 7.39,38.51 13.13,45.26 8.31,46.59 4.58,48.33 2.6,50.73 c 3.09,4.61 7.47,7.41 12.33,9.53 -3.59,1.77 -6.43,3.62 -8.41,5.57 5.28,4.14 12.21,6.63 20.33,7.93 -2.28,1.87 -3.92,3.93 -4.42,6.34 9.45,1.59 18.73,1.55 28.18,0.83 5.76,-0.44 10.51,4.42 10.51,7.43 0,10.38 0.39,10.37 0.39,10.37 l 12.93,20.46 V 72.43 C 58.79,67.88 45.27,57.1 45.27,45.26 v -3.92 c 3.66,-6.22 11.34,-11.25 22.5,-15.25 -2.15,4.4 -4.08,6.17 -4.08,12.84 0,6.33 6.28,18.17 19.55,18.17 z"/>
    <path fill="#000000" d="M 93.185547 21.898438 L 96.998047 27.292969 C 99.851453 31.33118 100.69531 32.507686 100.69531 38.929688 C 100.69531 41.405175 99.305123 45.655462 96.402344 49.029297 C 93.499564 52.403131 89.249655 55.015625 83.240234 55.015625 C 77.225346 55.015625 72.972213 52.403074 70.068359 49.029297 C 67.164505 45.65552 65.775391 41.405176 65.775391 38.929688 C 65.775391 32.661898 67.37333 31.649902 69.642578 27.005859 L 71.894531 22.396484 L 67.066406 24.126953 C 55.669804 28.211757 47.53002 33.387902 43.472656 40.283203 L 43.185547 40.771484 L 43.185547 45.259766 C 43.185547 51.973374 46.977117 58.136771 52.601562 63.136719 C 57.870753 67.820854 64.843317 71.521442 72.355469 73.912109 L 72.355469 117.875 L 74.439453 117.875 L 94.115234 117.875 L 94.115234 73.912109 C 101.62671 71.521415 108.60036 67.820488 113.86914 63.136719 C 119.49359 58.136771 123.28516 51.973374 123.28516 45.259766 L 123.28516 40.771484 L 122.99609 40.283203 C 118.93873 33.387902 110.8009 28.211757 99.404297 24.126953 L 93.185547 21.898438 z "/>
    <path fill="url(#rarity-outline)" d="m 59.87,100.04 14.57,23.04 h 17.59 l 14.58,-23.04 c 0.11,-0.13 0.26,-0.36 0.39,-0.8 0.11,-0.35 0.43,-2.1 0.43,-10.88 0,-0.79 0.62,-1.72 1.47,-2.6 1.54,-1.61 4.03,-2.96 6.81,-2.75 9.61,0.73 19.06,0.76 28.67,-0.86 l 2.14,-0.36 -0.44,-2.12 c -0.34,-1.64 -1.11,-3.17 -2.22,-4.59 6.83,-1.49 12.72,-3.95 17.38,-7.61 l 1.87,-1.47 -1.7,-1.66 c -1.39,-1.37 -3.18,-2.7 -5.33,-3.99 3.72,-2.06 7.01,-4.71 9.53,-8.46 l 0.86,-1.29 -0.99,-1.2 c -1.75,-2.12 -4.71,-3.84 -8.56,-5.2 5.14,-6.39 9,-12.9 9.04,-19.6 l 0.01,-1.8 -1.78,-0.27 c -3.99,-0.61 -10.49,0.34 -16.65,2 -6.15,1.67 -11.93,4.06 -14.55,6.08 -0.16,0.13 -0.43,0.08 -0.67,0.05 -0.24,-0.03 -0.51,-0.06 -0.64,-0.23 C 127.99,25.39 118.7,15.49 107.53,8.38 99.91,3.53 91.43,0 83.24,0 75.05,0 66.56,3.53 58.94,8.38 47.77,15.49 38.48,25.39 34.79,30.43 c -0.13,0.17 -0.39,0.2 -0.64,0.23 -0.24,0.03 -0.5,0.08 -0.67,-0.05 C 30.87,28.59 25.08,26.2 18.93,24.53 12.78,22.87 6.27,21.92 2.28,22.53 L 0.5,22.8 0.51,24.6 C 0.56,31.3 4.42,37.81 9.55,44.2 5.7,45.56 2.74,47.28 0.99,49.4 L 0,50.6 0.87,51.89 c 2.51,3.75 5.8,6.4 9.52,8.46 -2.15,1.29 -3.93,2.62 -5.33,3.99 L 3.36,66 5.23,67.47 c 4.67,3.66 10.55,6.12 17.39,7.61 -1.12,1.43 -1.88,2.95 -2.23,4.59 l -0.43,2.12 2.13,0.36 c 9.61,1.62 19.06,1.59 28.67,0.86 2.79,-0.21 5.27,1.14 6.82,2.75 0.84,0.88 1.46,1.81 1.46,2.6 0,8.78 0.33,10.53 0.43,10.88 0.13,0.44 0.28,0.67 0.4,0.8 z m 43.14,-2.11 -13.06,21.26 c 0,0 -13.43,0 -13.43,0 L 63.46,97.93 c -0.05,-0.7 -0.25,-3.56 -0.25,-9.57 0,-1.62 -0.91,-3.69 -2.63,-5.48 -2.29,-2.4 -6,-4.34 -10.13,-4.03 -8.43,0.64 -16.72,0.74 -25.12,-0.42 0.68,-1.09 1.67,-2.1 2.84,-3.06 l 3.58,-2.93 -4.57,-0.73 C 20.47,70.63 14.61,68.74 9.89,65.68 c 1.63,-1.22 3.63,-2.4 5.96,-3.55 l 4.03,-1.98 -4.11,-1.8 c -4,-1.74 -7.66,-3.95 -10.43,-7.41 1.91,-1.55 4.82,-2.7 8.35,-3.67 L 16.84,46.4 14.72,43.91 C 9.84,38.18 5.62,32.47 4.82,26.5 c 3.55,-0.08 8.39,0.8 13.02,2.06 5.51,1.49 10.74,3.53 13.09,5.35 0.97,0.75 2.4,1.07 3.8,0.88 1.4,-0.2 2.7,-0.91 3.42,-1.9 3.52,-4.8 12.38,-14.22 23.03,-21 6.93,-4.41 14.61,-7.72 22.06,-7.72 7.44,0 15.13,3.31 22.05,7.72 10.65,6.78 19.51,16.2 23.03,21 0.73,0.99 2.02,1.7 3.42,1.9 1.4,0.19 2.84,-0.13 3.81,-0.88 2.34,-1.82 7.57,-3.86 13.09,-5.35 4.62,-1.26 9.46,-2.14 13.02,-2.06 -0.8,5.97 -5.03,11.68 -9.91,17.41 l -2.12,2.49 3.15,0.87 c 3.53,0.97 6.44,2.12 8.36,3.67 -2.77,3.46 -6.44,5.67 -10.43,7.41 l -4.12,1.8 4.03,1.98 c 2.33,1.15 4.33,2.33 5.96,3.55 -4.72,3.06 -10.58,4.95 -17.29,6.03 l -4.57,0.73 3.58,2.93 c 1.17,0.96 2.16,1.97 2.84,3.06 -8.4,1.16 -16.69,1.06 -25.12,0.42 -4.12,-0.31 -7.83,1.63 -10.13,4.03 -1.72,1.79 -2.63,3.86 -2.63,5.48 0,6.01 -0.19,8.87 -0.25,9.57 z"/>
    <path fill="#FFFFFF" d="M 74.44,123.08 V 72.43 C 58.79,67.88 45.27,57.1 45.27,45.26 v -3.92 c 3.66,-6.22 11.34,-11.25 22.5,-15.25 -2.15,4.4 -4.08,6.17 -4.08,12.84 0,6.33 6.28,18.17 19.55,18.17 13.26,0 19.54,-11.84 19.54,-18.17 0,-6.67 -1.19,-8.75 -4.08,-12.84 11.16,4 18.84,9.03 22.5,15.25 v 3.92 c 0,11.84 -13.52,22.62 -29.17,27.17 v 50.65 c -0.969926,1.64444 -2.912668,2.67183 -4.051139,3.3 -2.142156,1.18197 -8.134373,0.67297 -9.299994,0 -1.126071,-0.65014 -3.487957,-2.0623 -4.238867,-3.3 z"/>
</svg>
