<?xml version="1.0" encoding="UTF-8" standalone="no"?>
<!-- Generated by IcoMoon.io -->

<svg
   version="1.1"
   width="31.974756"
   height="25.51182"
   viewBox="0 0 31.974756 25.51182"
   id="svg6"
   sodipodi:docname="ddo.svg"
   inkscape:version="1.1.1 (3bf5ae0d25, 2021-09-20)"
   xmlns:inkscape="http://www.inkscape.org/namespaces/inkscape"
   xmlns:sodipodi="http://sodipodi.sourceforge.net/DTD/sodipodi-0.dtd"
   xmlns="http://www.w3.org/2000/svg"
   xmlns:svg="http://www.w3.org/2000/svg">
  <defs
     id="defs10" />
  <sodipodi:namedview
     id="namedview8"
     pagecolor="#ffffff"
     bordercolor="#666666"
     borderopacity="1.0"
     inkscape:pageshadow="2"
     inkscape:pageopacity="0.0"
     inkscape:pagecheckerboard="0"
     showgrid="false"
     inkscape:zoom="25.75"
     inkscape:cx="15.980583"
     inkscape:cy="12.718447"
     inkscape:window-width="1920"
     inkscape:window-height="1009"
     inkscape:window-x="-8"
     inkscape:window-y="-8"
     inkscape:window-maximized="1"
     inkscape:current-layer="svg6" />
  <title
     id="title2">ddo</title>
  <path
     fill="#000000"
     d="m 7.9210237,6.647 c 0,-2.216 -0.015,-4.432 0.009,-6.647 1.573,0.01 3.1470003,0.002 4.7200003,0.004 0.006,0.522 -10e-4,1.044 0.009,1.567 2.22,-0.004 4.438,-0.005 6.658,0 0.012,-0.522 0.003,-1.045 0.014,-1.567 1.573,0 3.146,0.004 4.719,-0.002 0.019,2.237 0.004,4.474 0.008,6.71 -0.772,0.759 -1.536,1.526 -2.296,2.296 -0.076,1.461 0.051,2.923 -0.019,4.384 -0.021,0.296 0.022,0.59 0.056,0.885 0.262,-0.834 0.881,-1.484 1.508,-2.065 1.112,-0.975 2.559,-1.635 4.057,-1.6 1.956,-0.011 3.793,1.382 4.418,3.216 0.424,1.31 0.134,2.805 -0.728,3.876 -0.603,0.774 -1.431,1.356 -2.338,1.719 -0.874,0.347 -1.954,0.159 -2.618,-0.519 -0.562,-0.543 -0.76,-1.408 -0.549,-2.154 0.169,-0.737 0.768,-1.331 1.472,-1.576 0.607,-0.197 1.288,-0.091 1.83,0.237 0.313,0.17 0.556,0.441 0.871,0.607 -0.055,-0.966 -0.796,-1.85 -1.742,-2.065 -0.829,-0.204 -1.697,0.089 -2.396,0.536 -1.603,1.109 -1.919,3.7 -0.573,5.13 0.558,0.65 1.378,0.951 2.131,1.307 -2.519,2.132 -5.537,3.749 -8.799,4.362 -1.131,0.2 -2.285,0.288 -3.428,0.172 -3.755,-0.342 -7.2200003,-2.162 -10.0990003,-4.524 0.738,-0.355 1.547,-0.638 2.104,-1.268 1.442,-1.457 1.084,-4.218 -0.669,-5.271 -0.816,-0.488 -1.886,-0.719 -2.763,-0.253 -0.709,0.346 -1.11,1.086 -1.271,1.83 0.055,-0.009 0.166,-0.025 0.221,-0.032 0.461,-0.453 1.052,-0.803 1.705,-0.86 0.911,-0.082 1.819,0.497 2.177,1.328 0.137,0.307 0.156,0.647 0.215,0.974 -0.071,0.521 -0.187,1.065 -0.579,1.447 -0.622,0.682 -1.655,0.935 -2.528,0.647 -1.311,-0.461 -2.47900004,-1.414 -3.05600004,-2.695 -0.454,-0.984 -0.499,-2.149 -0.099,-3.157 0.458,-1.145 1.38300004,-2.09 2.49800004,-2.608 1.401,-0.649 3.072,-0.482 4.428,0.202 1.298,0.679 2.528,1.72 3.0160003,3.142 0.07,-1.777 0.026,-3.554 0.02,-5.332 C 9.5060237,8.199 8.6480237,7.478 7.9190237,6.648 Z M 15.566024,4.499 c -1.042,0.136 -2.017,0.778 -2.517,1.71 -0.63,1.142 -0.519,2.667 0.307,3.685 0.473,0.588 1.141,1.036 1.885,1.19 1.112,0.28 2.361,-0.09 3.145,-0.929 0.924,-0.889 1.181,-2.342 0.737,-3.527 -0.513,-1.414 -2.066,-2.341 -3.557,-2.13 z m -0.448,10.997 c -0.717,0.194 -1.357,0.637 -1.805,1.226 -0.835,1.086 -0.891,2.702 -0.131,3.841 0.729,1.169 2.248,1.768 3.582,1.432 0.951,-0.22 1.787,-0.884 2.222,-1.758 0.667,-1.323 0.351,-3.075 -0.798,-4.031 -0.819,-0.755 -2.009,-0.935 -3.07,-0.71 z"
     id="path4" />
</svg>
