<?xml version="1.0" encoding="UTF-8" standalone="no"?>
<svg
   version="1.1"
   width="28.290318"
   height="30.379406"
   viewBox="0 0 28.290318 30.379406"
   id="svg6"
   xmlns="http://www.w3.org/2000/svg"
   xmlns:svg="http://www.w3.org/2000/svg">
  <defs>
    <!-- This is the gradient that will actually be used on
     the cards. The colors themselves will be provided by the
     template, but the x values, y values, and offsets will be
     used from the SVG. -->
    <linearGradient id="rarity" x1="0.35" y1="0" x2="0.65" y2="1">
      <stop offset="0" style="stop-color:rgb(192,55,38);stop-opacity:1" id="stop2" />
      <stop offset="0.125" style="stop-color:rgb(192,55,38);stop-opacity:1" id="stop4" />
      <stop offset="0.5" style="stop-color:rgb(241,142,30);stop-opacity:1" id="stop6" />
      <stop offset="0.875" style="stop-color:rgb(192,55,38);stop-opacity:1" id="stop8" />
      <stop offset="1" style="stop-color:rgb(192,55,38);stop-opacity:1" id="stop10" />
    </linearGradient>
    <!-- These gradients are here so that you can visualize
     what the set symbol would like like in that rarity. The
     only gradient that matters in the end is the "rarity"
     gradient. -->
    <linearGradient id="mythic" x1="0" y1="1" x2="1" y2="0">
      <stop offset="0" style="stop-color:rgb(192,55,38);stop-opacity:1"/>
      <stop offset="0.125" style="stop-color:rgb(192,55,38);stop-opacity:1"/>
      <stop offset="0.5" style="stop-color:rgb(241,142,30);stop-opacity:1"/>
      <stop offset="0.875" style="stop-color:rgb(192,55,38);stop-opacity:1"/>
      <stop offset="1" style="stop-color:rgb(192,55,38);stop-opacity:1"/>
    </linearGradient>
    <linearGradient id="rare" x1="0" y1="1" x2="1" y2="0">
      <stop offset="0" style="stop-color:rgb(146,116,67);stop-opacity:1"/>
      <stop offset="0.125" style="stop-color:rgb(146,116,67);stop-opacity:1"/>
      <stop offset="0.5" style="stop-color:rgb(211,178,108);stop-opacity:1"/>
      <stop offset="0.875" style="stop-color:rgb(146,116,67);stop-opacity:1"/>
      <stop offset="1" style="stop-color:rgb(146,116,67);stop-opacity:1"/>
    </linearGradient>
    <linearGradient id="special" x1="0" y1="1" x2="1" y2="0">
      <stop offset="0" style="stop-color:rgb(76, 56, 106);stop-opacity:1"/>
      <stop offset="0.125" style="stop-color:rgb(76, 56, 106);stop-opacity:1"/>
      <stop offset="0.5" style="stop-color:rgb(201, 173, 221);stop-opacity:1"/>
      <stop offset="0.875" style="stop-color:rgb(76, 56, 106);stop-opacity:1"/>
      <stop offset="1" style="stop-color:rgb(76, 56, 106);stop-opacity:1"/>
    </linearGradient>
    <linearGradient id="uncommon" x1="0" y1="1" x2="1" y2="0">
      <stop offset="0" style="stop-color:rgb(98,110,119);stop-opacity:1"/>
      <stop offset="0.125" style="stop-color:rgb(98,110,119);stop-opacity:1"/>
      <stop offset="0.5" style="stop-color:rgb(196,222,238);stop-opacity:1"/>
      <stop offset="0.875" style="stop-color:rgb(98,110,119);stop-opacity:1"/>
      <stop offset="1" style="stop-color:rgb(98,110,119);stop-opacity:1"/>
    </linearGradient>
    <linearGradient id="common" x1="0" y1="1" x2="1" y2="0">
      <stop offset="0" style="stop-color:rgb(0,0,0);stop-opacity:1"/>
    </linearGradient>
    <linearGradient
            id="rarity-outline" x1="0" y1="1" x2="0" y2="1">
      <stop offset="0" style="stop-color:rgb(0,0,0);stop-opacity:1"/>
    </linearGradient>
  </defs>
  <path fill="url(#rarity-outline)" d="m 14.671875,0 -0.002,1.8085938 c -0.0012,4.4851636 -0.0032,9.8063752 0,15.0488282 l 0.002,2.232422 1.666016,-1.488281 c 0.534708,-0.478044 1.027997,-0.947099 1.529297,-1.357422 l 0.0039,-0.002 0.002,-0.0039 c 0.780929,-0.647805 1.431721,-1.244072 2.111328,-1.535157 0.269653,-0.104243 0.434151,-0.09374 0.44336,-0.09375 0.03422,0.02468 0.144205,0.174116 0.21875,0.441407 0.05374,0.242689 -0.05758,0.610473 -0.326172,0.941406 l -0.0039,0.0059 -0.0059,0.0078 c -0.697503,0.889277 -2.053545,1.495739 -3.207031,2.792968 -9.52e-4,10e-4 -9.53e-4,0.0029 -0.002,0.0039 -1.131972,1.2407 -2.072414,2.78831 -2.367188,4.572265 -0.230117,1.363804 0.205431,2.591119 0.626953,3.59961 l 0.0039,0.01172 0.0059,0.0098 c 0.4746,1.062306 1.186599,2.202495 2.400391,2.884766 l 0.01367,0.0078 0.01172,0.0059 c 1.147166,0.600961 2.471898,0.612828 3.621094,0.203124 l 0.01367,-0.0039 0.01172,-0.0059 c 1.185471,-0.458623 1.949464,-1.4482 2.378907,-2.453125 v -0.002 c 0.372468,-0.86891 0.458401,-2.016762 -0.257813,-2.945313 v -0.002 l -0.002,-0.002 c -0.37764,-0.484764 -0.954639,-0.686684 -1.404297,-0.722656 -0.434196,-0.03474 -0.794714,0.04236 -1.095703,0.121094 -0.514855,0.113707 -0.839723,0.505724 -1.039062,0.943359 0.02283,-0.893079 0.408553,-1.80717 1.044921,-2.541016 l 0.002,-0.002 h 0.002 c 1.28481,-1.492844 3.199133,-2.575916 4.898437,-4.214844 l 0.0039,-0.0039 c 1.189732,-1.119965 2.234656,-2.665277 2.304688,-4.533203 0.113409,-1.547018 -0.670049,-2.801605 -1.357422,-3.7578127 l -0.0059,-0.00781 -0.0039,-0.00586 C 25.652965,8.2686385 24.115613,6.8805795 22.589844,5.59375 l -0.0039,-0.00391 -0.0039,-0.00195 C 20.558244,3.9193319 18.433091,2.3620395 16.203138,0.96093685 Z m -2.11914,0.1035157 -1.654297,1.4765625 C 7.4278035,4.676121 4.4310893,7.5833275 0.63671878,11.035156 L 0,11.615234 0.48046878,12.330078 C 3.5007385,16.841746 7.1766234,22.309017 10.738281,27.494141 l 1.785157,2.599609 0.03906,-3.154297 c 0.02919,-2.364319 0.0038,-4.715055 0.01172,-7.054687 v -0.0039 -0.002 c -0.008,-5.848347 0.01729,-11.701788 -0.0098,-17.5585935 z" />
  <path fill="url(#rarity)" d="m 15.670547,1.8085938 c 2.19,1.376 4.281,2.906 6.275,4.55 1.507,1.271 2.982,2.61 4.164,4.1970002 0.652,0.907 1.27,1.961 1.177,3.121 -0.05,1.514 -0.928,2.853 -2.001,3.862 -1.577,1.524 -3.533,2.619 -4.972,4.291 -0.803,0.926 -1.344,2.118 -1.317,3.36 0.026,0.669 0.077,1.39 0.455,1.965 0.26,0.392 0.791,0.461 1.209,0.319 0.588,-0.192 1.146,-0.612 1.37,-1.205 0.132,-0.302 -0.075,-0.686 -0.404,-0.726 -0.274,-0.025 -0.547,0.037 -0.817,0.073 0.025,-0.273 0.195,-0.505 0.471,-0.563 0.487,-0.13 1.144,-0.203 1.493,0.245 0.425,0.551 0.394,1.327 0.13,1.942 -0.351,0.822 -0.968,1.586 -1.821,1.916 -0.906,0.323 -1.962,0.304 -2.821,-0.146 -0.934,-0.525 -1.55,-1.463 -1.978,-2.421 -0.4,-0.957 -0.741,-1.998 -0.564,-3.047 0.253,-1.537 1.083,-2.93 2.122,-4.068 0.963,-1.089 2.354,-1.701 3.256,-2.851 0.405,-0.499 0.677,-1.16 0.525,-1.808 -0.11,-0.424 -0.316,-0.87 -0.714,-1.093 -0.41,-0.216 -0.9,-0.108 -1.308,0.056 -0.904,0.384 -1.621,1.074 -2.366,1.692 -0.54,0.442 -1.045,0.923 -1.564,1.387 -0.003,-5.016 -10e-4,-10.0310002 -10e-4,-15.0470002 z"/>
  <path fill="url(#rarity)" d="m 10.008547,3.7275938 c 0.521,-0.465 1.005,-0.97 1.555,-1.402 0.027,5.851 0.003,11.7030002 0.011,17.5550002 -0.008,2.349 0.017,4.698 -0.012,7.047 -0.138,-0.169 -0.27,-0.343 -0.393,-0.522 -3.2770001,-4.884 -6.5890001,-9.743 -9.8590001,-14.631 2.903,-2.6790002 5.799,-5.3650002 8.6980001,-8.0460002 z"/>
</svg>
