<?xml version="1.0" encoding="UTF-8" standalone="no"?>
<svg
   version="1.1"
   width="34.658203"
   height="27.357462"
   viewBox="0 0 34.658203 27.357462"
   id="svg4"
   xmlns="http://www.w3.org/2000/svg"
   xmlns:svg="http://www.w3.org/2000/svg">
  <defs>
    <!-- This is the gradient that will actually be used on
     the cards. The colors themselves will be provided by the
     template, but the x values, y values, and offsets will be
     used from the SVG. -->
    <linearGradient id="rarity" x1="0" y1="0" x2="0.85" y2="1">
      <stop offset="0" style="stop-color:rgb(192,55,38);stop-opacity:1" id="stop2" />
      <stop offset="0.125" style="stop-color:rgb(192,55,38);stop-opacity:1" id="stop4" />
      <stop offset="0.5" style="stop-color:rgb(241,142,30);stop-opacity:1" id="stop6" />
      <stop offset="0.875" style="stop-color:rgb(192,55,38);stop-opacity:1" id="stop8" />
      <stop offset="1" style="stop-color:rgb(192,55,38);stop-opacity:1" id="stop10" />
    </linearGradient>
    <!-- These gradients are here so that you can visualize
     what the set symbol would like like in that rarity. The
     only gradient that matters in the end is the "rarity"
     gradient. -->
    <linearGradient id="mythic" x1="0" y1="1" x2="1" y2="0">
      <stop offset="0" style="stop-color:rgb(192,55,38);stop-opacity:1"/>
      <stop offset="0.125" style="stop-color:rgb(192,55,38);stop-opacity:1"/>
      <stop offset="0.5" style="stop-color:rgb(241,142,30);stop-opacity:1"/>
      <stop offset="0.875" style="stop-color:rgb(192,55,38);stop-opacity:1"/>
      <stop offset="1" style="stop-color:rgb(192,55,38);stop-opacity:1"/>
    </linearGradient>
    <linearGradient id="rare" x1="0" y1="1" x2="1" y2="0">
      <stop offset="0" style="stop-color:rgb(146,116,67);stop-opacity:1"/>
      <stop offset="0.125" style="stop-color:rgb(146,116,67);stop-opacity:1"/>
      <stop offset="0.5" style="stop-color:rgb(211,178,108);stop-opacity:1"/>
      <stop offset="0.875" style="stop-color:rgb(146,116,67);stop-opacity:1"/>
      <stop offset="1" style="stop-color:rgb(146,116,67);stop-opacity:1"/>
    </linearGradient>
    <linearGradient id="special" x1="0" y1="1" x2="1" y2="0">
      <stop offset="0" style="stop-color:rgb(76, 56, 106);stop-opacity:1"/>
      <stop offset="0.125" style="stop-color:rgb(76, 56, 106);stop-opacity:1"/>
      <stop offset="0.5" style="stop-color:rgb(201, 173, 221);stop-opacity:1"/>
      <stop offset="0.875" style="stop-color:rgb(76, 56, 106);stop-opacity:1"/>
      <stop offset="1" style="stop-color:rgb(76, 56, 106);stop-opacity:1"/>
    </linearGradient>
    <linearGradient id="uncommon" x1="0" y1="1" x2="1" y2="0">
      <stop offset="0" style="stop-color:rgb(98,110,119);stop-opacity:1"/>
      <stop offset="0.125" style="stop-color:rgb(98,110,119);stop-opacity:1"/>
      <stop offset="0.5" style="stop-color:rgb(196,222,238);stop-opacity:1"/>
      <stop offset="0.875" style="stop-color:rgb(98,110,119);stop-opacity:1"/>
      <stop offset="1" style="stop-color:rgb(98,110,119);stop-opacity:1"/>
    </linearGradient>
    <linearGradient id="common" x1="0" y1="1" x2="1" y2="0">
      <stop offset="0" style="stop-color:rgb(0,0,0);stop-opacity:1"/>
    </linearGradient>
    <linearGradient
            id="rarity-outline" x1="0" y1="1" x2="0" y2="1">
      <stop offset="0" style="stop-color:rgb(0,0,0);stop-opacity:1"/>
    </linearGradient>
  </defs>
  <path fill="url(#rarity-outline)" d="m 19.9375,0 0.757813,1.515625 c 0.515273,1.1148272 0.931101,2.274283 1.234374,3.4609375 0.353644,1.436735 0.559114,2.8823904 0.363282,4.2460938 l -0.002,0.00977 -0.002,0.00781 c -0.09621,0.7768287 -0.435789,1.4776927 -0.875,2.0996087 C 20.406785,8.9255694 19.190885,5.603126 18.146484,3.1855469 L 16.482422,3.6875 c 0.25544,1.4093596 0.702141,3.7173119 0.830078,5.1289063 0.265297,3.2129317 0.149642,6.4612037 -0.304687,9.6601557 l -0.267579,1.886719 1.605469,-1.027344 c 1.58303,-1.011854 3.137332,-2.046368 4.697266,-3.058594 l 0.0098,-0.0059 c 0.136731,-0.08621 0.252114,-0.161181 0.384766,-0.248047 -0.02958,0.08607 -0.037,0.176093 -0.06836,0.261719 l -0.002,0.002 c -0.319926,0.876621 -0.657748,1.687654 -1.146484,2.328125 l -0.0059,0.0059 -0.0039,0.0078 c -1.035319,1.412896 -2.780571,2.335529 -4.517578,2.326172 l -0.876953,-0.0039 -0.0039,0.876953 c -0.005,1.550559 0.01003,3.090568 -0.0078,4.621093 l -0.0098,0.908204 0.908265,-0.02348 c 0.745686,-0.0192 1.489123,-0.09718 2.220703,-0.232422 l 0.02148,-0.0039 0.01953,-0.0059 c 1.663417,-0.391038 3.242131,-1.129078 4.607428,-2.158169 l 0.0059,-0.0059 0.0059,-0.0039 c 3.570988,-2.788895 5.546063,-7.383902 5.154297,-11.888672 v -0.002 -0.002 c -0.138667,-1.497189 -0.577449,-2.935564 -1.169922,-4.2832031 0.01312,-0.034379 0.04481,-0.11514 0.0918,-0.2382813 h 0.002 c 0.168628,-0.3906181 0.678271,-0.69474 1.25,-0.7753906 0.863085,-0.112324 1.777511,-0.00507 2.658204,0.2539063 L 34.658203,8.6015625 33.578125,6.7148438 C 32.373525,4.6090409 30.346272,3.2637034 28.349609,2.3144532 h -0.002 l -0.002,-0.00195 C 26.207426,1.3100052 23.929437,0.66787687 21.634766,0.28320315 Z M 0.375,0.83203128 0.3515625,1.6816406 C 0.27064386,4.532774 0.17511127,7.3846853 0.078125,10.238281 L 0,12.554687 1.5898437,10.867188 C 2.8518904,9.5286811 4.1079881,8.1876086 5.3671875,6.8535156 5.4464861,6.9136789 5.528908,6.9770145 5.609375,7.0390625 3.8342973,9.2772799 2.7665884,12.035809 2.765625,14.873046 v 0.002 0.002 c 0.01178,2.484622 0.7301082,4.967321 2.125,7.048828 7.794e-4,0.0012 0.00117,0.0027 0.00195,0.0039 l 0.00195,0.002 c 1.1509828,1.742588 2.7532542,3.18259 4.6289063,4.119141 h 0.00195 l 0.00195,0.002 c 1.5800467,0.794678 3.3401137,1.21506 5.1113277,1.212891 l 0.873047,-0.002 0.002,-0.871094 c 0.004,-1.523683 9.06e-4,-3.04599 0.002,-4.564453 v -0.878907 l -0.880859,0.0039 c -1.929183,0.0108 -3.847996,-1.136604 -4.8399251,-2.806768 l -0.00195,-0.0039 -0.00391,-0.0039 C 9.0306171,16.892641 8.7200492,15.352441 8.9472656,13.916015 v -0.0039 l 0.00195,-0.0059 c 0.1723336,-1.1778 0.7586726,-2.258462 1.5429684,-3.146484 0.46739,0.358014 0.928486,0.715328 1.427735,1.076171 l 1.390625,1.005859 -0.0039,-1.716796 c -0.004,-2.0825989 -0.002,-4.1643763 0,-6.2460937 v -0.40625 L 12.998047,4.2109375 C 11.755464,3.1562916 10.511353,2.0998175 9.2695312,1.0429688 L 9.0253906,0.8339844 H 8.7070312 C 6.0992267,0.8250884 3.450594,0.8307154 1.2265625,0.8320314 Z" />
  <path fill="url(#rarity)" d="m 21.489125,1.1464844 c 2.231,0.374 4.433,0.997 6.485,1.959 1.912,0.909 3.772,2.17 4.844,4.044 -0.976,-0.287 -2.013,-0.415 -3.026,-0.282 -0.792,0.111 -1.606,0.531 -1.935,1.297 -0.091,0.247 -0.264,0.535 -0.127,0.795 0.592,1.3129996 1.004,2.7159996 1.137,4.1519996 0.365,4.197 -1.498,8.527 -4.822,11.123 -1.267,0.955 -2.736,1.643 -4.28,2.006 -0.687,0.127 -1.386,0.201 -2.085,0.219 0.018,-1.543 0.003,-3.086 0.008,-4.629 2.042,0.011 4.027,-1.046 5.228,-2.685 0.583,-0.764 0.947,-1.663 1.274,-2.559 0.297,-0.811 0.523,-1.649 0.651,-2.503 -0.778,0.444 -1.505,0.975 -2.264,1.453 -1.569,1.018 -3.126,2.055 -4.703,3.063 0.463,-3.26 0.582,-6.573 0.311,-9.8549996 -0.131,-1.449 -0.349,-2.893 -0.608,-4.322 1.223,2.831 2.366,5.7049996 3.571,8.5479996 1.152,-0.851 1.836,-2.218 2.01,-3.6229996 0.22,-1.532 -0.012,-3.09 -0.379,-4.581 -0.317,-1.242 -0.751,-2.454 -1.289,-3.618 z m -20.263,0.56 c -0.081,2.854 -0.176,5.707 -0.273,8.5609996 1.37,-1.4529996 2.734,-2.9129996 4.106,-4.3639996 0.126,-0.091 0.314,-0.052 0.461,-0.031 0.421,0.303 0.826,0.63 1.24,0.942 -2.024,2.156 -3.119,5.1139996 -3.12,8.0589996 0.011,2.32 0.686,4.641 1.981,6.571 1.068,1.619 2.56,2.959 4.296,3.825 1.458,0.734 3.088,1.123 4.721,1.121 0.004,-1.521 10e-4,-3.042 0.002,-4.562 -2.269,0.013 -4.447,-1.297 -5.598,-3.235 -0.868,-1.426 -1.22,-3.164 -0.959,-4.814 0.236,-1.613 1.037,-3.147 2.262,-4.2289996 0.702,0.5169996 1.38,1.0649996 2.087,1.5759996 -0.004,-2.0839996 -0.003,-4.1669996 -10e-4,-6.2489996 -1.243,-1.055 -2.486,-2.112 -3.728,-3.169 -2.493,-0.009 -4.985,-0.003 -7.478,-0.003 z"/>
</svg>
