<?xml version="1.0" encoding="UTF-8" standalone="no"?>
<!-- Generated by IcoMoon.io -->

<svg
   version="1.1"
   width="31.999922"
   height="23.242001"
   viewBox="0 0 31.999922 23.242001"
   id="svg6"
   sodipodi:docname="ddt.svg"
   inkscape:version="1.1.1 (3bf5ae0d25, 2021-09-20)"
   xmlns:inkscape="http://www.inkscape.org/namespaces/inkscape"
   xmlns:sodipodi="http://sodipodi.sourceforge.net/DTD/sodipodi-0.dtd"
   xmlns="http://www.w3.org/2000/svg"
   xmlns:svg="http://www.w3.org/2000/svg">
  <defs
     id="defs10" />
  <sodipodi:namedview
     id="namedview8"
     pagecolor="#ffffff"
     bordercolor="#666666"
     borderopacity="1.0"
     inkscape:pageshadow="2"
     inkscape:pageopacity="0.0"
     inkscape:pagecheckerboard="0"
     showgrid="false"
     inkscape:zoom="26.5625"
     inkscape:cx="15.981176"
     inkscape:cy="11.614118"
     inkscape:window-width="1920"
     inkscape:window-height="1009"
     inkscape:window-x="-8"
     inkscape:window-y="-8"
     inkscape:window-maximized="1"
     inkscape:current-layer="svg6" />
  <title
     id="title2">ddt</title>
  <path
     fill="#000000"
     d="M 4.386,6.717 C 6.609,3.543 9.803,0.702 13.721,0 c -0.304,0.443 -0.733,0.939 -0.606,1.516 0.133,0.476 0.68,0.653 1.125,0.547 1.496,-0.224 3.084,-0.269 4.515,0.294 1.059,0.423 1.929,1.233 2.514,2.202 -0.739,0.361 -1.447,0.937 -1.659,1.768 -0.255,0.959 0.276,1.97 1.072,2.502 0.825,0.594 1.874,0.68 2.857,0.676 -1.043,-0.347 -1.982,-0.99 -2.635,-1.878 2.268,-1.884 3.813,-4.621 4.208,-7.545 2.576,1.347 4.635,3.627 5.796,6.284 1.284,2.919 1.439,6.311 0.447,9.337 -1.023,3.161 -3.298,5.896 -6.229,7.464 -0.422,-2.925 -1.947,-5.664 -4.221,-7.552 0.651,-0.892 1.594,-1.535 2.639,-1.878 -1.031,-0.012 -2.139,0.098 -2.978,0.757 -0.771,0.569 -1.245,1.62 -0.914,2.561 0.251,0.761 0.92,1.28 1.612,1.627 -0.649,1.1 -1.688,1.976 -2.917,2.349 -1.4,0.427 -2.89,0.331 -4.321,0.129 -0.488,-0.084 -0.998,0.345 -0.939,0.849 0.063,0.474 0.365,0.861 0.639,1.233 -3.921,-0.7 -7.119,-3.541 -9.339,-6.715 2.137,1.663 4.853,2.743 7.592,2.461 1.27,-0.141 2.684,-0.565 3.374,-1.735 0.657,-0.943 0.657,-2.437 -0.347,-3.141 -0.788,-0.616 -2.323,-0.48 -2.59,0.616 -0.018,0.922 1.18,1.308 1.886,0.859 -0.39,1.527 -2.145,2.059 -3.547,1.929 C 8.908,17.308 7.245,16.387 5.649,15.497 3.673,14.346 1.8,13.025 0,11.619 2.282,9.847 4.664,8.178 7.25,6.88 8.724,6.176 10.348,5.468 12.018,5.792 c 1.029,0.143 2.023,0.814 2.286,1.861 -0.731,-0.496 -2.061,0.014 -1.855,0.992 0.447,1.082 2.049,1.067 2.784,0.292 0.829,-0.806 0.7,-2.174 0.055,-3.053 C 14.578,4.78 13.206,4.39 11.971,4.249 9.234,3.974 6.522,5.051 4.387,6.715 Z M 25.973,2.049 c 0.167,0.404 0.312,0.822 0.539,1.202 1.206,2.051 2.053,4.337 2.323,6.711 0.427,3.439 -0.529,6.945 -2.255,9.913 -0.253,0.406 -0.42,0.857 -0.594,1.302 2.888,-2.427 4.672,-6.178 4.529,-9.968 C 30.397,7.69 28.652,4.31 25.974,2.049 Z"
     id="path4" />
</svg>
