<?xml version="1.0" encoding="UTF-8" standalone="no"?>
<svg
   version="1.1"
   width="34.280853"
   height="26.185547"
   viewBox="0 0 34.280853 26.185547"
   id="svg4"
   xmlns="http://www.w3.org/2000/svg"
   xmlns:svg="http://www.w3.org/2000/svg">
  <defs>
    <!-- This is the gradient that will actually be used on
     the cards. The colors themselves will be provided by the
     template, but the x values, y values, and offsets will be
     used from the SVG. -->
    <linearGradient id="rarity" x1="0" y1="1.125" x2="0" y2="-0.125">
      <stop offset="0" style="stop-color:rgb(192,55,38);stop-opacity:1" id="stop2" />
      <stop offset="0.125" style="stop-color:rgb(192,55,38);stop-opacity:1" id="stop4" />
      <stop offset="0.5" style="stop-color:rgb(241,142,30);stop-opacity:1" id="stop6" />
      <stop offset="0.875" style="stop-color:rgb(192,55,38);stop-opacity:1" id="stop8" />
      <stop offset="1" style="stop-color:rgb(192,55,38);stop-opacity:1" id="stop10" />
    </linearGradient>
    <!-- These gradients are here so that you can visualize
     what the set symbol would like like in that rarity. The
     only gradient that matters in the end is the "rarity"
     gradient. -->
    <linearGradient id="mythic" x1="0" y1="1" x2="1" y2="0">
      <stop offset="0" style="stop-color:rgb(192,55,38);stop-opacity:1"/>
      <stop offset="0.125" style="stop-color:rgb(192,55,38);stop-opacity:1"/>
      <stop offset="0.5" style="stop-color:rgb(241,142,30);stop-opacity:1"/>
      <stop offset="0.875" style="stop-color:rgb(192,55,38);stop-opacity:1"/>
      <stop offset="1" style="stop-color:rgb(192,55,38);stop-opacity:1"/>
    </linearGradient>
    <linearGradient id="rare" x1="0" y1="1" x2="1" y2="0">
      <stop offset="0" style="stop-color:rgb(146,116,67);stop-opacity:1"/>
      <stop offset="0.125" style="stop-color:rgb(146,116,67);stop-opacity:1"/>
      <stop offset="0.5" style="stop-color:rgb(211,178,108);stop-opacity:1"/>
      <stop offset="0.875" style="stop-color:rgb(146,116,67);stop-opacity:1"/>
      <stop offset="1" style="stop-color:rgb(146,116,67);stop-opacity:1"/>
    </linearGradient>
    <linearGradient id="special" x1="0" y1="1" x2="1" y2="0">
      <stop offset="0" style="stop-color:rgb(76, 56, 106);stop-opacity:1"/>
      <stop offset="0.125" style="stop-color:rgb(76, 56, 106);stop-opacity:1"/>
      <stop offset="0.5" style="stop-color:rgb(201, 173, 221);stop-opacity:1"/>
      <stop offset="0.875" style="stop-color:rgb(76, 56, 106);stop-opacity:1"/>
      <stop offset="1" style="stop-color:rgb(76, 56, 106);stop-opacity:1"/>
    </linearGradient>
    <linearGradient id="uncommon" x1="0" y1="1" x2="1" y2="0">
      <stop offset="0" style="stop-color:rgb(98,110,119);stop-opacity:1"/>
      <stop offset="0.125" style="stop-color:rgb(98,110,119);stop-opacity:1"/>
      <stop offset="0.5" style="stop-color:rgb(196,222,238);stop-opacity:1"/>
      <stop offset="0.875" style="stop-color:rgb(98,110,119);stop-opacity:1"/>
      <stop offset="1" style="stop-color:rgb(98,110,119);stop-opacity:1"/>
    </linearGradient>
    <linearGradient id="common" x1="0" y1="1" x2="1" y2="0">
      <stop offset="0" style="stop-color:rgb(0,0,0);stop-opacity:1"/>
    </linearGradient>
    <linearGradient
            id="rarity-outline" x1="0" y1="1" x2="0" y2="1">
      <stop offset="0" style="stop-color:rgb(0,0,0);stop-opacity:1"/>
    </linearGradient>
  </defs>
  <path fill="url(#rarity-outline)" d="M 25.591797,0 25.400391,1.4121094 C 25.184703,3.0087462 24.494475,4.4840479 23.603516,5.8378907 L 23.404297,5.5078126 c -0.684285,-1.1334559 -1.707825,-2.0990963 -3,-2.6152344 h -0.002 l -0.002,-0.00195 c -1.64131,-0.6457424 -3.358879,-0.5819107 -4.908203,-0.359375 0.07967,-0.131708 0.18392,-0.2841668 0.332031,-0.5 l 1.326172,-1.9316406 -2.3125,0.37890628 C 8.9673413,1.4416247 5.1908105,6.6167596 0.50000002,12.457032 L 0,13.080078 0.49609378,13.707032 C 4.9730913,19.336198 8.9869197,24.840834 14.861328,25.697266 l 2.369141,0.34375 -1.419922,-1.927734 c -0.173589,-0.235677 -0.201358,-0.329801 -0.275391,-0.46875 1.386282,0.177095 2.881728,0.265376 4.38086,-0.191407 1.495475,-0.453875 2.719996,-1.49665 3.488281,-2.798828 l 0.193359,-0.326172 c 0.892953,1.358025 1.58645,2.839832 1.81836,4.447266 l 0.203125,1.410156 1.257812,-0.671875 c 3.166932,-1.694216 5.601959,-4.622764 6.707032,-8.035156 1.070315,-3.264894 0.905839,-6.896034 -0.480469,-10.0488284 v -0.00195 C 31.852751,4.5662132 29.647692,2.1202201 26.855469,0.6601563 Z" />
  <path fill="url(#rarity)" d="m 5.6652969,8.1818438 c 2.223,-3.174 5.4170001,-6.015 9.3350001,-6.717 -0.304,0.443 -0.733,0.939 -0.606,1.516 0.133,0.476 0.68,0.653 1.125,0.547 1.496,-0.224 3.084,-0.269 4.515,0.294 1.059,0.423 1.929,1.233 2.514,2.202 -0.739,0.361 -1.447,0.937 -1.659,1.768 -0.255,0.959 0.276,1.97 1.072,2.5020002 0.825,0.594 1.874,0.68 2.857,0.676 -1.043,-0.347 -1.982,-0.9900002 -2.635,-1.8780002 2.268,-1.884 3.813,-4.621 4.208,-7.545 2.576,1.347 4.635,3.627 5.796,6.284 1.284,2.9190002 1.439,6.3110002 0.447,9.3370002 -1.023,3.161 -3.298,5.896 -6.229,7.464 -0.422,-2.925 -1.947,-5.664 -4.221,-7.552 0.651,-0.892 1.594,-1.535 2.639,-1.878 -1.031,-0.012 -2.139,0.098 -2.978,0.757 -0.771,0.569 -1.245,1.62 -0.914,2.561 0.251,0.761 0.92,1.28 1.612,1.627 -0.649,1.1 -1.688,1.976 -2.917,2.349 -1.4,0.427 -2.89,0.331 -4.321,0.129 -0.488,-0.084 -0.998,0.345 -0.939,0.849 0.063,0.474 0.365,0.861 0.639,1.233 -3.921,-0.7 -7.1190001,-3.541 -9.3390001,-6.715 2.137,1.663 4.8530001,2.743 7.5920001,2.461 1.27,-0.141 2.684,-0.565 3.374,-1.735 0.657,-0.943 0.657,-2.437 -0.347,-3.141 -0.788,-0.616 -2.323,-0.48 -2.59,0.616 -0.018,0.922 1.18,1.308 1.886,0.859 -0.39,1.527 -2.145,2.059 -3.547,1.929 -1.847,-0.208 -3.5100001,-1.129 -5.1060001,-2.019 -1.976,-1.151 -3.849,-2.472 -5.649,-3.878 2.282,-1.772 4.664,-3.4410002 7.25,-4.7390002 1.4740001,-0.704 3.0980001,-1.412 4.7680001,-1.088 1.029,0.143 2.023,0.814 2.286,1.861 -0.731,-0.496 -2.061,0.014 -1.855,0.9920002 0.447,1.082 2.049,1.067 2.784,0.292 0.829,-0.8060002 0.7,-2.1740002 0.055,-3.0530002 -0.71,-1.104 -2.082,-1.494 -3.317,-1.635 -2.737,-0.275 -5.4490001,0.802 -7.5840001,2.466 z m 21.5870001,-4.668 c 0.167,0.404 0.312,0.822 0.539,1.202 1.206,2.051 2.053,4.337 2.323,6.7110002 0.427,3.439 -0.529,6.945 -2.255,9.913 -0.253,0.406 -0.42,0.857 -0.594,1.302 2.888,-2.427 4.672,-6.178 4.529,-9.968 -0.118,-3.5190002 -1.863,-6.8990002 -4.541,-9.1600002 z"/>
</svg>
