<?xml version="1.0" encoding="UTF-8" standalone="no"?>
<!-- Generated by IcoMoon.io -->

<svg
   version="1.1"
   width="29.302999"
   height="26.395622"
   viewBox="0 0 29.302999 26.395622"
   id="svg6"
   sodipodi:docname="dis.svg"
   inkscape:version="1.1.1 (3bf5ae0d25, 2021-09-20)"
   xmlns:inkscape="http://www.inkscape.org/namespaces/inkscape"
   xmlns:sodipodi="http://sodipodi.sourceforge.net/DTD/sodipodi-0.dtd"
   xmlns="http://www.w3.org/2000/svg"
   xmlns:svg="http://www.w3.org/2000/svg">
  <defs
     id="defs10" />
  <sodipodi:namedview
     id="namedview8"
     pagecolor="#ffffff"
     bordercolor="#666666"
     borderopacity="1.0"
     inkscape:pageshadow="2"
     inkscape:pageopacity="0.0"
     inkscape:pagecheckerboard="0"
     showgrid="false"
     inkscape:zoom="26.5625"
     inkscape:cx="14.512941"
     inkscape:cy="13.082353"
     inkscape:window-width="1920"
     inkscape:window-height="1009"
     inkscape:window-x="-8"
     inkscape:window-y="-8"
     inkscape:window-maximized="1"
     inkscape:current-layer="svg6" />
  <title
     id="title2">dis</title>
  <path
     fill="#000000"
     d="m 11.779,8.7376227 c 0.145,-1.44 1.365,-2.569 2.843,-2.569 0.136,0 0.274,0.012 0.407,0.03 l 0.427,-1.755 -0.387,-1.588 c -0.147,-0.012 -0.297,-0.017 -0.447,-0.017 -1.579,0 -3.016,0.591 -4.109,1.564 l -2.846,-1.674 1.042,-0.834 c 0,0 -3.615,-2.53900004 -8.709,-1.73700004 0,0 0.713,4.07400004 5.725,6.81300004 l 0.222,-1.319 2.741,1.613 c -0.165,0.557 -0.254,1.149 -0.254,1.758 0,1.3100003 0.407,2.5220003 1.099,3.5200003 l 1.458,-3.5200003 0.788,-0.286 z m 8.819,-6.843 1.042,0.834 -2.886,1.694 c -0.384,-0.346 -0.817,-0.646 -1.287,-0.889 l -0.228,1.804 -0.961,1.364 c 0.725,0.516 1.2,1.365 1.2,2.32 0,0.499 -0.13,0.963 -0.355,1.3730003 l 1.007,0.828 h 2.274 c 0.26,-0.684 0.404,-1.4250003 0.404,-2.2010003 0,-0.598 -0.086,-1.178 -0.248,-1.726 l 2.796,-1.645 0.222,1.319 c 5.015,-2.739 5.725,-6.81300004 5.725,-6.81300004 -5.093,-0.802 -8.706,1.73700004 -8.706,1.73700004 z m -3.477,10.9380003 1.428,0.97 c -0.655,0.539 -1.422,0.946 -2.262,1.18 v 3.5 l 1.249,-0.476 c 0.177,5.711 -2.975,8.389 -2.975,8.389 -3.273,-3.985 -2.914,-8.389 -2.914,-8.389 l 1.249,0.476 v -3.517 c -0.834,-0.239 -1.593,-0.652 -2.242,-1.195 l 0.814,-0.344 0.984,-2.548 c 0.522,0.612 1.301,1.001 2.17,1.001 0.626,0 1.209,-0.205 1.682,-0.551 l 0.817,1.503 z"
     id="path4" />
</svg>
