<?xml version="1.0" encoding="UTF-8" standalone="no"?>
<!-- Generated by IcoMoon.io -->

<svg
   version="1.1"
   width="31.938999"
   height="23.238001"
   viewBox="0 0 31.938999 23.238001"
   id="svg6"
   sodipodi:docname="dka.svg"
   inkscape:version="1.1.1 (3bf5ae0d25, 2021-09-20)"
   xmlns:inkscape="http://www.inkscape.org/namespaces/inkscape"
   xmlns:sodipodi="http://sodipodi.sourceforge.net/DTD/sodipodi-0.dtd"
   xmlns="http://www.w3.org/2000/svg"
   xmlns:svg="http://www.w3.org/2000/svg">
  <defs
     id="defs10" />
  <sodipodi:namedview
     id="namedview8"
     pagecolor="#ffffff"
     bordercolor="#666666"
     borderopacity="1.0"
     inkscape:pageshadow="2"
     inkscape:pageopacity="0.0"
     inkscape:pagecheckerboard="0"
     showgrid="false"
     inkscape:zoom="26.5625"
     inkscape:cx="15.943529"
     inkscape:cy="11.614118"
     inkscape:window-width="1920"
     inkscape:window-height="1009"
     inkscape:window-x="-8"
     inkscape:window-y="-8"
     inkscape:window-maximized="1"
     inkscape:current-layer="svg6" />
  <title
     id="title2">dka</title>
  <path
     fill="#000000"
     d="m 15.969922,3.6004894 1.523315,5.3316002 3.270397,-0.5378887 c -0.627396,-3.7187785 -3.091383,-6.585548 -3.091383,-6.585548 5.331601,0.9406719 6.854071,4.8384652 6.854071,4.8384652 0,0 2.643001,-0.6273961 4.927972,0.3132759 -4.255823,3.046629 -5.3316,6.585548 -9.497916,12.498946 l 0.806411,-7.929847 -2.598247,2.015605 -2.195464,7.885094 -2.240218,-7.795587 -2.553494,-2.105957 0.806411,7.929848 C 11.703966,19.031225 11.436289,18.61662 11.177899,18.214681 7.0901141,11.860501 5.2231252,8.5183291 2.4847059,6.9595496 4.1422813,6.2426461 7.4126785,6.6462737 7.4126785,6.6462737 c 0,0 1.3442996,-3.6740248 6.8540705,-4.8384652 -2.061203,2.015605 -3.091383,6.585548 -3.091383,6.585548 l 3.270397,0.5378887 z"
     id="path4"
     style="stroke-width:0.844409" />
</svg>
