<?xml version="1.0" encoding="UTF-8" standalone="no"?>
<svg
   version="1.1"
   width="24.189453"
   height="28.184"
   viewBox="0 0 24.189453 28.184"
   id="svg4"
   xmlns="http://www.w3.org/2000/svg"
   xmlns:svg="http://www.w3.org/2000/svg">
  <defs>
    <!-- This is the gradient that will actually be used on
     the cards. The colors themselves will be provided by the
     template, but the x values, y values, and offsets will be
     used from the SVG. -->
    <linearGradient id="rarity" x1="0" y1="1" x2="1" y2="0">
      <stop offset="0" style="stop-color:rgb(192,55,38);stop-opacity:1" id="stop2" />
      <stop offset="0.125" style="stop-color:rgb(192,55,38);stop-opacity:1" id="stop4" />
      <stop offset="0.5" style="stop-color:rgb(241,142,30);stop-opacity:1" id="stop6" />
      <stop offset="0.875" style="stop-color:rgb(192,55,38);stop-opacity:1" id="stop8" />
      <stop offset="1" style="stop-color:rgb(192,55,38);stop-opacity:1" id="stop10" />
    </linearGradient>
    <!-- These gradients are here so that you can visualize
     what the set symbol would like like in that rarity. The
     only gradient that matters in the end is the "rarity"
     gradient. -->
    <linearGradient id="mythic" x1="0" y1="1" x2="1" y2="0">
      <stop offset="0" style="stop-color:rgb(192,55,38);stop-opacity:1"/>
      <stop offset="0.125" style="stop-color:rgb(192,55,38);stop-opacity:1"/>
      <stop offset="0.5" style="stop-color:rgb(241,142,30);stop-opacity:1"/>
      <stop offset="0.875" style="stop-color:rgb(192,55,38);stop-opacity:1"/>
      <stop offset="1" style="stop-color:rgb(192,55,38);stop-opacity:1"/>
    </linearGradient>
    <linearGradient id="rare" x1="0" y1="1" x2="1" y2="0">
      <stop offset="0" style="stop-color:rgb(146,116,67);stop-opacity:1"/>
      <stop offset="0.125" style="stop-color:rgb(146,116,67);stop-opacity:1"/>
      <stop offset="0.5" style="stop-color:rgb(211,178,108);stop-opacity:1"/>
      <stop offset="0.875" style="stop-color:rgb(146,116,67);stop-opacity:1"/>
      <stop offset="1" style="stop-color:rgb(146,116,67);stop-opacity:1"/>
    </linearGradient>
    <linearGradient id="special" x1="0" y1="1" x2="1" y2="0">
      <stop offset="0" style="stop-color:rgb(76, 56, 106);stop-opacity:1"/>
      <stop offset="0.125" style="stop-color:rgb(76, 56, 106);stop-opacity:1"/>
      <stop offset="0.5" style="stop-color:rgb(201, 173, 221);stop-opacity:1"/>
      <stop offset="0.875" style="stop-color:rgb(76, 56, 106);stop-opacity:1"/>
      <stop offset="1" style="stop-color:rgb(76, 56, 106);stop-opacity:1"/>
    </linearGradient>
    <linearGradient id="uncommon" x1="0" y1="1" x2="1" y2="0">
      <stop offset="0" style="stop-color:rgb(98,110,119);stop-opacity:1"/>
      <stop offset="0.125" style="stop-color:rgb(98,110,119);stop-opacity:1"/>
      <stop offset="0.5" style="stop-color:rgb(196,222,238);stop-opacity:1"/>
      <stop offset="0.875" style="stop-color:rgb(98,110,119);stop-opacity:1"/>
      <stop offset="1" style="stop-color:rgb(98,110,119);stop-opacity:1"/>
    </linearGradient>
    <linearGradient id="common" x1="0" y1="1" x2="1" y2="0">
      <stop offset="0" style="stop-color:rgb(0,0,0);stop-opacity:1"/>
    </linearGradient>
    <linearGradient
            id="rarity-outline" x1="0" y1="1" x2="0" y2="1">
      <stop offset="0" style="stop-color:rgb(0,0,0);stop-opacity:1"/>
    </linearGradient>
  </defs>
  <path fill="url(#rarity-outline)" d="m 3.6347691,0.00268129 c -0.6174894,0.007267 -1.1196122,0.029515 -1.4707031,0.0488281 -0.1755456,0.009657 -0.314159,0.0183252 -0.4101563,0.0253906 -0.093754,0.0069 -0.07556,0.004759 -0.1621094,0.0136719 -0.00207,2.133e-4 -0.00171,-2.2715e-4 -0.00391,0 L 1.5351599,0.09643089 0.4257849,0.20385277 4.2050815,10.998775 4.7851596,8.4694782 c 0,0 0.6552296,-2.8492361 0.8847658,-3.8457031 C 8.2605836,5.0663154 7.1683389,4.1194885 6.8078712,2.2849092 L 6.2949253,6.1394001 c 0,0 -0.2519501,1.5752605 -0.5097657,3.1816406 -0.1289078,0.8031903 -0.260142,1.6135593 -0.3613281,2.2382813 -0.058408,0.360611 -0.069541,0.431112 -0.1035155,0.634765 -0.6298507,0.07685 -1.2806649,0.144714 -1.6171875,0.341797 -0.4714431,0.276099 -0.6812423,0.662118 -0.7363282,0.876953 l -0.00391,0.01367 -0.2753906,1.269531 h 2.2578125 l -0.029297,0.203126 h -1.640625 l -1.0273438,3.089843 h 2.1835937 c -0.2461219,1.358084 -0.8483151,4.709025 -1.0351562,5.75586 -0.3867554,0.0012 -0.8160827,0.0073 -1.0742187,-0.0059 -0.200876,-0.0102 -0.3577776,-0.02205 -0.4628907,-0.03125 -0.046399,-0.0041 -0.078611,-0.0072 -0.1035156,-0.0098 l -0.013672,-0.002 c -0.0093,-9.92e-4 -0.013168,-0.0014 -0.017578,-0.002 H 1.720703 1.71875 L 0.86718749,23.600167 0.69335937,24.42048 0,27.900949 l 0.99218749,0.126953 0.0117187,0.002 c -0.0925634,-0.0087 0.050903,0.0044 0.1503907,0.01367 0.099487,0.0093 0.2434494,0.02134 0.4257812,0.03516 0.3646636,0.02763 0.8860871,0.0607 1.5273439,0.08203 1.2825131,0.04267 3.0457225,0.04196 5.001953,-0.136718 3.622289,-0.331064 8.674834,-1.325034 12.16797,-4.445313 2.583544,-2.30571 3.912109,-5.484762 3.912109,-9.267578 0,-3.849154 -1.33679,-7.0957661 -3.945313,-9.4726562 C 16.829536,1.7272036 11.94913,0.64579973 8.4550815,0.24291567 h -0.00195 C 6.5668699,0.02782534 4.8697478,-0.01185237 3.6347691,0.00268129 Z M 10.62891,5.2272907 c 1.982819,0.4817898 3.647503,1.2081227 4.822266,2.2636719 1.849011,1.6606352 2.800781,4.0333514 2.800781,7.2382814 0,2.688777 -0.775611,4.726576 -2.275391,6.199218 v 0.002 c -1.654892,1.628667 -4.019811,2.312462 -5.722656,2.574218 -0.0096,0.0015 -0.01389,4.73e-4 -0.02344,0.002 0.01622,-0.251009 0.280917,-4.31484 0.359375,-5.517578 h 2.673829 l 0.820312,-3.08789 H 10.62891 v -0.103609 h 5.667969 L 10.62891,12.053462 Z" />
  <path fill="url(#rarity)" d="m 1.6645815,0.83736373 -0.215,0.021 2.605,7.44300007 c 0,0 0.967,-4.208 1.024,-4.452 0.7,0 1.776,0.009 2.9630001,0.118 0.014,0.25 0.548,19.7320002 0.548,19.7320002 l 0.8829999,-0.086 c 0,0 0.3930001,-6.084 0.4130001,-6.374 h 2.8020004 l 0.422,-1.589 H 9.8795815 v -1.603 h 3.1470005 l -3.1470005,-1.524 V 4.2253638 c 2.5390005,0.464 4.5840005,1.371 6.0720005,2.708 2.022,1.816 3.05,4.4380002 3.05,7.7960002 0,2.837 -0.841,5.107 -2.499,6.735 -1.83,1.801 -4.346,2.507 -6.135,2.782 -1.0190004,0.155 -1.9110004,0.189 -2.4840004,0.195 0,0 -0.617,-0.02 -0.849,-0.029 V 6.2573638 c 0,0 -1.007,6.3050002 -1.056,6.5490002 -2.03,0.029 -2.266,0.714 -2.286,0.792 l -0.075,0.347 h 2.1949999 l -0.247,1.704 H 3.8155816 l -0.5280001,1.589 h 2.042 c -0.068,0.367 -1.265,7.008 -1.308,7.258 -1.434,0.054 -2.395,-0.057 -2.406,-0.06 l -0.155,-0.017 -0.032,0.152 -0.53599995,2.688 0.18099995,0.023 c 0.032,0.003 3.135,0.344 6.967,-0.006 3.5450005,-0.324 8.4590005,-1.328 11.7380005,-4.257 2.427,-2.166 3.661,-5.097 3.661,-8.709 0,-3.68 -1.245,-6.6810002 -3.7,-8.9180002 -3.211,-2.926 -7.954,-4.0100001 -11.3710004,-4.40400007 -3.692,-0.421 -6.675,-0.155 -6.704,-0.152 z"/>
</svg>
