<?xml version="1.0" encoding="UTF-8" standalone="no"?>
<!-- Generated by IcoMoon.io -->

<svg
   version="1.1"
   width="22.547001"
   height="26.683443"
   viewBox="0 0 22.547001 26.683443"
   id="svg6"
   sodipodi:docname="dkm.svg"
   inkscape:version="1.1.1 (3bf5ae0d25, 2021-09-20)"
   xmlns:inkscape="http://www.inkscape.org/namespaces/inkscape"
   xmlns:sodipodi="http://sodipodi.sourceforge.net/DTD/sodipodi-0.dtd"
   xmlns="http://www.w3.org/2000/svg"
   xmlns:svg="http://www.w3.org/2000/svg">
  <defs
     id="defs10" />
  <sodipodi:namedview
     id="namedview8"
     pagecolor="#ffffff"
     bordercolor="#666666"
     borderopacity="1.0"
     inkscape:pageshadow="2"
     inkscape:pageopacity="0.0"
     inkscape:pagecheckerboard="0"
     showgrid="false"
     inkscape:zoom="26.5625"
     inkscape:cx="11.501176"
     inkscape:cy="13.308235"
     inkscape:window-width="1920"
     inkscape:window-height="1009"
     inkscape:window-x="-8"
     inkscape:window-y="-8"
     inkscape:window-maximized="1"
     inkscape:current-layer="svg6" />
  <title
     id="title2">dkm</title>
  <path
     fill="#000000"
     d="m 0.772,0.08663556 -0.215,0.021 2.605,7.44300004 c 0,0 0.967,-4.208 1.024,-4.452 0.7,0 1.776,0.009 2.963,0.118 0.014,0.25 0.548,19.7320004 0.548,19.7320004 l 0.883,-0.086 c 0,0 0.393,-6.084 0.413,-6.374 h 2.802 l 0.422,-1.589 h -3.23 v -1.603 h 3.147 l -3.147,-1.524 V 3.4746356 c 2.539,0.464 4.584,1.371 6.072,2.708 2.022,1.816 3.05,4.4380004 3.05,7.7960004 0,2.837 -0.841,5.107 -2.499,6.735 -1.83,1.801 -4.346,2.507 -6.135,2.782 -1.019,0.155 -1.911,0.189 -2.484,0.195 0,0 -0.617,-0.02 -0.849,-0.029 V 5.5066356 c 0,0 -1.007,6.3050004 -1.056,6.5490004 -2.03,0.029 -2.266,0.714 -2.286,0.792 l -0.075,0.347 H 4.92 l -0.247,1.704 h -1.75 l -0.528,1.589 h 2.042 c -0.068,0.367 -1.265,7.008 -1.308,7.258 -1.434,0.054 -2.395,-0.057 -2.406,-0.06 l -0.155,-0.017 -0.032,0.152 -0.536,2.688 0.181,0.023 c 0.032,0.003 3.135,0.344 6.967,-0.006 3.545,-0.324 8.459,-1.328 11.738,-4.257 2.427,-2.166 3.661,-5.097 3.661,-8.709 0,-3.6800004 -1.245,-6.6810004 -3.7,-8.9180004 -3.211,-2.926 -7.954,-4.01000004 -11.371,-4.40400004 -3.692,-0.421 -6.675,-0.155 -6.704,-0.152 z"
     id="path4" />
</svg>
