<?xml version="1.0" encoding="UTF-8" standalone="no"?>
<!-- Generated by IcoMoon.io -->

<svg
   version="1.1"
   width="27.436001"
   height="27.434999"
   viewBox="0 0 27.436001 27.434999"
   id="svg6"
   sodipodi:docname="dpa.svg"
   inkscape:version="1.1.1 (3bf5ae0d25, 2021-09-20)"
   xmlns:inkscape="http://www.inkscape.org/namespaces/inkscape"
   xmlns:sodipodi="http://sodipodi.sourceforge.net/DTD/sodipodi-0.dtd"
   xmlns="http://www.w3.org/2000/svg"
   xmlns:svg="http://www.w3.org/2000/svg">
  <defs
     id="defs10" />
  <sodipodi:namedview
     id="namedview8"
     pagecolor="#ffffff"
     bordercolor="#666666"
     borderopacity="1.0"
     inkscape:pageshadow="2"
     inkscape:pageopacity="0.0"
     inkscape:pagecheckerboard="0"
     showgrid="false"
     inkscape:zoom="26.5625"
     inkscape:cx="13.985882"
     inkscape:cy="13.684706"
     inkscape:window-width="1920"
     inkscape:window-height="1009"
     inkscape:window-x="-8"
     inkscape:window-y="-8"
     inkscape:window-maximized="1"
     inkscape:current-layer="svg6" />
  <title
     id="title2">dpa</title>
  <path
     fill="#000000"
     d="m 16.712,19.829 c -1.061,0.771 -2.26,1.407 -2.83,2.668 l -1.133,-0.565 c 0.088,-0.234 0.145,-0.502 0.16,-0.81 0.011,-0.177 -0.069,-0.397 -0.097,-0.576 -0.034,-0.188 -0.069,-0.38 -0.103,-0.571 -0.069,-0.376 -0.142,-0.756 -0.223,-1.132 -0.156,-0.73 -0.339,-1.456 -0.559,-2.166 -0.205,-0.679 -0.443,-1.353 -0.736,-2 -0.274,-0.605 -0.605,-1.185 -1.01,-1.712 C 9.939,12.654 9.673,12.363 9.394,12.083 9.268,11.96 9.135,11.841 9.012,11.715 8.927,11.624 8.818,11.455 8.681,11.45 8.461,11.441 8.344,11.687 8.273,11.858 8.176,12.09 8.085,12.304 7.956,12.523 7.827,12.742 7.657,12.64 7.445,12.6 7.2,12.554 6.689,12.181 6.586,12.132 6.495,12.084 6.221,12.035 6.167,11.941 6.113,11.847 6.201,11.707 6.267,11.542 6.336,11.382 6.852,9.984 6.912,9.721 6.946,9.579 6.972,9.43 6.986,9.279 6.995,9.207 7.055,8.871 7.004,8.822 6.63,8.463 5.931,8.434 5.466,8.174 5.743,7.763 5.931,7.498 6.114,7.204 c 1.624,-0.06 2.998,0.129 4.613,0.08 0.879,2.032 1.998,3.827 3.236,5.505 0.457,-0.166 0.511,-0.733 1.133,-0.73 0.262,0.003 0.456,0.171 0.611,0.362 0.074,0.096 0.14,0.199 0.214,0.297 0.071,0.1 0.183,0.199 0.196,0.331 0.012,0.126 -0.031,0.328 -0.099,0.434 -1.213,1.897 0.237,4.445 0.696,6.348 z m 9.161,0.252 c -0.151,0.291 -0.317,0.579 -0.491,0.859 -0.283,-0.091 -1.361,-0.431 -2.031,-0.462 -1.849,-0.12 -3.005,0.448 -4.212,0.97 L 18.574,20.72 c 0.069,-0.094 0.14,-0.186 0.217,-0.271 0.443,-0.497 1.093,-0.828 1.338,-1.486 0.242,-0.639 0.018,-1.33 -0.237,-1.926 -0.271,-0.639 -0.565,-1.267 -0.833,-1.903 -0.334,-0.793 -0.67,-1.584 -1.161,-2.294 -0.086,-0.126 -0.146,-0.291 -0.269,-0.385 -0.191,-0.143 -0.339,0.048 -0.502,0.131 -0.4,0.197 -0.771,-0.222 -1.03,-0.488 -0.137,-0.142 -0.294,-0.325 -0.334,-0.527 -0.046,-0.235 0.117,-0.411 0.256,-0.579 0.299,-0.357 0.622,-0.733 0.836,-1.148 0.139,-0.262 0.228,-0.565 0.259,-0.861 -0.348,-0.676 -1.38,-0.668 -1.78,-1.293 0.031,-0.048 0.06,-0.1 0.088,-0.148 0.105,-0.191 0.205,-0.408 0.382,-0.545 0.22,-0.171 0.471,-0.026 0.694,0.054 0.245,0.088 0.502,0.126 0.759,0.148 0.285,0.023 0.57,0.069 0.858,0.075 0.254,0.006 0.516,-0.003 0.771,-0.02 0.362,-0.023 0.907,-0.228 1.113,-0.222 0.262,0.011 0.276,0.105 0.516,0.253 -0.034,0.089 -0.058,0.194 -0.072,0.305 -0.034,0.26 -0.023,0.522 -0.015,0.779 0.012,0.277 -0.005,0.57 0.037,0.85 0.049,0.299 0.191,0.559 0.302,0.838 0.117,0.297 0.242,0.594 0.371,0.89 0.257,0.576 0.531,1.147 0.808,1.715 0.556,1.144 1.115,2.283 1.56,3.472 0.22,0.593 0.428,1.198 0.554,1.817 0.148,0.744 0.887,1.475 1.478,1.909 0.096,0.072 0.225,0.154 0.331,0.22 z M 6.76,20.637 C 6.943,20.577 6.791,20.183 6.84,19.992 6.443,19.763 6.069,19.518 5.867,19.102 5.813,18.988 5.884,18.689 5.895,18.566 5.912,18.389 5.932,18.212 5.961,18.041 6.012,17.716 6.087,17.399 6.178,17.082 6.349,16.498 6.583,15.935 6.817,15.371 6.957,15.037 7.33,14.01 7.396,13.836 7.447,13.702 7.525,13.545 7.456,13.394 7.402,13.274 7.29,13.248 7.182,13.197 7.062,13.137 6.571,12.886 6.44,12.843 6.335,12.806 6.106,12.663 6.001,12.714 5.886,12.768 5.653,13.247 5.599,13.347 5.476,13.576 5.367,13.812 5.268,14.049 5.034,14.597 4.837,15.159 4.646,15.727 4.3,16.746 4.007,17.81 3.522,18.777 c -0.365,0.728 -0.936,1.44 -1.675,1.817 0.171,0.294 0.354,0.585 0.548,0.865 0.959,-0.768 2.634,-1.091 4.366,-0.822 z m 16.539,0.728 H 23.29 c -0.145,-0.009 -0.291,-0.015 -0.43,-0.015 -0.765,0 -1.396,0.143 -1.986,0.348 -1.901,1.703 -4.408,2.742 -7.156,2.742 -2.865,0 -5.469,-1.127 -7.393,-2.962 C 6.068,21.45 5.812,21.433 5.56,21.433 c -1.101,0 -2.083,0.279 -2.642,0.744 2.511,3.201 6.414,5.258 10.799,5.258 4.594,0 8.662,-2.259 11.151,-5.727 -0.494,-0.151 -1.176,-0.325 -1.564,-0.345 H 23.298 Z M 1.427,19.81 H 1.424 C 0.514,17.975 0,15.907 0,13.718 0,6.143 6.143,0 13.718,0 c 7.575,0 13.718,6.143 13.718,13.718 0,1.98 -0.419,3.857 -1.172,5.555 -0.075,-0.042 -0.145,-0.093 -0.197,-0.131 -0.602,-0.44 -1.055,-0.99 -1.133,-1.367 -0.14,-0.702 -0.376,-1.381 -0.587,-1.949 -0.026,-0.066 -0.052,-0.131 -0.075,-0.194 0.112,-0.622 0.169,-1.261 0.169,-1.914 0,-5.915 -4.811,-10.726 -10.723,-10.726 -5.912,0 -10.723,4.811 -10.723,10.726 0,1.019 0.14,2.006 0.408,2.936 -0.2,0.608 -0.408,1.184 -0.679,1.723 -0.337,0.668 -0.81,1.19 -1.298,1.432 z"
     id="path4" />
</svg>
