<?xml version="1.0" encoding="UTF-8" standalone="no"?>
<svg
   version="1.1"
   width="33.895264"
   height="25.563473"
   viewBox="0 0 33.895264 25.563473"
   id="svg4"
   xmlns="http://www.w3.org/2000/svg"
   xmlns:svg="http://www.w3.org/2000/svg">
  <defs>
    <!-- This is the gradient that will actually be used on
     the cards. The colors themselves will be provided by the
     template, but the x values, y values, and offsets will be
     used from the SVG. -->
    <linearGradient id="rarity" x1="0" y1="0" x2="1" y2="0">
      <stop offset="0" style="stop-color:rgb(192,55,38);stop-opacity:1" id="stop2" />
      <stop offset="0.125" style="stop-color:rgb(192,55,38);stop-opacity:1" id="stop4" />
      <stop offset="0.5" style="stop-color:rgb(241,142,30);stop-opacity:1" id="stop6" />
      <stop offset="0.875" style="stop-color:rgb(192,55,38);stop-opacity:1" id="stop8" />
      <stop offset="1" style="stop-color:rgb(192,55,38);stop-opacity:1" id="stop10" />
    </linearGradient>
    <!-- These gradients are here so that you can visualize
     what the set symbol would like like in that rarity. The
     only gradient that matters in the end is the "rarity"
     gradient. -->
    <linearGradient id="mythic" x1="0" y1="1" x2="1" y2="0">
      <stop offset="0" style="stop-color:rgb(192,55,38);stop-opacity:1"/>
      <stop offset="0.125" style="stop-color:rgb(192,55,38);stop-opacity:1"/>
      <stop offset="0.5" style="stop-color:rgb(241,142,30);stop-opacity:1"/>
      <stop offset="0.875" style="stop-color:rgb(192,55,38);stop-opacity:1"/>
      <stop offset="1" style="stop-color:rgb(192,55,38);stop-opacity:1"/>
    </linearGradient>
    <linearGradient id="rare" x1="0" y1="1" x2="1" y2="0">
      <stop offset="0" style="stop-color:rgb(146,116,67);stop-opacity:1"/>
      <stop offset="0.125" style="stop-color:rgb(146,116,67);stop-opacity:1"/>
      <stop offset="0.5" style="stop-color:rgb(211,178,108);stop-opacity:1"/>
      <stop offset="0.875" style="stop-color:rgb(146,116,67);stop-opacity:1"/>
      <stop offset="1" style="stop-color:rgb(146,116,67);stop-opacity:1"/>
    </linearGradient>
    <linearGradient id="special" x1="0" y1="1" x2="1" y2="0">
      <stop offset="0" style="stop-color:rgb(76, 56, 106);stop-opacity:1"/>
      <stop offset="0.125" style="stop-color:rgb(76, 56, 106);stop-opacity:1"/>
      <stop offset="0.5" style="stop-color:rgb(201, 173, 221);stop-opacity:1"/>
      <stop offset="0.875" style="stop-color:rgb(76, 56, 106);stop-opacity:1"/>
      <stop offset="1" style="stop-color:rgb(76, 56, 106);stop-opacity:1"/>
    </linearGradient>
    <linearGradient id="uncommon" x1="0" y1="1" x2="1" y2="0">
      <stop offset="0" style="stop-color:rgb(98,110,119);stop-opacity:1"/>
      <stop offset="0.125" style="stop-color:rgb(98,110,119);stop-opacity:1"/>
      <stop offset="0.5" style="stop-color:rgb(196,222,238);stop-opacity:1"/>
      <stop offset="0.875" style="stop-color:rgb(98,110,119);stop-opacity:1"/>
      <stop offset="1" style="stop-color:rgb(98,110,119);stop-opacity:1"/>
    </linearGradient>
    <linearGradient id="common" x1="0" y1="1" x2="1" y2="0">
      <stop offset="0" style="stop-color:rgb(0,0,0);stop-opacity:1"/>
    </linearGradient>
    <linearGradient
            id="rarity-outline" x1="0" y1="1" x2="0" y2="1">
      <stop offset="0" style="stop-color:rgb(0,0,0);stop-opacity:1"/>
    </linearGradient>
  </defs>
  <path fill="url(#rarity-outline)" d="M 11.341797 0 A 1.0001 1.0001 0 0 0 10.5625 0.32226562 C 10.5625 0.32226562 9.2868427 1.7859953 8.7734375 4.0078125 C 8.2782669 3.802483 7.7562748 3.5794247 7.0429688 3.4746094 C 5.211904 3.2055473 2.6907176 3.6022297 0.30859375 5.8789062 A 1.0001 1.0001 0 0 0 1.3945312 7.5214844 C 1.3945312 7.5214844 2.2784656 7.171875 3.0585938 7.171875 C 3.6277221 7.171875 4.9480259 7.4036903 5.9980469 8.1875 C 7.0480678 8.9713097 7.9492189 10.239197 7.9492188 12.732422 C 7.9492188 15.248826 7.1105185 16.585522 6.1132812 17.402344 C 5.1160441 18.219165 3.8480369 18.486328 3.1074219 18.486328 C 2.4340775 18.486328 2.0294563 18.392578 1.8183594 18.322266 C 1.6072624 18.251956 1.6796875 18.28125 1.6796875 18.28125 A 1.0001 1.0001 0 0 0 0.28125 19.701172 C 0.28125 19.701172 0.39668504 19.810489 0.4140625 19.830078 C 0.4140625 19.830078 0.41601562 19.832031 0.41601562 19.832031 C 0.58447063 20.02177 1.4275146 20.941166 2.9589844 21.617188 C 4.4047167 22.255364 6.46883 22.507395 8.7910156 21.65625 C 9.0234133 22.660216 9.4669134 23.981012 10.666016 25.25 A 1.0001 1.0001 0 0 0 12.34375 24.255859 C 12.34375 24.255859 11.945402 23.001656 12.097656 21.417969 C 12.217148 20.175062 12.875338 18.868446 14.138672 17.712891 C 14.31159 18.320425 14.421015 19.035537 14.667969 19.513672 C 14.905939 19.974412 15.180233 20.37655 15.542969 20.701172 C 15.905704 21.025794 16.39889 21.277344 16.947266 21.277344 C 17.495838 21.277344 17.988934 21.02582 18.351562 20.701172 C 18.714191 20.376524 18.988577 19.974518 19.226562 19.513672 C 19.473125 19.03622 19.581401 18.321301 19.753906 17.714844 C 21.016713 18.8703 21.676892 20.175332 21.796875 21.417969 C 21.949796 23.001738 21.552734 24.257812 21.552734 24.257812 A 1.0001 1.0001 0 0 0 23.230469 25.25 C 24.426381 23.982054 24.87226 22.661765 25.105469 21.658203 C 27.426436 22.508643 29.490006 22.255174 30.935547 21.617188 C 32.466941 20.941315 33.309775 20.021972 33.478516 19.832031 C 33.478516 19.832031 33.480469 19.830078 33.480469 19.830078 C 33.497899 19.810438 33.613281 19.701172 33.613281 19.701172 A 1.0001 1.0001 0 0 0 32.21875 18.28125 C 32.21875 18.28125 32.28977 18.251826 32.078125 18.322266 C 31.866484 18.392706 31.461285 18.486328 30.789062 18.486328 C 30.047835 18.486328 28.779088 18.21924 27.78125 17.402344 C 26.783729 16.585708 25.945846 15.249107 25.945312 12.734375 L 25.945312 12.732422 A 1.0001 1.0001 0 0 0 25.947266 12.732422 C 25.947266 10.239378 26.84796 8.9714204 27.898438 8.1875 C 28.948916 7.4035796 30.270684 7.171875 30.837891 7.171875 C 31.618019 7.171875 32.501953 7.5214844 32.501953 7.5214844 A 1.0001 1.0001 0 0 0 33.585938 5.8808594 C 31.205237 3.6046085 28.686138 3.2076392 26.855469 3.4765625 C 26.14214 3.5813497 25.62016 3.8044626 25.125 4.0097656 C 24.611583 1.7871278 23.335939 0.32226563 23.335938 0.32226562 A 1.0001 1.0001 0 0 0 21.623047 1.2109375 C 22.195645 3.8630699 21.660847 5.5805076 20.921875 6.7636719 C 20.579521 7.3118138 20.181551 7.7173283 19.8125 8.0449219 C 19.629854 7.3600322 19.500739 6.583202 19.228516 6.0546875 C 18.990642 5.5928621 18.718209 5.1908049 18.355469 4.8652344 C 17.992729 4.5396638 17.498696 4.2871094 16.949219 4.2871094 C 16.39958 4.2871094 15.903785 4.5396029 15.541016 4.8652344 C 15.178246 5.1908658 14.905859 5.5947093 14.667969 6.0566406 C 14.395832 6.5850719 14.266351 7.3603018 14.083984 8.0449219 C 13.714682 7.7173241 13.316897 7.3116581 12.974609 6.7636719 C 12.235782 5.5808436 11.701404 3.8630857 12.275391 1.2109375 A 1.0001 1.0001 0 0 0 11.341797 0 z " />
  <path fill="url(#rarity)" d="m 24.946632,12.732762 c 0,-5.5079995 4.312,-6.5609995 5.891,-6.5609995 1.053,0 2.058,0.431 2.058,0.431 -4.357,-4.166 -8.523,-1.151 -8.523,-1.151 -0.096,-2.632 -1.773,-4.45200001 -1.773,-4.45200001 1.241,5.74800001 -2.339,8.14000001 -3.339,8.68600001 -0.401,-2.595 -1.284,-4.399 -2.312,-4.399 -1.028,0 -1.912,1.805 -2.311,4.399 -1.003,-0.547 -4.583,-2.938 -3.339,-8.68600001 0,0 -1.6780003,1.82000001 -1.7730003,4.45200001 0,0 -4.166,-3.016 -8.52600004,1.151 0,0 1.00500004,-0.431 2.05800004,-0.431 1.582,0 5.891,1.053 5.891,6.5609995 0,5.508 -3.926,6.754 -5.841,6.754 -1.534,0 -2.061,-0.431 -2.061,-0.431 0,0 3.352,3.976 8.478,1.246 0,0 0.238,2.537 1.8680003,4.262 0,0 -1.8570003,-5.753 3.244,-8.674 0.401,2.59 1.284,4.387 2.311,4.387 1.026,0 1.911,-1.798 2.309,-4.387 5.101,2.921 3.247,8.674 3.247,8.674 1.627,-1.725 1.868,-4.262 1.868,-4.262 5.124,2.73 8.478,-1.246 8.478,-1.246 0,0 -0.529,0.431 -2.061,0.431 -1.916,0 -5.844,-1.246 -5.844,-6.754 z"/>
</svg>
