<?xml version="1.0" encoding="UTF-8" standalone="no"?>
<!-- Generated by IcoMoon.io -->

<svg
   version="1.1"
   width="31.896"
   height="23.563999"
   viewBox="0 0 31.896 23.563999"
   id="svg6"
   sodipodi:docname="drb.svg"
   inkscape:version="1.1.1 (3bf5ae0d25, 2021-09-20)"
   xmlns:inkscape="http://www.inkscape.org/namespaces/inkscape"
   xmlns:sodipodi="http://sodipodi.sourceforge.net/DTD/sodipodi-0.dtd"
   xmlns="http://www.w3.org/2000/svg"
   xmlns:svg="http://www.w3.org/2000/svg">
  <defs
     id="defs10" />
  <sodipodi:namedview
     id="namedview8"
     pagecolor="#ffffff"
     bordercolor="#666666"
     borderopacity="1.0"
     inkscape:pageshadow="2"
     inkscape:pageopacity="0.0"
     inkscape:pagecheckerboard="0"
     showgrid="false"
     inkscape:zoom="26.5625"
     inkscape:cx="15.943529"
     inkscape:cy="11.764706"
     inkscape:window-width="1920"
     inkscape:window-height="1009"
     inkscape:window-x="-8"
     inkscape:window-y="-8"
     inkscape:window-maximized="1"
     inkscape:current-layer="svg6" />
  <title
     id="title2">drb</title>
  <path
     fill="#000000"
     d="m 23.947,11.733 c 0,-5.508 4.312,-6.561 5.891,-6.561 1.053,0 2.058,0.431 2.058,0.431 C 27.539,1.437 23.373,4.452 23.373,4.452 23.277,1.82 21.6,0 21.6,0 22.841,5.748 19.261,8.14 18.261,8.686 17.86,6.091 16.977,4.287 15.949,4.287 14.921,4.287 14.037,6.092 13.638,8.686 12.635,8.139 9.055,5.748 10.299,0 c 0,0 -1.678,1.82 -1.773,4.452 0,0 -4.166,-3.016 -8.526,1.151 0,0 1.005,-0.431 2.058,-0.431 1.582,0 5.891,1.053 5.891,6.561 0,5.508 -3.926,6.754 -5.841,6.754 -1.534,0 -2.061,-0.431 -2.061,-0.431 0,0 3.352,3.976 8.478,1.246 0,0 0.238,2.537 1.868,4.262 0,0 -1.857,-5.753 3.244,-8.674 0.401,2.59 1.284,4.387 2.311,4.387 1.026,0 1.911,-1.798 2.309,-4.387 5.101,2.921 3.247,8.674 3.247,8.674 1.627,-1.725 1.868,-4.262 1.868,-4.262 5.124,2.73 8.478,-1.246 8.478,-1.246 0,0 -0.529,0.431 -2.061,0.431 -1.916,0 -5.844,-1.246 -5.844,-6.754 z"
     id="path4" />
</svg>
