<?xml version="1.0" encoding="UTF-8" standalone="no"?>
<svg
   version="1.1"
   width="25.55525"
   height="31.298832"
   viewBox="0 0 25.55525 31.298832"
   id="svg8"
   xmlns="http://www.w3.org/2000/svg"
   xmlns:svg="http://www.w3.org/2000/svg">
  <defs>
    <!-- This is the gradient that will actually be used on
     the cards. The colors themselves will be provided by the
     template, but the x values, y values, and offsets will be
     used from the SVG. -->
    <linearGradient id="rarity" x1="0" y1="0" x2="1" y2="0">
      <stop offset="0" style="stop-color:rgb(192,55,38);stop-opacity:1" id="stop2" />
      <stop offset="0.125" style="stop-color:rgb(192,55,38);stop-opacity:1" id="stop4" />
      <stop offset="0.5" style="stop-color:rgb(241,142,30);stop-opacity:1" id="stop6" />
      <stop offset="0.875" style="stop-color:rgb(192,55,38);stop-opacity:1" id="stop8" />
      <stop offset="1" style="stop-color:rgb(192,55,38);stop-opacity:1" id="stop10" />
    </linearGradient>
    <!-- These gradients are here so that you can visualize
     what the set symbol would like like in that rarity. The
     only gradient that matters in the end is the "rarity"
     gradient. -->
    <linearGradient id="mythic" x1="0" y1="1" x2="1" y2="0">
      <stop offset="0" style="stop-color:rgb(192,55,38);stop-opacity:1"/>
      <stop offset="0.125" style="stop-color:rgb(192,55,38);stop-opacity:1"/>
      <stop offset="0.5" style="stop-color:rgb(241,142,30);stop-opacity:1"/>
      <stop offset="0.875" style="stop-color:rgb(192,55,38);stop-opacity:1"/>
      <stop offset="1" style="stop-color:rgb(192,55,38);stop-opacity:1"/>
    </linearGradient>
    <linearGradient id="rare" x1="0" y1="1" x2="1" y2="0">
      <stop offset="0" style="stop-color:rgb(146,116,67);stop-opacity:1"/>
      <stop offset="0.125" style="stop-color:rgb(146,116,67);stop-opacity:1"/>
      <stop offset="0.5" style="stop-color:rgb(211,178,108);stop-opacity:1"/>
      <stop offset="0.875" style="stop-color:rgb(146,116,67);stop-opacity:1"/>
      <stop offset="1" style="stop-color:rgb(146,116,67);stop-opacity:1"/>
    </linearGradient>
    <linearGradient id="special" x1="0" y1="1" x2="1" y2="0">
      <stop offset="0" style="stop-color:rgb(76, 56, 106);stop-opacity:1"/>
      <stop offset="0.125" style="stop-color:rgb(76, 56, 106);stop-opacity:1"/>
      <stop offset="0.5" style="stop-color:rgb(201, 173, 221);stop-opacity:1"/>
      <stop offset="0.875" style="stop-color:rgb(76, 56, 106);stop-opacity:1"/>
      <stop offset="1" style="stop-color:rgb(76, 56, 106);stop-opacity:1"/>
    </linearGradient>
    <linearGradient id="uncommon" x1="0" y1="1" x2="1" y2="0">
      <stop offset="0" style="stop-color:rgb(98,110,119);stop-opacity:1"/>
      <stop offset="0.125" style="stop-color:rgb(98,110,119);stop-opacity:1"/>
      <stop offset="0.5" style="stop-color:rgb(196,222,238);stop-opacity:1"/>
      <stop offset="0.875" style="stop-color:rgb(98,110,119);stop-opacity:1"/>
      <stop offset="1" style="stop-color:rgb(98,110,119);stop-opacity:1"/>
    </linearGradient>
    <linearGradient id="common" x1="0" y1="1" x2="1" y2="0">
      <stop offset="0" style="stop-color:rgb(0,0,0);stop-opacity:1"/>
    </linearGradient>
    <linearGradient
            id="rarity-outline" x1="0" y1="1" x2="0" y2="1">
      <stop offset="0" style="stop-color:rgb(0,0,0);stop-opacity:1"/>
    </linearGradient>
  </defs>
  <path fill="url(#rarity-outline)" d="m 12.842328,0 -0.970703,2.1914062 c -0.407735,0.9194406 -0.769233,1.7859046 -1.244141,2.5 l -0.002,0.00195 c -0.0039,3.13e-4 -0.0099,0.00347 -0.05078,0.021484 -0.100454,0.044251 -0.319457,0.114093 -0.5878939,0.2441441 -1.8411839,0.7720031 -3.4698287,1.7923117 -5.09375,2.6289063 l -0.025391,0.011719 -0.023437,0.013672 c -0.061112,0.035828 -0.082857,0.045627 -0.25,0 C 4.4304947,7.56857 4.1839879,7.4381522 3.9497497,7.2832031 3.7565368,7.1482118 3.4132137,6.7633342 3.1743591,6.3808593 2.934654,5.9970224 2.7950095,5.4744455 2.8149841,5.6699218 l -0.097656,-0.9589844 -0.9609376,0.0625 C 1.2056441,4.8094801 0.7324761,5.0626846 0.38724972,5.5332031 -0.1027933,6.1748439 -0.0320538,6.8897 0.08646848,7.3652343 l 0.001953,0.00391 v 0.00586 c 0.55921668,2.1519759 1.14689372,4.2965107 1.74804702,6.4335897 0.074043,0.301458 0.2486154,0.588436 0.4667968,0.789062 0.9149387,0.943207 1.8207778,1.91011 2.7519532,2.869141 l 0.00391,0.0039 0.00195,0.0039 v 0.002 c -0.013738,0.01193 -0.186469,0.04472 -0.3925782,-0.05273 l -2.2285162,-1.052773 0.8632812,2.308593 c 0.4976482,1.329303 1.2564308,2.45115 1.9570313,3.498047 l 0.1777344,0.265625 c -0.4466714,0.114364 -0.9192541,0.152282 -1.2871094,0.458985 l -0.375,0.3125 0.015625,0.490234 c 0.057846,1.680249 -0.3371329,3.374289 -1.1699219,4.8125 L 1.0376403,31.251953 3.906781,29.927734 C 5.3371844,29.266825 6.7275005,28.443601 7.9634216,27.390625 8.3222143,27.092597 8.3981668,26.623831 8.5923279,26.21289 l 0.072266,0.08008 c 1.0999363,1.230811 2.2142441,2.484263 3.4179681,3.677735 l 0.714844,0.708984 0.703125,-0.720703 c 1.166981,-1.194332 2.296005,-2.425156 3.388672,-3.683594 l 0.0332,-0.03906 c 0.201204,0.417916 0.325038,0.878618 0.693359,1.177734 1.229958,1.055818 2.614133,1.836486 3.984375,2.507813 l 2.810547,1.376953 -1.492187,-2.751953 c -0.805944,-1.486215 -1.23598,-3.164308 -1.160157,-4.826172 l 0.02344,-0.488281 -0.371094,-0.316407 c -0.378896,-0.324051 -0.865977,-0.36529 -1.328125,-0.478515 l 0.160156,-0.226563 c 0.747296,-1.057475 1.491946,-2.201822 1.992188,-3.519531 l 0.746094,-1.96875 -1.996094,0.664062 c -0.293977,0.09765 -0.427682,0.109216 -0.414063,0.111329 l -0.01953,-0.0039 -0.01953,-0.002 c -0.01873,-0.0021 -0.04347,-0.01207 -0.05469,0.01367 0.0052,-0.0034 0.01007,-0.03704 0.06445,-0.08984 l 0.01367,-0.01172 0.01172,-0.01563 c 0.874836,-0.916875 1.746518,-1.831942 2.623047,-2.736328 l 0.0059,-0.0059 0.0078,-0.0078 c 0.06566,-0.07062 0.402327,-0.320913 0.509766,-0.878907 l -0.01953,0.08203 C 24.302622,11.686435 24.909137,9.5227965 25.463422,7.3359374 25.827734,6.1977256 25.076398,4.8568379 23.770062,4.796875 l -1.095703,-0.050781 0.05273,1.0957031 c 0.01935,0.4105883 -0.383681,0.8953561 -1.001953,1.3535156 -0.260062,0.186346 -0.544107,0.3464411 -0.740234,0.4042969 -0.197759,0.058337 -0.236959,0.051465 -0.330078,-0.00586 l -0.02734,-0.017578 -0.0293,-0.015625 C 18.806042,6.6170038 17.001359,5.5048627 14.959515,4.703125 l -0.05273,-0.019531 -0.05274,-0.015625 c 0.124339,0.033328 0.05151,0.00889 -0.158203,-0.3359375 C 14.325294,3.6540603 13.998961,2.9520491 13.717327,2.2324221 Z m 4.175781,23.277344 c -0.0013,0.0017 -5.99e-4,0.0041 -0.002,0.0059 -9.05e-4,0.0012 -0.003,6.87e-4 -0.0039,0.002 z" />
  <path fill="url(#rarity)" d="m 12.785687,2.5976562 c -0.4,0.902 -0.778172,1.8244375 -1.326172,2.6484375 h 0.002 c -0.229,0.38 -0.702359,0.4360469 -1.068359,0.6230469 -1.7499999,0.731 -3.3619686,1.7414219 -5.0429687,2.6074218 -0.655,0.384 -1.40575,0.00881 -1.96875,-0.3671874 -0.7789999,-0.54 -1.5935468,-1.3108907 -1.5605468,-2.3378907 -0.229,0.084 -0.4886719,0.1464688 -0.6386719,0.3554688 -0.221,0.28 -0.207,0.6670937 -0.125,0.9960937 0.56,2.155 1.147,4.3042652 1.75,6.4472652 0.028,0.114 0.086828,0.211016 0.1738281,0.291016 0.936,0.964 1.8550157,1.944203 2.7910156,2.908203 0.3610001,0.364 0.4422969,1.024812 0.029297,1.382813 -0.398,0.433999 -1.0635469,0.410781 -1.5605469,0.175781 0.4440001,1.186 1.1515625,2.246969 1.8515626,3.292969 0.487,-0.024 0.9859843,-0.05506 1.4589843,0.08594 0.982,0.263 1.8345469,1.059453 2.0605469,2.064453 0.149,0.62 0.033828,1.271469 -0.2011719,1.855469 1.1009997,1.232 2.2009997,2.468812 3.3749997,3.632812 1.152,-1.179 2.266656,-2.395625 3.347656,-3.640625 -0.425,-0.948 -0.34939,-2.141406 0.34961,-2.941406 0.693,-0.865 1.868359,-1.216969 2.943359,-1.042969 0.73,-1.033 1.422047,-2.110828 1.873047,-3.298828 -0.283,0.094 -0.577859,0.197391 -0.880859,0.150391 -0.454,-0.052 -0.903172,-0.402 -0.951172,-0.875 -0.03,-0.344 0.134953,-0.67711 0.376953,-0.91211 0.874,-0.915999 1.745953,-1.833187 2.626953,-2.742187 0.106,-0.114 0.228766,-0.225719 0.259766,-0.386719 0.614,-2.173999 1.225297,-4.3490621 1.779296,-6.539062 0.177001,-0.5530001 -0.175156,-1.2083282 -0.785156,-1.2363282 0.045,0.955 -0.701156,1.6849844 -1.410156,2.2089844 -0.613,0.441 -1.452594,0.8914063 -2.183594,0.4414062 -1.831,-0.9639999 -3.604109,-2.0515468 -5.537109,-2.8105468 -0.388,-0.104 -0.576578,-0.4876407 -0.767578,-0.8066406 C 13.431703,4.107125 13.084687,3.3616562 12.785687,2.5976562 Z m 6.023438,9.0351558 c -0.018,0.679 0.03956,1.365063 -0.02344,2.039063 -1.002,1.474 -2.033875,2.927531 -3.046875,4.394531 -0.258,0.349 -0.475578,0.726781 -0.767578,1.050781 -0.013,-1.413 0.0052,-2.823375 -0.0098,-4.234375 1.279,-1.089 2.554657,-2.178 3.847657,-3.25 z m -12.058594,0.0039 c 1.277,1.075 2.5502656,2.154329 3.822266,3.236329 -0.003,1.413 -0.005,2.827234 0,4.240234 -0.209,-0.212 -0.36025,-0.467984 -0.53125,-0.708984 -1.0470004,-1.497 -2.0808129,-3.006 -3.1328129,-4.5 -0.078,-0.118 -0.1861094,-0.235672 -0.1621094,-0.388672 9.99e-4,-0.626349 -0.00107,-1.25256 0.00391,-1.878907 z M 6.2095153,23.167968 c -0.510875,5e-4 -1.0269687,0.175954 -1.4179687,0.501954 0.064,1.859 -0.3706875,3.736609 -1.3046875,5.349609 1.37,-0.633 2.6849375,-1.414484 3.8359375,-2.396484 0.831,-0.689 1.0495313,-2.09925 0.2695313,-2.90625 -0.3665001,-0.376 -0.8719375,-0.549328 -1.3828126,-0.548829 z m 13.1249997,0 c -0.584178,2.41e-4 -1.159343,0.226797 -1.519531,0.712891 -0.637,0.84 -0.360406,2.122672 0.433594,2.763672 1.135,0.978 2.450015,1.721906 3.791015,2.378906 -0.885,-1.632 -1.364297,-3.484656 -1.279297,-5.347656 -0.388593,-0.332344 -0.910329,-0.508025 -1.425781,-0.507813 z"/>
</svg>
