<?xml version="1.0" encoding="UTF-8" standalone="no"?>
<!-- Generated by IcoMoon.io -->

<svg
   version="1.1"
   width="31.989561"
   height="31.999504"
   viewBox="0 0 31.989561 31.999504"
   id="svg6"
   sodipodi:docname="e02.svg"
   inkscape:version="1.1.1 (3bf5ae0d25, 2021-09-20)"
   xmlns:inkscape="http://www.inkscape.org/namespaces/inkscape"
   xmlns:sodipodi="http://sodipodi.sourceforge.net/DTD/sodipodi-0.dtd"
   xmlns="http://www.w3.org/2000/svg"
   xmlns:svg="http://www.w3.org/2000/svg">
  <defs
     id="defs10" />
  <sodipodi:namedview
     id="namedview8"
     pagecolor="#ffffff"
     bordercolor="#666666"
     borderopacity="1.0"
     inkscape:pageshadow="2"
     inkscape:pageopacity="0.0"
     inkscape:pagecheckerboard="0"
     showgrid="false"
     inkscape:zoom="25.75"
     inkscape:cx="15.980583"
     inkscape:cy="15.980583"
     inkscape:window-width="1920"
     inkscape:window-height="1009"
     inkscape:window-x="-8"
     inkscape:window-y="-8"
     inkscape:window-maximized="1"
     inkscape:current-layer="svg6" />
  <title
     id="title2">e02</title>
  <path
     fill="#000000"
     d="m 14.543665,26.825063 c 1.004,0.159 2.018,0.125 3.024,0.009 -0.204,0.24 -0.429,0.461 -0.634,0.704 -0.308,1.176 0.673,2.288 0.291,3.464 -0.132,0.594 -0.703,1.067 -1.326,0.989 -0.656,0.004 -1.159,-0.567 -1.261,-1.182 -0.265,-1.082 0.465,-2.086 0.338,-3.164 -0.108,-0.293 -0.286,-0.55 -0.433,-0.821 z m 10.357,-4.344 c -0.739,0.703 -1.388,1.503 -2.188,2.148 0.03,0.477 0.722,0.214 0.995,0.488 0.859,0.732 1.065,2.056 2.154,2.551 0.775,0.469 1.904,-0.096 1.955,-1.006 0.03,-0.836 -0.641,-1.502 -1.339,-1.851 -0.588,-0.282 -1.108,-0.677 -1.545,-1.161 0.026,-0.39 0.023,-0.781 -0.032,-1.169 z m -17.6979996,0.008 c -0.129,0.401 -0.127,0.847 -0.329,1.218 -0.732,0.859 -2.054,1.067 -2.551,2.154 -0.475,0.775 0.095,1.893 0.998,1.955 0.84,0.034 1.505,-0.643 1.859,-1.341 0.282,-0.584 0.675,-1.106 1.159,-1.539 0.391,0.028 0.785,0.025 1.176,-0.032 -0.749,-0.825 -1.645,-1.509 -2.313,-2.415 z m 8.8749996,-7.728 c 0.104,0.023 0.212,0.032 0.313,0.068 0.579,0.208 0.945,0.813 0.812,1.418 -0.149,0.866 -1.312,1.28 -1.97,0.692 -0.738,-0.546 -0.514,-1.831 0.361,-2.099 0.264,-0.086 0.105,-0.048 0.485,-0.079 z m -0.34,-5.1549996 c -0.244,0.006 -0.484,0.032 -0.726,0.065 -0.017,1.2819996 0.047,2.5659996 -0.038,3.8449996 -1.061,-0.739 -1.836,-1.808 -2.814,-2.646 -0.509,0.418 -0.978,0.881 -1.371,1.413 0.883,0.936 1.874,1.776 2.691,2.774 -1.271,0.089 -2.545,0.009 -3.8199996,0.049 -0.076,0.654 -0.066,1.312 0.025,1.965 1.2459996,0.026 2.4939996,0.004 3.7419996,0.011 -0.864,0.889 -1.759,1.749 -2.623,2.638 0.395,0.526 0.864,0.981 1.36,1.411 0.974,-0.826 1.776,-1.834 2.763,-2.648 0.045,1.278 -0.015,2.557 0.038,3.835 0.647,0.085 1.301,0.093 1.952,0.015 0.045,-1.273 -0.03,-2.545 0.045,-3.816 0.998,0.806 1.827,1.798 2.763,2.676 0.531,-0.391 0.993,-0.862 1.415,-1.367 -0.849,-0.955 -1.842,-1.77 -2.653,-2.757 1.278,-0.057 2.561,0.008 3.841,-0.038 0.089,-0.651 0.098,-1.309 0.013,-1.959 -1.275,-0.04 -2.549,0.03 -3.822,-0.043 0.747,-1.048 1.789,-1.842 2.659,-2.786 -0.401,-0.543 -0.868,-1.036 -1.43,-1.415 -0.904,0.889 -1.749,1.842 -2.719,2.661 -0.061,-1.275 -0.009,-2.549 -0.03,-3.8239996 l -0.496,-0.054 c -0.255,0 -0.509,-0.001 -0.764,-0.006 z m 0.24,-1.32 c 1.733,0.083 3.255,0.477 4.655,1.552 1.779,1.3289996 2.937,3.4569996 3.058,5.6789996 0.299,3.614 -2.33,7.158 -5.859,7.96 -1.806,0.444 -3.773,0.206 -5.414,-0.671 -1.883,-0.987 -3.3229996,-2.786 -3.8599996,-4.845 -0.545,-2.022 -0.21,-4.261 0.908,-6.032 1.1629996,-1.885 3.1709996,-3.2219996 5.3629996,-3.5499996 0.635,-0.084 0.253,-0.044 1.149,-0.092 z m 0.305,-1.957 c -0.74,0.012 -1.483,0.019 -2.208,0.189 -2.653,0.524 -5.0339996,2.237 -6.3989996,4.5669996 -1.365,2.284 -1.704,5.144 -0.93,7.687 0.736,2.481 2.521,4.622 4.8199996,5.806 2.301,1.205 5.093,1.407 7.547,0.567 2.343,-0.789 4.346,-2.517 5.478,-4.711 1.112,-2.126 1.377,-4.669 0.745,-6.982 -0.645,-2.404 -2.267,-4.5199996 -4.41,-5.7829996 -1.429,-0.809 -2.993,-1.298 -4.643,-1.341 z M 5.1426654,14.717063 c -1.331,1.133 -2.975,-0.556 -4.41199997,0.223 -0.944,0.388 -0.995,1.936 -0.026,2.326 1.20499997,0.596 2.39799997,-0.401 3.63099997,-0.231 0.333,0.151 0.55,0.477 0.845,0.69 -0.119,-1 -0.183,-2.008 -0.038,-3.009 z m 21.7139996,-0.278 c 0.104,0.998 0.142,2.005 -0.013,3.001 0.367,-0.187 0.717,-0.509 1.159,-0.439 1.07,0.066 2.162,0.724 3.221,0.216 0.968,-0.363 1.046,-1.931 0.076,-2.337 -1.244,-0.645 -2.494,0.49 -3.763,0.18 -0.233,-0.2 -0.446,-0.422 -0.679,-0.62 z M 5.5506654,4.3000634 c -0.718,0.058 -1.307,0.425 -1.379,1.199 -0.013,0.842 0.675,1.498 1.38,1.849 0.582,0.28 1.101,0.671 1.517,1.169 -0.034,0.355 -0.045,0.711 -0.023,1.068 0.756,-0.756 1.441,-1.587 2.29,-2.247 -0.412,-0.153 -0.936,-0.108 -1.229,-0.486 -0.732,-0.785 -1.01,-2.027 -2.103,-2.439 -0.244,-0.098 -0.095,-0.05 -0.453,-0.114 z m 20.7469996,-0.116 -0.267,0.085 c -1.244,0.482 -1.403,2.006 -2.4,2.774 -0.382,-0.015 -0.764,-0.017 -1.144,0.023 0.728,0.804 1.587,1.49 2.281,2.332 0.079,-0.333 0.125,-0.675 0.235,-1 0.548,-0.819 1.624,-1.014 2.258,-1.744 0.359,-0.395 0.628,-0.947 0.494,-1.49 -0.264,-0.738 -0.682,-0.984 -1.455,-0.979 z m -10.48,-4.181 c -0.438,0.1 -0.762,0.218 -0.97,0.653 -0.63,1.227 0.357,2.472 0.227,3.737 -0.252,0.252 -0.501,0.505 -0.728,0.779 1.016,-0.14 2.044,-0.185 3.062,-0.017 -0.195,-0.367 -0.535,-0.711 -0.456,-1.159 0.066,-1.095 0.751,-2.235 0.176,-3.306 -0.274,-0.501 -0.747,-0.719 -1.311,-0.687 z"
     id="path4" />
</svg>
