<?xml version="1.0" encoding="UTF-8" standalone="no"?>
<svg
   version="1.1"
   width="34.511932"
   height="34.466877"
   viewBox="0 0 34.511932 34.466877"
   id="svg4"
   xmlns="http://www.w3.org/2000/svg"
   xmlns:svg="http://www.w3.org/2000/svg">
  <defs>
    <!-- This is the gradient that will actually be used on
     the cards. The colors themselves will be provided by the
     template, but the x values, y values, and offsets will be
     used from the SVG. -->
    <linearGradient id="rarity" x1="0" y1="1" x2="1" y2="0">
      <stop offset="0" style="stop-color:rgb(192,55,38);stop-opacity:1" id="stop2" />
      <stop offset="0.125" style="stop-color:rgb(192,55,38);stop-opacity:1" id="stop4" />
      <stop offset="0.5" style="stop-color:rgb(241,142,30);stop-opacity:1" id="stop6" />
      <stop offset="0.875" style="stop-color:rgb(192,55,38);stop-opacity:1" id="stop8" />
      <stop offset="1" style="stop-color:rgb(192,55,38);stop-opacity:1" id="stop10" />
    </linearGradient>
    <!-- These gradients are here so that you can visualize
     what the set symbol would like like in that rarity. The
     only gradient that matters in the end is the "rarity"
     gradient. -->
    <linearGradient id="mythic" x1="0" y1="1" x2="1" y2="0">
      <stop offset="0" style="stop-color:rgb(192,55,38);stop-opacity:1"/>
      <stop offset="0.125" style="stop-color:rgb(192,55,38);stop-opacity:1"/>
      <stop offset="0.5" style="stop-color:rgb(241,142,30);stop-opacity:1"/>
      <stop offset="0.875" style="stop-color:rgb(192,55,38);stop-opacity:1"/>
      <stop offset="1" style="stop-color:rgb(192,55,38);stop-opacity:1"/>
    </linearGradient>
    <linearGradient id="rare" x1="0" y1="1" x2="1" y2="0">
      <stop offset="0" style="stop-color:rgb(146,116,67);stop-opacity:1"/>
      <stop offset="0.125" style="stop-color:rgb(146,116,67);stop-opacity:1"/>
      <stop offset="0.5" style="stop-color:rgb(211,178,108);stop-opacity:1"/>
      <stop offset="0.875" style="stop-color:rgb(146,116,67);stop-opacity:1"/>
      <stop offset="1" style="stop-color:rgb(146,116,67);stop-opacity:1"/>
    </linearGradient>
    <linearGradient id="special" x1="0" y1="1" x2="1" y2="0">
      <stop offset="0" style="stop-color:rgb(76, 56, 106);stop-opacity:1"/>
      <stop offset="0.125" style="stop-color:rgb(76, 56, 106);stop-opacity:1"/>
      <stop offset="0.5" style="stop-color:rgb(201, 173, 221);stop-opacity:1"/>
      <stop offset="0.875" style="stop-color:rgb(76, 56, 106);stop-opacity:1"/>
      <stop offset="1" style="stop-color:rgb(76, 56, 106);stop-opacity:1"/>
    </linearGradient>
    <linearGradient id="uncommon" x1="0" y1="1" x2="1" y2="0">
      <stop offset="0" style="stop-color:rgb(98,110,119);stop-opacity:1"/>
      <stop offset="0.125" style="stop-color:rgb(98,110,119);stop-opacity:1"/>
      <stop offset="0.5" style="stop-color:rgb(196,222,238);stop-opacity:1"/>
      <stop offset="0.875" style="stop-color:rgb(98,110,119);stop-opacity:1"/>
      <stop offset="1" style="stop-color:rgb(98,110,119);stop-opacity:1"/>
    </linearGradient>
    <linearGradient id="common" x1="0" y1="1" x2="1" y2="0">
      <stop offset="0" style="stop-color:rgb(0,0,0);stop-opacity:1"/>
    </linearGradient>
    <linearGradient
            id="rarity-outline" x1="0" y1="1" x2="0" y2="1">
      <stop offset="0" style="stop-color:rgb(0,0,0);stop-opacity:1"/>
    </linearGradient>
  </defs>
  <path fill="url(#rarity-outline)" d="m 17.006449,0.00382937 c -0.06971,0.00397 -0.138961,0.013767 -0.207032,0.029297 -0.257809,0.05886 -0.57716,0.1344945 -0.93164,0.34570318 -0.350057,0.20857323 -0.679899,0.57487784 -0.875,0.97460935 -0.50235,0.9959167 -0.342805,2.0077282 -0.173828,2.7011719 0.134101,0.550323 0.18835,0.8640534 0.214844,1.1503906 C 14.902862,5.3437822 14.776519,5.4643652 14.645121,5.62297 14.420949,5.9678537 14.38078,6.4009437 14.537699,6.7811731 13.524366,7.0438893 12.582254,7.4799825 11.693949,8.0175012 11.555384,7.7414395 11.319523,7.5264508 11.031839,7.4139856 10.637317,7.2674761 10.378718,7.2469648 10.264261,7.2206262 10.07134,7.0056603 9.8424133,6.5908797 9.500589,6.0624231 9.1507558,5.5215849 8.6073559,4.831997 7.7056671,4.4921106 7.6991787,4.4894517 7.692668,4.4868474 7.6861358,4.4842981 7.4792434,4.410236 7.3167565,4.3401131 7.0435577,4.3339075 c -0.1365994,-0.0031 0.026893,6.988e-4 0.082031,0.00781 0.055139,0.00712 0.046228,0.0086 -0.011719,-0.00586 C 6.981811,4.3028555 6.8452479,4.2916405 6.7095734,4.3026575 6.1670089,4.3464855 5.5957487,4.5059886 5.1001984,4.9003138 4.6046478,5.2946388 4.2515179,5.9489213 4.188089,6.6307825 c -0.00323,0.032463 -0.00518,0.06504 -0.00586,0.097656 -0.023664,1.532694 1.1014638,2.5029927 2.0722656,2.9863281 0.00519,0.00264 0.010398,0.00524 0.015625,0.00781 0.3161616,0.1521052 0.5566477,0.3862444 0.8007813,0.6152344 -0.00314,0.191433 -0.023815,0.375972 -0.011719,0.572266 0.052022,0.437246 0.3302381,0.814878 0.7324227,0.994143 -0.5218784,0.918109 -0.7745327,1.938658 -1.0058594,2.958984 -0.3973485,-0.157102 -0.8474128,-0.100384 -1.1933594,0.150391 -0.1193059,0.101558 -0.1346835,0.100097 -0.2832031,0.105469 -0.1485195,0.0054 -0.4195851,-0.0384 -0.7773437,-0.125 -0.7016377,-0.169848 -1.8667668,-0.530201 -3.0683594,0.08203 -1.92850829,0.859902 -1.97528839,3.732759 0.00391,4.570313 0.978363,0.458238 1.9554465,0.290008 2.6113282,0.123046 0.5727921,-0.14581 0.8996318,-0.206957 1.1523437,-0.21289 0.029979,0.05652 0.060024,0.127522 0.4785157,0.429687 0.3219126,0.202979 0.7187544,0.248271 1.078125,0.123047 0.024433,0.08861 -0.00333,0.183425 0.023437,0.271484 3.824e-4,0.0013 -3.827e-4,0.0026 0,0.0039 0.2519112,0.846046 0.7902696,1.548306 1.2363282,2.300781 -0.3412033,0.102297 -0.622564,0.34529 -0.7734375,0.667969 -0.1847469,0.57429 -0.1994088,0.793794 -0.2070313,0.871093 -0.1812535,0.173014 -0.4714223,0.364098 -0.9472656,0.654297 -0.5156683,0.314487 -1.2024582,0.798665 -1.6191406,1.638672 -0.925668,1.603535 0.1257702,3.664687 1.9941406,3.792969 0.011709,8.16e-4 0.023429,0.0015 0.035156,0.002 1.536616,0.0622 2.5332315,-1.053022 3.0253907,-2.023437 0.00332,-0.0071 0.00658,-0.01429 0.00977,-0.02148 0.1569986,-0.325132 0.4019453,-0.592218 0.6445313,-0.857422 0.248777,-0.0047 0.486228,0.0164 0.746094,-0.02148 0.410154,-0.09137 0.746965,-0.382685 0.896485,-0.775391 0.149374,0.08642 0.244706,0.243015 0.398437,0.322266 0.783348,0.409813 1.662141,0.509056 2.513672,0.712891 -0.165357,0.320091 -0.184578,0.695961 -0.05273,1.03125 0.121794,0.219323 0.191866,0.351098 0.261719,0.486328 0.0029,0.222192 -0.04379,0.513433 -0.167969,0.998047 -0.136855,0.534094 -0.313331,1.280518 -0.119141,2.140625 0.202504,1.101779 1.087692,2.111372 2.400391,2.152343 1.27581,0.112296 2.31833,-0.746265 2.595703,-1.898437 0.282939,-0.961881 0.04643,-1.807478 -0.111328,-2.375 -0.135928,-0.488998 -0.152556,-0.713515 -0.140625,-0.904297 0.115282,-0.12402 0.209833,-0.222276 0.349609,-0.386719 0.253078,-0.350609 0.307,-0.807106 0.142578,-1.207031 0.27987,-0.07094 0.577448,-0.01566 0.851563,-0.109375 h 0.0039 c 0.79897,-0.269567 1.459159,-0.796491 2.167969,-1.240234 0.127475,0.31903 0.239781,0.677023 0.486328,0.833984 0.358961,0.228527 0.619187,0.24401 0.78125,0.265625 0.03438,0.0046 0.0468,0.01139 0.07227,0.01758 0.159846,0.193881 0.351327,0.508495 0.605468,0.925781 0.315142,0.517447 0.798807,1.209718 1.644532,1.625 1.607919,0.917726 3.683287,-0.136083 3.789062,-2.023437 7.37e-4,-0.0085 0.0014,-0.01692 0.002,-0.02539 0.05481,-1.527345 -1.048959,-2.523503 -2.029297,-3.013672 -0.0065,-0.0033 -0.01299,-0.0066 -0.01953,-0.0098 -0.323947,-0.155363 -0.589622,-0.402216 -0.857422,-0.646485 -0.0048,-0.244165 0.01468,-0.477311 -0.02148,-0.732421 -0.08298,-0.407753 -0.363412,-0.747489 -0.748047,-0.90625 0.08396,-0.145456 0.23338,-0.241063 0.310547,-0.390626 0.412484,-0.789757 0.555509,-1.668025 0.759766,-2.527343 0.294778,0.149509 0.63677,0.176194 0.951171,0.07422 0.289321,-0.147419 0.450584,-0.263805 0.527344,-0.304688 0.306913,0.02116 0.792573,0.169721 1.429688,0.298828 0.626018,0.126859 1.478577,0.191383 2.326171,-0.189453 1.997115,-0.790946 2.108314,-3.723365 0.123047,-4.601563 -1.020741,-0.501481 -2.043557,-0.297088 -2.707031,-0.123046 -0.574764,0.150771 -0.8629,0.188675 -1.085937,0.179687 -0.09173,-0.0867 -0.167231,-0.155911 -0.283203,-0.257812 l -0.002,-0.002 c -0.333598,-0.264495 -0.778868,-0.341038 -1.18164,-0.203126 -0.01856,-0.0742 0.0026,-0.152711 -0.01758,-0.226562 -0.261655,-0.973518 -0.806731,-1.820465 -1.322276,-2.675751 0.357378,-0.124884 0.638915,-0.404985 0.765625,-0.761719 0.07361,-0.310278 0.110124,-0.489052 0.152344,-0.666016 0.105291,-0.121343 0.252291,-0.251767 0.591797,-0.4492184 0.390704,-0.2272274 0.956031,-0.5110418 1.46289,-1.0878906 0.53728,-0.5942194 1.050605,-1.511823 0.777344,-2.6191406 -0.01025,-0.041625 -0.02264,-0.082695 -0.03711,-0.1230469 C 30.004361,5.4656323 29.677413,4.9342187 29.162699,4.5975794 28.802751,4.3621626 28.415533,4.3526046 28.035746,4.3085169 27.767022,4.1850283 27.46322,4.1608072 27.178324,4.2401575 l -0.265625,0.085937 c -0.025,0.00769 -0.04975,0.016153 -0.07422,0.025391 -1.019113,0.3948653 -1.56363,1.2180676 -1.914063,1.8066406 -0.275604,0.4628943 -0.450571,0.6952598 -0.626953,0.8984376 -0.226856,0.00264 -0.439171,-0.011851 -0.68164,0.013672 -0.407078,0.069519 -0.753557,0.3355919 -0.925781,0.7109375 -0.882373,-0.488526 -1.829433,-0.8387679 -2.8125,-1.0878906 0.07272,-0.295413 0.03523,-0.6072072 -0.105469,-0.8769531 C 19.620186,5.5304716 19.50821,5.3823299 19.463479,5.3065639 19.484429,4.9916246 19.63969,4.4836597 19.768166,3.8202357 19.89765,3.1516205 19.963606,2.2281891 19.490823,1.3475794 c -0.0019,-0.00326 -0.0039,-0.00652 -0.0059,-0.00977 C 18.993658,0.43940311 17.930465,-0.04859713 17.006449,0.00382937 Z M 15.092386,6.5389856 c -0.0064,0.00126 -0.01119,0.00654 -0.01758,0.00781 -0.0092,0.00213 -0.01613,-2.14e-4 -0.02539,0.00195 z m 9.269531,20.9335934 c 0.0615,0.02357 0.05359,0.02753 0,0 z" />
  <path fill="url(#rarity)" d="m 15.80402,28.073033 c 1.004,0.159 2.018,0.125 3.024,0.009 -0.204,0.24 -0.429,0.461 -0.634,0.704 -0.308,1.176 0.673,2.288 0.291,3.464 -0.132,0.594 -0.703,1.067 -1.326,0.989 -0.656,0.004 -1.159,-0.567 -1.261,-1.182 -0.265,-1.082 0.465,-2.086 0.338,-3.164 -0.108,-0.293 -0.286,-0.55 -0.433,-0.821 z m 10.357,-4.344 c -0.739,0.703 -1.388,1.503 -2.188,2.148 0.03,0.477 0.722,0.214 0.995,0.488 0.859,0.732 1.065,2.056 2.154,2.551 0.775,0.469 1.904,-0.096 1.955,-1.006 0.03,-0.836 -0.641,-1.502 -1.339,-1.851 -0.588,-0.282 -1.108,-0.677 -1.545,-1.161 0.026,-0.39 0.023,-0.781 -0.032,-1.169 z m -17.698,0.008 c -0.129,0.401 -0.127,0.847 -0.329,1.218 -0.732,0.859 -2.054,1.067 -2.551,2.154 -0.475,0.775 0.095,1.893 0.998,1.955 0.84,0.034 1.505,-0.643 1.859,-1.341 0.282,-0.584 0.675,-1.106 1.159,-1.539 0.391,0.028 0.785,0.025 1.176,-0.032 -0.749,-0.825 -1.645,-1.509 -2.313,-2.415 z m 8.875,-7.728 c 0.104,0.023 0.212,0.032 0.313,0.068 0.579,0.208 0.945,0.813 0.812,1.418 -0.149,0.866 -1.312,1.28 -1.97,0.692 -0.738,-0.546 -0.514,-1.831 0.361,-2.099 0.264,-0.086 0.105,-0.048 0.485,-0.079 z m -0.34,-5.155 c -0.244,0.006 -0.484,0.032 -0.726,0.065 -0.017,1.282 0.047,2.566 -0.038,3.845 -1.061,-0.739 -1.836,-1.808 -2.814,-2.646 -0.509,0.418 -0.978,0.881 -1.371,1.413 0.883,0.936 1.874,1.776 2.691,2.774 -1.271,0.089 -2.545,0.009 -3.82,0.049 -0.076,0.654 -0.066,1.312 0.025,1.965 1.246,0.026 2.494,0.004 3.742,0.011 -0.864,0.889 -1.759,1.749 -2.623,2.638 0.395,0.526 0.864,0.981 1.36,1.411 0.974,-0.826 1.776,-1.834 2.763,-2.648 0.045,1.278 -0.015,2.557 0.038,3.835 0.647,0.085 1.301,0.093 1.952,0.015 0.045,-1.273 -0.03,-2.545 0.045,-3.816 0.998,0.806 1.827,1.798 2.763,2.676 0.531,-0.391 0.993,-0.862 1.415,-1.367 -0.849,-0.955 -1.842,-1.77 -2.653,-2.757 1.278,-0.057 2.561,0.008 3.841,-0.038 0.089,-0.651 0.098,-1.309 0.013,-1.959 -1.275,-0.04 -2.549,0.03 -3.822,-0.043 0.747,-1.048 1.789,-1.842 2.659,-2.786 -0.401,-0.543 -0.868,-1.036 -1.43,-1.415 -0.904,0.889 -1.749,1.842 -2.719,2.661 -0.061,-1.275 -0.009,-2.549 -0.03,-3.824 l -0.496,-0.054 c -0.255,0 -0.509,-10e-4 -0.764,-0.006 z m 0.24,-1.3199996 c 1.733,0.083 3.255,0.4769996 4.655,1.5519996 1.779,1.329 2.937,3.457 3.058,5.679 0.299,3.614 -2.33,7.158 -5.859,7.96 -1.806,0.444 -3.773,0.206 -5.414,-0.671 -1.883,-0.987 -3.323,-2.786 -3.86,-4.845 -0.545,-2.022 -0.21,-4.261 0.908,-6.032 1.163,-1.885 3.171,-3.2219996 5.363,-3.5499996 0.635,-0.084 0.253,-0.044 1.149,-0.092 z m 0.305,-1.957 c -0.74,0.012 -1.483,0.019 -2.208,0.189 -2.653,0.524 -5.034,2.2369996 -6.399,4.5669996 -1.365,2.284 -1.704,5.144 -0.93,7.687 0.736,2.481 2.521,4.622 4.82,5.806 2.301,1.205 5.093,1.407 7.547,0.567 2.343,-0.789 4.346,-2.517 5.478,-4.711 1.112,-2.126 1.377,-4.669 0.745,-6.982 -0.645,-2.404 -2.267,-4.52 -4.41,-5.7829996 -1.429,-0.809 -2.993,-1.298 -4.643,-1.341 z m -11.14,8.3879996 c -1.331,1.133 -2.975,-0.556 -4.412,0.223 -0.944,0.388 -0.99499996,1.936 -0.026,2.326 1.205,0.596 2.398,-0.401 3.631,-0.231 0.333,0.151 0.55,0.477 0.845,0.69 -0.119,-1 -0.183,-2.008 -0.038,-3.009 z m 21.714,-0.278 c 0.104,0.998 0.142,2.005 -0.013,3.001 0.367,-0.187 0.717,-0.509 1.159,-0.439 1.07,0.066 2.162,0.724 3.221,0.216 0.968,-0.363 1.046,-1.931 0.076,-2.337 -1.244,-0.645 -2.494,0.49 -3.763,0.18 -0.233,-0.2 -0.446,-0.422 -0.679,-0.62 z M 6.81102,5.5480334 c -0.718,0.058 -1.307,0.425 -1.379,1.199 -0.013,0.842 0.675,1.498 1.38,1.849 0.582,0.28 1.101,0.671 1.517,1.169 -0.034,0.3549996 -0.045,0.7109996 -0.023,1.0679996 0.756,-0.756 1.441,-1.5869996 2.29,-2.2469996 -0.412,-0.153 -0.936,-0.108 -1.229,-0.486 -0.732,-0.785 -1.01,-2.027 -2.103,-2.439 -0.244,-0.098 -0.095,-0.05 -0.453,-0.114 z m 20.747,-0.116 -0.267,0.085 c -1.244,0.482 -1.403,2.006 -2.4,2.774 -0.382,-0.015 -0.764,-0.017 -1.144,0.023 0.728,0.804 1.587,1.49 2.281,2.3319996 0.079,-0.333 0.125,-0.6749996 0.235,-0.9999996 0.548,-0.819 1.624,-1.014 2.258,-1.744 0.359,-0.395 0.628,-0.947 0.494,-1.49 -0.264,-0.738 -0.682,-0.984 -1.455,-0.979 z m -10.48,-4.181 c -0.438,0.1 -0.762,0.218 -0.97,0.653 -0.63,1.227 0.357,2.472 0.227,3.737 -0.252,0.252 -0.501,0.505 -0.728,0.779 1.016,-0.14 2.044,-0.185 3.062,-0.017 -0.195,-0.367 -0.535,-0.711 -0.456,-1.159 0.066,-1.095 0.751,-2.235 0.176,-3.306 -0.274,-0.501 -0.747,-0.719 -1.311,-0.687 z"/>
</svg>
