<?xml version="1.0" encoding="UTF-8" standalone="no"?>
<svg
   version="1.1"
   width="27.970179"
   height="34.656292"
   viewBox="0 0 27.970178 34.656292"
   id="svg4"
   xmlns="http://www.w3.org/2000/svg"
   xmlns:svg="http://www.w3.org/2000/svg">
  <defs>
    <!-- This is the gradient that will actually be used on
     the cards. The colors themselves will be provided by the
     template, but the x values, y values, and offsets will be
     used from the SVG. -->
    <linearGradient id="rarity" x1="0" y1="0" x2="1" y2="0">
      <stop offset="0" style="stop-color:rgb(192,55,38);stop-opacity:1" id="stop2" />
      <stop offset="0.125" style="stop-color:rgb(192,55,38);stop-opacity:1" id="stop4" />
      <stop offset="0.5" style="stop-color:rgb(241,142,30);stop-opacity:1" id="stop6" />
      <stop offset="0.875" style="stop-color:rgb(192,55,38);stop-opacity:1" id="stop8" />
      <stop offset="1" style="stop-color:rgb(192,55,38);stop-opacity:1" id="stop10" />
    </linearGradient>
    <!-- These gradients are here so that you can visualize
     what the set symbol would like like in that rarity. The
     only gradient that matters in the end is the "rarity"
     gradient. -->
    <linearGradient id="mythic" x1="0" y1="1" x2="1" y2="0">
      <stop offset="0" style="stop-color:rgb(192,55,38);stop-opacity:1"/>
      <stop offset="0.125" style="stop-color:rgb(192,55,38);stop-opacity:1"/>
      <stop offset="0.5" style="stop-color:rgb(241,142,30);stop-opacity:1"/>
      <stop offset="0.875" style="stop-color:rgb(192,55,38);stop-opacity:1"/>
      <stop offset="1" style="stop-color:rgb(192,55,38);stop-opacity:1"/>
    </linearGradient>
    <linearGradient id="rare" x1="0" y1="1" x2="1" y2="0">
      <stop offset="0" style="stop-color:rgb(146,116,67);stop-opacity:1"/>
      <stop offset="0.125" style="stop-color:rgb(146,116,67);stop-opacity:1"/>
      <stop offset="0.5" style="stop-color:rgb(211,178,108);stop-opacity:1"/>
      <stop offset="0.875" style="stop-color:rgb(146,116,67);stop-opacity:1"/>
      <stop offset="1" style="stop-color:rgb(146,116,67);stop-opacity:1"/>
    </linearGradient>
    <linearGradient id="special" x1="0" y1="1" x2="1" y2="0">
      <stop offset="0" style="stop-color:rgb(76, 56, 106);stop-opacity:1"/>
      <stop offset="0.125" style="stop-color:rgb(76, 56, 106);stop-opacity:1"/>
      <stop offset="0.5" style="stop-color:rgb(201, 173, 221);stop-opacity:1"/>
      <stop offset="0.875" style="stop-color:rgb(76, 56, 106);stop-opacity:1"/>
      <stop offset="1" style="stop-color:rgb(76, 56, 106);stop-opacity:1"/>
    </linearGradient>
    <linearGradient id="uncommon" x1="0" y1="1" x2="1" y2="0">
      <stop offset="0" style="stop-color:rgb(98,110,119);stop-opacity:1"/>
      <stop offset="0.125" style="stop-color:rgb(98,110,119);stop-opacity:1"/>
      <stop offset="0.5" style="stop-color:rgb(196,222,238);stop-opacity:1"/>
      <stop offset="0.875" style="stop-color:rgb(98,110,119);stop-opacity:1"/>
      <stop offset="1" style="stop-color:rgb(98,110,119);stop-opacity:1"/>
    </linearGradient>
    <linearGradient id="common" x1="0" y1="1" x2="1" y2="0">
      <stop offset="0" style="stop-color:rgb(0,0,0);stop-opacity:1"/>
    </linearGradient>
    <linearGradient
            id="rarity-outline" x1="0" y1="1" x2="0" y2="1">
      <stop offset="0" style="stop-color:rgb(0,0,0);stop-opacity:1"/>
    </linearGradient>
  </defs>
  <path fill="url(#rarity-outline)" d="M 13.967903,0 13.344856,0.51367182 C 11.837035,1.7546366 10.419724,3.5250309 9.5382156,5.6328124 l -0.017578,0.042969 C 8.8097576,5.3084227 8.0904512,4.9187036 7.3311843,4.5507812 L 5.762825,3.7910156 5.8975906,5.5273437 c 0.051687,0.6626959 0.052094,1.3299374 0.066406,1.9960937 C 5.3459709,7.3250413 4.7130312,7.2728354 4.1788406,7.4003906 4.1034434,7.4185055 4.0475233,7.4773131 3.9737624,7.5 l -0.00781,-0.021484 h -0.00195 l 0.00781,0.023437 C 3.0020024,7.8009997 2.1663752,8.451406 1.7276718,9.392578 1.3700021,10.131163 1.3454938,10.935431 1.4835312,11.71289 0.73010489,12.431313 0.09137564,13.339986 0.01087495,14.507812 v 0.002 l -0.001953,0.002 c -0.0783158,1.19863 0.36575482,2.323497 1.06445315,3.195313 l 1.3535155,1.689453 0.4082032,-2.125 c 0.1143188,-0.594909 0.4062675,-1.144249 0.8105468,-1.521484 0.4078788,-0.332118 1.064579,-0.443305 1.4707032,-0.236328 0.2022489,0.103025 0.389243,0.375066 0.4394531,0.660156 0.042521,0.369831 0.00146,0.76528 -0.1230469,1.148437 l -0.00195,0.0039 v 0.002 c -0.3046591,0.95609 -0.8551558,1.888565 -1.46485,2.849475 l -0.00195,0.002 -0.00195,0.0039 c -0.4961236,0.793037 -0.7291198,1.718073 -0.7011719,2.644531 -0.024832,0.979572 0.1956746,1.918903 0.5507813,2.761719 l 0.9023437,2.144531 0.9355469,-2.13086 c 0.2573753,-0.587605 0.7994661,-1.070026 1.4003906,-1.240234 0.8718892,-0.242148 1.8523996,-0.152912 2.546875,0.291016 l 0.5781254,0.36914 c -1.93e-4,1.303211 0.0011,2.606997 0,3.910157 l 0.0019,-0.06641 c -0.04018,0.605226 0.200265,0.968758 0.251953,1.103516 l 0.0059,0.01758 0.0078,0.01758 c 0.657731,1.538013 1.660629,2.903522 2.876952,4.017578 l 0.691407,0.632813 0.675781,-0.650391 c 1.281176,-1.23108 2.432901,-2.73404 3.035156,-4.535156 L 17.77259,29.3184 v -0.162109 c 0.0042,-1.374309 9.53e-4,-2.747088 0.002,-4.121094 l 0.609374,-0.386719 c 0.683963,-0.432682 1.639866,-0.52534 2.501954,-0.298828 0.615438,0.165312 1.177064,0.654915 1.443359,1.253906 l 0.945313,2.125 0.892578,-2.146484 c 0.645022,-1.551942 0.900337,-3.506839 -0.03906,-5.203125 l -0.01172,-0.01953 -0.01367,-0.02148 c -0.586985,-0.948208 -1.140655,-1.839225 -1.470703,-2.75 -0.188005,-0.534749 -0.281237,-1.019201 -0.21875,-1.396484 l 0.002,-0.0078 v -0.0078 c 0.04309,-0.287755 0.249444,-0.573569 0.457032,-0.669922 l 0.0059,-0.002 0.0059,-0.002 c 0.415262,-0.198518 1.06583,-0.07109 1.472657,0.271484 0.388259,0.380599 0.670034,0.923111 0.789062,1.513672 l 0.435547,2.164063 1.339844,-1.75586 c 0.674001,-0.884173 1.153655,-2.031706 1.029297,-3.285156 -0.09999,-1.134428 -0.729109,-2.01201 -1.464844,-2.707031 0.146504,-0.848058 0.09934,-1.7300829 -0.34375,-2.5175782 -0.615502,-1.1357593 -1.792811,-1.8321091 -3.066406,-1.875 -0.378027,-0.029206 -0.700306,0.2234587 -1.058594,0.3476563 0.0156,-0.7171885 0.0085,-1.4226456 0.04102,-2.15625 L 22.13215,3.8066186 20.612619,4.562478 C 19.877347,4.9281993 19.162419,5.3068898 18.452463,5.6796654 17.768201,3.5007898 16.237403,1.8018477 14.6009,0.50193108 Z" />
  <path fill="url(#rarity)" d="m 13.979659,1.2851562 c 1.551,1.232 2.944,2.803 3.537,4.727 -1.409,0.815 -2.215,2.55 -1.878,4.1479998 1.037,-0.2169998 1.98,-0.8589998 2.537,-1.7639998 0.338,-0.527 0.529,-1.137 0.599,-1.757 0.759,-0.398 1.516,-0.8 2.284,-1.182 -0.059,1.333 -0.122,2.667 -0.075,4.003 0.367,0.268 0.648,0.6549998 0.763,1.0979998 -1.111,1.217 -2.642,1.949 -4.201,2.405 -2.434,0.739 -5.088,0.691 -7.496,-0.12 -1.4229996,-0.455 -2.8049996,-1.168 -3.8189996,-2.288 0.115,-0.424 0.37,-0.8099998 0.731,-1.0629998 0.071,-0.26 0.033,-0.533 0.041,-0.799 0.012,-1.082 -0.024,-2.166 -0.108,-3.243 0.778,0.377 1.539,0.793 2.309,1.188 0.128,1.696 1.4639996,3.207 3.1389996,3.5209998 0.157,-0.9349998 0.014,-1.9259998 -0.482,-2.7409998 -0.339,-0.574 -0.826,-1.059 -1.4,-1.399 0.58,-1.929 1.983,-3.487 3.519,-4.733 z m -9.5669996,7.087 c -0.77,0.185 -1.45,0.726 -1.784,1.447 -0.335,0.6859998 -0.358,1.5029998 -0.102,2.2189998 -0.8,0.612 -1.448,1.508 -1.519,2.538 -0.059,0.903 0.285,1.806 0.846,2.506 0.152,-0.791 0.532,-1.549 1.131,-2.095 0.7,-0.588 1.755,-0.788 2.585,-0.365 0.532,0.271 0.886,0.82 0.98,1.402 0.068,0.54 0.002,1.091 -0.166,1.608 -0.352,1.105 -0.956,2.107 -1.574,3.081 -0.391,0.625 -0.585,1.37 -0.558,2.107 -0.027,0.817 0.165,1.632 0.481,2.382 0.378,-0.863 1.14,-1.547 2.049,-1.803 1.109,-0.308 2.369,-0.217 3.3529996,0.412 -0.002,-1.456 0,-2.912 -10e-4,-4.368 -0.5259996,0.591 -1.2849996,0.919 -2.0559996,1.036 1.23,-1.265 1.917,-3 2.0409996,-4.748 0.027,-0.559 0.01,-1.118 0.014,-1.677 -1.3179996,-0.405 -2.5749996,-1.011 -3.7019996,-1.804 -0.322,-0.238 -0.648,-0.482 -0.901,-0.796 -0.401,-0.462 -0.465,-1.163 -0.223,-1.7149998 0.189,-0.437 0.548,-0.771 0.95,-1.014 -0.487,-0.468 -1.222,-0.501 -1.846,-0.352 z m 17.3099996,0.345 c 0.656,0.396 1.198,1.121 1.072,1.9219998 -0.054,0.629 -0.552,1.074 -1.018,1.435 -1.178,0.885 -2.523,1.538 -3.928,1.976 0.02,0.785 -0.054,1.578 0.084,2.356 0.225,1.509 0.897,2.961 1.952,4.069 -0.76,-0.123 -1.526,-0.435 -2.036,-1.032 0.002,1.454 0.002,2.907 0,4.36 0.969,-0.613 2.202,-0.709 3.297,-0.42 0.927,0.249 1.709,0.94 2.098,1.815 0.564,-1.357 0.745,-3.005 0.009,-4.334 -0.585,-0.945 -1.186,-1.894 -1.565,-2.944 -0.212,-0.603 -0.367,-1.253 -0.261,-1.893 0.09,-0.601 0.467,-1.169 1.025,-1.428 0.843,-0.403 1.891,-0.177 2.581,0.424 0.574,0.548 0.937,1.292 1.093,2.066 0.558,-0.732 0.924,-1.652 0.83,-2.585 -0.086,-1.001 -0.726,-1.871 -1.506,-2.463 0.27,-0.769 0.225,-1.656 -0.18,-2.3719998 -0.438,-0.816 -1.334,-1.351 -2.257,-1.371 -0.464,-0.04 -0.942,0.106 -1.29,0.419 z m -10.545,5.6009998 c -0.002,4.873 0.002,9.744 -0.002,14.616 -0.016,0.241 0.102,0.46 0.186,0.679 0.597,1.396 1.515,2.648 2.633,3.672 1.202,-1.155 2.245,-2.538 2.778,-4.132 0.015,-4.953 0.003,-9.907 0.006,-14.861 -0.662,0.152 -1.337,0.223 -2.011,0.288 -0.106,3.738 -0.198,7.477 -0.337,11.214 -0.044,1.269 -0.046,2.567 -0.442,3.786 -0.296,-0.838 -0.349,-1.732 -0.41,-2.612 -0.143,-4.126 -0.27,-8.251 -0.366,-12.378 -0.684,-0.053 -1.365,-0.134 -2.036,-0.273 z"/>
</svg>
