<?xml version="1.0" encoding="UTF-8" standalone="no"?>
<!-- Generated by IcoMoon.io -->

<svg
   version="1.1"
   width="31.999418"
   height="15.837"
   viewBox="0 0 31.999418 15.837"
   id="svg6"
   sodipodi:docname="evg.svg"
   inkscape:version="1.1.1 (3bf5ae0d25, 2021-09-20)"
   xmlns:inkscape="http://www.inkscape.org/namespaces/inkscape"
   xmlns:sodipodi="http://sodipodi.sourceforge.net/DTD/sodipodi-0.dtd"
   xmlns="http://www.w3.org/2000/svg"
   xmlns:svg="http://www.w3.org/2000/svg">
  <defs
     id="defs10" />
  <sodipodi:namedview
     id="namedview8"
     pagecolor="#ffffff"
     bordercolor="#666666"
     borderopacity="1.0"
     inkscape:pageshadow="2"
     inkscape:pageopacity="0.0"
     inkscape:pagecheckerboard="0"
     showgrid="false"
     inkscape:zoom="25.75"
     inkscape:cx="15.980583"
     inkscape:cy="7.9029126"
     inkscape:window-width="1920"
     inkscape:window-height="1009"
     inkscape:window-x="-8"
     inkscape:window-y="-8"
     inkscape:window-maximized="1"
     inkscape:current-layer="svg6" />
  <title
     id="title2">evg</title>
  <path
     fill="#000000"
     d="m 22.683144,14.051 c 0,0 3.233,1.123 5.815,-0.843 2.588,-1.973 2.814,-3.533 2.936,-4.705 0,0 -0.869,2.117 -3.429,3.8 -1.5,0.987 -1.849,1.172 -5.322,1.747 z m 6.472,-0.617 c -3.143,2.65 -7.273,0.863 -7.273,0.863 1.666,-2.464 2.035,-4.376 0.987,-7.457 -0.056,-0.164 -0.118,-0.322 -0.186,-0.473 l -9.438,5.961 0.132,0.182 c 0,0 3.021,2.836 6.041,0.369 0,0 0.307,1.418 -1.48,2.035 -1.787,0.615 -4.252,-0.186 -5.362,-0.679 -0.701,-0.312 -1.033,-0.502 -1.306,-0.659 L 9.4721435,14.71 c 0.014,0.066 0.022,0.134 0.022,0.204 0,0.509 -0.413,0.923 -0.924,0.923 -0.509,0 -0.923,-0.414 -0.923,-0.923 0,-0.511 0.414,-0.925 0.923,-0.925 0.214,0 0.407,0.074 0.563,0.196 l 2.2150005,-1.52 c 0.302,-0.453 0.614,-1.144 0.614,-2.067 0,-1.785 -1.664,-3.265 -3.3290005,-3.265 -1.664,0 -3.327,1.664 -3.204,3.758 0,0 -1.911,-1.108 -3.76,-3.019 C -0.17985648,6.163 0.00514352,4.929 0.00514352,4.559 c 0,-0.37 0.124,-2.095 1.35599998,-3.143 1.232,-1.047 2.343,-0.616 2.836,-0.246 0,0 -3.20499998,0 -3.20499998,2.896 0,1.172 0.98599998,2.774 2.89599998,2.774 2.404,0 5.855,-4.068 8.8130005,-4.068 2.712,0 3.389,2.281 3.513,3.081 0,0 -4.627,0.605 -3.373,5.788 l 9.241,-6.337 c -1.356,-1.903 -3.463,-2.594 -3.463,-2.594 1.17,-2.402 3.944,-2.71 3.944,-2.71 0,0 -0.317,1.596 1.242,4.122 l 2.147,-1.472 0.124,-0.493 1.308,0.324 -0.076,1.294 -0.493,-0.016 -2.273,1.436 c 0.058,0.076 0.116,0.152 0.178,0.228 2.588,3.267 7.271,2.588 7.271,2.588 0,0 0.308,2.774 -2.834,5.424 z"
     id="path4" />
</svg>
