<?xml version="1.0" encoding="UTF-8" standalone="no"?>
<!-- Generated by IcoMoon.io -->

<svg
   version="1.1"
   width="32.005001"
   height="12.212"
   viewBox="0 0 32.005001 12.212"
   id="svg6"
   sodipodi:docname="exo.svg"
   inkscape:version="1.1.1 (3bf5ae0d25, 2021-09-20)"
   xmlns:inkscape="http://www.inkscape.org/namespaces/inkscape"
   xmlns:sodipodi="http://sodipodi.sourceforge.net/DTD/sodipodi-0.dtd"
   xmlns="http://www.w3.org/2000/svg"
   xmlns:svg="http://www.w3.org/2000/svg">
  <defs
     id="defs10" />
  <sodipodi:namedview
     id="namedview8"
     pagecolor="#ffffff"
     bordercolor="#666666"
     borderopacity="1.0"
     inkscape:pageshadow="2"
     inkscape:pageopacity="0.0"
     inkscape:pagecheckerboard="0"
     showgrid="false"
     inkscape:zoom="25.75"
     inkscape:cx="15.980583"
     inkscape:cy="6.0776699"
     inkscape:window-width="1920"
     inkscape:window-height="1009"
     inkscape:window-x="-8"
     inkscape:window-y="-8"
     inkscape:window-maximized="1"
     inkscape:current-layer="svg6" />
  <title
     id="title2">exo</title>
  <path
     fill="#000000"
     d="m 25.122,7.146 h -0.546 c 0,0 -0.259,-0.501 -1.034,-1.105 l 0.002,-2.769 c 0.699,0.374 1.23,0.729 1.58,0.98 L 25.122,7.147 Z M 21.241,4.823 C 20.635,4.589 19.993,4.378 19.181,4.225 V 1.698 c 0.743,0.154 1.432,0.35 2.06,0.568 z M 17.059,3.972 C 16.722,3.954 16.37,3.944 16.002,3.944 c -0.355,0 -0.725,0.01 -1.054,0.026 L 14.95,1.411 c 0.333,-0.024 0.678,-0.036 1.028,-0.038 h 0.037 c 0.355,0.002 0.705,0.014 1.044,0.038 z M 10.696,4.85 10.698,2.288 C 11.319,2.07 11.999,1.874 12.737,1.719 l 0.006,2.531 c -0.777,0.158 -1.467,0.366 -2.046,0.6 z M 8.454,6.168 C 7.782,6.744 7.545,7.202 7.545,7.202 H 6.886 V 4.251 C 7.231,4.001 7.761,3.649 8.453,3.278 v 2.89 z M 29.796,7.182 C 29.491,6.459 29.549,4.21 29.549,4.21 h -1.066 c 0,0 0.495,-0.228 0.495,-0.953 0,0 0.056,-1.142 -1.259,-1.142 -1.315,0 -1.2,1.485 -1.2,1.485 0,0 -3.972,-3.574 -10.501,-3.6 H 15.972 C 9.453,0.032 5.487,3.6 5.487,3.6 c 0,0 0.115,-1.485 -1.198,-1.485 -1.315,0 -1.259,1.142 -1.259,1.142 0,0.725 0.495,0.953 0.495,0.953 H 2.459 c 0,0 0.056,2.249 -0.249,2.972 H 0 v 2.364 c 0,0 1.905,-0.267 1.905,2.666 h 6.058 c 0,0 -0.152,-6.477 8.002,-6.478 h 0.074 c 8.156,0 8.002,6.478 8.002,6.478 h 6.061 c 0,-2.933 1.903,-2.666 1.903,-2.666 V 7.182 h -2.21 z"
     id="path4" />
</svg>
