<?xml version="1.0" encoding="UTF-8" standalone="no"?>
<svg
   version="1.1"
   width="31.036436"
   height="23.267578"
   viewBox="0 0 31.036436 23.267579"
   id="svg4"
   xmlns="http://www.w3.org/2000/svg"
   xmlns:svg="http://www.w3.org/2000/svg">
  <defs>
    <!-- This is the gradient that will actually be used on
     the cards. The colors themselves will be provided by the
     template, but the x values, y values, and offsets will be
     used from the SVG. -->
    <linearGradient id="rarity" x1="0" y1="1" x2="1" y2="0">
      <stop offset="0" style="stop-color:rgb(192,55,38);stop-opacity:1" id="stop2" />
      <stop offset="0.125" style="stop-color:rgb(192,55,38);stop-opacity:1" id="stop4" />
      <stop offset="0.5" style="stop-color:rgb(241,142,30);stop-opacity:1" id="stop6" />
      <stop offset="0.875" style="stop-color:rgb(192,55,38);stop-opacity:1" id="stop8" />
      <stop offset="1" style="stop-color:rgb(192,55,38);stop-opacity:1" id="stop10" />
    </linearGradient>
    <!-- These gradients are here so that you can visualize
     what the set symbol would like like in that rarity. The
     only gradient that matters in the end is the "rarity"
     gradient. -->
    <linearGradient id="mythic" x1="0" y1="1" x2="1" y2="0">
      <stop offset="0" style="stop-color:rgb(192,55,38);stop-opacity:1"/>
      <stop offset="0.125" style="stop-color:rgb(192,55,38);stop-opacity:1"/>
      <stop offset="0.5" style="stop-color:rgb(241,142,30);stop-opacity:1"/>
      <stop offset="0.875" style="stop-color:rgb(192,55,38);stop-opacity:1"/>
      <stop offset="1" style="stop-color:rgb(192,55,38);stop-opacity:1"/>
    </linearGradient>
    <linearGradient id="rare" x1="0" y1="1" x2="1" y2="0">
      <stop offset="0" style="stop-color:rgb(146,116,67);stop-opacity:1"/>
      <stop offset="0.125" style="stop-color:rgb(146,116,67);stop-opacity:1"/>
      <stop offset="0.5" style="stop-color:rgb(211,178,108);stop-opacity:1"/>
      <stop offset="0.875" style="stop-color:rgb(146,116,67);stop-opacity:1"/>
      <stop offset="1" style="stop-color:rgb(146,116,67);stop-opacity:1"/>
    </linearGradient>
    <linearGradient id="special" x1="0" y1="1" x2="1" y2="0">
      <stop offset="0" style="stop-color:rgb(76, 56, 106);stop-opacity:1"/>
      <stop offset="0.125" style="stop-color:rgb(76, 56, 106);stop-opacity:1"/>
      <stop offset="0.5" style="stop-color:rgb(201, 173, 221);stop-opacity:1"/>
      <stop offset="0.875" style="stop-color:rgb(76, 56, 106);stop-opacity:1"/>
      <stop offset="1" style="stop-color:rgb(76, 56, 106);stop-opacity:1"/>
    </linearGradient>
    <linearGradient id="uncommon" x1="0" y1="1" x2="1" y2="0">
      <stop offset="0" style="stop-color:rgb(98,110,119);stop-opacity:1"/>
      <stop offset="0.125" style="stop-color:rgb(98,110,119);stop-opacity:1"/>
      <stop offset="0.5" style="stop-color:rgb(196,222,238);stop-opacity:1"/>
      <stop offset="0.875" style="stop-color:rgb(98,110,119);stop-opacity:1"/>
      <stop offset="1" style="stop-color:rgb(98,110,119);stop-opacity:1"/>
    </linearGradient>
    <linearGradient id="common" x1="0" y1="1" x2="1" y2="0">
      <stop offset="0" style="stop-color:rgb(0,0,0);stop-opacity:1"/>
    </linearGradient>
    <linearGradient
            id="rarity-outline" x1="0" y1="1" x2="0" y2="1">
      <stop offset="0" style="stop-color:rgb(0,0,0);stop-opacity:1"/>
    </linearGradient>
  </defs>
  <path id="url(#rarity-outline)" d="M 15.484391,0 C 7.8605702,0 1.4086379,3.8307181 0.03712473,8.9609375 -0.22318989,9.9294192 0.94509029,10.63566 1.681656,9.9550781 2.3808677,9.3099058 3.2389384,8.7304292 4.1601716,8.1914062 3.6357846,9.2507024 3.3027497,10.391389 3.3027497,11.605469 c 0,1.215562 0.3327006,2.356785 0.8574219,3.416015 -0.9211681,-0.539688 -1.77904,-1.119796 -2.4785156,-1.765625 -0.73581691,-0.678605 -1.90176039,0.02484 -1.64453127,0.992188 1.37069887,5.131777 7.81754777,9.019531 15.44726627,9.019531 7.627814,0 14.140258,-3.878911 15.515625,-9.019531 0.257119,-0.966103 -0.905921,-1.670013 -1.642578,-0.994141 -0.700231,0.644971 -1.558233,1.224481 -2.478516,1.763672 0.523301,-1.057846 0.855469,-2.198584 0.855469,-3.412109 0,-1.21563 -0.333796,-2.357697 -0.859375,-3.417969 0.922704,0.539692 1.780792,1.1209056 2.482422,1.7675781 0.736657,0.6758709 1.899697,-0.028038 1.642578,-0.9941406 C 29.623865,3.8220014 23.107258,0 15.484391,0 Z" />
  <path fill="url(#rarity)" d="m 19.495922,18.662 c 1.656,-2.222 2.238,-3.972 2.238,-6.746 0,-2.772 -0.582,-4.519 -2.238,-6.739 2.896,1.248 4.441,3.61 4.43,6.766 -0.014,3.138 -1.551,5.47 -4.43,6.718 z m -3.919,0.327 c -1.876,0 -3.395,-3.211 -3.395,-7.178 0,-3.965 1.518,-7.176 3.395,-7.176 1.873,0 3.392,3.211 3.392,7.176 0,3.967 -1.519,7.178 -3.392,7.178 z M 7.0169216,11.943 c -0.013,-3.335 1.997,-5.939 5.2270004,-6.766 -2.119,1.937 -2.9680004,3.866 -2.9680004,6.739 0,2.874 0.8500004,4.803 2.9680004,6.746 C 9.0309216,17.835 7.0289216,15.265 7.0169216,11.944 Z M 26.733922,11.606 c 0,-2.38 -1.289,-4.535 -3.367,-6.081 2.68,0.854 4.97,2.13 6.668,3.695 C 28.841922,4.765 22.762922,1 15.484922,1 8.2059216,1 2.1949216,4.765 1.0039216,9.22 c 1.695,-1.564 3.986,-2.838 6.663,-3.695 -2.075,1.546 -3.365,3.702 -3.365,6.081 0,2.382 1.289,4.533 3.365,6.081 -2.677,-0.854 -4.968,-2.132 -6.663,-3.697 1.191,4.459 7.201,8.278 14.4810004,8.278 7.278,0 13.357,-3.819 14.55,-8.278 -1.698,1.564 -3.988,2.842 -6.668,3.697 2.078,-1.548 3.367,-3.699 3.367,-6.081 z"/>
</svg>
