<?xml version="1.0" encoding="UTF-8" standalone="no"?>
<svg
   version="1.1"
   width="29.441999"
   height="28.000999"
   viewBox="0 0 29.441999 28.000999"
   id="svg4"
   xmlns="http://www.w3.org/2000/svg"
   xmlns:svg="http://www.w3.org/2000/svg">
  <defs>
    <!-- This is the gradient that will actually be used on
     the cards. The colors themselves will be provided by the
     template, but the x values, y values, and offsets will be
     used from the SVG. -->
    <linearGradient id="rarity" x1="0" y1="0" x2="1" y2="1">
      <stop offset="0" style="stop-color:rgb(192,55,38);stop-opacity:1" id="stop2" />
      <stop offset="0.125" style="stop-color:rgb(192,55,38);stop-opacity:1" id="stop4" />
      <stop offset="0.5" style="stop-color:rgb(241,142,30);stop-opacity:1" id="stop6" />
      <stop offset="0.875" style="stop-color:rgb(192,55,38);stop-opacity:1" id="stop8" />
      <stop offset="1" style="stop-color:rgb(192,55,38);stop-opacity:1" id="stop10" />
    </linearGradient>
    <!-- These gradients are here so that you can visualize
     what the set symbol would like like in that rarity. The
     only gradient that matters in the end is the "rarity"
     gradient. -->
    <linearGradient id="mythic" x1="0" y1="1" x2="1" y2="0">
      <stop offset="0" style="stop-color:rgb(192,55,38);stop-opacity:1"/>
      <stop offset="0.125" style="stop-color:rgb(192,55,38);stop-opacity:1"/>
      <stop offset="0.5" style="stop-color:rgb(241,142,30);stop-opacity:1"/>
      <stop offset="0.875" style="stop-color:rgb(192,55,38);stop-opacity:1"/>
      <stop offset="1" style="stop-color:rgb(192,55,38);stop-opacity:1"/>
    </linearGradient>
    <linearGradient id="rare" x1="0" y1="1" x2="1" y2="0">
      <stop offset="0" style="stop-color:rgb(146,116,67);stop-opacity:1"/>
      <stop offset="0.125" style="stop-color:rgb(146,116,67);stop-opacity:1"/>
      <stop offset="0.5" style="stop-color:rgb(211,178,108);stop-opacity:1"/>
      <stop offset="0.875" style="stop-color:rgb(146,116,67);stop-opacity:1"/>
      <stop offset="1" style="stop-color:rgb(146,116,67);stop-opacity:1"/>
    </linearGradient>
    <linearGradient id="special" x1="0" y1="1" x2="1" y2="0">
      <stop offset="0" style="stop-color:rgb(76, 56, 106);stop-opacity:1"/>
      <stop offset="0.125" style="stop-color:rgb(76, 56, 106);stop-opacity:1"/>
      <stop offset="0.5" style="stop-color:rgb(201, 173, 221);stop-opacity:1"/>
      <stop offset="0.875" style="stop-color:rgb(76, 56, 106);stop-opacity:1"/>
      <stop offset="1" style="stop-color:rgb(76, 56, 106);stop-opacity:1"/>
    </linearGradient>
    <linearGradient id="uncommon" x1="0" y1="1" x2="1" y2="0">
      <stop offset="0" style="stop-color:rgb(98,110,119);stop-opacity:1"/>
      <stop offset="0.125" style="stop-color:rgb(98,110,119);stop-opacity:1"/>
      <stop offset="0.5" style="stop-color:rgb(196,222,238);stop-opacity:1"/>
      <stop offset="0.875" style="stop-color:rgb(98,110,119);stop-opacity:1"/>
      <stop offset="1" style="stop-color:rgb(98,110,119);stop-opacity:1"/>
    </linearGradient>
    <linearGradient id="common" x1="0" y1="1" x2="1" y2="0">
      <stop offset="0" style="stop-color:rgb(0,0,0);stop-opacity:1"/>
    </linearGradient>
    <linearGradient
            id="rarity-outline" x1="0" y1="1" x2="0" y2="1">
      <stop offset="0" style="stop-color:rgb(0,0,0);stop-opacity:1"/>
    </linearGradient>
  </defs>
  <path fill="url(#rarity-outline)" d="m 14.741,28.001 c 2.296,-2.249 4.733,-4.315 7.313,-6.197 2.58,-1.882 5.042,-3.392 7.388,-4.529 C 28.019,14.628 26.789,11.714 25.751,8.532 24.713,5.35 24.064,2.507 23.804,0 20.853,0.474 17.903,0.715 14.952,0.722 12.001,0.729 8.882,0.502 5.595,0.043 5.126,2.839 4.458,5.579 3.592,8.261 2.726,10.943 1.528,13.976 0,17.36 c 2.423,1.148 4.846,2.596 7.269,4.345 2.423,1.749 4.914,3.847 7.474,6.295 z"/>
  <path fill="url(#rarity)" d="m 24.971,17.986 c 0,0 -2.907,1.921 -4.401,3.019 -1.49,1.095 -4.163,3.231 -4.163,3.231 l -1.166,-3.075 7.319,-5.46 z M 18.837,5.935 21.628,14.542 14.372,19.863 7.116,14.542 9.875,5.935 h 8.961 z m -14.494,12.036 2.083,-2.172 7.298,5.317 -1.203,2.996 c 0,0 -2.864,-2.361 -4.363,-3.454 C 6.81,19.675 4.343,17.972 4.343,17.972 Z M 6.058,4.367 6.396,4.391 8.789,5.441 5.985,14.692 2.746,14.26 c 0,0 1.388,-3.657 2.041,-5.688 C 5.332,6.876 6.059,4.367 6.059,4.367 Z M 19.404,1.86 18.878,4.594 9.78,4.616 8.983,1.955 c 0,0 3.551,0.04 5.389,0.04 1.809,0 5.031,-0.135 5.031,-0.135 z m 6.845,12.628 -3.254,-0.052 -2.756,-9.12 2.574,-1.511 c 0,0 0.887,3.292 1.496,5.165 0.624,1.92 1.941,5.518 1.941,5.518 z"/>
</svg>
