<?xml version="1.0" encoding="UTF-8" standalone="no"?>
<svg
   version="1.1"
   width="34.530838"
   height="23.181728"
   viewBox="0 0 34.530838 23.181729"
   id="svg4"
   xmlns="http://www.w3.org/2000/svg"
   xmlns:svg="http://www.w3.org/2000/svg">
  <defs>
    <!-- This is the gradient that will actually be used on
     the cards. The colors themselves will be provided by the
     template, but the x values, y values, and offsets will be
     used from the SVG. -->
    <linearGradient id="rarity" x1="-0.25" y1="0" x2="1.25" y2="0">
      <stop offset="0" style="stop-color:rgb(192,55,38);stop-opacity:1" id="stop2" />
      <stop offset="0.125" style="stop-color:rgb(192,55,38);stop-opacity:1" id="stop4" />
      <stop offset="0.5" style="stop-color:rgb(241,142,30);stop-opacity:1" id="stop6" />
      <stop offset="0.875" style="stop-color:rgb(192,55,38);stop-opacity:1" id="stop8" />
      <stop offset="1" style="stop-color:rgb(192,55,38);stop-opacity:1" id="stop10" />
    </linearGradient>
    <!-- These gradients are here so that you can visualize
     what the set symbol would like like in that rarity. The
     only gradient that matters in the end is the "rarity"
     gradient. -->
    <linearGradient id="mythic" x1="0" y1="1" x2="1" y2="0">
      <stop offset="0" style="stop-color:rgb(192,55,38);stop-opacity:1"/>
      <stop offset="0.125" style="stop-color:rgb(192,55,38);stop-opacity:1"/>
      <stop offset="0.5" style="stop-color:rgb(241,142,30);stop-opacity:1"/>
      <stop offset="0.875" style="stop-color:rgb(192,55,38);stop-opacity:1"/>
      <stop offset="1" style="stop-color:rgb(192,55,38);stop-opacity:1"/>
    </linearGradient>
    <linearGradient id="rare" x1="0" y1="1" x2="1" y2="0">
      <stop offset="0" style="stop-color:rgb(146,116,67);stop-opacity:1"/>
      <stop offset="0.125" style="stop-color:rgb(146,116,67);stop-opacity:1"/>
      <stop offset="0.5" style="stop-color:rgb(211,178,108);stop-opacity:1"/>
      <stop offset="0.875" style="stop-color:rgb(146,116,67);stop-opacity:1"/>
      <stop offset="1" style="stop-color:rgb(146,116,67);stop-opacity:1"/>
    </linearGradient>
    <linearGradient id="special" x1="0" y1="1" x2="1" y2="0">
      <stop offset="0" style="stop-color:rgb(76, 56, 106);stop-opacity:1"/>
      <stop offset="0.125" style="stop-color:rgb(76, 56, 106);stop-opacity:1"/>
      <stop offset="0.5" style="stop-color:rgb(201, 173, 221);stop-opacity:1"/>
      <stop offset="0.875" style="stop-color:rgb(76, 56, 106);stop-opacity:1"/>
      <stop offset="1" style="stop-color:rgb(76, 56, 106);stop-opacity:1"/>
    </linearGradient>
    <linearGradient id="uncommon" x1="0" y1="1" x2="1" y2="0">
      <stop offset="0" style="stop-color:rgb(98,110,119);stop-opacity:1"/>
      <stop offset="0.125" style="stop-color:rgb(98,110,119);stop-opacity:1"/>
      <stop offset="0.5" style="stop-color:rgb(196,222,238);stop-opacity:1"/>
      <stop offset="0.875" style="stop-color:rgb(98,110,119);stop-opacity:1"/>
      <stop offset="1" style="stop-color:rgb(98,110,119);stop-opacity:1"/>
    </linearGradient>
    <linearGradient id="common" x1="0" y1="1" x2="1" y2="0">
      <stop offset="0" style="stop-color:rgb(0,0,0);stop-opacity:1"/>
    </linearGradient>
    <linearGradient
            id="rarity-outline" x1="0" y1="1" x2="0" y2="1">
      <stop offset="0" style="stop-color:rgb(0,0,0);stop-opacity:1"/>
    </linearGradient>
  </defs>
  <path fill="url(#rarity-outline)" d="M 17.255859 0 L 16.148438 2.1328125 C 15.827766 2.7499456 15.436403 3.498474 15.056641 4.2363281 C 14.43437 4.5314637 13.79427 4.8152372 13.322266 5.3769531 C 12.943616 5.8282725 12.768896 6.4255754 12.580078 7.0058594 C 12.214703 7.197195 11.835618 7.3537506 11.529297 7.7070312 C 10.858691 8.4697482 10.578077 9.4282987 10.59375 10.351562 C 10.59413 10.542366 10.593727 10.736387 10.59375 10.927734 C 10.245745 10.12067 9.898596 9.3127967 9.546875 8.5039062 L 8.3945312 5.8535156 L 7.2519531 8.5078125 C 6.7377501 9.7029606 6.2195899 10.898626 5.703125 12.095703 L 5.7402344 12.021484 C 5.6432654 12.210318 5.5995385 12.44444 5.5917969 12.662109 C 5.3181172 12.847308 5.0373323 13.020358 4.7929688 13.242188 C 4.5315883 12.574912 4.2724629 11.911985 4.0058594 11.242188 L 2.8378906 8.3085938 L 1.6816406 11.246094 C 1.1647544 12.558344 0.65183145 13.868034 0.13671875 15.175781 L 0.16601562 15.107422 C -0.084165815 15.644397 0.02033035 15.969368 0.0234375 15.873047 L 0.0234375 15.894531 L 0.0234375 23.181641 L 5.6699219 23.181641 L 5.6699219 19.533203 L 5.6699219 19.521484 C 5.6585604 18.921338 5.8721432 18.29547 6.2441406 17.845703 L 6.2460938 17.84375 L 6.25 17.839844 C 6.318244 17.756454 6.433179 17.727589 6.5136719 17.654297 C 6.8142086 18.040761 7.1137425 18.42681 7.4160156 18.814453 L 8.4003906 20.078125 L 9.3867188 18.816406 C 9.9141066 18.142115 10.433945 17.4678 10.955078 16.802734 L 11.21875 16.466797 L 11.220703 16.134766 C 11.453583 16.243836 11.728149 16.25062 11.933594 16.400391 L 11.9375 16.402344 L 11.941406 16.404297 C 12.56724 16.853508 13.000763 17.532807 13.28125 18.257812 C 12.817223 18.59507 12.319452 18.841648 11.960938 19.382812 C 11.445662 20.149569 11.222197 20.976881 11.095703 21.71875 L 10.847656 23.177734 L 12.328125 23.179688 C 15.621641 23.182688 18.914094 23.180595 22.205078 23.181641 L 23.667969 23.181641 L 23.439453 21.734375 C 23.302979 20.873174 23.020579 19.932 22.378906 19.109375 C 22.071599 18.713644 21.682344 18.532376 21.318359 18.261719 C 21.510278 17.773782 21.679293 17.264071 22.039062 16.890625 L 22.042969 16.886719 L 22.046875 16.882812 C 22.398625 16.511698 22.836062 16.22049 23.310547 16.003906 C 23.310538 16.009106 23.310556 16.014321 23.310547 16.019531 L 23.310547 16.447266 L 23.572266 16.785156 C 24.096882 17.464545 24.622438 18.140454 25.148438 18.814453 L 26.134766 20.076172 L 27.119141 18.814453 C 27.430265 18.41611 27.740277 18.017697 28.050781 17.619141 C 28.460047 17.99221 28.765253 18.542761 28.841797 19.115234 L 28.841797 19.119141 L 28.84375 19.123047 C 28.88032 19.381546 28.866604 19.747132 28.871094 20.21875 L 28.871094 23.181641 L 34.519531 23.181641 L 34.519531 16.140625 L 34.517578 16.113281 C 34.517599 16.113743 34.561778 15.893009 34.486328 15.472656 L 34.464844 15.351562 L 34.421875 15.238281 C 33.901811 13.904553 33.376994 12.573931 32.855469 11.244141 L 31.691406 8.2773438 L 30.527344 11.244141 C 30.266232 11.9102 30.005489 12.577723 29.744141 13.244141 C 29.498078 13.020876 29.21412 12.846148 28.9375 12.660156 C 28.9326 12.559166 28.949668 12.558881 28.929688 12.427734 L 28.90625 12.267578 L 28.841797 12.121094 C 28.323884 10.919326 27.80572 9.7150923 27.28125 8.5117188 L 26.138672 5.8886719 L 24.990234 8.5097656 C 24.62453 9.3445557 24.269465 10.173159 23.912109 11.001953 C 23.911963 10.693127 23.912697 10.385056 23.912109 10.076172 L 23.912109 10.035156 L 23.908203 9.9960938 C 23.863396 9.3139563 23.651251 8.637762 23.248047 8.0449219 L 23.246094 8.0429688 C 22.919336 7.5615859 22.416783 7.3284488 21.939453 7.0683594 C 21.723518 6.3741472 21.486826 5.6755849 20.998047 5.1621094 L 20.996094 5.1601562 L 20.994141 5.1601562 C 20.550932 4.6970156 19.989131 4.4569425 19.441406 4.2011719 C 19.08395 3.5166046 18.727662 2.8268652 18.365234 2.1308594 L 17.255859 0 z M 18.136719 9.2304688 C 18.429106 9.2405908 18.722113 9.259022 18.943359 9.28125 C 18.981319 9.28506 18.952261 9.2793263 18.988281 9.2851562 C 19.044091 9.4134533 19.106298 9.562402 19.173828 9.7695312 C 19.260198 10.034448 19.345636 10.32735 19.433594 10.607422 C 19.521554 10.887494 19.576762 11.121851 19.771484 11.460938 C 19.680837 11.310203 19.910024 11.913435 19.990234 12.412109 C 20.058213 12.83473 20.0703 13.264516 20.080078 13.373047 C 20.06117 13.410001 20.034254 13.45391 19.992188 13.503906 C 19.847068 13.676378 19.607037 13.914156 19.341797 14.146484 C 18.827168 14.597257 18.208067 15.042324 17.964844 15.201172 C 17.967367 15.192508 17.864734 15.23313 17.6875 15.232422 C 17.437282 15.231494 17.073175 15.183722 16.701172 15.099609 C 16.084572 14.960188 15.421557 14.679496 15.138672 14.537109 C 15.152959 14.507614 14.95781 14.272479 14.869141 13.978516 C 14.743616 13.56237 14.649836 13.088423 14.554688 12.720703 C 14.570011 12.764864 14.541047 12.578772 14.546875 12.357422 C 14.553475 12.110531 14.577104 11.793333 14.615234 11.478516 C 14.682754 10.92104 14.841707 10.405655 14.826172 10.376953 C 14.866962 10.337313 14.902522 10.294603 14.994141 10.248047 C 15.252087 10.116974 15.648298 9.9577241 16.064453 9.8164062 C 16.896763 9.5337705 17.862644 9.2971266 18.138672 9.2441406 L 18.136719 9.2304688 z " />
  <path fill="url(#rarity)" d="m 17.256734,2.7087276 c 0.402,0.772 0.798,1.546 1.202,2.316 0.611,0.2 1.186,0.532 1.633,0.999 0.475,0.499 0.808,1.141 0.907,1.825 0.485,0.163 0.926,0.472 1.214,0.897 0.267,0.392 0.418,0.86 0.449,1.3320004 0.002,1.052 0.001,2.105 0,3.158 0.595,-0.284 1.239,-0.456 1.894,-0.529 0.008,-0.044 0.018,-0.087 0.036,-0.128 0.518,-1.188 1.024,-2.381 1.544,-3.5680004 0.523,1.2000004 1.041,2.4030004 1.559,3.6050004 0.034,0.223 0.004,0.454 0.014,0.68 1.027,0.524 1.884,1.372 2.421,2.391 0.519,-1.329 1.041,-2.657 1.562,-3.986 0.522,1.331 1.046,2.661 1.565,3.992 0.028,0.156 0.005,0.317 0.012,0.475 0,1.921 0,3.843 0,5.764 -1.049,0 -2.098,0 -3.147,0 0,-0.575 0,-1.15 0,-1.724 -0.004,-0.42 0.018,-0.842 -0.041,-1.259 -0.119,-0.89 -0.559,-1.741 -1.242,-2.329 -0.327,-0.287 -0.711,-0.506 -1.119,-0.655 -0.019,0.098 -0.096,0.166 -0.153,0.244 -0.477,0.613 -0.954,1.225 -1.432,1.837 -0.526,-0.674 -1.052,-1.348 -1.574,-2.024 0.001,-0.545 0.001,-1.09 0,-1.636 -1.289,0.108 -2.531,0.698 -3.421,1.637 -0.684,0.71 -1.161,1.618 -1.358,2.584 0.605,0.323 1.186,0.723 1.61,1.269 0.462,0.591 0.697,1.323 0.813,2.055 -3.292,-10e-4 -6.584,0.002 -9.876,-10e-4 0.111,-0.651 0.299,-1.304 0.672,-1.856 0.428,-0.647 1.078,-1.107 1.753,-1.466 -0.259,-1.284 -1.02,-2.455 -2.083,-3.218 -0.786,-0.573 -1.731,-0.921 -2.6990002,-1.003 -0.002,0.548 0.002,1.097 -0.001,1.646 -0.525,0.67 -1.045,1.344 -1.569,2.014 -0.478,-0.613 -0.954,-1.227 -1.432,-1.84 -0.058,-0.077 -0.129,-0.146 -0.159,-0.24 -0.595,0.216 -1.128,0.592 -1.529,1.082 -0.574,0.694 -0.878,1.599 -0.861,2.497 0,0.795 0,1.591 0,2.386 -1.049,0 -2.098,0 -3.147,0 0,-2.006 0,-4.012 0,-6.018 0.003,-0.093 -0.015,-0.191 0.026,-0.279 0.516,-1.31 1.028,-2.621 1.544,-3.931 0.527,1.324 1.04,2.655 1.567,3.979 0.536,-1.019 1.393,-1.861 2.414,-2.389 0,-0.195 -10e-4,-0.389 0,-0.584 -10e-4,-0.042 0.008,-0.081 0.027,-0.118 0.516,-1.196 1.034,-2.392 1.549,-3.5890004 0.517,1.1890004 1.028,2.3810004 1.543,3.5710004 0.018,0.041 0.028,0.085 0.033,0.13 0.6450002,0.072 1.2840002,0.233 1.8690002,0.516 -0.004,-0.963 0,-1.927 -0.002,-2.89 -0.011,-0.6480004 0.194,-1.3130004 0.627,-1.8030004 0.277,-0.321 0.652,-0.542 1.047,-0.685 0.086,-0.611 0.366,-1.189 0.762,-1.661 0.463,-0.551 1.099,-0.939 1.78,-1.16 0.396,-0.773 0.799,-1.543 1.198,-2.315 z m -0.503,6.881 c -0.771,0.148 -1.456,0.6740004 -1.804,1.3770004 -0.283,0.555 -0.345,1.214 -0.188,1.816 0.152,0.584 0.519,1.106 1.012,1.452 0.835,0.603 2.037,0.624 2.892,0.049 0.624,-0.4 1.055,-1.085 1.148,-1.82 0.076,-0.558 -0.037,-1.139 -0.319,-1.626 -0.29,-0.505 -0.755,-0.9090004 -1.299,-1.1190004 -0.455,-0.18 -0.962,-0.22 -1.442,-0.128 z"/>
  <path fill="url(#rarity-outline)" d="m 17.078125,9.1972656 -0.384766,0.074219 c -0.874586,0.1678843 -1.638018,0.7516484 -2.033203,1.5468744 -3.03e-4,5.96e-4 3.03e-4,0.0014 0,0.002 -0.320787,0.630241 -0.389612,1.367303 -0.21289,2.044921 0.172229,0.661723 0.583893,1.244038 1.140625,1.634766 0.951351,0.684647 2.284099,0.70656 3.257812,0.05273 0.705568,-0.45431 1.185235,-1.215338 1.291016,-2.046875 0.08536,-0.629968 -0.04235,-1.279222 -0.361328,-1.830078 -0.327229,-0.569136 -0.845436,-1.0217785 -1.460938,-1.2597652 h -0.002 C 17.919109,9.2607778 17.49529,9.1724193 17.078125,9.1972656 Z m -0.267578,0.7128907 h 0.0039 c 0.421342,-0.080757 0.868199,-0.04435 1.261719,0.1113277 h 0.002 C 18.54957,10.20346 18.960369,10.560192 19.212932,11 c 0.244695,0.422577 0.345412,0.934497 0.279296,1.419922 v 0.002 0.002 c -0.08046,0.635887 -0.462633,1.24022 -1.001953,1.585938 l -0.002,0.002 -0.0039,0.002 c -0.734912,0.494239 -1.801642,0.475459 -2.519531,-0.04297 h -0.002 l -0.002,-0.002 c -0.429268,-0.301271 -0.752995,-0.761302 -0.884766,-1.267578 -0.137112,-0.52574 -0.08037,-1.106576 0.164062,-1.585938 v -0.002 -0.002 c 0.300716,-0.60748 0.906021,-1.072148 1.570313,-1.2011717 z"/>
</svg>
