<?xml version="1.0" encoding="UTF-8" standalone="no"?>
<!-- Generated by IcoMoon.io -->

<svg
   version="1.1"
   width="30.561995"
   height="28.883699"
   viewBox="0 0 30.561995 28.883699"
   id="svg6"
   sodipodi:docname="gs1.svg"
   inkscape:version="1.1.1 (3bf5ae0d25, 2021-09-20)"
   xmlns:inkscape="http://www.inkscape.org/namespaces/inkscape"
   xmlns:sodipodi="http://sodipodi.sourceforge.net/DTD/sodipodi-0.dtd"
   xmlns="http://www.w3.org/2000/svg"
   xmlns:svg="http://www.w3.org/2000/svg">
  <defs
     id="defs10" />
  <sodipodi:namedview
     id="namedview8"
     pagecolor="#ffffff"
     bordercolor="#666666"
     borderopacity="1.0"
     inkscape:pageshadow="2"
     inkscape:pageopacity="0.0"
     inkscape:pagecheckerboard="0"
     showgrid="false"
     inkscape:zoom="25.75"
     inkscape:cx="15.475728"
     inkscape:cy="14.427184"
     inkscape:window-width="1920"
     inkscape:window-height="1009"
     inkscape:window-x="-8"
     inkscape:window-y="-8"
     inkscape:window-maximized="1"
     inkscape:current-layer="svg6" />
  <title
     id="title2">gs1</title>
  <path
     fill="#000000"
     d="m 0.27288315,20.207468 c 0.591,1.197 1.03199995,1.672 1.32099995,1.424 0.182,-0.318 0.6,-2.208 1.253,-5.67 l 1.758,-0.749 0.375,-2.84 2.47,-0.566 3.2049999,-8.5140004 c 2.19,-1.025 4.312,-2.05 6.366,-3.07300003 1.011,-0.212 0.984,-1.075 1.87,3.07300003 0.591,2.765 1.017,4.476 1.278,5.132 l 3.347,1.9300004 3.181,8.314 2.565,3.919 c 0.452,-0.252 0.825,-0.729 1.117,-1.432 0.438,-1.054 0.886,8.285 -8.824,7.702 -9.71,-0.583 -8.257,-5.547 -17.8869999,-4.712 -3.11099995,0.27 -4.24299995,-1.042 -3.39599995,-3.936 z m 16.68699985,-2.033 c -2.342,0.337 -4.268,1.909 -1.838,5.166 1.207,-1.443 3.21,-2.769 5.478,-1.62 -3.64,1.62 -0.727,6.992 6.797,2.917 -1.309,-1.945 -2.396,-3.9 -3.26,-5.865 l -2.161,-6.393 -2.129,-0.9 -0.399,5.725 -1.937,-6.484 0.368,-2.7150004 -1.655,-5.89 -4.363,1.861 -3.9059999,10.1780004 -0.52,-0.75 -1.41,0.371 v 2.602 l -1.846,0.827 -0.543,3.97 c 0.626,-0.352 1.741,-0.938 3.044,-2.441 2.354,-2.717 6.8219999,-4.488 10.2779999,-0.559 z"
     id="path4" />
</svg>
