<?xml version="1.0" encoding="UTF-8" standalone="no"?>
<!-- Generated by IcoMoon.io -->

<svg
   version="1.1"
   width="28.35261"
   height="26.083076"
   viewBox="0 0 28.35261 26.083076"
   id="svg6"
   sodipodi:docname="h09.svg"
   inkscape:version="1.1.1 (3bf5ae0d25, 2021-09-20)"
   xmlns:inkscape="http://www.inkscape.org/namespaces/inkscape"
   xmlns:sodipodi="http://sodipodi.sourceforge.net/DTD/sodipodi-0.dtd"
   xmlns="http://www.w3.org/2000/svg"
   xmlns:svg="http://www.w3.org/2000/svg">
  <defs
     id="defs10" />
  <sodipodi:namedview
     id="namedview8"
     pagecolor="#ffffff"
     bordercolor="#666666"
     borderopacity="1.0"
     inkscape:pageshadow="2"
     inkscape:pageopacity="0.0"
     inkscape:pagecheckerboard="0"
     showgrid="false"
     inkscape:zoom="25.75"
     inkscape:cx="14.504854"
     inkscape:cy="13.029126"
     inkscape:window-width="1920"
     inkscape:window-height="1009"
     inkscape:window-x="-8"
     inkscape:window-y="-8"
     inkscape:window-maximized="1"
     inkscape:current-layer="svg6" />
  <title
     id="title2">h09</title>
  <path
     fill="#000000"
     d="m 0.10660957,19.207076 c 0,0 -1.19999997,-7.787 4.45200003,-13.7800001 5.6480004,-5.99300002 13.6960004,-6.39100002 19.1710004,-4.225 0,0 -1.026,0.915 -1.026,2.056 0,1.139 0.686,1.824 1.427,2.566 0.741,0.744 4.222,4.9660001 4.222,9.7590001 0,4.795 -3.937,10.5 -10.156,10.5 -6.219,0 -9.7590004,-4.507 -10.2710004,-9.7 0,0 3.0240004,5.134 7.9880004,5.134 4.964,0 6.676,-3.937 6.676,-6.849 0,-2.907 -1.597,-8.5010001 -8.615,-8.5010001 -7.0200004,0 -11.8690004,6.2200001 -13.86600043,13.0380001 z"
     id="path4" />
</svg>
