<?xml version="1.0" encoding="UTF-8" standalone="no"?>
<!-- Generated by IcoMoon.io -->

<svg
   version="1.1"
   width="30.253084"
   height="28.40736"
   viewBox="0 0 30.253084 28.40736"
   id="svg6"
   sodipodi:docname="h17.svg"
   inkscape:version="1.1.1 (3bf5ae0d25, 2021-09-20)"
   xmlns:inkscape="http://www.inkscape.org/namespaces/inkscape"
   xmlns:sodipodi="http://sodipodi.sourceforge.net/DTD/sodipodi-0.dtd"
   xmlns="http://www.w3.org/2000/svg"
   xmlns:svg="http://www.w3.org/2000/svg">
  <defs
     id="defs10" />
  <sodipodi:namedview
     id="namedview8"
     pagecolor="#ffffff"
     bordercolor="#666666"
     borderopacity="1.0"
     inkscape:pageshadow="2"
     inkscape:pageopacity="0.0"
     inkscape:pagecheckerboard="0"
     showgrid="false"
     inkscape:zoom="25.75"
     inkscape:cx="15.009709"
     inkscape:cy="14.194175"
     inkscape:window-width="1920"
     inkscape:window-height="1009"
     inkscape:window-x="-8"
     inkscape:window-y="-8"
     inkscape:window-maximized="1"
     inkscape:current-layer="svg6" />
  <title
     id="title2">h17</title>
  <path
     fill="#000000"
     d="m 22.841246,12.443858 c 2.198,-0.548 4.601,-1.159 7.211,-1.835 0.323,0.321 0.367,0.625 -0.719,1.869 -1.084,1.239 -3.23,3.196 -6.484,4.081 v 0.125 c 0.152,10.387 2.87,8.516 0.902,10.411 -1.311,1.264 -3.361,1.264 -6.148,0 l -0.352,-9.487 c -0.453,0.091 -0.92,0.187 -1.402,0.283 l -1.093,0.466 c -0.203,5.183 -0.266,8.096 -0.188,8.739 -1.74,1.577 -3.831,1.732 -6.2749999,0.464 -0.027,-2.909 -0.063,-5.67 -0.108,-8.285 -1.72,0.236 -3.309,0.37 -4.575,0.313 -4.52699998,-0.201 -6.47,-4.588 4.411,-7.857 -0.065,-2.4149998 -0.141,-4.6709998 -0.226,-6.7679998 -1.932,-2.078 0.362,-3.519 6.8829999,-4.32700002 -0.249,8.56300002 0.016,12.89999982 0.796,13.01099982 0.779,0.113 1.267,-0.083 1.464,-0.585 -0.268,-7.2929998 -0.268,-11.1709998 0,-11.6309998 1.581,-1.58800002 3.851,-1.85400002 6.813,-0.79900002 -0.551,2.96400002 -0.854,6.90100002 -0.91,11.81099982 z m -14.7249999,3.257 c -0.012,-0.604 -0.026,-1.198 -0.04,-1.784 -3.702,1.758 -3.689,2.353 0.04,1.784 z"
     id="path4" />
</svg>
