<?xml version="1.0" encoding="UTF-8" standalone="no"?>
<!-- Generated by IcoMoon.io -->

<svg
   version="1.1"
   width="31.938999"
   height="21.372999"
   viewBox="0 0 31.938999 21.372999"
   id="svg6"
   sodipodi:docname="ha1.svg"
   inkscape:version="1.1.1 (3bf5ae0d25, 2021-09-20)"
   xmlns:inkscape="http://www.inkscape.org/namespaces/inkscape"
   xmlns:sodipodi="http://sodipodi.sourceforge.net/DTD/sodipodi-0.dtd"
   xmlns="http://www.w3.org/2000/svg"
   xmlns:svg="http://www.w3.org/2000/svg">
  <defs
     id="defs10" />
  <sodipodi:namedview
     id="namedview8"
     pagecolor="#ffffff"
     bordercolor="#666666"
     borderopacity="1.0"
     inkscape:pageshadow="2"
     inkscape:pageopacity="0.0"
     inkscape:pagecheckerboard="0"
     showgrid="false"
     inkscape:zoom="25.75"
     inkscape:cx="15.941748"
     inkscape:cy="10.660194"
     inkscape:window-width="1920"
     inkscape:window-height="1009"
     inkscape:window-x="-8"
     inkscape:window-y="-8"
     inkscape:window-maximized="1"
     inkscape:current-layer="svg6" />
  <title
     id="title2">ha1</title>
  <path
     fill="#000000"
     d="M 8.183,0 V 0.134 L 6.26,1.043 v 7.899 h 6.259 V 3.786 q 0,-1.013 -0.127,-1.691 Q 12.265,1.417 11.975,1.037 11.685,0.657 11.386,0.478 11.087,0.299 10.596,0.135 V 10e-4 h 8.182 v 0.134 l -1.684,0.909 v 16.884 c -0.006,0.454 0.052,0.903 0.121,1.35 q 0.127,0.678 0.417,1.066 0.29,0.388 0.589,0.566 0.299,0.178 0.79,0.343 v 0.119 h -8.182 v -0.119 l 1.684,-1.043 v -5.424 l 0.005,-5.351 -2.325,1.803 H 6.259 v 6.349 q 0,1.013 0.127,1.692 0.127,0.679 0.417,1.066 0.29,0.387 0.589,0.566 0.299,0.179 0.79,0.343 v 0.119 H 0 V 21.254 L 1.684,20.211 V 1.046 L 0,0.137 V 0.003 h 8.182 z m 15.094,15.787 v 5.583 h 3.138 v -5.583 h 5.524 v -3.02 H 26.415 V 7.184 h -3.138 v 5.583 h -5.509 v 3.02 z"
     id="path4" />
</svg>
