<?xml version="1.0" encoding="UTF-8" standalone="no"?>
<svg
   version="1.1"
   width="29.813999"
   height="22.121"
   viewBox="0 0 29.813999 22.121"
   id="svg4"
   xmlns="http://www.w3.org/2000/svg"
   xmlns:svg="http://www.w3.org/2000/svg">
  <defs>
    <!-- This is the gradient that will actually be used on
     the cards. The colors themselves will be provided by the
     template, but the x values, y values, and offsets will be
     used from the SVG. -->
    <linearGradient id="rarity" x1="0" y1="0" x2="1" y2="0">
      <stop offset="0" style="stop-color:rgb(192,55,38);stop-opacity:1" id="stop2" />
      <stop offset="0.125" style="stop-color:rgb(192,55,38);stop-opacity:1" id="stop4" />
      <stop offset="0.5" style="stop-color:rgb(241,142,30);stop-opacity:1" id="stop6" />
      <stop offset="0.875" style="stop-color:rgb(192,55,38);stop-opacity:1" id="stop8" />
      <stop offset="1" style="stop-color:rgb(192,55,38);stop-opacity:1" id="stop10" />
    </linearGradient>
    <!-- These gradients are here so that you can visualize
     what the set symbol would like like in that rarity. The
     only gradient that matters in the end is the "rarity"
     gradient. -->
    <linearGradient id="mythic" x1="0" y1="1" x2="1" y2="0">
      <stop offset="0" style="stop-color:rgb(192,55,38);stop-opacity:1"/>
      <stop offset="0.125" style="stop-color:rgb(192,55,38);stop-opacity:1"/>
      <stop offset="0.5" style="stop-color:rgb(241,142,30);stop-opacity:1"/>
      <stop offset="0.875" style="stop-color:rgb(192,55,38);stop-opacity:1"/>
      <stop offset="1" style="stop-color:rgb(192,55,38);stop-opacity:1"/>
    </linearGradient>
    <linearGradient id="rare" x1="0" y1="1" x2="1" y2="0">
      <stop offset="0" style="stop-color:rgb(146,116,67);stop-opacity:1"/>
      <stop offset="0.125" style="stop-color:rgb(146,116,67);stop-opacity:1"/>
      <stop offset="0.5" style="stop-color:rgb(211,178,108);stop-opacity:1"/>
      <stop offset="0.875" style="stop-color:rgb(146,116,67);stop-opacity:1"/>
      <stop offset="1" style="stop-color:rgb(146,116,67);stop-opacity:1"/>
    </linearGradient>
    <linearGradient id="special" x1="0" y1="1" x2="1" y2="0">
      <stop offset="0" style="stop-color:rgb(76, 56, 106);stop-opacity:1"/>
      <stop offset="0.125" style="stop-color:rgb(76, 56, 106);stop-opacity:1"/>
      <stop offset="0.5" style="stop-color:rgb(201, 173, 221);stop-opacity:1"/>
      <stop offset="0.875" style="stop-color:rgb(76, 56, 106);stop-opacity:1"/>
      <stop offset="1" style="stop-color:rgb(76, 56, 106);stop-opacity:1"/>
    </linearGradient>
    <linearGradient id="uncommon" x1="0" y1="1" x2="1" y2="0">
      <stop offset="0" style="stop-color:rgb(98,110,119);stop-opacity:1"/>
      <stop offset="0.125" style="stop-color:rgb(98,110,119);stop-opacity:1"/>
      <stop offset="0.5" style="stop-color:rgb(196,222,238);stop-opacity:1"/>
      <stop offset="0.875" style="stop-color:rgb(98,110,119);stop-opacity:1"/>
      <stop offset="1" style="stop-color:rgb(98,110,119);stop-opacity:1"/>
    </linearGradient>
    <linearGradient id="common" x1="0" y1="1" x2="1" y2="0">
      <stop offset="0" style="stop-color:rgb(0,0,0);stop-opacity:1"/>
    </linearGradient>
    <linearGradient
            id="rarity-outline" x1="0" y1="1" x2="0" y2="1">
      <stop offset="0" style="stop-color:rgb(0,0,0);stop-opacity:1"/>
    </linearGradient>
  </defs>
  <path fill="#FFFFFF" d="M 14.908203 -1 C 9.8897508 -1 5.85972 0.77670967 3.1347656 3.6816406 C 0.4098113 6.5865716 -1 10.574652 -1 14.90625 L -1 14.925781 L -1 14.945312 C -1 14.945312 -0.990372 15.400813 -0.828125 15.914062 C -0.7470017 16.170686 -0.63028238 16.462926 -0.37695312 16.753906 C -0.12362386 17.044887 0.34156448 17.318359 0.83789062 17.318359 C 1.1264902 17.318359 1.4771958 17.295779 1.828125 17.041016 C 2.1790542 16.786252 2.3163083 16.399455 2.3691406 16.177734 C 2.4748053 15.734292 2.4627522 15.497717 2.6484375 15 C 3.1818217 13.568536 4.0331547 12.344504 5.0292969 11.242188 L 5.7070312 15.107422 C 3.9848815 16.712981 2.7675781 18.788041 2.7675781 21.21875 L 2.7675781 21.3125 L 2.7851562 21.404297 C 2.7851562 21.404297 2.8385183 21.728138 3.015625 22.087891 C 3.104178 22.267767 3.2254721 22.476351 3.4492188 22.679688 C 3.6729654 22.883025 4.0434261 23.072266 4.4472656 23.072266 C 5.0287673 23.072266 5.2994972 22.785393 5.5117188 22.585938 C 5.7239404 22.386482 5.8995045 22.175287 6.1015625 21.939453 C 6.5056785 21.467785 6.9934837 20.898472 7.6699219 20.332031 C 9.0227981 19.19915 11.094499 18.058594 14.748047 18.058594 C 18.401604 18.058594 20.548866 19.214085 21.972656 20.367188 C 22.684552 20.943739 23.206116 21.523896 23.634766 22 C 23.84909 22.238052 24.03476 22.448061 24.251953 22.644531 C 24.469146 22.841001 24.728369 23.121094 25.314453 23.121094 C 25.731877 23.121094 26.084614 22.924445 26.300781 22.732422 C 26.516949 22.540398 26.642392 22.347117 26.738281 22.175781 C 26.93006 21.83311 27.009766 21.519531 27.009766 21.519531 L 27.064453 21.324219 L 27.039062 21.125 C 26.739808 18.782044 25.601098 16.704012 24.087891 15.214844 L 24.78125 11.273438 C 25.770759 12.369307 26.620182 13.586911 27.171875 15.015625 L 27.171875 15.017578 L 27.173828 15.017578 C 27.298096 15.338248 27.291019 15.609359 27.392578 16.076172 C 27.443358 16.309578 27.542421 16.657106 27.861328 16.949219 C 28.180235 17.241331 28.613441 17.337891 28.960938 17.337891 L 28.974609 17.337891 L 28.990234 17.337891 C 29.663958 17.318601 30.232791 16.829766 30.480469 16.361328 C 30.728147 15.89289 30.802035 15.411078 30.814453 14.931641 L 30.814453 14.919922 L 30.814453 14.90625 C 30.814453 10.574651 29.404381 6.5865663 26.679688 3.6816406 C 23.954941 0.77666397 19.925704 -1 14.908203 -1 z M 14.513672 7.1679688 L 14.046875 8.2226562 L 12.421875 11.890625 C 11.614325 12.027248 10.828382 12.227133 10.070312 12.492188 L 6.3808594 9.9960938 C 8.4925809 8.3011456 11.215289 7.2405511 14.513672 7.1679688 z M 15.419922 7.1953125 C 18.646304 7.3054194 21.322469 8.3401809 23.408203 10.015625 L 19.685547 12.533203 C 18.985405 12.282886 18.263162 12.087478 17.523438 11.945312 L 15.419922 7.1953125 z " />
  <path fill="url(#rarity)" d="M 14.908203,0 C 5.3362031,0 0,6.67525 0,14.90625 c 0,0 0.05489062,1.412109 0.83789062,1.412109 0.78499998,0 0.41304688,-0.434968 0.87304688,-1.667968 1.894,-5.0830004 6.72325,-8.5292972 13.1562505,-8.5292972 6.432999,0 11.259281,3.4101562 13.238281,8.5351562 0.379,0.978 0.04247,1.681641 0.855469,1.681641 0.574356,-0.01645 0.834325,-0.690757 0.853515,-1.431641 C 29.814453,6.67525 24.478203,0 14.908203,0 Z m 0.05274,8.6269531 -1.81836,4.1035159 c -1.135,0.141934 -2.238531,0.427646 -3.2695311,0.835937 l -3.8828125,-2.626953 0.7773437,4.429688 c -1.826,1.49768 -3,3.522445 -3,5.849609 0,0 0.1606875,0.853516 0.6796875,0.853516 0.888,0 2.5617813,-5.013672 10.3007814,-5.013672 7.743,0 9.678406,5.0625 10.566406,5.0625 0.492,0 0.732422,-0.869141 0.732422,-0.869141 -0.297789,-2.331483 -1.481492,-4.504125 -3.017578,-5.794922 l 0.794922,-4.515625 -3.951172,2.671875 c -0.973,-0.393545 -2.010219,-0.67557 -3.074219,-0.835937 z"/>
  <path fill="#000000" d="M 14.908203,-0.25 C 10.064094,-0.25 6.2607904,1.4458162 3.6816406,4.1953125 1.1024909,6.9448088 -0.25,10.736729 -0.25,14.90625 v 0.0039 0.0059 c 0,0 0.0124589,0.378401 0.13671875,0.771484 0.0621299,0.196541 0.15100749,0.402185 0.30078125,0.574219 0.14977376,0.172034 0.37949674,0.30664 0.65039063,0.30664 0.21933727,0 0.39906527,-0.02604 0.54882807,-0.134765 0.1497629,-0.108725 0.2152563,-0.275682 0.2519532,-0.429688 0.073394,-0.30801 0.087719,-0.678821 0.3066406,-1.265625 1.8583593,-4.9873499 6.5781678,-8.3671872 12.9218755,-8.3671873 6.344642,0 11.062638,3.3426568 13.005859,8.3750003 0.173192,0.446917 0.179866,0.829598 0.253906,1.169922 0.03702,0.170161 0.09594,0.346505 0.242188,0.480468 0.146252,0.133964 0.352485,0.191407 0.591796,0.191407 h 0.0039 0.0039 c 0.383814,-0.01099 0.681348,-0.263583 0.847656,-0.578125 0.166309,-0.314543 0.237746,-0.699966 0.248047,-1.097657 v -0.002 -0.0039 c 0,-4.169522 -1.352735,-7.9614425 -3.931641,-10.7109375 C 23.553907,1.4458175 19.751325,-0.25 14.908203,-0.25 Z m 0,0.5 c 4.726869,0 8.377661,1.6412348 10.859375,4.2871094 2.480901,2.6450078 3.796014,6.3053566 3.796875,10.3652346 -0.0091,0.342372 -0.07763,0.663506 -0.189453,0.875 -0.111478,0.21084 -0.23112,0.30225 -0.419922,0.308593 -0.158183,-0.0014 -0.217633,-0.03073 -0.248047,-0.05859 -0.03115,-0.02853 -0.06395,-0.0888 -0.0918,-0.216797 -0.05569,-0.256 -0.07153,-0.713062 -0.27734,-1.244144 C 26.323116,9.3487597 21.388531,5.8710937 14.867188,5.8710937 8.3449066,5.8710938 3.4061994,9.3838596 1.4765625,14.5625 c -0.2410784,0.646195 -0.2723391,1.108449 -0.3242188,1.326172 -0.02594,0.108861 -0.042942,0.129262 -0.058594,0.140625 -0.015652,0.01136 -0.082697,0.03906 -0.25585937,0.03906 -0.12060573,0 -0.19270075,-0.04203 -0.27343751,-0.134765 C 0.48371637,15.840857 0.41274889,15.693595 0.36328125,15.537109 0.26493094,15.225989 0.25017811,14.904228 0.25,14.900391 c -1.06e-6,-2.3e-5 0,-0.0039 0,-0.0039 C 0.25215201,10.838995 1.5669609,7.1808157 4.046875,4.5371094 6.5288217,1.8912361 10.180322,0.25 14.908203,0.25 Z m 0.05274,7.7597656 -0.228516,0.515625 -1.769531,3.9960934 c -1.052919,0.143903 -2.076153,0.405206 -3.041016,0.775391 l -4.2792969,-2.894531 0.859375,4.902344 c -1.7953875,1.523864 -2.984375,3.560485 -2.984375,5.914062 v 0.02344 l 0.00391,0.02344 c 0,0 0.044907,0.240262 0.1679687,0.490234 0.061531,0.124986 0.1416987,0.256341 0.2636719,0.367188 0.1219732,0.110847 0.2958683,0.199219 0.4941406,0.199219 0.2286254,0 0.3883257,-0.13052 0.5507813,-0.283204 0.1624556,-0.152683 0.3336242,-0.35267 0.5351562,-0.58789 0.4030641,-0.470441 0.9258334,-1.081718 1.65625,-1.69336 1.4608332,-1.223282 3.7430852,-2.449218 7.5585942,-2.449218 3.817011,0 6.169274,1.237116 7.697265,2.474609 0.763996,0.618747 1.318454,1.239861 1.746094,1.714844 0.21382,0.237491 0.395384,0.438859 0.564453,0.591797 0.16907,0.152938 0.328823,0.28125 0.558594,0.28125 0.196606,0 0.365444,-0.0901 0.488281,-0.199219 0.122837,-0.109117 0.211676,-0.238966 0.28125,-0.363281 0.139149,-0.248632 0.203125,-0.490235 0.203125,-0.490235 l 0.01367,-0.04883 -0.0059,-0.04883 c -0.297998,-2.333383 -1.46898,-4.474005 -3.001919,-5.822266 l 0.878906,-4.994141 -4.345703,2.9375 c -0.906564,-0.355232 -1.863707,-0.614713 -2.845703,-0.773438 z m 0,1.234375 1.664062,3.7597654 0.136719,0.02149 c 1.044962,0.157497 2.063343,0.434357 3.017578,0.820312 l 0.123047,0.04883 3.574218,-2.416015 -0.71875,4.078125 0.111329,0.0918 c 1.4684,1.233919 2.616248,3.339472 2.916015,5.589843 -0.01299,0.04277 -0.04901,0.16597 -0.138672,0.326172 -0.05203,0.09297 -0.115164,0.180529 -0.175781,0.234375 -0.06062,0.05385 -0.106856,0.07227 -0.15625,0.07227 0.0078,0 -0.08762,-0.02843 -0.224609,-0.152344 -0.136988,-0.123917 -0.311908,-0.319523 -0.525391,-0.556641 -0.426967,-0.474235 -1.005958,-1.118748 -1.804687,-1.765625 -1.597459,-1.293754 -4.085738,-2.58789 -8.011719,-2.58789 -3.923483,0 -6.348055,1.280902 -7.8808595,2.564453 -0.7664022,0.641775 -1.3124809,1.284284 -1.7148438,1.753906 -0.2011814,0.234811 -0.3668155,0.425373 -0.4960937,0.546875 -0.1292782,0.121502 -0.2156099,0.148438 -0.2089844,0.148438 -0.061227,0 -0.1021257,-0.01917 -0.15625,-0.06836 -0.054124,-0.04919 -0.110781,-0.130357 -0.1542969,-0.21875 -0.080444,-0.163404 -0.1080614,-0.31097 -0.1132812,-0.335937 0.00711,-2.234148 1.1267818,-4.180408 2.9023437,-5.636719 l 0.1132813,-0.0918 -0.7011719,-3.99414 3.5039063,2.371093 0.1230469,-0.04883 C 10.97619,13.398331 12.060026,13.117808 13.173833,12.978525 l 0.140625,-0.01758 z"/>
</svg>
