<?xml version="1.0" encoding="UTF-8" standalone="no"?>
<!-- Generated by IcoMoon.io -->

<svg
   version="1.1"
   width="29.813999"
   height="22.121"
   viewBox="0 0 29.813999 22.121"
   id="svg6"
   sodipodi:docname="hop.svg"
   inkscape:version="1.1.1 (3bf5ae0d25, 2021-09-20)"
   xmlns:inkscape="http://www.inkscape.org/namespaces/inkscape"
   xmlns:sodipodi="http://sodipodi.sourceforge.net/DTD/sodipodi-0.dtd"
   xmlns="http://www.w3.org/2000/svg"
   xmlns:svg="http://www.w3.org/2000/svg">
  <defs
     id="defs10" />
  <sodipodi:namedview
     id="namedview8"
     pagecolor="#ffffff"
     bordercolor="#666666"
     borderopacity="1.0"
     inkscape:pageshadow="2"
     inkscape:pageopacity="0.0"
     inkscape:pagecheckerboard="0"
     showgrid="false"
     inkscape:zoom="25.75"
     inkscape:cx="14.970874"
     inkscape:cy="11.048544"
     inkscape:window-width="1920"
     inkscape:window-height="1009"
     inkscape:window-x="-8"
     inkscape:window-y="-8"
     inkscape:window-maximized="1"
     inkscape:current-layer="svg6" />
  <title
     id="title2">hop</title>
  <path
     fill="#000000"
     d="m 23.029,14.89 0.795,-4.9 -3.95,2.9 C 18.901,12.463 17.862,12.157 16.798,11.983 L 14.96,7.479 13.143,11.933 c -1.135,0.154 -2.239,0.464 -3.27,0.907 L 5.99,9.989 6.768,14.795 c -1.826,1.625 -3.001,3.821 -3.001,6.346 0,0 0.161,0.928 0.68,0.928 0.888,0 2.562,-5.441 10.301,-5.441 7.743,0 9.678,5.493 10.566,5.493 0.492,0 0.732,-0.942 0.732,-0.942 0,-2.488 -1.186,-4.663 -3.017,-6.29 z m 6.784,0.015 c 0,0 -0.106,1.433 -0.853,1.433 -0.813,0 -0.476,-0.703 -0.855,-1.681 C 26.126,9.532 21.301,6.121 14.868,6.121 8.435,6.121 3.605,9.567 1.711,14.65 1.251,15.883 1.622,16.319 0.837,16.319 0.054,16.319 0,14.906 0,14.906 0,6.675 5.336,0 14.908,0 c 9.57,0 14.906,6.675 14.906,14.906 z"
     id="path4" />
</svg>
