<?xml version="1.0" encoding="UTF-8" standalone="no"?>
<svg
   version="1.1"
   width="29.294823"
   height="34.36932"
   viewBox="0 0 29.294822 34.36932"
   id="svg4"
   xmlns="http://www.w3.org/2000/svg"
   xmlns:svg="http://www.w3.org/2000/svg">
  <defs>
    <!-- This is the gradient that will actually be used on
     the cards. The colors themselves will be provided by the
     template, but the x values, y values, and offsets will be
     used from the SVG. -->
    <linearGradient id="rarity" x1="-0.125" y1="0" x2="1.152" y2="0">
      <stop offset="0" style="stop-color:rgb(192,55,38);stop-opacity:1" id="stop2" />
      <stop offset="0.125" style="stop-color:rgb(192,55,38);stop-opacity:1" id="stop4" />
      <stop offset="0.5" style="stop-color:rgb(241,142,30);stop-opacity:1" id="stop6" />
      <stop offset="0.875" style="stop-color:rgb(192,55,38);stop-opacity:1" id="stop8" />
      <stop offset="1" style="stop-color:rgb(192,55,38);stop-opacity:1" id="stop10" />
    </linearGradient>
    <!-- These gradients are here so that you can visualize
     what the set symbol would like like in that rarity. The
     only gradient that matters in the end is the "rarity"
     gradient. -->
    <linearGradient id="mythic" x1="0" y1="1" x2="1" y2="0">
      <stop offset="0" style="stop-color:rgb(192,55,38);stop-opacity:1"/>
      <stop offset="0.125" style="stop-color:rgb(192,55,38);stop-opacity:1"/>
      <stop offset="0.5" style="stop-color:rgb(241,142,30);stop-opacity:1"/>
      <stop offset="0.875" style="stop-color:rgb(192,55,38);stop-opacity:1"/>
      <stop offset="1" style="stop-color:rgb(192,55,38);stop-opacity:1"/>
    </linearGradient>
    <linearGradient id="rare" x1="0" y1="1" x2="1" y2="0">
      <stop offset="0" style="stop-color:rgb(146,116,67);stop-opacity:1"/>
      <stop offset="0.125" style="stop-color:rgb(146,116,67);stop-opacity:1"/>
      <stop offset="0.5" style="stop-color:rgb(211,178,108);stop-opacity:1"/>
      <stop offset="0.875" style="stop-color:rgb(146,116,67);stop-opacity:1"/>
      <stop offset="1" style="stop-color:rgb(146,116,67);stop-opacity:1"/>
    </linearGradient>
    <linearGradient id="special" x1="0" y1="1" x2="1" y2="0">
      <stop offset="0" style="stop-color:rgb(76, 56, 106);stop-opacity:1"/>
      <stop offset="0.125" style="stop-color:rgb(76, 56, 106);stop-opacity:1"/>
      <stop offset="0.5" style="stop-color:rgb(201, 173, 221);stop-opacity:1"/>
      <stop offset="0.875" style="stop-color:rgb(76, 56, 106);stop-opacity:1"/>
      <stop offset="1" style="stop-color:rgb(76, 56, 106);stop-opacity:1"/>
    </linearGradient>
    <linearGradient id="uncommon" x1="0" y1="1" x2="1" y2="0">
      <stop offset="0" style="stop-color:rgb(98,110,119);stop-opacity:1"/>
      <stop offset="0.125" style="stop-color:rgb(98,110,119);stop-opacity:1"/>
      <stop offset="0.5" style="stop-color:rgb(196,222,238);stop-opacity:1"/>
      <stop offset="0.875" style="stop-color:rgb(98,110,119);stop-opacity:1"/>
      <stop offset="1" style="stop-color:rgb(98,110,119);stop-opacity:1"/>
    </linearGradient>
    <linearGradient id="common" x1="0" y1="1" x2="1" y2="0">
      <stop offset="0" style="stop-color:rgb(0,0,0);stop-opacity:1"/>
    </linearGradient>
    <linearGradient
            id="rarity-outline" x1="0" y1="1" x2="0" y2="1">
      <stop offset="0" style="stop-color:rgb(0,0,0);stop-opacity:1"/>
    </linearGradient>
  </defs>
  <path fill="url(#rarity)" d="m 11.056837,11.924531 c -1.1879992,2.201 -3.2059992,3.781 -4.5849992,5.846 -0.328,0.521 -0.668,1.1 -0.633,1.739 0.061,0.516 0.531,0.832 0.909,1.125 2.597,1.774 5.8399992,2.729 7.8529992,5.271 1.502,-1.836 3.696,-2.854 5.729,-3.971 0.974,-0.549 2.022,-1.028 2.826,-1.821 0.568,-0.558 0.212,-1.413 -0.123,-1.996 -1.309,-2.162 -3.381,-3.746 -4.656,-5.933 -0.56,-0.946 -0.868,-2.024 -0.977,-3.1129997 -0.24,-2.346 -0.149,-4.714 0.123,-7.052 1.266,3.156 1.897,6.747 4.351,9.2679997 1.744,1.934 4.178,3.131 5.744,5.241 0.802,1.052 1.359,2.392 1.121,3.735 -0.255,1.476 -1.314,2.646 -2.439,3.56 -2.469,1.962 -5.488,3.085 -7.931,5.085 -0.951,0.789 -1.811,1.698 -2.495,2.729 -0.492,0.73 -0.659906,1.431375 -1.011906,2.229375 l -0.417094,0.0016 c -0.331,-0.694 -0.517,-1.465 -0.947,-2.113 -0.979,-1.527 -2.337,-2.787 -3.8429992,-3.787 -2.199,-1.489 -4.684,-2.538 -6.753,-4.223 -1.13,-0.935 -2.18400001,-2.152 -2.37200001,-3.66 -0.182,-1.435 0.50800001,-2.809 1.40200001,-3.884 1.365,-1.694 3.305,-2.765 4.846,-4.273 1.195,-1.085 2.145,-2.4199997 2.791,-3.8989997 0.8400002,-1.96 1.2841242,-4.0675 2.1819992,-6.008 0.192526,3.3317609 0.813199,7.0902025 -0.694,9.9029997 z"/>
  <path fill="url(#rarity-outline)" d="M 12.135305,0 11.297414,1.8125 C 10.36799,3.8211846 9.9239302,5.9326611 9.1099144,7.8320313 8.491723,9.2468071 7.5830687,10.522511 6.4419456,11.558594 l -0.00781,0.0059 -0.00586,0.0059 c -1.4750437,1.443453 -3.4393153,2.523684 -4.8847675,4.316405 -5.975e-4,7.41e-4 -0.00136,0.0012 -0.00195,0.002 -0.94429605,1.13789 -1.71423174,2.632229 -1.5078125,4.259765 0.21291973,1.701955 1.372738,3.009286 2.5488282,3.982422 l 0.00195,0.002 h 0.00195 c 2.1422116,1.744624 4.6426432,2.797927 6.7871094,4.25 l 0.00195,0.002 h 0.00195 c 1.4601508,0.969556 2.7661578,2.18528 3.6992188,3.640625 l 0.002,0.0039 0.002,0.002 c 0.3657,0.5511 0.550499,1.294553 0.91211,2.052734 l 0.136718,0.285156 1.058594,-0.0039 0.130859,-0.296875 c 0.371965,-0.843261 0.530239,-1.501708 0.96875,-2.152344 h 0.002 v -0.002 c 0.65211,-0.982932 1.478674,-1.858009 2.398437,-2.621094 2.357449,-1.929177 5.372903,-3.051023 7.923828,-5.078125 l 0.002,-0.002 0.002,-0.002 c 1.167457,-0.948493 2.327704,-2.199136 2.615235,-3.859375 v -0.002 c 0.270017,-1.528052 -0.355002,-2.994317 -1.210938,-4.11914 l -0.002,-0.002 c -1.659809,-2.234948 -4.11624,-3.43765 -5.773437,-5.27539 l -0.0059,-0.0078 -0.0059,-0.0059 C 19.914617,8.5578131 19.280285,5.058334 17.986867,1.8339844 L 17.254445,0.0058594 17.02593,1.9609376 c -0.274999,2.3637756 -0.367816,4.7694952 -0.123047,7.1621093 0.115079,1.1474911 0.440654,2.2937381 1.042968,3.3125001 1.339802,2.298153 3.411974,3.885142 4.65625,5.9375 0.151855,0.265186 0.295242,0.580137 0.337891,0.833984 0.04294,0.255586 0.02091,0.397848 -0.134766,0.550781 -0.72101,0.711146 -1.721429,1.176989 -2.720703,1.740235 -1.862373,1.023014 -3.895067,2.05749 -5.458984,3.742187 C 12.490777,22.845142 9.4179315,21.846439 7.041555,20.226562 6.6590042,19.929612 6.3817982,19.697178 6.3462425,19.46289 6.3297558,19.023119 6.5767273,18.543996 6.8931175,18.041015 8.2125699,16.069075 10.2454,14.480261 11.496633,12.162109 v -0.002 l 0.06055,-0.109375 v -0.06636 c 1.510408,-3.0003586 0.880083,-6.7607885 0.693356,-9.9921874 z m -0.75,4.4882813 C 11.56652,7.104042 11.676214,9.7084616 10.615773,11.6875 l -0.0039,0.0078 c -1.1239444,2.076542 -3.1199044,3.645411 -4.5566461,5.796877 l -0.00391,0.0059 -0.00195,0.0059 c -0.3339833,0.530424 -0.7545568,1.201088 -0.7089838,2.033122 v 0.01563 l 0.00195,0.01563 c 0.093359,0.789727 0.7426439,1.184242 1.0996093,1.460938 l 0.011719,0.0098 0.011719,0.0078 c 2.688072,1.836211 5.8555586,2.785037 7.7441396,5.169922 l 0.384766,0.486328 0.392578,-0.480469 c 1.408256,-1.72141 3.530295,-2.721242 5.583984,-3.849609 l 0.002,-0.002 0.002,-0.002 c 0.948724,-0.534753 2.044653,-1.025538 2.93164,-1.90039 0.410982,-0.404961 0.496634,-0.969194 0.419922,-1.425782 -0.07681,-0.457162 -0.276998,-0.857117 -0.458984,-1.173828 l -0.0039,-0.0059 -0.002,-0.0039 c -1.374081,-2.269313 -3.443197,-3.851558 -4.652393,-5.925685 l -0.002,-0.0019 v -0.002 c -0.516072,-0.871878 -0.807149,-1.879551 -0.91011,-2.9082096 -0.143255,-1.4003222 0.0097,-2.8159124 0.07422,-4.2285156 0.804427,2.4146928 1.641928,4.8840506 3.541016,6.8378902 0.0017,0.0017 0.0022,0.0041 0.0039,0.0059 1.828593,2.020648 4.230626,3.210699 5.699219,5.189454 l 0.002,0.0039 0.002,0.002 c 0.745559,0.977966 1.231983,2.189001 1.027344,3.34375 v 0.002 c -0.223011,1.290839 -1.179611,2.37866 -2.261719,3.257813 -2.385677,1.894302 -5.406822,3.017356 -7.933594,5.085937 v 0.002 h -0.002 c -0.981161,0.814024 -1.874349,1.756395 -2.589844,2.833985 -0.415873,0.617047 -0.585119,1.185608 -0.804687,1.759765 -0.202567,-0.524908 -0.367236,-1.071812 -0.736328,-1.630859 v -0.002 C 12.89446,29.887612 11.486163,28.584576 9.9361283,27.554776 l -0.00391,-0.002 C 7.6808889,26.029012 5.215354,24.982328 3.2212425,23.359375 2.1377713,22.462874 1.1896343,21.336554 1.02593,20.023437 0.86878992,18.784448 1.4760007,17.532687 2.3169456,16.521484 l 0.00195,-0.0039 0.00195,-0.002 C 3.603616,14.923682 5.5165301,13.859715 7.1216331,12.291015 8.3662492,11.15881 9.355565,9.7697234 10.027883,8.2304688 v -0.00195 -0.00195 C 10.56798,6.9663351 10.968694,5.7363661 11.385305,4.4882813 Z"/>
</svg>
