<?xml version="1.0" encoding="UTF-8" standalone="no"?>
<svg
   version="1.1"
   width="28.104721"
   height="29.186008"
   viewBox="0 0 28.104721 29.186008"
   id="svg4"
   xmlns="http://www.w3.org/2000/svg"
   xmlns:svg="http://www.w3.org/2000/svg">
  <defs>
    <!-- This is the gradient that will actually be used on
     the cards. The colors themselves will be provided by the
     template, but the x values, y values, and offsets will be
     used from the SVG. -->
    <linearGradient id="rarity" x1="0" y1="1" x2="1" y2="0">
      <stop offset="0" style="stop-color:rgb(192,55,38);stop-opacity:1" id="stop2" />
      <stop offset="0.125" style="stop-color:rgb(192,55,38);stop-opacity:1" id="stop4" />
      <stop offset="0.5" style="stop-color:rgb(241,142,30);stop-opacity:1" id="stop6" />
      <stop offset="0.875" style="stop-color:rgb(192,55,38);stop-opacity:1" id="stop8" />
      <stop offset="1" style="stop-color:rgb(192,55,38);stop-opacity:1" id="stop10" />
    </linearGradient>
    <!-- These gradients are here so that you can visualize
     what the set symbol would like like in that rarity. The
     only gradient that matters in the end is the "rarity"
     gradient. -->
    <linearGradient id="mythic" x1="0" y1="1" x2="1" y2="0">
      <stop offset="0" style="stop-color:rgb(192,55,38);stop-opacity:1"/>
      <stop offset="0.125" style="stop-color:rgb(192,55,38);stop-opacity:1"/>
      <stop offset="0.5" style="stop-color:rgb(241,142,30);stop-opacity:1"/>
      <stop offset="0.875" style="stop-color:rgb(192,55,38);stop-opacity:1"/>
      <stop offset="1" style="stop-color:rgb(192,55,38);stop-opacity:1"/>
    </linearGradient>
    <linearGradient id="rare" x1="0" y1="1" x2="1" y2="0">
      <stop offset="0" style="stop-color:rgb(146,116,67);stop-opacity:1"/>
      <stop offset="0.125" style="stop-color:rgb(146,116,67);stop-opacity:1"/>
      <stop offset="0.5" style="stop-color:rgb(211,178,108);stop-opacity:1"/>
      <stop offset="0.875" style="stop-color:rgb(146,116,67);stop-opacity:1"/>
      <stop offset="1" style="stop-color:rgb(146,116,67);stop-opacity:1"/>
    </linearGradient>
    <linearGradient id="special" x1="0" y1="1" x2="1" y2="0">
      <stop offset="0" style="stop-color:rgb(76, 56, 106);stop-opacity:1"/>
      <stop offset="0.125" style="stop-color:rgb(76, 56, 106);stop-opacity:1"/>
      <stop offset="0.5" style="stop-color:rgb(201, 173, 221);stop-opacity:1"/>
      <stop offset="0.875" style="stop-color:rgb(76, 56, 106);stop-opacity:1"/>
      <stop offset="1" style="stop-color:rgb(76, 56, 106);stop-opacity:1"/>
    </linearGradient>
    <linearGradient id="uncommon" x1="0" y1="1" x2="1" y2="0">
      <stop offset="0" style="stop-color:rgb(98,110,119);stop-opacity:1"/>
      <stop offset="0.125" style="stop-color:rgb(98,110,119);stop-opacity:1"/>
      <stop offset="0.5" style="stop-color:rgb(196,222,238);stop-opacity:1"/>
      <stop offset="0.875" style="stop-color:rgb(98,110,119);stop-opacity:1"/>
      <stop offset="1" style="stop-color:rgb(98,110,119);stop-opacity:1"/>
    </linearGradient>
    <linearGradient id="common" x1="0" y1="1" x2="1" y2="0">
      <stop offset="0" style="stop-color:rgb(0,0,0);stop-opacity:1"/>
    </linearGradient>
    <linearGradient
            id="rarity-outline" x1="0" y1="1" x2="0" y2="1">
      <stop offset="0" style="stop-color:rgb(0,0,0);stop-opacity:1"/>
    </linearGradient>
  </defs>
  <path fill="url(#rarity)" d="m 16.341484,0 c 0.369,0 0.538,0.205 2.094,2.22 0.527,0.683 1.047,1.371 1.56,2.065 0.83,0.053 1.659,0.115 2.489,0.175 l 0.028,0.002 c 1.36,0.099 1.47,0.107 1.878,0.136 0.269,0.019 0.471,0.033 0.61,0.042 0.073,0.005 0.127,0.008 0.161,0.01 -0.189,0.056 -0.062,0.009 0.08,0.003 0.145,0.032 0.145,0.032 0.212,0.07 0.058,0.036 0.058,0.036 0.154,0.143 0.075,0.155 0.075,0.155 0.066,0.131 -0.011,-0.028 -0.011,-0.028 -0.013,-0.032 0,0.001 0.004,0.009 0.01,0.02 0.014,0.029 0.037,0.075 0.069,0.136 0.06,0.118 0.15,0.29 0.267,0.516 0.19,0.365 0.408,0.779 0.83,1.584 0.001,0.001 0.001,0.001 0.001,0.002 0.504,0.96 0.639,1.216 0.822,1.567 0.119,0.228 0.209,0.402 0.272,0.524 0.034,0.067 0.061,0.118 0.079,0.155 0.011,0.021 0.019,0.038 0.025,0.052 0.065,0.138 0.05,0.102 0.055,0.208 0.007,0.152 0.084,-0.034 -0.989,2.537 -0.325,0.776 -0.648,1.553 -0.985,2.324 0.525,1.207 1.032,2.422 1.527,3.642 0.148,0.363 0.363,0.777 0.447,1.169 0.006,0.14 0.056,0.023 -0.076,0.299 -0.018,0.039 -0.045,0.092 -0.079,0.16 -0.063,0.126 -0.154,0.305 -0.27,0.529 -0.212,0.412 -0.501,0.971 -0.815,1.573 -1.128,2.165 -1.225,2.347 -1.317,2.432 -0.022,0.02 -0.045,0.038 -0.07,0.053 -0.157,0.1 -0.307,0.113 -2.868,0.304 -0.879,0.066 -1.759,0.129 -2.639,0.183 l -2.86,4.037 c -0.096,0.136 -0.252,0.216 -0.418,0.215 -0.017,0 -0.017,0 -0.096,-0.001 -0.107,0 -0.167,-10e-4 -0.266,-10e-4 -0.283,-0.001 -0.59,-0.003 -0.91,-0.004 -0.455,-0.002 -0.898,-0.003 -1.315,-0.005 -0.732,-0.002 -1.341,-0.002 -1.785,0 -0.251,10e-4 -0.446,0.003 -0.579,0.005 -0.067,0.001 -0.117,0.002 -0.148,0.004 -0.01,0 -0.015,10e-4 -0.012,0 l -0.177,-0.007 c -0.319,-0.153 -0.378,-0.305 -0.423,-0.364 -0.079,-0.104 -0.19,-0.251 -0.364,-0.481 -0.058,-0.076 -0.41,-0.541 -0.521,-0.687 -0.225,-0.297 -0.416,-0.55 -0.599,-0.791 -0.005,-0.007 -0.005,-0.007 -0.011,-0.014 -0.487,-0.648 -0.98,-1.29 -1.46,-1.943 -0.815,-0.053 -1.629,-0.117 -2.444,-0.179 h -0.006 c -1.047,-0.08 -1.443,-0.11 -1.861,-0.14 -0.836,-0.074 -0.961,-0.05 -1.09,-0.146 -0.193,-0.266 -0.216,-0.312 -0.246,-0.372 -0.06,-0.118 -0.149,-0.292 -0.265,-0.515 -0.204,-0.395 -0.486,-0.936 -0.827,-1.587 -0.005,-0.009 -0.005,-0.009 -0.01,-0.019 -0.261,-0.5 -0.54199997,-1.034 -0.82199997,-1.568 -0.098,-0.187 -0.189,-0.36 -0.271,-0.516 -0.045,-0.087 -0.045,-0.087 -0.076,-0.144 -0.022,-0.042 -0.022,-0.042 -0.027,-0.051 -0.072,-0.136 -0.078,-0.298 -0.016,-0.441 v 0 0 0 0 c 0,-0.001 0,-0.001 0.001,-0.003 l 0.005,-0.01 c 0.007,-0.016 0.007,-0.016 0.018,-0.041 0.027,-0.062 0.027,-0.062 0.067,-0.154 0.072,-0.166 0.152,-0.351 0.239,-0.549 0.247,-0.569 0.494,-1.137 0.72599997,-1.667 0.005,-0.012 0.005,-0.012 0.011,-0.025 0.318,-0.726 0.633,-1.454 0.959,-2.176 -0.35,-0.767 -0.689,-1.538 -1.028,-2.31 -0.26699997,-0.608 -0.51299997,-1.173 -0.69199997,-1.59 -0.096,-0.224 -0.173,-0.403 -0.225,-0.531 -0.028,-0.069 -0.05,-0.122 -0.066,-0.162 -0.091,-0.235 -0.0670000013,-0.165 -0.052,-0.301 0.02,-0.181 2.40399997,-4.765 2.53099997,-4.896 0.027,-0.028 0.058,-0.053 0.09,-0.074 0.115,-0.074 -0.151,-0.04 0.283,-0.086 0.04,-0.004 0.097,-0.01 0.17,-0.017 0.14,-0.013 0.339,-0.031 0.585,-0.053 0.485,-0.043 1.131,-0.098 1.783,-0.153 0.873,-0.072 1.745,-0.148 2.618,-0.207 0.431,-0.634 0.874,-1.26 1.315,-1.887 l 0.013,-0.019 c 0.165,-0.234 0.337,-0.478 0.545,-0.773 0.071,-0.101 0.396,-0.561 0.474,-0.672 0.157,-0.222 0.26,-0.368 0.332,-0.471 0.231,-0.291 0.231,-0.291 0.384,-0.367 0.252,-0.019 0.302,-0.018 0.369,-0.017 0.13,10e-4 0.321,0.002 0.567,0.003 0.434,0.001 1.027,0 1.74,-10e-4 0.384,-0.001 0.791,-0.002 1.21,-0.003 0.328,-0.001 0.645,-0.002 0.938,-0.003 0.164,-0.001 0.164,-0.001 0.276,-0.001 h 0.1 0.002 z"/>
  <path fill="url(#rarity-outline)" d="M 16.341797 0 L 16.339844 0.00390625 L 16.337891 0.00390625 L 16.238281 0.00390625 C 16.126281 0.00390625 16.124938 0.00290625 15.960938 0.00390625 C 15.667937 0.00490625 15.351437 0.0068125 15.023438 0.0078125 C 14.604438 0.0088125 14.198453 0.008765625 13.814453 0.009765625 C 13.101453 0.010765625 12.508219 0.01271875 12.074219 0.01171875 C 11.828219 0.01071875 11.635859 0.0088125 11.505859 0.0078125 C 11.438859 0.0068125 11.388719 0.006390625 11.136719 0.025390625 C 10.983719 0.10139062 10.984906 0.10157813 10.753906 0.39257812 C 10.681906 0.49557813 10.578875 0.64128125 10.421875 0.86328125 C 10.343875 0.97428125 10.018266 1.4341563 9.9472656 1.5351562 C 9.7392656 1.8301562 9.5673437 2.0745938 9.4023438 2.3085938 L 9.3886719 2.3261719 C 8.9476719 2.9531719 8.5052187 3.5808438 8.0742188 4.2148438 C 7.2012187 4.2738438 6.3300313 4.349875 5.4570312 4.421875 C 4.8050313 4.476875 4.1588281 4.5312187 3.6738281 4.5742188 C 3.4278281 4.5962188 3.2278906 4.6139531 3.0878906 4.6269531 C 3.0148906 4.6339531 2.9579688 4.6405313 2.9179688 4.6445312 C 2.4839687 4.6905313 2.7497656 4.6564688 2.6347656 4.7304688 C 2.6027656 4.7514687 2.5719219 4.7766875 2.5449219 4.8046875 C 2.4179219 4.9356875 0.033671875 9.5182188 0.013671875 9.6992188 C -0.0013281263 9.8352188 -0.02459375 9.7669531 0.06640625 10.001953 C 0.08240625 10.041953 0.1048125 10.093109 0.1328125 10.162109 C 0.1848125 10.290109 0.26142188 10.469359 0.35742188 10.693359 C 0.53642188 11.110359 0.78182816 11.675203 1.0488281 12.283203 C 1.3878281 13.055203 1.728125 13.82675 2.078125 14.59375 C 1.752125 15.31575 1.4371406 16.043531 1.1191406 16.769531 C 1.1131406 16.782531 1.1124219 16.782922 1.1074219 16.794922 C 0.8754219 17.324922 0.62785937 17.893891 0.38085938 18.462891 C 0.29385938 18.660891 0.21457812 18.845719 0.14257812 19.011719 C 0.10257812 19.103719 0.10317187 19.102062 0.076171875 19.164062 C 0.065171875 19.189063 0.063640625 19.189078 0.056640625 19.205078 L 0.052734375 19.216797 C 0.052734375 19.216797 0.05078125 19.21875 0.05078125 19.21875 C -0.01121875 19.36175 -0.003640625 19.524156 0.068359375 19.660156 C 0.073359375 19.669156 0.07175 19.668937 0.09375 19.710938 C 0.12475 19.767937 0.12492188 19.768469 0.16992188 19.855469 C 0.25192187 20.011469 0.34340625 20.184094 0.44140625 20.371094 C 0.72140625 20.905094 1.0026719 21.439453 1.2636719 21.939453 C 1.2686719 21.949453 1.2684375 21.948031 1.2734375 21.957031 C 1.6144375 22.608031 1.8956094 23.149922 2.0996094 23.544922 C 2.2156094 23.767922 2.3052344 23.942547 2.3652344 24.060547 C 2.3952344 24.120547 2.4183281 24.165641 2.6113281 24.431641 C 2.7403281 24.527641 2.8651719 24.504125 3.7011719 24.578125 C 4.1191719 24.608125 4.5155 24.63875 5.5625 24.71875 L 5.5683594 24.71875 C 6.3833594 24.78075 7.1967188 24.843484 8.0117188 24.896484 C 8.4917188 25.549484 8.9856562 26.191844 9.4726562 26.839844 C 9.4786562 26.846844 9.479375 26.846516 9.484375 26.853516 C 9.667375 27.094516 9.8570313 27.347531 10.082031 27.644531 C 10.193031 27.790531 10.545516 28.256031 10.603516 28.332031 C 10.777516 28.562031 10.887797 28.7085 10.966797 28.8125 C 11.011797 28.8715 11.071625 29.024734 11.390625 29.177734 L 11.568359 29.183594 C 11.565359 29.184594 11.570078 29.183594 11.580078 29.183594 C 11.611078 29.181594 11.659562 29.180688 11.726562 29.179688 C 11.859563 29.177688 12.055641 29.176781 12.306641 29.175781 C 12.750641 29.173781 13.359797 29.173781 14.091797 29.175781 C 14.508797 29.177781 14.95125 29.177688 15.40625 29.179688 C 15.72625 29.180688 16.033406 29.182594 16.316406 29.183594 C 16.415406 29.183594 16.475031 29.185547 16.582031 29.185547 C 16.661031 29.186547 16.660734 29.185547 16.677734 29.185547 C 16.843734 29.186547 16.999703 29.106703 17.095703 28.970703 L 19.957031 24.933594 C 20.837031 24.879594 21.716703 24.817953 22.595703 24.751953 C 25.156703 24.560953 25.305891 24.547266 25.462891 24.447266 C 25.487891 24.432266 25.511203 24.414531 25.533203 24.394531 C 25.625203 24.309531 25.721609 24.127891 26.849609 21.962891 C 27.163609 21.360891 27.454016 20.800672 27.666016 20.388672 C 27.782016 20.164672 27.872547 19.985375 27.935547 19.859375 C 27.969547 19.791375 27.995672 19.738219 28.013672 19.699219 C 28.145672 19.423219 28.095844 19.540391 28.089844 19.400391 C 28.005844 19.008391 27.790578 18.595422 27.642578 18.232422 C 27.147578 17.012422 26.642187 15.796844 26.117188 14.589844 C 26.454187 13.818844 26.776563 13.041625 27.101562 12.265625 C 28.174563 9.694625 28.096844 9.8805156 28.089844 9.7285156 C 28.084844 9.6225156 28.100156 9.6594844 28.035156 9.5214844 C 28.029156 9.5074844 28.020766 9.48975 28.009766 9.46875 C 27.991766 9.43175 27.965641 9.3814531 27.931641 9.3144531 C 27.868641 9.1924531 27.779156 9.0170625 27.660156 8.7890625 C 27.477156 8.4380625 27.341891 8.1826563 26.837891 7.2226562 C 26.837891 7.2226562 26.835938 7.2207031 26.835938 7.2207031 C 26.413938 6.4157031 26.195859 6.0017188 26.005859 5.6367188 C 25.888859 5.4107188 25.800234 5.2390938 25.740234 5.1210938 C 25.708234 5.0600937 25.683922 5.013375 25.669922 4.984375 C 25.671637 4.9886905 25.669861 4.9859954 25.673828 4.9960938 C 25.682828 5.0200938 25.682422 5.0202344 25.607422 4.8652344 C 25.511422 4.7582344 25.511125 4.7586562 25.453125 4.7226562 C 25.386125 4.6846562 25.387187 4.6843438 25.242188 4.6523438 C 25.100188 4.6583438 24.973109 4.7063906 25.162109 4.6503906 C 25.128109 4.6483906 25.073 4.645625 25 4.640625 C 24.861 4.631625 24.659625 4.6166563 24.390625 4.5976562 C 23.982625 4.5686562 23.871719 4.5618906 22.511719 4.4628906 L 22.484375 4.4609375 C 21.654375 4.4009375 20.826094 4.3381562 19.996094 4.2851562 C 19.483094 3.5911563 18.962547 2.9037031 18.435547 2.2207031 C 16.879547 0.20570313 16.710797 0 16.341797 0 z M 15.96875 1.0195312 C 16.09575 1.0185312 16.03225 1.0205312 16.15625 1.0195312 L 16.160156 1.0195312 L 16.167969 1.0253906 C 16.257969 1.1223906 16.383063 1.2680312 16.539062 1.4570312 C 16.824063 1.8010312 17.200766 2.2797969 17.634766 2.8417969 C 18.331766 3.7437969 19.191688 4.8925 19.304688 5.0625 C 19.397688 5.2015 19.553703 5.2860625 19.720703 5.2890625 C 19.852703 5.2920625 20.665016 5.3485625 22.416016 5.4765625 L 22.443359 5.4785156 C 23.805359 5.5775156 23.915219 5.5842813 24.324219 5.6132812 C 24.507219 5.6262812 24.690047 5.6403438 24.873047 5.6523438 C 24.951047 5.8043438 25.030375 5.9554219 25.109375 6.1074219 C 25.299375 6.4724219 25.516453 6.8873594 25.939453 7.6933594 C 25.939453 7.6933594 25.941406 7.6953125 25.941406 7.6953125 C 26.445406 8.6543125 26.578719 8.9097656 26.761719 9.2597656 C 26.880719 9.4857656 26.96925 9.6573438 27.03125 9.7773438 C 26.96225 9.9473437 26.894219 10.117109 26.824219 10.287109 C 26.647219 10.717109 26.408016 11.291094 26.166016 11.871094 C 25.617016 13.184094 25.172375 14.231516 25.109375 14.353516 C 25.033375 14.499516 25.033375 14.673312 25.109375 14.820312 C 25.173375 14.945313 25.618063 15.991828 26.164062 17.298828 C 26.407062 17.879828 26.645266 18.451859 26.822266 18.880859 C 26.893266 19.052859 26.963203 19.223484 27.033203 19.396484 L 27.03125 19.400391 C 26.96925 19.523391 26.879625 19.700875 26.765625 19.921875 C 26.554625 20.331875 26.266125 20.887281 25.953125 21.488281 C 25.656125 22.058281 25.357813 22.627688 25.132812 23.054688 C 25.046812 23.217687 24.960047 23.379969 24.873047 23.542969 C 24.539047 23.573969 24.725406 23.55875 24.316406 23.59375 C 23.852406 23.63275 23.221391 23.682375 22.525391 23.734375 C 21.162391 23.836375 19.855641 23.924734 19.681641 23.927734 C 19.518641 23.930734 19.367438 24.009578 19.273438 24.142578 L 16.423828 28.166016 L 16.326172 28.166016 C 16.043172 28.165016 15.736016 28.163109 15.416016 28.162109 C 14.960016 28.160109 14.515656 28.15725 14.097656 28.15625 C 13.364656 28.15525 12.753641 28.15425 12.306641 28.15625 C 11.896641 28.15825 12.079859 28.156156 11.755859 28.160156 C 11.643859 28.012156 11.531922 27.864797 11.419922 27.716797 C 11.361922 27.640797 11.009438 27.175297 10.898438 27.029297 C 10.673437 26.731297 10.481828 26.479281 10.298828 26.238281 C 10.292828 26.231281 10.294063 26.231609 10.289062 26.224609 C 9.3620625 25.000609 8.7868906 24.233094 8.7128906 24.121094 C 8.6198906 23.979094 8.4610156 23.893578 8.2910156 23.892578 C 8.1630156 23.891578 7.4433906 23.838172 5.6503906 23.701172 L 5.6425781 23.701172 C 4.5945781 23.621172 4.1992969 23.5925 3.7792969 23.5625 C 3.5992969 23.5495 3.4202344 23.535438 3.2402344 23.523438 C 3.1632344 23.374438 3.0848125 23.225172 3.0078125 23.076172 C 2.8028125 22.680172 2.5206875 22.136375 2.1796875 21.484375 C 2.1746875 21.474375 2.1749219 21.475797 2.1699219 21.466797 C 1.9079219 20.966797 1.6257031 20.430484 1.3457031 19.896484 C 1.1647031 19.551484 1.2519375 19.716391 1.0859375 19.400391 C 1.2349375 19.057391 1.1583594 19.236187 1.3183594 18.867188 C 1.5653594 18.298188 1.8119687 17.731172 2.0429688 17.201172 C 2.0489688 17.188172 2.0496875 17.187781 2.0546875 17.175781 C 2.6406875 15.833781 3.0347031 14.942219 3.0957031 14.824219 C 3.1707031 14.677219 3.16975 14.501469 3.09375 14.355469 C 3.02475 14.223469 2.527375 13.108047 1.984375 11.873047 C 1.718375 11.267047 1.4729219 10.705016 1.2949219 10.291016 C 1.2209219 10.119016 1.1481719 9.9473906 1.0761719 9.7753906 L 1.0800781 9.7695312 C 1.1410781 9.6455312 1.23075 9.47 1.34375 9.25 C 1.55675 8.834 1.8473438 8.2725 2.1523438 7.6875 C 2.4553437 7.1045 2.74875 6.5439531 2.96875 6.1269531 C 3.05575 5.9629531 3.1405156 5.7997188 3.2285156 5.6367188 C 3.5455156 5.6067187 3.366625 5.6238906 3.765625 5.5878906 C 4.248625 5.5448906 4.8939219 5.4885937 5.5449219 5.4335938 C 7.0379219 5.3085937 8.2131406 5.2168437 8.3691406 5.2148438 C 8.5471406 5.2118437 8.7107813 5.1158906 8.8007812 4.9628906 C 8.8707812 4.8438906 9.3896094 4.0961562 10.224609 2.9101562 L 10.238281 2.8925781 C 10.402281 2.6585781 10.575203 2.4141406 10.783203 2.1191406 C 10.854203 2.0181406 11.177859 1.5582656 11.255859 1.4472656 C 11.354859 1.3062656 11.455687 1.1663906 11.554688 1.0253906 C 11.853688 1.0273906 11.681219 1.0263438 12.074219 1.0273438 C 12.510219 1.0283438 13.103359 1.0273906 13.818359 1.0253906 C 14.203359 1.0243906 14.610297 1.0244375 15.029297 1.0234375 C 15.357297 1.0224375 15.67475 1.0205312 15.96875 1.0195312 z M 14.574219 2.3710938 L 14.576172 2.3769531 L 13.458984 2.3769531 C 13.273984 2.4109531 13.368359 2.3692031 13.193359 2.5332031 C 13.193359 2.5332031 13.191406 2.5332031 13.191406 2.5332031 C 13.190406 2.5362031 13.191453 2.5360625 13.189453 2.5390625 C 13.186453 2.5420625 13.186547 2.5409219 13.185547 2.5449219 C 13.180547 2.5529219 13.182781 2.5475469 13.175781 2.5605469 C 13.162781 2.5825469 13.148813 2.6086719 13.132812 2.6386719 C 13.087813 2.7226719 13.038375 2.8206875 12.984375 2.9296875 C 12.831375 3.2396875 12.678156 3.5803125 12.535156 3.9453125 C 12.208156 4.8533125 12.367031 4.3552187 12.082031 5.4492188 L 11.369141 3.9804688 C 11.262141 3.7604687 10.953078 3.7489375 10.830078 3.9609375 L 10.142578 5.1425781 C 10.095578 5.2235781 10.089047 5.31925 10.123047 5.40625 L 11.351562 8.5371094 L 11.503906 10.195312 L 10.068359 9.1796875 L 7.9355469 6.5761719 C 7.8765469 6.5041719 7.7883125 6.4638437 7.6953125 6.4648438 L 6.3300781 6.4863281 C 6.0850781 6.4903281 5.9439844 6.7657969 6.0839844 6.9667969 L 7.0019531 8.2851562 C 6.3199531 8.1081563 5.6287813 7.9612969 4.9257812 7.9042969 C 4.6757813 7.8812969 4.4415156 7.8654219 4.2285156 7.8574219 C 4.0955156 7.8524219 3.9965938 7.8496094 3.9335938 7.8496094 L 3.9316406 7.8496094 C 3.9156406 7.8106094 3.7440156 7.8668594 3.6660156 8.0058594 L 3.1191406 8.9824219 C 3.0741406 9.0624219 3.0675625 9.1581406 3.1015625 9.2441406 C 3.2075625 9.5091406 3.3869063 9.7927031 3.6289062 10.095703 C 3.8519062 10.373703 4.1244062 10.666703 4.4414062 10.970703 C 4.6734062 11.189703 4.9053438 11.408328 5.1523438 11.611328 C 4.9203437 11.598328 5.0519531 11.606891 4.7519531 11.587891 C 4.6959531 11.584891 4.6380781 11.580172 4.5800781 11.576172 C 4.3280781 11.560172 4.0694531 11.543391 3.8144531 11.525391 C 3.7254531 11.519391 3.6433125 11.514766 3.5703125 11.509766 C 3.4953125 11.504766 3.4945156 11.504906 3.4785156 11.503906 C 3.2405156 11.486906 3.0755937 11.735266 3.1835938 11.947266 L 3.796875 13.144531 C 3.844875 13.237531 3.9370156 13.298594 4.0410156 13.308594 L 7.4726562 13.630859 L 8.7011719 14.566406 L 7.46875 15.554688 L 4.0410156 15.875 C 3.9360156 15.884 3.844875 15.946063 3.796875 16.039062 L 3.1835938 17.240234 C 3.0755937 17.451234 3.2415156 17.700594 3.4785156 17.683594 C 3.4955156 17.681594 3.4962656 17.680781 3.5722656 17.675781 C 3.6462656 17.670781 3.7293125 17.664203 3.8203125 17.658203 C 4.0803125 17.640203 4.3446094 17.622469 4.5996094 17.605469 L 4.7519531 17.595703 C 5.0429531 17.576703 4.9297031 17.584219 5.0957031 17.574219 C 4.7607031 17.868219 4.9127187 17.729375 4.6367188 17.984375 C 3.8817188 18.694375 3.3315625 19.3615 3.1015625 19.9375 C 3.0675625 20.0225 3.0741406 20.119219 3.1191406 20.199219 L 3.6660156 21.175781 C 3.7010156 21.238781 3.7562187 21.2875 3.8242188 21.3125 C 4.0912187 21.3725 4.3921563 21.342359 4.6601562 21.318359 C 5.4601562 21.247359 6.2544375 21.100188 7.0234375 20.867188 L 6.0839844 22.216797 C 5.9439844 22.417797 6.0850781 22.691312 6.3300781 22.695312 L 7.6953125 22.716797 C 7.7883125 22.717797 7.8765469 22.677469 7.9355469 22.605469 L 10.064453 20.011719 L 11.535156 19.066406 L 11.535156 20.619141 L 10.126953 23.888672 C 10.085953 23.983672 10.097297 24.091734 10.154297 24.177734 L 10.902344 25.298828 C 11.036344 25.499828 11.338547 25.471 11.435547 25.25 C 11.443547 25.233 11.457516 25.199344 11.478516 25.152344 C 11.513516 25.074344 11.55175 24.986578 11.59375 24.892578 C 11.71375 24.622578 11.836172 24.352563 11.951172 24.101562 C 11.972172 24.054562 11.972141 24.054813 11.994141 24.007812 C 12.111141 23.756812 12.062812 23.856938 12.132812 23.710938 C 12.218813 24.123937 12.309781 24.535406 12.425781 24.941406 C 12.645781 25.703406 12.903656 26.300406 13.222656 26.691406 C 13.276656 26.757406 13.355453 26.796734 13.439453 26.802734 C 13.454453 26.803734 13.481531 26.806594 13.519531 26.808594 C 13.582531 26.812594 13.649703 26.814359 13.720703 26.818359 C 13.819703 26.823359 13.916813 26.827078 14.007812 26.830078 C 14.162813 26.835078 14.295438 26.836031 14.398438 26.832031 C 14.462437 26.830031 14.515547 26.827313 14.560547 26.820312 C 14.681547 26.802313 14.750219 26.778828 14.824219 26.673828 C 14.917219 26.542828 15.202687 25.975969 15.429688 25.417969 C 15.800688 24.425969 15.616172 24.984422 15.951172 23.732422 L 16.664062 25.199219 C 16.771063 25.419219 17.081125 25.43075 17.203125 25.21875 L 17.886719 24.035156 C 17.933719 23.955156 17.94025 23.858484 17.90625 23.771484 L 16.683594 20.654297 L 16.683594 19.152344 L 18.041016 20.011719 L 20.171875 22.603516 C 20.230875 22.674516 20.319109 22.716844 20.412109 22.714844 L 21.775391 22.693359 C 22.020391 22.689359 22.161484 22.415844 22.021484 22.214844 L 21.085938 20.871094 C 21.824938 21.065094 23.545891 21.532203 24.337891 21.283203 C 24.433891 21.222203 24.465891 21.166891 24.712891 20.712891 L 24.728516 20.683594 C 24.786516 20.575594 24.849156 20.45875 24.910156 20.34375 C 24.947156 20.27475 24.974234 20.220453 24.990234 20.189453 C 25.031234 20.110453 25.036906 20.018547 25.003906 19.935547 C 24.894906 19.662547 24.711891 19.368688 24.462891 19.054688 C 24.241891 18.775687 23.973016 18.483594 23.666016 18.183594 C 23.136016 17.688594 23.358812 17.885031 23.007812 17.582031 C 23.141813 17.590031 23.025562 17.584516 23.351562 17.603516 C 24.310563 17.660516 24.311859 17.660688 24.630859 17.679688 C 24.865859 17.693687 25.026922 17.446328 24.919922 17.236328 L 24.308594 16.035156 C 24.260594 15.942156 24.168453 15.879141 24.064453 15.869141 L 20.630859 15.548828 L 19.292969 14.511719 L 20.619141 13.626953 L 24.064453 13.304688 C 24.169453 13.294687 24.258641 13.231672 24.306641 13.138672 L 24.919922 11.941406 C 25.028922 11.727406 24.861047 11.479047 24.623047 11.498047 C 24.611047 11.499047 24.609641 11.499906 24.556641 11.503906 C 24.504641 11.507906 24.445859 11.512578 24.380859 11.517578 C 24.193859 11.532578 23.996828 11.545594 23.798828 11.558594 C 23.664828 11.567594 23.536109 11.575031 23.412109 11.582031 C 23.103109 11.599031 23.256219 11.592469 22.949219 11.605469 L 22.994141 11.566406 C 23.079141 11.492406 23.151656 11.429234 23.222656 11.365234 C 23.405656 11.202234 23.568609 11.052344 23.724609 10.902344 C 24.073609 10.566344 24.359938 10.251219 24.585938 9.9492188 C 24.771938 9.7012188 24.911953 9.4652344 25.001953 9.2402344 C 25.033953 9.1602344 25.032141 9.0711406 24.994141 8.9941406 C 24.979141 8.9621406 24.951016 8.9078906 24.916016 8.8378906 C 24.858016 8.7208906 24.799187 8.6050937 24.742188 8.4960938 C 24.726187 8.4640938 24.719984 8.4535937 24.708984 8.4335938 C 24.489984 8.0225937 24.431969 7.9291406 24.292969 7.8691406 C 24.023969 7.7951406 23.723219 7.8197969 23.449219 7.8417969 C 22.648219 7.9077969 21.854891 8.0657344 21.087891 8.3027344 L 22.021484 6.9609375 C 22.161484 6.7599375 22.020391 6.4844687 21.775391 6.4804688 L 20.412109 6.4609375 C 20.319109 6.4599375 20.230875 6.5002656 20.171875 6.5722656 L 18.041016 9.1699219 L 16.521484 10.144531 L 16.5 8.4628906 L 17.902344 5.2890625 C 17.944344 5.1930625 17.934953 5.0830937 17.876953 4.9960938 L 17.130859 3.8769531 C 16.996859 3.6749531 16.691703 3.7037813 16.595703 3.9257812 C 16.587703 3.9427813 16.574687 3.9754844 16.554688 4.0214844 C 16.520688 4.0984844 16.484359 4.1833906 16.443359 4.2753906 C 16.327359 4.5393906 16.207703 4.8028281 16.095703 5.0488281 C 16.073703 5.0958281 16.073734 5.0965781 16.052734 5.1425781 C 15.937734 5.3925781 15.990391 5.2826562 15.900391 5.4726562 C 15.809391 5.0526563 15.71475 4.6327031 15.59375 4.2207031 C 15.37275 3.4537031 15.120547 2.866375 14.810547 2.484375 C 14.752547 2.413375 14.666219 2.3710938 14.574219 2.3710938 z M 14.078125 4.9101562 C 14.119125 5.0021563 14.095391 4.9449375 14.150391 5.0859375 C 14.270391 5.4039375 14.389906 5.8178437 14.503906 6.3398438 C 14.639906 7.0198437 14.757172 7.7035313 14.826172 8.3945312 L 14.042969 12.808594 L 13.154297 8.4238281 L 13.15625 8.4140625 C 13.16525 8.3620625 13.173547 8.302375 13.185547 8.234375 C 13.219547 8.038375 13.260594 7.8199844 13.308594 7.5839844 C 13.444594 6.9119844 13.607016 6.2392813 13.791016 5.6132812 C 13.960016 5.0692812 13.881578 5.3031094 14.017578 4.9121094 L 14.078125 4.9101562 z M 22.539062 9.6191406 L 22.548828 9.6347656 C 22.556828 9.6487656 22.557453 9.6491094 22.564453 9.6621094 L 22.578125 9.6894531 C 22.057125 10.289453 21.499063 10.858484 20.914062 11.396484 C 20.596062 11.687484 20.280266 11.979906 19.947266 12.253906 L 19.9375 12.257812 C 19.9045 12.269813 19.856922 12.285641 19.794922 12.306641 C 19.675922 12.346641 19.507969 12.402656 19.292969 12.472656 C 18.911969 12.597656 18.397297 12.764891 17.779297 12.962891 L 17.740234 12.974609 C 17.244234 13.133609 16.711688 13.303656 16.179688 13.472656 C 15.846688 13.578656 16.000703 13.528187 15.720703 13.617188 L 19.220703 10.726562 C 20.102703 10.346563 20.994781 9.9831875 21.925781 9.7421875 C 22.168781 9.6801875 22.367484 9.6410937 22.521484 9.6210938 L 22.539062 9.6191406 z M 5.5332031 9.625 C 5.7322031 9.656 5.9290469 9.6941406 6.1230469 9.7441406 C 7.0560469 9.9931406 7.9597969 10.334563 8.8417969 10.726562 L 12.339844 13.615234 C 12.062844 13.526234 12.213812 13.57575 11.882812 13.46875 C 11.350813 13.29775 10.819266 13.126797 10.322266 12.966797 C 10.317266 12.965797 10.3175 12.964891 10.3125 12.962891 C 8.9975 12.537891 8.1152656 12.251375 8.0722656 12.234375 C 7.2132656 11.711375 6.2101875 10.370266 5.4921875 9.6972656 L 5.5332031 9.6269531 L 5.5332031 9.625 z M 15.724609 15.580078 C 16.001609 15.667078 15.848688 15.620609 16.179688 15.724609 C 16.711688 15.892609 17.244234 16.062703 17.740234 16.220703 C 17.767234 16.229703 17.766969 16.228328 17.792969 16.236328 C 18.401969 16.430328 18.912063 16.59475 19.289062 16.71875 C 19.501063 16.78875 19.668109 16.845719 19.787109 16.886719 C 19.848109 16.907719 19.894734 16.923547 19.927734 16.935547 L 19.939453 16.939453 C 20.408453 17.369453 20.862266 17.817812 21.322266 18.257812 C 21.695266 18.618813 22.024578 18.941547 22.267578 19.185547 C 22.400578 19.319547 22.507031 19.427813 22.582031 19.507812 L 22.630859 19.560547 L 22.625 19.570312 L 22.613281 19.587891 C 22.572281 19.585891 22.610094 19.587219 22.496094 19.574219 C 22.339094 19.552219 22.144297 19.513172 21.904297 19.451172 C 20.983297 19.200172 20.09075 18.85575 19.21875 18.46875 L 15.724609 15.580078 z M 12.332031 15.583984 L 8.8417969 18.46875 C 7.9567969 18.84975 7.0590469 19.212172 6.1230469 19.451172 C 5.9280469 19.498172 5.7322031 19.545266 5.5332031 19.572266 L 5.4921875 19.498047 C 5.7516875 19.199047 6.0187969 18.908625 6.2949219 18.625 C 6.5710469 18.341375 6.8554844 18.065375 7.1464844 17.796875 C 7.4624844 17.507875 7.7783281 17.216313 8.1113281 16.945312 L 8.1269531 16.939453 C 8.1609531 16.928453 8.2075313 16.911625 8.2695312 16.890625 C 8.3885313 16.850625 8.5593906 16.794609 8.7753906 16.724609 C 9.1563906 16.599609 9.6740156 16.432375 10.291016 16.234375 L 10.322266 16.224609 C 10.819266 16.065609 11.350812 15.895563 11.882812 15.726562 C 12.209819 15.622515 12.068085 15.667791 12.332031 15.583984 z M 13.982422 16.330078 C 14.031422 16.562078 14.003312 16.427234 14.070312 16.740234 C 14.182313 17.265234 14.294438 17.794922 14.398438 18.294922 C 14.408438 18.345922 14.406969 18.346484 14.417969 18.396484 C 14.550969 19.035484 14.661234 19.570703 14.740234 19.970703 C 14.784234 20.196703 14.817844 20.376906 14.839844 20.503906 C 14.850844 20.568906 14.858281 20.619297 14.863281 20.654297 L 14.865234 20.669922 C 14.849234 20.764922 14.834359 20.859078 14.818359 20.955078 C 14.781359 21.176078 14.739406 21.404438 14.691406 21.648438 C 14.554406 22.339437 14.392172 23.017391 14.201172 23.650391 C 14.055172 24.113391 14.120812 23.918234 14.007812 24.240234 L 13.974609 24.242188 L 13.951172 24.242188 L 13.939453 24.214844 C 13.883453 24.063844 13.819 23.857609 13.75 23.599609 C 13.506 22.650609 13.330406 21.68775 13.191406 20.71875 L 13.980469 16.332031 L 13.982422 16.330078 z " />
  <path fill="#FFFFFF" d="M 13.640625 2.9824219 C 13.580625 3.0974219 13.618203 3.0273125 13.533203 3.1953125 C 13.387203 3.4903125 13.239516 3.8160625 13.103516 4.1640625 C 12.796516 4.9490625 12.585672 5.7244063 12.513672 6.4414062 C 12.482672 6.7484063 12.070547 6.8219219 11.935547 6.5449219 L 11.070312 4.7597656 L 10.746094 5.3164062 L 11.9375 8.3515625 C 11.9485 8.3785625 11.954031 8.4065469 11.957031 8.4355469 L 12.173828 10.796875 C 12.197828 11.056875 11.906359 11.225219 11.693359 11.074219 L 9.6816406 9.6503906 C 9.6596406 9.6343906 9.6400469 9.6177031 9.6230469 9.5957031 L 7.5566406 7.0742188 L 6.9121094 7.0859375 L 8.0449219 8.7148438 C 8.2209219 8.9678438 7.954875 9.2929219 7.671875 9.1699219 C 7.411875 9.0569219 7.1319844 8.9551406 6.8339844 8.8691406 C 6.2109844 8.6891406 5.5411406 8.5737656 4.8691406 8.5097656 C 4.4221406 8.4717656 4.674375 8.4899375 4.109375 8.4609375 L 3.7265625 9.1425781 C 3.8205625 9.3515781 3.9665156 9.5318906 4.1035156 9.7128906 C 4.3075156 9.9678906 4.5642813 10.240344 4.8632812 10.527344 C 6.1472812 11.654344 6.1762188 11.681125 6.1992188 11.703125 C 6.2692188 11.787125 6.2688281 11.786422 6.2988281 11.857422 C 6.3298281 12.006422 6.3301094 12.006891 6.1621094 12.212891 C 6.1071094 12.245891 6.0764375 12.252812 6.0234375 12.257812 C 5.8044375 12.257812 5.704125 12.253094 5.578125 12.246094 C 5.358125 12.235094 5.0648906 12.218312 4.7128906 12.195312 C 4.6568906 12.191313 4.5980625 12.187594 4.5390625 12.183594 C 4.0950625 12.154594 4.2826563 12.167484 3.9726562 12.146484 L 4.2636719 12.712891 L 7.6152344 13.027344 C 7.6722344 13.032344 7.7274375 13.053891 7.7734375 13.087891 L 9.3808594 14.314453 C 9.5388594 14.434453 9.5417187 14.672875 9.3867188 14.796875 L 7.7792969 16.085938 C 7.7322969 16.122937 7.6761875 16.144391 7.6171875 16.150391 L 4.2636719 16.464844 L 3.9746094 17.035156 C 4.3016094 17.013156 4.1065469 17.025141 4.5605469 16.994141 C 4.6365469 16.989141 4.6358906 16.989375 4.7128906 16.984375 C 5.0848906 16.960375 5.3941875 16.941688 5.6171875 16.929688 C 5.7461875 16.922687 5.8441094 16.918969 5.9121094 16.917969 C 6.0151094 16.944969 6.0578437 16.922641 6.0898438 16.931641 C 6.1518438 16.934641 6.1515937 16.933109 6.3085938 17.162109 C 6.2995937 17.360109 6.3005625 17.360359 6.2265625 17.443359 C 6.1745625 17.486359 6.1735312 17.486953 6.1445312 17.501953 C 6.0945313 17.526953 5.4996406 18.012688 5.0566406 18.429688 C 4.5756406 18.918688 4.0235156 19.402109 3.7285156 20.037109 L 4.1113281 20.71875 C 4.1903281 20.71675 4.13325 20.718891 4.28125 20.712891 C 4.55925 20.699891 4.8625938 20.675719 5.1835938 20.636719 C 6.0955937 20.526719 6.9528281 20.325719 7.6738281 20.011719 C 7.9558281 19.888719 8.222875 20.213797 8.046875 20.466797 L 6.9140625 22.095703 L 7.5585938 22.105469 L 9.625 19.587891 C 9.645 19.562891 9.6683125 19.542391 9.6953125 19.525391 L 11.675781 18.251953 C 11.724781 18.219953 11.783797 18.201172 11.841797 18.201172 C 11.992797 18.210172 12.169672 18.333813 12.138672 18.507812 L 12.148438 18.507812 L 12.148438 20.685547 C 12.148438 20.727547 12.140047 20.768641 12.123047 20.806641 L 10.755859 23.980469 L 11.103516 24.5 C 11.277516 24.112 11.179484 24.328562 11.396484 23.851562 L 11.441406 23.755859 C 11.591406 23.429859 11.717453 23.163609 11.814453 22.974609 C 11.872453 22.862609 11.919031 22.77775 11.957031 22.71875 C 11.986031 22.67375 12.012875 22.638422 12.046875 22.607422 C 12.094875 22.562422 12.147469 22.531484 12.230469 22.521484 C 12.385469 22.502484 12.511547 22.595703 12.560547 22.720703 C 12.549547 22.692703 12.822672 24.112391 13.013672 24.775391 C 13.158672 25.274391 13.332953 25.771125 13.626953 26.203125 C 13.685953 26.206125 13.643906 26.204938 13.753906 26.210938 C 13.849906 26.215937 13.942297 26.219656 14.029297 26.222656 C 14.172297 26.227656 14.291906 26.229562 14.378906 26.226562 L 14.384766 26.226562 C 14.568766 25.893563 14.715234 25.540406 14.865234 25.191406 C 15.202234 24.363406 15.438578 23.525281 15.517578 22.738281 C 15.548578 22.432281 15.960703 22.357766 16.095703 22.634766 L 16.964844 24.419922 L 17.287109 23.861328 L 16.095703 20.826172 C 16.081703 20.791172 16.076172 20.754797 16.076172 20.716797 L 16.076172 18.601562 C 16.076172 18.360563 16.340922 18.21475 16.544922 18.34375 L 18.412109 19.525391 C 18.439109 19.542391 18.465328 19.564844 18.486328 19.589844 L 20.552734 22.107422 L 21.195312 22.097656 L 20.0625 20.470703 C 19.8865 20.217703 20.152547 19.892625 20.435547 20.015625 C 21.163547 20.332625 22.022203 20.541297 22.908203 20.654297 C 23.234203 20.695297 23.543688 20.720469 23.804688 20.730469 C 23.967688 20.735469 23.899812 20.734375 24.007812 20.734375 L 24.011719 20.726562 C 24.055719 20.651563 24.112688 20.550734 24.179688 20.427734 C 24.187687 20.413734 24.188312 20.412437 24.195312 20.398438 C 24.252312 20.292437 24.313047 20.179406 24.373047 20.066406 L 24.382812 20.046875 C 24.284813 19.825875 24.133281 19.633406 23.988281 19.441406 C 23.785281 19.185406 23.533141 18.911906 23.244141 18.628906 C 22.953141 18.344906 22.640125 18.067641 22.328125 17.806641 C 22.218125 17.715641 22.116391 17.632547 22.025391 17.560547 C 21.971391 17.517547 21.934062 17.489609 21.914062 17.474609 C 21.674063 17.291609 21.816187 16.907781 22.117188 16.925781 C 22.436187 16.944781 22.435531 16.944953 23.394531 17.001953 C 23.642531 17.016953 23.890672 17.032875 24.138672 17.046875 L 23.845703 16.470703 L 20.492188 16.15625 C 20.434188 16.15125 20.378031 16.12975 20.332031 16.09375 L 18.589844 14.742188 C 18.424844 14.614187 18.434422 14.363047 18.607422 14.248047 L 20.349609 13.082031 C 20.391609 13.054031 20.440234 13.038203 20.490234 13.033203 L 23.845703 12.71875 L 24.132812 12.15625 L 23.845703 12.175781 C 23.710703 12.184781 23.580078 12.193172 23.455078 12.201172 C 22.285078 12.270172 22.136234 12.273469 21.990234 12.105469 C 21.902234 12.004469 21.895641 11.887109 21.931641 11.787109 C 21.945641 11.747109 21.966234 11.715594 21.990234 11.683594 C 22.016234 11.647594 22.04875 11.610406 22.09375 11.566406 C 22.15875 11.502406 22.243438 11.426016 22.398438 11.291016 C 22.950437 10.808016 23.045641 10.723703 23.306641 10.470703 C 23.633641 10.154703 23.900516 9.8637969 24.103516 9.5917969 C 24.206516 9.4477969 24.313719 9.303625 24.386719 9.140625 L 24.375 9.1191406 C 24.318 9.0061406 24.261078 8.8921094 24.205078 8.7871094 C 24.189078 8.7571094 24.184828 8.7485156 24.173828 8.7285156 C 24.113828 8.6155156 24.061484 8.5220781 24.021484 8.4550781 L 24.019531 8.453125 C 23.886531 8.453125 23.962062 8.4520312 23.789062 8.4570312 C 23.529062 8.4670312 23.220484 8.4912031 22.896484 8.5332031 C 22.019484 8.6462031 21.164547 8.8568281 20.435547 9.1738281 C 20.153547 9.2968281 19.8865 8.97175 20.0625 8.71875 L 21.197266 7.0898438 L 20.554688 7.0800781 L 18.486328 9.5996094 C 18.466328 9.6246094 18.443016 9.6451094 18.416016 9.6621094 L 16.392578 10.960938 C 16.190578 11.090938 15.924875 10.947031 15.921875 10.707031 L 15.892578 8.4101562 C 15.891578 8.3661562 15.899969 8.3232031 15.917969 8.2832031 L 17.279297 5.2011719 L 16.935547 4.6855469 C 16.772547 5.0525469 16.867203 4.8455938 16.658203 5.3085938 C 16.637203 5.3555937 16.637234 5.3553438 16.615234 5.4023438 C 16.478234 5.7013438 16.359578 5.9479062 16.267578 6.1289062 C 16.049578 6.4979062 16.032719 6.5171562 16.011719 6.5351562 C 15.958719 6.5811563 15.896641 6.6142344 15.806641 6.6152344 C 15.660641 6.6182344 15.585297 6.5490313 15.529297 6.4570312 C 15.473297 6.3270313 15.457406 6.2769375 15.441406 6.2109375 C 15.418406 6.1169375 15.406844 6.0610469 15.339844 5.7480469 C 15.215844 5.1650469 15.128719 4.7975781 15.011719 4.3925781 C 14.867719 3.9045781 14.704969 3.4113281 14.417969 2.9863281 L 14.414062 2.9824219 L 13.640625 2.9824219 z M 14.259766 4.2949219 C 14.370766 4.2919219 14.47525 4.3473594 14.53125 4.4433594 C 14.57425 4.5153594 14.638703 4.6550938 14.720703 4.8710938 C 14.850703 5.2180938 14.979609 5.6609375 15.099609 6.2109375 C 15.233609 6.8289375 15.350453 7.5460937 15.439453 8.3710938 C 15.442453 8.4000937 15.440547 8.4290312 15.435547 8.4570312 L 14.595703 13.193359 C 14.569703 13.339359 14.442922 13.445313 14.294922 13.445312 L 13.798828 13.445312 C 13.653828 13.445312 13.528 13.342219 13.5 13.199219 L 12.544922 8.4902344 C 12.540922 8.3732344 12.526922 8.4121875 12.544922 8.3671875 L 12.544922 8.3652344 C 12.547922 8.3452344 12.547734 8.3444531 12.552734 8.3144531 C 12.561734 8.2604531 12.571984 8.1989062 12.583984 8.1289062 C 12.618984 7.9279063 12.662937 7.7028906 12.710938 7.4628906 C 12.849937 6.7748906 13.014125 6.0854062 13.203125 5.4414062 C 13.301125 5.1084062 13.402766 4.7968125 13.509766 4.5078125 C 13.552766 4.3908125 13.664062 4.3106406 13.789062 4.3066406 L 14.259766 4.2949219 z M 22.662109 8.9941406 L 22.746094 9.0019531 C 22.819094 9.0149531 22.866203 9.0430312 22.908203 9.0820312 C 23.228203 9.5570312 23.207844 9.5836562 23.214844 9.5976562 C 23.268844 9.7056563 23.254734 9.8366875 23.177734 9.9296875 C 22.665734 10.545687 22.025125 11.200656 21.328125 11.847656 C 20.882125 12.261656 20.388203 12.689578 20.283203 12.767578 C 20.205203 12.824578 19.728891 12.980875 17.962891 13.546875 L 17.925781 13.558594 C 17.428781 13.717594 16.897234 13.887641 16.365234 14.056641 C 16.179234 14.115641 16.004609 14.170703 15.849609 14.220703 C 15.756609 14.250703 15.69125 14.27025 15.65625 14.28125 C 15.51925 14.32525 15.367875 14.267578 15.296875 14.142578 L 15.050781 13.708984 C 14.977781 13.579984 15.009047 13.416266 15.123047 13.322266 L 18.865234 10.232422 C 18.887234 10.214422 18.909547 10.1985 18.935547 10.1875 C 20.136547 9.7285 21.354109 9.0760937 22.662109 8.9960938 L 22.662109 8.9941406 z M 5.3671875 8.9960938 C 5.519568 8.9973133 5.8128392 9.0376722 6.2695312 9.1523438 C 7.0125313 9.3383437 7.958 9.6715469 9.125 10.185547 C 9.151 10.196547 9.1752656 10.210516 9.1972656 10.228516 L 12.939453 13.320312 C 13.053453 13.415313 13.082766 13.577078 13.009766 13.705078 L 12.763672 14.138672 C 12.691672 14.264672 12.54425 14.323297 12.40625 14.279297 C 12.37025 14.268297 12.369938 14.268797 12.210938 14.216797 C 12.055938 14.166797 11.883266 14.110781 11.697266 14.050781 C 11.165266 13.879781 10.631766 13.707875 10.134766 13.546875 L 10.125 13.542969 C 8.708 13.084969 7.9126094 12.826734 7.8496094 12.802734 C 7.5556094 12.687734 5.8387656 11.074734 4.8847656 9.9277344 C 4.8027656 9.8297344 4.7914688 9.6910781 4.8554688 9.5800781 L 5.1015625 9.1503906 C 5.2375625 9.0053906 5.1511875 9.0524375 5.3671875 9.0234375 L 5.3671875 8.9960938 z M 12.509766 14.904297 C 12.729766 14.990297 12.653672 14.925594 12.763672 15.058594 L 13.009766 15.488281 C 13.083766 15.617281 13.054453 15.782953 12.939453 15.876953 L 9.1972656 18.96875 C 9.1752656 18.98675 9.151 19.000719 9.125 19.011719 C 7.958 19.524719 7.0125312 19.857922 6.2695312 20.044922 C 5.8115312 20.159922 5.5165625 20.200172 5.3515625 20.201172 C 5.2465625 20.197172 5.1496562 20.139828 5.0976562 20.048828 L 4.8515625 19.615234 C 4.7885625 19.505234 4.8008125 19.367531 4.8828125 19.269531 C 5.7808125 18.189531 7.4349219 16.651875 7.7949219 16.421875 C 7.8679219 16.374875 8.4375156 16.188297 10.103516 15.654297 L 10.134766 15.644531 C 10.631766 15.485531 11.165266 15.316484 11.697266 15.146484 C 11.883266 15.087484 12.055938 15.032422 12.210938 14.982422 C 12.303937 14.952422 12.37125 14.930922 12.40625 14.919922 L 12.509766 14.90625 L 12.509766 14.904297 z M 15.550781 14.904297 L 15.65625 14.919922 C 15.69225 14.930922 15.756609 14.951469 15.849609 14.980469 C 16.004609 15.029469 16.178234 15.083578 16.365234 15.142578 C 16.897234 15.310578 17.429781 15.478719 17.925781 15.636719 C 17.952781 15.645719 17.952516 15.646297 17.978516 15.654297 C 19.591516 16.169297 20.190297 16.365688 20.279297 16.429688 C 20.494297 16.583687 23.136656 19.141797 23.222656 19.341797 C 23.372656 19.689797 23.020547 20.210172 22.685547 20.201172 C 22.598547 20.199172 22.537016 20.195687 22.416016 20.179688 C 22.234016 20.155687 22.014953 20.111922 21.751953 20.044922 C 21.036953 19.861922 20.108547 19.530672 18.935547 19.013672 C 18.909547 19.002672 18.886234 18.98675 18.865234 18.96875 L 15.123047 15.876953 C 15.008047 15.781953 14.977781 15.619234 15.050781 15.490234 L 15.296875 15.060547 C 15.405875 14.928547 15.331781 14.99225 15.550781 14.90625 L 15.550781 14.904297 z M 13.736328 15.673828 L 14.220703 15.673828 C 14.363013 15.675658 14.484909 15.775346 14.515625 15.914062 C 14.523625 15.949063 14.536641 16.013469 14.556641 16.105469 C 14.589641 16.258469 14.627016 16.428281 14.666016 16.613281 C 14.778016 17.139281 14.889141 17.670875 14.994141 18.171875 C 15.005141 18.222875 15.005625 18.223437 15.015625 18.273438 C 15.376625 20.007438 15.496656 20.616141 15.472656 20.744141 C 15.471656 20.750141 15.437922 20.952547 15.419922 21.060547 C 15.381922 21.285547 15.340016 21.517578 15.291016 21.767578 C 15.151016 22.476578 14.984109 23.174125 14.787109 23.828125 C 14.701109 24.113125 14.611578 24.382672 14.517578 24.638672 C 14.476578 24.749672 14.374812 24.827891 14.257812 24.837891 C 14.230813 24.839891 14.187766 24.842703 14.134766 24.845703 C 14.087766 24.848703 14.043 24.852516 14 24.853516 C 13.931 24.856516 13.870313 24.855516 13.820312 24.853516 C 13.684313 24.847516 13.625109 24.837906 13.537109 24.753906 C 13.316109 24.541906 12.913078 23.044813 12.580078 20.757812 C 12.575078 20.724812 12.576031 20.692156 12.582031 20.660156 L 13.435547 15.925781 C 13.461547 15.780781 13.588328 15.673828 13.736328 15.673828 z "/>
</svg>
