<?xml version="1.0" encoding="UTF-8" standalone="no"?>
<!-- Generated by IcoMoon.io -->

<svg
   version="1.1"
   width="26.816"
   height="27.917999"
   viewBox="0 0 26.816 27.917999"
   id="svg6"
   sodipodi:docname="ice.svg"
   inkscape:version="1.1.1 (3bf5ae0d25, 2021-09-20)"
   xmlns:inkscape="http://www.inkscape.org/namespaces/inkscape"
   xmlns:sodipodi="http://sodipodi.sourceforge.net/DTD/sodipodi-0.dtd"
   xmlns="http://www.w3.org/2000/svg"
   xmlns:svg="http://www.w3.org/2000/svg">
  <defs
     id="defs10" />
  <sodipodi:namedview
     id="namedview8"
     pagecolor="#ffffff"
     bordercolor="#666666"
     borderopacity="1.0"
     inkscape:pageshadow="2"
     inkscape:pageopacity="0.0"
     inkscape:pagecheckerboard="0"
     showgrid="false"
     inkscape:zoom="25.75"
     inkscape:cx="13.456311"
     inkscape:cy="13.92233"
     inkscape:window-width="1920"
     inkscape:window-height="1009"
     inkscape:window-x="-8"
     inkscape:window-y="-8"
     inkscape:window-maximized="1"
     inkscape:current-layer="svg6" />
  <title
     id="title2">ice</title>
  <path
     fill="#000000"
     d="m 14.479,19.961 -0.983,-4.624 h -0.494 l -0.801,4.744 c 0.31,2.834 0.801,3.699 0.801,3.699 h 0.494 c 0.616,-1.665 0.983,-3.82 0.983,-3.82 z m 4.924,-3.938 -4.497,-1.454 -0.244,0.426 3.708,3.064 c 2.611,1.15 3.602,1.153 3.602,1.153 l 0.247,-0.429 c -1.133,-1.363 -2.816,-2.76 -2.816,-2.76 z m -14.848,2.761 0.244,0.429 c 0,0 0.995,-0.006 3.605,-1.153 l 3.708,-3.064 -0.244,-0.426 -4.497,1.454 c 0,0 -1.683,1.398 -2.816,2.76 z M 22.219,9.142 21.972,8.715 c 0,0 -0.991,0.003 -3.602,1.151 l -3.708,3.063 0.244,0.429 4.497,-1.456 c 0,0 1.683,-1.398 2.816,-2.76 z M 7.372,11.903 11.869,13.359 12.113,12.93 8.405,9.867 C 5.795,8.719 4.8,8.716 4.8,8.716 L 4.556,9.143 c 1.133,1.362 2.816,2.76 2.816,2.76 z M 13.187,4.06 h 0.491 c 0,0 0.495,0.862 0.801,3.699 l -0.801,4.744 H 13.187 L 12.201,7.882 c 0,0 0.371,-2.157 0.986,-3.823 z m -1.971,13.773 v 2.157 l -1.419,3.296 0.741,1.11 1.107,-2.281 c 0,0 0.371,2.651 1.175,3.637 h 1.107 c 0,0 1.047,-1.851 1.233,-3.699 l 1.11,2.281 0.677,-1.172 -1.233,-3.143 v -2.095 l 1.851,1.172 2.142,2.608 1.351,-0.021 -1.448,-2.08 c 1.704,0.741 3.829,0.729 3.829,0.729 l 0.542,-0.968 c -0.471,-1.18 -2.602,-2.796 -2.602,-2.796 l 2.531,0.148 -0.607,-1.19 -3.491,-0.326 -1.728,-1.339 1.728,-1.154 3.491,-0.326 0.607,-1.187 -2.531,0.145 c 0,0 2.131,-1.616 2.602,-2.796 L 23.439,7.575 c 0,0 -2.125,-0.012 -3.829,0.73 L 21.058,6.224 19.707,6.203 17.565,8.814 15.56,10.1 15.531,7.822 16.947,4.617 16.209,3.507 15.099,5.785 c 0,0 -0.371,-2.649 -1.171,-3.634 h -1.107 c 0,0 -1.051,1.848 -1.236,3.699 L 10.478,3.569 9.798,4.741 11.031,7.884 11.246,10.223 9.253,8.813 7.114,6.202 5.76,6.223 7.208,8.304 C 5.504,7.562 3.379,7.574 3.379,7.574 L 2.837,8.542 c 0.471,1.18 2.598,2.796 2.598,2.796 l -2.528,-0.145 0.606,1.187 3.488,0.326 1.595,1.216 -1.595,1.277 -3.488,0.326 -0.606,1.19 2.528,-0.148 c 0,0 -2.128,1.616 -2.599,2.796 l 0.542,0.968 c 0,0 2.125,0.012 3.829,-0.729 l -1.448,2.08 1.354,0.021 2.139,-2.608 1.963,-1.263 z M 15.677,10e-4 h 0.2 c 0,0 2.808,4.223 3.008,4.523 0.362,0.006 5.562,0.085 5.562,0.085 l 2.369,4.553 c 0,0 -2.287,4.477 -2.449,4.789 0.162,0.315 2.449,4.791 2.449,4.791 l -2.369,4.556 c 0,0 -5.314,0.079 -5.706,0.085 -0.02,0.038 -0.05,0.088 -0.05,0.088 -0.091,0.159 -2.314,3.847 -2.567,4.264 l -0.108,0.18 -5.13,0.003 c 0,0 -2.825,-4.238 -3.025,-4.542 C 7.499,23.373 2.369,23.297 2.369,23.297 L 0,18.741 c 0,0 2.287,-4.476 2.449,-4.791 C 2.287,13.638 0,9.161 0,9.161 L 2.369,4.605 c 0,0 5.244,-0.076 5.629,-0.082 C 8.192,4.193 10.673,0 10.673,0 h 5.003 z"
     id="path4" />
</svg>
