<?xml version="1.0" encoding="UTF-8" standalone="no"?>
<!-- Generated by IcoMoon.io -->

<svg
   version="1.1"
   width="32.000374"
   height="24.627911"
   viewBox="0 0 32.000374 24.627911"
   id="svg6"
   sodipodi:docname="iko.svg"
   inkscape:version="1.1.1 (3bf5ae0d25, 2021-09-20)"
   xmlns:inkscape="http://www.inkscape.org/namespaces/inkscape"
   xmlns:sodipodi="http://sodipodi.sourceforge.net/DTD/sodipodi-0.dtd"
   xmlns="http://www.w3.org/2000/svg"
   xmlns:svg="http://www.w3.org/2000/svg">
  <defs
     id="defs10" />
  <sodipodi:namedview
     id="namedview8"
     pagecolor="#ffffff"
     bordercolor="#666666"
     borderopacity="1.0"
     inkscape:pageshadow="2"
     inkscape:pageopacity="0.0"
     inkscape:pagecheckerboard="0"
     showgrid="false"
     inkscape:zoom="25.75"
     inkscape:cx="15.980583"
     inkscape:cy="12.291262"
     inkscape:window-width="1920"
     inkscape:window-height="1009"
     inkscape:window-x="-8"
     inkscape:window-y="-8"
     inkscape:window-maximized="1"
     inkscape:current-layer="svg6" />
  <title
     id="title2">iko</title>
  <path
     fill="#000000"
     d="m 23.333,0.60288111 c 1.846,-0.685 3.866,-0.722 5.794,-0.43 0,0 0,0 0,0 0.514,0.082 1.006,0.258 1.498,0.421 -0.031,0.037 -0.073,0.085 -0.112,0.113 -0.447,0.32699999 -0.973,0.79199999 -1.409,1.25499999 -0.567,0.601 -1.098,1.371 -1.451,2.149 -0.36,0.781 -0.407,1.546 -0.274,2.509 0.109,0.79 0.654,1.4 1.268,1.831 1.012,0.576 2.218,0.361 3.309,0.199 0.005,0.959 0.104,1.5789999 -0.011,2.8779999 -0.162,1.841 -0.747,3.635 -1.579,5.287 -0.817,1.376 -1.772,2.688 -2.948,3.78 -0.326,0.304 -0.646,0.634 -1.056,0.827 -1.259,-0.163 -2.572,-0.247 -3.807,0.116 -1.001,0.264 -1.967,0.651 -2.892,1.114 -2.192,1.064 -4.57,1.739 -7.001,1.939 -2.011,0.103 -4.053,0.016 -5.991,-0.581 -2.525,-0.808 -4.966,-2.154 -6.671,-4.22 1.268,-0.442 2.752,-0.811 3.732,-1.552 1.458,-1.103 2.052,-2.055 2.632,-3.381 0.6,-1.334 0.876,-2.777 1.185,-4.198 0.581,-1.9849999 1.588,-3.9569999 3.28,-5.2159999 0.541,-0.41 1.156,-0.718 1.813,-0.893 -0.068,0.868 -0.378,1.859 0.181,2.635 0.446,0.695 1.429,0.772 2.105,0.388 1.076,-0.575 1.655,-1.696 2.389,-2.615 1.619,-1.894 3.635,-3.532 6.015,-4.35299999 z M 14.01,12.141881 c 0.809,-0.316 1.843,-0.526 2.574,0.082 0.503,0.341 0.588,0.987 0.626,1.544 0.079,1.679 0.895,3.314 2.223,4.35 0.679,-0.335 1.154,-0.95 1.63,-1.518 0.905,-1.071 1.409,-2.419 1.685,-3.777 0.139,-1.171 0.35,-2.361 0.931,-3.4019999 0.283,-0.441 0.684,-0.795 1.112,-1.089 -3.918,-0.297 -7.883,1.191 -10.782,3.8099999 z m -3.327,5.399 c -0.6,1.035 -1.493,1.847 -2.438,2.561 0.591,0.35 1.281,0.428 1.947,0.526 1.65,0.138 3.334,0.033 4.927,-0.439 0.997,-0.329 2.038,-0.6 2.915,-1.201 -0.595,-0.4 -1.304,-0.558 -1.942,-0.867 -0.725,-0.346 -1.422,-0.753 -2.071,-1.225 -0.771,-0.513 -1.381,-1.217 -2.029,-1.868 -0.484,0.813 -0.784,1.722 -1.31,2.513 z"
     id="path4" />
</svg>
