<?xml version="1.0" encoding="UTF-8" standalone="no"?>
<!-- Generated by IcoMoon.io -->

<svg
   version="1.1"
   width="27.510374"
   height="27.509125"
   viewBox="0 0 27.510374 27.509125"
   id="svg6"
   sodipodi:docname="ima.svg"
   inkscape:version="1.1.1 (3bf5ae0d25, 2021-09-20)"
   xmlns:inkscape="http://www.inkscape.org/namespaces/inkscape"
   xmlns:sodipodi="http://sodipodi.sourceforge.net/DTD/sodipodi-0.dtd"
   xmlns="http://www.w3.org/2000/svg"
   xmlns:svg="http://www.w3.org/2000/svg">
  <defs
     id="defs10" />
  <sodipodi:namedview
     id="namedview8"
     pagecolor="#ffffff"
     bordercolor="#666666"
     borderopacity="1.0"
     inkscape:pageshadow="2"
     inkscape:pageopacity="0.0"
     inkscape:pagecheckerboard="0"
     showgrid="false"
     inkscape:zoom="25.75"
     inkscape:cx="13.961165"
     inkscape:cy="13.728155"
     inkscape:window-width="1920"
     inkscape:window-height="1009"
     inkscape:window-x="-8"
     inkscape:window-y="-8"
     inkscape:window-maximized="1"
     inkscape:current-layer="svg6" />
  <title
     id="title2">ima</title>
  <path
     fill="#000000"
     d="m 7.5229126,1.485625 c 3.8390004,-1.97999998 8.6240004,-1.98199998 12.4630004,0.001 -2.056,1.521 -4.14,3.003 -6.204,4.513 -2.083,-1.508 -4.1880004,-2.988 -6.2590004,-4.514 z m 6.2020004,9.386 c -2.223,-3.044 -4.4830004,-6.061 -6.6860004,-9.12 -3.289,1.813 -5.741,5.054 -6.63400003,8.697 -0.721,2.881 -0.474,5.996 0.70000003,8.724 0.926,2.187 2.45,4.092 4.317,5.55 0.861,-1.313 1.687,-2.648 2.559,-3.953 -1.547,-1.289 -2.655,-3.092 -3.072,-5.065 -0.518,-2.31 -0.066,-4.838 1.25,-6.808 2.189,2.986 4.3840004,5.967 6.5800004,8.948 -1.758,2.716 -3.5220004,5.429 -5.2460004,8.167 3.8580004,1.997 8.6650004,1.996 12.5240004,0.001 -1.718,-2.734 -3.485,-5.439 -5.234,-8.155 2.187,-3.015 4.323,-6.068 6.524,-9.072 1.222,1.869 1.76,4.192 1.392,6.403 -0.331,2.166 -1.486,4.181 -3.17,5.581 0.872,1.303 1.693,2.64 2.56,3.946 2.951,-2.258 4.962,-5.731 5.334,-9.438 0.285,-2.484 -0.13,-5.05 -1.194,-7.313 -1.223,-2.665 -3.333,-4.895 -5.898,-6.306 -2.205,3.067 -4.396,6.146 -6.605,9.212 z"
     id="path4" />
</svg>
