<?xml version="1.0" encoding="UTF-8" standalone="no"?>
<!-- Generated by IcoMoon.io -->

<svg
   version="1.1"
   width="23.472944"
   height="28.025"
   viewBox="0 0 23.472944 28.025"
   id="svg6"
   sodipodi:docname="inv.svg"
   inkscape:version="1.1.1 (3bf5ae0d25, 2021-09-20)"
   xmlns:inkscape="http://www.inkscape.org/namespaces/inkscape"
   xmlns:sodipodi="http://sodipodi.sourceforge.net/DTD/sodipodi-0.dtd"
   xmlns="http://www.w3.org/2000/svg"
   xmlns:svg="http://www.w3.org/2000/svg">
  <defs
     id="defs10" />
  <sodipodi:namedview
     id="namedview8"
     pagecolor="#ffffff"
     bordercolor="#666666"
     borderopacity="1.0"
     inkscape:pageshadow="2"
     inkscape:pageopacity="0.0"
     inkscape:pagecheckerboard="0"
     showgrid="false"
     inkscape:zoom="25.75"
     inkscape:cx="11.941748"
     inkscape:cy="14"
     inkscape:window-width="1920"
     inkscape:window-height="1009"
     inkscape:window-x="-8"
     inkscape:window-y="-8"
     inkscape:window-maximized="1"
     inkscape:current-layer="svg6" />
  <title
     id="title2">inv</title>
  <path
     fill="#000000"
     d="m 11.732428,6.57 v 0 c -0.014,0 -0.024,0 -0.039,0 -0.011,0 -0.024,0 -0.039,0 v 0 c -0.6,-0.039 -1.017,-0.53 -1.017,-1.508 0,-1.019 1.056,-2.418 1.056,-2.418 0,0 1.059,1.398 1.059,2.418 0,0.978 -0.42,1.469 -1.02,1.508 z m 3.22,-1.698 c -0.078,-0.755 -0.113,-1.51 -0.455,-2.566 -0.339,-1.059 -1.413,-2.306 -2.765,-2.306 -1.359,0 -2.4180001,1.246 -2.7570001,2.306 -0.339,1.056 -0.378,1.811 -0.452,2.566 -0.078,0.756 -0.526,4.117 3.2130001,4.117 3.739,0 3.291,-3.361 3.216,-4.117 z m 0.918,-2.499 c 0.226,0.84 0.296,1.518 0.353,2.118 l 0.028,0.306 c 0.07,0.668 0.283,2.698 -1.017,4.141 -0.646,0.717 -1.539,1.137 -2.644,1.282 v 2.263 c 8.091,0 10.119,3.524 10.119,3.524 1.906,-3.432 -0.096,-8.582 -2.288,-10.775 -2.195,-2.193 -4.55,-2.86 -4.55,-2.86 z m 4.42,13.444 c -4.102,1.048 -7.697,12.208 -7.697,12.208 V 13.769 c 5.645,0 7.697,2.048 7.697,2.048 z M 3.0554279,5.233 c -2.19599998,2.193 -4.198,7.343 -2.29199998,10.775 0,0 2.02699998,-3.524 10.12200008,-3.524 V 10.221 C 9.7804279,10.076 8.8834279,9.656 8.2374279,8.939 c -1.3,-1.443 -1.084,-3.473 -1.017,-4.141 l 0.032,-0.306 c 0.053,-0.6 0.127,-1.278 0.353,-2.118 0,0 -2.359,0.667 -4.551,2.86 z m 7.8230001,8.536 v 14.256 c 0,0 -3.5940001,-11.16 -7.6930001,-12.208 0,0 2.052,-2.048 7.6930001,-2.048 z"
     id="path4" />
</svg>
