<?xml version="1.0" encoding="UTF-8" standalone="no"?>
<svg
   version="1.1"
   width="33.181477"
   height="30.024527"
   viewBox="0 0 33.181476 30.024527"
   id="svg4"
   xmlns="http://www.w3.org/2000/svg"
   xmlns:svg="http://www.w3.org/2000/svg">
  <defs>
    <!-- This is the gradient that will actually be used on
     the cards. The colors themselves will be provided by the
     template, but the x values, y values, and offsets will be
     used from the SVG. -->
    <linearGradient id="rarity" x1="0" y1="1" x2="1" y2="0">
      <stop offset="0" style="stop-color:rgb(192,55,38);stop-opacity:1" id="stop2" />
      <stop offset="0.125" style="stop-color:rgb(192,55,38);stop-opacity:1" id="stop4" />
      <stop offset="0.5" style="stop-color:rgb(241,142,30);stop-opacity:1" id="stop6" />
      <stop offset="0.875" style="stop-color:rgb(192,55,38);stop-opacity:1" id="stop8" />
      <stop offset="1" style="stop-color:rgb(192,55,38);stop-opacity:1" id="stop10" />
    </linearGradient>
    <!-- These gradients are here so that you can visualize
     what the set symbol would like like in that rarity. The
     only gradient that matters in the end is the "rarity"
     gradient. -->
    <linearGradient id="mythic" x1="0" y1="1" x2="1" y2="0">
      <stop offset="0" style="stop-color:rgb(192,55,38);stop-opacity:1"/>
      <stop offset="0.125" style="stop-color:rgb(192,55,38);stop-opacity:1"/>
      <stop offset="0.5" style="stop-color:rgb(241,142,30);stop-opacity:1"/>
      <stop offset="0.875" style="stop-color:rgb(192,55,38);stop-opacity:1"/>
      <stop offset="1" style="stop-color:rgb(192,55,38);stop-opacity:1"/>
    </linearGradient>
    <linearGradient id="rare" x1="0" y1="1" x2="1" y2="0">
      <stop offset="0" style="stop-color:rgb(146,116,67);stop-opacity:1"/>
      <stop offset="0.125" style="stop-color:rgb(146,116,67);stop-opacity:1"/>
      <stop offset="0.5" style="stop-color:rgb(211,178,108);stop-opacity:1"/>
      <stop offset="0.875" style="stop-color:rgb(146,116,67);stop-opacity:1"/>
      <stop offset="1" style="stop-color:rgb(146,116,67);stop-opacity:1"/>
    </linearGradient>
    <linearGradient id="special" x1="0" y1="1" x2="1" y2="0">
      <stop offset="0" style="stop-color:rgb(76, 56, 106);stop-opacity:1"/>
      <stop offset="0.125" style="stop-color:rgb(76, 56, 106);stop-opacity:1"/>
      <stop offset="0.5" style="stop-color:rgb(201, 173, 221);stop-opacity:1"/>
      <stop offset="0.875" style="stop-color:rgb(76, 56, 106);stop-opacity:1"/>
      <stop offset="1" style="stop-color:rgb(76, 56, 106);stop-opacity:1"/>
    </linearGradient>
    <linearGradient id="uncommon" x1="0" y1="1" x2="1" y2="0">
      <stop offset="0" style="stop-color:rgb(98,110,119);stop-opacity:1"/>
      <stop offset="0.125" style="stop-color:rgb(98,110,119);stop-opacity:1"/>
      <stop offset="0.5" style="stop-color:rgb(196,222,238);stop-opacity:1"/>
      <stop offset="0.875" style="stop-color:rgb(98,110,119);stop-opacity:1"/>
      <stop offset="1" style="stop-color:rgb(98,110,119);stop-opacity:1"/>
    </linearGradient>
    <linearGradient id="common" x1="0" y1="1" x2="1" y2="0">
      <stop offset="0" style="stop-color:rgb(0,0,0);stop-opacity:1"/>
    </linearGradient>
    <linearGradient
            id="rarity-outline" x1="0" y1="1" x2="0" y2="1">
      <stop offset="0" style="stop-color:rgb(0,0,0);stop-opacity:1"/>
    </linearGradient>
  </defs>
  <path fill="url(#rarity)" d="m 16.591739,1 5.137,2.189 -2.948,1.265 v 11.028 l 0.927,-0.672 3.454,-11.537 h 4.884 l 2.945,6.231 -4.126,-2.19 -1.43,4.716 v 8.504 l -2.358,0.421 4.881,3.201 -9.682,-1.684 -1.686,4.629 -1.684,-4.629 -9.6850005,1.684 4.8850005,-3.201 -2.3580005,-0.421 V 12.03 l -1.431,-4.716 -4.126,2.19 2.945,-6.231 h 4.8850005 l 3.454,11.537 0.927,0.672 V 4.454 l -2.948,-1.265 5.135,-2.189 z"/>
  <path fill="url(#rarity-outline)" d="M 16.507812,0.59960937 10.4375,3.1875 14.001953,4.7167969 v 9.9824221 l -0.183594,-0.132813 -3.5,-11.6933591 H 4.8828125 L 1.3144531,10.421875 6.0742187,7.8964844 7.3476562,12.089844 v 8.779297 l 1.6972657,0.302734 -5.6601563,3.708984 11.2597654,-1.957031 1.945313,5.345703 1.947265,-5.345703 11.25586,1.957031 -5.65625,-3.708984 1.697265,-0.302734 v -8.779297 l 1.273438,-4.1933596 4.759765,2.5253906 -3.568359,-7.5488281 h -5.435547 l -3.5,11.6933591 -0.18164,0.13086 V 4.7167969 L 22.746094,3.1875 16.673828,0.59960937 h -0.08203 z m 0.08398,0.83398433 4.121094,1.7558594 -2.332032,1 V 16.265625 l 1.671875,-1.210937 3.40625,-11.3808599 h 4.333985 l 2.320312,4.9121094 -3.490234,-1.8535156 -1.587891,5.2382811 v 8.228516 l -3.019531,0.539062 4.107422,2.69336 -8.109375,-1.410157 -1.423828,3.91211 -1.421875,-3.91211 -8.1113284,1.410157 4.1093754,-2.69336 -3.0175785,-0.539062 V 11.970703 L 6.5585937,6.7324219 3.0683594,8.5859375 5.3886719,3.6738281 h 4.3339844 l 3.4082027,11.3808599 1.669922,1.210937 V 4.1894531 L 12.470703,3.1914063 Z"/>
</svg>
