<?xml version="1.0" encoding="UTF-8" standalone="no"?>
<!-- Generated by IcoMoon.io -->

<svg
   version="1.1"
   width="31.937773"
   height="27.636208"
   viewBox="0 0 31.937773 27.636208"
   id="svg6"
   sodipodi:docname="j20.svg"
   inkscape:version="1.1.1 (3bf5ae0d25, 2021-09-20)"
   xmlns:inkscape="http://www.inkscape.org/namespaces/inkscape"
   xmlns:sodipodi="http://sodipodi.sourceforge.net/DTD/sodipodi-0.dtd"
   xmlns="http://www.w3.org/2000/svg"
   xmlns:svg="http://www.w3.org/2000/svg">
  <defs
     id="defs10" />
  <sodipodi:namedview
     id="namedview8"
     pagecolor="#ffffff"
     bordercolor="#666666"
     borderopacity="1.0"
     inkscape:pageshadow="2"
     inkscape:pageopacity="0.0"
     inkscape:pagecheckerboard="0"
     showgrid="false"
     inkscape:zoom="25.75"
     inkscape:cx="15.941748"
     inkscape:cy="13.805825"
     inkscape:window-width="1920"
     inkscape:window-height="1009"
     inkscape:window-x="-8"
     inkscape:window-y="-8"
     inkscape:window-maximized="1"
     inkscape:current-layer="svg6" />
  <title
     id="title2">j20</title>
  <path
     fill="#000000"
     d="m 9.5646016,4.0362068 c 0.6470004,-0.002 1.2790004,0.136 1.9040004,0.288 1.009,0.315 1.986,0.766 2.801,1.449 0.698,0.535 1.198,1.271 1.699,1.984 1.035,-1.695 2.712,-3.052 4.686,-3.432 l -0.084,-0.033 c 0.984,-0.231 2.037,-0.396 3.024,-0.088 1.284,0.398 2.278,1.472 2.758,2.705 0.571,1.454 0.67,3.0970002 0.246,4.6020002 l 0.007,0.018 c -0.505,1.491 -1.291,2.994 -2.583,3.939 -0.234,0.175 0.2,0.175 0.291,0.099 0.498,-0.376 0.994,-0.759 1.502,-1.122 0.631,0.885 0.959,2.017 0.644,3.085 -0.541,2.088 -2.205,3.638 -3.861,4.904 -0.743,0.579 -1.565,1.042 -2.346,1.565 3.937,-1.33 7.661,-4.051 9.202,-8.03 1.052,0.662 2.035,1.593 2.374,2.826 0.383,1.567 -0.272,3.273 -1.491,4.3 -0.441,-0.837 -1.314,-1.571 -2.316,-1.398 -1.136,0.258 -1.905,1.21 -2.79,1.892 -2.587,2.232 -5.835,3.74 -9.25,4.047 -3.465,-0.302 -6.7560004,-1.849 -9.3660004,-4.123 -0.853,-0.659 -1.601,-1.575 -2.697,-1.816 -0.972,-0.162 -1.845,0.52 -2.273,1.34 -0.056,-0.017 -0.167,-0.049 -0.221,-0.066 -1.02799996,-1.045 -1.65199996,-2.563 -1.34699996,-4.034 0.292,-1.299 1.31199996,-2.281 2.40299996,-2.966 1.401,3.646 4.673,6.208 8.1890004,7.677 0.348,0.122 0.688,0.267 1.037,0.391 -2.0580004,-1.337 -4.2060004,-2.729 -5.5300004,-4.86 -0.739,-1.183 -1.141,-2.753 -0.454,-4.054 0.144,-0.203 0.226,-0.579 0.505,-0.609 0.537,0.401 1.058,0.827 1.659,1.131 -0.995,-1.103 -1.951,-2.301 -2.415,-3.732 -0.545,-1.482 -0.502,-3.1460002 -0.023,-4.6380002 0.416,-1.301 1.352,-2.488 2.649,-2.986 0.333,-0.131 0.685,-0.206 1.04,-0.238 0.142,-0.013 0.284,-0.011 0.427,-0.017 z m 6.4680004,13.7610002 -0.065,0.003 c -0.71,-0.056 -0.845,0.802 -1.245,1.207 -0.305,0.17 -0.639,-0.071 -0.944,-0.122 0.238,2.034 0.984,4.026 2.19,5.685 1.2,-1.664 1.95,-3.653 2.187,-5.687 -0.305,0.049 -0.637,0.297 -0.941,0.122 -0.399,-0.426 -0.504,-1.156 -1.183,-1.208 z M 9.8236016,9.4772068 c -1.033,0.092 -0.593,0.027 -1.324,0.156 0.106,0.137 0.211,0.274 0.319,0.4090002 0.026,0.576 -0.025,1.2 0.296,1.71 0.432,0.789 1.3390004,1.261 2.2320004,1.202 0.596,-0.021 1.302,-0.258 1.735,0.3 0.104,-0.905 0.343,-1.842 0.092,-2.74 -0.134,-0.5150002 -0.669,-0.7360002 -1.141,-0.8350002 -0.516,-0.097 -0.714,-0.145 -1.32,-0.185 -0.296,-0.02 -0.593,-0.011 -0.8890004,-0.016 z m 12.0910004,-0.005 c -0.7,0.018 -0.4,10e-4 -0.899,0.037 -0.735,0.124 -1.675,0.096 -2.151,0.7710002 -0.418,0.938 -0.114,1.999 -0.007,2.973 0.477,-0.607 1.253,-0.271 1.897,-0.297 0.915,0.002 1.809,-0.56 2.171,-1.405 0.309,-0.614 -0.021,-1.392 0.479,-1.9280002 -0.489,-0.113 -0.99,-0.13 -1.49,-0.151 z m -2.727,-9.469 c 0.747,0.007 1.48,0.144 2.199,0.333 2.859,0.834 5.314,2.988 6.456,5.744 0.774,1.814 1.035,3.8 1.066,5.7580002 -0.069,1.388 -0.15,2.8 -0.583,4.133 -0.427,1.276 -1.113,2.459 -1.961,3.499 0.512,-0.824 1.009,-1.7 1.076,-2.691 0.14,-1.132 -0.262,-2.26 -0.939,-3.158 0.782,-1.094 1.325,-2.382 1.344,-3.7440002 0.134,-2.351 -0.759,-4.965 -2.854,-6.235 -1.01,-0.655 -2.242,-0.789 -3.415,-0.702 -2.134,0.203 -4.158,1.233 -5.607,2.806 -1.451,-1.571 -3.471,-2.605 -5.606,-2.806 -1.1740004,-0.082 -2.4070004,0.04 -3.4150004,0.698 -2.192,1.332 -3.074,4.115 -2.831,6.5650002 0.059,1.25 0.606,2.412 1.316,3.422 -0.678,0.896 -1.08,2.027 -0.939,3.158 0.076,0.98 0.55,1.86 1.073,2.671 -1.332,-1.585 -2.2,-3.562 -2.392,-5.629 -0.302,-2.438 -0.102,-4.9670002 0.738,-7.2840002 1.037,-2.894 3.493,-5.216 6.4180004,-6.139 1.684,-0.523 3.575,-0.588 5.216,0.117 0.14,0.041 0.281,0.089 0.419,0.14 0.14,-0.051 0.282,-0.096 0.427,-0.135 0.682,-0.296 1.415,-0.46 2.157,-0.509 0.212,-0.014 0.425,-0.01 0.637,-0.0149999951 z"
     id="path4" />
</svg>
