<?xml version="1.0" encoding="UTF-8" standalone="no"?>
<!-- Generated by IcoMoon.io -->

<svg
   version="1.1"
   width="30.266047"
   height="21.629999"
   viewBox="0 0 30.266047 21.629999"
   id="svg6"
   sodipodi:docname="j21.svg"
   inkscape:version="1.1.1 (3bf5ae0d25, 2021-09-20)"
   xmlns:inkscape="http://www.inkscape.org/namespaces/inkscape"
   xmlns:sodipodi="http://sodipodi.sourceforge.net/DTD/sodipodi-0.dtd"
   xmlns="http://www.w3.org/2000/svg"
   xmlns:svg="http://www.w3.org/2000/svg">
  <defs
     id="defs10" />
  <sodipodi:namedview
     id="namedview8"
     pagecolor="#ffffff"
     bordercolor="#666666"
     borderopacity="1.0"
     inkscape:pageshadow="2"
     inkscape:pageopacity="0.0"
     inkscape:pagecheckerboard="0"
     showgrid="false"
     inkscape:zoom="25.75"
     inkscape:cx="15.126214"
     inkscape:cy="10.776699"
     inkscape:window-width="1920"
     inkscape:window-height="1009"
     inkscape:window-x="-8"
     inkscape:window-y="-8"
     inkscape:window-maximized="1"
     inkscape:current-layer="svg6" />
  <title
     id="title2">j21</title>
  <path
     fill="#000000"
     d="m 17.473024,14.664 v 6.695 c 0,0.149 -0.122,0.271 -0.274,0.271 H 7.8420236 c -0.151,0 -0.274,-0.121 -0.274,-0.271 v -0.264 c 1.898,-0.086 3.5770004,-0.46 5.2580004,-1.373 0.2,-0.104 0.313,-0.166 0.698,-0.378 l -0.009,-0.009 c 0.23,-0.101 0.463,-0.271 0.651,-0.435 1.178,-1.02 1.612,-2.665 1.633,-4.168 l -0.002,-0.069 h 1.674 z m 6.224,-13.479 c -0.111,0 -0.222,0.004 -0.332,0.009 l -0.659,0.03 c -1.41,0.075 -2.916,0.427 -4.185,1.063 0.365,0.115 0.702,0.327 0.989,0.576 1.18,1.023 1.607,2.663 1.633,4.167 0,2.646 -1.466,4.888 -3.475,4.888 -0.122,-0.008 -0.166,-0.005 -0.195,-0.009 v -0.81 -2.992 c 0,-0.149 -0.122,-0.271 -0.273,-0.271 v 0 H 7.8430236 c -0.151,0 -0.274,0.121 -0.274,0.271 v 9.344 c -0.08,0.08 -0.209,0.155 -0.369,0.223 -0.146,0.061 -0.486,0.154 -0.486,0.154 -1.352,0.255 -2.618,-0.086 -3.376,-1.291 -0.657,-1.094 -0.628,-2.625 0.022,-4.004 0.338,-0.717 0.746,-0.581 0.658,-0.182 -0.057,0.256 -0.134,0.45 -0.153,0.492 -0.286,0.635 -0.275,2.42 0.22,3.245 0.576,0.925 1.626,1.11 2.628,0.848 l -0.015,-8.829 c 0,-0.633 0.515,-1.142 1.145,-1.142 H 11.845024 V 3.163 l -0.029,0.012 C 3.6640236,6.686 -1.4599764,12.979 0.37102363,17.231 1.4660236,19.684 4.1130236,20.177 6.7190236,20.221 l 0.85,0.003 c 1.389,-0.029 2.5200004,-0.284 3.8050004,-0.783 -1.8200004,-0.775 -2.4910004,-2.873 -2.5230004,-4.707 0,-2.078 1.055,-4.803 3.4750004,-4.888 v 0 l 0.187,0.007 0.203,0.028 v 3.641 c 0,0.15 0.123,0.271 0.274,0.271 h 9.357 c 0.151,0 0.274,-0.121 0.274,-0.271 V 4.161 c 0,0 0.008,-0.002 0.02,-0.005 0.469,-0.155 0.872,-0.244 0.872,-0.244 0.334,-0.083 0.679,-0.1 1.021,-0.11 1.052,0.027 1.973,0.444 2.474,1.375 0.62,1.152 0.58,2.291 0.044,3.632 -0.089,0.223 -0.508,0.843 -0.724,0.737 -0.216,-0.106 -0.029,-0.621 -0.013,-0.684 0.308,-1.247 0.442,-2.411 -0.053,-3.237 -0.618,-0.992 -1.702,-1.09 -2.75,-0.816 l -0.018,8.713 c 0,0.633 -0.515,1.142 -1.145,1.142 h -4.002 v 3.949 l 0.103,-0.043 c 8.152,-3.511 13.276,-9.804 11.445,-14.056 -1.135,-2.337 -3.089,-3.197 -5.581,-3.325 v 0 c -0.205,10e-4 -0.41,-0.002 -0.615,-0.005 v 0 z M 22.347024,0 h -9.357 c -0.151,0 -0.274,0.121 -0.274,0.271 v 6.695 h 1.478 c 0.025,-1.557 0.581,-3.43 2.08,-4.426 l 0.086,-0.058 c 1.917,-1.277 3.953,-1.913 6.26,-2.057 V 0.271 c 0,-0.149 -0.122,-0.271 -0.273,-0.271 z"
     id="path4" />
</svg>
