<?xml version="1.0" encoding="UTF-8" standalone="no"?>
<svg
   version="1.1"
   width="31.770493"
   height="23.130859"
   viewBox="0 0 31.770493 23.130859"
   id="svg4"
   xmlns="http://www.w3.org/2000/svg"
   xmlns:svg="http://www.w3.org/2000/svg">
  <defs>
    <!-- This is the gradient that will actually be used on
     the cards. The colors themselves will be provided by the
     template, but the x values, y values, and offsets will be
     used from the SVG. -->
    <linearGradient id="rarity" x1="0" y1="1" x2="1" y2="0">
      <stop offset="0" style="stop-color:rgb(192,55,38);stop-opacity:1" id="stop2" />
      <stop offset="0.125" style="stop-color:rgb(192,55,38);stop-opacity:1" id="stop4" />
      <stop offset="0.5" style="stop-color:rgb(241,142,30);stop-opacity:1" id="stop6" />
      <stop offset="0.875" style="stop-color:rgb(192,55,38);stop-opacity:1" id="stop8" />
      <stop offset="1" style="stop-color:rgb(192,55,38);stop-opacity:1" id="stop10" />
    </linearGradient>
    <!-- These gradients are here so that you can visualize
     what the set symbol would like like in that rarity. The
     only gradient that matters in the end is the "rarity"
     gradient. -->
    <linearGradient id="mythic" x1="0" y1="1" x2="1" y2="0">
      <stop offset="0" style="stop-color:rgb(192,55,38);stop-opacity:1"/>
      <stop offset="0.125" style="stop-color:rgb(192,55,38);stop-opacity:1"/>
      <stop offset="0.5" style="stop-color:rgb(241,142,30);stop-opacity:1"/>
      <stop offset="0.875" style="stop-color:rgb(192,55,38);stop-opacity:1"/>
      <stop offset="1" style="stop-color:rgb(192,55,38);stop-opacity:1"/>
    </linearGradient>
    <linearGradient id="rare" x1="0" y1="1" x2="1" y2="0">
      <stop offset="0" style="stop-color:rgb(146,116,67);stop-opacity:1"/>
      <stop offset="0.125" style="stop-color:rgb(146,116,67);stop-opacity:1"/>
      <stop offset="0.5" style="stop-color:rgb(211,178,108);stop-opacity:1"/>
      <stop offset="0.875" style="stop-color:rgb(146,116,67);stop-opacity:1"/>
      <stop offset="1" style="stop-color:rgb(146,116,67);stop-opacity:1"/>
    </linearGradient>
    <linearGradient id="special" x1="0" y1="1" x2="1" y2="0">
      <stop offset="0" style="stop-color:rgb(76, 56, 106);stop-opacity:1"/>
      <stop offset="0.125" style="stop-color:rgb(76, 56, 106);stop-opacity:1"/>
      <stop offset="0.5" style="stop-color:rgb(201, 173, 221);stop-opacity:1"/>
      <stop offset="0.875" style="stop-color:rgb(76, 56, 106);stop-opacity:1"/>
      <stop offset="1" style="stop-color:rgb(76, 56, 106);stop-opacity:1"/>
    </linearGradient>
    <linearGradient id="uncommon" x1="0" y1="1" x2="1" y2="0">
      <stop offset="0" style="stop-color:rgb(98,110,119);stop-opacity:1"/>
      <stop offset="0.125" style="stop-color:rgb(98,110,119);stop-opacity:1"/>
      <stop offset="0.5" style="stop-color:rgb(196,222,238);stop-opacity:1"/>
      <stop offset="0.875" style="stop-color:rgb(98,110,119);stop-opacity:1"/>
      <stop offset="1" style="stop-color:rgb(98,110,119);stop-opacity:1"/>
    </linearGradient>
    <linearGradient id="common" x1="0" y1="1" x2="1" y2="0">
      <stop offset="0" style="stop-color:rgb(0,0,0);stop-opacity:1"/>
    </linearGradient>
    <linearGradient
            id="rarity-outline" x1="0" y1="1" x2="0" y2="1">
      <stop offset="0" style="stop-color:rgb(0,0,0);stop-opacity:1"/>
    </linearGradient>
  </defs>
  <path fill="url(#rarity-outline)" d="m 13.742668,0 c -0.551661,0 -1.023437,0.46148493 -1.023437,1.0214844 v 2.0292968 l -0.443359,0.1835938 -0.0039,0.00195 C 8.0988807,5.0336419 4.6898979,7.5362556 2.5200124,10.201172 0.35012696,12.866088 -0.63509914,15.794478 0.43407488,18.277344 l 0.001953,0.0039 0.001953,0.0059 c 0.63156972,1.414832 1.76214522,2.303381 3.02148432,2.791016 1.2593391,0.487635 2.6540126,0.619852 4,0.642578 h 0.00391 0.1074219 v 0.388672 c 0,0.559999 0.4717757,1.021484 1.0234375,1.021484 h 9.3574224 c 0.553315,0 1.023437,-0.463089 1.023437,-1.021484 v -1.882813 l 0.519532,-0.216796 h 0.0039 c 4.173078,-1.797311 7.582067,-4.301881 9.751953,-6.966797 2.169885,-2.664917 3.155111,-5.593306 2.085937,-8.0761721 l -0.0078,-0.015625 -0.0059,-0.015625 C 30.071589,2.3592735 27.747808,1.3252508 25.103996,1.1894531 h -0.01953 -0.02148 c -0.195244,9.524e-4 -0.394609,-0.00286 -0.599609,-0.00586 l -0.183594,-0.00195 -0.01758,0.00977 c -0.04668,0.00139 -0.09609,2.71e-5 -0.140625,0.00195 V 1.0214851 C 24.121572,0.46308821 23.655063,0 23.10009,0 Z m 4.511719,3.5019531 0.792969,0.25 c 0.239224,0.075372 0.496005,0.2310926 0.722656,0.4277344 h 0.002 c 0.946036,0.820165 1.345943,2.2364488 1.371094,3.6054687 -0.0013,1.1817505 -0.334737,2.2637488 -0.847656,3.0039058 -0.373876,0.539513 -0.830063,0.820866 -1.320313,0.972657 V 8.8574219 c 0,-0.5583954 -0.468464,-1.0214844 -1.023437,-1.0214844 h -2.257813 l 0.002,-0.1074219 c 0.02229,-1.388173 0.536881,-3.011 1.746094,-3.8144531 h 0.002 l 0.08398,-0.058594 0.0039,-0.00195 C 17.764997,3.6982469 18.018075,3.6371399 18.254387,3.5019531 Z M 12.719231,11.46875 v 2.802734 c 0,0.56 0.471776,1.021485 1.023437,1.021485 h 2.052735 l 0.0059,0.18164 c -0.01981,1.365131 -0.428695,2.791685 -1.373047,3.609375 h -0.002 c -0.150152,0.130984 -0.343878,0.263049 -0.460937,0.314454 L 13.088372,19.785156 12.420403,19.5 c -0.716118,-0.30494 -1.206084,-0.857909 -1.546875,-1.583984 -0.339695,-0.723739 -0.502168,-1.609243 -0.517578,-2.4375 0.001,-0.910908 0.246855,-2.003116 0.722656,-2.802735 0.399282,-0.671023 0.94156,-1.056821 1.640625,-1.207031 z" />
  <path fill="url(#rarity)" d="m 18.225458,15.414 v 6.695 c 0,0.149 -0.122,0.271 -0.274,0.271 H 8.5944579 c -0.151,0 -0.274,-0.121 -0.274,-0.271 v -0.264 c 1.8980001,-0.086 3.5770001,-0.46 5.2580001,-1.373 0.2,-0.104 0.313,-0.166 0.698,-0.378 l -0.009,-0.009 c 0.23,-0.101 0.463,-0.271 0.651,-0.435 1.178,-1.02 1.612,-2.665 1.633,-4.168 l -0.002,-0.069 h 1.674 z m 6.224,-13.479 c -0.111,0 -0.222,0.004 -0.332,0.009 l -0.659,0.03 c -1.41,0.075 -2.916,0.427 -4.185,1.063 0.365,0.115 0.702,0.327 0.989,0.576 1.18,1.023 1.607,2.663 1.633,4.167 0,2.646 -1.466,4.888 -3.475,4.888 -0.122,-0.008 -0.166,-0.005 -0.195,-0.009 v -0.81 -2.992 c 0,-0.149 -0.122,-0.271 -0.273,-0.271 v 0 H 8.5954579 c -0.151,0 -0.274,0.121 -0.274,0.271 v 9.344 c -0.08,0.08 -0.209,0.155 -0.369,0.223 -0.146,0.061 -0.486,0.154 -0.486,0.154 -1.352,0.255 -2.618,-0.086 -3.376,-1.291 -0.657,-1.094 -0.628,-2.625 0.022,-4.004 0.338,-0.717 0.746,-0.581 0.658,-0.182 -0.057,0.256 -0.134,0.45 -0.153,0.492 -0.286,0.635 -0.275,2.42 0.22,3.245 0.576,0.925 1.626,1.11 2.628,0.848 l -0.015,-8.829 c 0,-0.633 0.515,-1.142 1.145,-1.142 H 12.597458 V 3.913 l -0.029,0.012 C 4.4164579,7.436 -0.70754214,13.729 1.1234579,17.981 c 1.095,2.453 3.742,2.946 6.348,2.99 l 0.85,0.003 c 1.389,-0.029 2.5200001,-0.284 3.8050001,-0.783 -1.82,-0.775 -2.4910001,-2.873 -2.5230001,-4.707 0,-2.078 1.0550001,-4.803 3.4750001,-4.888 v 0 l 0.187,0.007 0.203,0.028 v 3.641 c 0,0.15 0.123,0.271 0.274,0.271 h 9.357 c 0.151,0 0.274,-0.121 0.274,-0.271 V 4.911 c 0,0 0.008,-0.002 0.02,-0.005 0.469,-0.155 0.872,-0.244 0.872,-0.244 0.334,-0.083 0.679,-0.1 1.021,-0.11 1.052,0.027 1.973,0.444 2.474,1.375 0.62,1.152 0.58,2.291 0.044,3.632 -0.089,0.223 -0.508,0.843 -0.724,0.737 -0.216,-0.106 -0.029,-0.621 -0.013,-0.684 0.308,-1.247 0.442,-2.411 -0.053,-3.237 -0.618,-0.992 -1.702,-1.09 -2.75,-0.816 l -0.018,8.713 c 0,0.633 -0.515,1.142 -1.145,1.142 h -4.002 v 3.949 l 0.103,-0.043 c 8.152,-3.511 13.276,-9.804 11.445,-14.056 -1.135,-2.337 -3.089,-3.197 -5.581,-3.325 v 0 c -0.205,10e-4 -0.41,-0.002 -0.615,-0.005 v 0 z m -1.35,-1.185 h -9.357 c -0.151,0 -0.274,0.121 -0.274,0.271 v 6.695 h 1.478 c 0.025,-1.557 0.581,-3.43 2.08,-4.426 l 0.086,-0.058 c 1.917,-1.277 3.953,-1.913 6.26,-2.057 V 1.021 c 0,-0.149 -0.122,-0.271 -0.273,-0.271 z"/>
</svg>
