<?xml version="1.0" encoding="UTF-8" standalone="no"?>
<!-- Generated by IcoMoon.io -->

<svg
   version="1.1"
   width="31.95203"
   height="26.796743"
   viewBox="0 0 31.95203 26.796743"
   id="svg6"
   sodipodi:docname="leb.svg"
   inkscape:version="1.1.1 (3bf5ae0d25, 2021-09-20)"
   xmlns:inkscape="http://www.inkscape.org/namespaces/inkscape"
   xmlns:sodipodi="http://sodipodi.sourceforge.net/DTD/sodipodi-0.dtd"
   xmlns="http://www.w3.org/2000/svg"
   xmlns:svg="http://www.w3.org/2000/svg">
  <defs
     id="defs10" />
  <sodipodi:namedview
     id="namedview8"
     pagecolor="#ffffff"
     bordercolor="#666666"
     borderopacity="1.0"
     inkscape:pageshadow="2"
     inkscape:pageopacity="0.0"
     inkscape:pagecheckerboard="0"
     showgrid="false"
     inkscape:zoom="25.75"
     inkscape:cx="15.941748"
     inkscape:cy="13.378641"
     inkscape:window-width="1920"
     inkscape:window-height="1009"
     inkscape:window-x="-8"
     inkscape:window-y="-8"
     inkscape:window-maximized="1"
     inkscape:current-layer="svg6" />
  <title
     id="title2">leb</title>
  <path
     fill="#000000"
     d="m 22.825491,0 c 0,0 1.688,0.18 1.688,1.926 l 6.263,1.748 c 0,0 1.564,0.601 1.084,2.649 l -5.178,19.335 c 0,0 -1.085,1.441 -2.349,1.081 l -8.354,-2.298 -8.358,2.298 c -1.264,0.36 -2.349,-1.081 -2.349,-1.081 L 0.09149101,6.323 C -0.38850899,4.274 1.176491,3.674 1.176491,3.674 l 6.265,-1.748 c 0,-1.745 1.685,-1.926 1.685,-1.926 z m -0.054,0.722 h -13.59 c -0.077,0.014 -0.32,0.068 -0.546,0.22 -0.323,0.214 -0.472,0.526 -0.472,0.984 v 0.549 c 0,0 -6.647,1.855 -6.744,1.88 -0.175,0.083 -0.69599999,0.395 -0.69599999,1.227 0,0.169 0.023,0.358 0.072,0.573 0.009,0.034 5.05299999,18.857 5.13299999,19.16 0.223,0.252 0.878,0.907 1.496,0.732 l 8.552,-2.355 8.557,2.355 c 0.615,0.174 1.268,-0.48 1.491,-0.732 0.084,-0.303 5.125,-19.126 5.136,-19.16 0.049,-0.215 0.072,-0.404 0.072,-0.573 0,-0.832 -0.524,-1.144 -0.695,-1.227 -0.097,-0.026 -6.746,-1.88 -6.746,-1.88 V 1.926 c 0,-0.458 -0.149,-0.77 -0.47,-0.984 -0.229,-0.152 -0.47,-0.207 -0.549,-0.22 v 0 z m -14.752,2.752 v 18.588 c 0,0 0.158,1.208 1.122,1.208 h 5.222 l -6.987,1.926 c 0,0 -0.403,0.2 -0.604,-0.243 l -5.138,-19.069 c 0,0 -0.201,-0.604 0.28,-0.764 l 6.106,-1.645 z m 15.917,-0.043 6.103,1.648 c 0.483,0.16 0.283,0.761 0.283,0.761 l -5.142,19.075 c -0.2,0.441 -0.601,0.24 -0.601,0.24 l -6.987,-1.926 h 5.219 c 0.964,0 1.124,-1.207 1.124,-1.207 V 3.431 Z m -1.222,-1.806 c 0.28,0 0.32,0.36 0.32,0.36 v 19.999 c 0,0.318 -0.32,0.398 -0.32,0.398 h -13.45 c -0.283,0 -0.283,-0.398 -0.283,-0.398 V 1.985 c 0,-0.24 0.283,-0.36 0.283,-0.36 z m -5.008,4.168 c -0.28,0 -0.52,0.023 -0.718,0.07 v 0 c -0.968,0.222 -1.741,0.499 -2.319,0.832 -0.578,0.333 -1.246,0.499 -2.004,0.499 -0.327,0 -0.677,-0.041 -1.05,-0.123 -0.373,-0.082 -0.741,-0.163 -1.103,-0.245 -0.117,0 -0.213,0.05 -0.289,0.149 -0.076,0.099 -0.114,0.19 -0.114,0.271 0,0.129 0.382,0.245 1.146,0.35 0.764,0.105 1.196,0.405 1.295,0.901 0.099,0.496 0.19,1.444 0.271,2.844 0.081,1.4 0.123,2.649 0.123,3.745 0,0.514 -0.012,0.925 -0.035,1.234 -0.023,0.309 -0.058,0.481 -0.105,0.516 l -2.048,0.577 c -0.07,0.058 -0.105,0.111 -0.105,0.158 0,0.07 0.018,0.131 0.053,0.184 0.035,0.053 0.076,0.096 0.123,0.131 l 1.593,-0.28 0.613,-0.035 c 0.502,0 1.053,0.079 1.654,0.236 0.601,0.157 1.106,0.274 1.514,0.35 0.408,0.076 0.864,0.114 1.365,0.114 0.397,0 0.793,-0.035 1.19,-0.105 0.397,-0.07 0.863,-0.21 1.4,-0.42 0.537,-0.21 0.919,-0.581 1.146,-1.111 0.227,-0.53 0.341,-1.117 0.341,-1.759 0,-0.688 -0.277,-1.377 -0.831,-2.065 -0.554,-0.688 -1.263,-1.114 -2.127,-1.278 0.163,-0.116 0.583,-0.408 1.26,-0.875 0.572,-0.525 0.858,-1.161 0.858,-1.908 0,-0.163 -0.041,-0.499 -0.123,-1.006 -0.082,-0.507 -0.417,-0.96 -1.007,-1.356 -0.589,-0.397 -1.246,-0.595 -1.969,-0.595 z m -1.243,1.033 c 0.653,0 1.187,0.207 1.602,0.621 0.415,0.414 0.622,0.925 0.622,1.531 v 0.297 c 0,0.677 -0.257,1.188 -0.77,1.532 -0.513,0.344 -1.068,0.569 -1.663,0.674 0.852,0.374 1.709,0.747 2.573,1.12 0.7,0.432 1.05,1.015 1.05,1.75 0,0.817 -0.096,1.467 -0.289,1.951 -0.193,0.484 -0.502,0.831 -0.927,1.041 -0.426,0.21 -1.018,0.315 -1.777,0.315 -0.432,0 -0.823,-0.047 -1.173,-0.14 -0.35,-0.093 -0.607,-0.242 -0.77,-0.446 -0.163,-0.204 -0.268,-0.435 -0.315,-0.691 -0.047,-0.256 -0.07,-0.642 -0.07,-1.155 0.012,-0.502 0.024,-1.03 0.035,-1.584 0.011,-0.554 0.018,-1.257 0.018,-2.109 0,-0.198 -0.006,-0.508 -0.018,-0.928 -0.012,-0.42 -0.018,-0.735 -0.018,-0.945 0,-0.84 0.096,-1.496 0.289,-1.969 0.193,-0.473 0.592,-0.75 1.199,-0.832 l 0.402,-0.035 z"
     id="path4" />
</svg>
