<?xml version="1.0" encoding="UTF-8" standalone="no"?>
<!-- Generated by IcoMoon.io -->

<svg
   version="1.1"
   width="28.027"
   height="24.410999"
   viewBox="0 0 28.027 24.410999"
   id="svg6"
   sodipodi:docname="leg.svg"
   inkscape:version="1.1.1 (3bf5ae0d25, 2021-09-20)"
   xmlns:inkscape="http://www.inkscape.org/namespaces/inkscape"
   xmlns:sodipodi="http://sodipodi.sourceforge.net/DTD/sodipodi-0.dtd"
   xmlns="http://www.w3.org/2000/svg"
   xmlns:svg="http://www.w3.org/2000/svg">
  <defs
     id="defs10" />
  <sodipodi:namedview
     id="namedview8"
     pagecolor="#ffffff"
     bordercolor="#666666"
     borderopacity="1.0"
     inkscape:pageshadow="2"
     inkscape:pageopacity="0.0"
     inkscape:pagecheckerboard="0"
     showgrid="false"
     inkscape:zoom="25.75"
     inkscape:cx="14"
     inkscape:cy="11.902913"
     inkscape:window-width="1920"
     inkscape:window-height="1009"
     inkscape:window-x="-8"
     inkscape:window-y="-8"
     inkscape:window-maximized="1"
     inkscape:current-layer="svg6" />
  <title
     id="title2">leg</title>
  <path
     fill="#000000"
     d="M 23.77,5.302 H 20.389 C 20.269,5.042 20.184,4.853 20.184,4.853 H 7.842 c 0,0 -0.091,0.197 -0.205,0.449 H 4.258 L 3.656,4.547 4.847,3.327 h 18.331 l 1.191,1.22 z M 20.968,7.671 21.97,8.727 H 6.057 L 7.056,7.671 Z m -2.476,9.625 v -4.422 l 0.501,-0.67 h 1.518 l 0.501,0.67 0.003,2.818 -2.522,1.604 z m -5.743,2.987 v -7.409 l 0.501,-0.67 h 1.518 l 0.501,0.67 0.003,5.514 -2.522,1.895 z M 7.009,23.27 V 12.874 l 0.501,-0.67 h 1.515 l 0.504,0.67 0.003,8.499 L 7.01,23.27 Z M 0,0 1.565,3.618 3.207,4.78 3.952,5.75 h 3.48 L 6.677,7.416 5.694,8.457 4.661,11.179 v 13.232 h 1.131 l 1.456,-0.757 2.434,-1.83 h 1.088 l 2.221,-1.157 2.431,-1.827 h 1.077 l 2.234,-1.165 2.411,-1.534 h 0.543 l 1.679,-0.874 V 11.182 L 22.336,8.46 21.35,7.419 20.595,5.75 h 3.456 L 24.82,4.78 26.462,3.622 28.027,0 H 10e-4 Z"
     id="path4" />
</svg>
