<?xml version="1.0" encoding="UTF-8" standalone="no"?>
<svg
   version="1.1"
   width="29.526922"
   height="25.910999"
   viewBox="0 0 29.526922 25.910999"
   id="svg4"
   xmlns="http://www.w3.org/2000/svg"
   xmlns:svg="http://www.w3.org/2000/svg">
  <defs>
    <!-- This is the gradient that will actually be used on
     the cards. The colors themselves will be provided by the
     template, but the x values, y values, and offsets will be
     used from the SVG. -->
    <linearGradient id="rarity" x1="0" y1="1" x2="1" y2="0">
      <stop offset="0" style="stop-color:rgb(192,55,38);stop-opacity:1" id="stop2" />
      <stop offset="0.125" style="stop-color:rgb(192,55,38);stop-opacity:1" id="stop4" />
      <stop offset="0.5" style="stop-color:rgb(241,142,30);stop-opacity:1" id="stop6" />
      <stop offset="0.875" style="stop-color:rgb(192,55,38);stop-opacity:1" id="stop8" />
      <stop offset="1" style="stop-color:rgb(192,55,38);stop-opacity:1" id="stop10" />
    </linearGradient>
    <!-- These gradients are here so that you can visualize
     what the set symbol would like like in that rarity. The
     only gradient that matters in the end is the "rarity"
     gradient. -->
    <linearGradient id="mythic" x1="0" y1="1" x2="1" y2="0">
      <stop offset="0" style="stop-color:rgb(192,55,38);stop-opacity:1"/>
      <stop offset="0.125" style="stop-color:rgb(192,55,38);stop-opacity:1"/>
      <stop offset="0.5" style="stop-color:rgb(241,142,30);stop-opacity:1"/>
      <stop offset="0.875" style="stop-color:rgb(192,55,38);stop-opacity:1"/>
      <stop offset="1" style="stop-color:rgb(192,55,38);stop-opacity:1"/>
    </linearGradient>
    <linearGradient id="rare" x1="0" y1="1" x2="1" y2="0">
      <stop offset="0" style="stop-color:rgb(146,116,67);stop-opacity:1"/>
      <stop offset="0.125" style="stop-color:rgb(146,116,67);stop-opacity:1"/>
      <stop offset="0.5" style="stop-color:rgb(211,178,108);stop-opacity:1"/>
      <stop offset="0.875" style="stop-color:rgb(146,116,67);stop-opacity:1"/>
      <stop offset="1" style="stop-color:rgb(146,116,67);stop-opacity:1"/>
    </linearGradient>
    <linearGradient id="special" x1="0" y1="1" x2="1" y2="0">
      <stop offset="0" style="stop-color:rgb(76, 56, 106);stop-opacity:1"/>
      <stop offset="0.125" style="stop-color:rgb(76, 56, 106);stop-opacity:1"/>
      <stop offset="0.5" style="stop-color:rgb(201, 173, 221);stop-opacity:1"/>
      <stop offset="0.875" style="stop-color:rgb(76, 56, 106);stop-opacity:1"/>
      <stop offset="1" style="stop-color:rgb(76, 56, 106);stop-opacity:1"/>
    </linearGradient>
    <linearGradient id="uncommon" x1="0" y1="1" x2="1" y2="0">
      <stop offset="0" style="stop-color:rgb(98,110,119);stop-opacity:1"/>
      <stop offset="0.125" style="stop-color:rgb(98,110,119);stop-opacity:1"/>
      <stop offset="0.5" style="stop-color:rgb(196,222,238);stop-opacity:1"/>
      <stop offset="0.875" style="stop-color:rgb(98,110,119);stop-opacity:1"/>
      <stop offset="1" style="stop-color:rgb(98,110,119);stop-opacity:1"/>
    </linearGradient>
    <linearGradient id="common" x1="0" y1="1" x2="1" y2="0">
      <stop offset="0" style="stop-color:rgb(0,0,0);stop-opacity:1"/>
    </linearGradient>
    <linearGradient
            id="rarity-outline" x1="0" y1="1" x2="0" y2="1">
      <stop offset="0" style="stop-color:rgb(0,0,0);stop-opacity:1"/>
    </linearGradient>
  </defs>
  <path fill="url(#rarity-outline)" d="M 0.75 0 A 0.750075 0.750075 0 0 0 0.0625 1.046875 L 1.6269531 4.6660156 A 0.750075 0.750075 0 0 0 1.8808594 4.9804688 L 3.4316406 6.0761719 L 4.1074219 6.9570312 A 0.750075 0.750075 0 0 0 4.7011719 7.25 L 7.0175781 7.25 L 6.7949219 7.7421875 L 5.8984375 8.6914062 A 0.750075 0.750075 0 0 0 5.7421875 8.9414062 L 4.7089844 11.662109 A 0.750075 0.750075 0 0 0 4.6601562 11.929688 L 4.6601562 25.160156 A 0.750075 0.750075 0 0 0 5.4101562 25.910156 L 6.5410156 25.910156 A 0.750075 0.750075 0 0 0 6.8886719 25.826172 L 8.34375 25.070312 A 0.750075 0.750075 0 0 0 8.4492188 25.003906 L 10.681641 23.324219 L 11.519531 23.324219 A 0.750075 0.750075 0 0 0 11.867188 23.238281 L 14.087891 22.082031 A 0.750075 0.750075 0 0 0 14.191406 22.015625 L 16.421875 20.339844 L 17.248047 20.339844 A 0.750075 0.750075 0 0 0 17.595703 20.255859 L 19.830078 19.089844 A 0.750075 0.750075 0 0 0 19.884766 19.058594 L 22.113281 17.640625 L 22.4375 17.640625 A 0.750075 0.750075 0 0 0 22.783203 17.556641 L 24.462891 16.681641 A 0.750075 0.750075 0 0 0 24.865234 16.017578 L 24.865234 11.931641 A 0.750075 0.750075 0 0 0 24.818359 11.666016 L 23.787109 8.9453125 A 0.750075 0.750075 0 0 0 23.630859 8.6933594 L 22.730469 7.7441406 L 22.505859 7.25 L 24.800781 7.25 A 0.750075 0.750075 0 0 0 25.388672 6.9667969 L 26.089844 6.0800781 L 27.644531 4.984375 A 0.750075 0.750075 0 0 0 27.900391 4.6699219 L 29.464844 1.046875 A 0.750075 0.750075 0 0 0 28.777344 0 L 0.75 0 z " />
  <path fill="url(#rarity)" d="m 24.519961,6.052 h -3.381 c -0.12,-0.26 -0.205,-0.449 -0.205,-0.449 H 8.5919609 c 0,0 -0.091,0.197 -0.205,0.449 h -3.379 l -0.602,-0.755 1.191,-1.22 H 23.927961 l 1.191,1.22 z m -2.802,2.369 1.002,1.056 H 6.8069609 l 0.999,-1.056 z m -2.476,9.625 v -4.422 l 0.501,-0.67 h 1.518 l 0.501,0.67 0.003,2.818 -2.522,1.604 z m -5.743,2.987 v -7.409 l 0.501,-0.67 h 1.518 l 0.501,0.67 0.003,5.514 -2.522,1.895 z M 7.7589609,24.02 V 13.624 l 0.501,-0.67 h 1.515 l 0.5040001,0.67 0.003,8.499 -2.5220001,1.897 z M 0.74996086,0.75 2.3149609,4.368 l 1.642,1.162 0.745,0.97 h 3.48 l -0.755,1.666 -0.983,1.041 -1.033,2.722 v 13.232 h 1.131 l 1.456,-0.757 2.4340001,-1.83 h 1.088 l 2.221,-1.157 2.431,-1.827 h 1.077 l 2.234,-1.165 2.411,-1.534 h 0.543 l 1.679,-0.874 v -4.085 l -1.03,-2.722 -0.986,-1.041 -0.755,-1.669 h 3.456 l 0.769,-0.97 1.642,-1.158 1.565,-3.622 H 0.75096086 Z"/>
</svg>
