<?xml version="1.0" encoding="UTF-8" standalone="no"?>
<svg
   version="1.1"
   width="31.500999"
   height="16.832001"
   viewBox="0 0 31.500999 16.832001"
   id="svg4"
   xmlns="http://www.w3.org/2000/svg"
   xmlns:svg="http://www.w3.org/2000/svg">
  <defs>
    <!-- This is the gradient that will actually be used on
     the cards. The colors themselves will be provided by the
     template, but the x values, y values, and offsets will be
     used from the SVG. -->
    <linearGradient id="rarity" x1="0" y1="1" x2="1" y2="0">
      <stop offset="0" style="stop-color:rgb(192,55,38);stop-opacity:1" id="stop2" />
      <stop offset="0.125" style="stop-color:rgb(192,55,38);stop-opacity:1" id="stop4" />
      <stop offset="0.5" style="stop-color:rgb(241,142,30);stop-opacity:1" id="stop6" />
      <stop offset="0.875" style="stop-color:rgb(192,55,38);stop-opacity:1" id="stop8" />
      <stop offset="1" style="stop-color:rgb(192,55,38);stop-opacity:1" id="stop10" />
    </linearGradient>
    <!-- These gradients are here so that you can visualize
     what the set symbol would like like in that rarity. The
     only gradient that matters in the end is the "rarity"
     gradient. -->
    <linearGradient id="mythic" x1="0" y1="1" x2="1" y2="0">
      <stop offset="0" style="stop-color:rgb(192,55,38);stop-opacity:1"/>
      <stop offset="0.125" style="stop-color:rgb(192,55,38);stop-opacity:1"/>
      <stop offset="0.5" style="stop-color:rgb(241,142,30);stop-opacity:1"/>
      <stop offset="0.875" style="stop-color:rgb(192,55,38);stop-opacity:1"/>
      <stop offset="1" style="stop-color:rgb(192,55,38);stop-opacity:1"/>
    </linearGradient>
    <linearGradient id="rare" x1="0" y1="1" x2="1" y2="0">
      <stop offset="0" style="stop-color:rgb(146,116,67);stop-opacity:1"/>
      <stop offset="0.125" style="stop-color:rgb(146,116,67);stop-opacity:1"/>
      <stop offset="0.5" style="stop-color:rgb(211,178,108);stop-opacity:1"/>
      <stop offset="0.875" style="stop-color:rgb(146,116,67);stop-opacity:1"/>
      <stop offset="1" style="stop-color:rgb(146,116,67);stop-opacity:1"/>
    </linearGradient>
    <linearGradient id="special" x1="0" y1="1" x2="1" y2="0">
      <stop offset="0" style="stop-color:rgb(76, 56, 106);stop-opacity:1"/>
      <stop offset="0.125" style="stop-color:rgb(76, 56, 106);stop-opacity:1"/>
      <stop offset="0.5" style="stop-color:rgb(201, 173, 221);stop-opacity:1"/>
      <stop offset="0.875" style="stop-color:rgb(76, 56, 106);stop-opacity:1"/>
      <stop offset="1" style="stop-color:rgb(76, 56, 106);stop-opacity:1"/>
    </linearGradient>
    <linearGradient id="uncommon" x1="0" y1="1" x2="1" y2="0">
      <stop offset="0" style="stop-color:rgb(98,110,119);stop-opacity:1"/>
      <stop offset="0.125" style="stop-color:rgb(98,110,119);stop-opacity:1"/>
      <stop offset="0.5" style="stop-color:rgb(196,222,238);stop-opacity:1"/>
      <stop offset="0.875" style="stop-color:rgb(98,110,119);stop-opacity:1"/>
      <stop offset="1" style="stop-color:rgb(98,110,119);stop-opacity:1"/>
    </linearGradient>
    <linearGradient id="common" x1="0" y1="1" x2="1" y2="0">
      <stop offset="0" style="stop-color:rgb(0,0,0);stop-opacity:1"/>
    </linearGradient>
    <linearGradient
            id="rarity-outline" x1="0" y1="1" x2="0" y2="1">
      <stop offset="0" style="stop-color:rgb(0,0,0);stop-opacity:1"/>
    </linearGradient>
  </defs>
  <path fill="url(#rarity)" d="m 29.476,0.001 c 0.635,1.583 1.363,3.15 1.656,4.843 0.163,0.648 0.224,1.312 0.369,1.962 v 2.869 c -0.13,0.79 -0.187,1.593 -0.377,2.37 -0.115,0.731 -0.389,1.42 -0.59,2.126 -0.32,0.906 -0.682,1.799 -1.11,2.661 H 2.082 C 1.511,15.736 1.097,14.568 0.714,13.398 0.544,12.704 0.313,12.028 0.219,11.319 0.162,10.908 0.098,10.497 0,10.095 v -3 C 0.076,6.615 0.145,6.135 0.199,5.652 0.278,4.885 0.524,4.149 0.728,3.408 1.06,2.234 1.565,1.122 2.032,0 h 27.443 z"/>
  <path fill="url(#rarity-outline)" d="M 28.521,0.992 C 20.24,0.995 11.963,0.992 3.685,0.995 3.347,0.997 3.01,0.978 2.673,1.007 2.51,1.612 2.186,2.154 2.004,2.752 1.738,3.604 1.435,4.452 1.275,5.334 1.093,6.19 1.049,7.069 1.039,7.94 1.034,8.824 1.034,9.71 1.125,10.588 c 0.076,0.596 0.224,1.177 0.355,1.76 0.152,0.81 0.497,1.561 0.753,2.335 0.167,0.382 0.32,0.768 0.473,1.152 8.697,0.005 17.394,0.005 26.089,0 0.64,-1.573 1.263,-3.175 1.504,-4.866 0.185,-0.871 0.142,-1.765 0.192,-2.648 C 30.447,7.637 30.464,6.945 30.371,6.263 30.265,5.707 30.197,5.143 30.042,4.597 29.939,3.942 29.668,3.332 29.483,2.699 29.279,2.123 29.018,1.569 28.784,1.006 28.696,1.001 28.61,0.994 28.523,0.991 Z M 3.616,1.991 c 8.166,0.008 16.334,-0.005 24.502,0.008 0.157,0.241 0.244,0.519 0.34,0.79 0.209,0.633 0.44,1.258 0.62,1.902 0.111,0.616 0.263,1.225 0.32,1.851 0.152,0.861 0.106,1.737 0.108,2.606 v 0 c 0.005,0.364 -0.052,0.724 -0.101,1.083 -0.054,0.357 -0.067,0.724 -0.143,1.078 -0.081,0.379 -0.192,0.75 -0.29,1.127 -0.177,0.79 -0.492,1.54 -0.788,2.294 -0.02,0.113 -0.147,0.103 -0.236,0.11 -7.939,-0.002 -15.878,0 -23.82,0 C 3.872,14.831 3.606,14.877 3.357,14.806 3.162,14.37 2.983,13.92 2.845,13.46 3.251,13.212 3.731,13.128 4.193,13.064 4.732,13.022 5.276,13.025 5.81,13.118 5.824,12.865 5.827,12.609 5.805,12.355 5.559,12.188 5.207,12.077 5.143,11.75 5.042,11.266 5.232,10.793 5.355,10.335 5.463,9.878 5.707,9.474 5.874,9.038 5.992,8.721 6.258,8.433 6.199,8.075 6.186,7.898 6.009,7.807 5.871,7.733 5.62,7.613 5.359,7.49 5.078,7.458 4.896,7.436 4.754,7.583 4.682,7.733 4.21,8.723 3.949,9.796 3.513,10.802 3.284,11.395 3.003,11.996 2.536,12.444 2.378,12.102 2.349,11.72 2.256,11.361 2.143,10.795 2.074,10.221 2.012,9.653 1.98,8.871 1.985,8.088 2.007,7.303 2.071,6.405 2.263,5.521 2.433,4.64 2.696,3.752 2.999,2.873 3.348,2.014 3.437,2.006 3.526,1.994 3.614,1.992 Z M 5.315,3.147 5.149,3.163 C 4.94,3.316 4.789,3.54 4.644,3.751 4.565,3.852 4.578,4.007 4.698,4.069 4.988,4.21 5.325,4.214 5.618,4.359 5.832,4.435 5.753,4.711 5.741,4.883 5.603,5.434 5.308,5.931 5.17,6.48 5.108,6.753 5.396,6.891 5.593,6.997 c 0.285,0.135 0.581,0.36 0.913,0.266 0.261,-0.207 0.266,-0.6 0.507,-0.822 0.192,-0.15 0.354,0.111 0.484,0.224 0.65,0.771 1.073,1.698 1.464,2.616 0.306,0.665 0.5,1.371 0.719,2.065 0.222,0.721 0.379,1.479 0.31,2.237 0,0.116 -0.034,0.244 0.015,0.352 0.253,0.204 0.551,0.342 0.849,0.473 0.33,-0.595 0.778,-1.13 1.351,-1.501 0.253,-0.165 0.544,-0.251 0.807,-0.394 -0.12,-0.856 -0.443,-1.666 -0.753,-2.466 v 0 C 12.074,9.585 12.037,9.077 12.096,8.588 12.136,8.282 12.409,8.088 12.507,7.807 12.588,7.527 12.345,7.315 12.185,7.118 12.025,6.955 11.873,6.727 11.621,6.709 11.409,6.744 11.244,6.894 11.045,6.963 10.922,6.955 10.833,6.855 10.747,6.778 10.127,6.116 9.773,5.267 9.236,4.543 8.935,4.164 8.677,3.733 8.618,3.246 7.905,3.197 7.189,3.219 6.472,3.199 6.195,3.205 5.92,3.159 5.643,3.148 5.533,3.143 5.422,3.147 5.312,3.146 Z m 7.052,-0.262 c -0.163,0.268 -0.337,0.529 -0.495,0.802 0.396,0.271 0.866,0.426 1.24,0.731 0.094,0.079 0.173,0.209 0.113,0.335 -0.113,0.28 -0.278,0.534 -0.448,0.783 -0.133,0.199 -0.332,0.347 -0.462,0.546 -0.094,0.2 -0.025,0.438 0.115,0.598 0.17,0.207 0.34,0.428 0.569,0.576 0.221,0.091 0.425,-0.103 0.639,-0.133 0.158,0.074 0.219,0.254 0.298,0.396 0.401,0.911 0.923,1.767 1.263,2.707 0.175,0.453 0.453,0.948 0.275,1.445 -0.239,0.581 -0.829,0.881 -1.258,1.302 0.187,0.266 0.421,0.5 0.65,0.731 0.275,-0.16 0.536,-0.355 0.846,-0.45 0.852,-0.261 1.76,-0.253 2.636,-0.135 0.566,0.035 1.098,0.258 1.659,0.32 C 20.12,13.23 20.248,13.016 20.27,12.772 20.189,12.6 20.029,12.489 19.881,12.386 19.524,12.15 19.158,11.929 18.835,11.648 18.489,11.318 18.463,10.811 18.326,10.378 18.042,9.46 17.61,8.596 17.243,7.707 16.965,7.011 16.561,6.371 16.227,5.702 16.01,5.252 15.904,4.757 15.848,4.262 15.804,3.929 15.944,3.619 15.971,3.292 15.764,3.167 15.57,3.014 15.349,2.911 15.101,2.948 14.865,3.063 14.608,3.076 14.165,3.101 13.72,3.101 13.277,3.058 c -0.31,-0.027 -0.6,-0.15 -0.91,-0.172 z m 8.754,0.101 C 20.511,3.19 19.94,3.493 19.344,3.739 v 0 c -0.362,0.168 -0.753,0.278 -1.078,0.515 -0.01,0.177 -0.01,0.354 0.005,0.532 0.384,0.037 0.768,-0.018 1.149,0.014 0.096,-0.005 0.155,0.086 0.158,0.172 0.096,1.605 0.091,3.212 0.013,4.816 0.106,-0.049 0.202,-0.116 0.273,-0.209 0.298,-0.357 0.638,-0.677 0.99,-0.982 C 20.95,8.506 21.08,8.41 21.065,8.257 21.078,7.388 21.063,6.519 21.07,5.653 21.129,4.765 21.092,3.874 21.122,2.986 Z m 4.22,0.075 c -0.121,0.02 -0.07,0.005 -0.155,0.035 -0.28,0.123 -0.522,0.312 -0.777,0.475 -0.613,0.384 -1.198,0.805 -1.814,1.184 -0.155,0.11 -0.352,0.236 -0.357,0.448 -0.045,0.374 -0.03,0.753 -0.062,1.127 -0.032,0.347 -0.062,0.694 -0.039,1.043 0.005,0.187 0.128,0.34 0.246,0.475 0.488,0.529 1.029,1.029 1.676,1.358 0.362,0.163 0.711,0.355 1.093,0.461 0.231,-0.023 0.435,-0.151 0.63,-0.266 C 26.067,9.216 26.36,9.039 26.648,8.854 27.076,8.579 27.418,8.192 27.812,7.87 28.017,7.68 28.285,7.486 28.278,7.176 28.308,6.507 28.403,5.82 28.248,5.161 27.64,4.378 26.771,3.862 25.959,3.318 v 0 C 25.809,3.228 25.664,3.127 25.493,3.079 25.444,3.065 25.392,3.067 25.341,3.061 Z M 24.307,4.47 c 0.162,0.011 0.093,0.007 0.207,0.014 0.802,0.125 1.575,0.541 2.077,1.189 0.534,0.667 0.497,1.663 0.069,2.374 C 26.557,8.249 26.303,8.274 26.104,8.281 25.492,8.264 24.916,7.996 24.419,7.651 23.996,7.366 23.668,6.938 23.523,6.448 23.353,5.791 23.505,5.035 23.976,4.538 24.076,4.469 24.192,4.472 24.307,4.47 Z"/>
</svg>
