<?xml version="1.0" encoding="UTF-8" standalone="no"?>
<svg
   version="1.1"
   width="31.500999"
   height="16.830999"
   viewBox="0 0 31.500999 16.830999"
   id="svg4"
   xmlns="http://www.w3.org/2000/svg"
   xmlns:svg="http://www.w3.org/2000/svg">
  <defs>
    <!-- This is the gradient that will actually be used on
     the cards. The colors themselves will be provided by the
     template, but the x values, y values, and offsets will be
     used from the SVG. -->
    <linearGradient id="rarity" x1="0" y1="1" x2="1" y2="0">
      <stop offset="0" style="stop-color:rgb(192,55,38);stop-opacity:1" id="stop2" />
      <stop offset="0.125" style="stop-color:rgb(192,55,38);stop-opacity:1" id="stop4" />
      <stop offset="0.5" style="stop-color:rgb(241,142,30);stop-opacity:1" id="stop6" />
      <stop offset="0.875" style="stop-color:rgb(192,55,38);stop-opacity:1" id="stop8" />
      <stop offset="1" style="stop-color:rgb(192,55,38);stop-opacity:1" id="stop10" />
    </linearGradient>
    <!-- These gradients are here so that you can visualize
     what the set symbol would like like in that rarity. The
     only gradient that matters in the end is the "rarity"
     gradient. -->
    <linearGradient id="mythic" x1="0" y1="1" x2="1" y2="0">
      <stop offset="0" style="stop-color:rgb(192,55,38);stop-opacity:1"/>
      <stop offset="0.125" style="stop-color:rgb(192,55,38);stop-opacity:1"/>
      <stop offset="0.5" style="stop-color:rgb(241,142,30);stop-opacity:1"/>
      <stop offset="0.875" style="stop-color:rgb(192,55,38);stop-opacity:1"/>
      <stop offset="1" style="stop-color:rgb(192,55,38);stop-opacity:1"/>
    </linearGradient>
    <linearGradient id="rare" x1="0" y1="1" x2="1" y2="0">
      <stop offset="0" style="stop-color:rgb(146,116,67);stop-opacity:1"/>
      <stop offset="0.125" style="stop-color:rgb(146,116,67);stop-opacity:1"/>
      <stop offset="0.5" style="stop-color:rgb(211,178,108);stop-opacity:1"/>
      <stop offset="0.875" style="stop-color:rgb(146,116,67);stop-opacity:1"/>
      <stop offset="1" style="stop-color:rgb(146,116,67);stop-opacity:1"/>
    </linearGradient>
    <linearGradient id="special" x1="0" y1="1" x2="1" y2="0">
      <stop offset="0" style="stop-color:rgb(76, 56, 106);stop-opacity:1"/>
      <stop offset="0.125" style="stop-color:rgb(76, 56, 106);stop-opacity:1"/>
      <stop offset="0.5" style="stop-color:rgb(201, 173, 221);stop-opacity:1"/>
      <stop offset="0.875" style="stop-color:rgb(76, 56, 106);stop-opacity:1"/>
      <stop offset="1" style="stop-color:rgb(76, 56, 106);stop-opacity:1"/>
    </linearGradient>
    <linearGradient id="uncommon" x1="0" y1="1" x2="1" y2="0">
      <stop offset="0" style="stop-color:rgb(98,110,119);stop-opacity:1"/>
      <stop offset="0.125" style="stop-color:rgb(98,110,119);stop-opacity:1"/>
      <stop offset="0.5" style="stop-color:rgb(196,222,238);stop-opacity:1"/>
      <stop offset="0.875" style="stop-color:rgb(98,110,119);stop-opacity:1"/>
      <stop offset="1" style="stop-color:rgb(98,110,119);stop-opacity:1"/>
    </linearGradient>
    <linearGradient id="common" x1="0" y1="1" x2="1" y2="0">
      <stop offset="0" style="stop-color:rgb(0,0,0);stop-opacity:1"/>
    </linearGradient>
    <linearGradient
            id="rarity-outline" x1="0" y1="1" x2="0" y2="1">
      <stop offset="0" style="stop-color:rgb(0,0,0);stop-opacity:1"/>
    </linearGradient>
  </defs>
  <path fill="url(#rarity)" d="m 29.476,0 c 0.635,1.583 1.363,3.15 1.656,4.843 0.163,0.648 0.224,1.312 0.369,1.962 v 2.869 c -0.13,0.788 -0.187,1.593 -0.377,2.37 -0.115,0.731 -0.389,1.42 -0.59,2.126 -0.32,0.906 -0.682,1.799 -1.108,2.661 H 2.082 C 1.513,15.736 1.1,14.567 0.714,13.398 0.544,12.704 0.313,12.027 0.217,11.318 0.163,10.907 0.101,10.496 0,10.092 V 7.095 C 0.076,6.615 0.146,6.135 0.2,5.653 0.281,4.885 0.524,4.147 0.731,3.408 1.061,2.234 1.566,1.122 2.033,0 h 27.442 z"/>
  <path fill="url(#rarity-outline)" d="M 28.521,0.991 C 20.242,0.993 11.963,0.991 3.682,0.993 3.347,0.995 3.01,0.976 2.675,1.006 2.512,1.609 2.183,2.153 2.003,2.751 1.737,3.603 1.434,4.451 1.277,5.333 1.093,6.189 1.048,7.066 1.041,7.939 c -0.007,0.884 -0.007,1.77 0.084,2.646 0.076,0.598 0.224,1.179 0.355,1.762 0.152,0.807 0.497,1.56 0.753,2.335 0.168,0.381 0.32,0.765 0.472,1.152 8.695,0.005 17.394,0.005 26.089,0 0.638,-1.573 1.263,-3.175 1.504,-4.866 C 30.483,10.097 30.441,9.203 30.493,8.32 30.446,7.633 30.463,6.944 30.37,6.262 30.264,5.706 30.193,5.142 30.041,4.596 29.938,3.941 29.667,3.331 29.482,2.698 29.278,2.122 29.017,1.568 28.786,1.003 28.695,0.998 28.608,0.993 28.523,0.99 Z M 3.615,1.99 c 8.168,0.008 16.334,-0.005 24.5,0.005 0.16,0.241 0.246,0.522 0.342,0.793 0.209,0.633 0.44,1.258 0.62,1.902 0.113,0.616 0.263,1.226 0.32,1.851 0.152,0.861 0.106,1.738 0.108,2.604 v 0 c 0.005,0.367 -0.052,0.726 -0.101,1.085 -0.054,0.357 -0.066,0.721 -0.143,1.078 -0.081,0.379 -0.192,0.748 -0.29,1.127 -0.178,0.79 -0.493,1.541 -0.788,2.294 -0.02,0.113 -0.148,0.103 -0.237,0.111 -7.939,-0.003 -15.878,-0.003 -23.82,0 C 3.873,14.83 3.604,14.877 3.355,14.805 3.161,14.367 2.983,13.919 2.843,13.459 3.251,13.211 3.729,13.127 4.194,13.063 4.731,13.021 5.274,13.021 5.809,13.117 5.826,12.864 5.826,12.608 5.804,12.354 5.56,12.187 5.206,12.076 5.142,11.746 5.041,11.264 5.231,10.792 5.354,10.333 5.462,9.876 5.706,9.472 5.873,9.034 5.991,8.719 6.257,8.431 6.198,8.071 6.188,7.896 6.008,7.806 5.87,7.731 5.619,7.611 5.358,7.485 5.078,7.456 4.896,7.431 4.753,7.581 4.679,7.729 4.206,8.721 3.948,9.794 3.512,10.8 3.281,11.393 3.006,11.994 2.537,12.442 2.379,12.1 2.35,11.718 2.254,11.359 2.141,10.793 2.072,10.22 2.01,9.651 1.979,8.869 1.985,8.083 2.005,7.301 2.069,6.403 2.258,5.519 2.433,4.638 2.694,3.75 2.997,2.869 3.348,2.012 3.434,2.003 3.523,1.992 3.611,1.99 Z M 5.315,3.145 5.149,3.16 C 4.94,3.315 4.79,3.539 4.644,3.75 4.568,3.851 4.578,4.006 4.698,4.068 4.988,4.206 5.328,4.213 5.618,4.358 5.832,4.434 5.753,4.71 5.743,4.882 5.603,5.433 5.305,5.93 5.17,6.479 5.111,6.752 5.397,6.89 5.593,6.993 5.878,7.131 6.174,7.355 6.508,7.261 6.769,7.054 6.771,6.661 7.013,6.439 7.208,6.288 7.367,6.547 7.5,6.663 c 0.648,0.771 1.073,1.695 1.462,2.616 0.305,0.665 0.5,1.371 0.718,2.065 0.222,0.721 0.377,1.479 0.31,2.237 0.002,0.115 -0.034,0.243 0.015,0.352 0.253,0.204 0.551,0.342 0.849,0.473 0.329,-0.595 0.777,-1.13 1.351,-1.501 0.253,-0.164 0.546,-0.251 0.807,-0.394 -0.12,-0.856 -0.443,-1.666 -0.753,-2.466 C 12.074,9.583 12.04,9.075 12.096,8.586 12.136,8.28 12.408,8.086 12.507,7.806 12.59,7.525 12.344,7.313 12.184,7.117 12.024,6.954 11.869,6.726 11.623,6.706 11.411,6.743 11.244,6.893 11.045,6.96 10.922,6.955 10.833,6.854 10.748,6.778 10.127,6.116 9.773,5.267 9.237,4.543 8.937,4.164 8.678,3.733 8.62,3.246 7.906,3.197 7.19,3.219 6.474,3.199 6.197,3.203 5.922,3.158 5.646,3.147 5.535,3.142 5.425,3.146 5.314,3.145 Z M 12.367,2.884 C 12.205,3.15 12.03,3.413 11.87,3.686 c 0.399,0.271 0.866,0.426 1.243,0.731 0.093,0.079 0.172,0.209 0.115,0.335 -0.113,0.28 -0.28,0.534 -0.45,0.782 -0.133,0.199 -0.332,0.345 -0.462,0.546 -0.093,0.2 -0.025,0.436 0.116,0.598 0.169,0.207 0.34,0.428 0.568,0.576 0.222,0.091 0.426,-0.104 0.642,-0.133 0.158,0.074 0.217,0.253 0.298,0.396 0.399,0.91 0.92,1.767 1.26,2.705 0.175,0.455 0.453,0.949 0.276,1.444 -0.241,0.583 -0.83,0.881 -1.258,1.305 0.189,0.266 0.421,0.497 0.65,0.731 0.278,-0.16 0.539,-0.357 0.847,-0.451 0.851,-0.261 1.76,-0.253 2.635,-0.135 0.568,0.035 1.098,0.258 1.659,0.32 0.116,-0.209 0.241,-0.423 0.263,-0.667 C 20.191,12.597 20.031,12.486 19.883,12.383 19.528,12.147 19.159,11.926 18.839,11.645 18.49,11.316 18.468,10.808 18.327,10.375 18.042,9.455 17.613,8.591 17.244,7.704 16.966,7.005 16.562,6.368 16.228,5.699 16.011,5.249 15.908,4.751 15.849,4.257 15.805,3.927 15.945,3.617 15.972,3.29 15.765,3.161 15.571,3.012 15.351,2.908 15.098,2.945 14.864,3.06 14.608,3.071 14.165,3.098 13.719,3.098 13.276,3.056 12.966,3.03 12.678,2.906 12.366,2.884 Z M 25.413,2.842 c -0.755,0.335 -1.061,0.65 -1.208,0.713 -0.145,0.064 -0.45,0.232 -0.807,0.505 -0.357,0.273 -0.546,0.566 -0.546,0.566 0,0 0.064,0.212 -0.022,0.694 -0.084,0.483 -0.126,1.135 -0.126,1.135 0.42,-0.321 0.85,-0.629 1.302,-0.903 -0.184,-0.302 -0.15,-0.72 -0.064,-1.051 0.337,-0.167 1.031,-0.167 1.556,0.232 0.525,0.399 0.861,0.608 0.987,1.051 0.126,0.44 0.042,0.881 0.042,0.881 -0.524,0.399 -1.154,1.157 -1.363,1.324 -0.212,0.167 -0.379,0.315 -0.672,0.524 -0.295,0.209 -0.61,0.546 -0.945,0.839 -0.337,0.295 -0.883,0.799 -0.883,0.799 0.839,-0.064 1.765,-0.086 2.584,-0.147 0.819,-0.061 1.807,0.022 1.807,0.022 0.039,0.231 0.02,0.586 0.02,0.586 0.106,-0.126 0.755,-0.062 0.755,-0.062 0.064,-0.861 0.883,-2.289 0.883,-2.289 L 28.292,7.777 c -0.231,0.275 -0.504,0.694 -0.504,0.694 -0.418,-0.02 -0.798,0.084 -1.029,0.125 -0.231,0.041 -0.777,-0.02 -0.777,-0.02 0.401,-0.61 1.89,-2.08 1.89,-2.08 C 27.958,5.509 27.894,4.985 27.894,4.985 27.61,4.648 27.2,4.121 27.055,3.976 26.907,3.829 26.425,3.568 26.213,3.346 25.945,3.066 25.415,2.842 25.415,2.842 Z m -3.527,0.121 c -0.61,0.204 -1.181,0.507 -1.774,0.753 v 0 c -0.362,0.168 -0.948,0.34 -1.273,0.576 -0.009,0.178 0.008,0.434 0.023,0.611 0.381,0.035 0.979,-0.054 1.363,-0.022 0.096,-0.005 0.039,0.165 0.042,0.251 0.096,1.605 0.059,3.522 -0.019,5.126 C 20.354,10.209 20.659,9.951 20.73,9.857 21.028,9.5 21.323,9.259 21.675,8.954 21.774,8.863 21.877,8.666 21.865,8.514 21.878,7.645 21.828,6.5 21.838,5.632 21.897,4.744 21.86,3.853 21.887,2.965 Z"/>
</svg>
