<?xml version="1.0" encoding="UTF-8" standalone="no"?>
<svg
   version="1.1"
   width="33.750153"
   height="15.121095"
   viewBox="0 0 33.750153 15.121094"
   id="svg4"
   xmlns="http://www.w3.org/2000/svg"
   xmlns:svg="http://www.w3.org/2000/svg">
  <defs>
    <!-- This is the gradient that will actually be used on
     the cards. The colors themselves will be provided by the
     template, but the x values, y values, and offsets will be
     used from the SVG. -->
    <linearGradient id="rarity" x1="0" y1="0.45" x2="1" y2="0.65">
      <stop offset="0" style="stop-color:rgb(192,55,38);stop-opacity:1" id="stop2" />
      <stop offset="0.125" style="stop-color:rgb(192,55,38);stop-opacity:1" id="stop4" />
      <stop offset="0.5" style="stop-color:rgb(241,142,30);stop-opacity:1" id="stop6" />
      <stop offset="0.875" style="stop-color:rgb(192,55,38);stop-opacity:1" id="stop8" />
      <stop offset="1" style="stop-color:rgb(192,55,38);stop-opacity:1" id="stop10" />
    </linearGradient>
    <!-- These gradients are here so that you can visualize
     what the set symbol would like like in that rarity. The
     only gradient that matters in the end is the "rarity"
     gradient. -->
    <linearGradient id="mythic" x1="0" y1="1" x2="1" y2="0">
      <stop offset="0" style="stop-color:rgb(192,55,38);stop-opacity:1"/>
      <stop offset="0.125" style="stop-color:rgb(192,55,38);stop-opacity:1"/>
      <stop offset="0.5" style="stop-color:rgb(241,142,30);stop-opacity:1"/>
      <stop offset="0.875" style="stop-color:rgb(192,55,38);stop-opacity:1"/>
      <stop offset="1" style="stop-color:rgb(192,55,38);stop-opacity:1"/>
    </linearGradient>
    <linearGradient id="rare" x1="0" y1="1" x2="1" y2="0">
      <stop offset="0" style="stop-color:rgb(146,116,67);stop-opacity:1"/>
      <stop offset="0.125" style="stop-color:rgb(146,116,67);stop-opacity:1"/>
      <stop offset="0.5" style="stop-color:rgb(211,178,108);stop-opacity:1"/>
      <stop offset="0.875" style="stop-color:rgb(146,116,67);stop-opacity:1"/>
      <stop offset="1" style="stop-color:rgb(146,116,67);stop-opacity:1"/>
    </linearGradient>
    <linearGradient id="special" x1="0" y1="1" x2="1" y2="0">
      <stop offset="0" style="stop-color:rgb(76, 56, 106);stop-opacity:1"/>
      <stop offset="0.125" style="stop-color:rgb(76, 56, 106);stop-opacity:1"/>
      <stop offset="0.5" style="stop-color:rgb(201, 173, 221);stop-opacity:1"/>
      <stop offset="0.875" style="stop-color:rgb(76, 56, 106);stop-opacity:1"/>
      <stop offset="1" style="stop-color:rgb(76, 56, 106);stop-opacity:1"/>
    </linearGradient>
    <linearGradient id="uncommon" x1="0" y1="1" x2="1" y2="0">
      <stop offset="0" style="stop-color:rgb(98,110,119);stop-opacity:1"/>
      <stop offset="0.125" style="stop-color:rgb(98,110,119);stop-opacity:1"/>
      <stop offset="0.5" style="stop-color:rgb(196,222,238);stop-opacity:1"/>
      <stop offset="0.875" style="stop-color:rgb(98,110,119);stop-opacity:1"/>
      <stop offset="1" style="stop-color:rgb(98,110,119);stop-opacity:1"/>
    </linearGradient>
    <linearGradient id="common" x1="0" y1="1" x2="1" y2="0">
      <stop offset="0" style="stop-color:rgb(0,0,0);stop-opacity:1"/>
    </linearGradient>
    <linearGradient
            id="rarity-outline" x1="0" y1="1" x2="0" y2="1">
      <stop offset="0" style="stop-color:rgb(0,0,0);stop-opacity:1"/>
    </linearGradient>
  </defs>
  <path fill="url(#rarity-outline)" d="m 1.7667492,5e-7 -0.2265625,0.53125 C 0.97804849,1.8488271 0.56818826,3.2232925 0.29799917,4.6230474 -0.436147,8.0268875 0.26532127,11.51646 1.5382336,14.582031 l 0.2226562,0.539063 h 0.5859375 c 9.6755437,-0.008 19.3513777,0.0082 29.0292967,-0.0078 l 0.587891,-0.002 0.220703,-0.542969 C 33.264752,11.915623 34.043464,8.9628185 33.643702,5.9433599 33.425367,4.062924 32.884485,2.2587246 32.186671,0.55078175 L 31.964015,0.007813 H 31.378077 C 21.699459,-0.004189 12.020358,0.009999 2.3448742,0 Z" />
  <path fill="url(#rarity)" d="m 2.3452617,0.87504736 c 9.6770003,0.01 19.3550003,-0.005 29.0320003,0.007 0.677,1.65700004 1.193,3.38800004 1.399,5.17000004 0.372,2.799 -0.351,5.6069996 -1.401,8.1859996 -9.676,0.016 -19.352,0 -29.0290003,0.008 -1.227,-2.955 -1.87900004,-6.2739996 -1.193,-9.4449996 0.259,-1.346 0.654,-2.665 1.192,-3.92600004 z M 22.613262,2.1820474 c -0.849,0.022 -1.64,0.408 -2.256,0.976 0.446,0.551 0.884,1.109 1.318,1.671 0.058,-0.056 0.116,-0.112 0.174,-0.167 -0.089,-0.454 -0.13,-0.992 0.169,-1.378 0.203,-0.268 0.587,-0.291 0.89,-0.22 0.344,0.115 0.527,0.494 0.546,0.837 0.029,0.786 -0.288,1.529 -0.662,2.203 -0.678,1.225 -1.567,2.313 -2.451,3.391 -0.128,0.118 -0.148,0.287 -0.155,0.449 1.687,10e-4 3.374,0 5.061,0 -0.004,-0.88 0.017,-1.761 -0.024,-2.641 -0.445,0.265 -0.527,0.829 -0.751,1.256 -0.756,0.004 -1.512,0.006 -2.267,-0.009 0.81,-0.998 1.808,-1.832 2.557,-2.88 0.451,-0.65 0.668,-1.553 0.281,-2.283 -0.445,-0.877 -1.508,-1.21 -2.429,-1.204 z m 5.973,0.007 c -0.689,0.011 -1.397,0.259 -1.87,0.774 -0.702,0.727 -0.967,1.756 -1.05,2.736 -0.017,1.01 0.08,2.075 0.609,2.96 0.304,0.569 0.837,0.998 1.437,1.223 0.999,0.3519996 2.217,0.053 2.879,-0.793 0.837,-1.014 1.005,-2.415 0.874,-3.682 -0.096,-0.924 -0.402,-1.879 -1.107,-2.522 -0.466,-0.461 -1.118,-0.711 -1.772,-0.696 z m -22.9890003,0.209 c 0.547,0.303 1.187,0.523 1.541,1.073 0.146,0.267 0.068,0.6 -0.039,0.87 -0.893,1.982 -1.758,3.975 -2.647,5.9579996 -0.393,0.786 -0.964,1.467 -1.593,2.074 1.618,0.05 3.238,0.038 4.856,0.002 -0.451,-0.387 -0.973,-0.718 -1.256,-1.261 -0.227,-0.352 -0.182,-0.808 -0.013,-1.1749996 0.54,-1.247 1.099,-2.487 1.651,-3.729 0.037,-0.003 0.112,-0.008 0.15,-0.011 0.798,1.877 1.548,3.774 2.3290003,5.6579996 0.172,0.42 0.321,0.854 0.552,1.247 1.042,-2.289 2.041,-4.5979996 3.065,-6.8949996 0.037,-0.002 0.112,-0.006 0.149,-0.008 0.582,1.313 1.089,2.658 1.652,3.9799996 0.202,0.455 0.308,0.996 0.104,1.469 -0.16,0.293 -0.433,0.499 -0.66,0.738 1.799,0.011 3.599,0.038 5.398,-0.018 -0.598,-0.607 -1.146,-1.283 -1.47,-2.079 -0.827,-2.0229996 -1.652,-4.0479996 -2.485,-6.0689996 -0.129,-0.357 -0.266,-0.753 -0.121,-1.127 0.135,-0.307 0.436,-0.495 0.669,-0.723 -1.671,-0.011 -3.343,-0.03 -5.014,0.013 0.362,0.265 0.786,0.491 0.985,0.915 0.081,0.389 -0.074,0.766 -0.233,1.113 -0.386,0.833 -0.741,1.68 -1.131,2.511 -0.037,-0.003 -0.112,-0.009 -0.149,-0.012 -0.406,-0.98 -0.803,-1.963 -1.207,-2.945 -0.226,-0.537 -0.419,-1.089 -0.6840003,-1.609 -1.467,0.021 -2.935,-0.035 -4.401,0.038 z m 22.7430003,0.6 c -0.311,0.053 -0.476,0.385 -0.574,0.653 -0.104,0.381 -0.172,0.773 -0.182,1.169 -0.059,1 -0.044,2.005 0.046,3.003 0.049,0.427 0.109,0.889 0.408,1.223 0.199,0.21 0.522,0.183 0.785,0.176 0.404,-0.091 0.545,-0.506 0.638,-0.858 0.228,-1.115 0.13,-2.259 0.127,-3.388 -0.051,-0.6 -0.046,-1.269 -0.41,-1.782 -0.205,-0.243 -0.549,-0.252 -0.838,-0.197 z"/>
</svg>
