<?xml version="1.0" encoding="UTF-8" standalone="no"?>
<!-- Generated by IcoMoon.io -->

<svg
   version="1.1"
   width="27.724001"
   height="24.936001"
   viewBox="0 0 27.724001 24.936001"
   id="svg6"
   sodipodi:docname="me2.svg"
   inkscape:version="1.1.1 (3bf5ae0d25, 2021-09-20)"
   xmlns:inkscape="http://www.inkscape.org/namespaces/inkscape"
   xmlns:sodipodi="http://sodipodi.sourceforge.net/DTD/sodipodi-0.dtd"
   xmlns="http://www.w3.org/2000/svg"
   xmlns:svg="http://www.w3.org/2000/svg">
  <defs
     id="defs10" />
  <sodipodi:namedview
     id="namedview8"
     pagecolor="#ffffff"
     bordercolor="#666666"
     borderopacity="1.0"
     inkscape:pageshadow="2"
     inkscape:pageopacity="0.0"
     inkscape:pagecheckerboard="0"
     showgrid="false"
     inkscape:zoom="25.75"
     inkscape:cx="14"
     inkscape:cy="12.446602"
     inkscape:window-width="1920"
     inkscape:window-height="1009"
     inkscape:window-x="-8"
     inkscape:window-y="-8"
     inkscape:window-maximized="1"
     inkscape:current-layer="svg6" />
  <title
     id="title2">me2</title>
  <path
     fill="#000000"
     d="m 17.956,16.57 c -2.128,2.255 -3.369,4.162 -4.094,5.584 C 13.137,20.732 11.896,18.825 9.768,16.57 6.357,12.957 1.266,11.275 0,11.275 V 24.936 H 27.724 V 11.275 c -1.266,0 -6.357,1.683 -9.768,5.295 z M 4.009,10.312 C 4.003,10.162 4,10.015 4,9.865 4,4.417 8.414,0 13.862,0 c 5.448,0 9.865,4.417 9.865,9.865 0,0.15 -0.006,0.297 -0.012,0.447 -2.34,0.975 -5.111,2.607 -7.241,4.862 -0.989,1.048 -1.862,2.094 -2.612,3.127 C 13.111,17.267 12.239,16.222 11.25,15.174 9.123,12.919 6.349,11.287 4.009,10.312 Z"
     id="path4" />
</svg>
