<?xml version="1.0" encoding="UTF-8" standalone="no"?>
<svg
   version="1.1"
   width="35.443359"
   height="20.287109"
   viewBox="0 0 35.443359 20.287109"
   id="svg4"
   xmlns="http://www.w3.org/2000/svg"
   xmlns:svg="http://www.w3.org/2000/svg">
  <defs>
    <!-- This is the gradient that will actually be used on
     the cards. The colors themselves will be provided by the
     template, but the x values, y values, and offsets will be
     used from the SVG. -->
    <linearGradient id="rarity" x1="0" y1="0" x2="1" y2="0">
      <stop offset="0" style="stop-color:rgb(192,55,38);stop-opacity:1" id="stop2" />
      <stop offset="0.125" style="stop-color:rgb(192,55,38);stop-opacity:1" id="stop4" />
      <stop offset="0.5" style="stop-color:rgb(241,142,30);stop-opacity:1" id="stop6" />
      <stop offset="0.875" style="stop-color:rgb(192,55,38);stop-opacity:1" id="stop8" />
      <stop offset="1" style="stop-color:rgb(192,55,38);stop-opacity:1" id="stop10" />
    </linearGradient>
    <!-- These gradients are here so that you can visualize
     what the set symbol would like like in that rarity. The
     only gradient that matters in the end is the "rarity"
     gradient. -->
    <linearGradient id="mythic" x1="0" y1="1" x2="1" y2="0">
      <stop offset="0" style="stop-color:rgb(192,55,38);stop-opacity:1"/>
      <stop offset="0.125" style="stop-color:rgb(192,55,38);stop-opacity:1"/>
      <stop offset="0.5" style="stop-color:rgb(241,142,30);stop-opacity:1"/>
      <stop offset="0.875" style="stop-color:rgb(192,55,38);stop-opacity:1"/>
      <stop offset="1" style="stop-color:rgb(192,55,38);stop-opacity:1"/>
    </linearGradient>
    <linearGradient id="rare" x1="0" y1="1" x2="1" y2="0">
      <stop offset="0" style="stop-color:rgb(146,116,67);stop-opacity:1"/>
      <stop offset="0.125" style="stop-color:rgb(146,116,67);stop-opacity:1"/>
      <stop offset="0.5" style="stop-color:rgb(211,178,108);stop-opacity:1"/>
      <stop offset="0.875" style="stop-color:rgb(146,116,67);stop-opacity:1"/>
      <stop offset="1" style="stop-color:rgb(146,116,67);stop-opacity:1"/>
    </linearGradient>
    <linearGradient id="special" x1="0" y1="1" x2="1" y2="0">
      <stop offset="0" style="stop-color:rgb(76, 56, 106);stop-opacity:1"/>
      <stop offset="0.125" style="stop-color:rgb(76, 56, 106);stop-opacity:1"/>
      <stop offset="0.5" style="stop-color:rgb(201, 173, 221);stop-opacity:1"/>
      <stop offset="0.875" style="stop-color:rgb(76, 56, 106);stop-opacity:1"/>
      <stop offset="1" style="stop-color:rgb(76, 56, 106);stop-opacity:1"/>
    </linearGradient>
    <linearGradient id="uncommon" x1="0" y1="1" x2="1" y2="0">
      <stop offset="0" style="stop-color:rgb(98,110,119);stop-opacity:1"/>
      <stop offset="0.125" style="stop-color:rgb(98,110,119);stop-opacity:1"/>
      <stop offset="0.5" style="stop-color:rgb(196,222,238);stop-opacity:1"/>
      <stop offset="0.875" style="stop-color:rgb(98,110,119);stop-opacity:1"/>
      <stop offset="1" style="stop-color:rgb(98,110,119);stop-opacity:1"/>
    </linearGradient>
    <linearGradient id="common" x1="0" y1="1" x2="1" y2="0">
      <stop offset="0" style="stop-color:rgb(0,0,0);stop-opacity:1"/>
    </linearGradient>
    <linearGradient
            id="rarity-outline" x1="0" y1="1" x2="0" y2="1">
      <stop offset="0" style="stop-color:rgb(0,0,0);stop-opacity:1"/>
    </linearGradient>
  </defs>
  <path fill="url(#rarity-outline)" d="m 12.951171,0 -0.68164,1.3496094 H 11.78711 0 L 4.5136719,5.4160156 0.4648437,13.056641 h 3.4003907 l 0.7167969,0.185547 10.2382817,5.632812 1.374999,1.412109 h 3.058594 l 1.376953,-1.414062 10.208984,-5.625 0.716797,-0.1875 h 3.396485 L 30.929687,5.4160156 35.443359,1.3496094 H 33.490234 23.193359 L 22.513671,0 h -0.46289 z" />
  <path fill="url(#rarity)" d="m 22.050937,0.75 5.175,10.274 -8.289,8.514 H 16.511938 L 8.2229375,11.024 13.411938,0.75 h 8.639999 z m -4.329,1.161 -0.765,7.434 c -0.425,0.04 -0.847,0.116 -1.26,0.225 l -0.732999,-6.395 -0.742001,6.917 c -0.360999,0.165 -0.712999,0.352 -1.052999,0.558 l -0.657,-4.95 -0.657,5.913 c 2.633,1.562 4.694999,3.928 5.881999,6.75 1.62,-4.113 5.85,-6.719 5.85,-6.719 v -0.009 l -0.662,-5.936 -0.652,5 c -0.339999,-0.216 -0.693,-0.41 -1.057999,-0.581 L 20.481937,3.201 19.752938,9.582 c -0.407,-0.109 -0.823001,-0.185 -1.242001,-0.229 l -0.788,-7.443 z M 11.786938,2.1 H 1.9539375 l 3.497,3.15 -3.74,7.056 h 2.25 c 0.315,0.004 0.623,0.084 0.9,0.234 L 13.221938,17.139 7.1649375,11.221 11.786938,2.099 Z m 21.702999,0 h -9.828 l 4.599,9.122 -6.038999,5.918 8.339,-4.595 c 0.277,-0.15 0.585,-0.23 0.899999,-0.234 h 2.25 l -3.717,-7.061 3.497,-3.15 z"/>
</svg>
