<?xml version="1.0" encoding="UTF-8" standalone="no"?>
<!-- Generated by IcoMoon.io -->

<svg
   version="1.1"
   width="32"
   height="18.788"
   viewBox="0 0 32 18.788"
   id="svg6"
   sodipodi:docname="med.svg"
   inkscape:version="1.1.1 (3bf5ae0d25, 2021-09-20)"
   xmlns:inkscape="http://www.inkscape.org/namespaces/inkscape"
   xmlns:sodipodi="http://sodipodi.sourceforge.net/DTD/sodipodi-0.dtd"
   xmlns="http://www.w3.org/2000/svg"
   xmlns:svg="http://www.w3.org/2000/svg">
  <defs
     id="defs10" />
  <sodipodi:namedview
     id="namedview8"
     pagecolor="#ffffff"
     bordercolor="#666666"
     borderopacity="1.0"
     inkscape:pageshadow="2"
     inkscape:pageopacity="0.0"
     inkscape:pagecheckerboard="0"
     showgrid="false"
     inkscape:zoom="25.75"
     inkscape:cx="15.980583"
     inkscape:cy="9.3786408"
     inkscape:window-width="1920"
     inkscape:window-height="1009"
     inkscape:window-x="-8"
     inkscape:window-y="-8"
     inkscape:window-maximized="1"
     inkscape:current-layer="svg6" />
  <title
     id="title2">med</title>
  <path
     fill="#000000"
     d="m 20.34,0 5.175,10.274 -8.289,8.514 H 14.801 L 6.512,10.274 11.701,0 h 8.64 z m -4.329,1.161 -0.765,7.434 c -0.425,0.04 -0.847,0.116 -1.26,0.225 L 13.253,2.425 12.511,9.342 C 12.15,9.507 11.798,9.694 11.458,9.9 l -0.657,-4.95 -0.657,5.913 c 2.633,1.562 4.695,3.928 5.882,6.75 1.62,-4.113 5.85,-6.719 5.85,-6.719 v -0.009 l -0.662,-5.936 -0.652,5 C 20.222,9.733 19.869,9.539 19.504,9.368 L 18.771,2.451 18.042,8.832 C 17.635,8.723 17.219,8.647 16.8,8.603 L 16.012,1.16 Z M 10.076,1.35 H 0.243 L 3.74,4.5 0,11.556 h 2.25 c 0.315,0.004 0.623,0.084 0.9,0.234 l 8.361,4.599 -6.057,-5.918 4.622,-9.122 z m 21.703,0 h -9.828 l 4.599,9.122 -6.039,5.918 8.339,-4.595 c 0.277,-0.15 0.585,-0.23 0.9,-0.234 H 32 L 28.283,4.5 31.78,1.35 Z"
     id="path4" />
</svg>
