<?xml version="1.0" encoding="UTF-8" standalone="no"?>
<svg
   version="1.1"
   width="34.34375"
   height="20.830078"
   viewBox="0 0 34.34375 20.830078"
   id="svg4"
   xmlns="http://www.w3.org/2000/svg"
   xmlns:svg="http://www.w3.org/2000/svg">
  <defs>
    <!-- This is the gradient that will actually be used on
     the cards. The colors themselves will be provided by the
     template, but the x values, y values, and offsets will be
     used from the SVG. -->
    <linearGradient id="rarity" x1="0" y1="0" x2="1" y2="0">
      <stop offset="0" style="stop-color:rgb(192,55,38);stop-opacity:1" id="stop2" />
      <stop offset="0.125" style="stop-color:rgb(192,55,38);stop-opacity:1" id="stop4" />
      <stop offset="0.5" style="stop-color:rgb(241,142,30);stop-opacity:1" id="stop6" />
      <stop offset="0.875" style="stop-color:rgb(192,55,38);stop-opacity:1" id="stop8" />
      <stop offset="1" style="stop-color:rgb(192,55,38);stop-opacity:1" id="stop10" />
    </linearGradient>
    <!-- These gradients are here so that you can visualize
     what the set symbol would like like in that rarity. The
     only gradient that matters in the end is the "rarity"
     gradient. -->
    <linearGradient id="mythic" x1="0" y1="1" x2="1" y2="0">
      <stop offset="0" style="stop-color:rgb(192,55,38);stop-opacity:1"/>
      <stop offset="0.125" style="stop-color:rgb(192,55,38);stop-opacity:1"/>
      <stop offset="0.5" style="stop-color:rgb(241,142,30);stop-opacity:1"/>
      <stop offset="0.875" style="stop-color:rgb(192,55,38);stop-opacity:1"/>
      <stop offset="1" style="stop-color:rgb(192,55,38);stop-opacity:1"/>
    </linearGradient>
    <linearGradient id="rare" x1="0" y1="1" x2="1" y2="0">
      <stop offset="0" style="stop-color:rgb(146,116,67);stop-opacity:1"/>
      <stop offset="0.125" style="stop-color:rgb(146,116,67);stop-opacity:1"/>
      <stop offset="0.5" style="stop-color:rgb(211,178,108);stop-opacity:1"/>
      <stop offset="0.875" style="stop-color:rgb(146,116,67);stop-opacity:1"/>
      <stop offset="1" style="stop-color:rgb(146,116,67);stop-opacity:1"/>
    </linearGradient>
    <linearGradient id="special" x1="0" y1="1" x2="1" y2="0">
      <stop offset="0" style="stop-color:rgb(76, 56, 106);stop-opacity:1"/>
      <stop offset="0.125" style="stop-color:rgb(76, 56, 106);stop-opacity:1"/>
      <stop offset="0.5" style="stop-color:rgb(201, 173, 221);stop-opacity:1"/>
      <stop offset="0.875" style="stop-color:rgb(76, 56, 106);stop-opacity:1"/>
      <stop offset="1" style="stop-color:rgb(76, 56, 106);stop-opacity:1"/>
    </linearGradient>
    <linearGradient id="uncommon" x1="0" y1="1" x2="1" y2="0">
      <stop offset="0" style="stop-color:rgb(98,110,119);stop-opacity:1"/>
      <stop offset="0.125" style="stop-color:rgb(98,110,119);stop-opacity:1"/>
      <stop offset="0.5" style="stop-color:rgb(196,222,238);stop-opacity:1"/>
      <stop offset="0.875" style="stop-color:rgb(98,110,119);stop-opacity:1"/>
      <stop offset="1" style="stop-color:rgb(98,110,119);stop-opacity:1"/>
    </linearGradient>
    <linearGradient id="common" x1="0" y1="1" x2="1" y2="0">
      <stop offset="0" style="stop-color:rgb(0,0,0);stop-opacity:1"/>
    </linearGradient>
    <linearGradient
            id="rarity-outline" x1="0" y1="1" x2="0" y2="1">
      <stop offset="0" style="stop-color:rgb(0,0,0);stop-opacity:1"/>
    </linearGradient>
  </defs>
  <path fill="url(#rarity-outline)" d="m 14.474609,0 -0.916015,0.29296875 c 0,0 -1.090776,0.35591807 -2.300781,1.43164065 C 10.482051,2.4142785 9.70824,3.558699 9.0253906,4.9511718 L 0,9.7031251 0.97851562,10.111328 c 7.18716808,3.005775 15.86718738,10.4375 15.86718738,10.4375 l 0.326172,0.28125 0.326172,-0.279297 c 0,0 8.67904,-7.423454 15.867187,-10.439453 L 34.34375,9.7011719 25.322152,5.009087 C 24.656268,3.5552657 23.869076,2.4180274 23.085937,1.7226562 21.875952,0.64827672 20.785156,0.29296875 20.785156,0.29296875 L 19.869141,0 20.15625,0.91992187 c 0.670333,2.13621573 0.124314,3.25172413 -0.662109,3.96093743 -0.786424,0.7092133 -1.963084,0.9511719 -2.322266,0.9511719 -0.359182,0 -1.535842,-0.2419586 -2.322266,-0.9511719 C 14.063186,4.171646 13.517167,3.0561376 14.1875,0.91992187 Z" />
  <path fill="url(#rarity)" d="m 11.097875,10.992531 6.074,4.486 6.074,-4.486 V 9.6815313 l 2.612,-2.049 c -1.311,-5.613 -5.224,-6.86300005 -5.224,-6.86300005 1.424,4.53799995 -2.417,5.56199995 -3.462,5.56199995 -1.045,0 -4.886,-1.024 -3.462,-5.56199995 0,0 -3.913,1.25000005 -5.224,6.87299995 l 2.612,2.0490001 z m 15.098,-5.0089997 6.976,3.667 c -7.324,3.0729997 -16,10.5199997 -16,10.5199997 0,0 -8.676,-7.457 -16,-10.5199997 l 6.965,-3.667 c 0,0 -0.615,0.963 -0.492,2.131 l 2.622,1.9459997 v 1.373 l 6.894,4.948 6.894,-4.947 v -1.373 l 2.622,-1.9459997 c 0.123,-1.1580001 -0.481,-2.1310001 -0.481,-2.1310001 z"/>
</svg>
