<?xml version="1.0" encoding="UTF-8" standalone="no"?>
<!-- Generated by IcoMoon.io -->

<svg
   version="1.1"
   width="23.386"
   height="24.201136"
   viewBox="0 0 23.386 24.201136"
   id="svg6"
   sodipodi:docname="mid.svg"
   inkscape:version="1.1.1 (3bf5ae0d25, 2021-09-20)"
   xmlns:inkscape="http://www.inkscape.org/namespaces/inkscape"
   xmlns:sodipodi="http://sodipodi.sourceforge.net/DTD/sodipodi-0.dtd"
   xmlns="http://www.w3.org/2000/svg"
   xmlns:svg="http://www.w3.org/2000/svg">
  <defs
     id="defs10" />
  <sodipodi:namedview
     id="namedview8"
     pagecolor="#ffffff"
     bordercolor="#666666"
     borderopacity="1.0"
     inkscape:pageshadow="2"
     inkscape:pageopacity="0.0"
     inkscape:pagecheckerboard="0"
     showgrid="false"
     inkscape:zoom="25.75"
     inkscape:cx="10.543689"
     inkscape:cy="12.252427"
     inkscape:window-width="1920"
     inkscape:window-height="1009"
     inkscape:window-x="-8"
     inkscape:window-y="-8"
     inkscape:window-maximized="1"
     inkscape:current-layer="svg6" />
  <title
     id="title2">xin4</title>
  <path
     fill="#000000"
     d="m 14.237,15.334 c -2.756,3.105 -2.428,6.056 0.985,8.853 -1.817,0.12 -2.984,-0.524 -3.501,-1.933 -0.717,0.119 -1.236,0.662 -1.557,1.628 -0.582,-1.25 -0.399,-2.349 0.548,-3.296 -1.404,-0.182 -2.609,0.27 -3.615,1.356 -0.022,-1.105 0.655,-2.142 2.03,-3.111 -0.691,-0.087 -1.294,0 -1.811,0.261 1.666,-2.152 3.973,-3.405 6.921,-3.758 z M 11.694,0 C 5.236,0 0,5.235 0,11.694 0,11.881 0.004,12.067 0.013,12.252 0.97,12.034 2.034,12.013 3.207,12.19 3.565,11.254 3.744,10.786 3.744,10.786 5.104,9.466 6.39,8.413 7.599,7.63 c 0.74,-0.049 1.55,-0.049 2.431,0 2.015,-1.996 3.867,-3.453 5.557,-4.371 l 1.081,1.811 c 0.403,0.614 0.403,1.105 0,1.474 0.527,0.578 0.641,1.335 0.344,2.273 -0.144,-0.586 -0.468,-0.999 -0.972,-1.238 0.182,0.781 0.11,1.44 -0.218,1.978 -0.241,-0.63 -0.629,-1.059 -1.166,-1.286 0.085,1.315 -0.142,2.121 -0.68,2.417 -0.11,-0.305 -0.314,-0.504 -0.612,-0.595 -0.313,-0.051 -0.671,-0.029 -0.943,0.241 -0.78,0.757 -0.465,1.916 -0.03,2.191 0.382,0.306 0.852,0.366 1.408,0.18 0.528,-0.12 0.734,-0.787 0.764,-1.267 0.457,0.408 0.646,0.841 0.564,1.302 0.665,-0.41 1.023,-1.087 1.075,-2.03 0.37,0.389 0.482,0.906 0.335,1.551 0.635,-0.329 1.017,-1.032 1.146,-2.109 1.099,1.54 1.469,3.066 1.109,4.579 -0.427,-0.624 -1.035,-0.687 -1.821,-0.19 -1.168,0.738 -2.611,1.951 -2.984,4.273 l -0.011,0.071 c -0.185,1.624 1.142,3.198 3.704,2.595 0.247,-0.055 0.572,-0.149 0.957,-0.376 2.881,-2.13 4.749,-5.551 4.749,-9.409 0,-6.458 -5.235,-11.694 -11.694,-11.694 z M 9.608,8.513 C 8.546,9.033 7.819,9.125 7.427,8.79 6.777,9.071 6.473,9.538 6.514,10.191 6.922,9.665 7.657,9.51 8.719,9.726 9.251,9.434 9.547,9.029 9.609,8.512 Z"
     id="path4" />
</svg>
