<?xml version="1.0" encoding="UTF-8" standalone="no"?>
<svg
   version="1.1"
   width="30.777344"
   height="28.064457"
   viewBox="0 0 30.777344 28.064457"
   id="svg4"
   xmlns="http://www.w3.org/2000/svg"
   xmlns:svg="http://www.w3.org/2000/svg">
  <defs>
    <!-- This is the gradient that will actually be used on
     the cards. The colors themselves will be provided by the
     template, but the x values, y values, and offsets will be
     used from the SVG. -->
    <linearGradient id="rarity" x1="0" y1="0" x2="1" y2="1">
      <stop offset="0" style="stop-color:rgb(192,55,38);stop-opacity:1" id="stop2" />
      <stop offset="0.125" style="stop-color:rgb(192,55,38);stop-opacity:1" id="stop4" />
      <stop offset="0.5" style="stop-color:rgb(241,142,30);stop-opacity:1" id="stop6" />
      <stop offset="0.875" style="stop-color:rgb(192,55,38);stop-opacity:1" id="stop8" />
      <stop offset="1" style="stop-color:rgb(192,55,38);stop-opacity:1" id="stop10" />
    </linearGradient>
    <!-- These gradients are here so that you can visualize
     what the set symbol would like like in that rarity. The
     only gradient that matters in the end is the "rarity"
     gradient. -->
    <linearGradient id="mythic" x1="0" y1="1" x2="1" y2="0">
      <stop offset="0" style="stop-color:rgb(192,55,38);stop-opacity:1"/>
      <stop offset="0.125" style="stop-color:rgb(192,55,38);stop-opacity:1"/>
      <stop offset="0.5" style="stop-color:rgb(241,142,30);stop-opacity:1"/>
      <stop offset="0.875" style="stop-color:rgb(192,55,38);stop-opacity:1"/>
      <stop offset="1" style="stop-color:rgb(192,55,38);stop-opacity:1"/>
    </linearGradient>
    <linearGradient id="rare" x1="0" y1="1" x2="1" y2="0">
      <stop offset="0" style="stop-color:rgb(146,116,67);stop-opacity:1"/>
      <stop offset="0.125" style="stop-color:rgb(146,116,67);stop-opacity:1"/>
      <stop offset="0.5" style="stop-color:rgb(211,178,108);stop-opacity:1"/>
      <stop offset="0.875" style="stop-color:rgb(146,116,67);stop-opacity:1"/>
      <stop offset="1" style="stop-color:rgb(146,116,67);stop-opacity:1"/>
    </linearGradient>
    <linearGradient id="special" x1="0" y1="1" x2="1" y2="0">
      <stop offset="0" style="stop-color:rgb(76, 56, 106);stop-opacity:1"/>
      <stop offset="0.125" style="stop-color:rgb(76, 56, 106);stop-opacity:1"/>
      <stop offset="0.5" style="stop-color:rgb(201, 173, 221);stop-opacity:1"/>
      <stop offset="0.875" style="stop-color:rgb(76, 56, 106);stop-opacity:1"/>
      <stop offset="1" style="stop-color:rgb(76, 56, 106);stop-opacity:1"/>
    </linearGradient>
    <linearGradient id="uncommon" x1="0" y1="1" x2="1" y2="0">
      <stop offset="0" style="stop-color:rgb(98,110,119);stop-opacity:1"/>
      <stop offset="0.125" style="stop-color:rgb(98,110,119);stop-opacity:1"/>
      <stop offset="0.5" style="stop-color:rgb(196,222,238);stop-opacity:1"/>
      <stop offset="0.875" style="stop-color:rgb(98,110,119);stop-opacity:1"/>
      <stop offset="1" style="stop-color:rgb(98,110,119);stop-opacity:1"/>
    </linearGradient>
    <linearGradient id="common" x1="0" y1="1" x2="1" y2="0">
      <stop offset="0" style="stop-color:rgb(0,0,0);stop-opacity:1"/>
    </linearGradient>
    <linearGradient
            id="rarity-outline" x1="0" y1="1" x2="0" y2="1">
      <stop offset="0" style="stop-color:rgb(0,0,0);stop-opacity:1"/>
    </linearGradient>
  </defs>
  <path fill="url(#rarity)" d="M 17.800781 0 C 10.648372 0 4.8242187 5.8241514 4.8242188 12.976562 C 4.8242188 13.109901 4.8296564 13.241415 4.8339844 13.373047 L 4.8222656 13.371094 L 4.6835938 13.390625 C 3.1538461 13.616706 2.0566926 14.069282 0.74609375 15.658203 L 0 16.564453 L 1.1777344 16.873047 C 2.4648592 17.216122 3.1810447 17.686946 3.4179688 18.052734 C 3.8470335 18.715331 4.5583336 18.983143 5.2519531 19.083984 C 5.0659329 19.285709 4.8016158 19.415799 4.6855469 19.675781 L 4.703125 19.638672 C 4.4952525 20.04499 3.3663636 20.96791 2.4824219 21.314453 L 0.86523438 21.949219 L 2.4355469 22.691406 C 3.0939359 23.002573 3.8559578 23.034768 4.6191406 22.914062 C 4.3994976 23.171288 4.1526181 23.426716 3.7109375 23.699219 L 2.2421875 24.605469 L 3.9082031 25.060547 C 4.5713987 25.242066 5.2176211 25.331012 5.8378906 25.324219 C 5.8378906 25.324219 6.1950375 25.618264 6.3964844 25.728516 C 6.9124343 26.010896 8.0390625 26.373047 8.0390625 26.373047 C 9.0528775 26.77007 10.012882 26.7611 10.806641 26.5 C 11.600399 26.238899 12.221451 25.753992 12.707031 25.269531 C 13.006402 24.97062 13.110013 24.90397 13.316406 24.71875 C 13.361066 25.082059 13.282756 25.514155 13.410156 25.833984 C 13.710679 26.588401 14.29161 27.179871 15.027344 27.535156 L 15.060547 27.607422 L 15.072266 27.574219 L 16.125 28.064453 L 16.125 26.888672 C 16.125 26.569683 16.316492 26.47672 16.417969 26.304688 C 17.075406 26.885994 17.819106 27.339511 18.697266 27.492188 C 19.911764 27.703342 21.26889 27.502557 22.769531 26.958984 L 25.441406 25.990234 L 22.638672 25.513672 C 22.424972 25.477318 22.254217 25.352306 22.087891 25.220703 C 27.140605 23.444695 30.777344 18.626723 30.777344 12.976562 C 30.777344 5.8241513 24.953191 1.1842379e-15 17.800781 0 z " />
  <path fill="url(#rarity-outline)" d="M 17.800781 0.75 C 11.054541 0.75 5.5742188 6.2303199 5.5742188 12.976562 C 5.5742188 13.259115 5.5865457 13.538607 5.6054688 13.816406 C 5.3270015 13.846538 5.0553131 13.889458 4.7929688 13.949219 L 4.1503906 14.132812 C 3.0483906 14.508812 2.1081719 15.177719 1.3261719 16.136719 L 1.3671875 16.146484 C 2.7441875 16.512484 3.6388281 17.011531 4.0488281 17.644531 C 4.9158735 18.857079 6.0840765 18.060389 7.8769531 18.681641 C 6.5769531 18.717641 5.7420938 19.149469 5.3710938 19.980469 C 4.9854544 20.734256 3.7814915 21.560337 2.7558594 22.013672 C 3.5958594 22.410672 4.8996094 22.335563 5.8496094 21.726562 C 5.8996094 22.719562 5.3194687 23.588891 4.1054688 24.337891 C 5.7824687 24.796891 7.2040938 24.609391 8.3710938 23.775391 C 10.121094 22.523391 9.5899688 22.325969 10.917969 22.042969 C 10.656075 22.531125 10.37888 23.078591 10.226562 23.482422 C 9.8525189 24.474106 9.5063448 25.125228 8.3125 25.673828 C 10.0215 25.916828 11.309734 25.604281 12.177734 24.738281 C 13.478734 23.439281 13.925781 23.25 13.925781 23.25 C 13.682781 25.113 14.166 26.325672 15.375 26.888672 C 15.375 26.107672 15.675391 25.534922 16.275391 25.169922 C 17.596392 26.919922 19.675672 27.281906 22.513672 26.253906 C 21.743672 26.122906 21.094406 25.731984 20.566406 25.083984 C 20.561923 25.07838 20.636227 25.01035 20.884766 24.806641 C 26.140629 23.43797 30.027344 18.657595 30.027344 12.976562 C 30.027344 6.2303199 24.547022 0.75 17.800781 0.75 z M 17.800781 1.859375 C 23.947523 1.859375 28.919922 6.8298185 28.919922 12.976562 C 28.919922 17.619791 26.08082 21.59024 22.042969 23.255859 C 19.755589 23.601438 18.58121 22.117124 18.755859 20.583984 L 18.767578 20.511719 C 19.140577 18.189719 20.583954 16.976281 21.751953 16.238281 C 22.537954 15.741281 23.145267 15.805687 23.572266 16.429688 C 23.932267 14.916688 23.561892 13.389609 22.462891 11.849609 C 22.333891 12.926609 21.951407 13.629984 21.316406 13.958984 C 21.463405 13.313984 21.352422 12.797203 20.982422 12.408203 C 20.930422 13.351203 20.573202 14.0275 19.908203 14.4375 C 19.990203 13.9765 19.80075 13.544719 19.34375 13.136719 C 19.313749 13.616719 19.108078 14.282344 18.580078 14.402344 C 18.024078 14.588344 17.553875 14.528656 17.171875 14.222656 C 16.736875 13.947656 16.421173 12.78825 17.201172 12.03125 C 17.473172 11.76125 17.831532 11.740016 18.144531 11.791016 C 18.442531 11.882016 18.645859 12.081719 18.755859 12.386719 C 19.293859 12.090719 19.520547 11.28375 19.435547 9.96875 C 19.972547 10.19575 20.360563 10.625859 20.601562 11.255859 C 20.929561 10.717859 21.002312 10.058344 20.820312 9.2773438 C 21.324314 9.5163437 21.648969 9.9296252 21.792969 10.515625 C 22.089968 9.5776252 21.97622 8.8201875 21.449219 8.2421875 C 21.852219 7.8731875 21.852219 7.3815781 21.449219 6.7675781 L 20.369141 4.9570312 C 18.678142 5.8750312 16.825548 7.332125 14.810547 9.328125 C 13.929547 9.279125 13.118906 9.279125 12.378906 9.328125 C 11.169906 10.111125 9.8834375 11.164375 8.5234375 12.484375 L 7.9882812 13.888672 C 7.5484063 13.822297 7.1222148 13.784178 6.7128906 13.773438 C 6.6943136 13.510316 6.6835938 13.244476 6.6835938 12.976562 C 6.6835938 6.8298185 11.654039 1.859375 17.800781 1.859375 z M 14.388672 10.210938 C 14.326672 10.727938 14.032 11.131828 13.5 11.423828 C 12.438 11.207828 11.702922 11.362672 11.294922 11.888672 C 11.253922 11.235672 11.557031 10.769281 12.207031 10.488281 C 12.599031 10.823281 13.326673 10.730937 14.388672 10.210938 z M 19.017578 17.03125 C 16.846125 19.478568 16.598226 21.829961 18.257812 24.085938 C 18.254548 24.086069 18.251312 24.085808 18.248047 24.085938 C 18.276047 24.12402 18.31074 24.161219 18.339844 24.199219 C 18.401547 24.279857 18.466591 24.361014 18.533203 24.441406 C 18.610306 24.534221 18.689764 24.626273 18.773438 24.71875 C 18.8545 24.808588 18.940107 24.898752 19.027344 24.988281 C 19.072331 25.034386 19.111593 25.080889 19.158203 25.126953 C 19.160781 25.126668 19.163438 25.12724 19.166016 25.126953 C 19.422776 25.380732 19.695406 25.633473 20.001953 25.884766 C 18.184953 26.004766 17.018953 25.359172 16.501953 23.951172 C 15.784953 24.070172 15.264359 24.614078 14.943359 25.580078 C 14.361358 24.330078 14.544187 23.230203 15.492188 22.283203 C 14.087187 22.101203 12.882953 22.554625 11.876953 23.640625 C 11.853953 22.536625 12.532203 21.499297 13.908203 20.529297 C 13.217203 20.441297 12.612703 20.530016 12.095703 20.791016 C 13.762703 18.639016 16.069577 17.38425 19.017578 17.03125 z " />
</svg>
