<?xml version="1.0" encoding="UTF-8" standalone="no"?>
<svg
   version="1.1"
   width="33.751507"
   height="30.932484"
   viewBox="0 0 33.751507 30.932484"
   id="svg4"
   xmlns="http://www.w3.org/2000/svg"
   xmlns:svg="http://www.w3.org/2000/svg">
  <defs>
    <!-- This is the gradient that will actually be used on
     the cards. The colors themselves will be provided by the
     template, but the x values, y values, and offsets will be
     used from the SVG. -->
    <linearGradient id="rarity" x1="0" y1="1" x2="1" y2="0">
      <stop offset="0" style="stop-color:rgb(192,55,38);stop-opacity:1" id="stop2" />
      <stop offset="0.125" style="stop-color:rgb(192,55,38);stop-opacity:1" id="stop4" />
      <stop offset="0.5" style="stop-color:rgb(241,142,30);stop-opacity:1" id="stop6" />
      <stop offset="0.875" style="stop-color:rgb(192,55,38);stop-opacity:1" id="stop8" />
      <stop offset="1" style="stop-color:rgb(192,55,38);stop-opacity:1" id="stop10" />
    </linearGradient>
    <!-- These gradients are here so that you can visualize
     what the set symbol would like like in that rarity. The
     only gradient that matters in the end is the "rarity"
     gradient. -->
    <linearGradient id="mythic" x1="0" y1="1" x2="1" y2="0">
      <stop offset="0" style="stop-color:rgb(192,55,38);stop-opacity:1"/>
      <stop offset="0.125" style="stop-color:rgb(192,55,38);stop-opacity:1"/>
      <stop offset="0.5" style="stop-color:rgb(241,142,30);stop-opacity:1"/>
      <stop offset="0.875" style="stop-color:rgb(192,55,38);stop-opacity:1"/>
      <stop offset="1" style="stop-color:rgb(192,55,38);stop-opacity:1"/>
    </linearGradient>
    <linearGradient id="rare" x1="0" y1="1" x2="1" y2="0">
      <stop offset="0" style="stop-color:rgb(146,116,67);stop-opacity:1"/>
      <stop offset="0.125" style="stop-color:rgb(146,116,67);stop-opacity:1"/>
      <stop offset="0.5" style="stop-color:rgb(211,178,108);stop-opacity:1"/>
      <stop offset="0.875" style="stop-color:rgb(146,116,67);stop-opacity:1"/>
      <stop offset="1" style="stop-color:rgb(146,116,67);stop-opacity:1"/>
    </linearGradient>
    <linearGradient id="special" x1="0" y1="1" x2="1" y2="0">
      <stop offset="0" style="stop-color:rgb(76, 56, 106);stop-opacity:1"/>
      <stop offset="0.125" style="stop-color:rgb(76, 56, 106);stop-opacity:1"/>
      <stop offset="0.5" style="stop-color:rgb(201, 173, 221);stop-opacity:1"/>
      <stop offset="0.875" style="stop-color:rgb(76, 56, 106);stop-opacity:1"/>
      <stop offset="1" style="stop-color:rgb(76, 56, 106);stop-opacity:1"/>
    </linearGradient>
    <linearGradient id="uncommon" x1="0" y1="1" x2="1" y2="0">
      <stop offset="0" style="stop-color:rgb(98,110,119);stop-opacity:1"/>
      <stop offset="0.125" style="stop-color:rgb(98,110,119);stop-opacity:1"/>
      <stop offset="0.5" style="stop-color:rgb(196,222,238);stop-opacity:1"/>
      <stop offset="0.875" style="stop-color:rgb(98,110,119);stop-opacity:1"/>
      <stop offset="1" style="stop-color:rgb(98,110,119);stop-opacity:1"/>
    </linearGradient>
    <linearGradient id="common" x1="0" y1="1" x2="1" y2="0">
      <stop offset="0" style="stop-color:rgb(0,0,0);stop-opacity:1"/>
    </linearGradient>
    <linearGradient
            id="rarity-outline" x1="0" y1="1" x2="0" y2="1">
      <stop offset="0" style="stop-color:rgb(0,0,0);stop-opacity:1"/>
    </linearGradient>
  </defs>
  <path fill="url(#rarity-outline)" d="M 18.636719 0.01953125 A 0.8750875 0.8750875 0 0 0 17.935547 0.171875 C 17.053949 0.8244862 16.138122 1.6638673 15.5625 2.8183594 L 15.5625 2.8203125 C 15.51043 2.9248369 15.420465 2.9910321 15.375 3.1015625 C 15.374053 3.1038625 15.371994 3.1051119 15.371094 3.1074219 A 0.8750875 0.8750875 0 0 0 15.373047 3.1132812 C 14.897474 4.2664258 15.148067 5.435176 15.466797 6.359375 C 15.659866 6.9994826 15.735968 7.4582111 15.585938 7.7285156 A 0.8750875 0.8750875 0 0 0 15.636719 8.0761719 C 14.468794 7.1471806 13.288223 6.2534127 12.150391 5.3398438 L 12.148438 5.3378906 C 11.154208 4.5270744 9.9255981 4.2184933 8.7734375 4.1699219 C 7.2549018 4.1059721 5.7677529 4.3473956 4.359375 4.7148438 A 0.8750875 0.8750875 0 0 0 4.3457031 4.71875 C 4.1633884 4.7692177 3.9233039 4.7938446 3.6308594 4.8144531 A 0.8750875 0.8750875 0 0 0 3.4863281 4.8359375 C 3.0106851 4.9511412 2.587895 5.1025735 2.2011719 5.2226562 A 0.8750875 0.8750875 0 0 0 2.1894531 5.2265625 C 1.7518867 5.3695045 1.3345881 5.5388796 0.93164062 5.7148438 C 0.81296913 5.7658872 0.70154214 5.8142784 0.59570312 5.859375 A 0.8750875 0.8750875 0 0 0 0.58203125 5.8652344 L 0.51953125 5.8925781 A 0.8750875 0.8750875 0 0 0 0.75195312 7.5585938 C 0.86401043 7.5744397 1.0531501 7.5994711 1.1367188 7.6113281 C 1.4328441 7.6556461 1.6417595 7.6964521 1.7617188 7.75 C 1.9272944 7.842625 2.2003775 8.1147008 2.7402344 8.3183594 A 0.8750875 0.8750875 0 0 0 3.0585938 8.375 C 3.6925146 8.36826 4.0804772 8.2694207 4.2753906 8.3046875 C 4.4789159 8.3607885 4.83977 8.5341725 5.28125 8.6738281 C 5.27252 8.6774481 5.2626763 8.6857981 5.2539062 8.6894531 L 5.25 8.6835938 L 5.2480469 8.6855469 A 0.8750875 0.8750875 0 0 0 5.2441406 8.6953125 C 4.8022795 8.8798535 4.3163435 9.0998292 3.8691406 9.4824219 A 0.8750875 0.8750875 0 0 0 3.8417969 9.5078125 C 3.2689979 10.040955 3.0248656 10.693631 2.8359375 11.208984 A 0.8750875 0.8750875 0 0 0 2.8300781 11.226562 C 2.2287566 12.981596 2.1076089 14.763181 1.9296875 16.427734 A 0.8750875 0.8750875 0 0 0 1.9238281 16.486328 C 1.9205281 16.572078 1.9162525 16.725267 1.9140625 16.810547 A 0.8750875 0.8750875 0 0 0 2.0078125 17.228516 L 2.0625 17.335938 A 0.8750875 0.8750875 0 0 0 3.1210938 17.769531 C 3.2895877 17.713011 3.4332082 17.663072 3.5546875 17.628906 A 0.8750875 0.8750875 0 0 0 4.0566406 17.255859 C 4.1759268 17.067611 4.2912196 16.89723 4.4082031 16.753906 A 0.8750875 0.8750875 0 0 0 4.4394531 16.714844 C 4.6303957 16.451321 4.7859317 16.210271 4.9335938 16.015625 A 0.8750875 0.8750875 0 0 0 4.9648438 15.96875 C 5.0160437 15.89143 5.3063536 15.789315 5.8925781 15.535156 A 0.8750875 0.8750875 0 0 0 6.4023438 14.904297 C 6.4456079 14.690113 6.5103121 14.46896 6.5683594 14.25 C 6.9022701 14.15836 7.2719254 14.063495 7.6601562 13.908203 A 0.8750875 0.8750875 0 0 0 8.1210938 13.480469 C 8.3012778 13.11447 8.3634151 12.834178 8.4199219 12.714844 A 0.8750875 0.8750875 0 0 0 8.4316406 12.712891 C 8.6881973 12.657841 8.9616836 12.538501 9.2285156 12.458984 C 8.9883234 12.782835 8.6345026 13.04112 8.4550781 13.386719 C 7.3867821 15.426579 6.8267797 17.651927 6.5078125 19.847656 A 0.8750875 0.8750875 0 0 0 6.5058594 19.867188 C 6.4950624 19.956267 6.4931704 20.006239 6.4902344 20.054688 A 0.8750875 0.8750875 0 0 0 7.3945312 20.980469 C 7.4438902 20.978669 7.4973122 20.976763 7.5019531 20.976562 A 0.8750875 0.8750875 0 0 0 7.8886719 20.871094 L 8.0136719 20.802734 A 0.8750875 0.8750875 0 0 0 8.3359375 20.498047 C 8.5005953 20.235468 8.7407899 19.969907 8.9804688 19.699219 C 9.3102285 19.688303 9.6329692 19.700506 10 19.589844 A 0.8750875 0.8750875 0 0 0 10.308594 19.423828 C 10.373684 19.369588 10.44879 19.301903 10.492188 19.263672 A 0.8750875 0.8750875 0 0 0 10.787109 18.669922 C 10.794709 18.561715 10.822331 18.442208 10.837891 18.330078 C 11.138697 18.240398 11.441324 18.138832 11.740234 18.015625 A 0.8750875 0.8750875 0 0 0 12.263672 17.384766 C 12.313872 17.143407 12.377383 16.89632 12.439453 16.650391 C 12.501513 16.613441 12.565609 16.574522 12.626953 16.539062 C 12.789566 16.445252 12.961473 16.356154 13.140625 16.265625 A 0.8750875 0.8750875 0 0 0 13.599609 15.679688 C 13.971191 14.057351 14.646763 12.536838 15.695312 11.363281 A 0.8750875 0.8750875 0 0 0 15.714844 12.007812 C 15.753904 12.075513 15.814996 12.178546 15.835938 12.214844 A 0.8750875 0.8750875 0 0 0 15.876953 12.279297 C 16.230823 12.785029 16.438839 13.478334 16.650391 14.222656 A 0.8750875 0.8750875 0 0 0 16.443359 14.464844 L 16.421875 14.541016 A 0.8750875 0.8750875 0 0 0 16.486328 14.855469 L 16.394531 14.763672 C 16.394531 14.849702 16.398438 14.912608 16.398438 14.892578 A 0.8750875 0.8750875 0 0 0 16.46875 15.238281 C 16.800842 16.009122 16.926211 16.890434 16.960938 17.792969 A 0.8750875 0.8750875 0 0 0 16.589844 17.925781 C 16.564784 17.966501 16.558646 17.977854 16.535156 18.021484 A 0.8750875 0.8750875 0 0 0 16.435547 18.34375 C 16.423007 18.462909 16.415689 18.580921 16.412109 18.695312 A 0.8750875 0.8750875 0 0 0 16.412109 18.777344 C 16.487849 19.980501 16.476219 21.138912 16.125 22.138672 A 0.8750875 0.8750875 0 0 0 16.160156 22.210938 A 0.8750875 0.8750875 0 0 0 16.085938 22.214844 A 0.8750875 0.8750875 0 0 0 15.964844 22.21875 A 0.8750875 0.8750875 0 0 0 15.878906 22.222656 C 15.867546 22.229056 15.812737 22.257529 15.804688 22.261719 L 15.904297 22.277344 A 0.8750875 0.8750875 0 0 0 15.371094 22.779297 C 15.326704 22.922979 15.291113 23.058464 15.257812 23.183594 A 0.8750875 0.8750875 0 0 0 15.228516 23.40625 C 15.227817 23.922772 15.015836 24.501385 14.732422 25.144531 C 14.444541 25.765371 14.182515 26.320894 13.84375 26.742188 A 0.8750875 0.8750875 0 0 0 13.716797 26.955078 C 13.654237 27.106588 13.58818 27.265613 13.521484 27.427734 A 0.8750875 0.8750875 0 0 0 13.646484 28.304688 C 13.653884 28.313987 13.710379 28.390467 13.724609 28.410156 A 0.8750875 0.8750875 0 0 0 13.917969 28.603516 C 14.752996 29.214672 15.566539 29.949845 16.492188 30.636719 A 0.8750875 0.8750875 0 0 0 16.509766 30.650391 C 16.542186 30.673111 16.636776 30.758812 16.837891 30.845703 C 17.039006 30.932593 17.43088 30.987882 17.75 30.839844 A 0.8750875 0.8750875 0 0 0 18.078125 30.578125 C 19.41009 28.830052 20.503891 26.8043 20.908203 24.537109 A 0.8750875 0.8750875 0 0 0 20.478516 23.636719 C 21.052286 22.23913 21.257671 20.7664 21.277344 19.34375 A 0.8750875 0.8750875 0 0 0 21.021484 18.728516 A 0.8750875 0.8750875 0 0 0 21.078125 18.689453 C 21.427422 17.239631 21.144915 15.827847 20.810547 14.597656 A 0.8750875 0.8750875 0 0 0 20.417969 14.28125 A 0.8750875 0.8750875 0 0 0 20.447266 14.09375 C 20.413026 13.318097 20.121377 12.588487 19.861328 11.857422 C 20.521828 12.656998 21.078843 13.581707 21.492188 14.621094 A 0.8750875 0.8750875 0 0 0 21.664062 14.892578 C 21.798105 15.037066 21.947 15.157221 22.105469 15.255859 A 0.8750875 0.8750875 0 0 0 22.189453 15.302734 C 22.58714 15.494453 22.765191 15.556638 22.818359 15.585938 C 22.897889 15.719394 22.980102 15.949388 23.154297 16.330078 A 0.8750875 0.8750875 0 0 0 23.386719 16.636719 C 23.401239 16.648919 23.457526 16.695664 23.472656 16.708984 A 0.8750875 0.8750875 0 0 0 23.880859 16.912109 C 24.187405 16.972579 24.453447 16.998019 24.732422 17.03125 C 24.792482 17.196512 24.843521 17.350845 24.916016 17.525391 A 0.8750875 0.8750875 0 0 0 25.056641 17.755859 C 25.071341 17.773189 25.125471 17.839029 25.164062 17.884766 A 0.8750875 0.8750875 0 0 0 25.679688 18.181641 C 26.306572 18.293485 26.643504 18.2898 26.734375 18.345703 A 0.8750875 0.8750875 0 0 0 26.757812 18.359375 C 27.142647 18.580413 27.556337 18.876462 28.052734 19.15625 A 0.8750875 0.8750875 0 0 0 29.316406 18.65625 C 29.318306 18.65015 29.345096 18.57072 29.353516 18.546875 A 0.8750875 0.8750875 0 0 0 29.003906 17.558594 C 28.760802 16.698999 28.462253 15.867978 28.136719 15.101562 A 0.8750875 0.8750875 0 0 0 28.130859 15.089844 C 27.518295 13.70825 26.791777 12.29437 25.724609 11.072266 C 25.681399 11.021616 25.618978 11.008926 25.574219 10.960938 C 25.798713 10.990018 26.031482 11.06504 26.234375 11.076172 C 26.354513 11.278739 26.472763 11.475689 26.597656 11.701172 A 0.8750875 0.8750875 0 0 0 26.791016 11.939453 C 27.285598 12.367364 27.778163 12.443708 28.203125 12.46875 C 28.366262 12.691326 28.547716 13.011983 28.865234 13.353516 A 0.8750875 0.8750875 0 0 0 29.066406 13.513672 C 29.459976 13.742729 29.815655 13.818778 30.066406 13.894531 C 30.317158 13.970281 30.447348 14.032416 30.511719 14.089844 A 0.8750875 0.8750875 0 0 0 30.517578 14.097656 C 30.943529 14.469503 31.385138 14.867688 31.882812 15.246094 A 0.8750875 0.8750875 0 0 0 33.279297 14.433594 C 33.126033 13.297067 32.819748 12.231177 32.525391 11.210938 A 0.8750875 0.8750875 0 0 0 32.517578 11.185547 C 32.18356 10.147342 31.810049 8.9911237 31.044922 7.9648438 C 30.413328 7.1154587 29.500157 6.873929 28.716797 6.7421875 A 0.8750875 0.8750875 0 0 0 28.925781 6.7050781 C 29.403741 6.4303442 29.991116 6.2680563 30.595703 6.1582031 C 30.739073 6.1321531 30.881878 6.1098786 31.025391 6.0878906 A 0.8750875 0.8750875 0 0 0 31.181641 6.0488281 C 32.214192 5.6894942 32.727691 5.0632334 33.152344 4.921875 A 0.8750875 0.8750875 0 0 0 33.029297 3.2304688 C 30.11207 2.7171326 26.943634 2.1156978 23.769531 2.9238281 L 23.808594 2.9277344 A 0.8750875 0.8750875 0 0 0 23.714844 2.9375 C 22.123627 3.4504334 21.18977 4.6893828 20.332031 5.5546875 A 0.8750875 0.8750875 0 0 0 20.314453 5.5722656 C 19.889575 6.0263343 19.541946 6.4611787 19.185547 6.7929688 A 0.8750875 0.8750875 0 0 0 19.164062 6.8125 C 19.125843 6.850604 19.092472 6.889514 19.054688 6.9277344 C 19.326816 6.5739183 19.61411 6.2292009 19.742188 5.7265625 C 19.970126 4.8998962 19.582823 4.2588212 19.421875 3.9140625 A 0.8750875 0.8750875 0 0 0 19.414062 3.8964844 C 19.169555 3.400607 19.009535 2.8833988 18.978516 2.3847656 C 18.960916 2.1021311 19.103498 1.7010049 19.287109 1.1523438 A 0.8750875 0.8750875 0 0 0 18.636719 0.01953125 z M 18.205078 7.8945312 A 0.8750875 0.8750875 0 0 0 18.185547 8.078125 C 18.129897 8.058298 18.079083 8.0712945 18.023438 8.0546875 C 18.083868 8.0048245 18.142628 7.9471784 18.205078 7.8945312 z " />
  <path fill="url(#rarity)" d="m 16.180773,3.4388521 c 0.446,-1.089 1.352,-1.88 2.276,-2.56399999 -0.169,0.50499999 -0.385,1.01799999 -0.351,1.56399999 0.04,0.643 0.239,1.269 0.523,1.845 0.176,0.377 0.394,0.788 0.272,1.217 -0.249,0.999 -1.138,1.624 -1.873,2.266 -0.144,0.083 -0.288,0.164 -0.432,0.246 -0.061,0.035 -0.184,0.105 -0.245,0.14 0.363,-0.654 0.147,-1.41 -0.057,-2.079 -0.289,-0.838 -0.465,-1.789 -0.112,-2.636 z m 7.803,0.331 c -1.275,0.411 -2.123,1.486 -3.03,2.401 -0.393,0.42 -0.752,0.871 -1.172,1.262 -0.317,0.316 -0.623,0.642 -0.926,0.969 0.085,-0.021 0.255,-0.063 0.34,-0.085 0.086,-0.035 0.258,-0.105 0.344,-0.139 0.159,-0.068 0.32,-0.136 0.48,-0.201 1.931,-0.783 3.991,-1.354 6.09,-1.306 0.288,-0.278 0.571,-0.561 0.879,-0.817 0.07,-0.005 0.21,-0.018 0.279,-0.024 0.411,-0.009 0.817,0.049 1.221,0.117 0.616042,-0.5130143 1.134267,-0.6504686 2.405,-0.724 0.727,-0.253 1.247,-0.886 1.983,-1.131 -2.921,-0.514 -5.957,-1.068 -8.891,-0.321 z m -19.4039996,1.792 c -0.289,0.08 -0.589,0.104 -0.887,0.125 -0.417,0.101 -0.823,0.245 -1.232,0.372 -0.401,0.131 -0.792,0.288 -1.179,0.457 -0.114,0.049 -0.229,0.1 -0.34399999,0.149 l -0.063,0.028 c 0.099,0.014 0.29399999,0.039 0.39199999,0.053 0.294,0.044 0.595,0.086 0.868,0.211 0.316,0.163 0.58,0.417 0.914,0.543 0.47,-0.005 0.94,-0.147 1.409,-0.054 0.422,0.105 0.799,0.342 1.222,0.446 0.625,-0.311 1.435,-0.39 1.948,0.167 0.49,0.326 1.079,0.062 1.617,0.066 1.8439996,-0.077 3.6859996,0.235 5.4619996,0.71 0.211,0.052 0.426,0.091 0.641,0.126 -1.239,-0.994 -2.512,-1.948 -3.751,-2.943 -0.801,-0.654 -1.8409996,-0.931 -2.8609996,-0.974 -1.401,-0.059 -2.803,0.165 -4.156,0.518 z m 15.8469996,2.912 c -0.119,0.049 -0.235,0.101 -0.35,0.157 -0.169,0.083 -0.336,0.171 -0.504,0.254 -0.091,0.044 -0.27,0.133 -0.36,0.177 0.246,0.059 0.5,0.063 0.753,0.063 1.657,-0.077 3.342,0.184 4.867,0.844 0.614,0.2739999 1.298,0.2779999 1.956,0.3229999 0.207,0.318 0.39,0.652 0.575,0.986 0.408,0.353 0.989,0.313 1.495,0.356 0.006,0.071 0.018,0.212 0.024,0.283 0.209,0.279 0.385,0.584 0.623,0.84 0.5,0.291 1.143,0.284 1.588,0.681 0.433,0.378 0.86,0.763 1.319,1.112 -0.142,-1.053 -0.435,-2.077 -0.729,-3.096 -0.332,-1.032 -0.686,-2.0889999 -1.341,-2.9669999 -0.493,-0.663 -1.352,-0.864 -2.127,-0.967 -2.629,-0.289 -5.278,0.187 -7.79,0.953 z m -4.332,0.455 c -0.008,0.056 -0.024,0.167 -0.032,0.222 0.183,0.455 0.315,0.9259999 0.446,1.3959999 0.028,0.054 0.082,0.163 0.109,0.217 0.625,-0.029 1.251,0.006 1.875,-0.018 -0.116,-0.622 -0.283,-1.2329999 -0.466,-1.8369999 -0.479,-0.205 -1.003,-0.239 -1.518,-0.201 -0.139,0.073 -0.277,0.147 -0.414,0.22 z m -10.4529996,0.538 c -0.427,0.176 -0.85,0.379 -1.203,0.6809999 -0.39,0.363 -0.601,0.871 -0.781,1.362 -0.553,1.614 -0.679,3.327 -0.859,5.011 -0.003,0.078 -0.008,0.235 -0.01,0.313 l 0.054,0.107 c 0.158,-0.053 0.315,-0.109 0.475,-0.154 0.128,-0.202 0.262,-0.401 0.413,-0.586 0.171,-0.236 0.329,-0.483 0.505,-0.715 0.294,-0.444 0.849,-0.555 1.308,-0.754 0.081,-0.401 0.187,-0.796 0.302,-1.189 0.158,-0.044 0.316,-0.087 0.474,-0.13 0.342,-0.094 0.686,-0.186 1.016,-0.318 0.224,-0.455 0.279,-1.195 0.913,-1.238 0.508,-0.109 1.011,-0.245 1.482,-0.467 0.058,-0.025 0.174,-0.078 0.232,-0.105 1.3379996,-0.886 2.9539996,-1.3409999 4.5499996,-1.4089999 0.226,-0.047 0.449,-0.111 0.672,-0.173 -2.18,-0.77 -4.542,-0.857 -6.8279996,-0.69 -0.92,0.053 -1.818,0.263 -2.717,0.455 z m 13.5629996,0.438 c 0.171,0.1479999 0.341,0.2969999 0.512,0.4469999 1.232,1.021 2.005,2.48 2.588,3.946 0.077,0.083 0.166,0.155 0.264,0.216 0.307,0.148 0.662,0.227 0.913,0.467 0.22,0.293 0.317,0.656 0.468,0.986 0.025,0.021 0.075,0.064 0.1,0.086 0.436,0.086 0.878,0.126 1.319,0.182 0.116,0.318 0.225,0.641 0.355,0.954 0.028,0.033 0.082,0.099 0.109,0.131 0.454,0.081 0.953,0.029 1.361,0.28 0.437,0.251 0.848,0.547 1.288,0.795 0.011,-0.035 0.035,-0.105 0.047,-0.139 -0.056,-0.014 -0.166,-0.042 -0.221,-0.056 -0.224,-0.95 -0.596,-1.859 -0.977,-2.756 -0.599,-1.351 -1.291,-2.685 -2.269,-3.803 -0.796,-0.935 -2.014,-1.348 -3.18,-1.585 -0.85,-0.1789999 -1.723,-0.1829999 -2.589,-0.1859999 l -0.086,0.033 z m -6.626,1.0909999 c -0.605,0.229 -1.151,0.585 -1.74,0.852 -0.697,0.495 -1.2169996,1.191 -1.6079996,1.945 -1.005,1.919 -1.547,4.046 -1.857,6.18 -0.004,0.033 -0.009,0.101 -0.011,0.134 0.027,-0.001 0.08,-0.004 0.107,-0.005 l 0.125,-0.068 c 0.264,-0.421 0.594,-0.792 0.927,-1.157 0.412,0.01 0.828,-0.005 1.226,-0.125 0.042,-0.035 0.124,-0.107 0.166,-0.144 0.023,-0.327 0.077,-0.651 0.1449996,-0.972 0.164,-0.043 0.33,-0.086 0.494,-0.131 0.289,-0.085 0.575,-0.183 0.854,-0.298 0.078,-0.375 0.171,-0.748 0.269,-1.118 0.171,-0.104 0.341,-0.207 0.514,-0.307 0.182,-0.105 0.368,-0.203 0.556,-0.298 0.418,-1.825 1.168,-3.626 2.494,-4.981 -0.906,0.048 -1.778,0.31 -2.661,0.495 z m 3.966,0.421 c -0.018,0.039 -0.053,0.116 -0.072,0.154 0.03,0.052 0.091,0.154 0.121,0.206 0.494,0.706 0.733,1.548 0.962,2.368 0.672,-0.005 1.346,0.029 2.017,-0.013 -0.043,-0.974 -0.301,-1.958 -0.738,-2.821 -0.764,0.004 -1.524,0.134 -2.29,0.106 z m 0.725,3.346 c 0,0.033 0.003,0.097 0.003,0.13 0.411,0.954 0.566,1.995 0.591,3.026 0.791,0.176 1.563,0.433 2.364,0.566 0.292,-1.212 0.059,-2.477 -0.262,-3.658 -0.882,-0.047 -1.765,-0.073 -2.645,-0.154 l -0.032,0.014 -0.02,0.076 z m 0.035,3.673 c -0.01,0.095 -0.016,0.19 -0.019,0.286 0.078,1.239 0.082,2.519 -0.335,3.706 0.898,0.327 1.816,0.599 2.704,0.951 l 0.006,-0.013 c 0.536,-1.276 0.723,-2.66 0.742,-4.034 -1.017,-0.332 -2.055,-0.601 -3.068,-0.948 -0.008,0.013 -0.023,0.039 -0.03,0.052 z m -1.098,4.602 c -0.038,0.123 -0.071,0.246 -0.104,0.37 -10e-4,0.739 -0.28,1.433 -0.574,2.099 -0.287,0.619 -0.572,1.247 -1.003,1.783 -0.064,0.155 -0.13,0.312 -0.195,0.47 0.027,0.034 0.078,0.102 0.104,0.138 0.884,0.647 1.698,1.384 2.578,2.037 0.107,0.075 0.231,0.176 0.369,0.112 1.274,-1.672 2.293,-3.578 2.665,-5.664 -1.234,-0.5 -2.53,-0.841 -3.741,-1.397 -0.025,0.014 -0.073,0.04 -0.098,0.053 z"/>
</svg>
