<?xml version="1.0" encoding="UTF-8" standalone="no"?>
<!-- Generated by IcoMoon.io -->

<svg
   version="1.1"
   width="27.231001"
   height="21.705"
   viewBox="0 0 27.231001 21.705"
   id="svg8"
   sodipodi:docname="mm2.svg"
   inkscape:version="1.1.1 (3bf5ae0d25, 2021-09-20)"
   xmlns:inkscape="http://www.inkscape.org/namespaces/inkscape"
   xmlns:sodipodi="http://sodipodi.sourceforge.net/DTD/sodipodi-0.dtd"
   xmlns="http://www.w3.org/2000/svg"
   xmlns:svg="http://www.w3.org/2000/svg">
  <defs
     id="defs12" />
  <sodipodi:namedview
     id="namedview10"
     pagecolor="#ffffff"
     bordercolor="#666666"
     borderopacity="1.0"
     inkscape:pageshadow="2"
     inkscape:pageopacity="0.0"
     inkscape:pagecheckerboard="0"
     showgrid="false"
     inkscape:zoom="25.75"
     inkscape:cx="13.495146"
     inkscape:cy="10.815534"
     inkscape:window-width="1920"
     inkscape:window-height="1009"
     inkscape:window-x="-8"
     inkscape:window-y="-8"
     inkscape:window-maximized="1"
     inkscape:current-layer="svg8" />
  <title
     id="title2">mm2</title>
  <path
     fill="#000000"
     d="m 4.86,1.66 c 1.696,-1.084 3.705,-1.654 5.716,-1.657 0.018,1.513 0.628,3.057 1.839,4.007 0.164,0.173 0.485,0.277 0.447,0.568 -0.002,4.256 0.016,8.513 -0.011,12.771 -1.46,0.927 -2.272,2.646 -2.277,4.351 C 7.721,21.693 4.885,20.516 2.908,18.449 1.424,16.956 0.431,15.014 0.006,12.958 0.592,13.775 1.496,14.372 2.498,14.513 4,14.767 5.598,13.948 6.29,12.596 6.857,11.562 6.874,10.255 6.346,9.202 5.73,7.906 4.3,7.05 2.863,7.146 1.723,7.192 0.655,7.819 0,8.744 0.586,5.86 2.349,3.219 4.859,1.662 Z"
     id="path4" />
  <path
     fill="#000000"
     d="m 16.652,0.001 c 2.976,-0.009 5.924,1.294 7.915,3.506 1.357,1.462 2.249,3.319 2.664,5.262 -0.567,-0.837 -1.484,-1.437 -2.487,-1.583 -1.163,-0.199 -2.401,0.228 -3.209,1.082 -1.008,1.026 -1.322,2.66 -0.759,3.984 0.528,1.377 1.961,2.339 3.437,2.309 1.188,0 2.321,-0.637 3.006,-1.598 -0.582,2.895 -2.369,5.53 -4.881,7.092 -1.688,1.077 -3.684,1.627 -5.682,1.65 C 16.645,19.998 15.837,18.277 14.372,17.35 14.367,13.013 14.346,8.676 14.383,4.339 15.834,3.409 16.646,1.702 16.653,0 Z"
     id="path6" />
</svg>
