<?xml version="1.0" encoding="UTF-8" standalone="no"?>
<svg
   version="1.1"
   width="29.237387"
   height="23.703293"
   viewBox="0 0 29.237387 23.703293"
   id="svg6"
   xmlns="http://www.w3.org/2000/svg"
   xmlns:svg="http://www.w3.org/2000/svg">
  <defs>
    <!-- This is the gradient that will actually be used on
     the cards. The colors themselves will be provided by the
     template, but the x values, y values, and offsets will be
     used from the SVG. -->
    <linearGradient id="rarity" x1="0" y1="1" x2="1" y2="0">
      <stop offset="0" style="stop-color:rgb(192,55,38);stop-opacity:1" id="stop2" />
      <stop offset="0.125" style="stop-color:rgb(192,55,38);stop-opacity:1" id="stop4" />
      <stop offset="0.5" style="stop-color:rgb(241,142,30);stop-opacity:1" id="stop6" />
      <stop offset="0.875" style="stop-color:rgb(192,55,38);stop-opacity:1" id="stop8" />
      <stop offset="1" style="stop-color:rgb(192,55,38);stop-opacity:1" id="stop10" />
    </linearGradient>
    <!-- These gradients are here so that you can visualize
     what the set symbol would like like in that rarity. The
     only gradient that matters in the end is the "rarity"
     gradient. -->
    <linearGradient id="mythic" x1="0" y1="1" x2="1" y2="0">
      <stop offset="0" style="stop-color:rgb(192,55,38);stop-opacity:1"/>
      <stop offset="0.125" style="stop-color:rgb(192,55,38);stop-opacity:1"/>
      <stop offset="0.5" style="stop-color:rgb(241,142,30);stop-opacity:1"/>
      <stop offset="0.875" style="stop-color:rgb(192,55,38);stop-opacity:1"/>
      <stop offset="1" style="stop-color:rgb(192,55,38);stop-opacity:1"/>
    </linearGradient>
    <linearGradient id="rare" x1="0" y1="1" x2="1" y2="0">
      <stop offset="0" style="stop-color:rgb(146,116,67);stop-opacity:1"/>
      <stop offset="0.125" style="stop-color:rgb(146,116,67);stop-opacity:1"/>
      <stop offset="0.5" style="stop-color:rgb(211,178,108);stop-opacity:1"/>
      <stop offset="0.875" style="stop-color:rgb(146,116,67);stop-opacity:1"/>
      <stop offset="1" style="stop-color:rgb(146,116,67);stop-opacity:1"/>
    </linearGradient>
    <linearGradient id="special" x1="0" y1="1" x2="1" y2="0">
      <stop offset="0" style="stop-color:rgb(76, 56, 106);stop-opacity:1"/>
      <stop offset="0.125" style="stop-color:rgb(76, 56, 106);stop-opacity:1"/>
      <stop offset="0.5" style="stop-color:rgb(201, 173, 221);stop-opacity:1"/>
      <stop offset="0.875" style="stop-color:rgb(76, 56, 106);stop-opacity:1"/>
      <stop offset="1" style="stop-color:rgb(76, 56, 106);stop-opacity:1"/>
    </linearGradient>
    <linearGradient id="uncommon" x1="0" y1="1" x2="1" y2="0">
      <stop offset="0" style="stop-color:rgb(98,110,119);stop-opacity:1"/>
      <stop offset="0.125" style="stop-color:rgb(98,110,119);stop-opacity:1"/>
      <stop offset="0.5" style="stop-color:rgb(196,222,238);stop-opacity:1"/>
      <stop offset="0.875" style="stop-color:rgb(98,110,119);stop-opacity:1"/>
      <stop offset="1" style="stop-color:rgb(98,110,119);stop-opacity:1"/>
    </linearGradient>
    <linearGradient id="common" x1="0" y1="1" x2="1" y2="0">
      <stop offset="0" style="stop-color:rgb(0,0,0);stop-opacity:1"/>
    </linearGradient>
    <linearGradient
            id="rarity-outline" x1="0" y1="1" x2="0" y2="1">
      <stop offset="0" style="stop-color:rgb(0,0,0);stop-opacity:1"/>
    </linearGradient>
  </defs>
  <path fill="url(#rarity-outline)" d="M 17.651762,5.1455655e-5 C 17.102547,0.00224746 16.657864,0.44692979 16.655668,0.99614521 16.649463,2.3825263 15.971993,3.7751429 14.847074,4.4961452 H 14.376371 C 14.171352,4.3166859 14.070722,4.2431179 14.143949,4.3203639 14.11,4.2845061 14.073441,4.2512119 14.034574,4.2207545 13.109187,3.4948099 12.594401,2.2431345 12.579496,0.99028584 12.573015,0.44184419 12.126022,9.5006566e-4 11.577543,0.00200459 9.3831974,0.00527859 7.197147,0.62373219 5.3353549,1.8105983 l -0.00195,0.00195 c -0.00298,0.0019 -0.00679,0.00201 -0.00977,0.00391 -0.00131,0.00195 -0.00261,0.0039 -0.00391,0.00586 C 2.5665834,3.5369349 0.66178798,6.3985101 0.02285493,9.5430202 -0.19455702,10.604335 1.195087,11.205507 1.8197299,10.320364 2.3014786,9.6400319 3.1080471,9.1768462 3.9076206,9.1445827 c 0.00847,-5.433e-4 0.016936,-0.00119 0.025391,-0.00195 0.9991167,-0.066747 2.0819784,0.5780901 2.5136719,1.4863283 0.00255,0.0059 0.00515,0.01174 0.00781,0.01758 0.3753252,0.748518 0.3612575,1.73676 -0.039063,2.466796 -0.00468,0.0084 -0.00924,0.01686 -0.013672,0.02539 -0.4824036,0.942499 -1.6961558,1.56229 -2.734375,1.386719 -0.0091,-0.0014 -0.018212,-0.0027 -0.027344,-0.0039 -0.6974413,-0.09816 -1.3814622,-0.539329 -1.8183564,-1.148446 -0.6302066,-0.873809 -2.00661922,-0.270409 -1.79101567,0.785156 0.46158772,2.232999 1.53736367,4.344871 3.16601567,5.986328 2.1758443,2.270814 5.2560181,3.545073 8.3789069,3.552735 0.551502,10e-4 0.999745,-0.444595 1.001953,-0.996094 0.0041,-1.38934 0.682679,-2.792406 1.8125,-3.509766 l 0.449219,0.002 c 1.132882,0.716848 1.81132,2.120291 1.820312,3.515626 0.0033,0.554575 0.457172,1.000593 1.011719,0.99414 2.171902,-0.025 4.343275,-0.620774 6.201172,-1.804687 2.757151,-1.716315 4.693596,-4.574233 5.330078,-7.740235 0.212293,-1.057471 -1.168879,-1.655629 -1.794922,-0.777344 -0.503691,0.706638 -1.360678,1.177735 -2.191406,1.177735 -0.0065,-6.4e-5 -0.01302,-6.4e-5 -0.01953,0 -1.028791,0.02091 -2.117282,-0.708655 -2.484375,-1.666016 -0.0044,-0.01115 -0.0089,-0.02222 -0.01367,-0.0332 -0.39451,-0.927762 -0.156133,-2.171052 0.552735,-2.8925777 0.0046,-0.00451 0.0092,-0.00907 0.01367,-0.013672 0.571913,-0.6044706 1.502154,-0.9221948 2.314453,-0.7832031 0.0078,0.00139 0.01561,0.0027 0.02344,0.00391 0.701821,0.1021594 1.391655,0.5474645 1.802735,1.1542968 0.615626,0.911551 2.037386,0.305959 1.80664,-0.7695311 C 28.763344,7.4566383 27.797684,5.4374742 26.302152,3.8262233 24.113774,1.4016197 20.9165,-0.00982176 17.651762,5.1455655e-5 Z" />
  <path fill="url(#rarity)" d="m 17.655668,1.0000515 c -0.0076,1.7013516 -0.819087,3.4082468 -2.269532,4.3378906 -0.037,4.3369999 -0.01672,8.6727649 -0.01172,13.0097649 1.465,0.927 2.274156,2.648469 2.285156,4.355469 1.998,-0.023 3.993641,-0.573391 5.681641,-1.65039 2.512,-1.562001 4.298859,-4.196797 4.880859,-7.091797 -0.685,0.961 -1.817859,1.597656 -3.005859,1.597656 -1.476,0.03 -2.9095,-0.931594 -3.4375,-2.308594 -0.563,-1.324 -0.248235,-2.958375 0.759765,-3.9843746 0.808,-0.854 2.045985,-1.2810312 3.208985,-1.0820312 1.003,0.146 1.919328,0.7469844 2.486328,1.5839843 -0.415,-1.9429999 -1.307063,-3.7997187 -2.664063,-5.2617187 -1.991,-2.212 -4.938062,-3.51485933 -7.914062,-3.5058593 z m -6.076172,0.00195 c -2.0110004,0.003 -4.0207973,0.57225 -5.7167973,1.6562499 v 0.00195 c -2.51,1.5570032 -4.273375,4.1980344 -4.859375,7.0820344 0.655,-0.925 1.7232813,-1.5516562 2.8632812,-1.5976562 1.4370001,-0.096 2.8664219,0.7586875 3.4824219,2.0546873 0.528,1.053 0.5103594,2.360531 -0.056641,3.394531 -0.692,1.352 -2.2890156,2.171969 -3.7910156,1.917969 -1.002,-0.141 -1.9061875,-0.739641 -2.4921875,-1.556641 0.425,2.056 1.4183437,3.999188 2.9023437,5.492188 1.977,2.067 4.8130156,3.243 7.6660156,3.25 0.005,-1.705 0.817344,-3.42261 2.277343,-4.34961 0.027,-4.258 0.0078,-8.5154837 0.0098,-12.7714837 0.038,-0.291 -0.283266,-0.3953594 -0.447266,-0.5683594 -1.210999,-0.95 -1.81989,-2.4928594 -1.83789,-4.0058593 z"/>
</svg>
