<?xml version="1.0" encoding="UTF-8" standalone="no"?>
<!-- Generated by IcoMoon.io -->

<svg
   version="1.1"
   width="27.459999"
   height="24.298"
   viewBox="0 0 27.459999 24.298"
   id="svg6"
   sodipodi:docname="mma.svg"
   inkscape:version="1.1.1 (3bf5ae0d25, 2021-09-20)"
   xmlns:inkscape="http://www.inkscape.org/namespaces/inkscape"
   xmlns:sodipodi="http://sodipodi.sourceforge.net/DTD/sodipodi-0.dtd"
   xmlns="http://www.w3.org/2000/svg"
   xmlns:svg="http://www.w3.org/2000/svg">
  <defs
     id="defs10" />
  <sodipodi:namedview
     id="namedview8"
     pagecolor="#ffffff"
     bordercolor="#666666"
     borderopacity="1.0"
     inkscape:pageshadow="2"
     inkscape:pageopacity="0.0"
     inkscape:pagecheckerboard="0"
     showgrid="false"
     inkscape:zoom="25.75"
     inkscape:cx="14"
     inkscape:cy="12.135922"
     inkscape:window-width="1920"
     inkscape:window-height="1009"
     inkscape:window-x="-8"
     inkscape:window-y="-8"
     inkscape:window-maximized="1"
     inkscape:current-layer="svg6" />
  <title
     id="title2">mma</title>
  <path
     fill="#000000"
     d="m 21.156,17.003 c 3.084,2.406 4.113,2.495 6.304,2.573 -1.316,1.261 -3.219,3.038 -5.051,4.722 L 5.056,24.284 0,19.512 c 2.597,-0.142 2.796,0.163 6.175,-2.509 z m -0.017,-2.107 c 0.719,-1.172 2.42,-2.579 5.028,-2.768 C 25.906,7.406 23.958,4.558 22.305,2.971 20.676,1.408 18.583,0.352 16.489,0 c 0.596,0.712 1.455,1.834 1.455,3.373 0,2.39 -1.862,4.263 -4.239,4.263 C 11.304,7.636 9.482,5.807 9.467,3.381 9.457,1.836 10.231,0.732 10.835,0.028 8.491,0.395 6.34,1.562 4.659,3.404 3.587,4.578 2.747,5.981 2.163,7.576 1.645,8.989 1.338,10.527 1.246,12.161 c 1.533,0.13 4.012,0.672 4.939,2.745 l 14.954,-0.009 z"
     id="path4" />
</svg>
