<?xml version="1.0" encoding="UTF-8" standalone="no"?>
<svg
   version="1.1"
   width="29.617733"
   height="28.702719"
   viewBox="0 0 29.617733 28.702719"
   id="svg4"
   xmlns="http://www.w3.org/2000/svg"
   xmlns:svg="http://www.w3.org/2000/svg">
  <defs>
    <!-- This is the gradient that will actually be used on
     the cards. The colors themselves will be provided by the
     template, but the x values, y values, and offsets will be
     used from the SVG. -->
    <linearGradient id="rarity" x1="0" y1="0" x2="1" y2="0">
      <stop offset="0" style="stop-color:rgb(192,55,38);stop-opacity:1" id="stop2" />
      <stop offset="0.125" style="stop-color:rgb(192,55,38);stop-opacity:1" id="stop4" />
      <stop offset="0.5" style="stop-color:rgb(241,142,30);stop-opacity:1" id="stop6" />
      <stop offset="0.875" style="stop-color:rgb(192,55,38);stop-opacity:1" id="stop8" />
      <stop offset="1" style="stop-color:rgb(192,55,38);stop-opacity:1" id="stop10" />
    </linearGradient>
    <!-- These gradients are here so that you can visualize
     what the set symbol would like like in that rarity. The
     only gradient that matters in the end is the "rarity"
     gradient. -->
    <linearGradient id="mythic" x1="0" y1="1" x2="1" y2="0">
      <stop offset="0" style="stop-color:rgb(192,55,38);stop-opacity:1"/>
      <stop offset="0.125" style="stop-color:rgb(192,55,38);stop-opacity:1"/>
      <stop offset="0.5" style="stop-color:rgb(241,142,30);stop-opacity:1"/>
      <stop offset="0.875" style="stop-color:rgb(192,55,38);stop-opacity:1"/>
      <stop offset="1" style="stop-color:rgb(192,55,38);stop-opacity:1"/>
    </linearGradient>
    <linearGradient id="rare" x1="0" y1="1" x2="1" y2="0">
      <stop offset="0" style="stop-color:rgb(146,116,67);stop-opacity:1"/>
      <stop offset="0.125" style="stop-color:rgb(146,116,67);stop-opacity:1"/>
      <stop offset="0.5" style="stop-color:rgb(211,178,108);stop-opacity:1"/>
      <stop offset="0.875" style="stop-color:rgb(146,116,67);stop-opacity:1"/>
      <stop offset="1" style="stop-color:rgb(146,116,67);stop-opacity:1"/>
    </linearGradient>
    <linearGradient id="special" x1="0" y1="1" x2="1" y2="0">
      <stop offset="0" style="stop-color:rgb(76, 56, 106);stop-opacity:1"/>
      <stop offset="0.125" style="stop-color:rgb(76, 56, 106);stop-opacity:1"/>
      <stop offset="0.5" style="stop-color:rgb(201, 173, 221);stop-opacity:1"/>
      <stop offset="0.875" style="stop-color:rgb(76, 56, 106);stop-opacity:1"/>
      <stop offset="1" style="stop-color:rgb(76, 56, 106);stop-opacity:1"/>
    </linearGradient>
    <linearGradient id="uncommon" x1="0" y1="1" x2="1" y2="0">
      <stop offset="0" style="stop-color:rgb(98,110,119);stop-opacity:1"/>
      <stop offset="0.125" style="stop-color:rgb(98,110,119);stop-opacity:1"/>
      <stop offset="0.5" style="stop-color:rgb(196,222,238);stop-opacity:1"/>
      <stop offset="0.875" style="stop-color:rgb(98,110,119);stop-opacity:1"/>
      <stop offset="1" style="stop-color:rgb(98,110,119);stop-opacity:1"/>
    </linearGradient>
    <linearGradient id="common" x1="0" y1="1" x2="1" y2="0">
      <stop offset="0" style="stop-color:rgb(0,0,0);stop-opacity:1"/>
    </linearGradient>
    <linearGradient
            id="rarity-outline" x1="0" y1="1" x2="0" y2="1">
      <stop offset="0" style="stop-color:rgb(0,0,0);stop-opacity:1"/>
    </linearGradient>
  </defs>
  <path fill="url(#rarity-outline)" d="M 14.593949,0 C 9.6355987,0 6.1259635,1.3958794 3.8771521,2.8378906 1.6283407,4.2799019 0.54707401,5.875 0.54707402,5.875 0.40351074,6.0930939 0.31935704,6.3448818 0.30293334,6.6054688 l -0.2070312,3.2246093 c -0.00389,0.045685 -0.325176,3.8418359 0.2304688,8.0175779 0.27949701,2.100457 0.77404286,4.309099 1.71679686,6.25 0.9427539,1.940902 2.4091684,3.677128 4.5800781,4.41211 0.0026,6.58e-4 0.00521,0.0013 0.00781,0.002 0,0 0.8631849,0.291337 1.9160157,0.154297 1.0528308,-0.137041 2.4462954,-0.808064 3.2929694,-2.289063 0.62922,-1.10063 1.3452,-2.36835 2.007812,-3.287109 0.331305,-0.45938 0.652476,-0.828445 0.875,-1.021485 0.03573,-0.031 0.06031,-0.04692 0.08789,-0.06641 0.02731,0.01936 0.05069,0.03585 0.08594,0.06641 0.222607,0.193016 0.54556,0.562195 0.876953,1.021485 0.662785,0.918579 1.378799,2.186334 2.007813,3.287109 0.846577,1.481509 2.239903,2.152179 3.292969,2.289063 1.053067,0.136883 1.914062,-0.154297 1.914062,-0.154297 0.0026,-6.44e-4 0.0052,-0.0013 0.0078,-0.002 2.170281,-0.735096 3.637527,-2.471298 4.580078,-4.41211 0.942552,-1.940811 1.435158,-4.149595 1.714843,-6.25 0.559375,-4.200809 0.230469,-8.0468748 0.230469,-8.0468748 -5.9e-4,-0.00782 -0.0012,-0.01563 -0.002,-0.023437 L 29.199418,6.5527344 C 29.174879,6.3105176 29.091757,6.0779125 28.95723,5.875 c 0,0 -1.079314,-1.5950981 -3.328125,-3.0371094 C 23.380294,1.3958794 19.870658,0 14.912308,0 Z" />
  <path fill="url(#rarity)" d="m 22.745064,18.882 c 1.975,0 2.783,-0.76 2.808,-1.623 0.039,-1.154 -1.315,-2.458 -3.13,-2.458 -2.866,0 -4.953,3.388 -4.953,3.388 1.105,0.421 3.243,0.693 3.854,0.693 z m -14.4530003,0 c 0.614,0 2.7520003,-0.272 3.8540003,-0.693 0,0 -2.087,-3.388 -4.9530003,-3.388 -1.811,0 -3.166,1.304 -3.13,2.458 0.028,0.863 0.832,1.623 2.808,1.623 z M 14.593064,1.5 C 5.2320637,1.5 1.8000637,6.702 1.8000637,6.702 c 0,0 1.04,2.392 4.888,2.6 0,0 3.122,-3.122 8.0110003,-3.122 h 0.111 c 4.889,0 8.01,3.122 8.01,3.122 3.846,-0.208 4.886,-2.6 4.886,-2.6 0,0 -3.432,-5.202 -12.793,-5.202 z m 0.327,11.026 c 11.026,0 13.107,-2.6 13.107,-2.6 0,0 1.246,14.874 -5.512,17.163 0,0 -2.184,0.727 -3.432,-1.457 -1.248,-2.184 -2.914,-5.202 -4.265,-5.202 h -0.017 c -1.351,0 -3.016,3.019 -4.264,5.202 -1.2480003,2.183 -3.4320003,1.457 -3.4320003,1.457 -6.76099996,-2.289 -5.512,-17.163 -5.512,-17.163 0,0 2.08,2.6 13.1070003,2.6 h 0.222 z"/>
</svg>
