<?xml version="1.0" encoding="UTF-8" standalone="no"?>
<!-- Generated by IcoMoon.io -->

<svg
   version="1.1"
   width="28.404749"
   height="28.010075"
   viewBox="0 0 28.404749 28.010075"
   id="svg6"
   sodipodi:docname="mor.svg"
   inkscape:version="1.1.1 (3bf5ae0d25, 2021-09-20)"
   xmlns:inkscape="http://www.inkscape.org/namespaces/inkscape"
   xmlns:sodipodi="http://sodipodi.sourceforge.net/DTD/sodipodi-0.dtd"
   xmlns="http://www.w3.org/2000/svg"
   xmlns:svg="http://www.w3.org/2000/svg">
  <defs
     id="defs10" />
  <sodipodi:namedview
     id="namedview8"
     pagecolor="#ffffff"
     bordercolor="#666666"
     borderopacity="1.0"
     inkscape:pageshadow="2"
     inkscape:pageopacity="0.0"
     inkscape:pagecheckerboard="0"
     showgrid="false"
     inkscape:zoom="25.75"
     inkscape:cx="14.466019"
     inkscape:cy="14"
     inkscape:window-width="1920"
     inkscape:window-height="1009"
     inkscape:window-x="-8"
     inkscape:window-y="-8"
     inkscape:window-maximized="1"
     inkscape:current-layer="svg6" />
  <title
     id="title2">mor</title>
  <path
     fill="#000000"
     d="m 21.731,21.65263 c 0,1.385 -0.469,2.762 -1.313,3.867 -0.809,1.055 -1.955,1.843 -3.226,2.227 -1.365,0.41 -2.857,0.337 -4.181,-0.188 -1.24,-0.493 -2.306,-1.383 -3.021,-2.508 -0.767,-1.213 -1.099,-2.675 -0.944,-4.099 0.147,-1.354 0.739,-2.634 1.664,-3.63 0.941,-1.016 2.204,-1.696 3.566,-1.937 1.363,-0.237 2.778,-0.02 4.005,0.616 2.092,1.078 3.449,3.293 3.449,5.652 z m 1.77,-0.355 c 0,-1.901 -0.668,-3.744 -1.887,-5.206 0.879,-0.346 1.7,-0.853 2.408,-1.506 0.839,-0.771 1.524,-1.74 1.767,-2.828 0.158,-0.689 0.134,-1.424 0,-2.1179999 0.536,0.3949999 1.04,0.8699999 1.415,1.4119999 0.879,1.283 1.175,3.211 1.199,4.846 0.026,1.729 -0.237,3.162 -0.847,4.694 -0.732,1.846 -2.165,3.474 -3.885,4.591 -0.554,0.36 -1.14,0.665 -1.744,0.923 1.023,-1.394 1.574,-3.079 1.574,-4.808 z m -2.816,-6.153 c -1.863,-1.611 -4.357,-2.288 -6.78,-1.846 -0.117,-0.029 -0.232,-0.062 -0.349,-0.097 -1.603,-0.492 -3.1,-1.617 -3.718,-3.2169999 -0.026,-0.068 -0.053,-0.135 -0.073,-0.205 0.041,-0.047 0.085,-0.094 0.126,-0.141 0.71,-0.762 1.544,-1.433 2.473,-1.766 0.996,-0.358 2.098,-0.329 3.183,-0.707 0.917,-0.322 1.819,-0.935 2.118,-1.766 0.272,-0.753 0.047,-1.682 -0.355,-2.473 -0.68,-1.348 -1.863,-2.29099999 -3.179,-2.82799999 1.286,-0.193 2.672,-0.117 3.888,0.355 1.254,0.486 2.327,1.39399999 3.18,2.47299999 0.735,0.932 1.31,1.992 1.412,3.179 0.099,1.143 -0.244,2.402 -1.061,3.179 -0.551,0.525 -1.318,0.8299999 -1.763,1.4149999 -0.492,0.645 -0.589,1.635 -0.355,2.473 0.22,0.779 0.727,1.43 1.351,1.94 l -0.097,0.032 z m -8.658,-1.26 c -1.274,0.575 -2.376,1.465 -3.205,2.587 -0.827,1.125 -1.351,2.441 -1.524,3.827 -0.755,-0.498 -1.453,-1.108 -1.998,-1.828 -1.382,-1.829 -1.784,-4.383 -1.412,-6.713 0.316,-1.9829999 1.195,-3.8059999 2.472,-5.2969999 1.154,-1.354 2.637,-2.438 4.24,-3.179 -0.996,0.946 -1.796,2.174 -2.121,3.531 -0.308,1.286 -0.188,2.687 0.354,3.8879999 0.621,1.383 1.805,2.496 3.18,3.179 0.002,0.003 0.008,0.003 0.014,0.006 z m -4.782,7.791 c 0.071,1.526 0.572,3 1.442,4.257 -0.07,-0.015 -0.138,-0.029 -0.208,-0.041 -1.374,-0.281 -2.728,-0.683 -3.885,-1.415 -1.119,-0.706 -2.057,-1.72 -2.828,-2.824 -0.761,-1.096 -1.362,-2.279 -1.766,-3.534 0.653,0.867 1.5,1.605 2.473,2.118 0.767,0.407 1.614,0.674 2.473,0.706 0.36,0.015 0.721,-0.011 1.078,-0.073 0.387,0.296 0.797,0.566 1.222,0.806 z"
     id="path4" />
</svg>
