<?xml version="1.0" encoding="UTF-8" standalone="no"?>
<!-- Generated by IcoMoon.io -->

<svg
   version="1.1"
   width="30.193909"
   height="28.075001"
   viewBox="0 0 30.193909 28.075001"
   id="svg6"
   sodipodi:docname="mp2.svg"
   inkscape:version="1.1.1 (3bf5ae0d25, 2021-09-20)"
   xmlns:inkscape="http://www.inkscape.org/namespaces/inkscape"
   xmlns:sodipodi="http://sodipodi.sourceforge.net/DTD/sodipodi-0.dtd"
   xmlns="http://www.w3.org/2000/svg"
   xmlns:svg="http://www.w3.org/2000/svg">
  <defs
     id="defs10" />
  <sodipodi:namedview
     id="namedview8"
     pagecolor="#ffffff"
     bordercolor="#666666"
     borderopacity="1.0"
     inkscape:pageshadow="2"
     inkscape:pageopacity="0.0"
     inkscape:pagecheckerboard="0"
     showgrid="false"
     inkscape:zoom="25.75"
     inkscape:cx="14.970874"
     inkscape:cy="14"
     inkscape:window-width="1920"
     inkscape:window-height="1009"
     inkscape:window-x="-8"
     inkscape:window-y="-8"
     inkscape:window-maximized="1"
     inkscape:current-layer="svg6" />
  <title
     id="title2">mp2</title>
  <path
     fill="#000000"
     d="m 11.852704,20.19 c -0.574,-2.009 0.07,-7.626 -1.242,-8.54 C 9.2987044,10.736 5.3887044,9.237 4.5757044,8.046 c -0.813,-1.191 3.843,-8.046 3.843,-8.046 0,0 -6.428,3.364 -8.36500003,9.011 -0.71,1.984 5.83900003,3.738 6.71700003,4.099 0.878,0.361 2.344,3.178 1.648,8.333 0,2.445 3.2529996,4.708 5.2169996,5.852 0.85,0.495 1.459,0.78 1.459,0.78 -0.009,0 0.529,-0.267 1.29,-0.733 1.846,-1.129 5.007,-3.423 4.877,-5.9 -0.272,-5.193 0.771,-7.972 1.648,-8.333 0.61,-0.251 3.946,-1.381 5.816,-2.689 0.826,-0.578 1.65,-1.138 1.433,-1.745 -1.937,-5.647 -8.242,-8.675 -8.242,-8.675 0,0 4.257,6.726 3.444,7.918 -0.813,1.191 -4.912,2.7 -6.224,3.615 -1.312,0.915 -0.561,6.75 -1.135,8.759 -0.367,1.284 -1.452,2.109 -2.188,2.537 -0.416,0.242 -0.72,0.357 -0.72,0.357 0.01,0 -0.277,-0.107 -0.687,-0.323 -0.832,-0.439 -2.171,-1.325 -2.555,-2.672 z m 6.149,-15.242 c 0,-1.63 -1.354,-2.951 -3.023,-2.951 -1.669,0 -3.023,1.321 -3.023,2.951 0,1.63 1.354,2.951 3.023,2.951 1.67,0 3.023,-1.321 3.023,-2.951 z"
     id="path4" />
</svg>
