<?xml version="1.0" encoding="UTF-8" standalone="no"?>
<svg
   version="1.1"
   width="32.178535"
   height="31.917969"
   viewBox="0 0 32.178536 31.917969"
   id="svg4"
   xmlns="http://www.w3.org/2000/svg"
   xmlns:svg="http://www.w3.org/2000/svg">
  <defs>
    <!-- This is the gradient that will actually be used on
     the cards. The colors themselves will be provided by the
     template, but the x values, y values, and offsets will be
     used from the SVG. -->
    <linearGradient id="rarity" x1="0" y1="1" x2="1" y2="0">
      <stop offset="0" style="stop-color:rgb(192,55,38);stop-opacity:1" id="stop2" />
      <stop offset="0.125" style="stop-color:rgb(192,55,38);stop-opacity:1" id="stop4" />
      <stop offset="0.5" style="stop-color:rgb(241,142,30);stop-opacity:1" id="stop6" />
      <stop offset="0.875" style="stop-color:rgb(192,55,38);stop-opacity:1" id="stop8" />
      <stop offset="1" style="stop-color:rgb(192,55,38);stop-opacity:1" id="stop10" />
    </linearGradient>
    <!-- These gradients are here so that you can visualize
     what the set symbol would like like in that rarity. The
     only gradient that matters in the end is the "rarity"
     gradient. -->
    <linearGradient id="mythic" x1="0" y1="1" x2="1" y2="0">
      <stop offset="0" style="stop-color:rgb(192,55,38);stop-opacity:1"/>
      <stop offset="0.125" style="stop-color:rgb(192,55,38);stop-opacity:1"/>
      <stop offset="0.5" style="stop-color:rgb(241,142,30);stop-opacity:1"/>
      <stop offset="0.875" style="stop-color:rgb(192,55,38);stop-opacity:1"/>
      <stop offset="1" style="stop-color:rgb(192,55,38);stop-opacity:1"/>
    </linearGradient>
    <linearGradient id="rare" x1="0" y1="1" x2="1" y2="0">
      <stop offset="0" style="stop-color:rgb(146,116,67);stop-opacity:1"/>
      <stop offset="0.125" style="stop-color:rgb(146,116,67);stop-opacity:1"/>
      <stop offset="0.5" style="stop-color:rgb(211,178,108);stop-opacity:1"/>
      <stop offset="0.875" style="stop-color:rgb(146,116,67);stop-opacity:1"/>
      <stop offset="1" style="stop-color:rgb(146,116,67);stop-opacity:1"/>
    </linearGradient>
    <linearGradient id="special" x1="0" y1="1" x2="1" y2="0">
      <stop offset="0" style="stop-color:rgb(76, 56, 106);stop-opacity:1"/>
      <stop offset="0.125" style="stop-color:rgb(76, 56, 106);stop-opacity:1"/>
      <stop offset="0.5" style="stop-color:rgb(201, 173, 221);stop-opacity:1"/>
      <stop offset="0.875" style="stop-color:rgb(76, 56, 106);stop-opacity:1"/>
      <stop offset="1" style="stop-color:rgb(76, 56, 106);stop-opacity:1"/>
    </linearGradient>
    <linearGradient id="uncommon" x1="0" y1="1" x2="1" y2="0">
      <stop offset="0" style="stop-color:rgb(98,110,119);stop-opacity:1"/>
      <stop offset="0.125" style="stop-color:rgb(98,110,119);stop-opacity:1"/>
      <stop offset="0.5" style="stop-color:rgb(196,222,238);stop-opacity:1"/>
      <stop offset="0.875" style="stop-color:rgb(98,110,119);stop-opacity:1"/>
      <stop offset="1" style="stop-color:rgb(98,110,119);stop-opacity:1"/>
    </linearGradient>
    <linearGradient id="common" x1="0" y1="1" x2="1" y2="0">
      <stop offset="0" style="stop-color:rgb(0,0,0);stop-opacity:1"/>
    </linearGradient>
    <linearGradient
            id="rarity-outline" x1="0" y1="1" x2="0" y2="1">
      <stop offset="0" style="stop-color:rgb(0,0,0);stop-opacity:1"/>
    </linearGradient>
  </defs>
  <path fill="url(#rarity-outline)" d="M 12.474866,0 8.9475223,1.8457031 c 0,0 -6.7226979,3.3979079 -8.84374998,9.5664059 -0.17622082,0.49823 -0.11503832,1.065622 0.0859375,1.490235 0.20176346,0.426277 0.50114133,0.746288 0.83398438,1.029297 0.6656861,0.566016 1.5087618,0.99941 2.3828125,1.384765 0.8740507,0.385355 1.775701,0.708363 2.515625,0.958985 0.739924,0.250621 1.382718,0.460026 1.4609375,0.492187 -0.1132679,-0.04657 0.077534,0.04638 0.2617188,0.337891 0.1841844,0.291508 0.3975714,0.755771 0.5703124,1.375 0.3454823,1.238459 0.5374013,3.099159 0.2050782,5.560547 l -0.00977,0.06836 v 0.06641 c 0,1.665961 1.0266674,3.032091 2.1796874,4.136719 1.15302,1.104628 2.510923,1.982662 3.533203,2.578125 0.885603,0.515734 1.539063,0.822266 1.539063,0.822266 l 0.439453,0.205078 0.433594,-0.21875 c 0,0 0.570694,-0.286141 1.363281,-0.771485 0.963491,-0.589262 2.270598,-1.475682 3.371094,-2.597656 1.100496,-1.121974 2.070501,-2.530726 1.982422,-4.208984 -0.132019,-2.520493 0.06166,-4.428479 0.367187,-5.689453 0.152762,-0.630487 0.33589,-1.100089 0.492188,-1.382813 0.117222,-0.212042 0.229745,-0.297084 0.222656,-0.302734 0.243636,-0.09681 1.249186,-0.454126 2.388672,-0.929688 1.174506,-0.490177 2.515344,-1.107202 3.568359,-1.84375 h 0.002 v -0.002 c 0.409336,-0.286436 0.855477,-0.579366 1.248047,-0.980469 0.196285,-0.200552 0.38738,-0.433768 0.519531,-0.759765 0.131706,-0.324899 0.167664,-0.769024 0.03125,-1.154297 -2.120734,-6.1673577 -8.75,-9.2460939 -8.75,-9.2460939 l -3.144531,-1.5097656 1.865234,2.9472656 c 0,0 1.049236,1.6583133 1.988282,3.4433594 0.469523,0.8925231 0.910041,1.8179831 1.166015,2.5351563 0.127987,0.3585866 0.206805,0.6670699 0.230469,0.8496092 0.0056,0.04321 0.0011,0.04238 0,0.06445 -0.104179,0.106874 -0.356855,0.332844 -0.753906,0.580078 -0.469542,0.292372 -1.075873,0.611534 -1.708984,0.925782 -1.266224,0.628495 -2.582483,1.189811 -3.427735,1.779297 -0.773816,0.539665 -0.922875,1.318608 -1.0625,2.121093 -0.139625,0.802485 -0.184554,1.712866 -0.208984,2.642578 -0.04886,1.859426 -0.06688,3.893249 -0.251953,4.541016 -0.254977,0.892071 -1.105155,1.582815 -1.728516,1.945313 -0.141666,0.08241 -0.137281,0.06996 -0.230469,0.115234 -0.07113,-0.03412 -0.123401,-0.05452 -0.208984,-0.09961 -0.730064,-0.385214 -1.802345,-1.187127 -2.054688,-2.052735 l -0.0039,-0.01172 c -0.192297,-0.672822 -0.230335,-2.64099 -0.30669,-4.447218 -0.03818,-0.903114 -0.09632,-1.787896 -0.248046,-2.570313 C 13.10043,14.846531 12.929622,14.087482 12.176038,13.5625 11.348041,12.985679 10.073722,12.419765 8.8557254,11.794922 8.2467271,11.4825 7.6635755,11.165744 7.2111942,10.875 6.8394778,10.636099 6.6010836,10.421295 6.4865848,10.302734 c -2.785e-4,-0.02108 -0.00564,-0.01446 0,-0.04883 C 6.516823,10.06966 6.6109135,9.7539664 6.7561161,9.3886719 7.0465212,8.658083 7.5344288,7.7142289 8.0529911,6.8046875 9.0901156,4.9856048 10.238538,3.2949219 10.238538,3.2949219 Z m 3.496094,3.7285156 c -2.196728,0 -4.023438,1.7672117 -4.023438,3.9511719 0,2.1839602 1.82671,3.9511715 4.023438,3.9511715 2.197411,0 4.023437,-1.7676207 4.023437,-3.9511715 0,-2.1839598 -1.82671,-3.951172 -4.023437,-3.9511719 z" />
  <path fill="url(#rarity)" d="m 12.845148,22.922422 c -0.574,-2.009 0.07,-7.626 -1.242,-8.54 -1.311999,-0.914 -5.2219994,-2.413 -6.0349994,-3.604 -0.813,-1.1910001 3.843,-8.0460001 3.843,-8.0460001 0,0 -6.428,3.364 -8.365,9.0110001 -0.71000003,1.984 5.839,3.738 6.717,4.099 0.878,0.361 2.3440004,3.178 1.648,8.333 0,2.445 3.2529994,4.708 5.2169994,5.852 0.85,0.495 1.459,0.78 1.459,0.78 -0.009,0 0.529,-0.267 1.29,-0.733 1.846,-1.129 5.007,-3.423 4.877,-5.9 -0.272,-5.193 0.771,-7.972 1.648,-8.333 0.61,-0.251 3.946,-1.381 5.816,-2.689 0.826,-0.578 1.65,-1.138 1.433,-1.745 -1.937,-5.6470001 -8.242,-8.6750001 -8.242,-8.6750001 0,0 4.257,6.726 3.444,7.9180001 -0.813,1.191 -4.912,2.7 -6.224,3.615 -1.312,0.915 -0.561,6.75 -1.135,8.759 -0.367,1.284 -1.452,2.109 -2.188,2.537 -0.416,0.242 -0.72,0.357 -0.72,0.357 0.01,0 -0.277,-0.107 -0.687,-0.323 -0.832,-0.439 -2.171,-1.325 -2.555,-2.672 z m 6.149,-15.2420001 c 0,-1.63 -1.354,-2.951 -3.023,-2.951 -1.669,0 -3.023,1.321 -3.023,2.951 0,1.63 1.354,2.9510001 3.023,2.9510001 1.67,0 3.023,-1.3210001 3.023,-2.9510001 z"/>
</svg>
