<?xml version="1.0" encoding="UTF-8" standalone="no"?>
<!-- Generated by IcoMoon.io -->

<svg
   version="1.1"
   width="31.983999"
   height="12.087"
   viewBox="0 0 31.983999 12.087"
   id="svg6"
   sodipodi:docname="nms.svg"
   inkscape:version="1.1.1 (3bf5ae0d25, 2021-09-20)"
   xmlns:inkscape="http://www.inkscape.org/namespaces/inkscape"
   xmlns:sodipodi="http://sodipodi.sourceforge.net/DTD/sodipodi-0.dtd"
   xmlns="http://www.w3.org/2000/svg"
   xmlns:svg="http://www.w3.org/2000/svg">
  <defs
     id="defs10" />
  <sodipodi:namedview
     id="namedview8"
     pagecolor="#ffffff"
     bordercolor="#666666"
     borderopacity="1.0"
     inkscape:pageshadow="2"
     inkscape:pageopacity="0.0"
     inkscape:pagecheckerboard="0"
     showgrid="false"
     inkscape:zoom="25.75"
     inkscape:cx="15.980583"
     inkscape:cy="6.5436893"
     inkscape:window-width="1920"
     inkscape:window-height="1009"
     inkscape:window-x="-8"
     inkscape:window-y="-8"
     inkscape:window-maximized="1"
     inkscape:current-layer="svg6" />
  <title
     id="title2">nms</title>
  <path
     fill="#000000"
     d="M 23.3,5.395 23.408,5.393 C 24.878,5.324 25.017,3.876 25.019,3.861 25.023,3.801 24.984,3.747 24.926,3.728 24.913,3.724 24.901,3.724 24.888,3.724 c -0.048,0 -0.092,0.023 -0.116,0.064 -0.004,0.006 -0.462,0.763 -1.414,0.842 -0.056,0.002 -0.108,0.004 -0.16,0.004 -0.865,0 -1.426,-0.593 -1.43,-0.599 -0.027,-0.027 -0.062,-0.042 -0.1,-0.042 -0.021,0 -0.044,0.004 -0.064,0.015 -0.052,0.029 -0.079,0.089 -0.062,0.147 0.004,0.013 0.389,1.239 1.759,1.239 z m -4.356,0.936 -2.48,0.318 -0.1,-0.63 L 0.21,8.208 0,6.744 16.127,4.536 16.019,3.85 17.767,3.563 c 0,0 0.318,0.763 1.399,0.763 1.034,0 2.21,-1.303 2.21,-1.303 l -0.747,-2.1 1.532,1.763 C 22.296,2.639 22.442,2.597 22.6,2.561 L 22.887,0 23.559,2.478 c 0.139,0.006 0.285,0.019 0.435,0.042 L 25.019,0.543 24.828,2.73 c 0.087,0.031 0.177,0.066 0.268,0.104 0.491,0.205 0.977,0.624 1.539,0.58 0.513,-0.04 0.773,-0.275 0.992,-0.709 0.052,-0.104 0.095,-0.541 0.095,-0.541 1.395,1.595 4.262,-1.844 4.262,-1.844 -1.744,7.177 -5.649,11.767 -10.655,11.767 -3.838,0 -4.693,-3.281 -4.693,-3.281 0,0 1.387,0.196 2.308,-0.441 0.923,-0.636 0.35,-1.622 0,-2.035 z"
     id="path4" />
</svg>
