<?xml version="1.0" encoding="UTF-8" standalone="no"?>
<svg
   version="1.1"
   width="31.796659"
   height="24.726845"
   viewBox="0 0 31.796659 24.726845"
   id="svg4"
   xmlns="http://www.w3.org/2000/svg"
   xmlns:svg="http://www.w3.org/2000/svg">
  <defs>
    <!-- This is the gradient that will actually be used on
     the cards. The colors themselves will be provided by the
     template, but the x values, y values, and offsets will be
     used from the SVG. -->
    <linearGradient id="rarity" x1="0" y1="1" x2="0" y2="0">
      <stop offset="0" style="stop-color:rgb(192,55,38);stop-opacity:1" id="stop2" />
      <stop offset="0.125" style="stop-color:rgb(192,55,38);stop-opacity:1" id="stop4" />
      <stop offset="0.5" style="stop-color:rgb(241,142,30);stop-opacity:1" id="stop6" />
      <stop offset="0.875" style="stop-color:rgb(192,55,38);stop-opacity:1" id="stop8" />
      <stop offset="1" style="stop-color:rgb(192,55,38);stop-opacity:1" id="stop10" />
    </linearGradient>
    <!-- These gradients are here so that you can visualize
     what the set symbol would like like in that rarity. The
     only gradient that matters in the end is the "rarity"
     gradient. -->
    <linearGradient id="mythic" x1="0" y1="1" x2="1" y2="0">
      <stop offset="0" style="stop-color:rgb(192,55,38);stop-opacity:1"/>
      <stop offset="0.125" style="stop-color:rgb(192,55,38);stop-opacity:1"/>
      <stop offset="0.5" style="stop-color:rgb(241,142,30);stop-opacity:1"/>
      <stop offset="0.875" style="stop-color:rgb(192,55,38);stop-opacity:1"/>
      <stop offset="1" style="stop-color:rgb(192,55,38);stop-opacity:1"/>
    </linearGradient>
    <linearGradient id="rare" x1="0" y1="1" x2="1" y2="0">
      <stop offset="0" style="stop-color:rgb(146,116,67);stop-opacity:1"/>
      <stop offset="0.125" style="stop-color:rgb(146,116,67);stop-opacity:1"/>
      <stop offset="0.5" style="stop-color:rgb(211,178,108);stop-opacity:1"/>
      <stop offset="0.875" style="stop-color:rgb(146,116,67);stop-opacity:1"/>
      <stop offset="1" style="stop-color:rgb(146,116,67);stop-opacity:1"/>
    </linearGradient>
    <linearGradient id="special" x1="0" y1="1" x2="1" y2="0">
      <stop offset="0" style="stop-color:rgb(76, 56, 106);stop-opacity:1"/>
      <stop offset="0.125" style="stop-color:rgb(76, 56, 106);stop-opacity:1"/>
      <stop offset="0.5" style="stop-color:rgb(201, 173, 221);stop-opacity:1"/>
      <stop offset="0.875" style="stop-color:rgb(76, 56, 106);stop-opacity:1"/>
      <stop offset="1" style="stop-color:rgb(76, 56, 106);stop-opacity:1"/>
    </linearGradient>
    <linearGradient id="uncommon" x1="0" y1="1" x2="1" y2="0">
      <stop offset="0" style="stop-color:rgb(98,110,119);stop-opacity:1"/>
      <stop offset="0.125" style="stop-color:rgb(98,110,119);stop-opacity:1"/>
      <stop offset="0.5" style="stop-color:rgb(196,222,238);stop-opacity:1"/>
      <stop offset="0.875" style="stop-color:rgb(98,110,119);stop-opacity:1"/>
      <stop offset="1" style="stop-color:rgb(98,110,119);stop-opacity:1"/>
    </linearGradient>
    <linearGradient id="common" x1="0" y1="1" x2="1" y2="0">
      <stop offset="0" style="stop-color:rgb(0,0,0);stop-opacity:1"/>
    </linearGradient>
    <linearGradient
            id="rarity-outline" x1="0" y1="1" x2="0" y2="1">
      <stop offset="0" style="stop-color:rgb(0,0,0);stop-opacity:1"/>
    </linearGradient>
  </defs>
  <path fill="url(#rarity-outline)" d="M 13.070203,2.830639e-4 A 1.250125,1.250125 0 0 0 11.894422,0.91043931 L 10.718641,5.0569237 7.1698132,1.6370018 A 1.250125,1.250125 0 0 0 5.0604382,2.3948143 L 2.9256725,20.890908 0.59754757,22.316689 a 1.250125,1.250125 0 0 0 0.65234373,2.316406 h 4.5917969 a 1.250125,1.250125 0 0 0 0.5078125,-0.398437 1.250125,1.250125 0 0 0 0.6855468,0.492187 h 4.1347655 a 1.250125,1.250125 0 0 0 1.207031,-0.93164 l 1.763672,-6.669922 c 0.49137,0.156001 0.950874,0.345703 1.621094,0.345703 h 0.273437 c 0.67022,0 1.129724,-0.189702 1.621094,-0.345703 l 1.763672,6.669922 a 1.250125,1.250125 0 0 0 1.208984,0.93164 h 4.13086 a 1.250125,1.250125 0 0 0 0.839843,-0.371093 1.250125,1.250125 0 0 0 0.353516,0.277343 h 4.591797 A 1.250125,1.250125 0 0 0 31.19911,22.316689 L 28.870985,20.890908 26.738172,2.3948143 A 1.250125,1.250125 0 0 0 24.628797,1.6370018 L 21.078016,5.0569237 19.902235,0.91043931 A 1.250125,1.250125 0 0 0 17.513563,0.85575181 L 15.898329,5.701455 14.283094,0.85575181 A 1.250125,1.250125 0 0 0 13.070203,2.830639e-4 Z M 9.1170788,15.262002 8.5155163,20.785439 7.5936413,21.484658 Z m 13.5644532,0.01953 1.517578,6.201172 -0.916016,-0.697266 z" />
  <path fill="url(#rarity)" d="m 16.034891,16.221283 c 1.562,0 2.48,-0.735 2.48,-0.735 l 2.114,7.99 h 4.131 l -2.662,-2.02 -1.011,-9.279 1.561,-2.2939999 3.305,13.4999999 h 4.592 l -2.845,-1.744 -2.204,-19.1019999 -5.052,4.867 -1.744,-6.154 -2.112,6.336 h -1.378 l -2.112,-6.336 -1.744,6.154 -5.0519997,-4.867 -2.204,19.1019999 -2.848,1.744 h 4.592 l 3.305,-13.4999999 1.5639997,2.2939999 -1.0109997,9.279 -2.665,2.02 h 4.1339997 l 2.112,-7.99 c 0,0 0.918,0.735 2.48,0.735 h 0.275 z"/>
</svg>
