<?xml version="1.0" encoding="UTF-8" standalone="no"?>
<!-- Generated by IcoMoon.io -->

<svg
   version="1.1"
   width="29.295"
   height="22.226"
   viewBox="0 0 29.295 22.226"
   id="svg6"
   sodipodi:docname="ons.svg"
   inkscape:version="1.1.1 (3bf5ae0d25, 2021-09-20)"
   xmlns:inkscape="http://www.inkscape.org/namespaces/inkscape"
   xmlns:sodipodi="http://sodipodi.sourceforge.net/DTD/sodipodi-0.dtd"
   xmlns="http://www.w3.org/2000/svg"
   xmlns:svg="http://www.w3.org/2000/svg">
  <defs
     id="defs10" />
  <sodipodi:namedview
     id="namedview8"
     pagecolor="#ffffff"
     bordercolor="#666666"
     borderopacity="1.0"
     inkscape:pageshadow="2"
     inkscape:pageopacity="0.0"
     inkscape:pagecheckerboard="0"
     showgrid="false"
     inkscape:zoom="25.75"
     inkscape:cx="14.504854"
     inkscape:cy="11.087379"
     inkscape:window-width="1920"
     inkscape:window-height="1009"
     inkscape:window-x="-8"
     inkscape:window-y="-8"
     inkscape:window-maximized="1"
     inkscape:current-layer="svg6" />
  <title
     id="title2">ons</title>
  <path
     fill="#000000"
     d="m 14.785,14.971 c 1.562,0 2.48,-0.735 2.48,-0.735 l 2.114,7.99 h 4.131 l -2.662,-2.02 -1.011,-9.279 1.561,-2.294 3.305,13.5 h 4.592 L 26.45,20.389 24.246,1.287 19.194,6.154 17.45,0 15.338,6.336 H 13.96 L 11.848,0 10.104,6.154 5.052,1.287 2.848,20.389 0,22.133 h 4.592 l 3.305,-13.5 1.564,2.294 -1.011,9.279 -2.665,2.02 h 4.134 l 2.112,-7.99 c 0,0 0.918,0.735 2.48,0.735 h 0.275 z"
     id="path4" />
</svg>
