<?xml version="1.0" encoding="UTF-8" standalone="no"?>
<!-- Generated by IcoMoon.io -->

<svg
   version="1.1"
   width="32.007999"
   height="10.546"
   viewBox="0 0 32.007999 10.546"
   id="svg6"
   sodipodi:docname="papac.svg"
   inkscape:version="1.1.1 (3bf5ae0d25, 2021-09-20)"
   xmlns:inkscape="http://www.inkscape.org/namespaces/inkscape"
   xmlns:sodipodi="http://sodipodi.sourceforge.net/DTD/sodipodi-0.dtd"
   xmlns="http://www.w3.org/2000/svg"
   xmlns:svg="http://www.w3.org/2000/svg">
  <defs
     id="defs10" />
  <sodipodi:namedview
     id="namedview8"
     pagecolor="#ffffff"
     bordercolor="#666666"
     borderopacity="1.0"
     inkscape:pageshadow="2"
     inkscape:pageopacity="0.0"
     inkscape:pagecheckerboard="0"
     showgrid="false"
     inkscape:zoom="25.75"
     inkscape:cx="15.980583"
     inkscape:cy="5.2621359"
     inkscape:window-width="1920"
     inkscape:window-height="1009"
     inkscape:window-x="-8"
     inkscape:window-y="-8"
     inkscape:window-maximized="1"
     inkscape:current-layer="svg6" />
  <title
     id="title2">papac</title>
  <path
     fill="#000000"
     d="m 29.336,0 q 0.762,0 1.381,0.083 0.619,0.083 1.291,0.272 V 2.544 H 30.981 Q 30.8,1.691 30.407,1.287 30.014,0.883 29.38,0.883 q -1.193,0 -1.804,1.144 -0.611,1.144 -0.611,3.393 0,2.091 0.559,3.167 0.559,1.076 1.638,1.076 0.551,0 0.898,-0.185 0.347,-0.185 0.555,-0.555 0.208,-0.37 0.359,-1.042 h 1.034 v 2.287 q -0.83,0.196 -1.517,0.287 -0.687,0.091 -1.427,0.091 -1.57,0 -2.563,-0.566 -0.993,-0.566 -1.465,-1.71 -0.472,-1.144 -0.472,-2.895 0,-1.638 0.555,-2.85 Q 25.674,1.313 26.753,0.657 27.832,10e-4 29.335,0 V 0 Z M 13.668,1.004 q 0.649,0 1.064,0.196 0.415,0.196 0.63,0.661 0.215,0.465 0.215,1.249 0,0.793 -0.215,1.261 -0.215,0.468 -0.661,0.683 -0.446,0.215 -1.2,0.215 h -0.649 v -4.25 q 0.287,-0.015 0.815,-0.015 v 0 z M 4.727,2.099 5.935,6.349 H 3.217 Z M 6.41,0.068 H 4.394 L 1.246,8.455 Q 1.05,8.991 0.876,9.278 0.702,9.565 0.491,9.731 0.28,9.897 0,9.927 v 0.498 H 3.223 V 9.927 Q 2.438,9.874 2.438,9.134 2.438,8.817 2.506,8.534 2.574,8.251 2.68,7.949 L 2.929,7.232 h 3.223 l 0.204,0.74 Q 6.477,8.41 6.53,8.697 6.583,8.984 6.583,9.218 6.583,9.535 6.394,9.709 6.205,9.883 5.813,9.928 v 0.498 h 7.952 V 9.928 Q 13.425,9.868 13.263,9.785 13.101,9.702 13.014,9.577 12.927,9.452 12.889,9.245 12.851,9.038 12.851,8.539 V 6.123 q 0.468,0.03 1.2,0.03 1.268,0 2.114,-0.381 0.846,-0.381 1.291,-1.121 0.445,-0.74 0.445,-1.744 0,-1.419 -0.951,-2.102 Q 15.999,0.122 14.089,0.122 H 9.703 V 0.62 q 0.287,0.075 0.449,0.17 0.162,0.095 0.242,0.245 0.08,0.15 0.098,0.393 0.018,0.243 0.019,0.596 v 6.507 q 0,0.362 -0.023,0.6 -0.023,0.238 -0.102,0.393 -0.079,0.155 -0.242,0.242 C 10.036,9.818 9.959,9.855 9.831,9.891 9.675,9.851 9.59,9.797 9.473,9.713 Q 9.292,9.566 9.179,9.328 9.066,9.09 8.9,8.524 L 6.409,0.069 Z m 13.674,2.031 1.208,4.25 h -2.718 z m 1.684,-2.031 h -2.016 l -3.148,8.387 q -0.196,0.536 -0.37,0.823 -0.174,0.287 -0.385,0.453 -0.211,0.166 -0.491,0.196 v 0.498 h 3.223 V 9.927 q -0.785,-0.053 -0.785,-0.793 0,-0.317 0.068,-0.6 0.068,-0.283 0.174,-0.585 l 0.249,-0.717 h 3.223 l 0.204,0.74 q 0.121,0.438 0.174,0.725 0.053,0.287 0.053,0.521 0,0.317 -0.189,0.491 -0.189,0.174 -0.581,0.219 v 0.498 h 4.167 V 9.928 Q 25.013,9.86 24.832,9.713 24.651,9.566 24.538,9.328 24.425,9.09 24.259,8.524 L 21.768,0.069 Z"
     id="path4" />
</svg>
