<?xml version="1.0" encoding="UTF-8" standalone="no"?>
<!-- Generated by IcoMoon.io -->

<svg
   version="1.1"
   width="31.983"
   height="14.883"
   viewBox="0 0 31.983 14.883"
   id="svg6"
   sodipodi:docname="past.svg"
   inkscape:version="1.1.1 (3bf5ae0d25, 2021-09-20)"
   xmlns:inkscape="http://www.inkscape.org/namespaces/inkscape"
   xmlns:sodipodi="http://sodipodi.sourceforge.net/DTD/sodipodi-0.dtd"
   xmlns="http://www.w3.org/2000/svg"
   xmlns:svg="http://www.w3.org/2000/svg">
  <defs
     id="defs10" />
  <sodipodi:namedview
     id="namedview8"
     pagecolor="#ffffff"
     bordercolor="#666666"
     borderopacity="1.0"
     inkscape:pageshadow="2"
     inkscape:pageopacity="0.0"
     inkscape:pagecheckerboard="0"
     showgrid="false"
     inkscape:zoom="25.75"
     inkscape:cx="15.980583"
     inkscape:cy="7.4368932"
     inkscape:window-width="1920"
     inkscape:window-height="1009"
     inkscape:window-x="-8"
     inkscape:window-y="-8"
     inkscape:window-maximized="1"
     inkscape:current-layer="svg6" />
  <title
     id="title2">past</title>
  <path
     fill="#000000"
     d="M 2.675,14.112 7.086,8.903 14.863,12.341 8.926,6.786 11.566,4.702 6.704,5.049 2.711,1.716 3.613,4.876 H 0 L 4.133,7.725 2.675,14.113 Z M 7.649,4.545 c 1.92,-1.061 7.898,-4.026 13.569,-3.28 0,0 -4.975,-0.114 -11.141,3.11 L 7.62,4.563 7.649,4.546 Z M 12.886,4.189 11.887,4.25 C 19.084,0.68 25.456,2.028 25.456,2.028 17.76,2.028 12.522,4.794 10.341,6.211 Z M 10.051,7.237 C 19.948,0.279 29.484,3.208 29.484,3.208 18.397,1.919 11.798,7.27 10.905,8.046 Z m 2.139,1.994 c 1.514,-1.198 9.08,-6.623 19.793,-4.703 0,0 -9.975,-3.741 -20.587,4 l 0.793,0.703 z M 7.188,4.213 C 10.789,1.675 15.314,1.125 15.314,1.125 11.034,1.333 7.732,2.798 6.36,3.513 L 6.336,3.523 C 4.613,2.091 2.111,0 2.111,0 l 0.313,0.935 4.418,3.686 0.755,-0.05 c 0,0 -0.157,-0.13 -0.42,-0.349 L 7.189,4.213 Z M 7.798,9.68 3.335,14.862 2.556,14.883 7.202,9.409 Z"
     id="path4" />
</svg>
