<?xml version="1.0" encoding="UTF-8" standalone="no"?>
<!-- Generated by IcoMoon.io -->

<svg
   version="1.1"
   width="31.906"
   height="4.0809999"
   viewBox="0 0 31.906 4.0809999"
   id="svg6"
   sodipodi:docname="pbook.svg"
   inkscape:version="1.1.1 (3bf5ae0d25, 2021-09-20)"
   xmlns:inkscape="http://www.inkscape.org/namespaces/inkscape"
   xmlns:sodipodi="http://sodipodi.sourceforge.net/DTD/sodipodi-0.dtd"
   xmlns="http://www.w3.org/2000/svg"
   xmlns:svg="http://www.w3.org/2000/svg">
  <defs
     id="defs10" />
  <sodipodi:namedview
     id="namedview8"
     pagecolor="#ffffff"
     bordercolor="#666666"
     borderopacity="1.0"
     inkscape:pageshadow="2"
     inkscape:pageopacity="0.0"
     inkscape:pagecheckerboard="0"
     showgrid="false"
     inkscape:zoom="25.75"
     inkscape:cx="15.941748"
     inkscape:cy="2.038835"
     inkscape:window-width="1920"
     inkscape:window-height="1009"
     inkscape:window-x="-8"
     inkscape:window-y="-8"
     inkscape:window-maximized="1"
     inkscape:current-layer="svg6" />
  <title
     id="title2">pbook</title>
  <path
     fill="#000000"
     d="M 9.608,1.332 C 6.546,1.332 5.646,0 5.646,0 5.646,0 3.3,1.654 0,1.654 V 1.941 H 4.474 C 4.532,1.535 5.009,1.155 5.59,1.155 c 0.622,0 1.208,0.436 1.208,0.868 0,0.436 -0.586,0.872 -1.208,0.872 -0.563,0 -1.027,-0.36 -1.108,-0.751 H 0 v 0.284 c 3.3,0 5.646,1.653 5.646,1.653 0,0 0.901,-1.331 3.962,-1.331 z m 0.771,0.698 c 0,-1.223 0.576,-1.375 0.576,-1.375 l 17.248,0.414 c 0.979,0 3.703,-0.101 3.703,0.834 0,0.933 -2.648,0.977 -3.703,1.019 L 10.955,3.427 c 0,0 -0.576,-0.175 -0.576,-1.398 z"
     id="path4" />
</svg>
