<?xml version="1.0" encoding="UTF-8" standalone="no"?>
<!-- Generated by IcoMoon.io -->

<svg
   version="1.1"
   width="29.83"
   height="21.691"
   viewBox="0 0 29.83 21.691"
   id="svg6"
   sodipodi:docname="pc2.svg"
   inkscape:version="1.1.1 (3bf5ae0d25, 2021-09-20)"
   xmlns:inkscape="http://www.inkscape.org/namespaces/inkscape"
   xmlns:sodipodi="http://sodipodi.sourceforge.net/DTD/sodipodi-0.dtd"
   xmlns="http://www.w3.org/2000/svg"
   xmlns:svg="http://www.w3.org/2000/svg">
  <defs
     id="defs10" />
  <sodipodi:namedview
     id="namedview8"
     pagecolor="#ffffff"
     bordercolor="#666666"
     borderopacity="1.0"
     inkscape:pageshadow="2"
     inkscape:pageopacity="0.0"
     inkscape:pagecheckerboard="0"
     showgrid="false"
     inkscape:zoom="25.75"
     inkscape:cx="15.009709"
     inkscape:cy="10.815534"
     inkscape:window-width="1920"
     inkscape:window-height="1009"
     inkscape:window-x="-8"
     inkscape:window-y="-8"
     inkscape:window-maximized="1"
     inkscape:current-layer="svg6" />
  <title
     id="title2">pc2</title>
  <path
     fill="#000000"
     d="m 26.728,21.691 c -2.449,-3.485 -6.94,-5.637 -11.813,-5.637 -4.873,0 -9.364,2.152 -11.813,5.637 -0.019,-3.165 1.169,-6.139 3.364,-8.406 2.242,-2.316 5.242,-3.591 8.449,-3.591 3.207,0 6.209,1.276 8.451,3.593 2.196,2.27 3.383,5.243 3.362,8.404 z m 2.599,-4.51 C 28.395,13.642 26.05,10.519 22.84,8.558 l 0.576,-3.77 -3.361,2.441 C 18.951,6.835 17.798,6.57 16.628,6.44 L 14.915,2.336 13.202,6.439 C 12.032,6.569 10.88,6.834 9.775,7.228 L 6.414,4.787 6.99,8.557 C 3.78,10.518 1.434,13.642 0.503,17.18 0.169,16.033 0,14.848 0,13.654 0,6.125 6.691,0 14.915,0 23.139,0 29.83,6.125 29.83,13.654 c 0,1.195 -0.169,2.379 -0.504,3.526 z"
     id="path4" />
</svg>
