<?xml version="1.0" encoding="UTF-8" standalone="no"?>
<!-- Generated by IcoMoon.io -->

<svg
   version="1.1"
   width="32.02"
   height="22.674587"
   viewBox="0 0 32.02 22.674587"
   id="svg6"
   sodipodi:docname="pca.svg"
   inkscape:version="1.1.1 (3bf5ae0d25, 2021-09-20)"
   xmlns:inkscape="http://www.inkscape.org/namespaces/inkscape"
   xmlns:sodipodi="http://sodipodi.sourceforge.net/DTD/sodipodi-0.dtd"
   xmlns="http://www.w3.org/2000/svg"
   xmlns:svg="http://www.w3.org/2000/svg">
  <defs
     id="defs10" />
  <sodipodi:namedview
     id="namedview8"
     pagecolor="#ffffff"
     bordercolor="#666666"
     borderopacity="1.0"
     inkscape:pageshadow="2"
     inkscape:pageopacity="0.0"
     inkscape:pagecheckerboard="0"
     showgrid="false"
     inkscape:zoom="25.75"
     inkscape:cx="15.980583"
     inkscape:cy="11.359223"
     inkscape:window-width="1920"
     inkscape:window-height="1009"
     inkscape:window-x="-8"
     inkscape:window-y="-8"
     inkscape:window-maximized="1"
     inkscape:current-layer="svg6" />
  <title
     id="title2">pca</title>
  <path
     fill="#000000"
     d="m 15.996,0 c 0.758,1.455 1.297,3.004 1.997,4.483 1.707,0.148 3.256,0.929 4.841,1.455 1.437,-0.566 2.794,-1.313 4.231,-1.881 -0.384,1.455 -1.012,2.83 -1.375,4.291 1.064,1.071 1.865,2.371 2.566,3.702 1.256,-0.067 2.509,-0.171 3.764,-0.223 -0.859,1.134 -1.777,2.218 -2.643,3.346 0.431,1.427 0.726,2.923 0.602,4.418 -0.035,0.416 -0.388,1.476 -0.61,0.905 C 28.091,17.2 26.059,14.073 23.024,12.156 19.921,10.19 15.934,9.466 12.411,10.67 7.812,12.014 4.417,16.009 2.82,20.424 2.698,20.763 2.309,20.524 2.254,20.203 1.97,18.529 2.272,16.831 2.698,15.212 1.79,14.089 0.882,12.968 0,11.824 1.297,11.881 2.589,12 3.886,12.047 4.597,10.584 5.541,9.243 6.667,8.07 6.421,6.734 6.156,5.401 5.889,4.067 7.16,4.581 8.283,5.452 9.596,5.844 11.064,5.273 12.53,4.661 14.11,4.459 14.756,2.98 15.27,1.442 15.996,0 Z M 5.855,20.792 c -0.221,0.617 -0.561,2.151 0.032,1.812 0.999,-0.573 1.8,-1.527 3.001,-2.164 4.549,-2.412 10.416,-2.407 14.787,0.394 0.708,0.425 1.293,1.019 1.962,1.497 0.197,0.14 0.46,0.478 0.611,0.286 0.106,-0.134 0.107,-0.243 0.111,-0.413 0.007,-0.317 -0.09,-0.654 -0.17,-0.976 C 26.067,20.741 25.88,20.261 25.732,19.79 24.399,16.433 21.2,13.919 17.646,13.33 12.593,12.456 7.254,15.883 5.855,20.791 Z"
     id="path4" />
</svg>
