<?xml version="1.0" encoding="UTF-8" standalone="no"?>
<svg
   version="1.1"
   width="26.509764"
   height="36.343792"
   viewBox="0 0 26.509763 36.343792"
   id="svg4"
   xmlns="http://www.w3.org/2000/svg"
   xmlns:svg="http://www.w3.org/2000/svg">
  <defs>
    <!-- This is the gradient that will actually be used on
     the cards. The colors themselves will be provided by the
     template, but the x values, y values, and offsets will be
     used from the SVG. -->
    <linearGradient id="rarity" x1="0" y1="0" x2="1" y2="1">
      <stop offset="0" style="stop-color:rgb(192,55,38);stop-opacity:1" id="stop2" />
      <stop offset="0.125" style="stop-color:rgb(192,55,38);stop-opacity:1" id="stop4" />
      <stop offset="0.5" style="stop-color:rgb(241,142,30);stop-opacity:1" id="stop6" />
      <stop offset="0.875" style="stop-color:rgb(192,55,38);stop-opacity:1" id="stop8" />
      <stop offset="1" style="stop-color:rgb(192,55,38);stop-opacity:1" id="stop10" />
    </linearGradient>
    <!-- These gradients are here so that you can visualize
     what the set symbol would like like in that rarity. The
     only gradient that matters in the end is the "rarity"
     gradient. -->
    <linearGradient id="mythic" x1="0" y1="1" x2="1" y2="0">
      <stop offset="0" style="stop-color:rgb(192,55,38);stop-opacity:1"/>
      <stop offset="0.125" style="stop-color:rgb(192,55,38);stop-opacity:1"/>
      <stop offset="0.5" style="stop-color:rgb(241,142,30);stop-opacity:1"/>
      <stop offset="0.875" style="stop-color:rgb(192,55,38);stop-opacity:1"/>
      <stop offset="1" style="stop-color:rgb(192,55,38);stop-opacity:1"/>
    </linearGradient>
    <linearGradient id="rare" x1="0" y1="1" x2="1" y2="0">
      <stop offset="0" style="stop-color:rgb(146,116,67);stop-opacity:1"/>
      <stop offset="0.125" style="stop-color:rgb(146,116,67);stop-opacity:1"/>
      <stop offset="0.5" style="stop-color:rgb(211,178,108);stop-opacity:1"/>
      <stop offset="0.875" style="stop-color:rgb(146,116,67);stop-opacity:1"/>
      <stop offset="1" style="stop-color:rgb(146,116,67);stop-opacity:1"/>
    </linearGradient>
    <linearGradient id="special" x1="0" y1="1" x2="1" y2="0">
      <stop offset="0" style="stop-color:rgb(76, 56, 106);stop-opacity:1"/>
      <stop offset="0.125" style="stop-color:rgb(76, 56, 106);stop-opacity:1"/>
      <stop offset="0.5" style="stop-color:rgb(201, 173, 221);stop-opacity:1"/>
      <stop offset="0.875" style="stop-color:rgb(76, 56, 106);stop-opacity:1"/>
      <stop offset="1" style="stop-color:rgb(76, 56, 106);stop-opacity:1"/>
    </linearGradient>
    <linearGradient id="uncommon" x1="0" y1="1" x2="1" y2="0">
      <stop offset="0" style="stop-color:rgb(98,110,119);stop-opacity:1"/>
      <stop offset="0.125" style="stop-color:rgb(98,110,119);stop-opacity:1"/>
      <stop offset="0.5" style="stop-color:rgb(196,222,238);stop-opacity:1"/>
      <stop offset="0.875" style="stop-color:rgb(98,110,119);stop-opacity:1"/>
      <stop offset="1" style="stop-color:rgb(98,110,119);stop-opacity:1"/>
    </linearGradient>
    <linearGradient id="common" x1="0" y1="1" x2="1" y2="0">
      <stop offset="0" style="stop-color:rgb(0,0,0);stop-opacity:1"/>
    </linearGradient>
    <linearGradient
            id="rarity-outline" x1="0" y1="1" x2="0" y2="1">
      <stop offset="0" style="stop-color:rgb(0,0,0);stop-opacity:1"/>
    </linearGradient>
  </defs>
  <path fill="url(#rarity-outline)" d="M 19.408203,0 15.613281,1.2539063 C 11.64626,2.5629754 9.0364121,4.5143869 7.4746094,6.7792969 5.9128067,9.0442069 5.4414063,11.543912 5.4414062,13.78125 c 0,0.06664 0.0261,0.132463 0.027344,0.199218 C 5.3352379,13.571646 5.1171875,12.935545 5.1171875,12.935546 L 4.3886719,10.392578 2.5800781,12.322266 C 2.5800781,12.322266 0,15.151009 0,19.875 c 0,5.002869 3.7175635,9.278361 4.5898438,10.417968 0.3497829,0.460165 0.5103533,0.838716 0.7070312,1.351563 0.1965903,0.512619 0.4227444,1.182741 0.9023438,1.902344 l 0.00195,0.002 c 9.959e-4,0.0015 9.581e-4,0.0024 0.00195,0.0039 0.8928676,1.34433 2.2531687,2.546039 4.0664062,2.550781 l 2.285157,0.240235 -3.0527351,-9.226563 4.3808591,9.0625 h 0.966797 c 1.161418,0 3.119961,-0.218265 4.845703,-1.757812 v -0.002 c 0.863615,-0.771688 1.452217,-1.81625 2.007813,-2.914063 l 0.08008,0.01172 -0.04492,-0.07813 c 0.109421,-0.21753 0.232209,-0.417017 0.339844,-0.638672 0.663186,-1.365714 1.235571,-2.773392 1.617187,-3.640625 v -0.002 c 0.652966,-1.481092 2.814454,-4.433171 2.814454,-9.023438 0,-3.865258 -2.125638,-6.488382 -4.134766,-7.958984 C 20.365874,8.7052354 18.34375,8.1914063 18.34375,8.1914063 L 18.160156,8.1445313 H 15.761719 C 16.171837,5.9413016 17.375,3.4414063 17.375,3.4414063 Z m -3.732422,8.4921875 0.962891,1.8457035 c 0,0 0.398385,0.767759 0.802734,1.796875 0.40435,1.029115 0.765625,2.335743 0.765625,3.027343 0,0.304889 -0.383324,1.121706 -0.658203,1.818359 -0.231365,-0.644923 -0.477576,-1.34642 -0.648437,-1.785156 v -0.002 h -0.002 c -0.555352,-1.421656 -1.419922,-3.195945 -1.419922,-5.9101558 0,-0.2449863 0.160558,-0.5268186 0.197265,-0.7910157 z" />
  <path fill="url(#rarity)" d="m 17.968,9.6437344 c 0,0 1.74,3.3379996 1.74,5.5189996 0,2.175 -2.537,5.804 -2.537,5.804 -0.146,-1.163 -1.16,-3.921 -1.669,-5.228 -0.509,-1.303 -1.523,-3.409 -1.523,-6.4559996 0,-3.047 2.104,-6.605 2.104,-6.605 -7.473,2.466 -9.142,7.04 -9.142,11.1039996 0,4.06 2.975,9.505 2.975,9.505 -1.014,-1.163 -2.612,-2.903 -3.918,-4.644 -1.306,-1.741 -2.323,-5.295 -2.323,-5.295 0,0 -2.175,2.32 -2.175,6.527 0,4.21 3.338,8.274 4.281,9.506 0.943,1.238 0.943,2.252 1.669,3.338 0.722,1.089 1.74,1.886 2.83,1.886 0.039,0 0.082,0 0.12,0.004 l -3.241,-9.797 6.239,1.163 -3.844,-13.135 9.43,16.762 -7.106,-1.018 2.946,6.096 h 0.025 c 1.018,0 2.466,-0.146 3.847,-1.378 1.381,-1.234 2.829,-4.936 3.626,-6.747 0.801,-1.818 2.688,-4.285 2.688,-8.42 0,-6.676 -7.04,-8.4909996 -7.04,-8.4909996 z"/>
</svg>
