<?xml version="1.0" encoding="UTF-8" standalone="no"?>
<!-- Generated by IcoMoon.io -->

<svg
   version="1.1"
   width="27.622999"
   height="24.789"
   viewBox="0 0 27.622999 24.789"
   id="svg6"
   sodipodi:docname="pd3.svg"
   inkscape:version="1.1.1 (3bf5ae0d25, 2021-09-20)"
   xmlns:inkscape="http://www.inkscape.org/namespaces/inkscape"
   xmlns:sodipodi="http://sodipodi.sourceforge.net/DTD/sodipodi-0.dtd"
   xmlns="http://www.w3.org/2000/svg"
   xmlns:svg="http://www.w3.org/2000/svg">
  <defs
     id="defs10" />
  <sodipodi:namedview
     id="namedview8"
     pagecolor="#ffffff"
     bordercolor="#666666"
     borderopacity="1.0"
     inkscape:pageshadow="2"
     inkscape:pageopacity="0.0"
     inkscape:pagecheckerboard="0"
     showgrid="false"
     inkscape:zoom="25.75"
     inkscape:cx="13.961165"
     inkscape:cy="12.368932"
     inkscape:window-width="1920"
     inkscape:window-height="1009"
     inkscape:window-x="-8"
     inkscape:window-y="-8"
     inkscape:window-maximized="1"
     inkscape:current-layer="svg6" />
  <title
     id="title2">pd3</title>
  <path
     fill="#000000"
     d="m 14.174,0 c 2.084,0 4.651,0.881 5.694,2.046 l 1.696,1.564 1.333,1.685 1.333,2.166 0.121,0.12 c 0.457,0.945 0.622,2.231 0.727,3.49 l 0.485,1.565 0.121,0.12 v 0.12 l 0.606,1.444 c 0.512,0.802 -0.848,2.086 -0.848,3.49 v 0.12 c 0,0.414 2.181,2.443 2.181,3.971 v 0.241 c 0,0.659 -1.767,1.149 -2.423,1.203 v -0.361 c 0,-0.325 -0.058,-0.332 -0.122,-0.602 l -0.611,0.088 0.411,0.856 c -0.274,0.363 -1.402,0.742 -1.859,0.742 h -0.121 c -0.467,0 -0.453,-0.407 -0.606,-0.722 h -0.484 l 0.151,0.958 c -0.516,0.045 -1.666,0.073 -2.192,0.157 -0.747,0.118 -0.746,-0.251 -0.746,-1.236 h -0.363 c -0.28,0 -0.363,0.084 -0.363,0.361 v 0.963 c -0.451,0.104 -0.905,0.24 -1.454,0.24 -0.065,0 -0.266,-0.173 -0.363,-0.24 v -0.722 c -0.774,-0.515 -0.508,-1.248 -0.697,-2.196 -0.337,-1.692 -0.679,-0.906 -1.484,-1.413 -0.379,-0.032 -0.43,-0.121 -0.848,-0.121 h -2.423 c -0.774,0 -0.922,0.241 -1.696,0.241 C 9.317,20.344 6.585,20.94 6.544,20.94 H 5.332 C 4.641,20.94 4.126,20.777 3.757,20.459 2.903,20.01 1.818,19.083 1.576,18.052 L 0.727,16.006 0.606,15.645 v -0.12 L 0.121,12.998 0,12.156 V 12.035 C 0,6.997 1.151,6.26 3.725,3.703 c 1.707,-1.695 5.059,-3.7 8.389,-3.7 h 2.059 z m 8.602,12.514 c -0.258,0.001 -0.16,0.044 -0.485,0.121 l -0.363,0.24 -0.122,1.925 -0.605,1.925 c 0.076,0.907 1.107,0.003 1.938,1.564 0.563,-0.131 1.333,-0.773 1.333,-1.444 v -0.361 c 0,-0.415 -0.09,-0.466 -0.122,-0.842 L 23.866,13.597 C 23.75,13.424 22.954,12.514 22.775,12.514 Z m -6.18,-2.406 h -0.12 c -2.307,-0.001 -4.24,1.579 -4.24,3.971 0.065,0.771 0.942,1.825 1.455,2.166 0.268,0.14 0.591,0.361 0.969,0.361 h 0.242 c 2.421,0 3.552,-0.85 4.361,-2.527 v -0.241 c 0,-1.462 -0.457,-2.666 -1.333,-3.248 -0.386,-0.258 -0.677,-0.482 -1.333,-0.482 z m 6.421,-1.806 c -0.234,0.001 -0.393,0.164 -0.726,0.241 l -0.121,0.121 -0.122,0.12 -0.242,0.24 c -0.177,0.263 -0.363,0.513 -0.363,0.964 0,0.922 0.942,1.472 1.574,1.805 0.118,0.062 0.721,0.481 0.727,0.481 0.383,0 0.413,-0.297 0.484,-0.602 v -0.24 l 0.121,-0.241 c 0,-1.295 -0.155,-2.887 -1.333,-2.887 z"
     id="path4" />
</svg>
