<?xml version="1.0" encoding="UTF-8" standalone="no"?>
<!-- Generated by IcoMoon.io -->

<svg
   version="1.1"
   width="32.131004"
   height="9.8389997"
   viewBox="0 0 32.131004 9.8389997"
   id="svg6"
   sodipodi:docname="peuro.svg"
   inkscape:version="1.1.1 (3bf5ae0d25, 2021-09-20)"
   xmlns:inkscape="http://www.inkscape.org/namespaces/inkscape"
   xmlns:sodipodi="http://sodipodi.sourceforge.net/DTD/sodipodi-0.dtd"
   xmlns="http://www.w3.org/2000/svg"
   xmlns:svg="http://www.w3.org/2000/svg">
  <defs
     id="defs10" />
  <sodipodi:namedview
     id="namedview8"
     pagecolor="#ffffff"
     bordercolor="#666666"
     borderopacity="1.0"
     inkscape:pageshadow="2"
     inkscape:pageopacity="0.0"
     inkscape:pagecheckerboard="0"
     showgrid="false"
     inkscape:zoom="25.75"
     inkscape:cx="16.058252"
     inkscape:cy="4.9126214"
     inkscape:window-width="1920"
     inkscape:window-height="1009"
     inkscape:window-x="-8"
     inkscape:window-y="-8"
     inkscape:window-maximized="1"
     inkscape:current-layer="svg6" />
  <title
     id="title2">peuro</title>
  <path
     fill="#000000"
     d="M 10.631,0.113 V 0.578 Q 10.342,0.655 10.205,0.743 10.068,0.831 9.997,0.958 9.926,1.085 9.898,1.289 9.87,1.493 9.87,1.888 v 4.648 q 0,0.556 0.07,1.014 0.07,0.458 0.257,0.785 0.187,0.327 0.518,0.504 0.331,0.177 0.852,0.176 0.718,0 1.071,-0.289 0.353,-0.289 0.497,-0.806 0.144,-0.517 0.144,-1.546 V 1.881 q 0,-0.528 -0.046,-0.736 Q 13.187,0.937 13.053,0.81 12.919,0.683 12.532,0.578 V 0.113 h 7.14 q 0.831,0 1.412,0.116 0.581,0.116 1.018,0.356 0.366,0.197 0.62,0.497 0.254,0.3 0.391,0.697 0.137,0.397 0.137,0.926 0,0.69 -0.243,1.183 -0.243,0.493 -0.655,0.821 -0.412,0.328 -1.102,0.616 v 0.07 q 0.521,0.225 0.863,0.602 0.342,0.377 0.616,0.954 l 0.444,0.958 q 0.296,0.641 0.588,0.961 0.292,0.32 0.694,0.391 V 9.726 H 21.743 Q 21.334,9.163 20.82,8.05 L 20.271,6.846 Q 20.024,6.311 19.848,6.085 19.672,5.859 19.485,5.775 19.298,5.691 18.911,5.69 h -0.409 v 2.268 q 0,0.528 0.049,0.739 0.049,0.211 0.19,0.338 0.141,0.127 0.521,0.225 V 9.725 H 15.564 V 9.26 Q 15.825,9.19 15.976,9.109 16.127,9.028 16.201,8.884 16.275,8.74 16.296,8.518 16.317,8.296 16.317,7.958 V 1.887 q 0,-0.331 -0.018,-0.556 Q 16.281,1.106 16.207,0.965 16.133,0.824 15.982,0.736 C 15.862,0.666 15.729,0.625 15.596,0.587 15.468,0.621 15.345,0.67 15.226,0.729 Q 15.078,0.81 15.001,0.954 14.924,1.098 14.902,1.32 14.88,1.542 14.881,1.88 v 4.402 q 0,0.873 -0.141,1.461 -0.141,0.588 -0.437,0.99 -0.296,0.402 -0.736,0.648 -0.44,0.246 -0.99,0.352 -0.55,0.106 -1.232,0.106 -1,0 -1.69,-0.208 Q 8.965,9.423 8.532,9.004 8.099,8.585 7.891,7.986 7.683,7.387 7.683,6.444 V 1.887 Q 7.683,1.556 7.665,1.331 7.647,1.106 7.573,0.965 7.499,0.824 7.348,0.736 C 7.235,0.671 7.111,0.63 6.987,0.594 V 2.352 H 6.022 Q 5.79,1.683 5.628,1.447 5.466,1.211 5.241,1.074 5.016,0.937 4.473,0.937 H 2.938 v 3.381 h 0.93 q 0.31,0 0.486,-0.088 Q 4.53,4.142 4.646,3.938 4.762,3.734 4.868,3.304 H 5.664 V 6.163 H 4.868 Q 4.769,5.755 4.65,5.54 4.531,5.325 4.365,5.234 4.199,5.143 3.868,5.142 h -0.93 v 3.761 h 1.528 q 0.247,0 0.416,-0.032 Q 5.051,8.839 5.185,8.762 5.319,8.685 5.442,8.551 5.565,8.417 5.66,8.262 5.755,8.107 5.861,7.853 5.967,7.599 6.093,7.156 H 7.058 L 6.924,9.727 H 10e-4 V 9.262 Q 0.262,9.192 0.413,9.111 0.564,9.03 0.638,8.886 0.712,8.742 0.733,8.52 0.754,8.298 0.754,7.96 V 1.889 Q 0.754,1.558 0.736,1.333 0.718,1.108 0.644,0.967 0.57,0.826 0.419,0.738 0.268,0.65 0,0.58 V 0.115 H 10.627 Z M 19.3,0.937 q -0.606,0 -0.796,0.014 v 3.916 h 0.697 q 0.563,0 0.93,-0.151 0.367,-0.151 0.581,-0.423 0.214,-0.272 0.296,-0.637 0.082,-0.365 0.081,-0.803 0,-0.958 -0.451,-1.437 Q 20.187,0.937 19.3,0.937 Z m 8.549,-0.112 q 0.697,0 1.145,0.482 0.448,0.482 0.669,1.43 0.221,0.948 0.222,2.349 0,0.859 -0.102,1.578 -0.102,0.719 -0.338,1.243 -0.236,0.524 -0.616,0.817 -0.38,0.293 -0.923,0.292 -1.049,0 -1.56,-1.039 -0.511,-1.039 -0.511,-3.166 0,-2.035 0.497,-3.011 0.497,-0.976 1.518,-0.975 z M 27.912,0 q -1.352,0 -2.331,0.585 -0.979,0.585 -1.483,1.708 -0.504,1.123 -0.504,2.708 0,2.416 1.039,3.627 1.039,1.211 3.11,1.211 0.993,0 1.8,-0.289 0.807,-0.289 1.384,-0.901 0.577,-0.612 0.891,-1.567 0.314,-0.955 0.313,-2.285 0,-2.381 -1.056,-3.588 -1.056,-1.207 -3.162,-1.208 z"
     id="path4" />
</svg>
