<?xml version="1.0" encoding="UTF-8" standalone="no"?>
<!-- Generated by IcoMoon.io -->

<svg
   version="1.1"
   width="32"
   height="11.721444"
   viewBox="0 0 32 11.721444"
   id="svg6"
   sodipodi:docname="pidw.svg"
   inkscape:version="1.1.1 (3bf5ae0d25, 2021-09-20)"
   xmlns:inkscape="http://www.inkscape.org/namespaces/inkscape"
   xmlns:sodipodi="http://sodipodi.sourceforge.net/DTD/sodipodi-0.dtd"
   xmlns="http://www.w3.org/2000/svg"
   xmlns:svg="http://www.w3.org/2000/svg">
  <defs
     id="defs10" />
  <sodipodi:namedview
     id="namedview8"
     pagecolor="#ffffff"
     bordercolor="#666666"
     borderopacity="1.0"
     inkscape:pageshadow="2"
     inkscape:pageopacity="0.0"
     inkscape:pagecheckerboard="0"
     showgrid="false"
     inkscape:zoom="25.75"
     inkscape:cx="15.980583"
     inkscape:cy="5.8446602"
     inkscape:window-width="1920"
     inkscape:window-height="1009"
     inkscape:window-x="-8"
     inkscape:window-y="-8"
     inkscape:window-maximized="1"
     inkscape:current-layer="svg6" />
  <title
     id="title2">pidw</title>
  <path
     fill="#000000"
     d="m 4.685,0 c 0,3.907 0,7.814 0,11.721 -1.562,10e-4 -3.123,0 -4.685,0 V 0 Z M 9.79,2.735 c 0.45,0.006 0.905,-0.005 1.349,0.085 0.41,0.076 0.822,0.235 1.118,0.539 0.273,0.276 0.431,0.645 0.521,1.018 0.125,0.526 0.146,1.07 0.139,1.608 C 12.899,6.677 12.792,7.4 12.402,7.988 12.11,8.438 11.631,8.745 11.114,8.874 10.535,9.031 9.931,8.977 9.34,8.987 9.339,6.903 9.34,4.82 9.34,2.737 L 9.791,2.736 Z M 11.407,0 H 5.498 c 0,3.907 0,7.813 0,11.72 1.879,10e-4 3.758,0 5.637,0 0.835,-0.002 1.678,-0.103 2.465,-0.392 0.83,-0.299 1.578,-0.839 2.086,-1.564 C 16.337,8.85 16.619,7.727 16.717,6.623 16.786,5.802 16.784,4.968 16.632,4.156 16.5,3.442 16.251,2.744 15.849,2.135 15.389,1.426 14.714,0.865 13.943,0.522 13.148,0.163 12.273,0.022 11.406,0 Z m 8.9,0 H 16.53 c 0.673,3.906 1.338,7.814 2.008,11.72 1.379,0 2.757,0 4.136,0 0.492,-2.116 0.982,-4.233 1.474,-6.35 0.039,-0.158 0.066,-0.32 0.12,-0.474 0.158,0.615 0.29,1.238 0.437,1.856 0.384,1.656 0.768,3.312 1.153,4.968 1.379,0 2.757,0 4.136,0 C 30.664,7.816 31.329,3.911 32,0.007 V 0 H 28.225 C 28.042,1.951 27.86,3.903 27.677,5.854 27.627,6.324 27.6,6.797 27.536,7.265 27.484,7.158 27.466,7.041 27.439,6.927 26.925,4.766 26.413,2.604 25.9,0.443 25.862,0.298 25.833,0.15 25.818,0 H 22.714 C 22.67,0.38 22.55,0.747 22.471,1.121 22.1,2.684 21.729,4.247 21.358,5.81 21.237,6.295 21.139,6.786 21.003,7.267 20.992,7.225 20.982,7.182 20.976,7.139 20.753,4.76 20.531,2.38 20.307,0.001 Z"
     id="path4" />
</svg>
