<?xml version="1.0" encoding="UTF-8" standalone="no"?>
<!-- Generated by IcoMoon.io -->

<svg
   version="1.1"
   width="29.317724"
   height="22.091619"
   viewBox="0 0 29.317724 22.091619"
   id="svg6"
   sodipodi:docname="plc.svg"
   inkscape:version="1.1.1 (3bf5ae0d25, 2021-09-20)"
   xmlns:inkscape="http://www.inkscape.org/namespaces/inkscape"
   xmlns:sodipodi="http://sodipodi.sourceforge.net/DTD/sodipodi-0.dtd"
   xmlns="http://www.w3.org/2000/svg"
   xmlns:svg="http://www.w3.org/2000/svg">
  <defs
     id="defs10" />
  <sodipodi:namedview
     id="namedview8"
     pagecolor="#ffffff"
     bordercolor="#666666"
     borderopacity="1.0"
     inkscape:pageshadow="2"
     inkscape:pageopacity="0.0"
     inkscape:pagecheckerboard="0"
     showgrid="false"
     inkscape:zoom="25.75"
     inkscape:cx="15.009709"
     inkscape:cy="11.009709"
     inkscape:window-width="1920"
     inkscape:window-height="1009"
     inkscape:window-x="-8"
     inkscape:window-y="-8"
     inkscape:window-maximized="1"
     inkscape:current-layer="svg6" />
  <title
     id="title2">plc</title>
  <path
     fill="#000000"
     d="m 23.578362,10.992252 c -0.261,0.146 -0.529,0.268 -0.808,0.377 -0.005,-1.224 -0.012,-2.4439995 -0.016,-3.6659995 -0.698,-0.502 -1.444,-0.938 -2.227,-1.294 -0.963,-0.439 -1.982,-0.758 -3.02,-0.956 l 0.014,3.193 c -3.271,0.014 -6.542,0.028 -9.8129996,0.041 0.002,-0.566 0.145,-1.134 0.418,-1.591 0.79,-1.317 2.6639996,-1.71 4.4009996,-1.954 3.058,-0.43 5.687,-0.409 8.501,-0.083 0.901,0.104 1.82,0.241 2.633,0.649 1.063,0.533 1.945,1.532 1.979,2.52 0.04,1.069 -0.917,2.1249995 -2.063,2.7649995 z m -15.4289996,-0.693 c 1.164,-0.199 2.3889996,-0.22 3.5619996,-0.261 1.994,-0.072 3.835,-0.2009995 5.937,0.118 1.328,0.201 2.758,0.582 3.454,1.539 0.025,0.033 0.046,0.064 0.067,0.097 -1.164,0.199 -2.389,0.219 -3.562,0.261 -1.994,0.072 -3.835,0.203 -5.937,-0.118 -1.328,-0.201 -2.7579996,-0.584 -3.4549996,-1.538 -0.024,-0.033 -0.044,-0.065 -0.065,-0.097 z m 13.0429996,4.696 c -0.79,1.319 -2.666,1.71 -4.401,1.954 -3.058,0.432 -5.687,0.409 -8.5009996,0.083 -0.901,-0.103 -1.82,-0.24 -2.633,-0.649 -1.063,-0.534 -1.945,-1.534 -1.979,-2.52 -0.04,-1.07 0.917,-2.123 2.063,-2.765 0.261,-0.146 0.529,-0.268 0.808,-0.374 l 0.016,3.664 c 0.698,0.501 1.444,0.936 2.227,1.293 0.963,0.439 1.9819996,0.758 3.0199996,0.959 l -0.014,-3.195 c 3.271,-0.014 6.542,-0.028 9.813,-0.044 -0.002,0.568 -0.145,1.138 -0.418,1.594 z m 5.384,-12.2169995 c -2.631,-2.19900001 -6.796,-2.83000001 -10.55,-2.77500001 -3.525,0.053 -6.6869996,0.707 -9.5119996,2.84200001 0.007,1.95 0.016,3.9 0.025,5.849 -1.541,0.007 -3.082,0.014 -4.625,0.021 -0.901,1.196 -1.62199995,2.6169995 -1.84099995,4.0449995 -0.377,2.455 0.727,4.932 2.66799995,6.554 2.631,2.199 6.796,2.83 10.5499996,2.774 3.525,-0.051 6.687,-0.709 9.512,-2.839 -0.007,-1.952 -0.016,-3.901 -0.025,-5.851 1.541,-0.005 3.082,-0.012 4.625,-0.021 0.901,-1.195 1.622,-2.617 1.841,-4.0449995 0.377,-2.455 -0.727,-4.932 -2.668,-6.554 z"
     id="path4" />
</svg>
