<?xml version="1.0" encoding="UTF-8" standalone="no"?>
<!-- Generated by IcoMoon.io -->

<svg
   version="1.1"
   width="31.962"
   height="17.709"
   viewBox="0 0 31.962 17.709"
   id="svg6"
   sodipodi:docname="pls.svg"
   inkscape:version="1.1.1 (3bf5ae0d25, 2021-09-20)"
   xmlns:inkscape="http://www.inkscape.org/namespaces/inkscape"
   xmlns:sodipodi="http://sodipodi.sourceforge.net/DTD/sodipodi-0.dtd"
   xmlns="http://www.w3.org/2000/svg"
   xmlns:svg="http://www.w3.org/2000/svg">
  <defs
     id="defs10" />
  <sodipodi:namedview
     id="namedview8"
     pagecolor="#ffffff"
     bordercolor="#666666"
     borderopacity="1.0"
     inkscape:pageshadow="2"
     inkscape:pageopacity="0.0"
     inkscape:pagecheckerboard="0"
     showgrid="false"
     inkscape:zoom="25.75"
     inkscape:cx="15.980583"
     inkscape:cy="8.8349515"
     inkscape:window-width="1920"
     inkscape:window-height="1009"
     inkscape:window-x="-8"
     inkscape:window-y="-8"
     inkscape:window-maximized="1"
     inkscape:current-layer="svg6" />
  <title
     id="title2">pls</title>
  <path
     fill="#000000"
     d="m 30.482,12.348 c 0,0 -5.715,1.623 -10.724,1.623 -5.011,0 -13.549,-2.541 -13.549,-6.491 0,-3.954 7.975,-3.53 7.975,-3.53 0,0 4.308,0.123 4.934,2.111 0.701,2.228 -1.548,2.969 -1.548,2.969 0,0 5.646,0.071 5.646,-2.892 C 23.216,3.174 16.3,2.326 13.9,2.326 11.5,2.326 0,2.61 0,9.1 c 0,6.393 11.15,8.609 16.141,8.609 9.207,0 14.342,-5.362 14.342,-5.362 z M 15.714,1.26 C 15.557,1.254 15.399,1.252 15.24,1.252 c -5.998,0 -8.469,0.651 -8.469,0.651 0,0 2.118,-1.903 9.034,-1.903 6.914,0 16.157,2.75 16.157,8.043 0,5.293 -12.279,4.939 -12.279,4.939 0,0 -6.326,-0.372 -9.439,-2.258 -4.887,-2.967 0.15,-5.239 0.15,-5.239 1.678,-0.783 3.927,-0.476 3.927,-0.476 0,0 -2.47,1.129 -2.47,2.61 0,1.481 4.73,2.259 7.553,2.259 2.777,0 6.495,-0.907 6.771,-2.6 0.826,-5.087 -10.461,-6.02 -10.461,-6.02 z"
     id="path4" />
</svg>
