<?xml version="1.0" encoding="UTF-8" standalone="no"?>
<!-- Generated by IcoMoon.io -->

<svg
   version="1.1"
   width="31.941999"
   height="12.78"
   viewBox="0 0 31.941999 12.78"
   id="svg6"
   sodipodi:docname="pmei.svg"
   inkscape:version="1.1.1 (3bf5ae0d25, 2021-09-20)"
   xmlns:inkscape="http://www.inkscape.org/namespaces/inkscape"
   xmlns:sodipodi="http://sodipodi.sourceforge.net/DTD/sodipodi-0.dtd"
   xmlns="http://www.w3.org/2000/svg"
   xmlns:svg="http://www.w3.org/2000/svg">
  <defs
     id="defs10" />
  <sodipodi:namedview
     id="namedview8"
     pagecolor="#ffffff"
     bordercolor="#666666"
     borderopacity="1.0"
     inkscape:pageshadow="2"
     inkscape:pageopacity="0.0"
     inkscape:pagecheckerboard="0"
     showgrid="false"
     inkscape:zoom="25.75"
     inkscape:cx="15.941748"
     inkscape:cy="6.3883495"
     inkscape:window-width="1920"
     inkscape:window-height="1009"
     inkscape:window-x="-8"
     inkscape:window-y="-8"
     inkscape:window-maximized="1"
     inkscape:current-layer="svg6" />
  <title
     id="title2">pmei</title>
  <path
     fill="#000000"
     d="m 8.694,3.64 c 0,0 3.903,-2.041 8.786,-2.041 6.564,0 13.308,3.638 14.462,9.76 0,0 -3.462,-8.873 -14.109,-8.873 -4.79,0 -7.541,2.041 -7.541,2.041 l 3.903,0.09 -5.233,1.24 3.195,3.371 L 8.075,6.922 9.05,11.536 6.921,7.633 4.082,12.78 5.767,7.013 0,8.341 5.412,5.68 1.953,2.661 6.123,4.437 5.592,0.887 7.277,4.26 9.582,0 8.695,3.638 Z"
     id="path4" />
</svg>
