<?xml version="1.0" encoding="UTF-8" standalone="no"?>
<svg
   version="1.1"
   width="32.94001"
   height="13.778883"
   viewBox="0 0 32.94001 13.778883"
   id="svg4"
   xmlns="http://www.w3.org/2000/svg"
   xmlns:svg="http://www.w3.org/2000/svg">
  <defs>
    <!-- This is the gradient that will actually be used on
     the cards. The colors themselves will be provided by the
     template, but the x values, y values, and offsets will be
     used from the SVG. -->
    <linearGradient id="rarity" x1="-1" y1="1" x2="1" y2="0">
      <stop offset="0" style="stop-color:rgb(192,55,38);stop-opacity:1" id="stop2" />
      <stop offset="0.125" style="stop-color:rgb(192,55,38);stop-opacity:1" id="stop4" />
      <stop offset="0.5" style="stop-color:rgb(241,142,30);stop-opacity:1" id="stop6" />
      <stop offset="0.875" style="stop-color:rgb(192,55,38);stop-opacity:1" id="stop8" />
      <stop offset="1" style="stop-color:rgb(192,55,38);stop-opacity:1" id="stop10" />
    </linearGradient>
    <!-- These gradients are here so that you can visualize
     what the set symbol would like like in that rarity. The
     only gradient that matters in the end is the "rarity"
     gradient. -->
    <linearGradient id="mythic" x1="0" y1="1" x2="1" y2="0">
      <stop offset="0" style="stop-color:rgb(192,55,38);stop-opacity:1"/>
      <stop offset="0.125" style="stop-color:rgb(192,55,38);stop-opacity:1"/>
      <stop offset="0.5" style="stop-color:rgb(241,142,30);stop-opacity:1"/>
      <stop offset="0.875" style="stop-color:rgb(192,55,38);stop-opacity:1"/>
      <stop offset="1" style="stop-color:rgb(192,55,38);stop-opacity:1"/>
    </linearGradient>
    <linearGradient id="rare" x1="0" y1="1" x2="1" y2="0">
      <stop offset="0" style="stop-color:rgb(146,116,67);stop-opacity:1"/>
      <stop offset="0.125" style="stop-color:rgb(146,116,67);stop-opacity:1"/>
      <stop offset="0.5" style="stop-color:rgb(211,178,108);stop-opacity:1"/>
      <stop offset="0.875" style="stop-color:rgb(146,116,67);stop-opacity:1"/>
      <stop offset="1" style="stop-color:rgb(146,116,67);stop-opacity:1"/>
    </linearGradient>
    <linearGradient id="special" x1="0" y1="1" x2="1" y2="0">
      <stop offset="0" style="stop-color:rgb(76, 56, 106);stop-opacity:1"/>
      <stop offset="0.125" style="stop-color:rgb(76, 56, 106);stop-opacity:1"/>
      <stop offset="0.5" style="stop-color:rgb(201, 173, 221);stop-opacity:1"/>
      <stop offset="0.875" style="stop-color:rgb(76, 56, 106);stop-opacity:1"/>
      <stop offset="1" style="stop-color:rgb(76, 56, 106);stop-opacity:1"/>
    </linearGradient>
    <linearGradient id="uncommon" x1="0" y1="1" x2="1" y2="0">
      <stop offset="0" style="stop-color:rgb(98,110,119);stop-opacity:1"/>
      <stop offset="0.125" style="stop-color:rgb(98,110,119);stop-opacity:1"/>
      <stop offset="0.5" style="stop-color:rgb(196,222,238);stop-opacity:1"/>
      <stop offset="0.875" style="stop-color:rgb(98,110,119);stop-opacity:1"/>
      <stop offset="1" style="stop-color:rgb(98,110,119);stop-opacity:1"/>
    </linearGradient>
    <linearGradient id="common" x1="0" y1="1" x2="1" y2="0">
      <stop offset="0" style="stop-color:rgb(0,0,0);stop-opacity:1"/>
    </linearGradient>
    <linearGradient
            id="rarity-outline" x1="0" y1="1" x2="0" y2="1">
      <stop offset="0" style="stop-color:rgb(0,0,0);stop-opacity:1"/>
    </linearGradient>
  </defs>
  <path fill="url(#rarity-outline)" d="M 10.022984,0.00327684 A 0.50005,0.50005 0 0 0 9.6401711,0.26108934 L 7.7925149,3.677105 6.5366555,1.1634331 A 0.50005,0.50005 0 0 0 5.5952492,1.4603081 L 5.9936868,4.1263237 2.6460305,2.7005425 A 0.50005,0.50005 0 0 0 2.122593,3.53648 L 5.0151711,6.0618706 0.27688983,8.3919487 A 0.50005,0.50005 0 0 0 0.60892107,9.3274956 L 5.5464211,8.1907768 4.0991555,13.139996 a 0.50005,0.50005 0 0 0 0.9179687,0.380859 L 7.4155618,9.1731987 9.1089211,12.274762 A 0.50005,0.50005 0 0 0 10.036655,11.932965 L 9.2905618,8.4017144 12.407749,10.163433 A 0.50005,0.50005 0 0 0 13.017124,9.3841362 L 10.419468,6.6439018 14.80814,5.6028862 A 0.50005,0.50005 0 0 0 14.704624,4.6165581 l -1.960937,-0.044922 c 1.220413,-0.5355749 2.986454,-1.0859375 5.585937,-1.0859375 10.369196,0 13.644531,8.5546874 13.644531,8.5546874 a 0.50005,0.50005 0 0 0 0.957032,-0.275391 c -0.0058,-0.03091 -0.02125,-0.0571 -0.02734,-0.08789 h 0.002 c 0,0 -0.0058,-0.01164 -0.0059,-0.01172 C 32.268398,8.4971991 30.21494,5.9722604 27.503452,4.2591362 24.762098,2.5271421 21.352431,1.59898 17.978062,1.59898 c -4.115997,0 -6.967757,1.2101929 -8.0703128,1.71875 L 10.565952,0.61851121 A 0.50005,0.50005 0 0 0 10.022984,0.00327684 Z" />
  <path fill="url(#rarity)" d="m 9.191593,4.1393706 c 0,0 3.903,-2.041 8.786,-2.041 6.564,0 13.308,3.638 14.462,9.7600004 0,0 -3.462,-8.8730004 -14.109,-8.8730004 -4.79,0 -7.541,2.041 -7.541,2.041 l 3.903,0.09 -5.233,1.24 3.195,3.371 -4.082,-2.306 0.975,4.6140004 -2.129,-3.9030004 -2.839,5.1470004 1.685,-5.7670004 -5.76700005,1.328 5.41200005,-2.661 -3.459,-3.019 4.17,1.776 -0.531,-3.55 1.685,3.373 2.305,-4.26000001 -0.887,3.63800001 z"/>
</svg>
