<?xml version="1.0" encoding="UTF-8" standalone="no"?>
<!-- Generated by IcoMoon.io -->

<svg
   version="1.1"
   width="31.940002"
   height="12.933"
   viewBox="0 0 31.940002 12.933"
   id="svg6"
   sodipodi:docname="pmps.svg"
   inkscape:version="1.1.1 (3bf5ae0d25, 2021-09-20)"
   xmlns:inkscape="http://www.inkscape.org/namespaces/inkscape"
   xmlns:sodipodi="http://sodipodi.sourceforge.net/DTD/sodipodi-0.dtd"
   xmlns="http://www.w3.org/2000/svg"
   xmlns:svg="http://www.w3.org/2000/svg">
  <defs
     id="defs10" />
  <sodipodi:namedview
     id="namedview8"
     pagecolor="#ffffff"
     bordercolor="#666666"
     borderopacity="1.0"
     inkscape:pageshadow="2"
     inkscape:pageopacity="0.0"
     inkscape:pagecheckerboard="0"
     showgrid="false"
     inkscape:zoom="25.75"
     inkscape:cx="15.941748"
     inkscape:cy="6.4660194"
     inkscape:window-width="1920"
     inkscape:window-height="1009"
     inkscape:window-x="-8"
     inkscape:window-y="-8"
     inkscape:window-maximized="1"
     inkscape:current-layer="svg6" />
  <title
     id="title2">pmps</title>
  <path
     fill="#000000"
     d="m 28.523,0 q 0.824,0 1.574,0.088 0.75,0.088 1.713,0.31 V 3.083 H 30.542 Q 30.366,2.352 30.093,1.921 29.82,1.49 29.413,1.287 29.006,1.084 28.385,1.083 q -0.528,0 -0.944,0.185 -0.416,0.185 -0.657,0.551 -0.241,0.366 -0.241,0.884 0,0.537 0.208,0.93 0.208,0.393 0.699,0.768 0.491,0.375 1.426,0.856 1.139,0.592 1.791,1.162 0.652,0.57 0.963,1.241 0.311,0.671 0.31,1.56 0,1.139 -0.528,1.977 -0.528,0.838 -1.537,1.287 -1.009,0.449 -2.333,0.449 -0.944,0 -1.967,-0.107 -1.023,-0.107 -1.921,-0.31 V 9.664 h 1.268 q 0.231,1.102 0.773,1.643 0.542,0.541 1.588,0.542 0.546,0 0.981,-0.185 0.435,-0.185 0.699,-0.597 0.264,-0.412 0.264,-1.032 0,-0.574 -0.213,-0.995 Q 28.801,8.619 28.329,8.239 27.857,7.859 27.014,7.434 26.292,7.073 25.709,6.684 25.126,6.295 24.714,5.828 C 24.452,5.541 24.258,5.203 24.096,4.851 24.033,5.156 23.88,5.433 23.731,5.703 q -0.546,0.907 -1.583,1.375 -1.037,0.468 -2.592,0.468 -0.898,0 -1.472,-0.037 v 2.963 q 0,0.611 0.046,0.866 0.046,0.255 0.153,0.407 0.107,0.152 0.305,0.255 0.198,0.103 0.616,0.176 v 0.611 H 9.533 v -0.611 q 0.407,-0.111 0.565,-0.194 0.158,-0.083 0.245,-0.218 0.087,-0.135 0.13,-0.407 0.043,-0.272 0.042,-0.903 V 5.917 q 0,-0.75 0.028,-1.768 0.028,-1.018 0.056,-1.444 H 10.405 Q 10.294,3.075 10.169,3.432 10.044,3.789 9.702,4.705 L 7.221,11.389 H 5.592 L 2.981,3.881 Q 2.75,3.242 2.574,2.613 H 2.407 Q 2.5,4.141 2.5,6.224 v 4.259 q 0,0.685 0.065,0.954 0.065,0.269 0.259,0.444 0.194,0.175 0.676,0.296 v 0.611 H 0 V 12.177 Q 0.343,12.084 0.542,11.973 0.741,11.862 0.843,11.677 0.945,11.492 0.968,11.205 0.991,10.918 0.991,10.474 V 2.466 Q 0.991,1.762 0.931,1.503 0.871,1.244 0.695,1.077 0.519,0.91 10e-4,0.762 V 0.151 H 4.602 L 7.166,7.752 9.943,0.151 h 9.662 q 2.342,0 3.509,0.838 c 0.431,0.32 0.797,0.758 0.959,1.278 0.246,-0.512 0.123,-0.303 0.343,-0.644 Q 24.981,0.827 26.05,0.415 27.119,0.003 28.527,0.003 Z M 14.254,0.768 C 14.025,0.828 13.806,0.919 13.616,1.06 Q 13.44,1.222 13.371,1.495 13.302,1.768 13.302,2.462 v 8.008 q 0,0.565 0.056,0.893 0.056,0.328 0.227,0.5 c 0.186,0.165 0.434,0.236 0.669,0.302 0.177,-0.045 0.348,-0.111 0.513,-0.191 q 0.199,-0.106 0.296,-0.296 0.097,-0.19 0.125,-0.481 0.028,-0.291 0.028,-0.736 V 2.481 Q 15.216,2.046 15.193,1.75 15.17,1.454 15.073,1.269 14.976,1.084 14.777,0.968 C 14.616,0.874 14.436,0.82 14.257,0.769 Z m 4.829,0.463 q -0.648,0 -1,0.019 v 5.212 h 0.796 q 0.926,0 1.472,-0.264 0.546,-0.264 0.81,-0.838 0.264,-0.574 0.264,-1.546 0,-0.963 -0.264,-1.532 Q 20.897,1.713 20.388,1.472 19.879,1.231 19.083,1.231 Z"
     id="path4" />
</svg>
