<?xml version="1.0" encoding="UTF-8" standalone="no"?>
<!-- Generated by IcoMoon.io -->

<svg
   version="1.1"
   width="28.125999"
   height="28.097"
   viewBox="0 0 28.125999 28.097"
   id="svg6"
   sodipodi:docname="pmpu.svg"
   inkscape:version="1.1.1 (3bf5ae0d25, 2021-09-20)"
   xmlns:inkscape="http://www.inkscape.org/namespaces/inkscape"
   xmlns:sodipodi="http://sodipodi.sourceforge.net/DTD/sodipodi-0.dtd"
   xmlns="http://www.w3.org/2000/svg"
   xmlns:svg="http://www.w3.org/2000/svg">
  <defs
     id="defs10" />
  <sodipodi:namedview
     id="namedview8"
     pagecolor="#ffffff"
     bordercolor="#666666"
     borderopacity="1.0"
     inkscape:pageshadow="2"
     inkscape:pageopacity="0.0"
     inkscape:pagecheckerboard="0"
     showgrid="false"
     inkscape:zoom="25.75"
     inkscape:cx="13.92233"
     inkscape:cy="14.038835"
     inkscape:window-width="1920"
     inkscape:window-height="1009"
     inkscape:window-x="-8"
     inkscape:window-y="-8"
     inkscape:window-maximized="1"
     inkscape:current-layer="svg6" />
  <title
     id="title2">pmpu</title>
  <path
     fill="#000000"
     d="m 24.582,4.711 c 2.338,2.645 3.455,5.817 3.544,9.323 0,7.767 -6.296,14.063 -14.063,14.063 C 6.296,28.097 0,21.801 0,14.034 0.032,10.387 1.223,7.523 3.52,4.74 l 6.34,8.101 c -0.182,0.893 -0.139,0.493 -0.175,1.194 0,2.418 1.96,4.377 4.377,4.377 2.417,0 4.377,-1.96 4.377,-4.377 -0.036,-0.717 0.007,-0.301 -0.184,-1.24 L 24.581,4.712 Z M 8.367,1.188 C 7.117,1.717 5.957,2.455 4.938,3.351 l 5.516,8.224 0.003,0.011 c 0.256,-0.379 0.525,-0.768 0.931,-1.006 L 8.367,1.187 Z m 11.399,0.003 -3.022,9.395 c 0.367,0.248 0.672,0.585 0.899,0.964 L 23.158,3.327 C 22.125,2.474 21.022,1.687 19.766,1.191 Z M 14.897,0 14.564,9.689 c 0.887,0.181 0.55,0.057 1.044,0.266 L 17.914,0.518 C 16.935,0.214 15.919,0.061 14.897,0 Z M 13.228,0 C 12.217,0.102 11.187,0.171 10.22,0.515 l 2.306,9.437 C 13.009,9.748 12.678,9.87 13.553,9.691 L 13.229,0 Z"
     id="path4" />
</svg>
