<?xml version="1.0" encoding="UTF-8" standalone="no"?>
<!-- Generated by IcoMoon.io -->

<svg
   version="1.1"
   width="27.440001"
   height="27.443001"
   viewBox="0 0 27.440001 27.443001"
   id="svg6"
   sodipodi:docname="pmtg1.svg"
   inkscape:version="1.1.1 (3bf5ae0d25, 2021-09-20)"
   xmlns:inkscape="http://www.inkscape.org/namespaces/inkscape"
   xmlns:sodipodi="http://sodipodi.sourceforge.net/DTD/sodipodi-0.dtd"
   xmlns="http://www.w3.org/2000/svg"
   xmlns:svg="http://www.w3.org/2000/svg">
  <defs
     id="defs10" />
  <sodipodi:namedview
     id="namedview8"
     pagecolor="#ffffff"
     bordercolor="#666666"
     borderopacity="1.0"
     inkscape:pageshadow="2"
     inkscape:pageopacity="0.0"
     inkscape:pagecheckerboard="0"
     showgrid="false"
     inkscape:zoom="25.75"
     inkscape:cx="14"
     inkscape:cy="13.68932"
     inkscape:window-width="1920"
     inkscape:window-height="1009"
     inkscape:window-x="-8"
     inkscape:window-y="-8"
     inkscape:window-maximized="1"
     inkscape:current-layer="svg6" />
  <title
     id="title2">pmtg1</title>
  <path
     fill="#000000"
     d="m 13.72,25.424 c -3.77,0 -7.131,-1.795 -9.271,-4.577 0.328,0 0.67,0.017 1.031,0.062 0.011,0 0.026,0 0.038,0.003 h 0.021 c 0.029,0.003 0.062,0 0.095,-0.003 0.478,-0.042 0.826,-0.429 0.871,-0.954 0,-0.009 0,-0.023 0,-0.033 l 0.003,-0.053 v -0.023 c 0,-0.529 -0.31,-0.96 -0.771,-1.078 C 5.708,18.762 5.675,18.756 5.643,18.753 5.576,18.748 5.543,18.739 5.522,18.727 5.496,18.529 5.475,18.332 5.475,18.14 c 0,-1.323 0.578,-2.959 1.769,-5.002 0.038,-0.062 0.038,-0.042 0.053,-0.11 L 7.365,12.656 C 7.368,12.633 7.371,12.62 7.371,12.614 7.371,12.6 7.365,12.603 7.356,12.555 L 7.344,12.49 C 7.339,12.443 7.324,12.396 7.306,12.352 7.255,12.233 7.173,12.121 7.075,12.018 7.335,11.971 7.56,11.85 7.724,11.655 c 0.015,-0.018 0.029,-0.036 0.042,-0.054 0,0 0.02,-0.033 0.036,-0.053 0.062,-0.056 0.115,-0.115 0.15,-0.192 0,0 0.053,-0.112 0.074,-0.156 0.023,-0.039 0.085,-0.136 0.085,-0.136 0.006,-0.011 0.012,-0.02 0.017,-0.033 l 0.098,-0.18 c 0.012,-0.02 0.027,-0.056 0.036,-0.079 0,0 0.009,-0.021 0.012,-0.026 2.011,1.01 4.03,7.893 4.266,10.535 0,-0.02 -0.002,-0.039 -0.002,-0.056 0,0.508 0.268,0.942 0.682,1.113 0.177,0.073 0.366,0.085 0.561,0.041 0.071,-0.017 0.139,-0.047 0.201,-0.085 l 0.171,-0.113 c 0.104,-0.067 0.218,-0.174 0.647,-0.567 l 1.738,-1.6 c -0.017,0.018 -0.029,0.026 -0.05,0.042 0.517,-0.372 0.623,-0.859 0.682,-1.119 0,-0.003 0.006,-0.033 0.006,-0.033 0.009,-0.042 0.015,-0.086 0.015,-0.133 0,-0.051 -0.006,-0.101 -0.021,-0.148 l -0.003,-0.017 c -0.006,-0.026 -0.017,-0.065 -0.026,-0.091 -0.268,-0.68 -0.57,-1.411 -0.974,-2.17 -0.18,-0.364 -0.274,-0.714 -0.274,-1.063 0,-0.41 0.121,-0.804 0.26,-1.256 0.147,-0.481 0.313,-1.024 0.363,-1.674 0.003,-0.015 0.003,-0.033 0.003,-0.051 0,-0.05 -0.006,-0.106 -0.014,-0.15 v 0 c -0.006,-0.036 -0.021,-0.068 -0.029,-0.101 0.014,0.006 0.029,0.015 0.047,0.021 0.11,0.032 0.416,0.109 0.688,0.032 0.056,-0.014 0.107,-0.044 0.156,-0.067 -0.003,0.003 -0.003,0.003 -0.006,0.005 0.003,-0.002 0.009,-0.005 0.012,-0.008 0.065,-0.029 0.127,-0.059 0.186,-0.104 0.053,0.036 0.113,0.091 0.177,0.206 0.933,1.501 1.701,3.222 2.289,5.13 0.098,0.475 0.141,0.803 0.141,1.051 0,0.319 -0.07,0.417 -0.103,0.455 -0.045,0.038 -0.153,0.135 -0.153,0.135 -0.308,0.272 -0.621,0.55 -0.875,0.697 l -0.029,0.015 c -0.141,0.085 -0.248,0.228 -0.29,0.387 l -0.005,0.026 c -0.027,0.101 -0.065,0.254 -0.065,0.431 0,0.316 0.121,0.525 0.221,0.647 0.147,0.177 0.431,0.383 0.945,0.345 0,0 0.026,-0.003 0.026,-0.003 0.124,-0.009 0.245,-0.054 0.342,-0.133 L 20.2,21.3 c 0.277,-0.218 0.655,-0.398 1.149,-0.543 0.673,-0.121 1.269,-0.151 1.822,-0.145 -2.128,2.912 -5.571,4.811 -9.448,4.811 z M 4.481,6.556 C 4.452,6.641 4.434,6.724 4.434,6.801 v 0.068 c 0,0.313 0.23,0.575 0.537,0.617 L 5.039,7.495 C 6.016,7.63 6.028,7.941 6.028,8.242 6.025,8.262 6.022,8.322 6.019,8.381 5.754,9.391 5.47,9.943 5.204,10.383 l -0.011,0.02 C 5.134,10.501 5.104,10.61 5.104,10.725 v 0.021 c 0,0.236 0.107,0.443 0.26,0.614 -0.262,0.059 -0.481,0.209 -0.605,0.44 -0.011,0.02 -0.023,0.045 -0.029,0.065 l -0.008,0.02 C 4.716,11.9 4.71,11.915 4.704,11.93 4.143,13.687 3.499,15.471 2.679,17.534 2.676,17.54 2.673,17.546 2.67,17.552 2.251,16.35 2.02,15.063 2.02,13.722 2.02,11.023 2.941,8.537 4.483,6.556 Z m 20.939,7.166 c 0,1.219 -0.189,2.395 -0.534,3.502 -0.853,-3.248 -2.398,-6.647 -3.599,-8.808 -0.095,-0.42 -0.124,-0.875 -0.151,-1.315 0,-0.006 -0.026,-0.417 -0.029,-0.476 0.003,-0.05 0.009,-0.209 0.009,-0.209 0,-0.009 0,-0.02 0,-0.032 v 0 c 0,-0.44 -0.136,-0.768 -0.407,-0.977 -0.304,-0.234 -0.706,-0.26 -1.193,-0.079 -0.207,0.073 -0.461,0.038 -0.782,-0.009 0.006,0 0.011,0 0.017,0.003 C 18.046,5.195 17.558,5.16 17.041,5.124 16.067,5.039 16.067,5.039 16.04,5.039 c -0.505,0 -0.868,0.422 -0.995,0.815 -0.009,0.03 -0.018,0.059 -0.021,0.091 l -0.026,0.16 C 14.995,6.134 14.993,6.17 14.993,6.203 v 0.009 c 0.002,0.316 0.15,0.593 0.401,0.764 l 0.413,0.275 c 0,0 0.493,0.336 0.694,0.469 0.203,0.265 0.248,0.451 0.254,0.605 -0.048,0.077 -0.098,0.154 -0.098,0.154 -0.292,0.454 -0.567,0.88 -0.886,1.204 -0.009,0.006 -0.018,0.015 -0.021,0.021 l -0.103,0.112 c -0.11,0.115 -0.286,0.304 -0.337,0.629 -0.005,0.032 -0.008,0.068 -0.008,0.101 0,0.062 0.014,0.121 0.023,0.183 -0.074,-0.033 -0.144,-0.059 -0.219,-0.074 -0.367,-0.088 -0.717,0.027 -0.939,0.305 -0.045,0.056 -0.086,0.124 -0.11,0.189 l -0.009,0.023 c -0.033,0.095 -0.062,0.163 -0.094,0.234 C 13.819,11.169 13.225,10.142 13.225,10.142 11.359,6.841 10.502,5.497 9.564,5.529 9.546,5.529 9.529,5.532 9.511,5.532 8.203,5.685 7.243,5.615 5.817,5.479 5.805,5.476 5.794,5.476 5.781,5.476 L 5.761,5.473 C 5.729,5.473 5.701,5.476 5.672,5.479 5.548,5.493 5.424,5.541 5.303,5.606 7.432,3.4 10.417,2.021 13.718,2.021 c 6.451,0 11.701,5.25 11.701,11.702 z m 1.778,5.849 -0.009,-0.008 C 26.941,19.306 26.678,19.094 26.424,18.905 27.08,17.304 27.44,15.556 27.44,13.722 27.44,6.142 21.299,0 13.72,0 6.143,0 0,6.142 0,13.722 c 0,2.04 0.448,3.978 1.249,5.717 -0.218,0.189 -0.463,0.354 -0.75,0.487 0.003,0 -0.026,0.012 -0.026,0.012 -0.097,0.044 -0.175,0.109 -0.24,0.195 l -0.017,0.026 c -0.142,0.195 -0.215,0.428 -0.215,0.673 0,0.254 0.079,0.5 0.227,0.689 0.263,0.348 0.697,0.475 1.098,0.327 0.06,-0.023 0.133,-0.062 0.184,-0.101 v 0 c 0.236,-0.183 0.493,-0.336 0.764,-0.463 2.457,3.712 6.667,6.159 11.447,6.159 4.925,0 9.241,-2.598 11.663,-6.493 0.177,0.056 0.354,0.121 0.528,0.2 0.026,0.009 0.053,0.021 0.079,0.029 0.484,0.142 0.971,0.009 1.246,-0.339 0.135,-0.174 0.203,-0.378 0.203,-0.596 0,-0.186 -0.05,-0.375 -0.15,-0.546 -0.023,-0.044 -0.059,-0.091 -0.091,-0.127 z"
     id="path4" />
</svg>
