<?xml version="1.0" encoding="UTF-8" standalone="no"?>
<svg
   version="1.1"
   width="31.645645"
   height="29.181999"
   viewBox="0 0 31.645645 29.181999"
   id="svg4"
   xmlns="http://www.w3.org/2000/svg"
   xmlns:svg="http://www.w3.org/2000/svg">
  <defs>
    <!-- This is the gradient that will actually be used on
     the cards. The colors themselves will be provided by the
     template, but the x values, y values, and offsets will be
     used from the SVG. -->
    <radialGradient id="rarity" cx="0.75" cy="0.25">
      <stop offset="0" style="stop-color:rgb(192,55,38);stop-opacity:1" id="stop2" />
      <stop offset="0" style="stop-color:rgb(192,55,38);stop-opacity:1" id="stop4" />
      <stop offset="0" style="stop-color:rgb(241,142,30);stop-opacity:1" id="stop6" />
      <stop offset="0.875" style="stop-color:rgb(192,55,38);stop-opacity:1" id="stop8" />
      <stop offset="1" style="stop-color:rgb(192,55,38);stop-opacity:1" id="stop10" />
    </radialGradient>
    <!-- These gradients are here so that you can visualize
     what the set symbol would like like in that rarity. The
     only gradient that matters in the end is the "rarity"
     gradient. -->
    <linearGradient id="mythic" x1="0" y1="1" x2="1" y2="0">
      <stop offset="0" style="stop-color:rgb(192,55,38);stop-opacity:1"/>
      <stop offset="0.125" style="stop-color:rgb(192,55,38);stop-opacity:1"/>
      <stop offset="0.5" style="stop-color:rgb(241,142,30);stop-opacity:1"/>
      <stop offset="0.875" style="stop-color:rgb(192,55,38);stop-opacity:1"/>
      <stop offset="1" style="stop-color:rgb(192,55,38);stop-opacity:1"/>
    </linearGradient>
    <linearGradient id="rare" x1="0" y1="1" x2="1" y2="0">
      <stop offset="0" style="stop-color:rgb(146,116,67);stop-opacity:1"/>
      <stop offset="0.125" style="stop-color:rgb(146,116,67);stop-opacity:1"/>
      <stop offset="0.5" style="stop-color:rgb(211,178,108);stop-opacity:1"/>
      <stop offset="0.875" style="stop-color:rgb(146,116,67);stop-opacity:1"/>
      <stop offset="1" style="stop-color:rgb(146,116,67);stop-opacity:1"/>
    </linearGradient>
    <linearGradient id="special" x1="0" y1="1" x2="1" y2="0">
      <stop offset="0" style="stop-color:rgb(76, 56, 106);stop-opacity:1"/>
      <stop offset="0.125" style="stop-color:rgb(76, 56, 106);stop-opacity:1"/>
      <stop offset="0.5" style="stop-color:rgb(201, 173, 221);stop-opacity:1"/>
      <stop offset="0.875" style="stop-color:rgb(76, 56, 106);stop-opacity:1"/>
      <stop offset="1" style="stop-color:rgb(76, 56, 106);stop-opacity:1"/>
    </linearGradient>
    <linearGradient id="uncommon" x1="0" y1="1" x2="1" y2="0">
      <stop offset="0" style="stop-color:rgb(98,110,119);stop-opacity:1"/>
      <stop offset="0.125" style="stop-color:rgb(98,110,119);stop-opacity:1"/>
      <stop offset="0.5" style="stop-color:rgb(196,222,238);stop-opacity:1"/>
      <stop offset="0.875" style="stop-color:rgb(98,110,119);stop-opacity:1"/>
      <stop offset="1" style="stop-color:rgb(98,110,119);stop-opacity:1"/>
    </linearGradient>
    <linearGradient id="common" x1="0" y1="1" x2="1" y2="0">
      <stop offset="0" style="stop-color:rgb(0,0,0);stop-opacity:1"/>
    </linearGradient>
    <linearGradient
            id="rarity-outline" x1="0" y1="1" x2="0" y2="1">
      <stop offset="0" style="stop-color:rgb(0,0,0);stop-opacity:1"/>
    </linearGradient>
  </defs>
  <path fill="url(#rarity-outline)" d="M 25.113281 -1.25 A 1.250125 1.250125 0 0 0 24.521484 -1.1171875 L 24.519531 -1.1171875 A 1.250125 1.250125 0 0 0 23.869141 -0.3125 C 23.817261 -0.11195004 23.748288 0.055905255 23.693359 0.24804688 C 23.076195 -0.018383575 22.507859 -0.39988937 21.833984 -0.49804688 C 18.621332 -0.99328109 15.153902 -0.37222326 12.429688 1.6152344 C 10.526312 2.9780828 9.2615747 4.9418163 8.4121094 7.0234375 C 8.3151598 6.42698 8.199968 5.8203029 8.3671875 5.2578125 A 1.250125 1.250125 0 0 0 6.8652344 3.6894531 C 5.9028232 3.9308039 4.7797197 4.2064134 3.71875 4.8964844 C 1.8922119 5.9947215 0.466474 7.9109437 0.26757812 10.1875 C -1.2404517 11.516993 -1.5565921 13.663873 -0.92578125 15.402344 C -0.55156804 16.670427 0.2990059 17.523414 1.1464844 18.189453 C 1.2166244 18.45706 1.2882325 18.725808 1.3574219 18.990234 A 1.250125 1.250125 0 0 0 1.4335938 19.201172 C 2.2251612 20.900894 3.6684075 22.137843 5.3183594 22.822266 C 7.5825837 23.823296 9.9109995 23.929444 12.058594 24.068359 C 14.210498 24.207553 16.173633 24.378943 17.873047 25.21875 A 1.250125 1.250125 0 0 0 17.898438 25.230469 C 18.463781 25.494771 18.84852 26.060884 19.023438 26.730469 C 18.996778 26.838038 18.969913 26.946059 18.945312 27.050781 C 18.652323 27.492814 18.322903 27.908119 17.939453 28.251953 A 1.250125 1.250125 0 0 0 19.140625 30.376953 C 20.183412 30.05724 21.374084 29.822228 22.605469 29.341797 A 1.250125 1.250125 0 0 0 22.650391 29.324219 C 24.186154 28.657289 25.921201 27.677707 26.888672 25.859375 C 27.733566 24.270503 27.535771 22.570727 27.041016 21.046875 A 1.250125 1.250125 0 0 0 27.894531 20.292969 C 28.118904 19.41058 28.092294 18.468719 27.941406 17.554688 C 28.117528 17.724829 28.412861 18.136138 29.111328 18.421875 A 1.250125 1.250125 0 0 0 29.478516 18.509766 C 30.504237 18.596696 31.513647 18.2455 32.255859 17.501953 C 32.550791 17.209786 32.762865 16.858507 32.855469 16.40625 C 32.948719 15.950833 32.868999 15.335674 32.496094 14.871094 L 32.568359 14.970703 C 31.445764 13.248982 30.324826 11.677472 29.818359 9.9941406 A 1.250125 1.250125 0 0 0 29.814453 9.9785156 C 29.583107 9.2459179 29.63828 8.1595785 29.261719 6.8613281 C 28.907534 5.5441119 28.253879 4.4108489 27.560547 3.4042969 A 1.250125 1.250125 0 0 0 27.517578 3.3476562 C 27.512122 3.3406219 27.494679 2.9478313 27.3125 2.1582031 C 27.121774 1.068922 26.647839 0.13468016 26.136719 -0.66992188 A 1.250125 1.250125 0 0 0 25.113281 -1.25 z " />
  <path fill="url(#rarity)" d="m 25.08089,0 c 0.465,0.732 0.857,1.525 1.005,2.384 0.14,0.579 0.061,1.234 0.445,1.729 0.653,0.948 1.228,1.964 1.527,3.082 0.303,1.033 0.24,2.134 0.564,3.16 0.587,1.951 1.801,3.614 2.899,5.298 0.24,0.299 0.102,0.721 -0.146,0.965 -0.46,0.462 -1.141,0.702 -1.79,0.647 -0.352,-0.144 -0.6,-0.45 -0.88,-0.696 -0.859,-0.853 -1.837,-1.572 -2.772,-2.335 -1.563,-1.247 -3.466,-1.987 -5.01,-3.26 -0.727,-0.596 -1.334,-1.546 -1.08,-2.522 0.155,-0.636 0.778,-0.944 1.207,-1.372 0.229,-0.233 0.03,-0.566 -0.17,-0.738 -0.662,-0.053 -1.175,0.481 -1.57,0.942 -0.899,1.15 -0.6,2.87 0.354,3.89 1.631,1.799 4.068,2.526 5.862,4.119 1.247,1.2 1.574,3.056 1.158,4.692 -1.239,-2.284 -3.561,-3.733 -5.979,-4.507 -3.232,-1.02 -6.454,-2.238 -9.258,-4.178 -0.808,-0.583 -1.6140001,-1.196 -2.2480001,-1.973 -0.267,-0.312 -0.098,-0.751 -0.006,-1.097 0.742,-2.193 2.0660001,-4.24 3.9640001,-5.599 2.414,-1.765 5.568,-2.346 8.492,-1.894 1.022,0.148 1.994,0.545 2.838,1.139 0.248,-0.609 0.428,-1.241 0.592,-1.875 z M 4.3778899,5.951 c -1.678,1.001 -2.98,2.812 -2.944,4.823 -1.40000002,0.857 -1.72900002,2.779 -1.18600002,4.236 0.301,1.08 1.13500002,1.873 2.01500002,2.507 0.1,0.386 0.202,0.77 0.303,1.156 0.645,1.385 1.845,2.426 3.245,3.003 4,1.775 8.6680001,0.471 12.6160001,2.422 1.031,0.482 1.693,1.478 1.898,2.577 -0.085,0.31 -0.157,0.619 -0.229,0.931 -0.367,0.581 -0.808,1.116 -1.321,1.576 1.122,-0.344 2.28,-0.577 3.377,-1.005 1.43,-0.621 2.878,-1.485 3.633,-2.904 0.787,-1.48 0.53,-3.292 -0.159,-4.757 -1.007,-2.03 -3.088,-3.256 -5.167,-3.964 -4.111,-1.328 -8.338,-2.872 -11.5640001,-5.854 -1.55,-1.438 -2.339,-3.735 -1.726,-5.797 -0.965,0.242 -1.949,0.496 -2.791,1.05 z"/>
</svg>
