<?xml version="1.0" encoding="UTF-8" standalone="no"?>
<svg
   version="1.1"
   width="29.637598"
   height="32.392773"
   viewBox="0 0 29.637598 32.392772"
   id="svg4"
   xmlns="http://www.w3.org/2000/svg"
   xmlns:svg="http://www.w3.org/2000/svg">
  <defs>
    <!-- This is the gradient that will actually be used on
     the cards. The colors themselves will be provided by the
     template, but the x values, y values, and offsets will be
     used from the SVG. -->
    <linearGradient id="rarity" x1="0" y1="1" x2="1" y2="0">
      <stop offset="0" style="stop-color:rgb(192,55,38);stop-opacity:1" id="stop2" />
      <stop offset="0.125" style="stop-color:rgb(192,55,38);stop-opacity:1" id="stop4" />
      <stop offset="0.5" style="stop-color:rgb(241,142,30);stop-opacity:1" id="stop6" />
      <stop offset="0.875" style="stop-color:rgb(192,55,38);stop-opacity:1" id="stop8" />
      <stop offset="1" style="stop-color:rgb(192,55,38);stop-opacity:1" id="stop10" />
    </linearGradient>
    <!-- These gradients are here so that you can visualize
     what the set symbol would like like in that rarity. The
     only gradient that matters in the end is the "rarity"
     gradient. -->
    <linearGradient id="mythic" x1="0" y1="1" x2="1" y2="0">
      <stop offset="0" style="stop-color:rgb(192,55,38);stop-opacity:1"/>
      <stop offset="0.125" style="stop-color:rgb(192,55,38);stop-opacity:1"/>
      <stop offset="0.5" style="stop-color:rgb(241,142,30);stop-opacity:1"/>
      <stop offset="0.875" style="stop-color:rgb(192,55,38);stop-opacity:1"/>
      <stop offset="1" style="stop-color:rgb(192,55,38);stop-opacity:1"/>
    </linearGradient>
    <linearGradient id="rare" x1="0" y1="1" x2="1" y2="0">
      <stop offset="0" style="stop-color:rgb(146,116,67);stop-opacity:1"/>
      <stop offset="0.125" style="stop-color:rgb(146,116,67);stop-opacity:1"/>
      <stop offset="0.5" style="stop-color:rgb(211,178,108);stop-opacity:1"/>
      <stop offset="0.875" style="stop-color:rgb(146,116,67);stop-opacity:1"/>
      <stop offset="1" style="stop-color:rgb(146,116,67);stop-opacity:1"/>
    </linearGradient>
    <linearGradient id="special" x1="0" y1="1" x2="1" y2="0">
      <stop offset="0" style="stop-color:rgb(76, 56, 106);stop-opacity:1"/>
      <stop offset="0.125" style="stop-color:rgb(76, 56, 106);stop-opacity:1"/>
      <stop offset="0.5" style="stop-color:rgb(201, 173, 221);stop-opacity:1"/>
      <stop offset="0.875" style="stop-color:rgb(76, 56, 106);stop-opacity:1"/>
      <stop offset="1" style="stop-color:rgb(76, 56, 106);stop-opacity:1"/>
    </linearGradient>
    <linearGradient id="uncommon" x1="0" y1="1" x2="1" y2="0">
      <stop offset="0" style="stop-color:rgb(98,110,119);stop-opacity:1"/>
      <stop offset="0.125" style="stop-color:rgb(98,110,119);stop-opacity:1"/>
      <stop offset="0.5" style="stop-color:rgb(196,222,238);stop-opacity:1"/>
      <stop offset="0.875" style="stop-color:rgb(98,110,119);stop-opacity:1"/>
      <stop offset="1" style="stop-color:rgb(98,110,119);stop-opacity:1"/>
    </linearGradient>
    <linearGradient id="common" x1="0" y1="1" x2="1" y2="0">
      <stop offset="0" style="stop-color:rgb(0,0,0);stop-opacity:1"/>
    </linearGradient>
    <linearGradient
            id="rarity-outline" x1="0" y1="1" x2="0" y2="1">
      <stop offset="0" style="stop-color:rgb(0,0,0);stop-opacity:1"/>
    </linearGradient>
  </defs>
  <path fill="url(#rarity-outline)" d="M 7.3064785,0.00205109 C 7.0001687,0.01453319 6.6960962,0.08305619 6.3963222,0.18369172 a 1.0001,1.0001 0 0 0 -0.1660156,-0.03125 l -0.00195,0.001953 0.011719,0.03125 c -0.032328,0.0129581 -0.067446,-0.0122911 -0.099609,0.001953 0,0 -0.00195,0 -0.00195,0 a 1.0001,1.0001 0 0 0 -0.00195,0.003906 C 5.4232301,0.51189879 5.0664008,1.1701673 4.9471035,1.3848636 4.827415,1.6002638 5.0235641,1.4848787 4.7068691,1.5567386 2.5582981,2.0437024 1.6343855,3.2054851 0.44905657,4.0801761 A 1.0001,1.0001 0 0 0 0.07210345,4.6485355 c -0.2686,1.0982918 0.23965687,2.2238512 1.08593755,2.6835937 0.7027162,0.3817513 1.5225328,0.3272643 2.2929688,0.037109 0.3631237,0.010373 0.5343143,0.1018774 0.6875,0.2695313 0.1588287,0.17383 0.297061,0.4765814 0.3496093,0.8691406 C 4.5776697,9.1768927 4.2762518,9.9280619 3.9646816,10.421973 3.5412509,10.173904 2.6874365,9.7810041 1.7615566,10.142676 a 1.0001,1.0001 0 0 0 -0.59375,0.644531 c -0.35502935,1.183995 -0.53465435,2.627335 -0.43750003,4.009766 0.0885468,1.259952 0.44150683,2.479325 1.31054693,3.355469 0.1750331,0.564403 0.4231106,1.146742 0.9257813,1.658203 0.5832106,0.593409 1.5272898,1.084828 2.5839843,0.882812 a 1.0001,1.0001 0 0 0 0.8046875,-0.859375 c 0.065463,-0.527063 -0.036649,-0.961776 -0.1445312,-1.380859 0.5087238,0.463328 1.0136594,0.942186 1.5820312,1.306641 0.9122862,1.208319 2.4253244,1.462581 3.7324214,1.664062 1.269297,0.195655 2.363194,0.394076 2.871094,0.640625 0.232856,0.85565 0.65074,1.594118 1.234375,2.064453 0.746893,0.6019 1.589105,0.929334 2.345703,1.242188 0.756599,0.312854 1.42599,0.608674 1.855469,0.960937 0.429479,0.352263 0.666844,0.690246 0.726563,1.425781 a 1.0001,1.0001 0 0 0 0.132812,0.419922 c 0.219723,0.379466 0.504896,1.461592 0.94336,2.431641 0.219232,0.485024 0.485113,0.980929 0.986328,1.369141 0.501214,0.388212 1.304136,0.535794 1.988281,0.302734 a 1.0001,1.0001 0 0 0 0.382812,-0.238281 c 0.337947,-0.33692 0.388978,-0.556173 0.511719,-0.869141 0.122741,-0.312968 0.229097,-0.671973 0.292969,-1.05664 0.06387,-0.384668 0.09871,-0.789736 -0.01758,-1.248047 -0.04258,-0.167802 -0.299953,-0.265126 -0.417969,-0.439453 -0.09001,-0.429933 -0.147108,-1.096415 -0.371094,-1.769532 -0.111993,-0.336558 -0.269153,-0.695368 -0.583984,-1.017578 -0.114272,-0.11695 -0.326273,-0.114575 -0.482422,-0.201172 -0.05433,-0.399643 -0.138234,-0.786297 -0.271484,-1.158203 0.05618,-1.68e-4 0.109385,0.01151 0.166015,0.0078 0.555429,0.08194 1.208603,-0.107377 1.560547,-0.507813 0.361614,-0.411438 0.454938,-0.862724 0.488281,-1.263672 0.03334,-0.400948 -0.0057,-0.778648 -0.08594,-1.128906 -0.08022,-0.350258 -0.166802,-0.65658 -0.431641,-0.998047 a 1.0001,1.0001 0 0 0 -0.601562,-0.36914 c 0.120572,0.02324 -0.07441,-0.02789 -0.230469,-0.121094 -0.156063,-0.0932 -0.329681,-0.2285 -0.431641,-0.337891 -0.04772,-0.0512 -0.03058,-0.0212 -0.04297,-0.04297 a 1.0001,1.0001 0 0 0 0.287109,-0.546875 c 0.110241,-1.110974 0.02127,-2.296013 -0.533203,-3.320312 -0.518921,-0.958628 -1.593448,-1.687785 -2.912109,-1.71875 -0.573733,-0.231925 -1.1326,-0.603011 -1.658204,-0.945313 1.110091,-1.27425 2.068838,-2.557788 3.023438,-3.6757809 0.706796,-0.093029 1.508588,-0.1736412 2.326172,-0.40625 0.955552,-0.2718618 2.012237,-0.7683039 2.441406,-1.8828125 a 1.0001,1.0001 0 0 0 0.03516,-0.1113281 c 0.127289,-0.4962796 0.671718,-1.149438 1.304688,-1.9257813 0.63297,-0.7763431 1.387953,-1.7888635 1.267578,-3.1328125 A 1.0001,1.0001 0 0 0 28.589682,0.94541047 C 25.119,1.0880131 21.604254,1.6808485 14.230307,2.3516605 l 0.136718,-0.00195 C 13.185491,2.2973627 12.171708,3.032433 11.634604,3.9942386 11.52512,4.1902912 11.498458,4.4333616 11.41976,4.6485355 10.877374,3.5822402 10.195452,2.5871004 9.2928066,1.6680667 9.2605797,1.4208174 9.3129676,1.1564707 9.189291,0.95126984 8.947032,0.54932057 8.582712,0.30107103 8.2303066,0.15830109 7.9213356,0.03312773 7.6127883,-0.01043102 7.3064785,0.00205109 Z" />
  <path fill="url(#rarity)" d="m 6.543794,1.1023427 c 0.755,-0.33499999 2.119,-0.057 1.872,1.033 2.22,2.174 3.317,4.339 3.193,7.762 1.426,0.2480003 0.789,-2.01 0.546,-2.665 -0.412,-2.086 0.632,-3.952 2.167,-3.884 7.398,-0.673 10.925,-1.264 14.308,-1.403 0.164,1.831 -2.111,3.024 -2.546,4.72 -0.516,1.34 -2.776,1.499 -4.369,1.727 -1.403,1.573 -2.372,3.3040003 -4.01,4.8850003 1.112,0.463 1.719,1.198 2.958,1.651 2.255,-0.114 2.865,2.002 2.672,3.947 -1.082,0.913 0.726,2.035 1.224,2.131 0.394,0.508 0.642,2.536 -0.609,2.313 -1.115,0.207 -1.871,-0.602 -1.899,-1.563 -1.069,-0.195 -1.064,-1.477 -1.019,-2.366 -1.201,0.9 -0.248,3.153 0.448,3.289 0.89,0.726 1.568,2.081 1.593,3.406 1.052,0.005 1.095,1.522 1.31,2.549 0.938,0.248 0.233,2.372 -0.096,2.7 -1.729,0.589 -2.002,-2.399 -2.731,-3.658 -0.319,-3.929 -6.081,-2.554 -6.371,-6.392 -1.608,-1.067 -5.512,-0.442 -6.69,-2.258 -1.504,-0.852 -3.13,-2.89 -4.462,-3.686 -0.147,1.863 1.583,2.334 1.33,4.371 -1.36,0.26 -2.296,-1.183 -2.495,-2.048 -1.418,-1.145 -1.373,-4.488 -0.743,-6.589 1.216,-0.475 1.722,0.989 2.47,0.372 1.375,-1.431 1.368,-5.0620003 -1.16,-5.0870003 -1.236,0.698 -2.76300002,0.043 -2.392,-1.474 1.305,-0.963 2.002,-1.927 3.886,-2.354 1.115,-0.253 0.725,-1.033 1.618,-1.43 z"/>
</svg>
