<?xml version="1.0" encoding="UTF-8" standalone="no"?>
<!-- Generated by IcoMoon.io -->

<svg
   version="1.1"
   width="27.652069"
   height="30.441505"
   viewBox="0 0 27.652069 30.441505"
   id="svg6"
   sodipodi:docname="psalvat05.svg"
   inkscape:version="1.1.1 (3bf5ae0d25, 2021-09-20)"
   xmlns:inkscape="http://www.inkscape.org/namespaces/inkscape"
   xmlns:sodipodi="http://sodipodi.sourceforge.net/DTD/sodipodi-0.dtd"
   xmlns="http://www.w3.org/2000/svg"
   xmlns:svg="http://www.w3.org/2000/svg">
  <defs
     id="defs10" />
  <sodipodi:namedview
     id="namedview8"
     pagecolor="#ffffff"
     bordercolor="#666666"
     borderopacity="1.0"
     inkscape:pageshadow="2"
     inkscape:pageopacity="0.0"
     inkscape:pagecheckerboard="0"
     showgrid="false"
     inkscape:zoom="25.75"
     inkscape:cx="13.76699"
     inkscape:cy="15.203883"
     inkscape:window-width="1920"
     inkscape:window-height="1009"
     inkscape:window-x="-8"
     inkscape:window-y="-8"
     inkscape:window-maximized="1"
     inkscape:current-layer="svg6" />
  <title
     id="title2">psalvat05</title>
  <path
     fill="#000000"
     d="m 5.557628,0.13349474 c 0.755,-0.335 2.119,-0.057 1.872,1.03299996 2.22,2.174 3.317,4.339 3.193,7.762 1.426,0.248 0.789,-2.01 0.546,-2.665 -0.412,-2.086 0.632,-3.952 2.167,-3.884 7.398,-0.673 10.925,-1.264 14.308,-1.40299996 0.164,1.83099996 -2.111,3.02399996 -2.546,4.71999996 -0.516,1.34 -2.776,1.499 -4.369,1.727 -1.403,1.573 -2.372,3.3040003 -4.01,4.8850003 1.112,0.463 1.719,1.198 2.958,1.651 2.255,-0.114 2.865,2.002 2.672,3.947 -1.082,0.913 0.726,2.035 1.224,2.131 0.394,0.508 0.642,2.536 -0.609,2.313 -1.115,0.207 -1.871,-0.602 -1.899,-1.563 -1.069,-0.195 -1.064,-1.477 -1.019,-2.366 -1.201,0.9 -0.248,3.153 0.448,3.289 0.89,0.726 1.568,2.081 1.593,3.406 1.052,0.005 1.095,1.522 1.31,2.549 0.938,0.248 0.233,2.372 -0.096,2.7 -1.729,0.589 -2.002,-2.399 -2.731,-3.658 -0.319,-3.929 -6.081,-2.554 -6.371,-6.392 -1.608,-1.067 -5.512,-0.442 -6.69,-2.258 -1.504,-0.852 -3.13,-2.89 -4.462,-3.686 -0.147,1.863 1.583,2.334 1.33,4.371 -1.36,0.26 -2.296,-1.183 -2.495,-2.048 -1.41799997,-1.145 -1.37299997,-4.488 -0.743,-6.589 1.216,-0.4750003 1.722,0.989 2.47,0.372 1.375,-1.4310003 1.368,-5.0620003 -1.16,-5.0870003 -1.236,0.698 -2.76299997,0.043 -2.39199997,-1.474 1.30499997,-0.963 2.00199997,-1.927 3.88599997,-2.354 1.115,-0.253 0.725,-1.03299996 1.618,-1.42999996 z"
     id="path4" />
</svg>
