<?xml version="1.0" encoding="UTF-8" standalone="no"?>
<!-- Generated by IcoMoon.io -->

<svg
   version="1.1"
   width="27.997"
   height="28"
   viewBox="0 0 27.997 28"
   id="svg6"
   sodipodi:docname="psum.svg"
   inkscape:version="1.1.1 (3bf5ae0d25, 2021-09-20)"
   xmlns:inkscape="http://www.inkscape.org/namespaces/inkscape"
   xmlns:sodipodi="http://sodipodi.sourceforge.net/DTD/sodipodi-0.dtd"
   xmlns="http://www.w3.org/2000/svg"
   xmlns:svg="http://www.w3.org/2000/svg">
  <defs
     id="defs10" />
  <sodipodi:namedview
     id="namedview8"
     pagecolor="#ffffff"
     bordercolor="#666666"
     borderopacity="1.0"
     inkscape:pageshadow="2"
     inkscape:pageopacity="0.0"
     inkscape:pagecheckerboard="0"
     showgrid="false"
     inkscape:zoom="25.75"
     inkscape:cx="14.38835"
     inkscape:cy="13.961165"
     inkscape:window-width="1920"
     inkscape:window-height="1009"
     inkscape:window-x="-8"
     inkscape:window-y="-8"
     inkscape:window-maximized="1"
     inkscape:current-layer="svg6" />
  <title
     id="title2">psum</title>
  <path
     fill="#000000"
     d="m 21.362,18.589 c 0,4.373 -4.847,6.694 -8.608,7.081 C 11.447,25.804 9.771,25.948 8.485,25.659 8.056,25.564 7.665,25.444 7.31,25.307 7.202,25.262 7.152,25.208 7.152,25.146 L 6.633,20.457 c 0,-0.104 0.054,-0.158 0.161,-0.158 l 0.773,0.415 c 0.108,0.033 0.593,2.852 2.899,3.4 1.494,0.358 3.167,0 4.572,-0.492 1.679,-0.594 3.368,-1.814 3.368,-3.779 0,-1.802 -1.199,-3.264 -3.6,-4.388 -3.003,-1.399 -7.23,-2.893 -7.23,-6.875 0,-4.295 4.244,-6.229 7.958,-6.368 1.346,-0.048 2.906,-0.102 4.227,0.167 0.107,0.021 0.161,0.074 0.161,0.16 l 0.354,4.988 c 0,0.107 -0.05,0.161 -0.158,0.161 L 19.209,7.112 c -0.108,0 -0.761,-1.87 -1.047,-2.399 -1.244,-2.288 -4.766,-1.342 -6.44,-0.075 -1.542,1.17 -1.593,3.541 -0.498,4.955 2.356,3.045 7.076,2.753 9.279,6.061 0.549,0.823 0.859,1.942 0.859,2.935 z m 2.658,5.432 -2.059,-2.812 c -0.143,0.325 -0.313,0.638 -0.501,0.936 z M 11.781,28 12.139,26.881 c -0.116,0.009 -0.235,0.021 -0.355,0.027 z m 8.653,-1.372 -0.808,-2.455 C 19.423,24.334 19.214,24.49 19,24.639 Z M 16.217,28 16.208,26.05 c -0.185,0.065 -0.37,0.128 -0.557,0.188 L 16.218,28 Z M 3.975,3.976 6.525,7.46 C 6.599,6.98 6.716,6.526 6.879,6.102 L 3.974,3.975 Z M 19.781,8.833 18.764,8.185 C 18.662,8.146 18.576,8.093 18.495,8.021 L 18.164,8.265 18.307,7.824 C 18.083,7.529 17.898,7.063 17.636,6.404 17.544,6.171 17.434,5.897 17.338,5.664 l -1.152,1.593 0.012,-2.708 c -0.186,-0.047 -0.4,-0.08 -0.663,-0.08 -0.257,0 -0.518,0.033 -0.781,0.08 L 13.996,6.912 13.378,4.988 C 12.999,5.161 12.666,5.361 12.409,5.552 12.101,5.784 11.92,6.077 11.803,6.36 l 0.003,0.898 -0.17,-0.233 c -0.072,0.666 0.11,1.375 0.489,1.868 0.948,1.226 2.449,1.843 4.036,2.493 1.855,0.764 3.958,1.626 5.294,3.633 0.233,0.352 0.421,0.754 0.582,1.175 l 5.96,0.024 -6.915,-2.219 6.915,-2.216 -7.26,0.027 5.891,-4.245 -6.897,2.27 0.776,-1.064 c -0.122,0.038 -0.254,0.063 -0.394,0.063 h -0.334 z m 1.641,-1.346 v 0.039 l 2.599,-3.55 -2.708,1.984 0.108,1.485 0.002,0.042 z m 1.056,11.583 4.152,1.366 -4.254,-3.067 c 0.078,0.406 0.131,0.818 0.131,1.22 0,0.164 -0.021,0.319 -0.03,0.48 z M 8.73,20.54 9.834,19.731 9.199,21.664 c 0.259,0.489 0.608,0.922 1.097,1.172 l 1.513,-2.097 -0.009,2.372 c 0.492,-0.003 1.038,-0.078 1.617,-0.212 l 0.582,-1.813 0.486,1.509 c 0.06,-0.018 0.117,-0.033 0.176,-0.053 0.376,-0.134 0.993,-0.4 1.533,-0.812 l -0.006,-0.99 0.438,0.606 c 0.37,-0.396 0.635,-0.892 0.635,-1.503 0,-0.486 0,-1.972 -2.941,-3.35 C 14.042,16.362 13.75,16.23 13.452,16.096 10.645,14.828 6.863,13.113 6.469,9.245 L 1.369,7.565 7.26,11.81 0,11.783 6.911,13.999 0,16.218 l 7.26,-0.03 -5.891,4.248 6.896,-2.27 -0.85,1.164 0.656,0.355 c 0.418,0.199 0.567,0.584 0.659,0.856 z M 20.434,1.369 20.404,1.411 c 0.003,0.003 0.009,0.003 0.012,0.006 L 20.433,1.369 Z M 16.217,0 15.877,1.053 C 15.99,1.05 16.098,1.047 16.211,1.042 Z M 3.975,24.021 5.732,22.736 5.627,21.766 Z M 11.781,0 11.787,1.772 c 0.167,-0.06 0.338,-0.12 0.507,-0.17 z M 7.564,26.628 7.582,26.604 H 7.574 L 7.565,26.628 Z M 8.969,3.32 C 8.763,3.487 8.566,3.663 8.381,3.851 L 7.564,1.369 Z"
     id="path4" />
</svg>
