<?xml version="1.0" encoding="UTF-8" standalone="no"?>
<svg
   version="1.1"
   width="25.609039"
   height="30.475151"
   viewBox="0 0 25.609039 30.475151"
   id="svg4"
   xmlns="http://www.w3.org/2000/svg"
   xmlns:svg="http://www.w3.org/2000/svg">
  <defs>
    <!-- This is the gradient that will actually be used on
     the cards. The colors themselves will be provided by the
     template, but the x values, y values, and offsets will be
     used from the SVG. -->
    <linearGradient id="rarity" x1="0" y1="1" x2="1" y2="0">
      <stop offset="0" style="stop-color:rgb(192,55,38);stop-opacity:1" id="stop2" />
      <stop offset="0.125" style="stop-color:rgb(192,55,38);stop-opacity:1" id="stop4" />
      <stop offset="0.5" style="stop-color:rgb(241,142,30);stop-opacity:1" id="stop6" />
      <stop offset="0.875" style="stop-color:rgb(192,55,38);stop-opacity:1" id="stop8" />
      <stop offset="1" style="stop-color:rgb(192,55,38);stop-opacity:1" id="stop10" />
    </linearGradient>
    <!-- These gradients are here so that you can visualize
     what the set symbol would like like in that rarity. The
     only gradient that matters in the end is the "rarity"
     gradient. -->
    <linearGradient id="mythic" x1="0" y1="1" x2="1" y2="0">
      <stop offset="0" style="stop-color:rgb(192,55,38);stop-opacity:1"/>
      <stop offset="0.125" style="stop-color:rgb(192,55,38);stop-opacity:1"/>
      <stop offset="0.5" style="stop-color:rgb(241,142,30);stop-opacity:1"/>
      <stop offset="0.875" style="stop-color:rgb(192,55,38);stop-opacity:1"/>
      <stop offset="1" style="stop-color:rgb(192,55,38);stop-opacity:1"/>
    </linearGradient>
    <linearGradient id="rare" x1="0" y1="1" x2="1" y2="0">
      <stop offset="0" style="stop-color:rgb(146,116,67);stop-opacity:1"/>
      <stop offset="0.125" style="stop-color:rgb(146,116,67);stop-opacity:1"/>
      <stop offset="0.5" style="stop-color:rgb(211,178,108);stop-opacity:1"/>
      <stop offset="0.875" style="stop-color:rgb(146,116,67);stop-opacity:1"/>
      <stop offset="1" style="stop-color:rgb(146,116,67);stop-opacity:1"/>
    </linearGradient>
    <linearGradient id="special" x1="0" y1="1" x2="1" y2="0">
      <stop offset="0" style="stop-color:rgb(76, 56, 106);stop-opacity:1"/>
      <stop offset="0.125" style="stop-color:rgb(76, 56, 106);stop-opacity:1"/>
      <stop offset="0.5" style="stop-color:rgb(201, 173, 221);stop-opacity:1"/>
      <stop offset="0.875" style="stop-color:rgb(76, 56, 106);stop-opacity:1"/>
      <stop offset="1" style="stop-color:rgb(76, 56, 106);stop-opacity:1"/>
    </linearGradient>
    <linearGradient id="uncommon" x1="0" y1="1" x2="1" y2="0">
      <stop offset="0" style="stop-color:rgb(98,110,119);stop-opacity:1"/>
      <stop offset="0.125" style="stop-color:rgb(98,110,119);stop-opacity:1"/>
      <stop offset="0.5" style="stop-color:rgb(196,222,238);stop-opacity:1"/>
      <stop offset="0.875" style="stop-color:rgb(98,110,119);stop-opacity:1"/>
      <stop offset="1" style="stop-color:rgb(98,110,119);stop-opacity:1"/>
    </linearGradient>
    <linearGradient id="common" x1="0" y1="1" x2="1" y2="0">
      <stop offset="0" style="stop-color:rgb(0,0,0);stop-opacity:1"/>
    </linearGradient>
    <linearGradient
            id="rarity-outline" x1="0" y1="1" x2="0" y2="1">
      <stop offset="0" style="stop-color:rgb(0,0,0);stop-opacity:1"/>
    </linearGradient>
  </defs>
  <path fill="#000000" d="M 4.671875 -0.5 C 3.7242384 -0.5 2.9505142 0.035223355 2.5273438 0.60351562 C 2.1510622 1.1088388 1.994219 1.6044524 1.8925781 2 C 1.6824505 2.8177375 1.6650567 3.5765781 1.6523438 3.8066406 C 1.5752997 5.1889361 1.7812684 6.7709302 2.4550781 8.2597656 C 3.0267046 9.5228186 4.1539152 10.642488 5.6425781 11.263672 C 5.333937 11.443124 5.0402711 11.588349 4.7246094 11.851562 C 4.182794 12.2998 3.5826228 12.85532 3.0820312 13.605469 C 1.776446 15.562982 2.2713191 17.827412 3.2832031 19.412109 C 3.0245245 19.508329 2.8294741 19.526348 2.3984375 19.839844 C 0.99665995 20.859375 -0.5 22.784558 -0.5 25.515625 C -0.5 26.893632 -0.10982393 28.122138 0.61328125 29.037109 C 1.3325915 29.947281 2.290221 30.462073 3.1738281 30.720703 C 4.0502424 30.977229 4.8827872 31.009336 5.5878906 30.949219 C 6.2277561 30.894659 6.829285 30.86103 7.5917969 30.351562 C 8.2028145 29.944716 8.5813444 29.610364 8.8222656 29.419922 C 9.0631869 29.22948 9.064365 29.231 9.1308594 29.238281 C 10.274481 29.366098 11.605308 29.571296 13.103516 29.433594 C 13.909267 29.362534 14.807604 29.197325 15.699219 28.783203 A 0.50005 0.50005 0 0 0 15.703125 28.78125 L 15.714844 28.775391 C 16.309316 28.495958 16.696214 28.245117 16.849609 28.162109 C 16.859309 28.170709 16.860574 28.170207 16.871094 28.179688 C 17.065911 28.355839 17.506818 28.783476 18.216797 29.025391 C 19.152248 29.34395 19.989113 29.141146 20.707031 28.808594 C 21.170939 29.168113 21.886022 29.511907 22.742188 29.332031 A 0.50005 0.50005 0 0 0 22.78125 29.318359 C 25.627263 28.685106 26.925766 25.397565 25.5625 22.935547 C 24.56532 21.134492 22.719432 20.372421 21.083984 20.041016 C 20.096704 19.840954 19.248914 19.974059 18.34375 20.005859 C 18.782841 19.90043 19.153272 19.978239 19.611328 19.78125 C 20.259096 19.50268 21.063022 19.068421 21.583984 18.138672 C 22.155151 17.119322 21.992905 15.790704 21.359375 14.837891 A 0.50005 0.50005 0 0 0 21.357422 14.835938 C 20.647032 13.770444 19.549529 13.208724 18.585938 13.001953 C 17.651653 12.801471 16.817479 12.853411 16.193359 12.886719 C 15.750286 12.910359 15.274722 13.045307 14.818359 13.099609 C 15.093423 12.983631 15.334632 12.726062 15.607422 12.664062 C 16.629811 12.4342 18.498915 12.164086 20.226562 11.591797 C 21.085435 11.307294 21.958956 10.947035 22.740234 10.320312 C 23.551513 9.669525 24.269531 8.5996422 24.269531 7.3144531 C 24.269531 5.2937651 22.939021 3.7214019 21.421875 2.9082031 C 19.930794 2.1090847 18.175872 1.837475 16.466797 2.0898438 A 0.50005 0.50005 0 0 0 16.464844 2.0898438 C 14.061619 2.4414269 13.880864 2.3098977 12.101562 1.7167969 A 0.50005 0.50005 0 0 0 12.097656 1.71875 C 11.227277 1.4281551 10.338638 1.3116392 9.4804688 1.3183594 L 9.4785156 1.3183594 C 8.9558485 1.3198835 8.6364152 1.4187183 8.3984375 1.4785156 C 8.2632914 1.2956569 8.1154789 1.0520753 7.6894531 0.71289062 L 7.6875 0.7109375 C 7.68383 0.7079855 7.6794703 0.70409787 7.6757812 0.70117188 A 0.50005 0.50005 0 0 0 7.671875 0.69921875 C 7.0702518 0.23141834 6.0815645 -0.5 4.671875 -0.5 z M 13.439453 20.455078 C 13.832023 20.451702 14.222952 20.459734 14.615234 20.458984 C 13.889406 20.625292 13.184422 20.728281 12.458984 20.988281 A 0.50005 0.50005 0 0 0 12.455078 20.988281 C 11.796718 21.224209 10.529685 21.242176 9.3652344 21.328125 C 10.461463 20.984592 11.435068 20.61983 12.251953 20.521484 A 0.50005 0.50005 0 0 0 12.253906 20.521484 C 12.652671 20.473239 13.046883 20.458454 13.439453 20.455078 z M 7.3828125 21.46875 C 7.5819765 21.49616 7.8107304 21.464756 8.0351562 21.472656 C 7.9014854 21.464556 7.7152747 21.537664 7.5996094 21.521484 C 7.488489 21.505934 7.4612365 21.4872 7.3828125 21.46875 z M 17.310547 27.900391 C 17.316093 27.9054 17.320474 27.910899 17.326172 27.916016 C 17.312935 27.927729 17.30652 27.933942 17.287109 27.951172 A 0.50005 0.50005 0 0 0 17.310547 27.900391 z M 17.222656 28.007812 C 17.216456 28.013313 17.199219 28.029307 17.199219 28.029297 C 17.199262 28.029273 17.064393 28.082051 17.064453 28.082031 C 17.064514 28.082017 17.027354 28.084891 16.990234 28.087891 C 17.038574 28.065761 17.083844 28.044277 17.111328 28.029297 C 17.145948 28.010417 17.213035 27.993346 17.074219 28.041016 C 17.055079 28.047616 17.007939 28.032256 16.974609 28.035156 A 0.50005 0.50005 0 0 0 17.222656 28.007812 z " />
  <path fill="#FFFFFF" d="M 4.671875,0 C 3.9354111,0 3.2522303,0.4665654 2.9277344,0.90234375 2.6032384,1.3381221 2.4736108,1.748845 2.3769531,2.125 2.1836378,2.8773101 2.1665907,3.5761612 2.1523438,3.8339844 c -0.073089,1.3113302 0.123468,2.8171163 0.7578124,4.21875 0.6343446,1.4016336 1.8403367,2.7665606 3.6425782,3.1445316 0.039769,0.0084 0.073686,2.51e-4 0.1132812,0.0078 -0.5458044,0.34351 -1.1087513,0.602076 -1.6230468,1.03125 -0.5247892,0.434153 -1.0834089,0.954895 -1.5449219,1.646484 -1.2136511,1.819673 -0.7297151,3.965924 0.265625,5.427734 0.085444,0.125765 0.2489495,0.144336 0.3457031,0.257812 -0.5015888,0.18897 -0.7132083,0.164629 -1.4160156,0.675785 C 1.3953568,21.188185 0,22.967057 0,25.515625 c 0,1.283539 0.3637672,2.398474 1.0058594,3.210937 0.6420921,0.812464 1.5030573,1.277893 2.3085937,1.513672 0.8055364,0.23578 1.5739018,0.266917 2.2304688,0.210938 0.6565669,-0.05598 1.0867112,-0.0594 1.7695312,-0.515625 1.1704526,-0.779347 1.3982751,-1.24513 1.8710938,-1.193359 1.1580041,0.129424 2.4472041,0.32441 3.8730471,0.193359 0.771058,-0.06788 1.607878,-0.223769 2.429687,-0.605469 0.0013,-6.49e-4 0.0026,-0.0013 0.0039,-0.002 0.62141,-0.290457 1.036448,-0.583391 1.265624,-0.683594 0.225235,-0.09848 0.111327,-0.09017 0.214844,-0.04297 -0.06196,-0.02719 0.02249,0.01545 0.234375,0.207032 0.211881,0.19158 0.566282,0.538287 1.171875,0.74414 0.919969,0.313287 1.709789,0.09128 2.414063,-0.298828 0.03777,0.03725 0.02736,0.03969 0.07227,0.08008 0.316037,0.284268 1.057443,0.65824 1.773438,0.507813 0.0013,-6.49e-4 0.0026,-0.0013 0.0039,-0.002 2.542201,-0.542962 3.694867,-3.47247 2.482422,-5.66211 -0.899121,-1.623945 -2.578643,-2.329966 -4.140625,-2.646484 -1.561982,-0.316518 -3.666978,-0.342058 -4.893836,-0.127372 1.426879,-0.936914 2.56877,-0.686301 3.323523,-1.081612 0.616787,-0.265247 1.285597,-0.62681 1.734376,-1.427735 0.448398,-0.800247 0.321384,-1.98751 -0.205079,-2.779297 l -0.002,-0.002 c -0.621816,-0.932643 -1.605005,-1.439378 -2.460937,-1.623047 -0.856679,-0.183829 -1.632768,-0.136976 -2.259766,-0.103515 -1.318215,0.07034 -2.715507,0.278752 -4.097656,0.634765 0.954945,-0.775733 2.147924,-1.567321 3.375,-1.845703 1.06512,-0.23947 2.903147,-0.505693 4.572265,-1.058593 0.83456,-0.276451 1.64512,-0.616109 2.357422,-1.1875005 0.712303,-0.5713915 1.341797,-1.5219761 1.341797,-2.6152344 0,-1.7992893 -1.195092,-3.2203898 -2.583984,-3.9648437 C 19.797164,2.6053176 18.14723,2.3463678 16.539007,2.5838444 h -0.002 c -2.431604,0.3557281 -2.81887,0.1990485 -4.59375,-0.3925781 l 0.002,0.00195 C 11.13221,1.9210912 10.295501,1.8118238 9.4824219,1.8183594 8.9393805,1.8195775 8.5796148,1.935806 8.3242188,1.9941406 c -0.1146373,0.026184 -0.092973,0.024591 -0.1074219,0.027344 -0.00208,-0.00453 -0.00162,-0.00786 -0.00977,-0.017578 C 8.0506858,1.8173696 7.8606963,1.4866503 7.375,1.1015625 7.37176,1.0989445 7.3685,1.0963405 7.36523,1.0937495 6.7738587,0.6339205 5.9110427,0 4.671875,0 Z" />
  <path fill="url(#rarity)" d="m 5.653,20.456 c 0,0 -4.153,0.981 -4.153,5.06 0,4.079 4.304,3.625 4.982,3.172 0.681,-0.453 1.511,-1.588 2.871,-1.437 1.19,0.133 2.374,0.302 3.573,0.191 0.66,-0.058 1.326,-0.191 1.931,-0.472 0.89,-0.416 1.668,-1.202 2.719,-0.743 0.49,0.215 0.78,0.734 1.286,0.906 0.555,0.189 1.249,-0.028 1.671,-0.41 0.909,-0.83 1.064,0.804 1.797,0.65 1.517,-0.324 2.22,-2.137 1.483,-3.468 -1.171,-2.115 -4.859,-2.313 -6.922,-1.952 -1.243,0.219 -2.575,0.493 -3.762,0.919 -2.944,1.055 -10.045,1.433 -7.477,-2.418 z M 7.849,3.538 c 0.484,0.077 1.125,-0.222 1.64,-0.222 0.669,-0.006 1.344,0.086 1.98,0.299 1.812,0.604 2.719,0.829 5.288,0.453 2.569,-0.38 5.513,0.906 5.513,3.247 0,2.341 -4.757,2.871 -7.101,3.398 -2.34,0.53 -4.607,2.266 -5.513,3.549 -0.906,1.283 -0.377,2.115 2.34,1.283 1.387,-0.422 2.861,-0.583 4.304,-0.66 1.218,-0.065 2.624,-0.096 3.394,1.061 1.286,1.93 -2.43,2.571 -3.546,2.482 C 14.77,18.318 13.385,18.37 12.013,18.536 10.684,18.696 9.531,19.19 8.26,19.56 6.953,19.945 5.769,19.594 5.004,18.468 4.292,17.423 3.99,15.847 4.745,14.715 5.084,14.207 5.531,13.78 6,13.392 c 0.959,-0.801 2.059,-1.44 3.167,-2.01 0.484,-0.249 0.974,-0.484 1.467,-0.715 0.21,-0.099 2.085,-0.641 1.527,-1.181 C 11.825,9.162 10.57,9.588 10.184,9.637 9.12,9.767 7.923,9.955 6.86,9.73 4.371,9.208 3.53,6.07 3.65,3.917 3.681,3.356 3.758,1.5 4.671,1.5 c 0.663,0 1.265,0.382 1.773,0.777 0.42,0.333 0.774,1.095 1.329,1.246 0.024,0.006 0.049,0.009 0.074,0.016 z"/>
</svg>
