<?xml version="1.0" encoding="UTF-8" standalone="no"?>
<!-- Generated by IcoMoon.io -->

<svg
   version="1.1"
   width="22.607378"
   height="27.474676"
   viewBox="0 0 22.607378 27.474676"
   id="svg6"
   sodipodi:docname="ptk.svg"
   inkscape:version="1.1.1 (3bf5ae0d25, 2021-09-20)"
   xmlns:inkscape="http://www.inkscape.org/namespaces/inkscape"
   xmlns:sodipodi="http://sodipodi.sourceforge.net/DTD/sodipodi-0.dtd"
   xmlns="http://www.w3.org/2000/svg"
   xmlns:svg="http://www.w3.org/2000/svg">
  <defs
     id="defs10" />
  <sodipodi:namedview
     id="namedview8"
     pagecolor="#ffffff"
     bordercolor="#666666"
     borderopacity="1.0"
     inkscape:pageshadow="2"
     inkscape:pageopacity="0.0"
     inkscape:pagecheckerboard="0"
     showgrid="false"
     inkscape:zoom="25.75"
     inkscape:cx="11.514563"
     inkscape:cy="13.728155"
     inkscape:window-width="1920"
     inkscape:window-height="1009"
     inkscape:window-x="-8"
     inkscape:window-y="-8"
     inkscape:window-maximized="1"
     inkscape:current-layer="svg6" />
  <title
     id="title2">ptk</title>
  <path
     fill="#000000"
     d="m 4.153,18.956 c 0,0 -4.153,0.981 -4.153,5.06 0,4.079 4.304,3.625 4.982,3.172 0.681,-0.453 1.511,-1.588 2.871,-1.437 1.19,0.133 2.374,0.302 3.573,0.191 0.66,-0.058 1.326,-0.191 1.931,-0.472 0.89,-0.416 1.668,-1.202 2.719,-0.743 0.49,0.215 0.78,0.734 1.286,0.906 0.555,0.189 1.249,-0.028 1.671,-0.41 0.909,-0.83 1.064,0.804 1.797,0.65 1.517,-0.324 2.22,-2.137 1.483,-3.468 -1.171,-2.115 -4.859,-2.313 -6.922,-1.952 -1.243,0.219 -2.575,0.493 -3.762,0.919 C 8.685,22.427 1.584,22.805 4.152,18.954 Z M 6.349,2.038 c 0.484,0.077 1.125,-0.222 1.64,-0.222 0.669,-0.006 1.344,0.086 1.98,0.299 1.812,0.604 2.719,0.829 5.288,0.453 2.569,-0.38 5.513,0.906 5.513,3.247 0,2.341 -4.757,2.871 -7.101,3.398 -2.34,0.53 -4.607,2.266 -5.513,3.549 -0.906,1.283 -0.377,2.115 2.34,1.283 1.387,-0.422 2.861,-0.583 4.304,-0.66 1.218,-0.065 2.624,-0.096 3.394,1.061 1.286,1.93 -2.43,2.571 -3.546,2.482 C 13.27,16.818 11.885,16.87 10.513,17.036 9.184,17.196 8.031,17.69 6.76,18.06 5.453,18.445 4.269,18.094 3.504,16.968 2.792,15.923 2.49,14.347 3.245,13.215 3.584,12.707 4.031,12.28 4.5,11.892 5.459,11.091 6.559,10.452 7.667,9.882 8.151,9.633 8.641,9.398 9.134,9.167 9.344,9.068 11.219,8.526 10.661,7.986 10.325,7.662 9.07,8.088 8.684,8.137 7.62,8.267 6.423,8.455 5.36,8.23 2.871,7.708 2.03,4.57 2.15,2.417 2.181,1.856 2.258,0 3.171,0 3.834,0 4.436,0.382 4.944,0.777 5.364,1.11 5.718,1.872 6.273,2.023 6.297,2.029 6.322,2.032 6.347,2.039 Z"
     id="path4" />
</svg>
