<?xml version="1.0" encoding="UTF-8" standalone="no"?>
<svg
   version="1.1"
   width="19.550781"
   height="31.055193"
   viewBox="0 0 19.550781 31.055193"
   id="svg4"
   xmlns="http://www.w3.org/2000/svg"
   xmlns:svg="http://www.w3.org/2000/svg">
  <defs>
    <!-- This is the gradient that will actually be used on
     the cards. The colors themselves will be provided by the
     template, but the x values, y values, and offsets will be
     used from the SVG. -->
    <linearGradient id="rarity" x1="0" y1="0" x2="1" y2="0">
      <stop offset="0" style="stop-color:rgb(192,55,38);stop-opacity:1" id="stop2" />
      <stop offset="0.125" style="stop-color:rgb(192,55,38);stop-opacity:1" id="stop4" />
      <stop offset="0.5" style="stop-color:rgb(241,142,30);stop-opacity:1" id="stop6" />
      <stop offset="0.875" style="stop-color:rgb(192,55,38);stop-opacity:1" id="stop8" />
      <stop offset="1" style="stop-color:rgb(192,55,38);stop-opacity:1" id="stop10" />
    </linearGradient>
    <!-- These gradients are here so that you can visualize
     what the set symbol would like like in that rarity. The
     only gradient that matters in the end is the "rarity"
     gradient. -->
    <linearGradient id="mythic" x1="0" y1="1" x2="1" y2="0">
      <stop offset="0" style="stop-color:rgb(192,55,38);stop-opacity:1"/>
      <stop offset="0.125" style="stop-color:rgb(192,55,38);stop-opacity:1"/>
      <stop offset="0.5" style="stop-color:rgb(241,142,30);stop-opacity:1"/>
      <stop offset="0.875" style="stop-color:rgb(192,55,38);stop-opacity:1"/>
      <stop offset="1" style="stop-color:rgb(192,55,38);stop-opacity:1"/>
    </linearGradient>
    <linearGradient id="rare" x1="0" y1="1" x2="1" y2="0">
      <stop offset="0" style="stop-color:rgb(146,116,67);stop-opacity:1"/>
      <stop offset="0.125" style="stop-color:rgb(146,116,67);stop-opacity:1"/>
      <stop offset="0.5" style="stop-color:rgb(211,178,108);stop-opacity:1"/>
      <stop offset="0.875" style="stop-color:rgb(146,116,67);stop-opacity:1"/>
      <stop offset="1" style="stop-color:rgb(146,116,67);stop-opacity:1"/>
    </linearGradient>
    <linearGradient id="special" x1="0" y1="1" x2="1" y2="0">
      <stop offset="0" style="stop-color:rgb(76, 56, 106);stop-opacity:1"/>
      <stop offset="0.125" style="stop-color:rgb(76, 56, 106);stop-opacity:1"/>
      <stop offset="0.5" style="stop-color:rgb(201, 173, 221);stop-opacity:1"/>
      <stop offset="0.875" style="stop-color:rgb(76, 56, 106);stop-opacity:1"/>
      <stop offset="1" style="stop-color:rgb(76, 56, 106);stop-opacity:1"/>
    </linearGradient>
    <linearGradient id="uncommon" x1="0" y1="1" x2="1" y2="0">
      <stop offset="0" style="stop-color:rgb(98,110,119);stop-opacity:1"/>
      <stop offset="0.125" style="stop-color:rgb(98,110,119);stop-opacity:1"/>
      <stop offset="0.5" style="stop-color:rgb(196,222,238);stop-opacity:1"/>
      <stop offset="0.875" style="stop-color:rgb(98,110,119);stop-opacity:1"/>
      <stop offset="1" style="stop-color:rgb(98,110,119);stop-opacity:1"/>
    </linearGradient>
    <linearGradient id="common" x1="0" y1="1" x2="1" y2="0">
      <stop offset="0" style="stop-color:rgb(0,0,0);stop-opacity:1"/>
    </linearGradient>
    <linearGradient
            id="rarity-outline" x1="0" y1="1" x2="0" y2="1">
      <stop offset="0" style="stop-color:rgb(0,0,0);stop-opacity:1"/>
    </linearGradient>
  </defs>
  <path d="M 9.5371094 0.0078125 A 1.1251125 1.1251125 0 0 0 8.3085938 0.85351562 L 5.9023438 10.583984 L 5.5058594 10.583984 A 1.1251125 1.1251125 0 0 0 4.3808594 11.708984 L 4.3808594 13.169922 A 1.1251125 1.1251125 0 0 0 3.4394531 12.228516 L 1.125 12.228516 A 1.1251125 1.1251125 0 0 0 0 13.353516 L 0 29.929688 A 1.1251125 1.1251125 0 0 0 1.125 31.054688 L 18.425781 31.054688 A 1.1251125 1.1251125 0 0 0 19.550781 29.929688 L 19.550781 13.230469 A 1.1251125 1.1251125 0 0 0 18.425781 12.105469 L 15.910156 12.105469 A 1.1251125 1.1251125 0 0 0 15.361328 12.605469 L 15.285156 12.605469 L 15.285156 12.722656 A 1.1251125 1.1251125 0 0 0 15.271484 12.744141 L 15.271484 11.710938 A 1.1251125 1.1251125 0 0 0 14.146484 10.585938 L 13.009766 10.585938 L 10.490234 0.84179688 L 10.525391 1.1230469 A 1.1251125 1.1251125 0 0 0 9.5371094 0.0078125 z M 9.4609375 13.542969 C 10.373603 13.542969 11.097656 14.266927 11.097656 15.175781 C 11.097656 16.089717 10.373603 16.814453 9.4609375 16.814453 C 8.5520833 16.814453 7.8261719 16.089717 7.8261719 15.175781 C 7.8261719 14.266593 8.5508123 13.542969 9.4609375 13.542969 z " />
  <path fill="url(#rarity)" d="m 9.46,12.917551 c -1.248,0 -2.259,1.012 -2.259,2.259 0,1.251 1.012,2.263 2.259,2.263 1.25,0 2.262,-1.012 2.262,-2.263 0,-1.247 -1.012,-2.259 -2.262,-2.259 z M 9.401,1.1245515 12.139,11.710551 h 2.008 v 3.287 h 1.763 v -1.766 h 2.515 v 16.698 h -17.3 v -16.576 h 2.314 v 3.406 h 2.066 v -5.05 H 6.784 L 9.401,1.1235515 Z"/>
</svg>
