<?xml version="1.0" encoding="UTF-8" standalone="no"?>
<svg
   version="1.1"
   width="33.998936"
   height="21.5625"
   viewBox="0 0 33.998935 21.5625"
   id="svg4"
   xmlns="http://www.w3.org/2000/svg"
   xmlns:svg="http://www.w3.org/2000/svg">
  <defs>
    <!-- This is the gradient that will actually be used on
     the cards. The colors themselves will be provided by the
     template, but the x values, y values, and offsets will be
     used from the SVG. -->
    <linearGradient id="rarity" x1="0" y1="0" x2="1" y2="0">
      <stop offset="0" style="stop-color:rgb(192,55,38);stop-opacity:1" id="stop2" />
      <stop offset="0.125" style="stop-color:rgb(192,55,38);stop-opacity:1" id="stop4" />
      <stop offset="0.5" style="stop-color:rgb(241,142,30);stop-opacity:1" id="stop6" />
      <stop offset="0.875" style="stop-color:rgb(192,55,38);stop-opacity:1" id="stop8" />
      <stop offset="1" style="stop-color:rgb(192,55,38);stop-opacity:1" id="stop10" />
    </linearGradient>
    <!-- These gradients are here so that you can visualize
     what the set symbol would like like in that rarity. The
     only gradient that matters in the end is the "rarity"
     gradient. -->
    <linearGradient id="mythic" x1="0" y1="1" x2="1" y2="0">
      <stop offset="0" style="stop-color:rgb(192,55,38);stop-opacity:1"/>
      <stop offset="0.125" style="stop-color:rgb(192,55,38);stop-opacity:1"/>
      <stop offset="0.5" style="stop-color:rgb(241,142,30);stop-opacity:1"/>
      <stop offset="0.875" style="stop-color:rgb(192,55,38);stop-opacity:1"/>
      <stop offset="1" style="stop-color:rgb(192,55,38);stop-opacity:1"/>
    </linearGradient>
    <linearGradient id="rare" x1="0" y1="1" x2="1" y2="0">
      <stop offset="0" style="stop-color:rgb(146,116,67);stop-opacity:1"/>
      <stop offset="0.125" style="stop-color:rgb(146,116,67);stop-opacity:1"/>
      <stop offset="0.5" style="stop-color:rgb(211,178,108);stop-opacity:1"/>
      <stop offset="0.875" style="stop-color:rgb(146,116,67);stop-opacity:1"/>
      <stop offset="1" style="stop-color:rgb(146,116,67);stop-opacity:1"/>
    </linearGradient>
    <linearGradient id="special" x1="0" y1="1" x2="1" y2="0">
      <stop offset="0" style="stop-color:rgb(76, 56, 106);stop-opacity:1"/>
      <stop offset="0.125" style="stop-color:rgb(76, 56, 106);stop-opacity:1"/>
      <stop offset="0.5" style="stop-color:rgb(201, 173, 221);stop-opacity:1"/>
      <stop offset="0.875" style="stop-color:rgb(76, 56, 106);stop-opacity:1"/>
      <stop offset="1" style="stop-color:rgb(76, 56, 106);stop-opacity:1"/>
    </linearGradient>
    <linearGradient id="uncommon" x1="0" y1="1" x2="1" y2="0">
      <stop offset="0" style="stop-color:rgb(98,110,119);stop-opacity:1"/>
      <stop offset="0.125" style="stop-color:rgb(98,110,119);stop-opacity:1"/>
      <stop offset="0.5" style="stop-color:rgb(196,222,238);stop-opacity:1"/>
      <stop offset="0.875" style="stop-color:rgb(98,110,119);stop-opacity:1"/>
      <stop offset="1" style="stop-color:rgb(98,110,119);stop-opacity:1"/>
    </linearGradient>
    <linearGradient id="common" x1="0" y1="1" x2="1" y2="0">
      <stop offset="0" style="stop-color:rgb(0,0,0);stop-opacity:1"/>
    </linearGradient>
    <linearGradient
            id="rarity-outline" x1="0" y1="1" x2="0" y2="1">
      <stop offset="0" style="stop-color:rgb(0,0,0);stop-opacity:1"/>
    </linearGradient>
  </defs>
  <path fill="url(#rarity-outline)" d="M 9.2890625,0 5.53125,0.0175781 C 4.0249812,0.0245511 2.5135721,0.0194801 0.99804687,0.0214841 H 0 v 1 0.00195 19.6367185 l 1.8632812,-3.171875 c 0.9246798,-1.574889 2.0931129,-3.005455 3.453125,-4.222656 0,0 0.1734878,-0.195116 0.3339844,-0.298828 0.1604966,-0.103712 0.6386719,-0.283203 0.6386719,-0.283203 0.2786066,0.704351 0.5570735,1.408867 0.8359375,2.113281 l 0.9355469,2.363281 0.9238281,-2.367187 c 0.2136962,-0.546576 0.4313262,-1.094341 0.6503906,-1.644532 l 0.8535154,0.439453 0.519531,0.382813 c 2.115945,1.559067 3.87761,3.602214 5.107422,5.923828 L 17,21.5625 17.882812,19.892578 c 1.22864,-2.322126 2.991571,-4.363822 5.107422,-5.921875 0,0 0.28277,-0.258848 0.519532,-0.382813 0.236762,-0.123965 0.90625,-0.310546 0.90625,-0.310546 0.200246,0.505186 0.40027,1.009826 0.597656,1.513672 l 0.925781,2.365234 0.933594,-2.361328 c 0.289942,-0.732594 0.579545,-1.466538 0.869141,-2.201172 l 0.611328,0.378906 0.332031,0.296875 c 1.358789,1.211485 2.525583,2.643202 3.451172,4.216797 l 1.859375,3.164062 0.002,-3.669921 c 0.002,-5.319371 0,-10.6401153 0,-15.9589847 V 0.02343748 L 33,0.02148435 c -1.515525,-0.002005 -3.024981,0.00502 -4.53125,-0.001953 L 24.617188,1.5e-7 27.972656,1.8906251 c 0.237164,0.1334785 0.407998,0.4590709 0.382813,0.7402342 l -0.0039,0.042969 v 0.044922 c -0.0015,0.6695553 -0.0021,1.3360092 -0.002,2.0039062 C 25.793095,2.6500021 22.852162,1.0127628 19.540976,0.52734402 16.516976,0.06925635 13.39011,0.44586222 10.558554,1.5859378 8.7547736,2.3047069 7.1478522,3.3810626 5.6503906,4.5859375 c -2.446e-4,-0.6965884 -0.00199,-1.3944359 0,-2.0898438 6.932e-4,-0.2103796 0.1621987,-0.4844492 0.3847656,-0.6132812 z m 7.7285155,6.2148437 a 1.9461689,1.9461689 0 0 1 1.947266,1.9453125 1.9461689,1.9461689 0 0 1 -1.947266,1.9472658 1.9461689,1.9461689 0 0 1 -1.945312,-1.9472658 1.9461689,1.9461689 0 0 1 1.945312,-1.9453125 z" />
  <path fill="url(#rarity)" d="M 5.5351562,1.0175781 C 4.0231563,1.0245781 2.512,1.0194843 1,1.0214843 v 0.00195 15.9589845 c 0.977,-1.664 2.2104375,-3.173938 3.6484375,-4.460938 -0.001,-0.785 0.001,-1.570468 0,-2.355468 0.543,-0.4770004 1.1111719,-0.9257973 1.7011719,-1.3417973 0.002,0.379 -9.531e-4,0.7577188 -0.00195,1.1367188 -0.012,0.1900005 0.085391,0.3612035 0.1503907,0.5332035 0.519,1.311999 1.0376406,2.622593 1.5566406,3.933593 0.563,-1.44 1.1493594,-2.873312 1.6933594,-4.320312 0.021,-1.0650002 0.00277,-2.1313126 0.00977,-3.1953127 C 10.38182,6.6451094 11.02093,6.4099375 11.66993,6.2109375 c 0.448,2.291 0.420641,4.6730785 -0.06836,6.9550785 2.238001,1.649 4.095485,3.803765 5.396485,6.259765 1.3,-2.457 3.160437,-4.611766 5.398437,-6.259765 -0.491,-2.283 -0.514359,-4.6640785 -0.06836,-6.9550785 0.65,0.199 1.288109,0.4311719 1.912109,0.7011718 0.009,1.073 -0.01738,2.1487032 0.01563,3.2207037 0.552,1.433999 1.1265,2.860968 1.6875,4.292968 0.562,-1.42 1.127594,-2.839719 1.683594,-4.261718 0.055,-0.4430005 0.0064,-0.8957974 0.02344,-1.3417974 0.59,0.416 1.157218,0.8637969 1.699218,1.3417974 0,0.786 -0.002,1.572374 0.002,2.359374 1.439001,1.283 2.669485,2.796032 3.646485,4.457032 0.002,-5.319 0,-10.6399847 0,-15.9589847 -1.512,-0.002 -3.021203,0.00505 -4.533203,-0.00195 0.597,0.336 0.947718,1.0201719 0.886718,1.7011719 -0.003,1.325 4.7e-5,2.6496094 -0.002,3.9746094 -2.692,-2.674 -6.174125,-4.6256875 -9.953125,-5.1796875 -2.845,-0.432 -5.80075,-0.075 -8.46875,1 -2.354,0.938 -4.4792969,2.4017344 -6.2792969,4.1777343 0,-1.3999999 -0.00205,-2.7992187 0.00195,-4.1992187 0.00199,-0.607 0.3647551,-1.1755625 0.8847551,-1.4765625 z m 11.4746098,4.65625 c 0.952916,0.00944 1.891031,0.60675 2.246093,1.5078125 0.466,1.059 0.03392,2.4020469 -0.955078,2.9980474 -0.989,0.651999 -2.427922,0.427859 -3.169922,-0.4941411 -0.768,-0.876 -0.757609,-2.3030157 0.02539,-3.1660157 0.314,-0.362 0.735266,-0.6298593 1.197266,-0.7558593 l 0.002,0.00195 c 0.214687,-0.063938 0.434393,-0.093975 0.654297,-0.091797 z" />
</svg>
