<?xml version="1.0" encoding="UTF-8" standalone="no"?>
<!-- Generated by IcoMoon.io -->

<svg
   version="1.1"
   width="25.257999"
   height="27.479277"
   viewBox="0 0 25.257999 27.479277"
   id="svg6"
   sodipodi:docname="s00.svg"
   inkscape:version="1.1.1 (3bf5ae0d25, 2021-09-20)"
   xmlns:inkscape="http://www.inkscape.org/namespaces/inkscape"
   xmlns:sodipodi="http://sodipodi.sourceforge.net/DTD/sodipodi-0.dtd"
   xmlns="http://www.w3.org/2000/svg"
   xmlns:svg="http://www.w3.org/2000/svg">
  <defs
     id="defs10" />
  <sodipodi:namedview
     id="namedview8"
     pagecolor="#ffffff"
     bordercolor="#666666"
     borderopacity="1.0"
     inkscape:pageshadow="2"
     inkscape:pageopacity="0.0"
     inkscape:pagecheckerboard="0"
     showgrid="false"
     inkscape:zoom="25.75"
     inkscape:cx="12.990291"
     inkscape:cy="13.728155"
     inkscape:window-width="1920"
     inkscape:window-height="1009"
     inkscape:window-x="-8"
     inkscape:window-y="-8"
     inkscape:window-maximized="1"
     inkscape:current-layer="svg6" />
  <title
     id="title2">s00</title>
  <path
     fill="#000000"
     d="m 21.186,6.408688 c 0.127,0 0.188,-0.06 0.188,-0.188 L 20.962,0.42768803 c 0,-0.102 -0.063,-0.162 -0.188,-0.188 -1.534,-0.311 -3.349,-0.251 -4.909,-0.193 -4.312,0.162 -9.246,2.40699997 -9.246,7.39499997 0,4.63 4.912,6.361 8.4,7.988 2.788,1.306 4.183,3.003 4.183,5.096 0,2.284 -1.963,3.698 -3.914,4.389 -1.629,0.574 -3.574,0.989 -5.308,0.574 -2.679,-0.64 -3.244,-3.914 -3.371,-3.952 l -0.895,-0.481 c -0.127,0 -0.187,0.063 -0.187,0.187 l 0.599,5.442 c 0,0.076 0.063,0.14 0.188,0.188 0.412,0.162 0.865,0.301 1.363,0.412 1.491,0.333 3.444,0.171 4.96,0.012 4.367,-0.45 9.998,-3.146 9.998,-8.226 0,-1.151 -0.361,-2.451 -0.998,-3.409 -2.56,-3.843 -8.042,-3.504 -10.779,-7.037 -1.274,-1.646 -1.214,-4.402 0.577,-5.756 1.948,-1.474 6.035,-2.57199997 7.481,0.086 0.333,0.612 1.094,2.784 1.218,2.784 l 1.053,0.669 z m -11.901,17.685 c 0.266,0.193 0.567,0.358 0.923,0.441 0.39,0.092 0.818,0.14 1.278,0.14 0.123,0 0.26,-0.013 0.39,-0.019 l 4.208,-4.42 1.595,0.326 c -0.266,-1.566 -1.516,-2.857 -3.799,-3.926 -0.326,-0.155 -0.666,-0.307 -1.024,-0.469 -2.556,-1.154 -5.578,-2.524 -6.951,-5.029 l -5.905,2.73 8.635,4.316 0.65,5.911 z m 2.981,-20.609 c -0.08,0.058 -0.165,0.108 -0.238,0.165 -0.564,0.425 -0.929,1.088 -1.034,1.868 -0.117,0.898 0.121,1.836 0.638,2.505 1.157,1.497 2.943,2.229 4.833,3.006 1.576,0.647 3.186,1.319 4.525,2.464 l 4.268,-7.721 -9.066,1.835 z m 12.776,18.583 -1.906,-0.39 c 0.276,-0.736 0.432,-1.509 0.464,-2.314 l 1.443,2.705 z"
     id="path4" />
</svg>
