<?xml version="1.0" encoding="UTF-8" standalone="no"?>
<svg
   version="1.1"
   width="31.275158"
   height="31.718506"
   viewBox="0 0 31.275158 31.718506"
   id="svg4"
   xmlns="http://www.w3.org/2000/svg"
   xmlns:svg="http://www.w3.org/2000/svg">
  <defs>
    <!-- This is the gradient that will actually be used on
     the cards. The colors themselves will be provided by the
     template, but the x values, y values, and offsets will be
     used from the SVG. -->
    <linearGradient id="rarity" x1="0" y1="1" x2="1" y2="0">
      <stop offset="0" style="stop-color:rgb(192,55,38);stop-opacity:1" id="stop2" />
      <stop offset="0.125" style="stop-color:rgb(192,55,38);stop-opacity:1" id="stop4" />
      <stop offset="0.5" style="stop-color:rgb(241,142,30);stop-opacity:1" id="stop6" />
      <stop offset="0.875" style="stop-color:rgb(192,55,38);stop-opacity:1" id="stop8" />
      <stop offset="1" style="stop-color:rgb(192,55,38);stop-opacity:1" id="stop10" />
    </linearGradient>
    <!-- These gradients are here so that you can visualize
     what the set symbol would like like in that rarity. The
     only gradient that matters in the end is the "rarity"
     gradient. -->
    <linearGradient id="mythic" x1="0" y1="1" x2="1" y2="0">
      <stop offset="0" style="stop-color:rgb(192,55,38);stop-opacity:1"/>
      <stop offset="0.125" style="stop-color:rgb(192,55,38);stop-opacity:1"/>
      <stop offset="0.5" style="stop-color:rgb(241,142,30);stop-opacity:1"/>
      <stop offset="0.875" style="stop-color:rgb(192,55,38);stop-opacity:1"/>
      <stop offset="1" style="stop-color:rgb(192,55,38);stop-opacity:1"/>
    </linearGradient>
    <linearGradient id="rare" x1="0" y1="1" x2="1" y2="0">
      <stop offset="0" style="stop-color:rgb(146,116,67);stop-opacity:1"/>
      <stop offset="0.125" style="stop-color:rgb(146,116,67);stop-opacity:1"/>
      <stop offset="0.5" style="stop-color:rgb(211,178,108);stop-opacity:1"/>
      <stop offset="0.875" style="stop-color:rgb(146,116,67);stop-opacity:1"/>
      <stop offset="1" style="stop-color:rgb(146,116,67);stop-opacity:1"/>
    </linearGradient>
    <linearGradient id="special" x1="0" y1="1" x2="1" y2="0">
      <stop offset="0" style="stop-color:rgb(76, 56, 106);stop-opacity:1"/>
      <stop offset="0.125" style="stop-color:rgb(76, 56, 106);stop-opacity:1"/>
      <stop offset="0.5" style="stop-color:rgb(201, 173, 221);stop-opacity:1"/>
      <stop offset="0.875" style="stop-color:rgb(76, 56, 106);stop-opacity:1"/>
      <stop offset="1" style="stop-color:rgb(76, 56, 106);stop-opacity:1"/>
    </linearGradient>
    <linearGradient id="uncommon" x1="0" y1="1" x2="1" y2="0">
      <stop offset="0" style="stop-color:rgb(98,110,119);stop-opacity:1"/>
      <stop offset="0.125" style="stop-color:rgb(98,110,119);stop-opacity:1"/>
      <stop offset="0.5" style="stop-color:rgb(196,222,238);stop-opacity:1"/>
      <stop offset="0.875" style="stop-color:rgb(98,110,119);stop-opacity:1"/>
      <stop offset="1" style="stop-color:rgb(98,110,119);stop-opacity:1"/>
    </linearGradient>
    <linearGradient id="common" x1="0" y1="1" x2="1" y2="0">
      <stop offset="0" style="stop-color:rgb(0,0,0);stop-opacity:1"/>
    </linearGradient>
    <linearGradient
            id="rarity-outline" x1="0" y1="1" x2="0" y2="1">
      <stop offset="0" style="stop-color:rgb(0,0,0);stop-opacity:1"/>
    </linearGradient>
  </defs>
  <path fill="#FFFFFF" d="M 25.847656 0.005859375 A 1.0001 1.0001 0 0 0 25.042969 0.2734375 L 16.640625 8.2441406 L 16.867188 6.203125 A 1.0001 1.0001 0 0 0 16.867188 6.2011719 A 1.0001 1.0001 0 0 0 16.867188 6.1992188 A 1.0001 1.0001 0 0 0 16.867188 6.1972656 A 1.0001 1.0001 0 0 0 16.867188 6.1953125 A 1.0001 1.0001 0 0 0 16.867188 6.1933594 A 1.0001 1.0001 0 0 0 16.867188 6.1914062 A 1.0001 1.0001 0 0 0 16.867188 6.1894531 A 1.0001 1.0001 0 0 0 16.867188 6.1875 C 16.867188 6.1875 16.899189 5.9286959 16.824219 5.6210938 C 16.749255 5.3134917 16.474606 4.7899483 15.923828 4.59375 C 15.604812 4.4801098 15.207772 4.5171272 14.947266 4.6386719 C 14.686759 4.7602165 14.537063 4.9205964 14.431641 5.0507812 C 14.261998 5.2602703 14.192778 5.424524 14.166016 5.4941406 L 13.533203 6.8769531 C 13.494009 6.7935114 13.503947 6.7708437 13.402344 6.6464844 C 13.30176 6.5233735 13.145379 6.3559768 12.847656 6.2519531 C 12.549934 6.1479294 12.121945 6.202394 11.859375 6.359375 C 11.31519 6.6847231 11.134766 7.3535156 11.134766 7.3535156 L 10.492188 9.8476562 C 10.225725 9.6873556 9.8349011 9.5797744 9.5058594 9.6640625 C 8.9415961 9.8086008 8.6882319 10.278629 8.6015625 10.529297 C 8.5446026 10.694039 8.5271644 10.816236 8.5195312 10.898438 L 8.0136719 14.583984 L 5.2910156 18.873047 L 0.2578125 24.451172 A 1.0001 1.0001 0 0 0 0.08203125 25.519531 L 2.515625 31.117188 A 1.0001 1.0001 0 0 0 3.59375 31.705078 L 10.023438 30.660156 A 1.0001 1.0001 0 0 0 10.460938 30.474609 L 12.738281 28.773438 A 1.0001 1.0001 0 0 0 12.867188 29.083984 L 14.414062 30.628906 A 1.0001 1.0001 0 0 0 15.855469 30.599609 L 16.787109 29.59375 L 17.550781 29.208984 A 1.0001 1.0001 0 0 0 18.091797 28.179688 L 18.019531 27.648438 L 19.90625 27.179688 A 1.0001 1.0001 0 0 0 20.480469 25.632812 L 19.8125 24.685547 L 21.214844 23.255859 L 29.064453 25.462891 A 1.0001 1.0001 0 0 0 30.335938 24.5 L 30.335938 23.65625 A 1.0001 1.0001 0 0 0 30.103516 23.015625 L 29.986328 22.875 A 1.0001 1.0001 0 0 0 29.982422 22.871094 L 25.1875 17.1875 L 26.15625 15.357422 A 1.0001 1.0001 0 0 0 26.130859 14.378906 L 25.664062 13.59375 L 26.925781 12.242188 A 1.0001 1.0001 0 0 0 27.095703 11.126953 L 26.474609 9.8359375 L 31.126953 2.2753906 A 1.0001 1.0001 0 0 0 29.734375 0.91015625 L 26.087891 3.2519531 L 26.6875 1.2929688 A 1.0001 1.0001 0 0 0 25.847656 0.005859375 z " />
  <path fill="#000000" d="M 25.730451,0.99976625 15.343732,10.851329 15.873029,6.0915632 c 0,0 0.04132,-0.4383887 -0.285156,-0.5546875 C 15.261394,5.420577 15.074201,5.9099226 15.074201,5.9099226 L 13.269514,9.8513288 12.718732,7.4411726 c 0,0 -0.127207,-0.3552401 -0.345703,-0.2246094 -0.218496,0.1306307 -0.253906,0.3203125 -0.253906,0.3203125 L 10.882795,12.343516 10.05467,10.741954 c 0,0 -0.071895,-0.168007 -0.3007811,-0.109375 -0.2288857,0.05863 -0.2441406,0.402344 -0.2441406,0.402344 L 8.974592,14.935313 6.0898264,19.480235 0.99998262,25.12086 3.4335764,30.718516 9.8632639,29.673594 13.574201,26.900157 v 1.476562 l 1.546875,1.544922 1.054688,-1.140625 0.925781,-0.464844 -0.195313,-1.419922 2.757813,-0.6875 -1.148438,-1.628906 2.400391,-2.447265 8.419922,2.367187 v -0.84375 l -0.117188,-0.140625 -5.230468,-6.199219 1.283203,-2.425781 -0.84961,-1.429687 1.771485,-1.900391 -0.855469,-1.7832029 4.9375,-8.0253907 -5.943359,3.8164063 z M 13.644514,16.21461 c 0.10398,0.627725 0.246997,1.287004 0.07226,1.779297 -0.25087,0.706823 -0.671239,1.083984 -1.158203,1.083984 -0.866059,0 -1.242222,-0.573538 -1.421875,-0.914062 z" />
  <path fill="url(#rarity)" d="m 12.557826,19.577688 c -1.494,0 -2.071,-1.54 -2.071,-1.54 l 3.588,-2.791 c 0.828,1.995 -0.022,4.332 -1.517,4.332 z m 16.279,4.261 -5.449,-6.459 1.31,-2.475 -0.896,-1.512 1.793,-1.924 -0.826,-1.7209998 3.932,-6.391 -5.246,3.368 1.242,-4.055 -10.001,9.4849998 0.618,-5.5659998 -2.203,4.8089998 -0.692,-3.0229998 -1.378,5.3599998 -1.1029996,-2.13 -0.482,3.507 -2.967,4.673 -4.899,5.428 1.31,2.888 0.482,-1.718 1.45,0.413 v -0.757 l 1.035,0.274 0.275,-1.099 1.171,0.619 0.346,-1.579 1.864,1.373 -1.382,0.071 v 0.96 l -1.517,-0.139 0.482,0.964 -1.446,-0.619 -0.139,1.238 -1.725,-0.206 -0.482,1.373 0.414,0.896 5.934,-0.964 4.4129996,-3.3 v 2.269 l 1.032,1.031 0.764,-0.825 0.686,-0.345 -0.207,-1.512 2.485,-0.619 -0.967,-1.373 2.899,-2.956 8.07,2.269 z"/>
</svg>
