<?xml version="1.0" encoding="UTF-8" standalone="no"?>
<!-- Generated by IcoMoon.io -->

<svg
   version="1.1"
   width="27.247"
   height="27.495001"
   viewBox="0 0 27.247 27.495001"
   id="svg6"
   sodipodi:docname="scg.svg"
   inkscape:version="1.1.1 (3bf5ae0d25, 2021-09-20)"
   xmlns:inkscape="http://www.inkscape.org/namespaces/inkscape"
   xmlns:sodipodi="http://sodipodi.sourceforge.net/DTD/sodipodi-0.dtd"
   xmlns="http://www.w3.org/2000/svg"
   xmlns:svg="http://www.w3.org/2000/svg">
  <defs
     id="defs10" />
  <sodipodi:namedview
     id="namedview8"
     pagecolor="#ffffff"
     bordercolor="#666666"
     borderopacity="1.0"
     inkscape:pageshadow="2"
     inkscape:pageopacity="0.0"
     inkscape:pagecheckerboard="0"
     showgrid="false"
     inkscape:zoom="25.75"
     inkscape:cx="13.533981"
     inkscape:cy="13.728155"
     inkscape:window-width="1920"
     inkscape:window-height="1009"
     inkscape:window-x="-8"
     inkscape:window-y="-8"
     inkscape:window-maximized="1"
     inkscape:current-layer="svg6" />
  <title
     id="title2">scg</title>
  <path
     fill="#000000"
     d="m 10.968,16.908 c -1.494,0 -2.071,-1.54 -2.071,-1.54 l 3.588,-2.791 c 0.828,1.995 -0.022,4.332 -1.517,4.332 z M 27.247,21.169 21.798,14.71 23.108,12.235 22.212,10.723 24.005,8.799 23.179,7.078 27.111,0.687 21.865,4.055 23.107,0 13.106,9.485 13.724,3.919 11.521,8.728 10.829,5.705 9.451,11.065 8.348,8.935 7.866,12.442 4.899,17.115 0,22.543 l 1.31,2.888 0.482,-1.718 1.45,0.413 v -0.757 l 1.035,0.274 0.275,-1.099 1.171,0.619 0.346,-1.579 1.864,1.373 -1.382,0.071 v 0.96 L 5.034,23.849 5.516,24.813 4.07,24.194 3.931,25.432 2.206,25.226 l -0.482,1.373 0.414,0.896 5.934,-0.964 4.413,-3.3 V 25.5 l 1.032,1.031 0.764,-0.825 0.686,-0.345 -0.207,-1.512 2.485,-0.619 -0.967,-1.373 2.899,-2.956 8.07,2.269 z"
     id="path4" />
</svg>
