<?xml version="1.0" encoding="UTF-8" standalone="no"?>
<!-- Generated by IcoMoon.io -->

<svg
   version="1.1"
   width="31.999592"
   height="17.966038"
   viewBox="0 0 31.999592 17.966038"
   id="svg6"
   sodipodi:docname="shm.svg"
   inkscape:version="1.1.1 (3bf5ae0d25, 2021-09-20)"
   xmlns:inkscape="http://www.inkscape.org/namespaces/inkscape"
   xmlns:sodipodi="http://sodipodi.sourceforge.net/DTD/sodipodi-0.dtd"
   xmlns="http://www.w3.org/2000/svg"
   xmlns:svg="http://www.w3.org/2000/svg">
  <defs
     id="defs10" />
  <sodipodi:namedview
     id="namedview8"
     pagecolor="#ffffff"
     bordercolor="#666666"
     borderopacity="1.0"
     inkscape:pageshadow="2"
     inkscape:pageopacity="0.0"
     inkscape:pagecheckerboard="0"
     showgrid="false"
     inkscape:zoom="25.75"
     inkscape:cx="15.980583"
     inkscape:cy="8.9514563"
     inkscape:window-width="1920"
     inkscape:window-height="1009"
     inkscape:window-x="-8"
     inkscape:window-y="-8"
     inkscape:window-maximized="1"
     inkscape:current-layer="svg6" />
  <title
     id="title2">shm</title>
  <path
     fill="#000000"
     d="m 27.862,17.966037 c 1.477,-1.505 1.957,-2.546 1.468,-3.296 -0.306,-0.467 -0.985,-0.825 -1.676,-0.997 -1.236,-0.305 -2.511,-0.026 -3.707,0.454 -1.933,0.777 -3.656,2.077 -4.934,3.685 -0.29,-0.914 -0.793,-1.75 -1.482,-2.479 -0.582,-0.615 -1.302,-1.154 -2.088,-1.302 -0.784,-0.148 -1.637,0.092 -2.434,0.34 -0.485,0.149 -0.948,0.303 -1.4,0.511 0.111,-0.273 0.188,-0.548 0.257,-0.838 0.139,-0.613 0.228,-1.301 -0.013,-1.831 -0.354,-0.77 -1.413,-1.206 -2.374,-1.274 -0.81,-0.059 -1.55,0.144 -2.221,0.493 0.375,-0.375 0.669,-0.808 0.921,-1.29 0.264,-0.4950001 0.488,-1.0450001 0.419,-1.5750001 -0.08,-0.637 -0.574,-1.25 -1.16,-1.575 -0.737,-0.411 -1.625,-0.367 -2.467,-0.302 -0.478,0.037 -0.943,0.079 -1.404,0.181 0.434,-0.365 0.788,-0.805 1.091,-1.296 0.279,-0.445 0.512,-0.933 0.516,-1.448 0.006,-0.609 -0.308,-1.253 -0.779,-1.649 -0.536,-0.45 -1.208,-0.793 -1.919,-0.911 -0.806,-0.133 -1.681,-0.218 -2.476,-0.202 C 1.949,0.46103687 4.155,0.00403687 6.317,3.6874106e-5 8.208,-0.00496313 10.093,0.49903687 11.866,1.1990369 c 3.479,1.377 6.643,4.062 8.904,6.588 0.655,-0.619 1.207,-1.33 1.885,-1.701 0.569,-0.309 1.169,-0.534 1.811,-0.6 1.1,-0.113 2.327,0.229 3.529,0.912 -3.346,0.831 -5.017,2.936 -5.232,4.2630001 0.897,-0.181 1.933,-0.177 3.065,-0.135 2.066,0.074 4.451,0.266 5.578,1.907 0.505,0.735 0.757,1.763 0.478,2.567 -0.244,0.705 -0.895,1.239 -1.552,1.699 -0.788,0.555 -1.583,0.997 -2.472,1.265 z"
     id="path4" />
</svg>
