<?xml version="1.0" encoding="UTF-8" standalone="no"?>
<svg
   version="1.1"
   width="36.31356"
   height="20.328159"
   viewBox="0 0 36.313561 20.32816"
   id="svg4"
   xmlns="http://www.w3.org/2000/svg"
   xmlns:svg="http://www.w3.org/2000/svg">
  <defs>
    <!-- This is the gradient that will actually be used on
     the cards. The colors themselves will be provided by the
     template, but the x values, y values, and offsets will be
     used from the SVG. -->
    <linearGradient id="rarity" x1="0.25" y1="0" x2="0.75" y2="1">
      <stop offset="0" style="stop-color:rgb(192,55,38);stop-opacity:1" id="stop2" />
      <stop offset="0.125" style="stop-color:rgb(192,55,38);stop-opacity:1" id="stop4" />
      <stop offset="0.5" style="stop-color:rgb(241,142,30);stop-opacity:1" id="stop6" />
      <stop offset="0.875" style="stop-color:rgb(192,55,38);stop-opacity:1" id="stop8" />
      <stop offset="1" style="stop-color:rgb(192,55,38);stop-opacity:1" id="stop10" />
    </linearGradient>
    <!-- These gradients are here so that you can visualize
     what the set symbol would like like in that rarity. The
     only gradient that matters in the end is the "rarity"
     gradient. -->
    <linearGradient id="mythic" x1="0" y1="1" x2="1" y2="0">
      <stop offset="0" style="stop-color:rgb(192,55,38);stop-opacity:1"/>
      <stop offset="0.125" style="stop-color:rgb(192,55,38);stop-opacity:1"/>
      <stop offset="0.5" style="stop-color:rgb(241,142,30);stop-opacity:1"/>
      <stop offset="0.875" style="stop-color:rgb(192,55,38);stop-opacity:1"/>
      <stop offset="1" style="stop-color:rgb(192,55,38);stop-opacity:1"/>
    </linearGradient>
    <linearGradient id="rare" x1="0" y1="1" x2="1" y2="0">
      <stop offset="0" style="stop-color:rgb(146,116,67);stop-opacity:1"/>
      <stop offset="0.125" style="stop-color:rgb(146,116,67);stop-opacity:1"/>
      <stop offset="0.5" style="stop-color:rgb(211,178,108);stop-opacity:1"/>
      <stop offset="0.875" style="stop-color:rgb(146,116,67);stop-opacity:1"/>
      <stop offset="1" style="stop-color:rgb(146,116,67);stop-opacity:1"/>
    </linearGradient>
    <linearGradient id="special" x1="0" y1="1" x2="1" y2="0">
      <stop offset="0" style="stop-color:rgb(76, 56, 106);stop-opacity:1"/>
      <stop offset="0.125" style="stop-color:rgb(76, 56, 106);stop-opacity:1"/>
      <stop offset="0.5" style="stop-color:rgb(201, 173, 221);stop-opacity:1"/>
      <stop offset="0.875" style="stop-color:rgb(76, 56, 106);stop-opacity:1"/>
      <stop offset="1" style="stop-color:rgb(76, 56, 106);stop-opacity:1"/>
    </linearGradient>
    <linearGradient id="uncommon" x1="0" y1="1" x2="1" y2="0">
      <stop offset="0" style="stop-color:rgb(98,110,119);stop-opacity:1"/>
      <stop offset="0.125" style="stop-color:rgb(98,110,119);stop-opacity:1"/>
      <stop offset="0.5" style="stop-color:rgb(196,222,238);stop-opacity:1"/>
      <stop offset="0.875" style="stop-color:rgb(98,110,119);stop-opacity:1"/>
      <stop offset="1" style="stop-color:rgb(98,110,119);stop-opacity:1"/>
    </linearGradient>
    <linearGradient id="common" x1="0" y1="1" x2="1" y2="0">
      <stop offset="0" style="stop-color:rgb(0,0,0);stop-opacity:1"/>
    </linearGradient>
    <linearGradient
            id="rarity-outline" x1="0" y1="1" x2="0" y2="1">
      <stop offset="0" style="stop-color:rgb(0,0,0);stop-opacity:1"/>
    </linearGradient>
  </defs>
  <path fill="url(#rarity-outline)" d="M 9.8691406,3.4794918e-5 C 7.6030201,0.00449579 5.2951349,0.48155613 3.2382813,1.4355817 L 0,2.9375348 3.5703125,2.8652692 c 0.7305038,-0.014702 1.5672762,0.064245 2.3378906,0.1914062 0.5547209,0.092063 1.1152816,0.3739101 1.5585938,0.7460938 0.2901047,0.2439097 0.5151279,0.7203772 0.5117187,1.0664062 v 0.00195 C 7.9762439,5.1636179 7.8258662,5.5306733 7.578125,5.925816 l -0.00195,0.00391 -0.00195,0.00195 C 7.303154,6.3709148 6.9991929,6.7437067 6.6386719,7.0469098 L 4.3007812,9.0137067 7.2832031,8.3535504 c 0.3995323,-0.0884 0.8290084,-0.1294976 1.3007813,-0.1660156 0.8275495,-0.063885 1.5496706,-0.066111 2.0429686,0.2089844 l 0.0019,0.00195 c 0.392541,0.2177074 0.739452,0.6944514 0.779297,1.0117187 v 0.00195 0.00195 c 0.0336,0.2580709 -0.0976,0.6781101 -0.335938,1.1250001 l -0.002,0.002 -0.0019,0.0039 c -0.226486,0.433198 -0.475684,0.797956 -0.785159,1.107431 L 8.3867187,13.54691 10.990234,12.910191 c 0.87355,-0.213704 1.434109,-0.513022 1.988282,-0.472656 h 0.0019 c 0.773837,0.05476 1.581354,0.486219 1.74414,0.837891 0.110272,0.244202 0.09167,0.790918 -0.03516,1.351562 0,0 0,0.002 0,0.002 -0.064,0.268008 -0.131267,0.500736 -0.220704,0.720703 l -0.714843,1.75586 1.722656,-0.792969 c 0.40302,-0.185461 0.83223,-0.328862 1.306641,-0.474609 h 0.002 0.002 c 0.783113,-0.243679 1.530935,-0.422503 2.072266,-0.320313 0.542433,0.102138 1.161527,0.530474 1.68164,1.080078 0.617551,0.653403 1.058236,1.390038 1.3125,2.191406 l 0.425781,1.341797 0.875,-1.101562 c 1.19621,-1.50509 2.819457,-2.73048 4.626953,-3.457031 1.117551,-0.448516 2.230364,-0.671908 3.246094,-0.421875 0.564974,0.14063 1.103632,0.49088 1.228516,0.679687 0.09647,0.147965 0.126814,0.248684 -0.05273,0.648438 -0.179553,0.399754 -0.615868,0.993101 -1.322266,1.71289 l -2.097656,2.136719 2.857422,-0.896484 c 0.912189,-0.286276 1.802115,-0.821372 2.642578,-1.345703 l 0.01758,-0.01172 0.01563,-0.01172 c 0.689714,-0.482905 1.48951,-1.082387 1.830078,-2.066406 0.389768,-1.123203 0.05553,-2.330243 -0.568359,-3.238282 -0.695742,-1.012857 -1.764992,-1.552313 -2.86338,-1.841841 -1.098386,-0.289529 -2.258817,-0.351212 -3.304687,-0.388672 -0.617502,-0.02291 -1.164817,0.05634 -1.744141,0.08008 0.602013,-0.9658929 1.725054,-2.1514177 4.064453,-2.7324222 L 33.552734,7.4238629 31.919921,6.4961286 C 30.620812,5.757949 29.252782,5.3557557 27.943359,5.4902692 c -0.767204,0.078871 -1.462665,0.345845 -2.091797,0.6875 h -0.002 C 25.194935,6.5360307 24.781586,7.0525141 24.333984,7.5254254 22.060866,5.0959139 19.097704,2.5978927 15.697266,1.2519879 h -0.002 C 13.868438,0.53069874 11.895985,-0.00497103 9.8710937,3.4794918e-5 Z" />
  <path fill="url(#rarity)" d="m 31.416687,18.716072 c 1.477,-1.505 1.957001,-2.546 1.468,-3.296 -0.306,-0.467 -0.985,-0.825 -1.676,-0.997 -1.236,-0.305 -2.511,-0.026 -3.707,0.454 -1.933,0.777 -3.656,2.077 -4.934,3.685 -0.29,-0.914 -0.793,-1.75 -1.482,-2.479 -0.582,-0.615 -1.302,-1.154 -2.088,-1.302 -0.784,-0.148 -1.637,0.092 -2.434,0.34 -0.485,0.149 -0.948,0.303 -1.4,0.511 0.111,-0.273 0.188,-0.548 0.257,-0.838 0.139,-0.613 0.228,-1.301 -0.013,-1.831 -0.354,-0.77 -1.413,-1.206 -2.374,-1.274 -0.81,-0.059 -1.55,0.144 -2.221,0.493 0.375,-0.375 0.669,-0.808 0.921,-1.29 0.264,-0.495 0.488,-1.0450003 0.419,-1.5750003 -0.08,-0.637 -0.574,-1.25 -1.16,-1.575 -0.737,-0.411 -1.6249995,-0.367 -2.4669995,-0.302 -0.478,0.037 -0.943,0.079 -1.404,0.181 0.434,-0.365 0.788,-0.805 1.091,-1.296 0.279,-0.445 0.512,-0.933 0.516,-1.448 0.006,-0.609 -0.308,-1.253 -0.779,-1.649 -0.536,-0.45 -1.208,-0.793 -1.919,-0.911 -0.806,-0.133 -1.681,-0.218 -2.476,-0.202 1.949,-0.904 4.155,-1.36100004 6.317,-1.36500003 1.8910005,-0.005 3.7760005,0.49900003 5.5490005,1.19900003 3.478999,1.377 6.642999,4.062 8.903999,6.588 0.655,-0.619 1.207,-1.33 1.885,-1.701 0.569,-0.309 1.169001,-0.534 1.811,-0.6 1.100001,-0.113 2.327,0.229 3.529,0.912 -3.346,0.831 -5.016999,2.9360003 -5.231999,4.2630003 0.896999,-0.181 1.933,-0.177 3.065,-0.135 2.066,0.074 4.451,0.266 5.578,1.907 0.505,0.735 0.757,1.763 0.477999,2.567 -0.244,0.705 -0.894999,1.239 -1.551999,1.699 -0.788,0.555 -1.583,0.997 -2.472,1.265 z"/>
</svg>
