<?xml version="1.0" encoding="UTF-8" standalone="no"?>
<!-- Generated by IcoMoon.io -->

<svg
   version="1.1"
   width="24.61989"
   height="28.121189"
   viewBox="0 0 24.61989 28.121189"
   id="svg6"
   sodipodi:docname="simic.svg"
   inkscape:version="1.1.1 (3bf5ae0d25, 2021-09-20)"
   xmlns:inkscape="http://www.inkscape.org/namespaces/inkscape"
   xmlns:sodipodi="http://sodipodi.sourceforge.net/DTD/sodipodi-0.dtd"
   xmlns="http://www.w3.org/2000/svg"
   xmlns:svg="http://www.w3.org/2000/svg">
  <defs
     id="defs10" />
  <sodipodi:namedview
     id="namedview8"
     pagecolor="#ffffff"
     bordercolor="#666666"
     borderopacity="1.0"
     inkscape:pageshadow="2"
     inkscape:pageopacity="0.0"
     inkscape:pagecheckerboard="0"
     showgrid="false"
     inkscape:zoom="25.75"
     inkscape:cx="12.485437"
     inkscape:cy="14.038835"
     inkscape:window-width="1920"
     inkscape:window-height="1009"
     inkscape:window-x="-8"
     inkscape:window-y="-8"
     inkscape:window-maximized="1"
     inkscape:current-layer="svg6" />
  <title
     id="title2">simic</title>
  <path
     fill="#000000"
     d="m 8.2763519,0.65093672 c 0.513,-0.524 1.278,-0.699 1.9800001,-0.64 0.978,0.117 1.806,0.816 2.325,1.64699998 0.604,-0.77199998 1.535,-1.22599998 2.487,-1.30299998 0.813,-0.093 1.689,0.095 2.32,0.65399998 0.378,0.329 0.591,0.839 0.57,1.348 -0.01,0.73 -0.492,1.426 -1.164,1.662 -0.498,0.189 -1.112,0.123 -1.499,-0.275 -0.264,-0.257 -0.346,-0.7 -0.156,-1.027 0.116,-0.205 0.328,-0.316 0.525,-0.422 -0.117,0.231 -0.266,0.505 -0.152,0.769 0.204,0.502 0.963,0.553 1.271,0.131 0.277,-0.383 0.276,-1.025 -0.134,-1.311 -0.452,-0.307 -1.053,-0.315 -1.553,-0.132 -0.674,0.245 -1.184,0.85 -1.41,1.538 -0.245,0.703 -0.211,1.468 -0.112,2.196 1.451,-0.593 3.007,-0.93 4.571,-0.922 0.634,0.018 1.272,0.063 1.904,-0.019 0.373,-0.063 0.756,-0.208 1.018,-0.499 0.156,-0.167 0.205,-0.435 0.085,-0.638 -0.176,-0.298 -0.46,-0.526 -0.776,-0.644 -0.246,-0.089 -0.547,-0.105 -0.763,0.066 -0.117,0.085 -0.19,0.243 -0.136,0.387 0.063,0.21 0.254,0.33 0.423,0.442 -0.351,-0.071 -0.769,-0.15 -0.964,-0.497 -0.189,-0.395 0.073,-0.88 0.457,-1.019 0.519,-0.201 1.091,-0.07 1.598,0.105 0.508,0.181 0.991,0.558 1.149,1.108 0.157,0.54 0.019,1.232 -0.474,1.54 -0.539,0.35 -1.168,0.512 -1.788,0.629 0.08,0.112 0.156,0.227 0.228,0.345 0.934,-0.3 1.975,-0.215 2.858,0.212 0.425,0.202 0.802,0.525 1.034,0.949 0.657,1.108 0.281,2.704 -0.758,3.4190003 0.811,0.541 1.296,1.508 1.368,2.488 0.045,0.536 -0.038,1.098 -0.313,1.561 -0.395,0.678 -1.23,1.052 -1.979,0.869 -0.505,-0.122 -0.938,-0.562 -1.019,-1.096 -0.069,-0.42 0.096,-0.896 0.463,-1.115 0.197,-0.127 0.434,-0.148 0.66,-0.131 -0.23,0.262 -0.467,0.576 -0.438,0.952 0.015,0.329 0.337,0.541 0.633,0.551 0.474,0.021 0.891,-0.374 1,-0.833 0.197,-0.865 -0.228,-1.845 -1.005,-2.245 -0.794,-0.425 -1.827,-0.258 -2.476,0.371 0.075,0.793 -0.082,1.605 -0.453,2.304 -0.393,0.747 -0.984,1.376 -1.672,1.841 -0.596,0.411 -1.336,0.532 -2.041,0.518 -0.608,-0.023 -1.26,-0.18 -1.694,-0.648 -0.679,-0.786 -0.914,-2.032 -0.382,-2.963 0.417,-0.696 1.294,-1.092 2.065,-0.83 -0.423,0.071 -0.848,0.249 -1.121,0.603 -0.396,0.486 -0.371,1.206 -0.123,1.757 0.161,0.39 0.506,0.672 0.89,0.805 0.481,0.171 1.012,0.061 1.46,-0.163 0.684,-0.324 1.21,-0.971 1.412,-1.717 0.16,-0.584 0.108,-1.215 -0.096,-1.781 -0.181,-0.494 -0.438,-0.98 -0.848,-1.311 -0.671,-0.5560003 -1.555,-0.7590003 -2.4,-0.7630003 -1.766,0.004 -3.493,0.8160003 -4.714,2.1200003 -1.1210001,1.194 -1.9540001,2.676 -2.4010001,4.273 -0.398,1.431 -0.443,2.995 0.045,4.408 0.608,1.782 1.9830001,3.22 3.6090001,4.052 2.191,1.11 4.847,1.198 7.106,0.249 0.968,-0.409 1.863,-1.044 2.497,-1.911 0.253,-0.354 0.469,-0.76 0.5,-1.207 0.021,-0.283 -0.07,-0.605 -0.319,-0.758 -0.246,-0.157 -0.549,-0.123 -0.82,-0.076 0.231,-0.218 0.551,-0.356 0.866,-0.272 0.354,0.06 0.594,0.39 0.691,0.726 0.188,0.631 0.019,1.318 -0.3,1.872 -0.372,0.651 -0.949,1.137 -1.504,1.617 -1.596,1.326 -3.44,2.339 -5.405,2.946 -1.268,0.384 -2.589,0.617 -3.912,0.608 -0.59,-0.327 -1.1260001,-0.753 -1.6350001,-1.2 -0.9,-0.81 -1.685,-1.757 -2.305,-2.808 0.281,1.338 0.821,2.602 1.436,3.809 -1.158,-0.217 -2.292,-0.59 -3.337,-1.151 -0.137,-0.079 -0.307,-0.136 -0.38,-0.292 -0.665,-1.157 -1.248,-2.369 -1.665,-3.645 -0.327,-1 -0.553,-2.044 -0.57,-3.102 -0.35,1.46 -0.434,2.975 -0.391,4.474 -1.208,-1.611 -1.76299997,-3.663 -1.77199997,-5.682 -0.036,-1.213 0.409,-2.393 1.07999997,-3.374 0.359,-0.539 0.79,-1.021 1.236,-1.484 0.944,-1.06 1.958,-2.052 3.018,-2.989 0.593,-0.628 0.912,-1.5160003 0.892,-2.3890003 -0.011,-0.522 -0.219,-1.034 -0.568,-1.411 -0.469,-0.513 -1.13,-0.802 -1.797,-0.911 -0.603,-0.098 -1.255,-0.07 -1.798,0.246 -0.558,0.313 -0.933,0.91 -1.047,1.547 -0.091,0.498 -0.097,1.048 0.159,1.498 0.214,0.384 0.611,0.62 1.02,0.721 0.479,0.1180003 1.008,0.1250003 1.456,-0.11 0.402,-0.201 0.749,-0.595 0.78,-1.071 0.017,-0.355 -0.061,-0.758 -0.344,-0.991 -0.383,-0.299 -0.999,-0.188 -1.258,0.231 -0.16,0.22 -0.151,0.529 -0.032,0.766 0.076,0.152 0.222,0.242 0.35,0.341 -0.179,0.055 -0.377,0.11 -0.556,0.022 -0.357,-0.172 -0.558,-0.607 -0.516,-1.003 0.026,-0.373 0.218,-0.726 0.514,-0.943 0.688,-0.509 1.755,-0.398 2.301,0.28 0.364,0.452 0.447,1.08 0.365,1.646 -0.087,0.614 -0.45,1.1650003 -0.94,1.5150003 -0.583,0.422 -1.325,0.612 -2.03,0.496 -0.881,-0.125 -1.76999997,-0.554 -2.27099997,-1.3380003 -0.485,-0.75 -0.537,-1.705 -0.399,-2.572 0.14,-0.888 0.599,-1.728 1.30599997,-2.266 0.962,-0.739 2.248,-0.957 3.409,-0.7 0.249,-0.793 0.771,-1.51 1.489,-1.908 0.429,-0.243 0.921,-0.348 1.409,-0.352 0.055,-0.506 0.241,-1.013 0.604,-1.37099998 z m 0.77,0.61899998 c -0.277,0.2 -0.43,0.537 -0.467,0.878 0.425,0.127 0.819,0.35 1.147,0.656 0.181,-0.254 0.124,-0.578 -0.006,-0.841 0.146,0.063 0.3130001,0.116 0.4040001,0.261 0.216,0.331 0.212,0.782 0.024,1.125 0.413,0.727 0.531,1.652 0.208,2.438 -0.232,0.596 -0.7220001,1.087 -1.3310001,1.254 0.109,0.14 0.214,0.284 0.317,0.431 0.8640001,-0.284 1.5870001,-0.966 1.9450001,-1.825 0.389,-0.935 0.505,-2.016 0.221,-2.999 -0.169,-0.574 -0.503,-1.136 -1.036,-1.414 -0.438,-0.23 -1.0110001,-0.27499998 -1.4250001,0.034 z m -2.355,2.582 c -0.272,0.246 -0.404,0.612 -0.452,0.973 0.191,0.1 0.38,0.204 0.566,0.313 0.207,-0.517 0.737,-0.902 1.29,-0.818 0.351,0.05 0.629,0.331 0.726,0.676 -0.222,-0.087 -0.472,-0.165 -0.705,-0.069 -0.319,0.106 -0.495,0.541 -0.315,0.84 0.232,0.382 0.752,0.516 1.148,0.348 0.299,-0.125 0.501,-0.423 0.575,-0.739 0.082,-0.365 0.048,-0.761 -0.108,-1.1 -0.254,-0.548 -0.852,-0.879 -1.432,-0.86 -0.456,0.013 -0.943,0.111 -1.293,0.434 z m 11.0160001,2.15 c -0.139,0.197 -0.119,0.452 -0.108,0.681 -0.226,-0.174 -0.396,-0.415 -0.463,-0.7 -0.979,0.289 -1.939,0.707 -2.741,1.365 1.089,-0.09 2.21,0.091 3.188,0.605 0.671,-0.101 1.388,-0.585 1.457,-1.333 0.022,-0.369 -0.207,-0.762 -0.567,-0.85 -0.266,-0.064 -0.6,-0.015 -0.766,0.231 z m 2.429,1.404 c -0.118,0.115 -0.18,0.274 -0.276,0.407 -0.286,0.415 -0.654,0.763 -1.038,1.081 0.346,0.379 0.63,0.815 0.849,1.2850003 0.204,-0.091 0.414,-0.169 0.628,-0.2320003 -0.223,-0.505 -0.173,-1.134 0.169,-1.571 0.237,-0.316 0.659,-0.516 1.042,-0.391 0.249,0.085 0.386,0.333 0.485,0.566 -0.186,-0.047 -0.383,-0.106 -0.572,-0.046 -0.269,0.073 -0.506,0.341 -0.475,0.639 0.036,0.304 0.291,0.523 0.553,0.629 0.721,0.3250003 1.693,-0.219 1.767,-1.041 0.055,-0.431 -0.001,-0.902 -0.267,-1.253 -0.267,-0.354 -0.7,-0.526 -1.12,-0.586 -0.618,-0.1 -1.27,0.095 -1.744,0.513 z"
     id="path4" />
</svg>
