<?xml version="1.0" encoding="UTF-8" standalone="no"?>
<svg
   version="1.1"
   width="29.161095"
   height="30.507818"
   viewBox="0 0 29.161095 30.507818"
   id="svg4"
   xmlns="http://www.w3.org/2000/svg"
   xmlns:svg="http://www.w3.org/2000/svg">
  <defs>
    <!-- This is the gradient that will actually be used on
     the cards. The colors themselves will be provided by the
     template, but the x values, y values, and offsets will be
     used from the SVG. -->
    <radialGradient id="rarity">
      <stop offset="0" style="stop-color:rgb(192,55,38);stop-opacity:1" id="stop2" />
      <stop offset="0" style="stop-color:rgb(192,55,38);stop-opacity:1" id="stop4" />
      <stop offset="0" style="stop-color:rgb(241,142,30);stop-opacity:1" id="stop6" />
      <stop offset="0.875" style="stop-color:rgb(192,55,38);stop-opacity:1" id="stop8" />
      <stop offset="1" style="stop-color:rgb(192,55,38);stop-opacity:1" id="stop10" />
    </radialGradient>
    <!-- These gradients are here so that you can visualize
     what the set symbol would like like in that rarity. The
     only gradient that matters in the end is the "rarity"
     gradient. -->
    <linearGradient id="mythic" x1="0" y1="1" x2="1" y2="0">
      <stop offset="0" style="stop-color:rgb(192,55,38);stop-opacity:1"/>
      <stop offset="0.125" style="stop-color:rgb(192,55,38);stop-opacity:1"/>
      <stop offset="0.5" style="stop-color:rgb(241,142,30);stop-opacity:1"/>
      <stop offset="0.875" style="stop-color:rgb(192,55,38);stop-opacity:1"/>
      <stop offset="1" style="stop-color:rgb(192,55,38);stop-opacity:1"/>
    </linearGradient>
    <linearGradient id="rare" x1="0" y1="1" x2="1" y2="0">
      <stop offset="0" style="stop-color:rgb(146,116,67);stop-opacity:1"/>
      <stop offset="0.125" style="stop-color:rgb(146,116,67);stop-opacity:1"/>
      <stop offset="0.5" style="stop-color:rgb(211,178,108);stop-opacity:1"/>
      <stop offset="0.875" style="stop-color:rgb(146,116,67);stop-opacity:1"/>
      <stop offset="1" style="stop-color:rgb(146,116,67);stop-opacity:1"/>
    </linearGradient>
    <linearGradient id="special" x1="0" y1="1" x2="1" y2="0">
      <stop offset="0" style="stop-color:rgb(76, 56, 106);stop-opacity:1"/>
      <stop offset="0.125" style="stop-color:rgb(76, 56, 106);stop-opacity:1"/>
      <stop offset="0.5" style="stop-color:rgb(201, 173, 221);stop-opacity:1"/>
      <stop offset="0.875" style="stop-color:rgb(76, 56, 106);stop-opacity:1"/>
      <stop offset="1" style="stop-color:rgb(76, 56, 106);stop-opacity:1"/>
    </linearGradient>
    <linearGradient id="uncommon" x1="0" y1="1" x2="1" y2="0">
      <stop offset="0" style="stop-color:rgb(98,110,119);stop-opacity:1"/>
      <stop offset="0.125" style="stop-color:rgb(98,110,119);stop-opacity:1"/>
      <stop offset="0.5" style="stop-color:rgb(196,222,238);stop-opacity:1"/>
      <stop offset="0.875" style="stop-color:rgb(98,110,119);stop-opacity:1"/>
      <stop offset="1" style="stop-color:rgb(98,110,119);stop-opacity:1"/>
    </linearGradient>
    <linearGradient id="common" x1="0" y1="1" x2="1" y2="0">
      <stop offset="0" style="stop-color:rgb(0,0,0);stop-opacity:1"/>
    </linearGradient>
    <linearGradient
            id="rarity-outline" x1="0" y1="1" x2="0" y2="1">
      <stop offset="0" style="stop-color:rgb(0,0,0);stop-opacity:1"/>
    </linearGradient>
  </defs>
  <path fill="url(#rarity-outline)" d="M 14.571352,4.9256181e-6 C 13.932786,0.00154493 13.398023,0.48409195 13.331118,1.1191456 c 0,0 -0.02403,0.212298 -0.113281,0.4804687 -0.08925,0.2681708 -0.255345,0.4756628 -0.259766,0.4785156 -6.52e-4,6.504e-4 -0.0013,0.0013 -0.002,0.00195 -0.320397,0.2080182 -1.224559,0.489325 -1.875,1.4980469 -0.0013,0.00195 -0.0026,0.0039 -0.0039,0.00586 -0.201131,0.3148191 -0.216679,0.5846506 -0.298828,0.8808594 H 9.5147116 C 9.1338689,4.4645094 8.7736418,4.6377923 8.5361959,4.9355518 c 0,0 -1.4915306,1.8675785 -2.7558593,3.2773438 v 0.00195 C 4.1627434,10.020785 1.504946,9.5097706 1.504946,9.5097706 0.54175495,9.3108195 -0.26333926,10.250648 0.08111784,11.17188 l 0.68164065,1.824219 c 0.18335248,0.488142 0.65043431,0.811207 1.17187501,0.810547 h 4.1035156 v 9.925781 H 5.6963522 C 5.23598,23.73226 4.8127714,23.985135 4.5947897,24.39063 c 0,0 -0.5488281,0.768152 -0.5488281,1.925781 0,1.170482 0.5625,1.939453 0.5625,1.939453 0.2193864,0.401243 0.6403526,0.650677 1.0976562,0.650391 H 5.5986959 l 0.5976563,0.996094 c 0.2263442,0.376069 0.6333359,0.605882 1.0722656,0.605469 H 21.887759 c 0.43893,4.13e-4 0.845921,-0.2294 1.072265,-0.605469 l 0.597657,-0.996094 h -0.107422 c 0.457304,2.86e-4 0.87827,-0.249148 1.097656,-0.650391 0,0 0.5625,-0.768971 0.5625,-1.939453 0,-1.153348 -0.544922,-1.921875 -0.544922,-1.921875 -0.217268,-0.407625 -0.641603,-0.662225 -1.103515,-0.662109 h -0.345704 v -9.925781 h 4.109375 c 0.520726,-1.54e-4 0.98682,-0.323074 1.169922,-0.810547 l 0.683594,-1.822266 c 0.346609,-0.9219 -0.459414,-1.8639181 -1.423828,-1.6640624 0,0 -2.662485,0.5096524 -4.277344,-1.2949219 -1.262758,-1.4112608 -2.757812,-3.28125 -2.757812,-3.28125 -0.237407,-0.2964922 -0.596735,-0.4689693 -0.976563,-0.46875 H 18.37604 C 18.293653,4.1683948 18.278898,3.8969984 18.077212,3.5820362 v -0.00195 C 17.428071,2.5694508 16.520817,2.286494 16.198306,2.0781299 16.193207,2.0748352 16.023185,1.8648992 15.932681,1.5957081 15.842176,1.326517 15.817446,1.1132862 15.817446,1.1132862 15.747523,0.47832733 15.210147,-0.00177367 14.571352,4.9256181e-6 Z" />
  <path fill="url(#rarity)" d="m 15.05204,24.696052 h 4.572 v -5.343 h -4.572 z m 0,-6.18 h 4.572 v -5.34 h -4.572 z m -0.944,0.837 H 9.5320397 v 5.343 H 14.10804 Z m 0,-6.177 H 9.5320397 v 5.34 H 14.10804 Z m 1.412,-10.0480002 c 0.534,0.345 1.083,0.471 1.505,1.128 0.438,0.684 0.339,1.458 0.339,1.458 h 2.279 c 0,0 1.502,1.88 2.803,3.334 2.128,2.3780002 5.463,1.6860002 5.463,1.6860002 l -0.684,1.823 h -5.358 v 12.425 h 1.595 c 0,0 0.399,0.75 0.399,1.334 0,0.588 -0.411,1.341 -0.411,1.341 h -0.6 l -0.962,1.601 H 7.2680397 l -0.962,-1.601 h -0.6 c 0,0 -0.411,-0.753 -0.411,-1.341 0,-0.584 0.402,-1.334 0.402,-1.334 h 1.592 v -12.425 h -5.355 l -0.683,-1.823 c 0,0 3.33,0.692 5.46,-1.6860002 1.304,-1.454 2.803,-3.334 2.803,-3.334 H 11.79304 c 0,0 -0.099,-0.774 0.338,-1.458 0.423,-0.656 0.972,-0.782 1.505,-1.128 0.798,-0.515 0.939,-1.88 0.939,-1.88 0,0 0.147,1.365 0.944,1.88 z"/>
</svg>
