<?xml version="1.0" encoding="UTF-8" standalone="no"?>
<!-- Generated by IcoMoon.io -->

<svg
   version="1.1"
   width="26.658001"
   height="28.01"
   viewBox="0 0 26.658001 28.01"
   id="svg6"
   sodipodi:docname="sok.svg"
   inkscape:version="1.1.1 (3bf5ae0d25, 2021-09-20)"
   xmlns:inkscape="http://www.inkscape.org/namespaces/inkscape"
   xmlns:sodipodi="http://sodipodi.sourceforge.net/DTD/sodipodi-0.dtd"
   xmlns="http://www.w3.org/2000/svg"
   xmlns:svg="http://www.w3.org/2000/svg">
  <defs
     id="defs10" />
  <sodipodi:namedview
     id="namedview8"
     pagecolor="#ffffff"
     bordercolor="#666666"
     borderopacity="1.0"
     inkscape:pageshadow="2"
     inkscape:pageopacity="0.0"
     inkscape:pagecheckerboard="0"
     showgrid="false"
     inkscape:zoom="25.75"
     inkscape:cx="13.495146"
     inkscape:cy="14.194175"
     inkscape:window-width="1920"
     inkscape:window-height="1009"
     inkscape:window-x="-8"
     inkscape:window-y="-8"
     inkscape:window-maximized="1"
     inkscape:current-layer="svg6" />
  <title
     id="title2">sok</title>
  <path
     fill="#000000"
     d="m 13.801,23.448 h 4.572 v -5.343 h -4.572 z m 0,-6.18 h 4.572 v -5.34 h -4.572 z m -0.944,0.837 H 8.281 v 5.343 h 4.576 z m 0,-6.177 H 8.281 v 5.34 h 4.576 z M 14.269,1.88 c 0.534,0.345 1.083,0.471 1.505,1.128 0.438,0.684 0.339,1.458 0.339,1.458 h 2.279 c 0,0 1.502,1.88 2.803,3.334 2.128,2.378 5.463,1.686 5.463,1.686 l -0.684,1.823 h -5.358 v 12.425 h 1.595 c 0,0 0.399,0.75 0.399,1.334 0,0.588 -0.411,1.341 -0.411,1.341 h -0.6 L 20.637,28.01 H 6.017 L 5.055,26.409 h -0.6 c 0,0 -0.411,-0.753 -0.411,-1.341 0,-0.584 0.402,-1.334 0.402,-1.334 H 6.038 V 11.309 H 0.683 L 0,9.486 C 0,9.486 3.33,10.178 5.46,7.8 6.764,6.346 8.263,4.466 8.263,4.466 h 2.279 c 0,0 -0.099,-0.774 0.338,-1.458 C 11.303,2.352 11.852,2.226 12.385,1.88 13.183,1.365 13.324,0 13.324,0 c 0,0 0.147,1.365 0.944,1.88 z"
     id="path4" />
</svg>
