<?xml version="1.0" encoding="UTF-8" standalone="no"?>
<svg
   version="1.1"
   width="29.230295"
   height="30.000257"
   viewBox="0 0 29.230295 30.000257"
   id="svg4"
   xmlns="http://www.w3.org/2000/svg"
   xmlns:svg="http://www.w3.org/2000/svg">
  <defs>
    <!-- This is the gradient that will actually be used on
     the cards. The colors themselves will be provided by the
     template, but the x values, y values, and offsets will be
     used from the SVG. -->
    <linearGradient id="rarity" x1="0" y1="0" x2="1" y2="0">
      <stop offset="0" style="stop-color:rgb(192,55,38);stop-opacity:1" id="stop2" />
      <stop offset="0.125" style="stop-color:rgb(192,55,38);stop-opacity:1" id="stop4" />
      <stop offset="0.5" style="stop-color:rgb(241,142,30);stop-opacity:1" id="stop6" />
      <stop offset="0.875" style="stop-color:rgb(192,55,38);stop-opacity:1" id="stop8" />
      <stop offset="1" style="stop-color:rgb(192,55,38);stop-opacity:1" id="stop10" />
    </linearGradient>
    <!-- These gradients are here so that you can visualize
     what the set symbol would like like in that rarity. The
     only gradient that matters in the end is the "rarity"
     gradient. -->
    <linearGradient id="mythic" x1="0" y1="1" x2="1" y2="0">
      <stop offset="0" style="stop-color:rgb(192,55,38);stop-opacity:1"/>
      <stop offset="0.125" style="stop-color:rgb(192,55,38);stop-opacity:1"/>
      <stop offset="0.5" style="stop-color:rgb(241,142,30);stop-opacity:1"/>
      <stop offset="0.875" style="stop-color:rgb(192,55,38);stop-opacity:1"/>
      <stop offset="1" style="stop-color:rgb(192,55,38);stop-opacity:1"/>
    </linearGradient>
    <linearGradient id="rare" x1="0" y1="1" x2="1" y2="0">
      <stop offset="0" style="stop-color:rgb(146,116,67);stop-opacity:1"/>
      <stop offset="0.125" style="stop-color:rgb(146,116,67);stop-opacity:1"/>
      <stop offset="0.5" style="stop-color:rgb(211,178,108);stop-opacity:1"/>
      <stop offset="0.875" style="stop-color:rgb(146,116,67);stop-opacity:1"/>
      <stop offset="1" style="stop-color:rgb(146,116,67);stop-opacity:1"/>
    </linearGradient>
    <linearGradient id="special" x1="0" y1="1" x2="1" y2="0">
      <stop offset="0" style="stop-color:rgb(76, 56, 106);stop-opacity:1"/>
      <stop offset="0.125" style="stop-color:rgb(76, 56, 106);stop-opacity:1"/>
      <stop offset="0.5" style="stop-color:rgb(201, 173, 221);stop-opacity:1"/>
      <stop offset="0.875" style="stop-color:rgb(76, 56, 106);stop-opacity:1"/>
      <stop offset="1" style="stop-color:rgb(76, 56, 106);stop-opacity:1"/>
    </linearGradient>
    <linearGradient id="uncommon" x1="0" y1="1" x2="1" y2="0">
      <stop offset="0" style="stop-color:rgb(98,110,119);stop-opacity:1"/>
      <stop offset="0.125" style="stop-color:rgb(98,110,119);stop-opacity:1"/>
      <stop offset="0.5" style="stop-color:rgb(196,222,238);stop-opacity:1"/>
      <stop offset="0.875" style="stop-color:rgb(98,110,119);stop-opacity:1"/>
      <stop offset="1" style="stop-color:rgb(98,110,119);stop-opacity:1"/>
    </linearGradient>
    <linearGradient id="common" x1="0" y1="1" x2="1" y2="0">
      <stop offset="0" style="stop-color:rgb(0,0,0);stop-opacity:1"/>
    </linearGradient>
    <linearGradient
            id="rarity-outline" x1="0" y1="1" x2="0" y2="1">
      <stop offset="0" style="stop-color:rgb(0,0,0);stop-opacity:1"/>
    </linearGradient>
  </defs>
  <path fill="url(#rarity-outline)" d="m 11.031,0 c 0.463,0.158 0.89,0.402 1.32,0.635 1.313,0.725 2.503,1.674 3.482,2.813 2.878,-1.029 5.854,-1.915 8.925,-2.071 1.123,-0.107 2.247,0.006 3.371,0.031 0.012,0.515 0.002,1.03 0.006,1.544 0.363,-0.049 0.727,-0.089 1.089,-0.149 0.013,7.586 0.001,15.172 0.006,22.758 -4.072,1.419 -8.141,2.851 -12.211,4.274 -0.215,0.072 -0.427,0.178 -0.659,0.164 C 15.177,29.997 13.994,29.997 12.811,29.998 12.595,30.002 12.4,29.9 12.201,29.836 8.135,28.409 4.066,26.989 0,25.561 0.002,17.978 0,10.396 0.001,2.813 0.37,2.852 0.735,2.916 1.104,2.954 1.106,2.437 1.101,1.921 1.107,1.405 1.607,1.408 2.104,1.365 2.603,1.345 6.137,1.217 9.614,2.107 12.919,3.285 12.504,2.086 11.909,0.929 11.032,0 Z"/>
  <path fill="url(#rarity)" d="m 1.79,2.07 c 0.004,7.54 0.011,15.081 -0.003,22.621 2.811,-0.015 5.671,0.174 8.352,1.083 1.361,0.471 2.711,1.114 3.723,2.164 -0.518,-1.786 -0.613,-3.735 -0.032,-5.518 0.549,-1.743 1.744,-3.217 3.171,-4.329 1.811,-1.368 3.567,-2.863 4.911,-4.709 0.665,-0.949 1.277,-2.01 1.344,-3.194 0.654,1.379 0.984,2.912 0.95,4.438 -0.034,1.414 -0.421,2.824 -1.147,4.04 -0.729,1.245 -1.767,2.285 -2.93,3.127 -1.348,0.97 -2.628,2.052 -3.705,3.323 -0.796,0.97 -1.51,2.104 -1.594,3.389 1.007,-1.18 2.356,-2.017 3.798,-2.559 2.788,-1.058 5.812,-1.285 8.769,-1.249 -0.02,-2.98 -0.003,-5.959 -0.008,-8.938 C 27.393,11.22 27.38,6.681 27.395,2.142 27.298,2.132 27.203,2.118 27.109,2.097 25.116,1.957 23.1,2.099 21.151,2.552 c -1.667,0.388 -3.31,0.873 -4.94,1.393 0.866,1.185 1.522,2.545 1.758,4.001 1.021,-0.96 1.543,-2.415 1.342,-3.806 0.899,1.606 1.221,3.552 0.803,5.352 -0.35,1.502 -1.205,2.852 -2.306,3.917 -0.634,0.605 -1.288,1.19 -1.882,1.837 -1.018,1.128 -1.952,2.376 -2.471,3.818 -0.258,0.723 -0.425,1.503 -0.3,2.271 -1.027,-0.897 -1.643,-2.175 -1.96,-3.482 -0.329,0.602 -0.506,1.277 -0.607,1.953 -0.2,1.437 0.044,2.905 0.563,4.252 C 8.868,22.956 6.986,20.973 6.137,18.57 5.473,16.68 5.373,14.552 6.084,12.661 6.67,11.125 7.687,9.731 9.032,8.777 c -0.403,0.679 -0.698,1.505 -0.45,2.292 0.225,0.801 1.044,1.393 1.879,1.313 0.768,-0.045 1.41,-0.574 1.837,-1.18 0.694,-1.019 0.939,-2.259 1.068,-3.463 C 13.467,6.504 13.428,5.248 13.129,4.041 12.029,3.685 10.948,3.261 9.823,2.988 8.388,2.613 6.932,2.304 5.455,2.161 4.238,2.028 3.012,2.047 1.79,2.07 Z"/>
</svg>
