<?xml version="1.0" encoding="UTF-8" standalone="no"?>
<svg
   version="1.1"
   width="33.625"
   height="28.732422"
   viewBox="0 0 33.625 28.732422"
   id="svg4"
   xmlns="http://www.w3.org/2000/svg"
   xmlns:svg="http://www.w3.org/2000/svg">
  <defs>
    <!-- This is the gradient that will actually be used on
     the cards. The colors themselves will be provided by the
     template, but the x values, y values, and offsets will be
     used from the SVG. -->
    <linearGradient id="rarity" x1="0" y1="0" x2="1" y2="0">
      <stop offset="0" style="stop-color:rgb(192,55,38);stop-opacity:1" id="stop2" />
      <stop offset="0.125" style="stop-color:rgb(192,55,38);stop-opacity:1" id="stop4" />
      <stop offset="0.5" style="stop-color:rgb(241,142,30);stop-opacity:1" id="stop6" />
      <stop offset="0.875" style="stop-color:rgb(192,55,38);stop-opacity:1" id="stop8" />
      <stop offset="1" style="stop-color:rgb(192,55,38);stop-opacity:1" id="stop10" />
    </linearGradient>
    <!-- These gradients are here so that you can visualize
     what the set symbol would like like in that rarity. The
     only gradient that matters in the end is the "rarity"
     gradient. -->
    <linearGradient id="mythic" x1="0" y1="1" x2="1" y2="0">
      <stop offset="0" style="stop-color:rgb(192,55,38);stop-opacity:1"/>
      <stop offset="0.125" style="stop-color:rgb(192,55,38);stop-opacity:1"/>
      <stop offset="0.5" style="stop-color:rgb(241,142,30);stop-opacity:1"/>
      <stop offset="0.875" style="stop-color:rgb(192,55,38);stop-opacity:1"/>
      <stop offset="1" style="stop-color:rgb(192,55,38);stop-opacity:1"/>
    </linearGradient>
    <linearGradient id="rare" x1="0" y1="1" x2="1" y2="0">
      <stop offset="0" style="stop-color:rgb(146,116,67);stop-opacity:1"/>
      <stop offset="0.125" style="stop-color:rgb(146,116,67);stop-opacity:1"/>
      <stop offset="0.5" style="stop-color:rgb(211,178,108);stop-opacity:1"/>
      <stop offset="0.875" style="stop-color:rgb(146,116,67);stop-opacity:1"/>
      <stop offset="1" style="stop-color:rgb(146,116,67);stop-opacity:1"/>
    </linearGradient>
    <linearGradient id="special" x1="0" y1="1" x2="1" y2="0">
      <stop offset="0" style="stop-color:rgb(76, 56, 106);stop-opacity:1"/>
      <stop offset="0.125" style="stop-color:rgb(76, 56, 106);stop-opacity:1"/>
      <stop offset="0.5" style="stop-color:rgb(201, 173, 221);stop-opacity:1"/>
      <stop offset="0.875" style="stop-color:rgb(76, 56, 106);stop-opacity:1"/>
      <stop offset="1" style="stop-color:rgb(76, 56, 106);stop-opacity:1"/>
    </linearGradient>
    <linearGradient id="uncommon" x1="0" y1="1" x2="1" y2="0">
      <stop offset="0" style="stop-color:rgb(98,110,119);stop-opacity:1"/>
      <stop offset="0.125" style="stop-color:rgb(98,110,119);stop-opacity:1"/>
      <stop offset="0.5" style="stop-color:rgb(196,222,238);stop-opacity:1"/>
      <stop offset="0.875" style="stop-color:rgb(98,110,119);stop-opacity:1"/>
      <stop offset="1" style="stop-color:rgb(98,110,119);stop-opacity:1"/>
    </linearGradient>
    <linearGradient id="common" x1="0" y1="1" x2="1" y2="0">
      <stop offset="0" style="stop-color:rgb(0,0,0);stop-opacity:1"/>
    </linearGradient>
    <linearGradient
            id="rarity-outline" x1="0" y1="1" x2="0" y2="1">
      <stop offset="0" style="stop-color:rgb(0,0,0);stop-opacity:1"/>
    </linearGradient>
  </defs>
  <path fill="url(#rarity-outline)" d="m 25.4375,0 -0.488282,1.2988281 c -0.213884,0.5689696 -0.424375,1.138732 -0.632812,1.7089844 -0.572424,0.1343947 -1.201542,0.2315639 -1.859375,0.6191406 l -0.05859,0.035156 -0.05078,0.044922 c -0.715792,0.6214513 -0.86221,1.4248144 -1.070312,1.8691407 l -0.238282,0.5078125 0.421875,0.3730468 c 0.374231,0.329355 0.7494,0.6600439 1.125,0.9902344 -1.188503,0.1437105 -2.431117,0.1656541 -3.716797,0.2988282 l -0.300781,0.03125 C 18.401536,6.9589558 18.221507,6.1317449 17.84375,5.3222656 L 17.757812,5.1367188 17.589844,5.0214844 C 17.504218,4.9625473 17.345035,4.8559604 17.289062,4.8164062 L 17.183594,4.7402344 17.05664,4.7050781 C 14.552455,4.0093363 12.042106,4.4015984 9.6445313,5.0742188 L 9.6269532,4.9042969 C 9.5174183,3.810952 8.737747,3.051414 7.90625,2.7460938 7.2552665,2.5070568 6.5908451,2.5646617 5.9550781,2.6210938 5.5809875,2.1248413 5.2078369,1.6276526 4.8359375,1.1269531 L 4.0117187,0.015625 3.5292969,1.3125 C 3.3101193,1.9031796 3.092653,2.4874539 2.8691406,3.0683594 2.3269487,3.1962518 1.7162482,3.2795863 1.078125,3.6953125 0.59924989,4.0054657 0.36059828,4.4961025 0.25390625,4.8964844 0.14689737,5.2980553 0.12483069,5.6511887 0.08007813,5.8847656 L 3e-8,6.3046875 0.3183594,6.5878906 c 0.4363424,0.3863269 0.8702582,0.778797 1.3027344,1.171875 0.7185321,4.8888844 1.3373272,9.8090264 2.0976563,14.7187504 -0.3576955,0.575352 -0.7159954,1.149127 -1.0761719,1.71875 l -0.3339844,0.529296 0.4609375,0.423829 c 0.2007726,0.184608 0.4214544,0.425942 0.7011719,0.671875 0.5445756,0.498018 1.2067485,0.667051 1.7792969,0.738281 0.4640735,0.05773 0.8479735,0.06945 1.203125,0.101562 0.2551012,0.334348 0.5096088,0.668575 0.7636718,1.003907 l 0.8066406,1.066406 0.4882813,-1.244141 c 0.1529818,-0.389625 0.306778,-0.782254 0.4609375,-1.173828 0.5649312,-0.17786 1.1551357,-0.358333 1.7148437,-0.701172 0.679036,-0.415932 1.306434,-1.044676 1.607422,-1.9375 l 0.162109,-0.486328 -0.392578,-0.328125 c -0.630582,-0.528091 -1.185297,-1.063954 -1.660156,-1.638672 2.393452,-0.71355 4.888462,-1.008261 7.339843,-0.652344 l 0.447266,0.06641 c -0.197599,0.250153 -0.396051,0.499192 -0.589844,0.757812 l -0.466797,0.621094 0.638672,0.443359 c 2.166572,1.503682 4.603825,1.04136 6.730469,0.748047 h 0.03906 l 0.13086,-0.01758 c -0.244487,0.344202 -0.536719,0.705142 -0.732422,0.990235 l -0.292969,0.425781 0.294922,0.425781 c 0.963195,1.389883 2.547015,1.618543 3.912109,1.628906 0.264905,0.338514 0.529898,0.675209 0.792969,1.013672 l 0.816407,1.050781 0.476562,-1.242187 c 0.150471,-0.393296 0.304347,-0.791873 0.458984,-1.189453 0.534733,-0.183564 1.116431,-0.363541 1.681641,-0.716797 0.678838,-0.424274 1.312375,-1.118998 1.474609,-2.097656 l 0.06836,-0.41211 -0.3125,-0.273437 C 32.788041,22.332083 32.313535,21.95044 31.972654,21.53711 31.750268,20.753838 31.698659,19.856641 31.53906,18.873048 l -0.002,-0.01172 v -0.002 C 30.967879,14.854277 30.43817,10.837103 29.83789,6.8222656 30.197769,6.2542109 30.557689,5.6845431 30.917968,5.1191406 L 31.210937,4.6582031 30.863281,4.2363281 C 30.584653,3.9008696 30.271837,3.2353799 29.505859,2.8242188 l -0.04297,-0.023438 -0.04492,-0.015625 C 28.622951,2.4832074 27.945997,2.5870709 27.349609,2.6074219 26.985931,2.1153939 26.621885,1.6193471 26.255859,1.1191406 Z" />
  <path fill="url(#rarity)" d="m 24.489406,22.4565 c -2.172,0.296 -4.376,0.714 -6.288,-0.613 0.281,-0.375 0.57,-0.742 0.862,-1.106 0.092,-1.832 -0.078,-3.664 -0.306,-5.479 -0.347,1.515 -0.384,3.094 -0.906,4.57 -2.755,-0.4 -5.557,-0.075 -8.1999998,0.792 v 0 c -0.973,0.353 -1.96,0.737 -2.746,1.434 0.901,-0.136 1.779,-0.384 2.657,-0.62 0.5669998,0.767 1.2949998,1.393 2.0209998,2.001 -0.475,1.409 -1.8959998,1.924 -3.1909998,2.31 -0.1919999,0.489 -0.3859999,0.979 -0.578,1.468 -0.322,-0.425 -0.645,-0.848 -0.967,-1.27 -0.959,-0.145 -2.0989999,0.031 -2.8709999,-0.675 -0.245,-0.214 -0.464,-0.453 -0.7,-0.67 0.411,-0.65 0.8169999,-1.304 1.2229999,-1.957 -0.7919999,-5.076 -1.423,-10.177 -2.1739999,-15.258 -0.5000001,-0.456 -1.0030001,-0.909 -1.50900005,-1.357 0.114,-0.595 0.095,-1.334 0.66999995,-1.704 0.5840001,-0.381 1.2980001,-0.475 1.9600001,-0.664 0.27,-0.692 0.528,-1.387 0.7869999,-2.085 0.436,0.587 0.873,1.17 1.312,1.751 1.3200001,-0.234 3.1720001,0.017 3.3360001,1.654 -1.407,0.848 -3.0740001,1.376 -4.0830001,2.76 0.956,-0.356 1.848,-0.864 2.757,-1.323 v 0 c 2.9239998,-1.156 6.2019998,-1.848 9.3009998,-0.987 0.075,0.053 0.231,0.158 0.308,0.211 0.812,1.74 0.873,3.705 1.298,5.554 0.211,-0.876 -0.136,-1.968 0.484,-2.702 1.284,-0.133 2.582,-0.145 3.867,-0.311 l 0.013,-10e-4 c 1.248,-0.264 2.402,-0.75 3.423,-1.539 -0.973,0.106 -1.932,0.3 -2.894,0.484 -0.467,-0.409 -0.931,-0.82 -1.398,-1.231 0.259,-0.553 0.403,-1.206 0.881,-1.621 0.628,-0.37 1.362,-0.478 2.057,-0.667 0.247,-0.681 0.5,-1.362 0.756,-2.043 0.431,0.589 0.859,1.179 1.293,1.762 0.734,0.017 1.504,-0.106 2.207,0.161 0.503,0.27 0.781,0.806 1.134,1.231 -0.411,0.645 -0.82,1.293 -1.229,1.938 0.617,4.103 1.156,8.217 1.74,12.325 0.159,0.973 0.186,1.976 0.484,2.922 0.428,0.564 1.009,0.99 1.537,1.454 -0.247,1.49 -1.773,1.946 -3.002,2.374 -0.192,0.495 -0.386,0.99 -0.575,1.484 -0.328,-0.422 -0.656,-0.839 -0.984,-1.259 -1.362,0.036 -2.855,-0.136 -3.697,-1.351 0.37,-0.539 0.684,-1.131 1.162,-1.587 0.756,-0.556 1.601,-1.006 2.218,-1.735 -1.017,0.353 -1.99,0.834 -3.03,1.12 l -0.416,0.055 z"/>
</svg>
