<?xml version="1.0" encoding="UTF-8" standalone="no"?>
<!-- Generated by IcoMoon.io -->

<svg
   version="1.1"
   width="24.943001"
   height="25.364"
   viewBox="0 0 24.943001 25.364"
   id="svg6"
   sodipodi:docname="sth.svg"
   inkscape:version="1.1.1 (3bf5ae0d25, 2021-09-20)"
   xmlns:inkscape="http://www.inkscape.org/namespaces/inkscape"
   xmlns:sodipodi="http://sodipodi.sourceforge.net/DTD/sodipodi-0.dtd"
   xmlns="http://www.w3.org/2000/svg"
   xmlns:svg="http://www.w3.org/2000/svg">
  <defs
     id="defs10" />
  <sodipodi:namedview
     id="namedview8"
     pagecolor="#ffffff"
     bordercolor="#666666"
     borderopacity="1.0"
     inkscape:pageshadow="2"
     inkscape:pageopacity="0.0"
     inkscape:pagecheckerboard="0"
     showgrid="false"
     inkscape:zoom="26.5625"
     inkscape:cx="12.517647"
     inkscape:cy="12.668235"
     inkscape:window-width="1920"
     inkscape:window-height="1009"
     inkscape:window-x="-8"
     inkscape:window-y="-8"
     inkscape:window-maximized="1"
     inkscape:current-layer="svg6" />
  <title
     id="title2">sth</title>
  <path
     fill="#000000"
     d="m 15.438,18.688 h -2.57 V 13.15 h 2.57 z m -3.391,0 H 9.477 V 13.15 h 2.57 z M 12.868,7.792 h -0.826 l 0.005,4.749 H 9.477 V 7.8 H 8.655 v 4.741 H 6.484 v 0.609 h 2.171 v 5.538 H 6.484 v 0.582 h 2.171 v 6.091 H 9.477 V 19.27 h 2.57 v 6.091 h 0.821 V 19.27 h 2.57 v 6.091 h 0.743 V 19.27 h 2.332 V 18.688 H 16.181 V 13.15 h 2.332 V 12.541 H 16.181 V 7.8 h -0.743 v 4.741 h -2.57 z m 6.633,17.572 h 5.442 V 14.503 H 19.501 Z M 0,25.361 H 5.442 V 14.503 H 0 Z m 19.503,-12.57 h 5.439 c 0,-8.057 -6.005,-11.449 -6.005,-11.449 l -1.908,5.09 c 0,0 2.474,1.905 2.474,6.359 z M 7.915,6.432 6.008,1.342 c 0,0 -6.005,3.391 -6.005,11.449 h 5.439 c 0,-4.454 2.473,-6.359 2.473,-6.359 z M 7.279,0 H 17.666 L 15.405,6.432 H 9.612 L 7.28,0 Z"
     id="path4" />
</svg>
