<?xml version="1.0" encoding="UTF-8" standalone="no"?>
<!-- Generated by IcoMoon.io -->

<svg
   version="1.1"
   width="32.002998"
   height="25.761999"
   viewBox="0 0 32.002998 25.761999"
   id="svg6"
   sodipodi:docname="stx.svg"
   inkscape:version="1.1.1 (3bf5ae0d25, 2021-09-20)"
   xmlns:inkscape="http://www.inkscape.org/namespaces/inkscape"
   xmlns:sodipodi="http://sodipodi.sourceforge.net/DTD/sodipodi-0.dtd"
   xmlns="http://www.w3.org/2000/svg"
   xmlns:svg="http://www.w3.org/2000/svg">
  <defs
     id="defs10" />
  <sodipodi:namedview
     id="namedview8"
     pagecolor="#ffffff"
     bordercolor="#666666"
     borderopacity="1.0"
     inkscape:pageshadow="2"
     inkscape:pageopacity="0.0"
     inkscape:pagecheckerboard="0"
     showgrid="false"
     inkscape:zoom="26.5625"
     inkscape:cx="15.981176"
     inkscape:cy="12.856471"
     inkscape:window-width="1920"
     inkscape:window-height="1009"
     inkscape:window-x="-8"
     inkscape:window-y="-8"
     inkscape:window-maximized="1"
     inkscape:current-layer="svg6" />
  <title
     id="title2">xssm</title>
  <path
     fill="#000000"
     d="m 15.845,25.747 c -0.805,-0.198 -1.272,-0.934 -1.362,-1.726 -0.009,0.006 -0.023,0.008 -0.028,0.018 -0.261,0.508 -0.932,0.748 -1.411,0.992 -0.301,-0.82 -0.192,-1.573 -0.175,-2.104 -0.013,0.001 -0.025,0.003 -0.037,0.008 -0.605,0.269 -1.38,0.265 -2.034,0.234 0.511,-1.666 1.69,-3.315 2.955,-4.507 0,0 0.057,-0.05 0.057,-0.05 -0.007,-0.245 -0.213,-0.598 -0.229,-0.841 -0.009,0.008 -0.021,0.014 -0.027,0.024 -0.412,0.72 -0.812,1.163 -1.46,1.742 -0.107,0.096 -0.59,0.454 -0.707,0.463 -0.119,-0.421 -0.177,-1.203 -0.199,-1.64 -0.011,0.003 -0.023,0.004 -0.032,0.01 -0.702,0.503 -1.863,0.87 -2.801,0.911 0.07,-0.453 0.212,-1.104 0.436,-1.499 -0.011,0 -0.085,0.048 -0.096,0.05 -0.249,0.05 -1.002,0.464 -3.188,0.172 C 5.494,18.002 5.481,17.997 5.468,17.994 5.911,17.157 6.386,16.505 6.827,16.039 6.814,16.035 6.802,16.028 6.789,16.027 4.069,15.818 2.54,14.697 2.574,14.659 4.069,12.988 5.111,13.21 5.112,13.084 3.967,12.53 2.389,11.635 1.69,10.568 1.545,10.346 1.28,9.996 1.369,9.949 1.384,9.941 2.282,9.637 2.294,9.636 3.983,9.463 4.741,9.46 4.741,9.46 4.161,8.888 2.696,8.686 1.943,8.932 c 0.002,0.003 0.002,0.003 -0.001,0 v 0 0 L 1.934,8.925 C 0.42,7.197 0.095,5.787 0,5.347 L 2.523,5.24 c 1.04,0.199 1.269,0.199 2.248,0.596 0,0 0.061,0 0.061,0 C 4.198,5.128 3.086,4.455 2.112,4.509 2.103,4.476 2.098,4.442 2.085,4.411 1.162,2.181 0.937,0.589 0.964,0 l 1.667,0.071 c 0.025,0.017 0.049,0.035 0.076,0.05 4.68,2.519 5.261,4.737 7.494,6.109 0.319,0.196 0.856,0.466 1.193,0.631 -0.011,0.013 -0.026,0.021 -0.038,0.031 -0.206,0.161 -0.237,0.176 -0.398,0.436 -0.032,0.052 -0.019,0.06 -0.023,0.084 -0.165,1.029 -0.13,2.24 0.089,3.237 0.005,0.024 0.002,0.05 0.003,0.074 0.272,1.269 1.238,2.597 2.398,3.168 0.069,0.034 0.202,0.117 0.15,0.06 -0.667,-0.739 -0.887,-1.155 -1.188,-1.683 0.004,-0.014 0.006,-0.03 0.014,-0.043 0.447,-0.828 0.795,-1.463 0.758,-2.866 0,-0.017 -0.001,-0.033 -0.002,-0.05 0.854,-0.624 1.795,-1.089 2.845,-1.25 1.05,0.161 1.991,0.626 2.845,1.25 -0.001,0.017 -0.002,0.034 -0.002,0.05 -0.037,1.404 0.311,2.038 0.758,2.866 0.007,0.013 0.009,0.028 0.014,0.043 -0.301,0.528 -0.521,0.944 -1.188,1.683 -0.052,0.057 0.081,-0.026 0.15,-0.06 1.16,-0.571 2.127,-1.899 2.398,-3.168 0.001,-0.024 -0.002,-0.05 0.003,-0.074 C 21.199,9.653 21.233,8.441 21.069,7.412 21.065,7.388 21.078,7.38 21.046,7.328 20.885,7.068 20.855,7.053 20.648,6.892 20.635,6.882 20.62,6.875 20.61,6.861 20.946,6.696 21.483,6.426 21.803,6.23 24.036,4.858 24.617,2.641 29.297,0.121 29.324,0.107 29.347,0.088 29.373,0.071 L 31.04,0 C 31.067,0.59 30.841,2.181 29.918,4.411 29.905,4.442 29.9,4.476 29.891,4.509 28.917,4.455 27.805,5.127 27.171,5.836 h 0.061 C 28.211,5.438 28.44,5.438 29.48,5.24 l 2.523,0.107 c -0.095,0.44 -0.421,1.85 -1.934,3.578 l -0.008,0.007 v 0 0 c -0.003,0.003 -0.003,0.003 -0.001,0 -0.753,-0.246 -2.218,-0.044 -2.798,0.528 0,0 0.758,0.003 2.447,0.176 0.012,0.001 0.911,0.306 0.925,0.313 0.089,0.048 -0.176,0.398 -0.321,0.619 -0.699,1.067 -2.277,1.961 -3.422,2.516 0.001,0.126 1.044,-0.096 2.538,1.575 0.033,0.037 -1.495,1.158 -4.215,1.368 -0.013,10e-4 -0.025,0.008 -0.038,0.012 0.442,0.466 0.917,1.118 1.36,1.955 -0.013,0.003 -0.026,0.008 -0.039,0.01 -2.186,0.292 -2.939,-0.122 -3.188,-0.172 -0.01,-0.002 -0.085,-0.05 -0.096,-0.05 0.224,0.395 0.366,1.046 0.436,1.499 -0.938,-0.041 -2.098,-0.408 -2.801,-0.911 -0.009,-0.007 -0.021,-0.007 -0.032,-0.01 -0.022,0.437 -0.08,1.219 -0.199,1.64 -0.117,-0.009 -0.6,-0.367 -0.707,-0.463 -0.649,-0.579 -1.048,-1.022 -1.46,-1.742 -0.006,-0.01 -0.018,-0.016 -0.027,-0.024 -0.016,0.243 -0.222,0.596 -0.229,0.841 0,0 0.057,0.05 0.057,0.05 1.265,1.193 2.444,2.841 2.955,4.507 -0.654,0.031 -1.43,0.035 -2.034,-0.234 -0.012,-0.005 -0.024,-0.007 -0.037,-0.008 0.017,0.531 0.127,1.284 -0.175,2.104 -0.478,-0.243 -1.149,-0.484 -1.411,-0.992 -0.005,-0.01 -0.018,-0.012 -0.028,-0.018 -0.056,0.783 -0.663,1.714 -1.52,1.741 l -0.158,-0.015 z m 0.158,-13.948 c -0.214,0.345 -0.512,0.618 -0.831,0.862 0.198,0.829 0.509,1.624 0.831,2.411 0.322,-0.787 0.633,-1.582 0.831,-2.411 -0.319,-0.244 -0.617,-0.518 -0.831,-0.862 z m 7.536,-4.236 v 0 c -0.268,1.083 0.247,2.174 0.052,3.255 -0.475,1.335 -1.439,2.399 -2.277,3.513 0.294,-0.059 0.694,-0.167 0.933,-0.369 1.019,-0.907 1.413,-2.174 2.378,-3.123 0,-0.006 0.006,-0.027 0.247,-0.233 0.005,-0.005 0.011,-0.01 0.011,-0.015 -0.098,0.002 -0.579,0.045 -0.677,0.046 C 24.222,9.786 24.049,8.92 24.009,8.072 23.843,7.893 23.71,7.738 23.539,7.564 Z m -15.072,0 C 8.296,7.738 8.163,7.893 7.997,8.071 7.957,8.919 7.784,9.785 7.8,10.636 7.702,10.635 7.221,10.593 7.123,10.59 c 0,0.005 0.006,0.011 0.011,0.015 0.24,0.206 0.246,0.227 0.247,0.233 0.965,0.949 1.359,2.217 2.378,3.123 0.239,0.202 0.639,0.31 0.933,0.369 C 9.854,13.216 8.89,12.151 8.415,10.816 8.219,9.734 8.735,8.643 8.467,7.561 v 0 z"
     id="path4" />
</svg>
