<?xml version="1.0" encoding="UTF-8" standalone="no"?>
<svg
   version="1.1"
   width="30.34824"
   height="34.061161"
   viewBox="0 0 30.348239 34.061161"
   id="svg4"
   xmlns="http://www.w3.org/2000/svg"
   xmlns:svg="http://www.w3.org/2000/svg">
  <defs>
    <!-- This is the gradient that will actually be used on
     the cards. The colors themselves will be provided by the
     template, but the x values, y values, and offsets will be
     used from the SVG. -->
    <linearGradient id="rarity" x1="0" y1="0" x2="1" y2="0">
      <stop offset="0" style="stop-color:rgb(192,55,38);stop-opacity:1" id="stop2" />
      <stop offset="0.125" style="stop-color:rgb(192,55,38);stop-opacity:1" id="stop4" />
      <stop offset="0.5" style="stop-color:rgb(241,142,30);stop-opacity:1" id="stop6" />
      <stop offset="0.875" style="stop-color:rgb(192,55,38);stop-opacity:1" id="stop8" />
      <stop offset="1" style="stop-color:rgb(192,55,38);stop-opacity:1" id="stop10" />
    </linearGradient>
    <!-- These gradients are here so that you can visualize
     what the set symbol would like like in that rarity. The
     only gradient that matters in the end is the "rarity"
     gradient. -->
    <linearGradient id="mythic" x1="0" y1="1" x2="1" y2="0">
      <stop offset="0" style="stop-color:rgb(192,55,38);stop-opacity:1"/>
      <stop offset="0.125" style="stop-color:rgb(192,55,38);stop-opacity:1"/>
      <stop offset="0.5" style="stop-color:rgb(241,142,30);stop-opacity:1"/>
      <stop offset="0.875" style="stop-color:rgb(192,55,38);stop-opacity:1"/>
      <stop offset="1" style="stop-color:rgb(192,55,38);stop-opacity:1"/>
    </linearGradient>
    <linearGradient id="rare" x1="0" y1="1" x2="1" y2="0">
      <stop offset="0" style="stop-color:rgb(146,116,67);stop-opacity:1"/>
      <stop offset="0.125" style="stop-color:rgb(146,116,67);stop-opacity:1"/>
      <stop offset="0.5" style="stop-color:rgb(211,178,108);stop-opacity:1"/>
      <stop offset="0.875" style="stop-color:rgb(146,116,67);stop-opacity:1"/>
      <stop offset="1" style="stop-color:rgb(146,116,67);stop-opacity:1"/>
    </linearGradient>
    <linearGradient id="special" x1="0" y1="1" x2="1" y2="0">
      <stop offset="0" style="stop-color:rgb(76, 56, 106);stop-opacity:1"/>
      <stop offset="0.125" style="stop-color:rgb(76, 56, 106);stop-opacity:1"/>
      <stop offset="0.5" style="stop-color:rgb(201, 173, 221);stop-opacity:1"/>
      <stop offset="0.875" style="stop-color:rgb(76, 56, 106);stop-opacity:1"/>
      <stop offset="1" style="stop-color:rgb(76, 56, 106);stop-opacity:1"/>
    </linearGradient>
    <linearGradient id="uncommon" x1="0" y1="1" x2="1" y2="0">
      <stop offset="0" style="stop-color:rgb(98,110,119);stop-opacity:1"/>
      <stop offset="0.125" style="stop-color:rgb(98,110,119);stop-opacity:1"/>
      <stop offset="0.5" style="stop-color:rgb(196,222,238);stop-opacity:1"/>
      <stop offset="0.875" style="stop-color:rgb(98,110,119);stop-opacity:1"/>
      <stop offset="1" style="stop-color:rgb(98,110,119);stop-opacity:1"/>
    </linearGradient>
    <linearGradient id="common" x1="0" y1="1" x2="1" y2="0">
      <stop offset="0" style="stop-color:rgb(0,0,0);stop-opacity:1"/>
    </linearGradient>
    <linearGradient
            id="rarity-outline" x1="0" y1="1" x2="0" y2="1">
      <stop offset="0" style="stop-color:rgb(0,0,0);stop-opacity:1"/>
    </linearGradient>
  </defs>
  <path fill="url(#rarity-outline)" d="M 10.982422,0 9.9003907,0.35546875 C 6.7122147,1.4033989 4.1481147,3.7811217 2.34375,6.5253906 l -0.00977,0.015625 -0.00977,0.015625 C 0.97160737,8.8257825 0.04647553,11.851713 0.015625,14.935547 L 0,16.482422 1.3339844,15.699219 c 0.7920934,-0.465236 1.6905751,-0.597297 2.3515625,-0.201172 0.4569801,0.365156 0.8149954,0.808251 0.9433593,1.246094 0.061929,0.862622 0.077535,1.613162 -0.2324219,2.050781 l -0.021484,0.03125 -0.019531,0.03125 c -0.2678725,0.456152 -0.9370278,0.66441 -1.8320312,0.996094 l -0.7617188,0.28125 0.2246094,0.78125 c 0.7492476,2.598454 2.2911838,4.866415 4.1816406,6.65039 0.9385796,1.09064 2.1128935,1.934979 3.404297,2.488282 l 0.5175783,0.222656 c -0.05219,0.483721 -0.1527779,0.977781 -0.308594,1.470703 l -0.1835937,0.582031 0.4843747,0.375 c 1.206922,0.931574 2.641288,1.178095 3.894532,1.314453 l 0.01953,0.0039 h 0.01953 c 2.00324,0.123966 4.268828,0.0015 6.179688,-1.279297 l 0.529297,-0.355469 -0.175782,-0.613281 C 20.374514,31.165291 20.227091,30.681179 20.191405,30.24804 l 0.375,-0.132813 c 0.292663,-0.103692 0.663476,-0.220637 1.052734,-0.460937 l 0.0059,-0.0039 0.0059,-0.0039 c 1.450948,-0.925913 2.777946,-2.070018 3.902343,-3.412109 l 0.0098,-0.01172 0.0078,-0.0098 c 1.205028,-1.531653 2.135152,-3.280106 2.792969,-5.111329 l 0.232422,-0.646484 -0.574219,-0.378906 c -0.503028,-0.332404 -0.991543,-0.517131 -1.353616,-0.712861 -0.362074,-0.195729 -0.571179,-0.362247 -0.703125,-0.609375 l -0.01953,-0.03516 -0.02148,-0.0332 c -0.285888,-0.435528 -0.298335,-1.14148 -0.208984,-1.916016 0.193461,-0.730226 0.89735,-1.336991 1.61914,-1.455078 l 0.0332,-0.0059 0.03125,-0.0078 c 0.442409,-0.107402 1.024777,0.09823 1.765624,0.398438 l 1.19336,0.482422 0.0098,-1.28711 C 30.366684,12.666172 29.891437,10.454228 29.003907,8.4355469 27.840177,5.5782783 25.659423,3.3889601 23.333985,1.71875 l -0.03711,-0.027344 -0.04102,-0.021484 C 22.408601,1.1870033 21.412152,0.48118708 20.097652,0.3496093 l -0.921876,-0.0917969 -0.03906,0.9257813 c -0.04006,0.9529022 0.03582,1.7829586 -0.05078,2.5058593 -1.582691,2.4230605 -2.344795,3.8608467 -2.304688,6.732422 0.02409,0.685407 0.02227,1.262906 -0.107422,1.753906 -0.141761,0.283518 -0.337565,0.441961 -0.6875,0.550781 -0.36811,0.114471 -0.868053,0.133508 -1.3125,0.08203 l -0.0293,-0.0039 -0.03125,-0.002 C 14.115797,12.780024 13.56894,12.383053 13.525391,11.914062 13.446001,10.792739 13.596181,9.5317783 13.386719,8.15625 13.249876,7.003441 12.583164,5.8647781 11.929688,4.9140625 11.537061,4.3632731 11.234386,3.8909096 11.091797,3.4082031 c -0.04976,-0.6740746 0.0037,-1.4255374 -0.04492,-2.2714844 z" />
  <path fill="url(#rarity)" d="m 3.0754368,7.0055 c 1.7219999,-2.619 4.1529999,-4.85 7.0980002,-5.818 0.046,0.801 -0.025,1.606 0.048,2.407 0.375,1.373 1.613,2.284 2.009,3.644 -2.4620002,0.888 -4.8260002,2.867 -5.3030002,5.662 0.936,-1.392 1.873,-2.869 3.2900002,-3.778 0.69,-0.469 1.495,-0.718 2.305,-0.835 0.187,1.228 0.041,2.472 0.131,3.708 0.091,0.98 1.022,1.641 1.92,1.682 1.062,0.123 2.422,-0.041 2.933,-1.171 0.407,-1.37 -0.114,-2.861 0.32,-4.227 0.858,0.136 1.686,0.454 2.396,0.976 1.357,0.885 2.27,2.29 3.149,3.64 -0.416,-2.013 -1.827,-3.623 -3.464,-4.693 -0.602,-0.361 -1.236,-0.664 -1.85,-1.004 0.446,-1.199 1.359,-2.119 1.893,-3.264 0.131,-0.897 0.023,-1.81 0.061,-2.714 1.029,0.103 1.926,0.704 2.812,1.209 2.243,1.611 4.297,3.694 5.374,6.344 0.843,1.912 1.294,4.01 1.276,6.114 -0.728,-0.295 -1.505,-0.63 -2.3,-0.437 -1.088,0.178 -2.087,1.025 -2.353,2.155 -0.106,0.859 -0.138,1.812 0.353,2.56 0.488,0.914 1.555,1.118 2.346,1.641 -0.629,1.751 -1.516,3.416 -2.656,4.865 -1.064,1.27 -2.324,2.358 -3.703,3.238 -0.277,0.171 -0.584,0.274 -0.886,0.381 0.415,-2.907 2.1,-5.397 3.891,-7.586 -1.556,0.897 -2.696,2.39 -3.594,3.956 -0.717,1.372 -1.367,2.881 -1.286,4.479 0.017,0.649 0.247,1.261 0.423,1.877 -1.662,1.114 -3.715,1.253 -5.638,1.134 -1.204,-0.131 -2.459,-0.371 -3.454,-1.139 0.367,-1.161 0.561,-2.419 0.217,-3.615 -0.529,-1.71 -1.3240002,-3.351 -2.4500002,-4.722 -0.516,-0.699 -1.186,-1.256 -1.928,-1.675 0.551,1.025 1.342,1.879 1.913,2.892 0.767,1.332 1.443,2.785 1.548,4.358 -1.181,-0.506 -2.255,-1.273 -3.104,-2.265 -1.815,-1.698 -3.28,-3.866 -3.985,-6.311 0.823,-0.305 1.795,-0.542 2.283,-1.373 0.556,-0.785 0.473,-1.808 0.402,-2.724 -0.189,-0.749 -0.738,-1.356 -1.322,-1.81 -1.025,-0.65 -2.304,-0.407 -3.30000006,0.178 -0.237,-2.821 0.75699996,-5.588 2.18500006,-7.94 z m 4.956,9.432 c -0.148,0.794 0.418,1.465 0.987,1.9 0.75,0.588 1.7550002,0.397 2.6130002,0.248 0.503,-0.145 0.99,0.09 1.458,0.255 0.227,-0.602 0.382,-1.234 0.418,-1.882 -0.511,-0.405 -1.073,-0.742 -1.676,-0.978 -0.854,-0.369 -1.8,-0.259 -2.7010002,-0.226 -0.4260001,0.034 -1.02,0.159 -1.1,0.683 z m 8.8280002,0.473 c -0.139,0.625 0.095,1.239 0.33,1.803 1.211,-0.509 2.509,0.385 3.695,-0.214 0.785,-0.29 1.344,-1.087 1.389,-1.95 -0.076,-0.449 -0.564,-0.618 -0.929,-0.744 -1.553,-0.314 -3.252,0.062 -4.485,1.104 z m -1.775,6.923 c -0.561,-0.19 -1.005,-0.626 -1.556,-0.837 -0.297,-0.048 -0.597,0.002 -0.893,0.021 0.056,0.245 0.1,0.554 0.398,0.588 0.722,0.147 1.445,0.35 2.18,0.395 0.773,-0.138 1.546,-0.29 2.318,-0.449 -0.005,-0.2 -0.012,-0.4 -0.018,-0.6 -0.919,-0.269 -1.563,0.775 -2.429,0.882 z m -2.65,3.351 c 0.236,0.34 0.4,0.804 0.818,0.944 0.692,0.242 1.433,0.228 2.155,0.233 0.551,-0.01 1.13,-0.005 1.634,-0.267 0.377,-0.183 0.581,-0.578 0.828,-0.902 -0.758,-0.593 -1.75,-0.35 -2.63,-0.399 -0.937,0.06 -1.981,-0.204 -2.806,0.392 z"/>
</svg>
