<?xml version="1.0" encoding="UTF-8" standalone="no"?>
<!-- Generated by IcoMoon.io -->

<svg
   version="1.1"
   width="28.572233"
   height="25.568001"
   viewBox="0 0 28.572233 25.568001"
   id="svg6"
   sodipodi:docname="tmp.svg"
   inkscape:version="1.1.1 (3bf5ae0d25, 2021-09-20)"
   xmlns:inkscape="http://www.inkscape.org/namespaces/inkscape"
   xmlns:sodipodi="http://sodipodi.sourceforge.net/DTD/sodipodi-0.dtd"
   xmlns="http://www.w3.org/2000/svg"
   xmlns:svg="http://www.w3.org/2000/svg">
  <defs
     id="defs10" />
  <sodipodi:namedview
     id="namedview8"
     pagecolor="#ffffff"
     bordercolor="#666666"
     borderopacity="1.0"
     inkscape:pageshadow="2"
     inkscape:pageopacity="0.0"
     inkscape:pagecheckerboard="0"
     showgrid="false"
     inkscape:zoom="26.5625"
     inkscape:cx="14.512941"
     inkscape:cy="11.501176"
     inkscape:window-width="1920"
     inkscape:window-height="1009"
     inkscape:window-x="-8"
     inkscape:window-y="-8"
     inkscape:window-maximized="1"
     inkscape:current-layer="svg6" />
  <title
     id="title2">tmp</title>
  <path
     fill="#000000"
     d="m 17.277233,0.001 c 3.529,0 5.019,3.677 5.019,5.021 0,1.412 -0.863,2.744 -0.863,2.744 2.042,-1.099 3.532,0.939 3.532,0.939 1.175,-0.623 3.607,0 3.607,2.511 0,2.511 -2.196,2.901 -2.196,2.901 h -8.551 l 6.355,5.96 -3.844,-0.545 5.725,6.036 -17.1770003,-9.958 5.1760003,0.627 -2.823,-2.12 H 2.6082327 c -4.155,-2.196 -2.50799996,-5.804 -0.784,-6.821 1.726,-1.021 3.922,0.312 3.922,0.312 -1.254,-2.665 1.255,-5.334 3.45,-5.334 2.1950003,0 3.2950003,1.648 3.2950003,1.648 0,0 1.254,-3.922 4.785,-3.922 z m -4.509,14.108 3.589,3.089 -3.619,-0.321 8.971,5.264 -3.559,-3.677 3.616,0.5 -5.194,-4.846 z"
     id="path4" />
</svg>
