<?xml version="1.0" encoding="UTF-8" standalone="no"?>
<!-- Generated by IcoMoon.io -->

<svg
   version="1.1"
   width="31.983999"
   height="18.463249"
   viewBox="0 0 31.983999 18.463249"
   id="svg10"
   sodipodi:docname="tpr.svg"
   inkscape:version="1.1.1 (3bf5ae0d25, 2021-09-20)"
   xmlns:inkscape="http://www.inkscape.org/namespaces/inkscape"
   xmlns:sodipodi="http://sodipodi.sourceforge.net/DTD/sodipodi-0.dtd"
   xmlns="http://www.w3.org/2000/svg"
   xmlns:svg="http://www.w3.org/2000/svg">
  <defs
     id="defs14" />
  <sodipodi:namedview
     id="namedview12"
     pagecolor="#ffffff"
     bordercolor="#666666"
     borderopacity="1.0"
     inkscape:pageshadow="2"
     inkscape:pageopacity="0.0"
     inkscape:pagecheckerboard="0"
     showgrid="false"
     inkscape:zoom="26.5625"
     inkscape:cx="15.981176"
     inkscape:cy="9.6564706"
     inkscape:window-width="1920"
     inkscape:window-height="1009"
     inkscape:window-x="-8"
     inkscape:window-y="-8"
     inkscape:window-maximized="1"
     inkscape:current-layer="svg10" />
  <title
     id="title2">tpr</title>
  <path
     fill="#000000"
     d="m 11.419,2.5e-4 c 2.919,0 5.838,-0.001 8.757,0.001 -0.938,1.964 -1.881,3.925 -2.818,5.889 0.956,2.398 1.912,4.794 2.868,7.192 -0.736,0.021 -1.472,0.031 -2.208,0.053 0.432,1.776 0.865,3.552 1.299,5.328 -2.256,-3.023 -4.512,-6.046 -6.767,-9.069 1.146,0.022 2.292,0.053 3.438,0.079 -1.521,-3.159 -3.048,-6.314 -4.57,-9.473 z"
     id="path4" />
  <path
     fill="#000000"
     d="m 20.859,6.51025 c 0.938,-1.785 1.873,-3.571 2.815,-5.356 2.927,1.425 5.216,3.969 6.588,6.897 0.854,1.799 1.43,3.727 1.722,5.696 -0.733,0.15 -1.431,0.56 -1.825,1.21 -0.604,0.96 -0.622,2.156 -0.484,3.245 -1.347,-10e-4 -2.694,-10e-4 -4.041,0 -0.089,-2.335 -0.367,-4.695 -1.169,-6.903 -0.692,-1.896 -1.856,-3.717 -3.606,-4.79 z"
     id="path6" />
  <path
     fill="#000000"
     d="m 4.113,4.55025 c 1.17,-1.326 2.596,-2.43 4.185,-3.21 0.939,1.794 1.877,3.588 2.814,5.384 -1.964,1.148 -3.143,3.25 -3.809,5.362 -0.636,2.026 -0.877,4.153 -0.951,6.266 -1.349,0.002 -2.697,0 -4.046,10e-4 0.143,-1.099 0.119,-2.31 -0.504,-3.27 -0.394,-0.634 -1.082,-1.033 -1.802,-1.182 0.52,-3.397 1.822,-6.752 4.113,-9.353 z"
     id="path8" />
</svg>
