<?xml version="1.0" encoding="UTF-8" standalone="no"?>
<!-- Generated by IcoMoon.io -->

<svg
   version="1.1"
   width="22.959"
   height="26.136"
   viewBox="0 0 22.959 26.136"
   id="svg6"
   sodipodi:docname="tsp.svg"
   inkscape:version="1.1.1 (3bf5ae0d25, 2021-09-20)"
   xmlns:inkscape="http://www.inkscape.org/namespaces/inkscape"
   xmlns:sodipodi="http://sodipodi.sourceforge.net/DTD/sodipodi-0.dtd"
   xmlns="http://www.w3.org/2000/svg"
   xmlns:svg="http://www.w3.org/2000/svg">
  <defs
     id="defs10" />
  <sodipodi:namedview
     id="namedview8"
     pagecolor="#ffffff"
     bordercolor="#666666"
     borderopacity="1.0"
     inkscape:pageshadow="2"
     inkscape:pageopacity="0.0"
     inkscape:pagecheckerboard="0"
     showgrid="false"
     inkscape:zoom="26.5625"
     inkscape:cx="11.162353"
     inkscape:cy="12.555294"
     inkscape:window-width="1920"
     inkscape:window-height="1009"
     inkscape:window-x="-8"
     inkscape:window-y="-8"
     inkscape:window-maximized="1"
     inkscape:current-layer="svg6" />
  <title
     id="title2">tsp</title>
  <path
     fill="#000000"
     d="M 17.664,5.827 C 15.331,6.649 13.881,6.89 11.408,6.873 8.974,6.859 7.552,6.61 5.259,5.788 4.819,4.919 4.547,3.92 4.547,3.056 h 13.869 c 0,0.931 -0.752,2.77 -0.752,2.77 z m -2.773,11.652 c 2.201,1.158 3.631,2.849 3.631,4.907 0,0.303 -0.028,0.291 -0.087,0.687 h -2.872 c -1.974,-1.472 -3.34,-3.895 -3.34,-7.142 l -0.019,-0.348 c 0,0 1.223,1.125 2.686,1.896 z m -4.147,-1.45 c 0,3.248 -1.369,5.673 -3.346,7.045 H 4.529 C 4.467,22.78 4.436,22.79 4.436,22.482 c 0,-2.056 1.436,-3.749 3.632,-4.902 1.472,-0.771 2.689,-1.999 2.689,-1.999 L 10.743,16.03 Z M 22.958,2.76 V 0.312 C 22.958,0.14 22.824,0 22.652,0 H 0.305 C 0.137,0 0,0.14 0,0.312 V 2.76 c 0,0.162 0.137,0.3 0.305,0.3 H 2.12 L 2.117,3.295 c 0,2.804 1.96,4.877 4.386,6.155 1.408,0.735 1.728,1.63 1.728,3.304 0,1.652 -0.351,2.594 -1.772,3.34 -2.431,1.276 -4.389,3.351 -4.389,6.152 0,0.286 0.02,0.556 0.057,0.828 H 0.306 c -0.168,0 -0.305,0.14 -0.305,0.308 v 2.452 c 0,0.165 0.137,0.302 0.305,0.302 h 22.347 c 0.172,0 0.306,-0.137 0.306,-0.302 v -2.452 c 0,-0.168 -0.134,-0.308 -0.306,-0.308 h -1.864 c 0.031,-0.272 0.056,-0.541 0.056,-0.828 0,-2.801 -1.963,-4.877 -4.391,-6.152 -1.419,-0.746 -1.77,-1.688 -1.77,-3.34 0,-1.612 0.373,-2.543 1.82,-3.304 2.429,-1.276 4.388,-3.351 4.388,-6.155 L 20.889,3.06 h 1.767 c 0.169,0 0.303,-0.138 0.303,-0.3 z"
     id="path4" />
</svg>
