<?xml version="1.0" encoding="UTF-8" standalone="no"?>
<svg
   version="1.1"
   width="29.287048"
   height="28.630026"
   viewBox="0 0 29.287048 28.630026"
   id="svg4"
   xmlns="http://www.w3.org/2000/svg"
   xmlns:svg="http://www.w3.org/2000/svg">
  <defs>
    <!-- This is the gradient that will actually be used on
     the cards. The colors themselves will be provided by the
     template, but the x values, y values, and offsets will be
     used from the SVG. -->
    <linearGradient id="rarity" x1="0" y1="0.25" x2="1" y2="0.75">
      <stop offset="0" style="stop-color:rgb(192,55,38);stop-opacity:1" id="stop2" />
      <stop offset="0.125" style="stop-color:rgb(192,55,38);stop-opacity:1" id="stop4" />
      <stop offset="0.5" style="stop-color:rgb(241,142,30);stop-opacity:1" id="stop6" />
      <stop offset="0.875" style="stop-color:rgb(192,55,38);stop-opacity:1" id="stop8" />
      <stop offset="1" style="stop-color:rgb(192,55,38);stop-opacity:1" id="stop10" />
    </linearGradient>
    <!-- These gradients are here so that you can visualize
     what the set symbol would like like in that rarity. The
     only gradient that matters in the end is the "rarity"
     gradient. -->
    <linearGradient id="mythic" x1="0" y1="1" x2="1" y2="0">
      <stop offset="0" style="stop-color:rgb(192,55,38);stop-opacity:1"/>
      <stop offset="0.125" style="stop-color:rgb(192,55,38);stop-opacity:1"/>
      <stop offset="0.5" style="stop-color:rgb(241,142,30);stop-opacity:1"/>
      <stop offset="0.875" style="stop-color:rgb(192,55,38);stop-opacity:1"/>
      <stop offset="1" style="stop-color:rgb(192,55,38);stop-opacity:1"/>
    </linearGradient>
    <linearGradient id="rare" x1="0" y1="1" x2="1" y2="0">
      <stop offset="0" style="stop-color:rgb(146,116,67);stop-opacity:1"/>
      <stop offset="0.125" style="stop-color:rgb(146,116,67);stop-opacity:1"/>
      <stop offset="0.5" style="stop-color:rgb(211,178,108);stop-opacity:1"/>
      <stop offset="0.875" style="stop-color:rgb(146,116,67);stop-opacity:1"/>
      <stop offset="1" style="stop-color:rgb(146,116,67);stop-opacity:1"/>
    </linearGradient>
    <linearGradient id="special" x1="0" y1="1" x2="1" y2="0">
      <stop offset="0" style="stop-color:rgb(76, 56, 106);stop-opacity:1"/>
      <stop offset="0.125" style="stop-color:rgb(76, 56, 106);stop-opacity:1"/>
      <stop offset="0.5" style="stop-color:rgb(201, 173, 221);stop-opacity:1"/>
      <stop offset="0.875" style="stop-color:rgb(76, 56, 106);stop-opacity:1"/>
      <stop offset="1" style="stop-color:rgb(76, 56, 106);stop-opacity:1"/>
    </linearGradient>
    <linearGradient id="uncommon" x1="0" y1="1" x2="1" y2="0">
      <stop offset="0" style="stop-color:rgb(98,110,119);stop-opacity:1"/>
      <stop offset="0.125" style="stop-color:rgb(98,110,119);stop-opacity:1"/>
      <stop offset="0.5" style="stop-color:rgb(196,222,238);stop-opacity:1"/>
      <stop offset="0.875" style="stop-color:rgb(98,110,119);stop-opacity:1"/>
      <stop offset="1" style="stop-color:rgb(98,110,119);stop-opacity:1"/>
    </linearGradient>
    <linearGradient id="common" x1="0" y1="1" x2="1" y2="0">
      <stop offset="0" style="stop-color:rgb(0,0,0);stop-opacity:1"/>
    </linearGradient>
    <linearGradient
            id="rarity-outline" x1="0" y1="1" x2="0" y2="1">
      <stop offset="0" style="stop-color:rgb(0,0,0);stop-opacity:1"/>
    </linearGradient>
  </defs>
  <path fill="url(#rarity-outline)" d="m 10.878826,0 -0.513672,0.01367188 c -1.2168196,0.0307679 -0.7285205,0.007713 -1.583984,0.0566406 -0.2317392,0.009656 -0.5837853,0.0563713 -0.8359376,0.37500001 l -0.00391,0.005859 -0.00586,0.005859 C 7.7180326,0.75009477 7.741178,1.06389 7.773353,1.2695313 v 0.00195 0.00391 c 0.1006695,0.5970133 0.2029158,1.1952405 0.304692,1.7929691 0.034372,0.2152743 0.1375126,0.4656929 0.3847656,0.6367187 0.2679738,0.1861411 0.5296218,0.1738673 0.6582031,0.1777344 h 0.00586 0.5292969 C 9.5057181,4.5628585 9.3475315,5.2494395 9.4022637,5.9707031 v 0.00195 0.00195 c 0.049877,0.7090291 0.2358034,1.4087747 0.5585937,2.0488281 v 0.00195 l 0.00195,0.00195 c 0.3035836,0.5917116 0.7146106,1.12118 1.1992186,1.5664062 l 0.01367,0.011719 0.01367,0.00977 c 0.188298,0.1496842 0.356482,0.2937306 0.494143,0.4453206 l 0.0059,0.0059 0.0039,0.0039 c 0.300811,0.314523 0.517689,0.684372 0.564453,1.052734 l 0.002,0.0059 v 0.0059 c 0.03446,0.230843 -0.0036,0.489119 -0.09961,0.738281 -0.24281,0.621925 -0.488133,1.23422 -0.761719,1.828125 l -0.248046,0.539062 c -2.4015457,-1.14e-4 -4.8034708,0 -7.2050786,0 H 0 l 3.8203124,0.984376 c 1.2219667,0.314769 2.443097,0.629782 3.6640626,0.945312 -0.013088,0.0051 -0.025987,0.0066 -0.039063,0.01172 -1.0633562,0.392134 -2.0691464,1.056476 -2.75,2.027343 -8.683e-4,0.0012 -0.00109,0.0027 -0.00195,0.0039 l -0.00195,0.002 C 4.4887058,18.496877 4.3903406,18.824675 4.2518731,19.136719 4.1802751,19.064789 4.1108164,19.00445 4.0370293,18.929688 h -0.00195 c -0.2224724,-0.238029 -0.5781615,-0.420226 -0.984375,-0.3125 -0.4145799,0.107731 -0.6181464,0.388528 -0.7402344,0.5 l -0.00391,0.0039 -0.00391,0.0039 C 1.8844,19.526306 1.4576331,19.928817 1.0409281,20.349598 l -0.00195,0.002 c -0.12142841,0.124219 -0.33701708,0.369759 -0.29296877,0.74414 0.0466649,0.409742 0.32347617,0.626434 0.44921877,0.740235 v 0.002 c 0.2815455,0.263042 0.5719688,0.520236 0.8691406,0.767578 0.7868908,0.65608 1.6089915,1.281805 2.4804687,1.84375 1.654123,1.078243 3.436983,1.953433 5.2949219,2.615234 0.6532057,0.240225 1.3120097,0.430971 1.9609377,0.615235 h 0.002 0.002 c 0.736016,0.203144 1.478344,0.364442 2.220703,0.5 0.0013,2.61e-4 0.0026,-2.61e-4 0.0039,0 0.002,3.65e-4 0.0039,0.0016 0.0059,0.002 0.672259,0.135989 1.343393,0.21824 1.998047,0.298828 h 0.0078 l 0.0078,0.002 c 0.712472,0.06413 1.43844,0.125359 2.175781,0.136719 0.825448,0.02919 1.640064,-0.0058 2.441406,-0.05078 l 0.01953,-0.002 0.01758,-0.002 c 0.190798,-0.02507 0.483848,-0.08345 0.701172,-0.359375 l 0.0059,-0.0059 0.0039,-0.0078 c 0.201225,-0.273575 0.203927,-0.573702 0.167969,-0.798828 v -0.0039 -0.002 c -0.103431,-0.596719 -0.203169,-1.198031 -0.306641,-1.800781 v -0.002 -0.002 c -0.02981,-0.163452 -0.09958,-0.397308 -0.31849,-0.583906 -0.270007,-0.234175 -0.56681,-0.233095 -0.71875,-0.236328 h -0.0039 -0.0059 c -0.162803,-4.49e-4 -0.324073,-8.4e-5 -0.486328,0 0.07341,-0.334609 0.162195,-0.66228 0.19336,-1.011719 0.07314,-0.804501 0.01131,-1.63909 -0.25586,-2.43164 v -0.002 c -0.290857,-0.877145 -0.822315,-1.651288 -1.488281,-2.263672 l -0.01367,-0.01172 -0.01563,-0.01367 c -0.18862,-0.14745 -0.359158,-0.290615 -0.496094,-0.441406 l -0.0039,-0.0039 -0.0039,-0.0059 c -0.288884,-0.303587 -0.502317,-0.651005 -0.5625,-1.001953 v -0.002 -0.002 c -0.04902,-0.267173 -8.81e-4,-0.573257 0.11914,-0.867188 l 0.002,-0.002 v -0.0039 c 0.237598,-0.600036 0.463813,-1.187681 0.732422,-1.736328 l 0.05078,-0.103516 v -0.117188 -0.330078 c 2.46753,-5e-5 4.934543,-5.46e-4 7.402343,0 l 3.884766,0.002 -3.757812,-0.984376 c -1.242113,-0.325379 -2.486793,-0.644919 -3.730469,-0.964843 0.118553,-0.04417 0.240285,-0.04796 0.357422,-0.09961 0.508061,-0.210354 0.98679,-0.485792 1.423828,-0.8125 l 0.002,-0.002 0.0039,-0.002 c 0.432423,-0.333741 0.809812,-0.735811 1.119141,-1.181641 v -0.002 c 0.182368,-0.265824 0.275332,-0.5705427 0.404297,-0.8613278 0.01389,0.013539 0.02707,0.025438 0.04102,0.039063 7.58e-4,7.689e-4 0.0051,0.00311 0.0059,0.00391 l 0.002,0.00195 c 0.09012,0.093918 0.275181,0.3669812 0.669922,0.4707028 0.453816,0.126646 0.810768,-0.1164823 1.007812,-0.2968747 l 0.002,-0.00391 0.0039,-0.00391 c 0.497992,-0.4749468 0.996189,-0.953285 1.486328,-1.4414063 l 0.0039,-0.00391 0.0059,-0.00586 C 28.467725,8.1253401 28.648958,7.8855745 28.603435,7.5371094 28.56269,7.2129475 28.372763,7.0101598 28.238201,6.8847657 l -0.002,-0.00195 C 26.919218,5.6517023 25.467498,4.5642389 23.919842,3.6425781 h -0.002 l -0.002,-0.00195 C 22.885932,3.0415876 21.818068,2.490089 20.699139,2.0390625 l -0.0078,-0.00391 C 19.576867,1.5658036 18.428903,1.1927978 17.269451,0.88671876 h -0.002 -0.002 c -1.901014,-0.48746552 -3.853838,-0.78113313 -5.81836,-0.85351563 -0.194362,-0.007219 -0.379188,-0.00775 -0.568359,-0.009766 z m 1.767578,17.513672 -0.01172,0.0098 c 0.0018,-0.0016 0.0021,-0.0043 0.0039,-0.0059 0.0022,-0.002 0.0056,-0.0019 0.0078,-0.0039 z" />
  <path fill="url(#rarity)" d="m 17.499201,14.540172 c -0.282,0.576 -0.511,1.3775 -0.747,1.9735 -0.147,0.36 -0.22,0.759 -0.149,1.146 0.083,0.484 0.358,0.911 0.692,1.262 0.168,0.185 0.361,0.346 0.558,0.5 0.609,0.56 1.091166,1.266 1.352166,2.054 0.241,0.714 0.301,1.482 0.233,2.23 -0.047,0.527 -0.159,1.047 -0.3,1.556 0.363,0 0.726,-0.001 1.089,0 0.141,0.003 0.297,0.012 0.407,0.111 0.089,0.073 0.129,0.187 0.149,0.298 0.103,0.6 0.201,1.201 0.305,1.801 0.023,0.144 0.012,0.303 -0.077,0.424 -0.089,0.113 -0.236,0.155 -0.373,0.173 -0.801,0.045 -1.604,0.08 -2.407,0.051 -0.714,-0.011 -1.427,-0.072 -2.138,-0.136 -0.658,-0.081 -1.318,-0.162 -1.968,-0.294 -0.735,-0.134 -1.467,-0.292 -2.188,-0.491 -0.648,-0.184 -1.296,-0.373 -1.929,-0.606 -1.8220003,-0.649 -3.5710003,-1.507 -5.1910003,-2.563 -0.85,-0.548 -1.656,-1.162 -2.432,-1.809 -0.292,-0.243 -0.577,-0.495 -0.854,-0.754 -0.128,-0.116 -0.272,-0.245 -0.291,-0.428 -0.017,-0.133 0.069,-0.248 0.156,-0.337 0.409,-0.413 0.832,-0.813 1.252,-1.216 0.161,-0.147 0.31,-0.329 0.53,-0.385 0.181,-0.048 0.369,0.038 0.492,0.17 0.237,0.24 0.471,0.483 0.728,0.702 0.152,-0.524 0.383,-1.028 0.703,-1.472 0.611,-0.874 1.534,-1.491 2.526,-1.855 0.594,-0.235 1.221,-0.369 1.848,-0.478 -1.843,-0.479 -3.6861658,-1.1535 -5.5301658,-1.6285 4.721263,-6.05e-4 9.5149871,6.92e-4 13.5540001,10e-4 z m -2.867834,2.5315 c -0.299,0.596 -0.557,1.215 -0.73,1.86 -0.288,1.02 -0.362,2.103 -0.186,3.149 0.073,0.431 0.175,0.862 0.358,1.261 0.184,0.421 0.46,0.802 0.8,1.112 0.554,0.491 1.28,0.783 2.019,0.816 0.271,-0.518 0.455,-1.091 0.465,-1.68 0.001,-0.436 -0.074,-0.874 -0.233,-1.281 -0.189,-0.501 -0.478,-0.96 -0.816,-1.373 -0.177,-0.228 -0.389,-0.426 -0.564,-0.655 -0.322,-0.397 -0.595,-0.836 -0.797,-1.306 -0.255,-0.597 -0.369,-1.255 -0.317,-1.903 z m -1.647,-0.703 c -0.194,0.283 -0.413,0.551 -0.674,0.774 -0.319,0.289 -0.693,0.512 -1.079,0.698 -0.583,0.272 -1.218,0.402 -1.8470003,0.515 -0.473,0.109 -0.943,0.25 -1.373,0.479 -0.457,0.238 -0.874,0.564 -1.182,0.979 -0.364,0.47 -0.571,1.043 -0.677,1.623 0.57,0.393 1.264,0.622 1.958,0.597 0.593,-0.01 1.173,-0.204 1.676,-0.512 0.8170003,-0.522 1.4960003,-1.246 2.0140003,-2.062 0.598,-0.938 0.968,-2.005 1.184,-3.092 z m -0.157,-12.6450001 0.089,-0.169 c 2.416,0.248 4.805,0.805 7.008,1.85 1.001,0.465 1.964,1.013 2.87,1.644 -0.102,0.545 -0.272,1.092 -0.606,1.542 -0.263,0.362 -0.65,0.638 -1.087,0.746 -0.35,0.095 -0.719,0.108 -1.078,0.062 -1.214,-0.273 -2.422,-0.577 -3.608,-0.953 -0.783,-0.258 -1.561,-0.545 -2.291,-0.931 -0.248,-0.145 -0.494,-0.296 -0.719,-0.475 -0.374,-0.312 -0.678,-0.717 -0.836,-1.181 -0.181,-0.518 -0.149,-1.094 0.034,-1.607 0.108,-0.299 0.039,-0.122 0.223,-0.527 z m -2.449,-3.21000002 v 0 c -1.2260003,0.031 -0.7010003,0.006 -1.5760003,0.056 -0.168,0.007 -0.355,0.047 -0.465,0.186 -0.092,0.124 -0.093,0.28900002 -0.07,0.43600002 0.101,0.599 0.202,1.199 0.304,1.798 0.019,0.119 0.074,0.237 0.175,0.306 0.113,0.08 0.256,0.083 0.389,0.087 h 1.0780003 c -0.2350003,0.827 -0.3790003,1.691 -0.3130003,2.553 0.045,0.646 0.2150003,1.284 0.5070003,1.863 0.275,0.536 0.65,1.019 1.093,1.426 0.195,0.155 0.386,0.315 0.554,0.5 0.351,0.3670001 0.635,0.8240001 0.7,1.3360001 0.05,0.335 -0.007,0.678 -0.128,0.992 -0.244,0.625 -0.493,1.498 -0.774,2.108 4.517,-10e-4 9.033,-10e-4 13.55,0 -1.84,-0.482 -3.681,-1.208 -5.525,-1.678 0.708,-0.124 1.418,-0.285 2.078,-0.576 0.471,-0.194 0.917,-0.451 1.325,-0.756 0.39,-0.301 0.732,-0.665 1.013,-1.07 0.295,-0.4300001 0.513,-0.9110001 0.66,-1.4100001 0.191,0.166 0.373,0.342 0.554,0.519 0.133,0.135 0.254,0.306 0.45,0.352 0.2,0.06 0.398,-0.06 0.54,-0.19 0.497,-0.474 0.992,-0.95 1.478,-1.434 0.08,-0.084 0.151,-0.196 0.134,-0.317 -0.017,-0.142 -0.112,-0.257 -0.213,-0.351 -1.291,-1.207 -2.714,-2.273 -4.232,-3.177 -1.018,-0.592 -2.067,-1.133 -3.16,-1.573 -1.091,-0.46 -2.219,-0.827 -3.363,-1.129 -1.868,-0.47900002 -3.785,-0.76700002 -5.712,-0.83800002 -0.35,-0.013 -0.701,-0.012 -1.051,-0.017 z"/>
</svg>
