<?xml version="1.0" encoding="UTF-8" standalone="no"?>
<svg
   version="1.1"
   width="33.990234"
   height="21.035156"
   viewBox="0 0 33.990234 21.035156"
   id="svg4"
   xmlns="http://www.w3.org/2000/svg"
   xmlns:svg="http://www.w3.org/2000/svg">
  <defs>
    <!-- This is the gradient that will actually be used on
     the cards. The colors themselves will be provided by the
     template, but the x values, y values, and offsets will be
     used from the SVG. -->
    <radialGradient id="rarity">
      <stop offset="0" style="stop-color:rgb(192,55,38);stop-opacity:1" id="stop2" />
      <stop offset="0" style="stop-color:rgb(192,55,38);stop-opacity:1" id="stop4" />
      <stop offset="0" style="stop-color:rgb(241,142,30);stop-opacity:1" id="stop6" />
      <stop offset="0.875" style="stop-color:rgb(192,55,38);stop-opacity:1" id="stop8" />
      <stop offset="1" style="stop-color:rgb(192,55,38);stop-opacity:1" id="stop10" />
    </radialGradient>
    <!-- These gradients are here so that you can visualize
     what the set symbol would like like in that rarity. The
     only gradient that matters in the end is the "rarity"
     gradient. -->
    <linearGradient id="mythic" x1="0" y1="1" x2="1" y2="0">
      <stop offset="0" style="stop-color:rgb(192,55,38);stop-opacity:1"/>
      <stop offset="0.125" style="stop-color:rgb(192,55,38);stop-opacity:1"/>
      <stop offset="0.5" style="stop-color:rgb(241,142,30);stop-opacity:1"/>
      <stop offset="0.875" style="stop-color:rgb(192,55,38);stop-opacity:1"/>
      <stop offset="1" style="stop-color:rgb(192,55,38);stop-opacity:1"/>
    </linearGradient>
    <linearGradient id="rare" x1="0" y1="1" x2="1" y2="0">
      <stop offset="0" style="stop-color:rgb(146,116,67);stop-opacity:1"/>
      <stop offset="0.125" style="stop-color:rgb(146,116,67);stop-opacity:1"/>
      <stop offset="0.5" style="stop-color:rgb(211,178,108);stop-opacity:1"/>
      <stop offset="0.875" style="stop-color:rgb(146,116,67);stop-opacity:1"/>
      <stop offset="1" style="stop-color:rgb(146,116,67);stop-opacity:1"/>
    </linearGradient>
    <linearGradient id="special" x1="0" y1="1" x2="1" y2="0">
      <stop offset="0" style="stop-color:rgb(76, 56, 106);stop-opacity:1"/>
      <stop offset="0.125" style="stop-color:rgb(76, 56, 106);stop-opacity:1"/>
      <stop offset="0.5" style="stop-color:rgb(201, 173, 221);stop-opacity:1"/>
      <stop offset="0.875" style="stop-color:rgb(76, 56, 106);stop-opacity:1"/>
      <stop offset="1" style="stop-color:rgb(76, 56, 106);stop-opacity:1"/>
    </linearGradient>
    <linearGradient id="uncommon" x1="0" y1="1" x2="1" y2="0">
      <stop offset="0" style="stop-color:rgb(98,110,119);stop-opacity:1"/>
      <stop offset="0.125" style="stop-color:rgb(98,110,119);stop-opacity:1"/>
      <stop offset="0.5" style="stop-color:rgb(196,222,238);stop-opacity:1"/>
      <stop offset="0.875" style="stop-color:rgb(98,110,119);stop-opacity:1"/>
      <stop offset="1" style="stop-color:rgb(98,110,119);stop-opacity:1"/>
    </linearGradient>
    <linearGradient id="common" x1="0" y1="1" x2="1" y2="0">
      <stop offset="0" style="stop-color:rgb(0,0,0);stop-opacity:1"/>
    </linearGradient>
    <linearGradient
            id="rarity-outline" x1="0" y1="1" x2="0" y2="1">
      <stop offset="0" style="stop-color:rgb(0,0,0);stop-opacity:1"/>
    </linearGradient>
  </defs>
  <path fill="url(#rarity-outline)" d="M 11.396484,0 C 5.0729269,0 0,4.5756514 0,10.882813 c 0,3.174557 1.3758199,5.76581 3.3730469,7.499999 1.997227,1.73419 4.5927105,2.652344 7.1425781,2.652344 2.428255,0 4.20616,-0.446067 5.390625,-0.912109 1.168251,-0.459662 1.804392,-0.983416 1.822266,-0.998047 l 0.138672,0.283203 0.07422,0.08984 c 0,0 0.15134,0.16967 0.320313,0.294922 0.168972,0.125251 0.406237,0.265997 0.720703,0.396484 0.628931,0.260974 1.56739,0.480469 2.953125,0.480469 1.337985,0 4.200631,-0.09513 6.863281,-1.171875 2.66265,-1.076747 5.191406,-3.379619 5.191406,-7.296875 0,-3.8851106 -2.1833,-6.7738606 -4.527343,-8.6171876 C 28.290868,2.6623249 27.070472,1.9836976 26.001953,1.5253906 24.933434,1.0670836 24.090402,0.80859375 23.326172,0.80859375 h -1.154297 l 0.599609,4.17773435 -3.759765,3.1582031 1.568359,4.5664068 -4.630859,2.765624 0.246093,0.50586 -0.472656,-0.486328 2.457032,-4.09375 L 14.162109,7.9921875 15.888672,2.6699219 15.509766,2.2421875 13.529297,0 Z" />
  <path fill="url(#rarity)" d="m 23.839,5.394 -3.659,3.074 1.61,4.685 -4.539,2.711 1.464,3 c 0,0 0.659,0.805 3.221,0.805 2.562,0 11.055,-0.438 11.055,-7.467 0,-7.027 -7.834,-10.394 -9.665,-10.394 z m -9.078,-2.49 -1.756,5.417 3.881,3.294 -2.417,4.026 2.636,2.709 c 0,0 -1.976,1.685 -6.589,1.685 C 5.903,20.035 1,16.667 1,10.883 1,5.099 5.539,1 11.396,1 h 1.682 z"/>
</svg>
