<?xml version="1.0" encoding="UTF-8" standalone="no"?>
<svg
   version="1.1"
   width="33.962799"
   height="18.95191"
   viewBox="0 0 33.962799 18.95191"
   id="svg4"
   xmlns="http://www.w3.org/2000/svg"
   xmlns:svg="http://www.w3.org/2000/svg">
  <defs>
    <!-- This is the gradient that will actually be used on
     the cards. The colors themselves will be provided by the
     template, but the x values, y values, and offsets will be
     used from the SVG. -->
    <radialGradient id="rarity" cy="0.55">
      <stop offset="0" style="stop-color:rgb(192,55,38);stop-opacity:1" id="stop2" />
      <stop offset="0" style="stop-color:rgb(192,55,38);stop-opacity:1" id="stop4" />
      <stop offset="0" style="stop-color:rgb(241,142,30);stop-opacity:1" id="stop6" />
      <stop offset="0.875" style="stop-color:rgb(192,55,38);stop-opacity:1" id="stop8" />
      <stop offset="1" style="stop-color:rgb(192,55,38);stop-opacity:1" id="stop10" />
    </radialGradient>
    <!-- These gradients are here so that you can visualize
     what the set symbol would like like in that rarity. The
     only gradient that matters in the end is the "rarity"
     gradient. -->
    <linearGradient id="mythic" x1="0" y1="1" x2="1" y2="0">
      <stop offset="0" style="stop-color:rgb(192,55,38);stop-opacity:1"/>
      <stop offset="0.125" style="stop-color:rgb(192,55,38);stop-opacity:1"/>
      <stop offset="0.5" style="stop-color:rgb(241,142,30);stop-opacity:1"/>
      <stop offset="0.875" style="stop-color:rgb(192,55,38);stop-opacity:1"/>
      <stop offset="1" style="stop-color:rgb(192,55,38);stop-opacity:1"/>
    </linearGradient>
    <linearGradient id="rare" x1="0" y1="1" x2="1" y2="0">
      <stop offset="0" style="stop-color:rgb(146,116,67);stop-opacity:1"/>
      <stop offset="0.125" style="stop-color:rgb(146,116,67);stop-opacity:1"/>
      <stop offset="0.5" style="stop-color:rgb(211,178,108);stop-opacity:1"/>
      <stop offset="0.875" style="stop-color:rgb(146,116,67);stop-opacity:1"/>
      <stop offset="1" style="stop-color:rgb(146,116,67);stop-opacity:1"/>
    </linearGradient>
    <linearGradient id="special" x1="0" y1="1" x2="1" y2="0">
      <stop offset="0" style="stop-color:rgb(76, 56, 106);stop-opacity:1"/>
      <stop offset="0.125" style="stop-color:rgb(76, 56, 106);stop-opacity:1"/>
      <stop offset="0.5" style="stop-color:rgb(201, 173, 221);stop-opacity:1"/>
      <stop offset="0.875" style="stop-color:rgb(76, 56, 106);stop-opacity:1"/>
      <stop offset="1" style="stop-color:rgb(76, 56, 106);stop-opacity:1"/>
    </linearGradient>
    <linearGradient id="uncommon" x1="0" y1="1" x2="1" y2="0">
      <stop offset="0" style="stop-color:rgb(98,110,119);stop-opacity:1"/>
      <stop offset="0.125" style="stop-color:rgb(98,110,119);stop-opacity:1"/>
      <stop offset="0.5" style="stop-color:rgb(196,222,238);stop-opacity:1"/>
      <stop offset="0.875" style="stop-color:rgb(98,110,119);stop-opacity:1"/>
      <stop offset="1" style="stop-color:rgb(98,110,119);stop-opacity:1"/>
    </linearGradient>
    <linearGradient id="common" x1="0" y1="1" x2="1" y2="0">
      <stop offset="0" style="stop-color:rgb(0,0,0);stop-opacity:1"/>
    </linearGradient>
    <linearGradient
            id="rarity-outline" x1="0" y1="1" x2="0" y2="1">
      <stop offset="0" style="stop-color:rgb(0,0,0);stop-opacity:1"/>
    </linearGradient>
  </defs>
  <path fill="url(#rarity-outline)" d="M 6.800603,0 3.4490406,3.3691406 2.909978,5.65625 c -1.0645892,-0.1829726 -2.13584281,0.4382013 -2.40624994,1.5 v 0.00195 L 0.06427493,8.890625 c -0.28489052,1.114871 0.40507531,2.271809 1.51953127,2.554687 l -0.039063,-0.0098 -1.25000001,5.291015 7.35156251,1.865235 1.5703125,-5.208985 21.7246093,5.50586 c 1.111948,0.281995 2.267868,-0.406667 2.550782,-1.517578 l 0.464843,-1.839844 0.0039,-0.107422 c 0.0198,-0.568161 -0.104007,-1.103474 -0.392579,-1.523437 -0.288571,-0.419965 -0.709445,-0.672712 -1.082031,-0.798829 l -0.03711,-0.01172 -0.03711,-0.0098 L 10.011541,7.3984375 C 9.8920082,7.2344751 9.7509938,6.9769767 9.7009937,6.4863281 9.642981,5.9170527 9.6861428,5.1951166 9.7830249,4.5058593 9.9767892,3.1273446 10.359197,1.9042968 10.359197,1.9042968 l 0.328125,-1.04101558 z" />
  <path fill="url(#rarity)" d="M 32.165991,14.049703 9.3689903,8.2687031 c -1.587,-1.515 0.037,-6.666 0.037,-6.666 l -2.285,-0.507 -2.763,2.778 -0.696,2.946 -0.85,-0.215 c -0.589,-0.148 -1.189,0.21 -1.339,0.799 l -0.439,1.735 c -0.14999998,0.587 0.208,1.1879999 0.797,1.3369999 l 0.913,0.232 -1.25,5.292 5.471,1.388 1.57,-5.21 22.6510007,5.742 c 0.589,0.15 1.187,-0.206 1.337,-0.795 l 0.439,-1.735 c 0.15,-0.591 -0.208,-1.191 -0.797,-1.339 z"/>
</svg>
