<?xml version="1.0" encoding="UTF-8" standalone="no"?>
<!-- Generated by IcoMoon.io -->

<svg
   version="1.1"
   width="32.002998"
   height="18.958889"
   viewBox="0 0 32.002998 18.958889"
   id="svg6"
   sodipodi:docname="und.svg"
   inkscape:version="1.1.1 (3bf5ae0d25, 2021-09-20)"
   xmlns:inkscape="http://www.inkscape.org/namespaces/inkscape"
   xmlns:sodipodi="http://sodipodi.sourceforge.net/DTD/sodipodi-0.dtd"
   xmlns="http://www.w3.org/2000/svg"
   xmlns:svg="http://www.w3.org/2000/svg">
  <defs
     id="defs10" />
  <sodipodi:namedview
     id="namedview8"
     pagecolor="#ffffff"
     bordercolor="#666666"
     borderopacity="1.0"
     inkscape:pageshadow="2"
     inkscape:pageopacity="0.0"
     inkscape:pagecheckerboard="0"
     showgrid="false"
     inkscape:zoom="25.75"
     inkscape:cx="15.980583"
     inkscape:cy="9.4563107"
     inkscape:window-width="1920"
     inkscape:window-height="1009"
     inkscape:window-x="-8"
     inkscape:window-y="-8"
     inkscape:window-maximized="1"
     inkscape:current-layer="svg6" />
  <title
     id="title2">und</title>
  <path
     fill="#000000"
     d="M 4.678,11.327 C 5.6,11.349 6.431,11.726 7.159,12.272 7.549,12.1 7.94,11.928 8.33,11.754 8.614,12.837 9.004,13.891 9.496,14.896 9.113,15.065 8.728,15.234 8.345,15.406 8.155,16.71 7.478,18.019 6.237,18.595 4.553,19.493 2.286,18.65 1.51,16.932 0.531,15.094 1.299,12.525 3.223,11.656 3.462,11.539 3.713,11.442 3.975,11.393 4.146,11.361 4.32,11.35 4.493,11.329 h 0.185 z m 0.38,1.632 c -0.402,0.03 -0.703,0.297 -0.856,0.659 -0.533,0.331 -1.147,0.637 -1.438,1.231 -0.16,0.281 -0.13,0.609 -0.132,0.92 -0.067,0.208 -0.197,0.39 -0.271,0.596 0.257,0.064 0.565,0.058 0.755,0.269 0.224,0.236 0.533,0.384 0.857,0.408 0.567,0.051 1.109,-0.162 1.624,-0.37 0.383,0.139 0.852,10e-4 1.075,-0.344 C 6.851,15.987 6.82,15.577 6.693,15.225 6.598,15.004 6.672,14.767 6.685,14.539 6.796,14.558 6.907,14.577 7.017,14.597 7.049,14.357 7.03,14.117 6.961,13.885 6.804,13.974 6.651,14.072 6.502,14.174 6.388,14.07 6.262,13.981 6.125,13.91 5.901,13.506 5.607,13.086 5.135,12.962 L 5.057,12.96 Z m 21.839,0 c 0.402,0.03 0.703,0.297 0.856,0.659 0.533,0.331 1.147,0.637 1.438,1.231 0.16,0.281 0.13,0.609 0.132,0.92 0.067,0.208 0.197,0.39 0.271,0.596 -0.257,0.064 -0.565,0.058 -0.755,0.269 -0.224,0.236 -0.533,0.384 -0.857,0.408 -0.567,0.051 -1.109,-0.162 -1.624,-0.37 -0.383,0.139 -0.852,10e-4 -1.075,-0.345 -0.179,-0.341 -0.148,-0.751 -0.021,-1.103 0.095,-0.221 0.021,-0.458 0.008,-0.686 -0.111,0.019 -0.222,0.038 -0.332,0.058 -0.032,-0.24 -0.013,-0.48 0.055,-0.712 0.157,0.089 0.31,0.187 0.459,0.289 0.114,-0.104 0.24,-0.193 0.377,-0.264 0.224,-0.404 0.518,-0.824 0.99,-0.948 l 0.078,-10e-4 z m 0.557,-1.635 c -0.17,0.008 -0.341,0.004 -0.51,0.024 -0.773,0.093 -1.495,0.437 -2.094,0.927 -0.489,-0.211 -0.974,-0.427 -1.463,-0.64 -0.206,1.106 -0.549,2.179 -1.002,3.209 0.424,0.187 0.849,0.372 1.273,0.557 0.185,1.275 0.828,2.559 2.025,3.152 1.663,0.94 3.946,0.154 4.771,-1.544 1.049,-1.866 0.25,-4.539 -1.752,-5.388 -0.41,-0.175 -0.796,-0.291 -1.249,-0.298 z M 11.524,9.719 c -0.955,0.398 -1.913,0.794 -2.863,1.203 0.383,2.119 1.223,4.217 2.746,5.776 2.179,2.306 6.166,2.585 8.597,0.521 1.848,-1.577 2.756,-3.995 3.019,-6.361 -0.94,0.396 -1.874,0.799 -2.809,1.2 -0.877,-0.744 -1.754,-1.484 -2.629,-2.231 -1.226,0.854 -2.447,1.715 -3.668,2.574 -0.799,-0.893 -1.598,-1.786 -2.395,-2.681 z m 0.208,-9.108 c 0.135,0.609 0.502,1.117 1.151,1.239 -0.625,0.164 -1.02,0.627 -1.151,1.252 -0.13,-0.633 -0.513,-1.106 -1.163,-1.236 0.638,-0.151 1.046,-0.612 1.163,-1.255 z m -0.323,3.91 c 0.068,0.003 0.138,-0.008 0.204,0.009 0.411,0.104 0.598,0.646 0.298,0.954 C 11.432,6.02 10.667,5.216 11.109,4.706 11.195,4.615 11.28,4.55 11.408,4.522 Z m -0.031,2.633 c 0.096,0.023 0.118,0.019 0.202,0.073 0.371,0.238 0.403,0.887 -0.062,1.024 C 10.893,8.542 10.526,7.527 11.075,7.218 11.171,7.174 11.269,7.142 11.377,7.154 Z M 14.619,0 C 12.714,0.008 10.808,0.003 8.903,0.003 V 3.244 C 9.343,3.241 9.783,3.241 10.223,3.241 9.65,5.422 9.434,7.702 9.705,9.949 10.351,9.681 10.996,9.41 11.644,9.142 c 0.739,0.828 1.476,1.655 2.22,2.481 -1.265,-3.8 -0.739,-7.97 0.755,-11.622 z m 3.782,7.337 c -1.541,0.669 -3.079,1.348 -4.618,2.028 0.151,0.726 0.331,1.447 0.534,2.16 1.098,-0.763 2.189,-1.533 3.282,-2.304 0.148,0.117 0.445,0.349 0.596,0.466 0.096,-0.781 0.161,-1.564 0.206,-2.35 z m 1.871,-6.713 c 0.122,0.635 0.513,1.083 1.145,1.231 C 20.79,2.016 20.391,2.474 20.259,3.102 20.155,2.459 19.736,2.017 19.114,1.858 19.754,1.712 20.132,1.252 20.272,0.624 Z m 0.204,3.884 c 0.063,0.015 0.129,0.017 0.188,0.044 0.359,0.166 0.479,0.703 0.158,0.958 -0.497,0.578 -1.275,-0.502 -0.645,-0.88 0.092,-0.072 0.178,-0.117 0.3,-0.122 z m 0.156,2.666 c 0.053,0.006 0.107,0.005 0.159,0.018 0.242,0.059 0.423,0.259 0.393,0.515 0.114,0.401 -0.416,0.734 -0.76,0.539 -0.333,-0.174 -0.396,-0.64 -0.146,-0.914 0.101,-0.097 0.21,-0.154 0.354,-0.158 z m -0.176,2.522 c 0.044,0.01 0.09,0.015 0.132,0.031 0.239,0.088 0.415,0.331 0.335,0.587 0.055,0.45 -0.627,0.7 -0.88,0.338 -0.302,-0.271 -0.19,-0.828 0.216,-0.932 0.106,-0.031 0.042,-0.018 0.196,-0.025 z M 17.383,0.002 c 1.27,3.155 1.877,6.661 1.19,10.029 0.573,0.487 1.145,0.976 1.721,1.458 0.633,-0.268 1.265,-0.536 1.898,-0.807 0.411,-2.475 0.219,-5.018 -0.409,-7.442 0.44,0 0.88,0 1.322,0 -0.003,-1.078 0,-2.158 0,-3.235 -1.908,-0.003 -3.813,0 -5.721,-0.003 z m 10.923,0.925 -0.152,0.002 c -0.397,0.045 -0.693,0.072 -1.064,0.245 -1.382,0.534 -2.189,1.947 -2.345,3.371 -0.687,0.299 -1.372,0.601 -2.059,0.903 0.133,1.192 0.174,2.395 0.128,3.595 1.057,-0.469 2.116,-0.929 3.173,-1.4 1.007,0.773 2.374,1.171 3.595,0.677 1.296,-0.445 2.101,-1.687 2.421,-2.965 -1.052,0.437 -2.087,0.911 -3.129,1.372 -0.661,-0.45 -1.32,-0.901 -1.978,-1.354 0.146,-0.815 0.286,-1.629 0.432,-2.444 1.044,-0.466 2.095,-0.914 3.129,-1.4 C 29.782,1.199 29.069,0.93 28.308,0.928 Z M 3.688,0.927 3.48,0.934 C 3.331,0.953 3.181,0.963 3.033,0.989 2.512,1.083 2.014,1.279 1.549,1.529 2.582,2.013 3.634,2.463 4.678,2.929 4.821,3.741 4.964,4.556 5.107,5.371 4.448,5.824 3.79,6.274 3.134,6.727 2.09,6.264 1.052,5.795 0,5.347 0.32,6.544 1.007,7.734 2.199,8.226 3.459,8.84 4.948,8.473 6.012,7.646 7.066,8.107 8.12,8.567 9.172,9.039 9.115,7.839 9.162,6.634 9.307,5.442 8.622,5.143 7.94,4.841 7.256,4.541 7.1,3.159 6.342,1.782 5.017,1.22 4.591,1.045 4.152,0.917 3.685,0.927 Z m 9.918,6.407 C 13.635,7.847 13.671,8.36 13.713,8.872 14.28,8.627 14.848,8.375 15.415,8.125 14.811,7.862 14.21,7.597 13.606,7.334 Z"
     id="path4" />
</svg>
