<?xml version="1.0" encoding="UTF-8" standalone="no"?>
<!-- Generated by IcoMoon.io -->

<svg
   version="1.1"
   width="26.68"
   height="27.403425"
   viewBox="0 0 26.68 27.403425"
   id="svg6"
   sodipodi:docname="unh.svg"
   inkscape:version="1.1.1 (3bf5ae0d25, 2021-09-20)"
   xmlns:inkscape="http://www.inkscape.org/namespaces/inkscape"
   xmlns:sodipodi="http://sodipodi.sourceforge.net/DTD/sodipodi-0.dtd"
   xmlns="http://www.w3.org/2000/svg"
   xmlns:svg="http://www.w3.org/2000/svg">
  <defs
     id="defs10" />
  <sodipodi:namedview
     id="namedview8"
     pagecolor="#ffffff"
     bordercolor="#666666"
     borderopacity="1.0"
     inkscape:pageshadow="2"
     inkscape:pageopacity="0.0"
     inkscape:pagecheckerboard="0"
     showgrid="false"
     inkscape:zoom="25.75"
     inkscape:cx="13.883495"
     inkscape:cy="13.417476"
     inkscape:window-width="1920"
     inkscape:window-height="1009"
     inkscape:window-x="-8"
     inkscape:window-y="-8"
     inkscape:window-maximized="1"
     inkscape:current-layer="svg6" />
  <title
     id="title2">unh</title>
  <path
     fill="#000000"
     d="m 25.143,0.001 v 0 0 0 0 l 0.006,0.152 c 0.011,0.195 0.01,0.389 0.012,0.584 -0.04,1.48 0.01,2.998 -0.024,4.481 -0.023,1.014 0.132,1.775 -0.138,2.65 -0.357,0.111 -0.827,0.144 -1.195,0.173 0.103,1.089 0.283,2.168 0.351,3.258 0.056,0.628 0.064,1.307 0.43,1.85 0.191,0.311 0.525,0.492 0.863,0.605 0.412,0.131 0.823,0.268 1.232,0.409 -0.008,0.064 0.001,0.183 -0.008,0.249 l -0.136,0.052 c -1.09,0.394 -2.159,1.171 -2.461,2.346 -0.369,1.446 -0.697,2.918 -1.344,4.272 -0.863,1.781 -2.095,3.407 -3.678,4.605 -1.471,1.03 -3.257,1.544 -5.033,1.694 C 12.045,27.488 9.995,27.226 8.229,26.294 7.423,25.881 6.759,25.259 6.041,24.719 5.429,24.207 4.98,23.537 4.553,22.873 3.54,21.223 2.935,19.347 2.633,17.444 2.547,16.8 2.354,16.139 1.921,15.639 1.345,15.014 0.755,14.608 0,14.224 0.042,14.144 -0.039,14.017 0.029,13.974 0.244,13.837 0.573,13.839 0.803,13.734 1.516,13.578 2.227,13.149 2.409,12.394 2.643,11.572 2.647,10.712 2.81,9.878 2.934,9.235 3.018,8.586 3.008,7.931 2.661,7.896 2.315,7.859 1.967,7.821 1.872,6.756 1.96,5.687 1.943,4.62 1.964,3.156 1.93,1.544 2.025,0.082 3.087,-0.041 4.193,0.058 5.275,0.05 c 2.528,-0.017 4.982,-0.029 7.51,0.014 -0.067,1.103 -0.466,2.138 -0.802,3.178 -0.904,3.312 -1.805,6.657 -2.02,10.099 0,1.534 0.035,3.217 0.958,4.516 0.311,0.431 0.668,0.863 1.168,1.082 1.025,0.424 2.311,0.22 3.089,-0.595 0.874,-0.924 1.198,-2.21 1.389,-3.431 C 16.83,12.174 16.38,9.433 15.816,6.761 15.383,4.487 14.726,2.266 14.195,0.016 19.134,-0.011 15.265,0.005 22.406,0.004 23.318,0.003 24.231,0.002 25.143,0 v 0 z m -5.378,0.712 -4.631,0.014 c 0.732,2.739 1.424,5.498 1.84,8.306 0.151,1.154 0.37,2.303 0.354,3.471 -0.019,1.141 0.092,2.302 -0.206,3.417 -0.27,1.279 -0.836,2.582 -1.932,3.361 -1.204,0.856 -2.967,0.854 -4.119,-0.095 C 10.014,18.319 9.557,16.951 9.364,15.64 9.09,13.584 9.38,11.501 9.742,9.473 10.27,6.529 11.085,3.647 11.938,0.785 8.86,0.786 5.781,0.78 2.701,0.789 2.549,1.659 2.662,2.545 2.625,3.421 2.553,4.681 2.637,5.943 2.549,7.203 3.018,7.219 3.488,7.22 3.958,7.23 3.648,8.571 3.42,9.934 3.257,11.301 c -0.016,0.744 -0.136,1.526 -0.584,2.142 -0.244,0.359 -0.632,0.576 -0.95,0.859 0.978,0.632 1.443,1.784 1.613,2.894 0.42,2.624 1.412,5.289 3.396,7.133 1.502,1.471 3.599,2.227 5.677,2.33 2.085,0.144 4.252,-0.302 6.019,-1.453 2.104,-1.368 3.476,-3.622 4.224,-5.977 0.449,-1.259 0.5,-2.663 1.238,-3.81 0.259,-0.436 0.668,-0.745 1.074,-1.035 C 24.638,14.18 24.28,13.993 24.069,13.657 23.515,12.855 23.413,11.851 23.414,10.904 23.275,9.675 23.144,8.442 22.877,7.233 23.318,7.22 23.887,7.205 24.33,7.203 24.398,6.88 24.361,6.567 24.358,6.233 24.35,4.399 24.373,2.564 24.395,0.73 L 19.764,0.716 Z m 0.196,1.338 3.101,0.011 c -0.021,1.275 -0.02,2.549 -0.024,3.824 -0.582,-0.003 -1.164,-0.004 -1.746,0.008 0.562,2.522 0.91,5.095 0.941,7.679 -0.075,2.863 -0.605,5.837 -2.243,8.248 -1.217,1.85 -3.121,3.222 -5.329,3.495 C 12.338,25.666 9.683,25.164 7.87,23.592 5.889,21.893 4.948,19.302 4.581,16.781 4.211,13.871 4.512,10.919 5.102,8.058 5.232,7.337 5.468,6.637 5.556,5.908 5.006,5.905 4.455,5.907 3.905,5.905 3.906,4.628 3.96,3.351 3.926,2.072 6.021,2.027 8.118,2.06 10.216,2.057 9.416,4.603 8.813,7.21 8.355,9.838 c -0.431,2.587 -0.74,5.329 0.182,7.849 0.481,1.384 1.466,2.671 2.871,3.196 0.815,0.382 1.773,0.323 2.644,0.302 1.36,-0.204 2.549,-1.117 3.27,-2.282 0.794,-1.279 1.177,-2.777 1.32,-4.263 -0.001,-1.244 0.081,-2.5 -0.122,-3.733 C 18.253,7.91 17.547,4.977 16.861,2.056 l 3.1,-0.006 z m -6.538,20.498 c -0.466,0 -0.844,0.378 -0.844,0.844 0,0.466 0.378,0.844 0.844,0.844 0.466,0 0.844,-0.378 0.844,-0.844 0,-0.466 -0.378,-0.844 -0.844,-0.844 z m -3.829,-0.59 c 0.305,0.468 0.662,0.9 1.086,1.263 1.01,0.772 1.682,1.016 1.682,1.016 0,0 -0.196,-0.256 -0.208,-0.958 0.023,-0.406 0.222,-0.804 0.222,-0.804 0,0 -0.814,-0.032 -1.621,-0.188 C 10.364,22.202 9.96,22.127 9.593,21.959 Z m 7.59,0 c 0,0 -0.355,0.172 -1.162,0.329 -0.807,0.157 -1.621,0.188 -1.621,0.188 0,0 0.199,0.398 0.222,0.804 -0.012,0.702 -0.208,0.958 -0.208,0.958 0,0 0.672,-0.244 1.682,-1.016 0.535,-0.409 1.086,-1.263 1.086,-1.263 v 0 z m 1.601,-2.607 c -0.466,0 -0.844,0.378 -0.844,0.844 0,0.466 0.378,0.844 0.844,0.844 0.466,0 0.844,-0.378 0.844,-0.844 0,-0.466 -0.378,-0.844 -0.844,-0.844 z M 7.586,19.343 c -0.466,0 -0.844,0.378 -0.844,0.844 0,0.466 0.378,0.844 0.844,0.844 0.466,0 0.844,-0.378 0.844,-0.844 0,-0.466 -0.378,-0.844 -0.844,-0.844 z M 20.161,15.54 c -0.466,0 -0.844,0.378 -0.844,0.844 0,0.466 0.378,0.844 0.844,0.844 0.466,0 0.844,-0.378 0.844,-0.844 0,-0.466 -0.378,-0.844 -0.844,-0.844 z M 6.33,15.469 c -0.466,0 -0.844,0.378 -0.844,0.844 0,0.466 0.378,0.844 0.844,0.844 0.466,0 0.844,-0.378 0.844,-0.844 0,-0.466 -0.378,-0.844 -0.844,-0.844 z m 14.143,-3.937 c -0.466,0 -0.844,0.378 -0.844,0.844 0,0.466 0.378,0.844 0.844,0.844 0.466,0 0.844,-0.378 0.844,-0.844 0,-0.466 -0.378,-0.844 -0.844,-0.844 z M 6.196,11.461 c -0.466,0 -0.844,0.378 -0.844,0.844 0,0.466 0.378,0.844 0.844,0.844 0.466,0 0.844,-0.378 0.844,-0.844 0,-0.466 -0.378,-0.844 -0.844,-0.844 z M 6.777,7.71 c -0.466,0 -0.844,0.378 -0.844,0.844 0,0.466 0.378,0.844 0.844,0.844 0.466,0 0.844,-0.378 0.844,-0.844 C 7.621,8.088 7.243,7.71 6.777,7.71 Z M 20.072,7.702 c -0.466,0 -0.844,0.378 -0.844,0.844 0,0.466 0.378,0.844 0.844,0.844 0.466,0 0.844,-0.378 0.844,-0.844 0,-0.466 -0.378,-0.844 -0.844,-0.844 z m -0.371,-4.907 -0.408,1.007 -1.009,0.41 0.985,0.441 0.409,0.953 0.428,-0.957 0.989,-0.46 L 20.11,3.793 Z M 7.143,2.79 6.735,3.797 5.726,4.207 6.711,4.648 7.12,5.601 7.548,4.644 8.538,4.184 7.553,3.788 7.144,2.79 Z"
     id="path4" />
</svg>
