<?xml version="1.0" encoding="UTF-8" standalone="no"?>
<svg
   version="1.1"
   width="26.887032"
   height="27.403425"
   viewBox="0 0 26.887031 27.403425"
   id="svg4"
   xmlns="http://www.w3.org/2000/svg"
   xmlns:svg="http://www.w3.org/2000/svg">
  <defs>
    <!-- This is the gradient that will actually be used on
     the cards. The colors themselves will be provided by the
     template, but the x values, y values, and offsets will be
     used from the SVG. -->
    <linearGradient id="rarity" x1="0" y1="0" x2="1" y2="1">
      <stop offset="0" style="stop-color:rgb(192,55,38);stop-opacity:1" id="stop2" />
      <stop offset="0.125" style="stop-color:rgb(192,55,38);stop-opacity:1" id="stop4" />
      <stop offset="0.5" style="stop-color:rgb(241,142,30);stop-opacity:1" id="stop6" />
      <stop offset="0.875" style="stop-color:rgb(192,55,38);stop-opacity:1" id="stop8" />
      <stop offset="1" style="stop-color:rgb(192,55,38);stop-opacity:1" id="stop10" />
    </linearGradient>
    <!-- These gradients are here so that you can visualize
     what the set symbol would like like in that rarity. The
     only gradient that matters in the end is the "rarity"
     gradient. -->
    <linearGradient id="mythic" x1="0" y1="1" x2="1" y2="0">
      <stop offset="0" style="stop-color:rgb(192,55,38);stop-opacity:1"/>
      <stop offset="0.125" style="stop-color:rgb(192,55,38);stop-opacity:1"/>
      <stop offset="0.5" style="stop-color:rgb(241,142,30);stop-opacity:1"/>
      <stop offset="0.875" style="stop-color:rgb(192,55,38);stop-opacity:1"/>
      <stop offset="1" style="stop-color:rgb(192,55,38);stop-opacity:1"/>
    </linearGradient>
    <linearGradient id="rare" x1="0" y1="1" x2="1" y2="0">
      <stop offset="0" style="stop-color:rgb(146,116,67);stop-opacity:1"/>
      <stop offset="0.125" style="stop-color:rgb(146,116,67);stop-opacity:1"/>
      <stop offset="0.5" style="stop-color:rgb(211,178,108);stop-opacity:1"/>
      <stop offset="0.875" style="stop-color:rgb(146,116,67);stop-opacity:1"/>
      <stop offset="1" style="stop-color:rgb(146,116,67);stop-opacity:1"/>
    </linearGradient>
    <linearGradient id="special" x1="0" y1="1" x2="1" y2="0">
      <stop offset="0" style="stop-color:rgb(76, 56, 106);stop-opacity:1"/>
      <stop offset="0.125" style="stop-color:rgb(76, 56, 106);stop-opacity:1"/>
      <stop offset="0.5" style="stop-color:rgb(201, 173, 221);stop-opacity:1"/>
      <stop offset="0.875" style="stop-color:rgb(76, 56, 106);stop-opacity:1"/>
      <stop offset="1" style="stop-color:rgb(76, 56, 106);stop-opacity:1"/>
    </linearGradient>
    <linearGradient id="uncommon" x1="0" y1="1" x2="1" y2="0">
      <stop offset="0" style="stop-color:rgb(98,110,119);stop-opacity:1"/>
      <stop offset="0.125" style="stop-color:rgb(98,110,119);stop-opacity:1"/>
      <stop offset="0.5" style="stop-color:rgb(196,222,238);stop-opacity:1"/>
      <stop offset="0.875" style="stop-color:rgb(98,110,119);stop-opacity:1"/>
      <stop offset="1" style="stop-color:rgb(98,110,119);stop-opacity:1"/>
    </linearGradient>
    <linearGradient id="common" x1="0" y1="1" x2="1" y2="0">
      <stop offset="0" style="stop-color:rgb(0,0,0);stop-opacity:1"/>
    </linearGradient>
    <linearGradient
            id="rarity-outline" x1="0" y1="1" x2="0" y2="1">
      <stop offset="0" style="stop-color:rgb(0,0,0);stop-opacity:1"/>
    </linearGradient>
  </defs>
  <path fill="url(#rarity-outline)" d="m 25.346125,0.001 v 0 0 0 0 l 0.006,0.152 c 0.011,0.195 0.01,0.389 0.012,0.584 -0.04,1.48 0.01,2.998 -0.024,4.481 -0.023,1.014 0.132,1.775 -0.138,2.65 -0.357,0.111 -0.827,0.144 -1.195,0.173 0.103,1.089 0.283,2.168 0.351,3.258 0.056,0.628 0.064,1.307 0.43,1.85 0.191,0.311 0.540625,0.437312 0.863,0.605 0.388562,0.185688 0.826906,0.396906 1.235906,0.537906 -0.894052,0.474454 -2.274774,1.344902 -2.608906,2.518094 -0.369,1.446 -0.697,2.918 -1.344,4.272 -0.863,1.781 -2.095,3.407 -3.678,4.605 -1.471,1.03 -3.257,1.544 -5.033,1.694 -1.975,0.107 -4.025,-0.155 -5.791,-1.087 -0.806,-0.413 -1.47,-1.035 -2.188,-1.575 -0.612,-0.512 -1.061,-1.182 -1.488,-1.846 -1.013,-1.65 -1.618,-3.526 -1.92,-5.429 -0.086,-0.644 -0.279,-1.305 -0.712,-1.805 C 1.548125,15.014 0.755,14.479094 0,14.095094 0.49671847,13.939812 0.67918783,13.87373 1.006125,13.734 c 0.6895625,-0.273188 1.424,-0.585 1.606,-1.34 0.234,-0.822 0.238,-1.682 0.401,-2.516 0.124,-0.643 0.208,-1.292 0.198,-1.947 -0.347,-0.035 -0.693,-0.072 -1.041,-0.11 -0.095,-1.065 -0.007,-2.134 -0.024,-3.201 0.021,-1.464 -0.013,-3.076 0.082,-4.538 1.062,-0.123 2.168,-0.024 3.25,-0.032 2.528,-0.017 4.982,-0.029 7.51,0.014 -0.067,1.103 -0.466,2.138 -0.802,3.178 -0.904,3.312 -1.805,6.657 -2.02,10.099 0,1.534 0.035,3.217 0.958,4.516 0.311,0.431 0.668,0.863 1.168,1.082 1.025,0.424 2.311,0.22 3.089,-0.595 0.874,-0.924 1.198,-2.21 1.389,-3.431 0.263,-2.739 -0.187,-5.48 -0.751,-8.152 -0.433,-2.274 -1.09,-4.495 -1.621,-6.745 4.939,-0.027 1.07,-0.011 8.211,-0.012 0.912,-0.001 1.825,-0.002 2.737,-0.004 v 0 z"/>
  <path fill="url(#rarity)" d="m 7.2734375,2.0488281 c -1.048375,-0.00225 -2.0970313,9.375e-4 -3.1445313,0.023437 0.034,1.279 -0.020484,2.5550313 -0.021484,3.8320313 0.55,0.002 1.1023437,9.062e-4 1.6523437,0.00391 -0.088,0.729 -0.3250781,1.4293906 -0.4550781,2.1503907 -0.59,2.8609999 -0.8914844,5.8126559 -0.5214844,8.7226559 0.367,2.521 1.3080625,5.111547 3.2890625,6.810547 1.813,1.572 4.4680151,2.074609 6.7910151,1.724609 2.208,-0.273 4.113078,-1.646093 5.330078,-3.496094 1.638,-2.410999 2.167188,-5.385046 2.242188,-8.248046 -0.031,-2.584 -0.377453,-5.1557344 -0.939453,-7.6777345 0.582,-0.012 1.16214,-0.010813 1.74414,-0.00781 0.004,-1.275 0.0044,-2.5492188 0.02539,-3.8242188 l -3.101562,-0.011719 -3.09961,0.00586 c 0.686,2.921 1.391203,5.8526094 1.658203,8.8496093 0.203,1.233 0.122047,2.490375 0.123047,3.734375 -0.143,1.486 -0.526312,2.982719 -1.320312,4.261719 -0.721,1.165 -1.909532,2.079203 -3.269532,2.283203 -0.871,0.021 -1.829531,0.07927 -2.644531,-0.302735 -1.405,-0.525 -2.3900933,-1.811312 -2.8710933,-3.195312 -0.922,-2.52 -0.6126407,-5.262609 -0.1816406,-7.8496093 0.458,-2.628 1.0613281,-5.23525 1.8613279,-7.78125 -1.0489998,0.0015 -2.0981092,-0.00556 -3.1464842,-0.00781 z m 0.072266,0.7402344 h 0.00195 L 7.7558594,3.7871094 8.7402344,4.1835938 7.7519531,4.6445312 7.3222656,5.6015625 6.9140625,4.6484375 5.9296875,4.2070312 6.9375,3.796875 Z M 19.904297,2.7949225 20.3125,3.7929694 21.298828,4.1894537 20.308594,4.6484381 19.880859,5.6054694 19.472656,4.6523444 18.486328,4.2128912 19.496094,3.802735 Z m 0.371094,4.90625 c 0.466,0 0.84375,0.3797031 0.84375,0.8457031 0,0.466 -0.37775,0.84375 -0.84375,0.84375 -0.466,0 -0.84375,-0.37775 -0.84375,-0.84375 0,-0.466 0.37775,-0.8457031 0.84375,-0.8457031 z m -13.2949218,0.00977 c 0.466,0 0.84375,0.37775 0.84375,0.84375 -1e-7,0.466 -0.37775,0.84375 -0.84375,0.84375 -0.4660001,0 -0.84375,-0.37775 -0.84375,-0.84375 0,-0.466 0.3777499,-0.84375 0.84375,-0.84375 z M 6.3984375,11.460938 c 0.466,-1e-6 0.84375,0.37775 0.84375,0.84375 0,0.465999 -0.37775,0.84375 -0.84375,0.84375 -0.466,0 -0.84375,-0.377751 -0.84375,-0.84375 0,-0.466 0.37775,-0.84375 0.84375,-0.84375 z m 14.2773435,0.07031 c 0.466,0 0.84375,0.379703 0.84375,0.845703 0,0.466 -0.37775,0.84375 -0.84375,0.84375 -0.466,0 -0.84375,-0.37775 -0.84375,-0.84375 0,-0.466 0.37775,-0.845703 0.84375,-0.845703 z m -14.1425779,3.9375 c 0.466,0 0.84375,0.37775 0.84375,0.84375 0,0.466 -0.37775,0.84375 -0.84375,0.84375 -0.466,0 -0.84375,-0.37775 -0.84375,-0.84375 0,-0.466 0.37775,-0.84375 0.84375,-0.84375 z m 13.8300779,0.07031 c 0.466,10e-7 0.845703,0.379704 0.845703,0.845704 0,0.466 -0.379703,0.84375 -0.845703,0.84375 -0.466,0 -0.84375,-0.37775 -0.84375,-0.84375 0,-0.466 0.37775,-0.845704 0.84375,-0.845704 z M 7.7890625,19.34375 c 0.466,0 0.84375,0.37775 0.84375,0.84375 0,0.466 -0.37775,0.84375 -0.84375,0.84375 -0.466,0 -0.84375,-0.37775 -0.84375,-0.84375 0,-0.466 0.37775,-0.84375 0.84375,-0.84375 z m 11.1992185,0.0078 c 0.466,1e-6 0.84375,0.37775 0.84375,0.84375 0,0.466 -0.37775,0.84375 -0.84375,0.84375 -0.466,1e-6 -0.84375,-0.377749 -0.84375,-0.84375 0,-0.466 0.37775,-0.84375 0.84375,-0.84375 z m -9.191406,2.607434 c 0.367,0.168 0.771109,0.242125 1.162109,0.328125 0.807,0.156 1.621094,0.189453 1.621094,0.189453 0,0 -0.199656,0.396735 -0.222656,0.802735 0.012,0.702 0.207031,0.958984 0.207031,0.958984 0,0 -0.671641,-0.243625 -1.68164,-1.015625 -0.424001,-0.363 -0.780938,-0.795672 -1.085938,-1.263672 z m 7.589844,0 c 0,0 -0.550938,0.854672 -1.085938,1.263672 -1.01,0.772 -1.683594,1.015625 -1.683594,1.015625 1e-6,0 0.196985,-0.256984 0.208985,-0.958984 -0.023,-0.406 -0.222656,-0.802735 -0.222656,-0.802735 0,10e-7 0.814093,-0.03245 1.621093,-0.189453 0.807,-0.157 1.16211,-0.328125 1.16211,-0.328125 z m -3.759766,0.589844 c 0.466,0 0.84375,0.37775 0.84375,0.84375 0,0.466 -0.37775,0.84375 -0.84375,0.84375 -0.466,0 -0.845703,-0.37775 -0.845703,-0.84375 0,-0.466 0.379703,-0.84375 0.845703,-0.84375 z" />
</svg>
