<?xml version="1.0" encoding="UTF-8" standalone="no"?>
<!-- Generated by IcoMoon.io -->

<svg
   version="1.1"
   width="31.985001"
   height="18.575001"
   viewBox="0 0 31.985001 18.575001"
   id="svg6"
   sodipodi:docname="usg.svg"
   inkscape:version="1.1.1 (3bf5ae0d25, 2021-09-20)"
   xmlns:inkscape="http://www.inkscape.org/namespaces/inkscape"
   xmlns:sodipodi="http://sodipodi.sourceforge.net/DTD/sodipodi-0.dtd"
   xmlns="http://www.w3.org/2000/svg"
   xmlns:svg="http://www.w3.org/2000/svg">
  <defs
     id="defs10" />
  <sodipodi:namedview
     id="namedview8"
     pagecolor="#ffffff"
     bordercolor="#666666"
     borderopacity="1.0"
     inkscape:pageshadow="2"
     inkscape:pageopacity="0.0"
     inkscape:pagecheckerboard="0"
     showgrid="false"
     inkscape:zoom="25.75"
     inkscape:cx="15.980583"
     inkscape:cy="9.2621359"
     inkscape:window-width="1920"
     inkscape:window-height="1009"
     inkscape:window-x="-8"
     inkscape:window-y="-8"
     inkscape:window-maximized="1"
     inkscape:current-layer="svg6" />
  <title
     id="title2">usg</title>
  <path
     fill="#000000"
     d="m 22.755,10.511 c 0,0.632 0.514,1.146 1.146,1.146 0.632,0 1.146,-0.514 1.146,-1.146 0,-0.632 -0.513,-1.146 -1.146,-1.146 -0.633,0 -1.146,0.513 -1.146,1.146 z m 1.147,-3.09 c 1.703,0 3.09,1.385 3.09,3.09 0,1.703 -1.387,3.09 -3.09,3.09 -1.705,0 -3.09,-1.388 -3.09,-3.09 0,-1.705 1.386,-3.09 3.09,-3.09 z m 0,-1.009 c -2.265,0 -4.101,1.836 -4.101,4.099 0,2.263 1.836,4.1 4.101,4.1 2.263,0 4.101,-1.836 4.101,-4.1 0,-2.264 -1.838,-4.099 -4.101,-4.099 z m 7.889,1.825 0.194,3.147 -2.003,0.598 c -0.078,0.317 -0.178,0.626 -0.303,0.923 l 1.373,1.705 -1.942,2.139 -1.887,-0.966 c -0.291,0.178 -1.07,0.777 -0.917,0.467 0.073,-0.15 -0.074,2.286 -0.074,2.286 l -3.186,0.039 -0.669,-2.069 c -0.315,-0.082 -0.62,-0.19 -0.915,-0.32 l -1.525,1.535 -2.37,-2.216 1.115,-1.742 C 18.481,13.44 18.31,13.096 18.172,12.736 L 15.817,12.552 V 9.716 L 17.88,9.288 C 17.962,8.883 18.082,8.492 18.238,8.12 L 16.865,6.295 18.848,4.08 20.489,5.373 C 20.808,5.158 21.15,4.97 21.508,4.816 l 0.215,-2.37 H 24.6 l 0.356,1.946 c 0.541,0.086 1.06,0.244 1.543,0.463 l 1.559,-1.593 2.294,1.905 -1.258,1.872 c 0.26,0.383 0.477,0.796 0.646,1.232 L 31.788,8.236 Z M 6.939,8.061 c 0,0.632 0.513,1.148 1.146,1.148 0.633,0 1.146,-0.516 1.146,-1.148 0,-0.632 -0.514,-1.146 -1.146,-1.146 -0.632,0 -1.146,0.514 -1.146,1.146 z M 8.084,4.973 c 1.703,0 3.09,1.386 3.09,3.088 0,1.705 -1.388,3.09 -3.09,3.09 -1.705,0 -3.09,-1.385 -3.09,-3.09 0,-1.703 1.385,-3.088 3.09,-3.088 z m 0,-1.011 c -2.265,0 -4.101,1.836 -4.101,4.1 0,2.265 1.836,4.101 4.101,4.101 2.264,0 4.1,-1.836 4.1,-4.101 0,-2.264 -1.836,-4.1 -4.1,-4.1 z m 7.89,1.826 0.194,3.149 -2.003,0.596 c -0.078,0.32 -0.178,0.627 -0.303,0.925 l 1.373,1.705 -1.942,2.136 -1.887,-0.966 c -0.29,0.18 -1.068,0.778 -0.917,0.469 0.074,-0.15 -0.073,2.286 -0.073,2.286 L 7.23,16.127 6.56,14.058 C 6.245,13.974 5.938,13.866 5.645,13.737 L 4.12,15.272 1.748,13.058 2.863,11.317 C 2.664,10.993 2.493,10.65 2.353,10.29 L 0,10.104 V 7.268 L 2.063,6.84 C 2.145,6.437 2.266,6.046 2.421,5.673 L 1.048,3.848 3.031,1.634 4.672,2.927 C 4.991,2.71 5.331,2.524 5.689,2.368 L 5.906,0 h 2.877 l 0.356,1.944 c 0.54,0.088 1.058,0.246 1.543,0.465 l 1.56,-1.592 2.292,1.905 -1.257,1.871 c 0.26,0.385 0.477,0.796 0.647,1.234 L 15.972,5.79 Z"
     id="path4" />
</svg>
