<?xml version="1.0" encoding="UTF-8" standalone="no"?>
<svg
   version="1.1"
   width="33.519531"
   height="20.082043"
   viewBox="0 0 33.519532 20.082043"
   id="svg4"
   xmlns="http://www.w3.org/2000/svg"
   xmlns:svg="http://www.w3.org/2000/svg">
  <defs>
    <!-- This is the gradient that will actually be used on
     the cards. The colors themselves will be provided by the
     template, but the x values, y values, and offsets will be
     used from the SVG. -->
    <linearGradient id="rarity" x1="0" y1="1" x2="1" y2="0">
      <stop offset="0" style="stop-color:rgb(192,55,38);stop-opacity:1" id="stop2" />
      <stop offset="0.125" style="stop-color:rgb(192,55,38);stop-opacity:1" id="stop4" />
      <stop offset="0.5" style="stop-color:rgb(241,142,30);stop-opacity:1" id="stop6" />
      <stop offset="0.875" style="stop-color:rgb(192,55,38);stop-opacity:1" id="stop8" />
      <stop offset="1" style="stop-color:rgb(192,55,38);stop-opacity:1" id="stop10" />
    </linearGradient>
    <!-- These gradients are here so that you can visualize
     what the set symbol would like like in that rarity. The
     only gradient that matters in the end is the "rarity"
     gradient. -->
    <linearGradient id="mythic" x1="0" y1="1" x2="1" y2="0">
      <stop offset="0" style="stop-color:rgb(192,55,38);stop-opacity:1"/>
      <stop offset="0.125" style="stop-color:rgb(192,55,38);stop-opacity:1"/>
      <stop offset="0.5" style="stop-color:rgb(241,142,30);stop-opacity:1"/>
      <stop offset="0.875" style="stop-color:rgb(192,55,38);stop-opacity:1"/>
      <stop offset="1" style="stop-color:rgb(192,55,38);stop-opacity:1"/>
    </linearGradient>
    <linearGradient id="rare" x1="0" y1="1" x2="1" y2="0">
      <stop offset="0" style="stop-color:rgb(146,116,67);stop-opacity:1"/>
      <stop offset="0.125" style="stop-color:rgb(146,116,67);stop-opacity:1"/>
      <stop offset="0.5" style="stop-color:rgb(211,178,108);stop-opacity:1"/>
      <stop offset="0.875" style="stop-color:rgb(146,116,67);stop-opacity:1"/>
      <stop offset="1" style="stop-color:rgb(146,116,67);stop-opacity:1"/>
    </linearGradient>
    <linearGradient id="special" x1="0" y1="1" x2="1" y2="0">
      <stop offset="0" style="stop-color:rgb(76, 56, 106);stop-opacity:1"/>
      <stop offset="0.125" style="stop-color:rgb(76, 56, 106);stop-opacity:1"/>
      <stop offset="0.5" style="stop-color:rgb(201, 173, 221);stop-opacity:1"/>
      <stop offset="0.875" style="stop-color:rgb(76, 56, 106);stop-opacity:1"/>
      <stop offset="1" style="stop-color:rgb(76, 56, 106);stop-opacity:1"/>
    </linearGradient>
    <linearGradient id="uncommon" x1="0" y1="1" x2="1" y2="0">
      <stop offset="0" style="stop-color:rgb(98,110,119);stop-opacity:1"/>
      <stop offset="0.125" style="stop-color:rgb(98,110,119);stop-opacity:1"/>
      <stop offset="0.5" style="stop-color:rgb(196,222,238);stop-opacity:1"/>
      <stop offset="0.875" style="stop-color:rgb(98,110,119);stop-opacity:1"/>
      <stop offset="1" style="stop-color:rgb(98,110,119);stop-opacity:1"/>
    </linearGradient>
    <linearGradient id="common" x1="0" y1="1" x2="1" y2="0">
      <stop offset="0" style="stop-color:rgb(0,0,0);stop-opacity:1"/>
    </linearGradient>
    <linearGradient
            id="rarity-outline" x1="0" y1="1" x2="0" y2="1">
      <stop offset="0" style="stop-color:rgb(0,0,0);stop-opacity:1"/>
    </linearGradient>
  </defs>
  <path fill="url(#rarity-outline)" d="M 5.9707031,0 5.7265625,2.65625 C 5.6493085,2.696122 5.5737257,2.738549 5.4980469,2.78125 L 3.6914062,1.359375 0.828125,4.5566406 2.3457031,6.5703125 C 2.3034089,6.69365 2.2660807,6.819101 2.2304688,6.9453125 L 0,7.4082031 v 4.1386719 l 2.6230469,0.207031 c 0.041737,0.08853 0.085685,0.175298 0.1308593,0.261719 l -1.2246093,1.914063 3.3613281,3.136718 1.7050781,-1.716797 c 0.03793,0.01338 0.075063,0.02827 0.1132813,0.04102 l 0.7285156,2.242187 4.435547,-0.05273 0.04101,-0.697266 c 0,0 0.03662,-0.611662 0.06445,-1.208984 0.01,-0.213642 0.01593,-0.399396 0.02148,-0.583984 0.08524,-0.05535 0.128432,-0.08496 0.207031,-0.138672 l 2.00586,1.027344 1.789062,-1.96875 2.441406,0.191406 c 0.04157,0.08843 0.08561,0.175366 0.13086,0.261719 l -1.22461,1.914062 3.357422,3.138672 1.705078,-1.716797 c 0.0385,0.01358 0.0764,0.0281 0.115235,0.04102 l 0.724609,2.242187 4.4375,-0.05469 0.04102,-0.695313 c 0,0 0.0365,-0.613724 0.06445,-1.210937 0.01,-0.2134 0.01585,-0.397677 0.02148,-0.582032 0.08501,-0.05507 0.126699,-0.08537 0.205078,-0.138671 l 2.007813,1.027343 2.759765,-3.039062 L 31.267578,13.5 c 0.0181,-0.05337 0.03595,-0.106429 0.05273,-0.160156 L 33.519531,12.681641 33.257812,8.4355469 32.777344,8.2753906 32.654297,8.234375 30.935547,8.2636719 C 30.866015,8.1195398 30.792038,7.9784147 30.712891,7.8398438 L 32.101562,5.7734375 28.755859,2.9941406 27.025391,4.7617188 C 26.808512,4.6840327 26.5877,4.6182476 26.361328,4.5625 L 25.974609,2.4453125 h -4.1875 l -0.240234,2.6582031 c -0.07754,0.039894 -0.152775,0.082375 -0.228516,0.125 l -1.808593,-1.4238281 -2.060547,2.3027344 -0.02148,-0.3339844 -0.71875,0.015625 c -0.529432,0.011003 -1.060868,0.019752 -1.591796,0.029297 -0.06939,-0.14349 -0.142041,-0.2841103 -0.220704,-0.421875 L 16.285156,3.328125 12.939453,0.54882812 11.208984,2.3144531 C 10.991952,2.2366789 10.770975,2.1713702 10.544922,2.1152344 L 10.158203,0 Z" />
  <path fill="url(#rarity)" d="m 23.505,11.261 c 0,0.632 0.514,1.146 1.146,1.146 0.632,0 1.146,-0.514 1.146,-1.146 0,-0.632 -0.513,-1.146 -1.146,-1.146 -0.633,0 -1.146,0.513 -1.146,1.146 z m 1.147,-3.09 c 1.703,0 3.09,1.385 3.09,3.09 0,1.703 -1.387,3.09 -3.09,3.09 -1.705,0 -3.09,-1.388 -3.09,-3.09 0,-1.705 1.386,-3.09 3.09,-3.09 z m 0,-1.009 c -2.265,0 -4.101,1.836 -4.101,4.099 0,2.263 1.836,4.1 4.101,4.1 2.263,0 4.101,-1.836 4.101,-4.1 0,-2.264 -1.838,-4.099 -4.101,-4.099 z m 7.889,1.825 0.194,3.147 -2.003,0.598 c -0.078,0.317 -0.178,0.626 -0.303,0.923 l 1.373,1.705 -1.942,2.139 -1.887,-0.966 c -0.291,0.178 -1.07,0.777 -0.917,0.467 0.073,-0.15 -0.074,2.286 -0.074,2.286 l -3.186,0.039 -0.669,-2.069 c -0.315,-0.082 -0.62,-0.19 -0.915,-0.32 l -1.525,1.535 -2.37,-2.216 1.115,-1.742 C 19.231,14.19 19.06,13.846 18.922,13.486 L 16.567,13.302 V 10.466 L 18.63,10.038 C 18.712,9.633 18.832,9.242 18.988,8.87 L 17.615,7.045 19.598,4.83 21.239,6.123 C 21.558,5.908 21.9,5.72 22.258,5.566 l 0.215,-2.37 h 2.877 l 0.356,1.946 c 0.541,0.086 1.06,0.244 1.543,0.463 l 1.559,-1.593 2.294,1.905 -1.258,1.872 c 0.26,0.383 0.477,0.796 0.646,1.232 L 32.538,8.986 Z M 7.689,8.811 c 0,0.632 0.513,1.148 1.146,1.148 0.633,0 1.146,-0.516 1.146,-1.148 0,-0.632 -0.514,-1.146 -1.146,-1.146 -0.632,0 -1.146,0.514 -1.146,1.146 z M 8.834,5.723 c 1.703,0 3.09,1.386 3.09,3.088 0,1.705 -1.388,3.09 -3.09,3.09 -1.705,0 -3.09,-1.385 -3.09,-3.09 0,-1.703 1.385,-3.088 3.09,-3.088 z m 0,-1.011 c -2.265,0 -4.101,1.836 -4.101,4.1 0,2.265 1.836,4.101 4.101,4.101 2.264,0 4.1,-1.836 4.1,-4.101 0,-2.264 -1.836,-4.1 -4.1,-4.1 z m 7.89,1.826 0.194,3.149 -2.003,0.596 c -0.078,0.32 -0.178,0.627 -0.303,0.925 l 1.373,1.705 -1.942,2.136 -1.887,-0.966 c -0.29,0.18 -1.068,0.778 -0.917,0.469 0.074,-0.15 -0.073,2.286 -0.073,2.286 L 7.98,16.877 7.31,14.808 C 6.995,14.724 6.688,14.616 6.395,14.487 L 4.87,16.022 2.498,13.808 3.613,12.067 C 3.414,11.743 3.243,11.4 3.103,11.04 L 0.75,10.854 V 8.018 L 2.813,7.59 C 2.895,7.187 3.016,6.796 3.171,6.423 L 1.798,4.598 3.781,2.384 5.422,3.677 C 5.741,3.46 6.081,3.274 6.439,3.118 L 6.656,0.75 h 2.877 l 0.356,1.944 c 0.54,0.088 1.058,0.246 1.543,0.465 l 1.56,-1.592 2.292,1.905 -1.257,1.871 c 0.26,0.385 0.477,0.796 0.647,1.234 L 16.722,6.54 Z"/>
</svg>
