<?xml version="1.0" encoding="UTF-8" standalone="no"?>
<svg
   version="1.1"
   width="33.634663"
   height="23.104239"
   viewBox="0 0 33.634663 23.104239"
   id="svg4"
   xmlns="http://www.w3.org/2000/svg"
   xmlns:svg="http://www.w3.org/2000/svg">
  <defs>
    <!-- This is the gradient that will actually be used on
     the cards. The colors themselves will be provided by the
     template, but the x values, y values, and offsets will be
     used from the SVG. -->
    <linearGradient id="rarity" x1="0" y1="0" x2="1" y2="1">
      <stop offset="0" style="stop-color:rgb(192,55,38);stop-opacity:1" id="stop2" />
      <stop offset="0.125" style="stop-color:rgb(192,55,38);stop-opacity:1" id="stop4" />
      <stop offset="0.5" style="stop-color:rgb(241,142,30);stop-opacity:1" id="stop6" />
      <stop offset="0.875" style="stop-color:rgb(192,55,38);stop-opacity:1" id="stop8" />
      <stop offset="1" style="stop-color:rgb(192,55,38);stop-opacity:1" id="stop10" />
    </linearGradient>
    <!-- These gradients are here so that you can visualize
     what the set symbol would like like in that rarity. The
     only gradient that matters in the end is the "rarity"
     gradient. -->
    <linearGradient id="mythic" x1="0" y1="1" x2="1" y2="0">
      <stop offset="0" style="stop-color:rgb(192,55,38);stop-opacity:1"/>
      <stop offset="0.125" style="stop-color:rgb(192,55,38);stop-opacity:1"/>
      <stop offset="0.5" style="stop-color:rgb(241,142,30);stop-opacity:1"/>
      <stop offset="0.875" style="stop-color:rgb(192,55,38);stop-opacity:1"/>
      <stop offset="1" style="stop-color:rgb(192,55,38);stop-opacity:1"/>
    </linearGradient>
    <linearGradient id="rare" x1="0" y1="1" x2="1" y2="0">
      <stop offset="0" style="stop-color:rgb(146,116,67);stop-opacity:1"/>
      <stop offset="0.125" style="stop-color:rgb(146,116,67);stop-opacity:1"/>
      <stop offset="0.5" style="stop-color:rgb(211,178,108);stop-opacity:1"/>
      <stop offset="0.875" style="stop-color:rgb(146,116,67);stop-opacity:1"/>
      <stop offset="1" style="stop-color:rgb(146,116,67);stop-opacity:1"/>
    </linearGradient>
    <linearGradient id="special" x1="0" y1="1" x2="1" y2="0">
      <stop offset="0" style="stop-color:rgb(76, 56, 106);stop-opacity:1"/>
      <stop offset="0.125" style="stop-color:rgb(76, 56, 106);stop-opacity:1"/>
      <stop offset="0.5" style="stop-color:rgb(201, 173, 221);stop-opacity:1"/>
      <stop offset="0.875" style="stop-color:rgb(76, 56, 106);stop-opacity:1"/>
      <stop offset="1" style="stop-color:rgb(76, 56, 106);stop-opacity:1"/>
    </linearGradient>
    <linearGradient id="uncommon" x1="0" y1="1" x2="1" y2="0">
      <stop offset="0" style="stop-color:rgb(98,110,119);stop-opacity:1"/>
      <stop offset="0.125" style="stop-color:rgb(98,110,119);stop-opacity:1"/>
      <stop offset="0.5" style="stop-color:rgb(196,222,238);stop-opacity:1"/>
      <stop offset="0.875" style="stop-color:rgb(98,110,119);stop-opacity:1"/>
      <stop offset="1" style="stop-color:rgb(98,110,119);stop-opacity:1"/>
    </linearGradient>
    <linearGradient id="common" x1="0" y1="1" x2="1" y2="0">
      <stop offset="0" style="stop-color:rgb(0,0,0);stop-opacity:1"/>
    </linearGradient>
    <linearGradient
            id="rarity-outline" x1="0" y1="1" x2="0" y2="1">
      <stop offset="0" style="stop-color:rgb(0,0,0);stop-opacity:1"/>
    </linearGradient>
  </defs>
  <path fill="url(#rarity-outline)" d="M 7.2597656 0.00390625 C 5.9690475 0.05100619 4.599398 0.48478735 3.484375 1.1953125 L 2.3535156 1.9160156 L 3.5605469 2.5019531 C 5.0667637 3.2321551 6.5781929 3.9265795 8.0703125 4.6425781 C 8.2590968 5.748905 8.4692549 6.8303528 8.6425781 7.9003906 C 7.6930441 8.4357886 6.7620831 8.9841794 5.8378906 9.5175781 C 4.2976843 8.7902632 2.7563082 8.0588903 1.2089844 7.3359375 L 0 6.7695312 L 0.14648438 8.0976562 C 0.30816316 9.5583018 0.8913228 10.986698 1.9003906 12.105469 C 3.2109306 13.58167 5.1710526 14.410361 7.1484375 14.300781 C 8.5819867 14.236621 9.9036836 13.639066 11.019531 12.789062 C 14.437564 14.401398 17.853662 16.017349 21.271484 17.630859 C 21.570822 19.886784 23.057808 21.918845 25.234375 22.707031 C 27.071072 23.410945 29.185664 23.161925 30.816406 22.074219 C 32.163748 21.191878 33.116351 19.791156 33.472656 18.230469 C 33.900173 16.389983 33.469956 14.398604 32.298828 12.904297 C 31.155075 11.414349 29.345286 10.512062 27.464844 10.5 L 27.462891 10.5 C 26.253627 10.483085 25.108665 10.893348 24.105469 11.519531 C 20.70223 9.9114135 17.296505 8.3072577 13.896484 6.6972656 C 13.846095 5.4563324 13.559651 4.2134652 12.882812 3.1328125 L 12.880859 3.1308594 C 11.924472 1.5662708 10.325618 0.43954065 8.5175781 0.091796875 L 8.5136719 0.08984375 L 8.5117188 0.08984375 C 8.1113234 0.015578797 7.690005 -0.01179373 7.2597656 0.00390625 z M 26.871094 14.017578 C 27.116295 14.046298 27.40793 14.227434 27.517578 14.515625 L 27.607422 14.751953 L 27.822266 14.886719 C 28.701486 15.432551 29.481349 15.860883 29.798828 16.509766 L 29.810547 16.53125 L 29.822266 16.550781 C 29.929119 16.737775 29.9272 17.088288 29.931641 17.628906 L 29.931641 17.744141 L 29.966797 17.851562 C 30.000027 17.954718 30.023837 17.973762 30.060547 18.060547 C 29.82792 18.147147 29.587152 18.232023 29.365234 18.478516 L 29.378906 18.462891 C 29.158075 18.695676 28.838524 18.847378 28.521484 18.871094 L 28.515625 18.873047 L 28.509766 18.873047 C 27.847646 18.932537 27.114358 18.668666 26.3125 18.34375 L 26.044922 18.236328 L 25.775391 18.333984 C 25.519579 18.426774 25.162795 18.301314 25.007812 18.101562 C 24.877747 17.819277 24.872795 17.420434 25.015625 17.021484 L 24.998047 17.064453 C 25.266958 16.440001 25.093496 15.959016 25.066406 15.716797 L 25.115234 15.671875 C 25.246682 15.551504 25.389604 15.450273 25.542969 15.371094 L 25.949219 15.162109 L 25.949219 14.970703 C 26.227226 14.500391 26.528528 14.145886 26.871094 14.017578 z " />
  <path fill="url(#rarity)" d="m 8.3753633,0.82757749 c 1.591,0.30600001 3.0239997,1.31400001 3.8679997,2.69600001 0.686,1.092 0.992,2.393 0.961,3.676 3.633,1.721 7.271,3.4339995 10.906,5.1519995 0.964,-0.706 2.147,-1.12 3.347,-1.102 1.642,0.01 3.255,0.813 4.252,2.115 1.025,1.307 1.408,3.085 1.032,4.699 -0.313,1.371 -1.161,2.615 -2.338,3.385 -1.425,0.952 -3.311,1.173 -4.911,0.556 -2.029,-0.733 -3.461,-2.752 -3.57,-4.895 -3.648,-1.722 -7.296,-3.447 -10.945,-5.168 -1.0669997,0.94 -2.4379997,1.547 -3.8649997,1.61 -1.739,0.098 -3.496,-0.643 -4.651,-1.944 -0.894,-0.989 -1.423,-2.2739995 -1.56900005,-3.5929995 1.66300005,0.777 3.32100005,1.566 4.98100005,2.3489995 1.203,-0.6859995 2.384,-1.4089995 3.597,-2.0759995 -0.204,-1.391 -0.504,-2.768 -0.728,-4.156 -1.613,-0.78 -3.243,-1.523 -4.854,-2.304 1.2339528,-0.86526628 3.2097032,-1.23691182 4.487,-1.00000001 z M 25.199363,14.705577 c -0.215,0.111 -0.413,0.251 -0.591,0.414 -0.234,-0.16 -0.473,-0.314 -0.72,-0.453 -0.107,0.363 -0.138,0.741 -0.087,1.117 0.173,-0.031 0.347,-0.062 0.521,-0.091 0.02,0.358 0.136,0.73 -0.013,1.076 -0.198,0.553 -0.247,1.196 0.034,1.73 0.351,0.542 1.086,0.758 1.687,0.54 0.807,0.327 1.657,0.661 2.547,0.581 0.508,-0.038 0.994,-0.27 1.345,-0.64 0.298,-0.331 0.782,-0.321 1.184,-0.422 -0.116,-0.323 -0.32,-0.609 -0.425,-0.935 -0.004,-0.487 0.044,-1.002 -0.208,-1.443 -0.456,-0.932 -1.419,-1.412 -2.255,-1.931 -0.226,-0.594 -0.81,-1.076 -1.465,-1.032 -0.741,0.195 -1.203,0.855 -1.554,1.488 z"/>
</svg>
