<?xml version="1.0" encoding="UTF-8" standalone="no"?>
<svg
   version="1.1"
   width="29.464769"
   height="27.005579"
   viewBox="0 0 29.464769 27.005579"
   id="svg4"
   xmlns="http://www.w3.org/2000/svg"
   xmlns:svg="http://www.w3.org/2000/svg">
  <defs>
    <!-- This is the gradient that will actually be used on
     the cards. The colors themselves will be provided by the
     template, but the x values, y values, and offsets will be
     used from the SVG. -->
    <linearGradient id="rarity" x1="-0.5" y1="1.5" x2="0.75" y2="0.25">
      <stop offset="0" style="stop-color:rgb(192,55,38);stop-opacity:1" id="stop2" />
      <stop offset="0.125" style="stop-color:rgb(192,55,38);stop-opacity:1" id="stop4" />
      <stop offset="0.5" style="stop-color:rgb(241,142,30);stop-opacity:1" id="stop6" />
      <stop offset="0.875" style="stop-color:rgb(192,55,38);stop-opacity:1" id="stop8" />
      <stop offset="1" style="stop-color:rgb(192,55,38);stop-opacity:1" id="stop10" />
    </linearGradient>
    <!-- These gradients are here so that you can visualize
     what the set symbol would like like in that rarity. The
     only gradient that matters in the end is the "rarity"
     gradient. -->
    <linearGradient id="mythic" x1="0" y1="1" x2="1" y2="0">
      <stop offset="0" style="stop-color:rgb(192,55,38);stop-opacity:1"/>
      <stop offset="0.125" style="stop-color:rgb(192,55,38);stop-opacity:1"/>
      <stop offset="0.5" style="stop-color:rgb(241,142,30);stop-opacity:1"/>
      <stop offset="0.875" style="stop-color:rgb(192,55,38);stop-opacity:1"/>
      <stop offset="1" style="stop-color:rgb(192,55,38);stop-opacity:1"/>
    </linearGradient>
    <linearGradient id="rare" x1="0" y1="1" x2="1" y2="0">
      <stop offset="0" style="stop-color:rgb(146,116,67);stop-opacity:1"/>
      <stop offset="0.125" style="stop-color:rgb(146,116,67);stop-opacity:1"/>
      <stop offset="0.5" style="stop-color:rgb(211,178,108);stop-opacity:1"/>
      <stop offset="0.875" style="stop-color:rgb(146,116,67);stop-opacity:1"/>
      <stop offset="1" style="stop-color:rgb(146,116,67);stop-opacity:1"/>
    </linearGradient>
    <linearGradient id="special" x1="0" y1="1" x2="1" y2="0">
      <stop offset="0" style="stop-color:rgb(76, 56, 106);stop-opacity:1"/>
      <stop offset="0.125" style="stop-color:rgb(76, 56, 106);stop-opacity:1"/>
      <stop offset="0.5" style="stop-color:rgb(201, 173, 221);stop-opacity:1"/>
      <stop offset="0.875" style="stop-color:rgb(76, 56, 106);stop-opacity:1"/>
      <stop offset="1" style="stop-color:rgb(76, 56, 106);stop-opacity:1"/>
    </linearGradient>
    <linearGradient id="uncommon" x1="0" y1="1" x2="1" y2="0">
      <stop offset="0" style="stop-color:rgb(98,110,119);stop-opacity:1"/>
      <stop offset="0.125" style="stop-color:rgb(98,110,119);stop-opacity:1"/>
      <stop offset="0.5" style="stop-color:rgb(196,222,238);stop-opacity:1"/>
      <stop offset="0.875" style="stop-color:rgb(98,110,119);stop-opacity:1"/>
      <stop offset="1" style="stop-color:rgb(98,110,119);stop-opacity:1"/>
    </linearGradient>
    <linearGradient id="common" x1="0" y1="1" x2="1" y2="0">
      <stop offset="0" style="stop-color:rgb(0,0,0);stop-opacity:1"/>
    </linearGradient>
    <linearGradient
            id="rarity-outline" x1="0" y1="1" x2="0" y2="1">
      <stop offset="0" style="stop-color:rgb(0,0,0);stop-opacity:1"/>
    </linearGradient>
  </defs>
  <path fill="url(#rarity-outline)" d="M 11.638597,1.4957727 9.4139877,2.8317102 11.976487,2.4176477 c 0,0 4.028965,-0.5462929 7.119141,1.578125 -0.158724,0.2508645 -0.38154,0.6811324 -1.355469,1.6015625 -1.212593,1.1459842 -3.140022,2.555487 -5.998046,3.5878906 C 8.9327562,10.199915 6.6562908,9.838193 5.4237533,8.7223352 4.1912159,7.6064774 3.8341775,5.6809712 5.1093002,3.0992883 L 6.3182846,0.6520227 4.3202377,2.5113977 c 0,0 -2.7596789,2.5714263 -3.91992183,7.0585937 -1.16892273,4.5226796 0.39001639,8.7528696 2.50781243,11.7871096 l 0.00781,0.01367 0.2011719,0.251954 0.00586,0.0059 c 2.4070031,2.810228 6.1165116,5.376953 10.7851558,5.376953 4.633049,0 7.8125,-2.03125 7.8125,-2.03125 l 2.298828,-1.46875 -2.669922,0.558594 c -2.818924,0.589697 -4.593793,-0.236303 -5.365234,-1.708984 -0.771441,-1.472682 -0.552994,-3.768581 1.132813,-6.236329 1.713775,-2.508427 3.561517,-4.021446 4.974609,-4.908203 1.135289,-0.712427 1.608157,-0.821417 1.890625,-0.912109 1.283906,3.521338 -0.25586,7.289062 -0.25586,7.289062 l -1.072265,2.4375 1.882812,-1.882812 c 2.226373,-2.22641 2.950291,-4.470431 3.089844,-6.150391 0.126402,-1.521644 -0.209384,-2.3793273 -0.277344,-2.5722652 l 2.115237,-8.37504 -8.636719,-0.0820312 C 19.953251,0.41409325 18.925194,0.16146053 17.904222,0.0504602 15.237166,-0.22417178 13.033201,0.67380959 11.638597,1.4957727 Z" />
  <path fill="url(#rarity)" d="m 16.81929,0.4264602 c 1.293,-0.008 2.855,0.291 3.931,1.037 l 8.074,0.076 -1.97,7.794 c 0,0 1.623,4.1609998 -2.671,8.4549998 0,0 1.888,-4.294 0.132,-8.1959998 0,0 -4.1,1.1049998 -7.611,6.2439998 -3.512,5.141 -1.171,9.955 4.747,8.717 0,0 -3.056,1.953 -7.544,1.953 -4.4850001,0 -8.0650001,-2.471 -10.4050001,-5.203 l -0.185,-0.232 c -2.059,-2.95 -3.556,-7.032 -2.433,-11.3769998 1.124,-4.347 3.777,-6.817 3.777,-6.817 -2.677,5.42 1.397,8.8929998 7.2500001,6.779 5.855,-2.115 7.952,-5.806 7.952,-5.806 -3.341,-2.677 -7.967,-1.927 -7.967,-1.927 1.51,-0.908 3.165,-1.433 4.924,-1.498 z"/>
  <path fill="#FFFFFF" d="m 20.18629,2.5394602 1.553,1.129 L 8.8452899,16.56246 24.93929,7.8564602 l 0.8,1.365 1.6,-6.636 -7.153,-0.047 z"/>
</svg>
