<?xml version="1.0" encoding="UTF-8" standalone="no"?>
<!-- Generated by IcoMoon.io -->

<svg
   version="1.1"
   width="21.955999"
   height="29.426001"
   viewBox="0 0 21.955999 29.426001"
   id="svg6"
   sodipodi:docname="v10.svg"
   inkscape:version="1.1.1 (3bf5ae0d25, 2021-09-20)"
   xmlns:inkscape="http://www.inkscape.org/namespaces/inkscape"
   xmlns:sodipodi="http://sodipodi.sourceforge.net/DTD/sodipodi-0.dtd"
   xmlns="http://www.w3.org/2000/svg"
   xmlns:svg="http://www.w3.org/2000/svg">
  <defs
     id="defs10" />
  <sodipodi:namedview
     id="namedview8"
     pagecolor="#ffffff"
     bordercolor="#666666"
     borderopacity="1.0"
     inkscape:pageshadow="2"
     inkscape:pageopacity="0.0"
     inkscape:pagecheckerboard="0"
     showgrid="false"
     inkscape:zoom="25.75"
     inkscape:cx="11.514563"
     inkscape:cy="14.699029"
     inkscape:window-width="1920"
     inkscape:window-height="1009"
     inkscape:window-x="-8"
     inkscape:window-y="-8"
     inkscape:window-maximized="1"
     inkscape:current-layer="svg6" />
  <title
     id="title2">v10</title>
  <path
     fill="#000000"
     d="m 11.254,29.426 c 5.813,0 8.189,-2.928 8.189,-2.928 l -2.206,-3.52 c 0,0 -2.501,1.908 -5.897,1.908 -3.396,0 -6.661,-1.824 -6.661,-1.824 l -1.952,3.563 c 0,0 2.714,2.801 8.527,2.801 z M 9.599,15.805 C 7.588,15.272 6.333,14.535 4.803,12.071 3.402,9.813 4.233,5.663 4.233,5.663 c 0,0 -2.227,1.785 -2.227,5.348 0,3.563 3.055,7.573 8.337,7.573 5.282,0 7.127,-4.582 7.127,-7.064 0,-2.495 -2.02,-4.517 -4.518,-4.517 -2.498,0 -4.52,2.023 -4.52,4.517 0,1.614 0.896,3.253 2.119,3.83 0.316,0.149 0.524,0.849 -0.951,0.455 z m 12.357,-4.824 c 0,6.064 -4.914,10.978 -10.978,10.978 C 4.914,21.959 0,17.045 0,10.981 0,4.918 4.915,0 10.978,0 17.041,0 21.956,4.918 21.956,10.981 Z"
     id="path4" />
</svg>
