<?xml version="1.0" encoding="UTF-8" standalone="no"?>
<!-- Generated by IcoMoon.io -->

<svg
   version="1.1"
   width="29.816999"
   height="21.9"
   viewBox="0 0 29.816999 21.9"
   id="svg8"
   sodipodi:docname="v12.svg"
   inkscape:version="1.1.1 (3bf5ae0d25, 2021-09-20)"
   xmlns:inkscape="http://www.inkscape.org/namespaces/inkscape"
   xmlns:sodipodi="http://sodipodi.sourceforge.net/DTD/sodipodi-0.dtd"
   xmlns="http://www.w3.org/2000/svg"
   xmlns:svg="http://www.w3.org/2000/svg">
  <defs
     id="defs12" />
  <sodipodi:namedview
     id="namedview10"
     pagecolor="#ffffff"
     bordercolor="#666666"
     borderopacity="1.0"
     inkscape:pageshadow="2"
     inkscape:pageopacity="0.0"
     inkscape:pagecheckerboard="0"
     showgrid="false"
     inkscape:zoom="25.75"
     inkscape:cx="14.970874"
     inkscape:cy="10.932039"
     inkscape:window-width="1920"
     inkscape:window-height="1009"
     inkscape:window-x="-8"
     inkscape:window-y="-8"
     inkscape:window-maximized="1"
     inkscape:current-layer="svg8" />
  <title
     id="title2">v12</title>
  <path
     fill="#000000"
     d="m 12.44,3.754 c 1.378,0 2.681,0.319 3.84,0.887 C 16.342,4.279 16.376,3.907 16.376,3.526 16.376,2.384 16.085,1.315 15.579,0.4 14.576,0.139 13.525,0 12.44,0 5.569,0 0,5.571 0,12.442 0,15.17 0.878,17.693 2.367,19.743 2.894,18.516 3.693,17.433 4.685,16.567 4.049,15.354 3.687,13.973 3.687,12.508 3.687,7.673 7.606,3.753 12.44,3.753 Z"
     id="path4" />
  <path
     fill="#000000"
     d="m 18.742,1.255 c 0.261,0.703 0.406,1.469 0.406,2.271 0,1.017 -0.232,1.975 -0.639,2.82 0.2,0.267 0.368,0.568 0.492,0.9 0.642,1.717 -0.113,3.586 -1.687,4.178 -0.417,-2.456 -2.553,-4.327 -5.127,-4.327 -2.873,0 -5.202,2.329 -5.202,5.203 0,1.976 1.101,3.694 2.723,4.575 -2.689,0.327 -4.915,2.34 -5.482,5.025 H 29.817 C 29.691,10.466 26.184,4.161 18.742,1.255 Z"
     id="path6" />
</svg>
