<?xml version="1.0" encoding="UTF-8" standalone="no"?>
<!-- Generated by IcoMoon.io -->

<svg
   version="1.1"
   width="26.658001"
   height="26.837999"
   viewBox="0 0 26.658001 26.837999"
   id="svg6"
   sodipodi:docname="v13.svg"
   inkscape:version="1.1.1 (3bf5ae0d25, 2021-09-20)"
   xmlns:inkscape="http://www.inkscape.org/namespaces/inkscape"
   xmlns:sodipodi="http://sodipodi.sourceforge.net/DTD/sodipodi-0.dtd"
   xmlns="http://www.w3.org/2000/svg"
   xmlns:svg="http://www.w3.org/2000/svg">
  <defs
     id="defs10" />
  <sodipodi:namedview
     id="namedview8"
     pagecolor="#ffffff"
     bordercolor="#666666"
     borderopacity="1.0"
     inkscape:pageshadow="2"
     inkscape:pageopacity="0.0"
     inkscape:pagecheckerboard="0"
     showgrid="false"
     inkscape:zoom="25.75"
     inkscape:cx="13.495146"
     inkscape:cy="13.417476"
     inkscape:window-width="1920"
     inkscape:window-height="1009"
     inkscape:window-x="-8"
     inkscape:window-y="-8"
     inkscape:window-maximized="1"
     inkscape:current-layer="svg6" />
  <title
     id="title2">v13</title>
  <path
     fill="#000000"
     d="m 13.329001,0 c 7.363,0 13.331,6.008 13.329,13.419 0.002,7.41 -5.966,13.419 -13.329,13.419 C 5.9660005,26.838 -0.0019995,20.83 5.0253407e-7,13.419 -0.0019995,6.009 5.9660005,0 13.329001,0 Z m 5.588,6.162 c -3.387,-0.062 -4.891,4.554 -4.749,7.382 0.148,2.958 1.308,6.945 4.901,6.949 3.358,0.003 4.844,-4.56 4.858,-7.143 0.023,-4.227 -1.955,-7.131 -5.009,-7.187 z m 0.021,1.369 c 1.909,-0.011 2.499,3.613 2.579,5.904 0.076,2.165 -0.274,5.958 -2.428,5.796 -1.895,-0.142 -2.469,-3.512 -2.493,-5.753 -0.02,-1.902 0.05,-5.934 2.341,-5.947 z M 8.7800005,6.302 c -0.448,0.017 -0.443,0.001 -0.886,0.083 -2.222,0.411 -3.785,2.495 -4.378,4.549 l 1.225,0.49 c 0.822,-2.317 2.643,-3.494 4.005,-2.993 0.937,0.345 2.1130005,1.705 1.2760005,3.544 -0.6130005,1.346 -4.2510005,4.848 -6.5510005,7.301 l 0.015,1.01 8.8010005,0.015 1.056,-3.827 h -1.194 c -0.334,1.142 -0.935,1.517 -1.592,1.73 L 6.2410005,18.158 c 1.87,-2.247 4.0640005,-3.359 5.4640005,-5.082 1.401,-1.724 1.004,-4.483 -0.245,-5.648 -0.748,-0.673 -1.6610005,-1.111 -2.6800005,-1.127 z"
     id="path4" />
</svg>
