<?xml version="1.0" encoding="UTF-8" standalone="no"?>
<!-- Generated by IcoMoon.io -->

<svg
   version="1.1"
   width="31.248888"
   height="25.912125"
   viewBox="0 0 31.248888 25.912125"
   id="svg12"
   sodipodi:docname="v14.svg"
   inkscape:version="1.1.1 (3bf5ae0d25, 2021-09-20)"
   xmlns:inkscape="http://www.inkscape.org/namespaces/inkscape"
   xmlns:sodipodi="http://sodipodi.sourceforge.net/DTD/sodipodi-0.dtd"
   xmlns="http://www.w3.org/2000/svg"
   xmlns:svg="http://www.w3.org/2000/svg">
  <defs
     id="defs16" />
  <sodipodi:namedview
     id="namedview14"
     pagecolor="#ffffff"
     bordercolor="#666666"
     borderopacity="1.0"
     inkscape:pageshadow="2"
     inkscape:pageopacity="0.0"
     inkscape:pagecheckerboard="0"
     showgrid="false"
     inkscape:zoom="25.75"
     inkscape:cx="16.330097"
     inkscape:cy="13.456311"
     inkscape:window-width="1920"
     inkscape:window-height="1009"
     inkscape:window-x="-8"
     inkscape:window-y="-8"
     inkscape:window-maximized="1"
     inkscape:current-layer="svg12" />
  <title
     id="title2">v14</title>
  <path
     fill="#000000"
     d="m 3.9388887,3.5422037 c 3.951,-3.92399995 10.4260003,-4.554 15.2970003,-2.058 0.153,3.432 0.275,6.86 0.47,10.2880003 -3.447,-1.664 -6.639,-3.8140003 -10.0970003,-5.4480003 2.5620003,3.325 5.6190003,6.2420003 8.2530003,9.5130003 -3.921,0.076 -7.822,0.466 -11.7390003,0.58 0.721,0.725 1.79,0.649 2.722,0.84 2.7680003,0.45 5.5350003,0.92 8.3030003,1.39 -1.733,1.913 -3.978,3.272 -5.669,5.222 2.917,-0.905 5.7,-2.176 8.589,-3.165 -0.08,1.122 -0.176,2.245 -0.237,3.367 -3.31,1.905 -7.41,2.386 -11.0480003,1.187 -2.833,-0.897 -5.333,-2.836 -6.852,-5.398 -3.172,-5.024 -2.38999998,-12.2500003 2.008,-16.3200003 z"
     id="path4" />
  <path
     fill="#000000"
     d="m 20.620889,2.3442037 c 1.741,1.34 3.31,3.046 4.073,5.135 -0.206,1.47 -1.401,2.6150003 -2.184,3.8440003 -0.592,-3.0010003 -1.298,-5.9780003 -1.89,-8.9790003 z"
     id="path6" />
  <path
     fill="#000000"
     d="m 23.468889,15.151204 c 0.626,-1.794 1.248,-3.604 2.222,-5.2410003 0.218,1.4540003 0.298,2.9240003 0.198,4.3940003 -0.805,0.279 -1.611,0.569 -2.42,0.847 z"
     id="path8" />
  <path
     fill="#000000"
     d="m 21.872889,17.083204 c 3.127,0.015 6.253,-0.176 9.376,-0.03 -1.741,0.878 -3.554,1.603 -5.28,2.508 0.916,1.428 1.878,2.829 2.703,4.31 -1.439,-0.687 -2.859,-1.416 -4.337,-2.019 -0.466,1.225 -0.87,2.481 -1.378,3.692 -0.401,-2.814 -0.794,-5.631 -1.084,-8.46 z"
     id="path10" />
</svg>
