<?xml version="1.0" encoding="UTF-8" standalone="no"?>
<svg
   version="1.1"
   width="34.113281"
   height="19.404079"
   viewBox="0 0 34.113282 19.404079"
   id="svg4"
   xmlns="http://www.w3.org/2000/svg"
   xmlns:svg="http://www.w3.org/2000/svg">
  <defs>
    <!-- This is the gradient that will actually be used on
     the cards. The colors themselves will be provided by the
     template, but the x values, y values, and offsets will be
     used from the SVG. -->
    <linearGradient id="rarity" x1="0" y1="0" x2="1" y2="1">
      <stop offset="0" style="stop-color:rgb(192,55,38);stop-opacity:1" id="stop2" />
      <stop offset="0.125" style="stop-color:rgb(192,55,38);stop-opacity:1" id="stop4" />
      <stop offset="0.5" style="stop-color:rgb(241,142,30);stop-opacity:1" id="stop6" />
      <stop offset="0.875" style="stop-color:rgb(192,55,38);stop-opacity:1" id="stop8" />
      <stop offset="1" style="stop-color:rgb(192,55,38);stop-opacity:1" id="stop10" />
    </linearGradient>
    <!-- These gradients are here so that you can visualize
     what the set symbol would like like in that rarity. The
     only gradient that matters in the end is the "rarity"
     gradient. -->
    <linearGradient id="mythic" x1="0" y1="1" x2="1" y2="0">
      <stop offset="0" style="stop-color:rgb(192,55,38);stop-opacity:1"/>
      <stop offset="0.125" style="stop-color:rgb(192,55,38);stop-opacity:1"/>
      <stop offset="0.5" style="stop-color:rgb(241,142,30);stop-opacity:1"/>
      <stop offset="0.875" style="stop-color:rgb(192,55,38);stop-opacity:1"/>
      <stop offset="1" style="stop-color:rgb(192,55,38);stop-opacity:1"/>
    </linearGradient>
    <linearGradient id="rare" x1="0" y1="1" x2="1" y2="0">
      <stop offset="0" style="stop-color:rgb(146,116,67);stop-opacity:1"/>
      <stop offset="0.125" style="stop-color:rgb(146,116,67);stop-opacity:1"/>
      <stop offset="0.5" style="stop-color:rgb(211,178,108);stop-opacity:1"/>
      <stop offset="0.875" style="stop-color:rgb(146,116,67);stop-opacity:1"/>
      <stop offset="1" style="stop-color:rgb(146,116,67);stop-opacity:1"/>
    </linearGradient>
    <linearGradient id="special" x1="0" y1="1" x2="1" y2="0">
      <stop offset="0" style="stop-color:rgb(76, 56, 106);stop-opacity:1"/>
      <stop offset="0.125" style="stop-color:rgb(76, 56, 106);stop-opacity:1"/>
      <stop offset="0.5" style="stop-color:rgb(201, 173, 221);stop-opacity:1"/>
      <stop offset="0.875" style="stop-color:rgb(76, 56, 106);stop-opacity:1"/>
      <stop offset="1" style="stop-color:rgb(76, 56, 106);stop-opacity:1"/>
    </linearGradient>
    <linearGradient id="uncommon" x1="0" y1="1" x2="1" y2="0">
      <stop offset="0" style="stop-color:rgb(98,110,119);stop-opacity:1"/>
      <stop offset="0.125" style="stop-color:rgb(98,110,119);stop-opacity:1"/>
      <stop offset="0.5" style="stop-color:rgb(196,222,238);stop-opacity:1"/>
      <stop offset="0.875" style="stop-color:rgb(98,110,119);stop-opacity:1"/>
      <stop offset="1" style="stop-color:rgb(98,110,119);stop-opacity:1"/>
    </linearGradient>
    <linearGradient id="common" x1="0" y1="1" x2="1" y2="0">
      <stop offset="0" style="stop-color:rgb(0,0,0);stop-opacity:1"/>
    </linearGradient>
    <linearGradient
            id="rarity-outline" x1="0" y1="1" x2="0" y2="1">
      <stop offset="0" style="stop-color:rgb(0,0,0);stop-opacity:1"/>
    </linearGradient>
  </defs>
  <path fill="url(#rarity-outline)" d="m 23.03711,0.00173589 c -0.210219,-0.002727995 -0.421398,-0.002358995 -0.632813,0.001953 h -0.0078 -0.0078 c -0.748565,0.0399235 -1.628058,0.0669931 -2.431641,0.5234375 l -0.01172,0.007813 -0.01367,0.007813 C 19.554873,0.78681805 19.090429,1.2582786 19.060547,1.972439 v 0.017578 0.017578 c 0.01819,0.6523176 0.248359,1.2167683 0.441406,1.7128906 l 0.002,0.00586 0.002,0.00586 c 0.582561,1.3896199 1.383668,2.6497137 2.205078,3.8710937 C 20.141212,9.302536 18.567187,11.000143 16.990234,12.691189 15.420061,10.991301 13.842805,9.3008162 12.283203,7.5993922 13.117226,6.0673155 13.95149,4.4610958 14.333984,2.6677516 14.587612,1.7665579 14.026865,0.88782326 13.208984,0.59157964 11.961335,0.10452232 10.656757,0.19641738 9.4921875,0.24197027 h -0.00195 -0.00195 C 6.8730706,0.36519447 4.3383228,0.84692045 1.8359375,0.75564215 L 0.57617188,0.70876715 1.4609375,1.6052516 c 1.0218351,1.0351322 2.1653023,1.9922803 3.4804688,2.7011718 l 0.00391,0.00195 0.00586,0.00195 C 5.3680122,4.5240797 5.8828125,4.7452155 6.4609375,4.8279078 4.567596,5.7332598 2.6722523,6.6334814 0.76953126,7.5310328 L 0,7.894314 0.69140626,8.3904078 C 0.82555664,8.4866168 0.97061493,8.5637606 1.125,8.6228297 l 0.00391,0.00195 0.00391,0.00195 c 1.213889,0.4430001 2.4982305,0.817053 3.8496099,0.8828187 h 0.00195 c 0.6341148,0.029071 1.2660837,-0.1455247 1.875,-0.3769531 3.2522121,3.3096477 6.4978051,6.6246797 9.7753911,9.9140627 l 0.355468,0.357422 0.355469,-0.359375 c 3.257428,-3.299643 6.496786,-6.614322 9.753907,-9.9101566 0.524471,0.1987696 1.062855,0.3661078 1.613281,0.375 h 0.0078 0.0098 c 1.566947,-0.031827 3.054604,-0.4812438 4.447265,-1.0078125 L 34.113281,8.1482203 33.267578,7.6111109 C 32.63759,7.2111183 31.983349,6.9807153 31.419922,6.6990016 l -0.0039,-0.00195 -0.0039,-0.00195 c -1.304624,-0.628395 -2.602214,-1.244626 -3.902344,-1.8632813 0.644868,-0.096028 1.216266,-0.353947 1.689453,-0.6054687 l 0.0059,-0.00195 0.0059,-0.00391 c 1.259375,-0.7132655 2.407335,-1.6286821 3.378906,-2.703125 l 0.804687,-0.88867188 -1.199218,0.0546875 C 29.211946,0.82039631 26.190487,0.04266785 23.037203,0.00174159 Z" />
  <path fill="url(#rarity)" d="m 22.415422,0.50336464 c 3.285,-0.067 6.515,0.82999996 9.803,0.67899996 -0.935,1.0340001 -2.04,1.9160001 -3.253,2.6030001 -0.523,0.278 -1.071,0.567 -1.674,0.612 -0.694,0 -1.383,-0.095 -2.077,-0.108 1.978,0.982 3.99,1.898 5.981,2.857 0.6,0.3 1.238,0.527 1.805,0.887 -1.37,0.518 -2.803,0.946 -4.28,0.976 -0.619,-0.01 -1.234,-0.14 -1.791,-0.414 -3.321,3.3590003 -6.622,6.7380003 -9.94,10.0990003 -3.334,-3.346 -6.637,-6.721 -9.9480001,-10.0900003 -0.628,0.316 -1.336,0.438 -2.034,0.406 -1.274,-0.062 -2.511,-0.419 -3.703,-0.854 -0.115,-0.044 -0.223,-0.102 -0.32200002,-0.173 2.59900002,-1.226 5.21000002,-2.433 7.78900002,-3.699 -0.7,0.01 -1.395,0.115 -2.095,0.108 -0.538,-0.031 -1.028,-0.285 -1.498,-0.526 -1.256,-0.677 -2.362,-1.6 -3.361,-2.6120001 2.577,0.094 5.126,-0.39099996 7.694,-0.51199996 1.1760001,-0.046 2.4100001,-0.122 3.5260001,0.31699996 0.591,0.213 0.997,0.8510001 0.817,1.4780001 -0.386,1.835 -1.284,3.513 -2.176,5.144 1.76,1.924 3.543,3.8270003 5.311,5.7450003 1.784,-1.911 3.562,-3.8310003 5.336,-5.7520003 -0.896,-1.31 -1.743,-2.668 -2.358,-4.135 -0.193,-0.496 -0.392,-1.008 -0.407,-1.546 -0.017,-0.436 0.279,-0.8290001 0.646,-1.03400006 0.673184,-0.33504737 0.908357,-0.35027839 2.209,-0.456 z"/>
</svg>
