<?xml version="1.0" encoding="UTF-8" standalone="no"?>
<svg
   version="1.1"
   width="27.059597"
   height="27.103226"
   viewBox="0 0 27.059597 27.103226"
   id="svg4"
   xmlns="http://www.w3.org/2000/svg"
   xmlns:svg="http://www.w3.org/2000/svg">
  <defs>
    <!-- This is the gradient that will actually be used on
     the cards. The colors themselves will be provided by the
     template, but the x values, y values, and offsets will be
     used from the SVG. -->
    <linearGradient id="rarity" x1="0" y1="0" x2="1" y2="0">
      <stop offset="0" style="stop-color:rgb(192,55,38);stop-opacity:1" id="stop2" />
      <stop offset="0.125" style="stop-color:rgb(192,55,38);stop-opacity:1" id="stop4" />
      <stop offset="0.5" style="stop-color:rgb(241,142,30);stop-opacity:1" id="stop6" />
      <stop offset="0.875" style="stop-color:rgb(192,55,38);stop-opacity:1" id="stop8" />
      <stop offset="1" style="stop-color:rgb(192,55,38);stop-opacity:1" id="stop10" />
    </linearGradient>
    <!-- These gradients are here so that you can visualize
     what the set symbol would like like in that rarity. The
     only gradient that matters in the end is the "rarity"
     gradient. -->
    <linearGradient id="mythic" x1="0" y1="1" x2="1" y2="0">
      <stop offset="0" style="stop-color:rgb(192,55,38);stop-opacity:1"/>
      <stop offset="0.125" style="stop-color:rgb(192,55,38);stop-opacity:1"/>
      <stop offset="0.5" style="stop-color:rgb(241,142,30);stop-opacity:1"/>
      <stop offset="0.875" style="stop-color:rgb(192,55,38);stop-opacity:1"/>
      <stop offset="1" style="stop-color:rgb(192,55,38);stop-opacity:1"/>
    </linearGradient>
    <linearGradient id="rare" x1="0" y1="1" x2="1" y2="0">
      <stop offset="0" style="stop-color:rgb(146,116,67);stop-opacity:1"/>
      <stop offset="0.125" style="stop-color:rgb(146,116,67);stop-opacity:1"/>
      <stop offset="0.5" style="stop-color:rgb(211,178,108);stop-opacity:1"/>
      <stop offset="0.875" style="stop-color:rgb(146,116,67);stop-opacity:1"/>
      <stop offset="1" style="stop-color:rgb(146,116,67);stop-opacity:1"/>
    </linearGradient>
    <linearGradient id="special" x1="0" y1="1" x2="1" y2="0">
      <stop offset="0" style="stop-color:rgb(76, 56, 106);stop-opacity:1"/>
      <stop offset="0.125" style="stop-color:rgb(76, 56, 106);stop-opacity:1"/>
      <stop offset="0.5" style="stop-color:rgb(201, 173, 221);stop-opacity:1"/>
      <stop offset="0.875" style="stop-color:rgb(76, 56, 106);stop-opacity:1"/>
      <stop offset="1" style="stop-color:rgb(76, 56, 106);stop-opacity:1"/>
    </linearGradient>
    <linearGradient id="uncommon" x1="0" y1="1" x2="1" y2="0">
      <stop offset="0" style="stop-color:rgb(98,110,119);stop-opacity:1"/>
      <stop offset="0.125" style="stop-color:rgb(98,110,119);stop-opacity:1"/>
      <stop offset="0.5" style="stop-color:rgb(196,222,238);stop-opacity:1"/>
      <stop offset="0.875" style="stop-color:rgb(98,110,119);stop-opacity:1"/>
      <stop offset="1" style="stop-color:rgb(98,110,119);stop-opacity:1"/>
    </linearGradient>
    <linearGradient id="common" x1="0" y1="1" x2="1" y2="0">
      <stop offset="0" style="stop-color:rgb(0,0,0);stop-opacity:1"/>
    </linearGradient>
    <linearGradient
            id="rarity-outline" x1="0" y1="1" x2="0" y2="1">
      <stop offset="0" style="stop-color:rgb(0,0,0);stop-opacity:1"/>
    </linearGradient>
  </defs>
  <path fill="url(#rarity-outline)" d="m 8.7489094,5.3e-5 c -0.4832291,4.832e-5 -0.8749517,0.39177086 -0.875,0.875 0,1.2104809 9.993e-4,2.4218248 0,3.6308594 2.943e-4,0.2343484 0.094572,0.4587867 0.2617187,0.6230468 0.5438366,0.5344455 1.0864328,1.0664386 1.6289063,1.5976563 0.015322,2.3840168 -0.046032,4.7541855 -0.4882813,7.0332035 -2.529e-4,0.0013 -0.0017,0.0026 -0.00195,0.0039 -0.2397595,1.137582 -0.5463419,2.210878 -1.1230469,3.042969 -0.00197,0.0026 -0.00392,0.0052 -0.00586,0.0078 -0.1852547,0.273955 -0.4733804,0.51943 -0.8300781,0.730469 C 6.6913598,17.903434 6.2086407,18.08835 5.5083705,18.08835 4.2329223,18.0458 3.5421989,18.00282 2.26649,17.960973 c -0.2412938,-0.0082 -0.4752419,0.08371 -0.6464844,0.253906 -0.62179595,0.618471 -1.2258542,1.395629 -1.49023436,2.388672 -0.52671382,1.906851 0.63087168,3.663129 2.01367186,4.607422 0.1208631,0.08269 0.2605462,0.13373 0.40625,0.148437 5.2412209,0.519319 10.4830349,1.008759 15.7207029,1.519531 0.002,6.58e-4 0.0039,0.0013 0.0059,0.002 1.301483,0.118317 2.700942,0.325031 4.181639,0.16211 0.0026,-6.39e-4 0.0052,-0.0013 0.0078,-0.002 1.040279,-0.121805 2.217767,-0.416337 3.136718,-1.277344 l 0.002,-0.002 c 0.974223,-0.903527 1.374745,-2.167852 1.439454,-3.345703 0.102266,-1.543526 -0.312382,-2.976103 -0.75,-4.269532 -6.48e-4,-0.0013 -0.0013,-0.0026 -0.002,-0.0039 -0.408501,-1.184136 -0.773653,-2.384383 -1.091796,-3.595703 v -0.0039 c -0.393203,-1.52841 -0.752161,-3.031343 -0.869141,-4.523438 -0.04573,-1.037574 0.03136,-2.0828724 0.236329,-3.0957029 0.02235,-0.069883 0.02712,-0.078668 0.03516,-0.09375 0.587243,-0.5555416 1.174506,-1.111515 1.761719,-1.6679687 0.174382,-0.1651066 0.27325,-0.3946213 0.273437,-0.6347656 0,-1.21752 0.001,-2.4343868 0,-3.6523438 C 26.637567,0.39177086 26.245845,4.832e-5 25.762615,0 H 8.7508625 Z m 13.3652346,26.3125 c 0.0044,-5.79e-4 0.0092,5.9e-4 0.01367,0 l -0.02344,0.0039 c 0.0035,-3.67e-4 0.0063,-0.0035 0.0098,-0.0039 z" />
  <path fill="url(#rarity)" d="m 8.7511444,0.875803 c 0.796,-0.001 1.5899996,-0.001 2.3860006,0 10e-4,0.702 0,1.403 0,2.106 0.797,0 1.594,0 2.39,0 0.002,-0.703 0,-1.404 10e-4,-2.106 0.837,-0.001 1.672,-0.001 2.508,0 10e-4,0.702 0,1.404 10e-4,2.106 0.808,-0.001 1.615,10e-4 2.423,-0.001 10e-4,-0.702 0,-1.403 10e-4,-2.105 0.832,-0.001 1.664,-0.001 2.497,0 0,0.702 -10e-4,1.403 0,2.106 0.782,0 1.564,0 2.346,0 0,-0.703 -10e-4,-1.404 0,-2.106 0.819,-0.001 1.639,0 2.458,0 0.001,1.217 0,2.433 0,3.651 -0.63,0.597 -1.261,1.193 -1.892,1.79 -0.11,0.094 -0.113,0.249 -0.151,0.379 -0.229,1.107 -0.315,2.246 -0.264,3.376 0.123,1.592 0.501,3.151 0.898,4.694 0.324,1.234 0.695,2.456 1.111,3.662 0.428,1.265 0.797,2.587 0.706,3.937 -0.055,1.012 -0.404,2.055 -1.162,2.757 -0.712,0.669 -1.697,0.94 -2.645,1.051 -1.336,0.147 -2.676,-0.043 -4.007,-0.164 -5.24,-0.511 -10.4820006,-1.001 -15.7200006,-1.52 -1.151,-0.786 -2.06199996,-2.227 -1.66299996,-3.659 0.20599996,-0.776 0.70299996,-1.436 1.26399996,-1.994 5.761,0.189 11.5210006,0.382 17.2820006,0.572 0.842,0.026 1.692,0.102 2.497,0.365 -1.037,0.096 -2.079,0.424 -2.916,1.058 -0.513,0.394 -0.896,1 -0.889,1.663 0.007,0.907 0.52,1.753 1.21,2.316 0.717,0.584 1.692,0.756 2.591,0.636 0.663,-0.07 1.31,-0.344 1.788,-0.814 0.754,-0.737 1.1,-1.825 1.049,-2.865 -0.033,-0.772 -0.401,-1.524 -0.998,-2.016 -0.668,-0.555 -1.522,-0.814 -2.362,-0.975 -0.836,-0.156 -1.686,-0.21 -2.534,-0.247 10e-4,-2.051 -0.001,-4.104 10e-4,-6.155 -0.724,-0.767 -1.455,-1.528 -2.18,-2.295 -0.727,0.762 -1.453,1.526 -2.178,2.289 0,2.02 10e-4,4.041 0,6.061 -2.279,-0.048 -4.558001,-0.095 -6.8370006,-0.131 0.431,-0.255 0.828,-0.576 1.11,-0.993 0.691,-0.997 1.015,-2.192 1.2619996,-3.365 0.484,-2.486 0.556,-5.032 0.53,-7.559 -0.638,-0.626 -1.2779996,-1.249 -1.9149996,-1.875 0.001,-1.21 0,-2.42 0,-3.63 z m 12.5600006,19.861 c 0.452,0.229 1.009,0.341 1.312,0.787 0.308,0.433 0.441,1.108 0.047,1.531 -0.358,0.37 -0.913,0.243 -1.369,0.232 -0.538,0.102 -1.051,0.313 -1.529,0.579 0.619,0.659 1.582,1 2.473,0.804 1.283,-0.302 2.132,-1.803 1.714,-3.056 -0.354,-1.024 -1.754,-1.491 -2.649,-0.877 z m -2.071,1.205 c -0.161,0.401 -0.078,0.848 0.038,1.251 0.798,-0.535 1.707,-0.901 2.657,-1.051 -0.437,-0.471 -1.047,-0.862 -1.715,-0.81 -0.392,0.038 -0.827,0.221 -0.981,0.61 z"/>
</svg>
