<?xml version="1.0" encoding="UTF-8" standalone="no"?>
<!-- Generated by IcoMoon.io -->

<svg
   version="1.1"
   width="31.903999"
   height="15.744121"
   viewBox="0 0 31.903999 15.744121"
   id="svg6"
   sodipodi:docname="van.svg"
   inkscape:version="1.1.1 (3bf5ae0d25, 2021-09-20)"
   xmlns:inkscape="http://www.inkscape.org/namespaces/inkscape"
   xmlns:sodipodi="http://sodipodi.sourceforge.net/DTD/sodipodi-0.dtd"
   xmlns="http://www.w3.org/2000/svg"
   xmlns:svg="http://www.w3.org/2000/svg">
  <defs
     id="defs10" />
  <sodipodi:namedview
     id="namedview8"
     pagecolor="#ffffff"
     bordercolor="#666666"
     borderopacity="1.0"
     inkscape:pageshadow="2"
     inkscape:pageopacity="0.0"
     inkscape:pagecheckerboard="0"
     showgrid="false"
     inkscape:zoom="26.5625"
     inkscape:cx="15.943529"
     inkscape:cy="7.8494118"
     inkscape:window-width="1920"
     inkscape:window-height="1009"
     inkscape:window-x="-8"
     inkscape:window-y="-8"
     inkscape:window-maximized="1"
     inkscape:current-layer="svg6" />
  <title
     id="title2">van</title>
  <path
     fill="#000000"
     d="m 27.927,0.77912099 c 0.434,0.105 0.775,0.27600001 1.037,0.46200001 1.86,-0.41100001 2.94,-0.42000001 2.94,-0.42000001 C 23.188,-1.210879 16.333,0.73712099 10.493,4.375121 4.655,8.014121 0,14.276121 0,14.276121 l 0.254,1.468 2.539,-3.498 c 2.063,-0.836 5.539,0.362 6.402,0.684 -0.533,-0.673 -1.465,-1.592 -2.805,-1.997 0,0 1.583,-0.404 3.478,1.602 0.778,-0.765 1.548,-1.481 2.31,-2.15 -0.36,-0.639 -0.995,-1.445 -2.022,-1.779 0,0 1.265,-0.175 2.577,1.298 3.128,-2.672 6.085,-4.556 8.698,-5.887 -0.336,-0.362 -0.848,-0.866 -1.629,-1.547 0,0 1.02,0.452 2.225,1.25 1.441,-0.702 2.768,-1.235 3.951,-1.637 -0.195,-0.354 -0.498,-0.78 -0.972,-1.21900001 0,0 0.844,0.21300001 1.677,0.98800001 0.65,-0.205 1.249,-0.368 1.793,-0.499 -0.295,-0.38200001 -0.55,-0.57500001 -0.55,-0.57500001 z"
     id="path4" />
</svg>
