<?xml version="1.0" encoding="UTF-8" standalone="no"?>
<!-- Generated by IcoMoon.io -->

<svg
   version="1.1"
   width="25.742001"
   height="29.583"
   viewBox="0 0 25.742001 29.583"
   id="svg6"
   sodipodi:docname="vis.svg"
   inkscape:version="1.1.1 (3bf5ae0d25, 2021-09-20)"
   xmlns:inkscape="http://www.inkscape.org/namespaces/inkscape"
   xmlns:sodipodi="http://sodipodi.sourceforge.net/DTD/sodipodi-0.dtd"
   xmlns="http://www.w3.org/2000/svg"
   xmlns:svg="http://www.w3.org/2000/svg">
  <defs
     id="defs10" />
  <sodipodi:namedview
     id="namedview8"
     pagecolor="#ffffff"
     bordercolor="#666666"
     borderopacity="1.0"
     inkscape:pageshadow="2"
     inkscape:pageopacity="0.0"
     inkscape:pagecheckerboard="0"
     showgrid="false"
     inkscape:zoom="26.5625"
     inkscape:cx="12.894118"
     inkscape:cy="14.776471"
     inkscape:window-width="1920"
     inkscape:window-height="1009"
     inkscape:window-x="-8"
     inkscape:window-y="-8"
     inkscape:window-maximized="1"
     inkscape:current-layer="svg6" />
  <title
     id="title2">vis</title>
  <path
     fill="#000000"
     d="M 25.742,0 13.244,25.479 c 0.99,0.179 1.672,1.044 1.697,2.034 0,1.143 -0.927,2.07 -2.07,2.07 -1.143,0 -2.07,-0.927 -2.07,-2.07 0.002,-1.005 0.726,-1.836 1.697,-2.034 L 0,0 H 25.74 Z M 9.036,1.927 H 3.77 v 0.994 c 0.456,0.005 0.738,0.077 0.905,0.211 0.099,0.08 0.218,0.301 0.26,0.419 L 12.863,19.98 20.969,3.313 Q 21.243,2.875 21.973,2.921 V 1.927 h -5.065 v 0.994 q 1.196,0 0.867,0 0.493,0.045 0.31,0.465 0,0.283 -5.14,12.523 L 7.709,3.38 C 7.69,3.08 7.951,2.867 9.035,2.921 V 1.927 Z"
     id="path4" />
</svg>
