<?xml version="1.0" encoding="UTF-8" standalone="no"?>
<!-- Generated by IcoMoon.io -->

<svg
   version="1.1"
   width="31.351"
   height="23.059"
   viewBox="0 0 31.351 23.059"
   id="svg6"
   sodipodi:docname="vma.svg"
   inkscape:version="1.1.1 (3bf5ae0d25, 2021-09-20)"
   xmlns:inkscape="http://www.inkscape.org/namespaces/inkscape"
   xmlns:sodipodi="http://sodipodi.sourceforge.net/DTD/sodipodi-0.dtd"
   xmlns="http://www.w3.org/2000/svg"
   xmlns:svg="http://www.w3.org/2000/svg">
  <defs
     id="defs10" />
  <sodipodi:namedview
     id="namedview8"
     pagecolor="#ffffff"
     bordercolor="#666666"
     borderopacity="1.0"
     inkscape:pageshadow="2"
     inkscape:pageopacity="0.0"
     inkscape:pagecheckerboard="0"
     showgrid="false"
     inkscape:zoom="26.5625"
     inkscape:cx="15.642353"
     inkscape:cy="11.501176"
     inkscape:window-width="1920"
     inkscape:window-height="1009"
     inkscape:window-x="-8"
     inkscape:window-y="-8"
     inkscape:window-maximized="1"
     inkscape:current-layer="svg6" />
  <title
     id="title2">vma</title>
  <path
     fill="#000000"
     d="M 31.35,8.793 29.039,9.834 H 27.24 l -5.587,8.81 -3.402,3.201 0.92,-8.141 5.181,-8.636 2.756,1.963 4.243,1.762 z m -17.419,3.716 0.679,1.133 0.091,0.808 0.973,8.609 1.064,-9.417 L 21.445,5.796 24.351,5.069 20.985,2.671 19.558,0 15.674,6.535 11.79,0 10.363,2.671 6.996,5.069 9.902,5.796 13.93,12.51 Z M 6.998,5.069 4.242,7.032 0,8.794 2.311,9.836 H 4.11 l 5.587,8.81 3.402,3.201 -0.92,-8.141 L 6.998,5.07 Z"
     id="path4" />
</svg>
