<?xml version="1.0" encoding="UTF-8" standalone="no"?>
<!-- Generated by IcoMoon.io -->

<svg
   version="1.1"
   width="32"
   height="23.187"
   viewBox="0 0 32 23.187"
   id="svg6"
   sodipodi:docname="vow.svg"
   inkscape:version="1.1.1 (3bf5ae0d25, 2021-09-20)"
   xmlns:inkscape="http://www.inkscape.org/namespaces/inkscape"
   xmlns:sodipodi="http://sodipodi.sourceforge.net/DTD/sodipodi-0.dtd"
   xmlns="http://www.w3.org/2000/svg"
   xmlns:svg="http://www.w3.org/2000/svg">
  <defs
     id="defs10" />
  <sodipodi:namedview
     id="namedview8"
     pagecolor="#ffffff"
     bordercolor="#666666"
     borderopacity="1.0"
     inkscape:pageshadow="2"
     inkscape:pageopacity="0.0"
     inkscape:pagecheckerboard="0"
     showgrid="false"
     inkscape:zoom="26.5625"
     inkscape:cx="15.642353"
     inkscape:cy="11.087059"
     inkscape:window-width="1920"
     inkscape:window-height="1009"
     inkscape:window-x="-8"
     inkscape:window-y="-8"
     inkscape:window-maximized="1"
     inkscape:current-layer="svg6" />
  <title
     id="title2">xin3</title>
  <path
     fill="#000000"
     d="m 25.152,0 c 3.091,2.149 3.774,5.623 4.018,6.555 0.163,0.622 0.609,1.152 1.34,1.59 L 32,8.93 c 0,0 -0.898,0.635 -2.693,1.905 -0.495,0.267 -0.667,0.655 -0.514,1.162 0.172,0.559 0.122,1.431 -0.15,2.617 -0.272,1.186 -1.093,2.254 -2.46,3.205 0,0 0.413,-1.814 0.096,-3.495 -0.211,-1.121 -0.936,-1.467 -2.175,-1.04 l -4.755,1.942 c -0.463,0.817 -0.821,1.444 -1.073,1.881 -0.252,0.437 -0.252,0.795 0,1.073 l 0.944,1.123 2.033,0.224 c 0.838,0 1.313,0.352 1.425,1.056 -2.544,-0.279 -4.763,0.589 -6.657,2.604 h -0.042 c -1.894,-2.015 -4.112,-2.882 -6.657,-2.604 0.112,-0.704 0.587,-1.056 1.425,-1.056 l 2.033,-0.224 0.944,-1.123 c 0.252,-0.278 0.252,-0.636 0,-1.073 -0.252,-0.437 -0.61,-1.064 -1.073,-1.881 L 7.896,13.284 C 6.657,12.856 5.932,13.203 5.721,14.324 5.404,16.005 5.817,17.819 5.817,17.819 4.45,16.868 3.63,15.799 3.357,14.614 3.084,13.429 3.034,12.556 3.207,11.997 3.359,11.489 3.188,11.102 2.693,10.835 0.898,9.565 0,8.93 0,8.93 L 1.49,8.145 C 2.221,7.707 2.668,7.177 2.83,6.555 3.074,5.623 3.758,2.149 6.848,0 5.916,2.607 6.234,4.843 7.802,6.707 8.014,6.081 8.334,5.633 8.762,5.363 9.24,6.904 10.208,7.823 11.667,8.12 L 12.575,7.08 12.027,3.789 13.89,1.306 c -0.471,1.722 -0.372,3.142 0.296,4.259 0.463,-0.374 1.067,-0.558 1.813,-0.551 0.746,-0.007 1.351,0.177 1.814,0.551 0.669,-1.117 0.768,-2.537 0.297,-4.259 l 1.863,2.483 -0.548,3.291 0.908,1.04 c 1.459,-0.297 2.428,-1.216 2.905,-2.757 0.428,0.271 0.748,0.719 0.96,1.344 C 25.766,4.843 26.084,2.607 25.152,0 Z M 14.026,8.913 c -0.627,0.03 -0.663,1.183 -0.383,1.953 0.28,0.77 0.61,1.647 1.695,3.298 C 15.317,14.033 14.376,11.408 15.01,10.098 14.772,9.288 14.444,8.893 14.026,8.913 Z m 3.95,0 c -0.418,-0.02 -0.746,0.375 -0.984,1.185 0.634,1.309 -0.307,3.935 -0.328,4.066 1.085,-1.651 1.415,-2.528 1.695,-3.298 0.28,-0.77 0.243,-1.922 -0.383,-1.953 z"
     id="path4" />
</svg>
