<?xml version="1.0" encoding="UTF-8" standalone="no"?>
<svg
   version="1.1"
   width="33.920433"
   height="23.750454"
   viewBox="0 0 33.920433 23.750454"
   id="svg4"
   xmlns="http://www.w3.org/2000/svg"
   xmlns:svg="http://www.w3.org/2000/svg">
  <defs>
    <!-- This is the gradient that will actually be used on
     the cards. The colors themselves will be provided by the
     template, but the x values, y values, and offsets will be
     used from the SVG. -->
    <linearGradient id="rarity" x1="0" y1="1" x2="1" y2="0">
      <stop offset="0" style="stop-color:rgb(192,55,38);stop-opacity:1" id="stop2" />
      <stop offset="0.125" style="stop-color:rgb(192,55,38);stop-opacity:1" id="stop4" />
      <stop offset="0.5" style="stop-color:rgb(241,142,30);stop-opacity:1" id="stop6" />
      <stop offset="0.875" style="stop-color:rgb(192,55,38);stop-opacity:1" id="stop8" />
      <stop offset="1" style="stop-color:rgb(192,55,38);stop-opacity:1" id="stop10" />
    </linearGradient>
    <!-- These gradients are here so that you can visualize
     what the set symbol would like like in that rarity. The
     only gradient that matters in the end is the "rarity"
     gradient. -->
    <linearGradient id="mythic" x1="0" y1="1" x2="1" y2="0">
      <stop offset="0" style="stop-color:rgb(192,55,38);stop-opacity:1"/>
      <stop offset="0.125" style="stop-color:rgb(192,55,38);stop-opacity:1"/>
      <stop offset="0.5" style="stop-color:rgb(241,142,30);stop-opacity:1"/>
      <stop offset="0.875" style="stop-color:rgb(192,55,38);stop-opacity:1"/>
      <stop offset="1" style="stop-color:rgb(192,55,38);stop-opacity:1"/>
    </linearGradient>
    <linearGradient id="rare" x1="0" y1="1" x2="1" y2="0">
      <stop offset="0" style="stop-color:rgb(146,116,67);stop-opacity:1"/>
      <stop offset="0.125" style="stop-color:rgb(146,116,67);stop-opacity:1"/>
      <stop offset="0.5" style="stop-color:rgb(211,178,108);stop-opacity:1"/>
      <stop offset="0.875" style="stop-color:rgb(146,116,67);stop-opacity:1"/>
      <stop offset="1" style="stop-color:rgb(146,116,67);stop-opacity:1"/>
    </linearGradient>
    <linearGradient id="special" x1="0" y1="1" x2="1" y2="0">
      <stop offset="0" style="stop-color:rgb(76, 56, 106);stop-opacity:1"/>
      <stop offset="0.125" style="stop-color:rgb(76, 56, 106);stop-opacity:1"/>
      <stop offset="0.5" style="stop-color:rgb(201, 173, 221);stop-opacity:1"/>
      <stop offset="0.875" style="stop-color:rgb(76, 56, 106);stop-opacity:1"/>
      <stop offset="1" style="stop-color:rgb(76, 56, 106);stop-opacity:1"/>
    </linearGradient>
    <linearGradient id="uncommon" x1="0" y1="1" x2="1" y2="0">
      <stop offset="0" style="stop-color:rgb(98,110,119);stop-opacity:1"/>
      <stop offset="0.125" style="stop-color:rgb(98,110,119);stop-opacity:1"/>
      <stop offset="0.5" style="stop-color:rgb(196,222,238);stop-opacity:1"/>
      <stop offset="0.875" style="stop-color:rgb(98,110,119);stop-opacity:1"/>
      <stop offset="1" style="stop-color:rgb(98,110,119);stop-opacity:1"/>
    </linearGradient>
    <linearGradient id="common" x1="0" y1="1" x2="1" y2="0">
      <stop offset="0" style="stop-color:rgb(0,0,0);stop-opacity:1"/>
    </linearGradient>
    <linearGradient
            id="rarity-outline" x1="0" y1="1" x2="0" y2="1">
      <stop offset="0" style="stop-color:rgb(0,0,0);stop-opacity:1"/>
    </linearGradient>
  </defs>
  <path fill="url(#rarity-outline)" d="M 9.5761719 0 L 8.6113281 4.1816406 L 7.6777344 3.3769531 L 7.203125 5.3886719 L 6.5839844 5.6054688 L 6.5214844 5.8007812 L 5.921875 6.015625 L 5.8710938 6.1914062 L 5.2070312 6.4589844 L 5.0761719 7.0117188 L 4.0175781 7.0117188 L 0 22.423828 L 13.613281 22.423828 C 13.684911 22.61195 13.610581 22.666755 13.78125 22.849609 C 14.27427 23.377888 15.157561 23.75 16.617188 23.75 C 18.063731 23.75 18.953171 23.422616 19.492188 22.982422 C 19.665176 22.84115 19.739405 22.698508 19.837891 22.554688 L 33.919922 22.554688 L 33.667969 21.611328 C 32.435012 16.992961 31.185612 12.371024 29.960938 7.7597656 L 29.814453 7.2050781 L 29.242188 7.203125 L 28.244141 7.1953125 L 28.064453 7.1171875 L 28.005859 6.9101562 L 27.160156 6.5117188 L 26.714844 5.1035156 L 25.910156 5.5527344 C 25.910156 5.5527344 25.401284 5.8384373 24.634766 6.0742188 C 24.513296 6.1115828 24.099561 6.0636047 23.470703 5.9023438 C 22.841845 5.7410825 22.020294 5.5214844 21.035156 5.5214844 C 19.43184 5.5214844 18.187434 5.8612126 17.699219 5.9804688 C 17.540972 5.6351565 17.397814 5.2587712 17.189453 5 C 16.863157 4.59476 16.434417 4.3006206 15.966797 4.1621094 C 15.062191 3.8941611 14.143258 4.1040672 12.964844 4.3535156 C 12.472335 4.3755053 11.830844 3.9000821 11.324219 3.2617188 C 10.815783 2.6210741 10.5 1.9570313 10.5 1.9570312 L 9.5761719 0 z " />
  <path fill="url(#rarity)" d="m 29.236892,7.9522534 -1.154015,-0.007 -0.64301,-0.285004 -0.062,-0.216003 -0.835011,-0.393005 -0.266003,-0.844011 c 0,0 -0.580008,0.324004 -1.422019,0.583007 -0.84201,0.259004 -2.072027,-0.518006 -3.82005,-0.518006 -1.746023,0 -3.75305,0.518006 -3.75305,0.518006 -0.840012,-2.33103 -1.811024,-2.201029 -4.272057,-1.683022 -2.190056,0.461722 -2.994502,-2.213249 -3.1434638,-2.800013 -0.00936,-0.02346 -0.024108,-0.03347 -0.045443,-0.03032 l -0.7581446,3.283342 -0.9380125,-0.808011 -0.2850038,1.208017 -0.6530086,0.228002 -0.060001,0.192003 -0.5880079,0.211003 -0.045001,0.160002 -0.6470086,0.259003 -0.1780024,0.75101 H 4.5965654 L 0.97051727,21.674435 H 14.04469 c 0,0 -0.098,1.326019 2.573034,1.326019 2.669036,0 2.799038,-1.196017 2.799038,-1.196017 H 32.943941 L 29.233892,7.9532534 Z"/>
  <path fill="#000000" d="M 9.9042969,1.6875 9.5683594,3.2578125 C 9.4163411,3.9684963 9.2650514,4.6797306 9.1132812,5.390625 L 8.1210938,4.5683594 7.9824219,5.1601562 c 0,0 -0.1083306,0.463751 -0.1171875,0.5019532 L 7.234375,5.8925781 7.3847656,5.9980469 6.828125,6.1992188 6.5253906,5.8964844 6.3632812,6.5566406 5.8125,6.7519531 2.2050781,20.763672 H 14.113281 c -0.0082,0.208003 -0.08898,0.30299 0.08789,0.595703 0.319587,0.528902 1.069478,0.957031 2.53125,0.957031 1.454504,0 2.200838,-0.381364 2.544922,-0.871094 0.18483,-0.263065 0.108224,-0.35102 0.111328,-0.550781 H 31.714844 L 28.333984,7.7792969 27.521484,7.4316406 27.476562,7.2617188 27.316406,7.1875 C 27.134152,7.1023159 26.948167,7.0152264 26.767578,6.9296875 l -0.24414,-0.1152344 -0.208985,-0.75 -0.394531,0.1679688 c -0.307439,0.1313425 -0.675616,0.275413 -1.03125,0.3847656 -0.39281,0.1208075 -0.918094,0.00693 -1.603516,-0.1699219 h -0.002 C 22.670236,6.2915161 21.934756,6.0996094 21.066406,6.0996094 c -0.874409,0 -1.800468,0.1296469 -2.515625,0.2578125 -0.357578,0.064083 -0.661573,0.1271504 -0.878906,0.1757812 -0.108666,0.024315 -0.19519,0.04595 -0.255859,0.060547 -0.06067,0.014597 -0.137508,0.033856 -0.09375,0.023437 -0.0078,0.0017 -0.0188,0.00248 -0.03906,0.00781 l -0.171875,0.044922 C 16.971044,6.1141297 16.831203,5.5663318 16.546875,5.2675781 16.168749,4.8702676 15.669076,4.7205382 15.1875,4.703125 14.224348,4.6682985 13.218947,5.0352594 12.367188,4.984375 11.525614,4.9349992 11.037393,4.5121996 10.720703,4.0820312 10.404013,3.6518629 10.298828,3.2441406 10.298828,3.2441406 Z m -2.3378907,4.4355469 0.042969,0.03125 -0.042969,0.015625 -0.00977,-0.00977 z m 0.1601563,0.1132812 0.00586,0.00391 v 0.00195 h -0.00781 z" />
  <path fill="#FFFFFF" d="m 19.122499,20.518046 c 0,0 0.39,1.424 -2.391,1.424 -2.784,0 -2.331,-1.554 -2.331,-1.554 H 2.6884992 l 3.437,-13.3499998 0.324,-0.115 -3.381,13.2379998 c 0,0 2.686,-0.571 4.022,-0.767 1.338,-0.199 7.3769998,-1.139 9.9669998,1.189 0,0 1.745,-0.904 5.434,-0.904 3.689,0 6.537,0.645 8.285,0.451 l -3.213,-12.2729998 0.453,0.194 3.214,12.4679998 h -12.105 z M 6.7314992,6.6330462 l 0.36,-0.13 -3.003,12.7099998 c 0,0 3.732,-0.837 6.7769998,-0.799 3.045,0.036 4.681,0.928 4.681,0.928 0,0 -2.526,-0.743 -5.089,-0.631 -2.5629998,0.11 -5.2129998,0.618 -6.9589998,1.026 l 3.232,-13.1049998 z m 0.631,-0.389 0.396,-0.144 -2.834,12.2389998 c 0,0 2.192,-0.247 3.009,-0.371 0.852,-0.13 4.7149998,-0.928 8.1699998,1.225 0,0 -3.307,-1.338 -6.3879998,-1.041 -3.084,0.298 -4.346,0.559 -5.276,0.743 l 2.923,-12.6519998 z m 0.986,-1 0.664,0.551 -2.386,11.3639998 c 0,0 1.322,0.058 3.13,-0.314 1.7719998,-0.364 4.7579998,0.413 6.7719998,2.305 0,0 -3.062,-2.297 -7.3689998,-1.664 -1.669,0.242 -3.753,0.444 -3.753,0.444 0.002,-0.005 2.942,-12.6859998 2.942,-12.6859998 z m 1.587,-1.908 c 0,0 0.4839998,1.909 2.4099998,2.022 1.925,0.115 4.093,-1.47 4.58,1.829 0,0 -0.132,11.6449998 -0.132,11.6479998 0,-0.074 -0.348,-0.3 -0.396,-0.341 -0.362,-0.283 -0.75,-0.54 -1.149,-0.772 -1.182,-0.697 -2.511,-1.311 -3.897,-1.41 -0.808,-0.057 -1.6069998,0.068 -2.3949998,0.223 -1.141,0.22 -1.871,0.165 -1.871,0.165 l 2.849,-13.3639998 z m 7.4439998,3.652 c 0.019,-0.005 0.029,-0.007 0.029,-0.007 0.021,-0.005 1.983,-0.506 3.657,-0.506 0.813,0 1.511,0.18 2.125,0.336 0.686,0.177 1.278,0.328 1.808,0.165 0.374,-0.115 0.753,-0.263 1.069,-0.398 l 3.477,12.4529998 c 0,0 -9.059,-1.554 -12.167,0.775 z m 9.779,0.539 3.227,12.3759998 c 0,0 -1.489,0 -4.952,-0.422 -3.463,-0.419 -7.28,0.262 -7.28,0.262 0,0 3.398,-1.652 11.81,-0.357 l -3.357,-12.1169998 0.552,0.259 z"/>
</svg>
