<?xml version="1.0" encoding="UTF-8" standalone="no"?>
<!-- Generated by IcoMoon.io -->

<svg
   version="1.1"
   width="28"
   height="27.354"
   viewBox="0 0 28 27.354"
   id="svg6"
   sodipodi:docname="x2e.svg"
   inkscape:version="1.1.1 (3bf5ae0d25, 2021-09-20)"
   xmlns:inkscape="http://www.inkscape.org/namespaces/inkscape"
   xmlns:sodipodi="http://sodipodi.sourceforge.net/DTD/sodipodi-0.dtd"
   xmlns="http://www.w3.org/2000/svg"
   xmlns:svg="http://www.w3.org/2000/svg">
  <defs
     id="defs10" />
  <sodipodi:namedview
     id="namedview8"
     pagecolor="#ffffff"
     bordercolor="#666666"
     borderopacity="1.0"
     inkscape:pageshadow="2"
     inkscape:pageopacity="0.0"
     inkscape:pagecheckerboard="0"
     showgrid="false"
     inkscape:zoom="25.75"
     inkscape:cx="14"
     inkscape:cy="13.650485"
     inkscape:window-width="1920"
     inkscape:window-height="1009"
     inkscape:window-x="-8"
     inkscape:window-y="-8"
     inkscape:window-maximized="1"
     inkscape:current-layer="svg6" />
  <title
     id="title2">x2e</title>
  <path
     fill="#000000"
     d="M 28,0 V 27.354 H 0 V 0 Z M 15.891,4.559 C 15.076,4.622 14.3,4.869 13.527,5.113 12.304,5.483 11.263,6.438 9.926,6.395 8.644,6.531 7.464,5.788 6.185,5.941 6.157,6.135 6.131,6.329 6.105,6.523 c 1.01,0.433 2.509,0.118 3.097,1.271 0.495,1.284 0.37,2.699 0.48,4.047 0.181,2.081 0.209,4.17 0.196,6.259 -0.026,0.454 -0.007,0.991 -0.373,1.327 -0.864,0.668 -2.102,0.245 -2.994,0.805 l 0.093,0.291 c 0.816,0.151 1.618,-0.203 2.43,-0.248 1.643,-0.241 3.265,0.22 4.859,0.558 1.523,0.33 3.125,0.345 4.629,-0.084 0.834,-0.222 1.678,-0.603 2.203,-1.314 0.689,-0.915 0.855,-2.122 0.771,-3.235 -0.252,-2.044 -2.042,-3.593 -3.974,-4.053 1.307,-0.687 2.709,-1.734 2.841,-3.33 0.241,-1.9 -1.275,-3.618 -3.03,-4.116 -0.791,-0.179 -0.315,-0.103 -1.441,-0.14 z m -1.43,1.316 c 1.192,0.007 2.215,0.545 2.806,1.59 0.618,1.243 0.213,2.882 -0.896,3.709 -0.629,0.476 -1.432,0.603 -2.143,0.911 1.353,0.831 3.119,0.974 4.209,2.236 0.883,0.915 0.818,2.292 0.599,3.45 -0.213,1.09 -1.027,2.046 -2.113,2.341 -1.269,0.338 -2.705,0.398 -3.911,-0.19 C 12.181,19.5 12.017,18.49 12.006,17.65 11.991,15.063 12.183,12.476 12.008,9.892 12.023,8.671 11.954,7.17 13.01,6.325 13.473,5.997 13.919,5.947 14.462,5.874 Z"
     id="path4" />
</svg>
