<?xml version="1.0" encoding="UTF-8" standalone="no"?>
<!-- Generated by IcoMoon.io -->

<svg
   version="1.1"
   width="26.227003"
   height="12.933"
   viewBox="0 0 26.227003 12.933"
   id="svg6"
   sodipodi:docname="x2ps.svg"
   inkscape:version="1.1.1 (3bf5ae0d25, 2021-09-20)"
   xmlns:inkscape="http://www.inkscape.org/namespaces/inkscape"
   xmlns:sodipodi="http://sodipodi.sourceforge.net/DTD/sodipodi-0.dtd"
   xmlns="http://www.w3.org/2000/svg"
   xmlns:svg="http://www.w3.org/2000/svg">
  <defs
     id="defs10" />
  <sodipodi:namedview
     id="namedview8"
     pagecolor="#ffffff"
     bordercolor="#666666"
     borderopacity="1.0"
     inkscape:pageshadow="2"
     inkscape:pageopacity="0.0"
     inkscape:pagecheckerboard="0"
     showgrid="false"
     inkscape:zoom="25.75"
     inkscape:cx="12.990291"
     inkscape:cy="6.4660194"
     inkscape:window-width="1920"
     inkscape:window-height="1009"
     inkscape:window-x="-8"
     inkscape:window-y="-8"
     inkscape:window-maximized="1"
     inkscape:current-layer="svg6" />
  <title
     id="title2">x2ps</title>
  <path
     fill="#000000"
     d="M 0,12.771 V 12.168 Q 0.384,11.29 1.111,10.257 1.838,9.224 2.88,7.999 3.867,6.838 4.384,6.088 4.901,5.338 5.156,4.671 5.411,4.004 5.412,3.291 5.412,2.285 4.964,1.714 4.516,1.143 3.739,1.143 3.008,1.143 2.528,1.66 2.048,2.177 1.829,3.292 H 0.183 V 1.134 Q 1.298,0.686 1.929,0.508 2.56,0.33 3.177,0.238 3.794,0.146 4.516,0.147 q 1.344,0 2.194,0.361 0.85,0.361 1.23,0.978 0.38,0.617 0.379,1.44 0,0.722 -0.27,1.344 Q 7.779,4.892 7.117,5.687 6.455,6.482 4.882,7.963 4.178,8.649 3.566,9.348 2.954,10.047 2.661,10.44 v 0.091 h 3.245 q 0.594,0 0.887,-0.087 0.293,-0.087 0.462,-0.302 0.169,-0.215 0.279,-0.645 h 1.051 l -0.17,2.64 c 0.168,-0.041 0.328,-0.104 0.484,-0.176 q 0.207,-0.106 0.309,-0.296 0.102,-0.19 0.13,-0.481 0.028,-0.291 0.029,-0.735 V 2.476 Q 9.367,2.041 9.343,1.745 9.319,1.449 9.218,1.264 9.117,1.079 8.909,0.963 8.701,0.847 8.335,0.755 v -0.61 h 5.606 q 2.441,0 3.657,0.837 c 0.371,0.258 0.686,0.597 0.88,1.008 0.058,-0.132 0.14,-0.251 0.221,-0.37 Q 19.264,0.824 20.333,0.412 21.402,0 22.81,0 v 0 q 0.824,0 1.574,0.088 0.75,0.088 1.713,0.31 V 3.083 H 24.829 Q 24.653,2.352 24.38,1.921 24.107,1.49 23.7,1.287 23.293,1.084 22.672,1.083 q -0.528,0 -0.944,0.185 -0.416,0.185 -0.657,0.551 -0.241,0.366 -0.241,0.884 0,0.537 0.208,0.93 0.208,0.393 0.699,0.768 0.491,0.375 1.426,0.856 1.139,0.592 1.791,1.162 0.652,0.57 0.963,1.241 0.311,0.671 0.31,1.56 0,1.139 -0.528,1.977 -0.528,0.838 -1.537,1.287 -1.009,0.449 -2.333,0.449 -0.944,0 -1.967,-0.106 -1.023,-0.106 -1.921,-0.31 V 9.665 h 1.268 q 0.231,1.102 0.773,1.643 0.542,0.541 1.588,0.542 0.546,0 0.981,-0.185 0.435,-0.185 0.699,-0.597 0.264,-0.412 0.264,-1.032 0,-0.574 -0.213,-0.995 Q 23.088,8.62 22.616,8.24 22.144,7.86 21.301,7.435 20.579,7.074 19.996,6.685 19.413,6.296 19.001,5.829 C 18.816,5.617 18.649,5.388 18.521,5.138 18.344,5.547 18.439,5.362 18.246,5.697 q -0.569,0.906 -1.65,1.373 -1.081,0.467 -2.702,0.467 -0.936,0 -1.534,-0.037 v 2.96 q 0,0.61 0.048,0.865 0.048,0.255 0.159,0.407 0.111,0.152 0.318,0.254 0.207,0.102 0.642,0.176 v 0.61 H 0.001 Z M 13.4,1.228 q -0.675,0 -1.042,0.018 v 5.207 h 0.83 q 0.965,0 1.534,-0.264 0.569,-0.264 0.844,-0.837 0.275,-0.573 0.275,-1.545 0,-0.962 -0.275,-1.531 Q 15.291,1.707 14.76,1.467 14.229,1.227 13.399,1.227 Z"
     id="path4" />
</svg>
