<?xml version="1.0" encoding="UTF-8" standalone="no"?>
<!-- Generated by IcoMoon.io -->

<svg
   version="1.1"
   width="28"
   height="27.785"
   viewBox="0 0 28 27.785"
   id="svg6"
   sodipodi:docname="x2u.svg"
   inkscape:version="1.1.1 (3bf5ae0d25, 2021-09-20)"
   xmlns:inkscape="http://www.inkscape.org/namespaces/inkscape"
   xmlns:sodipodi="http://sodipodi.sourceforge.net/DTD/sodipodi-0.dtd"
   xmlns="http://www.w3.org/2000/svg"
   xmlns:svg="http://www.w3.org/2000/svg">
  <defs
     id="defs10" />
  <sodipodi:namedview
     id="namedview8"
     pagecolor="#ffffff"
     bordercolor="#666666"
     borderopacity="1.0"
     inkscape:pageshadow="2"
     inkscape:pageopacity="0.0"
     inkscape:pagecheckerboard="0"
     showgrid="false"
     inkscape:zoom="25.75"
     inkscape:cx="14"
     inkscape:cy="13.883495"
     inkscape:window-width="1920"
     inkscape:window-height="1009"
     inkscape:window-x="-8"
     inkscape:window-y="-8"
     inkscape:window-maximized="1"
     inkscape:current-layer="svg6" />
  <title
     id="title2">x2u</title>
  <path
     fill="#000000"
     d="M 0,0 H 28 V 27.785 H 0 Z m 17.877,5.055 c -0.23,0.095 -0.629,0.099 -0.618,0.431 0.392,0.622 1.142,1.053 1.232,1.835 0.241,1.568 0.211,3.162 0.243,4.743 0,1.695 0.047,3.397 -0.099,5.087 -0.041,0.61 -0.254,1.215 -0.702,1.643 -0.963,0.976 -2.402,1.284 -3.728,1.307 -1.193,0.032 -2.449,-0.439 -3.143,-1.45 C 10.132,17.292 9.994,15.582 9.931,13.986 9.886,11.33 9.935,8.672 10.004,6.017 9.963,5.672 10.107,5.121 9.657,5.005 8.735,4.856 7.835,5.231 6.919,5.3 6.538,5.393 6.062,5.317 5.756,5.597 5.659,6.041 6.146,6.09 6.432,6.237 7.309,6.5 7.58,7.518 7.668,8.322 c 0.09,2.464 -0.039,4.932 0.073,7.396 0.099,1.437 0.228,2.944 0.963,4.217 0.821,1.241 2.29,2.07 3.789,2.029 2.389,-0.063 4.745,-1.077 6.384,-2.826 0.595,0.676 0.857,1.654 1.706,2.087 0.855,0.545 2.057,0.321 2.651,-0.504 -0.601,-0.304 -1.264,-0.586 -1.648,-1.172 -0.687,-0.986 -0.719,-2.24 -0.747,-3.397 -0.002,-3.379 -0.011,-6.761 0.017,-10.138 -0.06,-0.437 0.052,-1.26 -0.577,-1.269 -0.81,-0.009 -1.618,0.116 -2.404,0.308 z"
     id="path4" />
</svg>
