<?xml version="1.0" encoding="UTF-8" standalone="no"?>
<!-- Generated by IcoMoon.io -->

<svg
   version="1.1"
   width="31.999001"
   height="25.750999"
   viewBox="0 0 31.999001 25.750999"
   id="svg8"
   sodipodi:docname="x4ea.svg"
   inkscape:version="1.1.1 (3bf5ae0d25, 2021-09-20)"
   xmlns:inkscape="http://www.inkscape.org/namespaces/inkscape"
   xmlns:sodipodi="http://sodipodi.sourceforge.net/DTD/sodipodi-0.dtd"
   xmlns="http://www.w3.org/2000/svg"
   xmlns:svg="http://www.w3.org/2000/svg">
  <defs
     id="defs12" />
  <sodipodi:namedview
     id="namedview10"
     pagecolor="#ffffff"
     bordercolor="#666666"
     borderopacity="1.0"
     inkscape:pageshadow="2"
     inkscape:pageopacity="0.0"
     inkscape:pagecheckerboard="0"
     showgrid="false"
     inkscape:zoom="25.75"
     inkscape:cx="15.980583"
     inkscape:cy="14.854369"
     inkscape:window-width="1920"
     inkscape:window-height="1009"
     inkscape:window-x="-8"
     inkscape:window-y="-8"
     inkscape:window-maximized="1"
     inkscape:current-layer="svg8" />
  <title
     id="title2">x4ea</title>
  <path
     fill="#000000"
     d="m 20.257,4.001 -0.144,0.249 3.662,1.41 -3.677,1.411 0.714,1.235 h -3.973 l 2.703,7.353 2.174,-5.791 0.435,0.751 3.073,-2.47 -0.627,3.882 h 2.379 l -4.008,9.455 h 7.878 v 4.265 H 0 V 21.486 H 4.892 V 8.305 H 0 V 4.001 H 20.258 Z M 11.884,8.305 H 9.999 v 13.181 h 7.162 z"
     id="path4" />
  <path
     fill="#000000"
     d="m 25.749,0.001 2.063,0.031 -0.426,4.563 3.613,-2.594 1,1.781 -4.063,1.719 4.063,1.875 -0.969,1.844 -3.603,-2.6 0.572,4.569 h -2.082 l 0.014,-0.283 h -0.014 l 0.02,-0.123 0.204,-4.163 -3.829,2.631 -1,-1.719 L 25.625,5.563 21.437,3.5 22.599,1.844 26.166,4.625 25.75,0 Z"
     id="path6" />
</svg>
