<?xml version="1.0" encoding="UTF-8" standalone="no"?>
<!-- Generated by IcoMoon.io -->

<svg
   version="1.1"
   width="31.912224"
   height="26.766466"
   viewBox="0 0 31.912224 26.766466"
   id="svg6"
   sodipodi:docname="xcle.svg"
   inkscape:version="1.1.1 (3bf5ae0d25, 2021-09-20)"
   xmlns:inkscape="http://www.inkscape.org/namespaces/inkscape"
   xmlns:sodipodi="http://sodipodi.sourceforge.net/DTD/sodipodi-0.dtd"
   xmlns="http://www.w3.org/2000/svg"
   xmlns:svg="http://www.w3.org/2000/svg">
  <defs
     id="defs10" />
  <sodipodi:namedview
     id="namedview8"
     pagecolor="#ffffff"
     bordercolor="#666666"
     borderopacity="1.0"
     inkscape:pageshadow="2"
     inkscape:pageopacity="0.0"
     inkscape:pagecheckerboard="0"
     showgrid="false"
     inkscape:zoom="25.75"
     inkscape:cx="15.941748"
     inkscape:cy="13.378641"
     inkscape:window-width="1920"
     inkscape:window-height="1009"
     inkscape:window-x="-8"
     inkscape:window-y="-8"
     inkscape:window-maximized="1"
     inkscape:current-layer="svg6" />
  <title
     id="title2">xcle</title>
  <path
     fill="#000000"
     d="m 22.796588,0 c 0,0 1.686,0.183 1.686,1.926 l 6.257,1.743 c 0,0 1.563,0.603 1.08,2.649 l -5.172,19.307 c 0,0 -1.083,1.445 -2.346,1.083 l -8.344,-2.295 -8.3460002,2.295 c -1.263,0.363 -2.346,-1.083 -2.346,-1.083 L 0.09158779,6.318 c -0.48,-2.046 1.08300001,-2.649 1.08300001,-2.649 l 6.257,-1.743 c 0,-1.743 1.683,-1.926 1.683,-1.926 H 22.795588 Z m -0.054,0.723 H 9.1705878 c -0.077,0.014 -0.32,0.068 -0.546,0.22 -0.323,0.214 -0.471,0.525 -0.471,0.982 v 0.549 c 0,0 -6.638,1.852 -6.735,1.878 -0.175,0.08 -0.69500001,0.394 -0.69500001,1.225 0,0.169 0.023,0.358 0.072,0.572 0.009,0.031 5.04600001,18.833 5.12900001,19.135 0.219,0.252 0.874,0.906 1.492,0.731 l 8.5430002,-2.352 8.541,2.352 c 0.617,0.174 1.269,-0.48 1.491,-0.731 0.083,-0.303 5.12,-19.104 5.129,-19.135 0.048,-0.214 0.072,-0.403 0.072,-0.572 0,-0.831 -0.523,-1.146 -0.695,-1.225 -0.097,-0.026 -6.738,-1.878 -6.738,-1.878 V 1.925 c 0,-0.457 -0.148,-0.769 -0.468,-0.982 -0.226,-0.152 -0.469,-0.206 -0.549,-0.22 z M 8.0095878,3.434 V 22 c 0,0 0.157,1.206 1.123,1.206 h 5.2120002 l -6.9780002,1.923 c 0,0 -0.4,0.2 -0.603,-0.24 l -5.132,-19.05 c 0,0 -0.203,-0.601 0.28,-0.76 l 6.098,-1.646 z m 15.8990002,-0.04 6.092,1.646 c 0.483,0.16 0.282,0.76 0.282,0.76 l -5.134,19.05 c -0.198,0.44 -0.6,0.24 -0.6,0.24 l -6.978,-1.926 h 5.214 c 0.96,0 1.124,-1.203 1.124,-1.203 z m -1.223,-1.803 c 0.28,0 0.32,0.36 0.32,0.36 v 19.97 c 0,0.32 -0.32,0.4 -0.32,0.4 H 9.2525878 c -0.282,0 -0.282,-0.4 -0.282,-0.4 V 1.951 c 0,-0.24 0.282,-0.36 0.282,-0.36 z m -5.116,2.471 c -0.12,0.007 -0.07,-0.004 -0.151,0.019 q -0.322,0.161 -0.506,0.472 -0.184,0.311 -0.334,0.713 -0.069,-0.035 -0.316,-0.075 -0.247,-0.04 -0.564,-0.075 -0.317,-0.035 -0.633,-0.058 -0.316,-0.023 -0.5,-0.023 -0.828,0 -1.622,0.276 -0.794,0.276 -1.427,0.805 -0.633,0.529 -1.018,1.312 -0.385,0.783 -0.385,1.795 0,1.105 0.351,1.893 0.351,0.788 0.92,1.289 0.569,0.501 1.306,0.736 0.737,0.235 1.507,0.236 0.196,0 0.431,-0.012 l 0.121,-0.005 -0.045,0.095 q -0.367,0.829 -0.367,1.976 0,0.824 0.267,1.509 0.267,0.685 0.779,1.175 0.512,0.49 1.258,0.768 0.746,0.278 1.715,0.278 0.245,0 0.568,-0.017 0.323,-0.017 0.646,-0.045 0.323,-0.028 0.607,-0.045 0.284,-0.017 0.451,-0.017 0.2,0 0.262,0.173 0.062,0.173 0.084,0.328 0.022,0.1 0.106,0.106 0.084,0.006 0.195,-0.039 -0.056,-0.189 -0.078,-0.468 -0.022,-0.279 -0.022,-0.568 0,-0.356 0.056,-0.635 0.033,-0.145 0.067,-0.267 0,-0.056 -0.061,-0.089 -0.061,-0.033 -0.106,-0.033 -0.011,0 -0.045,0.033 -0.067,0.156 -0.239,0.356 -0.172,0.2 -0.451,0.384 -0.279,0.184 -0.679,0.312 -0.4,0.128 -0.924,0.128 -0.546,0 -0.963,-0.167 -0.417,-0.167 -0.718,-0.451 -0.301,-0.284 -0.501,-0.646 -0.2,-0.362 -0.323,-0.752 -0.123,-0.39 -0.173,-0.779 -0.05,-0.389 -0.05,-0.724 0.189,-0.011 0.651,-0.022 0.462,-0.011 1.219,-0.011 0.401,0 0.746,0.011 0.345,0.011 0.618,0.061 0.273,0.05 0.445,0.15 0.172,0.1 0.217,0.278 0.022,0.078 0.128,0.122 0.106,0.044 0.128,-0.067 0,-0.278 0.045,-0.534 0.045,-0.256 0.111,-0.468 0.066,-0.212 0.122,-0.373 0.056,-0.161 0.078,-0.262 -0.033,-0.045 -0.117,-0.056 -0.084,-0.011 -0.128,0.056 -0.089,0.089 -0.301,0.167 -0.212,0.078 -0.501,0.139 -0.289,0.061 -0.635,0.095 -0.346,0.034 -0.701,0.033 -0.156,0.011 -0.468,0.006 -0.312,-0.005 -0.646,-0.017 -0.334,-0.012 -0.618,-0.033 -0.284,-0.021 -0.373,-0.045 0.033,-0.59 0.212,-1.141 0.179,-0.551 0.479,-0.98 0.3,-0.429 0.713,-0.69 0.413,-0.261 0.913,-0.262 0.445,0 0.802,0.117 0.357,0.117 0.612,0.295 0.255,0.178 0.412,0.373 0.157,0.195 0.212,0.351 0.045,0.156 0.161,0.161 0.116,0.005 0.139,-0.084 0.045,-0.334 0.106,-0.601 0.061,-0.267 0.117,-0.412 0.134,-0.479 0.306,-0.818 0.172,-0.339 0.429,-0.54 0.156,-0.111 0.078,-0.178 -0.078,-0.067 -0.267,-0.122 -0.156,0 -0.267,0.206 -0.111,0.206 -0.195,0.445 -0.084,0.239 -0.139,0.44 -0.055,0.201 -0.111,0.189 -0.089,-0.022 -0.301,-0.05 -0.212,-0.028 -0.49,-0.056 -0.278,-0.028 -0.59,-0.045 -0.312,-0.017 -0.579,-0.017 -0.891,0 -1.704,0.251 -0.813,0.251 -1.436,0.785 c -0.294,0.267 -0.568,0.563 -0.755,0.917 -0.372,0.061 -0.204,0.047 -0.502,0.059 q -0.587,0 -1.082,-0.282 -0.495,-0.282 -0.851,-0.823 -0.356,-0.541 -0.558,-1.317 -0.202,-0.776 -0.201,-1.778 0,-0.725 0.161,-1.358 0.161,-0.633 0.466,-1.093 0.305,-0.46 0.748,-0.725 0.443,-0.265 1.007,-0.265 0.529,0 0.915,0.138 0.386,0.138 0.644,0.368 0.258,0.23 0.403,0.518 0.145,0.288 0.19,0.575 0.092,0.069 0.161,0.069 0.046,0 0.092,-0.04 0.046,-0.04 0.046,-0.098 0,-0.104 0.011,-0.253 0.011,-0.149 0.035,-0.311 0.024,-0.162 0.052,-0.328 0.028,-0.166 0.052,-0.293 0.046,-0.265 0.132,-0.524 0.086,-0.259 0.201,-0.46 0.115,-0.201 0.247,-0.328 0.132,-0.127 0.27,-0.127 0.046,0 0.075,-0.023 0.029,-0.023 0.086,-0.127 0,-0.092 -0.115,-0.115 l -0.056,-0.008 z"
     id="path4" />
</svg>
