<?xml version="1.0" encoding="UTF-8" standalone="no"?>
<!-- Generated by IcoMoon.io -->

<svg
   version="1.1"
   width="31.912224"
   height="26.766466"
   viewBox="0 0 31.912224 26.766466"
   id="svg6"
   sodipodi:docname="xice.svg"
   inkscape:version="1.1.1 (3bf5ae0d25, 2021-09-20)"
   xmlns:inkscape="http://www.inkscape.org/namespaces/inkscape"
   xmlns:sodipodi="http://sodipodi.sourceforge.net/DTD/sodipodi-0.dtd"
   xmlns="http://www.w3.org/2000/svg"
   xmlns:svg="http://www.w3.org/2000/svg">
  <defs
     id="defs10" />
  <sodipodi:namedview
     id="namedview8"
     pagecolor="#ffffff"
     bordercolor="#666666"
     borderopacity="1.0"
     inkscape:pageshadow="2"
     inkscape:pageopacity="0.0"
     inkscape:pagecheckerboard="0"
     showgrid="false"
     inkscape:zoom="25.75"
     inkscape:cx="15.941748"
     inkscape:cy="13.378641"
     inkscape:window-width="1920"
     inkscape:window-height="1009"
     inkscape:window-x="-8"
     inkscape:window-y="-8"
     inkscape:window-maximized="1"
     inkscape:current-layer="svg6" />
  <title
     id="title2">xice</title>
  <path
     fill="#000000"
     d="m 22.796588,0 c 0,0 1.686,0.183 1.686,1.926 l 6.257,1.743 c 0,0 1.563,0.603 1.08,2.649 l -5.172,19.307 c 0,0 -1.083,1.445 -2.346,1.083 l -8.344,-2.295 -8.3460002,2.295 c -1.263,0.363 -2.346,-1.083 -2.346,-1.083 L 0.09158779,6.318 c -0.48,-2.046 1.08300001,-2.649 1.08300001,-2.649 l 6.257,-1.743 c 0,-1.743 1.683,-1.926 1.683,-1.926 H 22.795588 Z m -0.054,0.723 H 9.1705878 c -0.077,0.014 -0.32,0.068 -0.546,0.22 -0.323,0.214 -0.471,0.525 -0.471,0.982 v 0.549 c 0,0 -6.638,1.852 -6.735,1.878 -0.175,0.08 -0.69500001,0.394 -0.69500001,1.225 0,0.169 0.023,0.358 0.072,0.572 0.009,0.031 5.04600001,18.833 5.12900001,19.135 0.219,0.252 0.874,0.906 1.492,0.731 l 8.5430002,-2.352 8.541,2.352 c 0.617,0.174 1.269,-0.48 1.491,-0.731 0.083,-0.303 5.12,-19.104 5.129,-19.135 0.048,-0.214 0.072,-0.403 0.072,-0.572 0,-0.831 -0.523,-1.146 -0.695,-1.225 -0.097,-0.026 -6.738,-1.878 -6.738,-1.878 V 1.925 c 0,-0.457 -0.148,-0.769 -0.468,-0.982 -0.226,-0.152 -0.469,-0.206 -0.549,-0.22 z M 8.0095878,3.469 v 18.566 c 0,0 0.157,1.206 1.123,1.206 h 5.2120002 l -6.9780002,1.923 c 0,0 -0.4,0.2 -0.603,-0.24 l -5.132,-19.05 c 0,0 -0.203,-0.601 0.28,-0.76 l 6.098,-1.646 z m 15.8990002,-0.04 6.092,1.646 c 0.483,0.16 0.282,0.76 0.282,0.76 l -5.134,19.05 c -0.198,0.44 -0.6,0.24 -0.6,0.24 l -6.977,-1.926 h 5.214 c 0.96,0 1.124,-1.203 1.124,-1.203 V 3.429 Z m -1.223,-1.803 c 0.28,0 0.32,0.36 0.32,0.36 v 19.97 c 0,0.32 -0.32,0.4 -0.32,0.4 H 9.2525878 c -0.282,0 -0.282,-0.4 -0.282,-0.4 V 1.986 c 0,-0.24 0.282,-0.36 0.282,-0.36 z m -7.532,2.605 c -0.18,0.021 -0.362,0.033 -0.543,0.046 q -0.427,0.028 -1.031,0.028 -0.923,0 -1.419,-0.04 -0.496,-0.04 -0.587,-0.04 -0.068,0 -0.125,0.04 -0.057,0.04 -0.057,0.154 0,0.103 0.057,0.12 0.057,0.017 0.137,0.028 0.103,0.011 0.331,0 0.228,-0.011 0.399,0.011 0.239,0.023 0.331,0.142 0.092,0.119 0.103,0.484 0,0.068 0.006,0.222 0.006,0.154 0.011,0.439 0.005,0.285 0.011,0.724 0.006,0.439 0.006,1.088 0,0.593 -0.034,1.288 -0.034,0.695 -0.091,1.328 -0.057,0.633 -0.131,1.106 -0.074,0.473 -0.142,0.61 -0.057,0.091 -0.342,0.148 -0.285,0.057 -0.764,0.057 -0.08,0 -0.125,0.051 -0.045,0.051 -0.046,0.097 0,0.057 0.04,0.12 0.04,0.063 0.097,0.063 l 0.182,-0.023 q 0.114,-0.011 0.325,-0.028 0.211,-0.017 0.45,-0.023 0.239,-0.006 0.49,-0.011 0.251,-0.005 0.456,-0.006 h 0.068 q 0.536,0 0.9,0.011 0.364,0.011 0.604,0.028 0.24,0.017 0.376,0.028 c 0.058,0.005 0.116,0.01 0.174,0.011 -0.245,0.266 -0.408,0.603 -0.564,0.925 q -0.366,0.826 -0.366,1.968 0,0.82 0.266,1.502 0.266,0.682 0.776,1.17 0.51,0.488 1.253,0.765 0.743,0.277 1.707,0.277 0.244,0 0.565,-0.017 0.321,-0.017 0.643,-0.044 0.322,-0.027 0.604,-0.044 0.282,-0.017 0.449,-0.017 0.2,0 0.261,0.172 0.061,0.172 0.083,0.327 0.022,0.1 0.105,0.105 0.083,0.005 0.194,-0.039 -0.055,-0.188 -0.078,-0.466 -0.023,-0.278 -0.022,-0.565 0,-0.355 0.055,-0.632 0.033,-0.144 0.067,-0.266 0,-0.055 -0.061,-0.089 -0.061,-0.034 -0.105,-0.033 -0.011,0 -0.044,0.033 -0.067,0.155 -0.238,0.355 -0.171,0.2 -0.449,0.382 -0.278,0.182 -0.676,0.31 -0.398,0.128 -0.92,0.127 -0.543,0 -0.959,-0.166 -0.416,-0.166 -0.715,-0.449 -0.299,-0.283 -0.499,-0.643 -0.2,-0.36 -0.322,-0.748 -0.122,-0.388 -0.172,-0.776 -0.05,-0.388 -0.05,-0.721 0.188,-0.011 0.649,-0.022 0.461,-0.011 1.214,-0.011 0.399,0 0.743,0.011 0.344,0.011 0.615,0.061 0.271,0.05 0.443,0.15 0.172,0.1 0.216,0.277 0.022,0.078 0.127,0.122 0.105,0.044 0.127,-0.067 0,-0.277 0.044,-0.532 0.044,-0.255 0.111,-0.466 0.067,-0.211 0.122,-0.371 0.055,-0.16 0.078,-0.261 -0.033,-0.044 -0.116,-0.055 -0.083,-0.011 -0.127,0.055 -0.089,0.089 -0.299,0.166 -0.21,0.077 -0.499,0.139 -0.289,0.062 -0.632,0.094 -0.343,0.032 -0.698,0.033 -0.155,0.011 -0.466,0.006 -0.311,-0.005 -0.643,-0.017 -0.332,-0.012 -0.615,-0.033 -0.283,-0.021 -0.371,-0.044 0.033,-0.588 0.211,-1.136 0.178,-0.548 0.477,-0.976 0.299,-0.428 0.709,-0.687 0.41,-0.259 0.909,-0.261 0.443,0 0.798,0.116 0.355,0.116 0.61,0.294 0.255,0.178 0.41,0.371 0.155,0.193 0.211,0.349 0.044,0.155 0.161,0.161 0.117,0.006 0.139,-0.083 0.044,-0.333 0.105,-0.599 0.061,-0.266 0.116,-0.41 0.133,-0.477 0.305,-0.815 0.172,-0.338 0.427,-0.538 0.155,-0.111 0.078,-0.177 -0.077,-0.066 -0.266,-0.122 -0.155,0 -0.266,0.205 -0.111,0.205 -0.194,0.443 -0.083,0.238 -0.139,0.438 -0.056,0.2 -0.111,0.188 -0.089,-0.022 -0.299,-0.05 -0.21,-0.028 -0.488,-0.055 -0.278,-0.027 -0.588,-0.044 -0.31,-0.017 -0.576,-0.017 -0.887,0 -1.696,0.249 -0.809,0.249 -1.43,0.782 c -0.05,0.046 -0.101,0.092 -0.151,0.138 0,0 0,0 -10e-4,10e-4 l -0.012,-0.012 q -0.034,-0.023 -0.16,-0.023 -0.148,0 -0.325,-0.011 -0.177,-0.011 -0.348,-0.04 -0.171,-0.029 -0.296,-0.057 -0.125,-0.028 -0.171,-0.063 -0.068,-0.057 -0.103,-0.445 -0.035,-0.388 -0.051,-0.918 -0.016,-0.53 -0.011,-1.105 0.005,-0.575 0.017,-1.009 0.011,-0.57 0.046,-1.242 0.035,-0.672 0.074,-1.254 0.039,-0.582 0.091,-0.974 0.052,-0.392 0.108,-0.416 0.046,-0.011 0.137,-0.034 0.091,-0.023 0.199,-0.034 0.108,-0.011 0.222,-0.023 0.114,-0.012 0.205,-0.011 0.262,-0.023 0.262,-0.217 0,-0.091 -0.074,-0.108 c -0.101,-0.017 -0.05,-0.011 -0.154,-0.017 l -0.044,0.006 z"
     id="path4" />
</svg>
