<?xml version="1.0" encoding="UTF-8" standalone="no"?>
<!-- Generated by IcoMoon.io -->

<svg
   version="1.1"
   width="27.377001"
   height="29.014"
   viewBox="0 0 27.377001 29.014"
   id="svg6"
   sodipodi:docname="xlcu.svg"
   inkscape:version="1.1.1 (3bf5ae0d25, 2021-09-20)"
   xmlns:inkscape="http://www.inkscape.org/namespaces/inkscape"
   xmlns:sodipodi="http://sodipodi.sourceforge.net/DTD/sodipodi-0.dtd"
   xmlns="http://www.w3.org/2000/svg"
   xmlns:svg="http://www.w3.org/2000/svg">
  <defs
     id="defs10" />
  <sodipodi:namedview
     id="namedview8"
     pagecolor="#ffffff"
     bordercolor="#666666"
     borderopacity="1.0"
     inkscape:pageshadow="2"
     inkscape:pageopacity="0.0"
     inkscape:pagecheckerboard="0"
     showgrid="false"
     inkscape:zoom="25.75"
     inkscape:cx="6.3106796"
     inkscape:cy="14.504854"
     inkscape:window-width="1920"
     inkscape:window-height="1009"
     inkscape:window-x="-8"
     inkscape:window-y="-8"
     inkscape:window-maximized="1"
     inkscape:current-layer="svg6" />
  <title
     id="title2">xlcu</title>
  <path
     fill="#000000"
     d="M 3.015,6.076 C 6.511,4.059 9.992,2.016 13.489,0 17.044,2.053 20.649,4.02 24.202,6.076 22.075,6.541 20.033,7.388 18.197,8.56 16.453,9.666 14.893,11.042 13.49,12.554 11.553,10.759 9.502,9.053 7.18,7.775 5.7724604,7.0733292 4.3066231,6.4321236 3.015,6.076 Z M 0,10.394 v 12.141 c 2.289,0.387 4.482,1.268 6.435,2.517 1.742,1.107 3.304,2.475 4.732,3.961 C 11.128,24.92 11.209,20.827 11.168,16.735 9.203,16.428 7.301,15.756 5.555,14.807 3.462,13.675 1.654,12.09 0.001,10.395 Z m 21.807,4.408 c -1.748,0.972 -3.669,1.633 -5.648,1.93 0.037,4.094 -0.038,8.188 -0.003,12.282 1.184,-1.236 2.448,-2.401 3.842,-3.398 2.178,-1.577 4.712,-2.687 7.379,-3.082 V 10.395 c -1.657,1.698 -3.486,3.256 -5.57,4.407 z"
     id="path4"
     style="stroke:none;stroke-opacity:1"
     sodipodi:nodetypes="cccccccccccccccccccccc" />
</svg>
