<?xml version="1.0" encoding="UTF-8" standalone="no"?>
<!-- Generated by IcoMoon.io -->

<svg
   version="1.1"
   width="31.926001"
   height="31.926035"
   viewBox="0 0 31.926001 31.926035"
   id="svg6"
   sodipodi:docname="xmods.svg"
   inkscape:version="1.1.1 (3bf5ae0d25, 2021-09-20)"
   xmlns:inkscape="http://www.inkscape.org/namespaces/inkscape"
   xmlns:sodipodi="http://sodipodi.sourceforge.net/DTD/sodipodi-0.dtd"
   xmlns="http://www.w3.org/2000/svg"
   xmlns:svg="http://www.w3.org/2000/svg">
  <defs
     id="defs10" />
  <sodipodi:namedview
     id="namedview8"
     pagecolor="#ffffff"
     bordercolor="#666666"
     borderopacity="1.0"
     inkscape:pageshadow="2"
     inkscape:pageopacity="0.0"
     inkscape:pagecheckerboard="0"
     showgrid="false"
     inkscape:zoom="25.75"
     inkscape:cx="15.941748"
     inkscape:cy="15.941748"
     inkscape:window-width="1920"
     inkscape:window-height="1009"
     inkscape:window-x="-8"
     inkscape:window-y="-8"
     inkscape:window-maximized="1"
     inkscape:current-layer="svg6" />
  <title
     id="title2">xmods</title>
  <path
     fill="#000000"
     d="m 11.981,21.386034 3.982,3.982 3.905,-3.905 3.279,3.279 -7.184,7.184 -7.261,-7.261 z m 12.684,-12.684 -3.279,3.279 3.982,3.982 -3.905,3.905 3.279,3.279 7.184,-7.184 z m -17.481,0.077 -7.184,7.184 7.107,7.107 3.279,-3.279 -3.828,-3.828 3.905,-3.905 z m 8.74,0.216 -6.969,6.968 6.968,6.968 6.968,-6.968 -6.968,-6.968 z M 15.963,3.4047913e-5 C 15.788,0.01703405 8.779,7.184034 8.779,7.184034 l 3.279,3.279 3.905,-3.905 3.828,3.828 3.279,-3.279 c 0,0 -6.932,-7.12499995 -7.107,-7.106999952087 z"
     id="path4" />
</svg>
