<?xml version="1.0" encoding="UTF-8" standalone="no"?>
<!-- Generated by IcoMoon.io -->

<svg
   version="1.1"
   width="22.415001"
   height="29.365"
   viewBox="0 0 22.415001 29.365"
   id="svg6"
   sodipodi:docname="xren.svg"
   inkscape:version="1.1.1 (3bf5ae0d25, 2021-09-20)"
   xmlns:inkscape="http://www.inkscape.org/namespaces/inkscape"
   xmlns:sodipodi="http://sodipodi.sourceforge.net/DTD/sodipodi-0.dtd"
   xmlns="http://www.w3.org/2000/svg"
   xmlns:svg="http://www.w3.org/2000/svg">
  <defs
     id="defs10" />
  <sodipodi:namedview
     id="namedview8"
     pagecolor="#ffffff"
     bordercolor="#666666"
     borderopacity="1.0"
     inkscape:pageshadow="2"
     inkscape:pageopacity="0.0"
     inkscape:pagecheckerboard="0"
     showgrid="false"
     inkscape:zoom="25.75"
     inkscape:cx="11.009709"
     inkscape:cy="14.660194"
     inkscape:window-width="1920"
     inkscape:window-height="1009"
     inkscape:window-x="-8"
     inkscape:window-y="-8"
     inkscape:window-maximized="1"
     inkscape:current-layer="svg6" />
  <title
     id="title2">xren</title>
  <path
     fill="#000000"
     d="m 0.969,0 c 0.861,1.813 2.43,2.406 2.43,2.406 1.799,-0.898 3.795,-1.373 5.86,-1.373 7.254,0 13.156,5.901 13.156,13.155 0,3.51 -1.369,6.81 -3.856,9.296 -1.426,1.427 -3.119,2.483 -4.963,3.126 0,0 -1.167,2.227 -2.6,2.755 0,0 0.478,-1.672 -0.047,-3.344 L 9.182,23.443 C 4.098,23.372 0,19.231 0,14.134 0,11.57 1.034,9.249 2.712,7.566 L 1.971,4.01 C -0.223,2.627 0.968,0 0.968,0 Z m 8.29,3.324 c -1.803,0 -3.509,0.444 -5.01,1.225 L 4.558,6.12 c 1.38,-0.804 2.988,-1.269 4.7,-1.269 5.158,0 9.337,4.179 9.337,9.337 0,4.257 -2.849,7.847 -6.746,8.97 l 0.811,1.346 C 16.99,23.074 20.123,18.99 20.123,14.188 20.123,8.196 15.25,3.324 9.258,3.324 Z M 9.149,8.758 8.967,8.777 Q 8.433,8.848 7.873,9.079 7.313,9.31 6.405,9.816 l -3.727,2.152 0.278,0.482 0.109,-0.046 q 0.647,-0.373 1.103,-0.197 0.456,0.176 0.91,0.962 l 2.76,4.78 q 0.461,0.799 0.385,1.282 -0.076,0.483 -0.73,0.844 L 7.392,20.134 7.67,20.616 11.626,18.332 11.348,17.85 11.19,17.958 Q 10.543,18.331 10.087,18.155 9.631,17.979 9.162,17.168 L 7.925,15.025 8.3,14.825 q 0.216,-0.124 0.382,-0.187 0.166,-0.063 0.259,-0.048 0.178,0.016 0.563,0.14 0.385,0.124 1.008,0.356 l 1.915,0.77 q 0.524,0.205 0.908,0.329 0.384,0.124 0.657,0.187 0.393,0.095 0.781,0.006 0.388,-0.089 0.819,-0.338 l 1.014,-0.586 -0.271,-0.469 q -0.076,0.044 -0.124,0.063 -0.048,0.019 -0.106,0.036 -0.045,0.009 -0.084,0.015 -0.039,0.006 -0.104,0.01 -0.151,0.003 -0.279,0 -0.128,-0.003 -0.253,-0.014 -0.16,-0.043 -0.363,-0.086 -0.203,-0.043 -0.443,-0.108 -0.42,-0.113 -0.687,-0.195 -0.267,-0.082 -0.395,-0.127 L 11.629,13.95 q -0.375,-0.122 -0.639,-0.214 -0.264,-0.092 -0.399,-0.15 -0.06,-0.016 -0.104,-0.033 -0.044,-0.017 -0.076,-0.015 0,0 -0.01,-0.003 -0.01,-0.003 -0.01,-0.003 -0.04,-0.011 -0.07,-0.019 -0.03,-0.008 -0.083,-0.011 0.143,-0.133 0.255,-0.232 0.112,-0.099 0.199,-0.182 0.061,-0.069 0.127,-0.132 0.066,-0.063 0.107,-0.138 0.074,-0.077 0.141,-0.166 0.067,-0.089 0.139,-0.199 0.404,-0.588 0.438,-1.276 Q 11.678,10.489 11.341,9.906 10.99,9.297 10.345,8.985 C 10.081,8.858 9.796,8.779 9.504,8.757 c -0.118,-0.009 -0.238,0 -0.356,0 z M 8.181,9.949 c 0.327,-0.004 0.629,0.091 0.916,0.24 q 0.489,0.276 0.796,0.808 0.293,0.507 0.287,1.009 -0.006,0.502 -0.322,0.921 -0.061,0.069 -0.117,0.135 -0.056,0.066 -0.104,0.128 -0.192,0.195 -0.466,0.379 -0.274,0.184 -0.877,0.515 L 7.609,14.479 5.596,10.993 6.301,10.603 Q 6.77,10.332 7.041,10.201 7.312,10.07 7.584,10.014 7.687,9.988 7.798,9.975 7.909,9.962 8.039,9.954 L 8.18,9.949 Z"
     id="path4" />
</svg>
