<?xml version="1.0" encoding="UTF-8" standalone="no"?>
<!-- Generated by IcoMoon.io -->

<svg
   version="1.1"
   width="22.415001"
   height="29.365"
   viewBox="0 0 22.415001 29.365"
   id="svg6"
   sodipodi:docname="xrin.svg"
   inkscape:version="1.1.1 (3bf5ae0d25, 2021-09-20)"
   xmlns:inkscape="http://www.inkscape.org/namespaces/inkscape"
   xmlns:sodipodi="http://sodipodi.sourceforge.net/DTD/sodipodi-0.dtd"
   xmlns="http://www.w3.org/2000/svg"
   xmlns:svg="http://www.w3.org/2000/svg">
  <defs
     id="defs10" />
  <sodipodi:namedview
     id="namedview8"
     pagecolor="#ffffff"
     bordercolor="#666666"
     borderopacity="1.0"
     inkscape:pageshadow="2"
     inkscape:pageopacity="0.0"
     inkscape:pagecheckerboard="0"
     showgrid="false"
     inkscape:zoom="25.75"
     inkscape:cx="11.009709"
     inkscape:cy="14.660194"
     inkscape:window-width="1920"
     inkscape:window-height="1009"
     inkscape:window-x="-8"
     inkscape:window-y="-8"
     inkscape:window-maximized="1"
     inkscape:current-layer="svg6" />
  <title
     id="title2">xrin</title>
  <path
     fill="#000000"
     d="m 0.969,0 c 0.861,1.813 2.43,2.406 2.43,2.406 1.799,-0.898 3.795,-1.373 5.86,-1.373 7.254,0 13.156,5.901 13.156,13.155 0,3.51 -1.369,6.81 -3.856,9.296 -1.426,1.427 -3.119,2.483 -4.963,3.126 0,0 -1.167,2.227 -2.6,2.755 0,0 0.478,-1.672 -0.047,-3.344 L 9.182,23.443 C 4.098,23.372 0,19.231 0,14.134 0,11.57 1.034,9.249 2.712,7.566 L 1.971,4.01 C -0.223,2.627 0.968,0 0.968,0 Z m 8.29,3.324 c -1.803,0 -3.509,0.444 -5.01,1.225 L 4.558,6.12 c 1.38,-0.804 2.988,-1.269 4.7,-1.269 5.158,0 9.337,4.179 9.337,9.337 0,4.257 -2.849,7.847 -6.746,8.97 l 0.811,1.346 C 16.99,23.074 20.123,18.99 20.123,14.188 20.123,8.196 15.25,3.324 9.258,3.324 Z m 3.995,6.551 -0.29,0.167 -1.279,1.575 0.125,0.217 1.196,-0.047 1.533,2.655 q 0.355,0.615 0.325,0.995 -0.03,0.38 -0.484,0.625 l -0.03,0.017 -0.003,-0.006 q -0.072,0.042 -0.118,0.06 -0.046,0.018 -0.101,0.034 -0.043,0.009 -0.08,0.014 -0.037,0.005 -0.099,0.009 -0.143,0.002 -0.265,0 -0.122,-0.002 -0.241,-0.014 -0.152,-0.041 -0.345,-0.082 -0.193,-0.041 -0.421,-0.103 -0.4,-0.107 -0.654,-0.185 -0.254,-0.078 -0.376,-0.121 L 9.869,15.086 Q 9.512,14.97 9.261,14.882 9.01,14.794 8.881,14.739 8.824,14.724 8.782,14.707 8.74,14.69 8.709,14.693 q 0,0 -0.01,-0.003 Q 8.689,14.687 8.69,14.687 8.652,14.677 8.623,14.669 8.594,14.661 8.544,14.658 8.68,14.531 8.787,14.437 8.894,14.343 8.976,14.263 9.035,14.197 9.096,14.137 9.157,14.077 9.197,14.006 9.268,13.933 9.331,13.848 9.394,13.763 9.463,13.659 9.848,13.099 9.88,12.445 9.912,11.791 9.592,11.236 9.258,10.657 8.644,10.36 8.03,10.063 7.331,10.161 6.823,10.229 6.29,10.448 5.757,10.667 4.893,11.15 l -3.548,2.048 0.265,0.459 0.104,-0.044 q 0.615,-0.355 1.05,-0.188 0.435,0.167 0.866,0.916 l 2.627,4.549 q 0.439,0.76 0.367,1.22 -0.072,0.46 -0.695,0.803 l -0.097,0.056 0.265,0.459 3.765,-2.174 -0.265,-0.459 -0.15,0.103 q -0.615,0.355 -1.05,0.188 -0.435,-0.167 -0.88,-0.94 L 6.34,16.107 6.697,15.917 q 0.205,-0.118 0.364,-0.178 0.159,-0.06 0.247,-0.046 0.169,0.015 0.536,0.133 0.367,0.118 0.96,0.339 l 1.823,0.733 q 0.499,0.195 0.865,0.313 0.366,0.118 0.626,0.178 0.374,0.09 0.743,0.005 0.369,-0.085 0.78,-0.321 l 0.965,-0.557 -0.004,-0.006 2.612,-1.508 -0.251,-0.434 -0.041,0.04 q -0.362,0.209 -0.695,0.023 -0.333,-0.186 -0.681,-0.789 l -2.292,-3.97 z m -6.67,1.405 c 0.087,0.006 0.175,0.006 0.261,0.018 0.215,0.031 0.422,0.104 0.611,0.21 Q 7.921,11.77 8.214,12.277 8.493,12.76 8.487,13.238 8.481,13.716 8.181,14.115 8.123,14.181 8.07,14.243 8.017,14.305 7.971,14.364 7.789,14.55 7.528,14.725 7.267,14.9 6.693,15.215 L 6.041,15.591 4.125,12.273 4.796,11.902 Q 5.242,11.644 5.5,11.519 5.758,11.394 6.017,11.341 6.115,11.316 6.221,11.304 6.327,11.292 6.451,11.284 L 6.585,11.279 Z M 11.429,7.277 C 11.297,7.296 11.192,7.311 11.075,7.384 Q 10.81,7.537 10.724,7.836 10.638,8.135 10.792,8.4 l 0.007,0.012 q 0.153,0.265 0.461,0.353 0.308,0.088 0.573,-0.066 0.277,-0.16 0.35,-0.467 Q 12.256,7.925 12.102,7.659 11.942,7.381 11.647,7.302 C 11.526,7.276 11.599,7.288 11.428,7.276 Z"
     id="path4" />
</svg>
