<?xml version="1.0" encoding="UTF-8" standalone="no"?>
<svg
   version="1.1"
   width="31.17581"
   height="34.298828"
   viewBox="0 0 31.17581 34.298828"
   id="svg6"
   xmlns:xlink="http://www.w3.org/1999/xlink"
   xmlns="http://www.w3.org/2000/svg"
   xmlns:svg="http://www.w3.org/2000/svg">
  <defs
     id="defs59">
    <radialGradient
       id="radialGradient1607"
       r="0.75">
      <stop
         offset="0"
         style="stop-color:rgb(192,55,38);stop-opacity:1"
         id="stop1597" />
      <stop
         offset="0"
         style="stop-color:rgb(192,55,38);stop-opacity:1"
         id="stop1599" />
      <stop
         offset="0"
         style="stop-color:rgb(241,142,30);stop-opacity:1"
         id="stop1601" />
      <stop
         offset="0.5"
         style="stop-color:rgb(249,177,0);stop-opacity:1"
         id="stop1603" />
      <stop
         offset="1"
         style="stop-color:rgb(189,75,25);stop-opacity:1"
         id="stop1605" />
    </radialGradient>
    <!-- This is the gradient that will actually be used on
     the cards. The colors themselves will be provided by the
     template, but the x values, y values, and offsets will be
     used from the SVG. -->
    <radialGradient
       id="rarity"
       r="0.75">
      <stop
         offset="0"
         style="stop-color:rgb(192,55,38);stop-opacity:1"
         id="stop2" />
      <stop
         offset="0"
         style="stop-color:rgb(192,55,38);stop-opacity:1"
         id="stop4" />
      <stop
         offset="0"
         style="stop-color:rgb(241,142,30);stop-opacity:1"
         id="stop6" />
      <stop
         offset="1"
         style="stop-color:rgb(192,55,38);stop-opacity:1"
         id="stop8" />
      <stop
         offset="1"
         style="stop-color:rgb(192,55,38);stop-opacity:1"
         id="stop10" />
    </radialGradient>
    <!-- These gradients are here so that you can visualize
     what the set symbol would like like in that rarity. The
     only gradient that matters in the end is the "rarity"
     gradient. -->
    <linearGradient
       id="mythic"
       x1="0"
       y1="1"
       x2="1"
       y2="0">
      <stop
         offset="0"
         style="stop-color:rgb(192,55,38);stop-opacity:1"
         id="stop9" />
      <stop
         offset="0.125"
         style="stop-color:rgb(192,55,38);stop-opacity:1"
         id="stop11" />
      <stop
         offset="0.5"
         style="stop-color:rgb(241,142,30);stop-opacity:1"
         id="stop13" />
      <stop
         offset="0.875"
         style="stop-color:rgb(192,55,38);stop-opacity:1"
         id="stop15" />
      <stop
         offset="1"
         style="stop-color:rgb(192,55,38);stop-opacity:1"
         id="stop17" />
    </linearGradient>
    <linearGradient
       id="rare"
       x1="0"
       y1="1"
       x2="1"
       y2="0">
      <stop
         offset="0"
         style="stop-color:rgb(146,116,67);stop-opacity:1"
         id="stop20" />
      <stop
         offset="0.125"
         style="stop-color:rgb(146,116,67);stop-opacity:1"
         id="stop22" />
      <stop
         offset="0.5"
         style="stop-color:rgb(211,178,108);stop-opacity:1"
         id="stop24" />
      <stop
         offset="0.875"
         style="stop-color:rgb(146,116,67);stop-opacity:1"
         id="stop26" />
      <stop
         offset="1"
         style="stop-color:rgb(146,116,67);stop-opacity:1"
         id="stop28" />
    </linearGradient>
    <linearGradient
       id="special"
       x1="0"
       y1="1"
       x2="1"
       y2="0">
      <stop
         offset="0"
         style="stop-color:rgb(76, 56, 106);stop-opacity:1"
         id="stop31" />
      <stop
         offset="0.125"
         style="stop-color:rgb(76, 56, 106);stop-opacity:1"
         id="stop33" />
      <stop
         offset="0.5"
         style="stop-color:rgb(201, 173, 221);stop-opacity:1"
         id="stop35" />
      <stop
         offset="0.875"
         style="stop-color:rgb(76, 56, 106);stop-opacity:1"
         id="stop37" />
      <stop
         offset="1"
         style="stop-color:rgb(76, 56, 106);stop-opacity:1"
         id="stop39" />
    </linearGradient>
    <linearGradient
       id="uncommon"
       x1="0"
       y1="1"
       x2="1"
       y2="0">
      <stop
         offset="0"
         style="stop-color:rgb(98,110,119);stop-opacity:1"
         id="stop42" />
      <stop
         offset="0.125"
         style="stop-color:rgb(98,110,119);stop-opacity:1"
         id="stop44" />
      <stop
         offset="0.5"
         style="stop-color:rgb(196,222,238);stop-opacity:1"
         id="stop46" />
      <stop
         offset="0.875"
         style="stop-color:rgb(98,110,119);stop-opacity:1"
         id="stop48" />
      <stop
         offset="1"
         style="stop-color:rgb(98,110,119);stop-opacity:1"
         id="stop50" />
    </linearGradient>
    <linearGradient
       id="common"
       x1="0"
       y1="1"
       x2="1"
       y2="0">
      <stop
         offset="0"
         style="stop-color:rgb(0,0,0);stop-opacity:1"
         id="stop53" />
    </linearGradient>
    <linearGradient
       id="rarity-outline"
       x1="0"
       y1="1"
       x2="0"
       y2="1">
      <stop
         offset="0"
         style="stop-color:rgb(0,0,0);stop-opacity:1"
         id="stop56" />
    </linearGradient>
    <radialGradient
       xlink:href="#rarity"
       id="radialGradient1209"
       r="3000"
       gradientUnits="userSpaceOnUse" />
    <radialGradient
       xlink:href="#rarity"
       id="radialGradient1595"
       r="30"
       gradientUnits="userSpaceOnUse" />
  </defs>
  <path
     fill="url(#rarity-outline)"
     d="m 10.011695,0 0.59375,0.59179685 C 12.022699,2.0021533 14.63865,4.6464844 14.638648,4.6464843 l 0.289063,0.2929688 v 9.9797619 l -2.37533,2.361599 2.37533,2.210567 V 34.298828 H 11.326148 L 1.6620859,24.880859 3.281227,23.228516 c 0.01865,-0.02403 0.317539,-0.405166 0.654297,-0.931641 0.347169,-0.542754 0.683325,-1.260562 0.720703,-1.478516 0.194085,-1.131745 0.01674,-2.380091 -0.552735,-3.378906 l -0.0078,-0.01563 -0.0078,-0.01563 C 3.496605,16.282107 1.6313059,15.076012 0.73828295,14.697256 l -0.01172,-0.0039 -0.01172,-0.0059 c -0.337796,-0.153544 -0.397447,-0.252595 -0.167968,-0.09961 L 0,14.222612 0.11718695,13.576128 C 0.60028295,10.934268 1.6602169,8.3803955 3.263648,6.1992187 l 0.0039,-0.00391 0.002,-0.00391 C 4.959483,3.931753 7.076012,2.0655046 9.324195,0.48242185 Z"
     id="path61" />
  <path
     fill="url(#rarity-outline)"
     d="m 21.164115,0 -0.59375,0.59179685 C 19.153111,2.0021533 16.53716,4.6464844 16.537162,4.6464843 l -0.289063,0.2929688 v 9.9797619 l 2.37533,2.361599 -2.37533,2.210567 v 14.807447 h 3.601563 l 9.664062,-9.417969 -1.619141,-1.652343 c -0.01865,-0.02403 -0.317539,-0.405166 -0.654297,-0.931641 -0.347169,-0.542754 -0.683325,-1.260562 -0.720703,-1.478516 -0.194085,-1.131745 -0.01674,-2.380091 0.552735,-3.378906 l 0.0078,-0.01563 0.0078,-0.01563 c 0.591287,-1.126086 2.456586,-2.332181 3.349609,-2.710937 l 0.01172,-0.0039 0.01172,-0.0059 c 0.337796,-0.153544 0.397447,-0.252595 0.167968,-0.09961 l 0.546875,-0.365234 -0.117187,-0.646484 c -0.483096,-2.64186 -1.54303,-5.1957325 -3.146461,-7.3769093 l -0.0039,-0.00391 -0.002,-0.00391 C 26.216327,3.931753 24.099798,2.0655046 21.851615,0.48242185 Z"
     id="path63" />
  <path
     fill="url(#rarity)"
     d="m 9.8750524,1.2988281 c -2.188,1.54 -4.2220781,3.3421875 -5.8300781,5.4921875 -1.507,2.05 -2.51175,4.4648444 -2.96875,6.9648434 0.009,0.007 0.017344,0.01553 0.027344,0.01953 1.061,0.45 3.03775,1.631016 3.8437501,3.166016 0.6989999,1.226 0.9008303,2.697865 0.6699218,4.044922 -0.059034,0.344386 -0.2453886,0.76095 -0.4667968,1.169922 L 8.0996618,19.185547 6.1738805,17.222656 8.0957555,15.300781 4.1348181,11.3125 10.097709,5.3046875 10.453177,4.9472656 13.902396,8.4375 V 5.3496093 c 0,0 -2.679344,-2.7077812 -4.0273436,-4.0507812 z m 11.4003906,0.00195 C 19.865106,2.704252 17.248099,5.3496093 17.248099,5.3496093 v 3.0898438 l 3.09375,-3.1328125 0.353516,-0.359375 6.322265,6.3652344 -3.960937,3.988281 1.921875,1.921875 -1.925782,1.962891 2.94336,2.96289 c -0.219158,-0.405745 -0.404291,-0.818455 -0.462891,-1.160156 -0.231007,-1.34704 -0.02908,-2.818922 0.669922,-4.044922 0.806,-1.535 2.78275,-2.716015 3.84375,-3.166015 0.011,-0.005 0.01834,-0.01548 0.02734,-0.02149 -0.457,-2.498999 -1.46175,-4.9148434 -2.96875,-6.9648434 -1.608,-2.15 -3.643078,-3.9502344 -5.830078,-5.4902344 z M 4.3672399,23.40039 C 4.1762727,23.670263 4.025443,23.873047 4.0254431,23.873047 l -0.9746094,0.992187 8.6562493,8.433594 h 2.19336 v -7.230469 l -3.447266,3.470703 z m 22.4179681,0 -6.085937,6.138672 -3.451172,-3.474609 v 7.234375 h 2.195313 l 8.654296,-8.433594 -0.972656,-0.992187 c 0,0 -0.149183,-0.203474 -0.339844,-0.472657 z"
     id="path65"
     style="fill:url(#radialGradient1595)" />
  <path
     fill="url(#rarity)"
     d="M 10.453177,5.6582031 4.8398962,11.3125 8.8008337,15.302734 6.8770055,17.226562 8.8008337,19.1875 4.8438024,23.171875 10.453177,28.830078 13.902396,25.357422 V 20.05664 l -2.792969,-2.814453 2.792969,-2.816406 V 9.1484375 Z m 10.244141,0 -3.447266,3.4902344 v 5.2773435 l 2.791016,2.816406 -2.791016,2.814453 v 5.300782 l 3.447266,3.472656 5.609375,-5.658203 L 22.349662,19.1875 24.27349,17.226562 22.349662,15.302734 26.312552,11.3125 Z M 10.457084,8.65625 13.095755,11.308594 10.453177,13.972656 7.8145055,11.3125 10.103568,9.0117187 Z m 10.236328,0 2.642578,2.65625 -2.638672,2.660156 -2.642578,-2.664062 2.285156,-2.2968753 z M 10.466849,20.511719 13.097708,23.179687 10.462943,25.828125 7.8203649,23.169922 10.11138,20.86914 Z m 10.216797,0 2.646484,2.658203 -2.642578,2.658203 -2.634766,-2.648438 2.277344,-2.308593 z"
     id="path67"
     style="fill:url(#radialGradient1209)" />
  <path
     fill="#FFFFFF"
     d="M 10.457084,9.3652343 8.5195837,11.3125 l 1.9335933,1.949219 1.9375,-1.953125 z m 10.236328,0 -1.933594,1.9433597 1.9375,1.953125 1.933594,-1.949219 z m -10.228516,11.8574217 -1.9394529,1.947266 1.9374999,1.949218 1.93164,-1.941406 z m 10.220703,0 -1.929687,1.955078 1.93164,1.941406 1.9375,-1.949218 z"
     id="path69" />
</svg>
