<?xml version="1.0" encoding="UTF-8" standalone="no"?>
<svg
   version="1.1"
   width="32.734375"
   height="36.744141"
   viewBox="0 0 32.734375 36.744141"
   id="svg4"
   xmlns="http://www.w3.org/2000/svg"
   xmlns:svg="http://www.w3.org/2000/svg">
  <defs>
    <!-- This is the gradient that will actually be used on
     the cards. The colors themselves will be provided by the
     template, but the x values, y values, and offsets will be
     used from the SVG. -->
    <linearGradient id="rarity" x1="0" y1="0" x2="1" y2="0">
      <stop offset="0" style="stop-color:rgb(192,55,38);stop-opacity:1" id="stop2" />
      <stop offset="0.125" style="stop-color:rgb(192,55,38);stop-opacity:1" id="stop4" />
      <stop offset="0.5" style="stop-color:rgb(241,142,30);stop-opacity:1" id="stop6" />
      <stop offset="0.875" style="stop-color:rgb(192,55,38);stop-opacity:1" id="stop8" />
      <stop offset="1" style="stop-color:rgb(192,55,38);stop-opacity:1" id="stop10" />
    </linearGradient>
    <!-- These gradients are here so that you can visualize
     what the set symbol would like like in that rarity. The
     only gradient that matters in the end is the "rarity"
     gradient. -->
    <linearGradient id="mythic" x1="0" y1="1" x2="1" y2="0">
      <stop offset="0" style="stop-color:rgb(192,55,38);stop-opacity:1"/>
      <stop offset="0.125" style="stop-color:rgb(192,55,38);stop-opacity:1"/>
      <stop offset="0.5" style="stop-color:rgb(241,142,30);stop-opacity:1"/>
      <stop offset="0.875" style="stop-color:rgb(192,55,38);stop-opacity:1"/>
      <stop offset="1" style="stop-color:rgb(192,55,38);stop-opacity:1"/>
    </linearGradient>
    <linearGradient id="rare" x1="0" y1="1" x2="1" y2="0">
      <stop offset="0" style="stop-color:rgb(146,116,67);stop-opacity:1"/>
      <stop offset="0.125" style="stop-color:rgb(146,116,67);stop-opacity:1"/>
      <stop offset="0.5" style="stop-color:rgb(211,178,108);stop-opacity:1"/>
      <stop offset="0.875" style="stop-color:rgb(146,116,67);stop-opacity:1"/>
      <stop offset="1" style="stop-color:rgb(146,116,67);stop-opacity:1"/>
    </linearGradient>
    <linearGradient id="special" x1="0" y1="1" x2="1" y2="0">
      <stop offset="0" style="stop-color:rgb(76, 56, 106);stop-opacity:1"/>
      <stop offset="0.125" style="stop-color:rgb(76, 56, 106);stop-opacity:1"/>
      <stop offset="0.5" style="stop-color:rgb(201, 173, 221);stop-opacity:1"/>
      <stop offset="0.875" style="stop-color:rgb(76, 56, 106);stop-opacity:1"/>
      <stop offset="1" style="stop-color:rgb(76, 56, 106);stop-opacity:1"/>
    </linearGradient>
    <linearGradient id="uncommon" x1="0" y1="1" x2="1" y2="0">
      <stop offset="0" style="stop-color:rgb(98,110,119);stop-opacity:1"/>
      <stop offset="0.125" style="stop-color:rgb(98,110,119);stop-opacity:1"/>
      <stop offset="0.5" style="stop-color:rgb(196,222,238);stop-opacity:1"/>
      <stop offset="0.875" style="stop-color:rgb(98,110,119);stop-opacity:1"/>
      <stop offset="1" style="stop-color:rgb(98,110,119);stop-opacity:1"/>
    </linearGradient>
    <linearGradient id="common" x1="0" y1="1" x2="1" y2="0">
      <stop offset="0" style="stop-color:rgb(0,0,0);stop-opacity:1"/>
    </linearGradient>
    <linearGradient
            id="rarity-outline" x1="0" y1="1" x2="0" y2="1">
      <stop offset="0" style="stop-color:rgb(0,0,0);stop-opacity:1"/>
    </linearGradient>
  </defs>
  <path fill="url(#rarity-outline)" d="m 9.5351563,0 -9.2441407,8.1699219 0.9921875,1.125 3.5703125,4.0410161 -2.9511719,2.603516 2.7363282,3.92578 L 0,24.234375 1.0234375,25.326171 c 2.0608582,2.198676 4.1251504,4.393616 6.1855469,6.589844 l 0.9921875,1.060547 3.4570311,-3.041016 4.746093,6.808594 4.705079,-6.779297 3.423828,3.011719 0.992187,-1.060547 c 2.060397,-2.196228 4.124689,-4.391168 6.185547,-6.589844 L 32.734375,24.234375 31.646484,23.208984 28.109375,19.876953 30.84375,15.9375 27.896484,13.328126 32.455078,8.1699219 31.330078,7.1777344 23.210937,0 18.662109,5.1484375 17.43164,4.0585937 16.464843,3.09375 15.408204,4.0253906 14.107421,5.1738281 Z m 6.8671867,14.748046 2.828125,2.529297 -2.830078,4.109375 -2.828124,-4.109375 z" />
  <path fill="url(#rarity)" d="m 2.4081875,8.3011875 6.996,-6.184 3.5590005,4.028 -6.9960005,6.1840005 z m 27.9289995,0 -3.559,4.0280005 -6.996,-6.1840005 3.559,-4.028 z M 2.1171875,24.300187 l 3.254,-3.066 5.3780005,7.504 -2.4470005,2.152 -6.185,-6.589 z m 28.4999995,0 -3.254,-3.066 -5.378,7.504001 2.447,2.152 6.185,-6.589 z m -2.07,-7.683999 -7.591,0.797999 -4.555,6.617001 -4.546999,-6.606001 -7.6480005,-0.804 12.1949995,17.496 z M 16.401187,5.1511875 4.2041875,15.908188 l 7.7390005,0.813999 4.458999,-3.985999 4.448,3.976999 7.692,-0.808999 -12.14,-10.7520005 z"/>
</svg>
