<?xml version="1.0" encoding="UTF-8" standalone="no"?>
<!-- Generated by IcoMoon.io -->

<svg
   version="1.1"
   width="28.5"
   height="32"
   viewBox="0 0 28.5 32"
   id="svg6"
   sodipodi:docname="znr.svg"
   inkscape:version="1.1.1 (3bf5ae0d25, 2021-09-20)"
   xmlns:inkscape="http://www.inkscape.org/namespaces/inkscape"
   xmlns:sodipodi="http://sodipodi.sourceforge.net/DTD/sodipodi-0.dtd"
   xmlns="http://www.w3.org/2000/svg"
   xmlns:svg="http://www.w3.org/2000/svg">
  <defs
     id="defs10" />
  <sodipodi:namedview
     id="namedview8"
     pagecolor="#ffffff"
     bordercolor="#666666"
     borderopacity="1.0"
     inkscape:pageshadow="2"
     inkscape:pageopacity="0.0"
     inkscape:pagecheckerboard="0"
     showgrid="false"
     inkscape:zoom="12.875"
     inkscape:cx="3.3009709"
     inkscape:cy="7.6504854"
     inkscape:window-width="1920"
     inkscape:window-height="1009"
     inkscape:window-x="-8"
     inkscape:window-y="-8"
     inkscape:window-maximized="1"
     inkscape:current-layer="svg6" />
  <title
     id="title2">znr</title>
  <path
     fill="#000000"
     d="M 0.291,6.184 7.287,0 10.846,4.028 3.85,10.212 Z m 27.929,0 -3.559,4.028 L 17.665,4.028 21.224,0 Z M 0,22.183 3.254,19.117 8.632,26.621 6.185,28.773 0,22.184 Z m 28.5,0 -3.254,-3.066 -5.378,7.504 2.447,2.152 6.185,-6.589 z M 26.43,14.499 18.839,15.297 14.284,21.914 9.737,15.308 2.089,14.504 14.284,32 Z M 14.284,3.034 2.087,13.791 l 7.739,0.814 4.459,-3.986 4.448,3.977 7.692,-0.809 -12.14,-10.752 z"
     id="path4" />
</svg>
