<?xml version="1.0" encoding="UTF-8" standalone="no"?>
<!-- Generated by IcoMoon.io -->

<svg
   version="1.1"
   width="28.249001"
   height="31.975868"
   viewBox="0 0 28.249001 31.975868"
   id="svg6"
   sodipodi:docname="c19.svg"
   inkscape:version="1.1.1 (3bf5ae0d25, 2021-09-20)"
   xmlns:inkscape="http://www.inkscape.org/namespaces/inkscape"
   xmlns:sodipodi="http://sodipodi.sourceforge.net/DTD/sodipodi-0.dtd"
   xmlns="http://www.w3.org/2000/svg"
   xmlns:svg="http://www.w3.org/2000/svg"
   xmlns:rdf="http://www.w3.org/1999/02/22-rdf-syntax-ns#"
   xmlns:cc="http://creativecommons.org/ns#"
   xmlns:dc="http://purl.org/dc/elements/1.1/">
  <defs
     id="defs10" />
  <sodipodi:namedview
     id="namedview8"
     pagecolor="#ffffff"
     bordercolor="#666666"
     borderopacity="1.0"
     inkscape:pageshadow="2"
     inkscape:pageopacity="0.0"
     inkscape:pagecheckerboard="0"
     showgrid="false"
     inkscape:zoom="12.875"
     inkscape:cx="2.368932"
     inkscape:cy="17.203883"
     inkscape:window-width="1920"
     inkscape:window-height="1009"
     inkscape:window-x="-8"
     inkscape:window-y="-8"
     inkscape:window-maximized="1"
     inkscape:current-layer="svg6" />
  <title
     id="title2">c19</title>
  <path
     fill="#000000"
     stroke="black"
     stroke-width="1"
     d="m 5.159,0.31886819 c 1.133,-0.228 2.291,-0.371 3.447,-0.301 -0.409,0.759 -0.669,1.63800001 -0.532,2.50400001 0.1,0.714 0.414,1.394 0.867,1.952 1.016,0.998 2.436,1.467 3.825,1.632 1.573,0.152 3.204,0.087 4.701,-0.465 0.904,-0.336 1.802,-0.88 2.246,-1.772 0.697,-1.175 0.623,-2.694 -0.08,-3.84700001 1.693,-0.099 3.381,0.225 5.002,0.684 1.239,0.36100001 2.449,0.82400001 3.614,1.37900001 -0.804,1.708 -1.44,3.492 -1.954,5.307 -0.74,2.6599998 -1.186,5.4149998 -1.149,8.1809998 -0.19823,2.870883 0.712259,5.681756 1.592,7.424 -1.267,1.355 -2.668,2.579 -4.101,3.755 -2.605,2.088 -5.423,3.961 -8.526,5.224 -3.397,-1.41 -6.47,-3.503 -9.276,-5.862 -1.168,-0.984 -2.286,-2.028 -3.353,-3.121 0.918,-1.952 1.408,-4.086 1.566,-6.232 0.1946891,-3.104727 0.019417,-3.825243 -0.317,-5.866 C 2.221,7.8508682 1.283,4.8818682 0,2.0768682 1.65,1.3108682 3.375,0.69186819 5.158,0.31986819 Z"
     />
</svg>
