<?xml version="1.0" encoding="UTF-8" standalone="no"?>
<!-- Generated by IcoMoon.io -->

<svg
   version="1.1"
   width="32.000374"
   height="24.627911"
   viewBox="0 0 32.000374 24.627911"
   id="svg6"
   sodipodi:docname="iko.svg"
   inkscape:version="1.1.1 (3bf5ae0d25, 2021-09-20)"
   xmlns:inkscape="http://www.inkscape.org/namespaces/inkscape"
   xmlns:sodipodi="http://sodipodi.sourceforge.net/DTD/sodipodi-0.dtd"
   xmlns="http://www.w3.org/2000/svg"
   xmlns:svg="http://www.w3.org/2000/svg">
  <defs
     id="defs10" />
  <sodipodi:namedview
     id="namedview8"
     pagecolor="#ffffff"
     bordercolor="#666666"
     borderopacity="1.0"
     inkscape:pageshadow="2"
     inkscape:pageopacity="0.0"
     inkscape:pagecheckerboard="0"
     showgrid="false"
     inkscape:zoom="25.75"
     inkscape:cx="15.980583"
     inkscape:cy="12.291262"
     inkscape:window-width="1920"
     inkscape:window-height="1009"
     inkscape:window-x="-8"
     inkscape:window-y="-8"
     inkscape:window-maximized="1"
     inkscape:current-layer="svg6" />
  <title
     id="title2">iko</title>
  <path
     fill="#000000"
     stroke="black"
     stroke-width="1"
     d="m 14.01,12.141881 c 0.809,-0.316 1.843,-0.526 2.574,0.082 0.503,0.341 0.588,0.987 0.626,1.544 0.079,1.679 0.895,3.314 2.223,4.35 0.679,-0.335 1.154,-0.95 1.63,-1.518 0.905,-1.071 1.409,-2.419 1.685,-3.777 0.139,-1.171 0.35,-2.361 0.931,-3.4019999 0.283,-0.441 0.684,-0.795 1.112,-1.089 -3.918,-0.297 -7.883,1.191 -10.782,3.8099999 z m -3.327,5.399 c -0.6,1.035 -1.493,1.847 -2.438,2.561 0.591,0.35 1.281,0.428 1.947,0.526 1.65,0.138 3.334,0.033 4.927,-0.439 0.997,-0.329 2.038,-0.6 2.915,-1.201 -0.595,-0.4 -1.304,-0.558 -1.942,-0.867 -0.725,-0.346 -1.422,-0.753 -2.071,-1.225 -0.771,-0.513 -1.381,-1.217 -2.029,-1.868 -0.484,0.813 -0.784,1.722 -1.31,2.513 z"
     />
</svg>
