<?xml version="1.0" encoding="UTF-8" standalone="no"?>
<!-- Generated by IcoMoon.io -->

<svg
   version="1.1"
   width="35.411869"
   height="31.668049"
   viewBox="0 0 35.411869 31.668049"
   id="svg6"
   xmlns="http://www.w3.org/2000/svg">
  <defs>
    <!-- This is the gradient that will actually be used on
     the cards. The colors themselves will be provided by the
     template, but the x values, y values, and offsets will be
     used from the SVG. -->
    <linearGradient id="rarity" x1="0" y1="1" x2="1" y2="0">
      <stop offset="0" style="stop-color:rgb(192,55,38);stop-opacity:1" id="stop2" />
      <stop offset="0.125" style="stop-color:rgb(192,55,38);stop-opacity:1" id="stop4" />
      <stop offset="0.5" style="stop-color:rgb(241,142,30);stop-opacity:1" id="stop6" />
      <stop offset="0.875" style="stop-color:rgb(192,55,38);stop-opacity:1" id="stop8" />
      <stop offset="1" style="stop-color:rgb(192,55,38);stop-opacity:1" id="stop10" />
    </linearGradient>
    <!-- These gradients are here so that you can visualize
     what the set symbol would like like in that rarity. The
     only gradient that matters in the end is the "rarity"
     gradient. -->
    <linearGradient id="mythic" x1="0" y1="1" x2="1" y2="0">
      <stop offset="0" style="stop-color:rgb(192,55,38);stop-opacity:1"/>
      <stop offset="0.125" style="stop-color:rgb(192,55,38);stop-opacity:1"/>
      <stop offset="0.5" style="stop-color:rgb(241,142,30);stop-opacity:1"/>
      <stop offset="0.875" style="stop-color:rgb(192,55,38);stop-opacity:1"/>
      <stop offset="1" style="stop-color:rgb(192,55,38);stop-opacity:1"/>
    </linearGradient>
    <linearGradient id="rare" x1="0" y1="1" x2="1" y2="0">
      <stop offset="0" style="stop-color:rgb(146,116,67);stop-opacity:1"/>
      <stop offset="0.125" style="stop-color:rgb(146,116,67);stop-opacity:1"/>
      <stop offset="0.5" style="stop-color:rgb(211,178,108);stop-opacity:1"/>
      <stop offset="0.875" style="stop-color:rgb(146,116,67);stop-opacity:1"/>
      <stop offset="1" style="stop-color:rgb(146,116,67);stop-opacity:1"/>
    </linearGradient>
    <linearGradient id="special" x1="0" y1="1" x2="1" y2="0">
      <stop offset="0" style="stop-color:rgb(76, 56, 106);stop-opacity:1"/>
      <stop offset="0.125" style="stop-color:rgb(76, 56, 106);stop-opacity:1"/>
      <stop offset="0.5" style="stop-color:rgb(201, 173, 221);stop-opacity:1"/>
      <stop offset="0.875" style="stop-color:rgb(76, 56, 106);stop-opacity:1"/>
      <stop offset="1" style="stop-color:rgb(76, 56, 106);stop-opacity:1"/>
    </linearGradient>
    <linearGradient id="uncommon" x1="0" y1="1" x2="1" y2="0">
      <stop offset="0" style="stop-color:rgb(98,110,119);stop-opacity:1"/>
      <stop offset="0.125" style="stop-color:rgb(98,110,119);stop-opacity:1"/>
      <stop offset="0.5" style="stop-color:rgb(196,222,238);stop-opacity:1"/>
      <stop offset="0.875" style="stop-color:rgb(98,110,119);stop-opacity:1"/>
      <stop offset="1" style="stop-color:rgb(98,110,119);stop-opacity:1"/>
    </linearGradient>
    <linearGradient id="common" x1="0" y1="1" x2="1" y2="0">
      <stop offset="0" style="stop-color:rgb(0,0,0);stop-opacity:1"/>
    </linearGradient>
    <linearGradient
            id="rarity-outline" x1="0" y1="1" x2="0" y2="1">
      <stop offset="0" style="stop-color:rgb(0,0,0);stop-opacity:1"/>
    </linearGradient>
  </defs>
  <path fill="#FFFFFF" d="m 17.728254,-1.6582031 -0.774688,1.31640622 -1.03217,1.75585938 c 0,0 -0.58939,1.0033263 -1.477728,2.1171875 -0.434989,0.5454194 -0.969154,1.1147061 -1.479966,1.5703125 -0.510813,0.4556064 -1.032732,0.7933059 -1.256069,0.8769531 l -0.0045,0.00195 -0.06269,0.023437 L 9.6343363,6.90625 C 9.4651835,6.958983 9.1833986,7.0322507 8.9357742,7.0898438 8.806066,7.1200118 8.6852291,7.1469068 8.595449,7.1660158 c -0.06049,0.012875 -0.067091,0.014289 -0.082843,0.017578 -0.035962,0.00114 -0.072802,0.00206 -0.1231439,0.00391 -0.1336616,0.00491 -0.3179792,0.011928 -0.5149657,0.017578 -0.3808407,0.010923 -0.8835316,-0.00967 -0.8440959,0 -0.016857,-0.00357 -0.031491,-0.00592 -0.04478,-0.00977 C 6.923081,7.1772172 6.8329638,7.1502393 6.7281386,7.1152344 6.5184882,7.0452246 6.2497029,6.9446404 6.0161426,6.8359375 5.53481,6.6119169 4.9831715,6.2338567 4.8787402,6.1269531 L 3.5577412,4.7773438 2.024039,5.9511719 l -0.00448,0.00391 c 0,0 -2.87933,2.3124123 -2.87933,6.3652341 0,1.69449 0.5458388,3.268687 1.2583075,4.623047 l 0.011195,0.02148 0.031346,0.05078 1.072472,1.728516 0.033585,0.04492 c 0.7099514,0.985943 1.4094261,1.709247 2.019561,2.283204 v 0.05664 l 0.24181,0.216797 0.2530049,0.226563 h 0.06717 c 1.4964057,1.262727 3.3286577,2.253703 5.0668146,2.914062 l 2.227786,1.142578 c 1.081005,0.666435 2.268762,1.631451 2.458403,1.841797 0.61928,0.687822 1.182862,1.827329 2.106881,3.160156 l 1.73297,2.496094 1.708343,-2.509765 c 0.910851,-1.336436 1.471224,-2.448234 2.100165,-3.144532 l 0.0023,-0.0039 c 2.73e-4,-3.04e-4 0.0042,-0.0016 0.0045,-0.002 0.188748,-0.209025 1.409549,-1.198343 2.514377,-1.875 l 2.044189,-1.052735 c 1.86738,-0.836256 3.91651,-1.78931 5.498938,-3.18164 l 0.0068,-0.0059 0.0045,-0.0039 c 0.633545,-0.567261 1.431861,-1.412026 2.21203,-2.48625 l 0.0068,-0.0078 0.03359,-0.05078 1.137403,-1.822265 0.02462,-0.04883 c 0.708378,-1.351739 1.25159,-2.921367 1.25159,-4.611329 0,-4.0530033 -2.87933,-6.3652339 -2.87933,-6.3652339 l -0.0045,-0.00392 -1.361301,-1.0429688 -1.327716,1.0644531 v 0.00195 c -0.818598,0.6575568 -2.023134,1.1878773 -2.317346,1.2363281 -0.644158,0.1060806 -1.103168,0.029722 -1.437426,-0.019531 0.0823,0.012127 -0.03509,-0.00612 -0.125383,-0.025391 -0.09045,-0.019264 -0.210176,-0.045785 -0.340484,-0.07617 -0.248811,-0.058017 -0.53284,-0.1329656 -0.700801,-0.1855471 l -2.006127,-0.9003907 -0.06269,-0.023437 -0.0023,-0.00195 C 23.188834,5.7834978 21.807378,4.6082709 20.947909,3.5234375 20.071653,2.4174126 19.501527,1.4277344 19.501527,1.4277344 Z" />
  <path fill="url(#rarity-outline)" d="m 17.719298,0 -1.03217,1.7558594 c 0,0 -0.613516,1.0437155 -1.53818,2.203125 -0.924666,1.1594095 -2.228829,2.381493 -3.103229,2.7089844 l -0.03582,0.013672 -2.0441894,0.9199219 C 9.5258284,7.743151 8.6994493,7.9192852 8.6155998,7.9316406 8.6984262,7.9194359 7.2170376,7.9986624 6.8579996,7.9453125 6.794321,7.9358504 6.1693124,7.7579477 5.610887,7.4980469 5.0524617,7.238146 4.4834951,6.8779393 4.2249576,6.6132812 L 3.470421,5.8417969 2.5972183,6.5097656 c 0,0 -2.5972183,2.0597393 -2.5972183,5.8105464 0,1.553014 0.5037476,3.02514 1.1799431,4.310547 l 0.017912,0.0293 1.0567991,1.703125 0.020151,0.02734 c 0.7616043,1.057675 1.5488083,1.893923 2.149422,2.431641 0,0 0.00224,0 0.00224,0 0,0 0,0.002 0,0.002 1.4943108,1.342917 3.5123239,2.411009 5.3354924,3.078125 0,0 0.00224,0 0.00224,0 0.00232,8.48e-4 0.0044,0.0031 0.00672,0.0039 -0.00108,-2.75e-4 -0.00755,-0.004 0.020151,0.0059 0.020355,0.0073 0.050894,0.01781 0.10971,0.0332 0.029409,0.0077 0.064594,0.01684 0.1164267,0.02539 0.05183,0.0085 0.214512,0.01758 0.214942,0.01758 H 9.9209259 l 1.9837381,1.017578 c 1.147427,0.704682 2.299072,1.609169 2.653193,2.001953 0.73194,0.812952 1.279302,1.953459 2.167334,3.234376 l 0.989629,1.425781 0.976196,-1.433594 c 0.879044,-1.289768 1.425079,-2.409772 2.162855,-3.226563 v -0.002 h 0.0023 c 0.357126,-0.39754 1.541544,-1.321484 2.713646,-2.037109 l 2.088969,-1.076172 c 1.867891,-0.835959 3.856784,-1.771279 5.324298,-3.0625 l 0.0023,-0.002 0.0045,-0.0039 c 0.586863,-0.525469 1.355542,-1.336873 2.102404,-2.365235 l 0.02015,-0.0293 1.110534,-1.779297 0.01567,-0.03125 c 0.672491,-1.283257 1.173226,-2.749864 1.173226,-4.298829 0,-3.7510049 -2.597219,-5.8105464 -2.597219,-5.8105464 l -0.774687,-0.59375 -0.759015,0.609375 c -0.920819,0.7396682 -2.083376,1.3136574 -2.740513,1.421875 -0.802537,0.1321622 -1.42483,0.03077 -1.739689,-0.015625 -0.08414,-0.012399 -0.915902,-0.1901745 -1.354582,-0.3320312 L 23.401832,6.6816406 23.366008,6.6679688 C 22.444611,6.3207818 21.154127,5.1025504 20.240391,3.9492188 19.326655,2.795887 18.733557,1.7636719 18.733557,1.7636719 Z" />
  <path fill="url(#rarity)" d="m 6.6660741,8.9309223 c -1.3527029,-0.201 -2.4738414,-0.81 -3.3129758,-1.669 0,0 -2.2067399,1.689 -2.2067399,5.0589997 0,1.361 0.4493725,2.7 1.0764305,3.892 3.1180949,-1.911 4.708094,-4.524 4.4432852,-7.2819997 z"/>
  <path fill="url(#rarity)" d="m 10.232395,22.988922 c -0.0034,0 -0.01032,-0.003 -0.01834,-0.006 -1.6943176,-0.619 -3.6259315,-1.65 -4.9671708,-2.856 -0.5319103,-0.476 -1.2850678,-1.273 -2.0015418,-2.268 4.3573083,-2.567 6.2075308,-5.296 5.5609846,-8.9409997 0.5089832,-0.075 1.0443325,-0.205 1.598024,-0.389 4.416919,3.5189997 4.008815,11.3329997 -0.170808,14.4599997 z"/>
  <path fill="url(#rarity)" d="m 22.912266,7.5859223 c -3.989328,-2.236 -5.204467,-5.374 -5.204467,-5.374 0,0 -1.21514,3.138 -5.209053,5.374 4.751656,4.7989997 4.134915,12.9409997 0.04815,16.5899997 1.222018,0.748 2.39245,1.637 2.91175,2.213 0.866647,0.962 1.576243,1.821 2.248009,3.335 0.668327,-1.514 1.377923,-2.373 2.246863,-3.335 0.527324,-0.587 1.727562,-1.491 2.972507,-2.249 -4.142939,-3.623 -4.7849,-11.731 -0.0149,-16.5539997 z"/>
  <path fill="url(#rarity)" d="m 26.609271,8.9179223 c -0.508983,-0.075 -1.044332,-0.205 -1.598023,-0.389 -4.443285,3.5349997 -4.161281,11.3979997 0.0642,14.5019997 0.04127,-0.016 0.08139,-0.032 0.12266,-0.048 1.697757,-0.619 3.629371,-1.65 4.97061,-2.856 0.520447,-0.466 1.25297,-1.238 1.954541,-2.204 -4.431821,-2.583 -6.174286,-5.331 -5.512837,-9.0059997 z"/>
  <path fill="url(#rarity)" d="m 32.059059,7.2609223 c -0.834549,0.86 -1.956833,1.465 -3.306097,1.669 -0.290029,2.7869997 1.270165,5.3469997 4.443285,7.2729997 0.623619,-1.19 1.069552,-2.525 1.069552,-3.883 0,-3.3699997 -2.207886,-5.0589997 -2.207886,-5.0589997 z"/>
</svg>
