<?xml version="1.0" encoding="UTF-8" standalone="no"?>
<svg
   version="1.1"
   width="24.695387"
   height="33.556507"
   viewBox="0 0 24.695387 33.556507"
   id="svg4"
   xmlns="http://www.w3.org/2000/svg"
   xmlns:svg="http://www.w3.org/2000/svg">
  <defs>
    <!-- This is the gradient that will actually be used on
     the cards. The colors themselves will be provided by the
     template, but the x values, y values, and offsets will be
     used from the SVG. -->
    <linearGradient id="rarity" x1="0" y1="1" x2="1" y2="0">
      <stop offset="0" style="stop-color:rgb(192,55,38);stop-opacity:1" id="stop2" />
      <stop offset="0.125" style="stop-color:rgb(192,55,38);stop-opacity:1" id="stop4" />
      <stop offset="0.5" style="stop-color:rgb(241,142,30);stop-opacity:1" id="stop6" />
      <stop offset="0.875" style="stop-color:rgb(192,55,38);stop-opacity:1" id="stop8" />
      <stop offset="1" style="stop-color:rgb(192,55,38);stop-opacity:1" id="stop10" />
    </linearGradient>
    <!-- These gradients are here so that you can visualize
     what the set symbol would like like in that rarity. The
     only gradient that matters in the end is the "rarity"
     gradient. -->
    <linearGradient id="mythic" x1="0" y1="1" x2="1" y2="0">
      <stop offset="0" style="stop-color:rgb(192,55,38);stop-opacity:1"/>
      <stop offset="0.125" style="stop-color:rgb(192,55,38);stop-opacity:1"/>
      <stop offset="0.5" style="stop-color:rgb(241,142,30);stop-opacity:1"/>
      <stop offset="0.875" style="stop-color:rgb(192,55,38);stop-opacity:1"/>
      <stop offset="1" style="stop-color:rgb(192,55,38);stop-opacity:1"/>
    </linearGradient>
    <linearGradient id="rare" x1="0" y1="1" x2="1" y2="0">
      <stop offset="0" style="stop-color:rgb(146,116,67);stop-opacity:1"/>
      <stop offset="0.125" style="stop-color:rgb(146,116,67);stop-opacity:1"/>
      <stop offset="0.5" style="stop-color:rgb(211,178,108);stop-opacity:1"/>
      <stop offset="0.875" style="stop-color:rgb(146,116,67);stop-opacity:1"/>
      <stop offset="1" style="stop-color:rgb(146,116,67);stop-opacity:1"/>
    </linearGradient>
    <linearGradient id="special" x1="0" y1="1" x2="1" y2="0">
      <stop offset="0" style="stop-color:rgb(76, 56, 106);stop-opacity:1"/>
      <stop offset="0.125" style="stop-color:rgb(76, 56, 106);stop-opacity:1"/>
      <stop offset="0.5" style="stop-color:rgb(201, 173, 221);stop-opacity:1"/>
      <stop offset="0.875" style="stop-color:rgb(76, 56, 106);stop-opacity:1"/>
      <stop offset="1" style="stop-color:rgb(76, 56, 106);stop-opacity:1"/>
    </linearGradient>
    <linearGradient id="uncommon" x1="0" y1="1" x2="1" y2="0">
      <stop offset="0" style="stop-color:rgb(98,110,119);stop-opacity:1"/>
      <stop offset="0.125" style="stop-color:rgb(98,110,119);stop-opacity:1"/>
      <stop offset="0.5" style="stop-color:rgb(196,222,238);stop-opacity:1"/>
      <stop offset="0.875" style="stop-color:rgb(98,110,119);stop-opacity:1"/>
      <stop offset="1" style="stop-color:rgb(98,110,119);stop-opacity:1"/>
    </linearGradient>
    <linearGradient id="common" x1="0" y1="1" x2="1" y2="0">
      <stop offset="0" style="stop-color:rgb(0,0,0);stop-opacity:1"/>
    </linearGradient>
    <linearGradient
            id="rarity-outline" x1="0" y1="1" x2="0" y2="1">
      <stop offset="0" style="stop-color:rgb(0,0,0);stop-opacity:1"/>
    </linearGradient>
  </defs>
  <path fill="#FFFFFF" d="M 4.0703125 -0.73828125 C 3.9853167 -0.74462417 3.867048 -0.74607484 3.734375 -0.72851562 C 3.4690292 -0.69339725 3.1468598 -0.57920781 2.9140625 -0.26367188 C 2.6453758 0.10050882 2.6817432 0.56547051 2.7714844 0.81054688 C 2.8612255 1.0556232 3.0058594 1.21875 3.0058594 1.21875 L 3.015625 1.2304688 L 3.5957031 1.8574219 C 3.8744839 2.1584333 4.1190697 2.6207541 4.1074219 2.9746094 C 4.0415268 4.9348326 3.3234498 7.2578665 2.0371094 8.4628906 L 1.3105469 6.8652344 L 0.10546875 9.8203125 C -0.52102129 11.358284 -0.75 13.334095 -0.75 15.876953 C -0.75 18.194662 -0.44200351 19.689455 0.43945312 20.947266 C 1.3052712 22.182761 2.4532387 23.041838 4.1699219 24.798828 L 4.1875 24.816406 C 5.9885607 26.659939 7.1671997 28.010758 7.2441406 29.589844 C 7.2805986 30.342055 7.1940936 31.118083 7.140625 31.787109 C 7.114877 32.10928 7.0822726 32.442565 7.1347656 32.830078 C 7.1573376 32.996671 7.2250037 33.338028 7.4414062 33.644531 C 7.759721 34.095376 8.1359534 34.298828 8.7050781 34.298828 L 9.3007812 34.298828 L 12.835938 30.535156 L 16.369141 34.298828 L 16.964844 34.298828 C 17.532887 34.298828 17.905998 34.09156 18.222656 33.648438 C 18.440771 33.343215 18.509742 33.002528 18.533203 32.837891 C 18.588213 32.4518 18.560106 32.117128 18.535156 31.791016 C 18.483526 31.117997 18.395726 30.336016 18.425781 29.576172 C 18.471541 28.427086 19.465829 26.673288 21.472656 24.544922 C 21.472656 24.544922 21.474609 24.542969 21.474609 24.542969 L 21.478516 24.539062 L 21.494141 24.523438 L 21.5 24.515625 C 23.757294 22.125931 25.445312 19.954019 25.445312 15.873047 C 25.445312 13.318277 25.175442 11.338669 24.556641 9.8183594 L 23.351562 6.8613281 L 22.625 8.4589844 C 21.337452 7.2533654 20.617401 4.9300184 20.552734 2.9707031 C 20.54187 2.6178429 20.787633 2.1532544 21.064453 1.8535156 C 21.131856 1.7923366 21.277325 1.6551284 21.435547 1.4238281 C 21.535969 1.2770251 21.643033 1.099398 21.699219 0.84570312 C 21.755399 0.59200824 21.728959 0.22143455 21.527344 -0.06640625 C 21.326521 -0.35311034 21.004848 -0.50081911 20.755859 -0.54492188 C 20.506871 -0.58902467 20.301674 -0.56521592 20.126953 -0.53320312 C 19.78517 -0.47058073 19.532937 -0.3491312 19.521484 -0.34375 C 17.656067 0.42951986 15.925117 2.5068954 15.320312 5.4980469 L 13.835938 6.9941406 C 13.565698 7.2666394 13.306435 7.5001736 13.099609 7.6699219 C 12.896039 7.8369985 12.706446 7.9500059 12.746094 7.9316406 C 12.746728 7.9313468 12.739534 7.9359069 12.740234 7.9355469 L 12.703125 7.9550781 C 11.494371 8.6198013 10.224599 9.444698 9.3632812 10.539062 L 9.3847656 10.519531 C 9.3173618 10.594306 9.2534387 10.6735 9.1738281 10.734375 L 8.8046875 10.884766 C 9.301633 9.8765981 9.6230469 8.7777339 9.6230469 7.6503906 C 9.6230469 3.4437971 7.4254857 0.59742095 5.1289062 -0.34765625 L 4.2558594 -0.70703125 L 4.2070312 -0.72070312 C 4.2070312 -0.72070312 4.1553084 -0.73193833 4.0703125 -0.73828125 z M 18.847656 15.824219 L 19.109375 16.152344 C 19.044615 17.020297 18.839509 17.847125 18.529297 18.322266 C 18.147814 18.906568 17.743581 19.0625 17.621094 19.0625 C 17.317541 19.0625 17.151895 19.010602 17.128906 19.007812 C 17.028966 18.657868 16.975123 18.181773 16.929688 17.619141 C 16.903997 17.305371 16.932487 17.197915 17.167969 16.908203 C 17.384328 16.64201 17.848564 16.281032 18.574219 15.949219 L 18.847656 15.824219 z M 9.5859375 19.447266 C 9.5478675 19.474646 9.5317994 19.483558 9.5214844 19.486328 L 9.4863281 19.451172 L 9.5859375 19.447266 z " />
  <path fill="url(#rarity-outline)" d="M 3.8378906 0.00390625 C 3.7368445 0.015721335 3.6126443 0.05864626 3.5175781 0.1875 C 3.3274456 0.44520748 3.5761719 0.73828125 3.5761719 0.73828125 L 4.1464844 1.3554688 C 4.5149796 1.7533428 4.8787842 2.3568852 4.8574219 3.0058594 C 4.7830654 5.2298807 4.0649246 8.0102045 2.2988281 9.3652344 C 1.980464 9.6096057 1.8936338 9.6381559 1.7714844 9.703125 L 1.3476562 8.7695312 L 0.80078125 10.111328 C 0.23674148 11.49599 0 13.38934 0 15.884766 C 0 18.140684 0.27880196 19.419061 1.0527344 20.523438 C 1.8266668 21.627814 2.9615467 22.494782 4.7070312 24.28125 L 4.7089844 24.28125 C 6.5296356 26.143801 7.9005253 27.639246 7.9941406 29.560547 C 8.0344746 30.392727 7.9403626 31.206738 7.8886719 31.853516 C 7.8628269 32.176906 7.8401762 32.450421 7.8789062 32.736328 C 7.8982753 32.879281 7.9266442 33.037395 8.0546875 33.21875 C 8.1827307 33.400104 8.4725529 33.556641 8.7050781 33.556641 L 8.9765625 33.556641 L 12.835938 29.447266 L 16.693359 33.556641 L 16.964844 33.556641 C 17.197369 33.556641 17.48472 33.400607 17.613281 33.220703 C 17.741842 33.040799 17.770619 32.883371 17.791016 32.740234 C 17.831806 32.45396 17.811969 32.179764 17.787109 31.855469 C 17.737349 31.206881 17.642729 30.390299 17.675781 29.554688 C 17.735651 28.051289 18.872756 26.215287 20.933594 24.03125 L 20.941406 24.021484 L 20.943359 24.019531 L 20.945312 24.017578 L 20.949219 24.015625 C 23.189963 21.644254 24.695312 19.77273 24.695312 15.880859 C 24.695312 13.38081 24.421687 11.4861 23.861328 10.109375 L 23.314453 8.765625 L 22.890625 9.6992188 C 22.768328 9.6345997 22.681645 9.6056992 22.363281 9.3613281 C 20.597106 8.0062373 19.876124 5.2275188 19.802734 3.0039062 C 19.781374 2.3549321 20.145177 1.7494366 20.513672 1.3515625 C 20.513672 1.3515625 21.187593 0.76438729 20.912109 0.37109375 C 20.636625 -0.02219979 19.818359 0.34960937 19.818359 0.34960938 C 17.866953 1.1526428 15.789062 3.7131357 15.789062 7.65625 C 15.789062 8.7587791 16.111361 9.8270558 16.621094 10.763672 C 16.525464 10.788762 16.437492 10.775267 16.337891 10.804688 C 15.879687 10.940008 15.411802 11.124144 15.023438 11.337891 C 14.816582 11.451704 14.623318 11.488859 14.451172 11.554688 C 14.466512 11.463907 14.464867 11.37455 14.498047 11.292969 C 14.904887 10.291665 15.516309 9.2350253 15.4375 7.9316406 L 15.353516 6.5371094 L 14.369141 7.5292969 C 13.792393 8.1108671 13.263837 8.5240198 13.066406 8.6191406 L 13.064453 8.6191406 L 13.064453 8.6210938 C 11.438845 9.4087121 10.578071 10.202967 9.953125 11.009766 C 8.4175505 12.014378 7.4126032 13.68371 6.203125 15.712891 C 5.693157 16.568762 5.7274063 17.594304 6.0839844 18.382812 C 6.3358516 18.939802 6.8357608 19.608036 7.5175781 20.175781 C 6.154013 19.639321 4.8145296 18.133694 4.7363281 15.986328 L 7.8457031 12.085938 L 5.640625 12.974609 C 5.2962726 13.113539 5.0845935 13.075122 5.0039062 13.035156 C 4.9232192 12.995186 4.8964844 12.981986 4.8964844 12.818359 C 4.8964844 12.732419 5.0137874 12.34989 5.3496094 12.080078 C 5.6854313 11.810265 6.221019 11.592696 7.1132812 11.708984 L 7.4726562 11.755859 L 7.6914062 11.466797 C 8.4848844 10.424703 8.8730469 9.0308684 8.8730469 7.6582031 C 8.8730469 3.7150888 6.7951566 1.156549 4.84375 0.35351562 L 4.015625 0.01171875 C 4.015625 0.01171875 3.9389367 -0.007908835 3.8378906 0.00390625 z M 17.929688 11.785156 C 18.514056 11.797046 19.049179 11.866566 19.3125 12.078125 C 19.648322 12.347937 19.765625 12.728511 19.765625 12.814453 C 19.765625 12.978079 19.738815 12.993234 19.658203 13.033203 C 19.577593 13.073173 19.365661 13.111886 19.021484 12.972656 L 17.494141 12.355469 C 17.655327 12.166487 17.758494 11.960848 17.929688 11.785156 z M 17.267578 12.650391 L 18.472656 14.160156 L 18.115234 14.09375 C 17.487511 13.976354 17.081304 13.70301 16.677734 13.423828 C 16.84883 13.159441 17.059337 12.912156 17.267578 12.650391 z M 19.068359 14.90625 L 19.916016 15.970703 C 19.881986 17.053237 19.604674 18.056391 19.158203 18.740234 C 18.685575 19.46414 18.108761 19.820312 17.621094 19.820312 C 17.215914 19.820312 16.914325 19.766243 16.744141 19.683594 C 16.574445 19.601184 16.493727 19.528213 16.414062 19.263672 L 16.414062 19.261719 C 16.277773 18.803989 16.22857 18.268622 16.181641 17.6875 C 16.143081 17.216479 16.26204 16.841854 16.585938 16.443359 C 16.909831 16.044864 17.464669 15.63985 18.261719 15.275391 L 19.068359 14.90625 z M 9.5957031 18.789062 C 9.8064592 18.797763 9.9245395 18.858132 10.005859 18.943359 C 10.087179 19.028589 10.160156 19.164946 10.160156 19.443359 C 10.160156 19.741682 10.038501 19.893958 9.8339844 20.052734 L 9.6191406 19.902344 C 9.3383931 19.706327 9.1138526 19.336612 9.1269531 18.966797 L 9.1269531 18.964844 C 9.1318431 18.845539 9.1394776 18.858129 9.1503906 18.849609 C 9.1614816 18.840909 9.2766831 18.775672 9.5957031 18.789062 z " />
  <path fill="url(#rarity)" d="m 20.494,23.5856 c 2.23,-2.36 3.576,-3.962 3.576,-7.704 0,-2.453 -0.277,-4.284 -0.787,-5.537 -0.091,0.2 -0.32,0.266 -1.301,-0.4869997 -2.015,-1.546 -2.726,-4.501 -2.803,-6.834 -0.029,-0.881 0.438,-1.622 0.877,-2.09600001 -1.65,0.67900001 -3.642,3.00800001 -3.642,6.72800001 0,1.25 0.368,2.5289997 1.054,3.4299997 2.064,-0.269 2.922,1.039 2.922,1.729 0,0.719 -0.676,1.112 -1.603,0.737 l 1.799,2.256 c 0,2.55 -1.425,4.637 -2.965,4.637 -0.901,0 -1.564,-0.196 -1.806,-1.003 -0.162,-0.543 -0.209,-1.122 -0.256,-1.704 -0.102,-1.246 0.734,-2.249 2.442,-3.03 -0.909,-0.17 -1.699,-0.484 -2.257,-1.079 0.442,-0.817 1.107,-1.673 1.826,-2.392 -0.485,-0.055 -1.581,0.283 -2.246,0.649 -0.478,0.263 -0.818,0.381 -1.361,0.516 -0.225,-0.261 -0.243,-0.855 -0.044,-1.344 0.425,-1.046 0.959,-2.0129997 0.894,-3.0879997 -0.598,0.603 -1.119,1.041 -1.476,1.213 -1.612,0.781 -2.362,1.5039997 -2.95,2.2829997 -1.419,0.885 -2.412,2.496 -3.647,4.568 -0.373,0.626 -0.352,1.505 -0.087,2.091 0.402,0.889 1.029,2.06 2.608,2.29 -0.444,-0.31 -0.781,-0.86 -0.758,-1.473 0.019,-0.488 0.309,-0.811 1.119,-0.777 0.681,0.028 1.163,0.473 1.163,1.279 0,1.039 -0.947,1.593 -2.195,1.613 -2.074,0.034 -4.514,-2.096 -4.514,-5.246 l 1.799,-2.256 c -0.927,0.374 -1.603,-0.018 -1.603,-0.737 0,-0.69 0.858,-1.998 2.922,-1.729 0.686,-0.901 1.054,-2.1799997 1.054,-3.4299997 0,-3.72 -1.992,-6.049 -3.642,-6.72800001 0.439,0.47400001 0.906,1.21500001 0.877,2.09600001 -0.078,2.333 -0.788,5.288 -2.803,6.834 C 1.699,10.6136 1.47,10.5476 1.379,10.3476 c -0.51,1.252 -0.754,3.083 -0.754,5.537 0,4.418 0.995,4.342 4.53,7.96 1.825,1.867 3.357,3.49 3.464,5.686 0.087,1.795 -0.4,3.4 0.087,3.4 l 4.129,-4.398 4.129,4.398 c 0.487,0 0.016,-1.605 0.087,-3.4 0.071,-1.783 1.332,-3.711 3.44,-5.942 z"/>
</svg>
