<?xml version="1.0" encoding="UTF-8" standalone="no"?>
<svg
   version="1.1"
   width="30.463015"
   height="35.809906"
   viewBox="0 0 30.463015 35.809906"
   id="svg4"
   xmlns="http://www.w3.org/2000/svg"
   xmlns:svg="http://www.w3.org/2000/svg">
  <defs>
    <!-- This is the gradient that will actually be used on
     the cards. The colors themselves will be provided by the
     template, but the x values, y values, and offsets will be
     used from the SVG. -->
    <linearGradient id="rarity" x1="0" y1="0" x2="1" y2="0">
      <stop offset="0" style="stop-color:rgb(192,55,38);stop-opacity:1" id="stop2" />
      <stop offset="0.125" style="stop-color:rgb(192,55,38);stop-opacity:1" id="stop4" />
      <stop offset="0.5" style="stop-color:rgb(241,142,30);stop-opacity:1" id="stop6" />
      <stop offset="0.875" style="stop-color:rgb(192,55,38);stop-opacity:1" id="stop8" />
      <stop offset="1" style="stop-color:rgb(192,55,38);stop-opacity:1" id="stop10" />
    </linearGradient>
    <!-- These gradients are here so that you can visualize
     what the set symbol would like like in that rarity. The
     only gradient that matters in the end is the "rarity"
     gradient. -->
    <linearGradient id="mythic" x1="0" y1="1" x2="1" y2="0">
      <stop offset="0" style="stop-color:rgb(192,55,38);stop-opacity:1"/>
      <stop offset="0.125" style="stop-color:rgb(192,55,38);stop-opacity:1"/>
      <stop offset="0.5" style="stop-color:rgb(241,142,30);stop-opacity:1"/>
      <stop offset="0.875" style="stop-color:rgb(192,55,38);stop-opacity:1"/>
      <stop offset="1" style="stop-color:rgb(192,55,38);stop-opacity:1"/>
    </linearGradient>
    <linearGradient id="rare" x1="0" y1="1" x2="1" y2="0">
      <stop offset="0" style="stop-color:rgb(146,116,67);stop-opacity:1"/>
      <stop offset="0.125" style="stop-color:rgb(146,116,67);stop-opacity:1"/>
      <stop offset="0.5" style="stop-color:rgb(211,178,108);stop-opacity:1"/>
      <stop offset="0.875" style="stop-color:rgb(146,116,67);stop-opacity:1"/>
      <stop offset="1" style="stop-color:rgb(146,116,67);stop-opacity:1"/>
    </linearGradient>
    <linearGradient id="special" x1="0" y1="1" x2="1" y2="0">
      <stop offset="0" style="stop-color:rgb(76, 56, 106);stop-opacity:1"/>
      <stop offset="0.125" style="stop-color:rgb(76, 56, 106);stop-opacity:1"/>
      <stop offset="0.5" style="stop-color:rgb(201, 173, 221);stop-opacity:1"/>
      <stop offset="0.875" style="stop-color:rgb(76, 56, 106);stop-opacity:1"/>
      <stop offset="1" style="stop-color:rgb(76, 56, 106);stop-opacity:1"/>
    </linearGradient>
    <linearGradient id="uncommon" x1="0" y1="1" x2="1" y2="0">
      <stop offset="0" style="stop-color:rgb(98,110,119);stop-opacity:1"/>
      <stop offset="0.125" style="stop-color:rgb(98,110,119);stop-opacity:1"/>
      <stop offset="0.5" style="stop-color:rgb(196,222,238);stop-opacity:1"/>
      <stop offset="0.875" style="stop-color:rgb(98,110,119);stop-opacity:1"/>
      <stop offset="1" style="stop-color:rgb(98,110,119);stop-opacity:1"/>
    </linearGradient>
    <linearGradient id="common" x1="0" y1="1" x2="1" y2="0">
      <stop offset="0" style="stop-color:rgb(0,0,0);stop-opacity:1"/>
    </linearGradient>
    <linearGradient
            id="rarity-outline" x1="0" y1="1" x2="0" y2="1">
      <stop offset="0" style="stop-color:rgb(0,0,0);stop-opacity:1"/>
    </linearGradient>
  </defs>
  <path fill="#FFFFFF" d="M 15.271484 -0.5 A 0.50005 0.50005 0 0 0 14.785156 -0.11914062 L 14.054688 2.8457031 C 13.536222 4.9509197 13.193536 7.355329 13.007812 9.4707031 C 12.862345 11.127567 12.891945 12.30452 12.960938 13.365234 C 12.77101 13.25254 12.520905 13.232778 12.341797 12.982422 C 11.992546 12.49424 11.662826 11.670201 11.320312 10.740234 C 10.608142 8.8037751 9.6480087 6.1895085 6.8671875 4.5546875 C 6.017626 4.0542609 5.0496569 3.7910156 4.0644531 3.7910156 C 2.7313358 3.7910156 1.4222419 4.2375669 0.5390625 5.1777344 C 0.4829787 5.2370234 0.42344767 5.3052213 0.36328125 5.3808594 A 0.50005 0.50005 0 0 0 0.29882812 5.484375 L -0.45507812 7.1445312 A 0.50005 0.50005 0 0 0 0.14648438 7.8300781 L 1.6425781 7.3730469 C 2.1536908 7.2486053 2.5887943 7.1933594 2.9609375 7.1933594 C 4.1488936 7.1933594 4.5497044 7.534874 5.0703125 8.3417969 C 5.5705642 9.1171682 5.9466713 10.383226 6.3085938 11.71875 C 6.9075086 13.928539 7.7691158 16.653881 9.9648438 18.574219 C 9.4547577 18.517006 8.622533 18.533947 8.359375 18.390625 C 7.2982167 17.812883 7.2562857 17.431422 7.046875 16.861328 L 7.0449219 16.855469 C 7.029847 16.813597 7.0147703 16.775707 7.0019531 16.742188 C 6.677196 15.893516 5.5255363 15.673364 4.9121094 16.34375 C 4.5832957 16.70339 4.2662293 17.24318 3.9257812 18.164062 C 3.8258722 18.433124 3.688048 18.565111 3.4375 18.802734 C 3.2976095 18.934704 3.1330654 19.078722 2.9746094 19.316406 C 2.7662624 19.628926 2.6953125 19.940763 2.6953125 20.253906 C 2.6953125 20.594524 2.7765655 20.930886 2.9355469 21.230469 C 3.0748778 21.493025 3.2303566 21.673466 3.3691406 21.847656 A 0.50005 0.50005 0 0 0 3.3710938 21.855469 C 3.4863907 21.999589 3.588878 22.129604 3.6796875 22.267578 A 0.50005 0.50005 0 0 0 3.6835938 22.273438 C 3.7366328 22.352998 3.8547555 22.56818 3.9824219 22.810547 A 0.50005 0.50005 0 0 0 3.984375 22.814453 C 4.101292 23.036023 4.390701 23.712603 4.8984375 24.255859 C 5.5200857 24.920521 6.6707913 24.686365 6.984375 23.832031 C 7.006569 23.771371 7.0252021 23.720035 7.0332031 23.697266 A 0.50005 0.50005 0 0 0 7.0351562 23.6875 C 7.0346506 23.689 7.0364425 23.685934 7.0390625 23.677734 C 7.154571 23.340447 7.2423256 23.062089 7.4101562 22.830078 C 7.5798938 22.595431 7.8325245 22.372909 8.390625 22.175781 A 0.50005 0.50005 0 0 0 8.3925781 22.175781 C 9.1017745 21.925188 9.949074 21.787109 10.908203 21.787109 C 11.893528 21.787109 12.726614 21.979056 13.007812 22.050781 C 13.014513 22.080221 13.050641 22.157857 13.050781 22.175781 C 13.051182 22.227291 13.026341 22.331908 12.962891 22.568359 C 12.935081 22.670341 12.900791 22.791806 12.869141 22.933594 C 12.761992 23.414847 12.999626 23.863791 13.378906 24.154297 C 13.366776 24.190827 13.358367 24.220507 13.341797 24.265625 C 13.280737 24.431861 13.188645 24.645963 13.082031 24.824219 C 12.85585 25.202384 12.487852 25.58182 12.300781 25.6875 C 11.642585 26.060766 11.466733 26.956842 11.935547 27.550781 C 12.058343 27.706125 12.165581 27.777617 12.279297 27.873047 C 12.206607 27.936677 12.221247 27.944127 12.09375 28.033203 C 11.926318 28.149092 11.715324 28.294753 11.496094 28.488281 C 10.996388 28.929679 10.933289 29.700747 11.355469 30.216797 A 0.50005 0.50005 0 0 0 11.355469 30.21875 C 11.590691 30.505026 11.821852 30.827106 11.900391 31.017578 C 12.002824 31.265996 12.017687 31.168571 11.910156 31.367188 C 11.619651 31.90324 11.76342 32.580597 12.246094 32.953125 C 12.703608 33.306511 13.198344 33.597018 13.646484 33.845703 C 13.706074 34.067388 13.750446 34.292434 13.775391 34.576172 L 13.773438 34.544922 C 13.775538 34.743034 13.820677 34.894685 13.867188 35.078125 A 0.50005 0.50005 0 0 0 13.871094 35.091797 C 13.987763 35.50493 14.207112 35.881495 14.574219 36.117188 C 14.885055 36.316753 15.320112 36.257046 15.707031 36.103516 A 0.50005 0.50005 0 0 0 15.75 36.103516 C 15.80481 36.079426 15.860036 36.133812 15.912109 36.101562 A 0.50005 0.50005 0 0 0 16.001953 36.029297 L 16.003906 36.027344 A 0.50005 0.50005 0 0 0 16.03125 35.996094 C 16.04829 35.975954 16.064378 35.954724 16.080078 35.933594 A 0.50005 0.50005 0 0 0 16.09375 35.925781 C 16.226084 35.759839 16.225159 35.748133 16.113281 35.888672 C 16.197711 35.779264 16.254569 35.652125 16.298828 35.521484 L 16.304688 35.511719 C 16.309687 35.496409 16.321732 35.48427 16.326172 35.46875 A 0.50005 0.50005 0 0 0 16.328125 35.458984 A 0.50005 0.50005 0 0 0 16.330078 35.455078 C 17.048301 34.343065 17.391983 33.016302 17.533203 31.613281 C 17.669531 30.258868 17.63571 28.876887 17.611328 27.585938 C 17.682398 27.585929 17.816905 27.589242 18.001953 27.544922 C 18.927813 27.320776 19.264431 26.112041 18.587891 25.441406 C 18.3662 25.222386 18.156256 25.053302 17.976562 24.910156 C 17.638257 24.639657 17.459161 24.377369 17.261719 24.021484 C 17.315249 23.967204 17.3944 23.942624 17.4375 23.878906 A 0.50005 0.50005 0 0 0 17.480469 23.804688 C 17.611763 23.51245 17.602314 23.19398 17.601562 23.232422 C 17.603562 23.130642 17.597197 23.045514 17.591797 22.978516 C 17.580157 22.833525 17.561391 22.705343 17.550781 22.625 C 17.550666 22.624124 17.550895 22.621994 17.550781 22.621094 A 0.50005 0.50005 0 0 0 17.550781 22.619141 A 0.50005 0.50005 0 0 0 17.550781 22.617188 C 17.516681 22.362353 17.547183 22.18597 17.564453 21.994141 C 17.748302 21.973361 17.925502 21.955851 18.119141 21.931641 C 18.896126 21.833771 19.730892 21.732422 20.490234 21.732422 C 21.168091 21.732422 21.664672 21.810622 22.03125 21.935547 C 22.746209 22.179718 23.082227 22.446836 23.287109 22.705078 C 23.491992 22.96332 23.579223 23.247306 23.708984 23.605469 A 0.50005 0.50005 0 0 0 23.714844 23.617188 C 23.739144 23.682288 23.777184 23.783608 23.824219 23.896484 C 24.186084 24.767842 25.412735 24.923021 25.978516 24.167969 A 0.50005 0.50005 0 0 0 25.978516 24.166016 C 26.296027 23.741619 26.396515 23.349543 26.445312 23.224609 A 0.50005 0.50005 0 0 0 26.447266 23.21875 C 26.56421 22.922784 26.686351 22.649319 26.773438 22.521484 C 26.867838 22.384361 27.000142 22.244136 27.169922 22.070312 L 27.171875 22.068359 A 0.50005 0.50005 0 0 0 27.175781 22.064453 C 27.353559 21.883743 27.562563 21.681226 27.746094 21.373047 C 27.952739 21.026057 28.046934 20.626012 28.041016 20.230469 A 0.50005 0.50005 0 0 0 28.041016 20.228516 C 28.026716 19.324313 27.41834 18.82815 27.208984 18.595703 A 0.50005 0.50005 0 0 0 27.203125 18.589844 A 0.50005 0.50005 0 0 0 27.0625 18.482422 C 27.0594 18.480822 27.061999 18.481851 27.070312 18.486328 L 27.203125 18.589844 C 26.980876 18.346585 26.836621 18.1623 26.773438 18.033203 A 0.50005 0.50005 0 0 0 26.757812 18.011719 C 26.466106 17.197609 26.241893 16.714111 25.945312 16.373047 C 25.384953 15.728667 24.316759 15.842559 23.90625 16.591797 C 23.84066 16.711201 23.789357 16.818494 23.753906 16.890625 C 23.749406 16.898925 23.746547 16.903481 23.748047 16.900391 C 23.748047 16.900391 23.748047 16.902344 23.748047 16.902344 A 0.50005 0.50005 0 0 0 23.744141 16.910156 C 23.525392 17.359479 23.326514 17.738765 22.935547 18.041016 C 22.563951 18.327391 22.295936 18.495476 21.783203 18.623047 C 21.451791 18.705507 20.746689 18.720647 20.136719 18.751953 C 22.658577 16.772974 23.603425 13.870234 24.21875 11.525391 C 24.573617 10.172711 24.931585 8.9448444 25.392578 8.2265625 C 25.876804 7.4720832 26.214841 7.1796876 27.369141 7.1796875 C 27.741821 7.1796875 28.194466 7.2433775 28.726562 7.3789062 L 30.273438 8.0117188 A 0.50005 0.50005 0 0 0 30.919922 7.3457031 L 30.097656 5.4941406 A 0.50005 0.50005 0 0 0 30.029297 5.3828125 C 29.989047 5.3331695 29.941597 5.2757872 29.886719 5.2167969 C 28.968185 4.2211004 27.593515 3.7089844 26.201172 3.7089844 C 25.499876 3.7089844 24.814429 3.8530269 24.191406 4.1484375 C 20.989325 5.6660061 19.949809 8.5173896 19.208984 10.595703 C 18.861651 11.570027 18.524521 12.43523 18.160156 12.9375 C 17.953495 13.222378 17.65054 13.252154 17.408203 13.367188 C 17.521277 10.998577 17.403103 6.5996914 16.484375 2.8476562 L 15.757812 -0.11914062 A 0.50005 0.50005 0 0 0 15.271484 -0.5 z " />
  <path fill="url(#rarity-outline)" d="m 15.271485,0 -0.730469,2.9648437 c -0.50954,2.0689774 -0.85126,4.454265 -1.035157,6.5488281 -0.177751,2.0245772 -0.206944,3.6638022 -0.0625,4.6894532 -0.704978,-0.09545 -1.120767,-0.388678 -1.507812,-0.929688 -0.411881,-0.575725 -0.739901,-1.4271 -1.083984,-2.361328 C 10.139476,8.975873 9.2381868,6.5294876 6.6132813,4.9863281 5.8405257,4.5311433 4.9603104,4.2910156 4.0644531,4.2910156 c -1.2212121,0 -2.3957076,0.413448 -3.1621093,1.2304687 -0.048908,0.051703 -0.099652,0.1085913 -0.1484375,0.1699219 L 0,7.3515625 1.5195313,6.8867187 C 2.063827,6.7538736 2.5398124,6.6933593 2.9609375,6.6933593 c 1.3139337,0 1.9612964,0.4965738 2.5292969,1.3769531 0.5680005,0.8803794 0.9377604,2.1780016 1.3007813,3.5175786 0.7243079,2.672446 1.6623125,5.980731 4.9160153,7.685546 -1.794229,-0.01241 -2.8657698,-0.05114 -3.5859372,-0.443359 -1.1660875,-0.63487 -1.342917,-1.252768 -1.5449219,-1.800781 -0.01301,-0.03644 -0.02721,-0.07327 -0.041016,-0.109375 C 6.335805,16.398968 5.6577998,16.270126 5.28125,16.68164 5.0132392,16.974777 4.7217959,17.452667 4.3945313,18.33789 4.2558539,18.711358 4.0340829,18.926225 3.78125,19.166015 3.6330722,19.305803 3.5142264,19.408348 3.390625,19.59375 c -0.1239097,0.185864 -0.1953125,0.476869 -0.1953125,0.660156 0,0.248588 0.068633,0.529237 0.1816406,0.742187 0.1130076,0.212952 0.2401398,0.363252 0.3847657,0.544922 v 0.002 c 0.1157372,0.144671 0.2295049,0.287507 0.3359375,0.449218 6.472e-4,0.0013 0.0013,0.0026 0.00195,0.0039 0.08184,0.12276 0.197307,0.33739 0.3261719,0.582032 v 0.002 c 0.1408177,0.266864 0.4097953,0.87594 0.8378906,1.333984 0.3816403,0.408047 1.0594388,0.270584 1.2519531,-0.253906 0.018695,-0.0511 0.033538,-0.09651 0.044922,-0.128906 6.591e-4,-0.002 0.00131,-0.0039 0.00195,-0.0059 0.2244297,-0.654252 0.4001473,-1.374573 1.6621094,-1.820312 6.51e-4,1e-6 0.0013,1e-6 0.00195,0 0.772059,-0.272806 1.6744677,-0.417969 2.6816407,-0.417969 1.153151,0 2.206313,0.228592 2.470703,0.314453 0.245997,0.51629 0.189053,0.638643 0.06641,1.095703 -0.02789,0.102294 -0.05912,0.216823 -0.08789,0.345704 -0.07744,0.347819 0.100525,0.702111 0.425781,0.847656 0.113083,0.05048 0.108236,0.06764 0.117188,0.08594 0.009,0.01829 0.01978,0.06521 0.01563,0.134766 -0.0013,0.01449 -0.142732,0.531422 -0.404297,0.96875 -0.262015,0.438079 -0.637903,0.858274 -0.964844,1.042969 -0.399796,0.226726 -0.503513,0.756421 -0.21875,1.117187 0.156198,0.197599 0.31703,0.31953 0.466797,0.435547 0.112137,0.08741 0.161322,0.138381 0.208984,0.189453 -0.08612,0.158368 -0.276013,0.335664 -0.623047,0.578125 -0.168915,0.116923 -0.362091,0.249751 -0.554687,0.419922 -0.302199,0.266937 -0.339295,0.725026 -0.08398,1.037109 0.243131,0.295901 0.499138,0.630017 0.621093,0.925782 0.121956,0.295764 0.146341,0.483842 -0.01367,0.779297 -0.175307,0.323484 -0.0901,0.726367 0.201172,0.951171 0.49633,0.383528 1.073431,0.734256 1.544922,0.984375 0.10732,0.318725 0.146929,0.641777 0.177735,0.992188 -3e-6,0.0013 -3e-6,0.0026 0,0.0039 8.42e-4,0.113509 0.03125,0.233073 0.07813,0.417969 0.182478,0.646166 0.699549,1.090065 1.296875,0.720703 l 0.002,-0.002 c 0.01742,-0.02059 0.03372,-0.04211 0.04883,-0.06445 l 0.0039,0.0039 c 0.0063,-0.0079 0.0074,-0.01943 0.01367,-0.02734 0.05879,-0.07563 0.102544,-0.161816 0.128906,-0.253906 6.65e-4,-0.0026 0.0013,-0.0052 0.002,-0.0078 0.713428,-1.036069 1.044973,-2.345717 1.1875,-3.761719 0.150556,-1.495766 0.116808,-3.08731 0.08789,-4.513672 0.152101,0.0216 0.296699,0.04297 0.435547,0.04297 0.06577,0 0.175393,0.0029 0.326172,-0.0332 0.57052,-0.13812 0.76845,-0.848469 0.351562,-1.261718 -0.200633,-0.198216 -0.394212,-0.354255 -0.572265,-0.496094 -0.437926,-0.350152 -0.764619,-0.649788 -1.044922,-1.308594 0.02673,-0.01379 0.05922,-0.02714 0.08203,-0.04102 0.0089,-0.0054 0.01513,-0.01023 0.02344,-0.01563 0,0 -0.03059,-0.05164 -0.03711,-0.0625 0.136433,-0.05613 0.253286,-0.151239 0.335938,-0.273438 0.102638,-0.228454 0.0766,-0.298699 0.07813,-0.376953 0.0015,-0.07825 -0.0028,-0.142239 -0.0078,-0.205078 -0.01009,-0.125678 -0.02762,-0.244953 -0.03906,-0.332031 1e-6,-6.51e-4 1e-6,-0.0013 0,-0.002 -0.05387,-0.402622 -0.07549,-0.756828 0.03516,-1.138671 0.299296,-0.02697 0.624122,-0.06654 0.966797,-0.109375 0.777936,-0.09799 1.630608,-0.203125 2.433594,-0.203125 0.716079,0 1.26778,0.08211 1.703124,0.230468 1.556885,0.531704 1.740505,1.294142 1.986329,1.972657 0.0013,0.002 0.0026,0.0039 0.0039,0.0059 0.02601,0.06967 0.06037,0.164817 0.101562,0.263672 0.2228,0.536493 0.944619,0.626993 1.292969,0.162109 0.263933,-0.352782 0.325446,-0.632342 0.400391,-0.824218 v -0.002 c 0.120499,-0.305655 0.24392,-0.599768 0.380859,-0.800781 l 0.002,-0.002 c 0.126609,-0.183905 0.282085,-0.344457 0.455078,-0.521484 l 0.002,-0.002 c 0.181949,-0.184951 0.35017,-0.349346 0.498047,-0.597656 0.148401,-0.249188 0.229108,-0.578276 0.22461,-0.878906 1e-6,-6.51e-4 1e-6,-0.0013 0,-0.002 -0.01121,-0.7091 -0.431081,-1.004592 -0.703125,-1.306641 -0.0013,-6.55e-4 -0.0026,-0.0013 -0.0039,-0.002 -0.228968,-0.251301 -0.405513,-0.460816 -0.509766,-0.673828 -6.5e-4,-6.52e-4 -0.0013,-0.0013 -0.002,-0.002 -0.305055,-0.866704 -0.508237,-1.268262 -0.753907,-1.550781 -0.342313,-0.394938 -0.973477,-0.327493 -1.224609,0.130859 -0.05915,0.107539 -0.10935,0.21384 -0.148437,0.292969 -6.55e-4,0.0013 -0.0013,0.0026 -0.002,0.0039 -0.221142,0.454238 -0.462294,0.930651 -0.951171,1.308594 -0.791941,0.610546 -1.440347,0.884765 -4.009766,0.884765 -0.213317,0 -0.46067,-0.0066 -0.705078,-0.01172 3.515142,-1.761684 4.485926,-5.164167 5.207031,-7.91211 0.355992,-1.356969 0.704887,-2.6133583 1.236328,-3.4414058 0.531442,-0.8280475 1.126401,-1.2773437 2.398438,-1.2773438 0.431396,0 0.928686,0.069095 1.501953,0.2167969 l 1.591797,0.6523438 -0.822266,-1.8515625 c -0.03722,-0.045907 -0.0767,-0.093021 -0.121094,-0.140625 -0.805626,-0.8733037 -2.050751,-1.3476563 -3.318359,-1.3476563 -0.633375,0 -1.24328,0.1290601 -1.794922,0.390625 -3.0232,1.432791 -3.986544,4.0880119 -4.726562,6.1640627 -0.348981,0.978945 -0.683417,1.871544 -1.115235,2.466797 -0.408182,0.56267 -0.857464,0.865912 -1.65039,0.945312 0.168368,-2.003545 0.06755,-7.1920735 -0.916016,-11.2089842 z m 1.376953,23.904297 c 0.0045,0.0088 0.0293,0.05664 0.0293,0.05664 l -0.01367,0.0059 c 0,0 -0.02452,0.0097 -0.04883,0.01953 -0.0072,-0.01701 -0.02024,-0.01565 -0.02734,-0.0332 0.02101,-0.01522 0.04122,-0.03152 0.06055,-0.04883 z m -0.138672,0.111328 c -0.0019,0.0022 1.18e-4,0.0058 -0.002,0.0078 -0.0021,5.69e-4 -0.0098,0.002 -0.0098,0.002 0.0039,-0.0032 0.0078,-0.0065 0.01172,-0.0098 z" />
  <path fill="url(#rarity)" d="m 15.120797,35.142531 c -0.052,-0.17 -0.074,-0.385 -0.101,-0.675 -0.032,-0.364 -0.07,-0.775 -0.222,-1.207 -0.054,-0.153 -0.164,-0.279 -0.308,-0.354 -0.437,-0.229 -1.018,-0.586 -1.48,-0.943 0.547,-1.01 -0.195,-1.939 -0.688,-2.539 0.146,-0.129 0.319,-0.249 0.488,-0.366 0.375,-0.262 0.763,-0.532 0.938,-0.956 0.084,-0.204 0.057,-0.437 -0.071,-0.617 -0.12,-0.167 -0.274,-0.287 -0.423,-0.403 -0.142,-0.11 -0.255,-0.202 -0.338,-0.307 1.009,-0.57 1.714,-2.054 1.749,-2.619 0.019,-0.318 -0.071,-0.726 -0.575,-0.951 0.025,-0.112 0.052,-0.214 0.079,-0.313 0.128,-0.477 0.248,-0.929 -0.12,-1.67 -0.074,-0.15 -0.203,-0.264 -0.361,-0.32 -0.401,-0.141 -1.509,-0.366 -2.779,-0.366 -1.079,0 -2.0670001,0.155 -2.9330001,0.461 -1.526,0.539 -1.899,1.632 -2.123,2.285 -0.013,0.037 -0.027,0.078 -0.042,0.119 -0.243,-0.26 -0.578,-0.901 -0.721,-1.172 -0.128,-0.243 -0.248,-0.473 -0.366,-0.65 -0.129,-0.196 -0.26,-0.36 -0.376,-0.505 -0.285,-0.358 -0.402,-0.515 -0.402,-0.821 0,-0.193 0.067,-0.276 0.351,-0.544 0.252,-0.239 0.599,-0.567 0.801,-1.111 0.305,-0.825 0.577,-1.235 0.737,-1.41 0.013,0.034 0.026,0.069 0.037,0.1 0.202,0.548 0.54,1.465 1.89,2.2 0.986,0.537 2.1900001,0.541 4.1850001,0.551 0,0 0.181,0.001 0.182,0.001 0.302,0 0.563,-0.21 0.627,-0.504 0.065,-0.295 -0.086,-0.596 -0.361,-0.721 -3.2710001,-1.488 -4.1250001,-4.641 -4.8790001,-7.423 -0.726,-2.6789998 -1.476,-5.4499998 -4.554,-5.4499998 -0.494,0 -1.03,0.072 -1.62,0.216 0.035,-0.044 0.07,-0.084 0.105,-0.121 0.575,-0.615 1.577,-0.996 2.617,-0.996 0.762,0 1.512,0.204 2.169,0.591 2.395,1.408 3.2030001,3.602 3.9150001,5.5379998 0.688,1.868 1.336,3.633 3.344,3.815 0.019,10e-4 0.039,0.003 0.058,0.003 0.177,0 0.347,-0.073 0.469,-0.204 0.135,-0.145 0.196,-0.344 0.164,-0.539 -0.269,-1.67 0.094,-7.0729998 1.086,-11.1009998 0.964,3.937 1.062,9.3499998 0.898,11.1119998 -0.017,0.186 0.047,0.371 0.178,0.506 0.121,0.125 0.288,0.195 0.461,0.195 0.013,0 0.025,-10e-4 0.039,-10e-4 2.183,-0.133 2.843,-1.983 3.541,-3.941 0.74,-2.0759998 1.579,-4.4289998 4.341,-5.7379998 0.445,-0.211 0.942,-0.318 1.475,-0.318 1.063,0 2.148,0.435 2.767,1.106 0.03,0.032 0.06,0.067 0.09,0.104 -0.621,-0.16 -1.181,-0.239 -1.69,-0.239 -2.975,0 -3.648,2.564 -4.36,5.2779998 -0.745,2.839 -1.588,6.056 -5.091,7.621 -0.274,0.122 -0.425,0.417 -0.366,0.711 0.059,0.294 0.312,0.508 0.611,0.515 0.385,0.011 0.745,0.016 1.07,0.016 2.636,0 3.573,-0.351 4.468,-1.041 0.639,-0.494 0.945,-1.118 1.167,-1.574 0.041,-0.083 0.09,-0.184 0.134,-0.264 0.12,0.138 0.323,0.48 0.618,1.321 0.008,0.024 0.018,0.047 0.03,0.07 0.162,0.331 0.399,0.595 0.63,0.849 0.272,0.302 0.507,0.563 0.511,0.816 0.006,0.401 -0.152,0.579 -0.509,0.942 -0.172,0.176 -0.367,0.373 -0.54,0.625 -0.203,0.297 -0.34,0.645 -0.461,0.952 -0.074,0.189 -0.203,0.515 -0.304,0.65 -0.03,-0.072 -0.063,-0.163 -0.091,-0.238 -0.246,-0.679 -0.658,-1.814 -2.45,-2.426 -0.537,-0.183 -1.173,-0.271 -1.946,-0.271 -0.867,0 -1.749,0.111 -2.527,0.209 -0.376,0.047 -0.731,0.092 -1.025,0.116 -0.257,0.02 -0.476,0.192 -0.558,0.437 -0.195,0.586 -0.125,1.113 -0.068,1.539 0.023,0.175 0.058,0.439 0.027,0.508 v 0 c -0.001,0 -0.03,0.027 -0.119,0.063 -0.328,0.129 -0.492,0.498 -0.366,0.827 0.352,0.916 0.878,1.335 1.342,1.706 0.177,0.141 0.348,0.278 0.514,0.442 -0.046,0.011 -0.094,0.012 -0.151,0.012 -0.108,0 -0.252,-0.015 -0.439,-0.045 -0.034,-0.006 -0.069,-0.008 -0.103,-0.008 -0.153,0 -0.303,0.055 -0.421,0.157 -0.144,0.124 -0.225,0.307 -0.221,0.498 0.059,2.91 0.131,6.472 -1.256,8.201 z"/>
</svg>
