<?xml version="1.0" encoding="UTF-8" standalone="no"?>
<svg
   version="1.1"
   width="35.173958"
   height="21.337938"
   viewBox="0 0 35.173958 21.337939"
   id="svg4"
   xmlns="http://www.w3.org/2000/svg"
   xmlns:svg="http://www.w3.org/2000/svg">
  <defs>
    <!-- This is the gradient that will actually be used on
     the cards. The colors themselves will be provided by the
     template, but the x values, y values, and offsets will be
     used from the SVG. -->
    <linearGradient id="rarity" x1="-0.125" y1="0" x2="1.125" y2="0">
      <stop offset="0" style="stop-color:rgb(192,55,38);stop-opacity:1" id="stop2" />
      <stop offset="0.125" style="stop-color:rgb(192,55,38);stop-opacity:1" id="stop4" />
      <stop offset="0.5" style="stop-color:rgb(241,142,30);stop-opacity:1" id="stop6" />
      <stop offset="0.875" style="stop-color:rgb(192,55,38);stop-opacity:1" id="stop8" />
      <stop offset="1" style="stop-color:rgb(192,55,38);stop-opacity:1" id="stop10" />
    </linearGradient>
    <!-- These gradients are here so that you can visualize
     what the set symbol would like like in that rarity. The
     only gradient that matters in the end is the "rarity"
     gradient. -->
    <linearGradient id="mythic" x1="0" y1="1" x2="1" y2="0">
      <stop offset="0" style="stop-color:rgb(192,55,38);stop-opacity:1"/>
      <stop offset="0.125" style="stop-color:rgb(192,55,38);stop-opacity:1"/>
      <stop offset="0.5" style="stop-color:rgb(241,142,30);stop-opacity:1"/>
      <stop offset="0.875" style="stop-color:rgb(192,55,38);stop-opacity:1"/>
      <stop offset="1" style="stop-color:rgb(192,55,38);stop-opacity:1"/>
    </linearGradient>
    <linearGradient id="rare" x1="0" y1="1" x2="1" y2="0">
      <stop offset="0" style="stop-color:rgb(146,116,67);stop-opacity:1"/>
      <stop offset="0.125" style="stop-color:rgb(146,116,67);stop-opacity:1"/>
      <stop offset="0.5" style="stop-color:rgb(211,178,108);stop-opacity:1"/>
      <stop offset="0.875" style="stop-color:rgb(146,116,67);stop-opacity:1"/>
      <stop offset="1" style="stop-color:rgb(146,116,67);stop-opacity:1"/>
    </linearGradient>
    <linearGradient id="special" x1="0" y1="1" x2="1" y2="0">
      <stop offset="0" style="stop-color:rgb(76, 56, 106);stop-opacity:1"/>
      <stop offset="0.125" style="stop-color:rgb(76, 56, 106);stop-opacity:1"/>
      <stop offset="0.5" style="stop-color:rgb(201, 173, 221);stop-opacity:1"/>
      <stop offset="0.875" style="stop-color:rgb(76, 56, 106);stop-opacity:1"/>
      <stop offset="1" style="stop-color:rgb(76, 56, 106);stop-opacity:1"/>
    </linearGradient>
    <linearGradient id="uncommon" x1="0" y1="1" x2="1" y2="0">
      <stop offset="0" style="stop-color:rgb(98,110,119);stop-opacity:1"/>
      <stop offset="0.125" style="stop-color:rgb(98,110,119);stop-opacity:1"/>
      <stop offset="0.5" style="stop-color:rgb(196,222,238);stop-opacity:1"/>
      <stop offset="0.875" style="stop-color:rgb(98,110,119);stop-opacity:1"/>
      <stop offset="1" style="stop-color:rgb(98,110,119);stop-opacity:1"/>
    </linearGradient>
    <linearGradient id="common" x1="0" y1="1" x2="1" y2="0">
      <stop offset="0" style="stop-color:rgb(0,0,0);stop-opacity:1"/>
    </linearGradient>
    <linearGradient
            id="rarity-outline" x1="0" y1="1" x2="0" y2="1">
      <stop offset="0" style="stop-color:rgb(0,0,0);stop-opacity:1"/>
    </linearGradient>
  </defs>
  <path fill="#FFFFFF" d="m 17.585938,-1.4238281 -0.636719,1.02929685 C 15.748734,1.5422865 14.548289,3.4792238 13.347656,5.4160156 H 7.7285156 c 0,0 -6.3793916,11.8340304 -8.38867185,15.5664064 l -0.59570315,1.105469 h 9.6445313 l 0.046875,-1.078125 c 0.026386,-0.642646 0.1422034,-1.274606 0.34375,-1.888672 0.6418084,-1.581648 1.7079721,-2.750092 3.1132811,-3.482422 0.359669,-0.06287 0.750252,-0.101423 1.185547,-0.128906 l 1.582031,-0.09961 0.01758,0.02734 1.560547,-0.02734 1.361328,-6.4140622 1.40625,6.4667972 1.521485,0.01172 0.03516,-0.05078 1.59375,0.08984 c 0.402187,0.02295 0.772209,0.06452 1.121094,0.125 1.407265,0.732907 2.475367,1.902241 3.117187,3.486328 0.200879,0.612179 0.317447,1.24414 0.34375,1.884766 l 0.04687,1.078125 h 9.644532 C 33.998896,17.573319 27.453125,5.4160156 27.453125,5.4160156 h -5.626953 z" />
  <path fill="url(#rarity-outline)" d="M 17.585938,0 17.267578,0.51367188 13.763672,6.1660156 H 9.4414062 l 5.6347658,8.5136724 0.552734,-0.0098 1.960938,-9.2460939 2.021484,9.2929689 0.515625,0.0039 5.660156,-8.5546874 H 21.408203 Z M 8.1035156,6.3027344 c 0,0 -5.4054227,10.0219996 -8.1035156,15.0351566 h 7.6699219 l 0.015625,-0.359375 c 0.029543,-0.719527 0.159032,-1.428748 0.3867187,-2.115235 v -0.002 C 8.7865851,17.08587 10.01051,15.730429 11.625,14.916016 h 0.002 c 0.447793,-0.08877 0.919958,-0.123717 1.404297,-0.154297 l 0.646484,-0.04102 C 11.819024,11.915137 8.1035156,6.3027344 8.1035156,6.3027344 Z m 18.9960934,0.037109 -0.345703,0.5214843 -5.207031,7.8671879 0.652344,0.03711 c 0.461523,0.02634 0.914062,0.06562 1.347656,0.150391 1.615772,0.815059 2.84061,2.171683 3.554687,3.949218 v 0.002 c 0.226839,0.68412 0.357228,1.393074 0.386719,2.111328 l 0.01563,0.359375 h 7.669922 z" />
  <path fill="url(#rarity)" d="M 17.585938 1.421875 L 14.181641 6.9160156 L 10.837891 6.9160156 L 15.130859 13.404297 L 17.582031 1.8515625 L 20.09375 13.408203 L 24.390625 6.9160156 L 20.990234 6.9160156 L 17.585938 1.421875 z M 8.1660156 7.75 L 1.2539062 20.587891 L 7.0019531 20.587891 C 7.0580951 19.923484 7.1481287 19.261335 7.359375 18.625 L 7.3613281 18.619141 L 7.3730469 18.589844 L 7.375 18.585938 C 8.1519783 16.651823 9.5119604 15.139482 11.294922 14.242188 L 11.296875 14.242188 L 11.375 14.203125 L 11.460938 14.183594 L 11.466797 14.183594 C 11.768633 14.122974 12.060866 14.110634 12.357422 14.083984 L 8.1660156 7.75 z M 27.033203 7.796875 L 22.871094 14.089844 C 23.14939 14.116564 23.424447 14.128064 23.705078 14.183594 L 23.710938 14.183594 L 23.796875 14.203125 L 23.876953 14.242188 L 23.878906 14.242188 C 25.661962 15.139479 27.021982 16.651861 27.798828 18.585938 L 27.800781 18.589844 L 27.810547 18.619141 L 27.8125 18.625 C 28.023824 19.260742 28.115745 19.923284 28.171875 20.587891 L 33.917969 20.587891 L 27.033203 7.796875 z " />
</svg>
