<?xml version="1.0" encoding="UTF-8" standalone="no"?>
<svg
   version="1.1"
   width="26.509764"
   height="36.343792"
   viewBox="0 0 26.509763 36.343792"
   id="svg4"
   xmlns="http://www.w3.org/2000/svg"
   xmlns:svg="http://www.w3.org/2000/svg">
  <defs>
    <!-- This is the gradient that will actually be used on
     the cards. The colors themselves will be provided by the
     template, but the x values, y values, and offsets will be
     used from the SVG. -->
    <linearGradient id="rarity" x1="0" y1="0" x2="1" y2="1">
      <stop offset="0" style="stop-color:rgb(192,55,38);stop-opacity:1" id="stop2" />
      <stop offset="0.125" style="stop-color:rgb(192,55,38);stop-opacity:1" id="stop4" />
      <stop offset="0.5" style="stop-color:rgb(241,142,30);stop-opacity:1" id="stop6" />
      <stop offset="0.875" style="stop-color:rgb(192,55,38);stop-opacity:1" id="stop8" />
      <stop offset="1" style="stop-color:rgb(192,55,38);stop-opacity:1" id="stop10" />
    </linearGradient>
    <!-- These gradients are here so that you can visualize
     what the set symbol would like like in that rarity. The
     only gradient that matters in the end is the "rarity"
     gradient. -->
    <linearGradient id="mythic" x1="0" y1="1" x2="1" y2="0">
      <stop offset="0" style="stop-color:rgb(192,55,38);stop-opacity:1"/>
      <stop offset="0.125" style="stop-color:rgb(192,55,38);stop-opacity:1"/>
      <stop offset="0.5" style="stop-color:rgb(241,142,30);stop-opacity:1"/>
      <stop offset="0.875" style="stop-color:rgb(192,55,38);stop-opacity:1"/>
      <stop offset="1" style="stop-color:rgb(192,55,38);stop-opacity:1"/>
    </linearGradient>
    <linearGradient id="rare" x1="0" y1="1" x2="1" y2="0">
      <stop offset="0" style="stop-color:rgb(146,116,67);stop-opacity:1"/>
      <stop offset="0.125" style="stop-color:rgb(146,116,67);stop-opacity:1"/>
      <stop offset="0.5" style="stop-color:rgb(211,178,108);stop-opacity:1"/>
      <stop offset="0.875" style="stop-color:rgb(146,116,67);stop-opacity:1"/>
      <stop offset="1" style="stop-color:rgb(146,116,67);stop-opacity:1"/>
    </linearGradient>
    <linearGradient id="special" x1="0" y1="1" x2="1" y2="0">
      <stop offset="0" style="stop-color:rgb(76, 56, 106);stop-opacity:1"/>
      <stop offset="0.125" style="stop-color:rgb(76, 56, 106);stop-opacity:1"/>
      <stop offset="0.5" style="stop-color:rgb(201, 173, 221);stop-opacity:1"/>
      <stop offset="0.875" style="stop-color:rgb(76, 56, 106);stop-opacity:1"/>
      <stop offset="1" style="stop-color:rgb(76, 56, 106);stop-opacity:1"/>
    </linearGradient>
    <linearGradient id="uncommon" x1="0" y1="1" x2="1" y2="0">
      <stop offset="0" style="stop-color:rgb(98,110,119);stop-opacity:1"/>
      <stop offset="0.125" style="stop-color:rgb(98,110,119);stop-opacity:1"/>
      <stop offset="0.5" style="stop-color:rgb(196,222,238);stop-opacity:1"/>
      <stop offset="0.875" style="stop-color:rgb(98,110,119);stop-opacity:1"/>
      <stop offset="1" style="stop-color:rgb(98,110,119);stop-opacity:1"/>
    </linearGradient>
    <linearGradient id="common" x1="0" y1="1" x2="1" y2="0">
      <stop offset="0" style="stop-color:rgb(0,0,0);stop-opacity:1"/>
    </linearGradient>
    <linearGradient
            id="rarity-outline" x1="0" y1="1" x2="0" y2="1">
      <stop offset="0" style="stop-color:rgb(0,0,0);stop-opacity:1"/>
    </linearGradient>
  </defs>
  <path fill="#FFFFFF" d="m 19.962891,-0.44335938 -2.529297,0.83398438 -1.898438,0.625 C 11.527883,2.337977 8.8658791,4.3188793 7.2675781,6.6367188 5.9046781,8.6131822 5.4522964,10.736409 5.3203125,12.736328 L 4.5097656,9.9003906 2.3945312,12.152344 l -0.00195,0.0039 c 0,0 -2.6425781,2.898399 -2.6425781,7.71875 0,4.027265 2.1081978,7.095938 3.5195312,8.960938 H 3.1640625 l 1.2246094,1.605468 0.00195,0.002 c 0.3348498,0.440151 0.4763174,0.779137 0.671875,1.289063 0.1930583,0.503408 0.4295641,1.207944 0.9316406,1.958984 2.0576332,2.500262 3.0272088,2.452629 4.2246045,2.644534 h 0.002 l -0.002,0.01367 0.06055,0.0059 2.632812,0.277343 -1.980468,-5.988281 2.794921,5.785157 h 1.123047 c 1.201412,0 3.220041,-0.223896 5.011719,-1.822266 1.080691,-0.965656 1.780496,-2.33624 2.441406,-3.697266 0.668219,-1.376077 1.242805,-2.790812 1.621094,-3.65039 0.613268,-1.391909 2.835938,-4.45239 2.835938,-9.125 0,-3.961019 -2.174952,-6.651311 -4.236328,-8.1601566 C 20.471562,8.4726418 18.40625,7.9492187 18.40625,7.9492188 h -0.002 L 18.1875,7.8945312 h -2.115234 c 0.173167,-0.8108081 0.282902,-1.6284838 0.582031,-2.3574218 0.471582,-1.1491854 0.928177,-1.9557425 0.935547,-1.96875 l 0.002,-0.00391 c 3.3e-5,-5.86e-5 0.0059,-0.011719 0.0059,-0.011719 z m -4.208985,9.62695318 0.66211,1.2695312 c 0,0 0.393756,0.755443 0.792968,1.771484 0.39374,1.002111 0.748047,2.343279 0.748047,2.9375 0,0.122385 -0.282988,0.723038 -0.402343,1.09961 -0.142906,-0.38571 -0.310942,-0.873353 -0.421876,-1.158203 -0.560351,-1.434454 -1.404296,-3.15737 -1.404296,-5.8203129 0,-0.029412 0.02476,-0.069673 0.02539,-0.099609 z" />
  <path fill="#000000" d="M 17.746094 1.3398438 L 15.847656 1.9648438 C 11.995898 3.2358778 9.548385 5.0927491 8.0917969 7.2050781 C 6.6352087 9.3174071 6.1914064 11.646583 6.1914062 13.78125 C 6.1914062 15.533442 6.7117485 17.357004 7.2929688 19.015625 C 7.050283 18.713407 6.8255185 18.497117 6.5976562 18.193359 C 6.035583 17.444072 5.4549953 16.154225 5.0488281 15.078125 C 4.6426609 14.002025 4.3964844 13.140625 4.3964844 13.140625 L 4.0332031 11.869141 L 3.1269531 12.833984 C 3.1269531 12.833984 0.75 15.409507 0.75 19.875 C 0.75 24.481432 4.2779072 28.650136 5.1855469 29.835938 L 5.1835938 29.835938 C 5.5952841 30.376417 5.793161 30.845843 5.9960938 31.375 C 6.1990267 31.904157 6.4032343 32.502107 6.8261719 33.134766 C 7.6344301 34.352855 8.8246321 35.355469 10.279297 35.355469 C 10.318297 35.355469 10.342846 35.357669 10.322266 35.355469 L 11.476562 35.476562 L 8.2695312 25.78125 L 14.460938 26.935547 L 12.115234 18.921875 L 17.583984 28.642578 L 10.589844 27.640625 L 14.353516 35.429688 L 14.849609 35.429688 C 15.939318 35.429688 17.641942 35.247101 19.195312 33.861328 C 20.066564 33.082817 20.753477 31.808881 21.402344 30.472656 C 22.05121 29.136432 22.617755 27.74374 23.007812 26.857422 C 23.734517 25.208049 25.759766 22.497935 25.759766 18.134766 C 25.759766 14.533138 23.818157 12.160675 21.933594 10.78125 C 20.049027 9.4018248 18.158203 8.9179687 18.158203 8.9179688 L 18.064453 8.8945312 L 16.730469 8.8945312 L 17.302734 9.9902344 C 17.302734 9.9902344 17.72095 10.791255 18.140625 11.859375 C 18.5603 12.927495 18.957031 14.27106 18.957031 15.162109 C 18.957031 15.957999 18.390762 17.388624 17.779297 18.525391 C 17.606506 18.846623 17.592557 18.828142 17.433594 19.09375 C 17.333262 18.765321 17.30028 18.515287 17.183594 18.167969 C 16.842582 17.152941 16.459293 16.129594 16.201172 15.466797 C 15.668996 14.104469 14.728516 12.163807 14.728516 9.2832031 C 14.728516 6.5814635 16.728516 3.0585937 16.728516 3.0585938 L 17.746094 1.3398438 z " />
  <path fill="url(#rarity)" d="m 17.968,9.6437344 c 0,0 1.74,3.3379996 1.74,5.5189996 0,2.175 -2.537,5.804 -2.537,5.804 -0.146,-1.163 -1.16,-3.921 -1.669,-5.228 -0.509,-1.303 -1.523,-3.409 -1.523,-6.4559996 0,-3.047 2.104,-6.605 2.104,-6.605 -7.473,2.466 -9.142,7.04 -9.142,11.1039996 0,4.06 2.975,9.505 2.975,9.505 -1.014,-1.163 -2.612,-2.903 -3.918,-4.644 -1.306,-1.741 -2.323,-5.295 -2.323,-5.295 0,0 -2.175,2.32 -2.175,6.527 0,4.21 3.338,8.274 4.281,9.506 0.943,1.238 0.943,2.252 1.669,3.338 0.722,1.089 1.74,1.886 2.83,1.886 0.039,0 0.082,0 0.12,0.004 l -3.241,-9.797 6.239,1.163 -3.844,-13.135 9.43,16.762 -7.106,-1.018 2.946,6.096 h 0.025 c 1.018,0 2.466,-0.146 3.847,-1.378 1.381,-1.234 2.829,-4.936 3.626,-6.747 0.801,-1.818 2.688,-4.285 2.688,-8.42 0,-6.676 -7.04,-8.4909996 -7.04,-8.4909996 z"/>
</svg>
