<?xml version="1.0" encoding="UTF-8" standalone="no"?>
<!-- Generated by IcoMoon.io -->

<svg
   version="1.1"
   width="21.59"
   height="24.931999"
   viewBox="0 0 21.59 24.931999"
   id="svg6"
   sodipodi:docname="afr.svg"
   inkscape:version="1.1.1 (3bf5ae0d25, 2021-09-20)"
   xmlns:inkscape="http://www.inkscape.org/namespaces/inkscape"
   xmlns:sodipodi="http://sodipodi.sourceforge.net/DTD/sodipodi-0.dtd"
   xmlns="http://www.w3.org/2000/svg"
   xmlns:svg="http://www.w3.org/2000/svg"
   xmlns:rdf="http://www.w3.org/1999/02/22-rdf-syntax-ns#"
   xmlns:cc="http://creativecommons.org/ns#"
   xmlns:dc="http://purl.org/dc/elements/1.1/">
  <defs
     id="defs10" />
  <sodipodi:namedview
     id="namedview8"
     pagecolor="#ffffff"
     bordercolor="#666666"
     borderopacity="1.0"
     inkscape:pageshadow="2"
     inkscape:pageopacity="0.0"
     inkscape:pagecheckerboard="0"
     showgrid="false"
     inkscape:zoom="25.75"
     inkscape:cx="10.893204"
     inkscape:cy="12.446602"
     inkscape:window-width="1920"
     inkscape:window-height="1009"
     inkscape:window-x="-8"
     inkscape:window-y="-8"
     inkscape:window-maximized="1"
     inkscape:current-layer="svg6" />
  <title
     id="title2">xdnd</title>
  <path
     fill="#010101"
     d="M 9.645,2.489 C 8.85,3.837 8.656,5.344 9.064,7.009 10.308,7.906 11.073,8.888 11.36,9.956 10.597,8.877 9.573,8.075 8.289,7.55 6.362,6.763 4.844,4.598 4.844,4.598 4.627,5.628 4.793,6.619 5.343,7.572 4.541,7.332 3.628,7.295 2.605,7.46 3.549,7.866 4.063,8.408 4.146,9.086 4.229,9.764 4.004,10.187 3.47,10.355 c -1.109,0.357 -2.1,1.021 -2.974,1.993 2.391,-0.17 3.296,0.996 2.715,3.496 1.086,-1.319 2.462,-2.146 4.129,-2.48 -0.326,-0.255 -0.867,-0.347 -1.623,-0.278 1.451,-1.726 3.428,-2.322 5.932,-1.788 -1.592,0.072 -2.774,0.446 -3.545,1.123 0.873,-0.005 1.526,0.233 1.958,0.716 -1.749,0.438 -3.002,1.331 -3.757,2.68 2.279,-0.263 3.809,0.204 4.589,1.402 1.147,1.76 0.046,2.884 10e-4,2.928 l -10e-4,0.001 0.013,0.002 c 0.442,0.055 0.806,-0.037 1.09,-0.275 0.005,1.018 -0.77,1.73 -2.324,2.136 3.199,0.304 5.443,-0.624 6.732,-2.783 -0.509,0.385 -1.059,0.489 -1.649,0.313 -0.886,-0.264 -0.709,-1.113 -0.38,-1.279 -0.648,0.138 -1.051,0.066 -1.21,-0.214 -0.239,-0.42 -0.135,-0.938 0.314,-1.2 -0.708,0.127 -1.104,-0.044 -1.186,-0.516 -0.124,-0.707 0.108,-1.201 0.648,-1.527 -0.658,-0.377 -1.368,-0.432 -2.132,-0.166 1.071,-0.837 2.45,-0.991 4.138,-0.463 0.84,0.403 1.048,0.948 0.626,1.636 2.269,-0.256 3.293,0.479 3.072,2.206 1.649,-0.886 2.341,-2.475 2.075,-4.767 -0.234,0.786 -0.684,1.292 -1.349,1.519 0.079,-0.709 -0.225,-1.078 -0.915,-1.107 C 18.751,12.099 18.34,10.781 17.225,9.71 16.11,8.639 14.914,7.57 13.639,6.502 12.514,5.365 11.979,4.266 12.034,3.204 c -0.595,1.311 -0.489,2.361 0.318,3.149 1.21,1.182 3.955,3.293 4.007,5.141 C 15.29,9.993 14.255,8.788 13.255,7.879 11.754,6.515 9.59,5.43 9.646,2.49 Z m 4.472,8.286 0.047,10e-4 c 1.122,0.561 1.803,1.339 2.043,2.334 -0.253,0.176 -0.538,0.176 -0.854,0 -0.746,-0.447 -1.095,-1.049 -1.339,-1.706 -0.046,-0.144 -0.171,-0.448 -0.034,-0.579 0.045,-0.043 0.078,-0.039 0.137,-0.05 z"
     id="path4"/>
</svg>
