<?xml version="1.0" encoding="UTF-8" standalone="no"?>
<!-- Generated by IcoMoon.io -->

<svg
   version="1.1"
   width="28.249001"
   height="31.975868"
   viewBox="0 0 28.249001 31.975868"
   id="svg6"
   sodipodi:docname="c19.svg"
   inkscape:version="1.1.1 (3bf5ae0d25, 2021-09-20)"
   xmlns:inkscape="http://www.inkscape.org/namespaces/inkscape"
   xmlns:sodipodi="http://sodipodi.sourceforge.net/DTD/sodipodi-0.dtd"
   xmlns="http://www.w3.org/2000/svg"
   xmlns:svg="http://www.w3.org/2000/svg">
  <defs
     id="defs10" />
  <path fill="white" stroke="black" stroke-width="1" d="M 7.7382812,0.00390625 C 6.8717969,0.02528125 6.0079531,0.14735937 5.1582031,0.31835938 v 0.001953 C 4.8007275,0.39489522 4.4461394,0.48202256 4.09375,0.57617188 4.0697963,0.58257169 4.0454144,0.58726456 4.0214844,0.59375 3.8061459,0.65211045 3.5942644,0.72010834 3.3808594,0.78515625 3.1914033,0.84246417 3.00238,0.90066458 2.8144531,0.96289062 2.5526741,1.0502195 2.2919598,1.1420848 2.0332031,1.2382812 1.9419562,1.2720157 1.8506208,1.3050551 1.7597656,1.3398438 1.4479561,1.4597839 1.1373767,1.5837095 0.83007812,1.7148438 3.3376756,6.1027927 7.9004456,11.371926 10.652344,15.109375 c 2.225,3.003 4.441781,6.128047 6.675781,9.123047 1.548029,2.248582 0.752113,4.74216 -0.125,6.240234 1.916318,-1.074352 3.721684,-2.348546 5.433594,-3.720703 0.546461,-0.448457 1.085689,-0.90798 1.617187,-1.375 C 19.524455,18.905759 13.33008,10.496956 8.9414062,4.4746094 c -0.453,-0.558 -0.7671875,-1.239125 -0.8671874,-1.953125 -0.137,-0.866 0.1222499,-1.74490627 0.53125,-2.50390627 C 8.3164688,7.8125e-5 8.0271094,-0.00321875 7.7382812,0.00390625 Z"/>
</svg>
