<?xml version="1.0" encoding="UTF-8" standalone="no"?>
<svg
   version="1.1"
   width="25.273438"
   height="28.839844"
   viewBox="0 0 25.273438 28.839843"
   id="svg4"
   xmlns="http://www.w3.org/2000/svg"
   xmlns:svg="http://www.w3.org/2000/svg">
  <defs>
    <!-- This is the gradient that will actually be used on
     the cards. The colors themselves will be provided by the
     template, but the x values, y values, and offsets will be
     used from the SVG. -->
    <linearGradient id="rarity" x1="0" y1="1" x2="0" y2="0">
      <stop offset="0" style="stop-color:rgb(192,55,38);stop-opacity:1" id="stop2" />
      <stop offset="0.125" style="stop-color:rgb(192,55,38);stop-opacity:1" id="stop4" />
      <stop offset="0.5" style="stop-color:rgb(241,142,30);stop-opacity:1" id="stop6" />
      <stop offset="0.875" style="stop-color:rgb(192,55,38);stop-opacity:1" id="stop8" />
      <stop offset="1" style="stop-color:rgb(192,55,38);stop-opacity:1" id="stop10" />
    </linearGradient>
    <!-- These gradients are here so that you can visualize
     what the set symbol would like like in that rarity. The
     only gradient that matters in the end is the "rarity"
     gradient. -->
    <linearGradient id="mythic" x1="0" y1="1" x2="1" y2="0">
      <stop offset="0" style="stop-color:rgb(192,55,38);stop-opacity:1"/>
      <stop offset="0.125" style="stop-color:rgb(192,55,38);stop-opacity:1"/>
      <stop offset="0.5" style="stop-color:rgb(241,142,30);stop-opacity:1"/>
      <stop offset="0.875" style="stop-color:rgb(192,55,38);stop-opacity:1"/>
      <stop offset="1" style="stop-color:rgb(192,55,38);stop-opacity:1"/>
    </linearGradient>
    <linearGradient id="rare" x1="0" y1="1" x2="1" y2="0">
      <stop offset="0" style="stop-color:rgb(146,116,67);stop-opacity:1"/>
      <stop offset="0.125" style="stop-color:rgb(146,116,67);stop-opacity:1"/>
      <stop offset="0.5" style="stop-color:rgb(211,178,108);stop-opacity:1"/>
      <stop offset="0.875" style="stop-color:rgb(146,116,67);stop-opacity:1"/>
      <stop offset="1" style="stop-color:rgb(146,116,67);stop-opacity:1"/>
    </linearGradient>
    <linearGradient id="special" x1="0" y1="1" x2="1" y2="0">
      <stop offset="0" style="stop-color:rgb(76, 56, 106);stop-opacity:1"/>
      <stop offset="0.125" style="stop-color:rgb(76, 56, 106);stop-opacity:1"/>
      <stop offset="0.5" style="stop-color:rgb(201, 173, 221);stop-opacity:1"/>
      <stop offset="0.875" style="stop-color:rgb(76, 56, 106);stop-opacity:1"/>
      <stop offset="1" style="stop-color:rgb(76, 56, 106);stop-opacity:1"/>
    </linearGradient>
    <linearGradient id="uncommon" x1="0" y1="1" x2="1" y2="0">
      <stop offset="0" style="stop-color:rgb(98,110,119);stop-opacity:1"/>
      <stop offset="0.125" style="stop-color:rgb(98,110,119);stop-opacity:1"/>
      <stop offset="0.5" style="stop-color:rgb(196,222,238);stop-opacity:1"/>
      <stop offset="0.875" style="stop-color:rgb(98,110,119);stop-opacity:1"/>
      <stop offset="1" style="stop-color:rgb(98,110,119);stop-opacity:1"/>
    </linearGradient>
    <linearGradient id="common" x1="0" y1="1" x2="1" y2="0">
      <stop offset="0" style="stop-color:rgb(0,0,0);stop-opacity:1"/>
    </linearGradient>
    <linearGradient
            id="rarity-outline" x1="0" y1="1" x2="0" y2="1">
      <stop offset="0" style="stop-color:rgb(0,0,0);stop-opacity:1"/>
    </linearGradient>
  </defs>
  <path fill="#ffffff" d="M 12.636719,-0.8222655 C 9.2361884,0.70737064 5.8359153,2.2375803 2.4355471,3.7675782 L 3.0214846,5.5878907 -0.7499998,2.9648438 V 25.912109 L 3.1347658,23.066406 2.4140627,25.0625 12.636719,29.662109 22.84375,25.066406 22.208984,23.179687 26.023437,25.884765 V 14.417969 2.9433594 l -3.841796,2.7421875 0.666015,-1.9101562 z"/>
  <path fill="url(#rarity-outline)" d="M 12.636719,0 3.3554688,4.1757812 4.4171676,7.4720474 0,4.4003906 V 24.433594 l 4.6758764,-3.425429 -1.3204076,3.655897 9.2812502,4.175782 9.279297,-4.177735 -1.154809,-3.427573 4.51223,3.199058 V 14.417969 4.4003906 L 20.69653,7.6660789 21.914062,4.1777344 Z"/>
  <path fill="url(#rarity)" d="m 24.273,14.418703 v 8.086 l -1.979,-1.396 -2.095,-5.353 h -2.327 l 2.807,8.367 -2.982,1.342 -1.977,-9.709 h -1.862 l 1.52,10.752 -2.741,1.235 -2.744,-1.235 1.523,-10.752 H 9.551 l -1.974,9.709 -2.986,-1.342 2.808,-8.367 H 5.071 l -2.091,5.353 -1.98,1.396 V 6.3307031 l 1.98,1.397 2.091,5.3529999 h 2.328 l -2.808,-8.3639999 2.986,-1.345 1.974,9.7089999 h 1.865 L 9.893,2.3287031 l 2.744,-1.233 2.741,1.233 -1.52,10.7519999 h 1.862 l 1.977,-9.7089999 2.982,1.345 -2.807,8.3639999 h 2.327 l 2.095,-5.3529999 1.979,-1.397 z"/>
</svg>
