<?xml version="1.0" encoding="UTF-8" standalone="no"?>
<svg
   version="1.1"
   width="24.558607"
   height="34.032471"
   viewBox="0 0 24.558607 34.032471"
   id="svg4"
   xmlns="http://www.w3.org/2000/svg"
   xmlns:svg="http://www.w3.org/2000/svg">
  <defs>
    <!-- This is the gradient that will actually be used on
     the cards. The colors themselves will be provided by the
     template, but the x values, y values, and offsets will be
     used from the SVG. -->
    <linearGradient id="rarity" x1="0" y1="1" x2="1" y2="0">
      <stop offset="0" style="stop-color:rgb(192,55,38);stop-opacity:1" id="stop2" />
      <stop offset="0.125" style="stop-color:rgb(192,55,38);stop-opacity:1" id="stop4" />
      <stop offset="0.5" style="stop-color:rgb(241,142,30);stop-opacity:1" id="stop6" />
      <stop offset="0.875" style="stop-color:rgb(192,55,38);stop-opacity:1" id="stop8" />
      <stop offset="1" style="stop-color:rgb(192,55,38);stop-opacity:1" id="stop10" />
    </linearGradient>
    <!-- These gradients are here so that you can visualize
     what the set symbol would like like in that rarity. The
     only gradient that matters in the end is the "rarity"
     gradient. -->
    <linearGradient id="mythic" x1="0" y1="1" x2="1" y2="0">
      <stop offset="0" style="stop-color:rgb(192,55,38);stop-opacity:1"/>
      <stop offset="0.125" style="stop-color:rgb(192,55,38);stop-opacity:1"/>
      <stop offset="0.5" style="stop-color:rgb(241,142,30);stop-opacity:1"/>
      <stop offset="0.875" style="stop-color:rgb(192,55,38);stop-opacity:1"/>
      <stop offset="1" style="stop-color:rgb(192,55,38);stop-opacity:1"/>
    </linearGradient>
    <linearGradient id="rare" x1="0" y1="1" x2="1" y2="0">
      <stop offset="0" style="stop-color:rgb(146,116,67);stop-opacity:1"/>
      <stop offset="0.125" style="stop-color:rgb(146,116,67);stop-opacity:1"/>
      <stop offset="0.5" style="stop-color:rgb(211,178,108);stop-opacity:1"/>
      <stop offset="0.875" style="stop-color:rgb(146,116,67);stop-opacity:1"/>
      <stop offset="1" style="stop-color:rgb(146,116,67);stop-opacity:1"/>
    </linearGradient>
    <linearGradient id="special" x1="0" y1="1" x2="1" y2="0">
      <stop offset="0" style="stop-color:rgb(76, 56, 106);stop-opacity:1"/>
      <stop offset="0.125" style="stop-color:rgb(76, 56, 106);stop-opacity:1"/>
      <stop offset="0.5" style="stop-color:rgb(201, 173, 221);stop-opacity:1"/>
      <stop offset="0.875" style="stop-color:rgb(76, 56, 106);stop-opacity:1"/>
      <stop offset="1" style="stop-color:rgb(76, 56, 106);stop-opacity:1"/>
    </linearGradient>
    <linearGradient id="uncommon" x1="0" y1="1" x2="1" y2="0">
      <stop offset="0" style="stop-color:rgb(98,110,119);stop-opacity:1"/>
      <stop offset="0.125" style="stop-color:rgb(98,110,119);stop-opacity:1"/>
      <stop offset="0.5" style="stop-color:rgb(196,222,238);stop-opacity:1"/>
      <stop offset="0.875" style="stop-color:rgb(98,110,119);stop-opacity:1"/>
      <stop offset="1" style="stop-color:rgb(98,110,119);stop-opacity:1"/>
    </linearGradient>
    <linearGradient id="common" x1="0" y1="1" x2="1" y2="0">
      <stop offset="0" style="stop-color:rgb(0,0,0);stop-opacity:1"/>
    </linearGradient>
    <linearGradient
            id="rarity-outline" x1="0" y1="1" x2="0" y2="1">
      <stop offset="0" style="stop-color:rgb(0,0,0);stop-opacity:1"/>
    </linearGradient>
  </defs>
  <path fill="#FFFFFF" d="m 12.196538,-0.806478 c -0.120668,-0.006974 -0.24187,-4.4813e-4 -0.362554,0.006252 -0.289889,0.016094 -0.579118,0.0452714 -0.867187,0.081476 -0.290349,0.0364912 -0.867188,0.13671875 -0.867188,0.13671875 C 4.9235846,0.23637091 0.9971208,4.1464869 -0.29101562,8.8164062 -1.5372419,13.336449 -0.21949567,18.613969 4.3417969,22.322266 l 7.4628911,14.865234 0.01172,-6.308594 c 0.0011,-0.828737 0.0027,-1.657593 0.0039,-2.486328 0.215556,0.475065 0.347942,1.001202 0.644532,1.417969 1.170763,1.644903 2.902386,2.833603 4.880859,3.142578 l -0.01953,-0.002 0.09375,0.01563 0.0957,0.0059 h 0.002 c 3.696128,-0.06051 5.301455,-1.036146 6.550821,-3.271478 l 2.435547,-6.373047 -4.947265,4.912109 c -0.44018,0.437123 -1.173422,0.624652 -1.96875,0.50586 -0.781894,-0.116786 -1.558442,-0.545812 -2.03711,-1.152344 -0.352723,-0.578461 -0.533721,-1.25521 -0.34375,-2.058594 0.193391,-0.817845 0.78162,-1.799082 2.105469,-2.859375 4.753485,-3.807387 6.220836,-9.190453 5.021484,-13.8027341 -1.203377,-4.6274566 -5.103263,-8.47757048 -10.412109,-9.44921878 0,0 -1.14609,-0.19682965 -1.725337,-0.23030612 z m -7.1066942,22.949056 0.00391,0.0078 c -0.02631,0.03126 -0.035109,0.04284 -0.066406,0.08008 z" />
  <path fill="url(#rarity-outline)" d="m 12.902344,0 v 5.5800781 l 0.478515,0.1855469 0.05664,0.021484 0.0059,0.00391 c 4.538366,1.6596916 5.508166,5.2041604 4.941407,7.8203124 -0.395272,1.824998 -1.75906,2.946798 -3.019532,4.035156 -4.468199,3.860002 -4.424437,8.727898 -2.289062,11.728516 1.067191,1.499386 2.632017,2.564167 4.384766,2.837891 l 0.04297,0.0078 0.04297,0.002 c 2.716591,0.106414 4.780891,-0.760955 5.591797,-2.384765 0.0011,-0.0011 0.0028,-8.27e-4 0.0039,-0.002 l -0.002,-0.002 c 0.589684,-1.06582 0.970892,-2.347597 1.417969,-3.517578 l -2.472656,2.455078 c -1.298985,1.289964 -3.93797,0.866374 -5.166016,-0.742187 C 16.00729,26.569786 16.010736,24.358852 18.84375,22.089844 23.389358,18.44896 24.734471,13.396731 23.607422,9.0625 22.477845,4.7185483 18.81526,1.0823837 13.787109,0.16210938 Z m -1.81836,0.02148438 -0.867187,0.13671874 C 5.3481151,0.92801 1.6443025,4.6193258 0.43164062,9.015625 c -1.18957205,4.314559 0.0357016,9.350197 4.54101558,12.892578 l 6.0878908,12.125 0.0059,-3.15625 c 0.0052,-3.923731 0.01107,-7.84739 0.01758,-11.771484 v -0.638672 l -0.61914,-0.162109 C 7.3687467,17.487279 5.7336082,14.92682 5.6582031,12.271484 5.5827818,9.615575 7.0388759,6.9242274 10.509766,5.8027344 l 0.002,-0.00195 0.572265,-0.1621093 z m 0.929688,6.56445312 c -3.0524536,0 -5.5429689,2.4867007 -5.5429689,5.5390625 0,3.05255 2.490418,5.544922 5.5429689,5.544922 3.053208,0 5.544922,-2.491714 5.544922,-5.544922 0,-3.0532087 -2.492658,-5.5390625 -5.544922,-5.5390625 z M 5.0390625,21.976562 c 0.032223,0.02499 0.047521,0.0572 0.080078,0.08203 -0.00423,-0.0028 -0.019581,-0.01372 -0.019531,-0.01367 2.305e-4,2.04e-4 -0.02213,-0.02201 -0.041016,-0.04102 z" />
  <path fill="url(#rarity)" d="M 10.334469,0.89972658 C 5.7744687,1.6207266 2.2924687,5.0927266 1.1554687,9.2147266 c -1.13400003,4.1130004 -0.011,8.8880004 4.439,12.2680004 0.002,10e-4 0.003,0.003 0.005,0.005 l 4.7160003,9.389 c 0.0052,-3.924001 0.01249,-7.848001 0.019,-11.772 v -0.058 l -0.058,-0.015 c -3.4140003,-0.9 -5.2840003,-3.781 -5.3680003,-6.739 -0.084,-2.9580004 1.615,-5.9930004 5.3730003,-7.2060004 l 0.053,-0.015 z m 3.318,4.16700002 0.049,0.019 c 4.84,1.77 6.055,5.7390004 5.417,8.6840004 -0.457,2.11 -2.018,3.369 -3.263,4.444 -4.239,3.662 -4.094,8.021 -2.169,10.726 0.963,1.353 2.366,2.295 3.89,2.533 2.698683,0.105712 4.50945,-0.785423 5.038,-2.169 -1.691287,1.679457 -4.830408,1.139341 -6.316,-0.841 -1.134,-1.779 -0.978,-4.512 2.076,-6.958 4.341,-3.477 5.563,-8.192 4.507,-12.2530004 -1.056,-4.061 -4.481,-7.483 -9.229,-8.35200002 z m -1.638,2.27 c -2.6480003,0 -4.7940003,2.142 -4.7940003,4.7890004 0,2.647 2.147,4.794 4.7940003,4.794 2.648,0 4.794,-2.146 4.794,-4.794 0,-2.6480004 -2.146,-4.7890004 -4.794,-4.7890004 z"/>
</svg>
