<?xml version="1.0" encoding="UTF-8" standalone="no"?>
<svg
   version="1.1"
   width="23.607422"
   height="35.8125"
   viewBox="0 0 23.607421 35.8125"
   id="svg4"
   xmlns="http://www.w3.org/2000/svg"
   xmlns:svg="http://www.w3.org/2000/svg">
  <defs>
    <!-- This is the gradient that will actually be used on
     the cards. The colors themselves will be provided by the
     template, but the x values, y values, and offsets will be
     used from the SVG. -->
    <linearGradient id="rarity" x1="0" y1="0" x2="1" y2="0">
      <stop offset="0" style="stop-color:rgb(192,55,38);stop-opacity:1" id="stop2" />
      <stop offset="0.125" style="stop-color:rgb(192,55,38);stop-opacity:1" id="stop4" />
      <stop offset="0.5" style="stop-color:rgb(241,142,30);stop-opacity:1" id="stop6" />
      <stop offset="0.875" style="stop-color:rgb(192,55,38);stop-opacity:1" id="stop8" />
      <stop offset="1" style="stop-color:rgb(192,55,38);stop-opacity:1" id="stop10" />
    </linearGradient>
    <!-- These gradients are here so that you can visualize
     what the set symbol would like like in that rarity. The
     only gradient that matters in the end is the "rarity"
     gradient. -->
    <linearGradient id="mythic" x1="0" y1="1" x2="1" y2="0">
      <stop offset="0" style="stop-color:rgb(192,55,38);stop-opacity:1"/>
      <stop offset="0.125" style="stop-color:rgb(192,55,38);stop-opacity:1"/>
      <stop offset="0.5" style="stop-color:rgb(241,142,30);stop-opacity:1"/>
      <stop offset="0.875" style="stop-color:rgb(192,55,38);stop-opacity:1"/>
      <stop offset="1" style="stop-color:rgb(192,55,38);stop-opacity:1"/>
    </linearGradient>
    <linearGradient id="rare" x1="0" y1="1" x2="1" y2="0">
      <stop offset="0" style="stop-color:rgb(146,116,67);stop-opacity:1"/>
      <stop offset="0.125" style="stop-color:rgb(146,116,67);stop-opacity:1"/>
      <stop offset="0.5" style="stop-color:rgb(211,178,108);stop-opacity:1"/>
      <stop offset="0.875" style="stop-color:rgb(146,116,67);stop-opacity:1"/>
      <stop offset="1" style="stop-color:rgb(146,116,67);stop-opacity:1"/>
    </linearGradient>
    <linearGradient id="special" x1="0" y1="1" x2="1" y2="0">
      <stop offset="0" style="stop-color:rgb(76, 56, 106);stop-opacity:1"/>
      <stop offset="0.125" style="stop-color:rgb(76, 56, 106);stop-opacity:1"/>
      <stop offset="0.5" style="stop-color:rgb(201, 173, 221);stop-opacity:1"/>
      <stop offset="0.875" style="stop-color:rgb(76, 56, 106);stop-opacity:1"/>
      <stop offset="1" style="stop-color:rgb(76, 56, 106);stop-opacity:1"/>
    </linearGradient>
    <linearGradient id="uncommon" x1="0" y1="1" x2="1" y2="0">
      <stop offset="0" style="stop-color:rgb(98,110,119);stop-opacity:1"/>
      <stop offset="0.125" style="stop-color:rgb(98,110,119);stop-opacity:1"/>
      <stop offset="0.5" style="stop-color:rgb(196,222,238);stop-opacity:1"/>
      <stop offset="0.875" style="stop-color:rgb(98,110,119);stop-opacity:1"/>
      <stop offset="1" style="stop-color:rgb(98,110,119);stop-opacity:1"/>
    </linearGradient>
    <linearGradient id="common" x1="0" y1="1" x2="1" y2="0">
      <stop offset="0" style="stop-color:rgb(0,0,0);stop-opacity:1"/>
    </linearGradient>
    <linearGradient
            id="rarity-outline" x1="0" y1="1" x2="0" y2="1">
      <stop offset="0" style="stop-color:rgb(0,0,0);stop-opacity:1"/>
    </linearGradient>
  </defs>
  <path fill="#FFFFFF" d="M 15.201172 -1.6328125 L 13.962891 -0.56835938 L 8.4023438 4.2109375 L 8.4023438 7.4746094 C 3.2630629 8.7624033 -0.75 12.748068 -0.75 17.833984 C -0.75 22.922179 3.2629183 26.909333 8.4023438 28.197266 L 8.4023438 37.445312 L 15.201172 31.601562 L 15.201172 28.199219 C 20.344723 26.91177 24.357422 22.922416 24.357422 17.833984 C 24.357422 12.747712 20.34388 8.7600112 15.201172 7.4726562 L 15.201172 -1.6328125 z " />
  <path fill="url(#rarity-outline)" d="M 14.451172,0 9.1523438,4.5546875 v 3.4375 C 3.9912762,9.0359046 0,12.947982 0,17.833984 c 0,4.888551 3.9912762,8.801952 9.1523438,9.845704 V 35.8125 l 5.2988282,-4.554688 v -3.578124 c 5.165204,-1.043597 9.15625,-4.957278 9.15625,-9.845704 0,-4.885997 -3.991793,-8.7982333 -9.15625,-9.8417965 z" />
  <path fill="url(#rarity)" d="m 13.576,22.68625 v -9.701 c 2.461,0.638 4.251,2.57 4.251,4.849 0,2.282 -1.79,4.214 -4.251,4.852 z m -7.801,-4.852 c 0,-2.279 1.79,-4.211 4.251,-4.849 v 9.701 c -2.461,-0.638 -4.251,-2.57 -4.251,-4.852 z m 16.957,0 c 0,-4.636 -3.964,-8.48 -9.155,-9.204 v -6.724 l -3.55,3.05 v 3.674 c -5.187,0.724 -9.152,4.568 -9.152,9.204 0,4.639 3.965,8.483 9.152,9.207 v 6.865 l 3.55,-3.05 v -3.815 c 5.192,-0.724 9.155,-4.568 9.155,-9.207 z"/>
</svg>
