<?xml version="1.0" encoding="UTF-8" standalone="no"?>
<svg
   version="1.1"
   width="32.955078"
   height="24.693359"
   viewBox="0 0 32.955078 24.693359"
   id="svg4"
   xmlns="http://www.w3.org/2000/svg"
   xmlns:svg="http://www.w3.org/2000/svg">
  <defs>
    <!-- This is the gradient that will actually be used on
     the cards. The colors themselves will be provided by the
     template, but the x values, y values, and offsets will be
     used from the SVG. -->
    <linearGradient id="rarity" x1="0" y1="1" x2="1" y2="0">
      <stop offset="0" style="stop-color:rgb(192,55,38);stop-opacity:1" id="stop2" />
      <stop offset="0.125" style="stop-color:rgb(192,55,38);stop-opacity:1" id="stop4" />
      <stop offset="0.5" style="stop-color:rgb(241,142,30);stop-opacity:1" id="stop6" />
      <stop offset="0.875" style="stop-color:rgb(192,55,38);stop-opacity:1" id="stop8" />
      <stop offset="1" style="stop-color:rgb(192,55,38);stop-opacity:1" id="stop10" />
    </linearGradient>
    <!-- These gradients are here so that you can visualize
     what the set symbol would like like in that rarity. The
     only gradient that matters in the end is the "rarity"
     gradient. -->
    <linearGradient id="mythic" x1="0" y1="1" x2="1" y2="0">
      <stop offset="0" style="stop-color:rgb(192,55,38);stop-opacity:1"/>
      <stop offset="0.125" style="stop-color:rgb(192,55,38);stop-opacity:1"/>
      <stop offset="0.5" style="stop-color:rgb(241,142,30);stop-opacity:1"/>
      <stop offset="0.875" style="stop-color:rgb(192,55,38);stop-opacity:1"/>
      <stop offset="1" style="stop-color:rgb(192,55,38);stop-opacity:1"/>
    </linearGradient>
    <linearGradient id="rare" x1="0" y1="1" x2="1" y2="0">
      <stop offset="0" style="stop-color:rgb(146,116,67);stop-opacity:1"/>
      <stop offset="0.125" style="stop-color:rgb(146,116,67);stop-opacity:1"/>
      <stop offset="0.5" style="stop-color:rgb(211,178,108);stop-opacity:1"/>
      <stop offset="0.875" style="stop-color:rgb(146,116,67);stop-opacity:1"/>
      <stop offset="1" style="stop-color:rgb(146,116,67);stop-opacity:1"/>
    </linearGradient>
    <linearGradient id="special" x1="0" y1="1" x2="1" y2="0">
      <stop offset="0" style="stop-color:rgb(76, 56, 106);stop-opacity:1"/>
      <stop offset="0.125" style="stop-color:rgb(76, 56, 106);stop-opacity:1"/>
      <stop offset="0.5" style="stop-color:rgb(201, 173, 221);stop-opacity:1"/>
      <stop offset="0.875" style="stop-color:rgb(76, 56, 106);stop-opacity:1"/>
      <stop offset="1" style="stop-color:rgb(76, 56, 106);stop-opacity:1"/>
    </linearGradient>
    <linearGradient id="uncommon" x1="0" y1="1" x2="1" y2="0">
      <stop offset="0" style="stop-color:rgb(98,110,119);stop-opacity:1"/>
      <stop offset="0.125" style="stop-color:rgb(98,110,119);stop-opacity:1"/>
      <stop offset="0.5" style="stop-color:rgb(196,222,238);stop-opacity:1"/>
      <stop offset="0.875" style="stop-color:rgb(98,110,119);stop-opacity:1"/>
      <stop offset="1" style="stop-color:rgb(98,110,119);stop-opacity:1"/>
    </linearGradient>
    <linearGradient id="common" x1="0" y1="1" x2="1" y2="0">
      <stop offset="0" style="stop-color:rgb(0,0,0);stop-opacity:1"/>
    </linearGradient>
    <linearGradient
            id="rarity-outline" x1="0" y1="1" x2="0" y2="1">
      <stop offset="0" style="stop-color:rgb(0,0,0);stop-opacity:1"/>
    </linearGradient>
  </defs>
  <path fill="#FFFFFF" d="M 16.476562,-0.625 C 7.1556447,-0.625 -0.625,6.0185446 -0.625,14.404297 c 0,1.330565 0.1977465,2.652735 0.5898438,3.929687 L 0.71875,20.787109 a 0.6250625,0.6250625 0 0 0 1.1992187,-0.01563 l 0.6875001,-2.472651 c 0.8782279,-3.165037 3.115399,-6.013881 6.203125,-7.802734 L 9.2558594,10.238281 A 0.6250625,0.6250625 0 0 0 9.5605469,9.5976562 L 9.3828125,8.4941406 10.587891,9.3242188 a 0.6250625,0.6250625 0 0 0 0.552734,0.076172 L 11.496094,9.28125 a 0.6250625,0.6250625 0 0 0 0.002,0 C 12.56571,8.9202308 13.682885,8.676081 14.816406,8.5566406 a 0.6250625,0.6250625 0 0 0 0.002,0 L 15.25,8.5097656 A 0.6250625,0.6250625 0 0 0 15.753906,8.140625 l 0.722656,-1.6425781 0.72461,1.6445312 a 0.6250625,0.6250625 0 0 0 0.507812,0.3691407 l 0.431641,0.044922 c 1.132849,0.1195115 2.248797,0.3639413 3.314453,0.7246094 L 21.8125,9.4023438 a 0.6250625,0.6250625 0 0 0 0.554688,-0.076172 l 1.205078,-0.8300781 -0.177735,1.1015624 a 0.6250625,0.6250625 0 0 0 0.302735,0.6406249 l 0.447265,0.259766 a 0.6250625,0.6250625 0 0 0 0.002,0 c 3.087983,1.789002 5.323795,4.634275 6.203125,7.800781 l 0.695313,2.501953 a 0.6250625,0.6250625 0 0 0 1.199219,0.01172 l 0.746093,-2.486328 c 0.354806,-1.181563 0.517861,-2.52187 0.585938,-3.833984 a 0.6250625,0.6250625 0 0 0 0,-0.002 0.6250625,0.6250625 0 0 0 0.002,-0.01758 0.6250625,0.6250625 0 0 0 0.002,-0.04883 v -0.01953 C 33.579888,6.0184962 25.79748,-0.625 16.476562,-0.625 Z m 0,9.6933594 c -3.728099,0 -7.2488685,1.4155386 -9.8710932,3.9843746 -2.5676997,2.514924 -3.9813572,5.862191 -3.9589844,9.396485 l 0.013672,2.248047 a 0.6250625,0.6250625 0 0 0 1.1269532,0.367187 L 5.125,23.259766 v -0.002 c 2.2629788,-3.053015 6.598971,-5.078124 11.351562,-5.078124 4.753155,0 9.090857,2.026586 11.353516,5.080078 l 1.335938,1.802734 a 0.6250625,0.6250625 0 0 0 1.126953,-0.367188 l 0.01563,-2.246093 c 0.02473,-3.531036 -1.38889,-6.876997 -3.957032,-9.394531 -2.622493,-2.570213 -6.146666,-3.9863286 -9.875,-3.9863286 z" />
  <path fill="url(#rarity-outline)" d="M 16.476562,0 C 7.4514178,0 0,6.4067502 0,14.404297 c 0,1.268624 0.1885965,2.528394 0.5625,3.746094 l 0.7539062,2.453125 0.6875001,-2.472657 C 2.9292419,14.79605 5.2730363,11.822335 8.4960938,9.9550781 L 8.9433594,9.6972656 8.5332031,7.1503906 10.941406,8.8085938 11.296875,8.6894531 C 12.408898,8.313433 13.570876,8.0597924 14.75,7.9355469 l 0.431641,-0.046875 1.294921,-2.9414063 1.296876,2.9433594 0.43164,0.044922 c 1.179169,0.1242502 2.340504,0.3780038 3.451172,0.7539062 l 0.357422,0.1210938 2.408203,-1.6582031 -0.410156,2.5449218 0.447265,0.2597656 c 3.223095,1.8672787 5.565766,4.8377417 6.492188,8.1738277 l 0.695312,2.501953 0.746094,-2.486328 c 0.333739,-1.111409 0.494631,-2.416926 0.560547,-3.705078 l 0.002,-0.01758 v -0.01953 C 32.955031,6.4067512 25.501706,0 16.476562,0 Z m 0,9.6933594 c -3.570213,0 -6.9288427,1.3528866 -9.4335932,3.8066406 -2.4521788,2.401777 -3.792791,5.579452 -3.7714844,8.945312 l 0.013672,2.248047 1.3378907,-1.80664 c 2.40921,-3.251264 6.9244629,-5.332031 11.8535149,-5.332031 4.929052,0 9.446259,2.080767 11.855469,5.332031 l 1.335938,1.804687 0.01563,-2.246094 c 0.02355,-3.362261 -1.316616,-6.538777 -3.769532,-8.943359 -2.504844,-2.454907 -5.867139,-3.8085936 -9.4375,-3.8085936 z" />
  <path fill="url(#rarity)" d="m 28.934017,22.441 c -2.58241,-3.485 -7.318059,-5.637 -12.456517,-5.637 -5.138458,0 -9.8741073,2.152 -12.4565174,5.637 -0.020035,-3.165 1.2326817,-6.139 3.5472551,-8.406 2.3641337,-2.316 5.5275603,-3.591 8.9092623,-3.591 3.381702,0 6.547238,1.276 8.911371,3.593 2.315628,2.27 3.56729,5.243 3.545146,8.404 z m 2.740582,-4.51 C 30.691828,14.392 28.219083,11.269 24.834217,9.308 l 0.607378,-3.77 -3.544092,2.441 C 20.733363,7.585 19.517552,7.32 18.283816,7.19 L 16.4775,3.086 14.671184,7.189 c -1.233736,0.13 -2.448492,0.395 -3.613687,0.789 L 7.513405,5.537 8.1207828,9.307 C 4.7359169,11.268 2.2621177,14.392 1.2804011,17.93 0.92820633,16.783 0.75,15.598 0.75,14.404 0.75,6.875 7.8054946,0.75 16.4775,0.75 c 8.672005,0 15.7275,6.125 15.7275,13.654 0,1.195 -0.178206,2.379 -0.531456,3.526 z"/>
</svg>
