<?xml version="1.0" encoding="UTF-8" standalone="no"?>
<svg
   version="1.1"
   width="27.779219"
   height="27.904297"
   viewBox="0 0 27.779218 27.904297"
   id="svg4"
   xmlns="http://www.w3.org/2000/svg"
   xmlns:svg="http://www.w3.org/2000/svg">
  <defs>
    <!-- This is the gradient that will actually be used on
     the cards. The colors themselves will be provided by the
     template, but the x values, y values, and offsets will be
     used from the SVG. -->
    <linearGradient id="rarity" x1="0" y1="1" x2="1" y2="0">
      <stop offset="0" style="stop-color:rgb(192,55,38);stop-opacity:1" id="stop2" />
      <stop offset="0.125" style="stop-color:rgb(192,55,38);stop-opacity:1" id="stop4" />
      <stop offset="0.5" style="stop-color:rgb(241,142,30);stop-opacity:1" id="stop6" />
      <stop offset="0.875" style="stop-color:rgb(192,55,38);stop-opacity:1" id="stop8" />
      <stop offset="1" style="stop-color:rgb(192,55,38);stop-opacity:1" id="stop10" />
    </linearGradient>
    <!-- These gradients are here so that you can visualize
     what the set symbol would like like in that rarity. The
     only gradient that matters in the end is the "rarity"
     gradient. -->
    <linearGradient id="mythic" x1="0" y1="1" x2="1" y2="0">
      <stop offset="0" style="stop-color:rgb(192,55,38);stop-opacity:1"/>
      <stop offset="0.125" style="stop-color:rgb(192,55,38);stop-opacity:1"/>
      <stop offset="0.5" style="stop-color:rgb(241,142,30);stop-opacity:1"/>
      <stop offset="0.875" style="stop-color:rgb(192,55,38);stop-opacity:1"/>
      <stop offset="1" style="stop-color:rgb(192,55,38);stop-opacity:1"/>
    </linearGradient>
    <linearGradient id="rare" x1="0" y1="1" x2="1" y2="0">
      <stop offset="0" style="stop-color:rgb(146,116,67);stop-opacity:1"/>
      <stop offset="0.125" style="stop-color:rgb(146,116,67);stop-opacity:1"/>
      <stop offset="0.5" style="stop-color:rgb(211,178,108);stop-opacity:1"/>
      <stop offset="0.875" style="stop-color:rgb(146,116,67);stop-opacity:1"/>
      <stop offset="1" style="stop-color:rgb(146,116,67);stop-opacity:1"/>
    </linearGradient>
    <linearGradient id="special" x1="0" y1="1" x2="1" y2="0">
      <stop offset="0" style="stop-color:rgb(76, 56, 106);stop-opacity:1"/>
      <stop offset="0.125" style="stop-color:rgb(76, 56, 106);stop-opacity:1"/>
      <stop offset="0.5" style="stop-color:rgb(201, 173, 221);stop-opacity:1"/>
      <stop offset="0.875" style="stop-color:rgb(76, 56, 106);stop-opacity:1"/>
      <stop offset="1" style="stop-color:rgb(76, 56, 106);stop-opacity:1"/>
    </linearGradient>
    <linearGradient id="uncommon" x1="0" y1="1" x2="1" y2="0">
      <stop offset="0" style="stop-color:rgb(98,110,119);stop-opacity:1"/>
      <stop offset="0.125" style="stop-color:rgb(98,110,119);stop-opacity:1"/>
      <stop offset="0.5" style="stop-color:rgb(196,222,238);stop-opacity:1"/>
      <stop offset="0.875" style="stop-color:rgb(98,110,119);stop-opacity:1"/>
      <stop offset="1" style="stop-color:rgb(98,110,119);stop-opacity:1"/>
    </linearGradient>
    <linearGradient id="common" x1="0" y1="1" x2="1" y2="0">
      <stop offset="0" style="stop-color:rgb(0,0,0);stop-opacity:1"/>
    </linearGradient>
    <linearGradient
            id="rarity-outline" x1="0" y1="1" x2="0" y2="1">
      <stop offset="0" style="stop-color:rgb(0,0,0);stop-opacity:1"/>
    </linearGradient>
  </defs>
  <path fill="#FFFFFF" d="m 18.759719,-0.875 c -3.245041,0.00124 -6.49188,-0.00125 -9.7402349,0.00195 H 7.2714372 V 1.465 H 6.441359 L 4.9843278,2.5175781 v -0.00195 C 1.6281188,4.9298413 -0.64792193,8.4650478 -0.85942223,12.349612 -1.0476011,15.80584 0.63268855,19.322181 4.0429216,22.212894 L -0.31450033,28.7793 H 28.095656 L 23.736281,22.212894 C 27.145328,19.325615 28.827014,15.820925 28.638625,12.37305 28.426902,8.4981189 26.150966,4.9732698 22.796828,2.5605469 L 21.347609,1.518 h -0.83789 v -2.393 z m 0,1.75 v 1.2070312 l -2.966797,4.265625 V 18.681641 h 3.033203 l 0.205078,-0.123047 C 23.18826,16.095829 23.334772,9.9511838 19.501906,7.2753906 v -0.00195 L 21.77339,3.982425 c 3.003585,2.1605601 4.941757,5.2379089 5.119141,8.484375 0.165398,3.02709 -1.303769,6.208702 -4.826172,8.923828 l -0.644531,0.498047 3.412109,5.140625 H 2.9472184 L 6.3573747,21.888672 5.7128434,21.390625 C 2.1910698,18.674462 0.72128533,15.48096 0.88667152,12.443359 1.0640358,9.1857608 3.0038636,6.0982889 6.0077653,3.9375 l 2.2695312,3.3378906 h 0.00195 c -3.8329289,2.675837 -3.68763,8.8221554 0.46875,11.2851564 l 0.2050781,0.123047 H 11.988231 V 6.3496094 L 9.0214372,2.0820312 V 0.87695313 C 12.267097,0.87375706 15.513985,0.87624501 18.759719,0.875 Z"/>
  <path fill="url(#rarity-outline)" d="M 18.759719,0 C 15.514003,0.001245 12.26682,-0.001247 9.019484,0.001953 H 8.1464372 V 0.87695313 2.3554688 L 11.113234,6.6230469 V 17.808594 H 9.1933122 C 5.5830235,15.669198 5.4765558,10.297858 8.7792497,7.9921875 L 9.488234,7.4980469 6.2245622,2.7011719 5.4960466,3.2265625 C 2.3159881,5.5140658 0.20805713,8.8253988 0.01362465,12.396484 -0.16911103,15.752738 1.482864,19.234357 5.1776872,22.083984 L 1.316359,27.904297 h 25.148438 l -3.863282,-5.820313 c 3.694653,-2.8479 5.346924,-6.317366 5.164063,-9.664062 C 27.571024,8.8592214 25.463973,5.5581282 22.285109,3.2714844 L 21.5605,2.75 18.287062,7.4941406 19.001906,7.9921875 c 3.302771,2.3057245 3.195262,7.6750255 -0.416015,9.8144535 H 16.667922 V 6.6210938 l 2.966797,-4.265625 V 0 Z" />
  <path fill="url(#rarity)" d="M 9.0205018,0.876 V 2.082 L 11.988502,6.348 V 18.683 H 8.8815018 c -4.315,-2.391 -4.482,-8.7 -0.603,-11.408 l -2.272,-3.339 c -6.00700008432,4.321 -7.75,12.372 0.325,17.993 l -3.385,5.101 c 19.4440002,0 5.105,0 21.8880002,0 l -3.385,-5.101 c 8.075,-5.621 6.332,-13.626 0.325,-17.947 l -2.272,3.292 c 3.879,2.708 3.713,9.017 -0.603,11.408 h -3.107 V 6.347 l 2.968,-4.266 V 0.875 c -7.915,0 -2.785,0 -9.7380002,0 z"/>
</svg>
