<?xml version="1.0" encoding="UTF-8" standalone="no"?>
<svg
   version="1.1"
   width="25.863804"
   height="28.74996"
   viewBox="0 0 25.863803 28.74996"
   id="svg4"
   xmlns="http://www.w3.org/2000/svg"
   xmlns:svg="http://www.w3.org/2000/svg">
  <defs
     id="defs42">
    <!-- This is the gradient that will actually be used on
     the cards. The colors themselves will be provided by the
     template, but the x values, y values, and offsets will be
     used from the SVG. -->
    <linearGradient
       id="rarity"
       x1="0"
       y1="0"
       x2="1"
       y2="0">
      <stop
         offset="0"
         style="stop-color:rgb(192,55,38);stop-opacity:1"
         id="stop2" />
      <stop
         offset="0.125"
         style="stop-color:rgb(192,55,38);stop-opacity:1"
         id="stop4" />
      <stop
         offset="0.5"
         style="stop-color:rgb(241,142,30);stop-opacity:1"
         id="stop6" />
      <stop
         offset="0.875"
         style="stop-color:rgb(192,55,38);stop-opacity:1"
         id="stop8" />
      <stop
         offset="1"
         style="stop-color:rgb(192,55,38);stop-opacity:1"
         id="stop10" />
    </linearGradient>
    <!-- These gradients are here so that you can visualize
     what the set symbol would like like in that rarity. The
     only gradient that matters in the end is the "rarity"
     gradient. -->
    <linearGradient
       id="mythic"
       x1="0"
       y1="1"
       x2="1"
       y2="0">
      <stop
         offset="0"
         style="stop-color:rgb(192,55,38);stop-opacity:1"
         id="stop13" />
      <stop
         offset="0.125"
         style="stop-color:rgb(192,55,38);stop-opacity:1"
         id="stop15" />
      <stop
         offset="0.5"
         style="stop-color:rgb(241,142,30);stop-opacity:1"
         id="stop17" />
      <stop
         offset="0.875"
         style="stop-color:rgb(192,55,38);stop-opacity:1"
         id="stop19" />
      <stop
         offset="1"
         style="stop-color:rgb(192,55,38);stop-opacity:1"
         id="stop21" />
    </linearGradient>
    <linearGradient
       id="rare"
       x1="0"
       y1="1"
       x2="1"
       y2="0">
      <stop
         offset="0"
         style="stop-color:rgb(146,116,67);stop-opacity:1"
         id="stop24" />
      <stop
         offset="0.125"
         style="stop-color:rgb(146,116,67);stop-opacity:1"
         id="stop26" />
      <stop
         offset="0.5"
         style="stop-color:rgb(211,178,108);stop-opacity:1"
         id="stop28" />
      <stop
         offset="0.875"
         style="stop-color:rgb(146,116,67);stop-opacity:1"
         id="stop30" />
      <stop
         offset="1"
         style="stop-color:rgb(146,116,67);stop-opacity:1"
         id="stop32" />
    </linearGradient>
    <linearGradient
       id="special"
       x1="0"
       y1="1"
       x2="1"
       y2="0">
      <stop
         offset="0"
         style="stop-color:rgb(76, 56, 106);stop-opacity:1"
         id="stop35" />
      <stop
         offset="0.125"
         style="stop-color:rgb(76, 56, 106);stop-opacity:1"
         id="stop37" />
      <stop
         offset="0.5"
         style="stop-color:rgb(201, 173, 221);stop-opacity:1"
         id="stop39" />
      <stop
         offset="0.875"
         style="stop-color:rgb(76, 56, 106);stop-opacity:1"
         id="stop41" />
      <stop
         offset="1"
         style="stop-color:rgb(76, 56, 106);stop-opacity:1"
         id="stop43" />
    </linearGradient>
    <linearGradient
       id="uncommon"
       x1="0"
       y1="1"
       x2="1"
       y2="0">
      <stop
         offset="0"
         style="stop-color:rgb(98,110,119);stop-opacity:1"
         id="stop46" />
      <stop
         offset="0.125"
         style="stop-color:rgb(98,110,119);stop-opacity:1"
         id="stop48" />
      <stop
         offset="0.5"
         style="stop-color:rgb(196,222,238);stop-opacity:1"
         id="stop50" />
      <stop
         offset="0.875"
         style="stop-color:rgb(98,110,119);stop-opacity:1"
         id="stop52" />
      <stop
         offset="1"
         style="stop-color:rgb(98,110,119);stop-opacity:1"
         id="stop54" />
    </linearGradient>
    <linearGradient
       id="common"
       x1="0"
       y1="1"
       x2="1"
       y2="0">
      <stop
         offset="0"
         style="stop-color:rgb(0,0,0);stop-opacity:1"
         id="stop57" />
    </linearGradient>
    <linearGradient
       id="rarity-outline"
       x1="0"
       y1="27.268721"
       x2="27.268721"
       y2="0"
       gradientTransform="scale(0.94847856,1.0543201)"
       gradientUnits="userSpaceOnUse">
      <stop
         offset="0"
         style="stop-color:rgb(0,0,0);stop-opacity:1"
         id="stop60" />
    </linearGradient>
    <linearGradient
       id="rarity-7"
       x1="0.93509442"
       y1="26.325494"
       x2="26.399397"
       y2="0.86119089"
       gradientTransform="scale(0.94620114,1.0568577)"
       gradientUnits="userSpaceOnUse">
      <stop
         offset="0"
         style="stop-color:rgb(192,55,38);stop-opacity:1"
         id="stop2-1" />
      <stop
         offset="0.125"
         style="stop-color:rgb(192,55,38);stop-opacity:1"
         id="stop4-2" />
      <stop
         offset="0.5"
         style="stop-color:rgb(241,142,30);stop-opacity:1"
         id="stop6-6" />
      <stop
         offset="0.875"
         style="stop-color:rgb(192,55,38);stop-opacity:1"
         id="stop8-0" />
      <stop
         offset="1"
         style="stop-color:rgb(192,55,38);stop-opacity:1"
         id="stop10-1" />
    </linearGradient>
  </defs>
  <path
     style="fill:#000000"
     d="m 16.893864,0.91015626 c 2.585561,0.50607894 5.0233,1.57659684 7.008602,3.14257814 -0.05873,0.9446863 -0.0363,1.8687555 -0.05666,2.7753906 C 23.207344,6.5962773 22.550653,6.377031 21.875727,6.4492187 l -0.04795,0.00586 -0.04358,0.013672 C 21.233625,6.6465462 20.598985,6.856514 20.108319,7.3261725 19.073455,8.1642762 18.646076,9.460906 18.916247,10.666017 l 0.0044,0.01758 0.0066,0.01953 c 0.258969,0.748688 0.7201,1.528618 1.577807,1.974609 0.912962,0.518434 1.911808,0.413128 2.745908,0.414063 0.473243,1.415331 1.017126,2.822546 1.728178,4.173828 -2.744686,3.539639 -6.222758,6.603113 -10.057431,9.21875 l -0.0066,0.0059 -0.0066,0.0039 c -0.632199,0.467635 -1.299765,0.899484 -1.976617,1.328125 -0.681173,-0.433239 -1.365047,-0.850241 -1.970111,-1.322265 l -0.0087,-0.0078 -0.0109,-0.0078 C 7.1086796,23.869746 3.6294859,20.805272 0.88478741,17.265625 1.595839,15.914343 2.1397221,14.507128 2.6129657,13.091797 c 0.8355586,-0.0011 1.8342984,0.104069 2.7480868,-0.416016 0.8545969,-0.446234 1.3168353,-1.224478 1.5756279,-1.972656 l 0.00436,-0.01953 0.00436,-0.01758 C 7.2157219,9.4602215 6.7890062,8.1623241 5.7511458,7.3242187 5.2607651,6.856898 4.6300326,6.6487355 4.0818084,6.4707031 l -0.045765,-0.015625 -0.047944,-0.00586 C 3.3127409,6.3769849 2.6551118,6.5954076 2.0158397,6.828125 1.9900581,5.5872022 1.9659101,4.6600141 1.9548196,4.2949219 1.9507457,4.1608097 1.9497631,4.1264311 1.9482818,4.0644531 4.1721396,2.5259314 6.5910292,1.3394352 8.9699596,0.91210938 9.1918484,2.044901 9.892883,3.0664142 10.93786,3.6914062 l 0.01961,0.011719 0.01743,0.00781 c 1.042272,0.2057615 1.602461,0.2909418 2.44304,0.3691432 0.515714,-0.068484 1.028863,-0.1651613 1.466663,-0.3671875 l 0.01962,-0.00781 0.01962,-0.013672 C 15.969402,3.066073 16.672554,2.043726 16.893929,0.91015866 Z"
     id="path44" />
  <path
     fill="#000000"
     d="m 10.432966,2.2527922 -0.7394369,0.895668 c -0.294445,0.2813258 -0.431359,0.6122369 -0.541016,0.875 v 0.00195 0.00195 c -0.31616,0.7713559 -0.606744,1.6262889 -0.583984,2.5605531 v 0.00781 0.00781 c 0.01745,0.3022162 -0.05845,0.8853497 0.251953,1.4394582 C 8.2464951,7.6042248 7.6379381,7.1785378 7.2072001,6.722679 l -0.0078,-0.00977 -0.0098,-0.00781 C 6.5630911,6.1033008 6.0794131,5.3477424 5.7091541,4.5312727 l -0.716797,-1.5800781 -0.234375,1.71875 c -0.08557,0.6275265 -0.06283,1.235267 -0.04687,1.8085937 l 0.0059,0.2519532 0.207031,0.1425781 c 0.995244,0.6966716 1.723278,1.9543298 1.612484,3.1541644 v 0.0098 l -0.0019,0.0098 c -0.0554,1.078939 -0.841984,2.138311 -1.825378,2.543092 l -0.0098,0.0039 -0.0078,0.0039 c -0.48133,0.221256 -1.093652,0.217274 -1.761719,0.199219 l -0.404297,-0.01172 -0.0957,0.392578 c -0.2152,0.879375 -0.633555,1.735674 -0.947264,2.720717 l -0.539062,1.695313 1.34375,-1.166016 c 0.476279,-0.413242 0.921292,-0.791246 1.414062,-1.001953 l 0.02734,-0.01172 0.02539,-0.01367 c 0.963195,-0.550669 2.003616,-0.933635 3.078125,-1.013672 l 0.5625,-0.04101 c -0.852328,0.38689 -1.620338,0.850291 -2.138672,1.447265 l -0.796875,0.919922 1.212891,-0.09375 c 0.829153,-0.0633 1.680692,0.122252 2.416015,0.513672 0.636168,0.36106 1.146146,0.962271 1.478516,1.642578 0.118174,0.382822 0.200077,0.822624 0.166016,1.189453 -0.03524,0.379485 -0.154539,0.652059 -0.445313,0.851563 l -0.753906,0.517578 0.84375,0.355469 c 0.130436,0.05492 0.240075,-0.01443 0.369141,0.0059 -0.06283,0.08332 -0.09352,0.189618 -0.166016,0.263672 -0.305452,0.266318 -0.841721,0.321377 -1.490234,0.525391 l -1.804689,0.568312 1.84961,0.396484 c 1.609622,0.346323 3.4289019,0.56617 5.1152349,-0.140625 0.878944,-0.338558 1.516144,-1.000904 2.015625,-1.664062 l 1.085863,-1.441406 -1.671875,0.675781 c -0.273897,0.110853 -0.614397,0.176943 -0.894531,0.152344 -0.280134,-0.0246 -0.479767,-0.114551 -0.625,-0.308594 l -0.01563,-0.02148 -0.01953,-0.01953 c -0.02646,-0.02837 -0.0124,0.03347 0.0059,-0.03125 0.01826,-0.06472 0.09412,-0.197547 0.183593,-0.314453 l 0.607422,-0.794922 -1,-0.0098 c -0.142821,-0.0014 -0.28125,0.0012 -0.419922,0.002 -0.136889,-0.104819 -0.267313,-0.206117 -0.279333,-0.265643 l -0.0059,-0.03125 -0.01172,-0.03125 c -0.01017,-0.02991 -0.01861,-8e-4 0.04102,-0.08789 0.05963,-0.08709 0.192169,-0.21399 0.335937,-0.369141 l 0.867188,-0.935546 -1.271485,0.0957 c -0.216792,0.01641 -0.371349,-0.057 -0.521483,-0.15625 -0.02164,-0.09784 -0.06253,-0.251401 -0.05469,-0.277344 l 0.0059,-0.01563 0.0039,-0.01758 c 0.05019,-0.216829 0.295083,-0.431651 0.625,-0.59961 l 0.666017,-0.339843 -0.56836,-0.486328 c -0.02709,-0.02316 -0.06231,-0.0151 -0.08984,-0.03711 0.461179,0.0889 0.92638,0.197551 1.388672,0.357422 0.314299,0.157286 0.570814,0.404474 0.664063,0.683594 v 0.002 0.002 c 0.0018,0.0052 0.01005,-0.01225 -0.01953,0.05469 -0.02958,0.06693 -0.104961,0.177158 -0.191407,0.328125 l -0.380859,0.666015 0.763672,0.08008 c 0.825734,0.08697 1.616168,0.282185 2.046874,0.822266 l 0.01172,0.01367 0.01172,0.01367 c 0.29473,0.320444 0.350909,0.847353 0.199219,1.320312 l -0.322267,1.003906 0.980469,-0.384765 c 0.82757,-0.324997 1.573273,-0.894669 2.056641,-1.679688 0.637677,-0.944418 0.74615,-2.031683 0.857422,-2.980468 l 0.205078,-1.744141 -1.091797,1.375 c -0.233106,0.293335 -0.505423,0.414472 -0.757813,0.607422 -0.06518,-0.220021 -0.132776,-0.442937 -0.314453,-0.630859 l -0.08398,-0.08984 -0.117188,-0.03711 c -0.05488,-0.01829 -0.112392,-0.03773 -0.167968,-0.05664 0.24877,-1.488309 -0.122156,-3.020687 -1.050781,-4.175781 -1.117799,-1.442453 -2.260815,-2.8487328 -3.326177,-4.3008707 l -0.002,-0.00195 C 13.024245,6.4435101 12.795085,5.4342954 12.787279,4.4023665 12.730018,3.287285 12.068048,3.8435925 11.847826,4.1640852 11.51844,4.7649199 11.318952,5.4299593 11.242357,6.113304 11.059478,5.8116576 10.777874,5.5372566 10.648607,5.2168196 10.460491,4.7275181 10.509898,4.1263758 10.539232,3.5332259 Z M 5.7150131,6.2832258 c 0.03169,0.045703 0.06103,0.091644 0.09375,0.1367188 -0.03701,-0.032295 -0.05569,-0.080217 -0.09375,-0.1113281 -2.37e-4,-0.00883 2.33e-4,-0.016573 0,-0.025391 z m 3.796875,2.3222657 0.04102,0.035156 c -0.01254,-0.012178 -0.02452,-0.017266 -0.03711,-0.029297 -0.0018,-0.00171 -0.0021,-0.00415 -0.0039,-0.00586 z"
     id="path46" />
  <path
     fill="#ffffff"
     d="m 10.038961,3.5097884 c -0.2019999,0.193 -0.3178279,0.4530312 -0.4238279,0.7070312 -0.307,0.749 -0.566875,1.538375 -0.546875,2.359375 0.025,0.433 -0.08636,0.917875 0.18164,1.296875 0.374001,0.3590002 0.685782,0.7811875 0.9257819,1.2421875 0.405999,0.66 0.781061,1.3588579 0.914062,2.1308599 -0.031,-0.032 -0.09595,-0.09691 -0.126953,-0.128907 -0.61,-0.685001 -1.0247659,-1.5431404 -1.7597659,-2.1191404 -0.732999,-0.712 -1.656375,-1.1895937 -2.359375,-1.9335937 -0.684,-0.657 -1.199843,-1.4661719 -1.589843,-2.3261719 -0.078,0.572 -0.120028,1.5266378 -0.104028,2.1016378 0.493558,0.2543384 0.941158,0.5650849 1.289574,0.9901591 0.70493,0.8155946 0.97501,1.8899563 0.748047,2.9023441 l -0.0039,0.01758 -0.0039,0.01953 c -0.258792,0.748178 -0.721575,1.526422 -1.576172,1.972656 -0.17381,0.09892 -0.351047,0.1698 -0.529297,0.228516 -0.0575,0.02824 -0.114215,0.05749 -0.173828,0.08203 -0.62,0.285 -1.318375,0.262141 -1.984375,0.244141 -0.232,0.948 -0.657906,1.812703 -0.957031,2.751953 0.476,-0.413 0.959875,-0.832984 1.546875,-1.083984 1.011,-0.578 2.121063,-0.991126 3.289063,-1.078126 -0.494,-0.272 -1.025172,-0.462171 -1.576172,-0.576171 0.523,-0.464 1.153406,-0.799625 1.816406,-1.015625 1.51725,-0.385558 2.9850769,-0.167477 4.0742189,0.324218 -1.1830009,-0.112 -2.3968599,-0.0076 -3.5058599,0.441407 0.654,0.303 1.39986,0.499218 1.88086,1.074218 -1.578185,0.356181 -3.071004,1.089594 -3.84961,1.986329 0.93,-0.071 1.874313,0.133265 2.695313,0.572265 0.752,0.425 1.336031,1.115672 1.7070309,1.888672 0.279,0.872 0.390203,2.058484 -0.4667969,2.646484 0.342,0.144 0.6978749,0.102907 1.0468749,0.0039 -0.15,0.409 -0.387312,0.788656 -0.6953119,1.097656 -0.465,0.414 -1.112641,0.451859 -1.681641,0.630859 1.578476,0.339621 3.2921719,0.531766 4.8261719,-0.115234 0.749,-0.287 1.327781,-0.873953 1.800781,-1.501953 -0.677,0.274 -1.622422,0.325734 -2.107422,-0.322266 -0.291,-0.312 -0.05575,-0.713234 0.15625,-0.990234 -0.202,-0.002 -0.401516,9.53e-4 -0.603516,0.002 -0.246,-0.166 -0.517078,-0.354016 -0.580078,-0.666016 -0.136,-0.4 0.244375,-0.699984 0.484375,-0.958984 -0.37,0.028 -0.721954,-0.06741 -1.001953,-0.316406 -0.06,-0.249 -0.169798,-0.503719 -0.0918,-0.761719 0.103,-0.445 0.501719,-0.737594 0.886719,-0.933594 -0.58,-0.496 -1.315781,-0.690547 -2.0507809,-0.810547 1.2730009,-0.501 2.6468589,-0.140937 3.8808589,0.289063 0.415,0.202 0.782641,0.540328 0.931641,0.986328 0.102,0.297 -0.112,0.553922 -0.25,0.794922 0.864,0.091 1.813766,0.291812 2.384765,1.007812 0.447,0.486 0.501641,1.202547 0.306641,1.810547 0.741,-0.291 1.404266,-0.797469 1.822266,-1.480469 0.556,-0.816 0.667297,-1.816484 0.779297,-2.771484 -0.418,0.526 -0.890454,1.03375 -1.564454,1.21875 0.07799,-0.43204 0.06218,-0.874118 -0.257821,-1.205118 -0.168,-0.056 -0.334,-0.114922 -0.5,-0.169922 0.41,-1.461 -0.01217,-3.054656 -0.951172,-4.222656 C 15.425915,10.404772 14.27807,8.9914604 13.20107,7.5234602 12.53807,6.6274603 12.295352,5.5092728 12.287008,4.4062728 c -0.307,0.56 -0.500453,1.1754999 -0.564453,1.8125 0.041,0.23 0.08377,0.4604531 0.134765,0.6894531 1.017,1.5660002 2.394625,2.8789684 3.265625,4.5429691 0.288,0.574 0.541188,1.179265 0.617188,1.822265 -0.146,-0.077 -0.255219,-0.187031 -0.324219,-0.332031 -0.857,-1.658 -2.047094,-3.1093437 -3.246094,-4.5273438 C 11.41882,7.4750851 10.637493,6.5274134 10.183492,5.4004134 9.9377531,4.7656251 10.010725,4.0807129 10.038961,3.5097884 Z m 3.339844,8.8339846 c 1.094,0.599 1.843922,1.772187 2.044922,2.992187 -0.406,-0.044 -0.871063,-0.05377 -1.164063,-0.384765 -0.499001,-0.516 -0.816749,-1.194625 -0.96875,-1.890625 -0.063,-0.243 0.01989,-0.485797 0.08789,-0.716797 z"
     id="path48" />
  <path
     style="fill:#ffffff;stroke:none;stroke-width:0.01;stroke-miterlimit:4;stroke-dasharray:none;stroke-opacity:1"
     d="M 9.6308594,0 9.1640625,0.0703125 C 6.4130028,0.47885396 3.712219,1.8590931 1.28125,3.5625 L 1.27148,3.57031 1.259761,3.57812 C 1.237507,3.596001 1.1345603,3.7399227 1.1210892,3.8027294 c -0.013471,0.062807 -0.011597,0.086998 -0.011719,0.1230468 -2.42e-4,0.072098 0.00133,0.177277 0.00781,0.390625 0.012962,0.4266963 0.03993,1.2692599 0.072266,2.9550782 L 1.203125,7.9511719 1.8378906,7.5800781 C 2.4242169,7.2368213 3.1318313,7.132954 3.8515625,7.203125 4.3725577,7.3739644 4.8454408,7.5414846 5.1542969,7.8417969 l 0.015625,0.013672 0.013672,0.013672 c 0.8012529,0.6395569 1.1442897,1.6747346 0.9394531,2.6269531 -0.2254155,0.641462 -0.594251,1.229807 -1.1875,1.537109 l -0.00781,0.0039 -0.00977,0.0039 C 4.2407137,12.4296 3.3143331,12.303075 2.3027344,12.34375 l -0.296875,0.01172 -0.085937,0.257812 C 1.4135706,14.158395 0.82999829,15.678969 0.05664062,17.115234 L 0,17.21875 l 0.05273437,0.306641 0.05468751,0.07031 c 2.81253492,3.655851 6.38675362,6.795881 10.30468712,9.470703 0.004,0.0032 0.0096,0.0047 0.01367,0.0078 0.0033,0.0022 0.0046,0.0056 0.0078,0.0078 0.72644,0.563974 1.508356,1.034861 2.253906,1.513672 L 12.929688,28.75 13.171875,28.597656 c 0.765954,-0.480624 1.526741,-0.975663 2.257813,-1.515625 l 0.0078,-0.0078 c 3.923863,-2.677637 7.504825,-5.818826 10.320312,-9.478516 l 0.05273,-0.07031 0.05273,-0.306641 -0.05664,-0.103516 c -0.77333,-1.436279 -1.356908,-2.956853 -1.863261,-4.501967 l -0.08398,-0.257812 -0.298828,-0.01172 C 22.54862,12.30306 21.62237,12.43029 20.945312,12.041016 l -0.0098,-0.0039 -0.0078,-0.0039 C 20.333585,11.725902 19.965729,11.137849 19.740234,10.496094 19.53546,9.544083 19.87932,8.5087602 20.679688,7.8691406 l 0.01562,-0.013672 0.01172,-0.013672 c 0.3091,-0.30055 0.786458,-0.4689133 1.306641,-0.6386719 0.718634,-0.069654 1.427576,0.03468 2.013672,0.3769531 l 0.615234,0.359375 0.03125,-0.6582031 c 0.05476,-1.1595407 -0.01942,-2.2931933 0.06836,-3.3945312 L 24.755859,3.703125 24.603516,3.5800781 C 22.38936,1.7929116 19.633282,0.58115906 16.712891,0.07226562 l -0.03906,-0.0078125 h -0.04102 -0.404296 l -0.01367,0.359375 C 16.167887,1.4690378 15.452723,2.4603354 14.474609,3.0527344 13.994015,3.2716891 13.487703,3.4260655 12.990234,3.4335938 h -0.02539 C 12.448215,3.4530859 11.883694,3.2868903 11.388672,3.0546875 10.409874,2.4623847 9.6973746,1.4695091 9.6503906,0.42382812 Z M 16.894531,0.91015625 C 19.480092,1.4162352 21.917042,2.4867531 23.902344,4.0527344 23.843614,4.9974207 23.866063,5.9214899 23.845703,6.828125 23.207241,6.5962773 22.549926,6.377031 21.875,6.4492188 l -0.04687,0.00586 -0.04297,0.013672 C 21.234588,6.6465463 20.598092,6.8565142 20.107426,7.3261727 19.072562,8.1642764 18.645849,9.4609054 18.91602,10.666017 l 0.0039,0.01758 0.0078,0.01953 c 0.258969,0.748688 0.720418,1.528618 1.578125,1.974609 0.912962,0.518434 1.910041,0.413128 2.744141,0.414063 0.473243,1.415331 1.017464,2.822546 1.728516,4.173828 -2.744686,3.539639 -6.221968,6.603113 -10.056641,9.21875 l -0.0059,0.0059 -0.0078,0.0039 c -0.632199,0.467635 -1.29971,0.899484 -1.976562,1.328125 C 12.250468,27.389027 11.566002,26.972024 10.960938,26.5 l -0.0078,-0.0078 -0.01172,-0.0078 C 7.1079049,23.869684 3.6294641,20.805272 0.88476562,17.265625 1.5958172,15.914343 2.1400377,14.507128 2.6132812,13.091797 3.4488399,13.090697 4.4475397,13.195866 5.3613281,12.675781 6.215925,12.229547 6.6787074,11.451303 6.9375,10.703125 l 0.00391,-0.01953 0.00391,-0.01758 C 7.215634,9.4602221 6.7898135,8.1623241 5.7519531,7.3242188 5.2395497,6.8661103 4.7586738,6.5713752 4.0351562,6.4550781 l -0.046875,-0.00586 C 3.3129228,6.3769856 2.6548971,6.5954076 2.015625,6.828125 1.9898434,5.5872022 1.9661686,4.6600141 1.9550781,4.2949219 1.9510042,4.1608097 1.9507001,4.1264311 1.9492188,4.0644531 4.1730766,2.5259314 6.5917727,1.3394352 8.9707031,0.91210938 9.1925919,2.044901 9.892523,3.0664142 10.9375,3.6914062 l 0.01953,0.011719 0.01758,0.00781 c 1.23093,0.5100525 1.926455,0.3932493 2.44336,0.3691406 0.515714,-0.068484 1.028997,-0.1651613 1.466797,-0.3671875 l 0.01953,-0.00781 0.01953,-0.013672 C 15.969386,3.0660705 16.673155,2.0437237 16.89453,0.91015635 Z"
     id="path50" />
  <path
     style="color:#000000;fill:#000000;-inkscape-stroke:none"
     d="m 16.697266,0.6171875 -0.04883,0.24414063 C 16.440747,1.9248218 15.779879,2.8874717 14.794922,3.4765625 l -0.0078,0.00586 h -0.002 l -0.0059,0.00391 C 14.385381,3.6681037 13.899834,3.7609409 13.398438,3.828125 12.857255,3.8539529 12.25379,3.9685089 11.076172,3.4824219 l -0.0059,-0.00195 -0.0039,-0.00391 C 10.082211,2.8879237 9.4250714,1.926569 9.2167969,0.86328125 L 9.1679688,0.62304687 8.9257813,0.66601562 C 6.4966175,1.1023648 4.0507881,2.3068164 1.8066406,3.859375 l -0.1113281,0.076172 0.00391,0.1347656 c 0.00145,0.060587 0.00176,0.097391 0.00586,0.2324219 0.011028,0.3630446 0.034778,1.2909205 0.060547,2.53125 L 1.7734375,7.1816406 2.1015625,7.0625 C 2.7349809,6.8319135 3.3529015,6.6337215 3.9570313,6.6972656 l 0.039063,0.00391 0.00195,0.00195 c 0.6735653,0.1088287 1.0944339,0.3654712 1.5878906,0.8066406 l 0.00391,0.00586 0.00586,0.00391 C 6.5614177,8.29938 6.9508519,9.4975906 6.7011737,10.611333 l -0.00195,0.01563 c -0.2465081,0.709904 -0.6734804,1.421028 -1.453125,1.828125 l -0.00391,0.002 -0.00391,0.002 c -0.833137,0.47408 -1.7681996,0.381581 -2.6249974,0.382709 H 2.4335938 l -0.056641,0.169922 C 1.9061852,14.419646 1.3662853,15.813934 0.6640625,17.148437 L 0.58789062,17.291016 0.6875,17.417969 c 2.7631594,3.563454 6.2592549,6.644118 10.107422,9.269531 l 0.002,0.002 c 0.0012,8.09e-4 0.0027,0.0011 0.0039,0.002 l 0.0059,0.0059 c 0.620855,0.484343 1.311807,0.904382 1.990234,1.335937 l 0.134766,0.08594 0.132812,-0.08594 c 0.665807,-0.421646 1.324976,-0.850598 1.955078,-1.314453 l 0.0098,-0.0059 0.03516,-0.01758 0.0332,-0.03125 0.002,-0.002 c 3.836097,-2.621321 7.321046,-5.691037 10.076172,-9.24414 l 0.09961,-0.126953 -0.07617,-0.142579 c -0.702223,-1.334503 -1.242123,-2.728791 -1.712891,-4.136718 l -0.05664,-0.169922 H 23.25 c -0.855364,-9.59e-4 -1.788739,0.0918 -2.621094,-0.380859 l -0.0039,-0.002 -0.0039,-0.0039 c -0.784425,-0.407886 -1.21052,-1.121312 -1.457032,-1.833984 l -0.002,-0.0059 -0.002,-0.0039 v -0.002 C 18.911543,9.4969945 19.303205,8.2989645 20.265625,7.5195312 l 0.0078,-0.00586 0.0078,-0.00781 c 0.439561,-0.4207192 1.030686,-0.6214074 1.580103,-0.79883 l 0.02148,-0.00586 0.01953,-0.00391 C 22.506977,6.6325961 23.12552,6.8321835 23.759766,7.0625 l 0.328125,0.1191406 0.0078,-0.3476562 c 0.02054,-0.9145698 -0.0012,-1.8349542 0.05664,-2.765625 L 24.160156,3.9375 24.056641,3.8574219 C 22.036733,2.2641444 19.565079,1.1772189 16.943359,0.6640625 Z m 0.333984,0.5976562 c 2.438502,0.5056698 4.732504,1.5126492 6.617187,2.9746094 -0.04286,0.8032523 -0.0363,1.5810201 -0.04687,2.3417969 C 23.04685,6.3402316 22.474819,6.1340926 21.847656,6.2011719 h -0.002 l -0.07227,0.00781 -0.06445,0.021484 c -0.548834,0.1772344 -1.225232,0.399356 -1.765625,0.9121094 -1.099993,0.8965916 -1.5615,2.2844953 -1.271484,3.5781247 l 0.0078,0.03711 0.01563,0.03711 c 0.271217,0.779417 0.766247,1.616658 1.6875,2.099609 h 0.002 c 0.932635,0.528795 1.909074,0.455298 2.699218,0.445313 0.443032,1.308229 0.953993,2.611047 1.603516,3.873047 -2.711841,3.468941 -6.127318,6.486837 -9.90625,9.064453 l -0.0078,0.0059 -0.01172,0.0078 -0.002,0.002 c -0.580994,0.429759 -1.200679,0.829772 -1.828125,1.228515 -0.631477,-0.399986 -1.258593,-0.786189 -1.804688,-1.210937 l -0.01367,-0.01367 -0.03125,-0.01953 -0.002,-0.002 c -3.7768759,-2.576358 -7.1929716,-5.594232 -9.9042968,-9.0625 0.6495228,-1.262 1.1604841,-2.564818 1.6035157,-3.873047 0.7904737,0.0098 1.7667859,0.08271 2.6992187,-0.445313 0.9257861,-0.484516 1.4241879,-1.325544 1.6953125,-2.109375 l 0.00586,-0.01563 0.00586,-0.03516 0.00391,-0.01367 C 7.4796985,9.4260021 7.0182507,8.0333272 5.9140625,7.1367187 5.3845169,6.663931 4.8443116,6.3327679 4.0742187,6.2089844 l -0.00391,-0.00195 -0.052734,-0.00586 H 4.015625 C 3.3875081,6.1339921 2.8139963,6.3395181 2.2578125,6.53125 2.2355342,5.4990566 2.2149505,4.6121008 2.2050781,4.2871094 2.2036258,4.2392986 2.203834,4.2329903 2.203125,4.2050781 4.3195548,2.7561001 6.6005683,1.654394 8.8339844,1.2167969 9.1222364,2.3087558 9.7872428,3.2953885 10.808594,3.90625 l 0.0332,0.019531 0.03516,0.015625 h 0.002 c 1.274166,0.5279676 2.06099,0.4115159 2.550782,0.3886718 h 0.0098 l 0.01172,-0.00195 c 0.524691,-0.069676 1.061314,-0.1682113 1.539062,-0.3886719 l 0.0332,-0.013672 0.03125,-0.021484 c 1.020449,-0.6111857 1.68839,-1.5971935 1.976562,-2.6894532 z"
     id="path2256" />
</svg>
