<?xml version="1.0" encoding="UTF-8" standalone="no"?>
<svg
   version="1.1"
   width="31.728516"
   height="31.474609"
   viewBox="0 0 31.728515 31.47461"
   id="svg4"
   xmlns="http://www.w3.org/2000/svg"
   xmlns:svg="http://www.w3.org/2000/svg">
  <defs
     id="defs8" />
  <path
     style="color:#000000;fill:#ffffff;stroke-miterlimit:2;-inkscape-stroke:none"
     d="m 15.863328,0 0.568359,0.66210935 C 19.661844,4.4281268 22.902564,8.1882665 26.128953,11.962891 l 0.574218,0.671875 -0.755859,0.457031 c -3.230267,1.951953 -6.453529,3.916355 -9.683594,5.875 l -0.394531,0.240235 -0.390625,-0.244141 C 12.119988,16.875366 8.710476,14.754271 5.837937,12.966797 L 5.09575,12.503907 5.666062,11.841797 C 8.87339,8.113416 12.084205,4.3869352 15.293015,0.66015622 Z M 5.359375,15.472657 5.902344,15.810547 C 9.222102,17.873608 12.541982,19.937946 15.861328,22 19.199432,19.97731 22.535211,17.950858 25.875,15.927735 l 0.546875,-0.332031 0.41211,0.488281 c 1.440888,1.698868 2.884267,3.397815 4.326172,5.095703 l 0.568359,0.669922 -0.751953,0.455078 c -4.906932,2.976958 -9.813581,5.955566 -14.720703,8.93164 L 15.863282,31.47461 15.472657,31.232422 C 10.5647,28.192449 5.654284,25.153475 0.748047,22.111328 L 0,21.646485 0.578125,20.982422 c 1.300455,-1.498561 2.843562,-3.274073 4.361329,-5.02539 z"
     id="path1561" />
  <path
     fill="#000000"
     d="m 6.234937,12.330391 c 3.207,-3.7280004 6.418,-7.4530004 9.627,-11.1800004 3.231,3.767 6.472,7.526 9.697,11.2990004 -3.232,1.953 -6.456,3.919 -9.685,5.877 -3.214,-1.998 -6.426,-3.997 -9.639,-5.995 z m -5.091,9.143 c 4.906,3.042 9.815,6.082 14.723,9.122 4.907,-2.976 9.814,-5.954 14.721,-8.931 -1.442,-1.698 -2.884,-3.397 -4.325,-5.096 -3.47,2.102 -6.936,4.21 -10.406,6.312 -3.45,-2.143 -6.9,-4.289 -10.35,-6.433 -1.454,1.677 -2.909,3.35 -4.362,5.026 z"
     id="path2-3"
     style="fill:#000000" />
  <path
     fill="#000000"
     d="m 8.591937,12.219391 c 2.163,1.346 4.321,2.7 6.483,4.049 10e-4,-4.051 10e-4,-8.1010004 10e-4,-12.1520004 -2.162,2.701 -4.327,5.399 -6.484,8.1040004 z m -5.369,9.081 c 0.832,-0.928 1.662,-1.855 2.494,-2.782 3.118,1.893 6.235,3.786 9.352,5.679 0.002,1.438 -10e-4,2.876 0.002,4.313 -3.951,-2.4 -7.9,-4.806 -11.848,-7.211 z"
     id="path2"
     style="fill:#ffffff" />
</svg>
