<?xml version="1.0" encoding="UTF-8" standalone="no"?>
<svg
   version="1.1"
   width="30.010921"
   height="34.124165"
   viewBox="0 0 30.010921 34.124165"
   id="svg4"
   xmlns="http://www.w3.org/2000/svg"
   xmlns:svg="http://www.w3.org/2000/svg">
  <defs
     id="defs8" />
  <path
     d="M 14.897988,33.53368 C 10.295177,31.450926 6.0333146,28.342855 2.1395784,24.127935 4.5756342,17.815438 4.0296217,10.823513 0.59789605,3.1719258 1.9147497,1.4992992 8.6867871,-0.25485857 10.907897,0.84457837 10.181527,1.3189422 9.7615176,2.322024 9.7615176,3.4387554 c 0,2.7275919 3.5527874,3.0611289 5.2427084,3.0611289 l 0.08153,-0.00247 c 1.72204,-0.00988 5.163648,-0.3730674 5.163648,-3.0586583 0,-1.1167314 -0.42001,-2.1198132 -1.146379,-2.59417703 2.221109,-1.09943694 8.993147,0.65472083 10.31,2.32734743 C 25.9813,10.823514 25.435287,17.815439 27.871343,24.127936 23.947959,28.374974 19.649037,31.50034 15.004225,33.583094 Z"
     style="clip-rule:evenodd;fill:#000000;fill-rule:evenodd;stroke-width:0.247064;stroke-linecap:round"
     id="path8" />
  <path
     id="path3656"
     style="color:#000000;clip-rule:evenodd;fill:#ffffff;fill-rule:evenodd;stroke-width:2.5;stroke-linecap:round;-inkscape-stroke:none"
     d="M 8.7285156 1.7519531 C 7.8982539 1.7538782 6.8831389 1.8610733 5.8769531 2.0683594 C 5.8769531 2.0683594 5.875 2.0683594 5.875 2.0683594 C 4.4657846 2.3611639 3.2437739 2.9117646 2.3671875 3.4726562 L 19.378906 26.701172 L 19.380859 26.705078 C 19.931684 27.469125 20.167574 28.316239 20.183594 29.144531 C 21.462367 28.238302 22.628667 27.295169 23.691406 26.373047 L 9.1328125 5.5410156 L 9.1269531 5.53125 C 8.7405258 4.9553983 8.5117188 4.2242241 8.5117188 3.4394531 C 8.5117186 2.8579898 8.658825 2.3015671 8.8378906 1.765625 C 8.7836276 1.764421 8.7843276 1.7518237 8.7285156 1.7519531 z " />
  <path
     id="path14"
     style="clip-rule:evenodd;fill-rule:evenodd;stroke-width:0.247064;stroke-linecap:round;fill:#ffffff"
     d="M 8.6230469 0.00390625 C 7.5943322 0.030156851 6.4301832 0.19697908 5.2949219 0.46875 C 3.9706563 0.78499254 2.6876433 1.2329511 1.7265625 1.7246094 C 1.02737 2.0828529 0.49230739 2.4749894 0.19335938 2.8554688 L 0 3.0996094 L 0.12890625 3.3847656 C 3.4963951 10.890584 4.0492698 17.749452 1.6601562 23.943359 L 1.5449219 24.242188 L 1.7617188 24.478516 C 5.7048679 28.745319 10.02344 31.893976 14.685547 34.003906 L 14.898438 34.050781 L 14.6875 34.005859 L 15.060547 34.125 L 15.216797 34.052734 C 19.920905 31.942803 24.274732 28.779908 28.25 24.478516 L 28.466797 24.242188 L 28.351562 23.943359 C 25.962449 17.749454 26.515324 10.890584 29.882812 3.3847656 L 30.011719 3.0996094 L 29.818359 2.8554688 C 29.519411 2.4749894 28.982395 2.0828529 28.283203 1.7246094 C 27.322122 1.2329511 26.041062 0.78499254 24.716797 0.46875 C 22.448745 -0.07479185 20.055968 -0.2007772 18.875 0.38476562 L 18.068359 0.78320312 L 18.822266 1.2773438 C 19.425103 1.6701762 19.736328 2.5129613 19.736328 3.4394531 C 19.736328 4.53889 19.005067 5.143309 18.123047 5.4941406 C 17.110082 5.8968557 15.894355 5.9794337 15.083984 5.984375 L 15.001953 5.984375 C 14.208876 5.984375 12.971265 5.9119629 11.933594 5.5117188 C 11.031809 5.1633578 10.275391 4.5586552 10.275391 3.4394531 C 10.275391 2.5129613 10.586616 1.6701762 11.189453 1.2773438 L 11.943359 0.78320312 L 11.134766 0.38476562 C 10.544282 0.091994215 9.6517616 -0.022344351 8.6230469 0.00390625 z M 9.0996094 1.0175781 C 9.4010281 1.0249881 9.6830236 1.0464075 9.9375 1.0859375 C 9.5001959 1.6986574 9.2480469 2.5327265 9.2480469 3.4394531 C 9.2480469 4.7439536 9.9170244 5.5926594 10.863281 6.1386719 C 12.128251 6.8699827 13.921763 7.0136719 15.003906 7.0136719 L 15.089844 7.0136719 C 16.191752 7.0062619 17.954131 6.8490159 19.189453 6.1152344 C 20.113474 5.5692219 20.763672 4.7241884 20.763672 3.4394531 C 20.763672 2.5327265 20.511523 1.6986574 20.074219 1.0859375 C 20.328695 1.0464075 20.612644 1.0249901 20.914062 1.0175781 C 21.966558 0.99781292 23.240723 1.1722726 24.478516 1.46875 C 25.716309 1.7652274 26.915138 2.1786145 27.814453 2.640625 C 28.219639 2.8481592 28.562565 3.0599271 28.804688 3.2773438 C 26.473693 8.5815267 25.525947 13.573058 25.96875 18.246094 C 25.902177 18.272249 25.832612 18.287109 25.759766 18.287109 C 25.243401 18.287109 25.05474 18.065941 24.802734 17.816406 C 23.226463 16.250017 18.804688 12.330078 18.804688 12.330078 L 27.076172 23.414062 C 27.143805 23.613391 27.205974 23.813693 27.279297 24.011719 C 23.523917 28.021575 19.423371 30.999061 15.005859 33.017578 C 10.585875 31.001532 6.4872844 28.021575 2.734375 24.011719 C 3.467577 22.029415 3.914527 19.981394 4.0800781 17.869141 C 4.2857085 17.410935 4.5975129 16.943359 5.0136719 16.943359 C 5.5300367 16.943359 5.7167443 17.166481 5.96875 17.416016 C 7.5450214 18.982405 14.482422 26.349609 14.482422 26.349609 L 3.8339844 12.009766 C 3.4022643 9.1999932 2.5328188 6.2897323 1.2089844 3.2773438 C 1.4511076 3.0599271 1.7920799 2.8481592 2.1972656 2.640625 C 3.0965803 2.1786145 4.2973631 1.7652274 5.5351562 1.46875 C 6.7704786 1.1722726 8.0446441 0.99781297 9.0996094 1.0175781 z " />
</svg>
