<?xml version="1.0" encoding="UTF-8" standalone="no"?>
<svg
   version="1.1"
   width="33.980358"
   height="27.51745"
   viewBox="0 0 33.980358 27.517451"
   id="svg4"
   xmlns="http://www.w3.org/2000/svg"
   xmlns:svg="http://www.w3.org/2000/svg">
  <defs>
    <!-- This is the gradient that will actually be used on
     the cards. The colors themselves will be provided by the
     template, but the x values, y values, and offsets will be
     used from the SVG. -->
    <linearGradient id="rarity" x1="0" y1="1" x2="1" y2="0">
      <stop offset="0" style="stop-color:rgb(192,55,38);stop-opacity:1" id="stop2" />
      <stop offset="0.125" style="stop-color:rgb(192,55,38);stop-opacity:1" id="stop4" />
      <stop offset="0.5" style="stop-color:rgb(241,142,30);stop-opacity:1" id="stop6" />
      <stop offset="0.875" style="stop-color:rgb(192,55,38);stop-opacity:1" id="stop8" />
      <stop offset="1" style="stop-color:rgb(192,55,38);stop-opacity:1" id="stop10" />
    </linearGradient>
    <!-- These gradients are here so that you can visualize
     what the set symbol would like like in that rarity. The
     only gradient that matters in the end is the "rarity"
     gradient. -->
    <linearGradient id="mythic" x1="0" y1="1" x2="1" y2="0">
      <stop offset="0" style="stop-color:rgb(192,55,38);stop-opacity:1"/>
      <stop offset="0.125" style="stop-color:rgb(192,55,38);stop-opacity:1"/>
      <stop offset="0.5" style="stop-color:rgb(241,142,30);stop-opacity:1"/>
      <stop offset="0.875" style="stop-color:rgb(192,55,38);stop-opacity:1"/>
      <stop offset="1" style="stop-color:rgb(192,55,38);stop-opacity:1"/>
    </linearGradient>
    <linearGradient id="rare" x1="0" y1="1" x2="1" y2="0">
      <stop offset="0" style="stop-color:rgb(146,116,67);stop-opacity:1"/>
      <stop offset="0.125" style="stop-color:rgb(146,116,67);stop-opacity:1"/>
      <stop offset="0.5" style="stop-color:rgb(211,178,108);stop-opacity:1"/>
      <stop offset="0.875" style="stop-color:rgb(146,116,67);stop-opacity:1"/>
      <stop offset="1" style="stop-color:rgb(146,116,67);stop-opacity:1"/>
    </linearGradient>
    <linearGradient id="special" x1="0" y1="1" x2="1" y2="0">
      <stop offset="0" style="stop-color:rgb(76, 56, 106);stop-opacity:1"/>
      <stop offset="0.125" style="stop-color:rgb(76, 56, 106);stop-opacity:1"/>
      <stop offset="0.5" style="stop-color:rgb(201, 173, 221);stop-opacity:1"/>
      <stop offset="0.875" style="stop-color:rgb(76, 56, 106);stop-opacity:1"/>
      <stop offset="1" style="stop-color:rgb(76, 56, 106);stop-opacity:1"/>
    </linearGradient>
    <linearGradient id="uncommon" x1="0" y1="1" x2="1" y2="0">
      <stop offset="0" style="stop-color:rgb(98,110,119);stop-opacity:1"/>
      <stop offset="0.125" style="stop-color:rgb(98,110,119);stop-opacity:1"/>
      <stop offset="0.5" style="stop-color:rgb(196,222,238);stop-opacity:1"/>
      <stop offset="0.875" style="stop-color:rgb(98,110,119);stop-opacity:1"/>
      <stop offset="1" style="stop-color:rgb(98,110,119);stop-opacity:1"/>
    </linearGradient>
    <linearGradient id="common" x1="0" y1="1" x2="1" y2="0">
      <stop offset="0" style="stop-color:rgb(0,0,0);stop-opacity:1"/>
    </linearGradient>
    <linearGradient
            id="rarity-outline" x1="0" y1="1" x2="0" y2="1">
      <stop offset="0" style="stop-color:rgb(0,0,0);stop-opacity:1"/>
    </linearGradient>
  </defs>
  <path fill="url(#rarity-outline)" d="M 7.9427783,0 7.9310593,0.99414065 C 7.9068544,3.2281032 7.9232471,7.65625 7.9232471,7.65625 v 0.421875 l 0.3046875,0.2949219 c 0,0 1.251519,1.2396126 2.0058594,2.0644531 0.0041,0.681978 -0.01121,1.344109 -0.0078,2.017578 -0.5023547,-0.417093 -1.016847,-0.829797 -1.5625,-1.115235 l -0.00586,-0.0039 -0.00781,-0.002 C 7.0572963,10.530725 5.0884738,10.313216 3.3529346,11.117187 h -0.00195 c -1.3448035,0.624761 -2.445892,1.74266 -3.00585937,3.142578 v 0.002 0.002 c -0.5064377,1.276223 -0.4466585,2.706437 0.12109375,3.939454 0.97627082,1.907534 3.35186872,3.392961 4.71679682,4.511718 2.987954,2.451389 6.6225912,4.379624 10.6406252,4.746094 h 0.002 c 1.257415,0.126432 2.50018,0.02935 3.693359,-0.18164 l 0.0039,-0.002 h 0.0059 c 3.465675,-0.651275 6.630443,-2.356658 9.259765,-4.582031 1.529411,-1.23198 2.58737,-2.03887 4.050782,-3.367187 1.073943,-1.339101 1.429334,-3.156429 0.896484,-4.802735 l -0.0039,-0.0059 -0.002,-0.0078 c -0.766559,-2.249062 -2.925841,-3.898915 -5.353559,-3.892597 -1.759294,-0.03749 -3.372406,0.716323 -4.625,1.783202 -0.01188,-0.659203 -0.01053,-1.346455 0.0078,-1.968749 0.664556,-0.67165 1.329982,-1.3412969 2.001954,-2.0019534 l 0.29884,-0.2949218 V 7.7167969 C 26.055966,5.4864645 26.071226,3.2471293 26.052166,1 l -0.0098,-0.9960937 -0.994141,0.003906 c -1.56876,0.005984 -3.142103,0.001953 -4.716797,0.001953 h -0.978516 l -0.01953,0.97851562 c -0.0043,0.20550268 -0.0051,0.38959048 -0.0059,0.58789058 -1.558262,-0.0023 -3.116011,-0.00213 -4.673828,0 -2.05e-4,-0.1943206 3.87e-4,-0.3785955 -0.002,-0.57812495 l -0.01172,-0.98632812 -0.988281,-0.001953 C 12.074635,0.00776049 10.502286,0.01581088 8.936919,0.0058594 Z M 25.58731,17.484375 c -0.0025,0.009 0.0025,0.01835 0,0.02734 -0.002,0.0084 -0.0098,0.01308 -0.01172,0.02148 z m -17.8906254,3.02539 -0.041016,0.04297 c 0.00946,-0.0092 0.010282,-0.02001 0.019531,-0.0293 0.00604,-0.0065 0.015487,-0.0071 0.021484,-0.01367 z m 18.6874994,0.09961 c 0.0032,0.0033 0.0085,0.0026 0.01172,0.0059 0.004,0.0039 0.0038,0.0098 0.0078,0.01367 z" />
  <path fill="url(#rarity)" d="m 8.9223958,7.6528594 c 0,-2.216 -0.015,-4.432 0.009,-6.647 1.5730002,0.01 3.1470002,0.002 4.7200002,0.004 0.006,0.522 -10e-4,1.044 0.009,1.567 2.22,-0.004 4.438,-0.005 6.658,0 0.012,-0.522 0.003,-1.045 0.014,-1.567 1.573,0 3.146,0.004 4.719,-0.002 0.019,2.237 0.004,4.474 0.008,6.71 -0.772,0.759 -1.536,1.526 -2.296,2.2959996 -0.076,1.461 0.051,2.923 -0.019,4.384 -0.021,0.296 0.022,0.59 0.056,0.885 0.262,-0.834 0.881,-1.484 1.508,-2.065 1.112,-0.975 2.559,-1.635 4.057,-1.6 1.956,-0.011 3.793,1.382 4.418,3.216 0.424,1.31 0.134,2.805 -0.728,3.876 -0.603,0.774 -1.431,1.356 -2.338,1.719 -0.874,0.347 -1.954,0.159 -2.618,-0.519 -0.562,-0.543 -0.76,-1.408 -0.549,-2.154 0.169,-0.737 0.768,-1.331 1.472,-1.576 0.607,-0.197 1.288,-0.091 1.83,0.237 0.313,0.17 0.556,0.441 0.871,0.607 -0.055,-0.966 -0.796,-1.85 -1.742,-2.065 -0.829,-0.204 -1.697,0.089 -2.396,0.536 -1.603,1.109 -1.919,3.7 -0.573,5.13 0.558,0.65 1.378,0.951 2.131,1.307 -2.519,2.132 -5.537,3.749 -8.799,4.362 -1.131,0.2 -2.285,0.288 -3.428,0.172 -3.755,-0.342 -7.2200002,-2.162 -10.0990002,-4.524 0.738,-0.355 1.547,-0.638 2.104,-1.268 1.442,-1.457 1.084,-4.218 -0.669,-5.271 -0.816,-0.488 -1.886,-0.719 -2.763,-0.253 -0.709,0.346 -1.11,1.086 -1.271,1.83 0.055,-0.009 0.166,-0.025 0.221,-0.032 0.461,-0.453 1.052,-0.803 1.705,-0.86 0.911,-0.082 1.819,0.497 2.177,1.328 0.137,0.307 0.156,0.647 0.215,0.974 -0.071,0.521 -0.187,1.065 -0.579,1.447 -0.622,0.682 -1.655,0.935 -2.528,0.647 -1.311,-0.461 -2.479,-1.414 -3.056,-2.695 -0.45400001,-0.984 -0.49900001,-2.149 -0.099,-3.157 0.458,-1.145 1.383,-2.09 2.498,-2.608 1.401,-0.649 3.072,-0.482 4.428,0.202 1.298,0.679 2.5280002,1.72 3.0160002,3.142 0.07,-1.777 0.026,-3.554 0.02,-5.332 -0.729,-0.8309996 -1.5870002,-1.5519996 -2.3160002,-2.3819996 z m 7.6450002,-2.148 c -1.042,0.136 -2.017,0.778 -2.517,1.71 -0.63,1.142 -0.519,2.667 0.307,3.6849996 0.473,0.588 1.141,1.036 1.885,1.19 1.112,0.28 2.361,-0.09 3.145,-0.929 0.924,-0.889 1.181,-2.3419996 0.737,-3.5269996 -0.513,-1.414 -2.066,-2.341 -3.557,-2.13 z m -0.448,10.9969996 c -0.717,0.194 -1.357,0.637 -1.805,1.226 -0.835,1.086 -0.891,2.702 -0.131,3.841 0.729,1.169 2.248,1.768 3.582,1.432 0.951,-0.22 1.787,-0.884 2.222,-1.758 0.667,-1.323 0.351,-3.075 -0.798,-4.031 -0.819,-0.755 -2.009,-0.935 -3.07,-0.71 z"/>
</svg>
