<?xml version="1.0" encoding="UTF-8" standalone="no"?>
<svg
   version="1.1"
   width="29.003"
   height="29.002001"
   viewBox="0 0 29.003 29.002001"
   id="svg4"
   xmlns="http://www.w3.org/2000/svg">
  <path fill="#000000" d="M 12.277,0.04 C 14.339,0.024 16.402,0.013 18.465,0 c 0.058,0.882 0.116,1.764 0.174,2.647 0.393,0.133 0.771,0.307 1.14,0.496 1.343,-0.365 2.681,-0.754 4.021,-1.128 1.48,-0.417 2.959,-0.835 4.44,-1.252 -0.794,2.82 -1.591,5.638 -2.384,8.458 0.194,0.368 0.365,0.749 0.5,1.142 0.882,0.058 1.765,0.117 2.647,0.175 -0.013,2.062 -0.025,4.125 -0.04,6.187 -0.873,0.061 -1.747,0.123 -2.62,0.185 -0.205,0.855 -0.531,1.683 -0.979,2.441 0.567,0.663 1.137,1.324 1.704,1.988 -1.243,1.2 -2.486,2.398 -3.728,3.599 0.431,0.32 0.959,0.5 1.494,0.527 0.625,0.034 1.253,-0.11 1.817,-0.375 0.238,-0.114 0.469,-0.251 0.662,-0.433 -0.356,1.041 -1.066,1.963 -1.993,2.559 -1.07,0.685 -2.411,0.917 -3.653,0.662 -1.388,-0.276 -2.631,-1.113 -3.489,-2.228 -0.066,0.659 -0.133,1.317 -0.199,1.976 C 15.993,27.575 14.006,27.522 12.02,27.47 11.957,26.594 11.895,25.719 11.832,24.844 11.147,24.643 10.474,24.395 9.83,24.084 8.19,25.723 6.551,27.363 4.911,29.002 4.912,27.366 4.907,25.73 4.908,24.094 3.272,24.094 1.636,24.09 0,24.091 1.639,22.451 3.279,20.812 4.918,19.172 4.606,18.529 4.359,17.855 4.158,17.17 3.283,17.107 2.407,17.045 1.532,16.982 1.48,14.996 1.427,13.009 1.376,11.023 2.034,10.957 2.692,10.89 3.35,10.824 2.409,10.097 1.667,9.1 1.296,7.966 0.978,7.012 0.94,5.963 1.214,4.993 1.478,4.02 2.064,3.14 2.857,2.517 3.305,2.164 3.809,1.877 4.351,1.697 4.114,1.951 3.951,2.264 3.821,2.583 3.571,3.213 3.464,3.913 3.595,4.582 3.67,4.971 3.832,5.342 4.066,5.662 5.265,4.419 6.464,3.177 7.663,1.934 8.327,2.501 8.988,3.071 9.651,3.639 10.409,3.191 11.236,2.864 12.092,2.66 12.155,1.787 12.216,0.913 12.277,0.04 Z"/>
  <path fill="#FFFFFF" d="M 13.033,0.845 C 12.973,1.677 12.916,2.509 12.857,3.34 11.685,3.516 10.554,3.969 9.583,4.647 8.961,4.114 8.339,3.579 7.717,3.046 6.687,4.114 5.656,5.181 4.626,6.249 5.042,6.596 5.543,6.844 6.078,6.938 6.872,7.085 7.68,6.926 8.455,6.747 c 0.992,-0.232 1.99,-0.491 3.016,-0.496 0.916,-0.012 1.847,0.199 2.632,0.682 0.6,0.36 1.103,0.863 1.527,1.416 0.444,0.585 0.778,1.262 0.915,1.987 C 18.21,8.672 19.873,7.007 21.539,5.344 21.012,4.892 20.453,4.475 19.858,4.116 19.238,3.745 18.574,3.433 17.869,3.267 L 17.707,0.813 c -1.558,0.013 -3.115,0.019 -4.673,0.031 z m 5.626,11.617 c 0.999,0.185 1.894,0.743 2.613,1.446 0.523,0.5 0.94,1.115 1.187,1.795 0.263,0.714 0.335,1.486 0.284,2.241 -0.059,0.912 -0.293,1.798 -0.498,2.685 -0.164,0.717 -0.303,1.459 -0.192,2.195 0.081,0.571 0.334,1.11 0.701,1.552 1.068,-1.03 2.135,-2.06 3.203,-3.09 -0.534,-0.622 -1.068,-1.244 -1.601,-1.866 0.678,-0.971 1.131,-2.102 1.307,-3.274 0.832,-0.06 1.664,-0.117 2.496,-0.177 0.012,-1.558 0.019,-3.115 0.031,-4.673 C 27.372,11.241 26.554,11.188 25.736,11.134 25.394,9.748 24.569,8.54 23.658,7.464 21.991,9.129 20.326,10.796 18.66,12.462 Z M 7.298,11.088 C 6.897,11.314 6.607,11.72 6.518,12.17 5.851,12.059 5.197,11.863 4.586,11.572 4.525,11.546 4.466,11.498 4.396,11.517 c -0.73,0.081 -1.46,0.16 -2.189,0.241 0.039,1.489 0.079,2.978 0.118,4.468 0.822,0.059 1.645,0.118 2.467,0.176 0.257,0.998 0.593,1.986 1.108,2.882 L 7.442,19.44 C 8.308,18.575 9.173,17.709 10.04,16.845 9.429,15.947 9.091,14.879 9.005,13.8 9.528,13.444 9.8,12.763 9.659,12.145 9.558,11.654 9.21,11.224 8.753,11.02 8.294,10.809 7.735,10.835 7.298,11.088 Z m 7.465,-0.155 c -0.585,0.087 -1.14,0.36 -1.566,0.769 -0.463,0.438 -0.774,1.032 -0.868,1.662 -0.098,0.633 0.019,1.298 0.332,1.857 0.3,0.54 0.777,0.98 1.34,1.234 0.576,0.263 1.24,0.328 1.857,0.185 0.576,-0.131 1.108,-0.445 1.503,-0.884 0.742,-0.801 0.956,-2.035 0.537,-3.042 -0.255,-0.634 -0.744,-1.17 -1.35,-1.485 -0.543,-0.285 -1.178,-0.388 -1.784,-0.296 z M 9.562,21.559 c 0.052,0.515 0.103,1.03 0.156,1.545 0.897,0.514 1.884,0.851 2.882,1.107 0.058,0.822 0.117,1.645 0.176,2.467 1.489,0.039 2.978,0.079 4.468,0.118 0.078,-0.706 0.154,-1.413 0.233,-2.119 0,-0.058 0.029,-0.122 -0.004,-0.175 -0.31,-0.634 -0.519,-1.315 -0.635,-2.01 0.634,-0.119 1.163,-0.653 1.267,-1.291 0.094,-0.505 -0.074,-1.051 -0.44,-1.412 -0.348,-0.357 -0.871,-0.531 -1.364,-0.457 -0.438,0.058 -0.841,0.313 -1.093,0.674 -1.082,-0.087 -2.153,-0.426 -3.053,-1.04 -0.866,0.864 -1.73,1.729 -2.595,2.594 z"/>
</svg>
