<?xml version="1.0" encoding="UTF-8" standalone="no"?>
<!-- Generated by IcoMoon.io -->

<svg
   version="1.1"
   width="32.000114"
   height="14.971975"
   viewBox="0 0 32.000114 14.971975"
   id="svg6"
   sodipodi:docname="uma.svg"
   inkscape:version="1.1.1 (3bf5ae0d25, 2021-09-20)"
   xmlns:inkscape="http://www.inkscape.org/namespaces/inkscape"
   xmlns:sodipodi="http://sodipodi.sourceforge.net/DTD/sodipodi-0.dtd"
   xmlns="http://www.w3.org/2000/svg"
   xmlns:svg="http://www.w3.org/2000/svg"
   xmlns:rdf="http://www.w3.org/1999/02/22-rdf-syntax-ns#"
   xmlns:cc="http://creativecommons.org/ns#"
   xmlns:dc="http://purl.org/dc/elements/1.1/">
  <defs
     id="defs10" />
  <sodipodi:namedview
     id="namedview8"
     pagecolor="#ffffff"
     bordercolor="#666666"
     borderopacity="1.0"
     inkscape:pageshadow="2"
     inkscape:pageopacity="0.0"
     inkscape:pagecheckerboard="0"
     showgrid="false"
     inkscape:zoom="36.415999"
     inkscape:cx="15.226824"
     inkscape:cy="9.1306021"
     inkscape:window-width="1920"
     inkscape:window-height="1009"
     inkscape:window-x="-8"
     inkscape:window-y="-8"
     inkscape:window-maximized="1"
     inkscape:current-layer="svg6" />
  <title
     id="title2">uma</title>
  <path
     stroke="black"
     stroke-width="1"
     d="m 12.778932,12.778988 c -2.9209998,2.922 -7.6649998,2.922 -10.5859998,0 -2.9219998,-2.9210002 -2.9219998,-7.6650002 0,-10.5860002 2.921,-2.92200032 7.665,-2.92200032 10.5859998,0 0,0 2.435201,2.0985478 3.440175,3.1380097 l 2.386825,-2.4430097 c 0.188,-0.241 0.393,-0.474 0.615,-0.695 2.921,-2.92200032 7.665,-2.92200032 10.587,0 2.921,2.921 2.921,7.665 0,10.5860002 -2.922,2.922 -7.666,2.922 -10.587,0 -1.044565,-1.085128 -2.226493,-2.12144 -3.35433,-3.1689225 -1.108893,1.1348075 -2.118672,2.0776175 -3.08767,3.1689225 z"
     />
</svg>
